<svg xmlns="http://www.w3.org/2000/svg" width="150" height="56" fill="none" xmlns:v="https://vecta.io/nano"><path d="M7.228 48.301a4.1 4.1 0 0 0-1.367-.958c-.518-.229-1.066-.337-1.632-.337a3.99 3.99 0 0 0-1.632.325 4.28 4.28 0 0 0-1.367.958 3.96 3.96 0 0 0-.909 1.379c-.211.524-.319 1.078-.319 1.632a3.98 3.98 0 0 0 .313 1.632c.217.518.53.982.921 1.379.777.825 1.867 1.283 2.999 1.259a4.15 4.15 0 0 0 2.999-1.259 3.87 3.87 0 0 0 .933-1.367 4.2 4.2 0 0 0 .325-1.632 4.2 4.2 0 0 0-.325-1.632c-.223-.53-.536-1-.94-1.379zm50.216-9.745c-.06 2.686.072 5.39.386 8.064h-.145c-.337-.663-1.078-1.885-2.222-3.674L28.108 0h-8.305v54.83h6.384V15.189c.072-2.505-.036-5.017-.301-7.522h.241c.458 1.199 1.042 2.355 1.741 3.433l28.102 43.73h7.859V0h-6.384v38.557zm49.669 10.245H84.552V29.806h19.742v-5.782H84.552V5.806h21.182V0H78.012v54.83h29.065l.036-6.029zM111.997 0v5.806h15.719v49.018h6.384V5.806H150V0h-38.003z" fill="#621ee5"/></svg>