<?xml version="1.0" encoding="UTF-8" standalone="no"?>
<!-- Created with Inkscape (http://www.inkscape.org/) -->

<svg
   width="21.467422mm"
   height="21.166668mm"
   viewBox="0 0 21.467422 21.166668"
   version="1.1"
   id="svg5"
   sodipodi:docname="freebsd.svg"
   inkscape:version="1.1 (ce6663b3b7, 2021-05-25)"
   xmlns:inkscape="http://www.inkscape.org/namespaces/inkscape"
   xmlns:sodipodi="http://sodipodi.sourceforge.net/DTD/sodipodi-0.dtd"
   xmlns:xlink="http://www.w3.org/1999/xlink"
   xmlns="http://www.w3.org/2000/svg"
   xmlns:svg="http://www.w3.org/2000/svg">
  <sodipodi:namedview
     id="namedview7"
     pagecolor="#ffffff"
     bordercolor="#666666"
     borderopacity="1.0"
     inkscape:pageshadow="2"
     inkscape:pageopacity="0.0"
     inkscape:pagecheckerboard="0"
     inkscape:document-units="mm"
     showgrid="false"
     inkscape:zoom="5.12"
     inkscape:cx="-51.171875"
     inkscape:cy="22.167969"
     inkscape:window-width="3368"
     inkscape:window-height="1376"
     inkscape:window-x="1992"
     inkscape:window-y="27"
     inkscape:window-maximized="1"
     inkscape:current-layer="layer1"
     fit-margin-top="0"
     fit-margin-left="0"
     fit-margin-right="0"
     fit-margin-bottom="0" />
  <defs
     id="defs2">
    <radialGradient
       id="paint0_radial"
       cx="0"
       cy="0"
       r="1"
       gradientUnits="userSpaceOnUse"
       gradientTransform="matrix(-15.411476,0,0,-15.411476,96.999672,-324.84822)">
      <stop
         offset="0.3644"
         stop-color="#FF2F00"
         id="stop1305" />
      <stop
         offset="0.498"
         stop-color="white"
         id="stop1307" />
      <stop
         offset="0.5567"
         stop-color="#FFB700"
         id="stop1309" />
      <stop
         offset="0.6193"
         stop-color="#FF8800"
         id="stop1311" />
      <stop
         offset="0.7376"
         stop-color="#FF3300"
         id="stop1313" />
      <stop
         offset="0.7915"
         stop-color="#FF1100"
         id="stop1315" />
      <stop
         offset="0.9413"
         stop-color="#7C0000"
         id="stop1317" />
      <stop
         offset="1"
         stop-color="#EB0000"
         id="stop1319" />
    </radialGradient>
    <linearGradient
       id="paint1_linear"
       x1="27.590401"
       y1="8.8777103"
       x2="1.9170099"
       y2="8.8777103"
       gradientUnits="userSpaceOnUse"
       gradientTransform="matrix(0.26458333,0,0,0.26458333,82.485266,-322.03589)">
      <stop
         stop-color="white"
         id="stop1322" />
      <stop
         offset="0.5016"
         stop-color="#787878"
         id="stop1324" />
      <stop
         offset="0.845"
         stop-color="#222222"
         id="stop1326" />
      <stop
         offset="1"
         id="stop1328" />
    </linearGradient>
    <linearGradient
       id="paint2_linear"
       x1="1.88595"
       y1="18.2703"
       x2="5.9286599"
       y2="15.7436"
       gradientUnits="userSpaceOnUse">
      <stop
         offset="0.082996"
         stop-color="white"
         id="stop1331" />
      <stop
         offset="0.543"
         stop-color="#787878"
         id="stop1333" />
      <stop
         offset="0.8579"
         stop-color="#222222"
         id="stop1335" />
      <stop
         offset="1"
         id="stop1337" />
    </linearGradient>
    <linearGradient
       id="paint4_linear"
       x1="20.762699"
       y1="1.7717201"
       x2="11.6655"
       y2="11.8798"
       gradientUnits="userSpaceOnUse"
       gradientTransform="matrix(0.26458333,0,0,0.26458333,82.485266,-322.03589)">
      <stop
         offset="0.082996"
         stop-color="white"
         id="stop1349" />
      <stop
         offset="0.543"
         stop-color="#787878"
         id="stop1351" />
      <stop
         offset="0.8579"
         stop-color="#222222"
         id="stop1353" />
      <stop
         offset="1"
         id="stop1355" />
    </linearGradient>
    <radialGradient
       id="paint5_radial"
       cx="0"
       cy="0"
       r="1"
       gradientUnits="userSpaceOnUse"
       gradientTransform="matrix(21.531897,0,0,21.531897,93.121463,-300.64359)">
      <stop
         id="stop1358" />
      <stop
         offset="1"
         stop-color="white"
         id="stop1360" />
    </radialGradient>
    <radialGradient
       id="paint6_radial"
       cx="0"
       cy="0"
       r="1"
       gradientUnits="userSpaceOnUse"
       gradientTransform="matrix(17.772644,0,0,17.772644,90.142731,-315.33031)">
      <stop
         stop-color="#FF0000"
         id="stop1363" />
      <stop
         offset="0.1131"
         stop-color="#E20000"
         id="stop1365" />
      <stop
         offset="0.4558"
         stop-color="#8D0000"
         id="stop1367" />
      <stop
         offset="0.6119"
         stop-color="#6B0000"
         id="stop1369" />
      <stop
         offset="0.9525"
         stop-color="#FF0000"
         id="stop1371" />
    </radialGradient>
    <linearGradient
       id="paint7_linear"
       x1="1.47271"
       y1="39.957401"
       x2="79.059502"
       y2="39.957401"
       gradientUnits="userSpaceOnUse"
       gradientTransform="matrix(0.26458333,0,0,0.26458333,82.485266,-322.03589)">
      <stop
         offset="0.082996"
         stop-color="white"
         id="stop1374" />
      <stop
         offset="0.543"
         stop-color="#787878"
         id="stop1376" />
      <stop
         offset="0.8579"
         stop-color="#222222"
         id="stop1378" />
      <stop
         offset="1"
         id="stop1380" />
    </linearGradient>
    <linearGradient
       id="paint8_linear"
       x1="79.565002"
       y1="40.7155"
       x2="1.97824"
       y2="40.7155"
       gradientUnits="userSpaceOnUse"
       gradientTransform="matrix(0.26458333,0,0,0.26458333,82.485266,-322.03589)">
      <stop
         offset="0.082996"
         stop-color="white"
         id="stop1383" />
      <stop
         offset="0.543"
         stop-color="#787878"
         id="stop1385" />
      <stop
         offset="0.8579"
         stop-color="#222222"
         id="stop1387" />
      <stop
         offset="1"
         id="stop1389" />
    </linearGradient>
    <radialGradient
       id="paint9_radial"
       cx="0"
       cy="0"
       r="1"
       gradientUnits="userSpaceOnUse"
       gradientTransform="matrix(-9.6656524,0,0,-9.6656524,93.559004,-311.20533)">
      <stop
         stop-color="#FF0000"
         id="stop1392" />
      <stop
         offset="0.4772"
         stop-color="#FF7A00"
         id="stop1394" />
      <stop
         offset="0.8374"
         stop-color="#FFD000"
         id="stop1396" />
      <stop
         offset="1"
         stop-color="#FFF200"
         id="stop1398" />
    </radialGradient>
    <linearGradient
       id="paint10_linear"
       x1="40.7701"
       y1="2.0987101"
       x2="40.7701"
       y2="42.322601"
       gradientUnits="userSpaceOnUse"
       gradientTransform="matrix(0.26458333,0,0,0.26458333,82.485266,-322.03589)">
      <stop
         offset="0.082996"
         stop-color="white"
         id="stop1401" />
      <stop
         offset="0.543"
         stop-color="#787878"
         id="stop1403" />
      <stop
         offset="0.8579"
         stop-color="#222222"
         id="stop1405" />
      <stop
         offset="1"
         id="stop1407" />
    </linearGradient>
    <radialGradient
       id="paint11_radial"
       cx="0"
       cy="0"
       r="1"
       gradientUnits="userSpaceOnUse"
       gradientTransform="matrix(-12.028463,-21.146416,18.669913,-10.619784,93.537044,-337.4267)">
      <stop
         offset="0.3644"
         stop-color="#FF2F00"
         id="stop1410" />
      <stop
         offset="0.498"
         stop-color="white"
         id="stop1412" />
      <stop
         offset="0.5567"
         stop-color="#FFB700"
         id="stop1414" />
      <stop
         offset="0.6193"
         stop-color="#FF8800"
         id="stop1416" />
      <stop
         offset="0.7376"
         stop-color="#FF3300"
         id="stop1418" />
      <stop
         offset="0.7915"
         stop-color="#FF1100"
         id="stop1420" />
      <stop
         offset="0.9413"
         stop-color="#7C0000"
         id="stop1422" />
      <stop
         offset="1"
         stop-color="#EB0000"
         id="stop1424" />
    </radialGradient>
    <radialGradient
       id="paint12_radial"
       cx="0"
       cy="0"
       r="1"
       gradientUnits="userSpaceOnUse"
       gradientTransform="matrix(15.411688,0,0,15.411688,89.444654,-324.84822)">
      <stop
         offset="0.3644"
         stop-color="#FF2F00"
         id="stop1427" />
      <stop
         offset="0.498"
         stop-color="white"
         id="stop1429" />
      <stop
         offset="0.5567"
         stop-color="#FFB700"
         id="stop1431" />
      <stop
         offset="0.6193"
         stop-color="#FF8800"
         id="stop1433" />
      <stop
         offset="0.7376"
         stop-color="#FF3300"
         id="stop1435" />
      <stop
         offset="0.7915"
         stop-color="#FF1100"
         id="stop1437" />
      <stop
         offset="0.9413"
         stop-color="#7C0000"
         id="stop1439" />
      <stop
         offset="1"
         stop-color="#EB0000"
         id="stop1441" />
    </radialGradient>
    <linearGradient
       id="paint13_linear"
       x1="57.642899"
       y1="3.5318"
       x2="69.268898"
       y2="11.8722"
       gradientUnits="userSpaceOnUse">
      <stop
         offset="0.082996"
         stop-color="white"
         id="stop1444" />
      <stop
         offset="0.543"
         stop-color="#787878"
         id="stop1446" />
      <stop
         offset="0.8579"
         stop-color="#222222"
         id="stop1448" />
      <stop
         offset="1"
         id="stop1450" />
    </linearGradient>
    <linearGradient
       id="paint15_linear"
       x1="54.230301"
       y1="8.8777103"
       x2="79.902603"
       y2="8.8777103"
       gradientUnits="userSpaceOnUse"
       gradientTransform="matrix(0.26458333,0,0,0.26458333,82.485266,-322.03589)">
      <stop
         stop-color="white"
         id="stop1462" />
      <stop
         offset="0.5016"
         stop-color="#787878"
         id="stop1464" />
      <stop
         offset="0.845"
         stop-color="#222222"
         id="stop1466" />
      <stop
         offset="1"
         id="stop1468" />
    </linearGradient>
    <radialGradient
       id="paint16_radial"
       cx="0"
       cy="0"
       r="1"
       gradientUnits="userSpaceOnUse"
       gradientTransform="matrix(7.5178707,0,0,7.5178707,96.131125,-319.49939)">
      <stop
         stop-color="#B00000"
         id="stop1471" />
      <stop
         offset="1"
         stop-color="#EBBFBF"
         id="stop1473" />
    </radialGradient>
    <radialGradient
       id="paint17_radial"
       cx="0"
       cy="0"
       r="1"
       gradientUnits="userSpaceOnUse"
       gradientTransform="matrix(2.6951252,0,0,2.6951252,95.595899,-319.43231)">
      <stop
         stop-color="#B00000"
         id="stop1476" />
      <stop
         offset="1"
         stop-color="white"
         id="stop1478" />
    </radialGradient>
    <linearGradient
       id="paint18_linear"
       x1="99.021797"
       y1="-11.5424"
       x2="62.085098"
       y2="28.8144"
       gradientUnits="userSpaceOnUse"
       gradientTransform="matrix(0.26458333,0,0,0.26458333,82.485266,-322.03589)">
      <stop
         offset="0.1629"
         stop-color="#FF5900"
         id="stop1481" />
      <stop
         offset="0.1874"
         stop-color="#FF5000"
         id="stop1483" />
      <stop
         offset="0.2921"
         stop-color="#FF2F00"
         id="stop1485" />
      <stop
         offset="1"
         stop-color="#EB0000"
         id="stop1487" />
    </linearGradient>
    <radialGradient
       id="paint19_radial"
       cx="0"
       cy="0"
       r="1"
       gradientUnits="userSpaceOnUse"
       gradientTransform="matrix(0.24807721,0.40441159,-1.8663939,1.1448975,101.00372,-320.55785)">
      <stop
         offset="0.2584"
         stop-color="white"
         id="stop1490" />
      <stop
         offset="0.3764"
         stop-color="#AFAFAF"
         id="stop1492" />
      <stop
         offset="1"
         id="stop1494" />
    </radialGradient>
    <radialGradient
       id="paint20_radial"
       cx="0"
       cy="0"
       r="1"
       gradientUnits="userSpaceOnUse"
       gradientTransform="matrix(0.26406341,-0.39412427,1.4461774,0.96893939,85.185974,-320.78423)">
      <stop
         offset="0.2584"
         stop-color="white"
         id="stop1497" />
      <stop
         offset="0.3764"
         stop-color="#AFAFAF"
         id="stop1499" />
      <stop
         offset="1"
         id="stop1501" />
    </radialGradient>
    <radialGradient
       id="paint21_radial"
       cx="0"
       cy="0"
       r="1"
       gradientUnits="userSpaceOnUse"
       gradientTransform="matrix(1.5210047,1.3193302,-2.1769671,2.509741,87.441705,-316.16833)">
      <stop
         offset="0.2584"
         stop-color="white"
         id="stop1504" />
      <stop
         offset="0.3764"
         stop-color="#AFAFAF"
         id="stop1506" />
      <stop
         offset="1"
         id="stop1508" />
    </radialGradient>
    <radialGradient
       id="paint22_radial"
       cx="0"
       cy="0"
       r="1"
       gradientUnits="userSpaceOnUse"
       gradientTransform="matrix(1.2293725,0.63257942,-1.0438079,2.0285652,86.238036,-313.82796)">
      <stop
         offset="0.2584"
         stop-color="white"
         id="stop1511" />
      <stop
         offset="0.3764"
         stop-color="#AFAFAF"
         id="stop1513" />
      <stop
         offset="1"
         id="stop1515" />
    </radialGradient>
    <linearGradient
       id="paint23_linear"
       x1="72.4506"
       y1="5.97365"
       x2="19.052799"
       y2="64.1026"
       gradientUnits="userSpaceOnUse"
       gradientTransform="matrix(0.26458333,0,0,0.26458333,82.485266,-322.03589)">
      <stop
         offset="0.01"
         stop-color="#34B3D1"
         id="stop1518" />
      <stop
         offset="0.1742"
         stop-color="white"
         id="stop1520" />
      <stop
         offset="0.3315"
         stop-color="#FDBF6F"
         id="stop1522" />
      <stop
         offset="0.427"
         stop-color="#FFFF7F"
         id="stop1524" />
      <stop
         offset="0.5"
         stop-color="#673920"
         id="stop1526" />
      <stop
         offset="0.6517"
         stop-color="#B55004"
         id="stop1528" />
      <stop
         offset="1"
         stop-color="#4E0901"
         id="stop1530" />
    </linearGradient>
    <radialGradient
       id="paint24_radial"
       cx="0"
       cy="0"
       r="1"
       gradientUnits="userSpaceOnUse"
       gradientTransform="matrix(41.0221,0,0,50.5538,23.7594,68.5945)">
      <stop
         stop-color="white"
         id="stop1533" />
      <stop
         offset="1"
         id="stop1535" />
    </radialGradient>
    <radialGradient
       id="paint25_radial"
       cx="0"
       cy="0"
       r="1"
       gradientUnits="userSpaceOnUse"
       gradientTransform="matrix(63.0267,0,0,64.3217,26.9028,23.6784)">
      <stop
         stop-color="#FF0000"
         id="stop1538" />
      <stop
         offset="0.1131"
         stop-color="#E20000"
         id="stop1540" />
      <stop
         offset="0.4558"
         stop-color="#8D0000"
         id="stop1542" />
      <stop
         offset="0.6119"
         stop-color="#6B0000"
         id="stop1544" />
      <stop
         offset="0.9525"
         stop-color="#FF0000"
         id="stop1546" />
    </radialGradient>
    <radialGradient
       id="paint26_radial"
       cx="0"
       cy="0"
       r="1"
       gradientUnits="userSpaceOnUse"
       gradientTransform="matrix(9.4823047,15.369235,-20.250641,12.493969,57.1336,14.895)">
      <stop
         stop-color="white"
         id="stop1549" />
      <stop
         offset="1"
         id="stop1551" />
    </radialGradient>
    <linearGradient
       id="paint27_linear"
       x1="77.361801"
       y1="17.322599"
       x2="74.076599"
       y2="15.0482"
       gradientUnits="userSpaceOnUse">
      <stop
         offset="0.082996"
         stop-color="white"
         id="stop1554" />
      <stop
         offset="0.543"
         stop-color="#787878"
         id="stop1556" />
      <stop
         offset="0.8579"
         stop-color="#222222"
         id="stop1558" />
      <stop
         offset="1"
         id="stop1560" />
    </linearGradient>
    <linearGradient
       inkscape:collect="always"
       xlink:href="#paint13_linear"
       id="linearGradient1732"
       gradientUnits="userSpaceOnUse"
       x1="57.642899"
       y1="3.5318"
       x2="69.268898"
       y2="11.8722"
       gradientTransform="matrix(0.26458333,0,0,0.26458333,82.485266,-322.03589)" />
    <linearGradient
       inkscape:collect="always"
       xlink:href="#paint13_linear"
       id="linearGradient1734"
       gradientUnits="userSpaceOnUse"
       x1="57.642899"
       y1="3.5318"
       x2="69.268898"
       y2="11.8722"
       gradientTransform="matrix(0.26458333,0,0,0.26458333,82.485266,-322.03589)" />
    <linearGradient
       inkscape:collect="always"
       xlink:href="#paint2_linear"
       id="linearGradient1736"
       gradientUnits="userSpaceOnUse"
       x1="1.88595"
       y1="18.2703"
       x2="5.9286599"
       y2="15.7436"
       gradientTransform="matrix(0.26458333,0,0,0.26458333,82.485266,-322.03589)" />
    <linearGradient
       inkscape:collect="always"
       xlink:href="#paint2_linear"
       id="linearGradient1738"
       gradientUnits="userSpaceOnUse"
       x1="1.88595"
       y1="18.2703"
       x2="5.9286599"
       y2="15.7436"
       gradientTransform="matrix(0.26458333,0,0,0.26458333,82.485266,-322.03589)" />
  </defs>
  <g
     inkscape:label="Layer 1"
     inkscape:groupmode="layer"
     id="layer1"
     transform="translate(-82.485266,322.03589)">
    <path
       d="m 82.757953,-321.7632 c -1.20677,1.20677 1.950479,6.32853 2.497738,6.8758 0.547264,0.54724 1.964505,0 3.17127,-1.20679 1.206791,-1.20677 1.754028,-2.62401 1.206791,-3.17127 -0.533242,-0.54726 -5.669026,-3.70451 -6.875799,-2.49774 z"
       fill="url(#paint0_radial)"
       id="path1246"
       style="fill:url(#paint0_radial);stroke-width:0.264583" />
    <path
       d="m 89.381128,-317.45532 c -2.273221,-2.04869 -5.248043,-4.46224 -6.384653,-4.36401 0.841933,-0.58935 4.167576,1.48741 6.791608,3.36773 -0.07017,0.29469 -0.210502,0.64547 -0.406955,0.99628 z"
       fill="url(#paint1_linear)"
       id="path1248"
       style="fill:url(#paint1_linear);stroke-width:0.264583" />
    <path
       d="m 82.856172,-321.63692 c -1.164675,1.16468 1.880317,6.08999 2.399519,6.60918 0.519192,0.51919 1.880315,0 3.044984,-1.16467 1.164669,-1.16467 1.683861,-2.52581 1.164669,-3.04501 -0.519191,-0.51918 -5.444498,-3.56417 -6.609172,-2.3995 z"
       fill="url(#paint2_linear)"
       id="path1250"
       style="fill:url(#linearGradient1738);stroke-width:0.264583" />
    <path
       d="m 82.856172,-321.63692 c -1.164675,1.16468 1.880317,6.08999 2.399519,6.60918 0.519192,0.51919 1.880315,0 3.044984,-1.16467 1.164669,-1.16467 1.683861,-2.52581 1.164669,-3.04501 -0.519191,-0.51918 -5.444498,-3.56417 -6.609172,-2.3995 z"
       fill="url(#paint3_linear)"
       id="path1252"
       style="fill:url(#linearGradient1736);stroke-width:0.264583" />
    <path
       d="m 82.856172,-321.63692 c -1.164675,1.16468 1.880317,6.08999 2.399519,6.60918 0.519192,0.51919 1.880315,0 3.044984,-1.16467 1.164669,-1.16467 1.683861,-2.52581 1.164669,-3.04501 -0.519191,-0.51918 -5.444498,-3.56417 -6.609172,-2.3995 z"
       fill="url(#paint4_linear)"
       id="path1254"
       style="fill:url(#paint4_linear);stroke-width:0.264583" />
    <path
       d="m 93.240023,-300.86922 c 5.796835,0 10.496097,-4.69927 10.496097,-10.4961 0,-5.79684 -4.699262,-10.4961 -10.496097,-10.4961 -5.796863,0 -10.496117,4.69926 -10.496117,10.4961 0,5.79683 4.699254,10.4961 10.496117,10.4961 z"
       fill="url(#paint5_radial)"
       id="path1256"
       style="fill:url(#paint5_radial);stroke-width:0.264583" />
    <path
       d="m 103.20288,-311.12677 c 0,5.51465 -4.476272,9.99093 -9.990929,9.99093 -5.514658,0 -9.990943,-4.47628 -9.990943,-9.99093 0,-5.51469 4.476285,-9.99096 9.990943,-9.99096 5.514657,-0.014 9.990929,4.46225 9.990929,9.99096 z"
       fill="url(#paint6_radial)"
       id="path1258"
       style="fill:url(#paint6_radial);stroke-width:0.264583" />
    <path
       d="m 83.698108,-310.98644 c 0,-5.47259 4.434186,-9.90676 9.906749,-9.90676 4.939347,0 9.022713,3.60629 9.780453,8.32111 -0.56129,-5.14982 -4.925296,-9.16304 -10.229478,-9.16304 -5.683065,0 -10.299658,4.6166 -10.299658,10.29964 0,5.30418 4.013211,9.66822 9.149012,10.22951 -4.7008,-0.75774 -8.307078,-4.84114 -8.307078,-9.78046 z"
       fill="url(#paint7_linear)"
       id="path1260"
       style="fill:url(#paint7_linear);stroke-width:0.264583" />
    <path
       opacity="0.63"
       d="m 102.71179,-311.74418 c 0,5.47256 -4.43418,9.90674 -9.906769,9.90674 -4.939321,0 -9.022707,-3.60627 -9.780447,-8.32112 0.56129,5.14985 4.925316,9.16305 10.229498,9.16305 5.683039,0 10.299648,-4.60256 10.299648,-10.29964 0,-5.30419 -4.013227,-9.66821 -9.163051,-10.2295 4.714822,0.75774 8.321121,4.85515 8.321121,9.78047 z"
       fill="url(#paint8_linear)"
       id="path1262"
       style="fill:url(#paint8_linear);stroke-width:0.264583" />
    <path
       d="m 90.391492,-317.63772 c -0.08422,0.54726 0.463047,1.305 0.771763,0.32274 0.308716,-0.96822 0.322739,-2.24516 1.473386,-2.83451 1.150646,-0.57532 2.09079,-0.67355 3.059033,-0.29468 0.673523,0.25258 1.024334,0.57532 1.192715,0.75774 -0.420952,-0.50516 -2.132886,-2.23112 -4.490297,-0.89806 -2.736294,1.54355 -1.908387,-0.35081 -2.175007,1.75403 -0.280644,2.11886 0.168407,1.19274 0.168407,1.19274 z m 6.496897,-2.03467 c 0.07017,0.0842 0.09824,0.12628 0.09824,0.12628 0,0 -0.02807,-0.0561 -0.09824,-0.12628 z m -0.112236,1.36112 c -2.6942,-0.4771 -6.005804,1.20677 -8.32112,4.05532 0.926121,-1.61372 0.02807,-4.1816 -0.07017,-3.91501 -1.347099,3.87292 -3.45192,3.84484 -3.999177,5.07968 -0.715642,1.62774 -0.07016,3.5782 1.43129,4.36401 -0.743712,3.95708 3.002889,6.65128 5.304182,6.65128 2.329339,0 0.406929,-3.24143 0.406929,-6.6653 0,-3.39579 -0.336762,-7.60547 5.248064,-9.56998 z m 6.118037,5.97773 c -0.67355,-3.00289 -1.54355,-4.13951 -1.54355,-4.13951 0,0 1.47338,2.8766 1.06646,5.48661 -0.40693,2.60998 -2.07677,2.75032 -2.13289,3.40982 -0.0561,0.65953 0.60338,0.79983 1.1366,0.46307 0,-0.014 2.13291,-2.2171 1.47338,-5.21999 z m -2.28724,-0.28064 c -4.546442,1.93643 -5.248064,2.4416 -6.693377,3.94306 -1.740007,1.81014 -1.627744,5.00949 -0.715645,6.32851 0.912098,1.31903 2.974816,1.33308 4.588536,0.0281 2.357406,-1.88031 -1.122574,-5.68304 2.820486,-10.29964 z"
       fill="url(#paint9_radial)"
       id="path1264"
       style="fill:url(#paint9_radial);stroke-width:0.264583" />
    <path
       d="m 102.33293,-313.82097 c 0,4.13951 -2.722243,-4.86918 -11.68884,-1.45936 -3.423867,1.305 -6.426759,5.59887 -6.426759,1.45936 0,-4.13951 4.055325,-7.49321 9.064814,-7.49321 4.995465,-0.014 9.050785,3.33967 9.050785,7.49321 z"
       fill="url(#paint10_linear)"
       id="path1266"
       style="fill:url(#paint10_linear);stroke-width:0.264583" />
    <path
       opacity="0.15"
       d="m 93.829382,-320.71077 c 0.701622,-0.70161 4.841134,0.67355 6.426758,1.57162 0.64547,0.36483 0.77179,1.34707 0.28064,2.21708 -0.49112,0.85598 -1.58562,1.4874 -2.034671,0.89807 -2.778363,-3.60629 -5.023538,-4.32193 -4.672727,-4.68677 z"
       fill="url(#paint11_radial)"
       id="path1268"
       style="fill:url(#paint11_radial);stroke-width:0.264583" />
    <path
       d="m 103.68,-321.7632 c 1.20677,1.20677 -1.95048,6.32853 -2.49772,6.8758 -0.54726,0.54724 -1.964526,0 -3.17129,-1.20679 -1.206765,-1.20677 -1.754029,-2.62401 -1.206765,-3.17127 0.547264,-0.54726 5.669015,-3.70451 6.875775,-2.49774 z"
       fill="url(#paint12_radial)"
       id="path1270"
       style="fill:url(#paint12_radial);stroke-width:0.264583" />
    <path
       d="m 103.58176,-321.63692 c 1.1647,1.16468 -1.88031,6.08999 -2.3995,6.60918 -0.51919,0.51919 -1.880315,0 -3.044985,-1.16467 -1.164669,-1.16467 -1.683861,-2.52581 -1.164669,-3.04501 0.519192,-0.51918 5.444494,-3.56417 6.609154,-2.3995 z"
       fill="url(#paint13_linear)"
       id="path1272"
       style="fill:url(#linearGradient1734);stroke-width:0.264583" />
    <path
       d="m 103.58176,-321.63692 c 1.1647,1.16468 -1.88031,6.08999 -2.3995,6.60918 -0.51919,0.51919 -1.880315,0 -3.044985,-1.16467 -1.164669,-1.16467 -1.683861,-2.52581 -1.164669,-3.04501 0.519192,-0.51918 5.444494,-3.56417 6.609154,-2.3995 z"
       fill="url(#paint14_linear)"
       id="path1274"
       style="fill:url(#linearGradient1732);stroke-width:0.264583" />
    <path
       d="m 97.2392,-317.45532 c 2.259171,-2.06273 5.23401,-4.46224 6.38466,-4.36401 -0.84193,-0.58935 -4.167584,1.48741 -6.791589,3.36773 0.05612,0.29469 0.196453,0.64547 0.406929,0.99628 z"
       fill="url(#paint15_linear)"
       id="path1276"
       style="fill:url(#paint15_linear);stroke-width:0.264583" />
    <path
       d="m 101.18223,-314.90143 c -0.54724,0.54724 -1.964502,0 -3.171267,-1.20679 -1.206765,-1.20676 -1.754029,-2.624 -1.206765,-3.17127 0.112237,-0.11226 0.463048,-0.36483 0.926122,-0.65951 -0.701623,-0.28065 -1.276933,-0.29468 -1.599671,0.014 -0.645478,0.64548 0.09821,2.41354 1.627743,3.94307 1.543526,1.54352 3.311608,2.27322 3.943028,1.62771 0.2947,-0.29466 0.2947,-0.81386 0.0842,-1.43126 -0.26659,0.46305 -0.49112,0.77176 -0.60338,0.88403 z"
       fill="url(#paint16_radial)"
       id="path1278"
       style="fill:url(#paint16_radial);stroke-width:0.264583" />
    <path
       d="m 96.621821,-317.37113 0.378857,-0.0421 c -0.224499,-0.40693 -0.364834,-0.79984 -0.39288,-1.12257 l -0.603408,-0.11227 c 0.112262,0.37889 0.322765,0.81389 0.617431,1.27693 z"
       fill="url(#paint17_radial)"
       id="path1280"
       style="fill:url(#paint17_radial);stroke-width:0.264583" />
    <path
       opacity="0.53"
       d="m 101.28047,-317.28691 c -0.94014,1.20677 -1.403215,0.87 -2.764338,1.45934 1.066456,0.9121 2.203048,1.27693 2.666128,0.81388 0.12628,-0.12628 0.3929,-0.49112 0.70162,-1.01031 0.21048,-0.435 0.43498,-0.88405 0.6595,-1.33308 1.13662,-2.20305 -0.53321,-0.87 -1.26291,0.0702 z"
       fill="url(#paint18_linear)"
       id="path1282"
       style="fill:url(#paint18_linear);stroke-width:0.264583" />
    <path
       d="m 101.29449,-320.09336 c -1.17869,0.72968 -2.259166,1.10854 -2.427573,0.84192 -0.154358,-0.25257 0.673549,-1.0524 1.852263,-1.76805 1.1787,-0.72967 2.25918,-1.10854 2.42758,-0.84193 0.15433,0.25258 -0.67355,1.03838 -1.85227,1.76806 z"
       fill="url(#paint19_radial)"
       id="path1284"
       style="fill:url(#paint19_radial);stroke-width:0.264583" />
    <path
       d="m 85.49424,-321.22996 c 0.912098,0.61742 1.51548,1.30499 1.347099,1.55758 -0.168381,0.25258 -1.038384,-0.0421 -1.96451,-0.65952 -0.912095,-0.61742 -1.51548,-1.305 -1.347094,-1.55758 0.168386,-0.25258 1.038384,0.0421 1.964505,0.65952 z"
       fill="url(#paint20_radial)"
       id="path1286"
       style="fill:url(#paint20_radial);stroke-width:0.264583" />
    <path
       d="m 89.184727,-314.6629 c -1.375172,1.58564 -3.269509,2.20305 -4.237733,1.36112 -0.968224,-0.82788 -0.631452,-2.79241 0.757748,-4.37806 1.375146,-1.58562 3.269509,-2.20305 4.237726,-1.36112 0.954193,0.8279 0.617405,2.79241 -0.757741,4.37806 z"
       fill="url(#paint21_radial)"
       id="path1288"
       style="fill:url(#paint21_radial);stroke-width:0.264583" />
    <path
       d="m 87.641148,-313.1053 c -0.6595,1.27693 -1.824196,1.99258 -2.60999,1.59967 -0.771774,-0.40693 -0.869998,-1.76808 -0.210484,-3.04501 0.659516,-1.27693 1.824186,-1.99258 2.595949,-1.59967 0.799862,0.3929 0.884052,1.76808 0.224525,3.04501 z"
       fill="url(#paint22_radial)"
       id="path1290"
       style="fill:url(#paint22_radial);stroke-width:0.264583" />
    <path
       d="m 103.39936,-311.33728 c 0,-0.85595 -0.11226,-1.69788 -0.30871,-2.49772 0,0.12629 0.014,0.26663 0.014,0.39291 0,4.2658 -3.451916,7.71771 -7.717714,7.71771 -4.265798,0 -7.717738,-3.45191 -7.717738,-7.71771 0,-4.2658 3.45194,-7.71773 7.717738,-7.71773 0.126285,0 0.26662,0 0.392906,0.014 -0.799835,-0.19645 -1.641766,-0.30871 -2.497746,-0.30871 -5.598848,0 -10.131261,4.5324 -10.131261,10.13127 0,5.59885 4.532413,10.13127 10.131261,10.13127 5.584825,-0.014 10.117244,-4.54644 10.117244,-10.14532 z"
       fill="url(#paint23_linear)"
       id="path1292"
       style="fill:url(#paint23_linear);stroke-width:0.264583" />
    <mask
       id="mask0"
       mask-type="alpha"
       maskUnits="userSpaceOnUse"
       x="0"
       y="0"
       width="82"
       height="80">
      <path
         d="M 81.3259,0.235107 H 0.182129 V 79.7879 H 81.3259 Z"
         fill="url(#paint24_radial)"
         id="path1294" />
    </mask>
    <g
       mask="url(#mask0)"
       id="g1303"
       transform="matrix(0.26458333,0,0,0.26458333,82.485266,-322.03589)">
      <path
         d="M 41.5495,74.6434 C 21.237,74.6434 4.74308,57.8313 4.74308,37.0945 4.74308,21.2901 14.3424,7.71305 27.9195,2.19739 13.4409,7.44787 2.99292,21.5552 2.99292,38.1552 c 0,21.002 16.70608,38.0793 37.28368,38.0793 13.3649,0 25.0857,-7.1598 31.662,-17.9259 -6.6294,9.8645 -17.7667,16.3348 -30.3891,16.3348 z"
         fill="url(#paint25_radial)"
         id="path1297"
         style="fill:url(#paint25_radial)" />
      <path
         d="m 64.991,15.032 c -4.0838,2.4926 -8.4326,2.8108 -9.7585,0.6894 C 53.9066,13.6 56.1341,9.83451 60.2178,7.28882 64.3015,4.79617 76.2874,-0.242175 77.6133,1.87923 78.9392,4.05367 69.0216,12.5393 64.991,15.032 Z"
         fill="url(#paint26_radial)"
         id="path1299"
         style="fill:url(#paint26_radial)" />
      <path
         d="m 80.3712,2.03833 c -0.7955,4.61406 -3.4473,9.12207 -7.6901,12.46327 -4.9323,3.8185 -10.9783,5.1444 -16.1757,4.0307 0.7425,1.0607 1.591,2.0683 2.5987,3.129 4.4019,4.402 9.5463,6.3643 11.5086,4.402 C 72.522,24.154 82.6517,7.76613 80.3712,2.03833 Z"
         fill="url(#paint27_linear)"
         id="path1301"
         style="fill:url(#paint27_linear)" />
    </g>
  </g>
</svg>
