<svg xmlns="http://www.w3.org/2000/svg" xmlns:xlink="http://www.w3.org/1999/xlink" width="83" height="80" fill="none" xmlns:v="https://vecta.io/nano"><path d="M1.955 1.031c-4.561 4.561 7.372 23.919 9.44 25.987s7.425 0 11.986-4.561 6.629-9.917 4.561-11.986C25.927 8.403 6.516-3.53 1.955 1.031z" fill="url(#B)"/><path d="M26.988 17.312C18.396 9.569 7.153.447 2.857.818 6.039-1.409 18.608 6.44 28.526 13.547c-.265 1.114-.796 2.44-1.538 3.765z" fill="url(#C)"/><use xlink:href="#b" fill="url(#D)"/><use xlink:href="#b" fill="url(#D)"/><use xlink:href="#b" fill="url(#E)"/><path d="M41.573 80c21.909 0 39.67-17.761 39.67-39.67S63.482.659 41.573.659 1.902 18.42 1.902 40.33 19.663 80 41.573 80z" fill="url(#F)"/><path d="M79.227 41.231c0 20.843-16.918 37.761-37.761 37.761S3.705 62.074 3.705 41.231 20.624 3.47 41.466 3.47c20.843-.053 37.761 16.865 37.761 37.761z" fill="url(#G)"/><path d="M5.509 41.762c0-20.684 16.759-37.443 37.443-37.443 18.668 0 34.102 13.63 36.966 31.45C77.796 16.305 61.302 1.137 41.254 1.137c-21.479 0-38.928 17.449-38.928 38.928 0 20.047 15.168 36.541 34.579 38.663C19.139 75.863 5.509 60.43 5.509 41.762z" fill="url(#H)"/><path opacity=".63" d="M77.371 38.898c0 20.684-16.759 37.443-37.443 37.443-18.668 0-34.102-13.63-36.966-31.45 2.121 19.464 18.615 34.632 38.663 34.632 21.479 0 38.928-17.395 38.928-38.928 0-20.047-15.168-36.541-34.632-38.663 17.82 2.864 31.45 18.35 31.45 36.966z" fill="url(#I)"/><path d="M30.806 16.623c-.318 2.068 1.75 4.932 2.917 1.22 1.167-3.659 1.22-8.486 5.569-10.713 4.349-2.174 7.902-2.546 11.562-1.114 2.546.955 3.872 2.174 4.508 2.864C53.771 6.971 47.3.447 38.39 5.486c-10.342 5.834-7.213-1.326-8.22 6.629-1.061 8.008.636 4.508.636 4.508zm24.555-7.69c.265.318.371.477.371.477s-.106-.212-.371-.477zm-.424 5.144c-10.183-1.803-22.699 4.561-31.45 15.327 3.5-6.099.106-15.804-.265-14.797-5.091 14.638-13.047 14.532-15.115 19.199-2.705 6.152-.265 13.524 5.41 16.494-2.811 14.956 11.35 25.139 20.047 25.139 8.804 0 1.538-12.251 1.538-25.192 0-12.835-1.273-28.745 19.835-36.17zM78.061 36.67c-2.546-11.349-5.834-15.645-5.834-15.645s5.569 10.872 4.031 20.737-7.849 10.395-8.061 12.888 2.281 3.023 4.296 1.75c0-.053 8.061-8.38 5.569-19.729zm-8.645-1.061c-17.183 7.319-19.835 9.228-25.298 14.903-6.576 6.841-6.152 18.933-2.705 23.919s11.243 5.038 17.343.106c8.91-7.107-4.243-21.479 10.66-38.928z" fill="url(#J)"/><path d="M75.939 31.049c0 15.645-10.289-18.403-44.178-5.516-12.941 4.932-24.29 21.161-24.29 5.516S22.798 2.728 41.732 2.728c18.88-.053 34.208 12.622 34.208 28.321z" fill="url(#K)"/><path opacity=".15" d="M43.8 5.008c2.652-2.652 18.297 2.546 24.29 5.94 2.44 1.379 2.917 5.091 1.061 8.38-1.856 3.235-5.993 5.622-7.69 3.394C50.96 9.092 42.474 6.387 43.8 5.008z" fill="url(#L)"/><path d="M81.031 1.031c4.561 4.561-7.372 23.919-9.44 25.987s-7.425 0-11.986-4.561-6.629-9.917-4.561-11.986S76.47-3.53 81.031 1.031z" fill="url(#M)"/><use xlink:href="#c" fill="url(#N)"/><use xlink:href="#c" fill="url(#N)"/><path d="M56.688 17.312C65.226 9.516 76.47.447 80.819.818 77.636-1.409 65.067 6.44 55.15 13.547c.212 1.114.742 2.44 1.538 3.765z" fill="url(#O)"/><path d="M71.59 26.965c-2.068 2.068-7.425 0-11.986-4.561s-6.629-9.917-4.561-11.986c.424-.424 1.75-1.379 3.5-2.493-2.652-1.061-4.826-1.114-6.046.053-2.44 2.44.371 9.122 6.152 14.903 5.834 5.834 12.516 8.592 14.903 6.152 1.114-1.114 1.114-3.076.318-5.41-1.008 1.75-1.856 2.917-2.281 3.341z" fill="url(#P)"/><path d="M54.354 17.631l1.432-.159c-.849-1.538-1.379-3.023-1.485-4.243l-2.28-.424c.424 1.432 1.22 3.076 2.334 4.826z" fill="url(#Q)"/><path opacity=".53" d="M71.962 17.949c-3.553 4.561-5.303 3.288-10.448 5.516 4.031 3.447 8.326 4.826 10.077 3.076.477-.477 1.485-1.856 2.652-3.818l2.493-5.038c4.296-8.326-2.015-3.288-4.773.265z" fill="url(#R)"/><path d="M72.015 7.342c-4.455 2.758-8.539 4.19-9.175 3.182-.583-.955 2.546-3.978 7.001-6.682 4.455-2.758 8.539-4.19 9.175-3.182.583.955-2.546 3.925-7.001 6.682z" fill="url(#S)"/><path d="M12.297 3.046c3.447 2.334 5.728 4.932 5.091 5.887s-3.925-.159-7.425-2.493C6.516 4.107 4.236 1.508 4.872.553s3.925.159 7.425 2.493z" fill="url(#T)"/><path d="M26.245 27.866c-5.198 5.993-12.357 8.327-16.017 5.144-3.659-3.129-2.387-10.554 2.864-16.547 5.197-5.993 12.357-8.326 16.017-5.144 3.606 3.129 2.333 10.554-2.864 16.547z" fill="url(#U)"/><path d="M20.411 33.753c-2.493 4.826-6.895 7.531-9.864 6.046-2.917-1.538-3.288-6.682-.796-11.509s6.895-7.531 9.812-6.046c3.023 1.485 3.341 6.682.849 11.509z" fill="url(#V)"/><path d="M79.97 40.436c0-3.235-.424-6.417-1.167-9.44l.053 1.485c0 16.123-13.047 29.169-29.169 29.169S20.518 48.603 20.518 32.481 33.564 3.311 49.687 3.311c.477 0 1.008 0 1.485.053-3.023-.742-6.205-1.167-9.44-1.167-21.161 0-38.291 17.13-38.291 38.291S20.571 78.78 41.732 78.78C62.84 78.727 79.97 61.597 79.97 40.436z" fill="url(#W)"/><mask id="A" mask-type="alpha" maskUnits="userSpaceOnUse" x="1" y="0" width="82" height="80"><path d="M82.25.235H1.107v79.553H82.25V.235z" fill="url(#X)"/></mask><g mask="url(#A)"><path d="M42.474 74.643c-20.312 0-36.806-16.812-36.806-37.549 0-15.804 9.599-29.381 23.176-34.897C14.365 7.448 3.917 21.555 3.917 38.155c0 21.002 16.706 38.079 37.284 38.079 13.365 0 25.086-7.16 31.662-17.926-6.629 9.865-17.767 16.335-30.389 16.335z" fill="url(#Y)"/><path d="M65.916 15.032c-4.084 2.493-8.432 2.811-9.758.689s.902-5.887 4.985-8.433c4.084-2.493 16.07-7.531 17.396-5.41 1.326 2.174-8.592 10.66-12.622 13.153z" fill="url(#Z)"/><path d="M81.296 2.038c-.796 4.614-3.447 9.122-7.69 12.463-4.932 3.819-10.978 5.144-16.176 4.031.742 1.061 1.591 2.068 2.599 3.129 4.402 4.402 9.546 6.364 11.509 4.402 1.909-1.909 12.039-18.297 9.758-24.025z" fill="url(#a)"/></g><defs><radialGradient id="B" cx="0" cy="0" r="1" gradientTransform="translate(55.7822 -10.6293) rotate(180) scale(58.2481)" xlink:href="#d"><stop offset=".364" stop-color="#ff2f00"/><stop offset=".498" stop-color="#fff"/><stop offset=".557" stop-color="#ffb700"/><stop offset=".619" stop-color="#f80"/><stop offset=".738" stop-color="#f30"/><stop offset=".792" stop-color="#f10"/><stop offset=".941" stop-color="#7c0000"/><stop offset="1" stop-color="#eb0000"/></radialGradient><linearGradient id="C" x1="28.515" y1="8.878" x2="2.842" y2="8.878" xlink:href="#d"><stop stop-color="#fff"/><stop offset=".502" stop-color="#787878"/><stop offset=".845" stop-color="#222"/><stop offset="1"/></linearGradient><linearGradient id="D" x1="2.811" y1="18.27" x2="6.853" y2="15.744" xlink:href="#d"><stop offset=".083" stop-color="#fff"/><stop offset=".543" stop-color="#787878"/><stop offset=".858" stop-color="#222"/><stop offset="1"/></linearGradient><linearGradient id="E" x1="21.687" y1="1.772" x2="12.59" y2="11.88" xlink:href="#d"><stop offset=".083" stop-color="#fff"/><stop offset=".543" stop-color="#787878"/><stop offset=".858" stop-color="#222"/><stop offset="1"/></linearGradient><radialGradient id="F" cx="0" cy="0" r="1" gradientTransform="translate(41.1244 80.8527) scale(81.3804)" xlink:href="#d"><stop/><stop offset="1" stop-color="#fff"/></radialGradient><radialGradient id="G" cx="0" cy="0" r="1" gradientTransform="translate(29.8661 25.3439) scale(67.1722)" xlink:href="#d"><stop stop-color="red"/><stop offset=".113" stop-color="#e20000"/><stop offset=".456" stop-color="#8d0000"/><stop offset=".612" stop-color="#6b0000"/><stop offset=".953" stop-color="red"/></radialGradient><linearGradient id="H" x1="2.397" y1="39.957" x2="79.984" y2="39.957" xlink:href="#d"><stop offset=".083" stop-color="#fff"/><stop offset=".543" stop-color="#787878"/><stop offset=".858" stop-color="#222"/><stop offset="1"/></linearGradient><linearGradient id="I" x1="80.49" y1="40.716" x2="2.903" y2="40.716" xlink:href="#d"><stop offset=".083" stop-color="#fff"/><stop offset=".543" stop-color="#787878"/><stop offset=".858" stop-color="#222"/><stop offset="1"/></linearGradient><radialGradient id="J" cx="0" cy="0" r="1" gradientTransform="translate(42.7781 40.9344) rotate(180) scale(36.5316)" xlink:href="#d"><stop stop-color="red"/><stop offset=".477" stop-color="#ff7a00"/><stop offset=".837" stop-color="#ffd000"/><stop offset="1" stop-color="#fff200"/></radialGradient><linearGradient id="K" x1="41.695" y1="2.099" x2="41.695" y2="42.323" xlink:href="#d"><stop offset=".083" stop-color="#fff"/><stop offset=".543" stop-color="#787878"/><stop offset=".858" stop-color="#222"/><stop offset="1"/></linearGradient><radialGradient id="L" cx="0" cy="0" r="1" gradientTransform="translate(42.695 -58.17) rotate(-119.632) scale(91.9486 81.1803)" xlink:href="#d"><stop offset=".364" stop-color="#ff2f00"/><stop offset=".498" stop-color="#fff"/><stop offset=".557" stop-color="#ffb700"/><stop offset=".619" stop-color="#f80"/><stop offset=".738" stop-color="#f30"/><stop offset=".792" stop-color="#f10"/><stop offset=".941" stop-color="#7c0000"/><stop offset="1" stop-color="#eb0000"/></radialGradient><radialGradient id="M" cx="0" cy="0" r="1" gradientTransform="translate(27.2277 -10.6293) scale(58.2489)" xlink:href="#d"><stop offset=".364" stop-color="#ff2f00"/><stop offset=".498" stop-color="#fff"/><stop offset=".557" stop-color="#ffb700"/><stop offset=".619" stop-color="#f80"/><stop offset=".738" stop-color="#f30"/><stop offset=".792" stop-color="#f10"/><stop offset=".941" stop-color="#7c0000"/><stop offset="1" stop-color="#eb0000"/></radialGradient><linearGradient id="N" x1="58.568" y1="3.532" x2="70.194" y2="11.872" xlink:href="#d"><stop offset=".083" stop-color="#fff"/><stop offset=".543" stop-color="#787878"/><stop offset=".858" stop-color="#222"/><stop offset="1"/></linearGradient><linearGradient id="O" x1="55.155" y1="8.878" x2="80.827" y2="8.878" xlink:href="#d"><stop stop-color="#fff"/><stop offset=".502" stop-color="#787878"/><stop offset=".845" stop-color="#222"/><stop offset="1"/></linearGradient><radialGradient id="P" cx="0" cy="0" r="1" gradientTransform="translate(52.4995 9.58678) scale(28.414)" xlink:href="#d"><stop stop-color="#b00000"/><stop offset="1" stop-color="#ebbfbf"/></radialGradient><radialGradient id="Q" cx="0" cy="0" r="1" gradientTransform="translate(50.4764 9.84031) scale(10.1863)" xlink:href="#d"><stop stop-color="#b00000"/><stop offset="1" stop-color="#fff"/></radialGradient><linearGradient id="R" x1="99.946" y1="-11.542" x2="63.01" y2="28.814" xlink:href="#d"><stop offset=".163" stop-color="#ff5900"/><stop offset=".187" stop-color="#ff5000"/><stop offset=".292" stop-color="#ff2f00"/><stop offset="1" stop-color="#eb0000"/></linearGradient><radialGradient id="S" cx="0" cy="0" r="1" gradientTransform="translate(70.9157 5.58629) rotate(58.4739) scale(1.79315 8.27554)" xlink:href="#d"><stop offset=".258" stop-color="#fff"/><stop offset=".376" stop-color="#afafaf"/><stop offset="1"/></radialGradient><radialGradient id="T" cx="0" cy="0" r="1" gradientTransform="translate(11.132 4.73061) rotate(-56.1779) scale(1.79304 6.57928)" xlink:href="#d"><stop offset=".258" stop-color="#fff"/><stop offset=".376" stop-color="#afafaf"/><stop offset="1"/></radialGradient><radialGradient id="U" cx="0" cy="0" r="1" gradientTransform="translate(19.6575 22.1766) rotate(40.9386) scale(7.60999 12.5569)" xlink:href="#d"><stop offset=".258" stop-color="#fff"/><stop offset=".376" stop-color="#afafaf"/><stop offset="1"/></radialGradient><radialGradient id="V" cx="0" cy="0" r="1" gradientTransform="translate(15.1083 31.0221) rotate(27.2283) scale(5.22548 8.62247)" xlink:href="#d"><stop offset=".258" stop-color="#fff"/><stop offset=".376" stop-color="#afafaf"/><stop offset="1"/></radialGradient><linearGradient id="W" x1="73.375" y1="5.974" x2="19.977" y2="64.103" xlink:href="#d"><stop offset=".01" stop-color="#34b3d1"/><stop offset=".174" stop-color="#fff"/><stop offset=".332" stop-color="#fdbf6f"/><stop offset=".427" stop-color="#ffff7f"/><stop offset=".5" stop-color="#673920"/><stop offset=".652" stop-color="#b55004"/><stop offset="1" stop-color="#4e0901"/></linearGradient><radialGradient id="X" cx="0" cy="0" r="1" gradientTransform="translate(24.6839 68.5945) scale(41.0221 50.5538)" xlink:href="#d"><stop stop-color="#fff"/><stop offset="1"/></radialGradient><radialGradient id="Y" cx="0" cy="0" r="1" gradientTransform="translate(27.8273 23.6784) scale(63.0267 64.3217)" xlink:href="#d"><stop stop-color="red"/><stop offset=".113" stop-color="#e20000"/><stop offset=".456" stop-color="#8d0000"/><stop offset=".612" stop-color="#6b0000"/><stop offset=".953" stop-color="red"/></radialGradient><radialGradient id="Z" cx="0" cy="0" r="1" gradientTransform="translate(58.0582 14.895) rotate(58.3268) scale(18.059 23.7947)" xlink:href="#d"><stop stop-color="#fff"/><stop offset="1"/></radialGradient><linearGradient id="a" x1="78.286" y1="17.323" x2="75.001" y2="15.048" xlink:href="#d"><stop offset=".083" stop-color="#fff"/><stop offset=".543" stop-color="#787878"/><stop offset=".858" stop-color="#222"/><stop offset="1"/></linearGradient><path id="b" d="M2.326 1.508c-4.402 4.402 7.107 23.017 9.069 24.98s7.107 0 11.509-4.402 6.364-9.546 4.402-11.509S6.728-2.894 2.326 1.508z"/><path id="c" d="M80.659 1.508c4.402 4.402-7.107 23.017-9.069 24.98s-7.107 0-11.509-4.402-6.364-9.546-4.402-11.509 20.578-13.471 24.98-9.069z"/><linearGradient id="d" gradientUnits="userSpaceOnUse"/></defs></svg>