<svg width="83" height="80" viewBox="0 0 83 80" fill="none" xmlns="http://www.w3.org/2000/svg">
<path d="M1.95519 1.03063C-2.60583 5.59166 9.32708 24.9495 11.3955 27.0179C13.4638 29.0862 18.8204 27.0179 23.3814 22.4568C27.9424 17.8958 30.0108 12.5393 27.9424 10.4709C25.9271 8.40252 6.51622 -3.53039 1.95519 1.03063Z" fill="url(#paint0_radial)"/>
<path d="M26.9878 17.3124C18.3961 9.56929 7.15266 0.447239 2.85681 0.818485C6.03892 -1.40899 18.6083 6.44021 28.5258 13.5469C28.2607 14.6607 27.7303 15.9865 26.9878 17.3124Z" fill="url(#paint1_linear)"/>
<path d="M2.32647 1.50799C-2.07545 5.90991 9.43318 24.5253 11.3955 26.4876C13.3578 28.4499 18.5022 26.4876 22.9041 22.0856C27.306 17.6837 29.2683 12.5393 27.306 10.577C25.3437 8.6147 6.72839 -2.89393 2.32647 1.50799Z" fill="url(#paint2_linear)"/>
<path d="M2.32647 1.50799C-2.07545 5.90991 9.43318 24.5253 11.3955 26.4876C13.3578 28.4499 18.5022 26.4876 22.9041 22.0856C27.306 17.6837 29.2683 12.5393 27.306 10.577C25.3437 8.6147 6.72839 -2.89393 2.32647 1.50799Z" fill="url(#paint3_linear)"/>
<path d="M2.32647 1.50799C-2.07545 5.90991 9.43318 24.5253 11.3955 26.4876C13.3578 28.4499 18.5022 26.4876 22.9041 22.0856C27.306 17.6837 29.2683 12.5393 27.306 10.577C25.3437 8.6147 6.72839 -2.89393 2.32647 1.50799Z" fill="url(#paint4_linear)"/>
<path d="M41.5725 80C63.4818 80 81.2428 62.239 81.2428 40.3297C81.2428 18.4204 63.4818 0.659363 41.5725 0.659363C19.6632 0.659363 1.90216 18.4204 1.90216 40.3297C1.90216 62.239 19.6632 80 41.5725 80Z" fill="url(#paint5_radial)"/>
<path d="M79.2274 41.2313C79.2274 62.0741 62.3092 78.9924 41.4664 78.9924C20.6235 78.9924 3.70532 62.0741 3.70532 41.2313C3.70532 20.3885 20.6235 3.47028 41.4664 3.47028C62.3092 3.41724 79.2274 20.3355 79.2274 41.2313Z" fill="url(#paint6_radial)"/>
<path d="M5.50853 41.7617C5.50853 21.0779 22.2676 4.31883 42.9514 4.31883C61.6197 4.31883 77.053 17.9489 79.9169 35.7687C77.7955 16.3048 61.3015 1.13672 41.2542 1.13672C19.775 1.13672 2.32642 18.5853 2.32642 40.0645C2.32642 60.1118 17.4945 76.6058 36.9053 78.7272C19.1386 75.8633 5.50853 60.43 5.50853 41.7617Z" fill="url(#paint7_linear)"/>
<path opacity="0.63" d="M77.3712 38.8978C77.3712 59.5815 60.6121 76.3406 39.9284 76.3406C21.26 76.3406 5.82679 62.7106 2.96289 44.8907C5.0843 64.3547 21.5782 79.5227 41.6255 79.5227C63.1048 79.5227 80.5534 62.1272 80.5534 40.5949C80.5534 20.5476 65.3853 4.05366 45.9214 1.93225C63.7412 4.79615 77.3712 20.2824 77.3712 38.8978Z" fill="url(#paint8_linear)"/>
<path d="M30.8063 16.623C30.4881 18.6914 32.5565 21.5553 33.7233 17.8428C34.89 14.1834 34.9431 9.35717 39.2919 7.12969C43.6408 4.95525 47.1942 4.584 50.8536 6.01595C53.3993 6.97058 54.7252 8.19039 55.3616 8.87985C53.7705 6.97058 47.3003 0.447258 38.3903 5.4856C28.0485 11.3195 31.1776 4.15972 30.1699 12.115C29.1092 20.1233 30.8063 16.623 30.8063 16.623ZM55.3616 8.93289C55.6268 9.2511 55.7328 9.4102 55.7328 9.4102C55.7328 9.4102 55.6268 9.19806 55.3616 8.93289ZM54.9373 14.0773C44.7546 12.2741 32.2383 18.6383 23.4875 29.4045C26.9878 23.3054 23.5935 13.6 23.2223 14.6076C18.1309 29.2454 10.1756 29.1393 8.10726 33.8064C5.40247 39.9585 7.84209 47.3303 13.5168 50.3003C10.706 65.2562 24.8664 75.439 33.5641 75.439C42.368 75.439 35.1022 63.1879 35.1022 50.2473C35.1022 37.4128 33.8293 21.5022 54.9373 14.0773ZM78.0607 36.6703C75.515 25.3208 72.2268 21.0249 72.2268 21.0249C72.2268 21.0249 77.7955 31.8971 76.2575 41.7617C74.7194 51.6262 68.4083 52.1566 68.1961 54.6492C67.984 57.1419 70.4766 57.6722 72.492 56.3994C72.492 56.3463 80.5533 48.0198 78.0607 36.6703ZM69.4159 35.6096C52.2325 42.9284 49.5808 44.8377 44.1181 50.5125C37.5418 57.354 37.9661 69.446 41.4133 74.4313C44.8606 79.4166 52.6568 79.4697 58.7559 74.5374C67.6658 67.4307 54.513 53.0582 69.4159 35.6096Z" fill="url(#paint9_radial)"/>
<path d="M75.9393 31.0485C75.9393 46.6939 65.6505 12.6453 31.761 25.5328C18.8204 30.4651 7.47089 46.6939 7.47089 31.0485C7.47089 15.4031 22.7981 2.7277 41.7316 2.7277C60.6121 2.67467 75.9393 15.3501 75.9393 31.0485Z" fill="url(#paint10_linear)"/>
<path opacity="0.15" d="M43.8 5.00832C46.4517 2.35656 62.0971 7.55401 68.0901 10.9483C70.5297 12.3272 71.007 16.0396 69.1508 19.3278C67.2946 22.563 63.1578 24.9495 61.4607 22.7221C50.9597 9.09203 42.4741 6.38723 43.8 5.00832Z" fill="url(#paint11_radial)"/>
<path d="M81.0306 1.03063C85.5916 5.59166 73.6587 24.9495 71.5904 27.0179C69.522 29.0862 64.1654 27.0179 59.6044 22.4568C55.0434 17.8958 52.975 12.5393 55.0434 10.4709C57.1118 8.40252 76.4696 -3.53039 81.0306 1.03063Z" fill="url(#paint12_radial)"/>
<path d="M80.6594 1.50799C85.0613 5.90991 73.5527 24.5253 71.5904 26.4876C69.6281 28.4499 64.4837 26.4876 60.0818 22.0856C55.6798 17.6837 53.7175 12.5393 55.6798 10.577C57.6421 8.6147 76.2575 -2.89393 80.6594 1.50799Z" fill="url(#paint13_linear)"/>
<path d="M80.6594 1.50799C85.0613 5.90991 73.5527 24.5253 71.5904 26.4876C69.6281 28.4499 64.4837 26.4876 60.0818 22.0856C55.6798 17.6837 53.7175 12.5393 55.6798 10.577C57.6421 8.6147 76.2575 -2.89393 80.6594 1.50799Z" fill="url(#paint14_linear)"/>
<path d="M56.6875 17.3124C65.2262 9.51625 76.4696 0.447239 80.8185 0.818485C77.6364 -1.40899 65.0671 6.44021 55.1495 13.5469C55.3616 14.6607 55.892 15.9865 56.6875 17.3124Z" fill="url(#paint15_linear)"/>
<path d="M71.5904 26.9649C69.522 29.0332 64.1654 26.9649 59.6044 22.4038C55.0434 17.8428 52.975 12.4863 55.0434 10.4179C55.4677 9.99361 56.7935 9.03898 58.5437 7.92524C55.892 6.86454 53.7175 6.8115 52.4977 7.97828C50.0581 10.4179 52.8689 17.1003 58.6498 22.8812C64.4836 28.715 71.1661 31.4729 73.5527 29.0332C74.6664 27.9195 74.6664 25.9572 73.8709 23.6237C72.8632 25.3738 72.0146 26.5406 71.5904 26.9649Z" fill="url(#paint16_radial)"/>
<path d="M54.3539 17.6306L55.7859 17.4715C54.9373 15.9335 54.407 14.4485 54.3009 13.2287L52.0204 12.8044C52.4447 14.2364 53.2402 15.8805 54.3539 17.6306Z" fill="url(#paint17_radial)"/>
<path opacity="0.53" d="M71.9616 17.9488C68.4083 22.5098 66.6581 21.237 61.5137 23.4645C65.5443 26.9118 69.8402 28.2907 71.5904 26.5405C72.0677 26.0632 73.0753 24.6843 74.2421 22.722C75.0376 21.0779 75.8862 19.3808 76.7348 17.6836C81.0306 9.35713 74.7194 14.3955 71.9616 17.9488Z" fill="url(#paint18_linear)"/>
<path d="M72.0146 7.34184C67.5597 10.0997 63.476 11.5316 62.8396 10.5239C62.2562 9.56932 65.3852 6.54631 69.8402 3.84152C74.2952 1.08369 78.3789 -0.348263 79.0153 0.659406C79.5987 1.61404 76.4696 4.58401 72.0146 7.34184Z" fill="url(#paint19_radial)"/>
<path d="M12.2971 3.04596C15.7444 5.37951 18.0249 7.97823 17.3885 8.93287C16.752 9.8875 13.4639 8.77376 9.96354 6.44021C6.51625 4.10666 4.23574 1.50794 4.87216 0.553307C5.50858 -0.401326 8.79676 0.712412 12.2971 3.04596Z" fill="url(#paint20_radial)"/>
<path d="M26.2453 27.8664C21.0478 33.8594 13.8881 36.1929 10.2287 33.0108C6.56924 29.8818 7.84208 22.4568 13.0926 16.4638C18.29 10.4709 25.4498 8.13733 29.1092 11.3194C32.7156 14.4485 31.4427 21.8734 26.2453 27.8664Z" fill="url(#paint21_radial)"/>
<path d="M20.4114 33.7534C17.9188 38.5796 13.5169 41.2844 10.5469 39.7994C7.62995 38.2614 7.25871 33.1169 9.75136 28.2907C12.244 23.4645 16.6459 20.7597 19.5629 22.2447C22.5859 23.7297 22.9041 28.9272 20.4114 33.7534Z" fill="url(#paint22_radial)"/>
<path d="M79.9699 40.4357C79.9699 37.2006 79.5457 34.0185 78.8032 30.9955C78.8032 31.4728 78.8562 32.0032 78.8562 32.4805C78.8562 48.6032 65.8095 61.6498 49.6869 61.6498C33.5642 61.6498 20.5175 48.6032 20.5175 32.4805C20.5175 16.3578 33.5642 3.31113 49.6869 3.31113C50.1642 3.31113 50.6945 3.31113 51.1718 3.36416C48.1488 2.62167 44.9667 2.19739 41.7316 2.19739C20.5705 2.19739 3.44019 19.3277 3.44019 40.4888C3.44019 61.6498 20.5705 78.7802 41.7316 78.7802C62.8396 78.7271 79.9699 61.5968 79.9699 40.4357Z" fill="url(#paint23_linear)"/>
<mask id="mask0" mask-type="alpha" maskUnits="userSpaceOnUse" x="1" y="0" width="82" height="80">
<path d="M82.2504 0.235107H1.10663V79.7879H82.2504V0.235107Z" fill="url(#paint24_radial)"/>
</mask>
<g mask="url(#mask0)">
<path d="M42.474 74.6434C22.1616 74.6434 5.66764 57.8313 5.66764 37.0945C5.66764 21.2901 15.267 7.71305 28.844 2.19739C14.3654 7.44787 3.91748 21.5552 3.91748 38.1552C3.91748 59.1572 20.6236 76.2345 41.2012 76.2345C54.5661 76.2345 66.2868 69.0747 72.8632 58.3086C66.2338 68.1731 55.0964 74.6434 42.474 74.6434Z" fill="url(#paint25_radial)"/>
<path d="M65.9156 15.032C61.8319 17.5246 57.4831 17.8428 56.1572 15.7214C54.8313 13.6 57.0588 9.83451 61.1425 7.28882C65.2262 4.79617 77.2121 -0.242175 78.538 1.87923C79.8639 4.05367 69.9463 12.5393 65.9156 15.032Z" fill="url(#paint26_radial)"/>
<path d="M81.2958 2.03827C80.5003 6.65233 77.8485 11.1603 73.6057 14.5015C68.6734 18.3201 62.6274 19.6459 57.43 18.5322C58.1725 19.5929 59.0211 20.6006 60.0287 21.6613C64.4306 26.0632 69.575 28.0255 71.5374 26.0632C73.4466 24.1539 83.5763 7.76607 81.2958 2.03827Z" fill="url(#paint27_linear)"/>
</g>
<defs>
<radialGradient id="paint0_radial" cx="0" cy="0" r="1" gradientUnits="userSpaceOnUse" gradientTransform="translate(55.7822 -10.6293) rotate(180) scale(58.2481)">
<stop offset="0.3644" stop-color="#FF2F00"/>
<stop offset="0.498" stop-color="white"/>
<stop offset="0.5567" stop-color="#FFB700"/>
<stop offset="0.6193" stop-color="#FF8800"/>
<stop offset="0.7376" stop-color="#FF3300"/>
<stop offset="0.7915" stop-color="#FF1100"/>
<stop offset="0.9413" stop-color="#7C0000"/>
<stop offset="1" stop-color="#EB0000"/>
</radialGradient>
<linearGradient id="paint1_linear" x1="28.5151" y1="8.87771" x2="2.8417" y2="8.87771" gradientUnits="userSpaceOnUse">
<stop stop-color="white"/>
<stop offset="0.5016" stop-color="#787878"/>
<stop offset="0.845" stop-color="#222222"/>
<stop offset="1"/>
</linearGradient>
<linearGradient id="paint2_linear" x1="2.81057" y1="18.2704" x2="6.85329" y2="15.7437" gradientUnits="userSpaceOnUse">
<stop offset="0.082996" stop-color="white"/>
<stop offset="0.543" stop-color="#787878"/>
<stop offset="0.8579" stop-color="#222222"/>
<stop offset="1"/>
</linearGradient>
<linearGradient id="paint3_linear" x1="2.81057" y1="18.2704" x2="6.85329" y2="15.7437" gradientUnits="userSpaceOnUse">
<stop offset="0.082996" stop-color="white"/>
<stop offset="0.543" stop-color="#787878"/>
<stop offset="0.8579" stop-color="#222222"/>
<stop offset="1"/>
</linearGradient>
<linearGradient id="paint4_linear" x1="21.6873" y1="1.77178" x2="12.5901" y2="11.8799" gradientUnits="userSpaceOnUse">
<stop offset="0.082996" stop-color="white"/>
<stop offset="0.543" stop-color="#787878"/>
<stop offset="0.8579" stop-color="#222222"/>
<stop offset="1"/>
</linearGradient>
<radialGradient id="paint5_radial" cx="0" cy="0" r="1" gradientUnits="userSpaceOnUse" gradientTransform="translate(41.1244 80.8527) scale(81.3804)">
<stop/>
<stop offset="1" stop-color="white"/>
</radialGradient>
<radialGradient id="paint6_radial" cx="0" cy="0" r="1" gradientUnits="userSpaceOnUse" gradientTransform="translate(29.8661 25.3439) scale(67.1722)">
<stop stop-color="#FF0000"/>
<stop offset="0.1131" stop-color="#E20000"/>
<stop offset="0.4558" stop-color="#8D0000"/>
<stop offset="0.6119" stop-color="#6B0000"/>
<stop offset="0.9525" stop-color="#FF0000"/>
</radialGradient>
<linearGradient id="paint7_linear" x1="2.39727" y1="39.9574" x2="79.984" y2="39.9574" gradientUnits="userSpaceOnUse">
<stop offset="0.082996" stop-color="white"/>
<stop offset="0.543" stop-color="#787878"/>
<stop offset="0.8579" stop-color="#222222"/>
<stop offset="1"/>
</linearGradient>
<linearGradient id="paint8_linear" x1="80.4896" y1="40.7155" x2="2.9028" y2="40.7155" gradientUnits="userSpaceOnUse">
<stop offset="0.082996" stop-color="white"/>
<stop offset="0.543" stop-color="#787878"/>
<stop offset="0.8579" stop-color="#222222"/>
<stop offset="1"/>
</linearGradient>
<radialGradient id="paint9_radial" cx="0" cy="0" r="1" gradientUnits="userSpaceOnUse" gradientTransform="translate(42.7781 40.9344) rotate(180) scale(36.5316)">
<stop stop-color="#FF0000"/>
<stop offset="0.4772" stop-color="#FF7A00"/>
<stop offset="0.8374" stop-color="#FFD000"/>
<stop offset="1" stop-color="#FFF200"/>
</radialGradient>
<linearGradient id="paint10_linear" x1="41.6946" y1="2.09871" x2="41.6946" y2="42.3226" gradientUnits="userSpaceOnUse">
<stop offset="0.082996" stop-color="white"/>
<stop offset="0.543" stop-color="#787878"/>
<stop offset="0.8579" stop-color="#222222"/>
<stop offset="1"/>
</linearGradient>
<radialGradient id="paint11_radial" cx="0" cy="0" r="1" gradientUnits="userSpaceOnUse" gradientTransform="translate(42.695 -58.17) rotate(-119.632) scale(91.9486 81.1803)">
<stop offset="0.3644" stop-color="#FF2F00"/>
<stop offset="0.498" stop-color="white"/>
<stop offset="0.5567" stop-color="#FFB700"/>
<stop offset="0.6193" stop-color="#FF8800"/>
<stop offset="0.7376" stop-color="#FF3300"/>
<stop offset="0.7915" stop-color="#FF1100"/>
<stop offset="0.9413" stop-color="#7C0000"/>
<stop offset="1" stop-color="#EB0000"/>
</radialGradient>
<radialGradient id="paint12_radial" cx="0" cy="0" r="1" gradientUnits="userSpaceOnUse" gradientTransform="translate(27.2277 -10.6293) scale(58.2489)">
<stop offset="0.3644" stop-color="#FF2F00"/>
<stop offset="0.498" stop-color="white"/>
<stop offset="0.5567" stop-color="#FFB700"/>
<stop offset="0.6193" stop-color="#FF8800"/>
<stop offset="0.7376" stop-color="#FF3300"/>
<stop offset="0.7915" stop-color="#FF1100"/>
<stop offset="0.9413" stop-color="#7C0000"/>
<stop offset="1" stop-color="#EB0000"/>
</radialGradient>
<linearGradient id="paint13_linear" x1="58.5675" y1="3.53186" x2="70.1935" y2="11.8722" gradientUnits="userSpaceOnUse">
<stop offset="0.082996" stop-color="white"/>
<stop offset="0.543" stop-color="#787878"/>
<stop offset="0.8579" stop-color="#222222"/>
<stop offset="1"/>
</linearGradient>
<linearGradient id="paint14_linear" x1="58.5675" y1="3.53186" x2="70.1935" y2="11.8722" gradientUnits="userSpaceOnUse">
<stop offset="0.082996" stop-color="white"/>
<stop offset="0.543" stop-color="#787878"/>
<stop offset="0.8579" stop-color="#222222"/>
<stop offset="1"/>
</linearGradient>
<linearGradient id="paint15_linear" x1="55.1549" y1="8.87771" x2="80.8272" y2="8.87771" gradientUnits="userSpaceOnUse">
<stop stop-color="white"/>
<stop offset="0.5016" stop-color="#787878"/>
<stop offset="0.845" stop-color="#222222"/>
<stop offset="1"/>
</linearGradient>
<radialGradient id="paint16_radial" cx="0" cy="0" r="1" gradientUnits="userSpaceOnUse" gradientTransform="translate(52.4995 9.58678) scale(28.414)">
<stop stop-color="#B00000"/>
<stop offset="1" stop-color="#EBBFBF"/>
</radialGradient>
<radialGradient id="paint17_radial" cx="0" cy="0" r="1" gradientUnits="userSpaceOnUse" gradientTransform="translate(50.4764 9.84031) scale(10.1863)">
<stop stop-color="#B00000"/>
<stop offset="1" stop-color="white"/>
</radialGradient>
<linearGradient id="paint18_linear" x1="99.9464" y1="-11.5425" x2="63.0097" y2="28.8143" gradientUnits="userSpaceOnUse">
<stop offset="0.1629" stop-color="#FF5900"/>
<stop offset="0.1874" stop-color="#FF5000"/>
<stop offset="0.2921" stop-color="#FF2F00"/>
<stop offset="1" stop-color="#EB0000"/>
</linearGradient>
<radialGradient id="paint19_radial" cx="0" cy="0" r="1" gradientUnits="userSpaceOnUse" gradientTransform="translate(70.9157 5.58629) rotate(58.4739) scale(1.79315 8.27554)">
<stop offset="0.2584" stop-color="white"/>
<stop offset="0.3764" stop-color="#AFAFAF"/>
<stop offset="1"/>
</radialGradient>
<radialGradient id="paint20_radial" cx="0" cy="0" r="1" gradientUnits="userSpaceOnUse" gradientTransform="translate(11.132 4.73061) rotate(-56.1779) scale(1.79304 6.57928)">
<stop offset="0.2584" stop-color="white"/>
<stop offset="0.3764" stop-color="#AFAFAF"/>
<stop offset="1"/>
</radialGradient>
<radialGradient id="paint21_radial" cx="0" cy="0" r="1" gradientUnits="userSpaceOnUse" gradientTransform="translate(19.6575 22.1766) rotate(40.9386) scale(7.60999 12.5569)">
<stop offset="0.2584" stop-color="white"/>
<stop offset="0.3764" stop-color="#AFAFAF"/>
<stop offset="1"/>
</radialGradient>
<radialGradient id="paint22_radial" cx="0" cy="0" r="1" gradientUnits="userSpaceOnUse" gradientTransform="translate(15.1083 31.0221) rotate(27.2283) scale(5.22548 8.62247)">
<stop offset="0.2584" stop-color="white"/>
<stop offset="0.3764" stop-color="#AFAFAF"/>
<stop offset="1"/>
</radialGradient>
<linearGradient id="paint23_linear" x1="73.3752" y1="5.97365" x2="19.9773" y2="64.1026" gradientUnits="userSpaceOnUse">
<stop offset="0.01" stop-color="#34B3D1"/>
<stop offset="0.1742" stop-color="white"/>
<stop offset="0.3315" stop-color="#FDBF6F"/>
<stop offset="0.427" stop-color="#FFFF7F"/>
<stop offset="0.5" stop-color="#673920"/>
<stop offset="0.6517" stop-color="#B55004"/>
<stop offset="1" stop-color="#4E0901"/>
</linearGradient>
<radialGradient id="paint24_radial" cx="0" cy="0" r="1" gradientUnits="userSpaceOnUse" gradientTransform="translate(24.6839 68.5945) scale(41.0221 50.5538)">
<stop stop-color="white"/>
<stop offset="1"/>
</radialGradient>
<radialGradient id="paint25_radial" cx="0" cy="0" r="1" gradientUnits="userSpaceOnUse" gradientTransform="translate(27.8273 23.6784) scale(63.0267 64.3217)">
<stop stop-color="#FF0000"/>
<stop offset="0.1131" stop-color="#E20000"/>
<stop offset="0.4558" stop-color="#8D0000"/>
<stop offset="0.6119" stop-color="#6B0000"/>
<stop offset="0.9525" stop-color="#FF0000"/>
</radialGradient>
<radialGradient id="paint26_radial" cx="0" cy="0" r="1" gradientUnits="userSpaceOnUse" gradientTransform="translate(58.0582 14.895) rotate(58.3268) scale(18.059 23.7947)">
<stop stop-color="white"/>
<stop offset="1"/>
</radialGradient>
<linearGradient id="paint27_linear" x1="78.2864" y1="17.3225" x2="75.0012" y2="15.0482" gradientUnits="userSpaceOnUse">
<stop offset="0.082996" stop-color="white"/>
<stop offset="0.543" stop-color="#787878"/>
<stop offset="0.8579" stop-color="#222222"/>
<stop offset="1"/>
</linearGradient>
</defs>
</svg>
