<svg width="90" height="89" viewBox="0 0 90 89" fill="none" xmlns="http://www.w3.org/2000/svg">
<path d="M2.93931 3.20917C-1.88882 7.99705 10.7563 28.3233 12.9208 30.4889C15.0853 32.6546 20.7714 30.4889 25.5827 25.7066C30.3941 20.9243 32.5698 15.2846 30.4053 13.1357C28.2407 10.9867 7.76744 -1.58428 2.93931 3.20917Z" fill="url(#paint0_radial)"/>
<path style="mix-blend-mode:screen" d="M29.3622 20.3232C20.3228 12.1616 8.41785 2.60252 3.85889 3.00893C7.22344 0.653965 20.519 8.89914 31.0052 16.3705C30.676 17.7675 30.1212 19.1023 29.3622 20.3232Z" fill="url(#paint1_linear)"/>
<path style="mix-blend-mode:screen" d="M3.31485 3.73247C-1.32823 8.3422 10.8346 27.889 12.915 29.96C14.9955 32.0311 20.4516 29.96 25.0947 25.3559C29.7378 20.7517 31.8238 15.3347 29.7322 13.2637C27.6406 11.1927 7.95793 -0.877252 3.31485 3.73247Z" fill="url(#paint2_linear)"/>
<path style="mix-blend-mode:screen" d="M3.31485 3.73247C-1.32823 8.3422 10.8346 27.889 12.915 29.96C14.9955 32.0311 20.4516 29.96 25.0947 25.3559C29.7378 20.7517 31.8238 15.3347 29.7322 13.2637C27.6406 11.1927 7.95793 -0.877252 3.31485 3.73247Z" fill="url(#paint3_linear)"/>
<path style="mix-blend-mode:screen" d="M3.31485 3.73247C-1.32823 8.3422 10.8346 27.889 12.915 29.96C14.9955 32.0311 20.4516 29.96 25.0947 25.3559C29.7378 20.7517 31.8238 15.3347 29.7322 13.2637C27.6406 11.1927 7.95793 -0.877252 3.31485 3.73247Z" fill="url(#paint4_linear)"/>
<path d="M86.6666 47.456C88.3109 24.5119 70.9095 4.5886 47.7994 2.95602C24.6893 1.32344 4.62182 18.5998 2.97743 41.5439C1.33304 64.488 18.7345 84.4114 41.8446 86.0439C64.9547 87.6765 85.0222 70.4001 86.6666 47.456Z" fill="url(#paint5_radial)"/>
<path d="M84.6196 45.415C84.6162 53.2586 82.2705 60.9251 77.8789 67.4452C73.4872 73.9653 67.247 79.0462 59.9471 82.0455C52.6472 85.0448 44.6154 85.8279 36.8673 84.2956C29.1191 82.7634 22.0026 78.9847 16.4174 73.4373C10.8322 67.8898 7.0291 60.8228 5.48904 53.1297C3.94899 45.4366 4.74108 37.4629 7.76517 30.2166C10.7893 22.9704 15.9096 16.7771 22.4787 12.4198C29.0478 8.0625 36.7708 5.73682 44.6711 5.73682C49.9188 5.73608 55.1153 6.76202 59.9635 8.75598C64.8117 10.7499 69.2166 13.6728 72.9265 17.3577C76.6365 21.0425 79.5787 25.417 81.585 30.2312C83.5913 35.0454 84.6225 40.205 84.6196 45.415Z" fill="url(#paint6_radial)"/>
<path style="mix-blend-mode:screen" d="M6.70194 45.9827C6.6949 36.0934 10.4408 26.5644 17.1934 19.2944C23.946 12.0243 33.2096 7.54684 43.1384 6.75405C53.0672 5.96127 62.9324 8.91136 70.7685 15.0166C78.6046 21.1218 83.8363 29.9339 85.4212 39.6972C84.5681 32.0484 81.5559 24.7945 76.7318 18.7711C71.9077 12.7476 65.4678 8.19964 58.154 5.65105C50.8402 3.10245 42.95 2.65691 35.3923 4.36575C27.8346 6.07459 20.9169 9.86829 15.436 15.3098C9.95504 20.7514 6.13389 27.6195 4.41268 35.1229C2.69148 42.6263 3.14024 50.4598 5.70727 57.721C8.27431 64.9823 12.8552 71.3759 18.9222 76.1654C24.9893 80.9548 32.2957 83.9453 39.9998 84.7924C30.7124 83.3013 22.2624 78.5779 16.1617 71.4674C10.061 64.3569 6.70778 55.3232 6.70194 45.9827Z" fill="url(#paint7_linear)"/>
<path style="mix-blend-mode:screen" opacity="0.63" d="M82.6456 42.9877C82.6452 52.8729 78.8957 62.3955 72.1434 69.6603C65.3911 76.925 56.1311 81.3992 46.2065 82.1923C36.2819 82.9854 26.4203 80.0392 18.5846 73.9402C10.7489 67.8413 5.51357 59.0366 3.92065 49.2787C4.77314 56.9279 7.78451 64.1824 12.6079 70.2068C17.4314 76.2312 23.8707 80.7804 31.1842 83.3306C38.4978 85.8808 46.3882 86.3281 53.9466 84.6211C61.505 82.9141 68.4241 79.1222 73.9069 73.6821C79.3897 68.242 83.2133 61.375 84.9374 53.8719C86.6614 46.3689 86.2157 38.5349 83.6516 31.2723C81.0875 24.0097 76.5093 17.6139 70.4443 12.8214C64.3793 8.02888 57.0741 5.03468 49.3702 4.18359C58.6525 5.6793 67.0965 10.4039 73.1925 17.5128C79.2886 24.6217 82.6393 33.6514 82.6456 42.9877Z" fill="url(#paint8_linear)"/>
<g style="mix-blend-mode:soft-light">
<path style="mix-blend-mode:soft-light" d="M33.4165 19.605C33.0913 21.7651 35.2614 24.7603 36.4951 20.9077C37.7288 17.0552 37.7792 12.0001 42.3887 9.68406C46.9981 7.36806 50.7159 7.02289 54.6188 8.51493C56.4153 9.13399 58.0442 10.155 59.3797 11.499C57.6974 9.51148 50.8561 2.64142 41.4354 7.91366C30.4894 14.0377 33.7866 6.5107 32.7156 14.8784C31.6445 23.246 33.4165 19.605 33.4165 19.605ZM59.3797 11.499C59.6488 11.8163 59.7946 12.0168 59.7946 12.0168C59.6715 11.8327 59.5326 11.6595 59.3797 11.499ZM83.3689 40.6104C80.6997 28.6741 77.2006 24.1646 77.2006 24.1646C77.2006 24.1646 83.0773 35.572 81.4735 45.9161C79.8698 56.2601 73.1911 56.8169 72.9668 59.4502C72.7425 62.0835 75.3725 62.6291 77.509 61.3041C77.4922 61.3041 86.0381 52.5467 83.3689 40.6104ZM74.2678 39.5304C56.0936 47.2244 53.3123 49.2342 47.5477 55.1856C40.5999 62.3452 41.0316 75.0665 44.6878 80.2997C48.3439 85.533 56.5646 85.5887 63.0414 80.4055C72.4061 72.9064 58.4993 57.8357 74.2678 39.5304ZM58.9479 16.9216C48.1869 15.0008 34.9642 21.7039 25.7061 33.0278C29.4127 26.6365 25.8126 16.4261 25.4313 17.5061C20.0256 32.8552 11.6255 32.7494 9.46092 37.6542C6.60666 44.1345 9.15812 51.8508 15.1582 54.9852C12.1806 70.6906 27.1304 81.3575 36.3269 81.3575C45.613 81.3575 37.9531 68.4859 37.9531 54.9407C37.9531 41.3954 36.6072 24.6935 58.9479 16.9216Z" fill="url(#paint9_radial)"/>
</g>
<path style="mix-blend-mode:screen" d="M81.1483 34.7147C81.1483 51.1439 70.2584 15.3906 34.4539 28.9192C20.7378 34.1023 8.73193 51.1439 8.73193 34.7147C8.73193 18.2856 24.9435 4.95752 44.9289 4.95752C64.9143 4.95752 81.1483 18.2801 81.1483 34.7147Z" fill="url(#paint10_linear)"/>
<path opacity="0.15" d="M47.1719 7.40708C49.9757 4.62343 66.5236 10.0905 72.8714 13.6202C75.4397 15.051 75.95 18.9871 73.9929 22.3998C72.0359 25.8126 67.6396 28.3012 65.8395 25.9852C54.7589 11.6772 45.7363 8.82118 47.1719 7.40708Z" fill="url(#paint11_radial)"/>
<path d="M86.5373 3.20917C91.3654 7.99705 78.7203 28.3233 76.5558 30.4889C74.3913 32.6546 68.7052 30.4889 63.8939 25.7066C59.0826 20.9243 56.9068 15.2846 59.0713 13.1357C61.2359 10.9867 81.7092 -1.58428 86.5373 3.20917Z" fill="url(#paint12_radial)"/>
<path style="mix-blend-mode:screen" d="M86.1392 3.73247C90.7823 8.3422 78.625 27.889 76.539 29.96C74.453 32.0311 69.0024 29.96 64.3593 25.3559C59.7162 20.7517 57.6302 15.3347 59.7218 13.2637C61.8135 11.1927 81.4961 -0.877252 86.1392 3.73247Z" fill="url(#paint13_linear)"/>
<path style="mix-blend-mode:screen" d="M86.1392 3.73247C90.7823 8.3422 78.625 27.889 76.539 29.96C74.453 32.0311 69.0024 29.96 64.3593 25.3559C59.7162 20.7517 57.6302 15.3347 59.7218 13.2637C61.8135 11.1927 81.4961 -0.877252 86.1392 3.73247Z" fill="url(#paint14_linear)"/>
<path style="mix-blend-mode:screen" d="M60.8154 20.3232C69.8492 12.1616 81.7541 2.60252 86.3131 3.00893C82.9766 0.653965 69.6529 8.89914 59.1724 16.3705C59.499 17.7683 60.0541 19.1035 60.8154 20.3232Z" fill="url(#paint15_linear)"/>
<path style="mix-blend-mode:multiply" d="M76.5557 30.4723C74.3912 32.6213 68.7051 30.4723 63.8938 25.69C59.0825 20.9077 56.9068 15.268 59.0713 13.119C60.2307 12.1435 61.4706 11.2664 62.7779 10.4968C59.9741 9.38338 57.6638 9.3277 56.4077 10.5692C53.8506 13.1079 56.7778 20.1227 62.9349 26.2412C69.092 32.3596 76.1632 35.2602 78.7203 32.7215C79.8754 31.5747 79.9091 29.5148 79.0399 27.0429C78.3068 28.2509 77.476 29.3979 76.5557 30.4723Z" fill="url(#paint16_radial)"/>
<path d="M58.3311 20.6407L59.8283 20.4514C59.008 19.087 58.474 17.572 58.2582 15.9975L55.8638 15.541C56.4348 17.3499 57.2658 19.0675 58.3311 20.6407Z" fill="url(#paint17_radial)"/>
<path style="mix-blend-mode:multiply" opacity="0.53" d="M76.937 20.9633C73.1968 25.7345 71.3295 24.4095 65.8621 26.7366C70.1238 30.3553 74.6772 31.8084 76.5165 29.9601C77.56 28.7082 78.4978 27.3731 79.3203 25.9683C80.1614 24.2424 81.053 22.4609 81.9671 20.6961C86.5541 11.9443 79.8586 17.2332 76.937 20.9633Z" fill="url(#paint18_linear)"/>
<path style="mix-blend-mode:screen" d="M76.9705 9.84542C72.2546 12.7181 67.9199 14.2213 67.2919 13.1858C66.6638 12.1503 69.9835 9.02146 74.6995 6.14873C79.4154 3.276 83.7501 1.76726 84.3782 2.78051C85.0062 3.79376 81.6865 6.97269 76.9705 9.84542Z" fill="url(#paint19_radial)"/>
<path style="mix-blend-mode:screen" d="M13.8294 5.3193C17.4856 7.74664 19.9081 10.5192 19.2408 11.5101C18.5735 12.5011 15.0687 11.332 11.4182 8.89907C7.76763 6.46616 5.33954 3.69364 6.00685 2.70823C6.67415 1.72282 10.1621 2.88639 13.8294 5.3193Z" fill="url(#paint20_radial)"/>
<path style="mix-blend-mode:screen" d="M28.5996 31.4133C23.0986 37.7155 15.5227 40.1373 11.6759 36.8247C7.82909 33.5122 9.17492 25.7235 14.676 19.4269C20.177 13.1303 27.7584 10.7085 31.5996 14.0211C35.4408 17.3336 34.1006 25.1167 28.5996 31.4133Z" fill="url(#paint21_radial)"/>
<path style="mix-blend-mode:screen" d="M22.4538 37.5818C19.8182 42.6703 15.1639 45.5096 12.0517 43.9229C8.93952 42.3363 8.56382 36.9248 11.205 31.8308C13.8462 26.7367 18.4949 23.9029 21.6071 25.4896C24.7193 27.0763 25.0894 32.4933 22.4538 37.5818Z" fill="url(#paint22_radial)"/>
<path style="mix-blend-mode:screen" d="M85.4213 44.6189C85.4243 41.27 85.008 37.9337 84.1821 34.6868C84.2045 35.2027 84.2157 35.7205 84.2157 36.2401C84.2157 42.2962 82.4069 48.2163 79.0179 53.2517C75.629 58.2872 70.8122 62.2119 65.1766 64.5294C59.541 66.847 53.3398 67.4534 47.357 66.2719C41.3743 65.0904 35.8789 62.1741 31.5656 57.8918C27.2523 53.6095 24.3149 48.1535 23.1249 42.2138C21.9348 36.274 22.5456 30.1174 24.8799 24.5223C27.2143 18.9272 31.1673 14.1449 36.2392 10.7803C41.3111 7.41576 47.2741 5.61991 53.374 5.61991C53.8955 5.61991 54.4226 5.61992 54.9385 5.65889C46.7622 3.59263 38.14 4.11397 30.2767 7.15006C22.4134 10.1861 15.7019 15.5853 11.08 22.593C6.45815 29.6007 4.15683 37.8669 4.49766 46.2365C4.83849 54.606 7.80442 62.6608 12.981 69.2752C18.1576 75.8896 25.2862 80.7332 33.3707 83.1292C41.4552 85.5251 50.0917 85.3537 58.0733 82.6389C66.0549 79.9241 72.9828 74.8015 77.889 67.987C82.7952 61.1724 85.4345 53.0064 85.4381 44.63L85.4213 44.6189Z" fill="url(#paint23_linear)"/>
<path d="M45.7701 80.517C24.293 80.517 6.87585 62.8742 6.87585 41.106C6.83456 33.2742 9.14392 25.6076 13.5094 19.0841C17.8748 12.5607 24.0985 7.47606 31.3866 4.47876C16.0162 9.93472 4.9917 24.7604 4.9917 42.1972C4.9917 64.266 22.65 82.1538 44.4242 82.1538C51.163 82.1322 57.7826 80.3887 63.6459 77.091C69.5092 73.7934 74.4186 69.0526 77.9015 63.3252C74.3868 68.5971 69.6145 72.9251 64.0089 75.9244C58.4032 78.9236 52.1379 80.5013 45.7701 80.517Z" fill="url(#paint24_radial)"/>
<path style="mix-blend-mode:screen" d="M70.5221 17.9292C66.2211 20.5681 61.6004 20.8799 60.2041 18.6363C58.8078 16.3927 61.191 12.4176 65.4696 9.80098C69.7482 7.18435 82.483 1.89541 83.8793 4.13903C85.2756 6.38266 74.8231 15.2959 70.5221 17.9292Z" fill="url(#paint25_radial)"/>
<path style="mix-blend-mode:screen" d="M86.8401 4.28931C85.8589 9.49614 82.9553 14.1518 78.6979 17.3446C73.4604 21.3754 67.1014 22.7449 61.5835 21.5646C62.4153 22.7272 63.3438 23.8185 64.3592 24.8271C69.0023 29.4368 74.4529 31.5079 76.5389 29.4312C78.4848 27.4938 89.2289 10.2853 86.8401 4.28931Z" fill="url(#paint26_linear)"/>
<defs>
<radialGradient id="paint0_radial" cx="0" cy="0" r="1" gradientUnits="userSpaceOnUse" gradientTransform="translate(59.8339 -9.01663) rotate(180) scale(61.5881 61.1457)">
<stop offset="0.36" stop-color="#FF2F00"/>
<stop offset="0.5" stop-color="white"/>
<stop offset="0.56" stop-color="#FFB700"/>
<stop offset="0.62" stop-color="#FF8800"/>
<stop offset="0.74" stop-color="#FF3300"/>
<stop offset="0.79" stop-color="#FF1100"/>
<stop offset="0.94" stop-color="#7C0000"/>
<stop offset="1" stop-color="#EB0000"/>
</radialGradient>
<linearGradient id="paint1_linear" x1="30.9996" y1="11.4601" x2="3.85889" y2="11.4601" gradientUnits="userSpaceOnUse">
<stop stop-color="white"/>
<stop offset="0.5" stop-color="#787878"/>
<stop offset="0.85" stop-color="#222222"/>
<stop offset="1"/>
</linearGradient>
<linearGradient id="paint2_linear" x1="3.82514" y1="21.3196" x2="8.08077" y2="18.642" gradientUnits="userSpaceOnUse">
<stop offset="0.08" stop-color="white"/>
<stop offset="0.54" stop-color="#787878"/>
<stop offset="0.86" stop-color="#222222"/>
<stop offset="1"/>
</linearGradient>
<linearGradient id="paint3_linear" x1="3.82514" y1="21.3196" x2="8.08077" y2="18.642" gradientUnits="userSpaceOnUse">
<stop offset="0.08" stop-color="white"/>
<stop offset="0.54" stop-color="#787878"/>
<stop offset="0.86" stop-color="#222222"/>
<stop offset="1"/>
</linearGradient>
<linearGradient id="paint4_linear" x1="6769.02" y1="5922.61" x2="6287.96" y2="6461.17" gradientUnits="userSpaceOnUse">
<stop offset="0.08" stop-color="white"/>
<stop offset="0.54" stop-color="#787878"/>
<stop offset="0.86" stop-color="#222222"/>
<stop offset="1"/>
</linearGradient>
<radialGradient id="paint5_radial" cx="0" cy="0" r="1" gradientUnits="userSpaceOnUse" gradientTransform="translate(23154.4 29989.3) scale(12874.6 12782.1)">
<stop offset="0.36" stop-color="#FF2F00"/>
<stop offset="0.5" stop-color="white"/>
<stop offset="0.56" stop-color="#FFB700"/>
<stop offset="0.62" stop-color="#FF8800"/>
<stop offset="0.74" stop-color="#FF3300"/>
<stop offset="0.79" stop-color="#FF1100"/>
<stop offset="0.94" stop-color="#7C0000"/>
<stop offset="1" stop-color="#EB0000"/>
</radialGradient>
<radialGradient id="paint6_radial" cx="0" cy="0" r="1" gradientUnits="userSpaceOnUse" gradientTransform="translate(32.4298 28.7465) scale(71.0257 70.5155)">
<stop stop-color="#FF0000"/>
<stop offset="0.11" stop-color="#E20000"/>
<stop offset="0.46" stop-color="#8D0000"/>
<stop offset="0.61" stop-color="#6B0000"/>
<stop offset="0.95" stop-color="#FF0000"/>
</radialGradient>
<linearGradient id="paint7_linear" x1="16650.1" y1="23042.9" x2="28651.1" y2="23042.9" gradientUnits="userSpaceOnUse">
<stop offset="0.08" stop-color="white"/>
<stop offset="0.54" stop-color="#787878"/>
<stop offset="0.86" stop-color="#222222"/>
<stop offset="1"/>
</linearGradient>
<linearGradient id="paint8_linear" x1="-76979.4" y1="-18196.4" x2="-88982.9" y2="-18196.4" gradientUnits="userSpaceOnUse">
<stop offset="0.08" stop-color="white"/>
<stop offset="0.54" stop-color="#787878"/>
<stop offset="0.86" stop-color="#222222"/>
<stop offset="1"/>
</linearGradient>
<radialGradient id="paint9_radial" cx="0" cy="0" r="1" gradientUnits="userSpaceOnUse" gradientTransform="translate(46.0841 45.1088) rotate(180) scale(38.6251 38.3476)">
<stop stop-color="#FF0000"/>
<stop offset="0.48" stop-color="#FF7A00"/>
<stop offset="0.84" stop-color="#FFD000"/>
<stop offset="1" stop-color="#FFF200"/>
</radialGradient>
<linearGradient id="paint10_linear" x1="20069.5" y1="7774.87" x2="20069.5" y2="10561" gradientUnits="userSpaceOnUse">
<stop offset="0.08" stop-color="white"/>
<stop offset="0.54" stop-color="#787878"/>
<stop offset="0.86" stop-color="#222222"/>
<stop offset="1"/>
</linearGradient>
<radialGradient id="paint11_radial" cx="0" cy="0" r="1" gradientUnits="userSpaceOnUse" gradientTransform="translate(-14058.7 -11420.7) rotate(-119.837) scale(4877.14 3090.11)">
<stop offset="0.36" stop-color="#FF2F00"/>
<stop offset="0.5" stop-color="white"/>
<stop offset="0.56" stop-color="#FFB700"/>
<stop offset="0.62" stop-color="#FF8800"/>
<stop offset="0.74" stop-color="#FF3300"/>
<stop offset="0.79" stop-color="#FF1100"/>
<stop offset="0.94" stop-color="#7C0000"/>
<stop offset="1" stop-color="#EB0000"/>
</radialGradient>
<radialGradient id="paint12_radial" cx="0" cy="0" r="1" gradientUnits="userSpaceOnUse" gradientTransform="translate(7399.18 5477.53) scale(3228.38 3207.27)">
<stop offset="0.36" stop-color="#FF2F00"/>
<stop offset="0.5" stop-color="white"/>
<stop offset="0.56" stop-color="#FFB700"/>
<stop offset="0.62" stop-color="#FF8800"/>
<stop offset="0.74" stop-color="#FF3300"/>
<stop offset="0.79" stop-color="#FF1100"/>
<stop offset="0.94" stop-color="#7C0000"/>
<stop offset="1" stop-color="#EB0000"/>
</radialGradient>
<linearGradient id="paint13_linear" x1="8792.26" y1="6015.81" x2="9409.04" y2="6461.67" gradientUnits="userSpaceOnUse">
<stop offset="0.08" stop-color="white"/>
<stop offset="0.54" stop-color="#787878"/>
<stop offset="0.86" stop-color="#222222"/>
<stop offset="1"/>
</linearGradient>
<linearGradient id="paint14_linear" x1="8792.26" y1="6015.81" x2="9409.04" y2="6461.67" gradientUnits="userSpaceOnUse">
<stop offset="0.08" stop-color="white"/>
<stop offset="0.54" stop-color="#787878"/>
<stop offset="0.86" stop-color="#222222"/>
<stop offset="1"/>
</linearGradient>
<linearGradient id="paint15_linear" x1="8266.52" y1="3977.71" x2="9580.13" y2="3977.71" gradientUnits="userSpaceOnUse">
<stop stop-color="white"/>
<stop offset="0.5" stop-color="#787878"/>
<stop offset="0.85" stop-color="#222222"/>
<stop offset="1"/>
</linearGradient>
<radialGradient id="paint16_radial" cx="0" cy="0" r="1" gradientUnits="userSpaceOnUse" gradientTransform="translate(56.3628 12.206) scale(30.0454 29.8296)">
<stop stop-color="#B00000"/>
<stop offset="1" stop-color="#EBBFBF"/>
</radialGradient>
<radialGradient id="paint17_radial" cx="0" cy="0" r="1" gradientUnits="userSpaceOnUse" gradientTransform="translate(54.2264 12.4734) scale(10.7722 10.6948)">
<stop stop-color="#B00000"/>
<stop offset="1" stop-color="white"/>
</radialGradient>
<linearGradient id="paint18_linear" x1="106.534" y1="-9.97422" x2="67.7833" y2="32.6657" gradientUnits="userSpaceOnUse">
<stop offset="0.16" stop-color="#FF5900"/>
<stop offset="0.19" stop-color="#FF5000"/>
<stop offset="0.29" stop-color="#FF2F00"/>
<stop offset="1" stop-color="#EB0000"/>
</linearGradient>
<radialGradient id="paint19_radial" cx="0" cy="0" r="1" gradientUnits="userSpaceOnUse" gradientTransform="translate(72.8416 3.39881) rotate(58.3863) scale(1.83572 8.69956)">
<stop offset="0.26" stop-color="white"/>
<stop offset="0.38" stop-color="#AFAFAF"/>
<stop offset="1"/>
</radialGradient>
<radialGradient id="paint20_radial" cx="0" cy="0" r="1" gradientUnits="userSpaceOnUse" gradientTransform="translate(1457.96 -825.646) rotate(-56.119) scale(45.1817 118.203)">
<stop offset="0.26" stop-color="white"/>
<stop offset="0.38" stop-color="#AFAFAF"/>
<stop offset="1"/>
</radialGradient>
<radialGradient id="paint21_radial" cx="0" cy="0" r="1" gradientUnits="userSpaceOnUse" gradientTransform="translate(-2317.94 13365.7) rotate(40.8047) scale(345.887 612.309)">
<stop offset="0.26" stop-color="white"/>
<stop offset="0.38" stop-color="#AFAFAF"/>
<stop offset="1"/>
</radialGradient>
<radialGradient id="paint22_radial" cx="0" cy="0" r="1" gradientUnits="userSpaceOnUse" gradientTransform="translate(-452.815 9405.4) rotate(26.954) scale(145.592 314.372)">
<stop offset="0.26" stop-color="white"/>
<stop offset="0.38" stop-color="#AFAFAF"/>
<stop offset="1"/>
</radialGradient>
<linearGradient id="paint23_linear" x1="78.4343" y1="8.41471" x2="22.4183" y2="69.8348" gradientUnits="userSpaceOnUse">
<stop offset="0.01" stop-color="#34B3D1"/>
<stop offset="0.17" stop-color="white"/>
<stop offset="0.33" stop-color="#FDBF6F"/>
<stop offset="0.43" stop-color="#FFFF7F"/>
<stop offset="0.5" stop-color="#673920"/>
<stop offset="0.65" stop-color="#B55004"/>
<stop offset="1" stop-color="#4E0901"/>
</linearGradient>
<radialGradient id="paint24_radial" cx="0" cy="0" r="1" gradientUnits="userSpaceOnUse" gradientTransform="translate(17936.7 19843) scale(8687.18 9438.22)">
<stop stop-color="#FF0000"/>
<stop offset="0.11" stop-color="#E20000"/>
<stop offset="0.46" stop-color="#8D0000"/>
<stop offset="0.61" stop-color="#6B0000"/>
<stop offset="0.95" stop-color="#FF0000"/>
</radialGradient>
<radialGradient id="paint25_radial" cx="0" cy="0" r="1" gradientUnits="userSpaceOnUse" gradientTransform="translate(92.182 14937.8) rotate(57.8695) scale(821.221 744.519)">
<stop stop-color="white"/>
<stop offset="1"/>
</radialGradient>
<linearGradient id="paint26_linear" x1="8919.85" y1="6237.5" x2="8760" y2="6128.2" gradientUnits="userSpaceOnUse">
<stop offset="0.08" stop-color="white"/>
<stop offset="0.54" stop-color="#787878"/>
<stop offset="0.86" stop-color="#222222"/>
<stop offset="1"/>
</linearGradient>
</defs>
</svg>
