<svg xmlns="http://www.w3.org/2000/svg" width="150" height="57" fill="none" xmlns:v="https://vecta.io/nano"><path d="M11.32 16.969c-.292 0-.365-.146-.219-.365l1.534-1.972c.146-.219.511-.365.803-.365h26.073c.292 0 .365.219.219.438l-1.242 1.899c-.146.219-.511.438-.73.438l-26.438-.073zM.292 23.688c-.292 0-.365-.146-.219-.365l1.534-1.972c.146-.219.511-.365.803-.365h33.303c.292 0 .438.219.365.438l-.584 1.753c-.073.292-.365.438-.657.438l-34.544.073zm17.674 6.719c-.292 0-.365-.219-.219-.438l1.023-1.826c.146-.219.438-.438.73-.438h14.607c.292 0 .438.219.438.511l-.146 1.753c0 .292-.292.511-.511.511l-15.921-.073zm75.808-14.753l-12.269 3.214c-1.096.292-1.169.365-2.118-.73-1.096-1.242-1.899-2.045-3.432-2.775-4.601-2.264-9.056-1.607-13.219 1.095-4.966 3.213-7.522 7.961-7.449 13.876.073 5.843 4.09 10.663 9.859 11.466 4.966.657 9.129-1.096 12.415-4.82.657-.803 1.242-1.68 1.972-2.702H65.437c-1.534 0-1.899-.95-1.388-2.191.949-2.264 2.702-6.062 3.725-7.961.219-.438.73-1.169 1.826-1.169h26.584c-.146 1.972-.146 3.944-.438 5.916-.803 5.258-2.775 10.079-5.989 14.314-5.258 6.938-12.123 11.247-20.814 12.416-7.157.949-13.803-.438-19.646-4.82-5.404-4.09-8.472-9.494-9.275-16.213-.949-7.961 1.388-15.118 6.208-21.399C51.415 6.379 58.28 2.07 66.679.536 73.544-.705 80.117.098 86.032 4.115c3.871 2.556 6.646 6.062 8.472 10.298.438.657.146 1.022-.73 1.242z" fill-rule="evenodd" fill="#00acd7"/><path d="M117.948 56.041c-6.646-.146-12.708-2.045-17.82-6.427-4.309-3.725-7.011-8.472-7.888-14.095-1.315-8.253.949-15.556 5.916-22.056 5.331-7.011 11.758-10.663 20.449-12.196 7.449-1.315 14.46-.584 20.814 3.725 5.77 3.944 9.348 9.275 10.298 16.286 1.241 9.859-1.607 17.893-8.399 24.758-4.82 4.893-10.736 7.961-17.528 9.348-1.972.365-3.944.438-5.842.657zm17.381-29.505c-.073-.949-.073-1.68-.219-2.41-1.314-7.23-7.96-11.32-14.898-9.713-6.792 1.534-11.174 5.843-12.781 12.708-1.315 5.696 1.461 11.466 6.719 13.803 4.017 1.753 8.034 1.534 11.904-.438 5.77-2.994 8.91-7.668 9.275-13.949z" fill="#00acd7"/></svg>