<svg xmlns="http://www.w3.org/2000/svg" width="150" height="81" fill="none" fill-rule="evenodd" xmlns:v="https://vecta.io/nano"><path d="M97.821 59.347c0 .573-1.433 1.434-1.72 1.434-2.007 1.147-4.874 2.007-6.594.287s-1.147-5.161.573-6.307c.86-.573 2.294-.86 3.441-.86s3.154-.287 4.301-.287v5.734zM84.632 42.145l.86 3.154c1.433-.287 2.007-.86 4.014-1.147 1.433-.287 3.154-.573 4.874-.287s2.58.86 3.154 2.007c.287.573.573 1.433.573 2.007v2.58l-5.734.573c-4.874.573-9.748 3.154-8.888 9.174.573 3.727 2.58 5.447 6.307 6.021 2.007.287 3.44 0 5.161-.86.86-.287 1.433-.573 2.007-1.147.86-.573 1.433-1.147 1.72-1.434l.573 2.58h4.014V53.9v-5.734c0-2.007 0-3.44-1.147-4.587-2.58-4.3-8.314-4.014-13.188-2.867-1.147 0-3.727.86-4.3 1.434zm60.207 17.489c-.286.287-.573.573-1.146.86-1.147.86-2.581 1.434-4.014 1.72-4.301.573-5.447-4.014-4.014-6.307 1.434-2.58 6.021-2.294 8.888-2.294l.286 6.021zm-13.474-17.489c0 .573.573 2.58.86 3.154.86-.287 2.293-.86 4.013-1.147 2.581-.573 6.595-.86 8.028 1.72.573 1.147.86 4.301.573 4.587s-2.293.287-2.867.287c-2.867.287-5.16.287-7.454 1.72-2.58 1.434-4.587 3.727-4.3 7.741.573 3.727 2.58 5.447 6.307 6.021 2.867.287 4.874-.287 7.168-1.72.86-.573 1.433-1.147 1.72-1.433l.573 2.58H150V48.452c0-2.007-.287-3.44-1.147-4.874-2.58-4.3-8.601-4.014-13.188-2.867-1.147 0-3.44.86-4.3 1.434zm-17.489 23.223h6.307c.287 0 .573-1.147.86-1.434.287-.573.287-.86.574-1.433.286-.86.86-2.007 1.146-2.867 1.434-4.014 2.867-8.601 3.727-12.615.287-1.147 1.434-6.021 1.434-6.881h-4.587c-1.147 0-.574 0-.86 2.007-.287 2.294-.86 4.301-1.147 6.307-.287 1.434-3.154 10.895-3.441 11.468l-1.433-5.161c-.573-1.72-.86-3.44-1.434-4.874l-2.58-6.881-.86-2.58h-5.447c0 .573 3.727 11.755 4.014 12.615.573 2.007 1.433 4.014 2.006 6.307.287 2.007 1.147 4.014 1.721 6.021zM74.025 39.851V61.64c0 4.014-1.434 8.601-5.447 10.035.287.573 2.007 2.294 2.58 2.867 1.433-.287 3.44-1.434 4.014-2.294 1.147-1.147 2.007-2.007 2.867-3.727 1.72-3.44 1.433-7.167 1.433-11.468V31.25h-5.447v8.601zm-44.152 3.727l-1.72-2.58-1.72-2.58c-.86-1.72-2.007-3.727-2.58-5.734-.86-3.727 1.433-6.307 3.44-8.601.287-.573.86-.86 1.147-1.147l7.454-7.454c2.294-2.294 3.727-4.874 4.014-8.601C40.194 4.874 39.62.86 38.187 0c.287 2.867.573 4.874-.573 8.028-1.433 3.44-3.727 5.447-6.307 7.454l-7.167 6.307c-1.434 1.147-3.44 3.154-4.014 5.161-1.147 2.867 0 4.874 1.433 6.881.573.86 1.147 1.72 2.007 2.58l2.007 2.58s1.434 1.72 2.294 2.294c0 .573 1.433 2.007 2.007 2.294z" fill="#e30f13"/><path d="M55.102 68.808c.86 1.433 0 2.007-1.147 2.58-5.161 2.294-22.076 2.867-27.523 2.867s-10.895 0-16.342-1.147c-.86-.287-4.587-.86-4.874-1.72 0-.573.573-1.147.86-1.433 1.147-.86 3.44-1.147 4.874-1.433.573 0 1.434-.287 1.72-.287-2.58-.287-10.608.86-12.328 3.44-1.147 1.72.86 2.294 2.007 2.867 4.587 1.434 14.335 1.72 19.496 2.007 7.741 0 26.09 0 32.684-4.587.287-.287 1.147-.86 1.147-1.433.573-.86-.287-1.434-.573-1.72z" fill="#0089c8"/><path d="M33.026 46.732c.86-.287 3.154-2.294 3.727-2.867.86-.86 2.294-2.58 2.294-4.3s-1.147-4.014-1.72-5.161c-2.294-3.44-4.014-5.447-1.147-9.174l3.727-3.44c1.434-1.434 4.014-3.154 6.021-4.3l2.007-1.434c-1.147.287-4.014 1.434-5.161 1.72-1.433.573-3.44 1.433-4.587 2.294-4.874 2.867-9.174 7.168-7.454 12.902 1.147 4.014 4.874 6.307 4.587 9.174 0 2.007-1.72 3.727-2.294 4.587z" fill="#e30f13"/><path d="M42.774 65.941c-1.433-.573-2.58-1.147-3.727-2.007-.86-.573-.573-.287-1.433-.287-3.727.86-10.035.86-14.335.86-1.147 0-4.014 0-4.587-1.147-.287-.573 0-1.147.287-1.434-2.58.573-5.447 2.867-1.72 4.587 4.301 2.007 12.902 2.007 17.489 1.147 1.434.287 7.454-1.147 8.028-1.72zm1.147-8.601c-1.147-.287-2.007-.86-2.867-1.434-.573-.573-.287-.287-1.72-.287-4.587.86-18.062 2.007-22.076.573-.573-.287-1.147-.573-1.147-1.147s.573-1.147.86-1.434c-3.154.287-6.021 3.44-2.007 4.874 4.587 1.72 14.908 1.72 19.782 1.147 2.007-.573 8.028-1.72 9.174-2.294zm3.154-10.321c-.573 0-1.433.287-2.007.287s-1.434.287-2.007.287c-4.3.573-8.888 1.147-12.901 1.434-3.154.287-15.482.573-17.489-1.147 0-.86.86-1.147 1.147-1.434 2.007-1.147 4.301-1.434 6.307-2.294-2.867-.287-10.035 1.72-12.615 3.44-2.867 1.72 2.007 2.58 3.727 2.58 10.321 1.434 20.069.573 30.104-.86 1.72-.287 2.007 0 3.154-.86.86-.287 2.007-.86 2.58-1.434zM11.524 77.983c2.867 1.147 9.174 2.007 12.328 2.294a114.71 114.71 0 0 0 14.048 0c6.021-.287 12.901-1.147 18.062-3.727 1.147-.573 3.44-2.007 3.727-3.727-.287.287-.573.573-1.147.86-9.174 6.307-30.103 5.734-40.998 4.874l-6.021-.573zm37.558-33.258c2.294-.573 4.874-.287 6.307 1.147s1.434 4.014.573 6.021c-1.434 2.58-4.587 5.161-7.168 6.594-.573.287-.86.573-1.147.86 1.72-.287 5.734-2.007 7.168-2.867 2.007-1.147 4.014-2.867 4.874-5.161 1.147-3.154-.573-5.734-2.58-6.881-1.147-.573-2.58-1.147-4.014-.86-1.434-.287-3.44.287-4.014 1.147z" fill="#0089c8"/></svg>