<svg xmlns="http://www.w3.org/2000/svg" width="75" height="80" fill="none" xmlns:v="https://vecta.io/nano"><path d="M10.951 67.348s-7.562.31-9.021 1.813-1.459 4.024-.221 4.997 5.218 2.034 13.045 2.432c5.749.707 4.555 2.476 8.8 2.432.354 0 4.82 1.415 10.348.84s7.694-2.344 10.038-2.344 9.154 2.432 13.62 2.432 7.473.221 9.375-1.592 2.565-2.211 2.697-3.272.442-2.123-.221-2.874-18.042-4.466-18.042-4.466l-40.418-.398z" fill="#a7acb3"/><path d="M41.508 72.212c-1.282.31-4.687 2.211-5.306 2.432s-2.432 1.68-4.466 2.123-5.616-.531-5.616-.531l-8.711-2.742c-.442 0-6.766-1.813-7.208-2.123s-1.459-1.68-.84-2.653 1.504-1.636 1.504-1.636-1.282-3.98-.973-6.324 2.432-3.626 3.891-4.024c1.504-.442 1.902-1.061 1.902-1.061s.752-.929 1.061-1.459 1.15-.973 1.15-.973l.221-.973s-.84-2.653-.442-3.494c.442-.84 2.123-1.371 2.653-3.184s.84-6.456 2.432-9.242c1.592-2.742 1.415-2.078 2.565-3.272 1.106-1.194 3.184-4.289 3.582-5.041.442-.752 1.901-2.432 1.901-3.493s-1.282-9.95-.973-12.824 1.371-4.997 2.653-6.677 3.184-3.405 3.184-3.405S37.395 0 40.137 0s6.456.973 8.181 2.432c1.68 1.503 3.936 2.565 4.864 5.306.619 2.123 1.459 6.722 1.636 8.137s-.31 3.715-.044 5.66c.265 1.902 1.017 3.228 1.592 4.024s8.49 10.613 9.861 16.008 1.15 8.269 1.15 9.64-.442 3.184-.442 3.184 1.194.486 1.725 1.327.31 4.289.398 4.732c.133.442.752 1.194 1.15 1.504s1.548 1.15 2.211 1.238c.619.088 1.857 1.105 2.078 2.078s.531 1.99-.619 2.742-6.766 3.936-7.12 4.245c-.442.354-3.184 2.874-3.626 3.405s-2.83 2.034-3.67 2.123-4.157.221-6.412-1.68c-.929-.796-2.565-2.565-4.024-2.874l-5.749-1.061s-.486-.265-1.769.044z" fill="#000"/><path d="M10.907 70.753l6.058 1.901 9.419 2.874c.752.089 4.289 1.194 5.572.265 1.282-.973 3.449-3.494 1.194-7.341-2.344-4.024-3.803-4.776-3.803-4.776l-1.813-2.211-1.282-2.123s-.752-2.122-1.371-2.742-.752-2.034-2.344-2.874c-1.105-.575-3.405-.663-4.245-.044s-2.565 2.963-2.565 2.963-2.432.663-2.963.973-1.813 1.371-2.034 2.123-.442 2.034-.088 3.272l.84 3.626c.221.354.133.84.133.84s-1.857.84-1.857 1.592.619 1.327.619 1.327l.531.354z" fill="#f5c65d"/><path d="M17.186 71.019l2.034.619 8.181 2.609c.752.088 2.432.531 3.715-.442s3.405-1.901 1.813-5.218c-1.946-4.024-3.803-4.776-3.803-4.776l-1.68-2.123-1.415-2.211s-.752-1.857-1.371-2.742c-.531-.752-1.238-2.432-2.432-2.874-1.15-.442-3.007-.707-3.847-.044-.84.619-1.901 2.609-1.901 2.609s-1.282 2.123-1.813 2.432-1.504 1.68-1.68 2.432c-.221.752-.088 1.061.221 2.344s1.415 2.786 1.327 3.095-.398.973-.398.973-.884.575-.884 1.327 2.255 1.282 2.255 1.282l1.68.708z" fill="#f7d285"/><path d="M53.005 74.821s-1.459-1.017-1.371-3.582c.089-3.361 1.238-4.643 1.238-5.97s-.221-2.919-.221-2.919l-.177-5.926c.177-1.327.796-2.565 1.725-2.697s2.255.84 2.476 1.194l1.503 2.874s1.105 1.901 2.3 1.813 3.449-3.582 4.687-4.334c.796-.486 1.99-.442 2.344-.221s1.061.973 1.15 1.857c.088.84-.354 2.697-.133 3.626s1.194 1.99 1.99 2.476 2.83 1.282 3.184 1.769.796 1.636.088 2.344-2.388 1.548-2.388 1.548l-2.476 1.548-2.565 1.504c-.442.354-3.051 2.83-3.67 3.317s-1.327 1.415-2.3 1.725c-.752.221-2.653.575-3.538.221l-2.123-.884-1.725-1.282z" fill="#f5c860"/><path d="M55.349 60.759s-.309.707-.133 1.415c.221.708-.089 2.83-.486 4.245-.442 1.415-1.548 2.919-.708 4.953s3.759 3.98 5.572 3.803c1.857-.133 4.245-2.609 5.306-3.317s4.024-1.68 4.511-2.123 2.034-.84 2.388-1.194 2.299-1.282 2.299-2.123.133-1.371-.796-1.99-2.697-1.415-2.919-1.548-1.504-1.504-1.68-1.769c-.221-.265-.221-2.211-.265-2.697-.088-.486-1.282-.973-1.99-.84s-1.636 1.327-2.697 2.918c-1.061 1.548-1.857 2.034-2.565 2.034s-2.255-.265-2.963-.796c-.708-.486-1.327-1.371-2.034-1.415s-.84.442-.84.442z" fill="#f7d285"/><path d="M33.725 24.852a5.31 5.31 0 0 0 1.548.84c.708.575 2.388 1.901 4.113 1.99 1.68.089 2.742-.265 3.67-1.194s1.769-1.857 2.211-2.034c.442-.221 1.327-.575 1.327-.575l1.415-1.15s.133 1.68.619 2.742 1.901 2.963 2.255 4.599.708 3.67 1.504 4.82 3.272 4.024 3.803 6.014c.575 1.99 1.282 5.395.796 7.473-.486 2.123-.84 5.439-.84 5.439s-.973-.619-1.636-.619c-.619 0-.973.133-1.548.575-.708.486-1.194 2.123-1.194 2.963v5.66l-2.919 2.565c-.442.486-4.245 3.759-5.218 4.157-.973.442-4.599 1.548-6.589.619s-2.521-1.017-2.742-1.327l-3.184-3.936-.354-.398s2.167.265 2.786-.619c.619-.929.752-1.901.442-2.609-.442-1.061-.884-1.769-1.548-2.476-1.459-1.503-4.599-3.184-5.041-3.626s-2.918-2.918-3.095-3.98c-.221-1.061-.619-3.051.133-4.997.796-1.99 2.83-4.732 3.405-6.147s.973-2.83.973-3.803-.088-1.902.486-2.963 1.282-1.636 1.857-2.388c.575-.796 1.68-1.857 2.123-2.963.442-1.15.442-2.255.442-2.255v-.398z" fill="#fff"/><path d="M36.732 43.071l-.752 5.793c-.354 2.521-.088 4.909-.088 7.429 0-.088.354-.354.354-.531 0-2.521-.265-4.953.089-7.429l.752-5.793c0 .088-.309.354-.354.531z" fill="silver"/><path d="M51.855 33.873s-1.504.796-1.902.84c-.442.088-2.565.265-2.963.265-.442 0-.796.442-.575.619.221.221 3.316 1.194 4.112 1.68s2.83 1.415 3.803 1.68 1.282.221 1.282.221l-1.194-2.034c-.265-.265-.575-.796-1.194-1.415s-.84-1.194-.973-1.504c-.133-.265-.354-.575-.354-.575m-22.152-1.502s.133 1.548.575 2.255 1.503 1.769 1.503 1.769-2.742 1.327-3.095 1.857l-.354.486.177-1.061.354-1.238c.088-.486.044-1.371.044-2.123-.088-.84.796-1.946.796-1.946zm26.4 21.669l.133-.84s-1.327-.84-2.432-.84c-1.15 0-2.255.708-2.521 1.105-.265.442-1.282 2.123-1.504 3.405-.133.929.088 3.405.354 4.334s.265 2.565.265 2.565l1.371-1.15.088-2.83c0-.796-.221-2.432 0-3.493s.486-1.504 1.106-2.3c.663-.796 1.946-.486 2.344-.309l.796.354z" fill="#c4c4c4"/><path d="M37.837 15.654c-.221 1.99-1.902 3.626-3.405 3.449s-2.388-1.592-2.167-3.582 1.99-3.759 3.493-3.582 2.255 1.725 2.078 3.714zM48.45 15.3c-.133 1.238-1.327 3.051-2.432 3.626-.619.309-1.504-.575-2.211-1.017-1.592-1.017-2.565-.884-2.344-2.874s2.034-3.715 3.936-3.538A3.39 3.39 0 0 1 48.45 15.3z" fill="#fff"/><path d="M37.572 16.273c0 1.15-.84 2.078-1.857 2.078s-1.857-.929-1.857-2.078.84-2.078 1.857-2.078 1.857.929 1.857 2.078zm8.756-.221c0 1.15-.84 2.078-1.857 2.078-.398 0-.752-.133-1.017-.354a2.21 2.21 0 0 1-.796-1.725c0-1.15.84-2.078 1.857-2.078.973-.044 1.813.885 1.813 2.078z" fill="#000"/><path d="M36.644 15.168c0 .354-.265.619-.575.619s-.575-.265-.575-.619.265-.619.575-.619c.354.044.575.31.575.619zm9.286.575c0 .354-.265.619-.575.619s-.575-.265-.575-.619.265-.619.575-.619.575.309.575.619z" fill="#fff"/><path d="M47.787 20.386l-.177 1.238-.884.531c-.177.088-1.282.354-1.592.354s-1.15.486-1.857.575-1.371.796-1.592 1.105-1.15.84-1.415.973c-.265.088-1.105.442-1.548.354-.442-.044-1.282-.31-1.415-.486-.177-.177-1.504-.354-1.504-.354l-.929-.531-.752-.619-.531-.486-.354-.354.486.177s.884.796 1.327 1.061 1.371.265 1.68.354 1.017.84 1.636.84 1.68-.221 2.211-.531 1.548-1.415 2.123-1.769c.575-.309 1.238-.708 1.813-.708s.884.044 1.548-.044c.708-.088 1.061-.442 1.15-.752s.088-1.061.088-1.061l-1.415-.707s-1.15-.531-1.415-.796-1.548-1.282-2.034-1.415c-.486-.177-.84-.531-1.68-.531s-1.592-.31-2.211.044-1.592 1.061-1.769 1.327-1.061.708-1.371.752-1.017.486-1.282.619c-.265.177-.884.442-1.238 1.238-.31.796-.442 1.946 0 2.565.442.575 1.769 1.504 2.344 1.636.575.177 1.548 1.238 1.857 1.371.31.177 1.327.752 2.344.84s1.813.221 2.609-.309 1.504-1.415 2.123-1.901 1.327-1.238 1.813-1.327 1.061-.442 1.282-.575c.221-.177.973-.752.973-1.238l.044-1.415-.486-.221" fill="#f3c55c"/><g fill="#f8d281"><path d="M45.001 19.28s-.708.265-.884.177c-.221-.088-2.432-1.238-3.007-1.238s-3.184.442-3.891.884c-.707.486-1.946 1.282-2.167 1.901s-.044 1.548.619 1.857c.708.31 1.504.619 1.946 1.282.486.619.486 1.017 1.061 1.017s1.238-.221 1.769-.575 1.548-1.194 2.167-1.68 1.061-.708 1.769-.708 1.813 0 2.255-.221.619-.31.619-.619.354-.796.089-1.061-1.327-.619-1.636-.796c-.354-.133-.708-.221-.708-.221z"/><path d="M36.865 25.073s1.769 1.415 2.344 1.415 1.282.265 1.548.265c.133 0-.221.177.84-.133l-.088.354s1.105-.398 1.327-.84c.354-.663 1.371-1.105 1.504-1.282.221-.442.929-.884 1.415-1.15s.708-.265 1.15-.442c.309-.133 1.238-1.194 1.238-1.194l-.796-.088-2.078.531c-.177 0-1.282.531-1.813.531-.708 0-1.592 1.017-1.769 1.238s-1.106.796-1.106.796l-1.371.486-1.238-.221-1.105-.265z"/></g></svg>