<?xml version="1.0" encoding="UTF-8" standalone="no"?>
<!-- Created with Inkscape (http://www.inkscape.org/) -->

<svg
   width="19.55311mm"
   height="21.166668mm"
   viewBox="0 0 19.55311 21.166668"
   version="1.1"
   id="svg5"
   sodipodi:docname="linux.svg"
   inkscape:version="1.1 (ce6663b3b7, 2021-05-25)"
   xmlns:inkscape="http://www.inkscape.org/namespaces/inkscape"
   xmlns:sodipodi="http://sodipodi.sourceforge.net/DTD/sodipodi-0.dtd"
   xmlns="http://www.w3.org/2000/svg"
   xmlns:svg="http://www.w3.org/2000/svg">
  <sodipodi:namedview
     id="namedview7"
     pagecolor="#ffffff"
     bordercolor="#666666"
     borderopacity="1.0"
     inkscape:pageshadow="2"
     inkscape:pageopacity="0.0"
     inkscape:pagecheckerboard="0"
     inkscape:document-units="mm"
     showgrid="false"
     inkscape:zoom="1.4645623"
     inkscape:cx="-206.20495"
     inkscape:cy="195.62159"
     inkscape:window-width="3368"
     inkscape:window-height="1376"
     inkscape:window-x="1992"
     inkscape:window-y="27"
     inkscape:window-maximized="1"
     inkscape:current-layer="layer1"
     fit-margin-top="0"
     fit-margin-left="0"
     fit-margin-right="0"
     fit-margin-bottom="0" />
  <defs
     id="defs2" />
  <g
     inkscape:label="Layer 1"
     inkscape:groupmode="layer"
     id="layer1"
     transform="translate(-77.315959,-76.070903)">
    <path
       d="m 80.000104,93.890088 c 0,0 -2.000705,0.08191 -2.386806,0.479716 -0.386102,0.397801 -0.386102,1.06471 -0.0585,1.322096 0.327602,0.257413 1.380607,0.538216 3.451517,0.64352 1.52101,0.187193 1.205097,0.655188 2.328307,0.643493 0.09361,0 1.275318,0.374412 2.737828,0.222303 1.462511,-0.152109 2.03581,-0.620104 2.655914,-0.620104 0.620104,0 2.421917,0.643493 3.603625,0.643493 1.181682,0 1.977311,0.0585 2.480416,-0.42119 0.503079,-0.479716 0.678603,-0.584994 0.713687,-0.865796 0.03511,-0.280802 0.116999,-0.561605 -0.0585,-0.760519 -0.175498,-0.198887 -4.773613,-1.181708 -4.773613,-1.181708 z"
       fill="#a7acb3"
       id="path946"
       style="stroke-width:0.264583" />
    <path
       d="m 88.084898,95.1771 c -0.339302,0.08191 -1.240208,0.585021 -1.404012,0.64352 -0.163803,0.0585 -0.643519,0.444606 -1.181708,0.561605 -0.538216,0.116998 -1.485927,-0.140415 -1.485927,-0.140415 0,0 -2.187892,-0.725408 -2.304891,-0.725408 -0.116999,0 -1.790118,-0.479689 -1.907119,-0.561604 -0.117002,-0.08189 -0.386104,-0.444606 -0.222303,-0.701993 0.163801,-0.257413 0.397804,-0.432911 0.397804,-0.432911 0,0 -0.339302,-1.052989 -0.257403,-1.673093 0.0819,-0.620104 0.643509,-0.959406 1.029615,-1.06471 0.397801,-0.116998 0.503106,-0.280802 0.503106,-0.280802 0,0 0.198887,-0.245719 0.280802,-0.386106 0.08189,-0.140415 0.304191,-0.257414 0.304191,-0.257414 l 0.0585,-0.257386 c 0,0 -0.222302,-0.702019 -0.116998,-0.924322 0.116999,-0.222277 0.561605,-0.362691 0.701993,-0.842381 0.140414,-0.479716 0.222302,-1.708229 0.643519,-2.445332 0.42119,-0.725408 0.374386,-0.549883 0.678603,-0.865796 0.292497,-0.315912 0.842407,-1.134904 0.947685,-1.333817 0.117025,-0.198888 0.503105,-0.643493 0.503105,-0.924296 0,-0.280802 -0.339301,-2.632524 -0.257386,-3.393016 0.08189,-0.760508 0.36269,-1.32211 0.701992,-1.766713 0.339302,-0.444603 0.842407,-0.900904 0.842407,-0.900904 0,0 0.4563,-0.432903 1.181708,-0.432903 0.725408,0 1.708203,0.257401 2.164504,0.643504 0.444605,0.397801 1.04132,0.678603 1.287012,1.404006 0.163804,0.561604 0.386107,1.778418 0.432912,2.152803 0.0468,0.374412 -0.08192,0.982821 -0.01169,1.497621 0.07019,0.503105 0.269081,0.854102 0.42119,1.06471 0.152109,0.210582 2.246418,2.807996 2.609109,4.235424 0.362718,1.4274 0.304218,2.187892 0.304218,2.550609 0,0.362691 -0.116999,0.842407 -0.116999,0.842407 0,0 0.315887,0.128694 0.456301,0.350997 0.140388,0.222303 0.08189,1.134903 0.105304,1.251902 0.03508,0.116999 0.198887,0.315913 0.304192,0.397801 0.105304,0.08191 0.409495,0.304218 0.584993,0.327607 0.163804,0.02339 0.491411,0.292497 0.54991,0.54991 0.0585,0.257387 0.140415,0.526495 -0.163803,0.725408 -0.304192,0.198888 -1.790118,1.041295 -1.883701,1.123183 -0.116999,0.09361 -0.842407,0.760518 -0.959406,0.900906 -0.116999,0.140415 -0.748797,0.538216 -0.9711,0.561605 -0.222303,0.02342 -1.09982,0.0585 -1.696508,-0.444579 -0.245719,-0.210609 -0.678604,-0.67863 -1.06471,-0.760519 -0.397801,-0.08189 -1.52101,-0.280802 -1.52101,-0.280802 0,0 -0.128694,-0.07019 -0.467995,0.01169 z"
       fill="#000000"
       id="path948"
       style="stroke-width:0.264583" />
    <path
       d="m 79.988436,94.79102 c 0,0 1.286986,0.421191 1.602899,0.503079 0.304191,0.08191 2.304918,0.725408 2.49211,0.760519 0.198914,0.02339 1.134904,0.315886 1.474206,0.07019 0.339301,-0.257383 0.912601,-0.924292 0.315912,-1.942197 -0.620104,-1.06471 -1.00621,-1.263623 -1.00621,-1.263623 l -0.47969,-0.584994 -0.339301,-0.561605 c 0,0 -0.198914,-0.561604 -0.362718,-0.725408 -0.163803,-0.163803 -0.198887,-0.538189 -0.620104,-0.760492 -0.292497,-0.152109 -0.900906,-0.175498 -1.123209,-0.01169 -0.222303,0.163777 -0.678603,0.783881 -0.678603,0.783881 0,0 -0.643493,0.175524 -0.783908,0.257413 -0.140388,0.08189 -0.479689,0.362691 -0.538194,0.561604 -0.0585,0.198914 -0.116999,0.538189 -0.0234,0.865796 0.08191,0.339302 0.175514,0.889212 0.222292,0.959406 0.0585,0.09361 0.03511,0.222303 0.03511,0.222303 0,0 -0.491402,0.222303 -0.491402,0.421217 0,0.198887 0.163801,0.350996 0.163801,0.350996 z"
       fill="#f5c65d"
       id="path950"
       style="stroke-width:0.264583" />
    <path
       d="m 81.649808,94.861214 c 0,0 0.233997,0.08189 0.538189,0.163778 0.304191,0.08191 1.97731,0.666908 2.164503,0.690324 0.198914,0.02339 0.64352,0.140388 0.982821,-0.116999 0.339302,-0.257413 0.900907,-0.503105 0.47969,-1.380622 -0.5148,-1.06471 -1.006211,-1.263597 -1.006211,-1.263597 l -0.444579,-0.561605 -0.374412,-0.584994 c 0,0 -0.198914,-0.49141 -0.362691,-0.725408 -0.140414,-0.198913 -0.327607,-0.643519 -0.643519,-0.760518 -0.304192,-0.116999 -0.795602,-0.187193 -1.017905,-0.01169 -0.222303,0.163804 -0.503105,0.690298 -0.503105,0.690298 0,0 -0.339302,0.561605 -0.47969,0.64352 -0.140414,0.08189 -0.397801,0.444606 -0.444606,0.643493 -0.0585,0.198914 -0.02342,0.280802 0.0585,0.620104 0.08189,0.339302 0.374412,0.737103 0.350997,0.818991 -0.02339,0.08192 -0.105305,0.257413 -0.105305,0.257413 0,0 -0.233997,0.152109 -0.233997,0.350997 0,0.198913 0.596715,0.339301 0.596715,0.339301 z"
       fill="#f7d285"
       id="path952"
       style="stroke-width:0.264583" />
    <path
       d="m 91.126865,95.867398 c 0,0 -0.386106,-0.269081 -0.362717,-0.947684 0.02341,-0.889212 0.327607,-1.228514 0.327607,-1.57951 0,-0.351022 -0.0585,-0.772213 -0.0585,-0.772213 0,0 -0.09361,-1.216818 -0.0468,-1.567815 0.0468,-0.350996 0.210608,-0.678603 0.4563,-0.713687 0.245719,-0.03511 0.596715,0.222303 0.655214,0.315886 0.152109,0.280803 0.397801,0.760519 0.397801,0.760519 0,0 0.292497,0.503105 0.60841,0.479689 0.315886,-0.02339 0.9126,-0.947711 1.240208,-1.146598 0.210581,-0.128693 0.526494,-0.116999 0.620104,-0.0585 0.09358,0.0585 0.280802,0.257387 0.304191,0.491411 0.02339,0.222277 -0.09361,0.713687 -0.03511,0.959379 0.05853,0.245719 0.315912,0.526521 0.526521,0.655214 0.210608,0.128694 0.748797,0.339302 0.842406,0.467995 0.09358,0.12872 0.210582,0.432912 0.02339,0.620104 -0.187193,0.18722 -0.631799,0.409522 -0.631799,0.409522 l -0.655214,0.409496 c 0,0 -0.561605,0.304192 -0.678603,0.397801 -0.116999,0.09361 -0.807297,0.748797 -0.971101,0.877491 -0.163803,0.12872 -0.350996,0.374412 -0.608409,0.456327 -0.198887,0.0585 -0.701992,0.152082 -0.93599,0.0585 -0.245719,-0.09361 -0.561605,-0.234024 -0.561605,-0.234024 z"
       fill="#f5c860"
       id="path954"
       style="stroke-width:0.264583" />
    <path
       d="m 91.746969,92.146801 c 0,0 -0.08189,0.187193 -0.03508,0.374386 0.0585,0.187219 -0.02341,0.748823 -0.12872,1.123209 -0.116998,0.374412 -0.409495,0.772213 -0.187192,1.310402 0.222303,0.538215 0.994516,1.053015 1.474205,1.00621 0.491411,-0.03508 1.123209,-0.690298 1.404012,-0.877491 0.280802,-0.187219 1.064709,-0.444605 1.193403,-0.561604 0.128693,-0.116999 0.538215,-0.222303 0.631798,-0.315913 0.09361,-0.09361 0.60841,-0.339301 0.60841,-0.561604 0,-0.222303 0.03511,-0.362691 -0.210609,-0.526495 -0.245692,-0.163803 -0.713687,-0.374412 -0.772186,-0.409495 -0.0585,-0.03511 -0.397801,-0.397801 -0.444606,-0.468022 -0.0585,-0.07019 -0.0585,-0.584994 -0.07019,-0.713687 -0.02342,-0.12872 -0.339302,-0.257413 -0.526521,-0.222303 -0.187192,0.03508 -0.432885,0.350996 -0.713687,0.772187 -0.280802,0.409522 -0.49141,0.538215 -0.678603,0.538215 -0.187219,0 -0.596715,-0.07019 -0.783908,-0.210608 -0.187219,-0.128694 -0.350996,-0.362691 -0.538215,-0.374386 -0.187193,-0.01172 -0.222303,0.116999 -0.222303,0.116999 z"
       fill="#f7d285"
       id="path956"
       style="stroke-width:0.264583" />
    <path
       d="m 86.025646,82.646354 c 0,0 0.222303,0.07019 0.409495,0.222303 0.187219,0.152083 0.631799,0.503105 1.088099,0.526495 0.444606,0.02342 0.725408,-0.07019 0.971127,-0.315886 0.245692,-0.245719 0.467995,-0.491411 0.584993,-0.538216 0.116999,-0.0585 0.350997,-0.152109 0.350997,-0.152109 l 0.374412,-0.304191 c 0,0 0.03508,0.444606 0.163803,0.725408 0.128693,0.280802 0.503105,0.783907 0.596688,1.216792 0.09361,0.432911 0.18722,0.9711 0.397801,1.275318 0.210609,0.304192 0.865823,1.06471 1.006211,1.591205 0.152109,0.526494 0.339302,1.4274 0.210608,1.97731 -0.128693,0.561605 -0.222303,1.439095 -0.222303,1.439095 0,0 -0.257413,-0.163777 -0.432911,-0.163777 -0.163803,0 -0.257387,0.03508 -0.409496,0.152083 -0.187192,0.12872 -0.315912,0.561604 -0.315912,0.783907 0,0.222303 0,1.497621 0,1.497621 0,0 -0.655188,0.538189 -0.772187,0.678604 -0.116998,0.128693 -1.123209,0.994489 -1.380622,1.099793 -0.257386,0.116999 -1.216792,0.409496 -1.743313,0.163804 -0.526494,-0.245692 -0.666882,-0.269108 -0.725381,-0.350996 -0.0585,-0.07019 -0.842407,-1.041321 -0.842407,-1.041321 l -0.09361,-0.105278 c 0,0 0.573299,0.07019 0.737103,-0.163803 0.163803,-0.245719 0.198914,-0.503106 0.116999,-0.690325 -0.116999,-0.280802 -0.233998,-0.467995 -0.409496,-0.655187 -0.386106,-0.397801 -1.216819,-0.842407 -1.333817,-0.959406 -0.116999,-0.116999 -0.772187,-0.772213 -0.818992,-1.053015 -0.0585,-0.280803 -0.163803,-0.807297 0.03508,-1.322097 0.210608,-0.526521 0.748824,-1.251902 0.900906,-1.626314 0.152109,-0.374412 0.257413,-0.748798 0.257413,-1.006211 0,-0.257386 -0.02339,-0.503105 0.128694,-0.783907 0.152109,-0.280802 0.339301,-0.432885 0.49141,-0.631799 0.152109,-0.210608 0.444606,-0.49141 0.561605,-0.783907 0.116999,-0.304192 0.116999,-0.596689 0.116999,-0.596689 z"
       fill="#ffffff"
       id="path958"
       style="stroke-width:0.264583" />
    <path
       d="m 86.821248,87.466745 c -0.04681,0.5148 -0.12872,1.017905 -0.198914,1.532705 -0.09361,0.666909 -0.02339,1.298707 -0.02339,1.965616 0,-0.02339 0.09358,-0.09358 0.09358,-0.140388 0,-0.666909 -0.07019,-1.310402 0.02342,-1.965616 0.07019,-0.5148 0.152083,-1.017905 0.198887,-1.532705 0,0.02339 -0.08189,0.09361 -0.09358,0.140388 z"
       fill="#c0c0c0"
       id="path960"
       style="stroke-width:0.264583" />
    <path
       d="m 90.822647,85.033161 c 0,0 -0.397801,0.210608 -0.503105,0.222302 -0.116999,0.02339 -0.678603,0.07019 -0.783908,0.07019 -0.116998,0 -0.210608,0.116999 -0.152109,0.163804 0.0585,0.0585 0.877518,0.315912 1.088126,0.444606 0.210582,0.128693 0.748797,0.374385 1.006184,0.444606 0.257413,0.07019 0.339301,0.0585 0.339301,0.0585 0,0 -0.245692,-0.468021 -0.315886,-0.538215 -0.07019,-0.07019 -0.152109,-0.21061 -0.315912,-0.374387 -0.163804,-0.163803 -0.222303,-0.315912 -0.257387,-0.397827 -0.03511,-0.07019 -0.09361,-0.152083 -0.09361,-0.152083"
       fill="#c4c4c4"
       id="path962"
       style="stroke-width:0.264583" />
    <path
       d="m 84.972657,84.576834 c 0,0 0.03511,0.409522 0.152109,0.596714 0.116999,0.187193 0.397801,0.467995 0.397801,0.467995 0,0 -0.725408,0.350997 -0.819018,0.491411 -0.09358,0.128694 -0.09358,0.128694 -0.09358,0.128694 l 0.0468,-0.280803 c 0,0 0.07019,-0.222303 0.09358,-0.327607 0.02342,-0.128693 0.01169,-0.362691 0.01169,-0.561605 -0.02339,-0.222276 0.210608,-0.514799 0.210608,-0.514799 z"
       fill="#c4c4c4"
       id="path964"
       style="stroke-width:0.264583" />
    <path
       d="m 91.957551,90.309878 0.03511,-0.222303 c 0,0 -0.350996,-0.222302 -0.64352,-0.222302 -0.304191,0 -0.596688,0.187219 -0.666882,0.292496 -0.07022,0.117026 -0.339301,0.561605 -0.397801,0.900907 -0.03511,0.245718 0.02339,0.900906 0.09358,1.146624 0.07019,0.245693 0.07019,0.678604 0.07019,0.678604 l 0.362718,-0.304218 c 0,0 0.02339,-0.538189 0.02339,-0.748797 0,-0.210609 -0.0585,-0.643494 0,-0.924296 0.0585,-0.280802 0.128719,-0.397801 0.292497,-0.608409 0.175524,-0.210609 0.514826,-0.128694 0.620104,-0.08189 0.09361,0.04678 0.210608,0.09358 0.210608,0.09358 z"
       fill="#c4c4c4"
       id="path966"
       style="stroke-width:0.264583" />
    <path
       d="m 87.113745,80.212717 c -0.0585,0.526521 -0.503106,0.959405 -0.900907,0.912627 -0.397801,-0.04681 -0.631798,-0.421217 -0.573299,-0.947711 0.0585,-0.526521 0.526495,-0.994516 0.924296,-0.947711 0.397801,0.04681 0.596714,0.4563 0.54991,0.982795 z"
       fill="#ffffff"
       id="path968"
       style="stroke-width:0.264583" />
    <path
       d="m 89.921767,80.119134 c -0.03508,0.32758 -0.350996,0.807296 -0.643493,0.959405 -0.163803,0.08189 -0.397801,-0.152109 -0.584994,-0.269107 -0.421216,-0.269108 -0.678603,-0.233998 -0.620104,-0.760519 0.0585,-0.526494 0.538189,-0.982795 1.041295,-0.93599 0.49141,0.0468 0.865796,0.47969 0.807296,1.006211 z"
       fill="#ffffff"
       id="path970"
       style="stroke-width:0.264583" />
    <path
       d="m 87.043577,80.37652 c 0,0.304192 -0.222303,0.54991 -0.49141,0.54991 -0.269082,0 -0.491385,-0.245718 -0.491385,-0.54991 0,-0.304191 0.222303,-0.54991 0.491385,-0.54991 0.269107,0 0.49141,0.245719 0.49141,0.54991 z"
       fill="#000000"
       id="path972"
       style="stroke-width:0.264583" />
    <path
       d="m 89.360163,80.318021 c 0,0.304191 -0.222303,0.549884 -0.491411,0.549884 -0.105304,0 -0.198887,-0.03508 -0.269108,-0.09358 -0.128693,-0.105305 -0.210581,-0.269108 -0.210581,-0.456301 0,-0.304218 0.222302,-0.54991 0.491384,-0.54991 0.257413,-0.0117 0.479716,0.233998 0.479716,0.54991 z"
       fill="#000000"
       id="path974"
       style="stroke-width:0.264583" />
    <path
       d="m 86.797832,80.084023 c 0,0.09358 -0.07019,0.163804 -0.152109,0.163804 -0.08189,0 -0.152082,-0.07022 -0.152082,-0.163804 0,-0.09361 0.07019,-0.163803 0.152082,-0.163803 0.09361,0.01169 0.152109,0.08189 0.152109,0.163803 z"
       fill="#ffffff"
       id="path976"
       style="stroke-width:0.264583" />
    <path
       d="m 89.254859,80.236106 c 0,0.09361 -0.07022,0.163804 -0.152109,0.163804 -0.08189,0 -0.152109,-0.07019 -0.152109,-0.163804 0,-0.09361 0.07022,-0.163804 0.152109,-0.163804 0.08189,0 0.152109,0.08191 0.152109,0.163804 z"
       fill="#ffffff"
       id="path978"
       style="stroke-width:0.264583" />
    <path
       d="m 89.746243,81.464619 -0.04678,0.327607 c 0,0 -0.198913,0.116999 -0.234024,0.140388 -0.04678,0.02342 -0.339301,0.09361 -0.42119,0.09361 -0.08192,0 -0.304191,0.128694 -0.49141,0.152109 -0.187193,0.02339 -0.362691,0.210582 -0.421191,0.292497 -0.0585,0.08189 -0.304218,0.222303 -0.374411,0.257387 -0.07019,0.02342 -0.292497,0.116999 -0.409496,0.09361 -0.116998,-0.01169 -0.339301,-0.08189 -0.374411,-0.128693 -0.0468,-0.0468 -0.397801,-0.09361 -0.397801,-0.09361 l -0.245692,-0.140388 -0.198914,-0.163803 -0.140387,-0.12872 -0.09361,-0.09358 0.128719,0.04681 c 0,0 0.233998,0.210582 0.350997,0.280802 0.116998,0.07019 0.36269,0.07019 0.444605,0.09358 0.08189,0.02342 0.269082,0.222303 0.432885,0.222303 0.163804,0 0.444606,-0.0585 0.585021,-0.140388 0.140387,-0.08192 0.409495,-0.374412 0.561604,-0.468021 0.152083,-0.08189 0.327581,-0.187193 0.47969,-0.187193 0.152109,0 0.233997,0.0117 0.409495,-0.0117 0.187219,-0.02342 0.280803,-0.116999 0.304218,-0.198914 0.02339,-0.08189 0.02339,-0.280802 0.02339,-0.280802 l -0.374412,-0.187193 c 0,0 -0.304192,-0.140388 -0.374386,-0.210608 -0.07019,-0.07019 -0.409496,-0.339302 -0.538215,-0.374385 -0.128694,-0.0468 -0.222303,-0.140415 -0.444606,-0.140415 -0.222277,0 -0.42119,-0.08189 -0.584994,0.0117 -0.163803,0.09361 -0.42119,0.280802 -0.467995,0.351023 -0.0468,0.07019 -0.280802,0.187192 -0.362717,0.198887 -0.08189,0.01169 -0.269081,0.128693 -0.339302,0.163803 -0.07019,0.04681 -0.233997,0.116999 -0.32758,0.327607 -0.08192,0.210609 -0.116999,0.5148 0,0.678604 0.116999,0.152109 0.467995,0.397801 0.620104,0.432911 0.152082,0.04678 0.409495,0.327581 0.491384,0.362691 0.08192,0.0468 0.350996,0.198887 0.620104,0.222303 0.269107,0.02339 0.479716,0.0585 0.690298,-0.08191 0.210608,-0.140388 0.397827,-0.374386 0.561604,-0.503079 0.163804,-0.12872 0.351023,-0.327607 0.479716,-0.351023 0.128693,-0.02339 0.280802,-0.116998 0.339302,-0.152082 0.0585,-0.04681 0.257386,-0.198914 0.257386,-0.327607 0,-0.128694 0.01172,-0.374412 0.01172,-0.374412 l -0.12872,-0.0585"
       fill="#f3c55c"
       id="path980"
       style="stroke-width:0.264583" />
    <path
       d="m 89.009166,81.172122 c 0,0 -0.187219,0.07019 -0.234023,0.04681 -0.0585,-0.02342 -0.643494,-0.327607 -0.795603,-0.327607 -0.152082,0 -0.842406,0.116999 -1.029599,0.233998 -0.187193,0.128693 -0.5148,0.339301 -0.573299,0.503105 -0.0585,0.163803 -0.01169,0.409495 0.163803,0.491384 0.187193,0.08191 0.397802,0.163804 0.5148,0.339302 0.128694,0.163803 0.128694,0.269107 0.280802,0.269107 0.152109,0 0.327607,-0.0585 0.467995,-0.152082 0.140415,-0.09361 0.409496,-0.315913 0.573299,-0.444606 0.163804,-0.12872 0.280803,-0.187219 0.468022,-0.187219 0.187193,0 0.47969,0 0.596688,-0.0585 0.116999,-0.0585 0.163804,-0.08189 0.163804,-0.163804 0,-0.08189 0.09361,-0.210582 0.02341,-0.280802 -0.07022,-0.07019 -0.351022,-0.163777 -0.432911,-0.210582 -0.09361,-0.03511 -0.187193,-0.0585 -0.187193,-0.0585 z"
       fill="#f8d281"
       id="path982"
       style="stroke-width:0.264583" />
    <path
       d="m 86.856332,82.704827 c 0,0 0.467994,0.374412 0.620103,0.374412 0.152109,0 0.339302,0.07019 0.409496,0.07019 0.03511,0 -0.0585,0.04681 0.222303,-0.03511 l -0.02339,0.09361 c 0,0 0.292496,-0.105304 0.350996,-0.222303 0.09361,-0.175498 0.362691,-0.292497 0.397801,-0.339302 0.0585,-0.116998 0.245692,-0.233997 0.374412,-0.304191 0.128693,-0.07022 0.187192,-0.07022 0.304191,-0.116999 0.08191,-0.03511 0.327607,-0.315912 0.327607,-0.315912 l -0.210608,-0.02339 c 0,0 -0.503105,0.140388 -0.54991,0.140388 -0.04678,0 -0.339302,0.140414 -0.47969,0.140414 -0.187192,0 -0.421216,0.269081 -0.467995,0.327581 -0.0468,0.0585 -0.292523,0.210608 -0.292523,0.210608 l -0.36269,0.128693 -0.327607,-0.0585 z"
       fill="#f8d281"
       id="path984"
       style="stroke-width:0.264583" />
  </g>
</svg>
