<svg xmlns="http://www.w3.org/2000/svg" xmlns:xlink="http://www.w3.org/1999/xlink" width="150" height="92" fill="none" xmlns:v="https://vecta.io/nano"><path d="M74.186 91.868c-.499 0-.997-.147-1.437-.381l-4.517-2.669c-.675-.381-.352-.499-.147-.587.909-.293 1.085-.381 2.024-.909.088-.059.235-.029.352.029l3.461 2.083a.5.5 0 0 0 .411 0l13.523-7.832c.147-.059.205-.205.205-.381V65.584c0-.176-.059-.293-.205-.381L74.333 57.4a.5.5 0 0 0-.411 0l-13.494 7.832c-.147.059-.205.235-.205.381v15.635c0 .147.059.293.205.381l3.696 2.141c1.995 1.027 3.256-.176 3.256-1.349v-15.43a.42.42 0 0 1 .411-.411h1.731a.42.42 0 0 1 .411.411v15.43c0 2.669-1.467 4.224-3.99 4.224-.792 0-1.379 0-3.109-.851l-3.55-2.024c-.88-.499-1.437-1.467-1.437-2.464V65.672c0-1.027.528-1.965 1.437-2.464l13.523-7.832c.851-.469 1.995-.469 2.846 0l13.523 7.832c.88.499 1.437 1.467 1.437 2.464v15.635c0 1.027-.528 1.965-1.437 2.464l-13.523 7.832c-.499.147-.997.264-1.467.264zm4.165-10.736c-5.925 0-7.157-2.699-7.157-5.016a.42.42 0 0 1 .411-.411h1.76c.205 0 .381.147.381.352.264 1.789 1.056 2.669 4.635 2.669 2.845 0 4.077-.645 4.077-2.171 0-.88-.352-1.525-4.782-1.965-3.696-.381-6.013-1.173-6.013-4.136 0-2.757 2.317-4.371 6.16-4.371 4.341 0 6.483 1.496 6.747 4.752 0 .088-.029.205-.088.293-.059.059-.176.147-.264.147h-1.76c-.176 0-.352-.147-.381-.293-.411-1.877-1.467-2.464-4.224-2.464-3.109 0-3.491 1.085-3.491 1.907 0 .997.44 1.291 4.635 1.819 4.165.528 6.131 1.32 6.131 4.224-.029 2.963-2.464 4.664-6.776 4.664z" fill="#539e43"/><path d="M32.209 30.735c0-.616-.352-1.173-.88-1.496l-14.374-8.272c-.235-.147-.499-.205-.792-.235h-.147c-.264 0-.528.088-.792.235L.88 29.239A1.74 1.74 0 0 0 0 30.735L.029 52.97c0 .293.176.616.44.733.264.176.616.176.851 0l8.536-4.87a1.74 1.74 0 0 0 .88-1.496V36.925c0-.616.352-1.173.88-1.496l3.637-2.112c.264-.176.587-.235.88-.235s.616.059.851.235l3.637 2.112a1.74 1.74 0 0 1 .88 1.496v10.414c0 .616.352 1.173.88 1.496l8.536 4.87a.8.8 0 0 0 .88 0c.264-.147.44-.44.44-.733l-.029-22.235zM101.291.11c-.264-.147-.616-.147-.85 0-.265.176-.441.44-.441.733v22.059c0 .205-.088.411-.293.528a.75.75 0 0 1-.616 0l-3.608-2.083c-.528-.293-1.173-.293-1.731 0L79.379 29.65a1.74 1.74 0 0 0-.88 1.496V47.72c0 .616.352 1.173.88 1.496l14.374 8.302c.528.293 1.173.293 1.731 0l14.374-8.302a1.74 1.74 0 0 0 .88-1.496V6.417a1.75 1.75 0 0 0-.88-1.525L101.291.11zm-1.32 42.183c0 .176-.059.293-.205.381l-4.928 2.846a.57.57 0 0 1-.44 0l-4.928-2.846c-.147-.059-.205-.235-.205-.381v-5.691c0-.176.059-.293.205-.381l4.928-2.845a.57.57 0 0 1 .44 0l4.928 2.845c.147.059.205.235.205.381v5.691zm49.178-5.837c.528-.293.851-.88.851-1.496v-4.019c0-.616-.352-1.173-.851-1.496l-14.285-8.272c-.529-.293-1.174-.293-1.731 0l-14.374 8.302a1.74 1.74 0 0 0-.88 1.496v16.574c0 .616.352 1.173.88 1.496l14.286 8.126c.528.293 1.173.293 1.701 0l8.654-4.811c.264-.147.44-.44.44-.733s-.176-.616-.44-.733l-14.462-8.331c-.264-.147-.44-.44-.44-.733v-5.192c0-.293.176-.616.44-.733l4.517-2.581a.8.8 0 0 1 .88 0l4.518 2.581c.264.176.44.44.44.733v4.077c0 .293.176.616.44.733a.8.8 0 0 0 .88 0l8.536-4.987z" fill="#333"/><path d="M133.778 35.693c.088-.059.235-.059.352 0l2.758 1.584c.088.059.176.176.176.293v3.197c0 .147-.059.235-.176.293l-2.758 1.584c-.088.059-.235.059-.352 0l-2.757-1.584c-.088-.059-.176-.176-.176-.293V37.6c0-.147.058-.235.176-.293l2.757-1.613z" fill="#539e43"/><path d="M56.254 21.231c-.528-.293-1.173-.293-1.731 0l-14.286 8.243c-.528.293-.851.88-.851 1.496v16.515c0 .616.352 1.173.851 1.496l14.286 8.243c.528.293 1.173.293 1.731 0l14.286-8.243c.528-.293.851-.88.851-1.496V30.97c0-.616-.352-1.173-.851-1.496l-14.286-8.243z" fill="url(#C)"/><mask id="A" mask-type="alpha" maskUnits="userSpaceOnUse" x="39" y="21" width="33" height="37"><path d="M56.254 21.231c-.528-.293-1.173-.293-1.731 0l-14.286 8.243c-.528.293-.851.88-.851 1.496v16.515c0 .616.352 1.173.851 1.496l14.286 8.243c.528.293 1.173.293 1.731 0l14.286-8.243c.528-.293.851-.88.851-1.496V30.97c0-.616-.352-1.173-.851-1.496l-14.286-8.243z" fill="#fff"/></mask><g mask="url(#A)"><path d="M70.539 29.474l-14.315-8.243c-.147-.059-.293-.147-.44-.176L39.709 48.6c.147.176.293.293.469.411l14.344 8.243a1.74 1.74 0 0 0 1.32.176l15.078-27.603c-.088-.147-.235-.235-.381-.352z" fill="url(#D)"/></g><mask id="B" mask-type="alpha" maskUnits="userSpaceOnUse" x="39" y="21" width="33" height="37"><path d="M56.254 21.231c-.528-.293-1.173-.293-1.731 0l-14.286 8.243c-.528.293-.851.88-.851 1.496v16.515c0 .616.352 1.173.851 1.496l14.286 8.243c.528.293 1.173.293 1.731 0l14.286-8.243c.528-.293.851-.88.851-1.496V30.97c0-.616-.352-1.173-.851-1.496l-14.286-8.243z" fill="#fff"/></mask><g mask="url(#B)"><path fill-rule="evenodd" d="M70.598 48.968c.411-.235.704-.645.851-1.085L55.696 21.042c-.411-.059-.851-.029-1.232.205L40.237 29.46l15.371 28.014c.205-.029.44-.088.645-.205l14.345-8.302z" fill="url(#E)"/><use xlink:href="#H" fill-rule="evenodd" fill="url(#F)"/><use xlink:href="#H" fill-rule="evenodd" fill="url(#G)"/></g><defs><linearGradient id="C" x1="61.188" y1="27.382" x2="45.545" y2="51.966" xlink:href="#I"><stop stop-color="#41873f"/><stop offset=".329" stop-color="#418b3d"/><stop offset=".635" stop-color="#419637"/><stop offset=".932" stop-color="#3fa92d"/><stop offset="1" stop-color="#3fae2a"/></linearGradient><linearGradient id="D" x1="53.211" y1="41.163" x2="92.393" y2="19.874" xlink:href="#I"><stop offset=".138" stop-color="#41873f"/><stop offset=".403" stop-color="#54a044"/><stop offset=".714" stop-color="#66b848"/><stop offset=".908" stop-color="#6cc04a"/></linearGradient><linearGradient id="E" x1="38.873" y1="39.234" x2="71.901" y2="39.234" xlink:href="#I"><stop offset=".092" stop-color="#6cc04a"/><stop offset=".286" stop-color="#66b848"/><stop offset=".597" stop-color="#54a044"/><stop offset=".862" stop-color="#41873f"/></linearGradient><linearGradient id="F" x1="38.875" y1="52.891" x2="71.901" y2="52.891" xlink:href="#I"><stop offset=".092" stop-color="#6cc04a"/><stop offset=".286" stop-color="#66b848"/><stop offset=".597" stop-color="#54a044"/><stop offset=".862" stop-color="#41873f"/></linearGradient><linearGradient id="G" x1="76.684" y1="26.598" x2="68.317" y2="70.442" xlink:href="#I"><stop stop-color="#41873f"/><stop offset=".329" stop-color="#418b3d"/><stop offset=".635" stop-color="#419637"/><stop offset=".932" stop-color="#3fa92d"/><stop offset="1" stop-color="#3fae2a"/></linearGradient><path id="H" d="M70.598 48.968l-14.315 8.243c-.205.088-.411.176-.645.205l.264.499 15.87-9.182v-.205l-.411-.675c-.059.469-.381.88-.763 1.115z"/><linearGradient id="I" gradientUnits="userSpaceOnUse"/></defs></svg>