<svg xmlns="http://www.w3.org/2000/svg" width="220" height="64" fill="none" xmlns:v="https://vecta.io/nano"><path d="M82.973 27.192c0-6.763-1.946-10.191-5.791-10.377-1.529-.093-3.011.185-4.493.741-1.158.417-1.946.834-2.362 1.251v16.121c2.455 1.529 4.632 2.27 6.532 2.131 4.123-.324 6.115-3.613 6.115-9.867zm4.771.278c0 3.428-.788 6.254-2.409 8.524-1.807 2.548-4.308 3.891-7.505 3.938-2.409.093-4.864-.695-7.458-2.27V52.3l-4.123-1.482V18.344c.695-.834 1.529-1.529 2.594-2.131 2.455-1.436 5.42-2.177 8.941-2.223l.046.046c3.196-.046 5.698 1.297 7.412 3.938 1.668 2.502 2.502 5.651 2.502 9.496zm25.201 9.589c0 4.586-.464 7.783-1.39 9.543s-2.687 3.196-5.281 4.215a19.62 19.62 0 0 1-6.856 1.343l-.695-2.594c2.502-.324 4.262-.695 5.235-1.019 1.992-.695 3.381-1.714 4.123-3.104.602-1.112.88-3.289.88-6.485v-1.065c-2.826 1.297-5.791 1.899-8.895 1.899-2.038 0-3.844-.648-5.373-1.899-1.714-1.39-2.594-3.15-2.594-5.327v-17.14l4.123-1.436v17.279c0 1.853.602 3.289 1.807 4.262 1.205 1.019 2.733 1.482 4.633 1.436s3.937-.788 6.068-2.224V14.638h4.123v22.421h.093zm16.12 2.641c-.509.046-.926.046-1.343.046-2.316 0-4.169-.556-5.466-1.668s-1.946-2.641-1.946-4.632V17.233h-2.826v-2.594h2.826V7.736l4.123-1.482v8.385h4.632v2.594h-4.632v16.121c0 1.529.417 2.641 1.251 3.289.695.51 1.853.834 3.381.927v2.13zm24.969-.324h-4.123V23.44c0-1.621-.37-3.011-1.111-4.169-.881-1.297-2.085-1.992-3.614-1.992-1.899 0-4.262 1.019-7.087 3.011v19.086h-4.17V1.297L138.052 0v17.325c2.641-1.899 5.513-2.872 8.663-2.872 2.177 0 3.938.741 5.327 2.223 1.344 1.482 2.039 3.289 2.039 5.466v17.233h-.047zm21.958-12.832c0-2.594-.51-4.725-1.482-6.439-1.159-2.085-2.965-3.15-5.42-3.243-4.54.278-6.764 3.521-6.764 9.728 0 2.872.463 5.235 1.436 7.134 1.205 2.455 3.011 3.613 5.467 3.613 4.493-.093 6.763-3.66 6.763-10.793zm4.493 0c0 3.706-.926 6.763-2.825 9.219-2.085 2.733-4.957 4.123-8.57 4.123s-6.44-1.39-8.478-4.123c-1.853-2.455-2.779-5.513-2.779-9.219 0-3.474 1.019-6.393 3.011-8.755 2.131-2.502 4.864-3.799 8.292-3.799s6.207 1.251 8.385 3.799c1.992 2.363 2.964 5.281 2.964 8.755zm23.672 12.832h-4.123V22.56c0-1.853-.556-3.289-1.667-4.308s-2.595-1.529-4.448-1.482c-1.945.046-3.845.695-5.605 1.899v20.707h-4.123V18.113c2.363-1.714 4.54-2.872 6.578-3.382 1.9-.51 3.567-.741 4.957-.741a13.48 13.48 0 0 1 2.779.278c1.622.371 2.919 1.066 3.938 2.085 1.112 1.112 1.714 2.502 1.714 4.076v18.947z" fill="#646464"/><path d="M25.484 1.436c-2.131 0-4.169.185-5.93.51-5.235.926-6.207 2.872-6.207 6.439v4.725h12.415v1.575H13.347 8.669c-3.613 0-6.763 2.177-7.782 6.3-1.158 4.725-1.204 7.69 0 12.647.88 3.66 3.011 6.3 6.578 6.3h4.262V34.28c0-4.123 3.567-7.736 7.783-7.736h12.415c3.474 0 6.208-2.826 6.208-6.3V8.431c0-3.382-2.826-5.883-6.207-6.439-2.085-.371-4.308-.556-6.439-.556zm-6.717 3.845c1.297 0 2.316 1.065 2.316 2.363s-1.065 2.363-2.316 2.363c-1.297 0-2.316-1.065-2.316-2.363s1.019-2.363 2.316-2.363z" fill="url(#A)"/><path d="M39.706 14.731v5.513c0 4.262-3.613 7.875-7.783 7.875H19.555c-3.382 0-6.207 2.918-6.207 6.3v11.813c0 3.382 2.918 5.327 6.207 6.3 3.938 1.158 7.69 1.343 12.415 0 3.15-.926 6.207-2.733 6.207-6.3v-4.725H25.762v-1.575h12.415 6.207c3.613 0 4.957-2.502 6.207-6.3 1.297-3.891 1.251-7.644 0-12.647-.88-3.613-2.594-6.3-6.207-6.3h-4.679v.046zm-6.949 29.926c1.297 0 2.316 1.066 2.316 2.363s-1.065 2.363-2.316 2.363c-1.297 0-2.316-1.065-2.316-2.363-.046-1.297 1.019-2.363 2.316-2.363z" fill="url(#B)"/><path d="M212.218 10.933h.741v-4.54h1.714v-.556h-4.169v.556h1.714v4.54zm3.057 0h.602V6.81l1.344 4.123h.694l1.39-4.123v4.123H220V5.837h-.88l-1.529 4.355-1.297-4.355h-1.019v5.096z" fill="#646464"/><path opacity=".444" d="M42.532 60.592c0 1.76-7.458 3.243-16.63 3.243s-16.63-1.436-16.63-3.243c0-1.76 7.458-3.243 16.63-3.243 9.219.046 16.63 1.482 16.63 3.243z" fill="url(#C)"/><defs><linearGradient id="A" x1="-1.21" y1="2.933" x2="27.433" y2="27.338" gradientUnits="userSpaceOnUse"><stop stop-color="#5a9fd4"/><stop offset="1" stop-color="#306998"/></linearGradient><linearGradient id="B" x1="38.18" y1="42.549" x2="27.904" y2="28.151" gradientUnits="userSpaceOnUse"><stop stop-color="#ffd43b"/><stop offset="1" stop-color="#ffe873"/></linearGradient><radialGradient id="C" cx="0" cy="0" r="1" gradientUnits="userSpaceOnUse" gradientTransform="translate(25.909 60.6086) rotate(-90) scale(3.227 14.1872)"><stop stop-color="#b8b8b8" stop-opacity=".498"/><stop offset="1" stop-color="#7f7f7f" stop-opacity="0"/></radialGradient></defs></svg>