<?xml version="1.0" encoding="utf-8"?>
<!-- Generator: Adobe Illustrator 25.4.1, SVG Export Plug-In . SVG Version: 6.00 Build 0)  -->
<svg version="1.1" id="Layer_1" xmlns="http://www.w3.org/2000/svg" xmlns:xlink="http://www.w3.org/1999/xlink" x="0px" y="0px"
	 viewBox="0 0 801.9 456.3" style="enable-background:new 0 0 801.9 456.3;" xml:space="preserve">
<style type="text/css">
	.st0{fill:#C71618;}
	.st1{fill:#1D3A3E;}
</style>
<path class="st0" d="M307.5,398.1l-0.1,30.6l2.2,0.4c7,1.3,14.1,2.2,21.2,2.7c6.2,0.6,12.5,0.7,18.8,0.4c6-0.4,11.9-1.5,17.6-3.3
	c6.7-1.9,12.9-5.2,18.3-9.7c4.8-4.1,8.4-9.3,10.6-15.2c3.8-9.9,3.7-20.9-0.2-30.7c-2.1-5.1-5.3-9.6-9.5-13.2c-4-3.7-8.8-6.4-14-8.1
	l-23.1-8.6c-2.8-1.2-5-3.3-6.3-6c-1-2.2-0.9-4.8,0.3-7c0.4-0.8,0.9-1.5,1.5-2.1c0.7-0.7,1.5-1.3,2.4-1.9c0.3-0.2,0.7-0.4,1-0.6
	c2.6-1.3,5.4-2.1,8.2-2.4c4.9-0.7,9.8-0.7,14.7,0.2c5.7,0.6,11.4,1.6,17,3.1l1.2,0.3v-28.2l-2.2-0.5c-5.7-1.4-11.5-2.4-17.3-3.1
	c-7.6-1-15.2-1-22.8-0.1c-9.6,0.9-18.7,4.5-26.2,10.6c-5.1,4-9,9.4-11.2,15.5c-3.3,9.3-3.4,19.4,0,28.7c1.7,4.6,4.5,8.8,8.1,12.2
	c3.1,3,6.6,5.5,10.4,7.6c5,2.7,10.3,4.8,15.9,6.2c1.8,0.5,3.6,1.1,5.4,1.7l2.7,1c0.3,0.1,0.5,0.2,0.8,0.3c2.7,1,5.2,2.5,7.2,4.5
	c1.4,1.3,2.5,3,3.2,4.8c0.4,1.7,0.4,3.4,0,5.1c-0.9,2.7-2.8,5-5.3,6.3c-2.7,1.4-5.7,2.4-8.8,2.7c-4.5,0.7-9.1,0.9-13.6,0.7
	c-6-0.4-11.9-1.2-17.8-2.4c-3.1-0.6-6.1-1.3-9.2-2.1L307.5,398.1"/>
<path class="st0" d="M182.2,427.6v-35.5l-0.7,0.3c-8,3.9-16.7,6.1-25.6,6.5c-9.2,0.7-18.4-2-25.8-7.6c-5.3-4.1-9.2-9.6-11.2-15.9
	c-2.3-6.9-2.5-14.3-0.8-21.3c1.6-7.2,5.7-13.6,11.4-18.2c5.1-4.3,11.3-7,17.9-7.7c11.7-1.3,23.5,0.9,33.9,6.4l0.8,0.4v-35.7
	l-1.6-0.4c-10.4-3.3-21.4-4.8-32.3-4.2c-10,0.3-19.8,2.5-28.8,6.6c-9.2,4.2-17.2,10.4-23.6,18.3c-19.9,25.2-20.5,60.6-1.3,86.4
	c9.4,12.1,22.7,20.6,37.6,24.1c15.7,3.8,32.1,3.2,47.5-1.7L182.2,427.6"/>
<polyline class="st0" points="262,429.9 262,296.8 228.4,296.8 228.4,429.9 262,429.9 "/>
<polyline class="st0" points="758.8,414.5 758.8,412.4 744.6,412.4 744.6,414.5 750.5,414.5 750.5,429.9 752.9,429.9 752.9,414.5 
	758.8,414.5 "/>
<polyline class="st0" points="760.2,429.9 762.4,429.9 762.4,416 762.7,416 767.8,429.9 770.1,429.9 775.6,415.3 775.6,429.9 
	778,429.9 778,412.4 774.3,412.4 769.1,426.8 763.9,412.4 760.2,412.4 760.2,429.9 "/>
<path class="st1" d="M11.7,189.8c0.3,4.2,2.2,8.1,5.3,11c3.1,2.9,7.1,4.4,11.3,4.4c4.2,0,8.2-1.6,11.3-4.4c3.1-2.9,5-6.8,5.3-11
	v-36.9c-0.2-4.3-2-8.3-5.1-11.3c-3.1-3-7.2-4.6-11.5-4.6c-4.3,0-8.4,1.7-11.5,4.6c-3.1,3-4.9,7-5.1,11.3V189.8"/>
<path class="st1" d="M103.6,189.8c0.3,4.2,2.2,8.1,5.3,11c3.1,2.9,7.1,4.4,11.3,4.4c4.2,0,8.2-1.6,11.3-4.4c3.1-2.9,5-6.8,5.3-11
	v-82.7c-0.2-4.3-2-8.3-5.1-11.3c-3.1-3-7.2-4.6-11.5-4.6c-4.3,0-8.4,1.7-11.5,4.6c-3.1,3-4.9,7-5.1,11.3V189.8"/>
<path class="st1" d="M195,223.1c0.3,4.2,2.2,8.1,5.3,11c3.1,2.9,7.1,4.4,11.3,4.4c4.2,0,8.2-1.6,11.3-4.4c3.1-2.9,5-6.8,5.3-11V44.2
	c-0.2-4.3-2-8.3-5.1-11.3c-3.1-3-7.2-4.6-11.5-4.6c-4.3,0-8.4,1.7-11.5,4.6c-3.1,3-4.9,7-5.1,11.3V223.1"/>
<path class="st1" d="M286.8,189.8c0.3,4.2,2.2,8.1,5.3,11c3.1,2.9,7.1,4.4,11.3,4.4c4.2,0,8.2-1.6,11.3-4.4c3.1-2.9,5-6.8,5.3-11
	v-82.7c-0.2-4.3-2-8.3-5.1-11.3c-3.1-3-7.2-4.6-11.5-4.6c-4.3,0-8.4,1.7-11.5,4.6c-3.1,3-4.9,7-5.1,11.3V189.8"/>
<path class="st1" d="M378.3,189.8c0.3,4.2,2.2,8.1,5.3,11c3.1,2.9,7.1,4.4,11.3,4.4c4.2,0,8.2-1.6,11.3-4.4c3.1-2.9,5-6.8,5.3-11
	v-36.9c-0.2-4.3-2-8.3-5.1-11.3c-3.1-3-7.2-4.6-11.5-4.6c-4.3,0-8.4,1.7-11.5,4.6c-3.1,3-4.9,7-5.1,11.3V189.8"/>
<path class="st1" d="M470.1,189.8c0.3,4.2,2.2,8.1,5.3,11c3.1,2.9,7.1,4.4,11.3,4.4c4.2,0,8.2-1.6,11.3-4.4c3.1-2.9,5-6.8,5.3-11
	v-82.7c-0.2-4.3-2-8.3-5.1-11.3c-3.1-3-7.2-4.6-11.5-4.6c-4.3,0-8.4,1.7-11.5,4.6c-3.1,3-4.9,7-5.1,11.3V189.8"/>
<path class="st1" d="M561.6,223.1c0.3,4.2,2.2,8.1,5.3,11c3.1,2.9,7.1,4.4,11.3,4.4c4.2,0,8.2-1.6,11.3-4.4c3.1-2.9,5-6.8,5.3-11
	V44.2c-0.2-4.3-2-8.3-5.1-11.3c-3.1-3-7.2-4.6-11.5-4.6c-4.3,0-8.4,1.7-11.5,4.6c-3.1,3-4.9,7-5.1,11.3V223.1"/>
<path class="st1" d="M653.3,189.8c0.3,4.2,2.2,8.1,5.3,11c3.1,2.9,7.1,4.4,11.3,4.4c4.2,0,8.2-1.6,11.3-4.4c3.1-2.9,5-6.8,5.3-11
	v-82.7c-0.2-4.3-2-8.3-5.1-11.3c-3.1-3-7.2-4.6-11.5-4.6c-4.3,0-8.4,1.7-11.5,4.6c-3.1,3-4.9,7-5.1,11.3V189.8"/>
<path class="st1" d="M744.8,189.8c0.3,4.2,2.2,8.1,5.3,11c3.1,2.9,7.1,4.4,11.3,4.4c4.2,0,8.2-1.6,11.3-4.4c3.1-2.9,5-6.8,5.3-11
	v-36.9c-0.2-4.3-2-8.3-5.1-11.3c-3.1-3-7.2-4.6-11.5-4.6c-4.3,0-8.4,1.7-11.5,4.6c-3.1,3-4.9,7-5.1,11.3V189.8"/>
<path class="st0" d="M532.9,427.6v-35.5l-0.7,0.3c-8,3.9-16.7,6.1-25.6,6.5c-9.2,0.7-18.4-2-25.7-7.6c-5.3-4.1-9.2-9.6-11.2-15.9
	c-2.3-6.9-2.5-14.3-0.8-21.3c1.6-7.2,5.7-13.6,11.4-18.2c5.1-4.3,11.3-7,17.9-7.7c11.7-1.3,23.5,0.9,33.9,6.4l0.8,0.4v-35.7
	l-1.6-0.4c-10.4-3.3-21.4-4.8-32.3-4.2c-10,0.3-19.8,2.5-28.8,6.6c-9.2,4.2-17.2,10.4-23.6,18.3c-19.9,25.2-20.5,60.6-1.3,86.4
	c9.4,12.1,22.7,20.6,37.6,24.1c15.7,3.8,32.1,3.2,47.5-1.7L532.9,427.6"/>
<path class="st0" d="M568.2,363.4c0.3,21,10.1,40.8,26.6,53.9c16.5,13,38,18,58.6,13.4c27.9-5.3,49.6-27.2,54.6-55.2
	c5-28-7.9-56.1-32.2-70.6c-21.5-13.3-48.5-14.1-70.8-2C582.8,315,568.8,338.1,568.2,363.4 M617,336.1c7.3-5.8,16.5-8.5,25.7-7.4
	c9.2,1,17.7,5.7,23.5,12.9c5.8,7.3,8.5,16.5,7.4,25.7c-1,9.2-5.7,17.7-12.9,23.5c-7.3,5.8-16.5,8.5-25.7,7.4
	c-9.2-1-17.7-5.7-23.5-12.9c-5.8-7.3-8.5-16.5-7.4-25.7C605.1,350.3,609.7,341.9,617,336.1"/>
</svg>
