<?xml version="1.0" encoding="utf-8"?>
<!-- Generator: Adobe Illustrator 25.3.1, SVG Export Plug-In . SVG Version: 6.00 Build 0)  -->
<svg version="1.1" id="layer" xmlns="http://www.w3.org/2000/svg" xmlns:xlink="http://www.w3.org/1999/xlink" x="0px" y="0px"
	 viewBox="0 0 652 144.4" style="enable-background:new 0 0 652 144.4;" xml:space="preserve">
<style type="text/css">
	.st0{fill:#0033A1;}
</style>
<path class="st0" d="M367.7,87.2l36-35.2h-35.5V35.5h60.6v16.8l-36,35.1h36.7V104h-61.9L367.7,87.2L367.7,87.2z M342.1,12.9h18.7v17
	h-18.7V12.9z M341.8,35.6h18.7v68.5h-18.7V35.6z M150.6,34.3C131,34.2,115.1,50,115,69.6c0,0.1,0,0.2-0.1,0.3
	c0.1,19.5,16,35.3,35.5,35.3c19.6,0,35.4-15.8,35.5-35.3C186,50.3,170.2,34.4,150.6,34.3z M150.6,87.4c-9.7,0-17.1-8.1-17.1-17.8
	s7.4-17.8,17.1-17.8c9.5,0,17.2,8.1,17.2,17.8S160.1,87.4,150.6,87.4z M270.6,35.4h18.6v7.7c4.4-5.6,11.1-9,18.9-9
	c16.2,0,25.9,10.4,25.9,28.1V104h-19V64.7c0-9.2-4.3-14.5-12.6-14.5c-7.1,0-13,4.9-13,16.4V104h-18.7L270.6,35.4L270.6,35.4z
	 M430.6,69.6c0-24.2,17.8-35.6,33.3-35.6c8.9,0,15.9,3.3,20.4,8.1v-6.7H503v68.5h-18.7v-7.7c-4.5,5.3-11.8,9-20.7,9
	C449.1,105.2,430.6,93.7,430.6,69.6z M484.8,69.5c0-10.1-7.4-18.3-17.5-18.3c-10.4,0-18.3,7.8-18.3,18.3S456.9,88,467.3,88
	C477.5,88,484.9,79.6,484.8,69.5L484.8,69.5z M510.6,35.4h18.6v7.7c4.4-5.6,11.1-9,18.9-9c16.2,0,25.9,10.4,25.9,28.1V104h-19V64.7
	c0-9.2-4.2-14.5-12.6-14.5c-7.1,0-13,4.9-13,16.4V104h-18.7L510.6,35.4z M367.7,103.8V87.1l36-35.2h-35.5V35.4h60.6v16.8l-36,35.1
	 M95,69l-0.2,0.6c-5.2,10.9-14.7,17.2-26.1,17.2c-16.6,0-29.5-13.1-29.5-29.8c0-17.2,12.9-30,29.9-30c11.1,0,19.4,5.2,25,15.4
	l0.3,0.6l16.7-10.7l-0.3-0.5C102.1,17,86.6,8.2,69.1,8.2c-27.8,0-48.9,21-48.9,48.9c0,28.3,20.5,48.8,48.8,48.8
	c18.2,0,34.3-10.1,43.1-27.1l0.3-0.5L95,69z M190.7,69.6c0-24.2,17.8-35.6,33.3-35.6c8.9,0,15.9,3.7,20.4,8.8v-7.4h18.7v66.5
	c0,19.3-12.2,34.9-35.3,34.9c-17.4,0-30.1-9-35.6-19.7l16.5-9.3c3.6,7.1,9.8,11.6,19,11.6c10.1,0,16.5-7.9,16.5-16.8v-6.4
	c-4.5,5.3-11.8,9-20.7,9C209.1,105.2,190.7,93.7,190.7,69.6z M244.9,69.5c0-10.1-7.4-18.3-17.5-18.3c-10.4,0-18.3,7.8-18.3,18.3
	S217,88,227.4,88C237.5,88,244.9,79.6,244.9,69.5L244.9,69.5z M620.2,52.3V35.5h-12.9V12.9h-18.7v22.6h-11.7v16.8h11.6v21.8
	c0,22.3,7.1,29.7,28.9,29.7h2.7V86.3c-11.5,0-12.9-1.6-12.9-12.3V52.3H620.2z"/>
</svg>
