<?xml version="1.0" encoding="utf-8"?>
<!-- Generator: Adobe Illustrator 25.4.1, SVG Export Plug-In . SVG Version: 6.00 Build 0)  -->
<svg version="1.1" id="svg" xmlns="http://www.w3.org/2000/svg" xmlns:xlink="http://www.w3.org/1999/xlink" x="0px" y="0px"
	 viewBox="0 0 400 116.9" style="enable-background:new 0 0 400 116.9;" xml:space="preserve">
<style type="text/css">
	.st0{fill-rule:evenodd;clip-rule:evenodd;fill:#1A3358;}
</style>
<g id="svgg">
	<path id="path0" class="st0" d="M42.6,9.7c-1,0.2-0.8,0.5,2.2,3.5c6.3,6.3,8.9,13.5,8.4,23.1c-0.3,6.6,0.1,7,1.9,1.6
		C61.2,19,56,7.1,42.6,9.7 M64.6,15.7c1.9,8.7-0.8,18.9-6.9,25.7c-3,3.4-2.1,3.9,1.7,0.9c13.1-10,16.4-21.4,7.9-26.8
		C64.4,13.6,64.1,13.6,64.6,15.7 M25.6,16.7c-1.4,0.7-3.6,2.3-4.9,3.5l-2.3,2.3l4.6,0.3c10.3,0.7,19.1,6.4,24,15.5
		c2.8,5.2,3.4,4.1,1.3-2.3C43.4,20.6,34,12.7,25.6,16.7 M76.8,32.7c-3.1,6.6-10.3,12.4-17.3,14c-4,0.9-2.9,1.7,2.1,1.6
		c13.9-0.4,21.7-7.9,17.6-16.9l-0.9-2L76.8,32.7 M14.1,33.1c-3.7,1.7-6.6,6.7-7.7,13.2l-0.3,2l3.1-2.1c10.5-7.2,22.7-8.4,33.6-3.4
		c3.1,1.4,4,0.9,1.9-1C36.4,34.5,20.6,30,14.1,33.1 M35.5,47.1c-12.1,1.3-25.3,8.2-27.3,14.3c-1,3.2-0.4,9.8,1.3,13.2
		c1.8,3.7,1.8,3.8,3.5-1.1c4.2-11.8,15.3-21.8,27.5-24.7C47.4,47.3,44.3,46.2,35.5,47.1 M75.9,51.7c-5.8,3-11.9,2.9-19.6-0.2
		c-2.2-0.9-0.7,1.4,2.2,3.3c11,7.3,19.1,5.9,21.4-3.7C80.3,49.4,80.3,49.4,75.9,51.7 M41.3,53.7c-11,8.8-19.1,21.1-20,30.2
		c-0.5,5.4,3.7,11.3,10.1,14.2c3.6,1.6,3.8,1.6,2.9-0.7c-5.4-12.8-1.5-30.8,9.2-43.2C47,50.3,45.9,50,41.3,53.7 M46.6,58.1
		c-6,18.8-3.4,39.5,5.5,43.9c3.1,1.5,12.6,1.8,15.6,0.4l1.8-0.8l-2.3-1.5C54,91.5,46.5,74.7,48.6,58.5
		C49.4,52.3,48.6,52.1,46.6,58.1 M52.1,56.5c3.5,12.2,11.5,16.9,17.4,10.3c0.9-1,0.9-1-1.6-1.3c-5.4-0.7-11.8-5.1-14.2-9.7
		C52.2,52.7,51.1,53.1,52.1,56.5 M194.4,56.6c-18.2,6.6-22.8,28.6-8.6,41.4c9.1,8.3,23.5,8.7,33,1c2.6-2.1,2.7-1.8-1.1-5.8l-3-3.2
		l-1.6,1.3c-10.5,8.8-25.4,1.2-24.6-12.5c0.8-12.6,15.6-18.9,24.5-10.5l1.6,1.5l3.2-3.4c3.9-4.1,3.8-3.7,0.3-6.4
		C211.7,55.4,201.8,53.9,194.4,56.6 M288.6,56.3c-24,7.9-23.1,41,1.4,47.4c19.4,5,37.3-13,31.3-31.4
		C317.1,59.6,301.7,52.1,288.6,56.3 M94.2,79.9v23.5h15.3h15.3v-4.7v-4.7h-9.8H105V75.3V56.4h-5.4h-5.4V79.9 M141.4,71.8
		c-3.5,8.5-7.8,19.1-9.6,23.5l-3.4,8.1h5.8h5.8l1.5-3.8l1.5-3.8l9.5-0.1c10.8-0.2,10.2-0.4,11.9,4.2l1.3,3.4h5.8h5.8l-0.8-1.9
		c-0.4-1.1-4.8-11.7-9.6-23.5l-8.8-21.6H153h-5.2L141.4,71.8 M227.2,79.9v23.6h5.4h5.4v-7.8V88h3.6h3.6l4,7.5
		c4.6,8.7,3.7,8.1,11,7.9l5.8-0.1l-4.9-8.3c-4.4-7.4-4.8-8.3-4-8.8c10.7-6.2,10.3-22.6-0.8-28.1l-2.9-1.4l-13.1-0.2l-13.1-0.2V79.9
		 M330.1,79.9v23.5h5.4h5.4V79.9V56.4h-5.4h-5.4V79.9 M352.5,62c2.1,3.1,5.6,8.1,7.7,11.2l3.9,5.6l-8.5,12.1
		c-4.7,6.7-8.5,12.2-8.5,12.4c0,0.1,2.9,0.3,6.3,0.3l6.3,0l5.4-8.3c3-4.5,5.6-8.3,5.7-8.3s2.7,3.7,5.7,8.3l5.4,8.3l6.3,0
		c3.5,0,6.3-0.1,6.3-0.3c0-0.1-3.8-5.7-8.5-12.4l-8.5-12.1l3.2-4.6c1.8-2.5,5.2-7.5,7.7-11.2l4.5-6.6h-6.4h-6.4l-4.5,6.9
		c-2.5,3.8-4.7,6.9-4.9,6.9s-2.4-3.1-4.9-6.9l-4.5-6.9h-6.4h-6.4L352.5,62 M303.8,66.4c13.5,7.9,8.4,28.6-7,28.6
		c-16.6,0-20.7-23.7-5-29.5C294.8,64.2,301,64.7,303.8,66.4 M251,66.9c3.4,2.3,3.9,6.6,1,9.8l-1.5,1.7l-6.3,0.2l-6.3,0.2v-6.5v-6.5
		h5.6C248.6,65.7,249.5,65.8,251,66.9 M156,78.8c1.6,3.9,2.9,7.4,2.9,7.6c0,0.3-2.7,0.5-6,0.5c-4.5,0-5.9-0.2-5.8-0.6
		c0.2-0.9,5.8-14.8,5.9-14.7C153,71.6,154.4,74.9,156,78.8"/>
</g>
</svg>
