<?xml version="1.0" encoding="utf-8"?>
<!-- Generator: Adobe Illustrator 25.4.1, SVG Export Plug-In . SVG Version: 6.00 Build 0)  -->
<svg version="1.1" id="Layer_1" xmlns="http://www.w3.org/2000/svg" xmlns:xlink="http://www.w3.org/1999/xlink" x="0px" y="0px"
	 viewBox="0 0 1920 574.9" style="enable-background:new 0 0 1920 574.9;" xml:space="preserve">
<style type="text/css">
	.st0{fill:#04738D;}
</style>
<g>
	<path class="st0" d="M166.4,280.1h-51.3v-27.7c46.7,0,86.2,0,133.1,0v27.7h-51.3v134.1h-30.5V280.1z"/>
	<path class="st0" d="M199.4,416.6h-35.5V282.6h-51.3v-32.7h138.1v32.7h-51.3V416.6z M168.9,411.6h25.5V277.6h51.3v-22.7H117.6v22.7
		h51.3V411.6z"/>
</g>
<g>
	<path class="st0" d="M369.2,383.6h-84.6l-13.9,30.5h-33.1l72.6-161.8h33.3l72.6,161.8h-33.3L369.2,383.6z M327,286.3l-30,68.9H357
		L327,286.3z"/>
	<path class="st0" d="M420,416.6h-38.8l-13.6-30.5h-81.4l-13.9,30.5h-38.5l74.8-166.8h36.5L420,416.6z M384.5,411.6h27.8L342,254.9
		h-30l-70.3,156.8h27.6l13.9-30.5h87.8L384.5,411.6z M360.8,357.7h-67.7l33.9-77.6L360.8,357.7z M300.7,352.7h52.5L327,292.6
		L300.7,352.7z"/>
</g>
<g>
	<path d="M613.2,393.8c-16.6,16.4-38.1,24-61.5,24c-60.1,0-85.5-41.4-85.7-83.4c-0.2-42.3,27.3-85.3,85.7-85.3
		c22,0,42.8,8.3,59.4,24.7l-20.3,19.6c-10.6-10.4-25-15.3-39.1-15.3c-39.1,0-55.9,29.1-55.7,56.2c0.2,26.8,15.7,54.8,55.7,54.8
		c14.1,0,30-5.8,40.7-16.4L613.2,393.8z"/>
	<path d="M551.7,420.3c-64.8,0-88-46.3-88.2-85.9c-0.1-24.5,8.9-47.7,24.7-63.6c15.8-15.9,37.8-24.2,63.6-24.2
		c23.1,0,44.3,8.8,61.2,25.4l1.8,1.8L590.7,297l-1.7-1.7c-9.6-9.4-22.8-14.5-37.3-14.5c-15.7,0-28.9,5-38.3,14.5
		c-9.6,9.7-15,24-14.9,39.2c0.2,25.3,14.3,52.3,53.2,52.3c14.3,0,29.2-6,38.9-15.7l1.8-1.8l24.3,24.6l-1.8,1.8
		C598.5,411.8,576.6,420.3,551.7,420.3z M551.7,251.6c-24.5,0-45.2,7.9-60,22.8c-14.9,15-23.3,36.8-23.2,60
		c0.1,21.8,7.1,41.6,19.8,55.8c14.6,16.4,36.6,25.1,63.5,25.1c22.7,0,42.7-7.5,57.9-21.6l-17.3-17.5c-10.6,9.6-25.9,15.4-40.6,15.4
		c-19,0-34.4-6.3-44.7-18.2c-8.6-10-13.4-23.9-13.5-39.1c-0.1-16.5,5.8-32.1,16.4-42.8c10.3-10.4,24.8-15.9,41.8-15.9
		c14.9,0,28.7,5.1,39,14.3l16.8-16.2C591.9,259.3,572.6,251.6,551.7,251.6z"/>
</g>
<g>
	<path d="M714.4,300.2h27v113.9h-26.6l-1.4-16.6c-6.5,13.4-24.3,19.9-37,20.1c-33.7,0.2-58.7-20.6-58.7-60.6
		c0-39.3,26.1-59.9,59.4-59.6c15.3,0,29.8,7.2,36.3,18.5L714.4,300.2z M646,357.1c0,21.7,15,34.7,33.7,34.7c44.4,0,44.4-69.1,0-69.1
		C661,322.6,646,335.3,646,357.1z"/>
	<path d="M675.9,420.1c-17.8,0-32.9-5.6-43.6-16.3c-11.2-11.1-17.1-27.3-17.1-46.8c0-18.7,5.9-34.4,16.9-45.4
		c11-10.9,27-16.8,45-16.7c13.6,0,26.3,5.3,34.2,13.9l0.7-11.2h31.9v118.9h-31.4l-1-11.8c-8.4,9.8-23,15-35,15.2
		C676.3,420.1,676.1,420.1,675.9,420.1z M676.6,299.9c-16.7,0-30.8,5.3-40.9,15.3c-10.1,10-15.5,24.5-15.5,41.9
		c0,18.1,5.4,33.1,15.6,43.2c9.8,9.7,23.6,14.8,40.1,14.8c0.2,0,0.4,0,0.5,0c17-0.3,30.4-9.6,34.7-18.7l4-8.2l2,23.5h21.8V302.7
		h-22.2l-1.3,21.8l-4.2-7.3c-5.9-10.3-19.6-17.2-34.1-17.2C677,299.9,676.8,299.9,676.6,299.9z M679.7,394.2
		c-21.3,0-36.2-15.3-36.2-37.2c0-21.7,14.9-36.9,36.2-36.9c23.5,0,35.8,18.6,35.8,37.1c0,9.6-3.2,18.7-8.9,25.4
		C700,390.2,690.8,394.2,679.7,394.2z M679.7,325.1c-18.7,0-31.2,12.8-31.2,31.9c0,19.2,12.6,32.2,31.2,32.2
		c9.5,0,17.5-3.4,23.1-9.9c5-5.8,7.7-13.7,7.7-22.1C710.5,341.7,700.9,325.1,679.7,325.1z"/>
</g>
<g>
	<path d="M766.9,461.8V300.2h26.3l1.8,15.7c8.8-12.7,24-18.3,37-18.3c35.1,0,58.5,26.1,58.5,59.6c0,33.3-21,59.6-57.6,59.6
		c-12,0-29.8-3.7-37.9-16.2v61H766.9z M862.4,357.3c0-17.8-12-32.4-32.4-32.4c-20.3,0-32.4,14.6-32.4,32.4
		c0,17.8,13.2,32.4,32.4,32.4C849.2,389.6,862.4,375.1,862.4,357.3z"/>
	<path d="M797.6,464.3h-33.2V297.7h31.1l1.4,12c10-10.6,24.3-14.6,35.2-14.6c35.3,0,61,26.1,61,62.1c0,17.3-5.6,32.9-15.7,44
		c-10.9,11.9-26.2,18.1-44.3,18.1c-11.7,0-26.2-3.2-35.4-11.9V464.3z M769.4,459.3h23.2v-67l4.6,7.1c4.7,7.3,16.6,15,35.8,15
		c32.9,0,55.1-23,55.1-57.1c0-15.8-5.5-30.3-15.4-40.7c-10.3-10.8-24.3-16.5-40.6-16.5c-11.1,0-26.2,4.5-34.9,17.2l-3.8,5.5
		l-2.4-20.1h-21.6V459.3z M830,392.1c-19.9,0-34.9-15-34.9-34.9c0-20.5,14.3-34.9,34.9-34.9c20.5,0,34.9,14.3,34.9,34.9
		C864.9,377.2,849.9,392.1,830,392.1z M830,327.4c-17.6,0-29.9,12.3-29.9,29.9c0,17,12.8,29.9,29.9,29.9c17,0,29.9-12.8,29.9-29.9
		C859.9,339.7,847.6,327.4,830,327.4z"/>
</g>
<g>
	<path d="M941.8,268.1c0,22-33.3,22-33.3,0C908.5,246.1,941.8,246.1,941.8,268.1z M911.1,299.7v114.4h28.2V299.7H911.1z"/>
	<path d="M941.8,416.6h-33.2V297.2h33.2V416.6z M913.6,411.6h23.2V302.2h-23.2V411.6z M925.2,287c-5,0-9.6-1.7-13.1-4.7
		c-4-3.5-6-8.4-6-14.2c0-12.5,9.6-19,19.1-19c9.5,0,19.1,6.5,19.1,19C944.3,280.5,934.7,287,925.2,287z M925.2,254.1
		c-6.8,0-14.1,4.4-14.1,14s7.3,14,14.1,14c6.8,0,14.1-4.4,14.1-14S932,254.1,925.2,254.1z"/>
</g>
<g>
	<path d="M1007.1,268.1v32.4h31.4v24.3h-31.7v49.2c0,10.9,6,16.2,14.8,16.2c4.4,0,9.5-1.4,13.6-3.5l7.9,24
		c-8.1,3.2-14.8,4.6-23.3,4.9c-24.7,0.9-40.9-13.2-40.9-41.6v-49.2h-21.3v-24.3h21.3v-29.4L1007.1,268.1z"/>
	<path d="M1017.6,418.1c-12,0-22-3.6-29.1-10.4c-8-7.7-12.1-19.1-12.1-33.7v-46.7h-21.3v-29.3h21.3v-29.1l33.2-3.5v32.6h31.4v29.3
		h-31.7v46.7c0,8.8,4.4,13.7,12.3,13.7c3.8,0,8.5-1.2,12.5-3.2l2.6-1.3l9.5,29l-2.2,0.9c-8.3,3.3-15.3,4.8-24.2,5
		C1019.1,418.1,1018.4,418.1,1017.6,418.1z M960.2,322.2h21.3v51.7c0,13.3,3.6,23.4,10.6,30.1c6.5,6.3,16.1,9.4,27.8,9
		c7.5-0.2,13.5-1.3,20.3-3.8l-6.3-19.1c-4,1.6-8.4,2.5-12.1,2.5c-10.8,0-17.3-7-17.3-18.7v-51.7h31.7v-19.3h-31.4v-32.1l-23.2,2.5
		v29.6h-21.3V322.2z"/>
</g>
<g>
	<path d="M1147.7,300.2h27v113.9h-26.6l-1.4-16.6c-6.5,13.4-24.3,19.9-37,20.1c-33.7,0.2-58.7-20.6-58.7-60.6
		c0-39.3,26.1-59.9,59.4-59.6c15.3,0,29.8,7.2,36.3,18.5L1147.7,300.2z M1079.2,357.1c0,21.7,15,34.7,33.7,34.7
		c44.4,0,44.4-69.1,0-69.1C1094.3,322.6,1079.2,335.3,1079.2,357.1z"/>
	<path d="M1109.2,420.1c-17.8,0-32.9-5.6-43.6-16.3c-11.2-11.1-17.1-27.3-17.1-46.8c0-18.7,5.9-34.4,16.9-45.4
		c10.9-10.8,26.6-16.7,44.4-16.7c0.2,0,0.4,0,0.6,0c13.6,0,26.3,5.3,34.2,13.9l0.7-11.2h31.9v118.9h-31.4l-1-11.8
		c-8.4,9.8-23,15-35,15.2C1109.6,420.1,1109.4,420.1,1109.2,420.1z M1109.9,299.9c-16.7,0-30.8,5.3-40.9,15.3
		c-10.1,10-15.5,24.5-15.5,41.9c0,18.1,5.4,33.1,15.6,43.2c9.8,9.7,23.6,14.8,40,14.8c0.2,0,0.4,0,0.5,0c17-0.3,30.4-9.6,34.7-18.7
		l4-8.2l2,23.5h21.8V302.7H1150l-1.3,21.8l-4.2-7.3c-5.9-10.3-19.6-17.2-34.1-17.2C1110.3,299.9,1110.1,299.9,1109.9,299.9z
		 M1113,394.2c-21.3,0-36.2-15.3-36.2-37.2c0-21.7,14.9-36.9,36.2-36.9c23.5,0,35.8,18.6,35.8,37.1c0,9.6-3.2,18.7-8.9,25.4
		C1133.3,390.2,1124,394.2,1113,394.2z M1113,325.1c-18.7,0-31.2,12.8-31.2,31.9c0,19.2,12.6,32.2,31.2,32.2
		c9.5,0,17.5-3.4,23.1-9.9c5-5.8,7.7-13.7,7.7-22.1C1143.8,341.7,1134.1,325.1,1113,325.1z"/>
</g>
<g>
	<path d="M1236.2,252.6v161.6h-28V252.6H1236.2z"/>
	<path d="M1238.7,416.6h-33V250.1h33V416.6z M1210.7,411.6h23V255.1h-23V411.6z"/>
</g>
<rect x="1541.9" y="45.8" class="st0" width="279.1" height="279.1"/>
<rect x="1347.8" y="255.1" class="st0" width="156.6" height="156.6"/>
<rect x="1545" y="408.4" class="st0" width="90.5" height="97.9"/>
</svg>
