<svg xmlns="http://www.w3.org/2000/svg" xmlns:xlink="http://www.w3.org/1999/xlink" width="150" height="46" fill="none" xmlns:v="https://vecta.io/nano"><path d="M32.388 16.194v2.001h5.252v10.942h2.376V18.195h5.252v-2.001h-12.88zM59.4 22.259c.438-.563.625-1.251.625-2.001v-.625c0-.5-.063-.938-.313-1.313-.187-.438-.438-.813-.75-1.125s-.688-.563-1.125-.75-.938-.25-1.376-.25H48.52v2.001h7.941a1.37 1.37 0 0 1 1.063.438c.313.25.438.625.438 1v.625c0 .375-.125.75-.438 1s-.625.438-1.063.438h-8.066v7.441h2.126V23.76h5.065l1.751 5.44h2.189l-1.813-5.627c.75-.313 1.251-.75 1.688-1.313zm14.693-6.065v9.004a1.94 1.94 0 0 1-.563 1.376c-.375.375-.813.563-1.376.563h-5.127c-.5 0-.938-.188-1.313-.563s-.563-.813-.563-1.376v-9.004H63.15v9.004c0 .563.125 1.063.313 1.563s.5.875.813 1.251c.375.375.75.625 1.251.875.438.188 1 .313 1.501.313h5.127a4.02 4.02 0 0 0 1.501-.313c.5-.188.875-.5 1.251-.875s.625-.813.813-1.251c.188-.5.313-1 .313-1.563v-9.004h-1.938zm7.441 3.439v2.001h1.376.125 3.189v2.063h-4.689v2.001c0 .375.125.75.438 1a1.37 1.37 0 0 0 1.063.438h7.003v2.001h-7.003c-.5 0-1-.062-1.438-.25a3.55 3.55 0 0 1-1.125-.75 4.11 4.11 0 0 1-.75-1.063c-.188-.438-.25-.875-.25-1.376v-6.065c0-.5.063-.938.25-1.313.188-.438.438-.75.75-1.125a3.54 3.54 0 0 1 1.125-.75c.437-.187.938-.25 1.438-.25h7.003v2.063h-7.003a1.37 1.37 0 0 0-1.063.438c-.25.25-.438.563-.438.938z" fill="#5f6062"/><path d="M104.481 28.012v1.251h-7.253c-.563 0-1.063-.125-1.563-.313s-.938-.438-1.251-.813a3.26 3.26 0 0 1-.875-1.188c-.188-.5-.313-.938-.313-1.438v-5.502c0-.5.125-1 .313-1.438s.5-.875.875-1.188.75-.625 1.251-.813 1-.313 1.563-.313h7.253v1.251h-7.253c-.375 0-.688.063-1.063.188-.313.125-.625.313-.813.563-.25.25-.438.5-.563.813s-.188.625-.188 1v5.502a2.59 2.59 0 0 0 .188 1c.125.312.313.563.563.813s.563.438.875.563a2.92 2.92 0 0 0 1.063.188h7.19v-.125zm21.009 1.25h-1.313v-7.128h8.253c.313 0 .563-.063.813-.125.25-.125.5-.25.688-.438a2.24 2.24 0 0 0 .437-.625c.125-.25.188-.5.188-.75v-.625c0-.25-.062-.5-.188-.75s-.25-.438-.437-.625-.438-.313-.688-.438a1.73 1.73 0 0 0-.813-.187h-8.066V16.32h8.066c.438 0 .876.063 1.313.25s.813.375 1.063.688c.313.313.563.625.75 1s.251.813.251 1.251v.625c0 .438-.063.875-.251 1.25s-.437.75-.75 1c-.312.313-.688.563-1.063.688-.437.188-.875.25-1.313.25h-.125l3.564 5.752h-1.501l-3.626-5.752h-5.315v5.94h.063zM150 29.2h-7.816c-.437 0-.875-.062-1.313-.25s-.813-.438-1.063-.688c-.312-.313-.562-.625-.75-1s-.25-.813-.25-1.25v-6.565c0-.438.062-.875.25-1.251s.438-.75.75-1c.313-.313.626-.5 1.063-.688a3.27 3.27 0 0 1 1.313-.25H150v1.251h-7.816c-.312 0-.562.063-.813.125-.25.125-.5.25-.687.438s-.313.375-.438.625-.188.5-.188.75v2.626h5.815v1.25h-5.815v2.626c0 .25.063.5.188.75s.25.438.438.625.437.313.687.438a1.93 1.93 0 0 0 .813.188H150v1.25z" fill="#009ddc"/><use xlink:href="#B" fill="#d8d9da"/><use xlink:href="#C" fill="#5f6062"/><g fill="#d8d9da"><use xlink:href="#C" x="16.194"/><use xlink:href="#B" y="-16.194"/></g><g fill="#5f6062"><path d="M12.943 10.192c0 1.563-1.251 2.751-2.751 2.751H2.751C1.188 12.943 0 11.692 0 10.192V2.751A2.78 2.78 0 0 1 2.751 0h7.378c1.563 0 2.751 1.251 2.751 2.751v7.441h.063z"/><use xlink:href="#D"/><use xlink:href="#D" x="16.194"/></g><path d="M29.2 19.633c-3.314 1.751-7.003 3.251-11.067 4.815 4.252-1 7.878-2.063 11.067-3.126v5.127c0 1.563-1.25 2.751-2.751 2.751h-7.441c-1.563 0-2.751-1.25-2.751-2.751v-7.441c0-1.563 1.251-2.751 2.751-2.751h7.378c1.563 0 2.751 1.251 2.751 2.751v.625h.063zm91.788-1a3.27 3.27 0 0 0-.875-1.188c-.375-.313-.751-.625-1.251-.813s-1-.313-1.563-.313h-.688-.25-1.063-3.876c-.563 0-1.063.125-1.564.313s-.937.5-1.25.813c-.375.375-.688.75-.875 1.188s-.313.938-.313 1.438v5.502c0 .5.125 1 .313 1.438a3.26 3.26 0 0 0 .875 1.188c.375.313.813.625 1.25.813.501.188 1.001.313 1.564.313h5.127.125.625c.563 0 1.063-.125 1.563-.313s.938-.438 1.251-.813c.375-.313.625-.75.875-1.188.188-.5.313-.938.313-1.438v-5.502c0-.5-.125-1-.313-1.438zm-1 6.878a2.59 2.59 0 0 1-.188 1c-.125.312-.313.563-.563.813s-.5.438-.812.563a2.92 2.92 0 0 1-1.063.188h-.626-.125-5.127c-.375 0-.688-.062-1.063-.187-.312-.125-.625-.313-.813-.563-.25-.25-.437-.5-.562-.813s-.188-.625-.188-1V20.01a2.59 2.59 0 0 1 .188-1c.125-.312.312-.563.562-.813s.501-.438.813-.563a2.92 2.92 0 0 1 1.063-.188h5.002.25.626c.375 0 .687.063 1.063.188.312.125.625.313.812.563a2.38 2.38 0 0 1 .563.813c.125.313.188.625.188 1v5.502z" fill="#009ddc"/><defs ><path id="B" d="M13.005 42.58c0 1.563-1.251 2.751-2.751 2.751H2.814c-1.563 0-2.751-1.25-2.751-2.751v-7.378c0-1.563 1.251-2.751 2.751-2.751h7.378c1.563 0 2.751 1.251 2.751 2.751v7.378h.063z"/><path id="C" d="M29.2 42.58c0 1.563-1.25 2.751-2.751 2.751h-7.441c-1.563 0-2.751-1.25-2.751-2.751v-7.378c0-1.563 1.251-2.751 2.751-2.751h7.378c1.563 0 2.751 1.251 2.751 2.751v7.378h.063z"/><path id="D" d="M29.2 10.192c0 1.563-1.25 2.751-2.751 2.751h-7.441c-1.563 0-2.751-1.251-2.751-2.751V2.814c0-1.563 1.251-2.751 2.751-2.751h7.378c1.563 0 2.751 1.251 2.751 2.751v7.378h.063z"/></defs></svg>