<svg xmlns="http://www.w3.org/2000/svg" viewBox="0 0 415 415" xmlns:v="https://vecta.io/nano"><path d="M325.662 3.768A7.5 7.5 0 0 0 319.157 0H164.555a7.5 7.5 0 0 0-7.107 5.102L91.19 201.421c-.772 2.289-.394 4.81 1.014 6.772a7.5 7.5 0 0 0 6.093 3.126h62.812L88.817 404.876a7.5 7.5 0 0 0 3.254 9.106c1.18.686 2.48 1.018 3.769 1.018 2.16 0 4.287-.932 5.756-2.687l201.228-240.49a7.5 7.5 0 0 0-5.752-12.313h-58.094l86.654-148.224a7.5 7.5 0 0 0 .03-7.518zM219.429 163.223a7.5 7.5 0 0 0 6.475 11.286h55.111L118.189 369.107l60.754-162.664a7.5 7.5 0 0 0-7.026-10.124h-63.173L169.939 15h136.145l-86.655 148.223z" stroke="#22417d" stroke-width="6" fill="#22417d"/></svg>