<svg width="63" height="60" viewBox="0 0 63 60" fill="none" xmlns="http://www.w3.org/2000/svg">
<path d="M5.57133 22.1772C5.3536 22.8304 5.16698 23.5147 5.01146 24.199H3.8606C2.46091 24.199 1.31006 25.3499 1.31006 26.7495V33.2192C1.31006 34.6189 2.46091 35.7698 3.8606 35.7698H4.98035C5.63354 38.7869 6.8155 41.6485 8.43292 44.199L7.68642 44.9455C6.69109 45.9408 6.69109 47.5583 7.68642 48.5225L12.2587 53.0948C13.2541 54.0901 14.8715 54.0901 15.8357 53.0948L16.5511 52.3794C19.1017 54.0279 21.9632 55.2099 25.0115 55.8942V56.8895C25.0115 58.2892 26.1623 59.4401 27.562 59.4401H34.0317C35.4314 59.4401 36.5822 58.2892 36.5822 56.8895V55.8942C39.6304 55.2099 42.492 53.9968 45.0426 52.3794L45.758 53.0948C46.7533 54.0901 48.3707 54.0901 49.3349 53.0948L53.9073 48.5225C54.9026 47.5272 54.9026 45.9097 53.9073 44.9455L53.1608 44.199C54.7782 41.6485 55.929 38.818 56.6133 35.7698H57.7331C59.1328 35.7698 60.2836 34.6189 60.2836 33.2192V26.7495C60.2836 25.3499 59.1328 24.199 57.7331 24.199H56.5511C55.8668 21.213 54.6849 18.4136 53.0674 15.8942L53.9384 15.0233C54.9337 14.0279 54.9337 12.4105 53.9384 11.4463L49.2727 6.90507C48.2774 5.90974 46.66 5.90974 45.6958 6.90507L44.7937 7.80709C42.2743 6.22078 39.506 5.06992 36.52 4.38563V3.11036C36.52 1.71067 35.3692 0.559814 33.9695 0.559814H27.5309C26.1312 0.559814 24.9804 1.71067 24.9804 3.11036V4.38563C23.394 4.82109 19.2261 6.22078 16.7066 7.80709L15.8046 6.90507C14.8093 5.90974 13.1919 5.90974 12.2276 6.90507L7.65532 11.4774C6.65998 12.4727 6.65998 14.0901 7.65532 15.0544L8.52623 15.9253C7.93525 16.8584 7.40648 17.8226 6.93992 18.818L5.57133 22.1772ZM30.7346 43.2037C23.4562 43.2037 17.5465 37.2939 17.5465 30.0155C17.5465 22.706 23.4562 16.7962 30.7346 16.7962C38.013 16.7962 43.9228 22.706 43.9228 29.9844C43.9539 37.2939 38.0441 43.2037 30.7346 43.2037Z" fill="#EBECE9"/>
<path d="M33.969 59.8445H27.5305C25.9131 59.8445 24.5756 58.507 24.5756 56.8896V56.2053C21.7451 55.5521 19.0701 54.4324 16.5818 52.8771L16.0841 53.3748C14.9333 54.5257 13.067 54.5257 11.9162 53.3748L7.34384 48.8025C6.19299 47.6516 6.19299 45.7854 7.34384 44.6345L7.87261 44.1058C6.34851 41.6485 5.25986 38.9736 4.63778 36.1742H3.86017C2.24275 36.1742 0.905273 34.8367 0.905273 33.2193V26.7496C0.905273 25.1322 2.24275 23.7947 3.86017 23.7947H4.69999C4.8244 23.2348 5.01103 22.6439 5.19765 22.0529C5.25986 21.8351 5.5087 21.7107 5.72642 21.7729C5.94415 21.8351 6.06857 22.084 6.00636 22.3017C5.78863 22.986 5.60201 23.6703 5.44649 24.2924C5.41538 24.479 5.22876 24.6034 5.04213 24.6034H3.86017C2.67821 24.6034 1.74509 25.5676 1.74509 26.7185V33.1882C1.74509 34.3701 2.70932 35.3033 3.86017 35.3033H4.97992C5.16655 35.3033 5.35317 35.4277 5.38428 35.6143C6.03747 38.5692 7.15722 41.3375 8.77464 43.888C8.86795 44.0435 8.86795 44.2613 8.71243 44.3857L7.96593 45.1322C7.12611 45.972 7.12611 47.3095 7.96593 48.1493L12.5382 52.7216C13.3781 53.5614 14.7155 53.5614 15.5554 52.7216L16.2707 52.0062C16.3952 51.8818 16.6129 51.8507 16.7684 51.944C19.319 53.5925 22.1183 54.7434 25.0732 55.3966C25.2599 55.4277 25.3843 55.6143 25.3843 55.8009V56.7963C25.3843 57.9782 26.3485 58.9114 27.4994 58.9114H33.969C35.151 58.9114 36.0841 57.9471 36.0841 56.7963V55.8009C36.0841 55.6143 36.2085 55.4277 36.3952 55.3966C39.3501 54.7434 42.1494 53.5614 44.7 51.944C44.8555 51.8507 45.0732 51.8507 45.1977 52.0062L45.9131 52.7216C46.7529 53.5614 48.0903 53.5614 48.9302 52.7216L53.5025 48.1493C54.3423 47.3095 54.3423 45.972 53.5025 45.1322L52.756 44.3857C52.6316 44.2613 52.6005 44.0435 52.6938 43.888C54.3112 41.3375 55.4309 38.5381 56.0841 35.6143C56.1152 35.4277 56.3019 35.3033 56.4885 35.3033H57.6082C58.7902 35.3033 59.7233 34.339 59.7233 33.1882V26.7496C59.7233 25.5676 58.7591 24.6345 57.6082 24.6345H56.4263C56.2396 24.6345 56.053 24.5101 56.0219 24.3235C55.3687 21.4308 54.1868 18.6625 52.6005 16.1431C52.5071 15.9876 52.5071 15.7698 52.6627 15.6454L53.5336 14.7745C54.3734 13.9347 54.3734 12.5972 53.5336 11.7574L48.9613 7.18507C48.1215 6.34525 46.784 6.34525 45.9442 7.18507L45.0421 8.08709C44.9177 8.21151 44.7 8.24261 44.5445 8.1493C42.025 6.56298 39.2879 5.44323 36.3952 4.79004C36.2085 4.75894 36.0841 4.57231 36.0841 4.38569V3.11042C36.0841 1.92846 35.1199 0.995331 33.969 0.995331H27.5305C26.3485 0.995331 25.4154 1.95956 25.4154 3.11042V4.38569C25.4154 4.57231 25.291 4.72784 25.1043 4.79004C23.4869 5.2255 19.3812 6.62519 16.955 8.1493C16.7995 8.24261 16.5818 8.24261 16.4574 8.08709L15.5554 7.18507C14.7155 6.34525 13.3781 6.34525 12.5382 7.18507L7.93482 11.7574C7.09501 12.5972 7.09501 13.9347 7.93482 14.7745L8.80574 15.6454C8.93016 15.7698 8.96126 15.9876 8.86795 16.1431C8.27697 17.0451 7.7482 18.0093 7.28163 18.9736C7.18832 19.1913 6.93949 19.2535 6.72176 19.1602C6.50403 19.0669 6.44182 18.818 6.53513 18.6003C6.97059 17.6983 7.46826 16.7963 7.96593 15.9565L7.34384 15.3344C6.19299 14.1835 6.19299 12.3173 7.34384 11.1664L11.9162 6.59409C13.067 5.44323 14.9333 5.44323 16.0841 6.59409L16.7373 7.24728C19.1323 5.81648 22.8026 4.54121 24.5445 4.04354V3.11042C24.5445 1.493 25.8819 0.155518 27.4994 0.155518H33.969C35.5865 0.155518 36.9239 1.493 36.9239 3.11042V4.04354C39.6922 4.69673 42.305 5.78538 44.7311 7.24728L45.3843 6.59409C46.5351 5.44323 48.4014 5.44323 49.5522 6.59409L54.1246 11.1664C55.2754 12.3173 55.2754 14.1835 54.1246 15.3344L53.5025 15.9565C55.0266 18.3826 56.1152 21.0264 56.7995 23.7947H57.6393C59.2568 23.7947 60.5942 25.1322 60.5942 26.7496V33.2193C60.5942 34.8367 59.2568 36.1742 57.6393 36.1742H56.8617C56.2085 38.9736 55.1199 41.6485 53.6269 44.1058L54.1557 44.6345C55.3065 45.7854 55.3065 47.6516 54.1557 48.8025L49.5833 53.3748C48.4325 54.5257 46.5662 54.5257 45.4154 53.3748L44.9177 52.8771C42.4605 54.4012 39.7544 55.521 36.9239 56.2053V56.8896C36.9239 58.507 35.6176 59.8445 33.969 59.8445ZM30.7342 43.6081C23.2381 43.6081 17.1417 37.5117 17.1417 30.0156C17.1417 22.5194 23.2381 16.423 30.7342 16.423C38.2303 16.423 44.3267 22.5194 44.3267 30.0156C44.3578 37.5117 38.2614 43.6081 30.7342 43.6081ZM30.7342 17.2006C23.6735 17.2006 17.9504 22.9238 17.9504 29.9844C17.9504 37.0451 23.6735 42.7683 30.7342 42.7683C37.7949 42.7683 43.518 37.0451 43.518 29.9844C43.518 22.9238 37.7949 17.2006 30.7342 17.2006Z" fill="#244583"/>
<path d="M33.9693 60H27.4996C25.7889 60 24.3892 58.6003 24.3892 56.8896V56.3297C21.6209 55.6765 19.0082 54.5879 16.582 53.0949L16.1777 53.4992C15.5867 54.0902 14.8091 54.4012 13.9693 54.4012C13.1295 54.4012 12.3519 54.0902 11.7609 53.4992L7.18857 48.9269C5.97551 47.7138 5.97551 45.7543 7.18857 44.5412L7.62403 44.1058C6.16213 41.6796 5.10459 39.098 4.4514 36.3297H3.86042C2.14969 36.3297 0.75 34.93 0.75 33.2193V26.7496C0.75 25.0389 2.14969 23.6392 3.86042 23.6392H4.57582C4.70023 23.1104 4.85575 22.5505 5.04238 21.9907C5.13569 21.6796 5.44673 21.5241 5.75778 21.6174C5.9133 21.6485 6.00661 21.7729 6.09992 21.8974C6.19324 22.0218 6.19323 22.1773 6.13103 22.3328C5.9133 23.0171 5.72667 23.6703 5.60226 24.3235C5.54005 24.5723 5.32232 24.7589 5.04238 24.7589H3.86042C2.77177 24.7589 1.90086 25.6299 1.90086 26.7185V33.1882C1.90086 34.2768 2.77177 35.1477 3.86042 35.1477H4.98017C5.26011 35.1477 5.47784 35.3344 5.54005 35.5832C6.16213 38.507 7.31299 41.2753 8.8993 43.8258C9.05482 44.0435 9.02372 44.3546 8.80599 44.5412L8.05949 45.2877C7.68624 45.661 7.46851 46.1586 7.46851 46.6874C7.46851 47.2162 7.68624 47.7138 8.05949 48.0871L12.6318 52.6594C13.4094 53.437 14.6536 53.437 15.4312 52.6594L16.1466 51.944C16.3332 51.7574 16.6131 51.7263 16.862 51.8818C19.4125 53.4992 22.1808 54.6812 25.1357 55.3344C25.3845 55.3966 25.5712 55.6143 25.5712 55.8942V56.8896C25.5712 57.9782 26.4421 58.8491 27.5307 58.8491H34.0004C35.089 58.8491 35.96 57.9782 35.96 56.8896V55.8942C35.96 55.6143 36.1466 55.3966 36.3954 55.3344C39.3503 54.6812 42.1186 53.5303 44.6691 51.8818C44.8869 51.7263 45.1979 51.7574 45.3845 51.944L46.0999 52.6594C46.8775 53.437 48.1217 53.437 48.8993 52.6594L53.4716 48.0871C53.8449 47.7138 54.0626 47.2162 54.0626 46.6874C54.0626 46.1586 53.8449 45.661 53.4716 45.2877L52.7251 44.5412C52.5385 44.3546 52.5074 44.0746 52.6318 43.8258C54.2181 41.2753 55.369 38.507 55.9911 35.5832C56.0533 35.3344 56.271 35.1477 56.5509 35.1477H57.6707C58.7593 35.1477 59.6303 34.2768 59.6303 33.1882V26.7496C59.6303 25.661 58.7593 24.79 57.6707 24.79H56.4887C56.2088 24.79 55.9911 24.6034 55.9289 24.3546C55.2757 21.4619 54.1248 18.7247 52.5074 16.2364C52.3519 16.0187 52.383 15.7076 52.5696 15.521L53.4405 14.6501C54.2181 13.8725 54.2181 12.6283 53.4405 11.8507L48.8682 7.27838C48.4949 6.90513 47.9973 6.6874 47.4685 6.6874C46.9397 6.6874 46.4421 6.90513 46.0688 7.27838L45.1668 8.1804C44.9802 8.36703 44.7002 8.39813 44.4514 8.27372C41.9631 6.6874 39.2259 5.56765 36.3643 4.94557C36.1155 4.88336 35.9289 4.66563 35.9289 4.38569V3.11042C35.9289 2.02177 35.0579 1.15086 33.9693 1.15086H27.4996C26.411 1.15086 25.54 2.02177 25.54 3.11042V4.38569C25.54 4.63453 25.3534 4.85226 25.1357 4.94557C23.5183 5.38103 19.4436 6.74961 17.0175 8.30482C16.7998 8.46034 16.4887 8.42924 16.3021 8.21151L15.4001 7.30949C14.6225 6.53188 13.3783 6.53188 12.6007 7.30949L8.05949 11.8818C7.28188 12.6594 7.28188 13.9036 8.05949 14.6812L8.9304 15.5521C9.11703 15.7387 9.14813 16.0498 8.99261 16.2675C8.43274 17.1695 7.90397 18.1026 7.4374 19.098C7.31299 19.3779 6.97084 19.5023 6.6909 19.3779C6.41096 19.2535 6.28655 18.9114 6.41096 18.6314C6.81532 17.7605 7.28188 16.8896 7.81065 16.0809L7.28188 15.5521C6.06882 14.339 6.06882 12.3795 7.28188 11.1664L11.8542 6.59409C13.0673 5.38103 15.0268 5.38103 16.2399 6.59409L16.8309 7.18507C19.257 5.75428 22.8029 4.54121 24.4514 4.07465V3.11042C24.4514 1.39969 25.8511 0 27.5618 0H34.0315C35.7422 0 37.1419 1.39969 37.1419 3.11042V3.95023C39.848 4.60342 42.3985 5.66096 44.7624 7.09176L45.3223 6.50078C46.5354 5.28771 48.4949 5.28771 49.708 6.50078L54.2492 11.0731C54.8402 11.6641 55.1512 12.4417 55.1512 13.2815C55.1512 14.1213 54.8402 14.8989 54.2492 15.4899L53.7205 16.0187C55.1824 18.3826 56.271 20.9642 56.9242 23.6703H57.6396C59.3503 23.6703 60.75 25.07 60.75 26.7807V33.2504C60.75 34.9611 59.3503 36.3608 57.6396 36.3608H56.9864C56.3332 39.098 55.2757 41.7107 53.8138 44.1369L54.2492 44.5723C54.8402 45.1633 55.1512 45.9409 55.1512 46.7807C55.1512 47.6205 54.8402 48.3981 54.2492 48.9891L49.6769 53.4992C48.4638 54.7123 46.5043 54.7123 45.2912 53.4992L44.8869 53.0949C42.4607 54.5879 39.848 55.6765 37.0797 56.3297V56.8896C37.0797 58.6003 35.68 60 33.9693 60ZM16.5509 52.6905L16.6442 52.7527C19.1015 54.2768 21.7764 55.3966 24.5758 56.0498L24.7002 56.0809V56.8896C24.7002 58.4448 25.9444 59.689 27.4996 59.689H33.9693C35.5245 59.689 36.7687 58.4448 36.7687 56.8896V56.0809L36.8931 56.0498C39.6925 55.3966 42.3674 54.2768 44.8247 52.7527L44.918 52.6905L45.5089 53.2815C46.5976 54.3701 48.3705 54.3701 49.4592 53.2815L54.0315 48.7092C54.5603 48.1804 54.8402 47.4961 54.8402 46.7496C54.8402 46.0031 54.5603 45.2877 54.0315 44.7901L53.4094 44.168L53.4716 44.0747C54.9646 41.6174 56.0533 38.9736 56.7065 36.1742L56.7376 36.0498H57.6396C59.1948 36.0498 60.439 34.8056 60.439 33.2504V26.7496C60.439 25.1944 59.1948 23.9502 57.6396 23.9502H56.6754L56.6442 23.8258C55.9911 21.0575 54.8713 18.4448 53.3783 16.0187L53.3161 15.9254L54.0315 15.21C54.5603 14.6812 54.8402 13.9969 54.8402 13.2504C54.8402 12.5039 54.5603 11.7885 54.0315 11.2908L49.4592 6.71851C48.3705 5.62986 46.5976 5.62986 45.5089 6.71851L44.7624 7.46501L44.6691 7.4028C42.2741 5.9409 39.6614 4.85226 36.9242 4.19907L36.7998 4.16796V3.11042C36.7998 1.55521 35.5556 0.311042 34.0004 0.311042H27.5307C25.9755 0.311042 24.7313 1.55521 24.7313 3.11042V4.19907L24.6069 4.23017C22.9895 4.69673 19.2881 5.97201 16.8309 7.4028L16.7376 7.46501L15.9911 6.71851C15.4623 6.18974 14.7469 5.9098 14.0004 5.9098C13.2539 5.9098 12.5385 6.18974 12.0408 6.71851L7.46851 11.2908C6.93974 11.8196 6.6598 12.5039 6.6598 13.2504C6.6598 13.9969 6.93974 14.7123 7.46851 15.21L8.1839 15.9254L8.1217 16.0187C7.59292 16.8585 7.12636 17.7294 6.6909 18.6314C6.62869 18.7558 6.6909 18.9114 6.81532 18.9736C6.93974 19.0358 7.09526 18.9736 7.15747 18.8491C7.62403 17.8538 8.1528 16.9207 8.74378 15.9876C8.80599 15.8942 8.80599 15.7387 8.71268 15.6765L7.84176 14.8056C6.93974 13.9036 6.93974 12.4728 7.84176 11.5708L12.4141 6.99845C13.3161 6.09642 14.7469 6.09642 15.6489 6.99845L16.5509 7.90047C16.6442 7.99378 16.7687 7.99378 16.862 7.93157C19.3192 6.37636 23.4561 4.97667 25.0735 4.54121C25.1979 4.51011 25.2601 4.4168 25.2601 4.29238V3.11042C25.2601 1.86625 26.2865 0.839813 27.5307 0.839813H34.0004C35.2446 0.839813 36.271 1.86625 36.271 3.11042V4.38569C36.271 4.51011 36.3643 4.60342 36.4576 4.63453C39.3814 5.28771 42.1186 6.40747 44.638 8.02488C44.7313 8.08709 44.8558 8.08709 44.9491 7.99378L45.8511 7.09176C46.2865 6.6563 46.8464 6.43857 47.4685 6.43857C48.0906 6.43857 48.6505 6.6874 49.0859 7.09176L53.6582 11.6641C54.5603 12.5661 54.5603 13.9969 53.6582 14.8989L52.7873 15.7698C52.694 15.8631 52.694 15.9876 52.7562 16.0809C54.3736 18.6003 55.5556 21.3686 56.2088 24.3235C56.2399 24.4479 56.3332 24.5101 56.4576 24.5101H57.6396C58.8838 24.5101 59.9102 25.5365 59.9102 26.7807V33.2504C59.9102 34.4946 58.8838 35.521 57.6396 35.521H56.5198C56.3954 35.521 56.3021 35.6143 56.271 35.7076C55.6178 38.6625 54.467 41.4619 52.8495 44.0436C52.7873 44.1369 52.7873 44.2613 52.8806 44.3546L53.6271 45.1011C54.5292 46.0031 54.5292 47.4339 53.6271 48.3359L49.0548 52.9082C48.1528 53.8103 46.722 53.8103 45.82 52.9082L45.1046 52.1929C45.0113 52.0995 44.8869 52.0995 44.7936 52.1617C42.2119 53.8103 39.4125 54.9922 36.4265 55.6454C36.3021 55.6765 36.2399 55.7698 36.2399 55.8942V56.8896C36.2399 58.1338 35.2135 59.1602 33.9693 59.1602H27.4996C26.2554 59.1602 25.229 58.1338 25.229 56.8896V55.8942C25.229 55.7698 25.1357 55.6765 25.0424 55.6454C22.0564 54.9922 19.257 53.8103 16.6754 52.1617C16.582 52.0995 16.4576 52.0995 16.3643 52.1929L15.6489 52.9082C14.7469 53.8103 13.3161 53.8103 12.4141 52.9082L7.84176 48.3359C6.93974 47.4339 6.93974 46.0031 7.84176 45.1011L8.58826 44.3546C8.68157 44.2613 8.68157 44.1369 8.61936 44.0436C7.00194 41.4619 5.85109 38.6625 5.1979 35.7076C5.1668 35.5832 5.07348 35.521 4.94907 35.521H3.86042C2.61625 35.521 1.58981 34.4946 1.58981 33.2504V26.7496C1.58981 25.5054 2.61625 24.479 3.86042 24.479H5.04238C5.1668 24.479 5.26011 24.3857 5.29121 24.2924C5.44673 23.6392 5.63336 22.9549 5.85109 22.2706C5.88219 22.2084 5.85109 22.1462 5.81998 22.084C5.78888 22.0218 5.72667 21.9907 5.66446 21.9596C5.54005 21.9285 5.38453 21.9907 5.35342 22.1151C5.1668 22.7061 5.01128 23.297 4.85575 23.8569L4.82465 23.9813H3.86042C2.30521 23.9813 1.06104 25.2255 1.06104 26.7807V33.2504C1.06104 34.8056 2.30521 36.0498 3.86042 36.0498H4.76244L4.79355 36.1742C5.44673 38.9736 6.53538 41.6174 8.02838 44.0747L8.09059 44.168L7.46851 44.7901C6.93974 45.3188 6.6598 46.0031 6.6598 46.7496C6.6598 47.4961 6.93974 48.2115 7.46851 48.7092L12.0408 53.2815C12.5696 53.8103 13.2539 54.0902 14.0004 54.0902C14.7469 54.0902 15.4623 53.8103 15.96 53.2815L16.5509 52.6905ZM30.7344 43.7636C23.145 43.7636 16.9864 37.605 16.9864 30.0156C16.9864 22.4261 23.145 16.2364 30.7344 16.2364C38.3239 16.2364 44.4825 22.395 44.4825 29.9844C44.4825 37.5739 38.3239 43.7636 30.7344 43.7636ZM30.7344 16.5474C23.3316 16.5474 17.2974 22.5816 17.2974 29.9844C17.2974 37.3872 23.3316 43.4215 30.7344 43.4215C38.1372 43.4215 44.1715 37.3872 44.1715 29.9844C44.1715 22.5816 38.1684 16.5474 30.7344 16.5474ZM30.7344 42.9238C23.6116 42.9238 17.7951 37.1073 17.7951 29.9844C17.7951 22.8616 23.6116 17.0451 30.7344 17.0451C37.8573 17.0451 43.6738 22.8616 43.6738 29.9844C43.6738 37.1073 37.8884 42.9238 30.7344 42.9238ZM30.7344 17.3561C23.7671 17.3561 18.1061 23.0171 18.1061 29.9844C18.1061 36.9518 23.7982 42.6128 30.7344 42.6128C37.6707 42.6128 43.3628 36.9518 43.3628 29.9844C43.3628 23.0171 37.7018 17.3561 30.7344 17.3561Z" fill="#244583"/>
<path d="M52.6319 16.143C52.5386 15.9875 52.5386 15.7698 52.6941 15.6454L53.5651 14.7745C54.4049 13.9346 54.4049 12.5972 53.5651 11.7574L48.9927 7.18504C48.1529 6.34522 46.8154 6.34522 45.9756 7.18504L45.0736 8.08706C44.9492 8.21147 44.7315 8.24258 44.5759 8.14927C42.212 6.65626 39.6304 5.56762 36.9243 4.91443V8.58472C36.9243 8.95797 37.1731 9.26902 37.4842 9.36233C44.0161 11.5085 49.1794 16.6407 51.3567 23.1726C51.4811 23.5147 51.7921 23.7325 52.1343 23.7325H55.8979C55.2447 21.0264 54.1249 18.4759 52.6319 16.143Z" fill="#C1C1C1"/>
<path d="M53.9381 51.6329L55.68 56.0186L51.5742 58.538L48.4638 54.9921C46.5042 55.552 44.4514 55.6142 42.4607 55.1477L39.5369 58.8491L35.3067 56.5474L36.8308 52.0683C35.3689 50.6687 34.2803 48.8957 33.6893 46.9362L28.9926 46.2519L28.8682 41.4618L33.4716 40.5598C33.9693 38.6002 34.9646 36.7962 36.3332 35.3032V35.2721L34.6535 30.8553L38.7593 28.3358L41.8697 31.9128C43.8293 31.353 45.8822 31.2907 47.8728 31.7573L50.7966 28.0559L55.0268 30.3576L53.5027 34.8366C54.9646 36.2363 56.0532 38.0093 56.6442 39.9688L61.3098 40.6531L61.4343 45.4432L56.8308 46.3452C56.3021 48.3358 55.3067 50.1399 53.9381 51.6329Z" fill="#24C4A1"/>
<path d="M52.5384 52.0062L54.2802 56.3919L50.1745 58.9113L47.0641 55.3654C45.1045 55.9253 43.0516 55.9875 41.0609 55.521L38.1371 59.2223L33.907 56.9206L35.4311 52.4416C33.9692 51.042 32.8805 49.269 32.2896 47.3094L27.5928 46.6252L27.4995 41.804L32.1029 40.902C32.6006 38.9424 33.5959 37.1384 34.9645 35.6454V35.6143L33.2227 31.2286L37.3284 28.7091L40.4389 32.2861C42.3984 31.7262 44.4513 31.664 46.442 32.1306L49.3658 28.4292L53.5959 30.7309L52.0718 35.2099C53.5337 36.6096 54.6224 38.3825 55.2134 40.3421L59.879 41.0264L60.0034 45.8164L55.4 46.7185C54.9023 48.7091 53.907 50.5132 52.5384 52.0062Z" fill="#9FEFDE"/>
<path d="M39.661 59.1601L34.902 56.5785L36.4573 52.0373C35.0887 50.6687 34.0622 48.989 33.4712 47.1228L28.7123 46.4385L28.5879 41.0264L33.2846 40.0932C33.8134 38.227 34.7465 36.4852 36.0529 35.0233L34.28 30.5754L38.8834 27.7449L42.056 31.353C43.9223 30.8553 45.9129 30.7931 47.8103 31.1974L50.7963 27.4338L55.5552 30.0155L54 34.5567C55.3686 35.9253 56.395 37.6049 56.986 39.4401L61.745 40.1555L61.8694 45.5676L57.1726 46.5007C56.6439 48.367 55.7108 50.1088 54.4355 51.5396L56.2084 55.9875L51.605 58.818L48.4324 55.2099C46.5661 55.7076 44.5754 55.7698 42.7092 55.3654L39.661 59.1601ZM35.8041 56.2363L39.4744 58.227L42.3671 54.5878L42.5848 54.65C44.5132 55.0855 46.5039 55.0544 48.4013 54.4945L48.619 54.4323L51.6983 57.916L55.2753 55.7387L53.5646 51.4152L53.7512 51.2597C55.0887 49.8289 56.0529 48.0559 56.5195 46.1586L56.5506 46.0653L56.6439 45.9097L56.8305 45.8786L61.154 45.0077L61.0607 40.8086L56.4573 40.1244L56.395 39.9066C55.8352 38.0093 54.7776 36.2985 53.3468 34.93L53.1913 34.7744L54.6843 30.3887L51.014 28.3981L48.1213 32.0373L47.9036 31.9751C45.9751 31.5396 43.9845 31.5707 42.0871 32.1306L41.8694 32.1928L38.7901 28.678L35.2131 30.8553L36.8305 35.1477L36.675 35.3965C35.3375 36.8273 34.3733 38.6002 33.8756 40.4976V40.5287L33.7823 40.7153L33.6268 40.7464L29.3033 41.6174L29.3966 45.8164L34 46.5007L34.0622 46.7184C34.6221 48.6158 35.6796 50.3265 37.0793 51.6951L37.2349 51.8506L35.8041 56.2363Z" fill="#244583"/>
<path d="M39.6923 59.3779L34.7157 56.6718L36.2709 52.0995C34.9334 50.762 33.9381 49.0824 33.3471 47.3095L28.557 46.6252L28.4326 40.9642L33.1605 40.0311C33.6892 38.1959 34.6224 36.4852 35.8665 35.0855L34.0936 30.6065L38.9458 27.6516L42.1496 31.2908C43.9847 30.8242 45.9132 30.762 47.7794 31.1353L50.7654 27.3406L55.7421 30.0466L54.1869 34.619C55.5244 35.9564 56.5197 37.6361 57.1107 39.409L61.9007 40.1244L62.0563 45.7854L57.3284 46.7185C56.7996 48.5536 55.8976 50.2333 54.6224 51.6641L56.3953 56.1431L51.543 59.098L48.3393 55.4588C46.5042 55.9253 44.5757 55.9875 42.7094 55.5832L39.6923 59.3779ZM35.0889 56.5163L39.599 58.9735L42.5539 55.241L42.6472 55.2721C44.5135 55.6765 46.4731 55.6143 48.3082 55.1477L48.4015 55.1166L51.543 58.6936L55.9287 56.0186L54.1869 51.6018L54.2491 51.5396C55.5244 50.1088 56.4575 48.3981 56.9552 46.563L56.9863 46.4697L61.6519 45.5365L61.5275 40.4043L56.7996 39.6889L56.7685 39.5956C56.1776 37.7916 55.1511 36.112 53.8136 34.7745L53.7514 34.7123L55.2755 30.2022L50.7965 27.6827L47.8416 31.4152L47.7483 31.3841C45.8821 30.9798 43.9225 31.042 42.0874 31.5396L41.9941 31.5707L38.8525 27.9938L34.4668 30.6687L36.2087 35.0855L36.1465 35.1477C34.8712 36.5785 33.9381 38.2893 33.4093 40.1555L33.3782 40.2488L28.7126 41.1819L28.837 46.3452L33.5648 47.0295L33.5959 47.1228C34.1869 48.9269 35.2133 50.6065 36.5508 51.9751L36.613 52.0373L35.0889 56.5163ZM39.5057 58.4448L35.5866 56.3297L37.1107 51.9129L37.0174 51.8196C35.5866 50.4199 34.529 48.678 33.9381 46.7807L33.907 46.6563L29.2724 45.972L29.148 41.5241L33.6892 40.6221L33.7514 40.4976C34.2491 38.5692 35.2133 36.7962 36.5508 35.3344L36.6441 35.1788L34.9645 30.8242L38.7592 28.4914L41.8385 32.0373L41.9629 32.0062C43.8914 31.4463 45.9132 31.3841 47.8727 31.8507L47.9972 31.8818L50.8898 28.2115L54.809 30.3266L53.2849 34.7434L53.3782 34.8367C54.809 36.2364 55.8665 37.9782 56.4575 39.8756L56.4886 40L61.1231 40.6843L61.2476 45.1322L56.7063 46.0342L56.6441 46.1897C56.1465 48.0871 55.1822 49.8911 53.8447 51.353L53.7203 51.4463L55.4311 55.8009L51.6364 58.1337L48.557 54.619L48.4326 54.6501C46.5042 55.2099 44.4824 55.241 42.5228 54.8056L42.3984 54.7745L39.5057 58.4448ZM35.9909 56.1742L39.4435 58.0404L42.3051 54.4323L42.6161 54.4945C44.5135 54.93 46.5042 54.8989 48.3704 54.339L48.6815 54.2457L51.7297 57.7294L55.0889 55.6765L53.3782 51.3841L53.627 51.1353C54.9334 49.7356 55.8665 47.9938 56.3642 46.0964L56.3953 46.0031L56.5197 45.7854L56.7685 45.7232L60.9676 44.8833L60.8743 40.9642L56.302 40.2799L56.2087 39.9689C55.6488 38.1026 54.5912 36.423 53.2227 35.0544L52.9738 34.8367L54.4668 30.4821L51.0143 28.6158L48.1527 32.2239L47.8416 32.1617C45.9443 31.7263 43.9536 31.7574 42.0874 32.3172L41.7763 32.4106L38.697 28.9269L35.3377 30.9798L37.0174 35.1788L36.7996 35.521C35.4933 36.9518 34.529 38.6936 34.0625 40.5599L34.0314 40.6532L33.907 40.902L33.6581 40.9642L29.4591 41.804L29.5524 45.7232L34.1247 46.3763L34.218 46.6874C34.7779 48.5536 35.8043 50.2333 37.204 51.6018L37.4528 51.8196L35.9909 56.1742Z" fill="#244583"/>
<path d="M45.167 49.1446C48.3278 49.1446 50.8902 46.5822 50.8902 43.4214C50.8902 40.2606 48.3278 37.6982 45.167 37.6982C42.0062 37.6982 39.4438 40.2606 39.4438 43.4214C39.4438 46.5822 42.0062 49.1446 45.167 49.1446Z" fill="#EBECE9"/>
<path d="M45.1359 49.5491C44.1405 49.5491 43.1452 49.3002 42.2432 48.8026C39.2883 47.1851 38.1996 43.4837 39.8171 40.5288C41.4345 37.5739 45.1359 36.4853 48.0908 38.1027C49.5216 38.8803 50.548 40.1867 51.0146 41.7419C51.4811 43.2971 51.2945 44.9456 50.5169 46.3764C49.3972 48.3671 47.3132 49.5491 45.1359 49.5491ZM45.167 38.0716C43.2696 38.0716 41.4034 39.098 40.4391 40.871C39.0083 43.4837 39.9726 46.7497 42.5853 48.1494C43.8606 48.8337 45.2914 48.9892 46.6911 48.5848C48.0597 48.1805 49.2105 47.2473 49.8948 46.0032C50.5791 44.759 50.7346 43.2971 50.3303 41.8974C49.9259 40.5288 48.9928 39.378 47.7486 38.6937C46.9088 38.2582 46.0379 38.0716 45.167 38.0716Z" fill="#244583"/>
<path d="M45.1358 49.7045C44.1093 49.7045 43.0829 49.4557 42.1498 48.958C39.1327 47.3095 38.0129 43.5148 39.6614 40.4666C41.31 37.4494 45.1047 36.3297 48.1529 37.9782C49.6148 38.7869 50.7034 40.0933 51.17 41.7107C51.6366 43.3281 51.4499 45.0078 50.6723 46.4697C49.5526 48.4292 47.4375 49.7045 45.1358 49.7045ZM45.1669 37.4805C43.0518 37.4805 40.9989 38.6003 39.9414 40.591C38.3862 43.4837 39.4437 47.0917 42.3053 48.647C43.1762 49.1135 44.1404 49.3624 45.1358 49.3624C47.3131 49.3624 49.3349 48.1804 50.3613 46.2519C51.1078 44.8522 51.2944 43.2659 50.8279 41.7418C50.3924 40.2177 49.366 38.9736 47.9663 38.1959C47.0954 37.7294 46.1311 37.4805 45.1669 37.4805ZM45.1358 48.958C44.2338 48.958 43.3317 48.7403 42.4919 48.2737C41.1855 47.5583 40.2524 46.4075 39.8481 44.9767C39.4437 43.5459 39.5992 42.0529 40.2835 40.7776C41.2478 39.0047 43.114 37.8849 45.1358 37.8849C46.0378 37.8849 46.9709 38.1026 47.7796 38.5692C49.086 39.2846 50.0191 40.4355 50.4546 41.8662C50.859 43.297 50.7034 44.79 50.0191 46.0653C49.3037 47.3717 48.1529 48.3048 46.7221 48.7403C46.1933 48.8958 45.6646 48.958 45.1358 48.958ZM45.1669 38.2271C43.2384 38.2271 41.4966 39.2846 40.5635 40.9642C39.9103 42.1773 39.7548 43.6081 40.128 44.9456C40.5324 46.283 41.4033 47.4028 42.6474 48.056C43.8605 48.7092 45.2913 48.8647 46.6288 48.4914C47.9663 48.0871 49.0549 47.2162 49.7392 45.972C50.4235 44.7278 50.5479 43.3281 50.1747 41.9907C49.7703 40.6532 48.8994 39.5645 47.6552 38.8802C46.8776 38.4448 46.0378 38.2271 45.1669 38.2271Z" fill="#244583"/>
<path d="M41.1851 53.0015C41.154 53.0015 41.1229 53.0015 41.0918 52.9704C40.7186 52.8149 40.3453 52.6283 40.0032 52.4105C39.8788 52.3483 39.8477 52.1617 39.941 52.0684C40.0032 51.944 40.1587 51.9129 40.2831 51.9751C40.6253 52.1617 40.9674 52.3483 41.3096 52.5038C41.434 52.5661 41.4962 52.7216 41.434 52.846C41.3718 52.9393 41.2784 53.0015 41.1851 53.0015Z" fill="white"/>
<path d="M39.2567 51.8818C39.1945 51.8818 39.1323 51.8507 39.1012 51.8196C37.7326 50.7931 36.6751 49.3935 36.0219 47.8071C35.9597 47.6827 36.0219 47.5272 36.1774 47.465C36.3018 47.4028 36.4573 47.465 36.5196 47.6205C37.1416 49.1446 38.137 50.451 39.4433 51.4463C39.5678 51.5396 39.5678 51.6952 39.5055 51.7885C39.4122 51.8507 39.35 51.8818 39.2567 51.8818Z" fill="white"/>
<path d="M20.6879 51.3842C20.6257 51.3842 20.5324 51.3531 20.4702 51.3531C19.6615 51.0109 18.8838 50.6065 18.1373 50.14C17.8885 49.9845 17.7952 49.6423 17.9818 49.3935C18.1373 49.1447 18.4484 49.0824 18.7283 49.2069C19.4437 49.6423 20.1902 50.0156 20.9367 50.3577C21.2167 50.4821 21.3411 50.7932 21.2167 51.0731C21.0922 51.2597 20.9056 51.3842 20.6879 51.3842Z" fill="white"/>
<path d="M16.582 48.9891C16.4576 48.9891 16.3332 48.958 16.2398 48.8647C13.2849 46.6252 10.9832 43.6392 9.61465 40.1866C9.49023 39.9067 9.64575 39.5956 9.92569 39.4712C10.2056 39.3468 10.5167 39.5023 10.6411 39.7823C11.9475 43.0482 14.1248 45.8787 16.9241 47.9938C17.173 48.1804 17.2041 48.5225 17.0175 48.7714C16.9241 48.8958 16.7686 48.9891 16.582 48.9891Z" fill="white"/>
</svg>
