<svg width="61" height="65" viewBox="0 0 61 65" fill="none" xmlns="http://www.w3.org/2000/svg">
<g filter="url(#filter0_d)">
<path d="M26.676 8.18861L26.676 8.18865L26.6842 8.18392C26.8915 8.06501 27.1262 8.00244 27.3651 8.00244C27.604 8.00244 27.8387 8.06501 28.0459 8.18392L28.0459 8.18396L28.0542 8.18861L46.0543 18.2922L46.0543 18.2923L46.0627 18.2969C46.2617 18.4061 46.4278 18.5666 46.5438 18.7617C46.6595 18.9563 46.7212 19.1783 46.7224 19.4047V39.6058C46.7203 39.8325 46.6582 40.0546 46.5423 40.2495C46.4259 40.4452 46.2596 40.6064 46.0602 40.7165L46.0543 40.7198L28.0591 50.8207C28.0584 50.8211 28.0578 50.8214 28.0571 50.8218C27.8452 50.9387 27.6071 51.0001 27.3651 51.0001C27.123 51.0001 26.885 50.9387 26.6731 50.8218C26.6724 50.8214 26.6717 50.8211 26.6711 50.8207L8.67586 40.7198L8.67589 40.7197L8.66752 40.7152C8.46851 40.6059 8.30239 40.4454 8.18639 40.2504C8.07067 40.0557 8.00903 39.8338 8.00781 39.6074V19.4047C8.00903 19.1783 8.07067 18.9563 8.18639 18.7617C8.3024 18.5666 8.46852 18.4061 8.66751 18.2969L8.66754 18.2969L8.67586 18.2922L26.676 8.18861Z" stroke="#9FEFDE" stroke-width="2"/>
<path fill-rule="evenodd" clip-rule="evenodd" d="M35.6987 17.0338C33.2319 15.3856 30.3318 14.5059 27.3651 14.5059C23.3868 14.5059 19.5714 16.0862 16.7584 18.8993C13.9453 21.7123 12.365 25.5277 12.365 29.506C12.365 32.4727 13.2447 35.3728 14.8929 37.8396C16.5412 40.3063 18.8839 42.2289 21.6248 43.3642C24.3657 44.4996 27.3817 44.7966 30.2914 44.2178C33.2012 43.639 35.8739 42.2104 37.9717 40.1126C38.9258 39.1585 39.7415 38.0855 40.4018 36.9253L33.8303 33.3074C33.5099 33.8523 33.1202 34.3575 32.6684 34.8093C31.6195 35.8582 30.2831 36.5725 28.8282 36.8619C27.3734 37.1513 25.8654 37.0028 24.4949 36.4351C23.1245 35.8674 21.9531 34.9061 21.129 33.6728C20.3049 32.4394 19.865 30.9893 19.865 29.506C19.865 27.5168 20.6552 25.6092 22.0617 24.2026C23.4683 22.7961 25.3759 22.0059 27.3651 22.0059C28.8484 22.0059 30.2985 22.4458 31.5319 23.2699C32.4405 23.877 33.2014 24.6725 33.7661 25.5973L40.2793 21.8755C39.1394 19.9462 37.5768 18.2887 35.6987 17.0338Z" fill="#9FEFDE"/>
<path fill-rule="evenodd" clip-rule="evenodd" d="M37.008 26.2915H34.8651V28.4346H32.7223V30.5774H34.8651V32.7201H37.008V30.5774H39.1509V28.4346H37.008V26.2915ZM44.5081 26.2915H42.3652V28.4346H40.2223V30.5774H42.3652V32.7201H44.5081V30.5774H46.6509V28.4346H44.5081V26.2915Z" fill="#9FEFDE"/>
</g>
<defs>
<filter id="filter0_d" x="0.0078125" y="0.00244141" width="60.7146" height="64.9976" filterUnits="userSpaceOnUse" color-interpolation-filters="sRGB">
<feFlood flood-opacity="0" result="BackgroundImageFix"/>
<feColorMatrix in="SourceAlpha" type="matrix" values="0 0 0 0 0 0 0 0 0 0 0 0 0 0 0 0 0 0 127 0" result="hardAlpha"/>
<feOffset dx="3" dy="3"/>
<feGaussianBlur stdDeviation="5"/>
<feColorMatrix type="matrix" values="0 0 0 0 0 0 0 0 0 0 0 0 0 0 0 0 0 0 0.15 0"/>
<feBlend mode="normal" in2="BackgroundImageFix" result="effect1_dropShadow"/>
<feBlend mode="normal" in="SourceGraphic" in2="effect1_dropShadow" result="shape"/>
</filter>
</defs>
</svg>
