<svg width="61" height="65" viewBox="0 0 61 65" fill="none" xmlns="http://www.w3.org/2000/svg">
<g filter="url(#filter0_d)">
<path d="M26.6761 8.18812L26.6761 8.18816L26.6844 8.18343C26.8916 8.06452 27.1263 8.00195 27.3652 8.00195C27.6041 8.00195 27.8388 8.06452 28.0461 8.18343L28.046 8.18347L28.0543 8.18812L46.0545 18.2918L46.0545 18.2919L46.0629 18.2965C46.2619 18.4057 46.428 18.5662 46.544 18.7613C46.6598 18.9559 46.7214 19.1779 46.7226 19.4043V39.6055C46.7206 39.8322 46.6584 40.0543 46.5426 40.2492C46.4262 40.4449 46.2598 40.6061 46.0605 40.7162L46.0545 40.7195L28.0592 50.8205C28.0585 50.8209 28.0578 50.8212 28.0571 50.8216C27.8452 50.9385 27.6072 50.9999 27.3652 50.9999C27.1232 50.9999 26.8852 50.9385 26.6733 50.8216C26.6726 50.8212 26.6719 50.8209 26.6712 50.8205L8.67587 40.7195L8.67589 40.7195L8.66752 40.7149C8.46852 40.6057 8.3024 40.4452 8.18639 40.2501C8.07067 40.0554 8.00903 39.8335 8.00781 39.6071V19.4043C8.00903 19.1779 8.07067 18.9559 8.18639 18.7613C8.3024 18.5662 8.46853 18.4057 8.66752 18.2965L8.66754 18.2965L8.67587 18.2918L26.6761 8.18812Z" stroke="#9FEFDE" stroke-width="2"/>
<path fill-rule="evenodd" clip-rule="evenodd" d="M35.6989 17.0338C33.2321 15.3856 30.332 14.5059 27.3652 14.5059C23.3869 14.5059 19.5716 16.0862 16.7585 18.8993C13.9454 21.7124 12.365 25.5277 12.365 29.506C12.365 32.4728 13.2448 35.3729 14.893 37.8397C16.5412 40.3065 18.884 42.2291 21.6249 43.3644C24.3658 44.4997 27.3818 44.7968 30.2916 44.218C33.2013 43.6392 35.8741 42.2106 37.9719 40.1128C38.9261 39.1587 39.7417 38.0856 40.402 36.9254L33.8305 33.3075C33.5101 33.8525 33.1204 34.3576 32.6686 34.8094C31.6197 35.8583 30.2833 36.5726 28.8284 36.862C27.3735 37.1514 25.8655 37.0029 24.495 36.4352C23.1246 35.8676 21.9532 34.9063 21.1291 33.6729C20.305 32.4395 19.8651 30.9894 19.8651 29.506C19.8651 27.5169 20.6553 25.6092 22.0618 24.2027C23.4684 22.7961 25.3761 22.006 27.3652 22.006C28.8486 22.006 30.2987 22.4458 31.532 23.2699C32.4406 23.877 33.2016 24.6726 33.7663 25.5973L40.2795 21.8755C39.1396 19.9462 37.577 18.2887 35.6989 17.0338Z" fill="#9FEFDE"/>
</g>
<defs>
<filter id="filter0_d" x="0.0078125" y="0.00195312" width="60.7148" height="64.9979" filterUnits="userSpaceOnUse" color-interpolation-filters="sRGB">
<feFlood flood-opacity="0" result="BackgroundImageFix"/>
<feColorMatrix in="SourceAlpha" type="matrix" values="0 0 0 0 0 0 0 0 0 0 0 0 0 0 0 0 0 0 127 0" result="hardAlpha"/>
<feOffset dx="3" dy="3"/>
<feGaussianBlur stdDeviation="5"/>
<feColorMatrix type="matrix" values="0 0 0 0 0 0 0 0 0 0 0 0 0 0 0 0 0 0 0.15 0"/>
<feBlend mode="normal" in2="BackgroundImageFix" result="effect1_dropShadow"/>
<feBlend mode="normal" in="SourceGraphic" in2="effect1_dropShadow" result="shape"/>
</filter>
</defs>
</svg>
