<svg xmlns="http://www.w3.org/2000/svg" width="90" height="90" fill="none" xmlns:v="https://vecta.io/nano"><g filter="url(#A)"><path d="M41.599 75.633c18.796 0 34.034-15.237 34.034-34.034S60.396 7.566 41.599 7.566 7.566 22.803 7.566 41.599s15.237 34.034 34.034 34.034z" fill="#ebece9"/><path d="M41.599 7.566c-10.465 0-20.364 4.855-26.822 13.104 13.482-13.057 35.024-12.727 48.081.801C74.69 33.68 75.68 52.724 65.215 66.111c13.529-13.01 13.953-34.552.896-48.081C59.7 11.29 50.838 7.566 41.599 7.566z" fill="#c1c1c1"/><path d="M41.599 76.199C22.508 76.199 7 60.69 7 41.599S22.508 7 41.599 7s34.599 15.508 34.599 34.599S60.69 76.199 41.599 76.199zm0-68.067c-18.478 0-33.468 14.99-33.468 33.468s14.99 33.468 33.468 33.468 33.468-14.99 33.468-33.468S60.077 8.131 41.599 8.131z" fill="#244583"/><path d="M29.956 69.269c-.094 0-.236 0-.33-.047-1.131-.519-2.263-1.084-3.347-1.744-.377-.236-.471-.707-.236-1.084.236-.33.707-.471 1.037-.283 1.037.613 2.074 1.178 3.158 1.65.377.188.566.66.424 1.037-.094.283-.377.471-.707.471z" fill="#fff"/><path d="M24.064 65.781c-.189 0-.33-.047-.471-.141a29.47 29.47 0 0 1-9.522-12.444.84.84 0 0 1 .424-1.037.84.84 0 0 1 1.037.424c1.886 4.667 4.997 8.721 9.051 11.785.33.283.424.754.141 1.084-.189.236-.424.33-.66.33z" fill="#fff"/><path d="M58.599 45.305v-6.627c0-1.093-.895-1.988-1.988-1.988H43.048V25.589c0-1.773-2.137-2.651-3.397-1.408L23.249 40.583a1.99 1.99 0 0 0 0 2.817l16.402 16.402c1.259 1.259 3.397.364 3.397-1.408v-11.1h13.563c1.093 0 1.988-.895 1.988-1.988z" fill="#9fefde"/><path d="M23.838 41.395c-.448.448-.374 1.195.153 1.546.395.263.92.214 1.259-.117L41.813 26.66c.435-.425.463-1.116.062-1.574-.436-.499-1.204-.524-1.672-.056L23.838 41.395z" fill="#24c4a1"/><path d="M43.048 37.29h-.6v-.6-11.101c0-1.231-1.487-1.855-2.374-.982L23.673 41.007a1.39 1.39 0 0 0 0 1.968l16.402 16.402a1.39 1.39 0 0 0 2.372-.984v-11.1-.6h.6 13.563c.762 0 1.388-.626 1.388-1.388v-6.627c0-.762-.626-1.388-1.388-1.388H43.048z" stroke="#244583" stroke-width="1.2"/></g><defs><filter id="A" x="0" y="0" width="89.199" height="89.199" filterUnits="userSpaceOnUse" color-interpolation-filters="sRGB"><feFlood flood-opacity="0" result="A"/><feColorMatrix in="SourceAlpha" values="0 0 0 0 0 0 0 0 0 0 0 0 0 0 0 0 0 0 127 0"/><feOffset dx="3" dy="3"/><feGaussianBlur stdDeviation="5"/><feColorMatrix values="0 0 0 0 0 0 0 0 0 0 0 0 0 0 0 0 0 0 0.15 0"/><feBlend in2="A"/><feBlend in="SourceGraphic"/></filter></defs></svg>