<svg width="70" height="70" viewBox="0 0 70 70" fill="none" xmlns="http://www.w3.org/2000/svg">
<path d="M34.5992 68.6328C53.3955 68.6328 68.6329 53.3954 68.6329 34.5991C68.6329 15.8028 53.3955 0.56543 34.5992 0.56543C15.8029 0.56543 0.565552 15.8028 0.565552 34.5991C0.565552 53.3954 15.8029 68.6328 34.5992 68.6328Z" fill="#EBECE9"/>
<path d="M34.5993 0.56543C24.1346 0.56543 14.2356 5.42065 7.77771 13.6698C21.2592 0.612568 42.8013 0.942534 55.8585 14.4712C67.6902 26.6799 68.6801 45.7237 58.2154 59.1109C71.744 46.1008 72.1683 24.5587 59.111 11.0301C52.7003 4.28934 43.8383 0.56543 34.5993 0.56543Z" fill="#C1C1C1"/>
<path d="M34.5993 69.1986C15.5084 69.1986 0 53.6902 0 34.5993C0 15.5084 15.5084 0 34.5993 0C53.6902 0 69.1986 15.5084 69.1986 34.5993C69.1986 53.6902 53.6902 69.1986 34.5993 69.1986ZM34.5993 1.13131C16.1212 1.13131 1.13131 16.1212 1.13131 34.5993C1.13131 53.0774 16.1212 68.0673 34.5993 68.0673C53.0774 68.0673 68.0673 53.0774 68.0673 34.5993C68.0673 16.1212 53.0774 1.13131 34.5993 1.13131Z" fill="#244583"/>
<path d="M22.9561 62.2696C22.8618 62.2696 22.7204 62.2696 22.6261 62.2224C21.4948 61.7039 20.3635 61.1382 19.2793 60.4783C18.9022 60.2426 18.808 59.7712 19.0437 59.3941C19.2793 59.0642 19.7507 58.9228 20.0807 59.1113C21.1177 59.7241 22.1548 60.2898 23.2389 60.7611C23.616 60.9497 23.8046 61.4211 23.6632 61.7982C23.5689 62.081 23.2861 62.2696 22.9561 62.2696Z" fill="white"/>
<path d="M17.0639 58.7812C16.8753 58.7812 16.7339 58.734 16.5925 58.6398C12.3501 55.4344 9.05043 51.0977 7.07063 46.1953C6.92922 45.7711 7.11777 45.3468 7.49488 45.1583C7.91912 45.0169 8.34336 45.2054 8.53191 45.5825C10.4174 50.2492 13.5285 54.3031 17.5824 57.367C17.9124 57.6499 18.0067 58.1212 17.7238 58.4512C17.5353 58.6869 17.2996 58.7812 17.0639 58.7812Z" fill="white"/>
<path d="M51.5992 38.3048V31.6776C51.5992 30.5842 50.7046 29.6895 49.6111 29.6895H36.0476V18.589C36.0476 16.8163 33.9103 15.9382 32.6511 17.1808L16.249 33.5829C15.4703 34.3616 15.4703 35.6208 16.249 36.3995L32.6511 52.8016C33.9103 54.0608 36.0476 53.1661 36.0476 51.3934V40.2929H49.6111C50.7046 40.2929 51.5992 39.3983 51.5992 38.3048Z" fill="#9FEFDE"/>
<path d="M16.8383 34.3945C16.39 34.8428 16.4639 35.5892 16.9914 35.9409V35.9409C17.3861 36.204 17.911 36.1553 18.2505 35.824L34.8125 19.6603C35.248 19.2353 35.2752 18.544 34.8745 18.086V18.086C34.4381 17.5873 33.6709 17.5618 33.2023 18.0304L16.8383 34.3945Z" fill="#24C4A1"/>
<path d="M36.0476 30.2895H35.4475V29.6895V18.589C35.4475 17.3582 33.9603 16.7338 33.0739 17.6065C33.0735 17.607 33.073 17.6074 33.0726 17.6078L16.6732 34.0072C16.1289 34.5516 16.1289 35.4308 16.6732 35.9752L33.0754 52.3774C33.9541 53.2561 35.4475 52.6351 35.4475 51.3934V40.2929V39.6929H36.0476H49.6111C50.3732 39.6929 50.9992 39.0669 50.9992 38.3048V31.6776C50.9992 30.9155 50.3732 30.2895 49.6111 30.2895H36.0476Z" stroke="#244583" stroke-width="1.2"/>
</svg>
