<svg width="70" height="70" viewBox="0 0 70 70" fill="none" xmlns="http://www.w3.org/2000/svg">
<path d="M34.5992 68.6328C53.3955 68.6328 68.6329 53.3954 68.6329 34.5991C68.6329 15.8028 53.3955 0.56543 34.5992 0.56543C15.8029 0.56543 0.565552 15.8028 0.565552 34.5991C0.565552 53.3954 15.8029 68.6328 34.5992 68.6328Z" fill="#EBECE9"/>
<path d="M34.5993 0.56543C24.1346 0.56543 14.2356 5.42065 7.77771 13.6698C21.2592 0.612568 42.8013 0.942534 55.8585 14.4712C67.6902 26.6799 68.6801 45.7237 58.2154 59.1109C71.744 46.1008 72.1683 24.5587 59.111 11.0301C52.7003 4.28934 43.8383 0.56543 34.5993 0.56543Z" fill="#C1C1C1"/>
<path d="M34.5993 69.1986C15.5084 69.1986 0 53.6902 0 34.5993C0 15.5084 15.5084 0 34.5993 0C53.6902 0 69.1986 15.5084 69.1986 34.5993C69.1986 53.6902 53.6902 69.1986 34.5993 69.1986ZM34.5993 1.13131C16.1212 1.13131 1.13131 16.1212 1.13131 34.5993C1.13131 53.0774 16.1212 68.0673 34.5993 68.0673C53.0774 68.0673 68.0673 53.0774 68.0673 34.5993C68.0673 16.1212 53.0774 1.13131 34.5993 1.13131Z" fill="#244583"/>
<path d="M22.9561 62.2696C22.8618 62.2696 22.7204 62.2696 22.6261 62.2224C21.4948 61.7039 20.3635 61.1382 19.2793 60.4783C18.9022 60.2426 18.808 59.7712 19.0437 59.3941C19.2793 59.0642 19.7507 58.9228 20.0807 59.1113C21.1177 59.7241 22.1548 60.2898 23.2389 60.7611C23.616 60.9497 23.8046 61.4211 23.6632 61.7982C23.5689 62.081 23.2861 62.2696 22.9561 62.2696Z" fill="white"/>
<path d="M17.0639 58.7812C16.8753 58.7812 16.7339 58.734 16.5925 58.6398C12.3501 55.4344 9.05043 51.0977 7.07063 46.1953C6.92922 45.7711 7.11777 45.3468 7.49488 45.1583C7.91912 45.0169 8.34336 45.2054 8.53191 45.5825C10.4174 50.2492 13.5285 54.3031 17.5824 57.367C17.9124 57.6499 18.0067 58.1212 17.7238 58.4512C17.5353 58.6869 17.2996 58.7812 17.0639 58.7812Z" fill="white"/>
<path d="M15.5992 38.3048V31.6776C15.5992 30.5842 16.4939 29.6895 17.5874 29.6895H31.1509V18.589C31.1509 16.8163 33.2882 15.9382 34.5473 17.1808L50.9495 33.5829C51.7282 34.3616 51.7282 35.6208 50.9495 36.3995L34.5473 52.8016C33.2882 54.0608 31.1509 53.1661 31.1509 51.3934V40.2929H17.5874C16.4939 40.2929 15.5992 39.3983 15.5992 38.3048Z" fill="#9FEFDE"/>
<path d="M50.3602 34.3945C50.8085 34.8428 50.7346 35.5892 50.2071 35.9409V35.9409C49.8124 36.204 49.2875 36.1553 48.948 35.824L32.386 19.6603C31.9505 19.2353 31.9233 18.544 32.324 18.086V18.086C32.7604 17.5873 33.5276 17.5618 33.9962 18.0304L50.3602 34.3945Z" fill="#24C4A1"/>
<path d="M31.1509 30.2895H31.7509V29.6895V18.589C31.7509 17.3582 33.2382 16.7338 34.1246 17.6065C34.125 17.607 34.1255 17.6074 34.1259 17.6078L50.5253 34.0072C51.0696 34.5516 51.0696 35.4308 50.5253 35.9752L34.1231 52.3774C33.2444 53.2561 31.7509 52.6351 31.7509 51.3934V40.2929V39.6929H31.1509H17.5874C16.8253 39.6929 16.1992 39.0669 16.1992 38.3048V31.6776C16.1992 30.9155 16.8253 30.2895 17.5874 30.2895H31.1509Z" stroke="#244583" stroke-width="1.2"/>
</svg>
