<svg xmlns="http://www.w3.org/2000/svg" xmlns:xlink="http://www.w3.org/1999/xlink" width="133" height="101" fill="none" xmlns:v="https://vecta.io/nano"><style><![CDATA[.B{stroke:#244583}.C{stroke-width:1.5}.D{stroke-miterlimit:10}.E{fill:#ebece9}.F{fill:#c1c1c1}.G{fill:#244583}.H{stroke-linecap:round}.I{stroke-linejoin:round}]]></style><path d="M69.054 80.953v-2.169-30.832-2.169-5.1-2.169-6.741h.352c1.876 0 3.4-1.465 3.4-3.283V25.56c0-1.817-1.524-3.283-3.4-3.283H16.827c-1.876 0-3.4 1.465-3.4 3.283v2.931c0 1.817 1.524 3.283 3.4 3.283h.352v14.009H1v35.17h68.054zm-21.336-2.169h-9.379V66.885c0-.117.117-.234.235-.234h8.91c.117 0 .235.117.235.234v11.899z" class="E"/><path d="M17.882 32.419v2.755H65.42v45.194h3.282V32.419H17.882z" class="F"/><path d="M31.481 47.424h-4.748c-.703 0-1.29-.586-1.29-1.348v-4.748c0-.703.645-1.348 1.348-1.348h4.748c.703 0 1.348.645 1.348 1.348v4.748c-.059.821-.586 1.348-1.407 1.348zm14.009 0h-4.748c-.703 0-1.348-.645-1.348-1.348v-4.748c0-.703.645-1.348 1.348-1.348h4.748c.703 0 1.348.645 1.348 1.348v4.748c0 .821-.645 1.348-1.348 1.348zM31.481 61.199h-4.748c-.703 0-1.348-.645-1.348-1.348v-4.748c0-.703.645-1.348 1.348-1.348h4.748c.703 0 1.348.645 1.348 1.348v4.748c0 .703-.528 1.348-1.348 1.348zm14.009 0h-4.748c-.703 0-1.348-.645-1.348-1.348v-4.748c0-.703.645-1.348 1.348-1.348h4.748c.703 0 1.348.645 1.348 1.348v4.748c0 .703-.645 1.348-1.348 1.348zm13.951-13.775h-4.748c-.703 0-1.348-.645-1.348-1.348v-4.748c0-.703.645-1.348 1.348-1.348h4.748c.703 0 1.348.645 1.348 1.348v4.748c0 .821-.586 1.348-1.348 1.348zm0 13.775h-4.748c-.703 0-1.348-.645-1.348-1.348v-4.748c0-.703.645-1.348 1.348-1.348h4.748c.703 0 1.348.645 1.348 1.348v4.748c0 .703-.586 1.348-1.348 1.348zm-47.89 0H6.803c-.703 0-1.348-.645-1.348-1.348v-4.748c0-.703.645-1.348 1.348-1.348h4.748c.762 0 1.348.645 1.348 1.348v4.748c0 .703-.586 1.348-1.348 1.348zm0 13.658H6.803c-.703 0-1.348-.645-1.348-1.348v-4.748c0-.703.645-1.348 1.348-1.348h4.748c.762 0 1.348.645 1.348 1.348v4.748c0 .762-.586 1.348-1.348 1.348zm20.106 0h-6.155v-4.338a3.13 3.13 0 0 1 3.107-3.107 3.13 3.13 0 0 1 3.107 3.107v4.338h-.059zm17.233-7.62V80.66H37.284V67.237c0-.703.645-1.348 1.348-1.348h8.91c.762-.059 1.348.528 1.348 1.348zm11.899 7.62h-6.213v-4.338a3.13 3.13 0 0 1 3.107-3.107 3.13 3.13 0 0 1 3.107 3.107v4.338z" fill="#9fefde" class="B C D"/><path d="M17.12 31.715h52.286M17.12 81.012V45.607" class="B C D"/><path d="M69.582 22.805H16.768c-1.172 0-2.169.703-2.638 1.759.469-.293.938-.469 1.524-.469h52.814c1.583 0 2.814 1.231 2.814 2.814v2.52c0 .41-.059.703-.235 1.055.762-.528 1.348-1.348 1.348-2.345v-2.521c0-1.524-1.29-2.814-2.814-2.814z" class="F"/><path d="M69.054 80.895v-2.169-30.832-2.169-5.1-2.169-6.741h.352c1.876 0 3.4-1.465 3.4-3.282v-2.931c0-1.817-1.524-3.283-3.4-3.283H16.827c-1.876 0-3.4 1.465-3.4 3.283v2.931c0 1.817 1.524 3.282 3.4 3.282h.352v14.009H1v35.17h68.054z" class="B C D"/><use xlink:href="#B" class="E"/><path d="M107.741 79.781l4.689-1.993v-25.85l-4.689 1.993v25.85z" fill="#dbd8dd"/><g class="G"><path d="M100.707 55.045c-6.272 0-12.954-1.758-12.954-5.041 0-3.224 6.624-5.041 12.954-5.041s12.954 1.758 12.954 5.041-6.623 5.041-12.954 5.041zm0-8.499c-7.151 0-11.489 2.11-11.489 3.576s4.396 3.576 11.489 3.576c7.151 0 11.489-2.11 11.489-3.576.058-1.524-4.338-3.576-11.489-3.576z"/><path d="M100.707 61.258c-6.272 0-12.954-1.758-12.954-5.041v-6.155c0-.41.352-.703.703-.703.41 0 .762.352.762.703v6.155c0 1.465 4.396 3.576 11.489 3.576 7.151 0 11.489-2.11 11.489-3.576v-6.155c0-.41.352-.703.703-.703.411 0 .704.352.704.703v6.155c.058 3.282-6.565 5.041-12.896 5.041z"/><use xlink:href="#C"/><path d="M100.707 74.447c-6.272 0-12.954-1.759-12.954-5.041v-6.213c0-.41.352-.703.703-.703.41 0 .762.352.762.703v6.213c0 1.465 4.396 3.576 11.489 3.576 7.151 0 11.489-2.11 11.489-3.576v-6.213c0-.41.352-.703.703-.703.411 0 .704.352.704.703v6.213c.058 3.283-6.565 5.041-12.896 5.041z"/><path d="M100.707 81.012c-6.272 0-12.954-1.758-12.954-5.041v-6.213c0-.41.352-.703.703-.703.41 0 .762.352.762.703v6.213c0 1.465 4.396 3.576 11.489 3.576 7.151 0 11.489-2.11 11.489-3.576v-6.213c0-.41.352-.703.703-.703.411 0 .704.352.704.703v6.213c.058 3.283-6.565 5.041-12.896 5.041z"/></g><path d="M112.372 63.896s-3.986 3.341-11.958 3.341c-5.979 0-11.958-3.341-11.958-3.341V36.698s2.638-4.631 11.958-4.631c11.254 0 11.958 4.631 11.958 4.631v27.198z" class="E"/><path d="M107.741 66.533l4.689-1.993v-25.85l-4.689 1.993v25.85z" class="F"/><g class="G"><path d="M100.707 41.797c-6.272 0-12.954-1.758-12.954-5.041 0-3.224 6.624-5.041 12.954-5.041s12.954 1.758 12.954 5.041-6.623 5.041-12.954 5.041zm0-8.558c-7.151 0-11.489 2.11-11.489 3.576s4.396 3.576 11.489 3.576c7.151 0 11.489-2.11 11.489-3.576.058-1.465-4.338-3.576-11.489-3.576z"/><use xlink:href="#C" y="-19.812"/><path d="M100.707 54.576c-6.272 0-12.954-1.758-12.954-5.041V43.38c0-.41.352-.703.703-.703.41 0 .762.352.762.703v6.213c0 1.465 4.396 3.576 11.489 3.576 7.151 0 11.489-2.11 11.489-3.576V43.38c0-.41.352-.703.703-.703.411 0 .704.352.704.703v6.213c.058 3.282-6.565 4.982-12.896 4.982z"/><use xlink:href="#C" y="-6.624"/><use xlink:href="#C" y="-0.059"/></g><use xlink:href="#B" x="19.226" class="E"/><path d="M126.967 79.781l4.631-1.993v-25.85l-4.631 1.993v25.85z" class="F"/><g class="G"><path d="M119.992 55.045c-6.272 0-12.955-1.758-12.955-5.041 0-3.224 6.624-5.041 12.955-5.041s12.954 1.758 12.954 5.041-6.682 5.041-12.954 5.041zm0-8.499c-7.151 0-11.489 2.11-11.489 3.576s4.396 3.576 11.489 3.576 11.489-2.11 11.489-3.576c0-1.524-4.397-3.576-11.489-3.576z"/><path d="M119.992 61.258c-6.272 0-12.955-1.758-12.955-5.041v-6.155c0-.41.352-.703.704-.703.41 0 .703.352.703.703v6.155c0 1.465 4.397 3.576 11.489 3.576s11.489-2.11 11.489-3.576v-6.155c0-.41.352-.703.703-.703.411 0 .704.352.704.703v6.155c.117 3.282-6.565 5.041-12.837 5.041z"/><path d="M119.992 67.823c-6.272 0-12.955-1.758-12.955-5.041v-6.155c0-.41.352-.703.704-.703.41 0 .703.352.703.703v6.213c0 1.465 4.397 3.576 11.489 3.576s11.489-2.11 11.489-3.576v-6.213c0-.41.352-.703.703-.703.411 0 .704.352.704.703v6.213c.117 3.224-6.565 4.982-12.837 4.982z"/><path d="M119.992 74.447c-6.272 0-12.955-1.759-12.955-5.041v-6.213c0-.41.352-.703.704-.703.41 0 .703.352.703.703v6.213c0 1.465 4.397 3.576 11.489 3.576s11.489-2.11 11.489-3.576v-6.213c0-.41.352-.703.703-.703.411 0 .704.352.704.703v6.213c.117 3.283-6.565 5.041-12.837 5.041z"/><path d="M119.992 81.012c-6.272 0-12.955-1.758-12.955-5.041v-6.213c0-.41.352-.703.704-.703.41 0 .703.352.703.703v6.213c0 1.465 4.397 3.576 11.489 3.576s11.489-2.11 11.489-3.576v-6.213c0-.41.352-.703.703-.703.411 0 .704.352.704.703v6.213c.117 3.283-6.565 5.041-12.837 5.041z"/></g><g class="B C D"><path d="M102.29 90.566l5.216-5.158 5.041 5.041m-80.421.117l5.217-5.158 5.041 5.041" class="H I"/><path d="M37.284 85.76v9.144c0 2.696 2.169 4.924 4.924 4.924h60.375c2.696 0 4.923-2.169 4.923-4.924V85.76"/><path d="M42.442 13.427l-5.276 5.158-5.041-5.041m80.481 9.848l-5.217 5.158-5.041-5.041" class="H I"/><path d="M107.448 28.257V9.148c0-2.696-2.169-4.924-4.924-4.924H42.149c-2.696 0-4.924 2.169-4.924 4.924v9.144"/></g><path d="M79.019 1H65.185v16.823h13.834V1z" fill="#fff"/><path fill="#fed19a" d="M67 8h10v9H67z"/><g class="B C D"><path d="M75.326 17.354h-6.155a2.69 2.69 0 0 1-2.696-2.696V8.796a1.43 1.43 0 0 1 1.407-1.407h8.734a1.43 1.43 0 0 1 1.407 1.407v5.92c-.059 1.465-1.231 2.638-2.696 2.638zm-7.503-9.73c-.645 0-1.114.528-1.172 1.172v5.92c0 1.348 1.055 2.403 2.403 2.403h6.155c1.348 0 2.403-1.055 2.403-2.403v-5.92c0-.645-.527-1.114-1.172-1.172h-8.617z"/><path d="M75.971 7.624c-.059 0-.117-.059-.117-.117V4.81c0-1.993-1.641-3.634-3.634-3.634s-3.634 1.641-3.634 3.634v2.696c0 .059-.059.117-.117.117s-.117-.059-.117-.117V4.81c0-2.169 1.758-3.81 3.81-3.81 2.11 0 3.81 1.759 3.81 3.81v2.696c.117.059.059.117 0 .117z"/></g><defs ><path id="B" d="M112.372 77.143s-3.986 3.341-11.958 3.341c-5.979 0-11.958-3.341-11.958-3.341V49.945s2.638-4.631 11.958-4.631c11.254 0 11.958 4.631 11.958 4.631v27.198z"/><path id="C" d="M100.707 67.823c-6.272 0-12.954-1.758-12.954-5.041v-6.155c0-.41.352-.703.703-.703.41 0 .762.352.762.703v6.213c0 1.465 4.396 3.576 11.489 3.576 7.151 0 11.489-2.11 11.489-3.576v-6.213c0-.41.352-.703.703-.703.411 0 .704.352.704.703v6.213c.058 3.224-6.565 4.982-12.896 4.982z"/></defs></svg>