<svg width="81" height="45" viewBox="0 0 81 45" fill="none" xmlns="http://www.w3.org/2000/svg">
<path fill-rule="evenodd" clip-rule="evenodd" d="M54.1781 14.2116H47.0122V0H38.4158V7.10718H24.0839V14.2116H16.9291V21.4755H10.8016L10.7009 22.5504C10.3249 26.1193 10.8955 29.7242 12.3552 33.0026L12.9822 34.2986L13.0578 34.4218C17.4638 41.8649 25.2371 45 33.6991 45C50.0745 45 63.5779 37.7473 69.7837 22.4244C73.9293 22.64 78.1673 21.4167 80.1967 17.4978L80.7146 16.4929L79.7321 15.9331C77.3331 14.5615 74.1392 14.3739 71.4184 15.1661C71.0881 12.2997 69.1791 9.79721 66.9397 7.98333L66.0299 7.27793L65.2938 8.13449C63.7794 9.86999 63.3315 12.756 63.5359 14.9729C63.6543 16.6312 64.2363 18.2228 65.2154 19.5664C64.4482 20.011 63.6367 20.374 62.7941 20.6497C61.1906 21.1937 59.5103 21.4772 57.8171 21.4895H54.1781V14.2116ZM45.3158 1.69658H44.8259V6.83032H45.3158V1.69658ZM44.3948 1.69658H43.8854V6.83032H44.3948V1.69658ZM43.4543 1.69658H42.9448V6.83032H43.4543V1.69658ZM42.5138 1.69658H42.0043V6.83032H42.5138V1.69658ZM41.5732 1.69658H41.061L41.047 6.83032H41.5732V1.69658ZM40.6271 1.69658H40.14L40.1372 6.83032H40.6271V1.69658ZM45.8336 1.18432H39.6222L39.6082 7.34257H45.8336V1.18432ZM30.9727 8.80362H30.48V13.9346H30.9727V8.80362ZM30.0489 8.80362H29.5395V13.9346H30.0489V8.80362ZM29.1084 8.80362H28.5989L28.5905 13.9346H29.1084V8.80362ZM28.1679 8.80362H27.6584V13.9346H28.1679V8.80362ZM27.2273 8.80362H26.7179V13.9346H27.2273V8.80362ZM26.2868 8.80362H25.7969L25.7913 13.9346H26.2868V8.80362ZM31.4877 8.29137H25.2791V14.4496H31.4877V8.29137ZM66.1811 8.90718C67.9138 10.2872 70.7074 13.1956 70.2288 16.8989C72.4065 15.8128 76.1939 15.2754 79.1526 16.9521C77.3023 20.5323 73.2379 21.5988 69.0083 21.1705C63.0874 36.7262 49.771 43.7133 34.0458 43.8094C33.9323 43.8102 33.8187 43.8105 33.7049 43.8105C26.1974 43.8105 20.1763 41.2437 16.3498 36.9777L16.4194 36.9812L16.4365 36.9692C17.5281 37.0252 18.5135 37.0448 19.5156 37.0448C19.9272 37.0448 20.3325 37.0425 20.7304 37.0359C21.2012 37.023 21.6611 37.0031 22.1106 36.9777H22.2888L22.3904 36.9692C22.3904 36.9692 22.6451 36.9496 22.5219 36.9496C23.8424 36.8866 25.1548 36.7154 26.4458 36.4382C26.8704 36.3464 27.2928 36.2438 27.7126 36.1303L27.7872 36.1098C28.0644 36.0287 28.3331 35.9475 28.5906 35.8579L28.5976 35.8556C28.663 35.8326 28.7235 35.7971 28.7756 35.7513C28.8296 35.7038 28.8736 35.6462 28.9051 35.5816C28.9366 35.517 28.9549 35.4469 28.9591 35.3751C28.9633 35.3034 28.9532 35.2316 28.9295 35.1638C28.9026 35.0907 28.861 35.0247 28.808 34.9695C28.7654 34.9281 28.7162 34.8934 28.6618 34.8671C28.5313 34.8039 28.3813 34.7938 28.2435 34.839C26.3064 35.5052 23.7536 35.8691 20.6241 35.9391C19.0341 35.9745 17.2939 35.9316 15.4036 35.8103L15.3931 35.7966L15.3897 35.7964C14.998 35.2811 14.6363 34.7437 14.3064 34.1869L13.7858 33.2407C12.8532 31.4123 12.238 29.4388 11.9663 27.4044L11.9791 27.4044C11.7745 25.8945 11.7427 24.3135 11.8961 22.6737H57.8031C61.5736 22.6737 65.2602 21.2741 67.0041 19.7233C63.8718 17.1956 64.1825 11.1969 66.1811 8.90718ZM23.3141 15.9081H23.8068V21.0419H23.3141V15.9081ZM22.3736 15.9081H22.883V21.0419H22.3736V15.9081ZM21.433 15.9081H21.9453V21.0419H21.433V15.9081ZM20.4925 15.9081H21.0019V21.0419H20.4925V15.9081ZM19.552 15.9081H20.0614V21.0419H19.552V15.9081ZM18.631 15.9081H19.1209V21.0419H18.631V15.9081ZM18.1132 15.3959H24.3218V21.5541H18.1132V15.3959ZM30.48 15.9081H30.9727V21.0419H30.48V15.9081ZM29.5395 15.9081H30.0489V21.0419H29.5395V15.9081ZM28.5989 15.9081H29.1084V21.0419H28.5905L28.5989 15.9081ZM27.6584 15.9081H28.1679V21.0419H27.6584V15.9081ZM26.7179 15.9081H27.2273V21.0419H26.7179V15.9081ZM25.7969 15.9081H26.2868V21.0419H25.7913L25.7969 15.9081ZM25.2791 15.3959H31.4877V21.5541H25.2791V15.3959ZM38.1358 15.9081H37.6459V21.0419H38.1358V15.9081ZM37.2149 15.9081H36.7054L36.7082 21.0419H37.2149V15.9081ZM36.2743 15.9081H35.7649V21.0419H36.2743V15.9081ZM35.3338 15.9081H34.8243V21.0419H35.3338V15.9081ZM34.3933 15.9081H33.8838V21.0419H34.3933V15.9081ZM33.4527 15.9081H32.9601V21.0419H33.4527V15.9081ZM38.6676 15.3959H32.445V21.5541H38.6676V15.3959ZM37.6459 8.80362H38.1358V13.9346H37.6459V8.80362ZM36.7054 8.80362H37.2149V13.9346H36.7082L36.7054 8.80362ZM35.7649 8.80362H36.2743V13.9346H35.7649V8.80362ZM34.8243 8.80362H35.3338V13.9346H34.8243V8.80362ZM33.8838 8.80362H34.3933V13.9346H33.8838V8.80362ZM32.9601 8.80362H33.4527V13.9346H32.9601V8.80362ZM32.445 8.29137H38.6676V14.4496H32.445V8.29137ZM45.3158 15.9081H44.8259V21.0419H45.3158V15.9081ZM44.3948 15.9081H43.8854V21.0419H44.3948V15.9081ZM43.4543 15.9081H42.9448V21.0419H43.4543V15.9081ZM42.5138 15.9081H42.0043V21.0419H42.5138V15.9081ZM41.5732 15.9081H41.061L41.047 21.0419H41.5732V15.9081ZM40.6271 15.9081H40.14L40.1372 21.0419H40.6271V15.9081ZM45.8196 15.3959H39.6082V21.5541H45.8196V15.3959ZM44.8259 8.80362H45.3158V13.9346H44.8259V8.80362ZM43.8854 8.80362H44.3948V13.9346H43.8854V8.80362ZM42.9448 8.80362H43.4543V13.9346H42.9448V8.80362ZM42.0043 8.80362H42.5138V13.9346H42.0043V8.80362ZM41.061 8.80362H41.5732V13.9346H41.047L41.061 8.80362ZM40.14 8.80362H40.6271V13.9346H40.1372L40.14 8.80362ZM39.6222 8.29137H45.8336V14.4496H39.6082L39.6222 8.29137ZM51.9779 15.9081H52.4678V21.0419H51.9779V15.9081ZM51.0346 15.9081H51.544V21.0419H51.0346V15.9081ZM50.0941 15.9081H50.6035V21.0419H50.0941V15.9081ZM49.1535 15.9081H49.663V21.0419H49.1535V15.9081ZM48.213 15.9081H48.7224V21.0419H48.213V15.9081ZM47.2921 15.9081H47.7819V21.0419H47.2921V15.9081ZM46.7854 15.3959H52.994V21.5541H46.7854V15.3959Z" fill="#9FEFDE"/>
<path fill-rule="evenodd" clip-rule="evenodd" d="M0.797363 28.017H80.4907C78.7552 27.5803 75.0015 26.9925 75.6201 24.7363C72.4654 28.3585 64.8544 27.278 62.9341 25.4921C60.7983 28.5712 48.3474 27.3984 47.4797 25.0023C44.7981 28.1206 36.49 28.1206 33.8084 25.0023C32.9406 27.3984 20.4926 28.5684 18.354 25.4921C16.4337 27.278 8.83668 28.3585 5.66798 24.7363C6.2894 26.9925 2.53287 27.5803 0.797363 28.017Z" fill="#9FEFDE"/>
<path fill-rule="evenodd" clip-rule="evenodd" d="M31.11 31.5386C31.4454 31.5413 31.7725 31.6433 32.0501 31.8317C32.3277 32.0201 32.5433 32.2864 32.6697 32.5971C32.7962 32.9078 32.8278 33.249 32.7607 33.5777C32.6936 33.9063 32.5307 34.2078 32.2925 34.444C32.0543 34.6803 31.7515 34.8407 31.4223 34.9051C31.0931 34.9696 30.7522 34.9351 30.4425 34.8061C30.1329 34.6771 29.8683 34.4593 29.6823 34.1802C29.4962 33.9011 29.3969 33.5732 29.3969 33.2377C29.3991 32.7853 29.5807 32.3523 29.9019 32.0338C30.2231 31.7152 30.6576 31.5371 31.11 31.5386Z" fill="#9FEFDE"/>
</svg>
