<svg width="88" height="45" viewBox="0 0 88 45" fill="none" xmlns="http://www.w3.org/2000/svg">
<g filter="url(#filter0_d)">
<path d="M10.7488 28.7294C10.5754 28.5451 10.3667 28.3988 10.1337 28.2986C9.90071 28.1956 9.65416 28.1468 9.39947 28.1468C9.14479 28.1414 8.89823 28.1956 8.66523 28.2931C8.43222 28.3961 8.2236 28.5424 8.05019 28.7239C7.87137 28.9028 7.73049 29.1114 7.64108 29.3444C7.54625 29.5801 7.49748 29.8294 7.49748 30.0786C7.49206 30.3333 7.54083 30.5799 7.63837 30.8129C7.7359 31.0459 7.87679 31.2545 8.0529 31.4333C8.40242 31.8045 8.89282 32.0104 9.40218 31.9996C9.91155 32.0023 10.3992 31.7964 10.7515 31.4333C10.9357 31.2599 11.0766 31.0513 11.1714 30.8183C11.269 30.5853 11.3177 30.3387 11.3177 30.0841C11.3177 29.8294 11.269 29.5828 11.1714 29.3498C11.0712 29.1114 10.9303 28.9 10.7488 28.7294ZM33.3397 24.3456C33.3126 25.5539 33.3722 26.7705 33.5131 27.9734H33.4481C33.2963 27.6754 32.9631 27.1254 32.4483 26.3207L20.1422 7H16.406V31.6663H19.2779V13.8331C19.3104 12.706 19.2617 11.5762 19.1425 10.4491H19.2508C19.4567 10.9882 19.7196 11.5084 20.0338 11.9934L32.6759 31.6663H36.2117V7H33.3397V24.3456ZM55.6841 28.9542H45.5347V20.4088H54.4161V17.8078H45.5347V9.61186H55.0636V7H42.5923V31.6663H55.6678L55.6841 28.9542ZM57.8814 7V9.61186H64.9529V31.6636H67.8249V9.61186H74.9777V7H57.8814Z" fill="#9FEFDE"/>
</g>
<defs>
<filter id="filter0_d" x="0.49707" y="0" width="87.4806" height="45" filterUnits="userSpaceOnUse" color-interpolation-filters="sRGB">
<feFlood flood-opacity="0" result="BackgroundImageFix"/>
<feColorMatrix in="SourceAlpha" type="matrix" values="0 0 0 0 0 0 0 0 0 0 0 0 0 0 0 0 0 0 127 0" result="hardAlpha"/>
<feOffset dx="3" dy="3"/>
<feGaussianBlur stdDeviation="5"/>
<feColorMatrix type="matrix" values="0 0 0 0 0 0 0 0 0 0 0 0 0 0 0 0 0 0 0.15 0"/>
<feBlend mode="normal" in2="BackgroundImageFix" result="effect1_dropShadow"/>
<feBlend mode="normal" in="SourceGraphic" in2="effect1_dropShadow" result="shape"/>
</filter>
</defs>
</svg>
