<svg xmlns="http://www.w3.org/2000/svg" width="21" height="20" fill="none" xmlns:v="https://vecta.io/nano"><path d="M10.253 0C4.588 0 0 4.588 0 10.253c0 4.537 2.935 8.369 7.01 9.728.513.09.705-.218.705-.487l-.013-1.91c-2.576.474-3.242-.628-3.448-1.205-.115-.295-.615-1.205-1.051-1.448-.359-.192-.872-.666-.013-.679.807-.013 1.384.743 1.576 1.051.923 1.551 2.397 1.115 2.986.846.09-.666.359-1.115.654-1.371-2.281-.256-4.665-1.141-4.665-5.062 0-1.115.397-2.038 1.051-2.755-.103-.256-.461-1.307.103-2.717 0 0 .859-.269 2.82 1.051.82-.231 1.692-.346 2.563-.346s1.743.115 2.563.346c1.961-1.333 2.82-1.051 2.82-1.051.564 1.41.205 2.461.102 2.717.654.718 1.051 1.628 1.051 2.755 0 3.935-2.397 4.806-4.678 5.062.372.321.692.936.692 1.897l-.013 2.82c0 .269.192.589.705.487a10.27 10.27 0 0 0 6.985-9.727C20.506 4.588 15.918 0 10.253 0z" fill="#fff"/></svg>