<svg width="114" height="55" viewBox="0 0 114 55" fill="none" xmlns="http://www.w3.org/2000/svg">
<g filter="url(#filter0_d)">
<path fill-rule="evenodd" clip-rule="evenodd" d="M14.2473 17.5976C14.0649 17.5976 14.0193 17.5064 14.1105 17.3696L15.0684 16.1381C15.1596 16.0012 15.3876 15.91 15.5701 15.91H31.8535C32.036 15.91 32.0816 16.0468 31.9904 16.1837L31.215 17.3696C31.1237 17.5064 30.8957 17.6432 30.7589 17.6432L14.2473 17.5976Z" fill="#9FEFDE"/>
<path fill-rule="evenodd" clip-rule="evenodd" d="M7.35994 21.7939C7.17749 21.7939 7.13188 21.7027 7.2231 21.5659L8.18095 20.3343C8.27218 20.1975 8.50024 20.1063 8.68268 20.1063H29.4817C29.6642 20.1063 29.7554 20.2431 29.7098 20.38L29.3449 21.4746C29.2993 21.6571 29.1168 21.7483 28.9344 21.7483L7.35994 21.7939Z" fill="#9FEFDE"/>
<path fill-rule="evenodd" clip-rule="evenodd" d="M18.398 25.9902C18.2156 25.9902 18.17 25.8534 18.2612 25.7166L18.8998 24.5763C18.991 24.4394 19.1734 24.3026 19.3559 24.3026H28.4783C28.6607 24.3026 28.7519 24.4394 28.7519 24.6219L28.6607 25.7166C28.6607 25.899 28.4783 26.0358 28.3414 26.0358L18.398 25.9902Z" fill="#9FEFDE"/>
<path fill-rule="evenodd" clip-rule="evenodd" d="M65.7432 16.7766C62.8696 17.5064 60.9083 18.0537 58.0804 18.7835C57.3962 18.966 57.3506 19.0116 56.7576 18.3274C56.0735 17.552 55.5717 17.0503 54.6139 16.5942C51.7403 15.1802 48.958 15.5907 46.3581 17.2783C43.2565 19.2853 41.6601 22.25 41.7057 25.9446C41.7513 29.5936 44.26 32.6039 47.8633 33.1057C50.9649 33.5162 53.5648 32.4215 55.6173 30.0953C56.0278 29.5936 56.3927 29.0462 56.8489 28.4076C55.2068 28.4076 53.1543 28.4076 48.0458 28.4076C47.0879 28.4076 46.8598 27.8147 47.1791 27.0393C47.7721 25.6253 48.8668 23.2535 49.5053 22.0676C49.6422 21.7939 49.9615 21.3378 50.6456 21.3378H67.2484C67.1571 22.5693 67.1572 23.8008 66.9747 25.0324C66.473 28.3164 65.2414 31.3268 63.2345 33.9723C59.9505 38.3054 55.6629 40.9965 50.2351 41.7263C45.7652 42.3193 41.6145 41.4527 37.9655 38.7159C34.5902 36.1617 32.6745 32.7864 32.1728 28.5901C31.5799 23.6184 33.0394 19.1484 36.0498 15.2258C39.2883 10.9839 43.5758 8.29279 48.8212 7.33494C53.1087 6.55954 57.2138 7.06127 60.9083 9.56992C63.3257 11.1663 65.059 13.3557 66.1993 16.0012C66.473 16.4117 66.2905 16.6398 65.7432 16.7766Z" fill="#9FEFDE"/>
<path d="M80.8407 42C76.69 41.9088 72.9043 40.7229 69.7114 37.9862C67.0203 35.6599 65.3327 32.6952 64.7853 29.183C63.9643 24.0289 65.3783 19.4677 68.4799 15.4082C71.8096 11.0295 75.8234 8.74891 81.2512 7.79106C85.9036 6.97005 90.2824 7.42616 94.2506 10.1173C97.854 12.5803 100.089 15.91 100.682 20.2887C101.457 26.4463 99.6784 31.4636 95.4365 35.7512C92.4261 38.8072 88.7316 40.7229 84.4897 41.5895C83.2582 41.8176 82.0266 41.8632 80.8407 42ZM91.6964 23.5728C91.6507 22.9798 91.6507 22.5237 91.5595 22.0676C90.7385 17.552 86.5878 14.9977 82.2547 16.0012C78.0128 16.9591 75.2761 19.6502 74.2726 23.9377C73.4516 27.4954 75.1848 31.0987 78.4689 32.5583C80.9776 33.653 83.4862 33.5162 85.9036 32.2847C89.507 30.4146 91.4683 27.4954 91.6964 23.5728Z" fill="#9FEFDE"/>
</g>
<defs>
<filter id="filter0_d" x="0.17749" y="0" width="113.681" height="55" filterUnits="userSpaceOnUse" color-interpolation-filters="sRGB">
<feFlood flood-opacity="0" result="BackgroundImageFix"/>
<feColorMatrix in="SourceAlpha" type="matrix" values="0 0 0 0 0 0 0 0 0 0 0 0 0 0 0 0 0 0 127 0" result="hardAlpha"/>
<feOffset dx="3" dy="3"/>
<feGaussianBlur stdDeviation="5"/>
<feColorMatrix type="matrix" values="0 0 0 0 0 0 0 0 0 0 0 0 0 0 0 0 0 0 0.15 0"/>
<feBlend mode="normal" in2="BackgroundImageFix" result="effect1_dropShadow"/>
<feBlend mode="normal" in="SourceGraphic" in2="effect1_dropShadow" result="shape"/>
</filter>
</defs>
</svg>
