<svg xmlns="http://www.w3.org/2000/svg" width="106" height="100" fill="none" xmlns:v="https://vecta.io/nano"><path d="M83.92 81.515c0 .364-.545.667-1.212.667H27.643c-.666 0-1.212-.303-1.212-.667s.545-.667 1.212-.667h55.065c.666-.061 1.212.242 1.212.667zM60.779 17.758c0 .364-.303.667-.666.667H30.975c-.364 0-.666-.303-.666-.667s.303-.667.666-.667h29.198c.364-.061.606.303.606.667zm12.843 31.757c0 .364-.424.667-.909.667H31.217c-.485 0-.909-.303-.909-.667s.424-.667.909-.667h41.435c.545 0 .969.303.969.667zM8.016 97.03a.727.727 0 1 0 0-1.455c-3.089-.061-5.573-2.606-5.573-5.697v-4a.7.7 0 0 0-.727-.727.7.7 0 0 0-.727.727v4c0 3.879 3.089 7.091 7.027 7.151zm2.968.061h4.846a.727.727 0 1 0 0-1.455h-4.846a.7.7 0 0 0-.727.727c0 .424.363.727.727.727z" fill="#244583"/><path d="M7.713 6.909h19.809a2.69 2.69 0 0 1 2.665 2.667v16.242c0 1.455-1.212 2.667-1.575 2.667H8.864c-2.605 0-3.756-1.212-3.756-2.667V9.576c0-1.515 1.151-2.667 2.605-2.667z" fill="#9fefde"/><path d="M27.583 6.909H7.713a2.69 2.69 0 0 0-2.665 2.667v1.091h18.476a3.3 3.3 0 0 1 3.271 3.273v14.606h.787a2.69 2.69 0 0 0 2.665-2.667V9.576a2.65 2.65 0 0 0-2.665-2.667z" fill="#24c4a1"/><path d="M26.916 29.212H9.167c-2.423 0-4.362-2-4.362-4.364V10.424c0-2.424 1.999-4.364 4.362-4.364h17.749c2.423 0 4.361 2 4.361 4.364v14.424c0 2.364-1.938 4.364-4.361 4.364zM9.167 7.515a2.91 2.91 0 0 0-2.908 2.909v14.424a2.91 2.91 0 0 0 2.908 2.909h17.749a2.91 2.91 0 0 0 2.908-2.909V10.424a2.91 2.91 0 0 0-2.908-2.909H9.167z" fill="#244583"/><path d="M7.713 70.606h19.809a2.69 2.69 0 0 1 2.665 2.667v16.242c0 1.455-1.212 2.667-1.575 2.667H8.864c-2.605 0-3.756-1.212-3.756-2.667V73.273c0-1.454 1.151-2.667 2.605-2.667z" fill="#9fefde"/><path d="M27.583 70.606H7.713a2.69 2.69 0 0 0-2.665 2.667v1.091h18.476a3.3 3.3 0 0 1 3.271 3.273v14.606h.787a2.69 2.69 0 0 0 2.665-2.667V73.333c0-1.515-1.212-2.727-2.665-2.727z" fill="#24c4a1"/><path d="M26.916 92.97H9.167c-2.423 0-4.362-2-4.362-4.364V74.182c0-2.424 1.999-4.364 4.362-4.364h17.749c2.423 0 4.361 2 4.361 4.364v14.424c0 2.364-1.938 4.364-4.361 4.364zM9.167 71.273a2.91 2.91 0 0 0-2.908 2.909v14.424a2.91 2.91 0 0 0 2.908 2.909h17.749a2.91 2.91 0 0 0 2.908-2.909V74.182a2.91 2.91 0 0 0-2.908-2.909H9.167z" fill="#244583"/><path d="M7.713 39.212h19.809a2.69 2.69 0 0 1 2.665 2.667v16.243c0 1.455-1.212 2.667-1.575 2.667H8.864c-2.605 0-3.756-1.212-3.756-2.667V41.879c0-1.454 1.151-2.667 2.605-2.667z" fill="#fed19a"/><path d="M27.583 39.212H7.713a2.69 2.69 0 0 0-2.665 2.667v1.091h18.476a3.3 3.3 0 0 1 3.271 3.273v14.606h.787a2.69 2.69 0 0 0 2.665-2.667V41.879a2.69 2.69 0 0 0-2.665-2.667z" fill="#febf2d"/><path d="M26.916 61.515H9.167c-2.423 0-4.362-2-4.362-4.364V42.727c0-2.424 1.999-4.364 4.362-4.364h17.749c2.423 0 4.361 2 4.361 4.364v14.424c0 2.424-1.938 4.364-4.361 4.364zM9.167 39.879a2.91 2.91 0 0 0-2.908 2.909v14.424a2.91 2.91 0 0 0 2.908 2.909h17.749a2.91 2.91 0 0 0 2.908-2.909V42.727a2.91 2.91 0 0 0-2.908-2.909H9.167v.061z" fill="#244583"/><path d="M54.358 1.152c-1.636 1.091-5.512 3.333-10.177 4.303-.727.182-1.272.788-1.272 1.576v12.667c0 1.333.182 2.667.606 3.939.848 2.788 2.605 5.212 4.907 6.909l6.24 4.545c.364.242.788.242 1.09 0l6.24-4.545c2.362-1.697 4.059-4.121 4.907-6.909.363-1.273.606-2.606.606-3.939V7.03c0-.727-.545-1.394-1.272-1.576-4.664-.97-8.541-3.212-10.177-4.303a1.7 1.7 0 0 0-1.696 0z" fill="#9fefde"/><g fill="#22417d"><path d="M66.534 4.788c-4.786-1.03-8.723-3.333-10.238-4.303-.666-.424-1.575-.424-2.241 0-1.454.97-5.452 3.333-10.238 4.303a2.08 2.08 0 0 0-1.636 2v12.909c0 1.394.182 2.788.606 4.121.909 2.909 2.726 5.454 5.21 7.273l6.361 4.606c.242.182.545.242.848.242s.606-.121.848-.242l6.361-4.606c2.423-1.758 4.301-4.364 5.21-7.273.424-1.333.606-2.727.606-4.121V6.788c0-.97-.727-1.818-1.696-2zm.787 2v12.909c0 1.333-.182 2.606-.606 3.879-.848 2.727-2.544 5.151-4.846 6.788l-6.361 4.667a.55.55 0 0 1-.606 0l-6.361-4.606c-2.302-1.697-3.998-4.061-4.846-6.788-.364-1.273-.606-2.545-.606-3.879V6.788c0-.545.363-1.03.969-1.152 4.725-1.03 8.602-3.212 10.48-4.485.364-.242.909-.242 1.272 0 1.878 1.212 5.755 3.455 10.54 4.424.606.182.969.667.969 1.212z"/><path d="M55.206 36.121c-.303 0-.606-.121-.909-.303l-6.361-4.606a14.19 14.19 0 0 1-5.21-7.333c-.424-1.333-.606-2.727-.606-4.182V6.788c0-1.03.727-1.939 1.757-2.121 4.725-1.03 8.663-3.333 10.177-4.303a2.1 2.1 0 0 1 2.362 0c1.454.97 5.391 3.273 10.177 4.303 1.03.242 1.757 1.091 1.757 2.121v12.909c0 1.394-.182 2.849-.606 4.182-.909 2.909-2.726 5.515-5.21 7.333l-6.421 4.606c-.303.182-.606.303-.909.303zm0-35.879c-.363 0-.727.121-1.03.303-1.454.97-5.452 3.333-10.298 4.364-.909.182-1.575.97-1.575 1.879v12.909c0 1.394.182 2.788.606 4.121.909 2.848 2.726 5.454 5.149 7.212l6.361 4.606a1.38 1.38 0 0 0 1.514 0l6.361-4.606c2.423-1.758 4.24-4.303 5.149-7.212.424-1.333.606-2.727.606-4.121V6.788c0-.909-.666-1.697-1.575-1.879-4.786-1.03-8.784-3.394-10.298-4.364-.242-.242-.606-.303-.969-.303zm0 34.97c-.121 0-.242-.061-.363-.121l-6.361-4.606c-2.302-1.697-4.059-4.121-4.907-6.848-.364-1.273-.606-2.606-.606-3.939V6.788c0-.606.424-1.152 1.03-1.273 4.725-1.03 8.602-3.212 10.48-4.424a1.18 1.18 0 0 1 1.393 0c1.878 1.212 5.755 3.455 10.48 4.424.606.121 1.03.667 1.03 1.273v12.909c0 1.333-.182 2.667-.606 3.939-.848 2.727-2.605 5.152-4.907 6.848l-6.361 4.606c-.06.061-.182.121-.303.121zm0-34.121a1.17 1.17 0 0 0-.606.182c-1.878 1.212-5.815 3.455-10.541 4.485-.485.121-.848.545-.848 1.03v12.909c0 1.333.182 2.606.606 3.818.848 2.667 2.544 5.091 4.846 6.727l6.361 4.606a.37.37 0 0 0 .485 0l6.361-4.606c2.302-1.636 3.998-4.061 4.846-6.727.363-1.273.606-2.546.606-3.818V6.788c0-.485-.363-.909-.848-1.03-4.907-1.03-8.784-3.273-10.662-4.485a1.17 1.17 0 0 0-.606-.182z"/></g><path d="M59.507 11.091l-6.724 7.636-2.241-1.758c-.969-.788-2.423-.667-3.211.364-.788.97-.666 2.424.364 3.212l5.634 4.546 9.632-11.03c.848-.97.727-2.364-.242-3.212s-2.362-.727-3.211.242z" fill="#ebece9"/><path d="M63.929 12.364c-.06-.727-.363-1.394-.909-1.879-1.151-.97-2.847-.849-3.877.242l-6.421 7.394-1.878-1.515c-1.151-.97-2.908-.788-3.816.424-.485.546-.666 1.273-.606 2s.424 1.394.969 1.818l5.937 4.788 9.935-11.333c.485-.485.727-1.212.666-1.939zm-15.992 7.818c-.364-.303-.606-.727-.666-1.212s.121-.97.424-1.333a1.84 1.84 0 0 1 1.454-.667c.424 0 .848.121 1.151.424l2.544 2.061 7.027-8c.666-.788 1.817-.848 2.605-.182.363.303.606.788.606 1.273.06.485-.121.97-.424 1.333l-9.389 10.606-5.331-4.303z" fill="#22417d"/><path d="M91.552 65.091c-1.636 1.091-5.452 3.273-10.177 4.303-.727.182-1.272.788-1.272 1.576v12.667c0 1.333.182 2.667.606 3.939.848 2.788 2.605 5.212 4.907 6.909l6.24 4.545c.364.243.787.243 1.09 0l6.239-4.545c2.363-1.697 4.059-4.121 4.907-6.909.363-1.273.606-2.606.606-3.939V70.909c0-.727-.545-1.394-1.272-1.576-4.665-.97-8.542-3.212-10.177-4.303-.485-.303-1.151-.303-1.696.061z" fill="#9fefde"/><g fill="#244583"><path d="M103.789 68.667c-4.785-1.03-8.723-3.333-10.237-4.303-.666-.424-1.575-.424-2.241 0-1.454.97-5.452 3.333-10.238 4.303-.969.182-1.636 1.03-1.636 2v12.909c0 1.394.182 2.788.606 4.121.909 2.909 2.726 5.455 5.21 7.273l6.361 4.606c.242.182.545.242.848.242s.606-.121.848-.242l6.361-4.606a14.39 14.39 0 0 0 5.21-7.273c.424-1.333.605-2.727.605-4.121V70.667c-.06-.97-.787-1.818-1.696-2zm.727 2v12.909c0 1.333-.182 2.606-.606 3.879-.848 2.727-2.544 5.151-4.846 6.788l-6.361 4.606a.55.55 0 0 1-.606 0l-6.361-4.606c-2.302-1.697-3.998-4.061-4.846-6.788-.364-1.273-.606-2.545-.606-3.879V70.667c0-.545.364-1.03.969-1.151 4.786-1.03 8.663-3.212 10.54-4.424.364-.243.909-.243 1.272 0 1.878 1.212 5.755 3.454 10.54 4.424.546.121.909.606.909 1.151z"/><path d="M92.401 100c-.303 0-.606-.121-.909-.303l-6.361-4.606a14.19 14.19 0 0 1-5.21-7.333c-.424-1.333-.606-2.727-.606-4.182V70.667c0-1.03.727-1.939 1.757-2.121 4.786-1.03 8.723-3.333 10.177-4.303a2.1 2.1 0 0 1 2.362 0c1.454.97 5.391 3.273 10.177 4.303 1.03.242 1.757 1.091 1.757 2.121v12.909c0 1.394-.182 2.848-.606 4.182-.909 2.909-2.726 5.515-5.21 7.333l-6.361 4.606c-.303.182-.606.303-.969.303zm0-35.879c-.363 0-.727.121-1.03.303-1.454.97-5.452 3.333-10.298 4.364-.909.182-1.575.97-1.575 1.879v12.909c0 1.394.182 2.788.606 4.121.909 2.848 2.726 5.454 5.149 7.212l6.361 4.606c.424.303 1.09.303 1.514 0l6.361-4.606c2.423-1.758 4.241-4.303 5.149-7.212.424-1.333.606-2.727.606-4.121V70.667c0-.909-.666-1.697-1.575-1.879-4.786-1.03-8.784-3.394-10.298-4.364-.242-.182-.606-.303-.969-.303zm0 34.97c-.121 0-.242-.061-.363-.121l-6.361-4.606c-2.302-1.697-4.059-4.121-4.907-6.849-.364-1.273-.606-2.606-.606-3.939V70.667c0-.606.424-1.152 1.03-1.273 4.725-1.03 8.602-3.212 10.48-4.424a1.18 1.18 0 0 1 1.393 0c1.878 1.212 5.755 3.454 10.48 4.424.606.121 1.03.667 1.03 1.273v12.909c0 1.333-.182 2.667-.606 3.939-.848 2.727-2.605 5.152-4.907 6.849l-6.361 4.606c0 .121-.182.121-.303.121zm0-34.061a1.17 1.17 0 0 0-.606.182c-1.878 1.212-5.815 3.455-10.54 4.485-.485.121-.848.545-.848 1.03v12.909c0 1.333.182 2.606.606 3.818.848 2.667 2.544 5.091 4.846 6.727l6.361 4.606a.37.37 0 0 0 .485 0l6.361-4.606c2.302-1.636 3.998-4.061 4.846-6.727.364-1.273.606-2.545.606-3.818V70.727c0-.485-.363-.909-.848-1.03-4.786-1.03-8.663-3.212-10.541-4.485-.303-.182-.485-.182-.727-.182z"/></g><path d="M96.702 74.97l-6.724 7.697-2.181-1.758c-.969-.788-2.423-.667-3.211.364-.787.97-.666 2.424.364 3.212l5.634 4.545L100.215 78c.848-.97.727-2.364-.242-3.212s-2.423-.788-3.271.182z" fill="#ebece9"/><path d="M101.124 76.303c-.061-.727-.364-1.394-.909-1.879-1.151-.97-2.847-.848-3.877.243l-6.482 7.394-1.878-1.515c-1.151-.97-2.908-.788-3.816.424-.485.545-.666 1.273-.606 2a2.59 2.59 0 0 0 .969 1.818l5.937 4.788 9.935-11.333c.545-.545.787-1.212.727-1.939zm-15.993 7.758c-.363-.303-.606-.727-.666-1.212s.121-.97.424-1.333a1.84 1.84 0 0 1 1.454-.667c.424 0 .848.121 1.151.424l2.544 2.061 7.027-8c.666-.788 1.817-.848 2.605-.182.363.303.606.788.606 1.273.06.485-.122.97-.424 1.333l-9.329 10.667-5.391-4.364z" fill="#244583"/><path d="M72.652 33.394c-1.636 1.091-5.452 3.273-10.177 4.303-.727.182-1.272.788-1.272 1.576v12.667c0 1.333.182 2.667.606 3.939.848 2.788 2.605 5.212 4.907 6.909l6.24 4.545c.363.242.787.242 1.09 0l6.239-4.545c2.362-1.697 4.059-4.121 4.907-6.909.364-1.273.606-2.606.606-3.939V39.212c0-.727-.545-1.394-1.272-1.576-4.664-.97-8.541-3.212-10.177-4.303-.485-.303-1.151-.303-1.696.061z" fill="#9fefde"/><g fill="#22417d"><path d="M84.889 36.97c-4.786-1.03-8.723-3.333-10.238-4.303-.666-.424-1.575-.424-2.241 0-1.454.97-5.452 3.333-10.238 4.303-.969.182-1.636 1.03-1.636 2v12.909c0 1.394.182 2.788.606 4.121.909 2.909 2.726 5.455 5.21 7.273l6.361 4.606c.242.182.545.242.848.242s.606-.121.848-.242l6.361-4.606c2.423-1.758 4.301-4.364 5.21-7.273.424-1.333.606-2.727.606-4.121V39.03c-.061-.97-.727-1.818-1.696-2.061zm.787 2.061v12.909c0 1.333-.182 2.606-.606 3.879-.848 2.727-2.544 5.152-4.846 6.788l-6.361 4.606a.55.55 0 0 1-.606 0l-6.361-4.606c-2.302-1.697-3.998-4.061-4.846-6.788-.363-1.273-.606-2.545-.606-3.879V39.03c0-.545.363-1.03.969-1.151 4.786-1.03 8.663-3.212 10.541-4.424.363-.242.909-.242 1.272 0 1.878 1.212 5.755 3.455 10.54 4.424.485.061.909.546.909 1.151z"/><path d="M73.561 68.303c-.303 0-.606-.121-.909-.303l-6.361-4.606a14.19 14.19 0 0 1-5.21-7.333c-.424-1.333-.606-2.727-.606-4.182V39.03c0-1.03.727-1.939 1.757-2.121 4.786-1.03 8.723-3.333 10.177-4.303a2.1 2.1 0 0 1 2.362 0c1.454.97 5.391 3.273 10.177 4.303 1.03.242 1.757 1.091 1.757 2.121v12.909c0 1.394-.182 2.849-.606 4.182-.909 2.909-2.726 5.515-5.21 7.333l-6.361 4.606c-.363.182-.666.242-.969.242zm0-35.879c-.363 0-.727.121-1.03.303-1.454.97-5.452 3.333-10.298 4.364-.909.182-1.575.97-1.575 1.879v12.909c0 1.394.182 2.788.606 4.121.909 2.849 2.726 5.455 5.149 7.212l6.361 4.606a1.38 1.38 0 0 0 1.514 0l6.361-4.606c2.423-1.758 4.24-4.303 5.149-7.212.424-1.333.606-2.727.606-4.121V39.03c0-.909-.666-1.697-1.575-1.879-4.786-1.03-8.784-3.394-10.298-4.364-.242-.242-.606-.364-.969-.364zm0 35.03c-.121 0-.242-.061-.363-.121l-6.361-4.606c-2.302-1.697-4.059-4.121-4.907-6.849-.364-1.273-.606-2.606-.606-3.939V39.03c0-.606.424-1.151 1.03-1.273 4.725-1.03 8.602-3.212 10.48-4.424a1.18 1.18 0 0 1 1.393 0c1.878 1.212 5.755 3.455 10.48 4.424.606.121 1.03.667 1.03 1.273v12.909c0 1.333-.182 2.667-.606 3.939-.848 2.727-2.605 5.151-4.907 6.849l-6.361 4.606c-.061.061-.182.121-.303.121zm0-34.121a1.17 1.17 0 0 0-.606.182C71.077 34.727 67.14 36.97 62.415 38c-.485.121-.848.545-.848 1.03v12.909c0 1.333.182 2.606.606 3.818.848 2.667 2.544 5.091 4.846 6.727l6.361 4.606a.37.37 0 0 0 .485 0l6.361-4.606c2.302-1.636 3.998-4.061 4.846-6.727.363-1.273.606-2.545.606-3.818V39.03c0-.485-.363-.909-.848-1.03-4.786-1.03-8.662-3.212-10.54-4.485-.363-.121-.545-.182-.727-.182z"/></g><path d="M76.953 49.515l2.787-2.788a2.23 2.23 0 0 0 0-3.212 2.23 2.23 0 0 0-3.211 0l-2.787 2.788-2.787-2.788a2.23 2.23 0 0 0-3.211 0 2.23 2.23 0 0 0 0 3.212l2.787 2.788-2.787 2.788a2.23 2.23 0 0 0 0 3.212 2.23 2.23 0 0 0 3.211 0l2.787-2.788 2.787 2.788a2.23 2.23 0 0 0 3.211 0 2.23 2.23 0 0 0 0-3.212l-2.787-2.788z" fill="#ebece9"/><path d="M78.165 56.606c-.727 0-1.393-.303-1.878-.788l-2.484-2.485-2.484 2.485c-.485.485-1.151.788-1.878.788s-1.393-.303-1.878-.788a2.66 2.66 0 0 1-.788-1.879 2.66 2.66 0 0 1 .788-1.879l2.484-2.485-2.484-2.485a2.66 2.66 0 0 1-.788-1.879 2.66 2.66 0 0 1 .788-1.879 2.67 2.67 0 0 1 3.756 0l2.484 2.485 2.484-2.485c.485-.485 1.151-.788 1.878-.788s1.393.303 1.878.788a2.66 2.66 0 0 1 .788 1.879 2.66 2.66 0 0 1-.788 1.879l-2.484 2.485 2.484 2.485c1.03 1.03 1.03 2.727 0 3.758-.545.485-1.212.788-1.878.788zm-4.422-4.485l3.089 3.091c.666.667 1.878.667 2.605 0a1.83 1.83 0 0 0 0-2.606l-3.089-3.091 3.089-3.091a1.83 1.83 0 0 0 0-2.606c-.727-.727-1.878-.727-2.605 0l-3.089 3.091-3.09-3.091c-.727-.727-1.878-.727-2.605 0-.364.364-.545.788-.545 1.273s.182.97.545 1.273l3.089 3.091-3.089 3.091c-.364.364-.545.788-.545 1.273s.182.97.545 1.273c.666.667 1.878.667 2.605 0l3.09-2.97z" fill="#22417d"/></svg>