<svg width="106" height="100" viewBox="0 0 106 100" fill="none" xmlns="http://www.w3.org/2000/svg">
<path d="M83.9197 81.5152C83.9197 81.8789 83.3745 82.1819 82.7081 82.1819H27.6432C26.9769 82.1819 26.4317 81.8789 26.4317 81.5152C26.4317 81.1516 26.9769 80.8485 27.6432 80.8485H82.7081C83.3745 80.7879 83.9197 81.091 83.9197 81.5152Z" fill="#244583"/>
<path d="M60.7791 17.7576C60.7791 18.1212 60.4762 18.4242 60.1127 18.4242H30.975C30.6115 18.4242 30.3086 18.1212 30.3086 17.7576C30.3086 17.3939 30.6115 17.0909 30.975 17.0909H60.1733C60.5368 17.0303 60.7791 17.3939 60.7791 17.7576Z" fill="#244583"/>
<path d="M73.6215 49.5152C73.6215 49.8788 73.1975 50.1818 72.7128 50.1818H31.2173C30.7327 50.1818 30.3086 49.8788 30.3086 49.5152C30.3086 49.1515 30.7327 48.8485 31.2173 48.8485H72.6523C73.1975 48.8485 73.6215 49.1515 73.6215 49.5152Z" fill="#244583"/>
<path d="M8.01612 97.0303C8.44016 97.0303 8.74305 96.7272 8.74305 96.303C8.74305 95.8788 8.44016 95.5757 8.01612 95.5757C4.92667 95.5151 2.44299 92.9697 2.44299 89.8788V85.8788C2.44299 85.4545 2.14011 85.1515 1.71607 85.1515C1.29202 85.1515 0.989136 85.4545 0.989136 85.8788V89.8788C0.989136 93.7575 4.07859 96.9697 8.01612 97.0303Z" fill="#244583"/>
<path d="M10.9844 97.0909H15.8306C16.2546 97.0909 16.5575 96.7879 16.5575 96.3636C16.5575 95.9394 16.2546 95.6364 15.8306 95.6364H10.9844C10.5604 95.6364 10.2575 95.9394 10.2575 96.3636C10.2575 96.7879 10.6209 97.0909 10.9844 97.0909Z" fill="#244583"/>
<path d="M7.7132 6.90912H27.522C28.9759 6.90912 30.1874 8.12124 30.1874 9.57579V25.8182C30.1874 27.2728 28.9759 28.4849 28.6124 28.4849H8.86417C6.25934 28.4849 5.10837 27.2728 5.10837 25.8182V9.57579C5.10837 8.06063 6.25934 6.90912 7.7132 6.90912Z" fill="#9FEFDE"/>
<path d="M27.5827 6.90912H7.71326C6.2594 6.90912 5.04785 8.12124 5.04785 9.57579V10.6667H23.524C25.2807 10.6667 26.7952 12.1212 26.7952 13.9394V28.5455H27.5827C29.0365 28.5455 30.2481 27.3334 30.2481 25.8788V9.57579C30.2481 8.06063 29.0365 6.90912 27.5827 6.90912Z" fill="#24C4A1"/>
<path d="M26.9163 29.2121H9.16706C6.74396 29.2121 4.80548 27.2121 4.80548 24.8485V10.4242C4.80548 8 6.80454 6.06061 9.16706 6.06061H26.9163C29.3394 6.06061 31.2778 8.06061 31.2778 10.4242V24.8485C31.2778 27.2121 29.3394 29.2121 26.9163 29.2121ZM9.16706 7.51515C7.59204 7.51515 6.25934 8.78788 6.25934 10.4242V24.8485C6.25934 26.4242 7.53147 27.7576 9.16706 27.7576H26.9163C28.4913 27.7576 29.824 26.4848 29.824 24.8485V10.4242C29.824 8.84849 28.5518 7.51515 26.9163 7.51515H9.16706Z" fill="#244583"/>
<path d="M7.7132 70.6061H27.522C28.9759 70.6061 30.1874 71.8182 30.1874 73.2727V89.5152C30.1874 90.9697 28.9759 92.1818 28.6124 92.1818H8.86417C6.25934 92.1818 5.10837 90.9697 5.10837 89.5152V73.2727C5.10837 71.8182 6.25934 70.6061 7.7132 70.6061Z" fill="#9FEFDE"/>
<path d="M27.5827 70.6061H7.71326C6.2594 70.6061 5.04785 71.8182 5.04785 73.2727V74.3637H23.524C25.2807 74.3637 26.7952 75.8182 26.7952 77.6364V92.2424H27.5827C29.0365 92.2424 30.2481 91.0303 30.2481 89.5758V73.3334C30.2481 71.8182 29.0365 70.6061 27.5827 70.6061Z" fill="#24C4A1"/>
<path d="M26.9163 92.9697H9.16706C6.74396 92.9697 4.80548 90.9697 4.80548 88.6061V74.1819C4.80548 71.7576 6.80454 69.8182 9.16706 69.8182H26.9163C29.3394 69.8182 31.2778 71.8182 31.2778 74.1819V88.6061C31.2778 90.9697 29.3394 92.9697 26.9163 92.9697ZM9.16706 71.2728C7.59204 71.2728 6.25934 72.5455 6.25934 74.1819V88.6061C6.25934 90.1819 7.53147 91.5152 9.16706 91.5152H26.9163C28.4913 91.5152 29.824 90.2425 29.824 88.6061V74.1819C29.824 72.6061 28.5518 71.2728 26.9163 71.2728H9.16706Z" fill="#244583"/>
<path d="M7.7132 39.2122H27.522C28.9759 39.2122 30.1874 40.4243 30.1874 41.8788V58.1213C30.1874 59.5758 28.9759 60.7879 28.6124 60.7879H8.86417C6.25934 60.7879 5.10837 59.5758 5.10837 58.1213V41.8788C5.10837 40.4243 6.25934 39.2122 7.7132 39.2122Z" fill="#FED19A"/>
<path d="M27.5827 39.2122H7.71326C6.2594 39.2122 5.04785 40.4243 5.04785 41.8788V42.9697H23.524C25.2807 42.9697 26.7952 44.4243 26.7952 46.2425V60.8485H27.5827C29.0365 60.8485 30.2481 59.6364 30.2481 58.1819V41.8788C30.2481 40.4243 29.0365 39.2122 27.5827 39.2122Z" fill="#FEBF2D"/>
<path d="M26.9163 61.5152H9.16706C6.74396 61.5152 4.80548 59.5152 4.80548 57.1515V42.7273C4.80548 40.303 6.80454 38.3636 9.16706 38.3636H26.9163C29.3394 38.3636 31.2778 40.3636 31.2778 42.7273V57.1515C31.2778 59.5758 29.3394 61.5152 26.9163 61.5152ZM9.16706 39.8788C7.59204 39.8788 6.25934 41.1515 6.25934 42.7879V57.2121C6.25934 58.7879 7.53147 60.1212 9.16706 60.1212H26.9163C28.4913 60.1212 29.824 58.8485 29.824 57.2121V42.7273C29.824 41.1515 28.5518 39.8182 26.9163 39.8182H9.16706V39.8788Z" fill="#244583"/>
<path d="M54.3578 1.15153C52.7222 2.24244 48.8453 4.48486 44.1808 5.45456C43.4539 5.63638 42.9087 6.24244 42.9087 7.03032V19.697C42.9087 21.0303 43.0904 22.3637 43.5145 23.6364C44.3626 26.4243 46.1193 28.8485 48.4212 30.5455L54.6607 35.0909C55.0242 35.3334 55.4482 35.3334 55.7511 35.0909L61.9906 30.5455C64.3531 28.8485 66.0493 26.4243 66.8974 23.6364C67.2608 22.3637 67.5031 21.0303 67.5031 19.697V7.03032C67.5031 6.30304 66.9579 5.63638 66.231 5.45456C61.5665 4.48486 57.6896 2.24244 56.054 1.15153C55.5694 0.848498 54.8425 0.848498 54.3578 1.15153Z" fill="#9FEFDE"/>
<path d="M66.534 4.7879C61.7483 3.7576 57.8108 1.45457 56.2964 0.484869C55.63 0.0606264 54.7214 0.0606264 54.055 0.484869C52.6011 1.45457 48.603 3.8182 43.8174 4.7879C42.9088 4.96972 42.1818 5.8182 42.1818 6.7879V19.697C42.1818 21.0909 42.3636 22.4849 42.7876 23.8182C43.6963 26.7273 45.5136 29.2727 47.9973 31.0909L54.3579 35.697C54.6002 35.8788 54.9031 35.9394 55.206 35.9394C55.5089 35.9394 55.8118 35.8182 56.0541 35.697L62.4147 31.0909C64.8378 29.3334 66.7157 26.7273 67.6244 23.8182C68.0484 22.4849 68.2301 21.0909 68.2301 19.697V6.7879C68.2301 5.8182 67.5032 4.96972 66.534 4.7879ZM67.3215 6.7879V19.697C67.3215 21.0303 67.1397 22.3031 66.7157 23.5758C65.8676 26.3031 64.1714 28.7273 61.8695 30.3637L55.5089 35.0303C55.3271 35.1515 55.0848 35.1515 54.9031 35.0303L48.5425 30.4243C46.2405 28.7273 44.5443 26.3637 43.6963 23.6364C43.3328 22.3637 43.0905 21.0909 43.0905 19.7576V6.7879C43.0905 6.24244 43.4539 5.7576 44.0597 5.63638C48.7848 4.60608 52.6617 2.42426 54.5396 1.15154C54.9031 0.909111 55.4483 0.909111 55.8117 1.15154C57.6896 2.36366 61.5666 4.60608 66.3522 5.57578C66.958 5.7576 67.3215 6.24244 67.3215 6.7879Z" fill="#22417D"/>
<path d="M55.2059 36.1212C54.9031 36.1212 54.6002 36 54.2973 35.8182L47.9367 31.2121C45.453 29.3939 43.6357 26.8485 42.727 23.8788C42.3029 22.5455 42.1212 21.1515 42.1212 19.697V6.78788C42.1212 5.75758 42.8481 4.84848 43.878 4.66667C48.603 3.63636 52.5405 1.33333 54.055 0.363636C54.7819 -0.121212 55.6906 -0.121212 56.4175 0.363636C57.8714 1.33333 61.8089 3.63636 66.5945 4.66667C67.6243 4.90909 68.3513 5.75758 68.3513 6.78788V19.697C68.3513 21.0909 68.1695 22.5455 67.7455 23.8788C66.8368 26.7879 65.0195 29.3939 62.5358 31.2121L56.1146 35.8182C55.8117 36 55.5088 36.1212 55.2059 36.1212ZM55.2059 0.242424C54.8425 0.242424 54.479 0.363636 54.1761 0.545455C52.7223 1.51515 48.7242 3.87879 43.878 4.90909C42.9693 5.09091 42.3029 5.87879 42.3029 6.78788V19.697C42.3029 21.0909 42.4847 22.4848 42.9087 23.8182C43.8174 26.6667 45.6347 29.2727 48.0578 31.0303L54.4184 35.6364C54.8425 35.9394 55.5088 35.9394 55.9329 35.6364L62.2935 31.0303C64.7166 29.2727 66.5339 26.7273 67.4426 23.8182C67.8666 22.4848 68.0484 21.0909 68.0484 19.697V6.78788C68.0484 5.87879 67.382 5.09091 66.4734 4.90909C61.6877 3.87879 57.6896 1.51515 56.1752 0.545455C55.9329 0.30303 55.5694 0.242424 55.2059 0.242424ZM55.2059 35.2121C55.0848 35.2121 54.9636 35.1515 54.8425 35.0909L48.4819 30.4848C46.1799 28.7879 44.4232 26.3636 43.5751 23.6364C43.2116 22.3636 42.9693 21.0303 42.9693 19.697V6.78788C42.9693 6.18182 43.3933 5.63636 43.9991 5.51515C48.7242 4.48485 52.6011 2.30303 54.479 1.09091C54.9031 0.787879 55.4483 0.787879 55.8723 1.09091C57.7502 2.30303 61.6272 4.54545 66.3522 5.51515C66.958 5.63636 67.382 6.18182 67.382 6.78788V19.697C67.382 21.0303 67.2003 22.3636 66.7762 23.6364C65.9282 26.3636 64.1714 28.7879 61.8695 30.4848L55.5088 35.0909C55.4483 35.1515 55.3271 35.2121 55.2059 35.2121ZM55.2059 1.09091C55.0242 1.09091 54.7819 1.15152 54.6002 1.27273C52.7223 2.48485 48.7847 4.72727 44.0597 5.75758C43.5751 5.87879 43.2116 6.30303 43.2116 6.78788V19.697C43.2116 21.0303 43.3933 22.303 43.8174 23.5152C44.6655 26.1818 46.3616 28.6061 48.6636 30.2424L55.0242 34.8485C55.1454 34.9697 55.3877 34.9697 55.5088 34.8485L61.8695 30.2424C64.1714 28.6061 65.8676 26.1818 66.7157 23.5152C67.0791 22.2424 67.3214 20.9697 67.3214 19.697V6.78788C67.3214 6.30303 66.958 5.87879 66.4734 5.75758C61.5666 4.72727 57.6896 2.48485 55.8117 1.27273C55.63 1.15152 55.3877 1.09091 55.2059 1.09091Z" fill="#22417D"/>
<path d="M59.507 11.0909L52.7829 18.7273L50.5415 16.9697C49.5723 16.1818 48.1184 16.303 47.3309 17.3333C46.5434 18.303 46.6646 19.7576 47.6944 20.5454L53.3281 25.0909L62.9599 14.0606C63.808 13.0909 63.6868 11.697 62.7176 10.8485C61.7483 9.99999 60.3551 10.1212 59.507 11.0909Z" fill="#EBECE9"/>
<path d="M63.9291 12.3636C63.8686 11.6364 63.5657 10.9697 63.0205 10.4849C61.8695 9.51515 60.1733 9.63637 59.1435 10.7273L52.7223 18.1212L50.8444 16.6061C49.6934 15.6364 47.9367 15.8182 47.028 17.0303C46.5434 17.5758 46.3617 18.303 46.4223 19.0303C46.4828 19.7576 46.8463 20.4242 47.3915 20.8485L53.3281 25.6364L63.2628 14.303C63.7474 13.8182 63.9897 13.0909 63.9291 12.3636ZM47.9367 20.1818C47.5732 19.8788 47.3309 19.4545 47.2703 18.9697C47.2098 18.4849 47.3915 18 47.6944 17.6364C48.0578 17.2121 48.5425 16.9697 49.1482 16.9697C49.5723 16.9697 49.9963 17.0909 50.2992 17.3939L52.8435 19.4545L59.8704 11.4545C60.5368 10.6667 61.6878 10.6061 62.4753 11.2727C62.8387 11.5758 63.0811 12.0606 63.0811 12.5455C63.1416 13.0303 62.9599 13.5152 62.657 13.8788L53.2675 24.4849L47.9367 20.1818Z" fill="#22417D"/>
<path d="M91.5524 65.0909C89.9168 66.1818 86.1004 68.3636 81.3754 69.3939C80.6485 69.5757 80.1033 70.1818 80.1033 70.9697V83.6363C80.1033 84.9697 80.285 86.303 80.709 87.5757C81.5571 90.3636 83.3139 92.7878 85.6158 94.4848L91.8553 99.0302C92.2188 99.2727 92.6428 99.2727 92.9457 99.0302L99.1852 94.4848C101.548 92.7878 103.244 90.3636 104.092 87.5757C104.455 86.303 104.698 84.9697 104.698 83.6363V70.9091C104.698 70.1818 104.153 69.5151 103.426 69.3333C98.7611 68.3636 94.8842 66.1212 93.2486 65.0303C92.764 64.7272 92.0976 64.7272 91.5524 65.0909Z" fill="#9FEFDE"/>
<path d="M103.789 68.6666C99.0035 67.6363 95.066 65.3333 93.5516 64.3636C92.8852 63.9393 91.9766 63.9393 91.3102 64.3636C89.8563 65.3333 85.8582 67.6969 81.0726 68.6666C80.1034 68.8484 79.437 69.6969 79.437 70.6666V83.5757C79.437 84.9697 79.6187 86.3636 80.0428 87.6969C80.9514 90.606 82.7688 93.1515 85.2525 94.9697L91.6131 99.5757C91.8554 99.7575 92.1583 99.8181 92.4612 99.8181C92.7641 99.8181 93.0669 99.6969 93.3092 99.5757L99.6699 94.9697C102.093 93.2121 103.971 90.606 104.88 87.6969C105.304 86.3636 105.485 84.9697 105.485 83.5757V70.6666C105.425 69.6969 104.698 68.8484 103.789 68.6666ZM104.516 70.6666V83.5757C104.516 84.909 104.334 86.1818 103.91 87.4545C103.062 90.1818 101.366 92.606 99.0641 94.2424L92.7035 98.8484C92.5217 98.9697 92.2794 98.9697 92.0977 98.8484L85.7371 94.2424C83.4351 92.5454 81.739 90.1818 80.8909 87.4545C80.5274 86.1818 80.2851 84.909 80.2851 83.5757V70.6666C80.2851 70.1212 80.6486 69.6363 81.2543 69.5151C86.04 68.4848 89.9169 66.303 91.7948 65.0909C92.1583 64.8484 92.7035 64.8484 93.0669 65.0909C94.9448 66.303 98.8218 68.5454 103.607 69.5151C104.153 69.6363 104.516 70.1212 104.516 70.6666Z" fill="#244583"/>
<path d="M92.4005 100C92.0976 100 91.7948 99.8788 91.4919 99.697L85.1312 95.0909C82.6476 93.2727 80.8302 90.7273 79.9216 87.7576C79.4975 86.4242 79.3158 85.0303 79.3158 83.5758V70.6667C79.3158 69.6364 80.0427 68.7273 81.0725 68.5455C85.8582 67.5151 89.7957 65.2121 91.2496 64.2424C91.9765 63.7576 92.8851 63.7576 93.6121 64.2424C95.0659 65.2121 99.0035 67.5151 103.789 68.5455C104.819 68.7879 105.546 69.6364 105.546 70.6667V83.5758C105.546 84.9697 105.364 86.4242 104.94 87.7576C104.031 90.6667 102.214 93.2727 99.7304 95.0909L93.3698 99.697C93.0669 99.8788 92.764 100 92.4005 100ZM92.4005 64.1212C92.0371 64.1212 91.6736 64.2424 91.3707 64.4242C89.9169 65.3939 85.9187 67.7576 81.0725 68.7879C80.1639 68.9697 79.4975 69.7576 79.4975 70.6667V83.5758C79.4975 84.9697 79.6793 86.3636 80.1033 87.697C81.012 90.5454 82.8293 93.1515 85.2524 94.9091L91.613 99.5151C92.0371 99.8182 92.7034 99.8182 93.1275 99.5151L99.4881 94.9091C101.911 93.1515 103.729 90.6061 104.637 87.697C105.061 86.3636 105.243 84.9697 105.243 83.5758V70.6667C105.243 69.7576 104.577 68.9697 103.668 68.7879C98.8823 67.7576 94.8842 65.3939 93.3698 64.4242C93.1275 64.2424 92.764 64.1212 92.4005 64.1212ZM92.4005 99.0909C92.2794 99.0909 92.1582 99.0303 92.0371 98.9697L85.6764 94.3636C83.3745 92.6667 81.6177 90.2424 80.7697 87.5151C80.4062 86.2424 80.1639 84.9091 80.1639 83.5758V70.6667C80.1639 70.0606 80.5879 69.5151 81.1937 69.3939C85.9187 68.3636 89.7957 66.1818 91.6736 64.9697C92.0976 64.6667 92.6428 64.6667 93.0669 64.9697C94.9448 66.1818 98.8217 68.4242 103.547 69.3939C104.153 69.5151 104.577 70.0606 104.577 70.6667V83.5758C104.577 84.9091 104.395 86.2424 103.971 87.5151C103.123 90.2424 101.366 92.6667 99.064 94.3636L92.7034 98.9697C92.7034 99.0909 92.5217 99.0909 92.4005 99.0909ZM92.4005 65.0303C92.2188 65.0303 91.9765 65.0909 91.7948 65.2121C89.9168 66.4242 85.9793 68.6667 81.2543 69.697C80.7697 69.8182 80.4062 70.2424 80.4062 70.7273V83.6364C80.4062 84.9697 80.5879 86.2424 81.012 87.4545C81.8601 90.1212 83.5562 92.5454 85.8582 94.1818L92.2188 98.7879C92.34 98.9091 92.5823 98.9091 92.7034 98.7879L99.064 94.1818C101.366 92.5454 103.062 90.1212 103.91 87.4545C104.274 86.1818 104.516 84.9091 104.516 83.6364V70.7273C104.516 70.2424 104.153 69.8182 103.668 69.697C98.8823 68.6667 95.0054 66.4848 93.1275 65.2121C92.8246 65.0303 92.6428 65.0303 92.4005 65.0303Z" fill="#244583"/>
<path d="M96.7015 74.9697L89.9774 82.6667L87.7966 80.9091C86.8274 80.1212 85.3735 80.2425 84.586 81.2728C83.7985 82.2425 83.9197 83.697 84.9495 84.4849L90.5832 89.0303L100.215 78C101.063 77.0303 100.942 75.6364 99.9727 74.7879C99.0035 73.9394 97.5496 74 96.7015 74.9697Z" fill="#EBECE9"/>
<path d="M101.124 76.303C101.063 75.5758 100.76 74.9091 100.215 74.4242C99.0641 73.4545 97.3679 73.5758 96.3381 74.6667L89.8563 82.0606L87.9784 80.5454C86.8274 79.5757 85.0707 79.7576 84.162 80.9697C83.6774 81.5151 83.4956 82.2424 83.5562 82.9697C83.6168 83.697 83.9803 84.3636 84.5255 84.7879L90.4621 89.5757L100.397 78.2424C100.942 77.697 101.184 77.0303 101.124 76.303ZM85.1312 84.0606C84.7678 83.7576 84.5255 83.3333 84.4649 82.8485C84.4043 82.3636 84.586 81.8788 84.8889 81.5151C85.2524 81.0909 85.737 80.8485 86.3428 80.8485C86.7668 80.8485 87.1909 80.9697 87.4938 81.2727L90.038 83.3333L97.065 75.3333C97.7314 74.5455 98.8823 74.4848 99.6698 75.1515C100.033 75.4545 100.276 75.9394 100.276 76.4242C100.336 76.9091 100.154 77.3939 99.8516 77.7576L90.5226 88.4242L85.1312 84.0606Z" fill="#244583"/>
<path d="M72.6523 33.394C71.0167 34.4849 67.2003 36.6667 62.4753 37.697C61.7483 37.8788 61.2031 38.4849 61.2031 39.2728V51.9394C61.2031 53.2728 61.3849 54.6061 61.8089 55.8788C62.657 58.6667 64.4137 61.091 66.7157 62.7879L72.9552 67.3334C73.3186 67.5758 73.7427 67.5758 74.0455 67.3334L80.285 62.7879C82.6475 61.091 84.3437 58.6667 85.1918 55.8788C85.5553 54.6061 85.7976 53.2728 85.7976 51.9394V39.2122C85.7976 38.4849 85.2524 37.8182 84.5254 37.6364C79.861 36.6667 75.984 34.4243 74.3484 33.3334C73.8638 33.0303 73.1975 33.0303 72.6523 33.394Z" fill="#9FEFDE"/>
<path d="M84.8889 36.9697C80.1033 35.9394 76.1658 33.6364 74.6513 32.6667C73.985 32.2425 73.0763 32.2425 72.41 32.6667C70.9561 33.6364 66.958 36 62.1724 36.9697C61.2032 37.1515 60.5368 38 60.5368 38.9697V51.8788C60.5368 53.2728 60.7185 54.6667 61.1426 56C62.0512 58.9091 63.8686 61.4546 66.3522 63.2728L72.7129 67.8788C72.9552 68.0606 73.2581 68.1212 73.561 68.1212C73.8638 68.1212 74.1667 68 74.409 67.8788L80.7697 63.2728C83.1928 61.5152 85.0707 58.9091 85.9793 56C86.4034 54.6667 86.5851 53.2728 86.5851 51.8788V39.0303C86.5245 38.0606 85.8582 37.2121 84.8889 36.9697ZM85.6764 39.0303V51.9394C85.6764 53.2728 85.4947 54.5455 85.0707 55.8182C84.2226 58.5455 82.5264 60.9697 80.2245 62.6061L73.8638 67.2122C73.6821 67.3334 73.4398 67.3334 73.2581 67.2122L66.8974 62.6061C64.5955 60.9091 62.8993 58.5455 62.0512 55.8182C61.6878 54.5455 61.4455 53.2728 61.4455 51.9394V39.0303C61.4455 38.4849 61.8089 38 62.4147 37.8788C67.2003 36.8485 71.0773 34.6667 72.9552 33.4546C73.3186 33.2121 73.8638 33.2121 74.2273 33.4546C76.1052 34.6667 79.9822 36.9091 84.7678 37.8788C85.2524 37.9394 85.6764 38.4243 85.6764 39.0303Z" fill="#22417D"/>
<path d="M73.5609 68.303C73.258 68.303 72.9552 68.1818 72.6523 68L66.2916 63.3939C63.808 61.5758 61.9906 59.0303 61.082 56.0606C60.6579 54.7273 60.4762 53.3333 60.4762 51.8788V39.0303C60.4762 38 61.2031 37.0909 62.2329 36.9091C67.0186 35.8788 70.9561 33.5758 72.41 32.6061C73.1369 32.1212 74.0456 32.1212 74.7725 32.6061C76.2263 33.5758 80.1639 35.8788 84.9495 36.9091C85.9793 37.1515 86.7062 38 86.7062 39.0303V51.9394C86.7062 53.3333 86.5245 54.7879 86.1005 56.1212C85.1918 59.0303 83.3745 61.6364 80.8908 63.4546L74.5302 68.0606C74.1667 68.2424 73.8638 68.303 73.5609 68.303ZM73.5609 32.4243C73.1975 32.4243 72.834 32.5455 72.5311 32.7273C71.0773 33.697 67.0791 36.0606 62.2329 37.0909C61.3243 37.2727 60.6579 38.0606 60.6579 38.9697V51.8788C60.6579 53.2727 60.8397 54.6667 61.2637 56C62.1724 58.8485 63.9897 61.4546 66.4128 63.2121L72.7734 67.8182C73.1975 68.1212 73.8638 68.1212 74.2879 67.8182L80.6485 63.2121C83.0716 61.4546 84.8889 58.9091 85.7976 56C86.2216 54.6667 86.4034 53.2727 86.4034 51.8788V39.0303C86.4034 38.1212 85.737 37.3333 84.8283 37.1515C80.0427 36.1212 76.0446 33.7576 74.5302 32.7879C74.2879 32.5455 73.9244 32.4243 73.5609 32.4243ZM73.5609 67.4546C73.4398 67.4546 73.3186 67.3939 73.1975 67.3333L66.8368 62.7273C64.5349 61.0303 62.7781 58.6061 61.9301 55.8788C61.5666 54.6061 61.3243 53.2727 61.3243 51.9394V39.0303C61.3243 38.4243 61.7483 37.8788 62.3541 37.7576C67.0791 36.7273 70.9561 34.5455 72.834 33.3333C73.258 33.0303 73.8032 33.0303 74.2273 33.3333C76.1052 34.5455 79.9821 36.7879 84.7072 37.7576C85.313 37.8788 85.737 38.4243 85.737 39.0303V51.9394C85.737 53.2727 85.5553 54.6061 85.1312 55.8788C84.2831 58.6061 82.5264 61.0303 80.2245 62.7273L73.8638 67.3333C73.8032 67.3939 73.6821 67.4546 73.5609 67.4546ZM73.5609 33.3333C73.3792 33.3333 73.1369 33.3939 72.9552 33.5152C71.0773 34.7273 67.1397 36.9697 62.4147 38C61.9301 38.1212 61.5666 38.5455 61.5666 39.0303V51.9394C61.5666 53.2727 61.7483 54.5455 62.1724 55.7576C63.0205 58.4242 64.7166 60.8485 67.0186 62.4849L73.3792 67.0909C73.5004 67.2121 73.7427 67.2121 73.8638 67.0909L80.2245 62.4849C82.5264 60.8485 84.2226 58.4242 85.0707 55.7576C85.4341 54.4849 85.6764 53.2121 85.6764 51.9394V39.0303C85.6764 38.5455 85.313 38.1212 84.8283 38C80.0427 36.9697 76.1658 34.7879 74.2879 33.5152C73.9244 33.3939 73.7427 33.3333 73.5609 33.3333Z" fill="#22417D"/>
<path d="M76.9533 49.5151L79.7399 46.7272C80.6485 45.8181 80.6485 44.4242 79.7399 43.5151C78.8312 42.606 77.4379 42.606 76.5293 43.5151L73.7427 46.3029L70.9561 43.5151C70.0475 42.606 68.6542 42.606 67.7455 43.5151C66.8369 44.4242 66.8369 45.8181 67.7455 46.7272L70.5321 49.5151L67.7455 52.3029C66.8369 53.212 66.8369 54.606 67.7455 55.5151C68.6542 56.4242 70.0475 56.4242 70.9561 55.5151L73.7427 52.7272L76.5293 55.5151C77.4379 56.4242 78.8312 56.4242 79.7399 55.5151C80.6485 54.606 80.6485 53.212 79.7399 52.3029L76.9533 49.5151Z" fill="#EBECE9"/>
<path d="M78.1648 56.606C77.4379 56.606 76.7715 56.303 76.2869 55.8181L73.8032 53.3333L71.3196 55.8181C70.8349 56.303 70.1686 56.606 69.4417 56.606C68.7147 56.606 68.0484 56.303 67.5638 55.8181C67.0791 55.3333 66.7762 54.6666 66.7762 53.9394C66.7762 53.2121 67.0791 52.5454 67.5638 52.0606L70.0474 49.5757L67.5638 47.0909C67.0791 46.606 66.7762 45.9394 66.7762 45.2121C66.7762 44.4848 67.0791 43.8181 67.5638 43.3333C68.5936 42.303 70.2897 42.303 71.3196 43.3333L73.8032 45.8181L76.2869 43.3333C76.7715 42.8484 77.4379 42.5454 78.1648 42.5454C78.8917 42.5454 79.5581 42.8484 80.0427 43.3333C80.5273 43.8181 80.8302 44.4848 80.8302 45.2121C80.8302 45.9394 80.5273 46.606 80.0427 47.0909L77.559 49.5757L80.0427 52.0606C81.0725 53.0909 81.0725 54.7878 80.0427 55.8181C79.4975 56.303 78.8312 56.606 78.1648 56.606ZM73.7427 52.1212L76.8321 55.2121C77.4985 55.8787 78.71 55.8787 79.4369 55.2121C80.1639 54.4848 80.1639 53.3333 79.4369 52.606L76.3475 49.5151L79.4369 46.4242C80.1639 45.6969 80.1639 44.5454 79.4369 43.8181C78.71 43.0909 77.559 43.0909 76.8321 43.8181L73.7427 46.909L70.6532 43.8181C69.9263 43.0909 68.7753 43.0909 68.0484 43.8181C67.6849 44.1818 67.5032 44.606 67.5032 45.0909C67.5032 45.5757 67.6849 46.0606 68.0484 46.3636L71.1378 49.4545L68.0484 52.5454C67.6849 52.909 67.5032 53.3333 67.5032 53.8181C67.5032 54.303 67.6849 54.7878 68.0484 55.0909C68.7147 55.7575 69.9263 55.7575 70.6532 55.0909L73.7427 52.1212Z" fill="#22417D"/>
</svg>
