<svg xmlns="http://www.w3.org/2000/svg" width="72" height="83" fill="none" xmlns:v="https://vecta.io/nano"><path d="M.97 6.605v.001h.013c.295 0 .54-.244.542-.538.159-2.237 2.044-4.003 4.281-4.003h6.913c.279 0 .582-.189.582-.542a.59.59 0 0 0-.582-.582H5.805C2.979.94.605 3.151.4 5.976h0v.007c0 .16.046.306.146.418s.245.181.424.204zm15.708-4.54h2.532c.336 0 .582-.246.582-.582A.59.59 0 0 0 19.21.9h-2.532a.56.56 0 0 0-.582.582.59.59 0 0 0 .582.582z" fill="#244583" stroke="#244583" stroke-width=".2"/><path d="M53.771 18.062v-.007l-.12-10.604c-.002-1.218-1.033-2.248-2.248-2.248H6.831c-1.216 0-2.208.992-2.208 2.208v59.764c0 1.216.992 2.208 2.208 2.208h44.733c1.216 0 2.208-.992 2.208-2.208V18.062z" fill="#ebece9" stroke="#244583" stroke-width="1.2"/><path d="M53.131 7.451c0-.884-1.246-1.648-2.733-1.648h-2.853c1.487 0 2.733.723 2.733 1.648l.201 10.61v49.114c0 .884-1.165 1.608-2.653 1.608h2.854c1.447 0 2.653-.723 2.653-1.608V18.062l-.201-10.61z" fill="#c1c1c1"/><path d="M60.805 24.07v-.007l-.121-10.604c-.002-1.218-1.033-2.248-2.248-2.248H13.864c-1.216 0-2.208.992-2.208 2.208v59.764c0 1.216.992 2.208 2.208 2.208h44.733c1.216 0 2.208-.992 2.208-2.208V24.07z" fill="#ebece9" stroke="#244583" stroke-width="1.2"/><path d="M60.165 13.459c0-.884-1.246-1.648-2.733-1.648h-2.854c1.487 0 2.733.723 2.733 1.648l.201 10.611v49.114c0 .884-1.166 1.608-2.653 1.608h2.854c1.447 0 2.653-.723 2.653-1.608V24.07l-.201-10.611z" fill="#c1c1c1"/><path d="M70.127 64.808a.59.59 0 0 0 .582.582.59.59 0 0 0 .582-.582v-2.492a.56.56 0 0 0-.582-.582.59.59 0 0 0-.582.582v2.492zm0 13.58a.59.59 0 0 0 .582.582.59.59 0 0 0 .582-.582V68.099a.56.56 0 0 0-.582-.582.59.59 0 0 0-.582.582v10.289z" fill="#244583" stroke="#244583" stroke-width=".2"/><path d="M67.014 30.279v-.007l-.121-10.604c-.002-1.218-1.033-2.248-2.248-2.248H20.073c-1.216 0-2.208.992-2.208 2.208v59.764c0 1.216.992 2.208 2.208 2.208h44.733c1.216 0 2.208-.992 2.208-2.208V30.279z" fill="#ebece9" stroke="#244583" stroke-width="1.2"/><path d="M66.374 19.668c0-.884-1.246-1.648-2.733-1.648h-2.853c1.487 0 2.733.723 2.733 1.648l.201 10.611v49.114c0 .884-1.165 1.608-2.653 1.608h2.854c1.447 0 2.653-.723 2.653-1.608V30.279l-.201-10.611z" fill="#c1c1c1"/><path d="M41.616 30.922c-1.969 1.286-6.591 3.979-12.178 5.144a1.89 1.89 0 0 0-1.487 1.849v15.152c0 1.608.241 3.175.723 4.702 1.005 3.296 3.095 6.19 5.908 8.239l7.435 5.426c.402.281.924.281 1.367 0l7.435-5.426c2.813-2.05 4.903-4.943 5.908-8.239.482-1.487.724-3.095.724-4.702V37.955c0-.924-.643-1.648-1.487-1.849-5.707-1.206-10.289-3.858-12.299-5.185-.643-.362-1.447-.362-2.05 0z" fill="#9fefde"/><path d="M56.165 35.664c-.161-.04-.281-.04-.482-.08.281.322.442.764.442 1.206v15.554a16.31 16.31 0 0 1-.723 4.823c-1.045 3.376-3.296 6.39-6.23 8.48l-7.877 5.546c-.201.161-.402.201-.643.201l.804.563c.442.281 1.005.281 1.407 0l7.877-5.546c2.934-2.09 5.185-5.064 6.23-8.48.482-1.567.723-3.175.723-4.823V37.593c.08-.924-.603-1.728-1.527-1.929z" fill="#24c4a1"/><path d="M56.165 35.222c-5.747-1.206-10.45-4.019-12.218-5.185a2.44 2.44 0 0 0-2.653 0c-1.809 1.206-6.511 3.979-12.258 5.185a2.45 2.45 0 0 0-1.969 2.411v15.433c0 1.688.241 3.336.723 4.944 1.045 3.497 3.296 6.511 6.189 8.641l7.596 5.506c.281.201.643.322.965.322s.683-.08.965-.322l7.596-5.506c2.934-2.13 5.145-5.225 6.19-8.641a17.32 17.32 0 0 0 .723-4.944V37.674c.121-1.166-.683-2.211-1.849-2.452zm.924 2.452v15.433c0 1.608-.241 3.135-.683 4.662-1.005 3.255-3.054 6.149-5.788 8.119l-7.596 5.506c-.241.161-.522.161-.723 0l-7.636-5.506c-2.773-1.969-4.783-4.903-5.788-8.119-.482-1.487-.683-3.054-.683-4.662V37.674a1.38 1.38 0 0 1 1.165-1.367c5.707-1.206 10.329-3.818 12.58-5.305.482-.281 1.045-.281 1.567 0 2.211 1.447 6.833 4.099 12.499 5.305.643.08 1.085.683 1.085 1.367z" fill="#244583"/><path d="M47.725 42.778l-8.038 9.204-2.653-2.13c-1.166-.965-2.894-.764-3.858.402s-.764 2.894.402 3.818l6.712 5.386 11.495-13.143c1.005-1.125.884-2.854-.241-3.858-1.085-.924-2.813-.844-3.818.322z" fill="#ebece9"/><path d="M53.07 44.346c-.04-.884-.442-1.648-1.125-2.211a3.32 3.32 0 0 0-4.582.281l-7.757 8.762-2.211-1.809c-1.407-1.125-3.416-.924-4.582.482-.522.683-.804 1.487-.723 2.371s.522 1.648 1.206 2.17l7.114 5.747 11.857-13.544c.563-.523.844-1.407.804-2.251zM33.979 53.67c-.442-.402-.723-.924-.804-1.487-.04-.563.08-1.166.482-1.608a2.21 2.21 0 0 1 1.728-.804c.482 0 1.005.201 1.407.482l3.054 2.452 8.32-9.565c.804-.924 2.17-1.005 3.095-.201.442.402.723.924.764 1.487a2.35 2.35 0 0 1-.523 1.608L40.289 58.774l-6.31-5.104z" fill="#244583"/></svg>