<svg width="24px" height="24px" viewBox="0 0 24 24">
	<path fill="currentColor" d="M12.971 5.898H7.029v1.131h-.587V8.2h.587v1.209h-.587v1.17h.587v1.209h-.587v1.17h.587v1.131h5.937v-1.131h.587v-1.17h-.587v-1.209h.587v-1.17h-.587V8.2h.587V7.03h-.587V5.898h.004zm-1.174 4.689H8.204v-1.17h3.593v1.17zm0 2.344H8.204v-1.17h3.593v1.17zM8.204 8.243v-1.17h3.593v1.17H8.204zm11.463 4a13.52 13.52 0 0 0-.822-2.247c1.209-2.591 1.507-5.143.693-7.053A1.75 1.75 0 0 0 20 1.757 1.76 1.76 0 0 0 17.057.462c-1.91-.814-4.462-.517-7.053.693C9.256.802 8.501.528 7.757.333 5.115-.36 2.881.039 1.46 1.46S-.36 5.115.333 7.757a13.52 13.52 0 0 0 .822 2.247c-1.209 2.591-1.507 5.143-.693 7.053A1.75 1.75 0 0 0 0 18.243 1.76 1.76 0 0 0 1.757 20a1.76 1.76 0 0 0 1.186-.462c.724.309 1.538.458 2.415.458 1.432 0 3.029-.399 4.638-1.151a13.11 13.11 0 0 0 2.247.822c.845.223 1.652.333 2.403.333 1.589 0 2.932-.493 3.898-1.46 1.417-1.421 1.816-3.656 1.123-6.297zM18.239 1.174c.325 0 .587.262.587.587a.59.59 0 0 1-.587.587c-.325 0-.587-.262-.587-.587a.59.59 0 0 1 .587-.587zm-6.391.497c1.796-.603 3.428-.658 4.654-.172a1.87 1.87 0 0 0-.02.258 1.76 1.76 0 0 0 1.757 1.757 1.87 1.87 0 0 0 .258-.02c.489 1.229.431 2.857-.172 4.654l-.184.509c-.783-1.335-1.793-2.634-2.982-3.824s-2.489-2.2-3.824-2.982l.513-.18zm5.695 8.325c-.779 1.511-1.883 3.006-3.209 4.333s-2.823 2.43-4.334 3.209c-1.503-.775-2.986-1.867-4.325-3.209S3.241 11.507 2.466 10c.779-1.511 1.883-3.006 3.209-4.333s2.822-2.431 4.333-3.209c1.503.775 2.986 1.867 4.325 3.209s2.434 2.826 3.209 4.329zM1.464 7.46c-.583-2.223-.29-4.059.826-5.17.74-.74 1.796-1.115 3.072-1.115.646 0 1.35.098 2.102.294.399.106.806.239 1.209.395-1.319.775-2.622 1.777-3.828 2.982S2.638 7.354 1.863 8.673a10.97 10.97 0 0 1-.399-1.213zm.297 11.366c-.325 0-.587-.262-.587-.587s.262-.587.587-.587.587.262.587.587a.59.59 0 0 1-.587.587zm6.391-.497c-1.796.603-3.429.657-4.654.172a1.87 1.87 0 0 0 .02-.258 1.76 1.76 0 0 0-1.757-1.757 1.92 1.92 0 0 0-.258.02c-.489-1.229-.431-2.857.172-4.654l.184-.509c.783 1.335 1.793 2.634 2.982 3.824s2.489 2.2 3.824 2.982l-.513.18zm9.558-.618c-1.116 1.115-2.951 1.405-5.17.822a12.42 12.42 0 0 1-1.209-.391c1.319-.775 2.622-1.777 3.828-2.982s2.207-2.509 2.982-3.828a11.2 11.2 0 0 1 .395 1.209c.583 2.223.29 4.059-.826 5.17z"/>
</svg>