<svg width="114" height="45" viewBox="0 0 114 45" fill="none" xmlns="http://www.w3.org/2000/svg">
<g filter="url(#filter0_d)">
<path d="M53.5133 11.997C53.4726 12.0961 53.4404 12.1986 53.4172 12.3032L53.3955 12.401C53.3955 12.4336 53.381 12.4699 53.3738 12.5061L53.3538 12.6166L53.3357 12.7362L53.3176 12.863L53.3013 12.997L53.285 13.1365L53.2705 13.2833C53.2705 13.3086 53.2705 13.334 53.2705 13.3593L53.2578 13.5151L53.2451 13.6764L53.2361 13.8449V13.9318L54.2542 14.43C54.2368 13.8605 54.2562 13.2905 54.3122 12.7235L54.323 12.6293V12.7144L54.314 12.8575V12.9246V13.0804V13.1673V13.3612V13.5242V13.7054V13.8322V14.0351V14.18L54.323 14.3304C54.323 14.3575 54.323 14.3829 54.323 14.4101C54.5169 14.2507 54.7488 14.0478 54.9897 13.8177L55.1509 13.6637L55.2325 13.5858L55.3955 13.4282L55.5549 13.2688L55.7107 13.1112L55.8611 12.9554C55.7286 12.675 55.5565 12.4151 55.3502 12.1836L55.2941 12.1257C55.2578 12.0894 55.2216 12.055 55.1872 12.0242L55.1365 11.9789L55.0875 11.9391L55.0404 11.9028L54.9951 11.8702L54.9517 11.8412L54.8937 11.805L54.8412 11.776L54.7814 11.747L54.7379 11.7271L54.6582 11.6981L54.6002 11.68L54.5422 11.6637L54.4988 11.6528L54.4517 11.642H54.4281H54.3756H54.3212C54.0332 11.584 53.6618 11.622 53.5133 11.997Z" fill="#9FEFDE"/>
<path d="M56.2448 24.5501L56.0999 24.0229L55.9731 23.5538L55.9188 23.3473L55.8137 22.9434L55.7105 22.5449L55.6108 22.1355C55.5927 22.0685 55.5764 21.9997 55.5619 21.9345L55.4677 21.5378L55.3717 21.132C55.3264 20.9328 55.283 20.7371 55.2413 20.5433L55.158 20.1575C55.1453 20.0941 55.1308 20.0307 55.1181 19.9764L55.0638 19.7065L54.9388 19.0725L54.9135 18.9312L54.8591 18.6541L54.8446 18.5617L54.8319 18.4947L54.7812 18.5418L54.678 18.4893V18.5237C54.7015 18.6613 54.7251 18.8008 54.7504 18.9421L54.8338 19.3949C54.8428 19.4348 54.8501 19.4764 54.8573 19.5181C54.9044 19.7717 54.9551 20.0235 55.0076 20.2771L55.062 20.5325C55.1326 20.873 55.2087 21.2172 55.2866 21.5541C55.3645 21.891 55.4424 22.2188 55.5221 22.5503C55.5764 22.7695 55.6308 22.9887 55.6851 23.2042L55.7684 23.5284C55.8602 23.8629 55.9538 24.1932 56.0492 24.5193C56.0673 24.5917 56.089 24.6696 56.1108 24.7402L56.2194 25.1351C56.2557 25.2637 56.2919 25.3941 56.3299 25.5209L56.4966 25.6043L56.5509 25.5554C56.5528 25.5482 56.5528 25.5407 56.5509 25.5336C56.4278 25.1985 56.3336 24.8689 56.2448 24.5501Z" fill="#9FEFDE"/>
<path d="M54.5258 17.5089C54.4769 17.163 54.4334 16.8242 54.3935 16.4891C54.3609 16.212 54.3356 15.9457 54.3138 15.6668L54.2957 15.4241C54.2948 15.4181 54.2948 15.412 54.2957 15.406C54.2722 15.0763 54.2559 14.7557 54.2486 14.4423L53.2107 13.9424V14.0058V14.138C53.1999 14.3862 53.1926 14.6488 53.1908 14.9278C53.1908 15.2393 53.1908 15.5654 53.1908 15.9077C53.1908 16.25 53.2107 16.5507 53.2288 16.884C53.2415 17.0978 53.2542 17.3133 53.2705 17.5307L53.2904 17.7843L54.6761 18.4871L54.6272 18.1592L54.5258 17.5089Z" fill="#9FEFDE"/>
<path d="M56.5309 25.5552L56.5526 25.6294L56.6903 26.0986L56.7501 26.2978L56.8171 26.5116L56.8388 26.5877C56.8388 26.6003 56.8479 26.613 56.8515 26.6257L57.0761 27.3502C57.3165 27.3298 57.5577 27.3802 57.7698 27.4951L57.8713 27.5404C57.6828 27.3091 57.4108 27.1613 57.1141 27.1292C57.9637 26.5623 58.5234 25.8323 58.4455 24.9556C58.4364 24.8777 58.4256 24.798 58.4111 24.7165C58.3984 25.0389 58.2698 25.2744 57.8984 25.5262L57.8532 25.5552C58.2372 24.8795 58.3422 24.4213 58.2969 23.829C58.2861 23.6877 58.268 23.5391 58.2426 23.3779C58.2023 23.7632 58.0619 24.1313 57.8353 24.4456C57.6088 24.7598 57.3039 25.0094 56.9511 25.1694L56.5309 25.5552Z" fill="#9FEFDE"/>
<path d="M56.0346 24.5189L55.9458 24.1893L55.7647 23.5191C55.6795 23.1966 55.5998 22.8706 55.5183 22.5391C55.4368 22.2076 55.3607 21.8762 55.2829 21.5447C55.205 21.2132 55.1289 20.8636 55.0582 20.5231L54.9876 20.1844L54.8554 19.5015C54.8318 19.3783 54.8101 19.2587 54.7884 19.1392C54.7503 18.9327 54.7141 18.7226 54.6779 18.5125V18.4781L53.2976 17.7734V17.8169V17.8405C53.3248 18.152 53.3519 18.4708 53.39 18.7896C53.428 19.1084 53.4661 19.4363 53.515 19.7659C53.5566 20.0413 53.6001 20.3093 53.6454 20.5937L53.6762 20.7586C53.7396 21.1027 53.8066 21.4342 53.8809 21.7421C53.9624 22.0935 54.0511 22.4232 54.1417 22.7293C54.2015 22.9304 54.2594 23.1242 54.3228 23.3071L54.3772 23.4629L54.4877 23.769C54.6193 24.1313 54.7642 24.4803 54.9224 24.816L56.3171 25.5224C56.2429 25.267 56.174 25.0062 56.098 24.7417L56.0599 24.5932L56.0346 24.5189Z" fill="#9FEFDE"/>
<path d="M54.9388 24.8648C55.1045 25.2214 55.2889 25.5691 55.4913 25.9063L55.6036 26.0874C55.455 26.0344 55.2993 26.0039 55.1417 25.9969H55.062H54.8356H54.7377H54.6562L54.5421 26.0059C55.2467 26.2505 55.8662 26.5493 56.2557 27.0022C56.0247 27.2044 55.7461 27.3447 55.446 27.4097C55.654 27.4373 55.8647 27.4373 56.0727 27.4097L56.1343 27.3989H56.1615L56.2122 27.388L56.2557 27.3753L56.3082 27.3554L56.3335 27.3445C56.0991 27.5836 55.9333 27.8814 55.8535 28.2067L55.8137 28.3335C55.8137 28.3552 55.801 28.377 55.7938 28.3987C56.0908 27.9133 56.3843 27.5927 56.6705 27.4695C56.9911 28.5309 57.3606 29.6594 57.7681 30.8386L57.9493 31.382C58.0145 31.5644 58.0797 31.7491 58.1449 31.9363C58.1877 31.8811 58.2161 31.8161 58.2275 31.7471C58.2389 31.6782 58.2329 31.6075 58.2101 31.5414L58.0797 31.1792L57.933 30.7499L57.7029 30.0706L57.5218 29.5L57.3171 28.8425L57.1197 28.214L56.9385 27.6271L56.8045 27.1869L56.6958 26.8247C56.6813 26.7757 56.6686 26.7286 56.6542 26.6779L56.6125 26.5439L56.4948 26.1381L56.3752 25.7197L56.3227 25.5277L54.9297 24.8213C54.9323 24.8325 54.936 24.8434 54.9406 24.8539L54.9388 24.8648Z" fill="#9FEFDE"/>
<path d="M54.8355 18.5072L54.859 18.6431C54.8772 18.7355 54.8953 18.8242 54.9116 18.9221L55.0637 19.6955L55.1181 19.9654L55.1996 20.3458C55.2123 20.4092 55.2267 20.4744 55.2412 20.5396C55.2829 20.7334 55.3264 20.929 55.3717 21.1283L55.4677 21.534L55.5618 21.9307C55.5763 21.9959 55.5926 22.0648 55.6108 22.1318L55.7104 22.5411L55.8118 22.9396C55.8643 23.1407 55.9169 23.3454 55.973 23.5537C56.0129 23.7077 56.0563 23.8634 56.0998 24.021L56.2447 24.5499L56.3534 24.9376L56.4675 25.3342C56.4856 25.4013 56.5056 25.4683 56.5255 25.5353C56.5236 25.5418 56.5236 25.5487 56.5255 25.5552L56.9457 25.1676H56.9367L56.9131 25.1785C57.4131 24.7075 57.8405 23.762 57.9383 22.9107C57.984 22.489 57.9797 22.0634 57.9257 21.6427C57.8803 21.2766 57.8126 20.9137 57.7228 20.5559C57.6395 20.2226 57.5417 19.8694 57.4131 19.4963C57.3276 19.6646 57.2197 19.8205 57.0924 19.96L57.02 20.0397L56.9946 20.065L56.9421 20.1175C57.2761 19.5719 57.3846 18.9177 57.2446 18.2935C57.1504 18.5581 57.0093 18.8036 56.828 19.0181C56.799 19.0535 56.7675 19.0867 56.7338 19.1177L56.7175 19.1322H56.7084C56.823 18.9469 56.9136 18.7479 56.9783 18.5399C56.9873 18.5132 56.9945 18.4859 57.0001 18.4583L57.0091 18.4167C57.0241 18.3534 57.0356 18.2893 57.0435 18.2247L57.058 18.0997C57.0626 18.0249 57.0626 17.9499 57.058 17.8751L57.049 17.7356C57.049 17.7247 57.049 17.7157 57.049 17.7048L57.0345 17.6143C57.0345 17.5998 57.0345 17.5871 57.0254 17.5726C56.9964 17.4059 56.9656 17.2574 56.933 17.1252L56.9041 17.0074L56.8769 16.9078L56.8407 16.7883L56.7936 16.6506C56.7898 16.637 56.785 16.6236 56.7791 16.6108L56.7519 16.5401L56.7265 16.4822L56.703 16.4351C56.6986 16.4537 56.6925 16.4719 56.6849 16.4894L56.6722 16.5184C56.5502 16.7676 56.3908 16.9967 56.1994 17.1976L56.1614 17.2357L56.1433 17.2574V17.2429L54.8174 18.4565C54.8241 18.4541 54.8315 18.4545 54.838 18.4576C54.8444 18.4606 54.8494 18.4661 54.8518 18.4728C54.8542 18.4796 54.8538 18.487 54.8508 18.4934C54.8477 18.4999 54.8422 18.5048 54.8355 18.5072Z" fill="#9FEFDE"/>
<path d="M54.3229 14.4097C54.3229 14.5057 54.3337 14.6072 54.341 14.7122L54.3573 14.926C54.3573 14.9622 54.3573 15.0002 54.3573 15.0383L54.3772 15.2683L54.3881 15.3879V15.4259C54.3872 15.4319 54.3872 15.438 54.3881 15.444C54.399 15.5618 54.4116 15.6831 54.4243 15.8063L54.4551 16.0617C54.4636 16.1486 54.4744 16.2374 54.4877 16.328L54.542 16.7446C54.5674 16.9257 54.5964 17.1304 54.6272 17.3333L54.6507 17.489C54.6761 17.6466 54.7014 17.8078 54.7304 17.9727L54.8174 18.4835L56.1415 17.2699C56.3671 16.9112 56.4829 16.4944 56.4748 16.0708C56.4748 15.9929 56.4748 15.9132 56.4657 15.8298V15.7465C56.4443 15.3957 56.4044 15.0462 56.3462 14.6996C56.2977 14.384 56.2318 14.0713 56.1487 13.7631C56.1071 13.6017 56.0569 13.4427 55.9984 13.2867C55.9495 13.169 55.9006 13.0603 55.8517 12.957L55.7013 13.111L55.6234 13.1889L55.4658 13.3465L55.3046 13.5041L55.1416 13.6616L55.0601 13.7377L54.9007 13.8881C54.6978 14.0891 54.495 14.2685 54.3229 14.4097Z" fill="#9FEFDE"/>
<path d="M46.2895 12.5803C46.9526 12.6427 47.6044 12.7931 48.2277 13.0277C48.7571 13.2153 49.2366 13.5214 49.6297 13.9225C50.0182 14.3001 50.2791 14.7897 50.376 15.3227C50.4342 15.7082 50.4342 16.1002 50.376 16.4856C50.3156 16.9239 50.2359 17.3714 50.1369 17.8278L48.8037 24.4791C48.7445 24.8559 48.6751 25.2435 48.5954 25.642C48.5183 25.9841 48.4878 26.3351 48.5048 26.6853C48.5037 26.7557 48.4939 26.8256 48.4759 26.8936V27.0748C48.4757 27.2947 48.4557 27.5142 48.4161 27.7305C48.4 27.8339 48.355 27.9307 48.2865 28.0098C48.218 28.089 48.1285 28.1472 48.0285 28.1779C47.8871 28.2384 47.7348 28.2692 47.581 28.2685H44.9473C44.8129 28.2614 44.685 28.2083 44.5851 28.1181C44.4678 28.042 44.3826 27.9252 44.346 27.7903C44.3136 27.6443 44.2415 27.5102 44.1377 27.4026C44.0952 27.3617 44.0437 27.3313 43.9873 27.3139C43.9578 27.2921 43.9233 27.2779 43.887 27.2726C43.8507 27.2672 43.8136 27.2708 43.779 27.2831C43.6645 27.321 43.5546 27.3715 43.4512 27.4334C43.3557 27.4909 43.2557 27.5405 43.1523 27.582C43.0297 27.6631 42.9 27.7329 42.7647 27.7903C42.6451 27.85 42.5165 27.9098 42.377 27.9714C42.0966 28.0918 41.8078 28.1917 41.513 28.2703C41.2141 28.3282 40.9171 28.3989 40.6182 28.4786C40.4721 28.5167 40.3218 28.5368 40.1708 28.5384L39.7832 28.5981H39.602C39.5436 28.6176 39.4824 28.6274 39.4209 28.6271H39.093C38.8964 28.6671 38.6937 28.6671 38.4971 28.6271H38.229C38.093 28.5878 37.9522 28.5676 37.8106 28.5673C37.6893 28.5886 37.5647 28.5786 37.4483 28.5384L36.9049 28.4188C36.7378 28.4016 36.5758 28.3511 36.4285 28.2703C35.9402 28.0819 35.4944 27.7981 35.1171 27.4352C34.7612 27.0416 34.5233 26.5558 34.4306 26.0333C34.3896 25.8866 34.3599 25.737 34.3418 25.5858C34.3409 25.4164 34.3306 25.247 34.3111 25.0787C34.2911 24.98 34.2911 24.8784 34.3111 24.7798C34.35 24.6856 34.3703 24.5847 34.3708 24.4827C34.3708 24.423 34.3817 24.3016 34.3998 24.1205C34.423 23.9774 34.4632 23.8375 34.5194 23.7039C34.5889 23.5412 34.6393 23.371 34.6697 23.1967L34.9668 22.541C35.0751 22.3198 35.2049 22.1099 35.3544 21.9142C35.7346 21.3918 36.2103 20.9462 36.7564 20.601C37.3387 20.2678 37.9599 20.0074 38.6058 19.8257C38.8764 19.7283 39.1562 19.6586 39.4408 19.6174C39.7198 19.5776 40.0078 19.5287 40.3048 19.4689C40.4708 19.4282 40.6411 19.4082 40.812 19.4091C41.0026 19.3902 41.1919 19.36 41.379 19.3186C41.5143 19.2802 41.6562 19.2703 41.7956 19.2896C41.9567 19.287 42.117 19.2669 42.2738 19.2298C42.4092 19.1906 42.5494 19.1705 42.6904 19.17C42.8414 19.1686 42.9917 19.1485 43.1378 19.1103C43.5761 19.0106 43.9728 18.9291 44.3315 18.873C44.7285 18.7821 45.0972 18.5956 45.4056 18.3296C45.6047 18.1627 45.7738 17.963 45.9055 17.7391C45.923 17.6914 45.9327 17.6413 45.9345 17.5905C45.9353 17.5488 45.9458 17.5079 45.9653 17.471C45.987 17.4464 46.0035 17.4177 46.0137 17.3865C46.024 17.3554 46.0279 17.3225 46.0251 17.2898C46.0387 17.2276 46.0588 17.1669 46.0849 17.1087V16.6649C46.0546 16.384 45.9422 16.1183 45.7618 15.9008C45.5814 15.6834 45.341 15.5239 45.0705 15.4423C44.8681 15.3739 44.6572 15.3336 44.4438 15.3227C44.1977 15.2828 43.9477 15.2731 43.6993 15.2937C43.4397 15.2938 43.1806 15.3138 42.924 15.3535C42.7116 15.3868 42.5021 15.4364 42.2973 15.502C42.1594 15.5418 42.0286 15.6029 41.9097 15.6832C41.7847 15.7449 41.6637 15.8145 41.5474 15.8915C41.4079 15.9879 41.278 16.0977 41.1598 16.2193C41.0412 16.3309 40.9409 16.4605 40.8627 16.6033C40.7323 16.786 40.6114 16.9752 40.5005 17.1703C40.4467 17.2634 40.3736 17.3438 40.2861 17.4063C40.1986 17.4688 40.0988 17.5119 39.9933 17.5326C39.8273 17.5732 39.657 17.5933 39.4861 17.5923H37.816C37.7061 17.5929 37.5965 17.6026 37.4882 17.6213C37.408 17.6242 37.328 17.6144 37.2509 17.5923H36.981C36.9346 17.5706 36.8837 17.5601 36.8325 17.5615C36.8049 17.5623 36.7775 17.5574 36.752 17.5471C36.7264 17.5368 36.7033 17.5214 36.6839 17.5018C36.5445 17.4619 36.4648 17.3333 36.4448 17.1141C36.4453 17.0122 36.4656 16.9113 36.5046 16.8171C36.5445 16.7175 36.5843 16.6269 36.6242 16.5472C36.7238 16.3298 36.8234 16.1306 36.9212 15.9513C37.0324 15.7639 37.1533 15.5825 37.2835 15.4078L37.5226 15.109L37.7544 14.8155C37.973 14.582 38.2159 14.3725 38.479 14.1906C38.5583 14.1559 38.6293 14.1046 38.6873 14.0403C38.8068 13.9624 38.9065 13.8917 38.9844 13.832C39.0622 13.7722 39.1945 13.7124 39.314 13.6508C39.6787 13.4381 40.0672 13.2691 40.4715 13.1473C40.8881 13.0078 41.3065 12.8774 41.7231 12.7578C41.9784 12.7 42.2375 12.6607 42.4984 12.6401C42.7694 12.6183 43.0387 12.5784 43.3044 12.5205C43.4243 12.4994 43.5469 12.4994 43.6667 12.5205C43.7764 12.5463 43.8916 12.5355 43.9946 12.4897C44.7607 12.4682 45.5275 12.4985 46.2895 12.5803ZM79.4374 12.8176C80.0735 13.035 80.6687 13.3577 81.198 13.7722C81.3613 13.8957 81.5113 14.0359 81.6454 14.1906C81.7959 14.3199 81.9265 14.4706 82.033 14.638C82.0737 14.7383 82.1471 14.822 82.2413 14.8753C82.3612 15.0948 82.4612 15.3245 82.5402 15.5618C82.6398 15.781 82.7485 16.0092 82.8681 16.2483C82.9289 16.4323 82.969 16.6224 82.9876 16.8153C83.0275 16.9964 83.0673 17.192 83.1054 17.4112C83.1458 17.6774 83.1658 17.9462 83.1651 18.2154L83.2249 19.0505C83.222 19.235 83.1921 19.4181 83.1361 19.5939C83.0976 19.76 83.0872 19.9315 83.1054 20.1011L83.0474 20.4289C83.0426 20.616 83.002 20.8005 82.9278 20.9723C82.8785 21.1335 82.7723 21.2712 82.629 21.36C82.496 21.4544 82.3428 21.5165 82.1816 21.5411C81.9823 21.561 81.7649 21.5809 81.5258 21.6009H80.8393C80.622 21.5809 80.4227 21.5701 80.2434 21.5701H72.5542C72.4421 21.5689 72.3308 21.5892 72.2263 21.6298C72.088 21.679 71.9637 21.7611 71.8641 21.8689C71.7971 21.9434 71.7365 22.0234 71.6829 22.108C71.6262 22.1969 71.5955 22.2998 71.5942 22.4051C71.6127 22.5252 71.6127 22.6473 71.5942 22.7674C71.5948 22.8773 71.6045 22.9869 71.6232 23.0952C71.6646 23.5081 71.7754 23.9111 71.951 24.2871C72.1508 24.6066 72.4148 24.8811 72.7263 25.0932C72.8608 25.1904 73.0127 25.2611 73.1737 25.3015C73.3471 25.3201 73.5174 25.3602 73.6809 25.421C73.887 25.4675 74.0966 25.4971 74.3076 25.5098C74.556 25.5313 74.8061 25.5215 75.0521 25.4808H75.3202C75.5194 25.4409 75.7096 25.4011 75.8871 25.3612L76.4305 25.1801C76.6479 25.0805 76.8978 24.9519 77.175 24.7925C77.4141 24.6641 77.6347 24.5038 77.8307 24.3161C77.9502 24.1775 78.0798 24.048 78.2183 23.9285C78.3444 23.798 78.4969 23.6961 78.6657 23.6296C78.9102 23.5259 79.1766 23.4848 79.441 23.51H80.6637C80.785 23.4879 80.91 23.4985 81.0259 23.5408H81.3248C81.4625 23.5643 81.5943 23.6147 81.7124 23.6894C81.7722 23.7292 81.7921 23.8198 81.7722 23.9574C81.7762 24.0843 81.7448 24.2097 81.6816 24.3197C81.534 24.5818 81.3644 24.8309 81.1744 25.0642C81.0061 25.2936 80.8246 25.5131 80.631 25.7217C80.1199 26.3377 79.5162 26.8706 78.8414 27.3012C78.1223 27.7361 77.3504 28.077 76.5446 28.3156C76.323 28.3916 76.0932 28.4415 75.8599 28.4641C75.619 28.4876 75.3799 28.5275 75.1444 28.5836C75.0562 28.6036 74.9646 28.6036 74.8764 28.5836C74.7957 28.5841 74.7154 28.5944 74.6373 28.6144H74.3094C74.193 28.6543 74.0684 28.6642 73.9471 28.6434C73.8372 28.6446 73.7273 28.6348 73.6193 28.6144C73.4811 28.5944 73.3408 28.5944 73.2027 28.6144C73.0728 28.6333 72.9403 28.6228 72.815 28.5836C72.71 28.5428 72.5981 28.5226 72.4854 28.5239C72.3831 28.5271 72.2814 28.5067 72.1883 28.4641C71.9691 28.4242 71.75 28.3753 71.5326 28.3156C71.3402 28.2801 71.156 28.2094 70.9892 28.1073C70.7899 28.0276 70.6016 27.9569 70.4222 27.899C70.2549 27.8249 70.0954 27.7345 69.9459 27.6291C69.4035 27.2454 68.9213 26.7833 68.5149 26.2579C68.1295 25.6914 67.8513 25.0591 67.6943 24.3922C67.6351 24.1776 67.5951 23.9581 67.5748 23.7365C67.5746 23.4922 67.5448 23.249 67.486 23.0119V22.809C67.5055 22.7308 67.5152 22.6505 67.515 22.5699C67.4951 22.3119 67.4951 22.0527 67.515 21.7947L67.6346 20.9596C67.655 20.8516 67.6647 20.7418 67.6635 20.6318C67.6818 20.5196 67.7122 20.4096 67.7541 20.3039L67.8429 19.9417L68.082 19.2171C68.2214 18.8802 68.3501 18.5505 68.4696 18.2336C68.5849 17.9249 68.7325 17.6292 68.9098 17.3514C70.1154 15.339 71.9669 13.7939 74.1627 12.9679C74.4534 12.8507 74.7577 12.7704 75.0684 12.7288C75.3678 12.6697 75.686 12.6002 76.0229 12.5205C76.1713 12.501 76.3207 12.4908 76.4704 12.4897C76.6199 12.4894 76.7694 12.4797 76.9178 12.4608C77.7744 12.4193 78.6312 12.5404 79.4428 12.8176H79.4374ZM17.6828 7.00315C18.0215 7.00315 18.2606 7.07198 18.4073 7.21146C18.4688 7.269 18.5182 7.33819 18.5528 7.41499C18.5873 7.49179 18.6062 7.57469 18.6084 7.65886C18.6281 7.84148 18.6577 8.02289 18.6972 8.20227C18.737 8.51986 18.7769 8.84772 18.8167 9.18584C18.8765 9.50282 18.9254 9.83249 18.9652 10.1694C19.1838 11.4229 19.365 12.695 19.5087 13.9859C19.6668 15.2792 19.8552 16.5617 20.0738 17.8332C20.1549 18.2375 20.2154 18.6455 20.2549 19.0559C20.2942 19.4663 20.3546 19.8744 20.4361 20.2786L20.4958 20.5775C20.513 20.6732 20.5661 20.7588 20.6444 20.8166C20.6774 20.8318 20.7079 20.852 20.7349 20.8763C20.7602 20.885 20.7873 20.8867 20.8134 20.8813C20.8396 20.8759 20.8638 20.8635 20.8835 20.8455C20.971 20.8179 21.0512 20.771 21.1183 20.7083C21.1854 20.6456 21.2376 20.5687 21.2711 20.4833C21.3713 20.284 21.471 20.1029 21.57 19.9399C21.8115 19.4834 22.0397 19.036 22.2547 18.5976C22.4738 18.1412 22.7129 17.6829 22.9792 17.2264C23.6168 16.0189 24.2532 14.8059 24.8884 13.5874C25.532 12.3593 26.172 11.1306 26.8084 9.90132C26.9678 9.58252 27.1272 9.27459 27.2866 8.97753C27.4678 8.65873 27.6344 8.33993 27.792 8.02295C27.8717 7.86355 27.9623 7.70415 28.0619 7.54475C28.165 7.38181 28.3085 7.24828 28.4785 7.15712C28.6172 7.05582 28.7849 7.00184 28.9567 7.00315H34.0846C34.2343 6.98753 34.3842 7.03037 34.5031 7.1227C34.7023 7.24225 34.7603 7.47048 34.6842 7.80921C34.6081 8.14793 34.5646 8.45405 34.5031 8.79277L33.6082 13.265L31.3712 24.3596L30.8713 26.9534C30.8314 27.1726 30.7825 27.3918 30.7228 27.6091C30.6768 27.7879 30.5714 27.9456 30.4239 28.0565C30.2836 28.1574 30.1194 28.2199 29.9475 28.2377H27.1073C26.9799 28.2008 26.8504 28.1712 26.7197 28.1489C26.6661 28.1352 26.6165 28.109 26.575 28.0725C26.5334 28.036 26.5011 27.9902 26.4806 27.9388C26.4173 27.8201 26.3963 27.6834 26.4208 27.5512C26.4606 27.3936 26.5005 27.2233 26.5403 27.0458L26.8392 25.5243L28.3897 17.8604C28.4296 17.5815 28.4694 17.317 28.5093 17.0852C28.5491 16.8533 28.618 16.5671 28.6578 16.3099L28.7774 15.8317C28.8157 15.6653 28.8358 15.4953 28.8371 15.3245C28.8172 15.1761 28.8172 15.0256 28.8371 14.8771C28.877 14.7195 28.8371 14.6199 28.7466 14.5801C28.7218 14.5694 28.6943 14.5664 28.6678 14.5716C28.6413 14.5767 28.617 14.5898 28.598 14.609L28.5093 14.6996C28.4045 14.784 28.3134 14.8843 28.2394 14.9967L28.0583 15.2955C27.8795 15.595 27.6984 15.9029 27.5148 16.2193C27.3554 16.5381 27.1779 16.8551 26.9714 17.1739L26.7903 17.5362C26.7466 17.6646 26.6857 17.7865 26.6092 17.8985C26.4516 18.1575 26.3012 18.4165 26.1618 18.6737C26.0396 18.9408 25.9004 19.1997 25.7452 19.449C25.7037 19.5134 25.6737 19.5845 25.6564 19.6591C25.6346 19.7233 25.6041 19.7842 25.5658 19.8402C25.4516 20.018 25.3481 20.2025 25.2561 20.3927C25.1706 20.6035 25.0605 20.8035 24.9282 20.9886C24.8073 21.1706 24.6978 21.36 24.6004 21.5556C24.5169 21.7625 24.4169 21.9624 24.3015 22.1533C23.9392 22.7293 23.6114 23.3156 23.3179 23.9122C23.0185 24.4882 22.7105 25.0648 22.3941 25.642C22.3407 25.6922 22.2998 25.7543 22.2746 25.8231C22.2724 25.8579 22.2633 25.8918 22.2477 25.9229C22.2322 25.954 22.2105 25.9817 22.184 26.0043C22.0431 26.2263 21.9137 26.4554 21.7964 26.6908C21.6912 26.9176 21.5702 27.1367 21.4341 27.3465C21.3544 27.486 21.2747 27.6146 21.195 27.7341C21.1217 27.847 21.0312 27.9478 20.9269 28.033C20.8283 28.1033 20.717 28.1537 20.5991 28.1815C20.468 28.1861 20.3379 28.2061 20.2115 28.2413H19.5322C19.3927 28.2413 19.2243 28.2522 19.025 28.2721H18.4581C18.2885 28.2723 18.1191 28.262 17.9509 28.2413C17.8318 28.2367 17.7172 28.1949 17.623 28.1217C17.5014 28.0434 17.4076 27.9286 17.355 27.7939C17.3293 27.6319 17.2893 27.4724 17.2354 27.3175C17.1956 27.0784 17.1666 26.8393 17.1466 26.593C17.1279 26.3413 17.0879 26.0916 17.0271 25.8467L16.9981 25.5786C16.9373 25.3337 16.8974 25.084 16.8786 24.8323C16.8611 24.5709 16.8211 24.3116 16.759 24.0571V23.9085C16.7587 23.8469 16.7483 23.7857 16.7282 23.7274C16.6689 23.5431 16.6294 23.3531 16.6105 23.1604C16.5906 22.963 16.5598 22.7638 16.5199 22.5645V22.416C16.5219 22.3643 16.512 22.3129 16.4909 22.2656C16.4511 22.0682 16.4203 21.8689 16.4004 21.6697C16.4002 21.4678 16.3703 21.267 16.3116 21.0738C16.2319 20.6753 16.1631 20.2587 16.1033 19.8203C16.0435 19.382 16.0037 18.9563 15.9222 18.5379C15.8425 18.0416 15.773 17.535 15.7139 17.0181C15.6757 16.5134 15.5859 16.0138 15.4458 15.5274C15.4168 15.2914 15.3559 15.0605 15.2646 14.8409C15.2298 14.8051 15.1895 14.7751 15.1451 14.7521C15.1258 14.7123 15.0859 14.7123 15.0255 14.7521C14.9663 14.7811 14.9142 14.8227 14.8729 14.874C14.8316 14.9254 14.8021 14.9852 14.7865 15.0492C14.7652 15.1933 14.725 15.334 14.6669 15.4676C14.5888 15.6057 14.5383 15.7577 14.5184 15.915C14.4984 16.0527 14.4785 16.203 14.4586 16.3624C14.4187 16.5798 14.3698 16.799 14.3101 17.0181C14.2503 17.2373 14.2195 17.4547 14.1615 17.6738L12.5766 25.6112L12.2777 27.073L12.16 27.5494C12.1461 27.6956 12.0821 27.8325 11.9788 27.937C11.9166 28.0136 11.8397 28.0769 11.7526 28.1232C11.6655 28.1696 11.5699 28.198 11.4717 28.2069C11.3261 28.2476 11.1755 28.2677 11.0243 28.2667C10.8657 28.2465 10.706 28.2362 10.5461 28.2359H8.41048C8.25468 28.2261 8.10724 28.162 7.99387 28.0547C7.94019 27.995 7.90086 27.9238 7.87889 27.8466C7.85692 27.7694 7.85287 27.6882 7.86707 27.6091L7.98662 26.9534L8.49742 24.3288L10.7344 13.236L11.5695 9.06991C11.5888 8.94915 11.6087 8.80968 11.6293 8.65149C11.6691 8.47035 11.709 8.30371 11.7488 8.14612C11.7887 7.98853 11.8285 7.83638 11.8684 7.69871C11.9082 7.56105 11.977 7.41976 12.0169 7.33644C12.1621 7.18214 12.3522 7.07755 12.5603 7.03757C12.6183 7.01764 12.6581 7.01764 12.678 7.03757C12.7278 7.03353 12.7767 7.02193 12.8229 7.00315H17.6828ZM98.7736 12.9969C99.4798 13.3424 100.033 13.9374 100.326 14.667C100.427 14.8933 100.488 15.1353 100.507 15.3825C100.547 15.6216 100.578 15.8697 100.598 16.1288C100.618 16.2772 100.618 16.4277 100.598 16.5762C100.578 16.7143 100.578 16.8546 100.598 16.9928C100.561 17.067 100.551 17.151 100.567 17.2319C100.545 17.5221 100.505 17.8107 100.447 18.0959C100.389 18.3948 100.33 18.6828 100.266 18.9617L99.759 21.6154L98.7736 26.4462C98.6963 26.8254 98.6172 27.1931 98.5363 27.5494C98.5106 27.7002 98.4442 27.8411 98.3443 27.957C98.2444 28.0729 98.1147 28.1593 97.9693 28.2069C97.834 28.2491 97.6927 28.2693 97.5509 28.2667H95.4642C95.2549 28.2679 95.0457 28.2576 94.8375 28.2359C94.7574 28.2218 94.6812 28.1906 94.6143 28.1443C94.5474 28.098 94.4913 28.0378 94.4499 27.9678C94.387 27.8276 94.3663 27.6722 94.3901 27.5204C94.4299 27.3211 94.4698 27.1128 94.5096 26.8936L94.9281 24.807L95.8229 20.3637C95.9605 19.6283 96.0596 18.9521 96.1199 18.335C96.2124 17.7895 96.1399 17.2288 95.9116 16.7247C95.8045 16.5212 95.6565 16.3421 95.477 16.1984C95.2975 16.0547 95.0903 15.9496 94.8683 15.8897C94.7639 15.8489 94.6525 15.8286 94.5404 15.8299C94.4379 15.8293 94.3364 15.809 94.2416 15.7701C94.1131 15.7499 93.9824 15.7499 93.8539 15.7701C93.7438 15.7675 93.6338 15.7778 93.5261 15.8009C93.4475 15.8181 93.3674 15.8278 93.287 15.8299C93.2253 15.8302 93.1641 15.8406 93.1058 15.8607C92.6862 15.9564 92.284 16.1171 91.914 16.3371C91.1769 16.796 90.6272 17.5023 90.3635 18.3296C90.0606 19.2993 89.8115 20.2849 89.6172 21.2821L88.8727 25.0098L88.5104 26.8212L88.3909 27.3646C88.3583 27.5235 88.2969 27.6752 88.2097 27.812C88.1496 27.914 88.0679 28.0016 87.9702 28.0686C87.8726 28.1355 87.7614 28.1803 87.6446 28.1996C87.3782 28.2432 87.1085 28.2632 86.8386 28.2594H85.3478C85.1286 28.2594 84.9095 28.2485 84.6921 28.2286C84.6103 28.233 84.5288 28.2161 84.4555 28.1795C84.3821 28.143 84.3195 28.0882 84.2737 28.0203C84.1541 27.8392 84.1342 27.582 84.2139 27.2451C84.2936 26.9081 84.3643 26.5893 84.4222 26.2905L85.2283 22.2348L86.5397 15.6741L86.8675 14.1526C86.9074 13.9352 86.9472 13.736 86.9871 13.5566C87.0247 13.3816 87.1197 13.2242 87.257 13.1092C87.2818 13.0762 87.313 13.0486 87.3488 13.028C87.3847 13.0075 87.4243 12.9944 87.4653 12.9897C87.5614 12.9513 87.6609 12.9216 87.7623 12.9009H87.929C88.0267 12.8808 88.1263 12.8705 88.2261 12.8701H89.8074C89.957 12.8698 90.1066 12.8801 90.2548 12.9009C90.396 12.8982 90.5367 12.9184 90.6714 12.9607C90.7257 12.9847 90.7733 13.0218 90.8099 13.0685C90.8466 13.1153 90.8711 13.1703 90.8815 13.2288C90.9236 13.3636 90.9438 13.5042 90.9413 13.6454C90.9423 13.7166 90.9319 13.7876 90.9105 13.8555C90.8898 13.9141 90.8898 13.978 90.9105 14.0366C90.9168 14.1007 90.9372 14.1625 90.9703 14.2178C91.0215 14.2451 91.0711 14.2753 91.1188 14.3084C91.2228 14.3162 91.3274 14.3015 91.4252 14.2653C91.5231 14.229 91.6119 14.172 91.6857 14.0982C91.8473 13.9356 92.0301 13.7954 92.2291 13.6816C92.8443 13.2848 93.5055 12.9642 94.1981 12.727C94.3831 12.6702 94.5728 12.6302 94.765 12.6075C94.9643 12.5876 95.1817 12.5586 95.4208 12.5187C95.5089 12.4982 95.6007 12.4982 95.6888 12.5187C95.7698 12.5243 95.851 12.5139 95.9279 12.4879C97.1162 12.4541 98.0647 12.6238 98.7736 12.9969ZM44.6503 21.1082C44.5706 21.1281 44.4999 21.148 44.4402 21.168C44.3603 21.1707 44.2808 21.181 44.2029 21.1987C44.0562 21.2396 43.9066 21.2693 43.7555 21.2875C43.5961 21.3074 43.4276 21.3382 43.2483 21.3763C43.161 21.3999 43.0706 21.4102 42.9802 21.4071C42.7145 21.4649 42.4452 21.5049 42.1741 21.5266C41.911 21.5471 41.651 21.5969 41.3989 21.6751L40.9225 21.7947C40.7784 21.8159 40.6377 21.8561 40.5041 21.9142C40.0454 22.095 39.6291 22.3688 39.2814 22.7185C38.9036 23.1264 38.6833 23.6555 38.6601 24.211C38.63 24.501 38.6935 24.793 38.8413 25.0443C38.9355 25.283 39.1167 25.4772 39.3484 25.5877C39.6243 25.7122 39.9145 25.8022 40.2125 25.8557C40.5469 25.9164 40.8875 25.9365 41.2268 25.9155C41.5904 25.8788 41.95 25.809 42.3009 25.7072C42.8117 25.5732 43.2822 25.3171 43.6721 24.9609C44.0649 24.5833 44.3881 24.1393 44.6267 23.6495C44.685 23.5133 44.7346 23.3736 44.7753 23.2311C44.818 23.0661 44.8787 22.9064 44.9564 22.7547L45.0162 22.4866C45.0572 22.3808 45.087 22.2709 45.1049 22.1588C45.1236 22.0389 45.1339 21.9178 45.1357 21.7965C45.1346 21.6865 45.1443 21.5767 45.1647 21.4686C45.1762 21.4245 45.1738 21.3779 45.1579 21.3351C45.142 21.2924 45.1134 21.2555 45.0759 21.2295C44.9556 21.1345 44.8026 21.0909 44.6503 21.1082ZM76.3128 15.5926C76.2821 15.6118 76.2476 15.6244 76.2117 15.6294C76.1758 15.6343 76.1393 15.6317 76.1045 15.6216C76.0359 15.6016 75.963 15.6016 75.8943 15.6216C75.7761 15.6608 75.655 15.6905 75.5321 15.7103C75.42 15.7088 75.3086 15.7291 75.2042 15.7701C74.2821 16.0401 73.4812 16.6197 72.9364 17.4112C72.8605 17.5163 72.791 17.6257 72.7281 17.7391C72.6478 17.858 72.5867 17.9888 72.547 18.1267C72.5073 18.2434 72.4871 18.3657 72.4872 18.489C72.4864 18.5472 72.4996 18.6048 72.5258 18.6568C72.552 18.7088 72.5903 18.7538 72.6375 18.7878C72.8259 18.8998 73.0439 18.9516 73.2624 18.9364H78.2437C78.5625 18.9164 78.7871 18.8277 78.8994 18.6683C78.9887 18.5729 79.0523 18.4563 79.084 18.3295C79.1156 18.2027 79.1145 18.0699 79.0805 17.9437C79.0407 17.6467 79.0099 17.4275 78.99 17.288C78.8443 16.7965 78.5406 16.3667 78.1259 16.0654C77.7335 15.7695 77.1291 15.6119 76.3128 15.5926Z" fill="#9FEFDE"/>
<path d="M67.0806 12.2564C67.0371 12.2745 66.9918 12.2963 66.9411 12.3216L66.8632 12.3651C66.8107 12.3959 66.7545 12.4303 66.6947 12.4702L66.6023 12.5318L66.5045 12.5988L66.403 12.6731L66.2962 12.751L66.2418 12.7927L66.1295 12.8814L66.0117 12.9811L65.8922 13.0807L65.769 13.1858L65.6422 13.2945L65.5117 13.4086L65.3777 13.5282L65.3088 13.5898L65.7472 14.8216C66.1882 14.3453 66.6603 13.8987 67.1603 13.4847L67.3233 13.3524L67.336 13.3434L67.2219 13.434L67.1114 13.53L66.9918 13.6387L66.8795 13.7456L66.7835 13.8379L66.7146 13.905L66.5661 14.0535L66.4447 14.1785L66.2636 14.3597L66.1712 14.4611L66.0751 14.5662L65.923 14.7347L65.8161 14.8543C65.9248 14.8651 66.0443 14.8742 66.1784 14.8814L66.3741 14.8923H66.5788H66.7925H67.0099H68.0045H68.2164C68.3577 14.4923 68.4253 14.07 68.4157 13.6459V13.568V13.4937V13.4593L68.4067 13.3923L68.3958 13.3307V13.3017L68.3849 13.2456L68.3722 13.1966L68.3596 13.1514L68.3469 13.1115L68.3233 13.0463L68.3052 13.001L68.2599 12.9086L68.2327 12.8597L68.211 12.8198L68.1856 12.7764L68.1567 12.7311L68.1241 12.6821L68.0878 12.6332C67.8686 12.376 67.528 12.0753 67.0806 12.2564Z" fill="#9FEFDE"/>
<path d="M59.1285 24.872L59.3096 24.5406L59.5578 24.0986L59.7751 23.7128C59.8114 23.6494 59.8476 23.586 59.882 23.5316L60.1229 23.115L60.3602 22.7093L60.4761 22.5082C60.5993 22.3017 60.7207 22.097 60.8384 21.8978L61.0829 21.4939C61.2912 21.1533 61.4923 20.8291 61.6915 20.5139L61.9325 20.139L62.0502 19.9578L62.2205 19.697L62.4251 19.3891L62.6244 19.0884L62.715 18.9543L62.8961 18.6881L62.9269 18.6446L62.983 18.5613L62.9993 18.5377H62.9233L62.8798 18.4146L62.8599 18.4472C62.7675 18.5758 62.6787 18.708 62.5845 18.8402L62.2929 19.2713C62.2657 19.3112 62.2404 19.351 62.2114 19.3891C62.0502 19.6318 61.889 19.8745 61.7296 20.1136L61.572 20.3618C61.3583 20.6932 61.1481 21.0301 60.9416 21.3616C60.7352 21.6931 60.5377 22.021 60.3403 22.3524C60.208 22.5716 60.0776 22.7908 59.9508 23.0081L59.7697 23.336C59.568 23.6777 59.3742 24.0165 59.1883 24.3522C59.1448 24.4264 59.1013 24.5043 59.0615 24.5804C58.9093 24.8521 58.7608 25.1238 58.6177 25.3828L58.6847 25.5821H58.768C58.7736 25.5757 58.7779 25.5683 58.7807 25.5603C58.8984 25.3212 59.0216 25.0912 59.143 24.8666L59.1285 24.872Z" fill="#9FEFDE"/>
<path d="M63.53 17.509C63.7655 17.1926 64.0003 16.8841 64.2346 16.5834C64.4791 16.2718 64.7237 15.973 64.9718 15.6777L65.0153 15.627C65.2598 15.3444 65.5007 15.0727 65.7398 14.8137L65.3015 13.5874L65.249 13.6363L65.1385 13.7377C64.9338 13.9297 64.7164 14.1344 64.4954 14.3572L64.1132 14.743L63.8524 15.0129C63.8089 15.0582 63.7655 15.1053 63.7202 15.1506C63.4775 15.4096 63.2275 15.685 62.9757 15.9657C62.8163 16.1468 62.6551 16.328 62.4939 16.5218L62.3127 16.7392L62.8706 18.4074L63.0916 18.1049L63.53 17.509Z" fill="#9FEFDE"/>
<path d="M58.7463 25.5788L58.6629 25.7328L58.4438 26.1421L58.3315 26.3505L58.2155 26.5751C58.1938 26.6149 58.1721 26.6529 58.1539 26.6946L58.0416 26.9283L57.7736 27.4463C57.9909 27.5876 58.1358 27.8919 58.2644 28.2325C58.2951 27.8966 58.1938 27.562 57.9819 27.2996C59.1158 27.5188 60.1446 27.3757 60.7732 26.6113C60.8275 26.5425 60.8837 26.47 60.9344 26.3939C60.6681 26.6421 60.3783 26.729 59.8765 26.6366L59.8186 26.6258C60.6663 26.3867 61.1155 26.1005 61.5502 25.5879C61.6517 25.4647 61.7567 25.3307 61.8636 25.1821C61.5247 25.4599 61.1192 25.6445 60.6872 25.7175C60.2552 25.7906 59.8115 25.7497 59.4002 25.5987L58.7463 25.5788Z" fill="#9FEFDE"/>
<path d="M59.1285 24.4268L59.3639 24.0138L59.7516 23.3327C59.9418 23.0049 60.1356 22.6788 60.333 22.3492C60.5304 22.0195 60.7315 21.6898 60.9344 21.3602C61.1372 21.0305 61.351 20.69 61.5647 20.3585C61.7785 20.027 61.9922 19.7028 62.2041 19.3785C62.282 19.2608 62.3599 19.1485 62.4414 19.0308C62.5755 18.8315 62.7131 18.6341 62.8508 18.4366L62.8725 18.404L62.3291 16.7412L62.2983 16.7792L62.2802 16.7992C62.0538 17.0727 61.8238 17.3426 61.601 17.6342C61.3782 17.9258 61.1481 18.2175 60.9253 18.52C60.7442 18.7754 60.563 19.0308 60.3729 19.2916L60.2642 19.4492C60.0432 19.7752 59.8349 20.0958 59.6483 20.4038C59.4364 20.7516 59.2462 21.0867 59.0741 21.4036C58.9618 21.6138 58.8568 21.8166 58.7589 22.0123C58.6774 22.1771 58.6014 22.3474 58.5235 22.514C58.346 22.9065 58.186 23.3025 58.0435 23.7023L58.6032 25.3796L58.7137 25.1803L58.9365 24.78L59.0379 24.5735L59.1248 24.4232L59.1285 24.4268Z" fill="#9FEFDE"/>
<path d="M58.0126 23.7565C57.8616 24.1754 57.734 24.6023 57.6304 25.0353L57.5761 25.269C57.5167 25.1436 57.4419 25.0261 57.3533 24.9194L57.2972 24.8524L57.2682 24.8198L57.2102 24.7545L57.1522 24.6948L57.0961 24.6368L57.0146 24.5589L56.9403 24.4901L56.8588 24.4194L56.7863 24.3597C57.1595 25.115 57.4185 25.8486 57.3714 26.5224C57.025 26.5022 56.6895 26.3937 56.3969 26.2073C56.5265 26.369 56.6735 26.516 56.8353 26.6456L56.8914 26.6873L56.9186 26.7072L56.9693 26.7416L57.0164 26.7706L57.0599 26.7941L57.0979 26.8159L57.1323 26.8322L57.1613 26.8449H57.174C56.8112 26.8488 56.456 26.9495 56.1451 27.1365L56.0238 27.1981L55.9024 27.2651C56.5273 27.1093 57.0182 27.0839 57.3515 27.2144C57.1903 27.5187 57.0291 27.832 56.866 28.1508L56.6197 28.6327C56.2502 29.3657 55.8764 30.1282 55.4985 30.9204L55.2413 31.4566C55.1561 31.6377 55.0728 31.8188 54.9877 32C55.0653 31.9887 55.1389 31.9585 55.2021 31.9121C55.2652 31.8656 55.316 31.8044 55.3499 31.7337L55.6361 31.1287L55.8988 30.5853L56.2357 29.9006L56.5309 29.3065L56.8262 28.725L57.1051 28.1816L57.4928 27.4354L57.7681 26.9137L57.8641 26.7325L57.9456 26.5822L58.0199 26.4409L58.1322 26.2308L58.364 25.8051L58.4836 25.5878L58.5923 25.3903L58.0416 23.7021C58.0349 23.7138 58.0288 23.7259 58.0235 23.7384L58.0126 23.7565Z" fill="#9FEFDE"/>
<path d="M62.9793 18.5579L62.8924 18.6847L62.7113 18.9509L62.4232 19.3857L62.2186 19.6936L62.166 19.7733C62.0881 19.8929 62.0084 20.0142 61.9306 20.1356L61.6896 20.5105C61.5302 20.7629 61.369 21.0225 61.206 21.2894L61.0828 21.4941C60.8872 21.8165 60.6843 22.1552 60.4797 22.4994L60.246 22.9015C60.1264 23.1044 60.0069 23.3109 59.8837 23.5228L59.6718 23.9032L59.3095 24.5408L59.2008 24.7382L58.978 25.1422L58.7661 25.5551C58.7606 25.562 58.7569 25.5701 58.7552 25.5787L59.4001 25.6004L59.3621 25.5878C60.1391 25.6041 61.2332 25.1838 61.9885 24.577C62.3586 24.2736 62.6923 23.9283 62.983 23.5482C63.236 23.2188 63.4683 22.8739 63.6785 22.5157C63.8778 22.1824 64.077 21.8165 64.2726 21.4162C64.07 21.4834 63.8592 21.523 63.6459 21.5339H63.5227H63.3978C64.1495 21.3655 64.6657 20.9054 65.0914 20.3058C64.8066 20.442 64.5 20.5266 64.1857 20.5558C64.135 20.5558 64.0824 20.5558 64.0299 20.5558H63.9901C64.2299 20.4984 64.4613 20.4101 64.6784 20.2932C64.7074 20.279 64.7352 20.2627 64.7617 20.2443L64.8034 20.2189C64.865 20.179 64.9247 20.1356 64.9845 20.0921L65.095 20.0033C65.1808 19.9286 65.2602 19.8468 65.3323 19.7588L65.3794 19.7045L65.4011 19.6773L65.4609 19.5922L65.4881 19.5523C65.5985 19.3911 65.6946 19.2444 65.7743 19.1103L65.8069 19.0542C65.8503 18.9799 65.8884 18.9129 65.921 18.8495L65.9608 18.7734L66.0206 18.6539C66.0333 18.6285 66.0441 18.605 66.0532 18.5814L66.0713 18.5416L66.1003 18.4691L66.1238 18.4057V18.3804C66.1055 18.3918 66.0861 18.4015 66.0659 18.4094L66.0333 18.422C65.7378 18.5299 65.4274 18.591 65.1131 18.6032C65.1131 18.6032 65.1041 18.6032 65.1004 18.6032H65.0388H65.0062H65.0243L62.9938 18.5271C62.9884 18.547 62.9848 18.5543 62.9793 18.5579Z" fill="#9FEFDE"/>
<path d="M65.8304 14.8501C65.7579 14.9316 65.6837 15.0186 65.6058 15.1091L65.4482 15.2903L65.2834 15.4859L65.0859 15.725C65.0807 15.7303 65.0764 15.7364 65.0732 15.7431C64.9609 15.8808 64.845 16.0275 64.7237 16.1796L64.5425 16.4151C64.5117 16.455 64.4791 16.4948 64.4483 16.5365L64.1857 16.8842L64.0154 17.1125L63.7491 17.4748L63.6586 17.6015C63.568 17.7265 63.4774 17.8551 63.3832 17.9874L63.2021 18.2554L63.0083 18.5344L65.0388 18.6105C65.5051 18.5 65.9293 18.2565 66.2597 17.9095C66.3213 17.8461 66.3829 17.7772 66.4408 17.7066L66.5024 17.6342C66.7542 17.3443 67.0078 17.0219 67.2378 16.6977C67.4679 16.3734 67.6635 16.0691 67.8229 15.792C67.9261 15.6109 68.004 15.4406 68.0783 15.2884C68.1525 15.1363 68.1815 15.0294 68.2232 14.9062H68.0131H67.2414H67.0204H66.8031H66.6962H66.4861H66.3847L66.189 14.8954C66.0514 14.87 65.9318 14.861 65.8304 14.8501Z" fill="#9FEFDE"/>
</g>
<defs>
<filter id="filter0_d" x="0.858765" y="0" width="112.754" height="45" filterUnits="userSpaceOnUse" color-interpolation-filters="sRGB">
<feFlood flood-opacity="0" result="BackgroundImageFix"/>
<feColorMatrix in="SourceAlpha" type="matrix" values="0 0 0 0 0 0 0 0 0 0 0 0 0 0 0 0 0 0 127 0" result="hardAlpha"/>
<feOffset dx="3" dy="3"/>
<feGaussianBlur stdDeviation="5"/>
<feColorMatrix type="matrix" values="0 0 0 0 0 0 0 0 0 0 0 0 0 0 0 0 0 0 0.15 0"/>
<feBlend mode="normal" in2="BackgroundImageFix" result="effect1_dropShadow"/>
<feBlend mode="normal" in="SourceGraphic" in2="effect1_dropShadow" result="shape"/>
</filter>
</defs>
</svg>
