<svg width="94" height="65" viewBox="0 0 94 65" fill="none" xmlns="http://www.w3.org/2000/svg">
<g filter="url(#filter0_d)">
<path d="M43.4626 52.0001C43.2183 52.0001 42.9741 51.9282 42.7585 51.8133L40.5457 50.5057C40.2152 50.3189 40.3733 50.2614 40.4739 50.2183C40.9193 50.0746 41.0055 50.0315 41.4653 49.7729C41.5084 49.7441 41.5803 49.7585 41.6378 49.7872L43.3333 50.8074C43.4051 50.8362 43.477 50.8362 43.5345 50.8074L50.1586 46.9709C50.2304 46.9422 50.2591 46.8703 50.2591 46.7841V39.1255C50.2591 39.0392 50.2304 38.9818 50.1586 38.9387L43.5345 35.1165C43.4626 35.0878 43.3908 35.0878 43.3333 35.1165L36.7236 38.953C36.6517 38.9818 36.623 39.068 36.623 39.1398V46.7985C36.623 46.8703 36.6517 46.9422 36.7236 46.9853L38.5341 48.0342C39.5112 48.5371 40.129 47.948 40.129 47.3732V39.8152C40.129 39.7146 40.2152 39.614 40.3302 39.614H41.178C41.2785 39.614 41.3791 39.7002 41.3791 39.8152V47.3732C41.3791 48.6808 40.6607 49.4424 39.4249 49.4424C39.037 49.4424 38.7496 49.4424 37.9018 49.0257L36.1632 48.0342C35.7321 47.7899 35.4591 47.3158 35.4591 46.8272V39.1686C35.4591 38.6657 35.7177 38.2058 36.1632 37.9616L42.7873 34.1251C43.204 33.8952 43.7644 33.8952 44.1811 34.1251L50.8052 37.9616C51.2362 38.2058 51.5092 38.68 51.5092 39.1686V46.8272C51.5092 47.3301 51.2506 47.7899 50.8052 48.0342L44.1811 51.8707C43.9368 51.9426 43.6925 52.0001 43.4626 52.0001ZM45.503 46.741C42.6005 46.741 41.997 45.4191 41.997 44.2839C41.997 44.1833 42.0832 44.0828 42.1982 44.0828H43.0603C43.1609 44.0828 43.2471 44.1546 43.2471 44.2552C43.3764 45.1317 43.7644 45.5628 45.5174 45.5628C46.9112 45.5628 47.5147 45.2466 47.5147 44.4995C47.5147 44.0684 47.3422 43.7523 45.1725 43.5367C43.362 43.3499 42.2269 42.962 42.2269 41.5107C42.2269 40.16 43.362 39.3697 45.2444 39.3697C47.371 39.3697 48.4199 40.1026 48.5492 41.6975C48.5492 41.7406 48.5349 41.7981 48.5061 41.8412C48.4774 41.8699 48.4199 41.913 48.3768 41.913H47.5147C47.4285 41.913 47.3422 41.8412 47.3279 41.7694C47.1267 40.8497 46.6094 40.5624 45.2587 40.5624C43.7356 40.5624 43.5488 41.094 43.5488 41.4963C43.5488 41.9849 43.7644 42.1286 45.8191 42.3872C47.8595 42.6459 48.8222 43.0338 48.8222 44.4563C48.8079 45.9076 47.6153 46.741 45.503 46.741Z" fill="#9FEFDE"/>
<path d="M22.9007 22.0551C22.9007 21.7533 22.7282 21.4803 22.4696 21.3223L15.4288 17.2702C15.3138 17.1984 15.1845 17.1696 15.0408 17.1553H14.969C14.8397 17.1553 14.7103 17.1984 14.581 17.2702L7.5546 21.3223C7.29596 21.466 7.12354 21.7533 7.12354 22.0551L7.1379 32.9468C7.1379 33.0905 7.22412 33.2485 7.35344 33.306C7.48276 33.3922 7.65519 33.3922 7.77014 33.306L11.9515 30.9207C12.2101 30.7771 12.3826 30.4897 12.3826 30.1879V25.0869C12.3826 24.7852 12.555 24.5122 12.8136 24.3541L14.5954 23.3196C14.7247 23.2333 14.8828 23.2046 15.0265 23.2046C15.1702 23.2046 15.3282 23.2333 15.4432 23.3196L17.2249 24.3541C17.4836 24.4978 17.656 24.7852 17.656 25.0869V30.1879C17.656 30.4897 17.8284 30.7627 18.0871 30.9207L22.2684 33.306C22.3977 33.3922 22.5702 33.3922 22.6995 33.306C22.8288 33.2341 22.915 33.0905 22.915 32.9468L22.9007 22.0551Z" fill="#9FEFDE"/>
<path d="M56.7395 7.05388C56.6102 6.98204 56.4378 6.98204 56.3228 7.05388C56.1935 7.1401 56.1073 7.26942 56.1073 7.41311V18.2186C56.1073 18.3191 56.0642 18.4197 55.9636 18.4772C55.863 18.5203 55.7624 18.5203 55.6618 18.4772L53.8945 17.457C53.6358 17.3133 53.3197 17.3133 53.0467 17.457L46.0059 21.5234C45.7473 21.6671 45.5748 21.9545 45.5748 22.2562V30.3747C45.5748 30.6765 45.7473 30.9495 46.0059 31.1075L53.0467 35.1739C53.3053 35.3176 53.6215 35.3176 53.8945 35.1739L60.9353 31.1075C61.1939 30.9638 61.3663 30.6765 61.3663 30.3747V10.1432C61.3663 9.82709 61.1939 9.53971 60.9353 9.39602L56.7395 7.05388ZM56.0929 27.7165C56.0929 27.8027 56.0642 27.8601 55.9923 27.9032L53.5783 29.297C53.5065 29.3258 53.4347 29.3258 53.3628 29.297L50.9488 27.9032C50.877 27.8745 50.8482 27.7883 50.8482 27.7165V24.9289C50.8482 24.8427 50.877 24.7852 50.9488 24.7421L53.3628 23.3483C53.4347 23.3195 53.5065 23.3195 53.5783 23.3483L55.9923 24.7421C56.0642 24.7708 56.0929 24.857 56.0929 24.9289V27.7165Z" fill="#9FEFDE"/>
<path d="M80.1822 24.8572C80.4408 24.7135 80.5989 24.4261 80.5989 24.1244V22.1558C80.5989 21.8541 80.4264 21.5811 80.1822 21.423L73.1845 17.371C72.9259 17.2273 72.6097 17.2273 72.3367 17.371L65.2959 21.4374C65.0373 21.5811 64.8649 21.8684 64.8649 22.1702V30.2886C64.8649 30.5904 65.0373 30.8634 65.2959 31.0215L72.2936 35.0017C72.5523 35.1454 72.8684 35.1454 73.127 35.0017L77.3659 32.6452C77.4952 32.5733 77.5814 32.4296 77.5814 32.2859C77.5814 32.1422 77.4952 31.9842 77.3659 31.9267L70.282 27.8459C70.1526 27.7741 70.0664 27.6304 70.0664 27.4867V24.9434C70.0664 24.7997 70.1526 24.6416 70.282 24.5842L72.4948 23.3197C72.6241 23.2335 72.7965 23.2335 72.9259 23.3197L75.1387 24.5842C75.268 24.6704 75.3542 24.7997 75.3542 24.9434V26.9407C75.3542 27.0844 75.4404 27.2424 75.5697 27.2999C75.6991 27.3861 75.8715 27.3861 76.0008 27.2999L80.1822 24.8572Z" fill="#9FEFDE"/>
<path d="M72.6528 24.4835C72.6959 24.4547 72.7678 24.4547 72.8253 24.4835L74.1759 25.2594C74.219 25.2881 74.2622 25.3456 74.2622 25.4031V26.9693C74.2622 27.0411 74.2334 27.0843 74.1759 27.113L72.8253 27.8889C72.7822 27.9177 72.7103 27.9177 72.6528 27.8889L71.3022 27.113C71.259 27.0843 71.2159 27.0268 71.2159 26.9693V25.4175C71.2159 25.3456 71.2447 25.3025 71.3022 25.2738L72.6528 24.4835Z" fill="#9FEFDE"/>
<path d="M34.6785 17.3998C34.4199 17.2561 34.1038 17.2561 33.8308 17.3998L26.8331 21.4374C26.5744 21.5811 26.4164 21.8685 26.4164 22.1703V30.26C26.4164 30.5617 26.5888 30.8347 26.8331 30.9928L33.8308 35.0305C34.0894 35.1742 34.4055 35.1742 34.6785 35.0305L41.6762 30.9928C41.9349 30.8491 42.0929 30.5617 42.0929 30.26V22.1703C42.0929 21.8685 41.9205 21.5955 41.6762 21.4374L34.6785 17.3998Z" fill="#9FEFDE"/>
<mask id="mask0" mask-type="alpha" maskUnits="userSpaceOnUse" x="26" y="17" width="17" height="19">
<path d="M34.6785 17.3998C34.4199 17.2561 34.1038 17.2561 33.8308 17.3998L26.8331 21.4374C26.5744 21.5811 26.4164 21.8685 26.4164 22.1703V30.26C26.4164 30.5617 26.5888 30.8347 26.8331 30.9928L33.8308 35.0305C34.0894 35.1742 34.4055 35.1742 34.6785 35.0305L41.6762 30.9928C41.9349 30.8491 42.0929 30.5617 42.0929 30.26V22.1703C42.0929 21.8685 41.9205 21.5955 41.6762 21.4374L34.6785 17.3998Z" fill="#9FEFDE"/>
</mask>
<g mask="url(#mask0)">
<path d="M33.8164 17.3996L26.8043 21.4373C26.5457 21.5809 26.3589 21.8683 26.3589 22.1701V30.2598C26.3589 30.461 26.4451 30.6478 26.5744 30.7915L34.4486 17.3134C34.2475 17.2703 34.0032 17.2846 33.8164 17.3996Z" fill="#9FEFDE"/>
<path d="M34.4917 35.1164C34.5635 35.102 34.621 35.0733 34.6929 35.0302L41.7049 30.9925C41.9636 30.8488 42.136 30.5615 42.136 30.2597V22.17C42.136 21.9544 42.0354 21.7389 41.8917 21.5952L34.4917 35.1164Z" fill="#9FEFDE"/>
<path d="M41.6762 21.4374L34.6642 17.3997C34.5923 17.371 34.5205 17.3278 34.4487 17.3135L26.5745 30.8059C26.6463 30.8921 26.7182 30.9496 26.8044 31.0071L33.8308 35.0448C34.032 35.1597 34.2619 35.1885 34.4774 35.131L41.863 21.6098C41.8199 21.538 41.7481 21.4948 41.6762 21.4374Z" fill="#9FEFDE"/>
</g>
<mask id="mask1" mask-type="alpha" maskUnits="userSpaceOnUse" x="26" y="17" width="17" height="19">
<path d="M34.6785 17.3998C34.4199 17.2561 34.1038 17.2561 33.8308 17.3998L26.8331 21.4374C26.5744 21.5811 26.4164 21.8685 26.4164 22.1703V30.26C26.4164 30.5617 26.5888 30.8347 26.8331 30.9928L33.8308 35.0305C34.0894 35.1742 34.4055 35.1742 34.6785 35.0305L41.6762 30.9928C41.9349 30.8491 42.0929 30.5617 42.0929 30.26V22.1703C42.0929 21.8685 41.9205 21.5955 41.6762 21.4374L34.6785 17.3998Z" fill="#9FEFDE"/>
</mask>
<g mask="url(#mask1)">
<path d="M42.136 30.2679V22.1782C42.136 21.8765 41.9492 21.6034 41.6906 21.4454L34.6642 17.4077C34.5779 17.3646 34.4917 17.3215 34.4055 17.3071L42.0929 30.4404C42.1217 30.3973 42.136 30.3254 42.136 30.2679Z" fill="#9FEFDE"/>
<path d="M26.8043 21.4455C26.5457 21.5892 26.3589 21.8766 26.3589 22.1783V30.2681C26.3589 30.5698 26.5601 30.8428 26.8043 31.0009L33.8308 35.0386C34.0032 35.1391 34.1756 35.1679 34.3768 35.1391L26.8474 21.4312L26.8043 21.4455Z" fill="#9FEFDE"/>
<path fill-rule="evenodd" clip-rule="evenodd" d="M41.7049 30.9864C41.9061 30.8715 42.0497 30.6703 42.1216 30.4548L34.4055 17.3072C34.2043 17.2784 33.9888 17.2928 33.802 17.4078L26.833 21.4311L34.3623 35.1534C34.4629 35.1391 34.5779 35.1103 34.6785 35.0528L41.7049 30.9864Z" fill="#9FEFDE"/>
<path fill-rule="evenodd" clip-rule="evenodd" d="M41.7049 30.9864L34.6928 35.0241C34.5922 35.0672 34.4917 35.1103 34.3767 35.1247L34.506 35.369L42.2796 30.8715V30.7709L42.0785 30.4404C42.0497 30.6703 41.8917 30.8715 41.7049 30.9864Z" fill="#9FEFDE"/>
<path fill-rule="evenodd" clip-rule="evenodd" d="M41.7049 30.9864L34.6928 35.0241C34.5922 35.0672 34.4917 35.1103 34.3767 35.1247L34.506 35.369L42.2796 30.8715V30.7709L42.0785 30.4404C42.0497 30.6703 41.8917 30.8715 41.7049 30.9864Z" fill="#9FEFDE"/>
</g>
</g>
<defs>
<filter id="filter0_d" x="0.123535" y="0" width="93.4753" height="65.0001" filterUnits="userSpaceOnUse" color-interpolation-filters="sRGB">
<feFlood flood-opacity="0" result="BackgroundImageFix"/>
<feColorMatrix in="SourceAlpha" type="matrix" values="0 0 0 0 0 0 0 0 0 0 0 0 0 0 0 0 0 0 127 0" result="hardAlpha"/>
<feOffset dx="3" dy="3"/>
<feGaussianBlur stdDeviation="5"/>
<feColorMatrix type="matrix" values="0 0 0 0 0 0 0 0 0 0 0 0 0 0 0 0 0 0 0.15 0"/>
<feBlend mode="normal" in2="BackgroundImageFix" result="effect1_dropShadow"/>
<feBlend mode="normal" in="SourceGraphic" in2="effect1_dropShadow" result="shape"/>
</filter>
</defs>
</svg>
