<svg width="66" height="65" viewBox="0 0 66 65" fill="none" xmlns="http://www.w3.org/2000/svg">
<g filter="url(#filter0_d)">
<path d="M29.6378 7C27.795 7 26.0322 7.16025 24.5099 7.44068C19.983 8.24191 19.1417 9.92449 19.1417 13.0092V17.0955H29.8781V18.4576H19.1417H15.0955C11.9707 18.4576 9.24648 20.3405 8.36513 23.906C7.36359 27.9922 7.32353 30.5562 8.36513 34.8427C9.12629 38.0076 10.9691 40.2911 14.0539 40.2911H17.7395V35.4036C17.7395 31.8381 20.8243 28.7133 24.4698 28.7133H35.2063C38.2109 28.7133 40.5746 26.2696 40.5746 23.265V13.0493C40.5746 10.1248 38.1308 7.96148 35.2063 7.48074C33.4036 7.16025 31.4806 7 29.6378 7ZM23.8289 10.3251C24.9506 10.3251 25.8319 11.2465 25.8319 12.3682C25.8319 13.49 24.9105 14.4114 23.8289 14.4114C22.7071 14.4114 21.8258 13.49 21.8258 12.3682C21.8258 11.2465 22.7071 10.3251 23.8289 10.3251Z" fill="#9FEFDE"/>
<path d="M41.9367 18.4976V23.2649C41.9367 26.9506 38.8119 30.0754 35.2064 30.0754H24.51C21.5855 30.0754 19.1417 32.5992 19.1417 35.5237V45.7394C19.1417 48.6639 21.6656 50.3465 24.51 51.1878C27.9152 52.1893 31.1602 52.3495 35.2464 51.1878C37.9706 50.3865 40.6147 48.8241 40.6147 45.7394V41.6531H29.8782V40.291H40.6147H45.9829C49.1077 40.291 50.2695 38.1277 51.3512 34.8427C52.4729 31.4775 52.4328 28.2325 51.3512 23.9059C50.59 20.7811 49.1077 18.4575 45.9829 18.4575H41.9367V18.4976ZM35.9275 44.3773C37.0492 44.3773 37.9306 45.2987 37.9306 46.4204C37.9306 47.5422 37.0091 48.4636 35.9275 48.4636C34.8058 48.4636 33.9244 47.5422 33.9244 46.4204C33.8844 45.2987 34.8058 44.3773 35.9275 44.3773Z" fill="#9FEFDE"/>
</g>
<defs>
<filter id="filter0_d" x="0.598877" y="0" width="64.5786" height="65.0001" filterUnits="userSpaceOnUse" color-interpolation-filters="sRGB">
<feFlood flood-opacity="0" result="BackgroundImageFix"/>
<feColorMatrix in="SourceAlpha" type="matrix" values="0 0 0 0 0 0 0 0 0 0 0 0 0 0 0 0 0 0 127 0" result="hardAlpha"/>
<feOffset dx="3" dy="3"/>
<feGaussianBlur stdDeviation="5"/>
<feColorMatrix type="matrix" values="0 0 0 0 0 0 0 0 0 0 0 0 0 0 0 0 0 0 0.15 0"/>
<feBlend mode="normal" in2="BackgroundImageFix" result="effect1_dropShadow"/>
<feBlend mode="normal" in="SourceGraphic" in2="effect1_dropShadow" result="shape"/>
</filter>
</defs>
</svg>
