<svg width="22px" height="24px" viewBox="0 0 22 24"><path fill="currentColor" d="M10.656 17.479c-2.813 0-5.105-2.292-5.105-5.105a5.11 5.11 0 0 1 5.105-5.1c2.813 0 5.105 2.292 5.105 5.105a5.11 5.11 0 0 1-5.105 5.101zm0-8.675a3.58 3.58 0 0 0-3.574 3.574 3.58 3.58 0 0 0 3.574 3.574 3.58 3.58 0 0 0 3.574-3.574 3.58 3.58 0 0 0-3.574-3.574z"/><path fill="currentColor" d="M17.034 19.522c-.196 0-.392-.076-.541-.225l-3.316-3.316a.764.764 0 1 1 1.081-1.081l3.316 3.316a.76.76 0 0 1 0 1.081c-.148.148-.344.225-.541.225zM10.746 20H2.804A2.81 2.81 0 0 1 0 17.191V2.809A2.81 2.81 0 0 1 2.809 0h11.737a2.81 2.81 0 0 1 2.809 2.809v6.23a.77.77 0 0 1-.766.766.77.77 0 0 1-.765-.766v-6.23a1.28 1.28 0 0 0-1.277-1.278H2.809a1.28 1.28 0 0 0-1.278 1.278v14.388a1.28 1.28 0 0 0 1.278 1.273h7.943a.77.77 0 0 1 .765.765.77.77 0 0 1-.77.766zm2.78-15.373H3.828a.77.77 0 0 1-.766-.766.77.77 0 0 1 .766-.766h9.699a.77.77 0 0 1 .765.766.77.77 0 0 1-.765.766zM7.048 7.081h-3.22a.77.77 0 0 1-.766-.766.77.77 0 0 1 .766-.766h3.22a.77.77 0 0 1 .766.766c0 .421-.34.766-.766.766z"/></svg>