<svg xmlns="http://www.w3.org/2000/svg" width="67" height="60" fill="none" xmlns:v="https://vecta.io/nano"><path d="M16.36 26.083L1.035 33.726 16.36 41.37l15.325-7.643-15.325-7.643z" fill="#ebece9"/><path d="M16.36 41.37v18.153l15.325-7.643V33.726L16.36 41.37z" fill="#d8d8d8"/><path d="M28.283 35.408v18.115l3.401-1.682V33.726l-3.401 1.681zM.997 33.726l15.325 7.643v18.153L.997 51.879V33.726z" fill="#c1c1c1"/><path d="M31.914 33.268l-15.363-7.643c-.153-.076-.306-.076-.459 0l-3.21 1.605c-.573.268-.153 1.185.459.917l2.981-1.49 14.217 7.108-14.216 7.108-14.178-7.146 8.828-4.433c.573-.267.153-1.185-.459-.917L.768 33.268c-.153.115-.268.267-.268.459v18.115a.53.53 0 0 0 .268.459l15.325 7.643c.153.076.306.076.459 0l3.057-1.529c.573-.267.153-1.185-.459-.917l-2.331 1.147V41.637l14.331-7.147v17.006l-9.554 4.777c-.573.268-.153 1.185.459.917l9.822-4.93a.53.53 0 0 0 .268-.459V33.726c.038-.191-.076-.382-.229-.459zM1.494 51.535V34.567l14.331 7.147V58.72L1.494 51.535z" fill="#244583"/><path d="M47.315 26.083L31.99 33.726l15.325 7.643 15.325-7.643-15.325-7.643z" fill="#ebece9"/><path d="M47.315 41.37v18.153l15.325-7.643V33.726L47.315 41.37z" fill="#d8d8d8"/><path d="M59.277 35.408v18.115l3.401-1.682V33.726l-3.401 1.681zM31.99 33.726l15.325 7.643v18.153L31.99 51.879V33.726z" fill="#c1c1c1"/><path d="M62.869 33.268l-15.325-7.643c-.153-.076-.306-.076-.459 0l-3.21 1.605c-.573.268-.153 1.185.459.917l2.981-1.49 14.217 7.108-14.217 7.108-14.217-7.146 8.828-4.433c.573-.267.153-1.185-.459-.917l-9.707 4.892a.53.53 0 0 0-.267.459v18.115a.53.53 0 0 0 .267.459l15.325 7.643c.153.076.306.076.459 0l3.057-1.529c.573-.267.153-1.185-.459-.917l-2.331 1.147V41.637l14.331-7.147v17.006l-9.554 4.777c-.573.268-.153 1.185.459.917l9.822-4.93a.53.53 0 0 0 .268-.459V33.726c.038-.191-.115-.382-.268-.459zM32.487 51.535V34.567l14.331 7.147V58.72l-14.331-7.185z" fill="#244583"/><path d="M31.99.516L16.666 8.159l15.325 7.643 15.325-7.643L31.99.516z" fill="#ebece9"/><path d="M31.99 15.841v18.153l15.325-7.643V8.198L31.99 15.841z" fill="#d8d8d8"/><path d="M43.952 9.879v18.115l3.401-1.681V8.198L43.952 9.88zM16.666 8.198l15.325 7.643v18.153L16.666 26.35V8.198z" fill="#c1c1c1"/><g fill="#244583"><path d="M47.545 7.739L32.22.057a.49.49 0 0 0-.459 0l-3.21 1.605c-.573.268-.153 1.185.459.917l2.981-1.49 14.217 7.108-14.217 7.07-14.217-7.07 8.866-4.433c.573-.268.153-1.185-.459-.917l-9.745 4.892a.53.53 0 0 0-.268.459v18.115a.53.53 0 0 0 .268.459l15.325 7.643a.49.49 0 0 0 .459 0l3.057-1.529c.573-.268.153-1.185-.459-.917l-2.331 1.146V16.147L46.819 9v17.006l-9.554 4.777c-.573.268-.153 1.185.459.917l9.822-4.93a.53.53 0 0 0 .267-.459V8.197c.038-.229-.115-.382-.267-.459zM17.163 26.006V9l14.331 7.147v17.006l-14.331-7.147zm48.42 11.809c-.229 0-.459-.229-.459-.459v-.841c0-.229.229-.459.459-.459s.459.229.459.459v.841c.038.229-.153.459-.459.459z"/><path d="M65.583 49.854c-.229 0-.459-.229-.459-.459v-9.554c0-.229.229-.459.459-.459s.459.229.459.459v9.554c.038.229-.153.459-.459.459zM50.411 12.172c-.229 0-.459-.229-.459-.459v-.841c0-.229.229-.459.459-.459s.459.229.459.459v.841c.038.268-.191.459-.459.459zm0 12.076c-.229 0-.459-.229-.459-.459v-9.554c0-.229.229-.459.459-.459s.459.229.459.459v9.554c.038.229-.191.459-.459.459z"/></g></svg>