<svg width="120" height="80" viewBox="0 0 120 80" fill="none" xmlns="http://www.w3.org/2000/svg">
<path d="M59.7033 0.519531C59.3768 0.519531 59.1096 0.786693 59.1096 1.11322V78.7681C59.1096 79.0947 59.3768 79.3618 59.7033 79.3618C60.0298 79.3618 60.297 79.0947 60.297 78.7681V1.14291C60.297 0.786693 60.0298 0.519531 59.7033 0.519531Z" fill="#EBECE9"/>
<path d="M63.1167 2.01861C61.2169 0.118796 58.1594 0.118796 56.2596 2.01861C54.3598 3.91843 54.3598 6.97594 56.2596 8.87575C58.1594 10.7756 61.2169 10.7756 63.1167 8.87575C65.0165 6.97594 65.0165 3.91843 63.1167 2.01861Z" fill="#24C4A1"/>
<path d="M63.5623 1.60297C61.425 -0.534323 57.9816 -0.534323 55.874 1.60297C53.7367 3.74026 53.7367 7.18367 55.874 9.29128C56.9426 10.3599 58.3378 10.8942 59.733 10.8942C61.1281 10.8942 62.5233 10.3599 63.592 9.29128C65.6699 7.18367 65.6699 3.71057 63.5623 1.60297ZM62.7014 8.43043C61.0391 10.0928 58.3675 10.0928 56.7051 8.43043C55.0428 6.76809 55.0428 4.09647 56.7051 2.43414C57.5363 1.60297 58.6049 1.18738 59.7033 1.18738C60.8016 1.18738 61.8703 1.60297 62.7014 2.43414C64.3341 4.09647 64.3341 6.79777 62.7014 8.43043Z" fill="#244583"/>
<path d="M63.1167 71.1243C61.2169 69.2245 58.1594 69.2245 56.2596 71.1243C54.3598 73.0241 54.3598 76.0816 56.2596 77.9815C58.1594 79.8813 61.2169 79.8813 63.1167 77.9815C65.0165 76.0816 65.0165 73.0241 63.1167 71.1243Z" fill="#24C4A1"/>
<path d="M63.5623 70.7087C61.425 68.5714 57.9816 68.5714 55.874 70.7087C53.7367 72.846 53.7367 76.2894 55.874 78.397C56.9426 79.4656 58.3378 80 59.733 80C61.1281 80 62.5233 79.4656 63.592 78.397C65.6699 76.2894 65.6699 72.8163 63.5623 70.7087ZM62.7014 77.5361C61.0391 79.1985 58.3675 79.1985 56.7051 77.5361C55.0428 75.8738 55.0428 73.2022 56.7051 71.5398C57.5363 70.7087 58.6049 70.2931 59.7033 70.2931C60.8016 70.2931 61.8703 70.7087 62.7014 71.5398C64.3341 73.2022 64.3341 75.9035 62.7014 77.5361Z" fill="#244583"/>
<path d="M98.5604 39.4065H20.9055C20.5789 39.4065 20.3118 39.6737 20.3118 40.0002C20.3118 40.3267 20.5789 40.5939 20.9055 40.5939H98.5604C98.8869 40.5939 99.1541 40.3267 99.1541 40.0002C99.1541 39.6737 98.9166 39.4065 98.5604 39.4065Z" fill="#EBECE9"/>
<path d="M103.399 36.5865C101.499 34.6867 98.4416 34.6867 96.5418 36.5865C94.642 38.4863 94.642 41.5438 96.5418 43.4436C98.4416 45.3434 101.499 45.3434 103.399 43.4436C105.299 41.5438 105.299 38.4566 103.399 36.5865Z" fill="#9FEFDE"/>
<path d="M103.814 36.1411C101.707 34.0038 98.2338 34.0038 96.1262 36.1411C93.9889 38.2783 93.9889 41.7218 96.1262 43.8294C97.1948 44.898 98.59 45.4323 99.9852 45.4323C101.38 45.4323 102.776 44.898 103.844 43.8294C105.952 41.7218 105.952 38.2783 103.814 36.1411ZM102.954 42.9982C101.291 44.6605 98.6197 44.6605 96.9573 42.9982C95.295 41.3359 95.295 38.6642 96.9573 37.0019C98.6197 35.3396 101.291 35.3396 102.954 37.0019C104.616 38.6642 104.616 41.3359 102.954 42.9982Z" fill="#244583"/>
<path d="M22.8645 36.5865C20.9647 34.6867 17.9072 34.6867 16.0074 36.5865C14.1076 38.4863 14.1076 41.5438 16.0074 43.4436C17.9072 45.3434 20.9647 45.3434 22.8645 43.4436C24.7347 41.5438 24.7347 38.4566 22.8645 36.5865Z" fill="#9FEFDE"/>
<path d="M23.2802 36.1411C21.1429 34.0038 17.6995 34.0038 15.5919 36.1411C13.4842 38.2783 13.4546 41.7218 15.5919 43.8294C16.6605 44.898 18.0557 45.4323 19.4509 45.4323C20.846 45.4323 22.2412 44.898 23.3099 43.8294C25.4175 41.7218 25.4175 38.2783 23.2802 36.1411ZM22.4193 42.9982C20.757 44.6605 18.0854 44.6605 16.423 42.9982C14.7607 41.3359 14.7607 38.6642 16.423 37.0019C18.0854 35.3396 20.757 35.3396 22.4193 37.0019C24.0817 38.6642 24.0817 41.3359 22.4193 42.9982Z" fill="#244583"/>
<path d="M87.6066 12.0964C87.3691 11.859 86.9832 11.859 86.7457 12.0964L31.8292 67.013C31.5918 67.2504 31.5918 67.6363 31.8292 67.8738C31.948 67.9926 32.0964 68.0519 32.2448 68.0519C32.3932 68.0519 32.5417 67.9926 32.6604 67.8738L87.5769 12.9573C87.8441 12.7198 87.8441 12.3339 87.6066 12.0964Z" fill="#EBECE9"/>
<path d="M85.885 8.97961C83.2134 8.97961 81.0464 11.1466 81.0464 13.8182C81.0464 16.4898 83.2134 18.6568 85.885 18.6568C88.5566 18.6568 90.7236 16.4898 90.7236 13.8182C90.7236 11.1466 88.5566 8.97961 85.885 8.97961Z" fill="#FEBF2D"/>
<path d="M85.8849 8.35632C82.8868 8.35632 80.4526 10.7905 80.4526 13.7886C80.4526 16.7867 82.8868 19.2209 85.8849 19.2209C88.8831 19.2209 91.3172 16.7867 91.3172 13.7886C91.3469 10.8201 88.8831 8.35632 85.8849 8.35632ZM85.8849 18.0335C83.5398 18.0335 81.64 16.1337 81.64 13.7886C81.64 11.4435 83.5398 9.54371 85.8849 9.54371C88.23 9.54371 90.1298 11.4435 90.1298 13.7886C90.1298 16.1337 88.23 18.0335 85.8849 18.0335Z" fill="#244583"/>
<path d="M33.5215 61.3433C30.8498 61.3433 28.6829 63.5102 28.6829 66.1819C28.6829 68.8535 30.8498 71.0205 33.5215 71.0205C36.1931 71.0205 38.36 68.8535 38.36 66.1819C38.36 63.5102 36.1931 61.3433 33.5215 61.3433Z" fill="#FEBF2D"/>
<path d="M33.5214 60.7495C30.5232 60.7495 28.0891 63.1836 28.0891 66.1818C28.0891 69.1799 30.5232 71.6141 33.5214 71.6141C36.5195 71.6141 38.9537 69.1799 38.9537 66.1818C38.9537 63.1836 36.5195 60.7495 33.5214 60.7495ZM33.5214 70.4267C31.1763 70.4267 29.2765 68.5269 29.2765 66.1818C29.2765 63.8367 31.1763 61.9369 33.5214 61.9369C35.8665 61.9369 37.7663 63.8367 37.7663 66.1818C37.7366 68.5269 35.8368 70.4267 33.5214 70.4267Z" fill="#244583"/>
<path d="M87.6066 67.0427L32.6901 12.1262C32.4526 11.8888 32.0667 11.8888 31.8292 12.1262C31.5918 12.3637 31.5918 12.7496 31.8292 12.9871L86.7457 67.9036C86.8645 68.0223 87.0129 68.0817 87.1613 68.0817C87.3097 68.0817 87.4582 68.0223 87.5769 67.9036C87.8441 67.6661 87.8441 67.2802 87.6066 67.0427Z" fill="#EBECE9"/>
<path d="M85.885 71.0205C88.5573 71.0205 90.7236 68.8541 90.7236 66.1819C90.7236 63.5096 88.5573 61.3433 85.885 61.3433C83.2127 61.3433 81.0464 63.5096 81.0464 66.1819C81.0464 68.8541 83.2127 71.0205 85.885 71.0205Z" fill="#FED19A"/>
<path d="M85.8849 60.7495C82.8868 60.7495 80.4526 63.1836 80.4526 66.1818C80.4526 69.1799 82.8868 71.6141 85.8849 71.6141C88.8831 71.6141 91.3172 69.1799 91.3172 66.1818C91.3469 63.1836 88.8831 60.7495 85.8849 60.7495ZM85.8849 70.4267C83.5398 70.4267 81.64 68.5269 81.64 66.1818C81.64 63.8367 83.5398 61.9369 85.8849 61.9369C88.23 61.9369 90.1298 63.8367 90.1298 66.1818C90.1298 68.5269 88.23 70.4267 85.8849 70.4267Z" fill="#244583"/>
<path d="M33.5215 8.97961C30.8498 8.97961 28.6829 11.1466 28.6829 13.8182C28.6829 16.4898 30.8498 18.6568 33.5215 18.6568C36.1931 18.6568 38.36 16.4898 38.36 13.8182C38.36 11.1466 36.1931 8.97961 33.5215 8.97961Z" fill="#FED19A"/>
<path d="M37.3506 9.95929C36.3116 8.92033 34.9462 8.35632 33.4916 8.35632C30.5231 8.35632 28.0593 10.8201 28.0593 13.8183C28.0593 16.8164 30.4935 19.2506 33.4916 19.2506C36.4898 19.2506 38.9239 16.8164 38.9239 13.8183C38.9536 12.3637 38.3896 10.9983 37.3506 9.95929ZM33.5213 18.0335C31.1762 18.0335 29.2764 16.1337 29.2764 13.7886C29.2764 11.4435 31.1762 9.54371 33.5213 9.54371C34.6493 9.54371 35.718 9.98898 36.5194 10.7905C37.3209 11.5919 37.7662 12.6606 37.7662 13.7886C37.7365 16.1337 35.8367 18.0335 33.5213 18.0335Z" fill="#244583"/>
<path d="M75.2281 29.9369C74.9016 29.9369 74.5751 29.9666 74.2485 29.9666C72.4674 23.5844 66.6493 18.924 59.7031 18.924C51.3617 18.924 44.5936 25.692 44.5936 34.0334C44.5936 34.1521 44.5936 34.2709 44.5936 34.3896C43.7921 34.2115 42.9313 34.1225 42.0704 34.1225C35.7476 34.1225 30.6418 39.2282 30.6418 45.551C30.6418 51.8739 35.7476 56.9796 42.0704 56.9796C42.3376 56.9796 42.6047 56.9796 42.8719 56.9499V56.9796H75.4062C82.7977 56.8905 88.7346 50.8646 88.7346 43.4731C88.7346 35.9629 82.7086 29.9369 75.2281 29.9369Z" fill="#EBECE9"/>
<path d="M75.2283 29.3136C75.0502 29.3136 74.8721 29.3136 74.694 29.3136C72.6458 22.8127 66.5604 18.3007 59.7033 18.3007C51.1838 18.3007 44.2079 25.1281 44.0001 33.6179C43.3767 33.5289 42.7237 33.4695 42.1003 33.4695C35.4509 33.4695 30.0483 38.8721 30.0483 45.5214C30.0483 52.1708 35.4509 57.5734 42.1003 57.5734C42.3081 57.5734 42.5159 57.5734 42.7534 57.5437C42.8127 57.5437 42.8424 57.5734 42.9018 57.5734H49.0168C49.3433 57.5734 49.6105 57.3062 49.6105 56.9797C49.6105 56.6532 49.3433 56.386 49.0168 56.386H43.0799C42.9908 56.3563 42.9315 56.3563 42.8424 56.3563C42.5456 56.386 42.3081 56.386 42.1003 56.386C36.1337 56.386 31.2654 51.5177 31.2654 45.5511C31.2654 39.5845 36.1337 34.7162 42.1003 34.7162C42.9018 34.7162 43.7033 34.8053 44.4751 34.9834C44.6532 35.0131 44.861 34.9834 44.9797 34.8647C45.1281 34.7459 45.2172 34.5678 45.2172 34.3897V34.2413C45.2172 34.1819 45.2172 34.1226 45.2172 34.0632C45.2172 26.078 51.7181 19.5771 59.7033 19.5771C66.1745 19.5771 71.9333 23.9407 73.655 30.1745C73.7441 30.4417 74.0112 30.6495 74.2784 30.6198C74.6346 30.5901 74.9315 30.5901 75.2283 30.5901C82.3526 30.5901 88.1411 36.3786 88.1411 43.5029C88.1411 50.5084 82.4417 56.2969 75.4064 56.4157C75.3767 56.4157 75.3471 56.4157 75.3471 56.4157H54.2116C53.8851 56.4157 53.6179 56.6828 53.6179 57.0094C53.6179 57.3359 53.8851 57.6031 54.2116 57.6031H75.4361C75.4658 57.6031 75.4955 57.6031 75.5252 57.6031C83.1838 57.4546 89.3879 51.1318 89.3879 43.5029C89.3582 35.6662 83.0057 29.3136 75.2283 29.3136Z" fill="#244583"/>
<path d="M75.2283 30.5307C74.9315 30.5307 74.6346 30.5307 74.2784 30.5604C73.9816 30.5901 73.7144 30.3823 73.655 30.1151C71.9036 23.8813 66.1745 19.5177 59.7033 19.5177C58.6643 19.5177 57.655 19.6364 56.6458 19.8442C61.8406 20.9426 66.1151 24.8609 67.5994 30.1151C67.6884 30.3823 67.9259 30.5901 68.2227 30.5604C68.579 30.5307 68.8758 30.5307 69.1727 30.5307C76.297 30.5307 82.0855 36.3192 82.0855 43.4435C82.0855 50.4787 76.386 56.2672 69.3508 56.3563C69.3211 56.3563 69.3211 56.3563 69.2914 56.3563H75.3471C75.3767 56.3563 75.3767 56.3563 75.4064 56.3563C82.4417 56.2672 88.1411 50.4787 88.1411 43.4435C88.1411 36.3192 82.3526 30.5307 75.2283 30.5307Z" fill="#C1C1C1"/>
<path d="M59.0204 32.9944C57.4175 34.0631 53.7069 36.2003 49.1949 37.1206C48.4824 37.269 47.9778 37.8924 47.9778 38.6048V50.8349C47.9778 52.1113 48.1856 53.4174 48.5715 54.6345C49.4026 57.2764 51.065 59.6215 53.321 61.2838L59.347 65.6475C59.6735 65.8849 60.0891 65.8849 60.4453 65.6475L66.4713 61.2838C68.7273 59.6512 70.4193 57.3061 71.2208 54.6345C71.6067 53.4174 71.8145 52.141 71.8145 50.8349V38.6642C71.8145 37.9221 71.3099 37.3284 70.5974 37.1799C65.9963 36.2003 62.2858 34.0631 60.6828 32.9944C60.1485 32.6679 59.5251 32.6679 59.0204 32.9944Z" fill="#9FEFDE"/>
<path d="M70.7756 36.8239C70.6568 36.7942 70.5381 36.7942 70.3897 36.7349C70.6272 37.002 70.7459 37.3582 70.7459 37.7145V50.3007C70.7459 51.6365 70.5381 52.913 70.1522 54.2191C69.2914 56.9501 67.5103 59.3842 65.1058 61.0465L58.7236 65.5289C58.5752 65.6477 58.3971 65.6773 58.219 65.6773L58.8721 66.1523C59.2283 66.3898 59.7032 66.3898 60.0001 66.1523L66.3526 61.6699C68.7273 59.9779 70.5381 57.5735 71.399 54.8425C71.7849 53.5957 71.9927 52.2599 71.9927 50.9241V38.3972C72.052 37.6254 71.5177 36.9723 70.7756 36.8239Z" fill="#24C4A1"/>
<path d="M70.7756 36.4677C66.1151 35.4881 62.3452 33.2321 60.8906 32.2821C60.2376 31.8666 59.4064 31.8666 58.7533 32.2821C57.2988 33.2321 53.5288 35.4881 48.8684 36.4677C47.9184 36.6755 47.2654 37.477 47.2654 38.4269V50.8944C47.2654 52.2599 47.4732 53.5957 47.8591 54.8721C48.7199 57.6922 50.501 60.156 52.8461 61.848L58.9908 66.3007C59.2283 66.4491 59.4954 66.5679 59.7626 66.5679C60.0298 66.5679 60.2969 66.4788 60.5344 66.3007L66.6791 61.848C69.0539 60.1263 70.8053 57.6328 71.6661 54.8721C72.052 53.5957 72.2598 52.2302 72.2598 50.8944V38.4269C72.3489 37.477 71.6958 36.6755 70.7756 36.4677ZM71.5177 38.4269V50.8944C71.5177 52.1708 71.3099 53.4176 70.9834 54.6347C70.1522 57.2469 68.5196 59.592 66.2932 61.1949L60.1485 65.6476C59.9407 65.7664 59.7329 65.7664 59.5548 65.6476L53.3804 61.1949C51.1541 59.592 49.5214 57.2469 48.6902 54.6347C48.3043 53.4176 48.1559 52.1708 48.1559 50.8944V38.4269C48.1559 37.8925 48.5418 37.4176 49.1058 37.3285C53.7069 36.3489 57.4472 34.2413 59.258 33.0243C59.6439 32.7868 60.1188 32.7868 60.5047 33.0243C62.3452 34.182 66.0854 36.3489 70.6569 37.3285C71.1615 37.4176 71.5177 37.8629 71.5177 38.4269Z" fill="#22417D"/>
<path d="M59.8219 66.6866C59.4954 66.6866 59.1985 66.5975 58.9611 66.4194L52.8163 61.9667C50.4416 60.245 48.6308 57.7515 47.77 54.9018C47.3841 53.6253 47.1763 52.2599 47.1763 50.8944V38.4268C47.1763 37.4472 47.8887 36.5864 48.8683 36.4083C53.4397 35.4287 57.2097 33.1727 58.6642 32.2227C59.3766 31.7478 60.2672 31.8072 60.9202 32.2227C62.3154 33.1727 66.1447 35.399 70.7458 36.3489C71.7254 36.5567 72.4379 37.4176 72.4379 38.3675V50.835C72.4379 52.2005 72.2301 53.566 71.8442 54.8424C70.9833 57.6625 69.2022 60.156 66.7978 61.9073L60.6531 66.36C60.4453 66.5975 60.1484 66.6866 59.8219 66.6866ZM59.8219 32.104C59.4657 32.104 59.1095 32.2227 58.8126 32.4305C57.3581 33.3804 53.5288 35.6365 48.898 36.6161C48.0371 36.8239 47.3841 37.566 47.3841 38.4565V50.924C47.3841 52.2599 47.5919 53.6253 47.9778 54.8721C48.8386 57.6328 50.59 60.0966 52.9351 61.8183L59.1095 66.3007C59.5251 66.6272 60.1781 66.6272 60.5937 66.3007L66.7384 61.848C69.0835 60.1263 70.8349 57.6624 71.6958 54.9018C72.0817 53.6253 72.2894 52.2895 72.2894 50.9537V38.4565C72.2894 37.566 71.6661 36.8239 70.7755 36.6161C66.115 35.6365 62.3154 33.3804 60.8609 32.4305C60.5343 32.2227 60.1781 32.104 59.8219 32.104ZM59.8219 65.8554C59.7032 65.8554 59.5547 65.8257 59.4657 65.7367L53.321 61.284C51.0946 59.6513 49.4026 57.3062 48.6011 54.694C48.2152 53.4769 48.0074 52.2005 48.0074 50.8944V38.3971C48.0074 37.8035 48.423 37.2988 49.0167 37.1801C53.5881 36.2005 57.3284 34.0929 59.1392 32.9352C59.5548 32.668 60.0891 32.668 60.5047 32.9352C62.3451 34.0929 66.0557 36.2599 70.6271 37.1801C71.2208 37.2988 71.6364 37.8035 71.6364 38.3971V50.8647C71.6364 52.1411 71.4286 53.3879 71.0427 54.6643C70.2115 57.3062 68.5492 59.6513 66.3228 61.2543L60.1781 65.707C60.0594 65.8257 59.9406 65.8554 59.8219 65.8554ZM59.8219 32.9649C59.6141 32.9649 59.436 32.9945 59.2876 33.1133C57.4471 34.271 53.7069 36.438 49.1058 37.4176C48.6011 37.5363 48.2746 37.9222 48.2746 38.4268V50.8944C48.2746 52.1411 48.4824 53.3879 48.8089 54.6049C49.5807 57.2172 51.2727 59.5326 53.4694 61.1355L59.6141 65.5882C59.7625 65.707 59.9703 65.707 60.0891 65.5882L66.2338 61.1355C68.4304 59.5326 70.0928 57.2172 70.8943 54.6049C71.2505 53.3879 71.4286 52.1411 71.4286 50.8944V38.4268C71.4286 37.9222 71.0724 37.5363 70.5974 37.4176C65.9963 36.438 62.256 34.3007 60.4156 33.1133C60.2078 32.9945 60.0297 32.9649 59.8219 32.9649Z" fill="#244583"/>
<path d="M63.9778 42.5529L57.5066 49.9741L55.3693 48.2524C54.4194 47.4806 53.0242 47.629 52.2524 48.5789C51.4806 49.5288 51.6291 50.924 52.579 51.6661L58.0112 56.0298L67.3025 45.4027C68.1337 44.5121 68.0149 43.0873 67.0947 42.2858C66.1448 41.5437 64.7496 41.6327 63.9778 42.5529Z" fill="#EBECE9"/>
<path d="M68.2524 43.7998C68.2227 43.0874 67.8962 42.464 67.3619 41.9891C66.2635 41.0392 64.6012 41.1579 63.6513 42.2266L57.4175 49.3212L55.6068 47.8666C54.4787 46.9761 52.8461 47.1245 51.8962 48.2525C51.4806 48.7869 51.2431 49.4696 51.3025 50.1523C51.3915 50.8648 51.7181 51.4882 52.2821 51.9037L58.0112 56.5642L67.5697 45.6403C68.0743 45.2247 68.3118 44.5123 68.2524 43.7998ZM52.8461 51.3397C52.4899 51.0132 52.2524 50.5976 52.193 50.1227C52.1633 49.6477 52.2821 49.1728 52.5789 48.8462C52.9351 48.4306 53.4398 48.1932 53.9741 48.1932C54.36 48.1932 54.8053 48.3416 55.1021 48.5791L57.5659 50.5679L64.2747 42.8499C64.9277 42.1078 66.0261 42.0188 66.7682 42.7015C67.1244 43.028 67.3619 43.4436 67.3915 43.9186C67.4212 44.3935 67.2728 44.8685 66.976 45.195L57.9518 55.4956L52.8461 51.3397Z" fill="#244583"/>
</svg>
