<svg xmlns="http://www.w3.org/2000/svg" width="100" height="100" fill="none" xmlns:v="https://vecta.io/nano"><path d="M50 93.758c24.167 0 43.758-19.591 43.758-43.758S74.167 6.242 50 6.242 6.242 25.833 6.242 50 25.833 93.758 50 93.758z" fill="#ebece9"/><path d="M50 6.242c-13.455 0-26.182 6.242-34.485 16.848 17.333-16.788 45.03-16.364 61.818 1.03 15.212 15.697 16.485 40.182 3.03 57.394 17.394-16.727 17.939-44.424 1.152-61.818C73.273 11.03 61.879 6.242 50 6.242z" fill="#c1c1c1"/><g fill="#244583"><path d="M50 12.485a.7.7 0 0 1-.727-.727V.727A.7.7 0 0 1 50 0a.7.7 0 0 1 .727.727v11.03c0 .364-.303.727-.727.727zM50 100a.7.7 0 0 1-.727-.727v-11.03a.7.7 0 0 1 .727-.727.7.7 0 0 1 .727.727v11.03A.7.7 0 0 1 50 100zm49.273-49.273h-11.03a.7.7 0 0 1-.727-.727.7.7 0 0 1 .727-.727h11.03A.7.7 0 0 1 100 50a.7.7 0 0 1-.727.727zm-87.515 0H.727A.7.7 0 0 1 0 50a.7.7 0 0 1 .727-.727h11.03a.7.7 0 0 1 .727.727c0 .424-.364.727-.727.727z"/><path d="M50 94.485C25.455 94.485 5.515 74.545 5.515 50S25.455 5.515 50 5.515 94.485 25.455 94.485 50 74.546 94.485 50 94.485zM50 6.97C26.242 6.97 6.97 26.242 6.97 50S26.242 93.03 50 93.03 93.03 73.758 93.03 50 73.758 6.97 50 6.97z"/></g><path d="M39.053 34.814c1.247-1.066 1.463-2.858.484-4.003s-2.783-1.209-4.03-.142-1.463 2.858-.484 4.003 2.783 1.209 4.03.142z" fill="#eeefee"/><path d="M71.091 93.939a.7.7 0 0 1-.727-.727c0-.303.182-.545.424-.667 5.697-2.788 10.788-6.727 14.97-11.515.242-.303.727-.364 1.03-.061.303.242.364.727.061 1.03-4.303 4.97-9.576 9.03-15.454 11.879-.121.061-.243.061-.303.061zm-9.212 3.334a.7.7 0 0 1-.727-.727c0-.303.242-.606.546-.727l5.454-1.697c.364-.121.788.061.909.424s-.061.788-.424.909c-1.818.727-3.697 1.273-5.636 1.758 0 .061-.061.061-.121.061zm-57.455-62a.7.7 0 0 1-.727-.727c0-.061 0-.182.061-.242 2.727-7.939 7.455-15.091 13.758-20.727.303-.242.727-.242 1.03.061.242.303.242.727-.061 1.03-6.121 5.453-10.667 12.362-13.333 20.12a.73.73 0 0 1-.727.485zm18.788-24.485a.7.7 0 0 1-.727-.727c0-.242.121-.485.303-.606l3.697-2.242c.364-.182.788-.061.97.242.182.364.061.788-.242.97a30.82 30.82 0 0 0-3.576 2.182c-.182.121-.303.182-.424.182z" fill="#244583"/><path d="M35.03 85.576c-.121 0-.303 0-.424-.061-1.455-.667-2.909-1.394-4.303-2.242-.485-.303-.606-.909-.303-1.394.303-.424.909-.606 1.333-.364 1.333.788 2.667 1.515 4.061 2.121a1.11 1.11 0 0 1 .545 1.333c-.121.364-.485.606-.909.606zm-7.575-4.485c-.242 0-.424-.061-.606-.182a37.89 37.89 0 0 1-12.242-16 1.08 1.08 0 0 1 .545-1.333 1.08 1.08 0 0 1 1.333.546c2.424 6 6.424 11.212 11.636 15.151.424.364.545.97.182 1.394-.242.303-.545.424-.848.424z" fill="#fff"/><path d="M37.455 46.485c-1.818 0-3.212 1.454-3.212 3.212v16.545c0 3.758 3.091 6.849 6.848 6.849h17.273c3.758 0 6.849-3.091 6.849-6.849V49.697c0-1.818-1.455-3.212-3.212-3.212H37.455z" fill="#9fefde"/><path d="M62.364 46.485h-2.727c1.576 0 2.849 1.454 2.849 3.212v16.545c0 3.758-2.667 6.849-5.939 6.849h2.727c3.273 0 5.939-3.091 5.939-6.849V49.697c-.061-1.758-1.273-3.212-2.849-3.212z" fill="#24c4a1"/><g fill="#244583"><path d="M58.364 74.182H41.091a7.97 7.97 0 0 1-7.939-7.939V49.697a4.32 4.32 0 0 1 4.303-4.303H61.94a4.32 4.32 0 0 1 4.303 4.303v16.545c.061 4.424-3.515 7.939-7.879 7.939zM37.515 46.849c-1.576 0-2.848 1.273-2.848 2.849v16.545c0 3.576 2.909 6.485 6.485 6.485h17.273c3.576 0 6.485-2.909 6.485-6.485V49.697c0-1.576-1.273-2.849-2.848-2.849H37.515z"/><path d="M60.182 46.849a.7.7 0 0 1-.727-.727v-7.576a9.73 9.73 0 0 0-9.697-9.697 9.73 9.73 0 0 0-9.697 9.697v7.576a.7.7 0 0 1-.727.727.7.7 0 0 1-.727-.727v-7.576c0-6.182 5.03-11.151 11.151-11.151s11.152 5.03 11.152 11.151v7.576c0 .424-.364.727-.727.727z"/></g><path d="M51.879 60v5.576c0 .485-.364.909-.849.909h-2.545c-.485 0-.848-.364-.848-.909V60c-.97-.667-1.576-1.758-1.576-3.03 0-2.061 1.636-3.758 3.697-3.758 2 0 3.697 1.697 3.697 3.758-.061 1.273-.667 2.364-1.576 3.03z" fill="#e9ecef"/><path d="M50.97 67.091h-2.485c-.788 0-1.455-.667-1.455-1.515v-5.273c-.97-.788-1.576-2.061-1.576-3.333 0-2.424 1.939-4.364 4.303-4.364s4.303 1.939 4.303 4.364c0 1.273-.546 2.545-1.576 3.394v5.273c0 .788-.667 1.455-1.515 1.455zm-1.212-13.273c-1.697 0-3.091 1.394-3.091 3.152 0 1.03.485 2 1.273 2.606l.242.182v5.879c0 .121.121.303.242.303h2.546c.121 0 .242-.121.242-.303v-5.879l.242-.182c.788-.606 1.273-1.576 1.273-2.606.061-1.758-1.273-3.152-2.97-3.152z" fill="#244583"/></svg>