<svg xmlns="http://www.w3.org/2000/svg" xmlns:xlink="http://www.w3.org/1999/xlink" width="147" height="100" fill="none" xmlns:v="https://vecta.io/nano"><style><![CDATA[.B{fill:#244583}.C{fill:#ebece9}.D{fill:#c1c1c1}]]></style><path d="M117.64 47.015c0 .42-.302.72-.666.72H86.14c-.363 0-.666-.3-.666-.72s.303-.72.666-.72h30.834c.364-.06.666.3.666.72zm21.021 49.145a.8.8 0 0 1-.788-.78.8.8 0 0 1 .788-.78 6 6 0 0 0 5.876-5.941v-4.14a.8.8 0 0 1 .787-.78.8.8 0 0 1 .788.78v4.14c-.061 4.08-3.332 7.381-7.451 7.501zm-3.211 0h-5.149a.8.8 0 0 1-.787-.78.8.8 0 0 1 .787-.78h5.149a.8.8 0 0 1 .788.78.8.8 0 0 1-.788.78z" class="B"/><path d="M24.472 58.536l-3.877 4.08c-1.212 1.2-1.212 3.18 0 4.38l9.874 9.781a3.17 3.17 0 0 0 4.422 0l3.635-3.78s-6.361-4.02-8.178-5.82c-1.757-1.74-5.876-8.641-5.876-8.641z" class="C"/><path d="M32.711 78.278c.969 0 1.938-.36 2.665-1.08l3.877-3.84c.242-.24.242-.66 0-.84a.59.59 0 0 0-.848 0l-3.877 3.84c-.969.96-2.544.96-3.574 0l-9.874-9.781c-.969-.96-.969-2.52 0-3.54l4.422-4.38c.242-.24.303-.6.121-.84-.242-.24-.606-.3-.848-.12-.061 0-.061.06-.061.06l-4.422 4.381c-1.454 1.44-1.454 3.78 0 5.281l9.753 9.781c.666.72 1.636 1.08 2.665 1.08z" class="B"/><path d="M53.428 76.478c17.966 0 32.53-14.427 32.53-32.223s-14.564-32.223-32.53-32.223-32.53 14.427-32.53 32.223 14.564 32.223 32.53 32.223z" class="C"/><use xlink:href="#B" fill="#323c6b"/><path d="M53.428 12.031c8.602 0 16.901 3.36 22.959 9.421-14.781-10.141-35.074-6.421-45.251 8.221-8.905 12.781-7.33 30.123 3.816 41.104-14.781-10.081-18.537-30.183-8.299-44.824 6.058-8.761 16.053-13.921 26.775-13.921z" class="D"/><path d="M29.5 75.818L11.085 94.06c-2.181 2.16-5.755 2.16-7.996 0-2.181-2.16-2.181-5.701 0-7.921l18.416-18.242 7.996 7.921z" fill="#9fefde"/><path d="M2.725 94.48a6.19 6.19 0 0 1 0-8.761L21.08 67.537a.59.59 0 0 1 .848 0l7.996 7.861c.242.24.242.6 0 .84L11.509 94.48c-1.151 1.14-2.787 1.8-4.422 1.8s-3.211-.6-4.362-1.8zm18.84-25.683L3.573 86.619l-.061.06c-1.938 1.98-1.938 5.1.061 7.021s5.149 1.92 7.088-.06l17.931-17.762-7.027-7.081z" class="B"/><path d="M9.873 90.639c.303.3.788.3 1.151 0l5.513-5.401c.303-.3.303-.78 0-1.14a.85.85 0 0 0-1.151 0l-5.452 5.401c-.424.3-.424.84-.061 1.14-.061 0 0 0 0 0zm7.391-8.461a.83.83 0 0 0 0 1.14c.182.12.363.24.545.24.242 0 .424-.06.545-.24l1.817-1.8a.78.78 0 0 0-.061-1.14c-.303-.3-.788-.3-1.09 0l-1.757 1.8z" fill="#fff"/><g class="B"><use xlink:href="#B"/><path d="M15.992 95.02a.55.55 0 0 0 .424-.18l2.12-2.1a.65.65 0 0 0 0-.9c-.242-.24-.666-.24-.909 0l-2.12 2.1c-.242.24-.242.6 0 .9.182.12.363.18.485.18zM7.147 100c2.665 0 5.21-1.02 7.088-2.88.242-.24.242-.6 0-.84a.59.59 0 0 0-.848 0 8.84 8.84 0 0 1-12.358 0 .59.59 0 0 0-.848 0c-.242.24-.242.6 0 .84C1.938 98.98 4.482 100 7.147 100zm23.141-82.748c.121 0 .303-.06.424-.12.848-.72 1.575-1.26 2.302-1.74.303-.18.363-.54.182-.84s-.545-.36-.848-.18l-.061.06c-.727.48-1.454 1.08-2.363 1.8-.242.24-.303.6-.061.84.061.06.242.18.424.18zM18.172 36.454c.303 0 .545-.18.606-.48 1.454-6.061 4.543-11.581 8.905-16.082.242-.24.242-.66 0-.84-.242-.24-.666-.24-.848 0-4.543 4.621-7.754 10.381-9.268 16.682-.061.3.121.66.485.72h.121z"/></g><path d="M74.328 7.951v7.981c0 1.62-1.333 3-3.029 3H35.073c-1.636 0-3.029-1.32-3.029-3V7.951c0-1.62 1.333-2.94 2.968-2.94h36.225c1.696-.06 3.09 1.26 3.09 2.94zm0 18.782v7.981c0 1.62-1.333 3-3.029 3H35.073c-1.636 0-3.029-1.32-3.029-3v-7.981c0-1.62 1.333-2.94 2.968-2.94h36.225c1.696 0 3.09 1.32 3.09 2.94z" class="C"/><path d="M74.328 7.951v7.981c0 1.44-1.03 2.7-2.484 2.94 0-.18.061-.36.061-.54v-7.981c0-1.62-1.333-3-3.029-3H32.65c-.182 0-.363 0-.485.06.242-1.38 1.514-2.4 2.968-2.46h36.225c1.575 0 2.968 1.32 2.968 3zm0 18.842v7.981c0 1.44-1.03 2.7-2.484 2.94 0-.18.061-.36.061-.54v-8.041c0-1.62-1.333-3-3.029-3H32.65c-.182 0-.363 0-.485.06.242-1.38 1.514-2.46 2.968-2.46h36.225c1.575.06 2.968 1.38 2.968 3.06 0-.06 0-.06 0 0zm-38.891-7.861h35.559v4.32H35.437v-4.32z" class="D"/><g class="B"><use xlink:href="#C"/><path d="M77.781 6.571c-.666-2.64-3.029-4.5-5.755-4.44h-.363a.54.54 0 0 1-.545-.54c0-.3.242-.6.545-.6h.363c3.211 0 6.058 2.22 6.785 5.341.061.3-.121.6-.424.66h-.121c-.242 0-.424-.18-.485-.42zM68.149 2.07a.54.54 0 1 1 0-1.08h.848a.54.54 0 1 1 0 1.08h-.848zm3.15 36.184H35.073c-1.938 0-3.574-1.56-3.574-3.54v-7.981c0-1.92 1.575-3.48 3.513-3.54h36.225c1.938 0 3.574 1.56 3.574 3.54v7.981c.061 1.98-1.514 3.54-3.514 3.54zM35.073 24.333a2.42 2.42 0 0 0-2.423 2.4v7.981a2.42 2.42 0 0 0 2.423 2.4h36.225a2.42 2.42 0 0 0 2.423-2.4v-7.981a2.42 2.42 0 0 0-2.423-2.4H35.073zm36.226-4.861H35.073c-1.938 0-3.574-1.56-3.574-3.54V7.951c0-1.92 1.575-3.48 3.513-3.54h36.225c1.938 0 3.574 1.56 3.574 3.54v7.981c.061 1.92-1.514 3.54-3.514 3.54zM35.073 5.551a2.42 2.42 0 0 0-2.423 2.4v7.981a2.42 2.42 0 0 0 2.423 2.4h36.225a2.42 2.42 0 0 0 2.423-2.4V7.951a2.42 2.42 0 0 0-2.423-2.4H35.073z"/></g><path d="M74.328 45.635v7.981c0 1.62-1.333 3-3.029 3H35.073c-1.636 0-3.029-1.32-3.029-3v-7.981c0-1.62 1.333-2.94 2.968-2.94h36.225c1.696-.06 3.09 1.26 3.09 2.94z" class="C"/><path d="M74.328 45.635v7.981c0 1.44-1.03 2.7-2.484 2.94 0-.18.061-.36.061-.54v-7.981c0-1.62-1.333-3-3.029-3H32.65c-.182 0-.363 0-.485.06.242-1.38 1.514-2.46 2.968-2.46h36.225c1.575 0 2.968 1.32 2.968 3zm-38.891-7.861h35.559v4.32H35.437v-4.32z" class="D"/><g class="B"><use xlink:href="#C" y="18.842"/><path d="M71.299 57.156H35.073c-1.938 0-3.574-1.56-3.574-3.54v-7.981c0-1.92 1.575-3.48 3.513-3.54h36.225c1.938 0 3.574 1.56 3.574 3.54v7.981c.061 1.92-1.514 3.54-3.514 3.54zM35.073 43.174a2.42 2.42 0 0 0-2.423 2.4v7.981a2.42 2.42 0 0 0 2.423 2.4h36.225a2.42 2.42 0 0 0 2.423-2.4v-7.921a2.42 2.42 0 0 0-2.423-2.4l-36.225-.06z"/></g><path d="M40.647 53.555h-.485a.67.67 0 0 1-.666-.66.67.67 0 0 1 .666-.66h.485a.67.67 0 0 1 .666.66c-.061.42-.303.66-.666.66zm9.631 0h-7.512a.67.67 0 0 1-.666-.66.67.67 0 0 1 .666-.66h7.512a.67.67 0 0 1 .666.66.63.63 0 0 1-.666.66z" fill="#fff"/><path d="M115.884 81.278h-9.935c-2.665 0-4.846-2.16-4.846-4.8V17.252c0-2.64 2.181-4.8 4.846-4.8h9.935v1.5h-9.935c-1.817 0-3.332 1.5-3.332 3.3v59.226c0 1.8 1.515 3.3 3.332 3.3h9.935v1.5z" class="B"/><path d="M117.338 2.01h20.899c1.575 0 2.786 1.26 2.786 2.76v16.922c0 1.56-1.272 2.76-1.635 2.76h-20.899c-2.726 0-3.999-1.26-3.999-2.76V4.77c0-1.56 1.273-2.76 2.848-2.76z" fill="#9fefde"/><path d="M138.237 2.01h-20.899c-1.575 0-2.787 1.26-2.787 2.76v1.08h19.506c1.878 0 3.453 1.5 3.453 3.42v15.241h.787c1.575 0 2.787-1.26 2.787-2.76V4.77c-.061-1.56-1.272-2.76-2.847-2.76z" fill="#24c4a1"/><path d="M137.752 25.233H118.67c-2.423 0-4.361-1.98-4.361-4.32V5.491c0-2.4 1.999-4.32 4.361-4.32h19.082c2.423 0 4.362 1.98 4.362 4.32v15.422c0 2.4-1.939 4.32-4.362 4.32zM118.67 2.61c-1.575 0-2.907 1.26-2.907 2.88v15.422c0 1.56 1.272 2.88 2.907 2.88h19.082c1.575 0 2.908-1.26 2.908-2.88V5.491c0-1.56-1.272-2.88-2.908-2.88H118.67z" class="B"/><path d="M117.338 35.674h20.899c1.575 0 2.786 1.26 2.786 2.76v16.922c0 1.56-1.272 2.76-1.635 2.76h-20.899c-2.726 0-3.999-1.26-3.999-2.76V38.434c0-1.56 1.273-2.76 2.848-2.76z" fill="#b6d2dd"/><path d="M138.237 35.674h-20.899c-1.575 0-2.787 1.26-2.787 2.76v1.08h19.506c1.878 0 3.453 1.5 3.453 3.42v15.242h.787c1.575 0 2.787-1.26 2.787-2.76V38.434c-.061-1.56-1.272-2.76-2.847-2.76z" fill="#acc6cc"/><path d="M137.752 58.896H118.67c-2.423 0-4.361-1.98-4.361-4.32V39.094c0-2.4 1.999-4.32 4.361-4.32h19.082c2.423 0 4.362 1.98 4.362 4.32v15.422c0 2.46-1.939 4.38-4.362 4.38zM118.67 36.274c-1.575 0-2.907 1.26-2.907 2.88v15.422c0 1.56 1.272 2.88 2.907 2.88h19.082c1.575 0 2.908-1.26 2.908-2.88V39.094c0-1.56-1.272-2.88-2.908-2.88H118.67v.06z" class="B"/><path d="M117.338 69.277h20.899c1.575 0 2.786 1.26 2.786 2.76v16.922c0 1.56-1.272 2.76-1.635 2.76h-20.899c-2.726 0-3.999-1.26-3.999-2.76V72.037c0-1.5 1.273-2.76 2.848-2.76z" fill="#fed19a"/><path d="M138.237 69.277h-20.899c-1.575 0-2.787 1.26-2.787 2.76v1.08h19.506c1.878 0 3.453 1.5 3.453 3.42v15.242h.787c1.575 0 2.787-1.26 2.787-2.76V72.097c-.061-1.56-1.272-2.76-2.847-2.82z" fill="#febf2d"/><path d="M137.752 92.559H118.67c-2.423 0-4.361-1.98-4.361-4.32V72.817c0-2.4 1.999-4.321 4.361-4.321h19.082c2.423 0 4.362 1.98 4.362 4.321v15.421c0 2.4-1.939 4.32-4.362 4.32zM118.67 69.937c-1.575 0-2.907 1.26-2.907 2.88v15.421c0 1.56 1.272 2.88 2.907 2.88h19.082c1.575 0 2.908-1.26 2.908-2.88V72.817c0-1.56-1.272-2.88-2.908-2.88H118.67z" class="B"/><defs ><path id="B" d="M53.428 77.078c-18.294 0-33.136-14.701-33.136-32.823s14.842-32.823 33.197-32.823 33.136 14.701 33.136 32.883c-.061 18.062-14.902 32.763-33.196 32.763zm0-64.446c-17.628 0-31.924 14.161-31.924 31.623S35.8 75.878 53.428 75.878s31.924-14.161 31.924-31.623-14.296-31.623-31.924-31.623z"/><path id="C" d="M70.996 24.332H35.437a.54.54 0 0 1-.545-.54v-4.861a.54.54 0 0 1 .545-.54h35.559a.54.54 0 0 1 .545.54v4.861a.54.54 0 0 1-.545.54zm-35.014-1.08h34.468v-3.78H35.982v3.78z"/></defs></svg>