<svg width="147" height="100" viewBox="0 0 147 100" fill="none" xmlns="http://www.w3.org/2000/svg">
<path d="M117.64 47.0147C117.64 47.4348 117.338 47.7348 116.974 47.7348H86.1402C85.7767 47.7348 85.4739 47.4348 85.4739 47.0147C85.4739 46.5947 85.7767 46.2947 86.1402 46.2947H116.974C117.338 46.2346 117.64 46.5947 117.64 47.0147Z" fill="#244583"/>
<path d="M138.661 96.1597C138.237 96.1597 137.873 95.7996 137.873 95.3796C137.873 94.9595 138.237 94.5995 138.661 94.5995C141.932 94.5395 144.537 91.8392 144.537 88.6589V84.5185C144.537 84.0984 144.9 83.7384 145.324 83.7384C145.748 83.7384 146.112 84.0984 146.112 84.5185V88.6589C146.051 92.7393 142.78 96.0396 138.661 96.1597Z" fill="#244583"/>
<path d="M135.45 96.1596H130.301C129.877 96.1596 129.514 95.7996 129.514 95.3796C129.514 94.9595 129.877 94.5995 130.301 94.5995H135.45C135.874 94.5995 136.238 94.9595 136.238 95.3796C136.238 95.7996 135.874 96.1596 135.45 96.1596Z" fill="#244583"/>
<path d="M24.4724 58.5359L20.5954 62.6163C19.3838 63.8164 19.3838 65.7966 20.5954 66.9967L30.4695 76.7777C31.6811 77.9778 33.6801 77.9778 34.8917 76.7777L38.5263 72.9973C38.5263 72.9973 32.1657 68.9769 30.3484 67.1768C28.5916 65.4366 24.4724 58.5359 24.4724 58.5359Z" fill="#EBECE9"/>
<path d="M32.7109 78.2778C33.6801 78.2778 34.6494 77.9178 35.3763 77.1977L39.2533 73.3573C39.4956 73.1173 39.4956 72.6972 39.2533 72.5172C39.011 72.2772 38.6475 72.2772 38.4052 72.5172L34.5282 76.3576C33.559 77.3177 31.984 77.3177 30.9542 76.3576L21.08 66.5766C20.1108 65.6165 20.1108 64.0564 21.08 63.0363L25.5022 58.6558C25.7445 58.4158 25.8051 58.0558 25.6233 57.8157C25.381 57.5757 25.0176 57.5157 24.7753 57.6957C24.7147 57.6957 24.7147 57.7557 24.7147 57.7557L20.2925 62.1362C18.8387 63.5763 18.8387 65.9166 20.2925 67.4167L30.0455 77.1977C30.7119 77.9178 31.6811 78.2778 32.7109 78.2778Z" fill="#244583"/>
<path d="M53.4284 76.4776C71.3943 76.4776 85.9585 62.0508 85.9585 44.2544C85.9585 26.458 71.3943 12.0312 53.4284 12.0312C35.4625 12.0312 20.8983 26.458 20.8983 44.2544C20.8983 62.0508 35.4625 76.4776 53.4284 76.4776Z" fill="#EBECE9"/>
<path d="M53.4284 77.0777C35.134 77.0777 20.2925 62.3763 20.2925 44.2544C20.2925 26.1326 35.134 11.4312 53.489 11.4312C71.8439 11.4312 86.6248 26.1326 86.6248 44.3144C86.5642 62.3763 71.7228 77.0777 53.4284 77.0777ZM53.4284 12.6313C35.8003 12.6313 21.5041 26.7927 21.5041 44.2544C21.5041 61.7162 35.8003 75.8776 53.4284 75.8776C71.0564 75.8776 85.3527 61.7162 85.3527 44.2544C85.3527 26.7927 71.0564 12.6313 53.4284 12.6313Z" fill="#323C6B"/>
<path d="M53.4284 12.0312C62.0304 12.0312 70.3295 15.3915 76.3873 21.4521C61.6063 11.3111 41.3129 15.0315 31.1359 29.673C22.231 42.4542 23.806 59.796 34.9523 70.7771C20.1714 60.6961 16.4156 40.594 26.6532 25.9526C32.7109 17.1917 42.7062 12.0312 53.4284 12.0312Z" fill="#C1C1C1"/>
<path d="M29.5003 75.8176L11.0847 94.0595C8.90392 96.2197 5.32985 96.2197 3.08849 94.0595C0.907699 91.8992 0.907699 88.3589 3.08849 86.1387L21.504 67.8969L29.5003 75.8176Z" fill="#9FEFDE"/>
<path d="M2.72504 94.4795C0.30194 92.0793 0.30194 88.1189 2.72504 85.7186L21.08 67.5368C21.3223 67.2968 21.6858 67.2968 21.9281 67.5368L29.9243 75.3976C30.1666 75.6376 30.1666 75.9977 29.9243 76.2377L11.5088 94.4795C10.3578 95.6196 8.72221 96.2797 7.08662 96.2797C5.45102 96.2797 3.87601 95.6796 2.72504 94.4795ZM21.5646 68.797L3.57312 86.6187L3.51255 86.6787C1.57407 88.6589 1.57407 91.7792 3.57312 93.6994C5.57218 95.6196 8.72221 95.6196 10.6607 93.6394L28.5916 75.8777L21.5646 68.797Z" fill="#244583"/>
<path d="M9.87316 90.6391C10.176 90.9391 10.6607 90.9391 11.0241 90.6391L16.5367 85.2385C16.8396 84.9385 16.8396 84.4585 16.5367 84.0984C16.2338 83.7984 15.6886 83.7984 15.3857 84.0984L9.93374 89.499C9.5097 89.799 9.5097 90.3391 9.87316 90.6391C9.81258 90.6391 9.87316 90.6391 9.87316 90.6391Z" fill="white"/>
<path d="M17.2636 82.1783C16.9607 82.4783 16.9607 83.0184 17.2636 83.3184C17.4454 83.4384 17.6271 83.5584 17.8088 83.5584C18.0511 83.5584 18.2329 83.4984 18.354 83.3184L20.1714 81.5182C20.4742 81.2182 20.4742 80.6781 20.1108 80.3781C19.8079 80.0781 19.3233 80.0781 19.0204 80.3781L17.2636 82.1783Z" fill="white"/>
<path d="M53.4284 77.0777C35.134 77.0777 20.2925 62.3763 20.2925 44.2544C20.2925 26.1326 35.134 11.4312 53.489 11.4312C71.8439 11.4312 86.6248 26.1326 86.6248 44.3144C86.5642 62.3763 71.7228 77.0777 53.4284 77.0777ZM53.4284 12.6313C35.8003 12.6313 21.5041 26.7927 21.5041 44.2544C21.5041 61.7162 35.8003 75.8776 53.4284 75.8776C71.0564 75.8776 85.3527 61.7162 85.3527 44.2544C85.3527 26.7927 71.0564 12.6313 53.4284 12.6313Z" fill="#244583"/>
<path d="M15.9915 95.0195C16.1732 95.0195 16.2944 94.9595 16.4155 94.8395L18.5357 92.7393C18.778 92.4993 18.778 92.0792 18.5357 91.8392C18.2934 91.5992 17.8694 91.5992 17.6271 91.8392L15.5069 93.9394C15.2646 94.1794 15.2646 94.5395 15.5069 94.8395C15.6886 94.9595 15.8703 95.0195 15.9915 95.0195Z" fill="#244583"/>
<path d="M7.14719 100C9.8126 100 12.3569 98.9799 14.2348 97.1197C14.4771 96.8797 14.4771 96.5197 14.2348 96.2796C13.9924 96.0396 13.629 96.0396 13.3867 96.2796C9.99433 99.64 4.42121 99.64 1.02887 96.2796C0.786561 96.0396 0.423096 96.0396 0.180786 96.2796C-0.0615235 96.5197 -0.0615235 96.8797 0.180786 97.1197C1.93753 98.9799 4.48179 100 7.14719 100Z" fill="#244583"/>
<path d="M30.2878 17.2518C30.4089 17.2518 30.5907 17.1917 30.7118 17.1317C31.5599 16.4117 32.2868 15.8716 33.0138 15.3916C33.3166 15.2115 33.3772 14.8515 33.1955 14.5515C33.0138 14.2515 32.6503 14.1914 32.3474 14.3715C32.3474 14.3715 32.3474 14.3715 32.2868 14.4315C31.5599 14.9115 30.833 15.5116 29.9243 16.2317C29.682 16.4717 29.6214 16.8317 29.8637 17.0717C29.9243 17.1317 30.106 17.2518 30.2878 17.2518Z" fill="#244583"/>
<path d="M18.1723 36.4536C18.4752 36.4536 18.7175 36.2736 18.7781 35.9736C20.2319 29.913 23.3214 24.3924 27.6829 19.892C27.9253 19.652 27.9253 19.2319 27.6829 19.0519C27.4406 18.8119 27.0166 18.8119 26.8349 19.0519C22.2915 23.6724 19.0809 29.4329 17.5665 35.7336C17.5059 36.0336 17.6877 36.3936 18.0511 36.4536C18.0511 36.4536 18.1117 36.4536 18.1723 36.4536Z" fill="#244583"/>
<path d="M74.3276 7.95081V15.9316C74.3276 17.5518 72.9949 18.9319 71.2987 18.9319H35.0734C33.4378 18.9319 32.0445 17.6118 32.0445 15.9316V7.95081C32.0445 6.33064 33.3772 5.01051 35.0128 5.01051H71.2381C72.9343 4.95051 74.3276 6.27064 74.3276 7.95081Z" fill="#EBECE9"/>
<path d="M74.3276 26.7327V34.7135C74.3276 36.3336 72.9949 37.7138 71.2987 37.7138H35.0734C33.4378 37.7138 32.0445 36.3936 32.0445 34.7135V26.7327C32.0445 25.1125 33.3772 23.7924 35.0128 23.7924H71.2381C72.9343 23.7924 74.3276 25.1125 74.3276 26.7327Z" fill="#EBECE9"/>
<path d="M74.3276 7.9508V15.9316C74.3276 17.3717 73.2978 18.6319 71.8439 18.8719C71.8439 18.6919 71.9045 18.5119 71.9045 18.3318V10.351C71.9045 8.73088 70.5718 7.35074 68.8756 7.35074H32.6503C32.4686 7.35074 32.2869 7.35074 32.1657 7.41075C32.408 6.03061 33.6801 5.01051 35.134 4.9505H71.3593C72.9343 4.9505 74.3276 6.27063 74.3276 7.9508Z" fill="#C1C1C1"/>
<path d="M74.3276 26.7927V34.7735C74.3276 36.2137 73.2978 37.4738 71.8439 37.7138C71.8439 37.5338 71.9045 37.3538 71.9045 37.1738V29.133C71.9045 27.5128 70.5718 26.1327 68.8756 26.1327H32.6503C32.4686 26.1327 32.2869 26.1327 32.1657 26.1927C32.408 24.8125 33.6801 23.7324 35.134 23.7324H71.3593C72.9343 23.7924 74.3276 25.1126 74.3276 26.7927C74.3276 26.7327 74.3276 26.7327 74.3276 26.7927Z" fill="#C1C1C1"/>
<path d="M35.4369 18.9319H70.9958V23.2523H35.4369V18.9319Z" fill="#C1C1C1"/>
<path d="M70.9958 24.3324H35.4369C35.134 24.3324 34.8917 24.0924 34.8917 23.7924V18.9319C34.8917 18.6319 35.134 18.3918 35.4369 18.3918H70.9958C71.2987 18.3918 71.541 18.6319 71.541 18.9319V23.7924C71.541 24.0924 71.2987 24.3324 70.9958 24.3324ZM35.9821 23.2523H70.4506V19.472H35.9821V23.2523Z" fill="#244583"/>
<path d="M77.7805 6.57067C77.1141 3.93041 74.7516 2.07022 72.0256 2.13023H71.6622C71.3593 2.13023 71.117 1.8902 71.117 1.59017C71.117 1.29014 71.3593 0.990112 71.6622 0.990112H72.0256C75.2362 0.990112 78.0834 3.21033 78.8103 6.33065C78.8709 6.63068 78.6892 6.93071 78.3863 6.99071C78.3257 6.99071 78.3257 6.99071 78.2651 6.99071C78.0228 6.99071 77.8411 6.8107 77.7805 6.57067Z" fill="#244583"/>
<path d="M68.1487 2.07022C67.8458 2.07022 67.6035 1.8302 67.6035 1.53017C67.6035 1.23014 67.8458 0.990112 68.1487 0.990112H68.9968C69.2997 0.990112 69.542 1.23014 69.542 1.53017C69.542 1.8302 69.2997 2.07022 68.9968 2.07022H68.1487Z" fill="#244583"/>
<path d="M71.2987 38.2539H35.0734C33.1349 38.2539 31.4993 36.6937 31.4993 34.7135V26.7327C31.4993 24.8125 33.0743 23.2524 35.0128 23.1924H71.2382C73.1766 23.1924 74.8122 24.7525 74.8122 26.7327V34.7135C74.8728 36.6937 73.2978 38.2539 71.2987 38.2539ZM35.0734 24.3325C33.7407 24.3325 32.6503 25.4126 32.6503 26.7327V34.7135C32.6503 36.0337 33.7407 37.1138 35.0734 37.1138H71.2987C72.6314 37.1138 73.7218 36.0337 73.7218 34.7135V26.7327C73.7218 25.4126 72.6314 24.3325 71.2987 24.3325H35.0734Z" fill="#244583"/>
<path d="M71.2987 19.472H35.0734C33.1349 19.472 31.4993 17.9118 31.4993 15.9316V7.95082C31.4993 6.03062 33.0743 4.47047 35.0128 4.41046H71.2382C73.1766 4.41046 74.8122 5.97062 74.8122 7.95082V15.9316C74.8728 17.8518 73.2978 19.472 71.2987 19.472ZM35.0734 5.55058C33.7407 5.55058 32.6503 6.63068 32.6503 7.95082V15.9316C32.6503 17.2517 33.7407 18.3319 35.0734 18.3319H71.2987C72.6314 18.3319 73.7218 17.2517 73.7218 15.9316V7.95082C73.7218 6.63068 72.6314 5.55058 71.2987 5.55058H35.0734Z" fill="#244583"/>
<path d="M74.3276 45.6345V53.6153C74.3276 55.2355 72.9949 56.6156 71.2987 56.6156H35.0734C33.4378 56.6156 32.0445 55.2955 32.0445 53.6153V45.6345C32.0445 44.0144 33.3772 42.6942 35.0128 42.6942H71.2381C72.9343 42.6342 74.3276 43.9544 74.3276 45.6345Z" fill="#EBECE9"/>
<path d="M74.3276 45.6346V53.6154C74.3276 55.0555 73.2978 56.3156 71.8439 56.5557C71.8439 56.3756 71.9045 56.1956 71.9045 56.0156V48.0348C71.9045 46.4147 70.5718 45.0345 68.8756 45.0345H32.6503C32.4686 45.0345 32.2869 45.0345 32.1657 45.0945C32.408 43.7144 33.6801 42.6343 35.134 42.6343H71.3593C72.9343 42.6343 74.3276 43.9544 74.3276 45.6346Z" fill="#C1C1C1"/>
<path d="M35.4369 37.7738H70.9958V42.0942H35.4369V37.7738Z" fill="#C1C1C1"/>
<path d="M70.9958 43.1744H35.4369C35.134 43.1744 34.8917 42.9343 34.8917 42.6343V37.7738C34.8917 37.4738 35.134 37.2338 35.4369 37.2338H70.9958C71.2987 37.2338 71.541 37.4738 71.541 37.7738V42.6343C71.541 42.9343 71.2987 43.1744 70.9958 43.1744ZM35.9821 42.0943H70.4506V38.3139H35.9821V42.0943Z" fill="#244583"/>
<path d="M71.2987 57.1557H35.0734C33.1349 57.1557 31.4993 55.5956 31.4993 53.6154V45.6346C31.4993 43.7144 33.0743 42.1542 35.0128 42.0942H71.2382C73.1766 42.0942 74.8122 43.6544 74.8122 45.6346V53.6154C74.8728 55.5356 73.2978 57.1557 71.2987 57.1557ZM35.0734 43.1743C33.7407 43.1743 32.6503 44.2545 32.6503 45.5746V53.5554C32.6503 54.8755 33.7407 55.9556 35.0734 55.9556H71.2987C72.6314 55.9556 73.7218 54.8755 73.7218 53.5554V45.6346C73.7218 44.3145 72.6314 43.2344 71.2987 43.2344L35.0734 43.1743Z" fill="#244583"/>
<path d="M40.6465 53.5553H40.1619C39.7985 53.5553 39.4956 53.2553 39.4956 52.8953C39.4956 52.5353 39.7985 52.2352 40.1619 52.2352H40.6465C41.01 52.2352 41.3129 52.5353 41.3129 52.8953C41.2523 53.3153 41.01 53.5553 40.6465 53.5553Z" fill="white"/>
<path d="M50.2783 53.5553H42.7667C42.4033 53.5553 42.1004 53.2553 42.1004 52.8953C42.1004 52.5353 42.4033 52.2352 42.7667 52.2352H50.2783C50.6418 52.2352 50.9447 52.5353 50.9447 52.8953C50.9447 53.3153 50.6418 53.5553 50.2783 53.5553Z" fill="white"/>
<path d="M115.884 81.2781H105.949C103.284 81.2781 101.103 79.1179 101.103 76.4776V17.2517C101.103 14.6114 103.284 12.4512 105.949 12.4512H115.884V13.9514H105.949C104.132 13.9514 102.617 15.4515 102.617 17.2517V76.4776C102.617 78.2778 104.132 79.778 105.949 79.778H115.884V81.2781Z" fill="#244583"/>
<path d="M117.338 2.01019H138.237C139.812 2.01019 141.023 3.27032 141.023 4.77047V21.6922C141.023 23.2523 139.751 24.4524 139.388 24.4524H118.489C115.763 24.4524 114.49 23.1923 114.49 21.6922V4.77047C114.49 3.21031 115.763 2.01019 117.338 2.01019Z" fill="#9FEFDE"/>
<path d="M138.237 2.01019H117.338C115.763 2.01019 114.551 3.27032 114.551 4.77047V5.85058H134.057C135.935 5.85058 137.51 7.35073 137.51 9.27092V24.5124H138.297C139.872 24.5124 141.084 23.2523 141.084 21.7522V4.77047C141.023 3.21031 139.812 2.01019 138.237 2.01019Z" fill="#24C4A1"/>
<path d="M137.752 25.2325H118.67C116.247 25.2325 114.309 23.2523 114.309 20.9121V5.49054C114.309 3.0903 116.308 1.1701 118.67 1.1701H137.752C140.175 1.1701 142.114 3.1503 142.114 5.49054V20.9121C142.114 23.3123 140.175 25.2325 137.752 25.2325ZM118.67 2.61025C117.095 2.61025 115.763 3.87038 115.763 5.49054V20.9121C115.763 22.4722 117.035 23.7924 118.67 23.7924H137.752C139.327 23.7924 140.66 22.5322 140.66 20.9121V5.49054C140.66 3.93038 139.388 2.61025 137.752 2.61025H118.67Z" fill="#244583"/>
<path d="M117.338 35.6736H138.237C139.812 35.6736 141.023 36.9337 141.023 38.4339V55.3556C141.023 56.9157 139.751 58.1158 139.388 58.1158H118.489C115.763 58.1158 114.49 56.8557 114.49 55.3556V38.4339C114.49 36.8737 115.763 35.6736 117.338 35.6736Z" fill="#B6D2DD"/>
<path d="M138.237 35.6736H117.338C115.763 35.6736 114.551 36.9337 114.551 38.4339V39.514H134.057C135.935 39.514 137.51 41.0141 137.51 42.9343V58.1758H138.297C139.872 58.1758 141.084 56.9157 141.084 55.4156V38.4339C141.023 36.8737 139.812 35.6736 138.237 35.6736Z" fill="#ACC6CC"/>
<path d="M137.752 58.8959H118.67C116.247 58.8959 114.309 56.9157 114.309 54.5754V39.0939C114.309 36.6936 116.308 34.7734 118.67 34.7734H137.752C140.175 34.7734 142.114 36.7536 142.114 39.0939V54.5154C142.114 56.9757 140.175 58.8959 137.752 58.8959ZM118.67 36.2736C117.095 36.2736 115.763 37.5337 115.763 39.1539V54.5754C115.763 56.1356 117.035 57.4557 118.67 57.4557H137.752C139.327 57.4557 140.66 56.1956 140.66 54.5754V39.0939C140.66 37.5337 139.388 36.2136 137.752 36.2136H118.67V36.2736Z" fill="#244583"/>
<path d="M117.338 69.277H138.237C139.812 69.277 141.023 70.5371 141.023 72.0373V88.959C141.023 90.5191 139.751 91.7192 139.388 91.7192H118.489C115.763 91.7192 114.49 90.4591 114.49 88.959V72.0373C114.49 70.5371 115.763 69.277 117.338 69.277Z" fill="#FED19A"/>
<path d="M138.237 69.277H117.338C115.763 69.277 114.551 70.5371 114.551 72.0373V73.1174H134.057C135.935 73.1174 137.51 74.6175 137.51 76.5377V91.7792H138.297C139.872 91.7792 141.084 90.5191 141.084 89.019V72.0973C141.023 70.5371 139.812 69.337 138.237 69.277Z" fill="#FEBF2D"/>
<path d="M137.752 92.5592H118.67C116.247 92.5592 114.309 90.579 114.309 88.2388V72.8173C114.309 70.417 116.308 68.4968 118.67 68.4968H137.752C140.175 68.4968 142.114 70.477 142.114 72.8173V88.2388C142.114 90.639 140.175 92.5592 137.752 92.5592ZM118.67 69.937C117.095 69.937 115.763 71.1971 115.763 72.8173V88.2388C115.763 89.799 117.035 91.1191 118.67 91.1191H137.752C139.327 91.1191 140.66 89.859 140.66 88.2388V72.8173C140.66 71.2571 139.388 69.937 137.752 69.937H118.67Z" fill="#244583"/>
</svg>
