<svg xmlns="http://www.w3.org/2000/svg" width="150" height="68" fill="none" xmlns:v="https://vecta.io/nano"><path d="M37.759 37.938c-2.253 0-4.184 1.931-4.184 4.183s1.931 4.184 4.184 4.184 4.184-1.931 4.184-4.184c-.036-2.396-1.967-4.183-4.184-4.183z" fill="#9fcf67"/><path d="M10.548 4.934c-2.896 0-5.256 2.467-5.256 5.828 0 3.218 2.36 5.757 5.256 5.757s5.256-2.575 5.256-5.757c0-3.218-2.36-5.828-5.256-5.828zM21.025 19.88c0 6.758-4.041 10.977-10.548 10.977-4.899.036-9.082-2.789-9.869-7.116h5.685c.679 1.645 2.753 2.253 4.184 2.253 3.683 0 5.328-2.431 5.328-6.043v-.894c-1.538 1.502-3.612 2.253-5.936 2.253-5.364 0-9.762-4.756-9.762-10.62S4.434 0 10.548 0s10.441 4.827 10.441 10.691l.036 9.19zM35.864 5.077c-3.325-.572-5.542 1.18-5.542 4.076v11.8h-5.185v-11.8c0-5.757 4.005-9.833 10.727-8.975v4.899zm16.055 1.395c-.965-1.144-2.36-1.824-4.041-1.824-3.004 0-5.399 2.36-5.542 5.828l9.583-4.005zm5.864 7.974c-1.18 4.148-4.791 6.937-9.869 6.937-5.757 0-10.441-4.756-10.441-10.62S42.122.071 47.914.071c4.899 0 9.011 3.111 9.976 8.51l-14.41 6.043c1.001 1.394 2.575 2.181 4.362 2.181 1.681 0 3.433-.751 4.327-2.36h5.614zm17.02-7.974c-.965-1.144-2.36-1.824-4.04-1.824-3.004 0-5.399 2.36-5.542 5.828l9.583-4.005zm5.828 7.974c-1.18 4.148-4.791 6.937-9.869 6.937-5.757 0-10.441-4.756-10.441-10.62S64.97.071 70.763.071c4.899 0 9.011 3.111 9.976 8.51l-14.374 6.043c1.001 1.394 2.575 2.181 4.362 2.181 1.681 0 3.433-.751 4.327-2.36h5.578zM93.29.036c5.685 0 9.046 3.79 9.046 9.082v11.8H97.08V9.011c0-1.144-.393-3.897-3.826-3.897-2.253 0-3.933 1.573-3.933 3.897v11.907h-5.256v-11.8C84.1 3.969 87.747.036 93.29.036zM80.417 50.131c-5.971.644-9.154-2.932-9.154-8.51V24.672h5.256v5.149h3.683v4.613h-3.683v7.223c0 2.861 1.287 3.898 3.897 3.79v4.684zm12.622.501c-5.685 0-9.046-3.79-9.046-9.082V29.821h5.256v11.907c0 1.144.393 3.898 3.826 3.898 2.253 0 3.933-1.645 3.933-3.898V29.821h5.256V41.55c-.071 5.185-3.718 9.082-9.225 9.082zm23.707-16.448c-2.896 0-5.256 2.61-5.256 5.828 0 3.147 2.36 5.757 5.256 5.757s5.256-2.467 5.256-5.757c-.071-3.325-2.36-5.828-5.256-5.828zm0 16.448c-6.186 0-10.441-4.756-10.441-10.62V20.775h5.256v10.942c1.538-1.645 3.576-2.36 5.936-2.36 5.364 0 9.726 4.792 9.726 10.62-.036 5.936-4.362 10.656-10.477 10.656zm27.211-14.911c-.965-1.144-2.36-1.824-4.041-1.824-3.003 0-5.399 2.36-5.542 5.828l9.583-4.005zm5.864 7.974c-1.18 4.148-4.791 6.937-9.869 6.937-5.757 0-10.441-4.756-10.441-10.62s4.649-10.691 10.441-10.691c4.899 0 9.011 3.111 9.976 8.51l-14.374 6.007c1.001 1.395 2.575 2.181 4.362 2.181 1.681 0 3.433-.751 4.327-2.36h5.578v.036zM8.224 42.122c0-2.431-1.752-4.183-4.041-4.183C1.931 37.938 0 39.869 0 42.122s1.931 4.184 4.184 4.184c2.253.036 4.041-1.895 4.041-4.184zm7.08-4.184c-2.253 0-4.183 1.931-4.183 4.183s1.752 4.184 4.184 4.184c2.253 0 4.184-1.931 4.184-4.184 0-2.396-1.931-4.183-4.184-4.183zm11.263 8.403c2.253 0 4.041-1.931 4.041-4.183 0-2.431-1.752-4.184-4.041-4.184-2.431 0-4.183 1.931-4.183 4.184.036 2.253 1.824 4.183 4.183 4.183zm26.639-4.219c0-2.431-1.931-4.183-4.184-4.183s-4.184 1.931-4.184 4.183 1.931 4.184 4.184 4.184c2.217.036 4.184-1.895 4.184-4.184zm7.08-4.184c-2.253 0-4.184 1.931-4.184 4.183s1.752 4.184 4.184 4.184c2.253 0 4.184-1.931 4.184-4.184 0-2.396-1.895-4.183-4.184-4.183zm89.535 21.383H.215v.465h149.606v-.465zm-96.543 3.468h1.252l1.895 3.719v-3.719h.965v5.042h-1.251l-1.895-3.719v3.719h-.965v-5.042zm7.795-.072c1.573 0 2.432 1.073 2.432 2.574s-.894 2.61-2.431 2.61c-1.573 0-2.431-1.073-2.431-2.61s.822-2.574 2.431-2.574zm0 4.398c1.001 0 1.395-.894 1.395-1.824 0-.894-.393-1.788-1.395-1.788s-1.395.894-1.395 1.788c0 .93.358 1.824 1.395 1.824zm3.218-4.326h1.073l1.287 3.933 1.252-3.933h.965l-1.645 5.042h-1.252l-1.681-5.042zm7.902-.072c1.573 0 2.431 1.073 2.431 2.574s-.894 2.61-2.431 2.61c-1.573 0-2.431-1.073-2.431-2.61s.822-2.574 2.432-2.574zm0 4.398c1.001 0 1.394-.894 1.394-1.824 0-.894-.393-1.788-1.394-1.788s-1.395.894-1.395 1.788c-.036.93.358 1.824 1.395 1.824zm3.719-4.326h1.573l1.18 3.79 1.18-3.79h1.573v5.042h-.965v-4.148l-1.359 4.148h-.965l-1.359-4.148v4.112h-.965l.107-5.006zm8.617 0h1.108l1.967 5.042h-1.108l-.465-1.144h-2.038l-.465 1.144h-1.001l2.002-5.042zm.501 1.001l-.751 2.074h1.466l-.715-2.074zm3.933-.179h-1.43v-.787h3.897v.787H90v4.219h-1.001v-4.219h-.036zm3.326-.822h1.001v5.006h-1.001v-5.006zm6.114 4.934c-.393.107-.751.179-1.144.179-1.645 0-2.753-.822-2.753-2.503 0-1.752 1.073-2.682 2.753-2.682.322 0 .787.072 1.108.215l-.072.858c-.393-.215-.715-.286-1.073-.286-1.001 0-1.681.787-1.681 1.824 0 1.001.644 1.788 1.681 1.788.393 0 .858-.107 1.073-.215l.107.822zm6.079-4.934h1.251l1.895 3.719v-3.719h.966v5.042h-1.216l-1.895-3.719v3.719h-.966l-.035-5.042zm36.579 0h1.073l1.287 3.933 1.251-3.933h.966l-1.681 5.042h-1.251l-1.645-5.042zm-15.733 0h1.108l1.967 5.042h-1.109l-.464-1.144h-2.039l-.464 1.144h-1.073l2.074-5.042zm.572 1.001l-.751 2.074h1.466l-.715-2.074zm-15.018-.215h-1.43v-.787h3.897v.787h-1.43v4.219h-1.001v-4.219h-.036zm24.494 0h-1.431v-.787h3.898v.787h-1.43v4.219h-1.002v-4.219h-.035zm-33.397-.786h1.001v5.006h-1.001v-5.006zm37.008 0h1.001v5.006h-1.001v-5.006zm-6.114 4.934c-.394.107-.751.179-1.145.179-1.644 0-2.753-.822-2.753-2.503 0-1.752 1.073-2.682 2.753-2.682.322 0 .787.072 1.109.215l-.072.858a2.1 2.1 0 0 0-1.072-.286c-1.002 0-1.681.787-1.681 1.824 0 1.001.644 1.788 1.681 1.788.393 0 .858-.107 1.072-.215l.108.822zm-13.874-4.934h1.073c1.072 0 2.36-.036 2.36 1.359 0 .572-.394 1.073-1.002 1.144.287.036.465.286.573.501l.822 1.967h-1.108l-.608-1.573c-.143-.393-.286-.501-.715-.501h-.322v2.074h-1.001l-.072-4.97zm1.001 2.11h.322c.501 0 1.073-.072 1.073-.715 0-.608-.572-.644-1.073-.644H120v1.359zm-2.539.679h-2.038v1.466h2.253v.751h-3.183v-5.042h3.111v.751h-2.109v1.287h2.002v.787h-.036zm32.289 0h-2.002v1.466H150v.751h-3.182v-5.042h3.111v.751h-2.146v1.287h2.003v.787h-.036z" fill="#000"/></svg>