<svg xmlns="http://www.w3.org/2000/svg" width="80" height="74" fill="#5f6d8f" xmlns:v="https://vecta.io/nano"><path d="M20.088.018H0v64.264h20.088V34.22l21.921 27.648V27.665L20.088.018zM1.269 70.732c-.617-.317-.934-.687-.934-1.181 0-.599.511-1.11 1.251-1.11a1.61 1.61 0 0 1 1.286.634l-.599.599c-.211-.211-.441-.352-.67-.352-.194 0-.352.088-.352.229s.141.211.352.317l.352.176c.634.335.987.67.987 1.233 0 .687-.546 1.216-1.392 1.216a1.63 1.63 0 0 1-1.357-.67l.599-.652c.229.264.564.458.811.458s.423-.141.423-.317-.159-.3-.423-.423l-.335-.159zm5.85 1.674H6.15V70.52c0-.758-.141-1.216-.687-1.216-.476 0-.828.388-.828 1.198v1.903h-.969v-3.877h.969v.441c.335-.352.758-.546 1.216-.546.476 0 .899.229 1.128.687.352-.458.722-.687 1.304-.687.423 0 .811.176 1.04.458.264.317.282.74.282 1.251v2.273h-.969v-2.15c0-.634-.229-.952-.67-.952-.493 0-.846.388-.846 1.181v1.921zM13.357 72c-.335.335-.705.511-1.198.511-.987 0-1.85-.846-1.85-2.044 0-1.216.811-2.044 1.833-2.044.476 0 .863.176 1.216.529v-.423h.969v3.877h-.969V72zm-2.079-1.533c0 .67.441 1.163 1.04 1.163s1.075-.458 1.075-1.163c0-.687-.458-1.145-1.075-1.145-.634 0-1.04.511-1.04 1.145zm4.704-1.445c.176-.405.493-.599.811-.599a.77.77 0 0 1 .423.106l-.3.828c-.07-.035-.176-.088-.282-.088-.282 0-.493.317-.511.899v.67 1.568h-.969v-3.877H16v.493h-.018zm2.009-1.921h.969v1.427h.581v.828h-.581v3.048h-.969v-3.048h-.493v-.828h.493v-1.427zm7.877 4.6c-.423.546-1.004.811-1.762.811-1.322 0-2.185-.899-2.185-2.026 0-1.163.899-2.062 2.185-2.062.758 0 1.41.317 1.797.881l-.811.441c-.282-.299-.546-.441-.969-.441-.74 0-1.216.511-1.216 1.181 0 .652.458 1.128 1.181 1.128.423 0 .775-.141 1.022-.441l.758.529zm.669-4.67h.969v5.374h-.969v-5.374zm5.71 3.436c0 1.128-.863 2.044-2.062 2.044-1.128 0-2.009-.899-2.009-2.044 0-1.181.951-2.044 2.009-2.044 1.145 0 2.062.899 2.062 2.044zm-3.084 0c0 .652.423 1.128 1.04 1.128.599 0 1.075-.441 1.075-1.11 0-.652-.423-1.128-1.075-1.128-.599 0-1.04.476-1.04 1.11zm4.74-1.938v2.026c0 .687.212 1.057.722 1.057s.723-.352.723-1.022v-2.062h.969v1.797c0 .722-.035 1.251-.458 1.692-.3.335-.705.493-1.251.493-.934 0-1.515-.476-1.674-1.374-.053-.317-.035-.494-.035-.811v-1.797h1.004zM40.088 72c-.335.335-.705.511-1.198.511-.987 0-1.85-.846-1.85-2.044 0-1.216.811-2.044 1.833-2.044.476 0 .864.176 1.216.529v-1.921h.969v5.374h-.969V72zm-2.062-1.533c0 .67.441 1.163 1.04 1.163s1.075-.458 1.075-1.163c0-.687-.458-1.145-1.075-1.145-.652 0-1.04.511-1.04 1.145zm7.031-1.515c.352-.352.758-.529 1.216-.529 1.004 0 1.833.828 1.833 2.044 0 1.198-.863 2.044-1.85 2.044-.493 0-.846-.176-1.198-.511v1.833h-.969v-5.304h.969v.423zm-.053 1.515c0 .705.476 1.163 1.075 1.163s1.057-.493 1.057-1.163c0-.634-.405-1.145-1.057-1.145-.617 0-1.075.458-1.075 1.145zM51.7 72c-.335.335-.705.511-1.198.511-.987 0-1.85-.846-1.85-2.044 0-1.216.81-2.044 1.833-2.044.476 0 .863.176 1.216.529v-.423h.969v3.877h-.97V72zm-2.062-1.533c0 .67.441 1.163 1.04 1.163s1.075-.458 1.075-1.163c0-.687-.458-1.145-1.075-1.145-.652 0-1.04.511-1.04 1.145zm4.706-1.445c.176-.405.493-.599.811-.599a.77.77 0 0 1 .423.106l-.3.828c-.07-.035-.176-.088-.282-.088-.282 0-.493.317-.511.899v.67 1.568h-.969v-3.877h.846v.493h-.018zm1.991-1.921h.969v1.427h.581v.828h-.581v3.048h-.969v-3.048h-.493v-.828h.493v-1.427zm3.084 1.833c.37-.317.722-.493 1.145-.493.722 0 1.322.493 1.322 1.322v2.661h-.969v-1.833c0-.775-.071-1.251-.652-1.251a.73.73 0 0 0-.652.37c-.194.317-.194.67-.194 1.075v1.656h-.969v-3.877h.969v.37zm6.978 2.732c-.423.599-.969.863-1.78.863-1.233 0-2.026-.899-2.026-2.044 0-1.057.775-2.044 2.009-2.044s2.062.881 2.062 2.097v.212h-3.119c.088.581.529.899 1.093.899a1.27 1.27 0 0 0 .969-.388l.793.405zm-.722-1.674c-.123-.458-.546-.722-1.075-.722-.476 0-.863.247-1.04.722h2.115zm2.413-.97c.176-.405.493-.599.811-.599a.77.77 0 0 1 .423.106l-.299.828c-.071-.035-.176-.088-.282-.088-.282 0-.493.317-.511.899v.67 1.568h-.969v-3.877h.846v.493h-.018zm2.731-1.445c0 .335-.282.617-.617.617-.352 0-.617-.317-.617-.67a.61.61 0 0 1 .617-.599c.352 0 .617.3.617.652zm-1.093.951h.969v3.877h-.969v-3.877zm2.82.406c.37-.317.722-.493 1.145-.493.723 0 1.322.493 1.322 1.322v2.661h-.969v-1.833c0-.775-.07-1.251-.652-1.251a.73.73 0 0 0-.652.37c-.194.317-.194.67-.194 1.075v1.656h-.969v-3.877h.969v.37zm7.19 2.925c0 .758-.141 1.251-.599 1.639-.353.3-.811.423-1.41.423-1.075 0-1.745-.423-2.009-1.233h1.075c.194.229.493.335.899.335.353 0 .652-.088.828-.264.229-.212.247-.476.247-.846a1.54 1.54 0 0 1-1.181.476c-1.04 0-1.868-.828-1.868-1.991 0-1.198.828-1.991 1.815-1.991.476 0 .864.176 1.233.529v-.423h.969v3.348zm-3.031-1.427c0 .634.458 1.092 1.075 1.092.599 0 1.04-.423 1.04-1.092 0-.634-.423-1.11-1.057-1.11-.652 0-1.057.511-1.057 1.11zm-9.181-6.15v-2.22l8.035-5.233h-8.035v-2.326h12.211v2.238l-8.018 5.216h8.018v2.326H67.524zm0-15.225v-2.344l12.211-4.705v2.414l-2.52.952v4.987l2.52 1.004v2.414l-12.211-4.722zm3.242-1.181l4.194 1.621v-3.225l-4.194 1.604zm-3.242-3.171v-2.396l8.67-3.066-8.67-3.137v-2.379l12.211 4.405v2.22l-12.211 4.352zm0-18.749h2.273v4.352h2.185v-4.335h2.273v4.335h3.207v-4.335h2.273v6.678H67.524v-6.696zm0-4.705h8.264c1.322 0 2.009-.652 2.009-1.762 0-.67-.264-1.251-.74-1.551-.388-.247-.951-.282-1.603-.282h-7.947v-2.344h7.771c1.339 0 2.361.07 3.436.987.899.775 1.286 1.797 1.286 3.136 0 1.251-.352 2.256-1.163 3.031-1.022.987-2.132 1.128-3.701 1.128h-7.612V21.25zm0-8.987V9.991l8.529-2.819-8.529-2.855V2.062L79.753 0v2.238l-7.718 1.304 7.718 2.626v2.044l-7.718 2.573 7.718 1.339v2.256l-12.229-2.115zM56.441 23.489v-7.824h-7.982V7.841h7.982V.018H44.335v64.264h20.088V23.489h-7.982zm8-15.471h-7.806v7.454h7.806V8.018z"/></svg>