<svg xmlns="http://www.w3.org/2000/svg" width="66" height="80" fill="#999" fill-rule="evenodd" xmlns:v="https://vecta.io/nano"><path d="M36.687 6.965C41.943.039 49.249 0 49.249 0s1.091 6.518-4.139 12.786c-5.572 6.702-11.905 5.598-11.905 5.598s-1.196-5.269 3.482-11.419zm-2.812 15.992c2.707 0 7.727-3.719 14.258-3.719 11.248 0 15.664 8.003 15.664 8.003s-8.647 4.428-8.647 15.151c0 12.103 10.775 16.281 10.775 16.281s-7.53 21.209-17.713 21.209c-4.678 0-8.305-3.154-13.233-3.154-5.02 0-10 3.272-13.246 3.272C12.442 79.987.708 59.882.708 43.706c0-15.913 9.934-24.258 19.251-24.258 6.058.013 10.762 3.509 13.916 3.509z"/></svg>