<svg width="21" height="20" viewBox="0 0 21 20" fill="none" xmlns="http://www.w3.org/2000/svg">
<path d="M20.5 9.41794C20.5 14.2504 16.0225 18.1679 10.5 18.1679C9.50956 18.1693 8.52323 18.0407 7.56625 17.7854C6.83625 18.1554 5.16 18.8654 2.34 19.3279C2.09 19.3679 1.9 19.1079 1.99875 18.8754C2.44125 17.8304 2.84125 16.4379 2.96125 15.1679C1.43 13.6304 0.5 11.6179 0.5 9.41794C0.5 4.58544 4.9775 0.667938 10.5 0.667938C16.0225 0.667938 20.5 4.58544 20.5 9.41794ZM6.75 9.41794C6.75 9.08642 6.6183 8.76848 6.38388 8.53405C6.14946 8.29963 5.83152 8.16794 5.5 8.16794C5.16848 8.16794 4.85054 8.29963 4.61612 8.53405C4.3817 8.76848 4.25 9.08642 4.25 9.41794C4.25 9.74946 4.3817 10.0674 4.61612 10.3018C4.85054 10.5362 5.16848 10.6679 5.5 10.6679C5.83152 10.6679 6.14946 10.5362 6.38388 10.3018C6.6183 10.0674 6.75 9.74946 6.75 9.41794ZM11.75 9.41794C11.75 9.08642 11.6183 8.76848 11.3839 8.53405C11.1495 8.29963 10.8315 8.16794 10.5 8.16794C10.1685 8.16794 9.85054 8.29963 9.61612 8.53405C9.3817 8.76848 9.25 9.08642 9.25 9.41794C9.25 9.74946 9.3817 10.0674 9.61612 10.3018C9.85054 10.5362 10.1685 10.6679 10.5 10.6679C10.8315 10.6679 11.1495 10.5362 11.3839 10.3018C11.6183 10.0674 11.75 9.74946 11.75 9.41794ZM15.5 10.6679C15.8315 10.6679 16.1495 10.5362 16.3839 10.3018C16.6183 10.0674 16.75 9.74946 16.75 9.41794C16.75 9.08642 16.6183 8.76848 16.3839 8.53405C16.1495 8.29963 15.8315 8.16794 15.5 8.16794C15.1685 8.16794 14.8505 8.29963 14.6161 8.53405C14.3817 8.76848 14.25 9.08642 14.25 9.41794C14.25 9.74946 14.3817 10.0674 14.6161 10.3018C14.8505 10.5362 15.1685 10.6679 15.5 10.6679Z" fill="#FAF9F8"/>
</svg>
