<svg width="15" height="24" viewBox="0 0 15 24" fill="none" xmlns="http://www.w3.org/2000/svg">
<path d="M8.96979 10.1184V6.4616C10.1011 6.75349 11.207 7.30943 12.1118 8.18403L12.1156 8.1786C12.1832 8.23539 12.2652 8.27446 12.3585 8.27446C12.4814 8.27446 12.5867 8.21188 12.6595 8.11965L12.6646 8.12073L14.127 5.94762L14.1236 5.94581C14.1836 5.87274 14.2234 5.78015 14.2234 5.67598C14.2234 5.553 14.1709 5.44521 14.0906 5.36889C12.7343 4.04831 11.0025 3.25546 8.96979 3.0171V0.917044H8.96945C8.96945 0.686639 8.79239 0.5 8.57382 0.5H7.00298C6.7844 0.5 6.60735 0.686639 6.60735 0.917044V2.96392C3.2138 3.33467 1.20307 5.61376 1.20307 8.29001C1.20307 11.8937 4.01844 12.927 6.60735 13.5897V17.6965C4.94489 17.3825 3.57855 16.4743 2.64902 15.4575C2.6425 15.4499 2.63563 15.4434 2.62843 15.4365L2.61059 15.4181L2.60784 15.4221C2.53903 15.3599 2.45177 15.3249 2.36113 15.3233C2.29054 15.324 2.22143 15.3448 2.16114 15.3835C2.10085 15.4222 2.05163 15.4774 2.01869 15.5432L2.01388 15.5425L0.598478 17.7576L0.600194 17.7612C0.536582 17.8355 0.500945 17.9317 0.5 18.0318C0.5 18.1645 0.562449 18.2774 0.653722 18.3537L0.649947 18.3595C2.03241 19.8168 3.968 20.8766 6.60735 21.1153V23.083C6.60735 23.3134 6.7844 23.5 7.00298 23.5H8.57382C8.79239 23.5 8.96945 23.313 8.96945 23.083H8.96979V21.1149C12.6649 20.7171 14.5 18.439 14.5 15.4973C14.5 11.8676 11.5841 10.8071 8.96979 10.1184ZM6.60701 9.50859C5.57659 9.16461 4.87249 8.76673 4.87249 7.99811C4.87249 7.09747 5.5011 6.4616 6.60701 6.30245V9.50859ZM8.96979 17.7496V14.1992C10.076 14.5699 10.8553 14.9945 10.8553 15.8684C10.8553 16.7166 10.2517 17.4845 8.96979 17.7496Z" fill="#FAF9F8"/>
</svg>
