<svg width="70" height="65" viewBox="0 0 70 65" fill="none" xmlns="http://www.w3.org/2000/svg">
<g filter="url(#filter0_d)">
<path fill-rule="evenodd" clip-rule="evenodd" d="M44.9614 12.2045L40.7828 16.781C36.1069 12.9009 30.9334 12.0055 25.5611 15.1892C21.7805 17.3779 19.2933 22.0539 19.7907 25.735H25.8595L16.7066 35.9823L7.25513 25.735H13.3239C14.1199 16.2835 18.6963 9.91626 27.9488 7.62802C34.3161 5.93671 39.9869 7.72751 44.9614 12.2045ZM56.9996 25.7349H50.9308C50.6938 27.0776 50.5196 28.4204 50.3583 29.6636L50.3582 29.6636C50.3164 29.9863 50.2754 30.3023 50.2344 30.6098L47.4487 31.8037L46.4538 29.3165H44.0661C44.1734 28.6725 44.2518 28.0575 44.3324 27.4245C44.4013 26.8841 44.4719 26.3306 44.5635 25.7349H38.1962L47.5482 15.388L56.9996 25.7349ZM51.377 44.7247C51.6676 44.3391 52.1843 44.1238 53.8159 43.444V40.0614C53.5063 39.8206 53.1135 39.6987 52.7197 39.5765C51.9744 39.3454 51.2255 39.113 51.0302 38.0716L52.0251 35.6838C51.8261 35.4849 51.6023 35.2859 51.3784 35.0869C51.1546 34.8879 50.9307 34.689 50.7318 34.49C50.3133 34.0705 49.946 33.603 49.6374 33.0971C48.165 33.7352 47.419 34.0584 46.8499 33.864C46.2654 33.6642 45.8675 32.9182 45.0609 31.4058H41.5788C40.9212 32.8221 40.598 33.5184 40.073 33.7429C39.5654 33.9601 38.8692 33.7363 37.4998 33.2961L37.4998 33.2961L37.4998 33.2961L34.913 35.6838C34.9806 36.0555 35.0941 36.4271 35.2028 36.7832L35.2028 36.7832C35.4142 37.4756 35.6076 38.1091 35.4105 38.569C35.2044 39.0499 34.524 39.341 33.8278 39.6389L33.8278 39.6389C33.5157 39.7725 33.2004 39.9074 32.9233 40.0614V43.3445C33.2505 43.5408 33.5992 43.6941 33.9305 43.8397C34.6066 44.1369 35.2102 44.4022 35.4105 44.9363C35.6161 45.4845 35.3968 46.1743 35.143 46.9732C35.0282 47.3342 34.9064 47.7174 34.8136 48.1199C35.2355 48.4217 35.6345 48.7543 36.0074 49.1148C36.2064 49.3635 36.3805 49.6123 36.5546 49.861L36.5546 49.861C36.7287 50.1097 36.9028 50.3585 37.1018 50.6072L37.3008 50.1097C37.6218 50.0455 37.9533 49.9398 38.2783 49.8362L38.2784 49.8362L38.2784 49.8362C38.9606 49.6187 39.6148 49.4101 40.0865 49.6123C40.6088 49.8361 40.9632 50.5636 41.3176 51.2911L41.3177 51.2913L41.3178 51.2914C41.4359 51.5338 41.554 51.7762 41.6783 52H45.1604C45.7517 50.6696 46.0501 49.9981 46.5512 49.768C47.0619 49.5334 47.7832 49.7573 49.2394 50.2092L51.9256 47.6225L51.0302 45.4337L51.0302 45.4337C51.1562 45.1187 51.2424 44.9034 51.377 44.7247ZM42.7727 50.4082C41.1808 47.523 40.7829 47.4235 37.4998 48.3189L36.8033 47.324C37.7982 44.3394 37.4998 43.7424 34.6146 42.2501V41.0562C37.4003 39.6634 37.6987 38.967 36.7038 35.8828L37.6987 35.0869C40.7829 36.0818 41.2803 35.8828 42.7727 32.9977H43.9665C45.2599 35.7833 46.5532 36.2808 49.1399 35.0869L50.0353 35.8828C49.2394 39.2654 49.4384 39.7629 52.2241 41.0562V42.2501C49.2394 43.8419 49.0404 44.5383 50.1348 47.523L49.2394 48.3189C46.1553 47.324 45.2599 47.722 44.066 50.4082H42.7727ZM31.3314 38.2705C30.9424 39.3263 30.9879 40.4442 31.0346 41.5895C31.0715 42.4947 31.1091 43.417 30.9334 44.3393C26.5969 44.1099 22.4933 42.3057 19.3927 39.2653L23.3723 34.7884C24.621 35.6243 25.9165 36.3883 27.2523 37.0766C28.5792 37.579 29.943 37.9781 31.3314 38.2705ZM47.1412 43.3593C47.415 42.8627 47.5871 42.3165 47.6475 41.7527C47.7167 41.6318 47.7511 41.494 47.747 41.3548C47.7425 40.5519 47.5085 39.7671 47.0726 39.0929C46.6366 38.4187 46.0169 37.8833 45.2866 37.5498C44.5562 37.2164 43.7458 37.0988 42.9508 37.2109C42.1558 37.3231 41.4095 37.6603 40.7999 38.1828C40.1903 38.7053 39.7429 39.3913 39.5105 40.1597C39.2781 40.9282 39.2703 41.7472 39.4882 42.5199C39.706 43.2926 40.1403 43.9869 40.7399 44.5209C41.3395 45.0548 42.0793 45.4061 42.872 45.5333C43.4347 45.6039 44.0057 45.5617 44.5519 45.4092C45.098 45.2566 45.6083 44.9968 46.0529 44.6448C46.4975 44.2929 46.8675 43.8558 47.1412 43.3593ZM40.836 42.6539C40.7192 42.3338 40.6673 41.9936 40.6833 41.6532C40.7126 40.9502 41.005 40.2839 41.5026 39.7863C42.0001 39.2888 42.6664 38.9964 43.3695 38.967C44.0819 38.967 44.7651 39.25 45.2689 39.7538C45.7727 40.2576 46.0557 40.9408 46.0557 41.6532C46.0557 42.3657 45.7727 43.0489 45.2689 43.5527C44.7651 44.0564 44.0819 44.3394 43.3695 44.3394H43.1705C42.8299 44.3292 42.4947 44.2513 42.1845 44.1102C41.8743 43.9691 41.5953 43.7677 41.3638 43.5177C41.1323 43.2676 40.9529 42.974 40.836 42.6539Z" fill="#9FEFDE"/>
</g>
<defs>
<filter id="filter0_d" x="0.255127" y="0" width="69.7445" height="65" filterUnits="userSpaceOnUse" color-interpolation-filters="sRGB">
<feFlood flood-opacity="0" result="BackgroundImageFix"/>
<feColorMatrix in="SourceAlpha" type="matrix" values="0 0 0 0 0 0 0 0 0 0 0 0 0 0 0 0 0 0 127 0" result="hardAlpha"/>
<feOffset dx="3" dy="3"/>
<feGaussianBlur stdDeviation="5"/>
<feColorMatrix type="matrix" values="0 0 0 0 0 0 0 0 0 0 0 0 0 0 0 0 0 0 0.15 0"/>
<feBlend mode="normal" in2="BackgroundImageFix" result="effect1_dropShadow"/>
<feBlend mode="normal" in="SourceGraphic" in2="effect1_dropShadow" result="shape"/>
</filter>
</defs>
</svg>
