<svg width="41" height="45" viewBox="0 0 41 45" fill="none" xmlns="http://www.w3.org/2000/svg">
<path fill-rule="evenodd" clip-rule="evenodd" d="M27.761 21.1247H30.5817C30.5884 20.9512 30.5539 20.7786 30.4809 20.621C30.4809 19.039 30.4922 17.4683 30.5034 15.9013V15.9011V15.901V15.9009V15.9008C30.5258 12.778 30.548 9.67011 30.4809 6.51753C30.4853 6.00414 30.3796 5.49578 30.1711 5.02662C29.9626 4.55746 29.656 4.13838 29.2721 3.79757C27.9144 2.70758 26.3815 1.85598 24.7388 1.27908C20.0535 -0.0294264 15.1454 -0.338325 10.3331 0.372428C7.79731 0.647756 5.33641 1.3997 3.07983 2.58869C2.20834 3.03868 1.49245 3.74053 1.02531 4.60295C0.558172 5.46536 0.361403 6.44841 0.460607 7.42418C0.561346 14.6774 0.561346 22.0314 0.460607 29.2846C0.405548 30.1761 0.60324 31.0651 1.03095 31.8492C1.45865 32.6333 2.09901 33.2808 2.87835 33.7172C6.90793 36.1349 11.5419 36.3364 16.1759 36.5379V33.5157C14.7656 33.4149 13.456 33.3142 12.0456 33.1127C9.69208 32.6158 7.37082 31.9766 5.09462 31.1987C4.73726 31.0343 4.41822 30.7971 4.15799 30.5022C3.89775 30.2072 3.70208 29.8611 3.58353 29.4861C3.39915 28.4894 3.36519 27.4707 3.48279 26.4639C8.21754 28.8817 13.1538 29.1839 18.2915 28.8817L17.687 27.2698L18.9967 25.8595C17.1192 26.0106 15.2327 26.0106 13.3552 25.8595C10.7378 25.4437 8.14752 24.8719 5.59831 24.1469C4.76069 23.7959 4.08006 23.1511 3.68427 22.3336C3.49977 21.0998 3.46594 19.8482 3.58353 18.6063C7.34747 20.4189 11.4976 21.2835 15.6723 21.1247C19.8531 21.2293 23.9983 20.3312 27.761 18.5055V21.1247ZM25.3432 4.70422C26.2294 5.11014 27.0455 5.65419 27.761 6.31605C27.6081 6.93077 27.2787 7.48729 26.8132 7.91693C26.3478 8.34658 25.7667 8.63055 25.1418 8.7338C20.9583 10.1175 16.5218 10.5646 12.1464 10.0434C9.96621 9.72862 7.81153 9.25728 5.69905 8.63306C4.69166 8.43158 3.48279 7.82714 3.48279 6.61827C3.48279 5.48002 4.55454 5.05627 5.52071 4.67427L5.52075 4.67425L5.5208 4.67423L5.52084 4.67422L5.52126 4.67405C5.58102 4.65042 5.64038 4.62695 5.69905 4.60348C9.91617 3.21468 14.3866 2.76764 18.7952 3.29387C21.0085 3.60861 23.1966 4.07991 25.3432 4.70422ZM15.5715 13.3425C19.7287 13.3425 23.8422 12.4941 27.6602 10.8493V13.9722C27.6402 14.4775 27.4502 14.9612 27.1212 15.3451C26.7921 15.729 26.3432 15.9907 25.8469 16.0878C23.9103 16.7777 21.9232 17.3166 19.9033 17.6996C15.7326 18.3908 11.4589 18.115 7.41162 16.8937C6.69035 16.6694 5.9838 16.4002 5.2961 16.0878C4.68623 15.911 4.16344 15.5147 3.82858 14.9752C3.49373 14.4357 3.37054 13.7913 3.48279 13.1663V10.8493C7.30079 12.4941 11.4143 13.3425 15.5715 13.3425ZM22.6233 43.086L25.9477 42.0786C26.4514 43.1867 26.8544 44.0933 27.2573 45H30.7832C30.984 44.6844 31.1603 44.3606 31.3284 44.052C31.7506 43.2768 32.1208 42.5969 32.6972 42.3808C33.2422 42.1764 33.9253 42.4327 34.5909 42.6824C34.9096 42.8019 35.2244 42.92 35.5179 42.9852L38.0364 40.5675C37.9493 40.2479 37.8286 39.9283 37.7106 39.6159L37.7106 39.6158C37.4196 38.8452 37.1453 38.1187 37.432 37.5453C37.6957 37.0179 38.3477 36.7062 39.021 36.3843C39.3765 36.2144 39.7379 36.0416 40.0512 35.8327V32.2061C37.1298 30.695 37.1298 30.695 38.1372 27.6728C38.0364 27.5721 37.9609 27.4714 37.8853 27.3707L37.8853 27.3706L37.8853 27.3706C37.8097 27.2698 37.7342 27.1691 37.6335 27.0684L35.8202 25.0536C35.3598 25.1523 34.9317 25.2831 34.5357 25.4041C33.7186 25.6538 33.0386 25.8616 32.4958 25.658C31.9591 25.4568 31.6458 24.8088 31.3178 24.1306C31.1533 23.7903 30.9851 23.4425 30.7832 23.1396H27.1566L27.1564 23.14C26.7535 24.0465 26.3506 24.9531 25.847 26.061L22.724 25.0536L20.1048 27.5721C20.192 27.8917 20.3127 28.2113 20.4306 28.5237L20.4306 28.5237L20.4306 28.5237L20.4306 28.5238L20.4307 28.5238C20.7216 29.2944 20.996 30.0208 20.7092 30.5943C20.4455 31.1217 19.7935 31.4334 19.1203 31.7552C18.7648 31.9252 18.4033 32.098 18.09 32.3068V35.9335C21.1122 37.4445 21.1122 37.4445 20.1048 40.366L22.6233 43.086ZM28.4662 43.2874C27.0558 40.4667 26.1492 39.8623 22.9255 41.0712L22.2203 40.1645C23.127 36.7394 22.9255 36.2357 20.0041 34.7246V33.415C22.8248 31.9039 23.2277 30.9972 22.1196 28.0758L23.0263 27.0684C26.2499 28.0758 26.9551 27.7736 28.4662 24.8521H29.8765C31.3876 27.8743 32.0928 28.1765 35.2157 27.0684L36.1224 27.975C35.2157 31.4002 35.3165 31.8031 38.3386 33.415V34.7246C35.3165 36.0342 34.9135 37.4445 36.2231 40.1645L35.2157 41.0712C31.9921 40.0638 31.2869 40.366 29.7758 43.2874H28.4662ZM7.00869 29.788H8.92274V30.7954H7.00869V29.788ZM7.10943 23.2399H8.92274V22.2325H7.00869L7.10943 23.2399ZM7.00869 15.3823V14.2742H8.92274V15.3823H7.00869ZM25.6554 30.832C24.862 31.7367 24.4599 32.9191 24.5373 34.1198V34.7242C24.5757 35.3205 24.7314 35.9033 24.9954 36.4393C25.2593 36.9753 25.6264 37.454 26.0757 37.848C26.5249 38.2419 27.0474 38.5434 27.6133 38.7351C28.1792 38.9268 28.7773 39.0051 29.3735 38.9653C29.9696 38.9256 30.5521 38.7687 31.0875 38.5035C31.623 38.2383 32.1008 37.8702 32.4938 37.4201C32.8867 36.97 33.187 36.4468 33.3775 35.8805C33.568 35.3142 33.6449 34.7159 33.6039 34.1198V33.5154C33.5212 32.315 32.9657 31.1964 32.0593 30.4051C31.1529 29.6138 29.9696 29.2143 28.769 29.2943C27.5685 29.3744 26.4487 29.9274 25.6554 30.832ZM30.1577 36.6636C29.8104 36.7931 29.441 36.853 29.0706 36.8397C28.6975 36.8349 28.3293 36.7546 27.9882 36.6035C27.6471 36.4524 27.3402 36.2337 27.0859 35.9606C26.8317 35.6876 26.6355 35.3658 26.5091 35.0148C26.3827 34.6638 26.3288 34.2907 26.3506 33.9183C26.3922 33.1754 26.7195 32.4774 27.264 31.9704C27.8086 31.4635 28.5281 31.1868 29.2721 31.1983C29.6425 31.2116 30.0067 31.2976 30.3438 31.4516C30.681 31.6056 30.9845 31.8245 31.2371 32.0957C31.4897 32.367 31.6863 32.6854 31.8159 33.0327C31.9454 33.38 32.0053 33.7494 31.992 34.1198C31.9788 34.4902 31.8927 34.8544 31.7388 35.1916C31.5848 35.5287 31.3659 35.8322 31.0946 36.0848C30.8233 36.3374 30.505 36.5341 30.1577 36.6636Z" fill="#9FEFDE"/>
</svg>
