<svg width="220" height="220" viewBox="0 0 220 220" fill="none" xmlns="http://www.w3.org/2000/svg">
<g filter="url(#filter0_d)">
<g filter="url(#filter1_d)">
<path fill-rule="evenodd" clip-rule="evenodd" d="M190.684 106.213C190.684 152.087 153.455 189.275 107.53 189.275C61.6062 189.275 24.3772 152.087 24.3772 106.213C24.3772 60.3396 61.6062 23.1516 107.53 23.1516C153.455 23.1516 190.684 60.3396 190.684 106.213ZM102.315 125.002C102.961 125.647 103.728 126.159 104.572 126.508C105.416 126.857 106.321 127.037 107.234 127.037C108.148 127.037 109.053 126.857 109.897 126.508C110.741 126.159 111.508 125.647 112.154 125.002L135.807 101.404C136.454 100.76 136.967 99.9949 137.318 99.1528C137.668 98.3107 137.848 97.408 137.848 96.4963C137.848 95.5846 137.668 94.6819 137.318 93.8398C136.967 92.9977 136.454 92.2328 135.807 91.5888C135.162 90.9435 134.395 90.4315 133.551 90.0822C132.707 89.7329 131.802 89.5531 130.888 89.5531C129.974 89.5531 129.07 89.7329 128.225 90.0822C127.381 90.4315 126.615 90.9435 125.969 91.5888L114.247 103.283V71.9588C114.247 70.1034 113.508 68.3239 112.193 67.012C110.878 65.7 109.094 64.963 107.234 64.963C105.375 64.963 103.591 65.7 102.276 67.012C100.961 68.3239 100.222 70.1034 100.222 71.9588V103.283L88.4998 91.4844C87.8543 90.8391 87.0876 90.3271 86.2435 89.9778C85.3994 89.6285 84.4945 89.4487 83.5807 89.4487C82.6669 89.4487 81.762 89.6285 80.9179 89.9778C80.0738 90.3271 79.3071 90.8391 78.6615 91.4844C78.0147 92.1284 77.5015 92.8933 77.1514 93.7354C76.8012 94.5775 76.621 95.4802 76.621 96.3919C76.621 97.3036 76.8012 98.2063 77.1514 99.0484C77.5015 99.8905 78.0147 100.655 78.6615 101.299L102.315 125.002ZM144.18 120.094C143.534 120.093 142.894 120.219 142.296 120.465C141.699 120.711 141.156 121.073 140.699 121.529C140.242 121.985 139.88 122.526 139.633 123.122C139.386 123.718 139.26 124.357 139.261 125.002V132.52C139.261 134.182 138.6 135.775 137.422 136.95C136.244 138.125 134.647 138.785 132.982 138.785H81.3828C79.7173 138.785 78.12 138.125 76.9424 136.95C75.7647 135.775 75.1031 134.182 75.1031 132.52V125.002C75.1031 123.7 74.5848 122.452 73.6623 121.532C72.7398 120.612 71.4886 120.094 70.1839 120.094C68.8793 120.094 67.6281 120.612 66.7056 121.532C65.783 122.452 65.2648 123.7 65.2648 125.002V132.52C65.3248 136.756 67.0456 140.801 70.0583 143.787C73.071 146.773 77.1361 148.463 81.3828 148.496H132.982C137.239 148.498 141.325 146.819 144.345 143.826C147.365 140.832 149.075 136.767 149.1 132.52V125.002C149.101 124.357 148.975 123.718 148.728 123.122C148.481 122.526 148.119 121.985 147.662 121.529C147.205 121.073 146.662 120.711 146.065 120.465C145.467 120.219 144.827 120.093 144.18 120.094Z" fill="url(#paint0_linear)"/>
</g>
<path d="M8.56624 115.086C8.88576 115.086 9.19211 115.213 9.41805 115.439C9.64399 115.665 9.77101 115.971 9.77101 116.29C9.77101 116.609 9.64399 116.915 9.41805 117.141C9.19211 117.367 8.88576 117.494 8.56624 117.494C8.25015 117.528 7.9334 117.435 7.68516 117.237C7.43693 117.038 7.27736 116.75 7.24102 116.434C7.21812 116.254 7.23642 116.071 7.29456 115.899C7.35269 115.726 7.4491 115.569 7.57663 115.44C7.70416 115.31 7.85938 115.211 8.03077 115.15C8.20217 115.088 8.3853 115.067 8.56624 115.086Z" fill="#0AC883"/>
<path d="M9.86737 124.713H10.1083C10.4278 124.685 10.7457 124.784 10.992 124.989C11.2382 125.195 11.3928 125.49 11.4216 125.809C11.4503 126.128 11.351 126.446 11.1454 126.692C10.9398 126.938 10.6447 127.093 10.3252 127.121C10.0122 127.178 9.68958 127.108 9.42779 126.927C9.16599 126.747 8.98619 126.471 8.92762 126.158C8.86314 125.842 8.92564 125.514 9.10145 125.243C9.27726 124.973 9.55232 124.783 9.86737 124.713Z" fill="#0AC883"/>
<path d="M9.09639 119.9H9.2892C9.58014 119.925 9.8502 120.061 10.0431 120.28C10.2359 120.499 10.3367 120.784 10.3243 121.076C10.3118 121.367 10.1871 121.643 9.9763 121.845C9.76547 122.046 9.48487 122.159 9.19287 122.159C8.90087 122.159 8.62012 122.046 8.40929 121.845C8.19846 121.643 8.07377 121.367 8.06133 121.076C8.04889 120.784 8.14965 120.499 8.34252 120.28C8.5354 120.061 8.80545 119.925 9.09639 119.9Z" fill="#0AC883"/>
<path d="M8.27704 110.272C8.58442 110.272 8.88032 110.388 9.10429 110.599C9.32826 110.809 9.46337 111.097 9.48181 111.404C9.48181 111.723 9.35479 112.029 9.12885 112.255C8.90291 112.481 8.59656 112.608 8.27704 112.608C7.95751 112.608 7.65102 112.481 7.42508 112.255C7.19914 112.029 7.07227 111.723 7.07227 111.404C7.09071 111.097 7.22567 110.809 7.44964 110.599C7.67361 110.388 7.96965 110.272 8.27704 110.272Z" fill="#0AC883"/>
<path d="M9.4577 91.0172C9.61442 91.0407 9.76494 91.0949 9.90067 91.1766C10.0364 91.2583 10.1546 91.366 10.2486 91.4935C10.3426 91.621 10.4106 91.7657 10.4485 91.9194C10.4864 92.0732 10.4936 92.2329 10.4697 92.3894C10.4459 92.5475 10.3912 92.6993 10.3088 92.8363C10.2263 92.9733 10.1177 93.0927 9.98905 93.1877C9.8604 93.2827 9.71428 93.3515 9.55903 93.3901C9.40378 93.4286 9.24236 93.4363 9.08415 93.4126C8.92594 93.3889 8.77401 93.3343 8.63692 93.2519C8.49983 93.1695 8.38038 93.0609 8.28528 92.9323C8.19019 92.8038 8.12125 92.6578 8.08263 92.5027C8.04401 92.3476 8.03639 92.1864 8.06013 92.0283C8.10046 91.7432 8.24176 91.482 8.45838 91.292C8.67501 91.1021 8.95258 90.996 9.24078 90.9931L9.4577 91.0172Z" fill="#0AC883"/>
<path d="M8.20477 107.866C8.87015 107.866 9.40954 107.327 9.40954 106.662C9.40954 105.997 8.87015 105.458 8.20477 105.458C7.53939 105.458 7 105.997 7 106.662C7 107.327 7.53939 107.866 8.20477 107.866Z" fill="#0AC883"/>
<path d="M8.8071 95.8308C8.96245 95.8458 9.11336 95.8915 9.25094 95.9651C9.38853 96.0387 9.51002 96.1389 9.60861 96.2597C9.70721 96.3806 9.78085 96.5198 9.82524 96.6693C9.86964 96.8187 9.88396 96.9755 9.8673 97.1305C9.85225 97.2888 9.80589 97.4427 9.73097 97.583C9.65605 97.7233 9.55404 97.8475 9.43081 97.9482C9.30757 98.0489 9.16554 98.1242 9.01299 98.1698C8.86044 98.2153 8.70044 98.2302 8.54208 98.2136C8.38357 98.1986 8.22961 98.1523 8.08911 98.0775C7.94861 98.0026 7.82433 97.9007 7.7235 97.7776C7.62267 97.6545 7.54734 97.5127 7.50173 97.3603C7.45611 97.2079 7.44112 97.048 7.45775 96.8898C7.4922 96.598 7.63024 96.3283 7.84689 96.1295C8.06354 95.9308 8.34441 95.8163 8.63841 95.8068L8.8071 95.8308Z" fill="#0AC883"/>
<path d="M8.32534 100.644C8.64277 100.669 8.93826 100.816 9.1495 101.054C9.36075 101.292 9.47135 101.603 9.4579 101.921C9.45178 102.078 9.41425 102.232 9.3476 102.374C9.28095 102.517 9.18652 102.645 9.06979 102.75C8.95306 102.855 8.81638 102.937 8.66786 102.988C8.51934 103.04 8.36194 103.062 8.2049 103.052C8.04664 103.046 7.89118 103.009 7.74737 102.943C7.60357 102.876 7.47419 102.782 7.36677 102.666C7.25934 102.55 7.17596 102.413 7.12131 102.265C7.06666 102.116 7.04191 101.958 7.04837 101.8C7.05449 101.64 7.09257 101.482 7.16043 101.337C7.22829 101.192 7.32457 101.061 7.44353 100.954C7.5625 100.846 7.70182 100.763 7.85326 100.71C8.00471 100.657 8.16514 100.635 8.32534 100.644Z" fill="#0AC883"/>
<path d="M19.2887 152.2C19.4789 152.155 19.6769 152.155 19.867 152.2C20.0842 152.197 20.2982 152.254 20.4853 152.364C20.6723 152.475 20.8252 152.635 20.9272 152.826C21.0026 152.967 21.0494 153.121 21.0647 153.279C21.0801 153.438 21.0637 153.598 21.0166 153.75C20.9695 153.903 20.8927 154.044 20.7904 154.167C20.6882 154.289 20.5627 154.39 20.4211 154.463C20.2824 154.538 20.13 154.585 19.973 154.6C19.8161 154.615 19.6576 154.598 19.5071 154.551C19.3566 154.504 19.2172 154.427 19.0969 154.325C18.9767 154.223 18.878 154.098 18.8068 153.958C18.7142 153.813 18.653 153.651 18.6272 153.481C18.6014 153.311 18.6115 153.138 18.6569 152.972C18.7023 152.806 18.7821 152.652 18.8909 152.519C18.9997 152.386 19.1353 152.278 19.2887 152.2Z" fill="#0AC883"/>
<path d="M21.6499 156.461C21.8309 156.349 22.0397 156.291 22.2523 156.292C22.4598 156.293 22.6635 156.347 22.8447 156.448C23.0259 156.549 23.1786 156.694 23.2884 156.87C23.3715 157.006 23.4268 157.157 23.4512 157.314C23.4756 157.471 23.4684 157.632 23.4303 157.786C23.3922 157.941 23.324 158.086 23.2293 158.214C23.1346 158.342 23.0155 158.45 22.8788 158.532C22.6 158.691 22.2698 158.735 21.9591 158.654C21.6483 158.573 21.3817 158.373 21.2162 158.098C21.0644 157.822 21.0246 157.498 21.1054 157.193C21.1861 156.888 21.3811 156.626 21.6499 156.461Z" fill="#0AC883"/>
<path d="M17.1684 147.844C17.3353 147.809 17.5074 147.809 17.6743 147.844C17.9586 147.906 18.21 148.071 18.3799 148.307C18.5499 148.544 18.6265 148.834 18.5951 149.123C18.5637 149.413 18.4266 149.68 18.2099 149.874C17.9933 150.069 17.7125 150.176 17.4214 150.176C17.1302 150.176 16.8494 150.069 16.6328 149.874C16.4161 149.68 16.279 149.413 16.2476 149.123C16.2162 148.834 16.2928 148.544 16.4628 148.307C16.6327 148.071 16.8841 147.906 17.1684 147.844Z" fill="#0AC883"/>
<path d="M10.8794 129.527H11.1685C11.4366 129.526 11.6973 129.615 11.9075 129.782C12.1177 129.948 12.265 130.181 12.3252 130.442C12.365 130.595 12.3741 130.755 12.3521 130.912C12.33 131.069 12.2771 131.22 12.1965 131.356C12.1159 131.493 12.0093 131.612 11.8825 131.707C11.7557 131.802 11.6114 131.871 11.4578 131.911C11.1449 131.984 10.8157 131.931 10.541 131.765C10.2662 131.598 10.0676 131.331 9.98783 131.02C9.94103 130.863 9.92732 130.699 9.94753 130.536C9.96775 130.374 10.0215 130.218 10.1053 130.078C10.1892 129.937 10.3012 129.816 10.4345 129.721C10.5677 129.626 10.7192 129.56 10.8794 129.527Z" fill="#0AC883"/>
<path d="M15.2406 143.391C15.3994 143.357 15.5637 143.357 15.7225 143.391C15.9597 143.395 16.1904 143.468 16.3871 143.601C16.5838 143.733 16.738 143.92 16.831 144.138C16.9209 144.357 16.9439 144.598 16.8971 144.831C16.8504 145.064 16.7359 145.277 16.568 145.445C16.4002 145.613 16.1865 145.727 15.9537 145.774C15.721 145.821 15.4796 145.798 15.2598 145.708C15.0401 145.618 14.8518 145.465 14.7186 145.269C14.5855 145.073 14.5133 144.841 14.5113 144.604C14.5092 144.367 14.5774 144.134 14.7072 143.936C14.8369 143.737 15.0224 143.581 15.2406 143.487V143.391Z" fill="#0AC883"/>
<path d="M12.1081 134.341C12.2194 134.318 12.3342 134.318 12.4455 134.341C12.7052 134.345 12.957 134.431 13.1648 134.587C13.3726 134.742 13.5257 134.96 13.602 135.208C13.6925 135.511 13.6598 135.838 13.511 136.117C13.3622 136.397 13.1093 136.606 12.807 136.701C12.4875 136.793 12.1441 136.755 11.8527 136.595C11.5612 136.435 11.3455 136.165 11.2528 135.846C11.1601 135.527 11.1981 135.184 11.3585 134.892C11.5189 134.601 11.7886 134.386 12.1081 134.293V134.341Z" fill="#0AC883"/>
<path d="M13.578 138.842C13.7055 138.819 13.8362 138.819 13.9636 138.842C14.2832 138.788 14.6111 138.862 14.8755 139.05C15.1398 139.237 15.319 139.522 15.3733 139.841C15.4276 140.16 15.3527 140.488 15.1652 140.752C14.9776 141.016 14.6927 141.195 14.3732 141.249C14.0729 141.358 13.7417 141.343 13.4526 141.207C13.1634 141.072 12.9398 140.827 12.8311 140.527C12.7538 140.369 12.7121 140.197 12.7087 140.021C12.7054 139.845 12.7405 139.671 12.8117 139.511C12.8828 139.35 12.9884 139.207 13.1208 139.091C13.2532 138.976 13.4092 138.891 13.578 138.842Z" fill="#0AC883"/>
<path d="M27.0475 48.7292C26.9191 48.6361 26.8103 48.5186 26.7275 48.3835C26.6446 48.2483 26.5893 48.0981 26.5647 47.9415C26.54 47.7849 26.5466 47.6249 26.5839 47.4709C26.6213 47.3168 26.6888 47.1716 26.7825 47.0437C26.896 46.8955 27.0417 46.7751 27.2087 46.6917C27.3757 46.6083 27.5595 46.5639 27.7462 46.5621C28.0078 46.5565 28.2633 46.6416 28.4692 46.8029C28.7248 46.9945 28.8937 47.2797 28.9389 47.5958C28.9841 47.9119 28.9018 48.233 28.7101 48.4884C28.6195 48.6169 28.5036 48.7255 28.3696 48.8076C28.2356 48.8898 28.0862 48.9438 27.9306 48.9664C27.775 48.9889 27.6164 48.9795 27.4646 48.9387C27.3127 48.8979 27.1708 48.8267 27.0475 48.7292Z" fill="#0AC883"/>
<path d="M30.6618 168.182C30.837 168.182 31.0101 168.22 31.1684 168.295C31.3268 168.37 31.4666 168.48 31.5774 168.615C31.7296 168.799 31.8236 169.024 31.8476 169.261C31.8715 169.499 31.8243 169.738 31.712 169.949C31.5996 170.159 31.4272 170.332 31.2165 170.444C31.0059 170.557 30.7666 170.604 30.529 170.58C30.2914 170.556 30.0662 170.463 29.882 170.311C29.6979 170.159 29.5629 169.956 29.4945 169.727C29.4261 169.498 29.4274 169.255 29.4979 169.027C29.5684 168.799 29.7051 168.597 29.8907 168.447C30.1047 168.264 30.3804 168.169 30.6618 168.182Z" fill="#0AC883"/>
<path d="M27.6496 164.355C27.855 164.355 28.0569 164.407 28.2363 164.507C28.4157 164.607 28.5666 164.751 28.6746 164.926C28.7825 165.1 28.844 165.299 28.8532 165.504C28.8625 165.709 28.819 165.913 28.7272 166.096C28.6354 166.28 28.4982 166.437 28.3285 166.553C28.1588 166.668 27.9624 166.738 27.7579 166.757C27.5533 166.775 27.3474 166.741 27.1598 166.658C26.9721 166.574 26.809 166.444 26.6858 166.28C26.5921 166.152 26.5247 166.007 26.4874 165.853C26.45 165.699 26.4433 165.54 26.4679 165.383C26.4926 165.227 26.5479 165.076 26.6307 164.941C26.7136 164.806 26.8225 164.689 26.9509 164.596C27.1494 164.438 27.396 164.353 27.6496 164.355Z" fill="#0AC883"/>
<path d="M25.891 52.5079C25.7062 52.7696 25.4264 52.9488 25.1113 53.0073C24.7962 53.0658 24.4708 52.999 24.2043 52.821C23.9951 52.6751 23.8376 52.4665 23.7546 52.2254C23.6715 51.9843 23.6672 51.723 23.7422 51.4793C23.8173 51.2356 23.9678 51.0219 24.1721 50.8692C24.3764 50.7164 24.6238 50.6324 24.8789 50.6293C25.1183 50.6221 25.3541 50.6895 25.5536 50.822C25.8177 50.9985 26.0014 51.2722 26.0646 51.5835C26.1277 51.8947 26.0654 52.2183 25.891 52.4838V52.5079Z" fill="#0AC883"/>
<path d="M33.0471 41.1712C32.8796 41.0024 32.7659 40.7879 32.7202 40.5546C32.6745 40.3214 32.699 40.0798 32.7905 39.8604C32.8819 39.641 33.0363 39.4536 33.2342 39.3217C33.4321 39.1899 33.6646 39.1195 33.9024 39.1195C34.1403 39.1195 34.3729 39.1899 34.5709 39.3217C34.7688 39.4536 34.9231 39.641 35.0146 39.8604C35.106 40.0798 35.1305 40.3214 35.0849 40.5546C35.0392 40.7879 34.9254 41.0024 34.7579 41.1712C34.5287 41.3933 34.2218 41.5175 33.9024 41.5175C33.5831 41.5175 33.2764 41.3933 33.0471 41.1712Z" fill="#0AC883"/>
<path d="M24.8548 160.384C25.0534 160.385 25.2487 160.434 25.4247 160.526C25.6006 160.619 25.7522 160.751 25.8667 160.913C26.0424 161.182 26.1054 161.51 26.0423 161.825C25.9793 162.14 25.7951 162.418 25.5294 162.599C25.2642 162.778 24.9388 162.844 24.6248 162.783C24.3107 162.722 24.0336 162.539 23.8547 162.274C23.6758 162.009 23.6096 161.684 23.6706 161.37C23.7316 161.056 23.9148 160.779 24.18 160.6C24.3787 160.463 24.6135 160.388 24.8548 160.384Z" fill="#0AC883"/>
<path d="M33.8182 171.84C33.985 171.842 34.1497 171.877 34.3028 171.943C34.4559 172.009 34.5943 172.105 34.7097 172.226C34.8806 172.393 34.9978 172.607 35.0462 172.842C35.0947 173.076 35.0723 173.319 34.9818 173.54C34.8913 173.762 34.7369 173.951 34.5383 174.085C34.3396 174.218 34.1058 174.289 33.8665 174.289C33.6272 174.289 33.3932 174.218 33.1945 174.085C32.9959 173.951 32.8416 173.762 32.7511 173.54C32.6606 173.319 32.6381 173.076 32.6865 172.842C32.735 172.607 32.8521 172.393 33.023 172.226C33.122 172.11 33.2438 172.017 33.3806 171.95C33.5173 171.884 33.6663 171.847 33.8182 171.84Z" fill="#0AC883"/>
<path d="M29.9148 44.8779C29.6686 44.6716 29.513 44.3771 29.4815 44.0575C29.45 43.738 29.545 43.4188 29.7461 43.1684C29.8607 43.031 30.0044 42.9207 30.167 42.8457C30.3296 42.7708 30.5068 42.733 30.6859 42.735C30.9618 42.7372 31.2274 42.8399 31.4328 43.024C31.5567 43.1221 31.6595 43.2441 31.7353 43.3827C31.8111 43.5214 31.8583 43.6738 31.874 43.831C31.8898 43.9882 31.8738 44.1469 31.827 44.2978C31.7801 44.4487 31.7035 44.5887 31.6015 44.7094C31.3993 44.9538 31.1086 45.1086 30.7928 45.1402C30.477 45.1717 30.1615 45.0775 29.9148 44.8779Z" fill="#0AC883"/>
<path d="M18.7828 64.903C18.6454 65.1935 18.3982 65.4176 18.0954 65.526C17.7927 65.6343 17.4593 65.6181 17.1685 65.4808C16.8777 65.3435 16.6534 65.0965 16.5449 64.794C16.4365 64.4915 16.4527 64.1584 16.5901 63.8679C16.6883 63.6626 16.8417 63.4886 17.0332 63.3653C17.2247 63.242 17.4467 63.1743 17.6744 63.1697C17.8492 63.1334 18.0297 63.1334 18.2046 63.1697C18.3654 63.2353 18.5101 63.3348 18.6289 63.4615C18.7476 63.5882 18.8375 63.739 18.8924 63.9036C18.9473 64.0683 18.966 64.2428 18.9471 64.4153C18.9282 64.5878 18.8721 64.7542 18.7828 64.903Z" fill="#0AC883"/>
<path d="M21.65 56.8646C21.3789 56.6953 21.1844 56.4271 21.1079 56.1169C21.0315 55.8067 21.079 55.4789 21.2404 55.2031C21.3519 55.0287 21.5048 54.8847 21.6856 54.7838C21.8664 54.683 22.0695 54.6285 22.2765 54.6252C22.4972 54.6205 22.7146 54.679 22.903 54.7937C23.1778 54.9598 23.3752 55.2281 23.452 55.5397C23.5288 55.8513 23.4788 56.1806 23.3126 56.4552C23.1465 56.7298 22.8779 56.9272 22.5661 57.004C22.2543 57.0808 21.9248 57.0306 21.65 56.8646Z" fill="#0AC883"/>
<path d="M15.1201 73.7604C15.0663 73.9105 14.9835 74.0487 14.8763 74.1669C14.7691 74.2851 14.6396 74.381 14.4952 74.4492C14.3509 74.5174 14.1947 74.5565 14.0352 74.5643C13.8758 74.5721 13.7164 74.5484 13.5661 74.4947C13.4158 74.4409 13.2774 74.3581 13.1591 74.251C13.0409 74.1439 12.9449 74.0145 12.8766 73.8703C12.8084 73.7261 12.7693 73.5699 12.7615 73.4105C12.7537 73.2512 12.7772 73.0919 12.831 72.9417C12.9209 72.7128 13.0763 72.5154 13.2777 72.3741C13.4791 72.2328 13.7176 72.1539 13.9636 72.1472C14.099 72.1223 14.2378 72.1223 14.3732 72.1472C14.5306 72.2008 14.6756 72.2857 14.7992 72.3969C14.9228 72.508 15.0225 72.6431 15.0923 72.7939C15.1622 72.9448 15.2006 73.1082 15.2054 73.2743C15.2102 73.4404 15.1812 73.6058 15.1201 73.7604Z" fill="#0AC883"/>
<path d="M12.3252 82.9307C12.2886 83.0832 12.2219 83.2269 12.129 83.3534C12.0362 83.4799 11.9191 83.5867 11.7845 83.6674C11.6498 83.7481 11.5004 83.8012 11.345 83.8235C11.1896 83.8458 11.0313 83.837 10.8794 83.7974C10.7246 83.7636 10.5782 83.6989 10.449 83.6073C10.3197 83.5157 10.2101 83.399 10.1269 83.2642C10.0437 83.1294 9.98853 82.9792 9.96466 82.8226C9.94079 82.666 9.94865 82.5062 9.9879 82.3528C10.053 82.0898 10.205 81.8564 10.4192 81.6904C10.6335 81.5243 10.8974 81.4354 11.1686 81.4379H11.4578C11.6141 81.477 11.7608 81.5469 11.8895 81.6437C12.0182 81.7405 12.1261 81.862 12.207 82.0012C12.2879 82.1404 12.3401 82.2943 12.3604 82.454C12.3807 82.6136 12.3687 82.7757 12.3252 82.9307Z" fill="#0AC883"/>
<path d="M13.6022 78.3095C13.5077 78.6115 13.2979 78.8643 13.0184 79.013C12.7388 79.1617 12.4118 79.1944 12.1083 79.104C11.9549 79.0631 11.8117 78.9911 11.6874 78.8924C11.5631 78.7937 11.4604 78.6705 11.3858 78.5305C11.3112 78.3904 11.2663 78.2365 11.2538 78.0784C11.2414 77.9202 11.2614 77.7612 11.3131 77.6112C11.3814 77.3631 11.5291 77.1441 11.7336 76.9876C11.938 76.8311 12.1881 76.7457 12.4457 76.7444H12.8072C12.9652 76.7906 13.112 76.8685 13.2387 76.9735C13.3653 77.0785 13.469 77.2084 13.5435 77.355C13.618 77.5017 13.6617 77.662 13.6718 77.8262C13.6819 77.9903 13.6582 78.1548 13.6022 78.3095Z" fill="#0AC883"/>
<path d="M16.831 69.3557C16.6907 69.6201 16.4568 69.8227 16.175 69.9242C15.8932 70.0256 15.5837 70.0184 15.3069 69.9042C15.03 69.7899 14.8056 69.5767 14.6776 69.3061C14.5495 69.0356 14.5271 68.727 14.6143 68.4407C14.6991 68.2169 14.8511 68.025 15.0496 67.8913C15.2482 67.7576 15.4833 67.6887 15.7226 67.6943C15.8743 67.6711 16.0287 67.6711 16.1804 67.6943C16.3376 67.754 16.4805 67.8459 16.6 67.9642C16.7195 68.0824 16.813 68.2244 16.8743 68.3809C16.9356 68.5374 16.9633 68.705 16.9559 68.8729C16.9485 69.0407 16.9059 69.2052 16.831 69.3557Z" fill="#0AC883"/>
<path d="M19.3128 61.1246C19.1713 61.0511 19.0458 60.9502 18.9436 60.8278C18.8413 60.7054 18.7644 60.564 18.7174 60.4117C18.6703 60.2593 18.6541 60.0992 18.6694 59.9406C18.6848 59.7819 18.7315 59.6278 18.8069 59.4874C18.9117 59.291 19.0679 59.1268 19.2589 59.0123C19.4499 58.8978 19.6685 58.8373 19.8913 58.8373C20.0851 58.8393 20.2753 58.8889 20.4454 58.9818C20.7298 59.1319 20.9429 59.3886 21.0378 59.6957C21.1327 60.0027 21.1015 60.3348 20.9513 60.619C20.8011 60.9031 20.5441 61.116 20.2369 61.2108C19.9296 61.3057 19.5972 61.2746 19.3128 61.1246Z" fill="#0AC883"/>
<path d="M10.3253 86.2035C10.6398 86.2677 10.9167 86.4522 11.0968 86.7176C11.2769 86.983 11.346 87.3084 11.2891 87.624C11.225 87.9382 11.0402 88.2149 10.7746 88.3949C10.5089 88.5748 10.1833 88.6438 9.86744 88.587C9.71237 88.5554 9.56504 88.4936 9.43388 88.4051C9.30273 88.3167 9.19039 88.2032 9.10313 88.0713C9.01586 87.9394 8.95541 87.7916 8.92532 87.6364C8.89523 87.4811 8.896 87.3215 8.92767 87.1666C8.98041 86.8797 9.13777 86.6225 9.36917 86.4446C9.60057 86.2668 9.88964 86.1809 10.1807 86.2035H10.3253Z" fill="#0AC883"/>
<path d="M177.64 36.1233C196.434 54.8907 206.996 80.3472 207 106.893C207.005 133.438 196.452 158.898 177.664 177.672C158.876 196.446 133.391 206.995 106.817 207C80.2417 207.005 54.7534 196.464 35.9589 177.696C35.7371 177.463 35.6159 177.152 35.6215 176.83C35.6245 176.517 35.7449 176.216 35.9589 175.987C36.1942 175.765 36.5027 175.637 36.8263 175.626C36.9781 175.604 37.1323 175.604 37.2841 175.626C37.4217 175.701 37.551 175.789 37.6697 175.891C51.3446 189.55 68.7671 198.852 87.7343 202.621C106.702 206.389 126.361 204.454 144.228 197.062C162.095 189.669 177.365 177.15 188.109 161.088C198.853 145.027 204.588 126.143 204.588 106.826C204.588 87.5082 198.853 68.6246 188.109 52.5627C177.365 36.5008 162.095 23.982 144.228 16.5893C126.361 9.1967 106.702 7.26225 87.7343 11.0306C68.7671 14.7989 51.3446 24.1008 37.6697 37.76C37.4377 37.9766 37.1318 38.0971 36.8142 38.0971C36.4967 38.0971 36.191 37.9766 35.9589 37.76C35.8571 37.6415 35.7682 37.5124 35.6939 37.3749C35.6686 37.2155 35.6686 37.053 35.6939 36.8935C35.6969 36.5805 35.8173 36.2799 36.0313 36.0511C54.5271 17.673 79.4835 7.24705 105.571 7C106.548 7.00004 107.98 7 107.98 7C134.12 7.22978 159.129 17.6854 177.64 36.1233Z" fill="url(#paint1_linear)"/>
</g>
<defs>
<filter id="filter0_d" x="0" y="0" width="220" height="220" filterUnits="userSpaceOnUse" color-interpolation-filters="sRGB">
<feFlood flood-opacity="0" result="BackgroundImageFix"/>
<feColorMatrix in="SourceAlpha" type="matrix" values="0 0 0 0 0 0 0 0 0 0 0 0 0 0 0 0 0 0 127 0" result="hardAlpha"/>
<feOffset dx="3" dy="3"/>
<feGaussianBlur stdDeviation="5"/>
<feColorMatrix type="matrix" values="0 0 0 0 0 0 0 0 0 0 0 0 0 0 0 0 0 0 0.15 0"/>
<feBlend mode="normal" in2="BackgroundImageFix" result="effect1_dropShadow"/>
<feBlend mode="normal" in="SourceGraphic" in2="effect1_dropShadow" result="shape"/>
</filter>
<filter id="filter1_d" x="17.3772" y="16.1516" width="186.307" height="186.123" filterUnits="userSpaceOnUse" color-interpolation-filters="sRGB">
<feFlood flood-opacity="0" result="BackgroundImageFix"/>
<feColorMatrix in="SourceAlpha" type="matrix" values="0 0 0 0 0 0 0 0 0 0 0 0 0 0 0 0 0 0 127 0" result="hardAlpha"/>
<feOffset dx="3" dy="3"/>
<feGaussianBlur stdDeviation="5"/>
<feColorMatrix type="matrix" values="0 0 0 0 0 0 0 0 0 0 0 0 0 0 0 0 0 0 0.15 0"/>
<feBlend mode="normal" in2="BackgroundImageFix" result="effect1_dropShadow"/>
<feBlend mode="normal" in="SourceGraphic" in2="effect1_dropShadow" result="shape"/>
</filter>
<linearGradient id="paint0_linear" x1="24.6948" y1="106.325" x2="196.934" y2="106.325" gradientUnits="userSpaceOnUse">
<stop stop-color="#0AC883"/>
<stop offset="1" stop-color="#DFEF9F"/>
</linearGradient>
<linearGradient id="paint1_linear" x1="15.2752" y1="106.55" x2="221.246" y2="106.55" gradientUnits="userSpaceOnUse">
<stop stop-color="#0AC883"/>
<stop offset="1" stop-color="#DFEF9F"/>
</linearGradient>
</defs>
</svg>
