<svg width="68" height="65" viewBox="0 0 68 65" fill="none" xmlns="http://www.w3.org/2000/svg">
<g filter="url(#filter0_d)">
<path fill-rule="evenodd" clip-rule="evenodd" d="M50.1563 16.9983L54.1929 34.3945C54.2685 35.3106 54.0314 36.2254 53.5202 36.9895L42.2751 50.8295C42.0251 51.2297 41.6665 51.5507 41.2411 51.7549C40.8157 51.9591 40.341 52.0381 39.8723 51.9829H21.9956C21.0872 51.8815 20.24 51.4749 19.5928 50.8295L8.34775 36.9895C7.83189 36.2295 7.62563 35.3013 7.77108 34.3945L11.7117 16.9022C11.8115 16.4749 12.0118 16.0776 12.296 15.7433C12.5801 15.409 12.94 15.1473 13.3455 14.9799L29.4923 7.09877C29.9365 7.02225 30.3872 6.99005 30.8378 7.00266C31.3024 6.99558 31.7625 7.09417 32.1834 7.291L48.4263 14.9799C49.2428 15.403 49.8631 16.1266 50.1563 16.9983ZM41.5062 49.2917L51.8863 36.4128C52.1209 36.1007 52.2853 35.7416 52.3682 35.36C52.4511 34.9785 52.4507 34.5836 52.3668 34.2022L48.6185 18.0555C48.5074 17.6589 48.3127 17.2908 48.0475 16.9758C47.7822 16.6608 47.4526 16.4063 47.0807 16.2294L32.0873 9.02101C31.6969 8.83476 31.2704 8.73634 30.8378 8.73267C30.4191 8.71681 29.9998 8.74906 29.5884 8.82878L14.595 16.0371C13.8754 16.3899 13.3232 17.0112 13.0572 17.7672L9.40497 34.01C9.29581 34.8546 9.50106 35.7098 9.98164 36.4128L20.3617 49.2917C21.0049 49.8709 21.8097 50.2398 22.6684 50.349H39.1995C39.644 50.4011 40.0942 50.33 40.501 50.1436C40.9078 49.9571 41.2556 49.6624 41.5062 49.2917ZM47.5733 33.3253C47.5853 33.3373 47.6093 33.3373 47.6574 33.3373C48.138 33.4334 48.5224 33.8179 48.4263 34.6829C48.3522 34.9052 48.2104 35.0989 48.0209 35.2367C47.8313 35.3746 47.6034 35.4498 47.3691 35.4518C47.3169 35.4581 47.264 35.4527 47.2141 35.4361C47.1642 35.4195 47.1187 35.392 47.0807 35.3557C47.0807 35.3076 47.0807 35.2836 47.0687 35.2716C47.0567 35.2596 47.0327 35.2596 46.9846 35.2596C46.9366 35.2596 46.9125 35.2355 46.8885 35.2115C46.8645 35.1875 46.8404 35.1634 46.7924 35.1634L46.2157 34.8751C46.1635 34.8814 46.1106 34.876 46.0608 34.8594C46.0109 34.8428 45.9654 34.8153 45.9274 34.779H45.8313C45.2679 34.5744 44.6895 34.4138 44.1013 34.2984H44.0052C43.8606 34.3225 43.7267 34.3895 43.6207 34.4907C43.6207 34.5162 43.6106 34.5406 43.5926 34.5586C43.5745 34.5767 43.5501 34.5868 43.5246 34.5868L43.1402 34.4907C42.1348 37.5019 40.0906 40.0571 37.3735 41.699L37.5657 42.0835C37.5402 42.0835 37.5157 42.0936 37.4977 42.1116C37.4797 42.1297 37.4696 42.1541 37.4696 42.1796C37.2773 42.2757 37.2773 42.4679 37.3735 42.6601C37.5658 43.2211 37.859 43.7422 38.2385 44.1979V44.294C38.2865 44.3421 38.3105 44.3902 38.3346 44.4382C38.3586 44.4863 38.3826 44.5343 38.4307 44.5824C38.608 44.6961 38.7431 44.8649 38.8151 45.0629C38.8151 45.111 38.8392 45.135 38.8632 45.159C38.8872 45.1831 38.9112 45.2071 38.9112 45.2552C38.9367 45.2552 38.9612 45.2653 38.9792 45.2833C38.9972 45.3013 39.0074 45.3258 39.0074 45.3513C39.0919 45.4585 39.1455 45.5868 39.1625 45.7223C39.1794 45.8578 39.159 45.9954 39.1035 46.1202C39.0662 46.2436 39.0044 46.3583 38.9218 46.4574C38.8393 46.5564 38.7376 46.6379 38.6229 46.6968C38.5831 46.6968 38.5433 46.7133 38.4966 46.7326C38.4307 46.76 38.3511 46.7929 38.2385 46.7929C38.0327 46.777 37.835 46.7062 37.666 46.5879C37.4969 46.4696 37.3627 46.308 37.2773 46.1202C37.2519 46.1202 37.2274 46.11 37.2094 46.092C37.1914 46.074 37.1812 46.0495 37.1812 46.0241C37.1812 45.9898 37.1812 45.9799 37.1769 45.9728C37.169 45.9598 37.147 45.9555 37.0851 45.8318C37.0371 45.7357 37.013 45.6396 36.989 45.5435C36.965 45.4474 36.941 45.3513 36.8929 45.2552L36.7968 44.9668V44.8707C36.6312 44.3037 36.4057 43.756 36.124 43.2368C36.0145 43.1181 35.8842 43.0204 35.7396 42.9485C35.7396 42.9004 35.7396 42.8764 35.7276 42.8644C35.7155 42.8524 35.6915 42.8524 35.6435 42.8524L35.4512 42.4679C34.8878 42.6725 34.3094 42.8332 33.7212 42.9485C32.7842 43.2176 31.8127 43.3472 30.8379 43.3329C29.2597 43.3343 27.6951 43.0409 26.2245 42.4679L26.0323 42.8524C26.0323 42.9004 26.0323 42.9245 26.0203 42.9365C26.0083 42.9485 25.9842 42.9485 25.9362 42.9485C25.8536 42.962 25.7755 42.9953 25.7086 43.0455C25.6416 43.0957 25.5878 43.1613 25.5517 43.2368C25.2701 43.756 25.0445 44.3037 24.879 44.8707L24.7829 45.159C24.7629 45.3633 24.6972 45.5604 24.5906 45.7357C24.5906 45.7838 24.5666 45.8078 24.5426 45.8318C24.5185 45.8559 24.4945 45.8799 24.4945 45.9279C24.469 45.9279 24.4446 45.9381 24.4266 45.9561C24.4085 45.9741 24.3984 45.9986 24.3984 46.0241C24.313 46.2119 24.1788 46.3734 24.0098 46.4918C23.8407 46.6101 23.643 46.6809 23.4373 46.6968C23.3018 46.7112 23.1656 46.6772 23.0528 46.6007C22.8167 46.455 22.6454 46.2244 22.5739 45.9564C22.5024 45.6883 22.5362 45.403 22.6684 45.159C22.6939 45.159 22.7183 45.1489 22.7364 45.1309C22.7544 45.1129 22.7645 45.0884 22.7645 45.0629C22.7645 45.0189 22.7443 45.0152 22.7409 45.0056C22.737 44.9944 22.7565 44.9748 22.8606 44.8707C22.9732 44.7581 23.0528 44.6455 23.1188 44.5522C23.1654 44.4863 23.2053 44.43 23.2451 44.3902C23.2931 44.3421 23.3171 44.294 23.3412 44.246C23.3652 44.1979 23.3892 44.1499 23.4373 44.1018V44.0057C23.7972 43.5368 24.0885 43.019 24.3023 42.4679C24.3087 42.3024 24.2758 42.1377 24.2062 41.9874V41.8913L24.3984 41.9874C23.8825 41.7235 23.3987 41.401 22.9567 41.0263C20.9448 39.4026 19.4433 37.2337 18.6317 34.779L18.1512 34.8751C18.1512 34.8496 18.141 34.8252 18.123 34.8072C18.105 34.7891 18.0805 34.779 18.055 34.779C18.0093 34.7204 17.951 34.6727 17.8845 34.6395C17.818 34.6062 17.7449 34.5882 17.6706 34.5868H17.5745C16.9863 34.7021 16.4079 34.8628 15.8445 35.0673H15.7484C15.6962 35.0611 15.6433 35.0664 15.5934 35.083C15.5436 35.0997 15.498 35.1271 15.46 35.1634C15.2558 35.1834 15.0587 35.2491 14.8834 35.3557C14.8834 35.3557 14.6911 35.2596 14.6911 35.3557C14.6911 35.4518 14.6911 35.4518 14.595 35.4518C14.5571 35.4881 14.5115 35.5156 14.4616 35.5322C14.4118 35.5488 14.3589 35.5542 14.3067 35.5479C14.069 35.5604 13.8343 35.4908 13.6418 35.3508C13.4494 35.2108 13.3108 35.0089 13.2495 34.779C13.2016 34.499 13.2653 34.2114 13.427 33.9778C13.5887 33.7442 13.8355 33.5833 14.1145 33.5296C14.1145 33.4815 14.1145 33.4575 14.1265 33.4455C14.1385 33.4334 14.1625 33.4334 14.2106 33.4334C14.2586 33.4334 14.2827 33.4094 14.3067 33.3854C14.3307 33.3614 14.3547 33.3373 14.4028 33.3373C14.5615 33.3373 14.6911 33.3082 14.8077 33.282C14.9028 33.2606 14.9892 33.2412 15.0756 33.2412C15.1136 33.2049 15.1591 33.1774 15.209 33.1608C15.2588 33.1442 15.3117 33.1388 15.3639 33.1451C15.9844 33.1509 16.6015 33.0535 17.19 32.8568C17.3618 32.7812 17.499 32.6441 17.5745 32.4723C17.5871 32.4723 17.5996 32.4698 17.6113 32.465C17.6229 32.4602 17.6335 32.4531 17.6424 32.4442C17.6514 32.4353 17.6585 32.4247 17.6633 32.413C17.6681 32.4013 17.6706 32.3888 17.6706 32.3762L18.055 32.2801C17.5822 29.2397 18.2312 26.1311 19.8812 23.534C19.9292 23.4859 19.9532 23.4378 19.9773 23.3898C20.0013 23.3417 20.0253 23.2937 20.0734 23.2456L19.7851 22.9573V23.0534C19.7818 22.8751 19.7134 22.7042 19.5928 22.5728C19.1032 22.1881 18.5896 21.835 18.055 21.5156C18.007 21.4676 17.9589 21.4435 17.9109 21.4195C17.8628 21.3955 17.8148 21.3714 17.7667 21.3234L17.19 21.0351C17.1172 21.0249 17.0497 20.9911 16.9978 20.9389C16.9978 20.9135 16.9877 20.889 16.9697 20.871C16.9516 20.853 16.9272 20.8428 16.9017 20.8428C16.7098 20.6405 16.5877 20.3822 16.5531 20.1055C16.5185 19.8288 16.5733 19.5484 16.7095 19.305C16.7937 19.1802 16.9087 19.0792 17.0434 19.0118C17.1781 18.9445 17.328 18.9131 17.4784 18.9206C17.7624 18.9134 18.038 19.0168 18.2473 19.2089L18.3434 19.305C18.4395 19.305 18.4395 19.305 18.5356 19.4012C18.6333 19.5835 18.7636 19.7464 18.92 19.8817L19.1123 20.0739C19.5132 20.5389 19.9645 20.9579 20.4578 21.3234C20.5059 21.3234 20.5539 21.3474 20.602 21.3714C20.6501 21.3955 20.6981 21.4195 20.7462 21.4195C20.7942 21.4195 20.8182 21.3955 20.8423 21.3714C20.8663 21.3474 20.8903 21.3234 20.9384 21.3234H21.0345L21.3228 21.5156C23.0374 19.5907 25.3311 18.2751 27.8584 17.7673C28.5312 17.6711 29.1079 17.575 29.6845 17.4789L29.7806 17.0945V16.9984C29.9307 16.9233 29.9636 16.8483 30.0166 16.7275C30.0315 16.6936 30.0479 16.6561 30.069 16.6139C30.0875 16.0036 30.0554 15.3928 29.9729 14.7878V14.4034C29.9729 14.2446 29.9437 14.115 29.9176 13.9985C29.8962 13.9034 29.8768 13.817 29.8768 13.7306V13.4422C29.8696 13.1583 29.9729 12.8826 30.1651 12.6733C30.2535 12.5294 30.3835 12.4156 30.538 12.3469C30.6924 12.2783 30.864 12.2581 31.0301 12.2889C31.2856 12.351 31.5117 12.5001 31.6694 12.7104C31.8272 12.9208 31.907 13.1795 31.8951 13.4422V13.7306C31.9179 13.9593 31.8849 14.1902 31.799 14.4034C31.799 14.4514 31.775 14.4995 31.7509 14.5475C31.7269 14.5956 31.7029 14.6436 31.7029 14.6917V14.7878C31.6254 15.3933 31.5933 16.0037 31.6068 16.6139C31.6425 16.6497 31.665 16.6988 31.689 16.7513C31.7295 16.8398 31.7744 16.938 31.8951 16.9984V16.9023L31.9912 17.3828C34.5062 17.6742 36.8964 18.6369 38.9112 20.17C39.3817 20.5623 39.8309 20.9793 40.2568 21.4195L40.6413 21.1312H40.7374C40.7374 21.2273 40.8335 21.2273 40.9296 21.2273C40.9818 21.2336 41.0347 21.2282 41.0845 21.2116C41.1344 21.195 41.18 21.1675 41.2179 21.1312C41.7091 20.7995 42.1606 20.4125 42.5635 19.9778L42.7557 19.7856C42.8534 19.6033 42.9837 19.4404 43.1402 19.305C43.2363 19.305 43.2363 19.305 43.3324 19.2089L43.4285 19.1128L43.4285 19.1128C43.6207 18.9206 43.9091 18.6323 44.1974 18.6323C44.4928 18.6594 44.7673 18.7966 44.9663 19.0167C45.0571 19.1293 45.1244 19.259 45.164 19.3981C45.2036 19.5372 45.2148 19.6829 45.1969 19.8264C45.1789 19.97 45.1322 20.1084 45.0596 20.2335C44.9869 20.3586 44.8898 20.4678 44.7741 20.5545C44.7741 20.5545 44.8702 20.6506 44.7741 20.6506C44.6779 20.6506 44.6779 20.6506 44.5818 20.7467L44.0052 21.0351C43.9571 21.0831 43.909 21.1071 43.861 21.1312C43.8129 21.1552 43.7649 21.1792 43.7168 21.2273C43.1678 21.5236 42.6523 21.878 42.179 22.2845C42.0585 22.4159 41.9901 22.5868 41.9868 22.7651V22.8612L41.6985 23.1495C42.5414 24.4807 43.1585 25.942 43.5246 27.4745C43.8282 29.0254 43.893 30.6135 43.7168 32.184L44.1013 32.2801C44.1768 32.4518 44.314 32.589 44.4857 32.6645L46.3118 32.9529H46.4079C46.4459 32.9892 46.4915 33.0167 46.5413 33.0333C46.5912 33.0499 46.6441 33.0553 46.6963 33.049C46.925 33.0262 47.1559 33.0592 47.3691 33.1451C47.4652 33.1451 47.5613 33.1451 47.5613 33.2412C47.5613 33.2893 47.5613 33.3133 47.5733 33.3253ZM30.8379 32.3762L32.2795 31.7034L32.5679 30.1657L31.6068 28.9162H29.9729L29.0118 30.1657L29.3962 31.7034L30.8379 32.3762ZM41.1218 31.6073C41.2499 30.4833 41.1849 29.3456 40.9296 28.2434C40.6824 27.1116 40.2261 26.036 39.584 25.0717L35.5473 28.724C35.4879 28.7834 35.4653 28.8428 35.4339 28.9249C35.4145 28.9756 35.3918 29.035 35.3551 29.1084C35.3296 29.222 35.3268 29.3396 35.3468 29.4543C35.3669 29.569 35.4094 29.6786 35.4719 29.7768C35.5344 29.875 35.6157 29.9599 35.7111 30.0267C35.8065 30.0934 35.9142 30.1406 36.0279 30.1657L41.1218 31.6073ZM33.7212 26.129L38.0462 23.0534C36.4198 21.4792 34.3311 20.4685 32.0873 20.17L32.3757 25.5523C32.3771 25.6266 32.3951 25.6997 32.4283 25.7662C32.4616 25.8327 32.5093 25.891 32.5679 25.9367C32.705 26.102 32.897 26.2123 33.1088 26.2476C33.3205 26.2829 33.5379 26.2408 33.7212 26.129ZM29.4923 20.17L28.4351 20.3623C26.6075 20.8495 24.9255 21.7729 23.5334 23.0534L27.9545 26.2251C27.9943 26.2251 28.0342 26.2416 28.0808 26.2609C28.1468 26.2882 28.2264 26.3212 28.339 26.3212C28.5684 26.3212 28.7884 26.2301 28.9506 26.0678C29.1128 25.9056 29.204 25.6856 29.204 25.4562L29.4923 20.17ZM25.9362 28.5318L21.9956 25.0717C20.8521 27.0202 20.2855 29.2533 20.3617 31.5112L25.6479 30.0695C25.69 30.0485 25.7275 30.032 25.7614 30.0171C25.8822 29.9642 25.9573 29.9313 26.0323 29.7812C26.1833 29.6019 26.2578 29.3705 26.2399 29.1368C26.2219 28.9031 26.1128 28.6858 25.9362 28.5318ZM26.3206 33.2412L21.0345 34.1062C21.8448 36.2205 23.2882 38.033 25.1673 39.2962L27.0895 34.3946C27.2817 34.2984 27.2817 34.1062 27.1856 33.914C27.1856 33.5296 26.7051 33.2412 26.3206 33.2412ZM30.8379 40.9301C31.6157 40.9291 32.3904 40.8322 33.1446 40.6418C33.4592 40.5668 33.7824 40.5345 34.1057 40.5457L31.5107 35.9323C31.4351 35.7606 31.298 35.6234 31.1262 35.5479C30.9537 35.4577 30.7561 35.4277 30.5646 35.4625C30.3731 35.4973 30.1987 35.595 30.069 35.7401L27.474 40.4496C28.5692 40.7571 29.7003 40.9187 30.8379 40.9301ZM36.4123 39.2001C37.6962 38.3968 38.7807 37.3123 39.584 36.0285C40.055 35.4383 40.3839 34.7477 40.5451 34.0101L35.259 33.1451C35.0929 33.1301 34.926 33.1635 34.7785 33.2412C34.593 33.3128 34.441 33.4509 34.3521 33.6287C34.2632 33.8065 34.2439 34.0111 34.2979 34.2023L36.4123 39.2001Z" fill="#9FEFDE"/>
</g>
<defs>
<filter id="filter0_d" x="0.725586" y="0" width="66.4811" height="65" filterUnits="userSpaceOnUse" color-interpolation-filters="sRGB">
<feFlood flood-opacity="0" result="BackgroundImageFix"/>
<feColorMatrix in="SourceAlpha" type="matrix" values="0 0 0 0 0 0 0 0 0 0 0 0 0 0 0 0 0 0 127 0" result="hardAlpha"/>
<feOffset dx="3" dy="3"/>
<feGaussianBlur stdDeviation="5"/>
<feColorMatrix type="matrix" values="0 0 0 0 0 0 0 0 0 0 0 0 0 0 0 0 0 0 0.15 0"/>
<feBlend mode="normal" in2="BackgroundImageFix" result="effect1_dropShadow"/>
<feBlend mode="normal" in="SourceGraphic" in2="effect1_dropShadow" result="shape"/>
</filter>
</defs>
</svg>
