<svg width="59" height="65" viewBox="0 0 59 65" fill="none" xmlns="http://www.w3.org/2000/svg">
<g filter="url(#filter0_d)">
<path fill-rule="evenodd" clip-rule="evenodd" d="M42.6096 39.374C42.3391 38.9411 41.9523 38.593 41.4935 38.3693C41.5807 37.6048 41.7518 36.8523 42.0035 36.1252C42.1086 33.3515 41.2827 30.6225 39.6574 28.3726C38.8745 27.2338 38.0419 26.1447 37.1944 25.036C36.8271 24.5556 36.4571 24.0716 36.0871 23.5782C34.742 21.908 34.0528 19.8042 34.1489 17.6618C34.1827 16.1967 34.1145 14.731 33.9449 13.2754C33.4349 8.58307 30.8847 6.64493 26.1923 7.05296C24.8022 7.05862 23.4648 7.58585 22.4448 8.53033C21.4247 9.47481 20.7964 10.7677 20.6839 12.1533C20.497 14.0176 20.4629 15.894 20.5819 17.7638C20.7 20.382 19.8666 22.9546 18.2357 25.0063C17.056 26.5046 15.966 28.0715 14.9715 29.6987C13.4517 31.9895 12.7014 34.7051 12.8293 37.4513C12.8446 37.5951 12.8085 37.7396 12.7273 37.8593C12.5692 38.0372 12.4149 38.2265 12.2585 38.4185C11.6078 39.2172 10.9205 40.0607 9.7691 40.3075C8.34099 40.6135 7.83095 41.6336 8.03497 43.3677C8.1371 44.2488 8.1371 45.1388 8.03497 46.0199C7.42292 48.3661 7.93296 49.2842 10.3811 49.5902H10.6872C12.5336 49.7029 14.3381 50.1887 15.9916 51.0183C16.0936 51.0693 16.1956 51.0948 16.2976 51.1203C16.3996 51.1458 16.5016 51.1713 16.6036 51.2223C19.1538 51.9364 20.9899 51.6303 22.214 49.7942C25.2743 48.7741 28.3345 49.0801 31.3947 49.4882C31.435 49.668 31.5039 49.8402 31.5988 49.9982C31.9189 50.6981 32.4653 51.2699 33.15 51.6215C33.8346 51.9731 34.6177 52.084 35.373 51.9364C36.7213 51.7902 37.9625 51.1331 38.8413 50.1002C39.9363 48.8617 41.296 47.8855 42.8196 47.244L44.0437 46.632C44.0947 46.581 44.1712 46.5299 44.2477 46.4789C44.3242 46.4279 44.4007 46.3769 44.4517 46.3259C44.6458 46.1696 44.8058 45.9753 44.9219 45.7548C45.0381 45.5343 45.1078 45.2924 45.1269 45.0439C45.1461 44.7955 45.1141 44.5457 45.0331 44.3101C44.952 44.0744 44.8236 43.8579 44.6557 43.6737C44.5537 43.5717 44.4772 43.4697 44.4007 43.3677C44.3242 43.2657 44.2477 43.1637 44.1457 43.0617C43.537 42.456 43.1429 41.6679 43.0236 40.8175C43.0236 40.3071 42.8802 39.8069 42.6096 39.374ZM22.3615 46.3781C21.5881 45.8565 20.9726 45.1328 20.5819 44.2858C22.01 43.9798 22.4181 43.0617 21.704 41.5316C20.9341 40.5738 20.0807 39.6862 19.1538 38.8794C18.7701 38.5725 18.3605 38.2995 17.9297 38.0633C17.0797 37.5961 16.4026 36.8678 15.9984 35.986C15.5943 35.1042 15.4846 34.1159 15.6855 33.1669C16.0196 31.072 16.8991 29.1019 18.2357 27.4545L17.4197 28.9846C16.4976 30.5909 16.105 32.4469 16.2976 34.289C16.4629 34.975 16.7385 35.6295 17.1137 36.2272C17.3029 33.3878 18.4582 30.8996 19.6017 28.4369C19.6907 28.2453 19.7795 28.0539 19.8679 27.8625C20.8996 25.7045 21.5879 23.3985 21.908 21.028C22.4181 21.436 22.8261 21.7421 23.2341 22.0481C23.7255 22.531 24.3654 22.834 25.0503 22.9081C25.7353 22.9821 26.4252 22.8229 27.0084 22.4561C27.6205 22.1501 28.207 21.8186 28.7935 21.4871C29.3801 21.1555 29.9666 20.824 30.5787 20.518C30.6595 20.7604 30.7403 21.0068 30.8219 21.2556C31.1523 22.2633 31.4957 23.3106 31.9048 24.2923C32.2584 25.2017 32.6872 26.1111 33.1042 26.9957C33.5292 27.8972 33.942 28.7729 34.251 29.5967C34.455 30.1407 34.659 30.6734 34.863 31.2061C35.271 32.2715 35.6791 33.3369 36.0871 34.493L36.9032 34.595C37.8212 31.4328 36.4951 28.8826 34.557 26.6384C36.9032 28.8826 38.3313 31.5348 37.8212 34.9011C38.0868 35.087 38.3869 35.2452 38.6892 35.4046C39.5481 35.8574 40.4245 36.3195 40.5754 37.4513C40.5543 37.668 40.4846 37.8772 40.3714 38.0633C40.0277 37.219 39.4318 36.5014 38.665 36.0084C37.8982 35.5155 36.9979 35.2712 36.0871 35.3091C35.8128 35.3154 35.5474 35.4073 35.3279 35.5719C35.1084 35.7365 34.9459 35.9656 34.863 36.2272C34.7541 36.559 34.539 36.8457 34.251 37.0432C33.781 37.4043 33.3992 37.8674 33.1341 38.3975C32.8691 38.9275 32.7278 39.5109 32.7208 40.1035C32.6188 40.8175 32.5168 41.5571 32.4148 42.2966C32.3128 43.0362 32.2108 43.7757 32.1088 44.4898C32.0644 44.7789 31.9476 45.0521 31.7693 45.284C31.5909 45.5159 31.3568 45.6988 31.0887 45.8159C29.2763 46.9883 27.1123 47.4932 24.9683 47.244C24.0365 47.1992 23.1349 46.8997 22.3615 46.3781ZM18.7458 50.9163V51.0183C18.2095 50.9647 17.7015 50.8547 17.2068 50.7476C16.7605 50.6509 16.325 50.5566 15.8896 50.5083C14.1642 49.6775 12.2929 49.1923 10.3811 49.0801H10.2791C8.34099 48.7741 7.93296 48.0601 8.443 46.2239C8.62987 45.3869 8.66443 44.523 8.545 43.6737C8.443 42.0416 8.64701 41.4296 10.2791 40.9195C11.0969 40.625 11.8076 40.092 12.3193 39.3894C12.3808 39.2048 12.5166 39.0573 12.6595 38.9021C12.7534 38.8001 12.8504 38.6948 12.9313 38.5733L13.0333 38.4713C13.3349 38.1259 13.7591 37.9115 14.2161 37.8734C14.6731 37.8353 15.1269 37.9766 15.4815 38.2673C15.9897 38.6051 16.4095 39.0599 16.7056 39.5934C17.8388 41.7527 19.1707 43.8017 20.6839 45.7139C21.0137 46.0803 21.2886 46.4927 21.5 46.938C21.7867 47.3188 21.9311 47.788 21.908 48.2641C21.919 48.9532 21.657 49.6188 21.1793 50.1156C20.7016 50.6124 20.0469 50.9002 19.3578 50.9163H18.7458ZM33.5369 38.9814C33.7443 38.4487 34.0565 37.9631 34.455 37.5533L34.659 37.6553L34.965 38.8794C34.9583 38.9347 34.964 38.9909 34.9817 39.0438C34.9993 39.0967 35.0285 39.1451 35.067 39.1854C35.1639 39.4218 35.3093 39.6352 35.4938 39.8119C35.6783 39.9885 35.8978 40.1245 36.1381 40.2111C36.3785 40.2976 36.6343 40.3327 36.8891 40.3142C37.1439 40.2956 37.3919 40.2239 37.6172 40.1035C38.2126 39.8993 38.7657 39.5882 39.2493 39.1854C40.1674 38.4713 41.6975 38.5733 42.0035 39.6954C42.4997 41.368 43.2571 42.9517 44.2477 44.3878C44.2611 44.3878 44.2744 44.3904 44.2868 44.3956C44.2991 44.4007 44.3104 44.4082 44.3198 44.4177C44.3293 44.4271 44.3368 44.4384 44.342 44.4508C44.3471 44.4631 44.3497 44.4764 44.3497 44.4898C44.4161 44.6022 44.4583 44.7273 44.4736 44.857C44.4889 44.9867 44.477 45.1182 44.4386 45.243C44.4002 45.3678 44.3362 45.4832 44.2506 45.5819C44.165 45.6805 44.0598 45.7602 43.9417 45.8159C43.6357 45.9689 43.3551 46.1219 43.0746 46.2749C42.7941 46.4279 42.5136 46.581 42.2076 46.734C40.8068 47.3433 39.5542 48.248 38.5353 49.3862C37.7322 50.4226 36.5655 51.1154 35.271 51.3243H34.353C33.9776 51.2849 33.6136 51.1717 33.2821 50.9913C32.9506 50.8109 32.6579 50.5668 32.421 50.273C32.184 49.9791 32.0074 49.6414 31.9013 49.2792C31.7952 48.9169 31.7617 48.5373 31.8028 48.1621C31.9236 47.3029 32.0939 46.4514 32.3128 45.6119C32.4148 44.9488 32.5423 44.2603 32.6698 43.5717C32.7973 42.8832 32.9249 42.1946 33.0269 41.5316C33.1477 40.6724 33.318 39.8209 33.5369 38.9814ZM29.9666 20.518C28.566 21.5685 26.9712 22.3312 25.2743 22.7621C25.0391 22.8139 24.7954 22.8139 24.5602 22.7621C23.4288 21.9691 22.3393 21.1179 21.296 20.212C20.8879 19.9059 20.9899 19.2939 21.5 18.8859C21.857 18.6308 22.1885 18.3503 22.5201 18.0698C22.8516 17.7893 23.1831 17.5087 23.5401 17.2537C23.9632 16.9066 24.4795 16.6924 25.024 16.6379C25.5685 16.5835 26.117 16.6912 26.6004 16.9477C27.316 17.234 27.9313 17.5202 28.6222 17.8417C28.9161 17.9785 29.2237 18.1216 29.5586 18.2738C30.6807 18.7838 30.9867 19.8039 29.9666 20.518ZM27.2634 16.0806C27.2124 16.3101 27.1614 16.5397 27.1104 16.7437L26.2943 16.4377C26.1946 15.9469 26.2169 15.4391 26.3591 14.9589C26.5014 14.4787 26.7594 14.0407 27.1104 13.6835V13.5815C27.2629 13.3944 27.4534 13.242 27.6693 13.1341C27.8851 13.0263 28.1214 12.9655 28.3625 12.9559C28.6036 12.9462 28.844 12.9879 29.0678 13.0782C29.2916 13.1684 29.4937 13.3052 29.6606 13.4794C30.254 14.0641 30.6047 14.8514 30.6426 15.6836C30.6804 16.5158 30.4025 17.3317 29.8646 17.9678L28.8445 17.5598C29.0527 17.2473 29.1803 16.8881 29.2159 16.5143C29.2515 16.1405 29.194 15.7638 29.0486 15.4176C28.8511 15.1296 28.5643 14.9145 28.2325 14.8055C28.0547 14.827 27.8857 14.8948 27.7425 15.0022C27.5992 15.1097 27.4868 15.2529 27.4164 15.4176C27.3654 15.6216 27.3144 15.8511 27.2634 16.0806ZM23.8462 14.1935C24.175 14.874 24.415 15.5939 24.5602 16.3357L23.7442 16.5397C23.6692 16.0811 23.5319 15.635 23.3361 15.2136C23.0301 14.7035 22.5201 14.8055 22.316 15.3156C22.161 15.6654 22.1075 16.0518 22.1617 16.4306C22.2158 16.8094 22.3753 17.1653 22.6221 17.4577L22.112 17.8658C22.01 17.8658 21.908 17.8658 21.908 17.7638C21.4944 17.2963 21.2337 16.7135 21.1607 16.0936C21.0878 15.4736 21.2062 14.8462 21.5 14.2955C21.5421 14.111 21.6294 13.9398 21.754 13.7974C21.8787 13.6549 22.0367 13.5457 22.214 13.4794C22.5255 13.3619 22.8705 13.3707 23.1755 13.5042C23.4805 13.6376 23.7212 13.885 23.8462 14.1935ZM27.3379 20.8635C28.1463 20.4944 28.8681 19.9598 29.4566 19.294L29.3546 19.09C28.9039 19.4952 28.4268 19.87 27.9265 20.2121C25.4783 21.8442 23.7442 21.6402 21.806 19.498H21.602C21.9385 20.0479 22.4005 20.5103 22.9502 20.8472C23.4998 21.1841 24.1215 21.3859 24.7642 21.4362C25.6528 21.4276 26.5296 21.2325 27.3379 20.8635Z" fill="#9FEFDE"/>
</g>
<defs>
<filter id="filter0_d" x="0.799072" y="0" width="57.3332" height="65" filterUnits="userSpaceOnUse" color-interpolation-filters="sRGB">
<feFlood flood-opacity="0" result="BackgroundImageFix"/>
<feColorMatrix in="SourceAlpha" type="matrix" values="0 0 0 0 0 0 0 0 0 0 0 0 0 0 0 0 0 0 127 0" result="hardAlpha"/>
<feOffset dx="3" dy="3"/>
<feGaussianBlur stdDeviation="5"/>
<feColorMatrix type="matrix" values="0 0 0 0 0 0 0 0 0 0 0 0 0 0 0 0 0 0 0.15 0"/>
<feBlend mode="normal" in2="BackgroundImageFix" result="effect1_dropShadow"/>
<feBlend mode="normal" in="SourceGraphic" in2="effect1_dropShadow" result="shape"/>
</filter>
</defs>
</svg>
