<svg width="57" height="65" viewBox="0 0 57 65" fill="none" xmlns="http://www.w3.org/2000/svg">
<g filter="url(#filter0_d)">
<path fill-rule="evenodd" clip-rule="evenodd" d="M33.0364 8.40655L42.0364 17.7815C42.4176 18.1248 42.723 18.544 42.9328 19.0122C43.1427 19.4803 43.2525 19.9872 43.2551 20.5002V50.6875C43.227 51.0424 43.0671 51.3739 42.8069 51.6168C42.5466 51.8597 42.2049 51.9964 41.8489 52H8.84911C8.49313 51.9964 8.15138 51.8597 7.89112 51.6168C7.63087 51.3739 7.47096 51.0424 7.44287 50.6875V8.3128C7.47096 7.95791 7.63087 7.62639 7.89112 7.38348C8.15138 7.14058 8.49313 7.00389 8.84911 7.00031H29.849C30.4499 6.99299 31.0455 7.11474 31.5954 7.35734C32.1453 7.59994 32.6367 7.95773 33.0364 8.40655ZM32.2865 18.9065H38.3802H38.7552C38.8 18.8644 38.8357 18.8136 38.8602 18.7571C38.8846 18.7007 38.8972 18.6399 38.8972 18.5784C38.8972 18.5169 38.8846 18.456 38.8602 18.3996C38.8357 18.3431 38.8 18.2923 38.7552 18.2502L32.6614 11.7815C32.5581 11.6828 32.4274 11.6175 32.2865 11.594C32.2238 11.5899 32.161 11.5992 32.1023 11.6213C32.0435 11.6434 31.9902 11.6777 31.9458 11.7221C31.9014 11.7665 31.867 11.8199 31.8449 11.8786C31.8228 11.9374 31.8136 12.0001 31.8177 12.0628V18.4377C31.8136 18.5004 31.8228 18.5632 31.8449 18.6219C31.867 18.6807 31.9014 18.734 31.9458 18.7784C31.9902 18.8228 32.0435 18.8572 32.1023 18.8792C32.161 18.9013 32.2238 18.9106 32.2865 18.9065ZM11.0053 49.375H39.6926C40.0676 49.375 40.4426 49 40.3489 48.7188V22.9377C40.3208 22.5828 40.1609 22.2513 39.9006 22.0084C39.6404 21.7655 39.2986 21.6288 38.9427 21.6252H29.9427C29.67 21.6228 29.4091 21.5133 29.2162 21.3205C29.0234 21.1276 28.9139 20.8667 28.9115 20.594V10.3753C28.9127 10.2764 28.8942 10.1784 28.8569 10.0868C28.8197 9.99523 28.7645 9.91205 28.6946 9.84216C28.6247 9.77226 28.5415 9.71706 28.45 9.67982C28.3584 9.64257 28.2603 9.62403 28.1615 9.62529H11.0053C10.8108 9.63845 10.6276 9.7217 10.4897 9.8596C10.3518 9.9975 10.2685 10.1807 10.2554 10.3753V48.625C10.2541 48.7239 10.2726 48.822 10.3099 48.9135C10.3471 49.0051 10.4023 49.0883 10.4722 49.1582C10.5421 49.2281 10.6253 49.2832 10.7169 49.3205C10.8084 49.3577 10.9065 49.3763 11.0053 49.375ZM15.0365 31.094H35.6614C36.0095 31.094 36.3433 30.9557 36.5894 30.7095C36.8356 30.4634 36.9739 30.1296 36.9739 29.7815C36.9739 29.4334 36.8356 29.0995 36.5894 28.8534C36.3433 28.6072 36.0095 28.469 35.6614 28.469H15.0365C14.6884 28.469 14.3546 28.6072 14.1085 28.8534C13.8623 29.0995 13.724 29.4334 13.724 29.7815C13.724 30.1296 13.8623 30.4634 14.1085 30.7095C14.3546 30.9557 14.6884 31.094 15.0365 31.094ZM35.6614 36.8127H15.0365C14.6884 36.8127 14.3546 36.6745 14.1085 36.4283C13.8623 36.1822 13.724 35.8484 13.724 35.5003C13.724 35.1522 13.8623 34.8183 14.1085 34.5722C14.3546 34.326 14.6884 34.1878 15.0365 34.1878H35.6614C35.8337 34.1878 36.0044 34.2217 36.1636 34.2877C36.3229 34.3536 36.4676 34.4503 36.5894 34.5722C36.7113 34.6941 36.808 34.8388 36.874 34.998C36.9399 35.1572 36.9739 35.3279 36.9739 35.5003C36.9739 35.6726 36.9399 35.8433 36.874 36.0025C36.808 36.1618 36.7113 36.3065 36.5894 36.4283C36.4676 36.5502 36.3229 36.6469 36.1636 36.7128C36.0044 36.7788 35.8337 36.8127 35.6614 36.8127ZM15.0365 42.5316H35.6614C36.0095 42.5316 36.3433 42.3933 36.5894 42.1471C36.8356 41.901 36.9739 41.5672 36.9739 41.2191C36.9739 40.871 36.8356 40.5371 36.5894 40.291C36.3433 40.0449 36.0095 39.9066 35.6614 39.9066H15.0365C14.6884 39.9066 14.3546 40.0449 14.1085 40.291C13.8623 40.5371 13.724 40.871 13.724 41.2191C13.724 41.5672 13.8623 41.901 14.1085 42.1471C14.3546 42.3933 14.6884 42.5316 15.0365 42.5316Z" fill="#9FEFDE"/>
</g>
<defs>
<filter id="filter0_d" x="0.442871" y="0" width="55.8122" height="65" filterUnits="userSpaceOnUse" color-interpolation-filters="sRGB">
<feFlood flood-opacity="0" result="BackgroundImageFix"/>
<feColorMatrix in="SourceAlpha" type="matrix" values="0 0 0 0 0 0 0 0 0 0 0 0 0 0 0 0 0 0 127 0" result="hardAlpha"/>
<feOffset dx="3" dy="3"/>
<feGaussianBlur stdDeviation="5"/>
<feColorMatrix type="matrix" values="0 0 0 0 0 0 0 0 0 0 0 0 0 0 0 0 0 0 0.15 0"/>
<feBlend mode="normal" in2="BackgroundImageFix" result="effect1_dropShadow"/>
<feBlend mode="normal" in="SourceGraphic" in2="effect1_dropShadow" result="shape"/>
</filter>
</defs>
</svg>
