<svg width="120" height="81" viewBox="0 0 120 81" fill="none" xmlns="http://www.w3.org/2000/svg">
<path d="M25.7827 0.5H74.9567C75.6928 0.50233 76.3982 0.795769 76.9187 1.31629C77.4392 1.83681 77.7327 2.54213 77.735 3.27826V68.9717C77.7338 69.7086 77.4409 70.4151 76.9203 70.9365C76.3996 71.458 75.6936 71.7521 74.9567 71.7544C74.9567 71.7544 36.0256 71.8251 25.5619 71.7853C24.8804 71.7818 24.2282 71.5084 23.748 71.0249C23.2678 70.5414 22.9988 69.8873 23 69.2058V3.27826C23.0023 2.54137 23.2964 1.8354 23.8179 1.31475C24.3394 0.794107 25.0458 0.501164 25.7827 0.5ZM25.8533 1.47613C25.3848 1.47613 24.9354 1.66227 24.6041 1.99361C24.2727 2.32495 24.0866 2.77434 24.0866 3.24292V68.9364C24.0866 69.405 24.2727 69.8543 24.6041 70.1857C24.9354 70.517 25.3848 70.7032 25.8533 70.7032H75.0274C75.496 70.7032 75.9454 70.517 76.2767 70.1857C76.608 69.8543 76.7942 69.405 76.7942 68.9364V14.9258L76.6705 3.2606C76.6658 2.78337 76.473 2.32726 76.1339 1.99145C75.7948 1.65564 75.3368 1.46729 74.8596 1.46732L25.8533 1.47613Z" fill="#22417D"/>
<path d="M25.8625 1.46289C25.3939 1.46289 24.9445 1.64903 24.6132 1.98037C24.2819 2.3117 24.0957 2.76109 24.0957 3.22968V68.9231C24.0957 69.3917 24.2819 69.8411 24.6132 70.1724C24.9445 70.5037 25.3939 70.6899 25.8625 70.6899H75.0366C75.5051 70.6899 75.9545 70.5037 76.2858 70.1724C76.6172 69.8411 76.8033 69.3917 76.8033 68.9231V14.9258L76.6796 3.2606C76.6739 2.78373 76.4806 2.32828 76.1418 1.99272C75.8029 1.65715 75.3456 1.46844 74.8687 1.46731L25.8625 1.46289Z" fill="#EBECE9"/>
<path d="M30.1997 4.91699H79.3737C80.1098 4.91932 80.8152 5.21276 81.3357 5.73328C81.8562 6.25381 82.1497 6.95913 82.152 7.69525V73.3887C82.1508 74.1256 81.8579 74.8321 81.3372 75.3535C80.8166 75.875 80.1106 76.1691 79.3737 76.1714C79.3737 76.1714 40.4426 76.2421 29.9789 76.2023C29.2974 76.1988 28.6452 75.9253 28.165 75.4418C27.6848 74.9584 27.4158 74.3042 27.417 73.6228V7.69525C27.4193 6.95836 27.7134 6.25239 28.2349 5.73175C28.7564 5.2111 29.4628 4.91816 30.1997 4.91699ZM30.2703 5.89312C29.8018 5.89312 29.3524 6.07926 29.0211 6.4106C28.6897 6.74194 28.5036 7.19133 28.5036 7.65991V73.3534C28.5036 73.822 28.6897 74.2713 29.0211 74.6027C29.3524 74.934 29.8018 75.1202 30.2703 75.1202H79.4444C79.913 75.1202 80.3623 74.934 80.6937 74.6027C81.025 74.2713 81.2112 73.822 81.2112 73.3534V19.3428L81.0875 7.67759C81.0828 7.20037 80.89 6.74425 80.5509 6.40844C80.2118 6.07264 79.7538 5.88429 79.2765 5.88431L30.2703 5.89312Z" fill="#22417D"/>
<path d="M30.2795 5.87988C29.8109 5.87988 29.3615 6.06602 29.0302 6.39736C28.6989 6.7287 28.5127 7.17809 28.5127 7.64667V73.3401C28.5127 73.8087 28.6989 74.2581 29.0302 74.5894C29.3615 74.9207 29.8109 75.1069 30.2795 75.1069H79.4535C79.9221 75.1069 80.3715 74.9207 80.7028 74.5894C81.0342 74.2581 81.2203 73.8087 81.2203 73.3401V19.3428L81.0966 7.67759C81.0908 7.20072 80.8976 6.74527 80.5588 6.40971C80.2199 6.07415 79.7626 5.88543 79.2857 5.8843L30.2795 5.87988Z" fill="#EBECE9"/>
<path d="M34.8467 9.18372H84.0251C84.7612 9.18605 85.4665 9.47951 85.9871 10C86.5076 10.5206 86.801 11.2258 86.8034 11.962V77.6555C86.8011 78.392 86.5077 79.0978 85.9873 79.619C85.4669 80.1402 84.7616 80.4346 84.0251 80.4381C84.0251 80.4381 45.094 80.5088 34.6302 80.4646C33.9492 80.4623 33.2969 80.1898 32.8166 79.707C32.3363 79.2243 32.0672 78.5706 32.0684 77.8896V11.9797C32.0672 11.6137 32.1382 11.251 32.2771 10.9124C32.4161 10.5738 32.6205 10.2659 32.8784 10.0063C33.1364 9.74666 33.4431 9.54039 33.7808 9.39925C34.1185 9.25812 34.4807 9.18487 34.8467 9.18372ZM34.9217 10.1599C34.4531 10.1599 34.0038 10.346 33.6724 10.6774C33.3411 11.0087 33.1549 11.4581 33.1549 11.9267V77.6201C33.1549 78.0887 33.3411 78.5381 33.6724 78.8694C34.0038 79.2008 34.4531 79.3869 34.9217 79.3869H84.0958C84.5644 79.3869 85.0137 79.2008 85.3451 78.8694C85.6764 78.5381 85.8626 78.0887 85.8626 77.6201V23.636L85.7389 11.9708C85.7331 11.494 85.5399 11.0385 85.201 10.703C84.8621 10.3674 84.4048 10.1787 83.9279 10.1775L34.9217 10.1599Z" fill="#22417D"/>
<path d="M34.9348 10.1643C34.4662 10.1643 34.0168 10.3505 33.6855 10.6818C33.3541 11.0131 33.168 11.4625 33.168 11.9311V77.6245C33.1738 78.0893 33.3625 78.5331 33.6932 78.8596C34.0239 79.1862 34.47 79.3693 34.9348 79.3693H84.1132C84.578 79.3693 85.024 79.1862 85.3548 78.8596C85.6855 78.5331 85.8742 78.0893 85.88 77.6245V23.6228L85.7563 11.9532C85.7448 11.4806 85.5489 11.0312 85.2105 10.7011C84.8721 10.371 84.4181 10.1863 83.9453 10.1864L34.9348 10.1643Z" fill="#EBECE9"/>
<path d="M85.8135 11.9532C85.8135 10.9638 84.4531 10.1864 82.7967 10.1864H79.6519C81.3038 10.1864 82.6466 10.9859 82.6643 11.9532L82.8718 23.6228V77.6069C82.8718 78.5698 81.5467 79.3516 79.961 79.3516H83.1103C84.7181 79.3516 86.0167 78.5698 86.0167 77.6069V23.6228L85.8135 11.9532Z" fill="#C1C1C1"/>
<path d="M78.2915 35.7738L80.8976 38.5344C81.2903 38.9285 81.5108 39.4622 81.5108 40.0185C81.5108 40.5749 81.2903 41.1086 80.8976 41.5026L74.2721 48.1281C73.878 48.5208 73.3443 48.7413 72.788 48.7413C72.2316 48.7413 71.6979 48.5208 71.3039 48.1281L68.8701 45.5883C68.8701 45.5883 73.1502 42.8763 74.3604 41.6661C75.5707 40.4558 78.2915 35.7738 78.2915 35.7738Z" fill="#C7CFD6"/>
<path d="M72.7966 49.1483C72.1335 49.1447 71.4986 48.8797 71.0298 48.4107L68.4459 45.8223C68.368 45.7444 68.3242 45.6388 68.3242 45.5287C68.3242 45.4185 68.368 45.3128 68.4459 45.2349C68.5238 45.157 68.6294 45.1133 68.7396 45.1133C68.8498 45.1133 68.9554 45.157 69.0333 45.2349L71.6217 47.8232C71.9425 48.1274 72.3677 48.2969 72.8098 48.2969C73.2519 48.2969 73.6771 48.1274 73.998 47.8232L80.6234 41.1978C80.7798 41.0415 80.9039 40.856 80.9885 40.6517C81.0732 40.4475 81.1167 40.2285 81.1167 40.0075C81.1167 39.7864 81.0732 39.5674 80.9885 39.3632C80.9039 39.1589 80.7798 38.9733 80.6234 38.8171L77.6508 35.8444C77.5647 35.7753 77.5096 35.6749 77.4976 35.5651C77.4855 35.4553 77.5176 35.3453 77.5867 35.2592C77.6558 35.1731 77.7564 35.118 77.8661 35.106C77.9759 35.094 78.0859 35.1261 78.172 35.1952L78.2339 35.2526L81.2109 38.234C81.6748 38.7051 81.9349 39.3397 81.9349 40.0008C81.9349 40.662 81.6748 41.2966 81.2109 41.7676L74.5854 48.393C74.3539 48.6261 74.0786 48.8111 73.7754 48.9377C73.4723 49.0642 73.1472 49.1298 72.8187 49.1306L72.7966 49.1483Z" fill="#22417D"/>
<path d="M58.9143 47.9161C70.9456 47.9161 80.6988 38.1628 80.6988 26.1316C80.6988 14.1004 70.9456 4.34717 58.9143 4.34717C46.8831 4.34717 37.1299 14.1004 37.1299 26.1316C37.1299 38.1628 46.8831 47.9161 58.9143 47.9161Z" fill="#EBECE9"/>
<path d="M58.9145 48.3313C54.5238 48.3313 50.2318 47.0293 46.581 44.59C42.9303 42.1507 40.0849 38.6835 38.4047 34.6271C36.7245 30.5706 36.2848 26.107 37.1414 21.8007C37.998 17.4944 40.1123 13.5388 43.217 10.4341C46.3217 7.32946 50.2772 5.21516 54.5836 4.35858C58.8899 3.502 63.3535 3.94161 67.4099 5.62185C71.4664 7.30209 74.9335 10.1475 77.3729 13.7982C79.8122 17.4489 81.1142 21.741 81.1142 26.1317C81.1083 32.0176 78.7676 37.6607 74.6056 41.8227C70.4436 45.9847 64.8004 48.3255 58.9145 48.3313ZM58.9145 4.7624C54.6883 4.7624 50.5569 6.01559 47.0429 8.36347C43.5288 10.7114 40.7898 14.0485 39.1723 17.953C37.5548 21.8574 37.1313 26.1539 37.9555 30.299C38.7797 34.4441 40.8145 38.2517 43.8026 41.2405C46.7907 44.2292 50.5979 46.2648 54.7429 47.0898C58.8878 47.9148 63.1843 47.4923 67.0891 45.8756C70.9939 44.2589 74.3316 41.5206 76.6802 38.007C79.0288 34.4934 80.2829 30.3623 80.2838 26.1361C80.2768 20.4708 78.0231 15.0395 74.0171 11.0335C70.0111 7.02747 64.5798 4.77383 58.9145 4.76682V4.7624Z" fill="#323C6B"/>
<path d="M58.9146 4.34718C56.0578 4.34481 53.2285 4.90575 50.5887 5.9979C47.9489 7.09005 45.5504 8.69199 43.5303 10.712C48.0058 7.6267 53.4733 6.32649 58.8586 7.06688C64.2439 7.80727 69.1577 10.5347 72.6346 14.7134C76.1115 18.892 77.9 24.2198 77.6489 29.6499C77.3978 35.0801 75.1253 40.2201 71.2777 44.0601C75.1032 41.4232 77.9853 37.6321 79.5028 33.2406C81.0203 28.849 81.0936 24.0874 79.7121 19.6512C78.3306 15.215 75.5666 11.3369 71.8241 8.58351C68.0815 5.8301 63.5565 4.34569 58.9102 4.34718H58.9146Z" fill="#C1C1C1"/>
<path d="M74.9258 47.4787L87.2447 59.7976C87.5925 60.1592 88.0089 60.4478 88.4695 60.6465C88.9301 60.8451 89.4257 60.9499 89.9274 60.9547C90.429 60.9594 90.9266 60.8641 91.3909 60.6742C91.8553 60.4844 92.2771 60.2038 92.6317 59.8489C92.9863 59.494 93.2665 59.072 93.456 58.6075C93.6455 58.143 93.7404 57.6454 93.7352 57.1437C93.73 56.6421 93.6248 56.1465 93.4257 55.6861C93.2267 55.2256 92.9378 54.8094 92.5759 54.462L80.2615 42.1475L74.9258 47.4787Z" fill="#9FEFDE"/>
<path d="M89.9083 61.3038C89.3582 61.3059 88.8132 61.1983 88.3051 60.9875C87.797 60.7767 87.336 60.4668 86.9489 60.0759L74.6344 47.7614C74.5958 47.7228 74.5652 47.6771 74.5443 47.6267C74.5235 47.5763 74.5127 47.5223 74.5127 47.4677C74.5127 47.4132 74.5235 47.3591 74.5443 47.3087C74.5652 47.2583 74.5958 47.2125 74.6344 47.174L79.9878 41.8692C80.069 41.7959 80.1744 41.7554 80.2838 41.7554C80.3931 41.7554 80.4985 41.7959 80.5797 41.8692L92.8941 54.1793C93.4809 54.7649 93.8807 55.5115 94.0428 56.3245C94.2048 57.1376 94.1219 57.9804 93.8044 58.7462C93.487 59.5121 92.9494 60.1665 92.2597 60.6265C91.5701 61.0865 90.7594 61.3315 89.9304 61.3303L89.9083 61.3038ZM75.5134 47.4655L87.5364 59.4885C88.1643 60.1017 89.0075 60.4446 89.8853 60.4437C90.763 60.4428 91.6055 60.0982 92.2321 59.4836C92.8588 58.869 93.2199 58.0335 93.238 57.1559C93.256 56.2784 92.9296 55.4286 92.3288 54.7888L92.2846 54.7402L80.2616 42.7526L75.5134 47.4655Z" fill="#22417D"/>
<path d="M88.0881 57.492C87.9878 57.5921 87.852 57.6483 87.7104 57.6483C87.5688 57.6483 87.433 57.5921 87.3328 57.492L83.6579 53.8304C83.6085 53.7811 83.5693 53.7226 83.5425 53.6582C83.5157 53.5938 83.502 53.5247 83.502 53.4549C83.502 53.3852 83.5157 53.3161 83.5425 53.2516C83.5693 53.1872 83.6085 53.1287 83.6579 53.0795C83.7609 52.9796 83.8987 52.9238 84.0422 52.9238C84.1856 52.9238 84.3234 52.9796 84.4264 53.0795L88.0925 56.7412C88.1419 56.7904 88.1811 56.8489 88.2079 56.9133C88.2346 56.9778 88.2484 57.0468 88.2484 57.1166C88.2484 57.1864 88.2346 57.2554 88.2079 57.3199C88.1811 57.3843 88.1419 57.4428 88.0925 57.492H88.0881Z" fill="white"/>
<path d="M83.1148 51.7544C83.1651 51.8045 83.2051 51.864 83.2324 51.9296C83.2596 51.9952 83.2737 52.0655 83.2737 52.1365C83.2737 52.2075 83.2596 52.2778 83.2324 52.3434C83.2051 52.4089 83.1651 52.4685 83.1148 52.5185C83.0119 52.6163 82.8768 52.6729 82.7349 52.6776C82.5912 52.6757 82.4536 52.6188 82.3507 52.5185L81.1271 51.295C81.0375 51.191 80.9907 51.0568 80.996 50.9196C81.0013 50.7823 81.0584 50.6522 81.1558 50.5553C81.2532 50.4585 81.3837 50.4022 81.521 50.3976C81.6582 50.3931 81.7921 50.4407 81.8957 50.5309L83.1148 51.7544Z" fill="white"/>
<path d="M58.9145 48.3313C54.5238 48.3313 50.2318 47.0293 46.581 44.59C42.9303 42.1507 40.0849 38.6835 38.4047 34.6271C36.7245 30.5706 36.2848 26.107 37.1414 21.8007C37.998 17.4944 40.1123 13.5388 43.217 10.4341C46.3217 7.32946 50.2772 5.21516 54.5836 4.35858C58.8899 3.502 63.3535 3.94161 67.4099 5.62185C71.4664 7.30209 74.9335 10.1475 77.3729 13.7982C79.8122 17.4489 81.1142 21.741 81.1142 26.1317C81.1083 32.0176 78.7676 37.6607 74.6056 41.8227C70.4436 45.9847 64.8004 48.3255 58.9145 48.3313ZM58.9145 4.7624C54.6883 4.7624 50.5569 6.01559 47.0429 8.36347C43.5288 10.7114 40.7898 14.0485 39.1723 17.953C37.5548 21.8574 37.1313 26.1539 37.9555 30.299C38.7797 34.4441 40.8145 38.2517 43.8026 41.2405C46.7907 44.2292 50.5979 46.2648 54.7429 47.0898C58.8878 47.9148 63.1843 47.4923 67.0891 45.8756C70.9939 44.2589 74.3316 41.5206 76.6802 38.007C79.0288 34.4934 80.2829 30.3623 80.2838 26.1361C80.2768 20.4708 78.0231 15.0395 74.0171 11.0335C70.0111 7.02747 64.5798 4.77383 58.9145 4.76682V4.7624Z" fill="#22417D"/>
<path d="M93.5746 50.9505C93.5731 50.8405 93.5306 50.7349 93.4553 50.6546L92.0154 49.2191C91.9765 49.1805 91.9304 49.15 91.8798 49.1292C91.8291 49.1084 91.7749 49.0978 91.7201 49.098C91.6654 49.0982 91.6111 49.1092 91.5606 49.1304C91.5101 49.1515 91.4643 49.1824 91.4257 49.2213C91.3872 49.2601 91.3566 49.3062 91.3359 49.3569C91.3151 49.4076 91.3045 49.4618 91.3047 49.5165C91.3049 49.5713 91.3159 49.6255 91.337 49.676C91.3582 49.7265 91.3891 49.7724 91.4279 49.8109L92.8635 51.242C92.9213 51.3008 92.9953 51.341 93.076 51.3576C93.1568 51.3741 93.2406 51.3662 93.3169 51.335C93.3931 51.3037 93.4584 51.2505 93.5043 51.182C93.5502 51.1135 93.5746 51.033 93.5746 50.9505Z" fill="#22417D"/>
<path d="M96.9222 56.8869C96.9249 56.0095 96.7534 55.1403 96.4175 54.3298C96.0816 53.5192 95.5881 52.7835 94.9655 52.1652C94.9291 52.121 94.884 52.0847 94.833 52.0587C94.7819 52.0328 94.726 52.0176 94.6689 52.0143C94.6117 52.0109 94.5544 52.0195 94.5007 52.0393C94.447 52.0592 94.3979 52.09 94.3567 52.1297C94.3154 52.1694 94.2828 52.2173 94.261 52.2702C94.2391 52.3231 94.2284 52.38 94.2296 52.4373C94.2308 52.4946 94.2438 52.5509 94.2678 52.6029C94.2918 52.6549 94.3264 52.7014 94.3692 52.7394C95.4657 53.8368 96.0815 55.3246 96.0815 56.8759C96.0815 58.4271 95.4657 59.915 94.3692 61.0124C94.3298 61.0504 94.2982 61.0958 94.2763 61.146C94.2544 61.1962 94.2426 61.2502 94.2415 61.3049C94.2405 61.3597 94.2503 61.4141 94.2703 61.4651C94.2903 61.516 94.3202 61.5626 94.3582 61.6021C94.3962 61.6415 94.4415 61.6731 94.4917 61.695C94.5419 61.7169 94.5959 61.7287 94.6507 61.7297C94.7054 61.7307 94.7599 61.721 94.8109 61.7009C94.8619 61.6809 94.9084 61.6511 94.9478 61.6131C95.5741 60.9957 96.0712 60.2599 96.4102 59.4485C96.7492 58.6371 96.9232 57.7663 96.9222 56.8869Z" fill="#22417D"/>
<path d="M40.2795 42.1784C40.279 42.0814 40.2447 41.9877 40.1823 41.9134C39.7097 41.3392 39.3342 40.8578 39.003 40.3896C38.9771 40.3375 38.9407 40.2914 38.8959 40.2543C38.8511 40.2172 38.799 40.1899 38.743 40.1742C38.687 40.1585 38.6283 40.1548 38.5707 40.1632C38.5132 40.1716 38.4581 40.1921 38.4089 40.2232C38.3598 40.2543 38.3178 40.2954 38.2855 40.3438C38.2533 40.3922 38.2315 40.4467 38.2217 40.5041C38.2119 40.5614 38.2143 40.6201 38.2287 40.6765C38.2431 40.7329 38.2691 40.7856 38.3051 40.8312C38.3031 40.8415 38.3031 40.8519 38.3051 40.8621C38.6452 41.348 39.0339 41.8516 39.5198 42.4435C39.574 42.5103 39.6477 42.5587 39.7306 42.5818C39.8135 42.6049 39.9016 42.6017 39.9826 42.5726C40.0636 42.5435 40.1336 42.4899 40.1828 42.4193C40.2321 42.3487 40.2581 42.2645 40.2574 42.1784H40.2795Z" fill="#22417D"/>
<path d="M53.2697 50.2924C53.2693 50.1995 53.2378 50.1094 53.1801 50.0365C53.1224 49.9637 53.042 49.9123 52.9517 49.8905C48.865 48.8967 45.1126 46.843 42.0727 43.9365C42.0333 43.8988 41.9868 43.8692 41.9359 43.8494C41.8851 43.8297 41.8308 43.8202 41.7762 43.8214C41.7217 43.8226 41.6679 43.8346 41.618 43.8566C41.568 43.8786 41.5229 43.9102 41.4852 43.9497C41.4475 43.9891 41.418 44.0356 41.3983 44.0865C41.3785 44.1373 41.369 44.1916 41.3702 44.2462C41.3715 44.3007 41.3834 44.3545 41.4054 44.4044C41.4274 44.4543 41.4591 44.4995 41.4985 44.5372C44.6414 47.5539 48.5253 49.6871 52.7573 50.7209C52.864 50.7395 52.9737 50.7182 53.0657 50.6612C53.1577 50.6042 53.2256 50.5154 53.2564 50.4117C53.261 50.3795 53.261 50.3468 53.2564 50.3145L53.2697 50.2924Z" fill="#22417D"/>
<path d="M46.061 17.2579H52.3862V37.5097H46.061V17.2579Z" fill="#9FEFDE"/>
<path d="M49.8994 17.2579H52.4215V37.5097H49.8994V17.2579Z" fill="#24C4A1"/>
<path d="M52.3862 37.894H46.0611C45.9548 37.8928 45.8533 37.8501 45.7782 37.775C45.703 37.6998 45.6603 37.5982 45.6592 37.492V17.28C45.6603 17.1738 45.703 17.0722 45.7782 16.997C45.8533 16.9219 45.9548 16.8792 46.0611 16.8781H52.3862C52.6071 16.8781 52.7882 17.4125 52.7882 17.6334V37.5318C52.7793 37.6317 52.7328 37.7246 52.6583 37.7918C52.5837 37.859 52.4865 37.8955 52.3862 37.894ZM46.463 37.0901H51.9842V17.6819H46.463V37.0901Z" fill="#244583"/>
<path d="M56.0786 22.1387H62.3993V37.5097H56.0786V22.1387Z" fill="#FED19A"/>
<path d="M59.877 22.1387H62.3991V37.5097H59.877V22.1387Z" fill="#FEBF2D"/>
<path d="M62.3994 37.894H56.0787C56.0259 37.894 55.9737 37.8836 55.9249 37.8634C55.8761 37.8432 55.8318 37.8136 55.7945 37.7763C55.7572 37.739 55.7276 37.6946 55.7074 37.6459C55.6872 37.5971 55.6768 37.5448 55.6768 37.492V22.1254C55.6768 22.0188 55.7191 21.9166 55.7945 21.8412C55.8699 21.7659 55.9721 21.7235 56.0787 21.7235H62.3994C62.4522 21.7235 62.5044 21.7339 62.5532 21.7541C62.602 21.7743 62.6463 21.8039 62.6836 21.8412C62.7209 21.8786 62.7506 21.9229 62.7708 21.9716C62.791 22.0204 62.8013 22.0727 62.8013 22.1254V37.4523C62.8069 37.5083 62.8006 37.5649 62.7829 37.6184C62.7652 37.6718 62.7366 37.721 62.6987 37.7626C62.6608 37.8042 62.6146 37.8375 62.563 37.8601C62.5115 37.8827 62.4557 37.8943 62.3994 37.894ZM56.4807 37.0901H61.9975V22.5627H56.4807V37.0901Z" fill="#244583"/>
<path d="M65.915 14.8286H72.2357V37.5097H65.915V14.8286Z" fill="#B6D2DD"/>
<path d="M69.7139 14.8286H72.2359V37.5097H69.7139V14.8286Z" fill="#ACC6CC"/>
<path d="M72.2358 37.894H65.9151C65.8624 37.894 65.8101 37.8836 65.7613 37.8634C65.7125 37.8432 65.6683 37.8136 65.6309 37.7763C65.5936 37.7389 65.564 37.6946 65.5438 37.6458C65.5236 37.5971 65.5132 37.5448 65.5132 37.492V14.8507C65.5132 14.7441 65.5556 14.6418 65.6309 14.5665C65.7063 14.4911 65.8085 14.4487 65.9151 14.4487H72.2358C72.2886 14.4487 72.3409 14.4591 72.3896 14.4793C72.4384 14.4995 72.4827 14.5291 72.5201 14.5665C72.5574 14.6038 72.587 14.6481 72.6072 14.6969C72.6274 14.7456 72.6378 14.7979 72.6378 14.8507V37.5318C72.6288 37.6318 72.5825 37.7246 72.5079 37.7918C72.4334 37.859 72.3361 37.8955 72.2358 37.894ZM66.3171 37.0901H71.8339V15.1908H66.3171V37.0901Z" fill="#244583"/>
<path d="M60.9951 69.1086L58.8175 63.8833C58.5636 63.2691 58.1885 62.7123 57.7146 62.2463C57.2407 61.7802 56.6777 61.4145 56.0593 61.1708C55.4409 60.9272 54.7798 60.8106 54.1153 60.8282C53.4509 60.8457 52.7968 60.997 52.1921 61.273C51.8338 61.4247 51.4306 61.4315 51.0673 61.2919C50.7041 61.1522 50.4093 60.8771 50.245 60.5244C50.0807 60.1716 50.0596 59.7689 50.1864 59.401C50.3131 59.0331 50.5777 58.7288 50.9244 58.5521C51.8932 58.1049 52.9425 57.8583 54.0091 57.8272C55.0756 57.7961 56.1375 57.9811 57.1307 58.371C58.1239 58.761 59.028 59.3479 59.7885 60.0963C60.549 60.8447 61.1503 61.7392 61.5561 62.7261L63.7336 67.9514C63.99 68.5636 64.3666 69.1183 64.8409 69.5826C65.3153 70.047 65.8778 70.4116 66.4954 70.6549C67.113 70.8982 67.7731 71.0154 68.4366 70.9994C69.1002 70.9834 69.7539 70.8346 70.359 70.5618C70.5354 70.4748 70.7271 70.4234 70.9233 70.4105C71.1196 70.3976 71.3164 70.4234 71.5026 70.4866C71.6888 70.5498 71.8607 70.649 72.0086 70.7786C72.1565 70.9082 72.2774 71.0657 72.3644 71.242C72.4514 71.4183 72.5028 71.6101 72.5157 71.8063C72.5286 72.0025 72.5027 72.1993 72.4396 72.3855C72.3764 72.5718 72.2772 72.7437 72.1476 72.8916C72.0179 73.0394 71.8605 73.1603 71.6841 73.2473C70.7147 73.7054 69.6623 73.9615 68.5909 74.0001C67.5194 74.0387 66.4513 73.859 65.4514 73.4719C64.4516 73.0848 63.541 72.4983 62.7749 71.7482C62.0088 70.9981 61.4032 70.1001 60.9951 69.1086Z" fill="#9FEFDE"/>
<path d="M68.309 74.4576C66.6521 74.4549 65.0331 73.9619 63.656 73.0407C62.2789 72.1195 61.2053 70.8113 60.5705 69.2809L58.3929 64.0556C58.1599 63.4898 57.8137 62.9777 57.3754 62.5508C56.9371 62.1239 56.416 61.7912 55.8443 61.5733C55.2909 61.3559 54.6994 61.2524 54.1051 61.2691C53.5109 61.2858 52.9261 61.4223 52.3858 61.6704C52.0374 61.829 51.65 61.8816 51.272 61.8217C50.8939 61.7619 50.5418 61.5922 50.2594 61.3338C49.977 61.0754 49.7768 60.7396 49.6837 60.3684C49.5905 59.9971 49.6086 59.6066 49.7356 59.2455C49.916 58.7629 50.2795 58.3708 50.7471 58.1545C51.771 57.6815 52.88 57.4208 54.0074 57.388C55.1348 57.3553 56.2571 57.5511 57.3067 57.9639C58.3563 58.3766 59.3114 58.9977 60.1145 59.7896C60.9176 60.5814 61.552 61.5278 61.9794 62.5715L64.1526 67.7968C64.3854 68.3565 64.7284 68.8637 65.1612 69.2882C65.5939 69.7128 66.1076 70.046 66.6717 70.2681C67.2357 70.4902 67.8387 70.5966 68.4447 70.5811C69.0508 70.5655 69.6475 70.4282 70.1994 70.1775C70.4279 70.0664 70.6761 70.0015 70.9298 69.9863C71.1834 69.9711 71.4376 70.0061 71.6777 70.0891C71.9179 70.1722 72.1393 70.3017 72.3294 70.4704C72.5195 70.639 72.6744 70.8434 72.7855 71.0719C72.8966 71.3005 72.9616 71.5487 72.9768 71.8023C72.9919 72.056 72.957 72.3101 72.8739 72.5503C72.7909 72.7904 72.6613 73.0118 72.4927 73.2019C72.3241 73.392 72.1197 73.547 71.8911 73.6581C70.7731 74.1927 69.5482 74.4662 68.309 74.4576ZM54.2189 60.3851C54.8833 60.3872 55.5418 60.5099 56.1623 60.7473C56.8453 61.0091 57.4678 61.4073 57.9918 61.9176C58.5158 62.428 58.9302 63.0397 59.21 63.7155L61.3876 68.9408C61.7727 69.8782 62.3446 70.7274 63.0685 71.4366C63.7925 72.1458 64.6533 72.7001 65.5984 73.0659C66.5436 73.4316 67.5532 73.6011 68.566 73.5639C69.5788 73.5268 70.5734 73.2838 71.4892 72.8498C71.6133 72.7892 71.7243 72.7047 71.8158 72.6012C71.9072 72.4977 71.9775 72.3772 72.0224 72.2465C72.0673 72.1159 72.086 71.9777 72.0775 71.8398C72.069 71.702 72.0334 71.5671 71.9728 71.443C71.9122 71.3188 71.8278 71.2079 71.7243 71.1164C71.6207 71.0249 71.5002 70.9547 71.3696 70.9098C71.2389 70.8649 71.1008 70.8462 70.9629 70.8547C70.825 70.8632 70.6902 70.8987 70.566 70.9593C69.9063 71.2603 69.1927 71.4255 68.4678 71.4451C67.7428 71.4647 67.0214 71.3382 66.3464 71.0732C65.6713 70.8083 65.0565 70.4102 64.5385 69.9027C64.0205 69.3952 63.6099 68.7887 63.3311 68.1192L61.1535 62.8939C60.7701 61.9626 60.2025 61.1184 59.4847 60.412C58.7669 59.7056 57.9137 59.1515 56.9764 58.7831C56.0391 58.4147 55.037 58.2395 54.0303 58.2682C53.0235 58.2968 52.033 58.5286 51.1181 58.9496C50.8603 59.0695 50.6591 59.2849 50.5572 59.5503C50.5108 59.6813 50.4908 59.8201 50.4984 59.9589C50.5059 60.0976 50.5409 60.2335 50.6013 60.3586C50.6574 60.4872 50.739 60.6031 50.8411 60.6993C50.9432 60.7954 51.0637 60.8699 51.1954 60.9182C51.3271 60.9665 51.4672 60.9876 51.6072 60.9803C51.7473 60.9729 51.8845 60.9372 52.0104 60.8754C52.7011 60.5503 53.4555 60.3829 54.2189 60.3851Z" fill="#244583"/>
<path d="M56.9885 70.5795C56.3184 70.9274 55.5809 71.126 54.8267 71.1618C54.0725 71.1976 53.3195 71.0697 52.6194 70.7868C51.9194 70.5039 51.2889 70.0728 50.7713 69.5231C50.2537 68.9734 49.8612 68.3182 49.6209 67.6024C50.0626 68.0441 50.3851 68.4858 51.1095 68.4858C51.4029 68.4841 51.6894 68.3967 51.9338 68.2343C52.1782 68.072 52.3698 67.8419 52.4852 67.5721C52.6006 67.3024 52.6347 67.0048 52.5834 66.7159C52.532 66.427 52.3974 66.1595 52.196 65.9461L49.2588 62.8939C48.9831 62.6116 48.6071 62.4496 48.2126 62.443C47.818 62.4363 47.4369 62.5857 47.1519 62.8586L44.1086 65.8003C43.9574 65.9334 43.8349 66.0956 43.7482 66.2774C43.6616 66.4592 43.6128 66.6566 43.6047 66.8578C43.5966 67.059 43.6294 67.2597 43.7011 67.4478C43.7728 67.636 43.882 67.8076 44.0219 67.9524C44.1619 68.0971 44.3298 68.2119 44.5154 68.2899C44.701 68.3679 44.9005 68.4075 45.1019 68.4061C45.3032 68.4048 45.5022 68.3626 45.6868 68.2822C45.8713 68.2017 46.0377 68.0847 46.1757 67.9381L46.5379 67.5759C46.7935 68.8195 47.3341 69.9869 48.1172 70.9862C48.9004 71.9854 49.9046 72.7894 51.0511 73.3348C52.1975 73.8802 53.4549 74.1521 54.7243 74.1293C55.9937 74.1065 57.2405 73.7894 58.3666 73.2031C58.541 73.1107 58.6954 72.9848 58.821 72.8325C58.9466 72.6802 59.0408 72.5047 59.0983 72.3158C59.1557 72.127 59.1753 71.9287 59.1559 71.7323C59.1364 71.5359 59.0783 71.3452 58.9849 71.1713C58.7864 70.8409 58.4713 70.5969 58.1017 70.4873C57.7321 70.3777 57.335 70.4106 56.9885 70.5795Z" fill="#9FEFDE"/>
<path d="M54.5855 74.5547C52.7233 74.5485 50.9124 73.9442 49.4198 72.8309C47.9271 71.7175 46.8316 70.1541 46.2948 68.3709C45.9545 68.6277 45.5373 68.7616 45.1111 68.7508C44.6024 68.7375 44.1183 68.5287 43.7595 68.1678C43.5789 67.9886 43.4371 67.7742 43.3429 67.5379C43.2487 67.3015 43.204 67.0484 43.2118 66.7941C43.2226 66.2835 43.4317 65.7972 43.7949 65.4381L46.847 62.4919C47.2146 62.1371 47.7079 61.9425 48.2187 61.9508C48.7296 61.9591 49.2163 62.1696 49.5722 62.5361L52.514 65.5882C52.7743 65.8647 52.9483 66.2111 53.0148 66.5849C53.0813 66.9588 53.0373 67.3439 52.8882 67.6931C52.7391 68.0423 52.4915 68.3405 52.1755 68.5511C51.8596 68.7617 51.489 68.8756 51.1093 68.8789C51.0079 68.8858 50.9061 68.8858 50.8046 68.8789C51.497 69.7544 52.4722 70.3619 53.5634 70.5972C54.6545 70.8325 55.7934 70.6809 56.7851 70.1686C57.2319 69.9481 57.7454 69.9038 58.2233 70.0446C58.7013 70.1853 59.1087 70.5009 59.3647 70.9284C59.4884 71.1539 59.5661 71.4018 59.5933 71.6576C59.6205 71.9134 59.5966 72.1721 59.5231 72.4187C59.4495 72.6652 59.3278 72.8946 59.1648 73.0937C59.0019 73.2928 58.8011 73.4577 58.574 73.5786C57.3434 74.2227 55.9745 74.5577 54.5855 74.5547ZM46.8028 66.6572L46.9706 67.4567C47.2147 68.6318 47.7279 69.7343 48.47 70.6775C49.2122 71.6207 50.1629 72.379 51.2476 72.8927C52.3323 73.4063 53.5214 73.6615 54.7214 73.6379C55.9214 73.6144 57.0995 73.3128 58.1632 72.757C58.2875 72.6928 58.3978 72.6045 58.4875 72.4972C58.5772 72.3899 58.6446 72.2657 58.6857 72.132C58.7269 71.9984 58.7409 71.8578 58.727 71.7186C58.7132 71.5794 58.6716 71.4444 58.6049 71.3215C58.4592 71.0957 58.2359 70.931 57.9771 70.8586C57.7184 70.7862 57.4421 70.811 57.2003 70.9284C56.4687 71.3071 55.6633 71.5217 54.8402 71.5576C54.0172 71.5935 53.1962 71.4496 52.4344 71.136C51.6807 70.8308 51.0024 70.3654 50.4464 69.772C49.8904 69.1786 49.47 68.4715 49.2144 67.6996L48.6358 65.9328L50.1023 67.3992C50.4733 67.7835 50.6897 67.9867 51.1226 67.9867C51.331 67.9858 51.5345 67.9232 51.7074 67.8069C51.8803 67.6906 52.015 67.5257 52.0943 67.333C52.1805 67.1449 52.2072 66.935 52.1709 66.7314C52.1346 66.5278 52.037 66.34 51.8911 66.1934L48.9539 63.1457C48.7619 62.9468 48.499 62.8319 48.2226 62.8261C47.9462 62.8203 47.6788 62.9241 47.4786 63.1147L44.4265 66.0609C44.2271 66.2569 44.1129 66.5234 44.1085 66.8029C44.1029 66.9377 44.1255 67.0722 44.1749 67.1977C44.2244 67.3232 44.2995 67.437 44.3956 67.5317C44.5947 67.7329 44.8635 67.8499 45.1464 67.8586C45.2809 67.8616 45.4146 67.8377 45.5398 67.7884C45.6649 67.7391 45.779 67.6653 45.8752 67.5714L46.8028 66.6572Z" fill="#244583"/>
<path d="M78.543 63.9541C78.407 63.8132 78.2447 63.7006 78.0652 63.6226C77.8857 63.5446 77.6925 63.5027 77.4968 63.4994C77.3011 63.4962 77.1067 63.5315 76.9247 63.6034C76.7427 63.6754 76.5766 63.7826 76.4361 63.9188L76.0739 64.2809C75.8183 63.0373 75.2777 61.87 74.4946 60.8707C73.7114 59.8714 72.7071 59.0675 71.5607 58.5221C70.4142 57.9767 69.1569 57.7047 67.8875 57.7275C66.6181 57.7504 65.3713 58.0674 64.2453 58.6537C64.0712 58.7465 63.9172 58.8727 63.792 59.0251C63.6667 59.1774 63.5727 59.3529 63.5153 59.5415C63.4578 59.7302 63.4381 59.9284 63.4573 60.1247C63.4764 60.3209 63.5341 60.5115 63.6269 60.6855C63.7197 60.8595 63.8459 61.0136 63.9982 61.1388C64.1505 61.2641 64.3261 61.3581 64.5147 61.4155C64.7034 61.4729 64.9015 61.4926 65.0978 61.4735C65.2941 61.4543 65.4847 61.3967 65.6587 61.3039C66.329 60.9568 67.0663 60.7587 67.8203 60.7233C68.5743 60.6878 69.327 60.816 70.0268 61.0987C70.7267 61.3815 71.357 61.8123 71.8748 62.3616C72.3925 62.9109 72.7852 63.5656 73.0262 64.2809L72.6286 63.879C72.3539 63.5949 71.9776 63.4316 71.5825 63.425C71.1874 63.4184 70.8058 63.5689 70.5217 63.8437C70.2377 64.1184 70.0744 64.4947 70.0677 64.8898C70.0611 65.2849 70.2117 65.6665 70.4864 65.9506L73.4237 68.9983C73.6994 69.2806 74.0754 69.4426 74.4699 69.4492C74.8644 69.4558 75.2456 69.3065 75.5306 69.0336L78.5783 66.0963C78.8443 65.8009 78.9885 65.4157 78.982 65.0183C78.9754 64.6208 78.8185 64.2406 78.543 63.9541Z" fill="#9FEFDE"/>
<path d="M74.5151 69.8993C74.2548 69.899 73.9972 69.8473 73.7569 69.7472C73.5167 69.6472 73.2985 69.5008 73.1149 69.3163L70.1688 66.2597C69.8142 65.8929 69.6198 65.4003 69.6281 64.8901C69.6363 64.38 69.8467 63.8941 70.213 63.5389C70.3888 63.3538 70.6026 63.209 70.8398 63.1144C71.0769 63.0199 71.3317 62.9778 71.5866 62.9912C71.6786 62.991 71.7703 62.9999 71.8605 63.0177C71.3482 62.3556 70.6702 61.8406 69.895 61.5247C69.2502 61.2597 68.5555 61.1382 67.8591 61.1687C67.1627 61.1992 66.4813 61.381 65.8623 61.7014C65.4097 61.9242 64.8882 61.9622 64.4081 61.8075C63.928 61.6529 63.5267 61.3176 63.2893 60.8726C63.0519 60.4275 62.9968 59.9075 63.1357 59.4226C63.2746 58.9377 63.5966 58.5257 64.0336 58.2739C65.1618 57.6838 66.4064 57.3501 67.6784 57.2969C68.9505 57.2436 70.2186 57.472 71.3921 57.9657C72.5657 58.4595 73.6157 59.2063 74.4671 60.1529C75.3185 61.0995 75.9502 62.2226 76.3172 63.4417C76.6944 63.1649 77.1586 63.0332 77.6249 63.0705C78.0912 63.1078 78.5286 63.3117 78.8569 63.6449C79.212 64.0111 79.4149 64.4982 79.4247 65.0081C79.4346 65.518 79.2506 66.0127 78.91 66.3923L75.8181 69.356C75.4726 69.7022 75.0041 69.8975 74.5151 69.8993ZM71.538 63.8745C71.4079 63.8738 71.2788 63.8989 71.1583 63.9481C71.0378 63.9974 70.9282 64.07 70.8358 64.1617C70.6349 64.3532 70.5183 64.6167 70.5117 64.8942C70.5051 65.1717 70.6089 65.4404 70.8004 65.6413L73.7421 68.6935C73.9341 68.8924 74.197 69.0072 74.4734 69.013C74.7498 69.0188 75.0172 68.9151 75.2174 68.7244L78.2739 65.7827C78.4561 65.5707 78.5525 65.2983 78.5443 65.0189C78.5361 64.7394 78.424 64.4731 78.2298 64.2721C78.0388 64.0706 77.7756 63.9533 77.4981 63.9458C77.2207 63.9384 76.9516 64.0414 76.7501 64.2323L75.8093 65.1776L75.6414 64.3737C75.398 63.1987 74.8853 62.0962 74.1436 61.1529C73.402 60.2097 72.4515 59.4513 71.3671 58.9376C70.2827 58.4239 69.0939 58.1687 67.8942 58.1923C66.6945 58.2158 65.5166 58.5174 64.4532 59.0733C64.2055 59.2063 64.0207 59.4322 63.9395 59.7015C63.8583 59.9707 63.8874 60.2611 64.0204 60.5088C64.1533 60.7566 64.3793 60.9414 64.6485 61.0226C64.9177 61.1037 65.2081 61.0747 65.4559 60.9417C66.1881 60.5625 66.994 60.3472 67.8177 60.3106C68.6414 60.274 69.4633 60.4169 70.2262 60.7297C70.981 61.0343 71.6602 61.5 72.2163 62.0943C72.7725 62.6886 73.1922 63.3972 73.4462 64.1705L74.0248 65.9373L72.3154 64.2279C72.1169 64.0264 71.8474 63.9107 71.5646 63.9055L71.538 63.8745Z" fill="#244583"/>
</svg>
