<svg width="120" height="81" viewBox="0 0 120 81" fill="none" xmlns="http://www.w3.org/2000/svg">
<path d="M90.8694 21.1498V65.7499C90.8646 67.0295 90.3525 68.255 89.4456 69.1578C88.5387 70.0606 87.3108 70.567 86.0312 70.566H29.1278C27.8462 70.567 26.6167 70.0591 25.7095 69.1539C24.8022 68.2487 24.2915 67.0204 24.2896 65.7388V21.1498H90.8694Z" fill="#EBECE9"/>
<path d="M90.8698 21.1498V65.7498C90.865 67.0295 90.353 68.255 89.446 69.1578C88.5391 70.0606 87.3113 70.567 86.0316 70.566H82.5474C83.1821 70.567 83.8107 70.4428 84.3975 70.2007C84.9842 69.9586 85.5174 69.6033 85.9668 69.155C86.4161 68.7067 86.7726 68.1742 87.0161 67.588C87.2595 67.0019 87.3851 66.3735 87.3856 65.7388V21.1498H90.8698Z" fill="#C1C1C1"/>
<path d="M90.8695 8.83536V21.1498H24.2749V8.83536C24.2778 7.5541 24.7889 6.32632 25.6959 5.42136C26.6029 4.5164 27.8319 4.00818 29.1131 4.00818H86.0312C87.3125 4.00818 88.5415 4.5164 89.4485 5.42136C90.3555 6.32632 90.8666 7.5541 90.8695 8.83536Z" fill="#9FEFDE"/>
<path d="M90.6159 8.83536V21.1498H87.3671V11.6978C87.3642 10.4198 86.8557 9.19473 85.9526 8.2903C85.0496 7.38587 83.8253 6.87551 82.5472 6.87065H25.6254C25.2057 6.8743 24.7879 6.92989 24.3818 7.0362C24.7447 6.14202 25.366 5.37637 26.1662 4.837C26.9664 4.29763 27.9092 4.00905 28.8742 4.00818H85.7776C87.0589 4.00818 88.2879 4.5164 89.1949 5.42136C90.1019 6.32632 90.6129 7.5541 90.6159 8.83536Z" fill="#24C4A1"/>
<path d="M83.4488 14.6817C84.6111 14.6817 85.5533 13.7395 85.5533 12.5772C85.5533 11.4149 84.6111 10.4726 83.4488 10.4726C82.2865 10.4726 81.3442 11.4149 81.3442 12.5772C81.3442 13.7395 82.2865 14.6817 83.4488 14.6817Z" fill="white"/>
<path d="M83.4487 15.1931C82.9312 15.1939 82.4251 15.0411 81.9944 14.7541C81.5637 14.4671 81.2278 14.0588 81.0293 13.5808C80.8307 13.1029 80.7784 12.5768 80.8789 12.0691C80.9794 11.5614 81.2283 11.0949 81.594 10.7287C81.9597 10.3625 82.4258 10.113 82.9334 10.0118C83.4409 9.91054 83.9671 9.96214 84.4453 10.16C84.9235 10.3579 85.3323 10.6932 85.6199 11.1235C85.9075 11.5537 86.061 12.0597 86.061 12.5772C86.061 13.2704 85.7859 13.9351 85.2961 14.4256C84.8063 14.9161 84.1419 15.1922 83.4487 15.1931ZM83.4487 10.9804C83.1329 10.9804 82.8242 11.074 82.5616 11.2495C82.299 11.4249 82.0943 11.6743 81.9735 11.9661C81.8526 12.2579 81.821 12.579 81.8826 12.8887C81.9442 13.1985 82.0963 13.483 82.3196 13.7063C82.5429 13.9296 82.8275 14.0817 83.1372 14.1433C83.447 14.2049 83.768 14.1733 84.0598 14.0524C84.3516 13.9316 84.601 13.7269 84.7764 13.4643C84.9519 13.2017 85.0455 12.893 85.0455 12.5772C85.0446 12.154 84.876 11.7484 84.5768 11.4492C84.2775 11.1499 83.8719 10.9814 83.4487 10.9804Z" fill="#244583"/>
<path d="M75.1446 14.6817C76.3069 14.6817 77.2491 13.7395 77.2491 12.5772C77.2491 11.4149 76.3069 10.4726 75.1446 10.4726C73.9823 10.4726 73.04 11.4149 73.04 12.5772C73.04 13.7395 73.9823 14.6817 75.1446 14.6817Z" fill="white"/>
<path d="M75.1409 15.1932C74.6235 15.1932 74.1177 15.0397 73.6875 14.7523C73.2573 14.4648 72.922 14.0563 72.724 13.5783C72.526 13.1003 72.4742 12.5743 72.5752 12.0669C72.6761 11.5594 72.9253 11.0933 73.2911 10.7274C73.6569 10.3616 74.1231 10.1125 74.6305 10.0115C75.138 9.91058 75.6639 9.96236 76.1419 10.1604C76.6199 10.3584 77.0285 10.6937 77.3159 11.1239C77.6034 11.5541 77.7568 12.0598 77.7568 12.5772C77.7573 12.9209 77.69 13.2612 77.5587 13.5789C77.4274 13.8965 77.2347 14.185 76.9917 14.428C76.7487 14.671 76.4601 14.8637 76.1425 14.995C75.8249 15.1263 75.4845 15.1936 75.1409 15.1932ZM75.1409 10.9804C74.825 10.9804 74.5163 11.074 74.2537 11.2495C73.9911 11.4249 73.7865 11.6743 73.6656 11.9661C73.5447 12.2579 73.5131 12.579 73.5747 12.8887C73.6364 13.1985 73.7884 13.483 74.0117 13.7063C74.2351 13.9296 74.5196 14.0817 74.8293 14.1433C75.1391 14.2049 75.4601 14.1733 75.7519 14.0525C76.0437 13.9316 76.2931 13.7269 76.4685 13.4643C76.644 13.2017 76.7377 12.893 76.7377 12.5772C76.7377 12.1537 76.5694 11.7476 76.27 11.4481C75.9705 11.1486 75.5644 10.9804 75.1409 10.9804Z" fill="#244583"/>
<path d="M66.8404 14.6817C68.0027 14.6817 68.9449 13.7395 68.9449 12.5772C68.9449 11.4149 68.0027 10.4726 66.8404 10.4726C65.6781 10.4726 64.7358 11.4149 64.7358 12.5772C64.7358 13.7395 65.6781 14.6817 66.8404 14.6817Z" fill="white"/>
<path d="M66.8367 15.1932C66.3193 15.1932 65.8135 15.0397 65.3833 14.7523C64.9531 14.4648 64.6178 14.0563 64.4198 13.5783C64.2218 13.1003 64.17 12.5743 64.271 12.0669C64.3719 11.5594 64.6211 11.0933 64.9869 10.7274C65.3527 10.3616 65.8189 10.1125 66.3263 10.0115C66.8338 9.91058 67.3597 9.96236 67.8377 10.1604C68.3157 10.3584 68.7243 10.6937 69.0117 11.1239C69.2992 11.5541 69.4526 12.0598 69.4526 12.5772C69.4531 12.9209 69.3858 13.2612 69.2545 13.5789C69.1232 13.8965 68.9305 14.185 68.6875 14.428C68.4445 14.671 68.1559 14.8637 67.8383 14.995C67.5207 15.1263 67.1803 15.1936 66.8367 15.1932ZM66.8367 10.9804C66.521 10.9811 66.2126 11.0754 65.9505 11.2513C65.6884 11.4272 65.4843 11.6768 65.364 11.9687C65.2437 12.2605 65.2127 12.5815 65.2747 12.891C65.3367 13.2005 65.4891 13.4847 65.7125 13.7076C65.936 13.9306 66.2205 14.0823 66.5302 14.1436C66.8398 14.2049 67.1607 14.1731 67.4523 14.0521C67.7438 13.9311 67.993 13.7265 68.1683 13.464C68.3436 13.2015 68.4371 12.8929 68.4372 12.5772C68.4362 12.1534 68.2671 11.7472 67.9671 11.4479C67.667 11.1485 67.2605 10.9804 66.8367 10.9804Z" fill="#244583"/>
<path d="M58.4775 13.0849H31.2841C31.1494 13.0849 31.0203 13.0314 30.9251 12.9362C30.8299 12.841 30.7764 12.7119 30.7764 12.5772C30.7764 12.4425 30.8299 12.3134 30.9251 12.2182C31.0203 12.1229 31.1494 12.0695 31.2841 12.0695H58.4775C58.6122 12.0695 58.7413 12.1229 58.8365 12.2182C58.9318 12.3134 58.9853 12.4425 58.9853 12.5772C58.9853 12.7119 58.9318 12.841 58.8365 12.9362C58.7413 13.0314 58.6122 13.0849 58.4775 13.0849Z" fill="#244583"/>
<path d="M62.4657 48.7737H31.3539C31.2821 48.7824 31.2093 48.7757 31.1402 48.7541C31.0712 48.7326 31.0075 48.6966 30.9534 48.6486C30.8993 48.6006 30.8559 48.5417 30.8263 48.4758C30.7966 48.4098 30.7812 48.3383 30.7812 48.266C30.7812 48.1936 30.7966 48.1221 30.8263 48.0562C30.8559 47.9902 30.8993 47.9313 30.9534 47.8833C31.0075 47.8353 31.0712 47.7994 31.1402 47.7778C31.2093 47.7562 31.2821 47.7496 31.3539 47.7582H62.4657C62.5375 47.7496 62.6104 47.7562 62.6794 47.7778C62.7484 47.7994 62.8121 47.8353 62.8662 47.8833C62.9204 47.9313 62.9637 47.9902 62.9933 48.0562C63.023 48.1221 63.0384 48.1936 63.0384 48.266C63.0384 48.3383 63.023 48.4098 62.9933 48.4758C62.9637 48.5417 62.9204 48.6006 62.8662 48.6486C62.8121 48.6966 62.7484 48.7326 62.6794 48.7541C62.6104 48.7757 62.5375 48.7824 62.4657 48.7737Z" fill="#244583"/>
<path d="M62.4657 54.6605H31.3539C31.2821 54.6692 31.2093 54.6625 31.1402 54.6409C31.0712 54.6194 31.0075 54.5834 30.9534 54.5354C30.8993 54.4874 30.8559 54.4285 30.8263 54.3626C30.7966 54.2966 30.7812 54.2251 30.7812 54.1528C30.7812 54.0804 30.7966 54.0089 30.8263 53.943C30.8559 53.877 30.8993 53.8181 30.9534 53.7701C31.0075 53.7221 31.0712 53.6862 31.1402 53.6646C31.2093 53.6431 31.2821 53.6364 31.3539 53.645H62.4657C62.5375 53.6364 62.6104 53.6431 62.6794 53.6646C62.7484 53.6862 62.8121 53.7221 62.8662 53.7701C62.9204 53.8181 62.9637 53.877 62.9933 53.943C63.023 54.0089 63.0384 54.0804 63.0384 54.1528C63.0384 54.2251 63.023 54.2966 62.9933 54.3626C62.9637 54.4285 62.9204 54.4874 62.8662 54.5354C62.8121 54.5834 62.7484 54.6194 62.6794 54.6409C62.6104 54.6625 62.5375 54.6692 62.4657 54.6605Z" fill="#244583"/>
<path d="M58.8125 36.2643H31.288C31.1534 36.2643 31.0242 36.2108 30.929 36.1156C30.8338 36.0203 30.7803 35.8912 30.7803 35.7565C30.7803 35.6219 30.8338 35.4927 30.929 35.3975C31.0242 35.3023 31.1534 35.2488 31.288 35.2488H58.8125C58.9472 35.2488 59.0764 35.3023 59.1716 35.3975C59.2668 35.4927 59.3203 35.6219 59.3203 35.7565C59.3203 35.8912 59.2668 36.0203 59.1716 36.1156C59.0764 36.2108 58.9472 36.2643 58.8125 36.2643Z" fill="#244583"/>
<path d="M59.5741 42.519H31.3026C31.168 42.519 31.0388 42.4655 30.9436 42.3703C30.8484 42.2751 30.7949 42.1459 30.7949 42.0113C30.7949 41.8766 30.8484 41.7475 30.9436 41.6522C31.0388 41.557 31.168 41.5035 31.3026 41.5035H59.5741C59.7087 41.5035 59.8379 41.557 59.9331 41.6522C60.0283 41.7475 60.0818 41.8766 60.0818 42.0113C60.0818 42.1459 60.0283 42.2751 59.9331 42.3703C59.8379 42.4655 59.7087 42.519 59.5741 42.519Z" fill="#244583"/>
<path d="M21.512 7.56234C21.3773 7.56234 21.2482 7.50885 21.153 7.41364C21.0577 7.31842 21.0042 7.18926 21.0042 7.0546C20.9986 7.01556 20.9986 6.97593 21.0042 6.93689C21.3995 5.24418 22.3144 3.71752 23.6208 2.57082C24.9271 1.42412 26.5595 0.714844 28.2892 0.542333C28.4238 0.528963 28.5582 0.569425 28.663 0.65493C28.7678 0.740434 28.8345 0.864012 28.8484 0.998558C28.8555 1.0651 28.8493 1.13238 28.8301 1.19649C28.811 1.2606 28.7792 1.32025 28.7368 1.37196C28.6943 1.42368 28.642 1.4664 28.5828 1.49767C28.5236 1.52895 28.4588 1.54816 28.3922 1.55413C26.8737 1.7055 25.4406 2.32823 24.2938 3.3351C23.1471 4.34197 22.3442 5.68245 21.9976 7.16864C21.9722 7.27903 21.9106 7.37778 21.8226 7.44912C21.7346 7.52045 21.6252 7.56031 21.512 7.56234Z" fill="#244583"/>
<path d="M31.4056 1.521H30.7764C30.7059 1.527 30.6348 1.51829 30.5678 1.4954C30.5008 1.47252 30.4393 1.43596 30.3871 1.38806C30.335 1.34016 30.2933 1.28195 30.2649 1.21712C30.2364 1.15229 30.2217 1.08223 30.2217 1.01142C30.2217 0.940607 30.2364 0.870598 30.2649 0.805765C30.2933 0.740931 30.335 0.682686 30.3871 0.634782C30.4393 0.586878 30.5008 0.550324 30.5678 0.52744C30.6348 0.504556 30.7059 0.495839 30.7764 0.50184H31.4056C31.5333 0.512698 31.6522 0.571092 31.7389 0.665457C31.8256 0.759822 31.8737 0.883287 31.8737 1.01142C31.8737 1.13955 31.8256 1.26302 31.7389 1.35738C31.6522 1.45175 31.5333 1.51014 31.4056 1.521Z" fill="#244583"/>
<path d="M90.8699 21.6613H24.2753C24.2083 21.6613 24.142 21.648 24.0802 21.6223C24.0183 21.5965 23.9622 21.5588 23.915 21.5113C23.8678 21.4637 23.8305 21.4073 23.8052 21.3453C23.7799 21.2833 23.7671 21.2168 23.7676 21.1499V8.83538C23.7715 7.41976 24.3363 6.06339 25.3384 5.06343C26.3404 4.06346 27.6979 3.50143 29.1136 3.50046H86.0317C87.4479 3.49948 88.8066 4.06088 89.809 5.06127C90.8115 6.06166 91.3757 7.41916 91.3777 8.83538V21.1499C91.3781 21.2168 91.3654 21.2833 91.3401 21.3453C91.3148 21.4073 91.2774 21.4637 91.2302 21.5113C91.1831 21.5588 91.1269 21.5965 91.0651 21.6223C91.0032 21.648 90.9369 21.6613 90.8699 21.6613ZM24.8015 20.6422H90.3622V8.83538C90.3583 7.68942 89.9003 6.59174 89.0886 5.78279C88.2769 4.97385 87.1777 4.51961 86.0317 4.51962H29.1283C27.9826 4.51962 26.8838 4.97397 26.0727 5.78302C25.2615 6.59207 24.8044 7.68976 24.8015 8.83538V20.6422Z" fill="#244583"/>
<path d="M86.0316 71.0885H29.1282C27.7119 71.0875 26.3538 70.525 25.3517 69.5242C24.3495 68.5234 23.7851 67.1661 23.7822 65.7499V21.1498C23.7822 21.0152 23.8357 20.8861 23.9309 20.7909C24.0262 20.6956 24.1553 20.6422 24.2899 20.6422H90.8845C91.0192 20.6422 91.1483 20.6956 91.2436 20.7909C91.3388 20.8861 91.3923 21.0152 91.3923 21.1498V65.7499C91.3913 66.4525 91.2518 67.1481 90.9818 67.7968C90.7118 68.4455 90.3166 69.0346 89.8187 69.5305C89.3208 70.0263 88.73 70.4191 88.0802 70.6864C87.4304 70.9538 86.7342 71.0904 86.0316 71.0885ZM24.8014 21.6613V65.7499C24.8033 66.8961 25.26 67.9948 26.0713 68.8046C26.8825 69.6144 27.9819 70.0693 29.1282 70.0693H86.0316C87.1782 70.0693 88.278 69.6146 89.0898 68.8048C89.9016 67.9951 90.3592 66.8965 90.3621 65.7499V21.6613H24.8014Z" fill="#244583"/>
<path d="M39.912 18.074H39.6287C39.4287 18.0603 39.2414 17.9713 39.1045 17.8248C38.9677 17.6783 38.8916 17.4853 38.8916 17.2848C38.8916 17.0844 38.9677 16.8913 39.1045 16.7448C39.2414 16.5983 39.4287 16.5093 39.6287 16.4956H39.912C40.0192 16.4855 40.1274 16.4973 40.2298 16.5304C40.3323 16.5635 40.4269 16.6172 40.5079 16.6882C40.5889 16.7591 40.6546 16.8459 40.7008 16.9431C40.7471 17.0404 40.7731 17.146 40.7771 17.2537C40.7811 17.3613 40.7631 17.4685 40.7242 17.5689C40.6853 17.6694 40.6263 17.7608 40.5508 17.8376C40.4753 17.9144 40.385 17.9749 40.2852 18.0156C40.1855 18.0563 40.0786 18.0761 39.9709 18.074H39.912Z" fill="white"/>
<path d="M52.5022 18.074H42.8367C42.6367 18.0603 42.4494 17.9713 42.3126 17.8248C42.1757 17.6783 42.0996 17.4853 42.0996 17.2848C42.0996 17.0843 42.1757 16.8913 42.3126 16.7448C42.4494 16.5983 42.6367 16.5093 42.8367 16.4956H52.5022C52.7022 16.5093 52.8895 16.5983 53.0263 16.7448C53.1632 16.8913 53.2393 17.0843 53.2393 17.2848C53.2393 17.4853 53.1632 17.6783 53.0263 17.8248C52.8895 17.9713 52.7022 18.0603 52.5022 18.074Z" fill="white"/>
<path d="M90.7668 80.5H58.2716C57.4753 80.5 56.7117 80.1837 56.1486 79.6207C55.5856 79.0576 55.2693 78.294 55.2693 77.4977V74.4807C55.2693 74.4749 55.2716 74.4692 55.2758 74.4651C55.2799 74.461 55.2855 74.4586 55.2914 74.4586H93.8978C93.9037 74.4586 93.9093 74.461 93.9135 74.4651C93.9176 74.4692 93.9199 74.4749 93.9199 74.4807V77.3468C93.9199 78.1831 93.5877 78.9851 92.9964 79.5765C92.4051 80.1678 91.6031 80.5 90.7668 80.5Z" fill="#C1C1C1"/>
<path d="M55.8688 65.2016H93.9197C94.4478 65.2016 94.9707 65.3056 95.4586 65.5077C95.9465 65.7098 96.3899 66.006 96.7633 66.3794C97.1367 66.7529 97.4329 67.1962 97.635 67.6841C97.8371 68.172 97.9411 68.6949 97.9411 69.223V74.2305C97.9411 74.2383 97.938 74.2458 97.9325 74.2513C97.927 74.2568 97.9195 74.2599 97.9117 74.2599H51.6745C51.6666 74.2599 51.6592 74.2568 51.6536 74.2513C51.6481 74.2458 51.645 74.2383 51.645 74.2305V69.4291C51.6445 68.8741 51.7534 68.3244 51.9655 67.8116C52.1775 67.2987 52.4886 66.8326 52.8808 66.44C53.2731 66.0474 53.7389 65.736 54.2516 65.5235C54.7643 65.311 55.3138 65.2016 55.8688 65.2016Z" fill="#EBECE9"/>
<path d="M93.9197 65.2017H55.8688C55.2543 65.2011 54.6472 65.3348 54.0898 65.5934C53.5324 65.8521 53.0383 66.2295 52.6421 66.6991C53.2215 66.3768 53.8739 66.2084 54.5369 66.2098H93.2354C94.2129 66.2098 95.1506 66.5968 95.8435 67.2863C96.5364 67.9758 96.9281 68.9115 96.933 69.889V74.2453H97.9117C97.9192 74.2445 97.9263 74.2411 97.9316 74.2357C97.937 74.2304 97.9403 74.2234 97.9411 74.2158V69.2084C97.9372 68.1444 97.5118 67.1253 96.7581 66.3743C96.0043 65.6233 94.9837 65.2017 93.9197 65.2017Z" fill="#C1C1C1"/>
<path d="M82.2419 64.8006H67.7456C67.7456 64.8006 69.2173 57.4421 69.3792 54.9549C69.5411 52.4677 69.1768 45.1019 69.1768 45.1019L81.0314 45.0724C81.0314 45.0724 80.4869 52.3205 80.6304 54.7341C80.7775 57.2765 82.2419 64.8006 82.2419 64.8006Z" fill="#EBECE9"/>
<path d="M74.188 47.4897C75.5861 47.4566 77.4993 47.4382 79.8025 46.1946C79.6995 47.6184 79.2984 53.428 79.4346 55.5399C79.5523 57.5745 80.5126 62.7917 80.9063 64.8006H81.8629C81.8629 64.8006 80.3912 57.2765 80.2514 54.7341C80.1116 52.3205 80.6561 45.0724 80.6561 45.0724L68.7979 45.1018C68.7979 45.1018 68.9303 44.675 68.9818 45.8782C70.4057 46.6177 72.547 47.5228 74.188 47.4897Z" fill="#C1C1C1"/>
<path d="M74.7949 46.0805C80.4642 46.0805 85.06 41.4846 85.06 35.8154C85.06 30.1461 80.4642 25.5502 74.7949 25.5502C69.1256 25.5502 64.5298 30.1461 64.5298 35.8154C64.5298 41.4846 69.1256 46.0805 74.7949 46.0805Z" fill="#9FEFDE"/>
<path d="M74.7912 25.7489C72.8912 25.7451 71.028 26.2727 69.4121 27.2721C71.7939 26.3505 74.4338 26.3498 76.8161 27.2702C79.1984 28.1906 81.152 29.966 82.2954 32.2496C83.4389 34.5333 83.69 37.1611 82.9997 39.62C82.3094 42.0789 80.7273 44.1921 78.5624 45.547C80.785 44.6693 82.6318 43.0437 83.7843 40.9505C84.9369 38.8572 85.3231 36.4274 84.8763 34.0799C84.4294 31.7325 83.1776 29.6144 81.3366 28.0909C79.4956 26.5675 77.1808 25.734 74.7912 25.7342V25.7489Z" fill="#24C4A1"/>
<path d="M58.794 80.5H90.8588C91.8489 80.499 92.7982 80.1053 93.4983 79.4051C94.1985 78.705 94.5922 77.7557 94.5932 76.7656V74.9811H98.2025C98.2589 74.9811 98.3147 74.97 98.3667 74.9483C98.4187 74.9266 98.466 74.8949 98.5056 74.8548C98.5453 74.8148 98.5767 74.7673 98.5979 74.7151C98.6191 74.6629 98.6298 74.607 98.6293 74.5506V69.0317C98.6293 67.8608 98.1642 66.7378 97.3362 65.9098C96.5082 65.0818 95.3852 64.6166 94.2142 64.6166H82.5032C80.7702 57.1146 80.5053 51.8055 81.5024 44.5757C83.3306 43.1694 84.6683 41.2221 85.3251 39.0111C85.9819 36.8001 85.9242 34.4382 85.1603 32.2619C84.3963 30.0856 82.9651 28.2059 81.0704 26.8906C79.1758 25.5752 76.9143 24.8913 74.6083 24.9363C72.3022 24.9813 70.0692 25.7528 68.2272 27.1411C66.3853 28.5293 65.0284 30.4634 64.3499 32.6678C63.6714 34.8722 63.7058 37.2345 64.4483 39.4183C65.1909 41.602 66.6036 43.4957 68.4852 44.8296C69.7472 51.9159 69.3976 57.1514 67.168 64.6166H55.4459C54.2749 64.6166 53.1519 65.0818 52.3239 65.9098C51.4959 66.7378 51.0308 67.8608 51.0308 69.0317V74.5506C51.0303 74.607 51.041 74.6629 51.0622 74.7151C51.0834 74.7673 51.1148 74.8148 51.1545 74.8548C51.1941 74.8949 51.2414 74.9266 51.2934 74.9483C51.3454 74.97 51.4012 74.9811 51.4576 74.9811H55.0669V76.7692C55.0689 77.7575 55.462 78.7047 56.1605 79.4039C56.8589 80.103 57.8058 80.4971 58.794 80.5ZM93.747 76.7656C93.745 77.529 93.4409 78.2607 92.901 78.8005C92.3612 79.3404 91.6296 79.6445 90.8661 79.6464H58.794C58.0306 79.6445 57.2989 79.3404 56.7591 78.8005C56.2192 78.2607 55.9151 77.529 55.9131 76.7656V74.9811H93.7396L93.747 76.7656ZM64.725 35.9258C64.7206 33.9245 65.3102 31.967 66.4192 30.3011C67.5282 28.6352 69.1065 27.3359 70.9545 26.5677C72.8024 25.7995 74.8368 25.5969 76.7999 25.9858C78.763 26.3746 80.5666 27.3373 81.9822 28.7519C83.3978 30.1664 84.3618 31.9693 84.752 33.9321C85.1423 35.895 84.9413 37.9295 84.1744 39.778C83.4076 41.6265 82.1094 43.2058 80.4443 44.316C78.7792 45.4262 76.8221 46.0172 74.8209 46.0143C72.1422 46.0095 69.5746 44.9429 67.6809 43.0485C65.7871 41.154 64.7215 38.5861 64.7176 35.9074L64.725 35.9258ZM69.4639 45.4919C71.1637 46.4543 73.0912 46.9417 75.0443 46.9028C76.9973 46.864 78.9039 46.3004 80.5642 45.2711C79.6812 52.166 79.9718 57.4126 81.6349 64.6571H68.0621C70.1923 57.4126 70.5713 52.2249 69.4565 45.4551L69.4639 45.4919ZM51.888 69.0833C51.889 68.1377 52.2648 67.2311 52.9331 66.5621C53.6014 65.8931 54.5076 65.5163 55.4532 65.5144H94.2069C95.1525 65.5163 96.0587 65.8931 96.727 66.5621C97.3953 67.2311 97.7711 68.1377 97.7721 69.0833V74.157H51.8807L51.888 69.0833Z" fill="#22417D"/>
</svg>
