<svg width="69" height="65" viewBox="0 0 69 65" fill="none" xmlns="http://www.w3.org/2000/svg">
<g filter="url(#filter0_d)">
<path fill-rule="evenodd" clip-rule="evenodd" d="M32.4921 19.2688C33.0285 20.6781 33.5873 22.0875 34.1462 23.4968C34.7264 24.9598 35.3065 26.4228 35.8615 27.8858H43.4287L54.2248 39.8926H8.41738L19.2134 27.8858H26.7807L29.2012 21.5777C26.8289 17.4986 26.836 11.4654 31.2201 7L32.9354 8.51346C32.3502 9.39127 31.8543 10.2221 31.4477 11.0163C31.9325 11.6114 32.3247 12.2711 32.6152 12.9725C33.038 13.1519 33.4229 13.4186 33.7426 13.7602L33.8435 13.8611C35.2165 15.5283 34.7784 17.3861 32.6218 18.9713C32.5806 19.0713 32.5374 19.1705 32.4921 19.2688ZM40.6037 24.556C45.5476 20.2174 45.4467 11.6412 40.6037 7.40349C40.3629 7.64424 40.1222 7.86202 39.8704 8.08971L39.8704 8.08975L39.8703 8.08984C39.5946 8.33923 39.3057 8.60052 38.9893 8.91695C40.8031 10.7886 41.8475 13.2734 41.9153 15.8789C41.8493 18.5443 40.8082 21.0931 38.9893 23.0426L40.6037 24.556ZM31.8256 24.1526H30.8166C30.5401 24.6369 30.3039 25.1431 30.1103 25.6661C29.6059 26.9272 29.1014 28.2135 28.597 29.4998L28.5968 29.5002C28.0923 30.7866 27.5879 32.0731 27.0834 33.3343H24.7627C25.1663 32.1235 25.5699 31.0136 26.0744 29.8029H20.0206L12.6551 38.0765H49.9871L46.2539 33.8388L42.6216 29.8029H36.5677C37.0722 31.0136 37.4758 32.1235 37.8794 33.3343H35.5588L32.5318 25.4643C32.336 25.0069 32.0997 24.5679 31.8256 24.1526ZM55.4356 44.13V52H7.20667V44.13H55.4356ZM49.3817 46.148C48.9826 46.148 48.5925 46.2663 48.2606 46.488C47.9288 46.7098 47.6701 47.0249 47.5174 47.3937C47.3647 47.7624 47.3247 48.1681 47.4026 48.5596C47.4804 48.951 47.6726 49.3106 47.9548 49.5928C48.2371 49.875 48.5966 50.0672 48.9881 50.1451C49.3795 50.2229 49.7852 50.183 50.154 50.0302C50.5227 49.8775 50.8379 49.6189 51.0596 49.287C51.2813 48.9552 51.3997 48.565 51.3997 48.1659C51.3997 47.6307 51.1871 47.1174 50.8086 46.739C50.4302 46.3606 49.9169 46.148 49.3817 46.148ZM22.0386 50.083C22.3198 49.408 22.6324 48.7017 22.9588 47.9641C23.218 47.3785 23.4859 46.7731 23.7538 46.148H21.2314C21.0122 46.7178 20.774 47.2685 20.5333 47.8251C20.22 48.5497 19.9024 49.284 19.617 50.083H22.0386ZM19.5161 46.148H16.9937L15.3793 49.9821H17.9018L19.5161 46.148ZM26.1754 50.083C26.6571 49.0391 27.075 48.0591 27.5307 46.9905L27.5316 46.9883L27.5336 46.9838L27.5351 46.9802C27.6506 46.7093 27.7686 46.4327 27.8906 46.148H25.3682L23.7538 50.083H26.1754ZM15.3793 46.148H12.8569C12.6745 46.5857 12.4789 47.0366 12.2797 47.496C11.9279 48.3072 11.5647 49.1446 11.2426 49.9821H13.765L15.3793 46.148ZM30.3121 50.083L31.9265 46.2489H29.4041C29.1518 46.9047 28.8744 47.5353 28.5969 48.1659C28.3194 48.7965 28.042 49.4271 27.7897 50.083H30.3121Z" fill="#9FEFDE"/>
</g>
<defs>
<filter id="filter0_d" x="0.206665" y="0" width="68.2289" height="65" filterUnits="userSpaceOnUse" color-interpolation-filters="sRGB">
<feFlood flood-opacity="0" result="BackgroundImageFix"/>
<feColorMatrix in="SourceAlpha" type="matrix" values="0 0 0 0 0 0 0 0 0 0 0 0 0 0 0 0 0 0 127 0" result="hardAlpha"/>
<feOffset dx="3" dy="3"/>
<feGaussianBlur stdDeviation="5"/>
<feColorMatrix type="matrix" values="0 0 0 0 0 0 0 0 0 0 0 0 0 0 0 0 0 0 0.15 0"/>
<feBlend mode="normal" in2="BackgroundImageFix" result="effect1_dropShadow"/>
<feBlend mode="normal" in="SourceGraphic" in2="effect1_dropShadow" result="shape"/>
</filter>
</defs>
</svg>
