<svg width="74" height="65" viewBox="0 0 74 65" fill="none" xmlns="http://www.w3.org/2000/svg">
<g filter="url(#filter0_d)">
<path fill-rule="evenodd" clip-rule="evenodd" d="M7.05127 14.9475V7H55.7026V14.9475H7.05127ZM51.7289 10.9737C51.7369 10.4665 51.5517 9.97513 51.2107 9.59945C50.8698 9.22378 50.3986 8.99191 49.8929 8.95091C49.3873 8.90991 48.8849 9.06285 48.4879 9.37868C48.0909 9.69452 47.8289 10.1496 47.7551 10.6515V10.9737C47.8091 11.4965 48.0414 11.9847 48.4131 12.3564C48.7847 12.728 49.2729 12.9603 49.7957 13.0143C50.3093 12.9632 50.7874 12.7288 51.1424 12.3541C51.4974 11.9794 51.7056 11.4894 51.7289 10.9737ZM19.5094 13.0143H22.087L23.8054 9.04056H21.2278L19.5094 13.0143ZM13.7099 13.0143C14.2469 11.7255 14.7839 10.4367 15.4283 9.04056H12.8508L11.1324 13.0143H13.7099ZM15.3209 13.0143H17.8985L19.5094 9.04056H17.0393L15.3209 13.0143ZM7.05127 19.2433H55.7026V27.1907H7.05127V19.2433ZM49.7957 25.2576C50.1993 25.2576 50.5938 25.1379 50.9294 24.9137C51.2649 24.6894 51.5265 24.3708 51.6809 23.9979C51.8354 23.625 51.8758 23.2147 51.7971 22.8189C51.7183 22.4231 51.524 22.0595 51.2386 21.7741C50.9532 21.4887 50.5896 21.2944 50.1938 21.2156C49.798 21.1369 49.3877 21.1773 49.0148 21.3318C48.6419 21.4862 48.3232 21.7478 48.099 22.0833C47.8748 22.4189 47.7551 22.8134 47.7551 23.217C47.7551 23.7582 47.9701 24.2772 48.3528 24.6599C48.7355 25.0426 49.2545 25.2576 49.7957 25.2576ZM12.8508 21.1764L12.8508 21.1765L12.8508 21.1765L12.8507 21.1765L12.8507 21.1765C12.3138 22.4653 11.7768 23.754 11.1324 25.1502H13.7099C14.2469 23.8614 14.7839 22.5726 15.4283 21.1764H12.8508ZM22.087 25.1502L23.8054 21.1764H21.2278L19.5094 25.1502H22.087ZM17.0393 21.1764L17.0392 21.1765C16.5023 22.4653 15.9653 23.754 15.3209 25.1502H17.8985L19.6168 21.1764H17.0393ZM7.05127 31.3796V39.327H36.5857C36.5857 38.9367 36.6147 38.6042 36.6425 38.2845C36.6683 37.9886 36.6931 37.7036 36.6931 37.3939L39.2707 36.4273L38.0893 33.9571L37.8745 33.5275L40.6669 31.3796H7.05127ZM15.3209 37.3939C15.9653 35.9977 16.5023 34.7089 17.0393 33.4201H19.6168L17.8985 37.3939H15.3209ZM23.8054 33.4201C23.161 34.7089 22.624 35.9977 22.087 37.3939H19.5094C20.1538 35.9977 20.6908 34.7089 21.2278 33.4201H23.8054ZM11.1324 37.3939C11.7768 35.9977 12.3138 34.7089 12.8508 33.4201H15.4283C14.7839 34.8163 14.247 36.1051 13.71 37.3938L13.7099 37.3939H11.1324ZM40.6669 34.2793L43.2445 31.7018C46.359 32.8831 46.359 32.8831 47.7552 29.7686H51.4067C51.5344 29.9984 51.656 30.2464 51.7787 30.4967C52.1723 31.2994 52.5776 32.1261 53.2325 32.4536C53.7916 32.7331 54.4417 32.4669 55.1236 32.1876C55.4895 32.0378 55.8646 31.8842 56.2396 31.8092C56.603 32.1725 56.9914 32.586 57.3928 33.0134C57.8219 33.4702 58.2659 33.9428 58.7098 34.3867C58.636 34.7556 58.5115 35.1372 58.3886 35.5141C58.1537 36.2343 57.9244 36.9372 58.0654 37.5013C58.2057 38.0626 58.8503 38.3489 59.5499 38.6596C59.9211 38.8245 60.3079 38.9962 60.643 39.2196V42.8712C57.6358 44.2673 57.6358 44.2673 58.7098 47.3819L56.0248 50.0668C54.471 49.531 53.6923 49.2625 53.1288 49.5014C52.5628 49.7414 52.2137 50.4931 51.5141 52H47.8626C47.7283 51.7584 47.6008 51.4966 47.4733 51.2348C47.0907 50.4494 46.7081 49.6641 46.1442 49.4224C45.6052 49.1914 44.8453 49.4573 44.023 49.7451C43.6984 49.8587 43.364 49.9757 43.0297 50.0668L40.5595 47.4893C40.6287 47.1778 40.7426 46.8439 40.8579 46.5058C41.1004 45.7947 41.3495 45.0644 41.2039 44.4821C41.0601 43.9071 40.3871 43.6207 39.6357 43.3009C39.2645 43.143 38.8741 42.9768 38.519 42.7638V39.1122C38.7899 38.9617 39.0862 38.828 39.3818 38.6947C40.1406 38.3524 40.8947 38.0122 41.2039 37.3939C41.5196 36.7625 41.2553 36.0152 40.9652 35.1945L40.9652 35.1945C40.8604 34.8983 40.7523 34.5926 40.6669 34.2793ZM43.6741 33.8497L42.6001 34.7089C43.8889 37.8235 43.2445 39.0048 40.4521 40.2936V41.5824C43.5667 42.9786 43.7815 44.1599 42.7075 47.1671L43.5667 48.0263C46.5738 46.7375 47.6478 47.2745 49.1514 50.2816H50.4401C51.8363 47.2745 52.3733 47.0597 55.9174 48.0263L56.7766 47.1671C55.5952 44.0525 55.9174 43.5156 59.032 41.6898V40.1862C55.81 38.79 55.7026 37.3939 56.7766 34.7089L55.9174 33.8497C52.3733 35.1385 51.7289 34.2793 50.3327 31.5944H49.044C47.5404 34.4941 46.896 34.8163 43.6741 33.8497ZM52.9889 44.0555C53.8313 43.1931 54.304 42.036 54.3064 40.8304C54.3064 39.6198 53.8255 38.4589 52.9695 37.6029C52.1135 36.7469 50.9526 36.266 49.742 36.266C48.5314 36.266 47.3705 36.7469 46.5145 37.6029C45.6585 38.4589 45.1776 39.6198 45.1776 40.8304C45.2049 42.0466 45.7003 43.2054 46.5605 44.0656C47.4207 44.9258 48.5795 45.4212 49.7957 45.4485C51.0009 45.4177 52.1465 44.918 52.9889 44.0555ZM51.755 38.8711C52.2757 39.3918 52.5743 40.0941 52.5881 40.8304V40.9378C52.5711 41.6632 52.2681 42.3526 51.745 42.8555C51.222 43.3585 50.5213 43.6343 49.7957 43.6227H49.6883C49.3208 43.6256 48.9564 43.5553 48.6163 43.416C48.2763 43.2767 47.9673 43.0711 47.7074 42.8113C47.4476 42.5514 47.242 42.2424 47.1027 41.9024C46.9634 41.5623 46.8931 41.1979 46.896 40.8304C46.9275 40.0999 47.2319 39.4079 47.7488 38.8909C48.2658 38.3739 48.9579 38.0696 49.6883 38.038H49.7957C50.532 38.0518 51.2342 38.3504 51.755 38.8711Z" fill="#9FEFDE"/>
</g>
<defs>
<filter id="filter0_d" x="0.0512695" y="0" width="73.5917" height="65" filterUnits="userSpaceOnUse" color-interpolation-filters="sRGB">
<feFlood flood-opacity="0" result="BackgroundImageFix"/>
<feColorMatrix in="SourceAlpha" type="matrix" values="0 0 0 0 0 0 0 0 0 0 0 0 0 0 0 0 0 0 127 0" result="hardAlpha"/>
<feOffset dx="3" dy="3"/>
<feGaussianBlur stdDeviation="5"/>
<feColorMatrix type="matrix" values="0 0 0 0 0 0 0 0 0 0 0 0 0 0 0 0 0 0 0.15 0"/>
<feBlend mode="normal" in2="BackgroundImageFix" result="effect1_dropShadow"/>
<feBlend mode="normal" in="SourceGraphic" in2="effect1_dropShadow" result="shape"/>
</filter>
</defs>
</svg>
