<svg width="66" height="65" viewBox="0 0 66 65" fill="none" xmlns="http://www.w3.org/2000/svg">
<g filter="url(#filter0_d)">
<path fill-rule="evenodd" clip-rule="evenodd" d="M18.174 7L8.20752 18.0738H50.8922L40.9257 7H18.174ZM6.99951 33.3761V40.7251H51.9996V33.3761H6.99951ZM48.0531 35.9376C48.2633 36.2521 48.3754 36.622 48.3754 37.0003C48.3536 37.4836 48.1585 37.943 47.8257 38.2942C47.4929 38.6455 47.0448 38.8651 46.5634 38.913H46.4627C46.0844 38.913 45.7146 38.8008 45.4 38.5907C45.0855 38.3805 44.8403 38.0818 44.6955 37.7322C44.5508 37.3827 44.5129 36.9981 44.5867 36.6271C44.6605 36.2561 44.8427 35.9152 45.1102 35.6477C45.3777 35.3802 45.7185 35.1981 46.0895 35.1243C46.4606 35.0505 46.8452 35.0883 47.1947 35.2331C47.5442 35.3779 47.8429 35.623 48.0531 35.9376ZM19.5834 36.3739C19.7512 35.9824 19.919 35.5909 20.0868 35.1882H22.5029L20.8922 38.8123H18.5767C18.9123 37.9399 19.2479 37.1569 19.5834 36.3739ZM16.966 38.8123H14.6505L16.1606 35.2888H18.476L16.966 38.8123ZM13.6438 37.6267C13.476 38.0182 13.3082 38.4097 13.1405 38.8123H10.825C11.1606 37.9399 11.4962 37.1569 11.8317 36.3739C11.9995 35.9824 12.1673 35.5909 12.3351 35.1882H14.6505C14.315 36.0607 13.9794 36.8437 13.6438 37.6267ZM26.3284 35.1882L24.8183 38.8123H22.5029L24.013 35.1882H26.3284ZM29.2479 37.6267C29.0801 38.0182 28.9123 38.4097 28.7445 38.8123H26.4291L27.9392 35.1882H30.2546C29.919 36.0606 29.5835 36.8436 29.2479 37.6266L29.2479 37.6267ZM52.1004 44.651V52H7.10028V44.651H52.1004ZM46.4628 50.1879C46.7162 50.2252 46.9746 50.21 47.2219 50.1434C47.4692 50.0768 47.7003 49.9602 47.9007 49.8007C48.1012 49.6412 48.2668 49.4423 48.3873 49.2163C48.5078 48.9903 48.5807 48.742 48.6014 48.4867C48.6221 48.2313 48.5902 47.9745 48.5077 47.732C48.4251 47.4895 48.2937 47.2666 48.1216 47.0769C47.9494 46.8872 47.7402 46.7349 47.5068 46.6293C47.2735 46.5237 47.0209 46.4671 46.7648 46.4631H46.4628C46.2115 46.4495 45.96 46.4856 45.7228 46.5694C45.4855 46.6532 45.2671 46.783 45.08 46.9513C44.893 47.1196 44.741 47.3232 44.6328 47.5504C44.5246 47.7776 44.4622 48.0239 44.4494 48.2752C44.5035 48.781 44.7357 49.2511 45.1046 49.6015C45.4734 49.9519 45.9548 50.1598 46.4628 50.1879ZM12.3352 46.4631C12.1674 46.8658 11.9996 47.2573 11.8318 47.6487L11.8318 47.6488C11.4962 48.4318 11.1607 49.2148 10.8251 50.0872H13.1406L14.6506 46.4631H12.3352ZM16.9661 50.0872L18.4761 46.5637H16.1607C15.9929 46.9664 15.8251 47.3579 15.6574 47.7494L15.6573 47.7495C15.3218 48.5325 14.9862 49.3154 14.6506 50.1879L16.9661 50.0872ZM24.0131 46.5637L22.503 50.0872H24.8184C24.9862 49.6846 25.154 49.2931 25.3218 48.9016C25.6574 48.1186 25.9929 47.3356 26.3285 46.4631H24.0131V46.5637ZM20.1876 46.5637L18.6775 50.1879H20.9929C21.1607 49.7852 21.3285 49.3937 21.4963 49.0022C21.8319 48.2192 22.1674 47.4362 22.503 46.5637H20.1876ZM27.9392 46.5637C27.4359 47.7718 26.9325 48.9799 26.3285 50.2886H28.6439L30.154 46.6644C29.9638 46.5824 29.7565 46.5479 29.55 46.5637H27.9392ZM52.1004 29.3489V21.9999H7.10028V29.3489H52.1004ZM47.7895 27.0577C47.4195 27.3722 46.9483 27.5423 46.4628 27.5369C46.2242 27.5253 45.9904 27.4665 45.7748 27.3638C45.5592 27.261 45.3661 27.1165 45.2069 26.9385C45.0477 26.7605 44.9254 26.5527 44.8472 26.327C44.769 26.1014 44.7364 25.8625 44.7514 25.6241C44.7993 25.1426 45.0189 24.6945 45.3702 24.3617C45.7214 24.029 46.1808 23.8338 46.6641 23.812C47.1625 23.8621 47.6243 24.0961 47.9594 24.4684C48.2944 24.8407 48.4787 25.3246 48.4762 25.8254C48.4034 26.3056 48.1595 26.7432 47.7895 27.0577ZM12.3352 23.9127L12.3352 23.9127H14.6506L13.0399 27.5369H10.7245C11.3285 26.3288 11.8318 25.1208 12.3352 23.9127ZM16.2614 23.9127H18.5768C18.0735 25.1207 17.5701 26.3288 16.9661 27.5369H14.6506L16.2614 23.9127ZM30.154 23.812C29.6507 25.1207 29.1473 26.3288 28.6439 27.5369H26.2278C26.8319 26.2281 27.3352 25.0201 27.8386 23.812H30.154ZM22.503 27.4362L24.0131 23.812H26.3285L24.8184 27.4362H22.503ZM20.8923 27.4362H18.5768L20.0869 23.9127H22.503L20.8923 27.4362Z" fill="#9FEFDE"/>
</g>
<defs>
<filter id="filter0_d" x="-0.000488281" y="0" width="65.1009" height="65" filterUnits="userSpaceOnUse" color-interpolation-filters="sRGB">
<feFlood flood-opacity="0" result="BackgroundImageFix"/>
<feColorMatrix in="SourceAlpha" type="matrix" values="0 0 0 0 0 0 0 0 0 0 0 0 0 0 0 0 0 0 127 0" result="hardAlpha"/>
<feOffset dx="3" dy="3"/>
<feGaussianBlur stdDeviation="5"/>
<feColorMatrix type="matrix" values="0 0 0 0 0 0 0 0 0 0 0 0 0 0 0 0 0 0 0.15 0"/>
<feBlend mode="normal" in2="BackgroundImageFix" result="effect1_dropShadow"/>
<feBlend mode="normal" in="SourceGraphic" in2="effect1_dropShadow" result="shape"/>
</filter>
</defs>
</svg>
