<svg width="120" height="81" viewBox="0 0 120 81" fill="none" xmlns="http://www.w3.org/2000/svg">
<path d="M57.7554 5.00296H62.6687V13.21H57.7554V5.00296Z" fill="#9FEFDE"/>
<path d="M62.6686 13.8273H57.7553C57.3831 13.8273 57.1226 13.5367 57.1226 13.2099V5.00293C57.1226 4.63979 57.4203 4.38559 57.7553 4.38559H62.6686C63.0408 4.38559 63.3014 4.6761 63.3014 5.00293V13.2099C63.3014 13.5367 63.0408 13.8273 62.6686 13.8273ZM58.4253 12.5926H62.0359V5.65658H58.4253V12.5926Z" fill="#244583"/>
<path d="M87.3095 16.1151L91.6273 20.3275L85.6718 26.1015L81.354 21.9253L87.3095 16.1151Z" fill="#9FEFDE"/>
<path d="M85.6717 26.7551C85.4856 26.7551 85.3367 26.6825 85.2251 26.5735L80.9073 22.3611C80.6468 22.1069 80.6468 21.7074 80.9073 21.4896L86.8256 15.7156C87.0862 15.4614 87.4956 15.4614 87.7189 15.7156L92.0367 19.928C92.2972 20.1822 92.2972 20.5817 92.0367 20.7996L86.1184 26.5735C86.0067 26.6825 85.8206 26.7551 85.6717 26.7551ZM82.2845 21.9253L85.6717 25.2299L90.6967 20.3275L87.3095 17.0229L82.2845 21.9253Z" fill="#244583"/>
<path d="M39.07 21.9253L34.7895 26.1378L28.834 20.3275L33.1517 16.1151L39.07 21.9253Z" fill="#9FEFDE"/>
<path d="M34.7895 26.7551C34.6034 26.7551 34.4545 26.6825 34.3428 26.5735L28.3873 20.7633C28.1268 20.5091 28.1268 20.1096 28.3873 19.8917L32.7051 15.6793C32.9656 15.4251 33.3751 15.4251 33.5984 15.6793L39.5167 21.4896C39.7772 21.7438 39.7772 22.1432 39.5167 22.3611L35.2362 26.5735C35.0873 26.6825 34.9384 26.7551 34.7895 26.7551ZM29.7273 20.3275L34.7523 25.2299L38.1395 21.9253L33.1517 17.0229L29.7273 20.3275Z" fill="#244583"/>
<path d="M60.212 79.8827C79.3096 79.8827 94.7912 64.7786 94.7912 46.1469C94.7912 27.5151 79.3096 12.411 60.212 12.411C41.1145 12.411 25.6328 27.5151 25.6328 46.1469C25.6328 64.7786 41.1145 79.8827 60.212 79.8827Z" fill="#C1C1C1"/>
<path d="M94.7911 46.1468C94.7911 64.776 79.3067 79.8826 60.2118 79.8826C50.1619 79.8826 40.6331 75.6339 34.082 68.2258C47.668 81.3352 69.5546 81.1899 82.9917 67.9353C95.6844 55.4069 96.3544 35.4705 84.555 22.1432C91.1061 28.4618 94.8283 37.1046 94.7911 46.1468Z" fill="#A4A4A4"/>
<path d="M60.212 80.5C40.7821 80.5 25 65.1028 25 46.1468C25 27.1545 40.7821 11.7937 60.212 11.7937C79.6791 11.7937 95.424 27.1909 95.424 46.1468C95.424 65.1028 79.6418 80.4637 60.212 80.5ZM60.212 13.0284C41.4521 13.0284 26.2655 27.8445 26.2655 46.1468C26.2655 64.4491 41.4521 79.2653 60.212 79.2653C78.9719 79.2653 94.1584 64.4491 94.1584 46.1468C94.1212 27.8445 78.9346 13.0647 60.212 13.0284Z" fill="#244583"/>
<path d="M60.2121 75.8155C77.0073 75.8155 90.6225 62.5324 90.6225 46.1468C90.6225 29.7613 77.0073 16.4782 60.2121 16.4782C43.4169 16.4782 29.8018 29.7613 29.8018 46.1468C29.8018 62.5324 43.4169 75.8155 60.2121 75.8155Z" fill="#EBECE9"/>
<path d="M60.2121 76.4328C43.0527 76.4328 29.1689 62.8514 29.1689 46.1469C29.1689 29.4061 43.09 15.8609 60.2121 15.8609C77.3342 15.8609 91.2552 29.4424 91.2552 46.1469C91.2552 62.8514 77.3714 76.4328 60.2121 76.4328ZM60.2121 17.0956C43.76 17.0956 30.4345 30.096 30.4345 46.1469C30.4345 62.1977 43.76 75.1982 60.2121 75.1982C76.6642 75.1982 89.9896 62.1977 89.9896 46.1469C89.9896 30.096 76.6642 17.0956 60.2121 17.0956Z" fill="#244583"/>
<path d="M60.2121 49.1972C61.9389 49.1972 63.3387 47.8315 63.3387 46.1468C63.3387 44.4622 61.9389 43.0965 60.2121 43.0965C58.4853 43.0965 57.0854 44.4622 57.0854 46.1468C57.0854 47.8315 58.4853 49.1972 60.2121 49.1972Z" fill="#9FEFDE"/>
<path d="M60.2121 49.8146C58.1276 49.8146 56.4526 48.1804 56.4526 46.1469C56.4526 44.1133 58.1276 42.4791 60.2121 42.4791C62.2965 42.4791 63.9715 44.1133 63.9715 46.1469C63.9715 48.1441 62.2965 49.8146 60.2121 49.8146ZM60.2121 43.7138C58.8348 43.7138 57.7554 44.8032 57.7554 46.1105C57.7554 47.4542 58.8721 48.5073 60.2121 48.5073C61.5893 48.5073 62.6687 47.4178 62.6687 46.1105C62.7059 44.8032 61.5893 43.7138 60.2121 43.7138Z" fill="#244583"/>
<path d="M60.2119 23.5595C59.8397 23.5595 59.5791 23.2689 59.5791 22.9421V20.727C59.5791 20.3638 59.8769 20.1096 60.2119 20.1096C60.5469 20.1096 60.8447 20.4001 60.8447 20.727V22.9421C60.8447 23.3053 60.5841 23.5595 60.2119 23.5595Z" fill="#244583"/>
<path d="M60.2119 72.1841C59.8397 72.1841 59.5791 71.8936 59.5791 71.5668V69.3516C59.5791 68.9885 59.8769 68.7343 60.2119 68.7343C60.5469 68.7343 60.8447 69.0248 60.8447 69.3516V71.5668C60.8447 71.8936 60.5841 72.1841 60.2119 72.1841Z" fill="#244583"/>
<path d="M36.4643 46.7642H34.1938C33.8216 46.7642 33.561 46.4737 33.561 46.1468C33.561 45.82 33.8588 45.5295 34.1938 45.5295H36.4643C36.8366 45.5295 37.0971 45.82 37.0971 46.1468C37.0971 46.4737 36.7993 46.7642 36.4643 46.7642Z" fill="#244583"/>
<path d="M86.2671 46.7642H83.9965C83.6243 46.7642 83.3638 46.4737 83.3638 46.1468C83.3638 45.82 83.6615 45.5295 83.9965 45.5295H86.2671C86.6393 45.5295 86.8998 45.82 86.8998 46.1468C86.8998 46.4737 86.6393 46.7642 86.2671 46.7642Z" fill="#244583"/>
<path d="M78.6367 28.1713L77.0361 29.7328L78.6367 28.1713Z" fill="#D9E2E9"/>
<path d="M77.0361 30.3502C76.6639 30.3502 76.4033 30.0597 76.4033 29.7328C76.4033 29.5513 76.4778 29.406 76.5894 29.2971L78.19 27.7356C78.4505 27.4814 78.8227 27.4814 79.0833 27.7356C79.3439 27.9898 79.3439 28.3529 79.0833 28.6071L77.4828 30.1686C77.3711 30.3139 77.185 30.3502 77.0361 30.3502Z" fill="#244583"/>
<path d="M43.4248 62.5245L41.8242 64.086L43.4248 62.5245Z" fill="#D9E2E9"/>
<path d="M41.7871 64.7397C41.4148 64.7397 41.1543 64.4492 41.1543 64.1224C41.1543 63.9408 41.2287 63.7955 41.3404 63.6866L42.941 62.1251C43.2015 61.8709 43.5737 61.8709 43.8343 62.1251C44.0948 62.3793 44.0948 62.7424 43.8343 62.9966L42.2337 64.5581C42.1221 64.6671 41.9732 64.7397 41.7871 64.7397Z" fill="#244583"/>
<path d="M41.7871 28.1713L43.3877 29.7328L41.7871 28.1713Z" fill="#D9E2E9"/>
<path d="M43.4247 30.3502C43.2386 30.3502 43.0897 30.2776 42.9781 30.1687L41.3775 28.6072C41.117 28.353 41.1542 27.9535 41.3775 27.7356C41.6381 27.5177 42.0103 27.5177 42.2709 27.7356L43.8714 29.2971C44.132 29.5513 44.132 29.9508 43.8714 30.1687C43.7597 30.3139 43.5736 30.3502 43.4247 30.3502Z" fill="#244583"/>
<path d="M77.0361 62.5245L78.6367 64.086L77.0361 62.5245Z" fill="#D9E2E9"/>
<path d="M78.6366 64.7397C78.4505 64.7397 78.3016 64.6671 78.19 64.5581L76.5894 62.9966C76.3289 62.7424 76.3661 62.343 76.5894 62.1251C76.85 61.9072 77.2222 61.9072 77.4828 62.1251L79.0833 63.6866C79.3439 63.9408 79.3439 64.3402 79.0833 64.5581C78.9716 64.6671 78.8228 64.7397 78.6366 64.7397Z" fill="#244583"/>
<path d="M50.2363 22.6516L51.0924 24.7215L50.2363 22.6516Z" fill="#D9E2E9"/>
<path d="M51.13 25.3389C50.8695 25.3389 50.6461 25.1936 50.5345 24.9394L49.6784 22.8695C49.5295 22.5427 49.7156 22.1795 50.0134 22.0706C50.3484 21.9253 50.7206 22.1069 50.8323 22.3974L51.6884 24.4673C51.8373 24.7942 51.6511 25.1573 51.3534 25.2662C51.2789 25.3389 51.2045 25.3389 51.13 25.3389Z" fill="#244583"/>
<path d="M69.3315 67.5721L70.1877 69.642L69.3315 67.5721Z" fill="#D9E2E9"/>
<path d="M70.1876 70.2594C69.9271 70.2594 69.7038 70.1141 69.5921 69.8599L68.736 67.79C68.5871 67.4632 68.7732 67.1001 69.071 66.9911C69.406 66.8459 69.7782 67.0274 69.8899 67.318L70.746 69.3879C70.8949 69.7147 70.7088 70.0778 70.411 70.1868C70.3738 70.2231 70.2621 70.2594 70.1876 70.2594Z" fill="#244583"/>
<path d="M36.1294 55.879L38.251 55.0438L36.1294 55.879Z" fill="#D9E2E9"/>
<path d="M36.1294 56.4964C35.7571 56.4964 35.4966 56.2059 35.4966 55.879C35.4966 55.6248 35.6455 55.407 35.906 55.298L38.0277 54.4628C38.3627 54.3175 38.7349 54.4628 38.8838 54.7896C39.0327 55.1165 38.8838 55.4796 38.5488 55.6249C38.5488 55.6249 38.5488 55.6249 38.5116 55.6249L36.3899 56.4601C36.3155 56.4601 36.241 56.4964 36.1294 56.4964Z" fill="#244583"/>
<path d="M82.1729 37.2499L84.2945 36.4147L82.1729 37.2499Z" fill="#D9E2E9"/>
<path d="M82.1728 37.9036C81.8006 37.9036 81.54 37.613 81.54 37.2862C81.54 37.032 81.6889 36.8141 81.9495 36.7052L84.0711 35.87C84.4061 35.7247 84.7784 35.87 84.9272 36.1968C85.0761 36.5236 84.9272 36.8868 84.5922 37.032C84.5922 37.032 84.5922 37.032 84.555 37.032L82.4334 37.8672C82.3589 37.8672 82.2473 37.9036 82.1728 37.9036Z" fill="#244583"/>
<path d="M70.1877 22.6516L69.3315 24.7215L70.1877 22.6516Z" fill="#D9E2E9"/>
<path d="M69.3315 25.3389C69.257 25.3389 69.1826 25.3389 69.0709 25.3025C68.7359 25.1573 68.587 24.7941 68.7359 24.5036L69.592 22.4337C69.7409 22.1069 70.1131 21.9616 70.4109 22.1069C70.7459 22.2522 70.8948 22.6153 70.7459 22.9058L69.8898 24.9757C69.8154 25.1936 69.592 25.3389 69.3315 25.3389Z" fill="#244583"/>
<path d="M51.13 67.5721L50.2739 69.642L51.13 67.5721Z" fill="#D9E2E9"/>
<path d="M50.2363 70.2594C49.8641 70.2594 49.6035 69.9689 49.6035 69.642C49.6035 69.5694 49.6035 69.4605 49.6407 69.3878L50.4968 67.3179C50.6457 66.9911 51.0179 66.8459 51.3157 66.9911C51.6507 67.1364 51.7996 67.4995 51.6507 67.79L50.7946 69.8599C50.7574 70.0778 50.4968 70.2594 50.2363 70.2594Z" fill="#244583"/>
<path d="M36.1294 36.4147L38.251 37.2499L36.1294 36.4147Z" fill="#D9E2E9"/>
<path d="M38.251 37.9036C38.1766 37.9036 38.1022 37.9036 37.9905 37.8672L35.8688 37.032C35.5338 36.9231 35.385 36.5599 35.4966 36.2331C35.6083 35.9063 35.9805 35.761 36.3155 35.87C36.3155 35.87 36.3155 35.87 36.3527 35.87L38.4744 36.7052C38.8094 36.8504 38.9583 37.2136 38.8094 37.5041C38.7349 37.722 38.5116 37.9036 38.251 37.9036Z" fill="#244583"/>
<path d="M82.1729 55.0075L84.2945 55.8427L82.1729 55.0075Z" fill="#D9E2E9"/>
<path d="M84.2945 56.4964C84.2201 56.4964 84.1456 56.4964 84.034 56.46L81.9123 55.6248C81.5773 55.5159 81.4284 55.1527 81.5401 54.8259C81.6517 54.4991 82.024 54.3538 82.359 54.4628C82.359 54.4628 82.359 54.4628 82.3962 54.4628L84.5178 55.298C84.8528 55.4432 85.0017 55.8064 84.8528 56.0969C84.7784 56.3511 84.5551 56.4964 84.2945 56.4964Z" fill="#244583"/>
<path d="M80.0515 46.7642H63.3388C62.9666 46.7642 62.7061 46.4737 62.7061 46.1468C62.7061 45.82 63.0038 45.5295 63.3388 45.5295H80.0515C80.4237 45.5295 80.6843 45.82 80.6843 46.1468C80.6843 46.4737 80.4237 46.7642 80.0515 46.7642Z" fill="#244583"/>
<path d="M52.8791 1.11731H67.5445C68.0284 1.11731 68.4006 1.51676 68.4006 1.95253V7.39965C68.4006 7.87173 67.9912 8.23488 67.5445 8.23488H52.8791C52.3952 8.23488 52.0229 7.83542 52.0229 7.39965V1.98885C52.0229 1.51676 52.3952 1.11731 52.8791 1.11731Z" fill="#9FEFDE"/>
<path d="M67.5446 8.88856H52.8791C52.0602 8.88856 51.353 8.23491 51.353 7.39968V1.98888C51.353 1.18997 52.023 0.5 52.8791 0.5H67.5446C68.3635 0.5 69.0707 1.15365 69.0707 1.98888V7.39968C69.0707 8.19859 68.3635 8.88856 67.5446 8.88856ZM52.8791 1.73468C52.7675 1.73468 52.6558 1.84362 52.6558 1.95256V7.39968C52.6558 7.50862 52.7675 7.61757 52.8791 7.61757H67.5446C67.6562 7.61757 67.7679 7.50862 67.7679 7.39968V1.98888C67.7679 1.87994 67.6562 1.77099 67.5446 1.77099L52.8791 1.73468Z" fill="#244583"/>
<path d="M56.1919 15.1709C55.8196 15.1709 55.5591 14.8804 55.5591 14.5536C55.5591 14.2268 55.8196 13.9726 56.1174 13.9362C56.5269 13.8999 56.8991 13.8636 57.3085 13.8273C57.6807 13.791 57.9785 14.0452 57.9785 14.4083C58.0157 14.7715 57.7552 15.062 57.383 15.062C57.0107 15.0983 56.6013 15.1346 56.2291 15.1709C56.2663 15.1709 56.2291 15.1709 56.1919 15.1709Z" fill="white"/>
<path d="M39.0698 22.5426C38.6976 22.5426 38.437 22.2521 38.437 21.9253C38.437 21.7437 38.5115 21.5622 38.6603 21.4532C43.0153 17.9671 48.1519 15.534 53.6608 14.3357C53.9958 14.263 54.3308 14.4809 54.4425 14.8077C54.5541 15.1346 54.2936 15.4614 53.9586 15.5703C48.6731 16.7687 43.7598 19.0928 39.5537 22.4337C39.3676 22.5063 39.2187 22.5426 39.0698 22.5426Z" fill="white"/>
<path d="M54.9638 7.18179C54.5916 7.18179 54.3311 6.89128 54.3311 6.56445V2.8241C54.3311 2.46096 54.6288 2.20676 54.9638 2.20676C55.336 2.20676 55.5966 2.49727 55.5966 2.8241V6.56445C55.5966 6.89128 55.336 7.18179 54.9638 7.18179Z" fill="#24C4A1"/>
<path d="M57.6064 7.18179C57.2342 7.18179 56.9736 6.89128 56.9736 6.56445V2.8241C56.9736 2.46096 57.2714 2.20676 57.6064 2.20676C57.9786 2.20676 58.2392 2.49727 58.2392 2.8241V6.56445C58.2392 6.89128 57.9414 7.18179 57.6064 7.18179Z" fill="#24C4A1"/>
<path d="M60.2119 7.18179C59.8397 7.18179 59.5791 6.89128 59.5791 6.56445V2.8241C59.5791 2.46096 59.8769 2.20676 60.2119 2.20676C60.5469 2.20676 60.8447 2.49727 60.8447 2.8241V6.56445C60.8447 6.89128 60.5841 7.18179 60.2119 7.18179Z" fill="#24C4A1"/>
<path d="M62.8549 7.18179C62.4827 7.18179 62.2222 6.89128 62.2222 6.56445V2.8241C62.2222 2.46096 62.5199 2.20676 62.8549 2.20676C63.1899 2.20676 63.4877 2.49727 63.4877 2.8241V6.56445C63.4877 6.89128 63.1899 7.18179 62.8549 7.18179Z" fill="#24C4A1"/>
<path d="M65.4604 7.18179C65.0882 7.18179 64.8276 6.89128 64.8276 6.56445V2.8241C64.8276 2.46096 65.1254 2.20676 65.4604 2.20676C65.8326 2.20676 66.0932 2.49727 66.0932 2.8241V6.56445C66.0932 6.89128 65.8326 7.18179 65.4604 7.18179Z" fill="#24C4A1"/>
</svg>
