<svg width="120" height="81" viewBox="0 0 120 81" fill="none" xmlns="http://www.w3.org/2000/svg">
<path d="M97.9558 22.9489V71.4345C97.9505 72.8257 97.3938 74.1579 96.4079 75.1394C95.4219 76.1208 94.087 76.6713 92.6958 76.6703H30.8318C29.4385 76.6713 28.1018 76.1191 27.1155 75.1351C26.1291 74.1511 25.5739 72.8157 25.5718 71.4225V22.9489H97.9558Z" fill="#EBECE9"/>
<path d="M97.9557 22.9489V71.4345C97.9504 72.8257 97.3938 74.1579 96.4078 75.1394C95.4218 76.1208 94.0869 76.6713 92.6957 76.6703H88.9077C89.5978 76.6713 90.2812 76.5364 90.9191 76.2732C91.557 76.01 92.1367 75.6237 92.6252 75.1363C93.1137 74.649 93.5013 74.0701 93.766 73.4329C94.0307 72.7956 94.1672 72.1125 94.1677 71.4225V22.9489H97.9557Z" fill="#C1C1C1"/>
<path d="M97.9557 9.56164V22.9489H25.5557V9.56164C25.5588 8.16875 26.1144 6.834 27.1005 5.8502C28.0866 4.86641 29.4227 4.3139 30.8157 4.3139H92.6957C94.0886 4.3139 95.4247 4.86641 96.4108 5.8502C97.3969 6.834 97.9525 8.16875 97.9557 9.56164V9.56164Z" fill="#9FEFDE"/>
<path d="M97.6799 9.56164V22.9489H94.1479V12.6735C94.1447 11.2841 93.5919 9.95232 92.6101 8.96909C91.6283 7.98586 90.2974 7.43104 88.9079 7.42576H27.0239C26.5675 7.42972 26.1134 7.49016 25.6719 7.60573C26.0664 6.63365 26.7418 5.80129 27.6117 5.21493C28.4817 4.62857 29.5067 4.31485 30.5559 4.3139H92.4199C93.8128 4.3139 95.1489 4.86641 96.135 5.8502C97.1211 6.834 97.6767 8.16875 97.6799 9.56164V9.56164Z" fill="#24C4A1"/>
<path d="M89.8876 15.9173C91.1512 15.9173 92.1756 14.8929 92.1756 13.6294C92.1756 12.3658 91.1512 11.3415 89.8876 11.3415C88.624 11.3415 87.5996 12.3658 87.5996 13.6294C87.5996 14.8929 88.624 15.9173 89.8876 15.9173Z" fill="white"/>
<path d="M89.888 16.4732C89.3254 16.474 88.7751 16.3079 88.3069 15.9959C87.8387 15.6839 87.4735 15.24 87.2577 14.7204C87.0418 14.2008 86.9849 13.6289 87.0942 13.077C87.2035 12.5251 87.474 12.018 87.8716 11.6198C88.2692 11.2217 88.776 10.9505 89.3277 10.8404C89.8795 10.7304 90.4516 10.7865 90.9715 11.0016C91.4914 11.2167 91.9358 11.5812 92.2485 12.049C92.5611 12.5167 92.728 13.0667 92.728 13.6293C92.728 14.3829 92.4289 15.1056 91.8965 15.6388C91.364 16.172 90.6416 16.4721 89.888 16.4732ZM89.888 11.8934C89.5447 11.8934 89.209 11.9952 88.9236 12.186C88.6381 12.3767 88.4156 12.6478 88.2842 12.965C88.1528 13.2822 88.1184 13.6313 88.1854 13.968C88.2524 14.3047 88.4177 14.6141 88.6605 14.8568C88.9033 15.0996 89.2126 15.2649 89.5494 15.3319C89.8861 15.3989 90.2352 15.3645 90.5524 15.2331C90.8696 15.1017 91.1407 14.8792 91.3315 14.5938C91.5222 14.3083 91.624 13.9727 91.624 13.6293C91.623 13.1693 91.4397 12.7284 91.1144 12.403C90.7891 12.0777 90.3481 11.8945 89.888 11.8934Z" fill="#244583"/>
<path d="M80.8598 15.9173C82.1234 15.9173 83.1478 14.8929 83.1478 13.6294C83.1478 12.3658 82.1234 11.3415 80.8598 11.3415C79.5962 11.3415 78.5718 12.3658 78.5718 13.6294C78.5718 14.8929 79.5962 15.9173 80.8598 15.9173Z" fill="white"/>
<path d="M80.8557 16.4732C80.2932 16.4732 79.7434 16.3064 79.2757 15.9939C78.808 15.6814 78.4435 15.2373 78.2282 14.7176C78.013 14.198 77.9566 13.6262 78.0664 13.0746C78.1761 12.5229 78.447 12.0161 78.8447 11.6184C79.2425 11.2207 79.7492 10.9499 80.3009 10.8401C80.8526 10.7304 81.4244 10.7867 81.9441 11.002C82.4637 11.2172 82.9079 11.5817 83.2204 12.0494C83.5329 12.5171 83.6997 13.0669 83.6997 13.6294C83.7002 14.003 83.627 14.373 83.4843 14.7183C83.3416 15.0635 83.1321 15.3772 82.8679 15.6414C82.6037 15.9056 82.29 16.1151 81.9447 16.2578C81.5994 16.4005 81.2293 16.4737 80.8557 16.4732ZM80.8557 11.8935C80.5124 11.8935 80.1767 11.9952 79.8912 12.186C79.6058 12.3767 79.3833 12.6478 79.2519 12.965C79.1205 13.2822 79.0861 13.6313 79.1531 13.968C79.2201 14.3047 79.3854 14.6141 79.6282 14.8568C79.871 15.0996 80.1803 15.2649 80.517 15.3319C80.8538 15.3989 81.2028 15.3645 81.5201 15.2331C81.8373 15.1017 82.1084 14.8792 82.2992 14.5938C82.4899 14.3083 82.5917 13.9727 82.5917 13.6294C82.5917 13.169 82.4088 12.7274 82.0833 12.4019C81.7577 12.0763 81.3161 11.8935 80.8557 11.8935Z" fill="#244583"/>
<path d="M71.8319 15.9173C73.0956 15.9173 74.1199 14.8929 74.1199 13.6294C74.1199 12.3658 73.0956 11.3415 71.8319 11.3415C70.5683 11.3415 69.5439 12.3658 69.5439 13.6294C69.5439 14.8929 70.5683 15.9173 71.8319 15.9173Z" fill="white"/>
<path d="M71.8279 16.4732C71.2654 16.4732 70.7155 16.3064 70.2478 15.9939C69.7802 15.6814 69.4156 15.2373 69.2004 14.7176C68.9851 14.198 68.9288 13.6262 69.0385 13.0746C69.1483 12.5229 69.4191 12.0161 69.8169 11.6184C70.2146 11.2207 70.7214 10.9499 71.273 10.8401C71.8247 10.7304 72.3966 10.7867 72.9162 11.002C73.4359 11.2172 73.8801 11.5817 74.1926 12.0494C74.5051 12.5171 74.6719 13.0669 74.6719 13.6294C74.6724 14.003 74.5992 14.373 74.4565 14.7183C74.3137 15.0635 74.1043 15.3772 73.8401 15.6414C73.5759 15.9056 73.2622 16.1151 72.9169 16.2578C72.5716 16.4005 72.2015 16.4737 71.8279 16.4732V16.4732ZM71.8279 11.8935C71.4847 11.8942 71.1495 11.9967 70.8645 12.1879C70.5795 12.3792 70.3577 12.6506 70.2269 12.9678C70.0961 13.2851 70.0623 13.634 70.1297 13.9705C70.1972 14.3069 70.3628 14.6159 70.6058 14.8583C70.8487 15.1006 71.158 15.2655 71.4947 15.3322C71.8313 15.3989 72.1802 15.3642 72.4971 15.2327C72.8141 15.1012 73.085 14.8788 73.2756 14.5934C73.4662 14.308 73.5679 13.9725 73.5679 13.6294V13.6294C73.5668 13.1686 73.383 12.7271 73.0568 12.4016C72.7306 12.0762 72.2887 11.8935 71.8279 11.8935V11.8935Z" fill="#244583"/>
<path d="M62.74 14.1814H33.176C33.0296 14.1814 32.8892 14.1232 32.7857 14.0197C32.6822 13.9162 32.624 13.7758 32.624 13.6294C32.624 13.483 32.6822 13.3426 32.7857 13.239C32.8892 13.1355 33.0296 13.0774 33.176 13.0774H62.74C62.8864 13.0774 63.0268 13.1355 63.1304 13.239C63.2339 13.3426 63.292 13.483 63.292 13.6294C63.292 13.7758 63.2339 13.9162 63.1304 14.0197C63.0268 14.1232 62.8864 14.1814 62.74 14.1814Z" fill="#244583"/>
<path d="M83.8278 80.4981H83.1158C83.0391 80.5046 82.9619 80.4951 82.889 80.4702C82.8162 80.4454 82.7493 80.4056 82.6926 80.3535C82.6359 80.3015 82.5906 80.2382 82.5596 80.1677C82.5287 80.0972 82.5127 80.0211 82.5127 79.9441C82.5127 79.8671 82.5287 79.791 82.5596 79.7205C82.5906 79.65 82.6359 79.5867 82.6926 79.5347C82.7493 79.4826 82.8162 79.4428 82.889 79.418C82.9619 79.3931 83.0391 79.3836 83.1158 79.3901H83.8278C83.9666 79.4019 84.0959 79.4654 84.1902 79.568C84.2844 79.6705 84.3367 79.8048 84.3367 79.9441C84.3367 80.0834 84.2844 80.2177 84.1902 80.3202C84.0959 80.4228 83.9666 80.4863 83.8278 80.4981Z" fill="#244583"/>
<path d="M80.9078 80.4981H68.9078C68.8311 80.5046 68.7539 80.4951 68.681 80.4702C68.6082 80.4454 68.5413 80.4056 68.4846 80.3535C68.4279 80.3015 68.3826 80.2382 68.3516 80.1677C68.3207 80.0972 68.3047 80.0211 68.3047 79.9441C68.3047 79.8671 68.3207 79.791 68.3516 79.7205C68.3826 79.65 68.4279 79.5867 68.4846 79.5347C68.5413 79.4826 68.6082 79.4428 68.681 79.418C68.7539 79.3931 68.8311 79.3836 68.9078 79.3901H80.9078C81.0466 79.4019 81.1759 79.4654 81.2702 79.568C81.3644 79.6705 81.4167 79.8048 81.4167 79.9441C81.4167 80.0834 81.3644 80.2177 81.2702 80.3202C81.1759 80.4228 81.0466 80.4863 80.9078 80.4981Z" fill="#244583"/>
<path d="M22.5517 8.17766C22.4053 8.17766 22.2649 8.11951 22.1614 8.016C22.0579 7.91248 21.9997 7.77208 21.9997 7.62568C21.9936 7.58324 21.9936 7.54016 21.9997 7.49771C22.4294 5.65753 23.4241 3.99787 24.8443 2.75127C26.2646 1.50467 28.0393 0.733601 29.9197 0.546061C30.066 0.531526 30.2122 0.575513 30.3261 0.668467C30.4401 0.761421 30.5126 0.895765 30.5277 1.04203C30.5354 1.11437 30.5287 1.18751 30.5078 1.25721C30.487 1.3269 30.4525 1.39175 30.4063 1.44797C30.3601 1.50419 30.3032 1.55063 30.2389 1.58463C30.1746 1.61863 30.1042 1.63951 30.0317 1.64601C28.3808 1.81056 26.8228 2.48755 25.5761 3.58214C24.3294 4.67673 23.4564 6.13399 23.0797 7.74965C23.0521 7.86967 22.9851 7.97702 22.8894 8.05457C22.7937 8.13212 22.6748 8.17545 22.5517 8.17766V8.17766Z" fill="#244583"/>
<path d="M33.3076 1.61001H32.6236C32.5469 1.61653 32.4697 1.60705 32.3968 1.58218C32.324 1.5573 32.2571 1.51756 32.2004 1.46548C32.1437 1.4134 32.0984 1.35012 32.0675 1.27964C32.0365 1.20915 32.0205 1.13299 32.0205 1.056C32.0205 0.979018 32.0365 0.902905 32.0675 0.83242C32.0984 0.761935 32.1437 0.698611 32.2004 0.646531C32.2571 0.594451 32.324 0.554711 32.3968 0.529832C32.4697 0.504953 32.5469 0.495476 32.6236 0.502H33.3076C33.4464 0.513805 33.5757 0.577289 33.67 0.679881C33.7642 0.782473 33.8165 0.9167 33.8165 1.056C33.8165 1.19531 33.7642 1.32954 33.67 1.43213C33.5757 1.53472 33.4464 1.5982 33.3076 1.61001Z" fill="#244583"/>
<path d="M57.3557 48.7276C57.2093 48.7256 57.0695 48.6662 56.9663 48.5623C56.8631 48.4583 56.8047 48.3181 56.8037 48.1717C56.8035 48.0957 56.8198 48.0206 56.8517 47.9517L65.6517 28.3207C65.6806 28.254 65.7224 28.1936 65.7746 28.143C65.8268 28.0925 65.8885 28.0527 65.9561 28.0259C66.0237 27.9992 66.0959 27.986 66.1686 27.9872C66.2413 27.9884 66.313 28.0038 66.3797 28.0327C66.4464 28.0616 66.5068 28.1033 66.5574 28.1555C66.6079 28.2078 66.6477 28.2694 66.6745 28.337C66.7012 28.4046 66.7144 28.4768 66.7132 28.5495C66.7121 28.6222 66.6966 28.6939 66.6677 28.7606V28.7606L57.8677 48.3877C57.8244 48.4852 57.7537 48.5681 57.6643 48.6263C57.5748 48.6845 57.4704 48.7155 57.3637 48.7156L57.3557 48.7276Z" fill="#244583"/>
<path d="M52.0755 45.7478C52.0015 45.7493 51.9279 45.7359 51.8592 45.7084C51.7905 45.681 51.728 45.64 51.6755 45.5878L44.8435 38.7522C44.7892 38.7006 44.7461 38.6385 44.7166 38.5698C44.6871 38.501 44.6719 38.427 44.6719 38.3522C44.6719 38.2774 44.6871 38.2033 44.7166 38.1346C44.7461 38.0658 44.7892 38.0038 44.8435 37.9522L51.7075 31.1366C51.8123 31.04 51.9503 30.9876 52.0928 30.9905C52.2353 30.9934 52.3712 31.0513 52.4719 31.1521C52.5727 31.2529 52.6306 31.3887 52.6335 31.5312C52.6364 31.6737 52.5841 31.8117 52.4875 31.9165L46.0475 38.3602L52.4875 44.8038C52.5412 44.8557 52.5839 44.9179 52.6131 44.9866C52.6422 45.0553 52.6573 45.1292 52.6573 45.2038C52.6573 45.2785 52.6422 45.3524 52.6131 45.4211C52.5839 45.4898 52.5412 45.552 52.4875 45.6038C52.4351 45.6561 52.3726 45.6973 52.3039 45.7248C52.2351 45.7523 52.1615 45.7655 52.0875 45.7638L52.0755 45.7478Z" fill="#244583"/>
<path d="M71.4557 45.7478C71.3454 45.7501 71.2369 45.7193 71.1442 45.6593C71.0516 45.5993 70.9791 45.513 70.936 45.4113C70.8929 45.3097 70.8813 45.1975 70.9027 45.0892C70.924 44.981 70.9773 44.8815 71.0557 44.8039L77.4957 38.3602L71.0557 31.9165C70.9496 31.8147 70.8884 31.6749 70.8854 31.5279C70.8824 31.3808 70.9379 31.2386 71.0397 31.1326C71.1416 31.0265 71.2814 30.9652 71.4284 30.9622C71.5754 30.9592 71.7176 31.0147 71.8237 31.1166V31.1166L78.6597 37.9522C78.714 38.0038 78.7571 38.0658 78.7866 38.1346C78.8161 38.2033 78.8313 38.2774 78.8313 38.3522C78.8313 38.427 78.8161 38.501 78.7866 38.5698C78.7571 38.6386 78.714 38.7006 78.6597 38.7522L71.8237 45.5919C71.7717 45.6444 71.7092 45.6854 71.6403 45.7123C71.5714 45.7392 71.4976 45.7513 71.4237 45.7478H71.4557Z" fill="#244583"/>
<path d="M89.4157 67.8108H43.2237C43.0849 67.7989 42.9556 67.7355 42.8614 67.6329C42.7671 67.5303 42.7148 67.3961 42.7148 67.2567C42.7148 67.1174 42.7671 66.9832 42.8614 66.8806C42.9556 66.778 43.0849 66.7145 43.2237 66.7027H89.4157C89.4924 66.6962 89.5697 66.7057 89.6425 66.7306C89.7154 66.7555 89.7823 66.7952 89.839 66.8473C89.8957 66.8994 89.9409 66.9627 89.9719 67.0332C90.0028 67.1036 90.0188 67.1798 90.0188 67.2567C90.0188 67.3337 90.0028 67.4099 89.9719 67.4804C89.9409 67.5509 89.8957 67.6141 89.839 67.6662C89.7823 67.7183 89.7154 67.758 89.6425 67.7829C89.5697 67.8078 89.4924 67.8173 89.4157 67.8108Z" fill="#244583"/>
<path d="M37.356 67.8108H34.108C34.0313 67.8173 33.9541 67.8078 33.8812 67.7829C33.8083 67.758 33.7415 67.7183 33.6848 67.6662C33.6281 67.6141 33.5828 67.5509 33.5518 67.4804C33.5209 67.4099 33.5049 67.3337 33.5049 67.2567C33.5049 67.1798 33.5209 67.1036 33.5518 67.0332C33.5828 66.9627 33.6281 66.8994 33.6848 66.8473C33.7415 66.7952 33.8083 66.7555 33.8812 66.7306C33.9541 66.7057 34.0313 66.6962 34.108 66.7027H37.352C37.4908 66.7145 37.6201 66.778 37.7144 66.8806C37.8086 66.9832 37.8609 67.1174 37.8609 67.2567C37.8609 67.3961 37.8086 67.5303 37.7144 67.6329C37.6201 67.7355 37.4908 67.7989 37.352 67.8108H37.356Z" fill="#244583"/>
<path d="M89.4159 56.2713H43.2239C43.0775 56.2713 42.9371 56.2132 42.8335 56.1096C42.73 56.0061 42.6719 55.8657 42.6719 55.7193C42.6719 55.5729 42.73 55.4325 42.8335 55.329C42.9371 55.2254 43.0775 55.1673 43.2239 55.1673H89.4159C89.5623 55.1673 89.7027 55.2254 89.8062 55.329C89.9097 55.4325 89.9679 55.5729 89.9679 55.7193C89.9679 55.8657 89.9097 56.0061 89.8062 56.1096C89.7027 56.2132 89.5623 56.2713 89.4159 56.2713Z" fill="#244583"/>
<path d="M37.3557 56.2713H34.1077C33.9613 56.2713 33.8209 56.2132 33.7173 56.1096C33.6138 56.0061 33.5557 55.8657 33.5557 55.7193C33.5557 55.5729 33.6138 55.4325 33.7173 55.329C33.8209 55.2254 33.9613 55.1673 34.1077 55.1673H37.3517C37.4981 55.1673 37.6385 55.2254 37.742 55.329C37.8455 55.4325 37.9037 55.5729 37.9037 55.7193C37.9037 55.8657 37.8455 56.0061 37.742 56.1096C37.6385 56.2132 37.4981 56.2713 37.3517 56.2713H37.3557Z" fill="#244583"/>
<path d="M97.9559 23.5049H25.5559C25.4831 23.5049 25.411 23.4905 25.3438 23.4625C25.2765 23.4346 25.2155 23.3935 25.1642 23.3419C25.1129 23.2902 25.0723 23.2289 25.0448 23.1614C25.0173 23.094 25.0034 23.0218 25.0039 22.949V9.56164C25.0082 8.02269 25.6222 6.54815 26.7116 5.46107C27.801 4.37398 29.2769 3.76299 30.8159 3.76193H92.6959C94.2356 3.76087 95.7127 4.37118 96.8026 5.45872C97.8924 6.54626 98.5058 8.02203 98.5079 9.56164V22.949C98.5085 23.0218 98.4946 23.094 98.4671 23.1614C98.4396 23.2289 98.399 23.2902 98.3477 23.3419C98.2964 23.3935 98.2353 23.4346 98.1681 23.4625C98.1009 23.4905 98.0287 23.5049 97.9559 23.5049V23.5049ZM26.1279 22.397H97.4039V9.56164C97.3997 8.31584 96.9018 7.12253 96.0193 6.24311C95.1369 5.36369 93.9418 4.86988 92.6959 4.86989H30.8319C29.5864 4.86988 28.3918 5.36382 27.5099 6.24335C26.6281 7.12288 26.1311 8.31621 26.1279 9.56164V22.397Z" fill="#244583"/>
<path d="M92.6955 77.2382H30.8315C29.2918 77.2371 27.8153 76.6256 26.7258 75.5376C25.6363 74.4497 25.0227 72.9741 25.0195 71.4345V22.9489C25.0195 22.8025 25.0777 22.6621 25.1812 22.5586C25.2847 22.4551 25.4251 22.397 25.5715 22.397H97.9715C98.1179 22.397 98.2583 22.4551 98.3618 22.5586C98.4654 22.6621 98.5235 22.8025 98.5235 22.9489V71.4345C98.5225 72.1984 98.3708 72.9545 98.0773 73.6598C97.7837 74.365 97.354 75.0054 96.8127 75.5445C96.2715 76.0835 95.6292 76.5105 94.9227 76.8012C94.2163 77.0918 93.4594 77.2403 92.6955 77.2382V77.2382ZM26.1275 23.5049V71.4345C26.1296 72.6806 26.6262 73.875 27.5081 74.7554C28.3901 75.6358 29.5853 76.1302 30.8315 76.1302H92.6955C93.9421 76.1302 95.1378 75.6359 96.0203 74.7556C96.9029 73.8753 97.4003 72.681 97.4035 71.4345V23.5049H26.1275Z" fill="#244583"/>
<path d="M42.5557 19.6051H42.2477C42.0302 19.5903 41.8265 19.4935 41.6778 19.3342C41.529 19.1749 41.4463 18.9651 41.4463 18.7472C41.4463 18.5292 41.529 18.3194 41.6778 18.1601C41.8265 18.0009 42.0302 17.904 42.2477 17.8892H42.5557C42.6722 17.8781 42.7898 17.891 42.9012 17.927C43.0126 17.963 43.1155 18.0213 43.2035 18.0985C43.2916 18.1757 43.3629 18.27 43.4133 18.3757C43.4636 18.4814 43.4918 18.5963 43.4961 18.7133C43.5005 18.8303 43.4809 18.9469 43.4386 19.0561C43.3963 19.1652 43.3322 19.2646 43.2501 19.3481C43.1681 19.4316 43.0698 19.4975 42.9614 19.5417C42.853 19.5859 42.7367 19.6075 42.6197 19.6051H42.5557Z" fill="white"/>
<path d="M56.244 19.6051H45.736C45.5185 19.5902 45.3148 19.4934 45.1661 19.3341C45.0173 19.1749 44.9346 18.9651 44.9346 18.7471C44.9346 18.5292 45.0173 18.3193 45.1661 18.1601C45.3148 18.0008 45.5185 17.904 45.736 17.8891H56.244C56.4614 17.904 56.6651 18.0008 56.8138 18.1601C56.9626 18.3193 57.0453 18.5292 57.0453 18.7471C57.0453 18.9651 56.9626 19.1749 56.8138 19.3341C56.6651 19.4934 56.4614 19.5902 56.244 19.6051Z" fill="white"/>
</svg>
