<svg width="68" height="40" viewBox="0 0 68 40" fill="none" xmlns="http://www.w3.org/2000/svg">
<g filter="url(#filter0_d)">
<path fill-rule="evenodd" clip-rule="evenodd" d="M16.8493 7.09434H18.7361C18.7361 7.18868 18.7597 7.30659 18.7833 7.42451L18.7833 7.42453C18.8069 7.54246 18.8305 7.66038 18.8305 7.75472V16.2454C18.8305 20.8681 15.8116 22.1888 12.1323 21.8115C9.11338 21.4341 7.69828 20.2077 7.50959 17.1888C7.36849 14.6489 7.38567 12.1617 7.40331 9.60899L7.40331 9.60898C7.40926 8.74829 7.41525 7.88014 7.41525 7H9.20773V8.60379C9.24546 9.77361 9.25301 10.9434 9.26056 12.1133C9.27188 13.868 9.2832 15.6227 9.39641 17.3775C9.38503 17.7071 9.44 18.0357 9.55804 18.3436C9.67609 18.6516 9.85481 18.9327 10.0836 19.1703C10.3124 19.4079 10.5866 19.5971 10.8899 19.7267C11.1932 19.8563 11.5194 19.9236 11.8493 19.9247C12.7921 20.0348 13.7461 20.003 14.6795 19.8303C15.1645 19.7453 15.6095 19.5071 15.9491 19.1505C16.2888 18.7939 16.5051 18.3378 16.5663 17.8492C16.7071 17.0693 16.8016 16.2817 16.8493 15.4907V7.09434ZM31.6609 18.1324V7.18887H33.4534V21.623H31.4722L24.0193 10.4908H23.8307V21.623H22.0382V7.18887H24.0193L31.4722 18.2267L31.6609 18.1324ZM48.8308 13.9813L53.9252 7.09443H51.7553L51.7551 7.09468L51.7551 7.0947L51.7551 7.09473L51.7551 7.09475L51.7551 7.09478L51.755 7.0948L51.755 7.09483L51.755 7.09485L51.755 7.09488L51.7549 7.0949L51.7549 7.09493L51.7549 7.09495L51.7549 7.09498L51.7548 7.095L51.7548 7.09503L51.7548 7.09505L51.7548 7.09508L51.7548 7.0951L51.7547 7.09513L51.7547 7.09515L51.7547 7.09518C50.4341 8.8874 49.1136 10.6796 47.6987 12.4718L43.9251 7.09443H41.6609L46.5666 14.0756C44.7744 16.5281 42.8879 19.075 41.0013 21.6218L41.0007 21.6227L41.0005 21.6229H43.359L47.6987 15.5851L51.944 21.6229H54.3025L48.8308 13.9813ZM38.9251 21.623H37.1327V7.18887H38.9251V21.623ZM7.50969 26.34L7.79271 25.4909H8.73611L9.01914 26.34H9.3965L8.45309 23.6985H8.07573L7.13232 26.34H7.50969ZM8.35875 24.4532L8.64177 25.2079H7.88705L8.17007 24.4532C8.17007 24.3589 8.19366 24.2881 8.21724 24.2173C8.23844 24.1538 8.25963 24.0902 8.26371 24.0095C8.26195 24.1625 8.29437 24.3141 8.35875 24.4532ZM9.77391 24.9246V24.4529H10.0569V24.7359C10.1265 24.6227 10.2235 24.5288 10.3389 24.4629C10.4543 24.3969 10.5844 24.361 10.7173 24.3586C11.0003 24.3586 11.3777 24.5473 11.3777 25.2076V26.3397H11.0003V25.2076C11.0003 24.9246 10.906 24.6416 10.5286 24.6416C10.4244 24.6593 10.3265 24.7032 10.244 24.7692C10.1614 24.8353 10.0971 24.9212 10.0569 25.019V26.3397H9.77391V24.9246ZM15.0191 25.5195C15.065 25.3569 15.0779 25.1868 15.0569 25.0191V24.8305C15.0521 24.5067 14.9213 24.1976 14.6923 23.9686C14.4634 23.7397 14.1543 23.6089 13.8305 23.604H13.7362C13.3883 23.6741 13.0756 23.8631 12.8519 24.1385C12.6281 24.4139 12.5071 24.7586 12.5097 25.1135V25.2078C12.5146 25.5316 12.6454 25.8407 12.8743 26.0697C13.1033 26.2986 13.4124 26.4294 13.7362 26.4343H13.9248C14.093 26.4179 14.2562 26.368 14.4047 26.2876C14.5532 26.2071 14.6841 26.0977 14.7897 25.9657C14.8952 25.8338 14.9732 25.6821 15.0191 25.5195ZM13.8305 26.0569C13.2645 26.0569 12.9814 25.5852 12.9814 25.0191C12.9814 24.4531 13.2645 23.8871 13.8305 23.8871C14.3965 23.8871 14.6796 24.4531 14.6796 25.0191C14.6796 25.5852 14.3965 26.0569 13.8305 26.0569ZM15.5285 25.0188V24.3585H15.8116V24.6415C15.8658 24.5154 15.9595 24.4104 16.0786 24.3424C16.1978 24.2743 16.3358 24.2468 16.472 24.2641C16.7055 24.2876 16.9218 24.3973 17.0788 24.5717C17.2358 24.7461 17.3222 24.9728 17.321 25.2075C17.321 25.8679 16.9437 26.2453 16.472 26.2453C16.3616 26.2484 16.2522 26.2242 16.1534 26.1748C16.0546 26.1255 15.9696 26.0524 15.9059 25.9623V27H15.5285V25.0188ZM15.8116 25.5849V25.7736C15.8446 25.8941 15.9201 25.9986 16.0241 26.068C16.1281 26.1373 16.2536 26.1668 16.3776 26.1509C16.755 26.1509 16.9437 25.8679 16.9437 25.3962C16.9437 24.9245 16.755 24.6415 16.3776 24.6415C16.244 24.645 16.1154 24.6934 16.0127 24.779C15.91 24.8646 15.8391 24.9824 15.8116 25.1132V25.5849ZM18.4532 26.0567C18.0758 26.0567 17.8871 25.7737 17.8871 25.3963L19.3966 25.4907V25.2076C19.3966 24.9825 19.3071 24.7665 19.1479 24.6073C18.9886 24.448 18.7727 24.3586 18.5475 24.3586H18.4532C18.329 24.3704 18.2085 24.4066 18.0984 24.4653C17.9884 24.524 17.8911 24.6039 17.8122 24.7004C17.7332 24.7969 17.6742 24.908 17.6385 25.0275C17.6027 25.147 17.5911 25.2723 17.6041 25.3963V25.4907C17.6276 25.7242 17.7372 25.9406 17.9117 26.0976C18.0861 26.2546 18.3128 26.3409 18.5475 26.3397C18.772 26.3621 18.9986 26.3297 19.2079 26.2454L19.1135 25.9624C18.9353 26.0392 18.741 26.0716 18.5475 26.0567H18.4532ZM18.8174 24.8705C18.8841 24.9706 18.9214 25.0874 18.9249 25.2076H17.8871C17.898 25.0611 17.9611 24.9234 18.065 24.8195C18.1689 24.7156 18.3066 24.6525 18.4532 24.6416H18.5475C18.6571 24.6911 18.7507 24.7704 18.8174 24.8705ZM19.6796 24.9246V24.4529H19.9626V24.7359C20.0322 24.6227 20.1292 24.5288 20.2446 24.4629C20.36 24.3969 20.4901 24.361 20.623 24.3586C20.906 24.3586 21.2834 24.5473 21.2834 25.2076V26.3397H20.906V25.2076C20.906 24.9246 20.8117 24.6416 20.4343 24.6416C20.3301 24.6593 20.2321 24.7032 20.1496 24.7692C20.0671 24.8353 20.0027 24.9212 19.9626 25.019V26.3397H19.5852L19.6796 24.9246ZM23.9249 26.4343C24.2161 26.4168 24.5027 26.3531 24.7739 26.2456V25.0192H23.9249V25.3022H24.4909V26.057C24.3461 26.1332 24.1823 26.166 24.0192 26.1513H23.8305C23.7116 26.1354 23.5972 26.0955 23.4942 26.0341C23.3911 25.9726 23.3016 25.891 23.2311 25.7939C23.1605 25.6969 23.1104 25.5866 23.0837 25.4697C23.057 25.3527 23.0543 25.2316 23.0758 25.1136V24.9249C23.0751 24.7926 23.1023 24.6617 23.1555 24.5406C23.2087 24.4196 23.2867 24.311 23.3846 24.2221C23.4825 24.1331 23.5979 24.0657 23.7235 24.0243C23.8491 23.9828 23.982 23.9682 24.1136 23.9815C24.3071 23.9666 24.5014 23.999 24.6796 24.0758L24.7739 23.7928C24.5629 23.7154 24.3379 23.6833 24.1136 23.6984H23.9249C23.5677 23.7267 23.2341 23.8876 22.9897 24.1495C22.7453 24.4114 22.6077 24.7553 22.6041 25.1136C22.6021 25.4652 22.7375 25.8037 22.9815 26.057C23.0965 26.1915 23.2424 26.296 23.4067 26.3618C23.571 26.4275 23.7488 26.4524 23.9249 26.4343ZM25.3401 25.019V24.4529H25.6231V24.8303C25.7175 24.5473 25.9061 24.4529 26.1892 24.3586H26.2835V24.6416H26.1892C26.1261 24.6374 26.063 24.6468 26.0038 24.669C25.9447 24.6912 25.891 24.7258 25.8464 24.7705C25.8017 24.8152 25.7671 24.8688 25.7449 24.928C25.7226 24.9871 25.7133 25.0503 25.7175 25.1133V26.3397H25.3401V25.019ZM28.0325 26.0728C28.1883 25.8824 28.2706 25.6424 28.2646 25.3965C28.273 25.2705 28.2543 25.1441 28.2098 25.0258C28.1653 24.9076 28.0961 24.8002 28.0068 24.7109C27.9175 24.6216 27.8101 24.5524 27.6919 24.5079C27.5736 24.4634 27.4473 24.4448 27.3212 24.4531H27.2269C26.9846 24.4959 26.7657 24.6242 26.6099 24.8146C26.4542 25.005 26.3718 25.2449 26.3778 25.4908C26.3695 25.6169 26.3882 25.7433 26.4326 25.8615C26.4771 25.9797 26.5463 26.0871 26.6356 26.1765C26.7249 26.2658 26.8323 26.335 26.9505 26.3794C27.0688 26.4239 27.1952 26.4426 27.3212 26.4343H27.4156C27.6578 26.3914 27.8767 26.2632 28.0325 26.0728ZM27.3212 26.1512C27.0382 26.1512 26.7552 25.7739 26.7552 25.3965C26.7552 25.0191 26.8495 24.6418 27.3212 24.6418C27.7929 24.6418 27.8873 24.9248 27.8873 25.3965C27.8873 25.8682 27.6042 26.1512 27.3212 26.1512ZM30.34 26.3398H30.057V26.0568C29.9874 26.17 29.8904 26.2639 29.775 26.3299C29.6596 26.3958 29.5295 26.4317 29.3966 26.4342C29.1136 26.4342 28.7362 26.2455 28.7362 25.5851V24.453H29.1136V25.4908C29.1136 25.8681 29.2079 26.1511 29.5853 26.1511C29.6825 26.1529 29.7783 26.1273 29.8617 26.0773C29.9451 26.0272 30.0128 25.9548 30.057 25.8681V24.5474H30.4344L30.34 25.7738V26.3398ZM30.9061 24.3585V25.0188V27H31.2835V25.9623C31.3472 26.0524 31.4322 26.1255 31.531 26.1748C31.6297 26.2242 31.7391 26.2484 31.8495 26.2453C32.3212 26.2453 32.6986 25.8679 32.6986 25.2075C32.6998 24.9728 32.6134 24.7461 32.4564 24.5717C32.2994 24.3973 32.083 24.2876 31.8495 24.2641C31.7134 24.2468 31.5753 24.2743 31.4562 24.3424C31.3371 24.4104 31.2433 24.5154 31.1891 24.6415V24.3585H30.9061ZM31.2835 25.7736V25.5849H31.1891V25.1132C31.2167 24.9824 31.2875 24.8646 31.3902 24.779C31.4929 24.6934 31.6215 24.645 31.7552 24.6415C32.1325 24.6415 32.3212 24.9245 32.3212 25.3962C32.3212 25.8679 32.1325 26.1509 31.7552 26.1509C31.6453 26.1514 31.5385 26.1142 31.4527 26.0455C31.3669 25.9769 31.3072 25.8809 31.2835 25.7736ZM33.9251 25.868C34.0972 25.9726 34.2907 26.0371 34.4911 26.0566C34.8685 26.0566 35.0572 25.868 35.0572 25.5849C35.0572 25.3019 34.9628 25.2076 34.5855 25.0189C34.2081 24.8302 33.9251 24.6415 33.9251 24.2642C33.9383 24.0684 34.0221 23.884 34.1609 23.7452C34.2997 23.6064 34.484 23.5227 34.6798 23.5094H34.7742C34.9677 23.4946 35.162 23.5269 35.3402 23.6038L35.2459 23.8868C35.101 23.8105 34.9372 23.7778 34.7742 23.7925C34.3968 23.7925 34.3025 23.9811 34.3025 24.1698C34.3025 24.3585 34.4911 24.5472 34.8685 24.6415C35.0497 24.7198 35.2017 24.8529 35.3033 25.0222C35.4048 25.1914 35.4507 25.3882 35.4345 25.5849C35.4345 25.9623 35.1515 26.3397 34.4911 26.3397C34.2586 26.3339 34.0313 26.269 33.8308 26.151L33.9251 25.868ZM36.3778 24.4529V23.8869H36.0948V24.3586H35.8118V24.6416H36.0948V25.6793C36.0596 25.758 36.0498 25.8457 36.0667 25.9303C36.0836 26.0148 36.1264 26.0919 36.1891 26.151C36.2931 26.2504 36.4246 26.3161 36.5665 26.3397C36.6294 26.4026 36.6923 26.3817 36.7552 26.3607C36.7866 26.3502 36.8181 26.3397 36.8495 26.3397V26.0567H36.6608C36.4722 26.0567 36.3778 25.868 36.3778 25.6793V24.6416H36.8495V24.4529H36.3778ZM38.2648 26.3397V26.0566C38.201 26.1468 38.116 26.2198 38.0173 26.2692C37.9185 26.3186 37.8091 26.3428 37.6987 26.3397C37.5615 26.3502 37.4256 26.3069 37.3199 26.2188C37.2142 26.1307 37.147 26.0048 37.1327 25.868C37.1327 25.3962 37.51 25.1132 38.2648 25.1132C38.2652 25.0033 38.228 24.8966 38.1593 24.8108C38.0907 24.725 37.9947 24.6652 37.8874 24.6415H37.7931C37.6044 24.6415 37.4157 24.6415 37.3214 24.8302L37.227 24.6415C37.4275 24.5235 37.6548 24.4586 37.8874 24.4528C37.9891 24.4425 38.0917 24.455 38.188 24.4892C38.2843 24.5235 38.3717 24.5788 38.4439 24.651C38.5162 24.7233 38.5715 24.8107 38.6057 24.907C38.64 25.0032 38.6525 25.1059 38.6421 25.2076V26.434L38.2648 26.3397ZM38.1704 25.3962C37.7931 25.3962 37.4157 25.4906 37.4157 25.868C37.4111 25.9062 37.4153 25.945 37.428 25.9814C37.4406 26.0178 37.4613 26.0509 37.4885 26.0782C37.5158 26.1054 37.5488 26.1261 37.5853 26.1387C37.6217 26.1513 37.6605 26.1555 37.6987 26.151H37.7931C37.8903 26.1528 37.9861 26.1272 38.0695 26.0771C38.1529 26.0271 38.2206 25.9546 38.2648 25.868V25.7736L38.1704 25.3962ZM39.1138 24.4529V24.9246L39.0195 26.3397H39.3969V25.019C39.437 24.9212 39.5014 24.8353 39.5839 24.7692C39.6664 24.7032 39.7644 24.6593 39.8686 24.6416C40.2459 24.6416 40.3403 24.9246 40.3403 25.2076V26.3397H40.7176V25.2076C40.7176 24.5473 40.3403 24.3586 40.0572 24.3586C39.9243 24.361 39.7942 24.3969 39.6788 24.4629C39.5634 24.5288 39.4664 24.6227 39.3969 24.7359V24.4529H39.1138ZM42.9818 23.5096V26.3398H42.6988V25.9625C42.6446 26.0885 42.5508 26.1935 42.4317 26.2616C42.3125 26.3297 42.1745 26.3571 42.0384 26.3398C41.8049 26.3164 41.5885 26.2067 41.4315 26.0322C41.2745 25.8578 41.1881 25.6311 41.1893 25.3964C41.095 24.9247 41.5667 24.453 42.0384 24.3587C42.1487 24.3555 42.2582 24.3797 42.3569 24.4291C42.4557 24.4785 42.5407 24.5515 42.6044 24.6417V23.5096H42.9818ZM42.6044 25.2077V25.0191C42.5643 24.9213 42.4999 24.8354 42.4174 24.7693C42.3349 24.7033 42.2369 24.6594 42.1327 24.6417C41.7553 24.6417 41.5667 24.9247 41.5667 25.3964C41.5667 25.8681 41.7553 26.1511 42.1327 26.1511C42.245 26.1618 42.357 26.1284 42.445 26.058C42.533 25.9876 42.5902 25.8856 42.6044 25.7738V25.2077ZM44.5855 26.0566V26.3397L44.9629 26.434V25.2076C44.9732 25.1059 44.9608 25.0032 44.9265 24.907C44.8922 24.8107 44.837 24.7233 44.7647 24.651C44.6925 24.5788 44.605 24.5235 44.5088 24.4892C44.4125 24.455 44.3098 24.4425 44.2082 24.4528C43.9756 24.4586 43.7483 24.5235 43.5478 24.6415L43.6421 24.8302C43.7365 24.6415 43.9252 24.6415 44.1138 24.6415H44.2082C44.3155 24.6652 44.4115 24.725 44.4801 24.8108C44.5488 24.8966 44.586 25.0033 44.5855 25.1132C43.8308 25.1132 43.4534 25.3962 43.4534 25.868C43.4678 26.0048 43.535 26.1307 43.6407 26.2188C43.7464 26.3069 43.8823 26.3502 44.0195 26.3397C44.1299 26.3428 44.2393 26.3186 44.338 26.2692C44.4368 26.2198 44.5218 26.1468 44.5855 26.0566ZM43.8308 25.868C43.8308 25.4906 44.2082 25.3962 44.5855 25.3962L44.6799 25.7736V25.868C44.6357 25.9546 44.568 26.0271 44.4846 26.0771C44.4012 26.1272 44.3054 26.1528 44.2082 26.151H44.1138C44.0756 26.1555 44.0368 26.1513 44.0004 26.1387C43.964 26.1261 43.9309 26.1054 43.9036 26.0782C43.8764 26.0509 43.8557 26.0178 43.8431 25.9814C43.8304 25.945 43.8263 25.9062 43.8308 25.868ZM45.4347 25.019V24.4529H45.8121V24.8303C45.9064 24.5473 46.0951 24.4529 46.3781 24.3586H46.4724V24.6416H46.3781C46.3151 24.6374 46.2519 24.6468 46.1928 24.669C46.1337 24.6912 46.08 24.7258 46.0353 24.7705C45.9906 24.8152 45.956 24.8688 45.9338 24.928C45.9116 24.9871 45.9022 25.0503 45.9064 25.1133V26.3397H45.529L45.4347 25.019ZM48.3591 26.3398V23.5096H47.9818V24.6417C47.9181 24.5515 47.833 24.4785 47.7343 24.4291C47.6355 24.3797 47.5261 24.3555 47.4157 24.3587C46.944 24.453 46.4723 24.9247 46.5667 25.3964C46.5655 25.6311 46.6518 25.8578 46.8088 26.0322C46.9658 26.2067 47.1822 26.3164 47.4157 26.3398C47.5519 26.3571 47.6899 26.3297 47.809 26.2616C47.9282 26.1935 48.0219 26.0885 48.0761 25.9625V26.3398H48.3591ZM47.9818 25.0191V25.2077V25.7738C47.9676 25.8856 47.9104 25.9876 47.8224 26.058C47.7343 26.1284 47.6223 26.1618 47.5101 26.1511C47.1327 26.1511 46.944 25.8681 46.944 25.3964C46.944 24.9247 47.1327 24.6417 47.5101 24.6417C47.62 24.6413 47.7267 24.6785 47.8125 24.7471C47.8983 24.8158 47.9581 24.9117 47.9818 25.0191Z" fill="#9FEFDE"/>
</g>
<defs>
<filter id="filter0_d" x="0.132324" y="0" width="67.1702" height="40" filterUnits="userSpaceOnUse" color-interpolation-filters="sRGB">
<feFlood flood-opacity="0" result="BackgroundImageFix"/>
<feColorMatrix in="SourceAlpha" type="matrix" values="0 0 0 0 0 0 0 0 0 0 0 0 0 0 0 0 0 0 127 0" result="hardAlpha"/>
<feOffset dx="3" dy="3"/>
<feGaussianBlur stdDeviation="5"/>
<feColorMatrix type="matrix" values="0 0 0 0 0 0 0 0 0 0 0 0 0 0 0 0 0 0 0.15 0"/>
<feBlend mode="normal" in2="BackgroundImageFix" result="effect1_dropShadow"/>
<feBlend mode="normal" in="SourceGraphic" in2="effect1_dropShadow" result="shape"/>
</filter>
</defs>
</svg>
