<svg width="118" height="35" viewBox="0 0 118 35" fill="none" xmlns="http://www.w3.org/2000/svg">
<g filter="url(#filter0_d)">
<path fill-rule="evenodd" clip-rule="evenodd" d="M7.72325 4.53735C7.9203 4.72539 8.0756 4.95275 8.1791 5.20469L11.6765 13.7539L14.591 7.14769C14.8866 6.20787 15.4858 5.39273 16.2945 4.83011C17.1033 4.26749 18.0759 3.9892 19.0599 4.0389C19.7738 4.09971 20.4684 4.30297 21.1024 4.63669C21.7365 4.97041 22.2973 5.42782 22.7516 5.9819C23.9421 4.90901 25.4351 4.23036 27.0262 4.0389C27.8432 3.98918 28.6599 4.14027 29.4051 4.47897C30.1502 4.81766 30.8011 5.33367 31.3008 5.9819C32.4815 4.77831 34.0842 4.08146 35.7697 4.0389C36.4238 4.01271 37.0764 4.11899 37.6883 4.35135C38.3003 4.58372 38.8589 4.93736 39.3308 5.39106C39.8026 5.84476 40.1779 6.38914 40.4341 6.99151C40.6903 7.59388 40.822 8.24182 40.8215 8.8964V16.4741C40.8215 16.7548 40.7662 17.0327 40.6588 17.292C40.5514 17.5513 40.394 17.7869 40.1955 17.9854C39.997 18.1839 39.7614 18.3413 39.5021 18.4487C39.2428 18.5561 38.9649 18.6114 38.6842 18.6114C38.4035 18.6114 38.1256 18.5561 37.8663 18.4487C37.607 18.3413 37.3714 18.1839 37.1729 17.9854C36.9744 17.7869 36.817 17.5513 36.7096 17.292C36.6022 17.0327 36.5469 16.7548 36.5469 16.4741V9.6736C36.5775 9.38542 36.5433 9.09405 36.4467 8.82083C36.3501 8.5476 36.1936 8.29944 35.9887 8.09452C35.7838 7.88961 35.5356 7.73312 35.2624 7.63653C34.9892 7.53995 34.6978 7.5057 34.4096 7.5363C34.1214 7.5057 33.8301 7.53995 33.5568 7.63653C33.2836 7.73312 33.0355 7.88961 32.8305 8.09452C32.6256 8.29944 32.4691 8.5476 32.3725 8.82083C32.276 9.09405 32.2417 9.38542 32.2723 9.6736V16.4741C32.2723 17.0409 32.0471 17.5846 31.6463 17.9854C31.2455 18.3862 30.7019 18.6114 30.135 18.6114C29.5682 18.6114 29.0245 18.3862 28.6237 17.9854C28.2229 17.5846 27.9977 17.0409 27.9977 16.4741V9.6736C28.0283 9.38542 27.9941 9.09405 27.8975 8.82083C27.8009 8.5476 27.6444 8.29944 27.4395 8.09452C27.2346 7.88961 26.9864 7.73312 26.7132 7.63653C26.44 7.53995 26.1486 7.5057 25.8604 7.5363C25.5722 7.5057 25.2809 7.53995 25.0076 7.63653C24.7344 7.73312 24.4863 7.88961 24.2813 8.09452C24.0764 8.29944 23.9199 8.5476 23.8233 8.82083C23.7268 9.09405 23.6925 9.38542 23.7231 9.6736V16.4741C23.7231 17.0409 23.4979 17.5846 23.0971 17.9854C22.6963 18.3862 22.1527 18.6114 21.5858 18.6114C21.019 18.6114 20.4753 18.3862 20.0745 17.9854C19.6737 17.5846 19.4485 17.0409 19.4485 16.4741V8.3135C19.4579 8.23469 19.4492 8.15479 19.4233 8.0798C19.3973 8.00481 19.3546 7.93669 19.2985 7.88058C19.2424 7.82446 19.1743 7.78181 19.0993 7.75583C19.0243 7.72985 18.9444 7.72122 18.8656 7.7306C18.7434 7.74028 18.6256 7.78107 18.5236 7.84909C18.4216 7.91711 18.3387 8.01009 18.2827 8.11919C18.2827 8.31349 14.3967 16.6684 14.3967 16.6684C13.8138 18.2228 13.0366 19 11.6765 19C10.3164 19 9.7335 18.2228 8.9563 16.6684L4.4874 6.9534C4.26525 6.46248 4.24238 5.90448 4.42361 5.39703C4.60484 4.88958 4.97602 4.47232 5.4589 4.23319C5.69858 4.10382 5.96278 4.02628 6.23436 4.0056C6.50594 3.98493 6.77884 4.02159 7.03534 4.1132C7.29184 4.2048 7.52621 4.34932 7.72325 4.53735ZM62.1945 14.5309C62.1945 11.6164 64.7204 9.8677 68.2178 9.8677C69.6648 9.82894 71.1086 10.0258 72.4924 10.4506V9.8677C72.5342 9.32976 72.4557 8.78926 72.2625 8.28545C72.0694 7.78164 71.7664 7.32718 71.3757 6.95506C70.985 6.58295 70.5163 6.30253 70.0037 6.13416C69.491 5.9658 68.9473 5.91372 68.4121 5.9817C67.2844 5.96905 66.1642 6.16672 65.109 6.5646H64.7204C64.5906 6.57319 64.4604 6.55394 64.3387 6.50816C64.2169 6.46237 64.1063 6.3911 64.0144 6.29912C63.9224 6.20713 63.8511 6.09656 63.8053 5.9748C63.7595 5.85304 63.7403 5.7229 63.7489 5.5931C63.7489 5.2045 63.9432 4.8159 64.3318 4.8159C65.6758 4.22464 67.1402 3.95838 68.6064 4.0387C70.2427 3.94764 71.8487 4.50627 73.0753 5.5931C73.5655 6.14632 73.9387 6.793 74.1724 7.49422C74.4062 8.19544 74.4956 8.93671 74.4354 9.6734V17.4454C74.4354 17.7031 74.333 17.9502 74.1508 18.1324C73.9686 18.3146 73.7215 18.4169 73.4639 18.4169C73.2062 18.4169 72.9591 18.3146 72.7769 18.1324C72.5947 17.9502 72.4924 17.7031 72.4924 17.4454V16.0853C71.9114 16.8642 71.1449 17.4855 70.2626 17.8928C69.3803 18.3 68.4102 18.4801 67.4406 18.4169C66.8359 18.556 66.2083 18.5624 65.6009 18.4356C64.9935 18.3088 64.4208 18.052 63.9222 17.6826C63.4236 17.3133 63.011 16.8403 62.7127 16.2962C62.4145 15.7521 62.2377 15.1499 62.1945 14.5309ZM72.4924 13.3651V12.005C71.1793 11.5632 69.7964 11.3657 68.4121 11.4221C65.8862 11.4221 64.3318 12.5879 64.3318 14.3366C64.3318 16.0853 65.8862 17.0568 67.8292 17.0568C68.9366 17.1827 70.0488 16.8651 70.9226 16.1733C71.7965 15.4815 72.3608 14.4718 72.4924 13.3651ZM46.0675 17.6401L41.7929 5.78775C41.7929 5.6906 41.7443 5.59345 41.6957 5.4963C41.6472 5.39915 41.5986 5.302 41.5986 5.20485C41.59 5.07505 41.6092 4.94491 41.655 4.82315C41.7008 4.70139 41.7721 4.59081 41.8641 4.49883C41.9561 4.40685 42.0666 4.33557 42.1884 4.28979C42.3101 4.244 42.4403 4.22476 42.5701 4.23335C42.8013 4.21131 43.0319 4.2801 43.2133 4.42517C43.3946 4.57023 43.5123 4.78018 43.5416 5.01055L47.039 15.1142L50.5364 4.81625C50.6191 4.6149 50.7516 4.43791 50.9216 4.30195C51.0915 4.16598 51.2933 4.0755 51.5079 4.03905H51.7022C51.9498 4.04627 52.1905 4.12296 52.3966 4.26039C52.6027 4.39782 52.7661 4.59043 52.868 4.81625L56.3654 15.1142L59.8628 4.81625C60.0571 4.42765 60.2514 4.03905 60.8343 4.03905C60.9641 4.03046 61.0942 4.0497 61.216 4.09549C61.3377 4.14127 61.4483 4.21255 61.5403 4.30453C61.6323 4.39652 61.7036 4.50709 61.7494 4.62885C61.7951 4.75061 61.8144 4.88075 61.8058 5.01055C61.8185 5.11603 61.8076 5.22301 61.7741 5.3238C61.7405 5.42459 61.6849 5.51668 61.6115 5.59345L57.3369 17.4458C57.2802 17.7152 57.1342 17.9577 56.9227 18.134C56.7112 18.3102 56.4464 18.41 56.1711 18.4173C55.8958 18.41 55.631 18.3102 55.4195 18.134C55.2079 17.9577 55.062 17.7152 55.0053 17.4458L51.5079 7.34215L48.0105 17.4458C47.9538 17.7152 47.8078 17.9577 47.5963 18.134C47.3848 18.3102 47.12 18.41 46.8447 18.4173C46.6504 18.6116 46.2618 18.4173 46.0675 17.6401ZM76.961 5.39912C76.961 5.14146 77.0634 4.89435 77.2456 4.71216C77.4277 4.52997 77.6749 4.42762 77.9325 4.42762C78.1902 4.42762 78.4373 4.52997 78.6195 4.71216C78.8017 4.89435 78.904 5.14146 78.904 5.39912V7.73072C79.311 6.75552 79.9805 5.91231 80.838 5.29487C81.6956 4.67743 82.7076 4.30995 83.7615 4.23332C84.0192 4.23332 84.2663 4.33567 84.4485 4.51786C84.6307 4.70006 84.733 4.94716 84.733 5.20482C84.733 5.46247 84.6307 5.70958 84.4485 5.89177C84.2663 6.07396 84.0192 6.17632 83.7615 6.17632C81.0413 6.56492 78.904 8.50792 78.904 12.5882V17.2514C78.904 17.5091 78.8017 17.7562 78.6195 17.9384C78.4373 18.1206 78.1902 18.2229 77.9325 18.2229C77.6749 18.2229 77.4277 18.1206 77.2456 17.9384C77.0634 17.7562 76.961 17.5091 76.961 17.2514V5.39912ZM89.0429 18.2363C89.8905 18.6049 90.8039 18.7984 91.7282 18.8052C93.6617 18.8564 95.5406 18.1605 96.9743 16.8622C97.1686 16.6679 97.3629 16.4736 97.3629 16.2793C97.3715 16.1495 97.3522 16.0194 97.3065 15.8976C97.2607 15.7759 97.1894 15.6653 97.0974 15.5733C97.0054 15.4813 96.8949 15.4101 96.7731 15.3643C96.6513 15.3185 96.5212 15.2992 96.3914 15.3078C96.2859 15.2951 96.1789 15.306 96.0781 15.3396C95.9774 15.3732 95.8853 15.4287 95.8085 15.5021C95.3072 16.0208 94.7017 16.4275 94.0319 16.6954C93.3622 16.9633 92.6432 17.0864 91.9225 17.0565C91.2973 17.0694 90.6757 16.959 90.0932 16.7316C89.5107 16.5042 88.9788 16.1643 88.5277 15.7313C88.0766 15.2982 87.7152 14.7805 87.4643 14.2078C87.2133 13.6351 87.0776 13.0185 87.065 12.3933H96.9743C97.1041 12.4019 97.2342 12.3827 97.356 12.3369C97.4778 12.2911 97.5883 12.2198 97.6803 12.1278C97.7723 12.0359 97.8436 11.9253 97.8894 11.8035C97.9351 11.6818 97.9544 11.5516 97.9458 11.4218C98.0151 10.5346 97.9012 9.64259 97.6111 8.80125C97.3211 7.9599 96.8611 7.18721 96.2597 6.53119C95.6584 5.87517 94.9285 5.34985 94.1155 4.98786C93.3026 4.62588 92.4238 4.43498 91.5339 4.42703C90.6194 4.43787 89.7168 4.63574 88.8816 5.00845C88.0464 5.38116 87.2963 5.92083 86.6775 6.59425C86.0587 7.26767 85.5842 8.0606 85.2833 8.92424C84.9824 9.78789 84.8614 10.704 84.9277 11.6161C84.8832 12.5394 85.0257 13.4621 85.3467 14.3288C85.6677 15.1956 86.1606 15.9885 86.7958 16.66C87.431 17.3315 88.1953 17.8676 89.0429 18.2363ZM95.5315 9.06591C95.7433 9.63197 95.8375 10.2352 95.8085 10.8389H86.8707C86.8791 9.63796 87.3468 8.48574 88.1778 7.61863C89.0088 6.75152 90.1401 6.23525 91.3396 6.17573C91.944 6.17239 92.5427 6.29222 93.0992 6.52789C93.6558 6.76357 94.1585 7.11016 94.5766 7.54652C94.9948 7.98288 95.3197 8.49985 95.5315 9.06591ZM97.9455 5.98202C97.9455 5.75238 97.9908 5.52498 98.0787 5.31282C98.1665 5.10066 98.2953 4.90788 98.4577 4.7455C98.6201 4.58312 98.8129 4.45431 99.025 4.36643C99.2372 4.27855 99.4646 4.23332 99.6942 4.23332C99.9239 4.23332 100.151 4.27855 100.363 4.36643C100.576 4.45431 100.768 4.58312 100.931 4.7455C101.093 4.90788 101.222 5.10066 101.31 5.31282C101.398 5.52498 101.443 5.75238 101.443 5.98202C101.443 6.4458 101.259 6.89059 100.931 7.21853C100.603 7.54648 100.158 7.73072 99.6942 7.73072C99.2305 7.73072 98.7857 7.54648 98.4577 7.21853C98.1298 6.89059 97.9455 6.4458 97.9455 5.98202ZM101.054 5.98202C101.054 5.6213 100.911 5.27535 100.656 5.02028C100.401 4.76521 100.055 4.62192 99.6942 4.62192C99.3335 4.62192 98.9876 4.76521 98.7325 5.02028C98.4774 5.27535 98.3341 5.6213 98.3341 5.98202C98.3288 6.16209 98.3603 6.34135 98.4267 6.5088C98.4932 6.67625 98.5932 6.82834 98.7205 6.95572C98.7214 6.95654 98.7222 6.95736 98.723 6.95818V5.39875H98.9173L99.6945 5.20445C99.8 5.19175 99.907 5.20259 100.008 5.23619C100.109 5.26978 100.201 5.3253 100.277 5.39875C100.383 5.50355 100.451 5.64005 100.472 5.78735C100.472 5.98165 100.277 6.17595 100.083 6.37025L100.277 6.75885V6.95315C100.277 7.0503 100.277 7.09887 100.253 7.12316C100.229 7.14745 100.18 7.14745 100.083 7.14745H99.8888L99.5002 6.75885H99.1116V7.14745C99.1116 7.17804 99.1116 7.20382 99.1108 7.22554C99.1295 7.23397 99.1484 7.24198 99.1675 7.24955C99.3349 7.31599 99.5142 7.3475 99.6942 7.34212C100.471 7.53642 101.054 6.75922 101.054 5.98202ZM99.8888 5.78735C99.8888 5.98165 99.8888 5.98165 99.6945 5.98165H99.3059V5.59305H99.6945C99.746 5.59305 99.7954 5.61352 99.8319 5.64996C99.8683 5.6864 99.8888 5.73582 99.8888 5.78735Z" fill="#9FEFDE"/>
</g>
<defs>
<filter id="filter0_d" x="0.30249" y="0" width="117.14" height="35" filterUnits="userSpaceOnUse" color-interpolation-filters="sRGB">
<feFlood flood-opacity="0" result="BackgroundImageFix"/>
<feColorMatrix in="SourceAlpha" type="matrix" values="0 0 0 0 0 0 0 0 0 0 0 0 0 0 0 0 0 0 127 0" result="hardAlpha"/>
<feOffset dx="6" dy="6"/>
<feGaussianBlur stdDeviation="5"/>
<feColorMatrix type="matrix" values="0 0 0 0 0 0 0 0 0 0 0 0 0 0 0 0 0 0 0.25 0"/>
<feBlend mode="normal" in2="BackgroundImageFix" result="effect1_dropShadow"/>
<feBlend mode="normal" in="SourceGraphic" in2="effect1_dropShadow" result="shape"/>
</filter>
</defs>
</svg>
