<svg id="Layer_3" enable-background="new 0 0 64 64" height="512" viewBox="0 0 64 64" width="512" xmlns="http://www.w3.org/2000/svg"><g><path d="m18.142 40h-14.142c-1.105 0-2-.895-2-2v-34c0-1.105.895-2 2-2h52c1.105 0 2 .895 2 2v34c0 1.105-.895 2-2 2h-10.142" fill="#e7e4dd"/><path d="m40 46 3.293 3.293c.391.391 1.024.391 1.414 0l4.586-4.586c.391-.391.391-1.024 0-1.414l-3.293-3.293" fill="#758190"/><circle cx="32" cy="32" fill="#a8b0bc" r="16"/><circle cx="32" cy="32" fill="#ebf7fe" r="12"/><path d="m16.124 34h-8.124v-4h8.125" fill="#669e4f"/><path d="m47.875 30h4.125v4h-4.125" fill="#669e4f"/><path d="m43.833 34h-23.666-.001c-.109-.65-.166-1.319-.166-2s.057-1.35.166-2h.001 23.667.001c.108.65.165 1.319.165 2s-.057 1.35-.167 2z" fill="#78b75b"/><g fill="#96cc7f"><path d="m43.834 30c-.241-1.436-.737-2.786-1.44-4h-.001-2.393v4h3.833z"/><path d="m30 30v-6h4v6"/><path d="m20.166 30c.46-2.741 1.849-5.167 3.833-6.943l.001.001v6.942h-3.833z"/></g><path d="m23.999 18.141c-1.506.871-2.856 1.98-4 3.276v-9.417h4z" fill="#78b75b"/><path d="m10 30v-24h4v24" fill="#78b75b"/><path d="m45 49 12.172 12.172c.53.53 1.25.828 2 .828 1.562 0 2.828-1.266 2.828-2.828 0-.75-.298-1.47-.828-2l-12.172-12.172" fill="#8892a0"/><g><path d="m32 19c-7.168 0-13 5.832-13 13s5.832 13 13 13 13-5.832 13-13c0-7.169-5.832-13-13-13zm-11 13c0-.338.021-.67.051-1h21.898c.03.33.051.663.051 1 0 .338-.021.67-.051 1h-21.898c-.03-.33-.051-.663-.051-1zm12-3h-2v-4h2zm8.785-2c.325.634.59 1.302.788 2h-1.573v-2zm-1.307-2h-.478c-.552 0-1 .447-1 1v3h-4v-5c0-.553-.447-1-1-1h-4c-.553 0-1 .447-1 1v5h-4v-5.478c1.903-1.575 4.343-2.522 7-2.522 3.408 0 6.459 1.558 8.478 4zm-17.478.695v3.305h-1.574c.341-1.198.875-2.311 1.574-3.305zm2.695 15.304h12.609c-1.787 1.256-3.959 2-6.304 2-2.346 0-4.517-.744-6.305-2zm14.783-1.999h-16.956c-.958-1.158-1.674-2.518-2.095-4h21.147c-.422 1.482-1.139 2.842-2.096 4z"/><path d="m61.878 56.464-11.533-11.534c.398-.755.289-1.71-.345-2.345l-1.586-1.585h7.586c1.654 0 3-1.346 3-3v-34c0-1.654-1.346-3-3-3h-52c-1.654 0-3 1.346-3 3v34c0 1.654 1.346 3 3 3h13.605c3.009 4.795 8.329 8 14.396 8 2.779 0 5.396-.683 7.714-1.87l2.87 2.87c.39.39.902.585 1.415.585.322 0 .64-.086.931-.24l11.533 11.534c.723.723 1.685 1.121 2.708 1.121 2.111 0 3.828-1.717 3.828-3.828 0-1.008-.409-1.995-1.122-2.708zm-57.878-17.464c-.551 0-1-.449-1-1v-34c0-.551.449-1 1-1h52c.551 0 1 .449 1 1v34c0 .551-.449 1-1 1h-8.526c.572-1.26.994-2.6 1.244-4h3.282c.553 0 1-.447 1-1v-4c0-.553-.447-1-1-1h-3.281c-1.424-7.946-8.371-14-16.719-14-2.497 0-4.863.555-7 1.526v-4.526c0-.553-.447-1-1-1h-4c-.553 0-1 .447-1 1v9.068c-1.878 2.229-3.184 4.947-3.719 7.932h-.281v-23c0-.553-.447-1-1-1h-4c-.553 0-1 .447-1 1v23h-1c-.553 0-1 .447-1 1v4c0 .553.447 1 1 1h7.281c.251 1.401.672 2.74 1.245 4zm44.949-8h2.051v2h-2.051c.019-.334.051-.663.051-1 0-.338-.032-.668-.051-1zm-25.949-13.396c-.701.44-1.372.923-2 1.457v-6.061h2zm-7.949 15.395h-6.051v-2h6.051c-.02.333-.051.663-.051 1.001 0 .337.031.666.051.999zm-2.051-3.999h-2v-22h2zm4 3c0-8.271 6.729-15 15-15s15 6.729 15 15-6.729 15-15 15c-8.271-.001-15-6.729-15-15zm24.503 14.088c1.805-1.221 3.364-2.78 4.585-4.585l2.497 2.497-4.585 4.585zm17.668 14.911c-.482 0-.953-.195-1.293-.535l-11.464-11.465 2.586-2.585 11.464 11.465c.341.34.536.811.536 1.292 0 1.008-.82 1.828-1.829 1.828z"/></g></g></svg>