<svg width="220" height="220" viewBox="0 0 220 220" fill="none" xmlns="http://www.w3.org/2000/svg">
<g filter="url(#filter0_d)">
<g filter="url(#filter1_d)">
<path fill-rule="evenodd" clip-rule="evenodd" d="M190.366 106.675C190.366 152.548 153.137 189.736 107.213 189.736C61.2886 189.736 24.0596 152.548 24.0596 106.675C24.0596 60.801 61.2886 23.613 107.213 23.613C153.137 23.613 190.366 60.801 190.366 106.675ZM76.5088 65.9948H140.907C143.753 65.9948 146.483 67.123 148.496 69.131C150.509 71.1391 151.64 73.8627 151.64 76.7025V124.887C151.64 127.727 150.509 130.45 148.496 132.459C146.483 134.467 143.753 135.595 140.907 135.595H76.5088C73.6622 135.595 70.9322 134.467 68.9194 132.459C66.9066 130.45 65.7758 127.727 65.7758 124.887V76.7025C65.7758 73.8627 66.9066 71.1391 68.9194 69.131C70.9322 67.123 73.6622 65.9948 76.5088 65.9948ZM110.605 132.134C111.108 131.632 111.391 130.951 111.391 130.241C111.415 129.883 111.362 129.525 111.235 129.189C111.109 128.854 110.912 128.549 110.658 128.296C110.404 128.042 110.098 127.846 109.762 127.72C109.426 127.593 109.066 127.54 108.708 127.564C107.996 127.564 107.314 127.846 106.81 128.348C106.307 128.85 106.025 129.531 106.025 130.241C106.025 130.951 106.307 131.632 106.81 132.134C107.314 132.636 107.996 132.918 108.708 132.918C109.419 132.918 110.102 132.636 110.605 132.134ZM144.701 123.319C145.708 122.315 146.273 120.953 146.273 119.533V76.7025C146.273 75.2826 145.708 73.9208 144.701 72.9168C143.695 71.9127 142.33 71.3487 140.907 71.3487H76.5088C75.0855 71.3487 73.7205 71.9127 72.7141 72.9168C71.7077 73.9208 71.1423 75.2826 71.1423 76.7025V119.533C71.1423 120.953 71.7077 122.315 72.7141 123.319C73.7205 124.323 75.0855 124.887 76.5088 124.887H140.907C142.33 124.887 143.695 124.323 144.701 123.319ZM119.441 92.7641H122.124C123.547 92.7641 124.912 93.3282 125.919 94.3322C126.925 95.3363 127.49 96.6981 127.49 98.118V114.18C127.49 115.599 126.925 116.961 125.919 117.965C124.912 118.969 123.547 119.533 122.124 119.533H95.2914C93.8681 119.533 92.5032 118.969 91.4967 117.965C90.4903 116.961 89.9249 115.599 89.9249 114.18V98.118C89.9249 96.6981 90.4903 95.3363 91.4967 94.3322C92.5032 93.3282 93.8681 92.7641 95.2914 92.7641H97.9747V87.4103C97.9747 84.5704 99.1055 81.8469 101.118 79.8388C103.131 77.8307 105.861 76.7026 108.708 76.7026C111.554 76.7026 114.284 77.8307 116.297 79.8388C118.31 81.8469 119.441 84.5704 119.441 87.4103V92.7641ZM103.341 87.4103V92.7641H114.074V87.4103C114.074 85.9904 113.509 84.6286 112.502 83.6245C111.496 82.6205 110.131 82.0564 108.708 82.0564C107.284 82.0564 105.919 82.6205 104.913 83.6245C103.907 84.6286 103.341 85.9904 103.341 87.4103ZM125.882 143.626H121.857L119.173 138.272H97.7074L95.0242 143.626H90.9993C89.9318 143.626 88.9081 144.049 88.1533 144.802C87.3985 145.555 86.9744 146.576 86.9744 147.641C86.9744 148.706 87.3985 149.727 88.1533 150.48C88.9081 151.233 89.9318 151.656 90.9993 151.656H125.882C126.94 151.629 127.948 151.198 128.697 150.45C129.446 149.703 129.879 148.697 129.906 147.641C129.917 147.111 129.821 146.584 129.622 146.092C129.424 145.6 129.128 145.152 128.752 144.777C128.376 144.402 127.928 144.107 127.435 143.909C126.941 143.711 126.413 143.615 125.882 143.626Z" fill="url(#paint0_linear)"/>
</g>
<path d="M8.56624 115.099C8.88576 115.099 9.19211 115.225 9.41805 115.451C9.64399 115.677 9.77101 115.983 9.77101 116.302C9.77101 116.622 9.64399 116.928 9.41805 117.154C9.19211 117.379 8.88576 117.506 8.56624 117.506C8.25015 117.54 7.9334 117.448 7.68516 117.249C7.43693 117.051 7.27736 116.762 7.24102 116.447C7.21812 116.266 7.23642 116.083 7.29456 115.911C7.35269 115.739 7.4491 115.582 7.57663 115.452C7.70416 115.322 7.85938 115.223 8.03077 115.162C8.20216 115.1 8.3853 115.079 8.56624 115.099Z" fill="#147CB6"/>
<path d="M9.86739 124.726H10.1083C10.4278 124.697 10.7457 124.796 10.992 125.002C11.2383 125.207 11.3929 125.502 11.4216 125.821C11.4504 126.141 11.351 126.458 11.1454 126.704C10.9398 126.951 10.6447 127.105 10.3252 127.134C10.0122 127.19 9.6896 127.12 9.4278 126.94C9.166 126.759 8.9862 126.483 8.92762 126.17C8.86314 125.855 8.92564 125.526 9.10145 125.256C9.27727 124.985 9.55234 124.795 9.86739 124.726Z" fill="#147CB6"/>
<path d="M9.09639 119.912H9.2892C9.58014 119.937 9.8502 120.073 10.0431 120.292C10.2359 120.511 10.3367 120.797 10.3243 121.088C10.3118 121.38 10.1871 121.655 9.9763 121.857C9.76547 122.059 9.48487 122.172 9.19287 122.172C8.90087 122.172 8.62012 122.059 8.40929 121.857C8.19846 121.655 8.07377 121.38 8.06133 121.088C8.04889 120.797 8.14965 120.511 8.34252 120.292C8.53539 120.073 8.80545 119.937 9.09639 119.912Z" fill="#147CB6"/>
<path d="M8.27704 110.285C8.58442 110.284 8.88032 110.401 9.10429 110.612C9.32826 110.822 9.46337 111.11 9.48181 111.416C9.48181 111.736 9.35479 112.042 9.12885 112.268C8.90291 112.493 8.59656 112.62 8.27704 112.62C7.95751 112.62 7.65102 112.493 7.42508 112.268C7.19914 112.042 7.07227 111.736 7.07227 111.416C7.09071 111.11 7.22567 110.822 7.44964 110.612C7.67361 110.401 7.96965 110.284 8.27704 110.285Z" fill="#147CB6"/>
<path d="M9.4577 91.0301C9.61442 91.0536 9.76494 91.1078 9.90067 91.1895C10.0364 91.2712 10.1546 91.3788 10.2486 91.5062C10.3426 91.6337 10.4106 91.7783 10.4485 91.932C10.4864 92.0857 10.4936 92.2453 10.4697 92.4018C10.4459 92.5598 10.3912 92.7116 10.3088 92.8485C10.2263 92.9854 10.1177 93.1048 9.98905 93.1997C9.8604 93.2947 9.71428 93.3634 9.55903 93.402C9.40378 93.4406 9.24236 93.4482 9.08415 93.4245C8.92594 93.4008 8.77401 93.3462 8.63692 93.2639C8.49983 93.1815 8.38038 93.073 8.28528 92.9445C8.19019 92.816 8.12125 92.6701 8.08263 92.515C8.04401 92.36 8.03639 92.1988 8.06013 92.0408C8.10046 91.7558 8.24176 91.4947 8.45838 91.3048C8.67501 91.115 8.95258 91.009 9.24078 91.006L9.4577 91.0301Z" fill="#147CB6"/>
<path d="M8.20477 107.878C8.87015 107.878 9.40954 107.339 9.40954 106.675C9.40954 106.01 8.87015 105.471 8.20477 105.471C7.53939 105.471 7 106.01 7 106.675C7 107.339 7.53939 107.878 8.20477 107.878Z" fill="#147CB6"/>
<path d="M8.80708 95.8432C8.96243 95.8582 9.11334 95.9039 9.25092 95.9776C9.38851 96.0512 9.50999 96.1514 9.60858 96.2724C9.70718 96.3933 9.78082 96.5326 9.82521 96.6821C9.8696 96.8316 9.88392 96.9885 9.86727 97.1436C9.85222 97.302 9.80586 97.4559 9.73094 97.5963C9.65603 97.7367 9.55401 97.8609 9.43078 97.9617C9.30755 98.0624 9.16552 98.1378 9.01297 98.1834C8.86042 98.229 8.70042 98.2439 8.54207 98.2273C8.38355 98.2122 8.2296 98.1659 8.0891 98.091C7.9486 98.0162 7.82433 97.9142 7.7235 97.791C7.62267 97.6679 7.54734 97.526 7.50172 97.3735C7.45611 97.221 7.44112 97.0611 7.45775 96.9028C7.4922 96.6108 7.63024 96.3409 7.84689 96.1421C8.06354 95.9432 8.3444 95.8287 8.63839 95.8192L8.80708 95.8432Z" fill="#147CB6"/>
<path d="M8.32536 100.657C8.64279 100.682 8.93828 100.829 9.14953 101.067C9.36078 101.305 9.47138 101.615 9.45793 101.933C9.45181 102.09 9.41428 102.245 9.34763 102.387C9.28098 102.53 9.18655 102.657 9.06982 102.763C8.95309 102.868 8.81641 102.949 8.66788 103.001C8.51936 103.053 8.36196 103.075 8.20491 103.065C8.04666 103.059 7.89119 103.021 7.74738 102.955C7.60357 102.889 7.47419 102.795 7.36677 102.679C7.25935 102.562 7.17596 102.426 7.12131 102.277C7.06666 102.129 7.04191 101.971 7.04837 101.813C7.05449 101.653 7.09257 101.495 7.16043 101.35C7.22829 101.204 7.32457 101.074 7.44354 100.966C7.56251 100.859 7.70182 100.776 7.85327 100.723C8.00472 100.67 8.16515 100.647 8.32536 100.657Z" fill="#147CB6"/>
<path d="M19.2887 152.213C19.4788 152.168 19.6768 152.168 19.867 152.213C20.0842 152.209 20.2982 152.266 20.4852 152.377C20.6723 152.487 20.8252 152.647 20.9271 152.839C21.0026 152.979 21.0493 153.133 21.0647 153.292C21.08 153.451 21.0636 153.611 21.0166 153.763C20.9695 153.916 20.8926 154.057 20.7904 154.179C20.6882 154.302 20.5626 154.403 20.4211 154.476C20.2823 154.551 20.13 154.597 19.973 154.612C19.816 154.628 19.6576 154.611 19.5071 154.564C19.3566 154.517 19.2172 154.44 19.0969 154.338C18.9766 154.236 18.878 154.111 18.8068 153.971C18.7142 153.826 18.653 153.663 18.6272 153.493C18.6014 153.324 18.6115 153.15 18.6569 152.985C18.7023 152.819 18.7821 152.665 18.8909 152.532C18.9997 152.399 19.1353 152.29 19.2887 152.213Z" fill="#147CB6"/>
<path d="M21.6499 156.473C21.8309 156.362 22.0397 156.303 22.2523 156.305C22.4598 156.306 22.6635 156.359 22.8447 156.46C23.0259 156.561 23.1786 156.707 23.2884 156.883C23.3715 157.018 23.4269 157.169 23.4512 157.326C23.4756 157.484 23.4684 157.644 23.4303 157.799C23.3923 157.953 23.324 158.099 23.2293 158.227C23.1346 158.355 23.0155 158.462 22.8788 158.544C22.6 158.703 22.2698 158.747 21.9591 158.666C21.6483 158.585 21.3817 158.386 21.2162 158.111C21.0644 157.834 21.0246 157.51 21.1054 157.205C21.1861 156.9 21.3811 156.638 21.6499 156.473Z" fill="#147CB6"/>
<path d="M17.1684 147.856C17.3353 147.822 17.5074 147.822 17.6743 147.856C17.9586 147.919 18.21 148.084 18.3799 148.32C18.5499 148.556 18.6265 148.847 18.5951 149.136C18.5637 149.425 18.4266 149.693 18.2099 149.887C17.9933 150.081 17.7125 150.189 17.4213 150.189C17.1302 150.189 16.8494 150.081 16.6328 149.887C16.4161 149.693 16.279 149.425 16.2476 149.136C16.2162 148.847 16.2928 148.556 16.4628 148.32C16.6327 148.084 16.8841 147.919 17.1684 147.856Z" fill="#147CB6"/>
<path d="M10.8794 129.54H11.1685C11.4366 129.538 11.6973 129.628 11.9075 129.794C12.1177 129.961 12.265 130.194 12.3252 130.455C12.365 130.608 12.3741 130.768 12.3521 130.925C12.33 131.082 12.2771 131.233 12.1965 131.369C12.1159 131.506 12.0093 131.625 11.8825 131.72C11.7557 131.815 11.6114 131.884 11.4578 131.924C11.1449 131.997 10.8157 131.944 10.541 131.778C10.2662 131.611 10.0676 131.344 9.98783 131.033C9.94103 130.876 9.92732 130.711 9.94753 130.549C9.96775 130.387 10.0215 130.231 10.1053 130.09C10.1892 129.95 10.3012 129.829 10.4345 129.734C10.5677 129.639 10.7192 129.573 10.8794 129.54Z" fill="#147CB6"/>
<path d="M15.2406 143.403C15.3994 143.369 15.5637 143.369 15.7225 143.403C15.9597 143.407 16.1904 143.48 16.3871 143.613C16.5838 143.745 16.738 143.932 16.831 144.15C16.9209 144.369 16.9439 144.611 16.8971 144.843C16.8504 145.076 16.7359 145.289 16.568 145.457C16.4002 145.625 16.1865 145.74 15.9537 145.786C15.721 145.833 15.4796 145.81 15.2598 145.72C15.0401 145.631 14.8518 145.478 14.7186 145.281C14.5855 145.085 14.5133 144.854 14.5113 144.616C14.5092 144.379 14.5774 144.146 14.7072 143.948C14.8369 143.749 15.0224 143.593 15.2406 143.5V143.403Z" fill="#147CB6"/>
<path d="M12.1081 134.353C12.2194 134.331 12.3342 134.331 12.4455 134.353C12.7052 134.357 12.957 134.443 13.1648 134.599C13.3726 134.755 13.5257 134.972 13.602 135.22C13.6925 135.524 13.6598 135.85 13.511 136.13C13.3622 136.409 13.1093 136.619 12.807 136.713C12.4875 136.806 12.1441 136.768 11.8527 136.607C11.5612 136.447 11.3455 136.178 11.2528 135.858C11.1601 135.539 11.1981 135.196 11.3585 134.905C11.5189 134.614 11.7886 134.398 12.1081 134.305V134.353Z" fill="#147CB6"/>
<path d="M13.578 138.854C13.7055 138.831 13.8362 138.831 13.9636 138.854C14.2832 138.8 14.6111 138.875 14.8755 139.062C15.1398 139.249 15.319 139.534 15.3733 139.853C15.4276 140.172 15.3527 140.5 15.1652 140.764C14.9776 141.028 14.6927 141.207 14.3732 141.261C14.0729 141.37 13.7417 141.355 13.4526 141.219C13.1634 141.084 12.9398 140.839 12.8311 140.539C12.7538 140.381 12.7121 140.209 12.7087 140.033C12.7054 139.858 12.7405 139.683 12.8117 139.523C12.8828 139.362 12.9884 139.219 13.1208 139.104C13.2532 138.988 13.4092 138.903 13.578 138.854Z" fill="#147CB6"/>
<path d="M27.0475 48.741C26.9191 48.6479 26.8103 48.5305 26.7275 48.3954C26.6446 48.2602 26.5893 48.1101 26.5647 47.9536C26.54 47.797 26.5466 47.6372 26.5839 47.4832C26.6213 47.3292 26.6888 47.1841 26.7825 47.0562C26.896 46.9081 27.0417 46.7877 27.2087 46.7043C27.3757 46.6209 27.5595 46.5766 27.7462 46.5748C28.0078 46.5692 28.2633 46.6542 28.4692 46.8155C28.7248 47.007 28.8937 47.2921 28.9389 47.608C28.9841 47.924 28.9018 48.245 28.7101 48.5003C28.6195 48.6287 28.5036 48.7372 28.3696 48.8194C28.2356 48.9015 28.0862 48.9555 27.9306 48.978C27.775 49.0006 27.6164 48.9911 27.4646 48.9504C27.3127 48.9096 27.1708 48.8384 27.0475 48.741Z" fill="#147CB6"/>
<path d="M30.6618 168.194C30.837 168.194 31.01 168.233 31.1684 168.308C31.3268 168.383 31.4665 168.492 31.5774 168.628C31.7296 168.812 31.8236 169.037 31.8476 169.274C31.8715 169.511 31.8243 169.75 31.712 169.961C31.5996 170.172 31.4271 170.344 31.2165 170.456C31.0059 170.569 30.7666 170.616 30.529 170.592C30.2914 170.569 30.0662 170.475 29.882 170.323C29.6979 170.171 29.5629 169.968 29.4945 169.739C29.4261 169.511 29.4274 169.267 29.4979 169.039C29.5684 168.811 29.7051 168.609 29.8907 168.459C30.1047 168.276 30.3804 168.182 30.6618 168.194Z" fill="#147CB6"/>
<path d="M27.6496 164.367C27.855 164.367 28.0569 164.42 28.2363 164.52C28.4156 164.62 28.5666 164.764 28.6745 164.938C28.7825 165.113 28.844 165.312 28.8532 165.517C28.8624 165.722 28.819 165.926 28.7272 166.11C28.6353 166.293 28.4981 166.45 28.3285 166.566C28.1588 166.681 27.9624 166.752 27.7579 166.77C27.5533 166.789 27.3474 166.755 27.1597 166.671C26.9721 166.588 26.809 166.458 26.6857 166.293C26.5921 166.166 26.5247 166.02 26.4874 165.866C26.45 165.712 26.4433 165.552 26.4679 165.396C26.4926 165.239 26.5479 165.089 26.6307 164.954C26.7136 164.819 26.8225 164.701 26.9509 164.608C27.1494 164.45 27.396 164.365 27.6496 164.367Z" fill="#147CB6"/>
<path d="M25.891 52.5201C25.7063 52.7818 25.4264 52.961 25.1113 53.0195C24.7962 53.0779 24.4708 53.0111 24.2043 52.8332C23.9951 52.6873 23.8376 52.4788 23.7546 52.2377C23.6715 51.9966 23.6672 51.7354 23.7422 51.4918C23.8173 51.2481 23.9678 51.0345 24.1721 50.8818C24.3764 50.729 24.6238 50.6451 24.8789 50.6419C25.1183 50.6348 25.3542 50.7021 25.5537 50.8346C25.8178 51.0111 26.0014 51.2847 26.0646 51.5959C26.1278 51.9071 26.0654 52.2306 25.891 52.4961V52.5201Z" fill="#147CB6"/>
<path d="M33.0471 41.1841C32.8796 41.0153 32.7659 40.8008 32.7202 40.5675C32.6745 40.3343 32.699 40.0927 32.7905 39.8733C32.8819 39.6539 33.0363 39.4665 33.2342 39.3347C33.4321 39.2028 33.6646 39.1324 33.9024 39.1324C34.1403 39.1324 34.3729 39.2028 34.5708 39.3347C34.7687 39.4665 34.9231 39.6539 35.0145 39.8733C35.106 40.0927 35.1305 40.3343 35.0848 40.5675C35.0391 40.8008 34.9254 41.0153 34.7579 41.1841C34.5286 41.4062 34.2217 41.5304 33.9024 41.5304C33.5831 41.5304 33.2764 41.4062 33.0471 41.1841Z" fill="#147CB6"/>
<path d="M24.8547 160.396C25.0534 160.398 25.2487 160.447 25.4246 160.539C25.6006 160.631 25.7521 160.764 25.8667 160.926C26.0423 161.195 26.1053 161.522 26.0423 161.837C25.9792 162.153 25.7951 162.43 25.5293 162.611C25.2641 162.79 24.9388 162.856 24.6247 162.795C24.3107 162.735 24.0336 162.551 23.8547 162.286C23.6758 162.021 23.6096 161.696 23.6706 161.382C23.7316 161.068 23.9148 160.792 24.18 160.613C24.3787 160.476 24.6134 160.401 24.8547 160.396Z" fill="#147CB6"/>
<path d="M33.8182 171.853C33.985 171.855 34.1497 171.89 34.3028 171.956C34.4559 172.022 34.5943 172.118 34.7097 172.238C34.8806 172.406 34.9978 172.62 35.0462 172.854C35.0947 173.088 35.0723 173.332 34.9818 173.553C34.8913 173.774 34.7369 173.964 34.5382 174.097C34.3396 174.23 34.1058 174.302 33.8664 174.302C33.6271 174.302 33.3931 174.23 33.1945 174.097C32.9959 173.964 32.8416 173.774 32.7511 173.553C32.6606 173.332 32.6381 173.088 32.6865 172.854C32.735 172.62 32.8521 172.406 33.023 172.238C33.122 172.123 33.2438 172.029 33.3805 171.963C33.5173 171.897 33.6663 171.859 33.8182 171.853Z" fill="#147CB6"/>
<path d="M29.9148 44.8906C29.6686 44.6842 29.513 44.3897 29.4815 44.0701C29.45 43.7505 29.545 43.4313 29.7461 43.1809C29.8607 43.0434 30.0044 42.9332 30.167 42.8582C30.3296 42.7832 30.5068 42.7454 30.6859 42.7475C30.9618 42.7496 31.2274 42.8524 31.4328 43.0364C31.5567 43.1346 31.6595 43.2566 31.7353 43.3952C31.8111 43.5339 31.8583 43.6863 31.874 43.8435C31.8898 44.0007 31.8738 44.1595 31.827 44.3104C31.7801 44.4613 31.7035 44.6013 31.6015 44.722C31.3993 44.9665 31.1086 45.1213 30.7928 45.1528C30.477 45.1844 30.1615 45.0902 29.9148 44.8906Z" fill="#147CB6"/>
<path d="M18.7829 64.9157C18.6455 65.2063 18.3982 65.4305 18.0955 65.5389C17.7927 65.6473 17.4593 65.631 17.1685 65.4937C16.8777 65.3564 16.6534 65.1092 16.5449 64.8067C16.4365 64.5041 16.4527 64.1709 16.5901 63.8803C16.6883 63.6749 16.8417 63.5008 17.0332 63.3775C17.2247 63.2542 17.4467 63.1865 17.6744 63.1819C17.8492 63.1456 18.0298 63.1456 18.2046 63.1819C18.3654 63.2475 18.5102 63.3471 18.6289 63.4738C18.7476 63.6005 18.8375 63.7514 18.8924 63.916C18.9474 64.0807 18.9661 64.2553 18.9471 64.4279C18.9282 64.6004 18.8722 64.7668 18.7829 64.9157Z" fill="#147CB6"/>
<path d="M21.65 56.8767C21.3789 56.7075 21.1844 56.4393 21.1079 56.1291C21.0315 55.8189 21.079 55.4912 21.2404 55.2154C21.3519 55.041 21.5048 54.897 21.6856 54.7962C21.8664 54.6954 22.0695 54.6409 22.2765 54.6376C22.4972 54.6329 22.7146 54.6914 22.903 54.8061C23.1778 54.9721 23.3752 55.2405 23.4521 55.552C23.5289 55.8636 23.4788 56.1928 23.3126 56.4674C23.1465 56.742 22.8779 56.9394 22.5661 57.0161C22.2543 57.0929 21.9248 57.0427 21.65 56.8767Z" fill="#147CB6"/>
<path d="M15.1201 73.7729C15.0663 73.9231 14.9835 74.0613 14.8763 74.1795C14.7691 74.2977 14.6396 74.3936 14.4952 74.4618C14.3509 74.53 14.1947 74.5691 14.0352 74.5769C13.8758 74.5847 13.7164 74.5611 13.5661 74.5073C13.4158 74.4536 13.2774 74.3708 13.1591 74.2636C13.0409 74.1565 12.9449 74.0271 12.8766 73.8829C12.8084 73.7387 12.7693 73.5824 12.7615 73.4231C12.7537 73.2637 12.7772 73.1044 12.831 72.9542C12.9209 72.7253 13.0763 72.5278 13.2777 72.3865C13.4791 72.2452 13.7176 72.1663 13.9636 72.1596C14.099 72.1347 14.2378 72.1347 14.3732 72.1596C14.5306 72.2132 14.6756 72.2981 14.7992 72.4093C14.9228 72.5205 15.0225 72.6556 15.0923 72.8064C15.1622 72.9572 15.2006 73.1207 15.2054 73.2868C15.2102 73.453 15.1812 73.6183 15.1201 73.7729Z" fill="#147CB6"/>
<path d="M12.325 82.9433C12.2884 83.0959 12.2217 83.2396 12.1288 83.3661C12.036 83.4926 11.9189 83.5993 11.7842 83.68C11.6496 83.7608 11.5002 83.8139 11.3448 83.8362C11.1894 83.8585 11.0311 83.8496 10.8792 83.8101C10.7243 83.7762 10.578 83.7116 10.4487 83.62C10.3194 83.5284 10.2098 83.4116 10.1266 83.2768C10.0434 83.142 9.98829 82.9918 9.96442 82.8353C9.94054 82.6787 9.94841 82.5189 9.98765 82.3655C10.0527 82.1024 10.2047 81.8691 10.419 81.703C10.6333 81.537 10.8972 81.4481 11.1683 81.4506H11.4576C11.6138 81.4896 11.7606 81.5596 11.8893 81.6564C12.0179 81.7531 12.1259 81.8747 12.2068 82.0139C12.2876 82.153 12.3399 82.307 12.3602 82.4666C12.3805 82.6263 12.3685 82.7884 12.325 82.9433Z" fill="#147CB6"/>
<path d="M13.6022 78.3219C13.5077 78.6241 13.2979 78.8769 13.0183 79.0256C12.7387 79.1743 12.4118 79.2071 12.1083 79.1167C11.9549 79.0757 11.8117 79.0037 11.6874 78.905C11.5631 78.8063 11.4604 78.683 11.3858 78.543C11.3112 78.4029 11.2663 78.249 11.2538 78.0908C11.2414 77.9326 11.2614 77.7736 11.3131 77.6235C11.3814 77.3753 11.5291 77.1563 11.7336 76.9998C11.938 76.8433 12.1881 76.7579 12.4457 76.7566H12.8071C12.9651 76.8027 13.112 76.8807 13.2386 76.9857C13.3653 77.0907 13.469 77.2206 13.5435 77.3673C13.618 77.514 13.6616 77.6743 13.6717 77.8385C13.6818 78.0027 13.6582 78.1672 13.6022 78.3219Z" fill="#147CB6"/>
<path d="M16.8311 69.3682C16.6907 69.6325 16.4568 69.8352 16.175 69.9366C15.8932 70.0379 15.5837 70.0308 15.3069 69.9166C15.03 69.8023 14.8056 69.5892 14.6776 69.3187C14.5495 69.0481 14.5271 68.7397 14.6143 68.4534C14.6991 68.2297 14.8511 68.0378 15.0497 67.9041C15.2482 67.7705 15.4833 67.7016 15.7226 67.7071C15.8744 67.684 16.0287 67.684 16.1805 67.7071C16.3377 67.7668 16.4806 67.8588 16.6001 67.977C16.7195 68.0952 16.8131 68.2371 16.8743 68.3936C16.9356 68.5501 16.9634 68.7176 16.956 68.8855C16.9485 69.0533 16.906 69.2177 16.8311 69.3682Z" fill="#147CB6"/>
<path d="M19.3128 61.1372C19.1713 61.0637 19.0458 60.9628 18.9436 60.8404C18.8413 60.718 18.7644 60.5766 18.7174 60.4242C18.6703 60.2719 18.6541 60.1118 18.6694 59.9531C18.6848 59.7944 18.7315 59.6403 18.8069 59.4999C18.9117 59.3035 19.0679 59.1393 19.2589 59.0248C19.4498 58.9102 19.6685 58.8498 19.8912 58.8498C20.085 58.8517 20.2753 58.9013 20.4454 58.9942C20.7298 59.1443 20.9429 59.4011 21.0378 59.7082C21.1327 60.0152 21.1015 60.3474 20.9513 60.6316C20.8011 60.9157 20.5441 61.1287 20.2368 61.2235C19.9296 61.3183 19.5972 61.2873 19.3128 61.1372Z" fill="#147CB6"/>
<path d="M10.3252 86.2157C10.6397 86.2798 10.9166 86.4644 11.0967 86.7299C11.2768 86.9954 11.3459 87.3207 11.2891 87.6364C11.2249 87.9507 11.0402 88.2275 10.7745 88.4075C10.5088 88.5875 10.1833 88.6565 9.86741 88.5997C9.71235 88.5681 9.56502 88.5063 9.43387 88.4178C9.30272 88.3292 9.19038 88.2158 9.10312 88.0838C9.01586 87.9519 8.95541 87.8041 8.92532 87.6488C8.89523 87.4935 8.896 87.3339 8.92767 87.1789C8.98041 86.8919 9.13777 86.6347 9.36916 86.4568C9.60055 86.2789 9.88961 86.193 10.1807 86.2157H10.3252Z" fill="#147CB6"/>
<path d="M177.64 36.1233C196.434 54.8907 206.995 80.3472 207 106.893C207.005 133.438 196.452 158.898 177.664 177.672C158.876 196.446 133.391 206.995 106.817 207C80.2417 207.005 54.7534 196.464 35.9589 177.696C35.7371 177.463 35.6159 177.152 35.6215 176.83C35.6245 176.517 35.7449 176.216 35.9589 175.987C36.1942 175.765 36.5027 175.637 36.8263 175.626C36.9781 175.604 37.1323 175.604 37.2841 175.626C37.4217 175.701 37.551 175.789 37.6697 175.891C51.3446 189.55 68.7671 198.852 87.7343 202.621C106.702 206.389 126.361 204.454 144.228 197.062C162.095 189.669 177.365 177.15 188.109 161.088C198.853 145.027 204.588 126.143 204.588 106.826C204.588 87.5082 198.853 68.6246 188.109 52.5627C177.365 36.5008 162.095 23.982 144.228 16.5893C126.361 9.1967 106.702 7.26225 87.7343 11.0306C68.7671 14.7989 51.3446 24.1008 37.6697 37.76C37.4377 37.9766 37.1318 38.0971 36.8142 38.0971C36.4967 38.0971 36.191 37.9766 35.9589 37.76C35.8571 37.6415 35.7682 37.5124 35.6939 37.3749C35.6686 37.2155 35.6686 37.053 35.6939 36.8935C35.6969 36.5805 35.8173 36.2799 36.0313 36.0511C54.5271 17.673 79.4835 7.24705 105.571 7C106.548 7.00004 107.98 7 107.98 7C134.12 7.22978 159.129 17.6854 177.64 36.1233Z" fill="url(#paint1_linear)"/>
</g>
<defs>
<filter id="filter0_d" x="0" y="0" width="220" height="220" filterUnits="userSpaceOnUse" color-interpolation-filters="sRGB">
<feFlood flood-opacity="0" result="BackgroundImageFix"/>
<feColorMatrix in="SourceAlpha" type="matrix" values="0 0 0 0 0 0 0 0 0 0 0 0 0 0 0 0 0 0 127 0" result="hardAlpha"/>
<feOffset dx="3" dy="3"/>
<feGaussianBlur stdDeviation="5"/>
<feColorMatrix type="matrix" values="0 0 0 0 0 0 0 0 0 0 0 0 0 0 0 0 0 0 0.15 0"/>
<feBlend mode="normal" in2="BackgroundImageFix" result="effect1_dropShadow"/>
<feBlend mode="normal" in="SourceGraphic" in2="effect1_dropShadow" result="shape"/>
</filter>
<filter id="filter1_d" x="17.0596" y="16.613" width="186.307" height="186.123" filterUnits="userSpaceOnUse" color-interpolation-filters="sRGB">
<feFlood flood-opacity="0" result="BackgroundImageFix"/>
<feColorMatrix in="SourceAlpha" type="matrix" values="0 0 0 0 0 0 0 0 0 0 0 0 0 0 0 0 0 0 127 0" result="hardAlpha"/>
<feOffset dx="3" dy="3"/>
<feGaussianBlur stdDeviation="5"/>
<feColorMatrix type="matrix" values="0 0 0 0 0 0 0 0 0 0 0 0 0 0 0 0 0 0 0.15 0"/>
<feBlend mode="normal" in2="BackgroundImageFix" result="effect1_dropShadow"/>
<feBlend mode="normal" in="SourceGraphic" in2="effect1_dropShadow" result="shape"/>
</filter>
<linearGradient id="paint0_linear" x1="24.3771" y1="106.786" x2="196.616" y2="106.786" gradientUnits="userSpaceOnUse">
<stop stop-color="#147CB6"/>
<stop offset="1" stop-color="#54EAB4"/>
</linearGradient>
<linearGradient id="paint1_linear" x1="15.2752" y1="106.55" x2="221.246" y2="106.55" gradientUnits="userSpaceOnUse">
<stop stop-color="#147CB6"/>
<stop offset="1" stop-color="#54EAB4"/>
</linearGradient>
</defs>
</svg>
