<svg width="411" height="300" viewBox="0 0 411 300" fill="none" xmlns="http://www.w3.org/2000/svg">
<path d="M73.4439 198C73.3916 198 73.3403 197.986 73.2957 197.959L13.1494 164.439C13.1154 164.421 13.0856 164.396 13.0617 164.366C13.0377 164.336 13.0202 164.302 13.01 164.266C12.9999 164.23 12.9974 164.192 13.0027 164.154C13.0079 164.117 13.0209 164.081 13.0407 164.048C13.0809 163.984 13.1456 163.936 13.2213 163.917C13.2969 163.897 13.3774 163.907 13.4459 163.943L73.4439 197.38L215.81 118.04C215.855 118.014 215.906 118 215.958 118C216.011 118 216.062 118.014 216.107 118.04L310.973 170.907L373.555 136.03C373.623 135.992 373.704 135.982 373.78 136.001C373.856 136.021 373.921 136.069 373.96 136.135C374 136.201 374.01 136.279 373.99 136.352C373.969 136.426 373.92 136.488 373.852 136.526L311.124 171.486C311.079 171.512 311.028 171.526 310.975 171.526C310.923 171.526 310.872 171.512 310.827 171.486L215.961 118.619L73.5946 197.959C73.549 197.986 73.4969 198 73.4439 198Z" fill="#24C4A1"/>
<path d="M410.146 188.058L359.892 216.932C359.836 216.966 359.771 216.984 359.705 216.984C359.638 216.984 359.574 216.966 359.517 216.932L107.482 71.4173C107.424 71.385 107.375 71.3378 107.342 71.2806C107.308 71.2233 107.29 71.1581 107.29 71.0917C107.29 71.0253 107.308 70.9601 107.342 70.9029C107.375 70.8456 107.424 70.7984 107.482 70.7662L222.363 4.58254C222.45 4.53273 222.552 4.51923 222.648 4.54506C222.696 4.55785 222.741 4.57992 222.78 4.60998C222.819 4.64004 222.852 4.67751 222.877 4.72026C222.901 4.76301 222.917 4.81022 222.924 4.85916C222.93 4.90809 222.927 4.9578 222.914 5.00547C222.901 5.05314 222.879 5.09784 222.849 5.13699C222.819 5.17614 222.782 5.20896 222.739 5.23363L108.427 71.0917L359.714 216.171L409.968 187.297C410.025 187.265 410.09 187.248 410.155 187.248C410.221 187.248 410.286 187.265 410.343 187.297L410.146 188.058Z" fill="#24C4A1"/>
<path d="M280.49 298.044C280.424 298.044 280.359 298.027 280.302 297.994L203.372 253.575C203.314 253.543 203.265 253.495 203.232 253.438C203.198 253.381 203.18 253.316 203.18 253.249C203.18 253.183 203.198 253.118 203.232 253.06C203.265 253.003 203.314 252.956 203.372 252.924L299.062 197.677C299.148 197.627 299.25 197.614 299.347 197.64C299.443 197.666 299.525 197.729 299.575 197.815C299.625 197.901 299.638 198.004 299.612 198.1C299.587 198.196 299.524 198.279 299.437 198.328L204.311 253.249L280.69 297.339C280.761 297.381 280.816 297.446 280.847 297.522C280.878 297.598 280.884 297.683 280.862 297.762C280.841 297.842 280.794 297.913 280.729 297.963C280.664 298.014 280.585 298.042 280.502 298.044H280.49Z" fill="#24C4A1"/>
<path d="M307.665 270.986C307.606 270.986 307.548 270.971 307.497 270.941L13.1677 100.627C13.1295 100.605 13.0961 100.575 13.0693 100.54C13.0425 100.505 13.0228 100.465 13.0114 100.423C13 100.38 12.9971 100.336 13.0029 100.292C13.0086 100.248 13.0228 100.206 13.0448 100.168C13.0668 100.13 13.0961 100.096 13.131 100.069C13.1659 100.043 13.2058 100.023 13.2483 100.011C13.2908 100 13.3351 99.9971 13.3787 100.003C13.4223 100.009 13.4644 100.023 13.5025 100.045L307.832 270.374C307.896 270.41 307.946 270.467 307.974 270.536C308.003 270.604 308.008 270.68 307.989 270.751C307.97 270.823 307.927 270.886 307.869 270.931C307.81 270.976 307.739 271 307.665 271V270.986Z" fill="#24C4A1"/>
<path d="M128.182 218C128.124 218.001 128.067 217.985 128.017 217.955L32.1654 161.19C32.1151 161.161 32.0733 161.118 32.0443 161.067C32.0153 161.015 32 160.957 32 160.897C32 160.838 32.0153 160.779 32.0443 160.728C32.0733 160.676 32.1151 160.633 32.1654 160.604L116.238 110.81C116.314 110.772 116.401 110.764 116.482 110.789C116.563 110.814 116.631 110.87 116.674 110.945C116.716 111.02 116.729 111.109 116.71 111.194C116.691 111.278 116.641 111.352 116.571 111.4L32.9932 160.897L128.182 217.264L356.503 82.046C356.54 82.0236 356.582 82.009 356.625 82.0031C356.668 81.9971 356.712 81.9999 356.754 82.0113C356.796 82.0227 356.835 82.0425 356.87 82.0695C356.904 82.0965 356.933 82.1302 356.955 82.1688C356.977 82.2073 356.991 82.2499 356.997 82.2941C357.003 82.3382 357 82.3831 356.989 82.4262C356.978 82.4693 356.959 82.5098 356.932 82.5452C356.906 82.5807 356.873 82.6104 356.836 82.6328L128.347 217.949C128.298 217.981 128.241 217.998 128.182 218Z" fill="#24C4A1"/>
<path opacity="0.3" d="M70.0905 81.5218L37.1129 62.4803L70.0874 43.4419L103.065 62.4803L70.0905 81.5218Z" fill="#24C4A1"/>
<path opacity="0.5" d="M70.0905 59.5877L37.1129 40.5493L70.0874 21.5078L103.065 40.5493L70.0905 59.5877Z" fill="#24C4A1"/>
<path opacity="0.7" d="M70.0905 42.0082L37.1129 22.9666L70.0874 3.92822L103.065 22.9666L70.0905 42.0082Z" fill="#24C4A1"/>
<path d="M70.0904 42.9436C69.9259 42.9421 69.7643 42.899 69.6209 42.8184L36.6433 23.7769C36.5017 23.6941 36.3843 23.5758 36.3027 23.4335C36.2211 23.2913 36.1781 23.1301 36.1781 22.9662C36.1781 22.8022 36.2211 22.641 36.3027 22.4988C36.3843 22.3566 36.5017 22.2382 36.6433 22.1554L69.6209 3.117C69.7636 3.03458 69.9256 2.99121 70.0904 2.99121C70.2553 2.99121 70.4172 3.03458 70.56 3.117L103.541 22.1554C103.682 22.2382 103.8 22.3566 103.881 22.4988C103.963 22.641 104.006 22.8022 104.006 22.9662C104.006 23.1301 103.963 23.2913 103.881 23.4335C103.8 23.5758 103.682 23.6941 103.541 23.7769L70.5631 42.8184C70.4189 42.8999 70.2561 42.9431 70.0904 42.9436ZM38.9847 22.9662L70.0904 40.9246L101.196 22.9662L70.0904 5.00771L38.9847 22.9662Z" fill="#24C4A1"/>
<path opacity="0.7" d="M323.954 299.064L290.976 280.026L323.951 260.987L356.931 280.026L323.954 299.064Z" fill="#24C4A1"/>
<path d="M323.954 300C323.79 300 323.629 299.957 323.487 299.875L290.506 280.836C290.365 280.754 290.247 280.635 290.166 280.493C290.084 280.351 290.041 280.19 290.041 280.026C290.041 279.862 290.084 279.701 290.166 279.558C290.247 279.416 290.365 279.298 290.506 279.215L323.484 260.177C323.627 260.094 323.789 260.051 323.954 260.051C324.118 260.051 324.28 260.094 324.423 260.177L357.401 279.215C357.542 279.298 357.66 279.416 357.741 279.558C357.823 279.701 357.866 279.862 357.866 280.026C357.866 280.19 357.823 280.351 357.741 280.493C357.66 280.635 357.542 280.754 357.401 280.836L324.423 299.875C324.28 299.957 324.118 300 323.954 300ZM292.848 280.026L323.954 297.984L355.059 280.026L323.954 262.067L292.848 280.026Z" fill="#24C4A1"/>
<path opacity="0.7" d="M291.236 65.9586L273.932 55.9699L291.236 45.978L308.537 55.9699L291.236 65.9586Z" fill="#24C4A1"/>
<path opacity="0.5" d="M291.236 55.9699L273.932 45.978L291.236 35.9893L308.537 45.978L291.236 55.9699Z" fill="#24C4A1"/>
<path opacity="0.3" d="M291.236 45.9775L273.932 35.9887L291.236 26L308.537 35.9887L291.236 45.9775Z" fill="#24C4A1"/>
<path d="M291.236 66.8915C291.072 66.8911 290.91 66.8491 290.766 66.7694L273.465 56.7776C273.324 56.6948 273.206 56.5764 273.125 56.4342C273.043 56.2919 273 56.1308 273 55.9668C273 55.8028 273.043 55.6417 273.125 55.4995C273.206 55.3572 273.324 55.2388 273.465 55.1561L290.766 45.1673C290.909 45.0849 291.071 45.0415 291.236 45.0415C291.401 45.0415 291.563 45.0849 291.705 45.1673L309.006 55.1592C309.148 55.242 309.265 55.3604 309.347 55.5026C309.429 55.6448 309.472 55.806 309.472 55.97C309.472 56.1339 309.429 56.2951 309.347 56.4373C309.265 56.5796 309.148 56.6979 309.006 56.7807L291.702 66.7694C291.56 66.85 291.399 66.8921 291.236 66.8915ZM275.807 55.9668L291.236 64.8756L306.668 55.97L291.236 47.058L275.807 55.9668Z" fill="#24C4A1"/>
<path opacity="0.7" d="M18.2359 147.914L0.931641 137.925L18.2327 127.937L35.537 137.925L18.2359 147.914Z" fill="#24C4A1"/>
<path d="M18.2358 148.85C18.071 148.85 17.9091 148.807 17.7663 148.725L0.465187 138.736C0.323608 138.653 0.206184 138.535 0.12457 138.393C0.042955 138.25 0 138.089 0 137.925C0 137.761 0.042955 137.6 0.12457 137.458C0.206184 137.316 0.323608 137.197 0.465187 137.115L17.7663 127.126C17.909 127.043 18.071 127 18.2358 127C18.4007 127 18.5626 127.043 18.7054 127.126L36.0096 137.115C36.1512 137.197 36.2686 137.316 36.3502 137.458C36.4318 137.6 36.4748 137.761 36.4748 137.925C36.4748 138.089 36.4318 138.25 36.3502 138.393C36.2686 138.535 36.1512 138.653 36.0096 138.736L18.7085 148.725C18.5648 148.808 18.4017 148.851 18.2358 148.85ZM2.8035 137.925L18.2358 146.834L33.665 137.925L18.2358 129.016L2.8035 137.925Z" fill="#24C4A1"/>
<path style="mix-blend-mode:lighten" opacity="0.2" d="M217.02 7.54365C222.376 10.6332 227.438 14.9875 231.945 20.1305C238.206 0.0372108 257.282 -6.19518 279.857 6.83934C298.536 17.62 314.813 38.8309 323.425 61.3063C326.279 61.4002 329.457 62.3362 332.815 64.2801C345.005 71.317 354.884 88.4302 354.884 102.504C354.884 102.817 354.853 103.083 354.846 103.381C358.321 103.618 362.162 104.849 366.206 107.181C381.792 116.183 394.429 138.07 394.429 156.07C394.429 174.069 381.792 181.362 366.206 172.347L217.014 86.214C198.197 75.3488 182.944 48.9292 182.944 27.2019C182.944 5.47455 198.191 -3.32157 217.02 7.54365Z" fill="url(#paint0_linear)"/>
<path style="mix-blend-mode:lighten" opacity="0.4" d="M204.117 15.5789C209.473 18.6716 214.535 23.0258 219.042 28.1689C225.303 8.07557 244.379 1.84005 266.957 14.8746C285.633 25.6584 301.91 46.8692 310.522 69.3415C313.376 69.4323 316.554 70.3714 319.912 72.3153C332.102 79.3522 341.981 96.4655 341.981 110.539C341.981 110.852 341.953 111.118 341.943 111.413C345.418 111.654 349.259 112.884 353.303 115.216C368.892 124.215 381.529 146.102 381.529 164.102C381.529 182.101 368.892 189.397 353.303 180.398L204.117 94.2586C185.301 83.3965 170.047 56.9769 170.047 35.2496C170.047 13.5223 185.301 4.71678 204.117 15.5789Z" fill="url(#paint1_linear)"/>
<path style="mix-blend-mode:lighten" opacity="0.6" d="M188.888 25.5801C194.241 28.6729 199.306 33.0271 203.813 38.1701C210.074 18.0737 229.15 11.8413 251.725 24.8758C270.404 35.6597 286.681 56.8673 295.293 79.3428C298.144 79.4336 301.325 80.3727 304.683 82.3166C316.873 89.3534 326.752 106.467 326.752 120.537C326.752 120.85 326.721 121.12 326.711 121.414C330.189 121.655 334.03 122.882 338.074 125.217C353.66 134.217 366.297 156.104 366.297 174.103C366.297 192.102 353.66 199.399 338.074 190.399L188.882 104.263C170.066 93.4009 154.812 66.9813 154.812 45.254C154.812 23.5267 170.072 14.7306 188.888 25.5801Z" fill="url(#paint2_linear)"/>
<path d="M297.402 252.563C296.362 252.6 295.33 252.372 294.4 251.903L90.7378 134.32C90.5524 134.226 90.3908 134.09 90.2655 133.924C90.1402 133.758 90.0544 133.566 90.0146 133.362C90.0146 132.896 90.7534 132.373 91.3701 132.016L133.707 107.593C134.998 106.897 136.445 106.541 137.911 106.557C138.955 106.522 139.99 106.752 140.919 107.227L344.576 224.81C344.795 224.935 345.299 225.264 345.299 225.627C345.299 225.89 345.014 226.497 343.947 227.111L301.619 251.549C300.321 252.236 298.871 252.585 297.402 252.563ZM90.8035 133.375C90.8813 133.497 90.989 133.597 91.1165 133.666L294.779 251.249C296.301 252.128 299.381 251.959 301.237 250.885L343.562 226.447C343.933 226.265 344.255 225.995 344.501 225.662C344.405 225.579 344.3 225.508 344.188 225.449L140.531 107.866C139.717 107.458 138.812 107.263 137.902 107.299C136.567 107.287 135.251 107.61 134.073 108.238L91.7614 132.67C91.4031 132.847 91.0788 133.085 90.8035 133.375Z" fill="#42E8E0"/>
<path d="M171.725 36.4297C177.077 39.5225 182.142 43.8736 186.65 49.0197C192.91 28.9233 211.986 22.6909 234.562 35.7254C253.24 46.5093 269.518 67.7169 278.126 90.1924C280.981 90.2832 284.161 91.2223 287.517 93.1662C299.706 100.203 309.586 117.313 309.586 131.387C309.586 131.7 309.554 131.969 309.545 132.263C313.023 132.504 316.863 133.732 320.905 136.067C336.493 145.066 349.13 166.953 349.13 184.952C349.13 202.952 336.493 210.248 320.905 201.249L171.725 115.106C152.908 104.241 137.655 77.8215 137.655 56.0973C137.655 34.3731 152.908 25.5802 171.725 36.4297Z" fill="url(#paint3_linear)"/>
<path d="M171.725 36.4299C174.928 38.31 177.931 40.5127 180.687 43.0035L197.371 33.3653C206.536 26.92 219.803 27.2018 234.565 35.7255C253.243 46.5094 269.521 67.7171 278.129 90.1925C280.984 90.2833 284.164 91.2224 287.52 93.1663C299.709 100.203 309.589 117.313 309.589 131.387C309.589 131.7 309.557 131.969 309.548 132.264C313.026 132.501 316.867 133.732 320.908 136.067C336.497 145.066 349.133 166.953 349.133 184.952C349.133 193.874 346.025 200.153 340.995 203.136H341.01L340.879 203.211H340.854L299.991 226.933L291.067 183.998L171.725 115.106C152.908 104.241 137.655 77.8216 137.655 56.0974C137.655 34.3732 152.908 25.5803 171.725 36.4299Z" fill="url(#paint4_radial)"/>
<path d="M106.048 58.2074L147.449 34.1511C153.628 30.4699 162.221 30.9332 171.725 36.4206C174.928 38.3008 177.931 40.5034 180.687 42.9942L197.371 33.356C206.537 26.9108 219.803 27.1925 234.565 35.7163C253.244 46.5001 269.521 67.7078 278.129 90.1832C280.984 90.274 284.165 91.2131 287.52 93.157C299.71 100.194 309.589 117.304 309.589 131.378C309.589 131.691 309.557 131.96 309.548 132.254C313.026 132.492 316.867 133.722 320.908 136.058C336.497 145.057 349.134 166.944 349.134 184.943C349.134 193.865 346.025 200.144 340.995 203.127H341.011L340.879 203.202H340.854L299.991 226.924L291.067 183.989L171.725 115.107C156.471 106.301 143.552 87.2721 139.22 68.8065L106.048 58.2074Z" fill="url(#paint5_linear)"/>
<path d="M130.73 60.2261C136.083 63.3156 141.148 67.6699 145.656 72.8129C151.916 52.7196 170.992 46.4841 193.568 59.5186C212.243 70.3024 228.52 91.5133 237.132 113.986C239.987 114.076 243.164 115.015 246.523 116.959C258.709 123.996 268.591 141.11 268.591 155.183C268.591 155.496 268.56 155.762 268.551 156.057C272.028 156.298 275.869 157.528 279.91 159.86C295.499 168.859 308.136 190.746 308.136 208.749C308.136 226.751 295.499 234.041 279.91 225.042L130.73 138.896C111.914 128.034 96.6603 101.615 96.6603 79.8874C96.6603 58.16 111.914 49.3702 130.73 60.2261Z" fill="url(#paint6_linear)"/>
<path d="M144.288 73.6334C139.78 68.4903 134.718 64.1361 129.362 61.0465C120.163 55.7251 111.833 55.1365 105.691 58.439C111.914 54.2444 120.826 54.5074 130.733 60.2264C135.776 63.1376 140.559 67.1819 144.867 71.9399C144.662 72.495 144.469 73.0595 144.288 73.6334Z" fill="white"/>
<path d="M306.781 209.566C306.781 191.564 294.144 169.677 278.555 160.677C274.511 158.345 270.67 157.115 267.195 156.874C267.195 156.58 267.233 156.304 267.233 156.001C267.233 141.914 257.354 124.814 245.164 117.777C241.799 115.833 238.622 114.894 235.773 114.803C227.162 92.3337 210.884 71.1229 192.206 60.3359C178.555 52.4539 166.184 51.6306 157.147 56.6453C166.278 50.7416 179.215 51.2268 193.571 59.5158C212.246 70.2996 228.524 91.5104 237.135 113.983C239.99 114.074 243.167 115.013 246.526 116.957C258.712 123.993 268.594 141.107 268.594 155.18C268.594 155.493 268.563 155.76 268.554 156.054C272.031 156.295 275.872 157.525 279.913 159.857C295.502 168.857 308.139 190.744 308.139 208.746C308.139 217.99 304.802 224.397 299.446 227.24C303.995 224.081 306.781 217.999 306.781 209.566Z" fill="white"/>
<path d="M198.191 252.191L197.634 251.089C221.506 239.056 237.276 231.105 240.519 185.409L241.602 149.28L238.885 147.746C220.657 137.435 203.074 120.055 188.037 97.4891L187.545 96.7503L185.06 95.3073L183.407 95.8801C178.833 97.4383 174.03 98.2202 169.198 98.1934V96.9507C173.893 96.9771 178.559 96.2174 183.003 94.7031L185.194 93.9487L188.418 95.8269L189.07 96.8067C204.001 119.213 221.44 136.455 239.498 146.672L242.864 148.572L241.765 185.381C238.456 231.891 222.438 239.967 198.191 252.191Z" fill="#D1EBFF"/>
<path d="M224.041 160.283C205.547 149.818 187.464 131.969 172.31 109.228L172.103 109.109C156.95 114.352 138.866 111.322 120.369 100.429L119.665 100.012L120.66 134.571C124.172 188.139 142.441 211.453 171.85 261.256L172.563 261.67C201.969 245.824 220.241 243.605 223.75 194.087L224.749 160.683L224.041 160.283Z" fill="#A8CFF0"/>
<path d="M234.474 152.335C215.977 141.87 197.897 124.022 182.74 101.277L182.537 101.161C167.38 106.404 149.299 103.371 130.802 92.4808L130.095 92.0645L119.862 100.128L120.372 100.441C138.866 111.334 156.95 114.365 172.103 109.121L172.31 109.24C187.464 131.982 205.547 149.831 224.041 160.295L224.749 160.696L223.75 194.099C221.462 226.419 212.878 238.587 199.021 247.549C216.334 237.322 231.607 222.478 234.183 186.151L235.182 152.748L234.474 152.335Z" fill="#D1EBFF"/>
<path d="M235.182 152.736L234.474 152.335C215.977 141.87 197.897 124.022 182.74 101.277L182.537 101.161L172.103 109.109L172.31 109.228C187.464 131.969 205.547 149.818 224.041 160.283L224.748 160.684L235.182 152.736Z" fill="#D1EBFF"/>
<path d="M224.749 160.683L223.75 194.086C221.462 226.407 212.878 238.574 199.021 247.536C216.334 237.309 231.607 222.466 234.183 186.139L235.182 152.735L224.749 160.683Z" fill="#72B5E8"/>
<path d="M168.551 238.587C145.721 200.711 134.24 181.672 131.472 140.111L130.846 118.296C145.502 124.923 159.554 127.036 172.213 124.516C184.869 141.651 198.921 155.763 213.577 166.061L212.951 187.147C210.18 225.512 198.698 231.303 175.866 242.813C174.673 243.417 173.456 244.028 172.216 244.66L168.551 238.587Z" fill="#147CB6"/>
<path d="M177.728 241.163C176.533 241.767 175.318 242.378 174.075 243.01L170.419 236.934C147.593 199.058 136.111 180.023 133.341 138.462L132.784 119.138C132.136 118.863 131.491 118.591 130.84 118.296L131.466 140.111C134.233 181.672 145.715 200.72 168.544 238.587L172.2 244.66C173.452 244.034 174.658 243.408 175.85 242.813C185.166 238.117 192.591 234.361 198.307 228.98C192.87 233.519 186.061 236.962 177.728 241.163Z" fill="#001A46"/>
<path d="M148.905 165.369L166.951 204.673L198.77 171.273L184.049 157.866L166.951 186.69L158.878 167.313L148.905 165.369Z" fill="#001A46"/>
<path d="M121.358 170.366L143.496 218.575L182.524 177.606L164.465 161.163L143.496 196.516L133.591 172.751L121.358 170.366Z" fill="#0BA19F"/>
<path d="M118.059 172.785L140.193 220.995L179.225 180.025L161.166 163.582L140.193 198.935L130.292 175.17L118.059 172.785Z" fill="#24C4A1"/>
<path d="M182.524 177.606L179.225 180.026L140.193 220.995L143.496 218.575L182.524 177.606Z" fill="#0BA19F"/>
<path d="M121.358 170.366L118.059 172.785L130.292 175.171L133.592 172.751L121.358 170.366Z" fill="#3ECFCD"/>
<path d="M179.225 180.026L161.166 163.582L164.465 161.163L182.524 177.606L179.225 180.026Z" fill="#3ECFCD"/>
<path d="M130.324 174.635L118.059 172.785L130.292 175.171L133.592 172.751L130.324 174.635Z" fill="white"/>
<path d="M179.225 180.025L161.166 163.582L179.272 179.365L182.524 177.606L179.225 180.025Z" fill="white"/>
<path d="M224.701 159.622C206.208 149.158 188.124 131.309 172.967 108.567L172.764 108.448C157.607 113.692 139.526 110.661 121.03 99.7681L120.357 100.482C138.825 111.328 156.865 114.343 172.006 109.109L172.21 109.228C187.367 131.969 205.45 149.818 223.944 160.283L224.651 160.683L223.653 194.087C221.753 220.907 215.514 233.841 205.532 242.606C215.968 233.841 222.473 220.935 224.423 193.436L225.421 160.029L224.701 159.622Z" fill="white"/>
<path d="M91.5955 163C91.4295 163 91.2703 162.934 91.1529 162.817C91.0355 162.699 90.9695 162.54 90.9695 162.374C90.9695 161.539 90.9852 160.704 91.0165 159.87C91.0253 159.71 91.0951 159.559 91.2116 159.449C91.3281 159.339 91.4823 159.278 91.6425 159.278C91.8053 159.287 91.9581 159.359 92.0686 159.479C92.1791 159.599 92.2384 159.757 92.2341 159.92C92.2028 160.721 92.1872 161.535 92.1872 162.361C92.1907 162.524 92.1309 162.681 92.0205 162.8C91.9101 162.919 91.7577 162.991 91.5955 163ZM91.9086 156.846H91.846C91.6842 156.827 91.5362 156.746 91.4334 156.619C91.3305 156.493 91.2809 156.332 91.295 156.17C91.3796 155.328 91.486 154.504 91.6081 153.697C91.6048 153.605 91.6218 153.513 91.6579 153.429C91.694 153.344 91.7482 153.269 91.8167 153.208C91.8852 153.146 91.9664 153.101 92.0544 153.075C92.1424 153.048 92.2352 153.042 92.3261 153.055C92.4169 153.069 92.5037 153.102 92.5803 153.153C92.6568 153.204 92.7212 153.271 92.7689 153.35C92.8166 153.428 92.8464 153.516 92.8562 153.608C92.866 153.699 92.8556 153.791 92.8257 153.878C92.7068 154.67 92.6066 155.475 92.5127 156.298C92.4911 156.445 92.4179 156.58 92.306 156.678C92.1942 156.776 92.0511 156.831 91.9023 156.833L91.9086 156.846ZM92.9102 150.764C92.8635 150.77 92.8162 150.77 92.7694 150.764C92.6119 150.724 92.4758 150.625 92.39 150.487C92.3041 150.349 92.2752 150.184 92.3093 150.025C92.5002 149.195 92.7131 148.391 92.9353 147.605C92.9455 147.514 92.9754 147.427 93.023 147.349C93.0706 147.271 93.1347 147.204 93.2108 147.154C93.2869 147.103 93.3732 147.07 93.4635 147.056C93.5539 147.042 93.6462 147.048 93.7339 147.074C93.8215 147.1 93.9026 147.145 93.9711 147.205C94.0397 147.265 94.0943 147.34 94.1309 147.424C94.1676 147.507 94.1855 147.598 94.1834 147.69C94.1812 147.781 94.1591 147.871 94.1186 147.953C93.8932 148.716 93.6845 149.5 93.4925 150.303C93.4546 150.431 93.3772 150.543 93.2714 150.623C93.1656 150.704 93.0369 150.749 92.904 150.751L92.9102 150.764ZM94.7509 144.888C94.6715 144.889 94.5928 144.874 94.5193 144.844C94.3687 144.781 94.2488 144.662 94.1851 144.511C94.1213 144.361 94.1188 144.192 94.178 144.04C94.4911 143.257 94.8417 142.475 95.2048 141.748C95.2912 141.628 95.4175 141.543 95.5611 141.507C95.7047 141.471 95.8563 141.487 95.9892 141.552C96.122 141.617 96.2274 141.728 96.2867 141.863C96.346 141.999 96.3552 142.151 96.3129 142.293C95.9623 143.007 95.6273 143.749 95.3237 144.503C95.2741 144.615 95.1929 144.71 95.09 144.776C94.9871 144.842 94.867 144.877 94.7446 144.876L94.7509 144.888ZM97.5869 139.426C97.4668 139.427 97.3492 139.392 97.2489 139.326C97.1137 139.234 97.0194 139.094 96.9861 138.935C96.9528 138.775 96.983 138.609 97.0704 138.471C97.5368 137.757 98.0345 137.069 98.5448 136.427C98.6547 136.33 98.7954 136.274 98.9422 136.27C99.0891 136.266 99.2327 136.313 99.348 136.404C99.4632 136.495 99.5428 136.624 99.5728 136.768C99.6028 136.911 99.5813 137.061 99.512 137.191C99.0237 137.817 98.5479 138.465 98.1034 139.147C98.0446 139.231 97.9663 139.299 97.8751 139.345C97.784 139.392 97.6829 139.415 97.5807 139.413L97.5869 139.426ZM101.519 134.699C101.397 134.695 101.279 134.655 101.179 134.585C101.079 134.515 101.002 134.417 100.958 134.304C100.913 134.19 100.902 134.066 100.926 133.947C100.951 133.828 101.01 133.718 101.096 133.632C101.722 133.056 102.348 132.505 103.021 131.994C103.152 131.925 103.303 131.904 103.448 131.936C103.592 131.968 103.721 132.049 103.811 132.167C103.901 132.284 103.946 132.43 103.939 132.578C103.932 132.725 103.873 132.866 103.772 132.974C103.136 133.464 102.526 133.987 101.944 134.539C101.824 134.641 101.67 134.694 101.512 134.687L101.519 134.699ZM106.496 131.093C106.363 131.086 106.235 131.036 106.132 130.951C106.029 130.867 105.956 130.751 105.923 130.622C105.89 130.493 105.899 130.356 105.95 130.233C106 130.109 106.088 130.005 106.201 129.935C106.944 129.535 107.707 129.173 108.487 128.852C108.63 128.821 108.78 128.841 108.91 128.909C109.04 128.977 109.142 129.089 109.198 129.225C109.254 129.361 109.26 129.512 109.216 129.652C109.172 129.792 109.08 129.912 108.956 129.991C108.216 130.296 107.491 130.64 106.787 131.021C106.693 131.062 106.591 131.08 106.489 131.071L106.496 131.093ZM112.233 128.902C112.091 128.888 111.958 128.827 111.856 128.727C111.753 128.627 111.688 128.496 111.671 128.354C111.654 128.212 111.685 128.068 111.761 127.947C111.837 127.826 111.951 127.734 112.086 127.687C112.897 127.487 113.73 127.327 114.566 127.205C114.713 127.21 114.854 127.266 114.964 127.364C115.073 127.462 115.145 127.596 115.166 127.742C115.187 127.888 115.156 128.036 115.078 128.161C115 128.286 114.881 128.38 114.741 128.426C113.946 128.542 113.151 128.695 112.381 128.883C112.33 128.889 112.278 128.888 112.227 128.88L112.233 128.902Z" fill="#DB3216"/>
<path d="M161.739 254.717H161.714C160.894 254.686 160.052 254.62 159.21 254.523C159.119 254.528 159.028 254.513 158.943 254.48C158.859 254.446 158.783 254.394 158.72 254.328C158.658 254.262 158.61 254.183 158.582 254.097C158.553 254.01 158.543 253.919 158.553 253.828C158.563 253.738 158.593 253.651 158.64 253.573C158.688 253.495 158.751 253.429 158.827 253.378C158.902 253.327 158.988 253.294 159.078 253.28C159.168 253.265 159.26 253.271 159.347 253.296C160.161 253.39 160.972 253.453 161.764 253.484C161.909 253.512 162.039 253.591 162.131 253.705C162.224 253.82 162.273 253.964 162.27 254.111C162.267 254.259 162.212 254.4 162.115 254.511C162.018 254.622 161.885 254.695 161.739 254.717ZM155.632 253.916C155.587 253.915 155.543 253.91 155.5 253.9C154.699 253.728 153.888 253.525 153.071 253.296C152.937 253.233 152.83 253.125 152.768 252.99C152.706 252.856 152.694 252.704 152.734 252.561C152.773 252.418 152.863 252.294 152.985 252.211C153.108 252.128 153.256 252.091 153.403 252.107C154.198 252.332 154.968 252.526 155.763 252.698C155.899 252.743 156.016 252.833 156.094 252.954C156.172 253.074 156.206 253.218 156.19 253.36C156.175 253.503 156.111 253.636 156.01 253.737C155.908 253.838 155.774 253.901 155.632 253.916ZM149.722 252.175C149.648 252.175 149.575 252.162 149.506 252.138C148.739 251.856 147.966 251.546 147.186 251.218C147.062 251.138 146.97 251.017 146.926 250.875C146.882 250.734 146.89 250.582 146.948 250.446C147.005 250.31 147.109 250.199 147.241 250.132C147.373 250.065 147.524 250.047 147.668 250.081C148.43 250.403 149.185 250.702 149.935 250.98C150.062 251.037 150.167 251.135 150.232 251.258C150.297 251.382 150.319 251.523 150.295 251.661C150.27 251.798 150.201 251.923 150.097 252.017C149.993 252.11 149.861 252.166 149.722 252.175ZM144.087 249.706C143.991 249.707 143.897 249.684 143.812 249.64C143.079 249.274 142.347 248.886 141.621 248.475C141.505 248.383 141.426 248.253 141.397 248.108C141.368 247.963 141.392 247.812 141.464 247.683C141.535 247.554 141.65 247.454 141.788 247.401C141.927 247.349 142.079 247.347 142.218 247.396C142.945 247.799 143.662 248.178 144.378 248.538C144.495 248.605 144.587 248.709 144.641 248.833C144.694 248.957 144.706 249.095 144.675 249.226C144.643 249.357 144.571 249.475 144.467 249.561C144.363 249.648 144.235 249.698 144.1 249.706H144.087ZM138.722 246.669C138.611 246.667 138.503 246.635 138.409 246.575C137.71 246.137 137.015 245.685 136.324 245.22C136.218 245.118 136.151 244.982 136.135 244.835C136.119 244.688 136.155 244.541 136.238 244.418C136.32 244.296 136.443 244.207 136.585 244.166C136.727 244.125 136.878 244.136 137.013 244.196C137.695 244.653 138.378 245.101 139.063 245.53C139.17 245.604 139.251 245.709 139.295 245.831C139.34 245.953 139.345 246.085 139.311 246.211C139.276 246.336 139.204 246.447 139.103 246.529C139.003 246.611 138.88 246.66 138.75 246.669H138.722ZM133.635 243.182C133.503 243.181 133.375 243.138 133.269 243.06C132.609 242.565 131.951 242.061 131.3 241.542C131.219 241.498 131.149 241.438 131.094 241.364C131.039 241.291 131.001 241.206 130.983 241.117C130.964 241.027 130.966 240.934 130.987 240.845C131.008 240.756 131.049 240.672 131.106 240.6C131.163 240.529 131.235 240.47 131.317 240.429C131.399 240.389 131.489 240.366 131.581 240.364C131.673 240.362 131.764 240.38 131.848 240.417C131.932 240.454 132.007 240.509 132.067 240.578C132.709 241.088 133.357 241.586 134.005 242.071C134.103 242.151 134.175 242.259 134.211 242.381C134.246 242.503 134.244 242.633 134.204 242.754C134.164 242.875 134.088 242.98 133.986 243.057C133.885 243.133 133.762 243.177 133.635 243.182ZM128.836 239.313C128.688 239.312 128.545 239.259 128.433 239.163C127.807 238.621 127.181 238.074 126.576 237.51C126.5 237.461 126.435 237.395 126.386 237.318C126.337 237.241 126.306 237.155 126.294 237.064C126.282 236.974 126.29 236.882 126.318 236.795C126.345 236.708 126.391 236.628 126.453 236.561C126.514 236.494 126.59 236.441 126.674 236.405C126.758 236.37 126.849 236.354 126.94 236.358C127.031 236.361 127.12 236.385 127.201 236.427C127.282 236.468 127.353 236.527 127.409 236.599C128.014 237.154 128.625 237.698 129.24 238.23C129.331 238.314 129.394 238.424 129.422 238.544C129.451 238.664 129.443 238.79 129.399 238.906C129.356 239.022 129.28 239.122 129.18 239.195C129.079 239.267 128.96 239.308 128.836 239.313ZM124.31 235.125C124.147 235.124 123.991 235.06 123.875 234.946C123.29 234.364 122.707 233.779 122.131 233.181C122.047 233.059 122.009 232.911 122.024 232.763C122.039 232.616 122.105 232.478 122.212 232.375C122.319 232.272 122.459 232.21 122.607 232.201C122.755 232.191 122.901 232.235 123.02 232.323C123.59 232.912 124.163 233.497 124.742 234.067C124.826 234.154 124.882 234.264 124.904 234.382C124.927 234.501 124.915 234.624 124.869 234.736C124.823 234.848 124.746 234.944 124.647 235.013C124.548 235.082 124.431 235.121 124.31 235.125ZM120.053 230.661C119.966 230.661 119.881 230.643 119.802 230.607C119.723 230.571 119.653 230.519 119.596 230.454C119.045 229.841 118.5 229.215 117.962 228.576C117.858 228.451 117.807 228.291 117.82 228.129C117.832 227.968 117.906 227.817 118.028 227.709C118.153 227.605 118.314 227.553 118.476 227.565C118.639 227.578 118.79 227.653 118.898 227.775C119.43 228.401 119.968 229.014 120.513 229.615C120.589 229.705 120.638 229.815 120.655 229.932C120.671 230.048 120.655 230.167 120.606 230.275C120.558 230.383 120.481 230.474 120.383 230.54C120.285 230.605 120.171 230.642 120.053 230.645V230.661ZM116.068 225.966C115.976 225.965 115.884 225.944 115.801 225.904C115.718 225.864 115.644 225.806 115.586 225.734C115.073 225.089 114.562 224.441 114.058 223.784C113.989 223.653 113.968 223.502 114 223.357C114.032 223.213 114.113 223.084 114.231 222.994C114.348 222.904 114.494 222.858 114.642 222.865C114.789 222.872 114.93 222.932 115.038 223.032C115.536 223.68 116.04 224.325 116.55 224.961C116.651 225.09 116.697 225.253 116.679 225.416C116.661 225.578 116.58 225.727 116.453 225.831C116.34 225.922 116.198 225.971 116.052 225.969L116.068 225.966ZM112.346 221.054C112.248 221.053 112.152 221.03 112.065 220.985C111.978 220.941 111.903 220.876 111.845 220.797C111.363 220.124 110.891 219.451 110.421 218.769C110.358 218.635 110.344 218.482 110.383 218.339C110.421 218.196 110.51 218.071 110.632 217.986C110.754 217.902 110.902 217.864 111.05 217.879C111.198 217.894 111.335 217.961 111.438 218.068C111.902 218.744 112.371 219.414 112.847 220.078C112.91 220.17 112.947 220.278 112.953 220.39C112.96 220.502 112.937 220.614 112.886 220.714C112.834 220.814 112.757 220.898 112.662 220.958C112.567 221.018 112.458 221.051 112.346 221.054ZM108.884 215.952C108.781 215.951 108.68 215.925 108.589 215.876C108.498 215.827 108.421 215.756 108.364 215.67C107.918 214.975 107.479 214.274 107.047 213.567C106.994 213.43 106.991 213.279 107.038 213.14C107.085 213.001 107.179 212.883 107.304 212.806C107.43 212.73 107.578 212.7 107.723 212.722C107.868 212.743 108.001 212.815 108.098 212.925C108.528 213.624 108.963 214.317 109.404 215.003C109.458 215.097 109.487 215.203 109.488 215.311C109.489 215.419 109.462 215.525 109.41 215.62C109.357 215.714 109.281 215.794 109.189 215.85C109.097 215.907 108.992 215.938 108.884 215.942V215.952ZM105.688 210.68C105.579 210.679 105.473 210.65 105.379 210.595C105.285 210.54 105.207 210.462 105.153 210.367C104.743 209.651 104.339 208.931 103.941 208.201C103.895 208.062 103.899 207.91 103.953 207.774C104.007 207.637 104.107 207.524 104.237 207.454C104.366 207.383 104.515 207.361 104.659 207.39C104.803 207.419 104.933 207.498 105.024 207.613C105.417 208.333 105.816 209.047 106.223 209.757C106.301 209.9 106.32 210.067 106.277 210.223C106.234 210.38 106.132 210.513 105.992 210.596C105.896 210.655 105.785 210.685 105.672 210.684L105.688 210.68ZM102.761 205.246C102.647 205.245 102.536 205.213 102.439 205.154C102.342 205.094 102.263 205.009 102.21 204.908C101.839 204.169 101.474 203.428 101.115 202.682C101.061 202.608 101.025 202.523 101.008 202.434C100.991 202.344 100.994 202.251 101.017 202.163C101.04 202.074 101.081 201.992 101.139 201.921C101.197 201.851 101.27 201.793 101.352 201.754C101.434 201.714 101.524 201.693 101.615 201.692C101.707 201.691 101.797 201.709 101.881 201.747C101.964 201.784 102.038 201.84 102.098 201.909C102.157 201.978 102.201 202.059 102.226 202.147C102.581 202.886 102.943 203.616 103.312 204.338C103.384 204.485 103.395 204.654 103.344 204.809C103.294 204.963 103.184 205.092 103.04 205.168C102.951 205.222 102.85 205.253 102.746 205.259L102.761 205.246ZM100.119 199.668C100 199.667 99.884 199.632 99.7842 199.567C99.6844 199.502 99.6051 199.41 99.5558 199.302C99.2208 198.541 98.8922 197.78 98.576 197.017C98.5437 196.873 98.5632 196.722 98.631 196.591C98.6989 196.46 98.8108 196.358 98.947 196.301C99.0831 196.245 99.2349 196.238 99.3755 196.283C99.5161 196.327 99.6364 196.419 99.7154 196.544C100.028 197.301 100.341 198.053 100.686 198.804C100.75 198.954 100.753 199.123 100.694 199.274C100.636 199.426 100.521 199.55 100.373 199.618C100.288 199.655 100.196 199.674 100.104 199.671L100.119 199.668Z" fill="#DB3216"/>
<path d="M140.509 233.466C120.037 221.649 103.384 192.923 103.384 169.43C103.384 157.967 107.294 149.396 114.393 145.295C121.556 141.16 131.05 142.087 141.126 147.906C144.676 149.982 148.004 152.417 151.055 155.174L150.232 156.095C147.244 153.394 143.986 151.008 140.509 148.973C130.831 143.386 121.775 142.459 115.01 146.363C108.308 150.235 104.618 158.424 104.618 169.43C104.618 192.528 120.995 220.766 141.126 232.402L140.509 233.466Z" fill="#DB3216"/>
<path d="M143.302 234.223C143.242 235.429 142.416 235.955 141.452 235.397C140.488 234.84 139.755 233.416 139.811 232.211C139.868 231.006 140.697 230.48 141.661 231.037C142.625 231.594 143.358 233.021 143.302 234.223Z" fill="#EB4680"/>
<path d="M152.408 157.005L146.958 155.644C146.822 155.584 146.712 155.477 146.647 155.343C146.582 155.209 146.568 155.057 146.605 154.913C146.643 154.769 146.731 154.643 146.853 154.558C146.975 154.473 147.123 154.434 147.271 154.448L150.454 155.243L149.321 152.175C149.274 152.097 149.246 152.008 149.237 151.917C149.228 151.826 149.239 151.734 149.27 151.647C149.3 151.561 149.35 151.483 149.414 151.417C149.478 151.352 149.556 151.302 149.642 151.27C149.728 151.238 149.82 151.225 149.911 151.233C150.003 151.24 150.091 151.268 150.171 151.313C150.25 151.359 150.319 151.421 150.372 151.496C150.424 151.571 150.46 151.656 150.476 151.747L152.408 157.005Z" fill="#DB3216"/>
<defs>
<linearGradient id="paint0_linear" x1="391.337" y1="128.68" x2="178.875" y2="128.68" gradientUnits="userSpaceOnUse">
<stop stop-color="#24C4A1"/>
<stop offset="0.03" stop-color="#24BA9F"/>
<stop offset="0.16" stop-color="#249696"/>
<stop offset="0.3" stop-color="#24788F"/>
<stop offset="0.44" stop-color="#24628A"/>
<stop offset="0.6" stop-color="#245286"/>
<stop offset="0.77" stop-color="#244884"/>
<stop offset="1" stop-color="#244583"/>
</linearGradient>
<linearGradient id="paint1_linear" x1="533579" y1="264283" x2="698566" y2="264283" gradientUnits="userSpaceOnUse">
<stop stop-color="#24C4A1"/>
<stop offset="0.03" stop-color="#24BA9F"/>
<stop offset="0.16" stop-color="#249696"/>
<stop offset="0.3" stop-color="#24788F"/>
<stop offset="0.44" stop-color="#24628A"/>
<stop offset="0.6" stop-color="#245286"/>
<stop offset="0.77" stop-color="#244884"/>
<stop offset="1" stop-color="#244583"/>
</linearGradient>
<linearGradient id="paint2_linear" x1="545453" y1="273463" x2="710443" y2="273463" gradientUnits="userSpaceOnUse">
<stop stop-color="#24C4A1"/>
<stop offset="0.03" stop-color="#24BA9F"/>
<stop offset="0.16" stop-color="#249696"/>
<stop offset="0.3" stop-color="#24788F"/>
<stop offset="0.44" stop-color="#24628A"/>
<stop offset="0.6" stop-color="#245286"/>
<stop offset="0.77" stop-color="#244884"/>
<stop offset="1" stop-color="#244583"/>
</linearGradient>
<linearGradient id="paint3_linear" x1="345.833" y1="157.346" x2="133.368" y2="157.346" gradientUnits="userSpaceOnUse">
<stop stop-color="#5761D7"/>
<stop offset="0.18" stop-color="#5C66D9"/>
<stop offset="0.39" stop-color="#6A73DF"/>
<stop offset="0.61" stop-color="#8289E8"/>
<stop offset="0.85" stop-color="#A3A7F5"/>
<stop offset="1" stop-color="#BCBEFF"/>
</linearGradient>
<radialGradient id="paint4_radial" cx="0" cy="0" r="1" gradientUnits="userSpaceOnUse" gradientTransform="translate(299.437 96.2308) rotate(180) scale(100.883)">
<stop stop-color="#2B237C"/>
<stop offset="1" stop-color="#180D5B"/>
</radialGradient>
<linearGradient id="paint5_linear" x1="349.14" y1="127.919" x2="106.048" y2="127.919" gradientUnits="userSpaceOnUse">
<stop stop-color="#147CB6"/>
<stop offset="0.11" stop-color="#197FB8"/>
<stop offset="0.24" stop-color="#2787BC"/>
<stop offset="0.38" stop-color="#3F94C3"/>
<stop offset="0.53" stop-color="#60A7CE"/>
<stop offset="0.68" stop-color="#8BBEDB"/>
<stop offset="0.83" stop-color="#BFDBEB"/>
<stop offset="0.99" stop-color="#FCFDFE"/>
<stop offset="1" stop-color="white"/>
</linearGradient>
<linearGradient id="paint6_linear" x1="304.647" y1="180.945" x2="92.1853" y2="180.945" gradientUnits="userSpaceOnUse">
<stop stop-color="#72B5E8"/>
<stop offset="0.16" stop-color="#77B7E9"/>
<stop offset="0.35" stop-color="#85BDEB"/>
<stop offset="0.56" stop-color="#9DC8F0"/>
<stop offset="0.77" stop-color="#BED6F5"/>
<stop offset="1" stop-color="#E9E9FD"/>
</linearGradient>
</defs>
</svg>
