<svg width="300" height="363" viewBox="0 0 300 363" fill="none" xmlns="http://www.w3.org/2000/svg">
<path d="M45.7623 179.598C46.2711 178.41 47.5618 177.549 49.5184 177.317C53.4349 176.843 58.5295 179.025 60.8992 182.166C62.0841 183.744 62.3641 185.266 61.8587 186.455L29.386 271.532C28.7577 273.322 26.9207 274.626 24.0525 274.974C18.5891 275.637 11.4561 272.605 8.14392 268.196C6.40589 265.885 6.07466 263.658 6.9283 261.965H6.90788L45.7623 179.598Z" fill="#375A64"/>
<path d="M60.906 182.166C63.2757 185.318 62.0226 188.261 58.1095 188.736C54.1964 189.211 49.0984 187.029 46.7287 183.887C44.3589 180.746 45.6121 177.792 49.5252 177.318C53.4383 176.843 58.5158 179.032 60.906 182.166Z" fill="#2B454E"/>
<path d="M61.7426 154.863C64.1124 154.573 67.206 155.888 68.6265 157.793C69.3401 158.746 69.5108 159.668 69.2035 160.388L58.6763 185.103C58.369 185.823 57.5905 186.339 56.4057 186.469C54.036 186.759 50.9423 185.444 49.5218 183.539C48.8082 182.586 48.6375 181.664 48.9448 180.944L59.472 156.233C59.7793 155.522 60.5646 155.007 61.7426 154.863Z" fill="#147CB6"/>
<path opacity="0.2" d="M61.7426 154.863C64.1124 154.573 67.206 155.888 68.6265 157.793C69.3401 158.746 69.5108 159.668 69.2035 160.388L58.6763 185.103C58.369 185.823 57.5905 186.339 56.4057 186.469C54.036 186.759 50.9423 185.444 49.5218 183.539C48.8082 182.586 48.6375 181.664 48.9448 180.944L59.472 156.233C59.7793 155.522 60.5646 155.007 61.7426 154.863Z" fill="black"/>
<path opacity="0.2" d="M54.6198 167.634L55.3539 168.064C55.3539 168.064 55.3539 168.064 55.3709 168.064L55.4802 168.132L55.627 168.207C55.6783 168.235 55.7295 168.269 55.7807 168.293C56.2485 168.566 56.7162 168.812 57.2114 169.044C57.8089 169.341 58.4202 169.604 59.0348 169.843C59.577 170.079 60.1321 170.284 60.6976 170.458C60.9865 170.564 61.282 170.652 61.582 170.721C61.8949 170.841 62.2169 170.936 62.545 171.004C62.8864 171.106 63.1937 171.182 63.5249 171.25C63.7626 171.317 64.0044 171.368 64.2488 171.403L64.4947 171.451L69.2068 160.388C69.5141 159.668 69.3434 158.746 68.6298 157.793C68.3376 157.421 68.0042 157.083 67.6361 156.786C64.6971 157.691 61.6534 158.214 58.5806 158.339L54.6198 167.634Z" fill="black"/>
<path opacity="0.15" d="M54.2648 188.466L20.0028 274.855C21.3329 275.078 22.6871 275.121 24.0286 274.981C26.8969 274.64 28.7339 273.335 29.3622 271.536L61.8349 186.472C61.3227 187.67 60.032 188.52 58.0788 188.749C56.8006 188.87 55.5111 188.774 54.2648 188.466Z" fill="black"/>
<path d="M161.336 52.5793C161.315 51.8622 161.281 51.1622 161.223 50.4656C161.165 49.7691 161.138 49.0827 161.069 48.4169C161.035 47.9559 160.984 47.5052 160.926 47.0511C160.806 45.8662 160.636 44.6916 160.438 43.575C160.352 43.0628 160.26 42.5506 160.158 42.0316C160.055 41.5126 159.963 41.0687 159.861 40.6009C159.56 39.3034 159.246 38.0434 158.881 36.8449C158.693 36.2644 158.512 35.6941 158.317 35.1376C158.281 35.0514 158.253 34.9623 158.232 34.8712C158.027 34.3112 157.832 33.7752 157.617 33.2459C157.378 32.6313 157.132 32.0166 156.852 31.4396C156.654 31.0025 156.467 30.5859 156.238 30.1694C156.112 29.8541 155.961 29.5492 155.787 29.2577C155.606 28.8889 155.418 28.5167 155.207 28.165C155.165 28.0817 155.117 28.0018 155.063 27.926C154.892 27.6118 154.694 27.2977 154.507 26.9801C154.38 26.7684 154.244 26.5806 154.124 26.386C153.229 24.9713 152.221 23.6318 151.109 22.3807C150.921 22.1656 150.723 21.9539 150.553 21.749C150.382 21.5441 150.238 21.4075 150.078 21.2539C149.917 21.1002 149.675 20.8544 149.463 20.6427C148.891 20.0634 148.285 19.5194 147.647 19.0139C147.35 18.7578 147.035 18.512 146.718 18.2798C146.4 18.0476 146.09 17.812 145.755 17.5969C145.254 17.2265 144.733 16.8845 144.195 16.5725L143.778 16.3062L143.693 16.2379H143.669L133.886 10.4877H133.852L133.715 10.4023C129.164 7.81068 123.915 6.46533 118.134 6.46533C110.015 6.46533 100.846 9.12188 91.1285 14.7218C57.7749 33.9903 30.7178 80.8452 30.7178 119.382C30.7178 138.599 37.4411 152.114 48.3063 158.445L48.4087 158.496L58.2086 164.233C58.2086 164.233 58.2085 164.233 58.2256 164.233L58.3383 164.301V164.284L58.4817 164.359C58.5329 164.386 58.5842 164.42 58.6354 164.444C59.1032 164.718 59.571 164.967 60.0661 165.196C60.6636 165.493 61.2782 165.759 61.8894 165.995C62.4319 166.23 62.9871 166.435 63.5524 166.609C63.8417 166.719 64.1384 166.808 64.4402 166.876C64.7535 166.994 65.0753 167.087 65.403 167.156C65.7445 167.258 66.0484 167.333 66.3796 167.401C66.6184 167.469 66.8613 167.52 67.1069 167.555C67.5235 167.64 67.9742 167.736 68.4181 167.787C68.5135 167.821 68.614 167.839 68.7152 167.838C69.2377 167.924 69.7635 167.999 70.2859 168.05C79.2833 168.996 89.749 166.456 100.945 159.995C134.326 140.727 161.384 93.8581 161.384 55.3382C161.384 54.3992 161.367 53.491 161.336 52.5793ZM51.2291 143.499C49.5457 137.667 49.1804 131.651 49.1804 127.686C49.1804 91.1743 75.8995 44.8896 107.522 26.6318C112.661 23.6851 117.66 21.6158 122.321 20.5061C124.814 19.8889 127.37 19.5669 129.939 19.5466C131.231 19.5426 132.521 19.642 133.797 19.8437L133.903 19.8846C140.391 27.5401 141.326 39.8087 141.326 46.3647C141.326 82.8768 114.638 129.161 83.0052 147.409C74.9571 152.053 67.2196 154.505 60.5817 154.505C59.2055 154.513 57.8343 154.337 56.5047 153.982C54.0018 150.97 52.3252 147.276 51.2291 143.499Z" fill="#2B454E"/>
<path opacity="0.25" d="M152.697 52.7398C152.697 72.1381 145.157 94.2816 133.346 113.519C132.793 114.434 132.226 115.329 131.639 116.231C131.152 117.005 130.647 117.776 130.123 118.546C129.013 120.191 127.893 121.817 126.708 123.408C126.155 124.166 125.592 124.916 125.018 125.658C124.399 126.475 123.77 127.284 123.13 128.083C121.918 129.616 120.661 131.108 119.374 132.562C118.534 133.535 117.679 134.484 116.81 135.41C109.875 142.905 102.274 149.222 94.369 153.764C92.8563 154.638 91.3676 155.433 89.8823 156.154C84.4531 158.78 79.2356 160.333 74.5166 160.746C73.6493 160.832 72.8093 160.866 71.9727 160.866C71.5322 160.866 71.1157 160.866 70.6957 160.832C70.6752 160.832 70.6684 160.832 70.6479 160.832C69.847 160.795 69.0489 160.712 68.2577 160.583C67.8684 160.524 67.4825 160.463 67.1138 160.378C66.745 160.292 66.3762 160.221 66.0143 160.108C60.3051 158.558 57.3993 155.085 56.5388 153.962C57.8679 154.313 59.2377 154.486 60.6124 154.477C67.2503 154.477 74.9878 152.029 83.036 147.389C114.672 129.138 141.36 82.853 141.36 46.3409C141.36 39.7815 140.408 27.5163 133.937 19.8574L133.828 19.8232C142.078 21.1413 146.769 26.7514 149.409 33.2289C150.157 35.0647 150.76 36.9565 151.211 38.8869C151.232 38.9927 151.263 39.102 151.283 39.2078C151.369 39.5493 151.454 39.9112 151.519 40.2561C151.584 40.601 151.652 40.939 151.717 41.2805C151.737 41.3672 151.753 41.455 151.765 41.5434C151.836 41.9122 151.901 42.2741 151.956 42.6292C152.164 43.9951 152.335 45.3028 152.448 46.5662C152.475 46.935 152.512 47.2833 152.533 47.6316C152.56 47.8945 152.574 48.1643 152.588 48.4204C152.588 48.5262 152.588 48.6389 152.588 48.7618C152.608 49.0452 152.622 49.3218 152.635 49.5984C152.635 49.6769 152.635 49.7486 152.635 49.8306C152.659 50.172 152.666 50.5135 152.673 50.855C152.69 51.5242 152.697 52.1491 152.697 52.7398Z" fill="black"/>
<path d="M57.3719 163.731L48.3029 158.397C37.4343 152.043 30.7144 138.531 30.7144 119.351C30.7144 102.162 36.1025 83.331 45.0112 66.0396L55.3437 71.9843C46.418 89.2758 40.5108 107.906 40.5108 125.095C40.5108 143.892 46.9062 157.223 57.3719 163.731Z" fill="#1A2E35"/>
<path d="M143.781 16.2686L143.696 16.1968H143.669L133.886 10.4467H133.852L133.715 10.3647C129.167 7.77307 123.915 6.42432 118.138 6.42432C110.018 6.42432 100.846 9.07745 91.1285 14.6774C72.6385 25.3616 56.0846 44.5174 45.0111 66.0395L55.2925 72.0867C55.2207 72.2301 55.1422 72.3701 55.0705 72.5135C66.1781 51.2339 82.6535 31.962 100.945 20.4343C117.506 10.0028 133.22 9.84914 144.194 16.5315L143.781 16.2686Z" fill="#375A64"/>
<path opacity="0.1" d="M147.442 49.6428C147.442 86.1549 120.723 132.44 89.1002 150.714C83.9613 153.661 78.9623 155.73 74.3014 156.84C71.8095 157.457 69.2538 157.779 66.6869 157.8C64.0491 157.834 61.4272 157.387 58.9495 156.482C55.0193 153.187 52.6495 148.416 51.229 143.506C49.5457 137.674 49.1803 131.658 49.1803 127.693C49.1803 91.1812 75.8994 44.8966 107.522 26.6388C112.661 23.692 117.66 21.6228 122.321 20.513C124.814 19.8959 127.37 19.5738 129.939 19.5535C132.575 19.5199 135.196 19.9665 137.673 20.8716C141.603 24.1564 143.972 28.9368 145.393 33.847C147.083 39.662 147.442 45.6785 147.442 49.6428Z" fill="#9FEFDE"/>
<path opacity="0.3" d="M66.6869 157.783C69.2538 157.762 71.8095 157.44 74.3014 156.823C78.9623 155.713 83.9613 153.644 89.1002 150.697C120.723 132.44 147.442 86.1618 147.442 49.6428C147.442 45.6785 147.1 39.662 145.393 33.8299C143.976 28.9402 141.61 24.17 137.696 20.8852L137.321 20.7486C136.979 20.6291 136.638 20.5164 136.269 20.4072C136.064 20.3457 135.853 20.2877 135.641 20.233C135.3 20.1443 134.917 20.0657 134.548 19.9906C134.333 19.9496 134.121 19.9018 133.903 19.8643H133.831L133.903 19.8882C140.374 27.5471 141.326 39.8122 141.326 46.3717C141.326 82.8838 114.638 129.168 83.0017 147.419C74.9536 152.06 67.2162 154.508 60.5782 154.508C59.2035 154.517 57.8337 154.344 56.5046 153.992L56.5661 154.068C57.2921 154.932 58.0919 155.732 58.9563 156.458C61.4315 157.365 64.051 157.814 66.6869 157.783Z" fill="white"/>
<path d="M219.64 67.0678L175.004 92.8377C172.614 94.2035 170.675 92.7523 170.675 89.5631V50.8349C170.675 47.6457 172.614 43.9443 175.004 42.5614L219.64 16.7915C222.03 15.4257 223.969 16.8769 223.969 20.0661V58.7943C223.969 61.9835 222.033 65.6884 219.64 67.0678Z" fill="#FAFAFA"/>
<path d="M173.283 93.8345C172.806 93.8444 172.334 93.7266 171.917 93.4931C170.815 92.8545 170.183 91.4272 170.183 89.5765V50.8347C170.183 47.4987 172.232 43.6026 174.752 42.1514L219.387 16.3816C220.579 15.6987 221.757 15.6099 222.692 16.1528C223.795 16.7879 224.427 18.2016 224.427 20.0659V58.7941C224.427 62.1301 222.378 66.0262 219.862 67.4774L175.226 93.2506C174.64 93.6099 173.971 93.8111 173.283 93.8345ZM221.361 16.7504C220.835 16.7702 220.325 16.9267 219.879 17.2045L175.243 42.9743C172.986 44.2753 171.146 47.8026 171.146 50.8279V89.5697C171.146 91.0721 171.603 92.1989 172.402 92.6428C173.034 93.0082 173.874 92.9262 174.762 92.4175L219.397 66.6442C221.654 65.3433 223.495 61.816 223.495 58.7907V20.0659C223.495 18.5635 223.037 17.4367 222.235 16.9928C221.97 16.8356 221.668 16.7519 221.361 16.7504Z" fill="#E1E1E1"/>
<path d="M209.857 38.0439L200.75 70.7966L218.967 60.2797L209.857 38.0439Z" fill="#24C4A1"/>
<path opacity="0.3" d="M209.857 38.0439L200.75 70.7966L218.967 60.2797L209.857 38.0439Z" fill="white"/>
<path d="M197.325 35.7935L188.215 78.0352L206.435 67.5149L197.325 35.7935Z" fill="#24C4A1"/>
<path d="M184.9 57.647L175.79 85.2095L194.006 74.6891L184.9 57.647Z" fill="#24C4A1"/>
<path opacity="0.3" d="M184.9 57.647L175.79 85.2095L194.006 74.6891L184.9 57.647Z" fill="black"/>
<path d="M177.524 48.7999L176.083 49.6296C175.919 49.7218 175.786 49.6296 175.786 49.4043V47.0687C175.788 46.9575 175.815 46.8482 175.867 46.7497C175.918 46.6513 175.993 46.5663 176.083 46.5019L177.524 45.6687C177.688 45.5765 177.821 45.6687 177.821 45.8941V48.2331C177.819 48.3442 177.791 48.4532 177.74 48.5517C177.688 48.6501 177.614 48.7351 177.524 48.7999Z" fill="#24C4A1"/>
<path opacity="0.3" d="M177.524 48.7999L176.083 49.6296C175.919 49.7218 175.786 49.6296 175.786 49.4043V47.0687C175.788 46.9575 175.815 46.8482 175.867 46.7497C175.918 46.6513 175.993 46.5663 176.083 46.5019L177.524 45.6687C177.688 45.5765 177.821 45.6687 177.821 45.8941V48.2331C177.819 48.3442 177.791 48.4532 177.74 48.5517C177.688 48.6501 177.614 48.7351 177.524 48.7999Z" fill="black"/>
<path d="M177.524 53.3072L176.083 54.137C175.919 54.2326 175.786 54.137 175.786 53.9116V51.576C175.788 51.4648 175.815 51.3556 175.867 51.2571C175.918 51.1586 175.993 51.0737 176.083 51.0092L177.524 50.176C177.688 50.0838 177.821 50.176 177.821 50.4014V52.7404C177.819 52.8515 177.791 52.9606 177.74 53.059C177.688 53.1574 177.614 53.2424 177.524 53.3072Z" fill="#24C4A1"/>
<path d="M177.524 57.8141L176.083 58.6438C175.919 58.7395 175.786 58.6438 175.786 58.4185V56.0829C175.788 55.9717 175.815 55.8625 175.867 55.764C175.918 55.6655 175.993 55.5805 176.083 55.5161L177.524 54.6864C177.688 54.5907 177.821 54.6863 177.821 54.9083V57.2473C177.819 57.3584 177.791 57.4675 177.74 57.5659C177.688 57.6643 177.614 57.7493 177.524 57.8141Z" fill="#24C4A1"/>
<path opacity="0.3" d="M177.524 57.8141L176.083 58.6438C175.919 58.7395 175.786 58.6438 175.786 58.4185V56.0829C175.788 55.9717 175.815 55.8625 175.867 55.764C175.918 55.6655 175.993 55.5805 176.083 55.5161L177.524 54.6864C177.688 54.5907 177.821 54.6863 177.821 54.9083V57.2473C177.819 57.3584 177.791 57.4675 177.74 57.5659C177.688 57.6643 177.614 57.7493 177.524 57.8141Z" fill="white"/>
<path d="M99.9005 197.129C99.987 197.089 100.063 197.029 100.122 196.954C100.182 196.88 100.223 196.792 100.242 196.699C100.437 195.89 100.583 195.08 100.713 194.261C100.824 193.482 100.891 192.698 100.915 191.912C100.915 191.72 100.816 191.614 100.679 191.659L99.0605 192.154C99.048 191.063 98.8755 189.979 98.5483 188.937L99.9142 186.93C99.9711 186.853 100.01 186.764 100.029 186.67C100.048 186.577 100.046 186.48 100.023 186.387C99.6234 185.363 98.9855 184.449 98.1625 183.72C98.0669 183.638 97.9098 183.72 97.7903 183.88L96.4245 185.888C95.7674 185.442 94.9955 185.196 94.2016 185.178L94.543 182.825C94.5703 182.624 94.4952 182.484 94.3655 182.484C93.8148 182.524 93.2706 182.627 92.7435 182.791C92.1658 182.966 91.6058 183.195 91.0704 183.474C90.99 183.529 90.9222 183.6 90.8715 183.683C90.8209 183.766 90.7886 183.859 90.7767 183.956L90.4353 186.308C89.4648 186.921 88.5795 187.659 87.8027 188.504L86.8944 187.196C86.8159 187.083 86.6622 187.111 86.5324 187.261C85.4621 188.529 84.5218 189.902 83.7257 191.358C83.6759 191.436 83.646 191.524 83.6389 191.616C83.6317 191.708 83.6475 191.8 83.6846 191.884L84.5997 193.189C83.9849 194.418 83.482 195.7 83.0973 197.02L81.4788 197.515C81.3922 197.554 81.3161 197.613 81.2568 197.687C81.1974 197.761 81.1565 197.849 81.1374 197.942C80.9359 198.744 80.7775 199.557 80.6628 200.376C80.552 201.156 80.4859 201.942 80.4647 202.729C80.4647 202.92 80.5603 203.026 80.7003 202.985L82.3154 202.49C82.3303 203.579 82.504 204.66 82.831 205.7L81.4481 207.714C81.3913 207.791 81.3523 207.88 81.334 207.974C81.3157 208.068 81.3186 208.164 81.3423 208.257C81.7424 209.279 82.379 210.192 83.1998 210.921C83.2954 211.002 83.4558 210.921 83.5719 210.763L84.9378 208.756C85.5972 209.199 86.3695 209.446 87.1641 209.466L86.8226 211.819C86.7953 212.02 86.867 212.16 87.0002 212.16C87.5509 212.119 88.0951 212.014 88.6221 211.849C89.2001 211.675 89.7604 211.446 90.2953 211.166C90.3757 211.112 90.4435 211.04 90.4941 210.957C90.5448 210.874 90.5771 210.781 90.5889 210.685L90.9304 208.332C91.9014 207.719 92.7866 206.98 93.563 206.133L94.4748 207.441C94.5533 207.554 94.707 207.53 94.8333 207.38C95.9055 206.113 96.8459 204.74 97.6401 203.282C97.6898 203.205 97.7196 203.117 97.7268 203.026C97.7339 202.935 97.7182 202.843 97.681 202.76L96.7693 201.448C97.3868 200.223 97.8886 198.943 98.2683 197.624L99.9005 197.129ZM91.5621 203.125C87.3383 206.424 84.4324 202.247 86.6758 196.101C87.3587 194.227 88.5231 192.53 89.8104 191.526C94.0376 188.227 96.9435 192.403 94.6967 198.549C94.0274 200.417 92.8528 202.114 91.5621 203.118V203.125Z" fill="#E7E7E7"/>
<path d="M112.241 197.621C112.278 197.584 112.308 197.54 112.328 197.491C112.348 197.442 112.358 197.39 112.357 197.337C112.325 196.865 112.259 196.396 112.159 195.934C112.068 195.515 111.939 195.104 111.773 194.708C111.742 194.637 111.667 194.633 111.595 194.708L110.503 195.733C110.253 195.229 109.884 194.794 109.427 194.466L109.997 192.837C110.035 192.728 110.021 192.625 109.967 192.595C109.358 192.269 108.667 192.131 107.979 192.195C107.911 192.195 107.833 192.287 107.795 192.393L107.225 194.019C106.599 194.132 106.002 194.364 105.463 194.701L105.176 193.407C105.174 193.389 105.168 193.372 105.156 193.357C105.145 193.343 105.13 193.332 105.113 193.326C105.096 193.32 105.077 193.319 105.059 193.323C105.041 193.327 105.025 193.336 105.012 193.349C104.613 193.628 104.234 193.935 103.879 194.268C103.494 194.625 103.132 195.005 102.793 195.405C102.759 195.445 102.735 195.491 102.72 195.541C102.706 195.591 102.703 195.644 102.711 195.695L102.998 196.989C102.451 197.69 101.975 198.444 101.577 199.239L100.604 199.041C100.539 199.041 100.457 199.096 100.409 199.198C99.9139 200.261 99.525 201.371 99.2484 202.511C99.2211 202.62 99.2484 202.709 99.3167 202.722L100.29 202.917C100.121 203.736 100.039 204.57 100.047 205.406L98.9581 206.431C98.9208 206.468 98.8913 206.512 98.8713 206.56C98.8514 206.609 98.8414 206.661 98.8421 206.714C98.8709 207.186 98.9359 207.655 99.0366 208.117C99.1289 208.537 99.2592 208.947 99.4259 209.343C99.4567 209.415 99.5318 209.418 99.6069 209.343L100.696 208.319C100.945 208.823 101.314 209.258 101.772 209.586L101.202 211.218C101.164 211.324 101.178 211.426 101.236 211.457C101.843 211.782 102.533 211.921 103.22 211.856C103.288 211.856 103.366 211.767 103.404 211.658L103.974 210.033C104.6 209.92 105.198 209.688 105.736 209.35L106.023 210.644C106.024 210.663 106.03 210.68 106.041 210.695C106.052 210.71 106.067 210.722 106.085 210.728C106.102 210.735 106.121 210.736 106.139 210.732C106.157 210.728 106.174 210.719 106.187 210.706C106.586 210.425 106.965 210.117 107.32 209.784C107.705 209.426 108.067 209.047 108.406 208.647C108.44 208.607 108.464 208.56 108.479 208.51C108.494 208.46 108.498 208.408 108.492 208.356L108.205 207.066C108.747 206.362 109.222 205.609 109.622 204.815L110.595 205.01C110.66 205.01 110.742 204.959 110.79 204.853C111.285 203.789 111.674 202.678 111.951 201.537C111.975 201.432 111.951 201.343 111.882 201.329L110.909 201.131C111.079 200.314 111.16 199.48 111.152 198.645L112.241 197.621ZM107.303 204.617C105.039 207.752 102.246 207.127 102.424 203.45C102.534 201.994 103.043 200.598 103.896 199.414C106.159 196.279 108.953 196.904 108.775 200.581C108.665 202.036 108.156 203.433 107.303 204.617Z" fill="#E7E7E7"/>
<path d="M115.423 175.689C115.461 175.652 115.49 175.608 115.51 175.559C115.53 175.51 115.54 175.458 115.539 175.405C115.508 174.933 115.441 174.464 115.341 174.002C115.25 173.583 115.122 173.173 114.959 172.776C114.925 172.704 114.85 172.701 114.778 172.776L113.685 173.801C113.435 173.297 113.066 172.862 112.61 172.534L113.18 170.905C113.217 170.796 113.204 170.693 113.149 170.663C112.54 170.337 111.849 170.198 111.162 170.263C111.094 170.263 111.015 170.355 110.977 170.461L110.418 172.066C109.792 172.178 109.194 172.41 108.656 172.749L108.369 171.455C108.367 171.437 108.361 171.42 108.35 171.406C108.339 171.391 108.324 171.38 108.308 171.374C108.291 171.367 108.273 171.366 108.255 171.369C108.238 171.373 108.221 171.381 108.208 171.393C107.808 171.673 107.428 171.982 107.071 172.315C106.687 172.672 106.324 173.052 105.985 173.452C105.952 173.492 105.927 173.539 105.913 173.589C105.899 173.639 105.896 173.691 105.903 173.743L106.19 175.037C105.643 175.738 105.168 176.492 104.77 177.287L103.797 177.089C103.732 177.089 103.65 177.143 103.602 177.246C103.107 178.309 102.718 179.418 102.441 180.558C102.414 180.667 102.441 180.756 102.509 180.77L103.486 180.964C103.313 181.788 103.233 182.629 103.247 183.471L102.154 184.495C102.117 184.532 102.087 184.576 102.067 184.625C102.047 184.674 102.037 184.726 102.038 184.778C102.067 185.249 102.132 185.718 102.233 186.178C102.326 186.599 102.456 187.01 102.622 187.408C102.653 187.479 102.731 187.483 102.803 187.408L103.892 186.383C104.141 186.886 104.511 187.32 104.968 187.647L104.398 189.282C104.36 189.388 104.374 189.491 104.432 189.521C105.039 189.846 105.729 189.985 106.416 189.921C106.484 189.921 106.566 189.829 106.603 189.723L107.17 188.097C107.797 187.979 108.395 187.741 108.932 187.397L109.219 188.692C109.22 188.71 109.226 188.728 109.237 188.743C109.248 188.758 109.263 188.769 109.281 188.776C109.298 188.782 109.317 188.784 109.335 188.78C109.353 188.776 109.37 188.766 109.383 188.753C109.782 188.473 110.161 188.165 110.517 187.831C110.901 187.474 111.263 187.094 111.602 186.694C111.636 186.654 111.66 186.608 111.675 186.558C111.69 186.508 111.694 186.455 111.688 186.404L111.401 185.113C111.943 184.409 112.418 183.656 112.818 182.863L113.791 183.058C113.856 183.058 113.938 183.003 113.986 182.9C114.481 181.836 114.87 180.726 115.147 179.585C115.171 179.479 115.147 179.39 115.078 179.377L114.105 179.179C114.275 178.361 114.356 177.528 114.348 176.693L115.423 175.689ZM110.486 182.685C108.222 185.82 105.429 185.195 105.606 181.518C105.716 180.062 106.226 178.666 107.078 177.482C109.342 174.347 112.135 174.972 111.957 178.649C111.848 180.104 111.338 181.501 110.486 182.685Z" fill="#E7E7E7"/>
<path d="M3.95419 64.8104C3.78346 64.9094 3.64691 64.7762 3.64691 64.5167V26.3315C3.64425 26.2074 3.67066 26.0844 3.72402 25.9723C3.77738 25.8603 3.85618 25.7622 3.95419 25.6861C4.12151 25.5871 4.25814 25.7202 4.25814 25.9798V64.165C4.26015 64.2887 4.23379 64.4111 4.18111 64.523C4.12843 64.6349 4.05078 64.7332 3.95419 64.8104Z" fill="#E1E1E1"/>
<path d="M43.7512 41.8335L0.304052 66.917C0.136738 67.0161 0.000107646 66.8829 0.000107646 66.6234C-0.00190982 66.4997 0.0244552 66.3773 0.0771358 66.2654C0.129816 66.1535 0.207458 66.0552 0.304052 65.978L43.7512 40.8945C43.9219 40.7955 44.0585 40.9252 44.0585 41.1882C44.0606 41.3122 44.034 41.435 43.9807 41.547C43.9274 41.6589 43.8488 41.757 43.7512 41.8335Z" fill="#E1E1E1"/>
<path d="M11.4527 29.1318L6.11914 32.2084V59.0197L11.4527 55.9431V29.1318Z" fill="#F5F5F5"/>
<path d="M19.0296 43.353L13.696 46.433V54.645L19.0296 51.5651V43.353Z" fill="#ECECEC"/>
<path d="M26.6065 14.0083L21.2729 17.0883V50.2712L26.6065 47.1912V14.0083Z" fill="#F5F5F5"/>
<path d="M34.1868 22.8896L28.8533 25.9696V45.8971L34.1868 42.8171V22.8896Z" fill="#E1E1E1"/>
<path d="M41.7639 26.2393L36.4303 29.3192V41.5229L41.7639 38.443V26.2393Z" fill="#F5F5F5"/>
<path d="M160.154 120.905L160.171 133.041L152.792 144.8C150.191 141.468 150.952 133.14 155.012 126.556C156.654 123.903 158.109 122.203 160.154 120.905Z" fill="#E1E1E1"/>
<path d="M170.173 131.606C168.715 138.982 163.623 145.832 158.614 147.057C156.6 147.556 154.968 147.15 153.636 145.835L161.052 133.836L170.173 131.606Z" fill="#F0F0F0"/>
<path d="M170.361 130.33L161.636 132.471L166.536 119.57C169.65 120.745 171.125 124.877 170.361 130.33Z" fill="#E1E1E1"/>
<path d="M165.607 119.481L161.168 131.122V120.301C162.831 119.417 164.197 119.167 165.607 119.481Z" fill="#F0F0F0"/>
<path d="M224.54 362.736C215.009 362.736 205.486 360.643 198.247 356.453C191.131 352.356 187.211 346.855 187.211 340.989C187.211 335.123 191.131 329.632 198.247 325.524C212.756 317.148 236.361 317.148 250.866 325.524C257.985 329.622 261.905 335.126 261.905 340.989C261.905 346.852 257.985 352.346 250.866 356.453C243.586 360.643 234.066 362.736 224.54 362.736ZM224.54 320.187C215.187 320.187 205.834 322.236 198.712 326.354C191.903 330.284 188.15 335.481 188.15 340.989C188.15 346.497 191.906 351.694 198.712 355.624C212.95 363.846 236.125 363.846 250.371 355.624C257.18 351.694 260.929 346.497 260.929 340.989C260.929 335.481 257.173 330.284 250.371 326.354C243.245 322.243 233.895 320.187 224.54 320.187Z" fill="#24C4A1"/>
<path d="M225.526 333.21V339.411L219.401 322.761V316.567L225.526 333.21Z" fill="#1A2E35"/>
<path d="M225.533 333.213V339.411L250.801 330.646V324.445L225.533 333.213Z" fill="#2B454E"/>
<path d="M219.401 316.564L225.53 333.213L250.798 324.445C243.863 318.391 231.802 315.365 219.401 316.564Z" fill="#375A64"/>
<path d="M192.999 334.361C192.996 334.425 192.996 334.488 192.999 334.552V334.361Z" fill="#D268CC"/>
<path d="M223.01 341.033L219.254 358.686C203.936 357.194 192.866 349.443 192.996 340.589V334.538C192.996 343.327 204.035 350.993 219.261 352.478L221.839 340.346L223.01 341.033Z" fill="#24C4A1"/>
<path opacity="0.4" d="M223.01 341.033L219.254 358.686C203.936 357.194 192.866 349.443 192.996 340.589V334.538C192.996 343.327 204.035 350.993 219.261 352.478L221.839 340.346L223.01 341.033Z" fill="black"/>
<path d="M222.132 352.697V358.895C228.821 359.212 234.937 358.372 240.783 356.344C248.005 353.838 253.106 349.856 255.145 345.141C255.745 343.775 256.068 342.303 256.094 340.811C256.094 340.224 256.094 334.405 256.094 334.405C256.094 334.405 254.346 334.269 252.293 332.08L247.561 333.723L225.888 341.235L222.132 352.697Z" fill="#24C4A1"/>
<path opacity="0.6" d="M222.132 352.697V358.895C228.821 359.212 234.937 358.372 240.783 356.344C248.005 353.838 253.106 349.856 255.145 345.141C255.745 343.775 256.068 342.303 256.094 340.811C256.094 340.224 256.094 334.405 256.094 334.405C256.094 334.405 254.346 334.269 252.293 332.08L247.561 333.723L225.888 341.235L222.132 352.697Z" fill="white"/>
<path d="M203.273 327.276L222.101 338.144V331.943L203.273 321.075V327.276Z" fill="#24C4A1"/>
<path opacity="0.1" d="M203.273 327.276L222.101 338.144V331.943L203.273 321.075V327.276Z" fill="black"/>
<path d="M193.224 332.315C191.176 342.002 202.751 350.877 219.257 352.489L223.013 334.835L201.228 322.259C196.677 325.107 194.075 328.406 193.224 332.315Z" fill="#24C4A1"/>
<path opacity="0.3" d="M193.224 332.315C191.176 342.002 202.751 350.877 219.257 352.489L223.013 334.835L201.228 322.259C196.677 325.107 194.075 328.406 193.224 332.315Z" fill="black"/>
<path d="M222.242 352.178L222.132 352.697C228.821 353.011 234.937 352.175 240.783 350.146C248.005 347.637 253.106 343.659 255.145 338.94C257.064 334.501 256.049 329.888 252.293 325.882L247.561 327.521L225.888 335.033L222.242 352.178Z" fill="#24C4A1"/>
<path opacity="0.75" d="M222.242 352.178L222.132 352.697C228.821 353.011 234.937 352.175 240.783 350.146C248.005 347.637 253.106 343.659 255.145 338.94C257.064 334.501 256.049 329.888 252.293 325.882L247.561 327.521L225.888 335.033L222.242 352.178Z" fill="white"/>
<path d="M203.273 321.078L222.102 331.95L216.563 316.926C211.328 317.663 207.228 318.951 203.273 321.078Z" fill="#24C4A1"/>
<path d="M223.013 341.036V334.835L219.257 352.489V358.69L223.013 341.036Z" fill="#24C4A1"/>
<path opacity="0.55" d="M223.013 341.036V334.835L219.257 352.489V358.69L223.013 341.036Z" fill="black"/>
<path d="M247.031 307.263L242.93 309.629L247.031 311.999L251.132 309.629L247.031 307.263Z" fill="#24C4A1"/>
<path opacity="0.3" d="M247.031 307.263L242.93 309.629L247.031 311.999L251.132 309.629L247.031 307.263Z" fill="black"/>
<path d="M251.132 309.625V312.002L247.031 314.368V311.999L251.132 309.625Z" fill="#24C4A1"/>
<path opacity="0.4" d="M251.132 309.625V312.002L247.031 314.368V311.999L251.132 309.625Z" fill="black"/>
<path d="M247.031 311.999V314.368L242.93 312.002V309.625L247.031 311.999Z" fill="#24C4A1"/>
<path opacity="0.55" d="M247.031 311.999V314.368L242.93 312.002V309.625L247.031 311.999Z" fill="black"/>
<path d="M253.29 305.426L268.489 296.65C268.977 296.391 269.52 296.251 270.073 296.241C270.626 296.231 271.173 296.351 271.671 296.592C272.521 297.084 272.474 297.907 271.569 298.429L256.37 307.205C255.882 307.463 255.339 307.603 254.786 307.613C254.233 307.623 253.686 307.503 253.188 307.263C252.338 306.771 252.386 305.948 253.29 305.426Z" fill="#E1E1E1"/>
<path d="M256.271 312.596L252.17 314.966L256.271 317.332L260.372 314.966L256.271 312.596Z" fill="#24C4A1"/>
<path opacity="0.88" d="M256.271 312.596L252.17 314.966L256.271 317.332L260.372 314.966L256.271 312.596Z" fill="white"/>
<path d="M260.372 314.959V317.336L256.271 319.705V317.332L260.372 314.959Z" fill="#24C4A1"/>
<path opacity="0.75" d="M260.372 314.959V317.336L256.271 319.705V317.332L260.372 314.959Z" fill="white"/>
<path d="M256.271 317.332V319.705L252.17 317.336V314.959L256.271 317.332Z" fill="#24C4A1"/>
<path opacity="0.6" d="M256.271 317.332V319.705L252.17 317.336V314.959L256.271 317.332Z" fill="white"/>
<path d="M262.53 310.759L277.728 301.987C278.217 301.728 278.76 301.587 279.313 301.577C279.866 301.567 280.413 301.688 280.911 301.929C281.761 302.418 281.717 303.24 280.808 303.766L265.61 312.542C265.122 312.8 264.58 312.94 264.028 312.95C263.475 312.961 262.928 312.84 262.431 312.6C261.581 312.105 261.625 311.285 262.53 310.759Z" fill="#E1E1E1"/>
<path d="M265.511 317.933L261.41 320.299L265.511 322.669L269.612 320.299L265.511 317.933Z" fill="#24C4A1"/>
<path opacity="0.3" d="M265.511 317.933L261.41 320.299L265.511 322.669L269.612 320.299L265.511 317.933Z" fill="white"/>
<path d="M269.615 320.292L269.612 322.672L265.511 325.039V322.669L269.615 320.292Z" fill="#24C4A1"/>
<path d="M265.511 322.669V325.039L261.41 322.669V320.296L265.511 322.669Z" fill="#24C4A1"/>
<path opacity="0.1" d="M265.511 322.669V325.039L261.41 322.669V320.296L265.511 322.669Z" fill="black"/>
<path d="M271.773 316.096L286.968 307.32C287.457 307.062 288 306.922 288.553 306.912C289.105 306.902 289.653 307.022 290.151 307.262C291.001 307.754 290.957 308.577 290.048 309.1L274.853 317.875C274.365 318.134 273.822 318.274 273.269 318.284C272.716 318.294 272.169 318.174 271.671 317.933C270.821 317.441 270.865 316.618 271.773 316.096Z" fill="#E1E1E1"/>
<path d="M274.751 323.267L270.65 325.633L274.751 328.003L278.852 325.633L274.751 323.267Z" fill="#375A64"/>
<path d="M278.855 325.63L278.852 328.006L274.751 330.373V328.003L278.855 325.63Z" fill="#2B454E"/>
<path d="M274.751 328.003V330.373L270.65 328.006V325.63L274.751 328.003Z" fill="#1A2E35"/>
<path d="M281.013 321.42L296.208 312.648C296.697 312.388 297.239 312.248 297.792 312.237C298.345 312.226 298.892 312.346 299.391 312.586C300.241 313.078 300.196 313.901 299.288 314.423L284.093 323.199C283.604 323.457 283.062 323.597 282.509 323.607C281.956 323.617 281.409 323.497 280.911 323.257C280.061 322.785 280.122 321.952 281.013 321.42Z" fill="#E1E1E1"/>
<g opacity="0.3">
<path opacity="0.3" d="M207.757 296.046C207.678 296.045 207.6 296.024 207.531 295.984L178.265 279.079C178.197 279.039 178.141 278.982 178.101 278.914C178.062 278.846 178.042 278.768 178.042 278.69C178.042 278.611 178.062 278.533 178.101 278.465C178.141 278.397 178.197 278.34 178.265 278.3L214.849 257.178C214.917 257.137 214.995 257.116 215.074 257.116C215.154 257.116 215.231 257.137 215.3 257.178L244.566 274.076C244.635 274.115 244.693 274.172 244.732 274.24C244.772 274.309 244.792 274.387 244.791 274.466C244.791 274.545 244.77 274.622 244.731 274.69C244.691 274.759 244.634 274.815 244.566 274.855L207.982 295.974C207.915 296.018 207.837 296.043 207.757 296.046ZM179.392 278.7L207.757 295.09L243.439 274.49L215.074 258.1L179.392 278.7Z" fill="#24C4A1"/>
</g>
<path d="M207.76 291.372L207.757 160.546L185.808 147.871L185.812 278.7L207.76 291.372Z" fill="#24C4A1"/>
<path opacity="0.2" d="M207.76 291.372L207.757 160.546L185.808 147.871L185.812 278.7L207.76 291.372Z" fill="black"/>
<path d="M207.76 291.372L237.027 274.476L237.03 143.65L207.757 160.545L207.76 291.372Z" fill="#24C4A1"/>
<path d="M237.03 143.65L215.081 130.975L185.808 147.87L207.757 160.545L237.03 143.65Z" fill="#24C4A1"/>
<path opacity="0.25" d="M237.03 143.65L215.081 130.975L185.808 147.87L207.757 160.545L237.03 143.65Z" fill="white"/>
<path opacity="0.3" d="M237.03 143.65L207.467 159.948L197.865 154.587L185.805 147.874L197.65 154.959L207.361 160.764C207.129 164.059 207.067 277.993 207.112 281.299C207.134 284.673 207.35 288.043 207.76 291.392C208.166 288.042 208.381 284.672 208.402 281.299C208.443 278.106 208.382 164.281 208.167 161.105L237.03 143.65Z" fill="white"/>
<g opacity="0.3">
<path opacity="0.3" d="M152.885 327.73C152.805 327.73 152.727 327.709 152.659 327.668L123.393 310.77C123.324 310.731 123.267 310.674 123.227 310.606C123.187 310.537 123.166 310.46 123.166 310.38C123.166 310.301 123.187 310.224 123.227 310.155C123.267 310.087 123.324 310.03 123.393 309.991L159.977 288.872C160.045 288.832 160.123 288.811 160.202 288.811C160.281 288.811 160.359 288.832 160.427 288.872L189.694 305.767C189.762 305.807 189.818 305.864 189.857 305.932C189.897 306 189.917 306.078 189.917 306.157C189.917 306.235 189.897 306.313 189.857 306.381C189.818 306.449 189.762 306.506 189.694 306.546L153.1 327.668C153.034 327.707 152.96 327.728 152.885 327.73ZM124.52 310.38L152.885 326.77L188.567 306.17L160.202 289.78L124.52 310.38Z" fill="#24C4A1"/>
</g>
<path d="M152.885 323.052L152.881 230.121L130.932 217.446L130.936 310.38L152.885 323.052Z" fill="#24C4A1"/>
<path opacity="0.1" d="M152.885 323.052L152.881 230.121L130.932 217.446L130.936 310.38L152.885 323.052Z" fill="white"/>
<path d="M152.885 323.052L182.151 306.157L182.158 213.226L152.881 230.121L152.885 323.052Z" fill="#24C4A1"/>
<path opacity="0.3" d="M152.885 323.052L182.151 306.157L182.158 213.226L152.881 230.121L152.885 323.052Z" fill="white"/>
<path d="M182.158 213.226L160.205 200.551L130.932 217.446L152.881 230.121L182.158 213.226Z" fill="#24C4A1"/>
<path opacity="0.55" d="M182.158 213.226L160.205 200.551L130.932 217.446L152.881 230.121L182.158 213.226Z" fill="white"/>
<path opacity="0.3" d="M153.27 230.66L182.154 213.226L152.584 229.527C149.398 227.72 146.192 225.945 142.989 224.162L130.932 217.449L142.777 224.535C146.014 226.474 149.248 228.417 152.499 230.339C152.396 233.754 152.29 258.68 152.26 262.095C152.226 265.585 152.208 298.631 152.239 302.128C152.27 305.624 152.314 309.1 152.43 312.586C152.547 316.073 152.659 319.559 152.885 323.049C153.107 319.559 153.25 316.073 153.335 312.586C153.421 309.1 153.509 305.614 153.527 302.128C153.544 298.641 153.526 265.592 153.503 262.095C153.472 258.797 153.369 233.966 153.27 230.66Z" fill="white"/>
<g opacity="0.3">
<path opacity="0.3" d="M98.0088 359.411C97.9295 359.41 97.8518 359.389 97.7834 359.349L68.5171 342.454C68.4482 342.415 68.3909 342.358 68.351 342.29C68.3111 342.221 68.2902 342.144 68.2902 342.064C68.2902 341.985 68.3111 341.908 68.351 341.839C68.3909 341.771 68.4482 341.714 68.5171 341.675L105.101 320.553C105.169 320.512 105.247 320.491 105.326 320.491C105.406 320.491 105.483 320.512 105.552 320.553L134.818 337.448C134.887 337.487 134.944 337.544 134.984 337.613C135.024 337.682 135.044 337.76 135.044 337.839C135.044 337.918 135.024 337.996 134.984 338.065C134.944 338.134 134.887 338.19 134.818 338.23L98.2342 359.349C98.166 359.39 98.0881 359.411 98.0088 359.411ZM69.6439 342.064L98.0088 358.454L133.691 337.854L105.326 321.464L69.6439 342.064Z" fill="#24C4A1"/>
</g>
<path d="M98.0123 354.736L98.0054 291.372L76.0565 278.7L76.0599 342.061L98.0123 354.736Z" fill="#24C4A1"/>
<path opacity="0.45" d="M98.0123 354.736L98.0054 291.372L76.0565 278.7L76.0599 342.061L98.0123 354.736Z" fill="black"/>
<path d="M98.0122 354.736L127.279 337.837L127.282 274.476L98.0054 291.371L98.0122 354.736Z" fill="#24C4A1"/>
<path opacity="0.3" d="M98.0122 354.736L127.279 337.837L127.282 274.476L98.0054 291.371L98.0122 354.736Z" fill="black"/>
<path d="M127.282 274.476L105.333 261.805L76.0565 278.7L98.0054 291.372L127.282 274.476Z" fill="#24C4A1"/>
<path opacity="0.15" d="M127.282 274.476L105.333 261.805L76.0565 278.7L98.0054 291.372L127.282 274.476Z" fill="black"/>
<path opacity="0.3" d="M127.279 274.476L97.7187 290.774L88.1169 285.416L76.0566 278.7L87.9018 285.785L97.6026 291.59C97.3806 293.598 97.3192 346.52 97.3636 348.525C97.3874 350.615 97.6034 352.699 98.0089 354.749C98.415 352.699 98.63 350.615 98.6509 348.525C98.6919 346.623 98.6338 293.803 98.4357 291.901L127.279 274.476Z" fill="white"/>
<g opacity="0.3">
<path opacity="0.3" d="M262.633 264.366C262.554 264.365 262.476 264.344 262.407 264.304L233.141 247.409C233.072 247.369 233.015 247.312 232.975 247.244C232.935 247.175 232.915 247.097 232.915 247.018C232.915 246.939 232.935 246.861 232.975 246.792C233.015 246.723 233.072 246.666 233.141 246.627L269.725 225.508C269.793 225.468 269.871 225.446 269.95 225.446C270.029 225.446 270.107 225.468 270.176 225.508L299.442 242.403C299.511 242.442 299.568 242.499 299.608 242.567C299.648 242.635 299.669 242.713 299.669 242.792C299.669 242.872 299.648 242.949 299.608 243.018C299.568 243.086 299.511 243.143 299.442 243.182L262.858 264.304C262.79 264.345 262.712 264.366 262.633 264.366ZM234.268 247.016L262.633 263.406L298.315 242.803L269.95 226.413L234.268 247.016Z" fill="#24C4A1"/>
</g>
<path d="M262.636 259.691L262.629 69.3317L240.68 56.6602L240.684 247.016L262.636 259.691Z" fill="#24C4A1"/>
<path opacity="0.3" d="M262.636 259.691L262.629 69.3317L240.68 56.6602L240.684 247.016L262.636 259.691Z" fill="white"/>
<path d="M262.636 259.691L291.902 242.792L291.906 52.436L262.629 69.3314L262.636 259.691Z" fill="#24C4A1"/>
<path opacity="0.55" d="M262.636 259.691L291.902 242.792L291.906 52.436L262.629 69.3314L262.636 259.691Z" fill="white"/>
<path d="M291.906 52.4362L269.954 39.7612L240.68 56.66L262.629 69.3315L291.906 52.4362Z" fill="#24C4A1"/>
<path opacity="0.75" d="M291.906 52.4362L269.954 39.7612L240.68 56.66L262.629 69.3315L291.906 52.4362Z" fill="white"/>
<path opacity="0.3" d="M263.018 69.8709L291.902 52.436L262.336 68.7407C259.146 66.9343 255.94 65.1588 252.741 63.3764L240.68 56.6633L252.525 63.7485C255.762 65.688 259.013 67.6343 262.25 69.5533C262.148 73.4255 262.039 77.2976 262.008 81.1629C261.974 85.1033 261.96 232.087 261.987 236.042C262.015 239.996 262.062 243.926 262.179 247.866C262.295 251.807 262.411 255.75 262.633 259.694C262.858 255.75 262.998 251.81 263.087 247.866C263.176 243.922 263.257 239.982 263.275 236.042C263.292 232.101 263.275 85.117 263.251 81.1629C263.22 77.3966 263.117 73.6338 263.018 69.8709Z" fill="white"/>
<path d="M212.708 92.073L188.123 106.271C187.442 106.715 186.874 107.313 186.468 108.017C186.062 108.722 185.827 109.512 185.784 110.324V130.265C185.784 131.757 186.832 132.362 188.123 131.631L197.185 126.393L199.61 130.59C199.717 130.779 199.877 130.933 200.07 131.034C200.263 131.135 200.481 131.177 200.697 131.157C200.914 131.136 201.12 131.053 201.291 130.918C201.461 130.783 201.589 130.601 201.658 130.395L204.51 122.169L212.705 117.437C213.386 116.992 213.952 116.394 214.359 115.69C214.765 114.985 215 114.195 215.044 113.383V93.4423C215.047 91.933 213.999 91.3286 212.708 92.073Z" fill="#FAFAFA"/>
<path d="M187.071 132.464C186.766 132.465 186.466 132.386 186.201 132.235C185.59 131.894 185.255 131.18 185.255 130.265V110.324C185.297 109.419 185.555 108.537 186.008 107.752C186.46 106.967 187.094 106.303 187.857 105.813L212.442 91.6187C213.237 91.1578 214.012 91.0997 214.624 91.4548C215.235 91.81 215.573 92.5065 215.573 93.4251V113.366C215.53 114.271 215.272 115.153 214.819 115.937C214.367 116.722 213.733 117.387 212.971 117.877L204.933 122.507L202.147 130.545C202.043 130.845 201.855 131.108 201.606 131.304C201.356 131.5 201.056 131.621 200.74 131.651C200.424 131.681 200.106 131.62 199.824 131.475C199.542 131.33 199.308 131.106 199.149 130.832L196.991 127.076L188.383 132.054C187.989 132.303 187.537 132.445 187.071 132.464ZM213.753 92.2812C213.475 92.2958 213.206 92.3817 212.971 92.5304L188.386 106.725C187.785 107.123 187.285 107.656 186.925 108.28C186.565 108.905 186.354 109.604 186.31 110.324V130.265C186.31 130.781 186.464 131.17 186.733 131.323C187.003 131.477 187.416 131.419 187.86 131.16L197.377 125.655L200.064 130.309C200.122 130.409 200.208 130.49 200.311 130.543C200.413 130.595 200.529 130.617 200.644 130.606C200.759 130.595 200.868 130.551 200.959 130.48C201.05 130.408 201.119 130.313 201.157 130.204L204.069 121.793L212.449 116.965C213.049 116.566 213.548 116.033 213.908 115.409C214.268 114.785 214.479 114.085 214.525 113.366V93.4251C214.525 92.906 214.371 92.5202 214.101 92.3665C213.995 92.3076 213.875 92.2781 213.753 92.2812Z" fill="#E1E1E1"/>
<path d="M191.268 123.91C191.169 123.91 191.073 123.877 190.995 123.816C190.916 123.756 190.86 123.672 190.834 123.576C190.809 123.481 190.815 123.379 190.853 123.288C190.89 123.197 190.957 123.12 191.043 123.07L209.334 112.509C209.437 112.458 209.555 112.448 209.665 112.481C209.774 112.514 209.867 112.588 209.925 112.687C209.982 112.786 210 112.903 209.974 113.015C209.948 113.126 209.88 113.224 209.785 113.287L191.493 123.849C191.425 123.888 191.347 123.91 191.268 123.91Z" fill="#E1E1E1"/>
<path d="M191.268 119.686C191.169 119.686 191.073 119.653 190.995 119.593C190.916 119.532 190.86 119.448 190.834 119.353C190.809 119.257 190.815 119.156 190.853 119.064C190.89 118.973 190.957 118.896 191.043 118.846L209.334 108.285C209.386 108.255 209.442 108.236 209.501 108.228C209.56 108.221 209.619 108.225 209.677 108.24C209.734 108.256 209.787 108.283 209.834 108.319C209.881 108.356 209.92 108.401 209.949 108.453C210.009 108.556 210.025 108.678 209.994 108.794C209.963 108.909 209.888 109.007 209.785 109.067L191.493 119.618C191.425 119.659 191.347 119.682 191.268 119.686Z" fill="#E1E1E1"/>
<path d="M191.268 115.463C191.189 115.463 191.111 115.443 191.042 115.403C190.974 115.364 190.917 115.306 190.879 115.237C190.849 115.186 190.829 115.13 190.821 115.071C190.813 115.012 190.817 114.953 190.832 114.896C190.847 114.839 190.874 114.785 190.91 114.738C190.946 114.691 190.991 114.652 191.043 114.623L209.334 104.061C209.438 104.002 209.561 103.985 209.677 104.016C209.734 104.032 209.788 104.058 209.835 104.094C209.882 104.131 209.921 104.176 209.951 104.227C209.98 104.278 210 104.335 210.007 104.394C210.015 104.452 210.011 104.512 209.996 104.569C209.98 104.627 209.954 104.68 209.918 104.727C209.881 104.774 209.836 104.814 209.785 104.843L191.493 115.405C191.424 115.443 191.347 115.463 191.268 115.463Z" fill="#E1E1E1"/>
<path d="M191.268 111.242C191.169 111.242 191.073 111.209 190.995 111.149C190.916 111.088 190.86 111.004 190.834 110.908C190.809 110.813 190.815 110.711 190.853 110.62C190.89 110.529 190.957 110.452 191.043 110.402L209.334 99.8409C209.437 99.79 209.555 99.7801 209.665 99.8131C209.774 99.8462 209.867 99.9197 209.925 100.019C209.982 100.118 210 100.235 209.974 100.347C209.948 100.458 209.88 100.556 209.785 100.619L191.493 111.181C191.425 111.22 191.347 111.242 191.268 111.242Z" fill="#24C4A1"/>
<path d="M157.856 161.638L133.271 175.832C132.59 176.276 132.023 176.874 131.616 177.578C131.21 178.283 130.975 179.073 130.932 179.885V199.826C130.932 201.319 131.977 201.923 133.271 201.192L142.333 195.951L144.754 200.147C144.863 200.336 145.022 200.489 145.215 200.588C145.408 200.688 145.625 200.73 145.842 200.71C146.058 200.689 146.263 200.607 146.434 200.473C146.604 200.338 146.733 200.158 146.803 199.953L149.654 191.727L157.849 186.994C158.531 186.551 159.099 185.953 159.506 185.248C159.913 184.544 160.148 183.754 160.192 182.941V162.983C160.199 161.494 159.15 160.89 157.856 161.638Z" fill="#FAFAFA"/>
<path d="M132.223 202.025C131.917 202.029 131.617 201.949 131.352 201.797C130.741 201.455 130.406 200.745 130.406 199.826V179.885C130.448 178.98 130.706 178.099 131.159 177.314C131.612 176.529 132.246 175.864 133.008 175.375L157.593 161.18C158.392 160.719 159.164 160.661 159.775 161.016C160.386 161.371 160.724 162.071 160.724 162.987V182.928C160.682 183.833 160.423 184.715 159.97 185.5C159.517 186.284 158.882 186.949 158.119 187.438L150.085 192.072L147.295 200.113C147.191 200.413 147.002 200.676 146.753 200.872C146.503 201.067 146.203 201.187 145.887 201.217C145.571 201.247 145.253 201.186 144.972 201.04C144.69 200.895 144.455 200.671 144.297 200.397L142.135 196.641L133.531 201.616C133.138 201.864 132.687 202.005 132.223 202.025ZM158.119 162.075L133.534 176.269C132.934 176.668 132.434 177.201 132.074 177.825C131.713 178.449 131.503 179.149 131.458 179.868V199.809C131.458 200.328 131.612 200.714 131.878 200.868C132.144 201.022 132.561 200.964 133.008 200.704L142.514 195.217L145.212 199.861C145.267 199.964 145.352 200.047 145.456 200.1C145.559 200.153 145.677 200.173 145.792 200.158C145.908 200.149 146.018 200.106 146.109 200.035C146.2 199.964 146.268 199.868 146.305 199.758L149.217 191.345L157.593 186.544C158.194 186.145 158.695 185.613 159.056 184.989C159.416 184.364 159.628 183.665 159.673 182.945V162.983C159.673 162.468 159.519 162.082 159.249 161.925C158.98 161.768 158.566 161.829 158.119 162.089V162.075Z" fill="#E1E1E1"/>
<path d="M136.419 193.472C136.34 193.472 136.262 193.451 136.193 193.411C136.124 193.372 136.067 193.315 136.027 193.247C135.997 193.195 135.978 193.139 135.97 193.08C135.962 193.021 135.966 192.962 135.982 192.904C135.997 192.847 136.024 192.794 136.061 192.747C136.097 192.7 136.142 192.661 136.194 192.632L154.486 182.071C154.537 182.041 154.593 182.021 154.652 182.013C154.711 182.005 154.77 182.009 154.828 182.024C154.885 182.04 154.938 182.066 154.985 182.102C155.032 182.138 155.071 182.183 155.101 182.235C155.16 182.338 155.177 182.462 155.146 182.577C155.115 182.693 155.04 182.792 154.937 182.853L136.645 193.411C136.576 193.45 136.499 193.471 136.419 193.472Z" fill="#24C4A1"/>
<path d="M136.419 189.248C136.321 189.248 136.225 189.215 136.146 189.155C136.068 189.094 136.012 189.01 135.986 188.914C135.96 188.819 135.967 188.718 136.004 188.626C136.042 188.535 136.109 188.458 136.194 188.408L154.486 177.847C154.537 177.817 154.594 177.798 154.653 177.79C154.711 177.783 154.771 177.787 154.828 177.802C154.886 177.817 154.939 177.844 154.986 177.88C155.033 177.916 155.073 177.961 155.102 178.013C155.132 178.064 155.151 178.121 155.159 178.179C155.167 178.238 155.163 178.298 155.147 178.355C155.132 178.412 155.105 178.466 155.069 178.513C155.033 178.56 154.988 178.599 154.937 178.629L136.645 189.19C136.576 189.229 136.498 189.249 136.419 189.248Z" fill="#E1E1E1"/>
<path d="M136.419 185.028C136.319 185.028 136.222 184.996 136.143 184.936C136.063 184.875 136.006 184.79 135.98 184.693C135.954 184.597 135.961 184.494 136 184.402C136.039 184.31 136.107 184.233 136.194 184.184L154.486 173.626C154.537 173.592 154.595 173.569 154.656 173.558C154.716 173.547 154.778 173.548 154.839 173.562C154.899 173.576 154.955 173.602 155.005 173.639C155.054 173.675 155.096 173.722 155.127 173.775C155.157 173.829 155.177 173.888 155.184 173.949C155.191 174.01 155.186 174.072 155.168 174.131C155.15 174.19 155.121 174.245 155.081 174.292C155.041 174.339 154.992 174.377 154.937 174.405L136.645 184.966C136.576 185.006 136.499 185.027 136.419 185.028Z" fill="#E1E1E1"/>
<path d="M136.419 180.804C136.34 180.804 136.262 180.783 136.193 180.743C136.124 180.704 136.067 180.647 136.027 180.579C135.997 180.527 135.978 180.471 135.97 180.412C135.962 180.353 135.966 180.293 135.982 180.236C135.997 180.179 136.024 180.126 136.061 180.079C136.097 180.032 136.142 179.993 136.194 179.964L154.486 169.403C154.537 169.368 154.595 169.345 154.656 169.334C154.716 169.323 154.778 169.324 154.838 169.338C154.898 169.352 154.955 169.378 155.005 169.415C155.054 169.452 155.096 169.498 155.126 169.552C155.157 169.605 155.177 169.664 155.184 169.725C155.191 169.786 155.186 169.848 155.168 169.907C155.15 169.966 155.12 170.021 155.081 170.068C155.041 170.115 154.992 170.154 154.937 170.181L136.645 180.739C136.577 180.78 136.499 180.802 136.419 180.804Z" fill="#E1E1E1"/>
<path d="M103.001 222.879L78.416 237.073C77.7341 237.517 77.1665 238.115 76.7594 238.819C76.3524 239.523 76.1174 240.314 76.0736 241.126V261.067C76.0736 262.56 77.1219 263.164 78.416 262.433L87.4784 257.192L89.8992 261.388C90.0073 261.577 90.1673 261.73 90.3601 261.829C90.5528 261.929 90.7702 261.971 90.9863 261.951C91.2024 261.93 91.408 261.848 91.5785 261.714C91.7491 261.579 91.8773 261.399 91.948 261.194L94.7992 252.968L102.994 248.235C103.675 247.792 104.242 247.195 104.649 246.491C105.055 245.787 105.29 244.997 105.333 244.186V224.227C105.34 222.739 104.295 222.131 103.001 222.879Z" fill="#FAFAFA"/>
<path d="M77.3677 263.266C77.0622 263.269 76.7615 263.19 76.497 263.037C75.8858 262.696 75.5477 261.986 75.5477 261.067V241.126C75.5903 240.221 75.8491 239.339 76.3023 238.554C76.7556 237.769 77.3902 237.105 78.1531 236.615L102.738 222.421C103.534 221.96 104.309 221.905 104.92 222.257C105.531 222.609 105.869 223.312 105.869 224.227V244.172C105.826 245.077 105.567 245.958 105.114 246.742C104.661 247.526 104.026 248.19 103.264 248.679L95.226 253.313L92.4432 261.354C92.3388 261.654 92.1507 261.917 91.901 262.113C91.6514 262.308 91.3508 262.428 91.0351 262.458C90.7193 262.488 90.4016 262.426 90.1197 262.281C89.8379 262.135 89.6038 261.912 89.4451 261.637L87.2837 257.909L78.679 262.884C78.2824 263.123 77.8306 263.255 77.3677 263.266ZM103.264 223.316L78.679 237.51C78.0785 237.909 77.5786 238.441 77.2184 239.066C76.8582 239.69 76.6475 240.39 76.6029 241.109V261.05C76.6029 261.569 76.7565 261.955 77.0229 262.109C77.2892 262.262 77.7058 262.204 78.1531 261.945L87.6695 256.44L90.3568 261.095C90.4116 261.197 90.496 261.28 90.599 261.334C90.7019 261.387 90.8186 261.409 90.9339 261.395C91.0495 261.386 91.1598 261.343 91.251 261.271C91.3421 261.199 91.41 261.102 91.446 260.992L94.3621 252.579L102.738 247.75C103.338 247.352 103.838 246.82 104.198 246.196C104.558 245.573 104.769 244.874 104.814 244.155V224.227C104.814 223.712 104.661 223.322 104.394 223.169C104.128 223.015 103.711 223.073 103.264 223.333V223.316Z" fill="#E1E1E1"/>
<path d="M81.5643 254.713C81.4849 254.712 81.407 254.691 81.3382 254.652C81.2693 254.612 81.212 254.556 81.1717 254.487C81.1122 254.384 81.0959 254.261 81.1267 254.146C81.1574 254.031 81.2325 253.933 81.3356 253.873L99.6274 243.311C99.6788 243.282 99.7355 243.262 99.7942 243.255C99.853 243.247 99.9126 243.251 99.9699 243.266C100.027 243.282 100.081 243.308 100.128 243.344C100.175 243.381 100.214 243.426 100.244 243.477C100.273 243.528 100.293 243.585 100.3 243.644C100.308 243.702 100.304 243.762 100.289 243.819C100.273 243.877 100.247 243.93 100.211 243.977C100.175 244.024 100.13 244.064 100.078 244.093L81.7897 254.651C81.7211 254.691 81.6435 254.712 81.5643 254.713Z" fill="#E1E1E1"/>
<path d="M81.5643 250.489C81.4652 250.489 81.3686 250.457 81.2897 250.397C81.2108 250.337 81.154 250.252 81.1279 250.157C81.1019 250.061 81.108 249.959 81.1456 249.868C81.1831 249.776 81.2499 249.699 81.3356 249.649L99.6274 239.091C99.6787 239.057 99.7364 239.034 99.7971 239.022C99.8577 239.011 99.9199 239.013 99.98 239.027C100.04 239.041 100.096 239.067 100.146 239.104C100.196 239.14 100.237 239.187 100.268 239.24C100.299 239.293 100.318 239.352 100.326 239.414C100.333 239.475 100.327 239.537 100.309 239.596C100.292 239.655 100.262 239.71 100.222 239.757C100.182 239.804 100.133 239.842 100.078 239.87L81.7897 250.431C81.7209 250.47 81.6432 250.49 81.5643 250.489Z" fill="#E1E1E1"/>
<path d="M81.5643 246.268C81.4849 246.268 81.407 246.247 81.3382 246.208C81.2693 246.168 81.212 246.111 81.1717 246.043C81.1122 245.94 81.0959 245.817 81.1267 245.702C81.1574 245.587 81.2325 245.488 81.3356 245.428L99.6274 234.867C99.6787 234.833 99.7364 234.809 99.7971 234.798C99.8577 234.787 99.9199 234.789 99.98 234.803C100.04 234.817 100.096 234.843 100.146 234.879C100.196 234.916 100.237 234.963 100.268 235.016C100.299 235.069 100.318 235.128 100.326 235.19C100.333 235.251 100.327 235.313 100.309 235.372C100.292 235.431 100.262 235.486 100.222 235.533C100.182 235.58 100.133 235.618 100.078 235.646L81.7897 246.207C81.7211 246.246 81.6435 246.268 81.5643 246.268Z" fill="#24C4A1"/>
<path d="M81.5643 242.045C81.4652 242.045 81.3686 242.013 81.2897 241.952C81.2108 241.892 81.154 241.808 81.1279 241.712C81.1019 241.617 81.108 241.515 81.1456 241.423C81.1831 241.331 81.2499 241.255 81.3356 241.205L99.6274 230.643C99.7311 230.584 99.8543 230.567 99.9699 230.598C100.085 230.63 100.184 230.705 100.244 230.809C100.304 230.913 100.32 231.036 100.289 231.151C100.258 231.267 100.182 231.365 100.078 231.425L81.7897 241.983C81.7211 242.023 81.6435 242.044 81.5643 242.045Z" fill="#E1E1E1"/>
<path d="M267.608 0.845434L243.023 15.0433C242.342 15.4871 241.775 16.0855 241.368 16.7898C240.962 17.4941 240.727 18.2844 240.684 19.0964V39.0341C240.684 40.5263 241.732 41.1307 243.023 40.3829L252.085 35.1449L254.509 39.3414C254.617 39.5309 254.776 39.6853 254.969 39.786C255.162 39.8867 255.38 39.9293 255.597 39.9087C255.814 39.8881 256.02 39.8052 256.19 39.67C256.361 39.5348 256.489 39.3531 256.558 39.1468L259.409 30.9211L267.604 26.1885C268.285 25.7442 268.852 25.1457 269.258 24.4415C269.665 23.7373 269.899 22.9472 269.943 22.1353V2.19419C269.947 0.705435 268.899 0.107884 267.608 0.845434Z" fill="#FAFAFA"/>
<path d="M241.975 41.2363C241.669 41.2394 241.368 41.1604 241.104 41.0076C240.493 40.6661 240.155 39.9559 240.155 39.0374V19.0928C240.198 18.1886 240.457 17.3078 240.909 16.5237C241.362 15.7397 241.995 15.0752 242.756 14.5855L267.341 0.391123C268.134 -0.0664305 268.909 -0.124477 269.52 0.227225C270.131 0.578927 270.469 1.27891 270.469 2.19743V22.1386C270.426 23.0434 270.168 23.9249 269.715 24.7095C269.263 25.4942 268.629 26.1592 267.867 26.6493L259.829 31.2794L257.043 39.3208C256.939 39.6205 256.751 39.8841 256.502 40.0801C256.252 40.2762 255.952 40.3964 255.636 40.4266C255.32 40.4569 255.003 40.3957 254.72 40.2505C254.438 40.1053 254.204 39.8822 254.045 39.6076L251.887 35.8515L243.279 40.83C242.887 41.0771 242.437 41.2172 241.975 41.2363ZM267.871 1.30282L243.286 15.4972C242.683 15.8944 242.181 16.4258 241.819 17.0496C241.456 17.6734 241.243 18.3728 241.196 19.0928V39.0339C241.196 39.553 241.35 39.9388 241.619 40.0925C241.889 40.2461 242.302 40.1881 242.746 39.9286L252.263 34.4243L254.95 39.0783C255.006 39.1803 255.091 39.2631 255.195 39.3161C255.298 39.369 255.415 39.3897 255.53 39.3754C255.646 39.3663 255.756 39.3232 255.848 39.2515C255.939 39.1798 256.007 39.0827 256.043 38.9725L258.952 30.5658L267.331 25.7376C267.931 25.3381 268.431 24.8055 268.791 24.1812C269.151 23.5569 269.362 22.8579 269.407 22.1386V2.19743C269.407 1.67842 269.254 1.29257 268.984 1.13892C268.714 0.985261 268.301 1.04331 267.857 1.30282H267.871Z" fill="#E1E1E1"/>
<path d="M253.83 28.4008C253.83 27.2228 254.513 25.7886 255.343 25.3004C256.172 24.8121 256.79 25.5155 256.79 26.6935C256.79 27.9706 256.142 29.3944 255.343 29.8554C254.544 30.3164 253.83 29.6778 253.83 28.4008ZM254.011 13.1308L256.691 11.584L256.155 23.0297L254.547 23.9584L254.011 13.1308Z" fill="#24C4A1"/>
</svg>
