<svg width="261" height="243" viewBox="0 0 261 243" fill="none" xmlns="http://www.w3.org/2000/svg">
<path d="M0.562461 160.214C0.739835 160.368 14.764 169.898 14.2016 169.515L13.6578 169.847C3.05036 162.439 0 160.664 0 160.172C0.00859462 160.053 0.0533639 159.938 0.128381 159.845C0.203398 159.751 0.305125 159.682 0.420095 159.648L134.914 82.0534C134.956 82.0281 135.004 82.0148 135.054 82.0148C135.103 82.0148 135.151 82.0281 135.194 82.0534L224.814 133.757L260.191 113.25C260.256 113.214 260.332 113.204 260.403 113.224C260.474 113.243 260.536 113.289 260.574 113.352C260.592 113.384 260.604 113.419 260.609 113.456C260.614 113.492 260.611 113.529 260.602 113.565C260.592 113.6 260.576 113.634 260.553 113.663C260.531 113.692 260.503 113.716 260.471 113.735L224.954 134.324C224.911 134.348 224.863 134.361 224.814 134.361C224.765 134.361 224.717 134.348 224.674 134.324L135.054 82.6202L0.562461 160.214C0.609139 160.214 0.518118 160.24 0.562461 160.214Z" fill="#45B69C"/>
<path d="M253.88 161.826L228.814 176.862C228.772 176.886 228.723 176.899 228.674 176.899C228.625 176.899 228.577 176.886 228.534 176.862L40.6326 68.4494C40.5899 68.4248 40.5545 68.3895 40.5299 68.3469C40.5052 68.3043 40.4922 68.256 40.4922 68.2068C40.4922 68.1576 40.5052 68.1093 40.5299 68.0667C40.5545 68.0241 40.5899 67.9888 40.6326 67.9643L126.285 18.6534C126.317 18.635 126.352 18.6231 126.389 18.6183C126.425 18.6135 126.463 18.6159 126.498 18.6255C126.534 18.635 126.567 18.6514 126.596 18.6738C126.625 18.6962 126.65 18.7241 126.668 18.756C126.687 18.7878 126.699 18.823 126.703 18.8595C126.708 18.8959 126.706 18.933 126.696 18.9685C126.687 19.004 126.67 19.0373 126.648 19.0665C126.625 19.0956 126.597 19.1201 126.565 19.1385L41.3351 68.2021L228.684 176.295L253.742 161.259C253.785 161.235 253.833 161.222 253.882 161.222C253.932 161.222 253.98 161.235 254.023 161.259L253.88 161.826Z" fill="#45B69C"/>
<path d="M153.543 228.06C153.496 228.06 153.587 228.085 153.543 228.06L112.121 204.163C112.079 204.139 112.043 204.104 112.018 204.061C111.994 204.018 111.981 203.97 111.981 203.921C111.981 203.872 111.994 203.823 112.018 203.781C112.043 203.738 112.079 203.703 112.121 203.678L183.47 162.516C183.502 162.498 183.537 162.486 183.573 162.481C183.61 162.476 183.647 162.479 183.682 162.488C183.718 162.498 183.751 162.514 183.78 162.537C183.81 162.559 183.834 162.587 183.853 162.619C183.871 162.651 183.883 162.686 183.888 162.722C183.892 162.759 183.89 162.796 183.88 162.831C183.871 162.867 183.854 162.9 183.832 162.929C183.81 162.959 183.782 162.983 183.75 163.001L112.821 203.921L153.538 228.06H153.543Z" fill="#45B69C"/>
<path d="M200.458 221.702C200.409 221.702 200.36 221.689 200.318 221.665L17.1633 114.912C17.1314 114.894 17.1035 114.869 17.0811 114.84C17.0588 114.811 17.0424 114.777 17.033 114.742C17.0236 114.706 17.0212 114.669 17.0262 114.632C17.0311 114.596 17.0432 114.561 17.0617 114.529C17.0803 114.497 17.1049 114.469 17.1342 114.447C17.1636 114.424 17.197 114.408 17.2327 114.399C17.2683 114.389 17.3055 114.387 17.342 114.392C17.3786 114.397 17.4138 114.409 17.4457 114.427L200.598 221.177C200.651 221.208 200.692 221.256 200.715 221.313C200.738 221.37 200.742 221.433 200.727 221.492C200.711 221.552 200.676 221.604 200.628 221.642C200.579 221.68 200.52 221.701 200.458 221.702V221.702Z" fill="#45B69C"/>
<path d="M77.0619 177.636C77.015 177.636 76.9689 177.623 76.9288 177.599L0.130697 130.671C0.0916033 130.646 0.0592741 130.612 0.0365031 130.571C0.0137321 130.53 0.00120376 130.485 0 130.438C0.000589697 130.392 0.0128567 130.346 0.0356841 130.305C0.0585114 130.264 0.0911741 130.23 0.130697 130.205L67.493 89.0407C67.5233 89.0228 67.5569 89.0112 67.5918 89.0067C67.6267 89.0021 67.6621 89.0047 67.696 89.0143C67.7298 89.0239 67.7614 89.0403 67.7887 89.0625C67.816 89.0847 67.8385 89.1122 67.8548 89.1434C67.8908 89.2073 67.9009 89.2825 67.8831 89.3536C67.8653 89.4248 67.8209 89.4864 67.7591 89.5259L0.795848 130.429L77.0619 177.032L260.002 65.2447C260.032 65.2268 260.066 65.2152 260.101 65.2107C260.135 65.2061 260.171 65.2087 260.205 65.2183C260.239 65.2279 260.27 65.2443 260.297 65.2665C260.325 65.2887 260.347 65.3162 260.364 65.3474C260.399 65.412 260.408 65.4876 260.39 65.559C260.372 65.6304 260.328 65.6923 260.266 65.7322L77.1949 177.599C77.155 177.623 77.1088 177.636 77.0619 177.636Z" fill="#45B69C"/>
<path opacity="0.3" d="M233.606 239.297L215.019 228.573L233.603 217.849L252.193 228.573L233.606 239.297Z" fill="#45B69C"/>
<path opacity="0.5" d="M233.606 226.942L215.019 216.219L233.603 205.495L252.193 216.219L233.606 226.942Z" fill="#45B69C"/>
<path opacity="0.7" d="M233.606 217.042L215.019 206.318L233.603 195.595L252.193 206.318L233.606 217.042Z" fill="#45B69C"/>
<path d="M233.604 217.567C233.511 217.567 233.42 217.543 233.34 217.497L214.753 206.768C214.672 206.722 214.606 206.656 214.559 206.575C214.512 206.495 214.488 206.404 214.488 206.311C214.488 206.218 214.512 206.127 214.559 206.047C214.606 205.967 214.672 205.9 214.753 205.854L233.34 195.126C233.42 195.079 233.511 195.054 233.604 195.054C233.696 195.054 233.787 195.079 233.867 195.126L252.454 205.854C252.534 205.9 252.6 205.967 252.647 206.047C252.693 206.127 252.717 206.218 252.717 206.31C252.717 206.402 252.693 206.493 252.647 206.573C252.6 206.653 252.534 206.72 252.454 206.766L233.87 217.494C233.789 217.541 233.697 217.566 233.604 217.567ZM216.072 206.316L233.604 216.431L251.136 206.316L233.604 196.201L216.072 206.316Z" fill="#45B69C"/>
<path opacity="0.7" d="M147.939 242.303L123.352 228.118L147.939 213.933L172.526 228.118L147.939 242.303Z" fill="#45B69C"/>
<path d="M147.939 243C147.816 243 147.695 242.968 147.589 242.907L123.002 228.722C122.896 228.66 122.808 228.572 122.748 228.466C122.687 228.36 122.655 228.24 122.655 228.118C122.655 227.996 122.687 227.876 122.748 227.77C122.808 227.664 122.896 227.575 123.002 227.514L147.596 213.327C147.702 213.265 147.823 213.233 147.946 213.233C148.069 213.233 148.19 213.265 148.296 213.327L172.874 227.509C172.98 227.571 173.067 227.659 173.128 227.765C173.189 227.871 173.221 227.991 173.221 228.113C173.221 228.235 173.189 228.355 173.128 228.461C173.067 228.567 172.98 228.656 172.874 228.717L148.296 242.902C148.188 242.966 148.065 243 147.939 243V243ZM124.745 228.118L147.939 241.503L171.131 228.122L147.937 214.742L124.745 228.118Z" fill="#45B69C"/>
<path opacity="0.7" d="M230.959 55.8785L218.058 48.4363L230.959 40.9917L243.858 48.4363L230.959 55.8785Z" fill="#45B69C"/>
<path opacity="0.5" d="M230.959 48.4363L218.058 40.9917L230.959 33.5495L243.858 40.9917L230.959 48.4363Z" fill="#45B69C"/>
<path opacity="0.3" d="M230.959 40.9917L218.058 33.5495L230.959 26.1073L243.858 33.5495L230.959 40.9917Z" fill="#45B69C"/>
<path d="M230.957 56.5735C230.835 56.5733 230.715 56.5411 230.609 56.4802L217.708 49.038C217.602 48.9764 217.514 48.8882 217.454 48.7822C217.393 48.6762 217.361 48.5561 217.361 48.434C217.361 48.3118 217.393 48.1917 217.454 48.0858C217.514 47.9798 217.602 47.8916 217.708 47.8299L230.609 40.3877C230.716 40.3263 230.836 40.2939 230.959 40.2939C231.082 40.2939 231.203 40.3263 231.309 40.3877L244.218 47.8322C244.323 47.8941 244.41 47.9822 244.47 48.0879C244.531 48.1937 244.563 48.3133 244.563 48.4351C244.563 48.5569 244.531 48.6766 244.47 48.7823C244.41 48.8881 244.323 48.9762 244.218 49.038L231.316 56.4802C231.208 56.5442 231.083 56.5765 230.957 56.5735ZM219.453 48.434L230.957 55.0716L242.463 48.4363L230.957 41.7964L219.453 48.434Z" fill="#45B69C"/>
<path opacity="0.7" d="M20.2836 181.715L7.38202 174.273L20.2836 166.829L33.1829 174.273L20.2836 181.715Z" fill="#45B69C"/>
<path d="M20.2813 182.413C20.1593 182.412 20.0395 182.38 19.9335 182.319L7.03191 174.875C6.92635 174.813 6.83879 174.725 6.77794 174.619C6.71709 174.513 6.68507 174.393 6.68507 174.271C6.68507 174.149 6.71709 174.029 6.77794 173.923C6.83879 173.817 6.92635 173.728 7.03191 173.667L19.9335 166.225C20.04 166.163 20.1607 166.131 20.2836 166.131C20.4065 166.131 20.5272 166.163 20.6337 166.225L33.533 173.669C33.6385 173.731 33.7261 173.819 33.7869 173.925C33.8478 174.031 33.8798 174.151 33.8798 174.273C33.8798 174.395 33.8478 174.515 33.7869 174.621C33.7261 174.727 33.6385 174.816 33.533 174.877L20.6337 182.319C20.5263 182.381 20.4048 182.413 20.2813 182.413V182.413ZM8.77764 174.271L20.2813 180.911L31.7872 174.273L20.2813 167.636L8.77764 174.271Z" fill="#45B69C"/>
<path style="mix-blend-mode:lighten" opacity="0.2" d="M122.302 20.855C126.295 23.157 130.069 26.4011 133.429 30.233C138.097 15.2623 152.32 10.6164 169.154 20.3279C183.071 28.3625 195.207 44.1659 201.634 60.9068C203.763 60.9745 206.132 61.6742 208.636 63.1225C217.724 68.3654 225.09 81.1158 225.09 91.6016C225.09 91.8349 225.069 92.0331 225.062 92.2523C227.652 92.4319 230.516 93.3485 233.531 95.086C245.154 101.791 254.576 118.098 254.576 131.511C254.576 144.924 245.154 150.356 233.531 143.651L122.302 79.4739C108.273 71.381 96.8997 51.6968 96.8997 35.5086C96.8997 19.3204 108.273 12.7598 122.302 20.855Z" fill="url(#paint0_linear)"/>
<path style="mix-blend-mode:lighten" opacity="0.4" d="M112.681 26.8419C116.675 29.1462 120.448 32.3904 123.812 36.2223C128.479 21.2492 142.699 16.6057 159.534 26.3172C173.457 34.3518 185.594 50.1528 192.014 66.8984C194.143 66.9661 196.511 67.6657 199.016 69.1141C208.104 74.357 215.469 87.1074 215.469 97.5909C215.469 97.8241 215.448 98.0247 215.441 98.2439C218.032 98.4235 220.896 99.3378 223.911 101.078C235.534 107.783 244.955 124.09 244.955 137.5C244.955 150.911 235.534 156.347 223.911 149.642L112.681 85.4748C98.6525 77.3819 87.2795 57.6977 87.2795 41.5095C87.2795 25.3213 98.6525 18.749 112.681 26.8419Z" fill="url(#paint1_linear)"/>
<path style="mix-blend-mode:lighten" opacity="0.6" d="M101.327 34.3028C105.32 36.6071 109.094 39.8489 112.455 43.6832C117.123 28.7101 131.345 24.0666 148.177 33.7781C162.103 41.8127 174.239 57.6137 180.66 74.3593C182.788 74.427 185.157 75.1266 187.661 76.575C196.749 81.8179 204.115 94.5683 204.115 105.052C204.115 105.285 204.094 105.486 204.087 105.705C206.678 105.884 209.541 106.799 212.557 108.539C224.179 115.244 233.601 131.551 233.601 144.961C233.601 158.372 224.179 163.808 212.557 157.103L101.327 92.9241C87.2982 84.8288 75.9253 65.1446 75.9253 48.9587C75.9253 32.7729 87.2982 26.2099 101.327 34.3028Z" fill="url(#paint2_linear)"/>
<path d="M183.579 203.41C182.834 203.433 182.094 203.273 181.425 202.943L35.302 121.59C35.1701 121.528 35.0545 121.436 34.9645 121.321C34.8746 121.207 34.8127 121.072 34.7839 120.93C34.7839 120.606 35.3137 120.244 35.7571 119.997L66.1254 103.088C67.0572 102.605 68.0936 102.359 69.1431 102.372C69.8893 102.348 70.63 102.508 71.2995 102.838L217.418 184.197C217.574 184.283 217.936 184.512 217.936 184.764C217.936 184.945 217.733 185.363 216.965 185.79L186.597 202.699C185.664 203.178 184.628 203.422 183.579 203.41V203.41ZM35.3487 120.937C35.4054 121.021 35.4814 121.091 35.5704 121.14L181.694 202.5C182.786 203.109 184.996 202.99 186.326 202.248L216.695 185.34C216.957 185.213 217.187 185.027 217.364 184.796C217.299 184.739 217.227 184.69 217.15 184.649L71.0288 103.289C70.442 103.005 69.7945 102.869 69.1431 102.894C68.1885 102.884 67.2458 103.106 66.3961 103.54L36.0372 120.459C35.7822 120.578 35.5494 120.739 35.3487 120.937V120.937Z" fill="#6DC4CB"/>
<path d="M88.5305 42.3771C92.5167 44.679 96.2976 47.9255 99.6584 51.7551C104.326 36.7844 118.549 32.1408 135.38 41.8523C149.307 49.8846 161.443 65.688 167.863 82.4336C169.992 82.5035 172.361 83.2032 174.865 84.6515C183.953 89.8921 191.319 102.643 191.319 113.128C191.319 113.362 191.295 113.56 191.291 113.781C193.881 113.959 196.745 114.875 199.76 116.615C211.38 123.32 220.802 139.627 220.802 153.038C220.802 166.448 211.38 171.885 199.76 165.177L88.5305 100.998C74.5016 92.9031 63.1287 73.2188 63.1287 57.0213C63.1287 40.8238 74.5016 34.2818 88.5305 42.3771Z" fill="url(#paint3_linear)"/>
<path d="M88.5305 42.3771C90.9194 43.7771 93.1584 45.4183 95.2123 47.2748L107.652 40.0938C114.485 35.294 124.376 35.5039 135.383 41.8547C149.309 49.8869 161.445 65.6903 167.866 82.4359C169.994 82.5059 172.363 83.2055 174.867 84.6515C183.955 89.8945 191.321 102.645 191.321 113.131C191.321 113.364 191.298 113.562 191.293 113.784C193.883 113.961 196.747 114.878 199.762 116.617C211.383 123.323 220.805 139.63 220.805 153.04C220.805 159.687 218.487 164.366 214.737 166.588L214.639 166.644H214.62L184.168 184.325L177.514 152.336L88.5305 100.998C74.5016 92.9031 63.1287 73.2188 63.1287 57.0213C63.1287 40.8238 74.5016 34.2818 88.5305 42.3771Z" fill="url(#paint4_radial)"/>
<path d="M39.5637 58.6025L70.4314 40.6791C75.0384 37.9364 81.4449 38.2816 88.5305 42.37C90.9194 43.7701 93.1584 45.4113 95.2123 47.2678L107.652 40.0868C114.485 35.287 124.376 35.4969 135.383 41.8476C149.309 49.8799 161.445 65.6833 167.866 82.4289C169.994 82.4988 172.363 83.1985 174.867 84.6445C183.955 89.8874 191.321 102.638 191.321 113.124C191.321 113.357 191.298 113.555 191.293 113.777C193.883 113.954 196.747 114.871 199.762 116.61C211.383 123.316 220.805 139.623 220.805 153.033C220.805 159.68 218.487 164.359 214.737 166.581L214.639 166.637H214.62L184.168 184.325L177.514 152.336L88.5305 100.998C77.1576 94.4353 67.5257 80.2575 64.2956 66.5019L39.5637 58.6025Z" fill="url(#paint5_linear)"/>
<path d="M57.9755 60.1046C61.9664 62.4089 65.7426 65.6531 69.1034 69.485C73.7711 54.5142 87.9937 49.8684 104.826 59.5799C118.752 67.6145 130.888 83.4179 137.306 100.161C139.434 100.229 141.806 100.928 144.307 102.377C153.396 107.62 160.761 120.37 160.761 130.856C160.761 131.089 160.738 131.287 160.731 131.507C163.324 131.686 166.187 132.6 169.2 134.34C180.823 141.046 190.245 157.353 190.245 170.763C190.245 184.174 180.823 189.61 169.2 182.905L57.9755 118.726C43.9467 110.633 32.5737 90.9487 32.5737 74.7605C32.5737 58.5723 43.9373 52.0117 57.9755 60.1046Z" fill="url(#paint6_linear)"/>
<path d="M68.0765 70.0959C64.7134 66.264 60.9395 63.0199 56.9463 60.7156C50.0871 56.7508 43.8766 56.3123 39.2976 58.7752C43.9397 55.6499 50.5842 55.8458 57.9685 60.1045C61.7307 62.2759 65.2945 65.2868 68.5059 68.8342C68.3542 69.247 68.2095 69.6644 68.0765 70.0959Z" fill="white"/>
<path d="M189.225 171.372C189.225 157.961 179.803 141.654 168.181 134.949C165.165 133.209 162.299 132.295 159.711 132.12C159.711 131.901 159.739 131.693 159.739 131.469C159.739 120.974 152.373 108.233 143.285 102.99C140.776 101.542 138.408 100.842 136.284 100.774C129.859 84.0288 117.722 68.2161 103.799 60.1909C93.6183 54.3182 84.3949 53.7025 77.6594 57.4411C84.4672 53.0425 94.1131 53.404 104.816 59.5798C118.742 67.6144 130.878 83.4178 137.297 100.161C139.425 100.229 141.796 100.928 144.298 102.377C153.386 107.62 160.752 120.37 160.752 130.856C160.752 131.089 160.729 131.287 160.722 131.507C163.315 131.686 166.178 132.6 169.191 134.34C180.814 141.045 190.236 157.353 190.236 170.763C190.236 177.65 187.748 182.424 183.755 184.544C187.155 182.189 189.225 177.655 189.225 171.372Z" fill="white"/>
<path opacity="0.7" d="M12.5515 116.601L0.64415 109.733L12.5515 102.862L24.4589 109.733L12.5515 116.601Z" fill="#45B69C"/>
<path d="M12.5515 117.245C12.4384 117.245 12.3271 117.216 12.2294 117.158L0.329072 110.288C0.231762 110.231 0.151061 110.149 0.094982 110.051C0.0389034 109.954 0.00939941 109.843 0.00939941 109.73C0.00939941 109.618 0.0389034 109.507 0.094982 109.409C0.151061 109.311 0.231762 109.23 0.329072 109.173L12.2318 102.304C12.3298 102.248 12.4408 102.218 12.5539 102.218C12.6669 102.218 12.7779 102.248 12.8759 102.304L24.7786 109.175C24.8759 109.232 24.9566 109.314 25.0127 109.411C25.0688 109.509 25.0983 109.62 25.0983 109.733C25.0983 109.845 25.0688 109.956 25.0127 110.054C24.9566 110.152 24.8759 110.233 24.7786 110.29L12.8759 117.158C12.7774 117.215 12.6654 117.245 12.5515 117.245ZM1.9301 109.73L12.5515 115.859L23.1706 109.73L12.5492 103.606L1.9301 109.73Z" fill="#45B69C"/>
<path opacity="0.7" d="M50.2318 29.7712L37.3325 22.3289L50.2318 14.8844L63.1334 22.3289L50.2318 29.7712Z" fill="#45B69C"/>
<path opacity="0.5" d="M50.2318 22.329L37.3325 14.8845L50.2318 7.44223L63.1334 14.8868L50.2318 22.329Z" fill="#45B69C"/>
<path opacity="0.3" d="M50.2318 14.8845L37.3325 7.44223L50.2318 0L63.1334 7.44223L50.2318 14.8845Z" fill="#45B69C"/>
<path d="M50.2318 30.4663C50.1089 30.4664 49.9882 30.4342 49.8817 30.373L36.9824 22.9308C36.8769 22.8691 36.7893 22.7809 36.7285 22.6749C36.6676 22.5689 36.6356 22.4489 36.6356 22.3267C36.6356 22.2045 36.6676 22.0845 36.7285 21.9785C36.7893 21.8725 36.8769 21.7843 36.9824 21.7226L49.8817 14.2804C49.9881 14.219 50.1089 14.1867 50.2318 14.1867C50.3547 14.1867 50.4754 14.219 50.5819 14.2804L63.4835 21.725C63.589 21.7866 63.6766 21.8748 63.7374 21.9808C63.7983 22.0868 63.8303 22.2068 63.8303 22.329C63.8303 22.4512 63.7983 22.5713 63.7374 22.6772C63.6766 22.7832 63.589 22.8714 63.4835 22.9331L50.5819 30.373C50.4754 30.4342 50.3546 30.4664 50.2318 30.4663V30.4663ZM38.7258 22.3267L50.2318 28.9643L61.7354 22.329L50.2318 15.6891L38.7258 22.3267Z" fill="#45B69C"/>
<path d="M108.263 203.13L107.848 202.321C125.646 193.353 137.404 187.432 139.822 153.385L140.629 126.467L138.604 125.324C125.011 117.632 111.904 104.683 100.685 87.8701L100.317 87.3197L98.4634 86.2445L97.2312 86.6713C93.8207 87.8311 90.2403 88.4136 86.6377 88.3948V87.4759C90.138 87.4959 93.6169 86.9299 96.9301 85.8014L98.5638 85.2393L100.968 86.6386L101.453 87.3686C112.588 104.056 125.59 116.902 139.054 124.512L141.563 125.93L140.744 153.355C138.284 188.008 126.341 194.025 108.263 203.13Z" fill="#D2EBFB"/>
<path d="M127.539 134.655C113.755 126.858 100.265 113.56 88.9669 96.6161L88.8129 96.5275C77.5146 100.434 64.0319 98.174 50.2434 90.0601L49.716 89.7499L50.4605 115.498C53.0744 155.408 66.6995 172.781 88.6238 209.887L89.156 210.195C111.08 198.386 124.703 196.733 127.319 159.841L128.064 134.954L127.539 134.655Z" fill="#A8CEEF"/>
<path d="M135.315 128.733C121.527 120.937 108.044 107.631 96.7434 90.6921L96.5917 90.6035C85.2911 94.51 71.8107 92.2524 58.0199 84.1361L57.4924 83.8259L49.863 89.8362L50.2434 90.0694C64.0319 98.1833 77.5146 100.441 88.8129 96.5367L88.9669 96.6253C100.265 113.56 113.755 126.858 127.539 134.655L128.064 134.954L127.322 159.841C125.613 183.922 119.214 192.987 108.884 199.662C121.793 192.045 133.182 180.985 135.1 153.92L135.845 129.03L135.315 128.733Z" fill="#D2EBFB"/>
<path d="M135.843 129.03L135.315 128.734C121.527 120.937 108.044 107.631 96.7433 90.6921L96.5916 90.6035L88.8129 96.5274L88.9669 96.616C100.265 113.56 113.755 126.858 127.539 134.655L128.064 134.954L135.843 129.03Z" fill="#D2EBFB"/>
<path d="M128.064 134.954L127.322 159.841C125.613 183.922 119.214 192.987 108.884 199.662C121.793 192.045 133.182 180.985 135.1 153.919L135.845 129.03L128.064 134.954Z" fill="#76B5E4"/>
<path d="M86.1639 192.992C69.1454 164.772 60.5824 150.587 58.5193 119.624L58.0525 103.37C68.982 108.308 79.4564 109.88 88.8946 108.004C98.3304 120.771 108.807 131.285 119.734 138.956L119.267 154.668C117.202 183.252 108.641 187.567 91.6182 196.143C90.729 196.593 89.8234 197.048 88.8969 197.519L86.1639 192.992Z" fill="#147DB8"/>
<path d="M93.0069 194.916C92.1153 195.366 91.2098 195.821 90.2856 196.292L87.5573 191.765C70.5387 163.545 61.9781 149.36 59.9127 118.397L59.4972 104C59.0141 103.795 58.5333 103.589 58.0479 103.372L58.5147 119.626C60.5825 150.589 69.1454 164.783 86.164 192.992L88.8899 197.519C89.8235 197.052 90.722 196.586 91.6112 196.143C98.5568 192.644 104.093 189.846 108.354 185.834C104.3 189.218 99.2196 191.786 93.0069 194.916Z" fill="#1C2342"/>
<path d="M71.519 138.445L84.9737 167.729L108.697 142.841L97.7213 132.854L84.9737 154.33L78.9547 139.893L71.519 138.445Z" fill="#1C2342"/>
<path d="M50.981 142.167L67.486 178.086L96.5847 147.562L83.1206 135.31L67.486 161.651L60.1017 143.942L50.981 142.167Z" fill="#05A1A0"/>
<path d="M48.521 143.97L65.0238 179.889L94.1247 149.365L80.6607 137.113L65.0238 163.454L57.6418 145.745L48.521 143.97Z" fill="#45B69C"/>
<path d="M96.5847 147.562L94.1248 149.365L65.0238 179.889L67.486 178.086L96.5847 147.562Z" fill="#05A1A0"/>
<path d="M50.9809 142.167L48.521 143.97L57.6418 145.745L60.1017 143.942L50.9809 142.167Z" fill="#57BEC3"/>
<path d="M94.1248 149.365L80.6607 137.113L83.1206 135.31L96.5846 147.562L94.1248 149.365Z" fill="#57BEC3"/>
<path d="M57.6651 145.348L48.521 143.97L57.6418 145.745L60.1017 143.942L57.6651 145.348Z" fill="white"/>
<path d="M94.1248 149.365L80.6607 137.113L94.1598 148.873L96.5846 147.562L94.1248 149.365Z" fill="white"/>
<path d="M128.029 134.163C114.24 126.366 100.758 113.068 89.4593 96.1239L89.3053 96.0353C78.0071 99.9348 64.5243 97.6842 50.7405 89.5679L50.2388 90.0997C64.0086 98.1809 77.4586 100.427 88.7475 96.5274L88.9016 96.616C100.2 113.56 113.683 126.858 127.471 134.655L127.998 134.954L127.254 159.841C125.837 179.824 121.186 189.461 113.746 195.991C121.524 189.461 126.374 179.847 127.828 159.356L128.556 134.452L128.029 134.163Z" fill="white"/>
<path d="M28.7882 136.67C28.6644 136.67 28.5457 136.621 28.4582 136.534C28.3706 136.446 28.3215 136.327 28.3215 136.204C28.3215 135.574 28.3331 134.958 28.3588 134.338C28.3654 134.219 28.4174 134.107 28.5043 134.025C28.5911 133.943 28.7061 133.897 28.8256 133.897C28.9449 133.904 29.0571 133.956 29.1392 134.042C29.2212 134.129 29.2669 134.244 29.2667 134.364C29.2433 134.961 29.2317 135.567 29.2317 136.183C29.2374 136.306 29.1939 136.427 29.1108 136.518C29.0276 136.609 28.9117 136.664 28.7882 136.67ZM29.0216 132.083H28.9749C28.8544 132.068 28.744 132.008 28.6673 131.914C28.5906 131.82 28.5536 131.7 28.5642 131.579C28.6295 130.951 28.7065 130.336 28.7976 129.736C28.7961 129.668 28.8095 129.601 28.8368 129.539C28.8641 129.477 28.9046 129.421 28.9556 129.376C29.0066 129.331 29.0668 129.298 29.1319 129.279C29.1971 129.26 29.2657 129.255 29.3329 129.265C29.4001 129.275 29.4643 129.299 29.5211 129.337C29.5778 129.374 29.6257 129.423 29.6614 129.481C29.6971 129.539 29.7197 129.604 29.7277 129.671C29.7358 129.739 29.7289 129.807 29.7078 129.872C29.6168 130.459 29.5421 131.061 29.4744 131.672C29.4608 131.784 29.407 131.888 29.3228 131.963C29.2387 132.039 29.13 132.081 29.0169 132.083H29.0216ZM29.7685 127.553C29.7336 127.558 29.6983 127.558 29.6634 127.553C29.6034 127.539 29.5467 127.514 29.4966 127.478C29.4465 127.442 29.4041 127.396 29.3718 127.344C29.3395 127.291 29.3178 127.233 29.3082 127.172C29.2986 127.111 29.3011 127.049 29.3157 126.989C29.458 126.373 29.6168 125.774 29.7825 125.186C29.8311 125.087 29.9132 125.009 30.014 124.965C30.1149 124.921 30.2282 124.914 30.3337 124.945C30.4393 124.976 30.5304 125.044 30.591 125.136C30.6515 125.228 30.6776 125.338 30.6647 125.447C30.4966 126.016 30.341 126.6 30.1979 127.199C30.1737 127.297 30.1183 127.385 30.04 127.448C29.9617 127.512 29.8648 127.549 29.7638 127.553H29.7685ZM31.1361 123.176C31.0771 123.175 31.0186 123.164 30.9634 123.143C30.8516 123.096 30.7627 123.006 30.7156 122.894C30.6686 122.783 30.667 122.657 30.7113 122.544C30.9447 121.961 31.2038 121.378 31.4745 120.836C31.539 120.747 31.6331 120.683 31.7401 120.656C31.8472 120.63 31.9603 120.642 32.0593 120.69C32.1584 120.739 32.237 120.821 32.2812 120.922C32.3253 121.023 32.3323 121.137 32.3007 121.242C32.0393 121.774 31.7896 122.327 31.5632 122.889C31.528 122.973 31.4687 123.045 31.3928 123.096C31.3168 123.147 31.2276 123.175 31.1361 123.176V123.176ZM33.2506 119.106C33.1611 119.106 33.0736 119.08 32.9985 119.031C32.8978 118.963 32.8275 118.859 32.8026 118.74C32.7778 118.621 32.8003 118.497 32.8655 118.395C33.2132 117.863 33.5843 117.35 33.9647 116.869C34.0467 116.796 34.1522 116.753 34.2623 116.75C34.3725 116.747 34.4803 116.782 34.5667 116.851C34.6531 116.919 34.7124 117.016 34.7343 117.124C34.7561 117.232 34.7389 117.344 34.6859 117.441C34.3218 117.907 33.9671 118.39 33.6357 118.898C33.5933 118.962 33.5361 119.014 33.469 119.05C33.4018 119.086 33.3269 119.105 33.2506 119.106V119.106ZM36.1842 115.584C36.0934 115.581 36.0054 115.552 35.9311 115.499C35.8568 115.447 35.7994 115.374 35.7659 115.29C35.7325 115.205 35.7244 115.113 35.7428 115.024C35.7611 114.935 35.805 114.853 35.8692 114.789C36.3261 114.359 36.8044 113.952 37.3022 113.569C37.3994 113.519 37.5111 113.504 37.6179 113.528C37.7247 113.552 37.8197 113.612 37.8864 113.699C37.9531 113.786 37.9873 113.893 37.9829 114.002C37.9784 114.112 37.9358 114.216 37.8623 114.297C37.3888 114.663 36.9339 115.052 36.4993 115.463C36.4131 115.541 36.3007 115.584 36.1842 115.584ZM39.8928 112.897C39.7935 112.892 39.6985 112.855 39.6217 112.792C39.5449 112.729 39.4902 112.643 39.4657 112.547C39.4413 112.45 39.4482 112.349 39.4855 112.257C39.5229 112.164 39.5887 112.087 39.6734 112.035C40.2266 111.736 40.7953 111.466 41.3771 111.228C41.4346 111.191 41.4995 111.167 41.5672 111.158C41.6349 111.149 41.7038 111.155 41.7689 111.176C41.834 111.196 41.8938 111.231 41.9441 111.277C41.9944 111.323 42.034 111.38 42.06 111.443C42.086 111.506 42.0979 111.574 42.0947 111.642C42.0916 111.71 42.0735 111.777 42.0417 111.837C42.01 111.898 41.9654 111.951 41.911 111.992C41.8567 112.033 41.7939 112.062 41.7272 112.077C41.1752 112.304 40.6354 112.56 40.1098 112.844C40.0429 112.879 39.9684 112.897 39.8928 112.897V112.897ZM44.1707 111.265C44.0637 111.256 43.9632 111.21 43.8861 111.135C43.809 111.06 43.76 110.962 43.7474 110.855C43.7348 110.748 43.7593 110.641 43.8169 110.55C43.8744 110.46 43.9615 110.392 44.0634 110.358C44.6655 110.211 45.2863 110.092 45.9095 110.001C46.0194 110.004 46.1248 110.045 46.2071 110.118C46.2893 110.191 46.3432 110.291 46.3591 110.4C46.375 110.508 46.352 110.619 46.294 110.713C46.2361 110.806 46.147 110.876 46.0425 110.91C45.4473 110.997 44.8546 111.111 44.2804 111.251C44.2445 111.259 44.2076 111.263 44.1707 111.263V111.265Z" fill="#DA3318"/>
<path d="M81.0808 205.019H81.0621C80.4507 204.993 79.8229 204.947 79.195 204.875C79.0888 204.844 78.9968 204.777 78.9355 204.685C78.8741 204.593 78.8473 204.483 78.8599 204.373C78.8725 204.263 78.9237 204.162 79.0043 204.086C79.0849 204.01 79.1897 203.966 79.3001 203.96C79.9045 204.03 80.5113 204.077 81.0995 204.1C81.2074 204.121 81.3044 204.18 81.3734 204.265C81.4424 204.351 81.4791 204.458 81.4768 204.568C81.4746 204.677 81.4336 204.783 81.3612 204.865C81.2888 204.948 81.1895 205.002 81.0808 205.019V205.019ZM76.5321 204.42C76.4995 204.423 76.4667 204.423 76.4341 204.42C75.8366 204.289 75.2329 204.139 74.623 203.97C74.5556 203.962 74.4905 203.941 74.4323 203.906C74.3742 203.871 74.3243 203.824 74.2862 203.768C74.2481 203.712 74.2227 203.648 74.2118 203.581C74.2008 203.514 74.2046 203.446 74.2228 203.38C74.2411 203.315 74.2733 203.255 74.3173 203.203C74.3613 203.151 74.4161 203.11 74.4777 203.082C74.5393 203.054 74.6064 203.039 74.6742 203.039C74.742 203.04 74.809 203.055 74.8704 203.083C75.4632 203.25 76.0498 203.396 76.6301 203.522C76.7331 203.554 76.8217 203.621 76.8808 203.711C76.9399 203.802 76.9659 203.91 76.9543 204.017C76.9428 204.124 76.8944 204.224 76.8174 204.299C76.7404 204.375 76.6396 204.422 76.5321 204.431V204.42ZM72.1258 203.123C72.0714 203.123 72.0175 203.113 71.9671 203.093C71.3929 202.883 70.8157 202.654 70.2353 202.407C70.1443 202.347 70.0772 202.257 70.0458 202.152C70.0143 202.048 70.0205 201.936 70.0633 201.835C70.106 201.735 70.1825 201.653 70.2796 201.603C70.3768 201.553 70.4882 201.539 70.5948 201.563C71.1619 201.796 71.7243 202.029 72.2845 202.232C72.3794 202.275 72.4574 202.348 72.506 202.44C72.5547 202.531 72.5712 202.637 72.553 202.739C72.5347 202.842 72.4828 202.935 72.4054 203.005C72.328 203.074 72.2296 203.116 72.1258 203.123V203.123ZM67.9131 201.283C67.8418 201.282 67.7716 201.266 67.7078 201.234C67.1648 200.959 66.6202 200.669 66.0741 200.366C65.9871 200.298 65.9274 200.2 65.9057 200.092C65.884 199.983 65.9017 199.87 65.9556 199.773C66.0095 199.677 66.0961 199.602 66.1999 199.563C66.3037 199.525 66.4179 199.524 66.5222 199.562C67.0605 199.86 67.5965 200.144 68.1302 200.413C68.2174 200.463 68.286 200.54 68.3258 200.632C68.3656 200.725 68.3745 200.828 68.3512 200.925C68.3278 201.023 68.2735 201.111 68.1962 201.175C68.119 201.24 68.0229 201.277 67.9225 201.283H67.9131ZM63.9129 199.021C63.8262 199.021 63.7411 198.997 63.6678 198.951C63.1482 198.624 62.6301 198.287 62.1135 197.938C62.0341 197.862 61.9841 197.761 61.9723 197.652C61.9605 197.542 61.9877 197.432 62.0491 197.341C62.1105 197.25 62.2021 197.183 62.3078 197.153C62.4135 197.123 62.5266 197.131 62.6269 197.176C63.1357 197.519 63.6445 197.85 64.158 198.172C64.2381 198.227 64.2987 198.307 64.3314 198.398C64.364 198.49 64.367 198.59 64.34 198.684C64.3129 198.778 64.2572 198.86 64.1806 198.921C64.104 198.981 64.0104 199.016 63.9129 199.021V199.021ZM60.1227 196.425C60.0231 196.425 59.9263 196.392 59.8473 196.331C59.3549 195.965 58.8648 195.587 58.3793 195.203C58.3198 195.17 58.2681 195.125 58.2278 195.07C58.1876 195.015 58.1598 194.953 58.1464 194.886C58.1329 194.82 58.1342 194.751 58.15 194.685C58.1659 194.619 58.196 194.557 58.2381 194.504C58.2803 194.451 58.3336 194.407 58.3943 194.377C58.455 194.346 58.5216 194.33 58.5895 194.328C58.6574 194.325 58.7249 194.338 58.7874 194.365C58.8498 194.392 58.9057 194.431 58.9511 194.482C59.4288 194.864 59.9111 195.236 60.3981 195.597C60.4716 195.657 60.5252 195.737 60.5517 195.828C60.5782 195.919 60.5764 196.016 60.5465 196.106C60.5166 196.196 60.4601 196.274 60.3844 196.331C60.3087 196.388 60.2174 196.421 60.1227 196.425V196.425ZM56.5426 193.542C56.4321 193.542 56.3254 193.502 56.2415 193.43C55.7747 193.026 55.3134 192.615 54.8575 192.199C54.8003 192.162 54.7518 192.113 54.7155 192.056C54.6791 191.999 54.6557 191.934 54.6469 191.867C54.6381 191.799 54.6441 191.731 54.6646 191.666C54.685 191.601 54.7193 191.542 54.7652 191.491C54.8111 191.441 54.8673 191.402 54.93 191.376C54.9928 191.35 55.0605 191.337 55.1284 191.34C55.1963 191.343 55.2628 191.36 55.3232 191.391C55.3837 191.422 55.4366 191.466 55.4783 191.52C55.9295 191.932 56.3846 192.337 56.8436 192.735C56.911 192.798 56.9582 192.879 56.9793 192.969C57.0004 193.059 56.9945 193.153 56.9623 193.239C56.9301 193.325 56.8731 193.4 56.7984 193.454C56.7237 193.508 56.6347 193.539 56.5426 193.542V193.542ZM53.1678 190.426C53.0465 190.426 52.9301 190.378 52.8434 190.293C52.4062 189.863 51.9728 189.425 51.5434 188.98C51.4807 188.889 51.4523 188.779 51.4633 188.669C51.4743 188.559 51.5241 188.457 51.6037 188.38C51.6832 188.303 51.7875 188.257 51.8979 188.25C52.0082 188.243 52.1175 188.275 52.2062 188.341C52.631 188.78 53.0581 189.213 53.4922 189.64C53.577 189.727 53.6245 189.844 53.6245 189.966C53.6245 190.087 53.577 190.204 53.4922 190.291C53.4499 190.334 53.3994 190.368 53.3437 190.391C53.288 190.415 53.2282 190.426 53.1678 190.426V190.426ZM49.9937 187.103C49.9294 187.102 49.8659 187.088 49.8073 187.061C49.7486 187.035 49.6961 186.997 49.653 186.949C49.2422 186.492 48.8361 186.029 48.4347 185.561C48.3826 185.518 48.3407 185.463 48.3118 185.402C48.2829 185.34 48.2677 185.273 48.2674 185.206C48.2671 185.138 48.2816 185.071 48.3098 185.009C48.3381 184.947 48.3795 184.893 48.4312 184.848C48.4828 184.804 48.5435 184.772 48.6089 184.754C48.6743 184.736 48.7429 184.732 48.8099 184.743C48.8769 184.754 48.9407 184.78 48.9968 184.818C49.0529 184.856 49.1 184.906 49.1349 184.964C49.5316 185.43 49.9331 185.888 50.3391 186.335C50.3958 186.402 50.4325 186.484 50.4448 186.571C50.4571 186.658 50.4446 186.747 50.4088 186.827C50.3729 186.907 50.3152 186.975 50.2422 187.024C50.1692 187.073 50.0839 187.1 49.9961 187.103H49.9937ZM47.0227 183.604C46.9544 183.604 46.8869 183.588 46.8252 183.559C46.7635 183.529 46.7091 183.487 46.6656 183.434C46.2806 182.954 45.9001 182.471 45.5244 181.981C45.4728 181.884 45.4573 181.771 45.4809 181.663C45.5044 181.556 45.5653 181.46 45.6529 181.393C45.7404 181.326 45.8489 181.292 45.9591 181.297C46.0693 181.302 46.1741 181.346 46.2549 181.421C46.626 181.904 47.0017 182.385 47.3821 182.858C47.4566 182.954 47.4906 183.075 47.4771 183.196C47.4636 183.316 47.4036 183.427 47.3098 183.504C47.227 183.565 47.1257 183.597 47.0227 183.593V183.604ZM44.2478 179.931C44.1749 179.93 44.1032 179.913 44.0383 179.88C43.9735 179.846 43.9173 179.799 43.8743 179.74C43.5149 179.238 43.1625 178.735 42.8124 178.226C42.7666 178.126 42.7575 178.013 42.7868 177.907C42.8161 177.801 42.8819 177.709 42.9726 177.647C43.0633 177.585 43.1731 177.557 43.2825 177.567C43.392 177.578 43.4942 177.627 43.5709 177.706C43.9163 178.21 44.2664 178.709 44.6212 179.203C44.668 179.273 44.6954 179.353 44.7005 179.437C44.7056 179.52 44.6881 179.603 44.6499 179.678C44.6118 179.752 44.5543 179.815 44.4835 179.859C44.4128 179.904 44.3314 179.929 44.2478 179.931V179.931ZM41.6665 176.129C41.5896 176.129 41.514 176.11 41.4464 176.073C41.3789 176.036 41.3214 175.984 41.2791 175.92C40.9477 175.402 40.6186 174.879 40.2965 174.352C40.2511 174.301 40.2175 174.241 40.1979 174.175C40.1784 174.11 40.1736 174.041 40.1836 173.973C40.1937 173.906 40.2185 173.841 40.2563 173.785C40.294 173.728 40.3439 173.68 40.4022 173.644C40.4605 173.609 40.526 173.586 40.5939 173.579C40.6618 173.571 40.7306 173.579 40.7953 173.601C40.86 173.623 40.9191 173.658 40.9684 173.706C41.0177 173.753 41.0561 173.81 41.0807 173.874C41.3997 174.395 41.7241 174.911 42.0539 175.423C42.0943 175.492 42.1159 175.571 42.1166 175.652C42.1174 175.732 42.0973 175.812 42.0583 175.882C42.0193 175.953 41.9627 176.012 41.894 176.054C41.8254 176.096 41.747 176.12 41.6665 176.122V176.129ZM39.2836 172.2C39.2026 172.199 39.1231 172.177 39.0532 172.136C38.9832 172.095 38.9251 172.037 38.8845 171.966C38.5734 171.433 38.2723 170.895 37.9813 170.352C37.9468 170.249 37.9498 170.136 37.9901 170.034C38.0303 169.932 38.1051 169.848 38.2014 169.795C38.2977 169.743 38.4093 169.726 38.5167 169.748C38.6241 169.77 38.7204 169.828 38.7888 169.914C39.0829 170.448 39.3793 170.982 39.6827 171.512C39.7201 171.582 39.739 171.66 39.7375 171.74C39.736 171.819 39.7143 171.897 39.6743 171.966C39.6343 172.034 39.5775 172.092 39.5091 172.132C39.4407 172.173 39.3631 172.195 39.2836 172.197V172.2ZM37.1015 168.153C37.0169 168.152 36.9343 168.128 36.8624 168.084C36.7904 168.039 36.7319 167.976 36.693 167.901C36.413 167.351 36.1399 166.797 35.8739 166.241C35.8338 166.185 35.8065 166.122 35.7937 166.055C35.7809 165.988 35.783 165.919 35.7999 165.852C35.8167 165.786 35.8479 165.725 35.8912 165.672C35.9346 165.619 35.989 165.576 36.0506 165.547C36.1122 165.517 36.1796 165.502 36.2479 165.501C36.3163 165.5 36.3839 165.515 36.4461 165.543C36.5082 165.572 36.5634 165.613 36.6077 165.665C36.652 165.717 36.6843 165.778 36.7024 165.844C36.9661 166.395 37.2368 166.94 37.5122 167.477C37.5656 167.586 37.5742 167.712 37.5363 167.827C37.4984 167.942 37.4169 168.039 37.3092 168.095C37.2459 168.132 37.1747 168.153 37.1015 168.158V168.153ZM35.134 163.997C35.0449 163.997 34.9577 163.971 34.8829 163.922C34.808 163.874 34.7486 163.805 34.7116 163.724C34.4626 163.158 34.2191 162.591 33.9811 162.022C33.9446 161.964 33.9211 161.899 33.9123 161.832C33.9035 161.765 33.9096 161.696 33.9301 161.631C33.9506 161.566 33.9851 161.507 34.0311 161.457C34.077 161.406 34.1335 161.367 34.1963 161.341C34.2592 161.315 34.327 161.303 34.395 161.306C34.463 161.309 34.5296 161.326 34.59 161.358C34.6505 161.389 34.7033 161.433 34.7449 161.487C34.7864 161.541 34.8157 161.603 34.8306 161.669C35.064 162.232 35.2974 162.794 35.5541 163.353C35.601 163.465 35.6029 163.59 35.5594 163.702C35.5159 163.815 35.4303 163.907 35.3207 163.957C35.2625 163.986 35.1988 164.001 35.134 164.002V163.997Z" fill="#DA3318"/>
<path d="M65.2572 189.181C49.9937 180.377 37.5776 158.971 37.5776 141.47C37.5776 132.927 40.4926 126.544 45.7858 123.488C51.1256 120.407 58.2043 121.098 65.717 125.431C68.3634 126.979 70.8441 128.793 73.12 130.847L72.5062 131.532C70.2777 129.521 67.8486 127.743 65.2572 126.226C58.0409 122.066 51.2913 121.373 46.2455 124.284C41.2487 127.166 38.4971 133.27 38.4971 141.47C38.4971 158.68 50.7079 179.719 65.717 188.386L65.2572 189.181Z" fill="#DA3318"/>
<path d="M67.339 189.745C67.2947 190.643 66.6785 191.035 65.9597 190.62C65.2409 190.205 64.6948 189.143 64.7391 188.246C64.7834 187.348 65.3972 186.956 66.1161 187.371C66.8349 187.786 67.381 188.847 67.339 189.745Z" fill="#E94880"/>
<path d="M74.1282 132.213L70.0649 131.199C69.9616 131.155 69.8775 131.076 69.8279 130.975C69.7783 130.875 69.7666 130.76 69.795 130.651C69.8233 130.543 69.8898 130.448 69.9822 130.385C70.0746 130.321 70.1869 130.293 70.2983 130.306L72.6719 130.9L71.8153 128.622C71.7917 128.512 71.808 128.398 71.8614 128.3C71.9148 128.202 72.0018 128.126 72.1064 128.087C72.211 128.047 72.3263 128.046 72.4314 128.085C72.5364 128.123 72.6243 128.198 72.6789 128.295L74.1282 132.213Z" fill="#DA3318"/>
<defs>
<linearGradient id="paint0_linear" x1="254.803" y1="112.696" x2="96.3949" y2="112.696" gradientUnits="userSpaceOnUse">
<stop stop-color="#45B69C"/>
<stop offset="0.12" stop-color="#3C9795"/>
<stop offset="0.26" stop-color="#33798F"/>
<stop offset="0.41" stop-color="#2C638A"/>
<stop offset="0.57" stop-color="#285387"/>
<stop offset="0.76" stop-color="#254985"/>
<stop offset="1" stop-color="#244684"/>
</linearGradient>
<linearGradient id="paint1_linear" x1="-29938.9" y1="6987.6" x2="93073.5" y2="6987.6" gradientUnits="userSpaceOnUse">
<stop stop-color="#45B69C"/>
<stop offset="0.12" stop-color="#3C9795"/>
<stop offset="0.26" stop-color="#33798F"/>
<stop offset="0.41" stop-color="#2C638A"/>
<stop offset="0.57" stop-color="#285387"/>
<stop offset="0.76" stop-color="#254985"/>
<stop offset="1" stop-color="#244684"/>
</linearGradient>
<linearGradient id="paint2_linear" x1="-21092.1" y1="13824.9" x2="101920" y2="13824.9" gradientUnits="userSpaceOnUse">
<stop stop-color="#45B69C"/>
<stop offset="0.12" stop-color="#3C9795"/>
<stop offset="0.26" stop-color="#33798F"/>
<stop offset="0.41" stop-color="#2C638A"/>
<stop offset="0.57" stop-color="#285387"/>
<stop offset="0.76" stop-color="#254985"/>
<stop offset="1" stop-color="#244684"/>
</linearGradient>
<linearGradient id="paint3_linear" x1="220.874" y1="134.05" x2="62.4679" y2="134.05" gradientUnits="userSpaceOnUse">
<stop stop-color="#515DA7"/>
<stop offset="0.17" stop-color="#5661AA"/>
<stop offset="0.38" stop-color="#646EB1"/>
<stop offset="0.59" stop-color="#7C83BD"/>
<stop offset="0.82" stop-color="#9DA0CF"/>
<stop offset="1" stop-color="#BCBCDF"/>
</linearGradient>
<radialGradient id="paint4_radial" cx="0" cy="0" r="1" gradientUnits="userSpaceOnUse" gradientTransform="translate(183.752 86.9302) rotate(180) scale(75.2158 75.1639)">
<stop stop-color="#2E2B76"/>
<stop offset="1" stop-color="#262554"/>
</radialGradient>
<linearGradient id="paint5_linear" x1="220.807" y1="110.542" x2="39.5637" y2="110.542" gradientUnits="userSpaceOnUse">
<stop stop-color="#147DB8"/>
<stop offset="0.11" stop-color="#1980B9"/>
<stop offset="0.24" stop-color="#2788BE"/>
<stop offset="0.38" stop-color="#3F95C5"/>
<stop offset="0.53" stop-color="#60A7CF"/>
<stop offset="0.68" stop-color="#8BBFDC"/>
<stop offset="0.83" stop-color="#BFDCEC"/>
<stop offset="0.99" stop-color="#FCFDFE"/>
<stop offset="1" stop-color="white"/>
</linearGradient>
<linearGradient id="paint6_linear" x1="190.17" y1="151.635" x2="31.7612" y2="151.635" gradientUnits="userSpaceOnUse">
<stop stop-color="#76B5E4"/>
<stop offset="0.17" stop-color="#7BB7E5"/>
<stop offset="0.36" stop-color="#89BEE7"/>
<stop offset="0.57" stop-color="#A1C8EB"/>
<stop offset="0.79" stop-color="#C2D7F0"/>
<stop offset="1" stop-color="#E9E8F6"/>
</linearGradient>
</defs>
</svg>
