<svg width="20" height="21" viewBox="0 0 20 21" fill="none" xmlns="http://www.w3.org/2000/svg">
<path fill-rule="evenodd" clip-rule="evenodd" d="M9.37723 15.6924C9.17586 15.6088 8.99294 15.4864 8.83894 15.3321L3.19599 9.66417C3.04168 9.51017 2.91925 9.32725 2.83572 9.12588C2.75219 8.92451 2.70919 8.70864 2.70919 8.49063C2.70919 8.27263 2.75219 8.05676 2.83572 7.85539C2.91925 7.65402 3.04168 7.4711 3.19599 7.3171C3.34999 7.16279 3.53291 7.04036 3.73428 6.95683C3.93565 6.8733 4.15152 6.8303 4.36953 6.8303C4.58753 6.8303 4.8034 6.8733 5.00477 6.95683C5.20614 7.04036 5.38906 7.16279 5.54306 7.3171L8.33956 10.1386V2.64794C8.33956 2.20426 8.51582 1.77874 8.82955 1.46501C9.14328 1.15128 9.56879 0.97503 10.0125 0.97503C10.4562 0.97503 10.8817 1.15128 11.1954 1.46501C11.5091 1.77874 11.6854 2.20426 11.6854 2.64794V10.1386L14.4819 7.34207C14.6359 7.18776 14.8188 7.06533 15.0202 6.9818C15.2215 6.89827 15.4374 6.85527 15.6554 6.85527C15.8734 6.85527 16.0893 6.89827 16.2907 6.9818C16.492 7.06533 16.675 7.18776 16.829 7.34207C16.9833 7.49607 17.1057 7.67899 17.1892 7.88036C17.2728 8.08173 17.3158 8.2976 17.3158 8.5156C17.3158 8.73361 17.2728 8.94948 17.1892 9.15085C17.1057 9.35222 16.9833 9.53514 16.829 9.68914L11.186 15.3321C11.032 15.4864 10.8491 15.6088 10.6477 15.6924C10.4463 15.7759 10.2305 15.8189 10.0125 15.8189C9.79447 15.8189 9.5786 15.7759 9.37723 15.6924ZM18.377 14.2472C18.5195 14.1883 18.6723 14.1582 18.8265 14.1585C18.9807 14.1582 19.1334 14.1883 19.2759 14.2472C19.4185 14.3061 19.548 14.3925 19.657 14.5015C19.7661 14.6106 19.8525 14.7401 19.9113 14.8826C19.9702 15.0251 20.0003 15.1779 20 15.3321V17.1298C19.9941 18.1455 19.5862 19.1175 18.8657 19.8334C18.1452 20.5493 17.1705 20.9507 16.1548 20.9501H3.84519C2.83208 20.9423 1.86229 20.5381 1.14356 19.8241C0.424831 19.11 0.014332 18.1429 0 17.1298V15.3321C0 15.0208 0.12364 14.7223 0.34372 14.5023C0.5638 14.2822 0.862293 14.1585 1.17353 14.1585C1.48477 14.1585 1.78327 14.2822 2.00335 14.5023C2.22343 14.7223 2.34707 15.0208 2.34707 15.3321V17.1298C2.34707 17.5272 2.5049 17.9082 2.78586 18.1892C3.06681 18.4701 3.44787 18.628 3.84519 18.628H16.1548C16.5521 18.628 16.9332 18.4701 17.2141 18.1892C17.4951 17.9082 17.6529 17.5272 17.6529 17.1298V15.3321C17.6526 15.1779 17.6827 15.0251 17.7416 14.8826C17.8004 14.7401 17.8869 14.6106 17.9959 14.5015C18.105 14.3925 18.2345 14.3061 18.377 14.2472Z" fill="#13274B"/>
</svg>
