<?xml version="1.0" encoding="iso-8859-1"?>
<!-- Generator: Adobe Illustrator 19.0.0, SVG Export Plug-In . SVG Version: 6.00 Build 0)  -->
<svg version="1.1" id="Capa_1" xmlns="http://www.w3.org/2000/svg" xmlns:xlink="http://www.w3.org/1999/xlink" x="0px" y="0px"
	 viewBox="0 0 481.178 481.178" style="enable-background:new 0 0 481.178 481.178;" xml:space="preserve">
<g>
	<g>
		<path style="fill:#D4E1F4;" d="M257.836,80.457l3.657-6.269l-13.584-19.331l22.465-22.465l19.331,13.584
			c9.771-6.084,20.572-10.334,31.869-12.539l3.657-23.51h31.347l4.18,23.51c11.107,2.298,21.719,6.543,31.347,12.539l19.331-13.584
			l22.465,21.943l-13.584,19.331c5.944,9.9,10.348,20.646,13.061,31.869l22.988,4.18v31.347l-23.51,3.657
			c-2.152,11.398-6.595,22.24-13.061,31.869l14.106,19.331l-22.465,22.465L392.105,204.8c-9.601,6.16-20.212,10.581-31.347,13.061
			l-4.18,22.988h-31.347l-3.657-22.988c-5.393-0.94-10.654-2.518-15.673-4.702c-5.703-2.151-11.138-4.956-16.196-8.359
			l-19.331,13.584l-22.465-22.465l13.584-19.331c-6.034-9.667-10.446-20.256-13.061-31.347l-22.988-4.18v-31.347l22.988-3.657
			C250.374,97.132,253.538,88.517,257.836,80.457z M381.656,125.388c0-22.506-18.245-40.751-40.751-40.751
			s-40.751,18.245-40.751,40.751c0,22.506,18.245,40.751,40.751,40.751S381.656,147.894,381.656,125.388L381.656,125.388z"/>
		<g>
			<path style="fill:#00EFD1;" d="M305.901,213.159l-1.045,2.612l-57.992,58.514V431.02l-79.935,39.706V274.286L24.823,129.567
				v-3.135h200.62v14.629l22.988,4.18c2.615,11.091,7.027,21.68,13.061,31.347l-13.584,19.331l22.465,22.465l19.331-13.584
				C294.763,208.203,300.198,211.008,305.901,213.159z"/>
			<path style="fill:#00EFD1;" d="M24.823,80.457h233.012c-4.298,8.06-7.462,16.675-9.404,25.6l-22.988,3.657v16.718H24.823V80.457z
				"/>
		</g>
	</g>
	<g>
		<path style="fill:#083863;" d="M465.248,149.943v-49.11l-24.555-4.18c-2.007-7.756-4.808-15.284-8.359-22.465l15.151-20.898
			l-35.004-34.482l-20.898,14.629c-6.962-3.636-14.327-6.441-21.943-8.359L365.46,0h-49.11l-4.18,25.078
			c-7.712,1.862-15.106,4.855-21.943,8.882L269.33,18.808l-35.004,33.959l11.494,15.151H24.823c-5.747,0-8.882,6.792-8.882,12.539
			v49.11c-0.114,2.6,0.619,5.167,2.09,7.314l138.971,141.584v192.261c-0.053,3.569,1.72,6.919,4.702,8.882
			c1.723,1.069,3.72,1.614,5.747,1.567l4.18-1.045l79.412-39.706c3.345-1.929,5.354-5.545,5.225-9.404V278.465l52.767-52.767h2.612
			l4.702,25.078h49.11l4.18-25.078c7.682-1.956,15.063-4.944,21.943-8.882l20.898,15.151l35.004-35.004l-15.151-20.898
			c3.549-7.001,6.351-14.355,8.359-21.943L465.248,149.943z M242.162,88.816c-0.468,2.328-1.168,4.603-2.09,6.792l-25.6,5.224
			v14.106H36.84V88.816H242.162z M239.028,266.971c-2.116,1.876-3.426,4.496-3.657,7.314v149.943l-57.469,29.78V274.286
			c0.089-2.782-1.059-5.46-3.135-7.314L46.244,135.837h168.229v14.106l25.6,4.18c2.093,7.636,5.074,15.001,8.882,21.943
			l-14.629,21.42l35.004,34.482l15.151-10.971L239.028,266.971z M423.452,135.837l-1.045,6.792
			c-1.949,10.065-5.854,19.651-11.494,28.212l-3.657,5.747l13.061,18.286l-9.927,9.927l-17.763-12.539l-5.747,3.657
			c-8.837,5.474-18.561,9.363-28.735,11.494l-6.792,1.045l-3.657,21.42h-13.584l-3.657-21.42l-6.792-1.045
			c-4.85-0.835-9.584-2.238-14.106-4.18c-5.005-1.803-9.749-4.262-14.106-7.314l-6.269-3.657L271.419,204.8l-9.927-9.927
			l12.539-17.763l-3.657-5.747c-5.373-8.7-9.258-18.234-11.494-28.212l-1.567-7.314l-21.943-3.657v-13.584l21.943-3.657l1.567-6.792
			c1.532-8.062,4.354-15.825,8.359-22.988l3.135-5.224l3.657-6.269l-12.539-17.763l9.927-9.927l17.763,12.539l6.269-3.657
			c8.61-5.548,18.177-9.446,28.212-11.494l6.792-1.045l3.657-21.42h13.584l3.657,21.42l6.792,1.045
			c10.022,2.093,19.581,5.988,28.212,11.494l6.269,4.18l17.763-13.061l9.927,9.927l-12.539,17.763l3.657,5.747
			c5.548,8.61,9.446,18.177,11.494,28.212v7.314l20.898,3.657v13.584L423.452,135.837z"/>
		<path style="fill:#083863;" d="M340.905,176.588c-28.277,0-51.2-22.923-51.2-51.2c0-28.277,22.923-51.2,51.2-51.2
			c28.277,0,51.2,22.923,51.2,51.2S369.182,176.588,340.905,176.588L340.905,176.588z M340.905,95.086
			c-16.735,0-30.302,13.567-30.302,30.302c0,16.735,13.567,30.302,30.302,30.302c16.735,0,30.302-13.567,30.302-30.302
			S357.64,95.086,340.905,95.086C340.905,95.086,340.905,95.086,340.905,95.086z"/>
	</g>
</g>
<g>
</g>
<g>
</g>
<g>
</g>
<g>
</g>
<g>
</g>
<g>
</g>
<g>
</g>
<g>
</g>
<g>
</g>
<g>
</g>
<g>
</g>
<g>
</g>
<g>
</g>
<g>
</g>
<g>
</g>
</svg>
