<svg width="220" height="220" viewBox="0 0 220 220" fill="none" xmlns="http://www.w3.org/2000/svg">
<g filter="url(#filter0_d)">
<g filter="url(#filter1_d)">
<path fill-rule="evenodd" clip-rule="evenodd" d="M190.366 106.666C190.366 152.54 153.137 189.728 107.213 189.728C61.2886 189.728 24.0596 152.54 24.0596 106.666C24.0596 60.7925 61.2886 23.6046 107.213 23.6046C153.137 23.6046 190.366 60.7925 190.366 106.666ZM129.067 113.887C128.38 112.207 127.204 110.771 125.691 109.765C124.178 108.759 122.398 108.228 120.58 108.242H111.284C110.66 108.243 110.042 108.121 109.465 107.884C108.889 107.646 108.365 107.297 107.923 106.857C107.482 106.417 107.132 105.894 106.894 105.319C106.656 104.743 106.534 104.127 106.535 103.504V103.101C106.391 97.0498 108.355 91.136 112.092 86.3682C113.556 84.6257 114.63 82.5907 115.24 80.4C115.849 78.2093 115.982 75.9137 115.629 73.6675C115.017 69.6218 112.895 65.9562 109.689 63.4055C106.482 60.8548 102.427 59.6075 98.3378 59.9135C94.2481 60.2195 90.4255 62.0562 87.6361 65.0556C84.8467 68.0549 83.2967 71.9952 83.2967 76.0867C83.2714 79.6277 84.4464 83.0733 86.6309 85.8642C90.3662 90.5429 92.4603 96.3147 92.5922 102.295V103.403C92.5935 104.026 92.4716 104.643 92.2334 105.218C91.9952 105.793 91.6455 106.316 91.2042 106.756C90.763 107.196 90.239 107.545 89.6622 107.783C89.0855 108.021 88.4674 108.142 87.8434 108.141H78.5479C76.1118 108.149 73.7778 109.118 72.0553 110.836C70.3327 112.555 69.3614 114.883 69.3535 117.314V127.091H108.455C110.362 123.228 113.29 119.958 116.921 117.631C120.553 115.304 124.752 114.01 129.067 113.887ZM73.1928 133.24V139.288C73.2007 139.927 73.4587 140.538 73.9118 140.99C74.3648 141.442 74.9771 141.699 75.6178 141.707H106.535C106.301 140.307 106.166 138.892 106.131 137.473C106.111 136.052 106.246 134.632 106.535 133.24H73.1928ZM119.614 122.203C122.621 120.198 126.157 119.128 129.774 119.128C132.176 119.128 134.554 119.6 136.773 120.517C138.991 121.434 141.007 122.778 142.706 124.472C144.404 126.166 145.751 128.177 146.67 130.391C147.589 132.604 148.062 134.977 148.062 137.373C148.062 140.981 146.989 144.509 144.98 147.509C142.97 150.509 140.114 152.848 136.773 154.229C133.431 155.61 129.754 155.971 126.206 155.267C122.659 154.563 119.4 152.825 116.843 150.274C114.285 147.722 112.543 144.471 111.838 140.932C111.132 137.393 111.494 133.725 112.878 130.391C114.263 127.057 116.607 124.208 119.614 122.203ZM139.979 129.732C139.478 129.248 138.807 128.978 138.11 128.978C137.412 128.978 136.742 129.248 136.24 129.732L126.48 139.48L123.358 135.891C122.857 135.407 122.187 135.136 121.489 135.136C120.791 135.136 120.121 135.407 119.62 135.891C119.127 136.407 118.839 137.084 118.811 137.796C118.818 138.519 119.108 139.21 119.62 139.721L124.389 145.104C124.654 145.363 124.971 145.564 125.319 145.692C125.667 145.821 126.039 145.875 126.409 145.85H126.541C127.263 145.84 127.953 145.547 128.461 145.034L139.979 133.442C140.456 132.941 140.722 132.277 140.722 131.587C140.722 130.897 140.456 130.233 139.979 129.732Z" fill="url(#paint0_linear)"/>
</g>
<path d="M8.56624 115.09C8.88576 115.09 9.19211 115.217 9.41805 115.443C9.64399 115.668 9.77101 115.975 9.77101 116.294C9.77101 116.613 9.64399 116.919 9.41805 117.145C9.19211 117.371 8.88576 117.498 8.56624 117.498C8.25015 117.532 7.9334 117.439 7.68516 117.241C7.43693 117.042 7.27736 116.754 7.24102 116.438C7.21812 116.258 7.23642 116.075 7.29456 115.902C7.35269 115.73 7.4491 115.573 7.57663 115.443C7.70416 115.314 7.85938 115.214 8.03077 115.153C8.20217 115.092 8.3853 115.07 8.56624 115.09Z" fill="#24C4A1"/>
<path d="M9.86739 124.718H10.1083C10.4278 124.689 10.7457 124.788 10.992 124.994C11.2383 125.199 11.3929 125.494 11.4216 125.813C11.4504 126.132 11.351 126.449 11.1454 126.695C10.9398 126.941 10.6447 127.095 10.3252 127.124C10.0122 127.18 9.6896 127.111 9.4278 126.93C9.166 126.75 8.9862 126.474 8.92762 126.162C8.86314 125.846 8.92564 125.518 9.10145 125.248C9.27727 124.977 9.55234 124.787 9.86739 124.718Z" fill="#24C4A1"/>
<path d="M9.09639 119.904H9.2892C9.58014 119.929 9.8502 120.065 10.0431 120.284C10.2359 120.503 10.3367 120.788 10.3243 121.079C10.3118 121.371 10.1871 121.646 9.9763 121.848C9.76547 122.049 9.48487 122.162 9.19287 122.162C8.90087 122.162 8.62012 122.049 8.40929 121.848C8.19846 121.646 8.07377 121.371 8.06133 121.079C8.04889 120.788 8.14965 120.503 8.34252 120.284C8.5354 120.065 8.80545 119.929 9.09639 119.904Z" fill="#24C4A1"/>
<path d="M8.27704 110.276C8.58442 110.276 8.88032 110.393 9.10429 110.603C9.32826 110.813 9.46337 111.101 9.48181 111.408C9.48181 111.727 9.35479 112.034 9.12885 112.259C8.90291 112.485 8.59656 112.612 8.27704 112.612C7.95751 112.612 7.65102 112.485 7.42508 112.259C7.19914 112.034 7.07227 111.727 7.07227 111.408C7.09071 111.101 7.22567 110.813 7.44964 110.603C7.67361 110.393 7.96965 110.276 8.27704 110.276Z" fill="#24C4A1"/>
<path d="M9.4577 91.0214C9.61442 91.0449 9.76494 91.0991 9.90067 91.1808C10.0364 91.2626 10.1546 91.3703 10.2486 91.4978C10.3426 91.6253 10.4106 91.77 10.4485 91.9238C10.4864 92.0775 10.4936 92.2372 10.4697 92.3938C10.4459 92.5519 10.3912 92.7037 10.3088 92.8407C10.2263 92.9777 10.1177 93.0971 9.98905 93.1921C9.8604 93.2871 9.71428 93.3559 9.55903 93.3945C9.40378 93.4331 9.24236 93.4407 9.08415 93.417C8.92594 93.3933 8.77401 93.3387 8.63692 93.2563C8.49983 93.1739 8.38038 93.0653 8.28528 92.9367C8.19019 92.8082 8.12125 92.6622 8.08263 92.5071C8.04401 92.3519 8.03639 92.1907 8.06013 92.0326C8.10046 91.7475 8.24176 91.4862 8.45838 91.2963C8.67501 91.1063 8.95258 91.0002 9.24078 90.9973L9.4577 91.0214Z" fill="#24C4A1"/>
<path d="M8.20477 107.87C8.87015 107.87 9.40954 107.331 9.40954 106.666C9.40954 106.002 8.87015 105.463 8.20477 105.463C7.53939 105.463 7 106.002 7 106.666C7 107.331 7.53939 107.87 8.20477 107.87Z" fill="#24C4A1"/>
<path d="M8.80708 95.835C8.96243 95.85 9.11334 95.8957 9.25092 95.9693C9.38851 96.043 9.50999 96.1432 9.60858 96.2641C9.70718 96.385 9.78082 96.5242 9.82521 96.6738C9.86961 96.8233 9.88392 96.9801 9.86727 97.1352C9.85222 97.2936 9.80586 97.4475 9.73094 97.5879C9.65603 97.7283 9.55402 97.8524 9.43078 97.9532C9.30755 98.054 9.16552 98.1293 9.01297 98.1749C8.86042 98.2205 8.70042 98.2354 8.54207 98.2188C8.38355 98.2037 8.2296 98.1574 8.0891 98.0826C7.9486 98.0077 7.82433 97.9057 7.7235 97.7826C7.62267 97.6594 7.54734 97.5175 7.50172 97.3651C7.45611 97.2126 7.44112 97.0527 7.45775 96.8944C7.4922 96.6025 7.63024 96.3326 7.84689 96.1338C8.06354 95.935 8.3444 95.8204 8.63839 95.8109L8.80708 95.835Z" fill="#24C4A1"/>
<path d="M8.32536 100.648C8.64279 100.673 8.93828 100.82 9.14953 101.058C9.36078 101.296 9.47138 101.607 9.45793 101.925C9.45181 102.082 9.41428 102.236 9.34763 102.379C9.28098 102.521 9.18655 102.649 9.06982 102.754C8.95309 102.86 8.81641 102.941 8.66788 102.993C8.51936 103.045 8.36196 103.066 8.20491 103.056C8.04666 103.05 7.89119 103.013 7.74738 102.947C7.60357 102.88 7.47419 102.786 7.36677 102.67C7.25935 102.554 7.17596 102.417 7.12131 102.269C7.06666 102.12 7.04191 101.962 7.04837 101.804C7.05449 101.644 7.09257 101.486 7.16043 101.341C7.22829 101.196 7.32457 101.065 7.44354 100.958C7.56251 100.85 7.70182 100.767 7.85327 100.714C8.00472 100.661 8.16515 100.639 8.32536 100.648Z" fill="#24C4A1"/>
<path d="M19.2887 152.204C19.4788 152.159 19.6768 152.159 19.867 152.204C20.0842 152.201 20.2982 152.257 20.4852 152.368C20.6723 152.478 20.8252 152.638 20.9271 152.83C21.0026 152.971 21.0493 153.125 21.0647 153.283C21.08 153.442 21.0636 153.602 21.0166 153.755C20.9695 153.907 20.8926 154.048 20.7904 154.171C20.6882 154.293 20.5626 154.394 20.4211 154.468C20.2823 154.543 20.13 154.589 19.973 154.604C19.816 154.619 19.6576 154.602 19.5071 154.555C19.3566 154.508 19.2172 154.431 19.0969 154.33C18.9766 154.228 18.878 154.103 18.8068 153.962C18.7142 153.817 18.653 153.655 18.6272 153.485C18.6014 153.315 18.6115 153.142 18.6569 152.976C18.7023 152.81 18.7821 152.656 18.8909 152.523C18.9997 152.39 19.1353 152.281 19.2887 152.204Z" fill="#24C4A1"/>
<path d="M21.6499 156.465C21.8309 156.353 22.0397 156.295 22.2523 156.296C22.4598 156.297 22.6635 156.351 22.8447 156.452C23.0259 156.553 23.1786 156.698 23.2884 156.874C23.3715 157.01 23.4269 157.161 23.4512 157.318C23.4756 157.475 23.4684 157.636 23.4303 157.79C23.3923 157.945 23.324 158.09 23.2293 158.218C23.1346 158.346 23.0155 158.454 22.8788 158.536C22.6 158.695 22.2698 158.738 21.9591 158.657C21.6483 158.576 21.3817 158.377 21.2162 158.102C21.0644 157.826 21.0246 157.502 21.1054 157.197C21.1861 156.892 21.3811 156.63 21.6499 156.465Z" fill="#24C4A1"/>
<path d="M17.1684 147.848C17.3353 147.813 17.5074 147.813 17.6743 147.848C17.9586 147.91 18.21 148.075 18.3799 148.311C18.5499 148.547 18.6265 148.838 18.5951 149.127C18.5637 149.416 18.4266 149.683 18.2099 149.877C17.9933 150.072 17.7125 150.179 17.4214 150.179C17.1302 150.179 16.8494 150.072 16.6328 149.877C16.4161 149.683 16.279 149.416 16.2476 149.127C16.2162 148.838 16.2928 148.547 16.4628 148.311C16.6327 148.075 16.8841 147.91 17.1684 147.848Z" fill="#24C4A1"/>
<path d="M10.8794 129.531H11.1685C11.4366 129.53 11.6973 129.62 11.9075 129.786C12.1177 129.952 12.265 130.185 12.3252 130.446C12.365 130.6 12.3741 130.759 12.3521 130.916C12.33 131.073 12.2771 131.224 12.1965 131.361C12.1159 131.497 12.0093 131.616 11.8825 131.711C11.7557 131.807 11.6114 131.876 11.4578 131.915C11.1449 131.988 10.8157 131.936 10.541 131.769C10.2662 131.603 10.0676 131.335 9.98783 131.024C9.94103 130.868 9.92732 130.703 9.94753 130.541C9.96775 130.379 10.0215 130.222 10.1053 130.082C10.1892 129.942 10.3012 129.82 10.4345 129.725C10.5677 129.631 10.7192 129.565 10.8794 129.531Z" fill="#24C4A1"/>
<path d="M15.2406 143.395C15.3994 143.361 15.5637 143.361 15.7225 143.395C15.9597 143.399 16.1904 143.472 16.3871 143.604C16.5838 143.737 16.738 143.923 16.831 144.142C16.9209 144.361 16.9439 144.602 16.8971 144.835C16.8504 145.068 16.7359 145.281 16.568 145.449C16.4002 145.617 16.1865 145.731 15.9537 145.778C15.721 145.825 15.4796 145.802 15.2598 145.712C15.0401 145.622 14.8518 145.47 14.7186 145.273C14.5855 145.077 14.5133 144.845 14.5113 144.608C14.5092 144.371 14.5774 144.138 14.7072 143.94C14.8369 143.741 15.0224 143.585 15.2406 143.491V143.395Z" fill="#24C4A1"/>
<path d="M12.1081 134.345C12.2194 134.322 12.3342 134.322 12.4455 134.345C12.7052 134.349 12.957 134.434 13.1648 134.59C13.3726 134.746 13.5257 134.964 13.602 135.212C13.6925 135.515 13.6598 135.842 13.511 136.121C13.3622 136.401 13.1093 136.61 12.807 136.705C12.4875 136.798 12.1441 136.759 11.8527 136.599C11.5612 136.439 11.3455 136.169 11.2528 135.85C11.1601 135.531 11.1981 135.188 11.3585 134.896C11.5189 134.605 11.7886 134.389 12.1081 134.297V134.345Z" fill="#24C4A1"/>
<path d="M13.578 138.846C13.7055 138.823 13.8362 138.823 13.9636 138.846C14.2832 138.792 14.6111 138.867 14.8755 139.054C15.1398 139.241 15.319 139.526 15.3733 139.845C15.4276 140.165 15.3527 140.492 15.1652 140.757C14.9776 141.021 14.6927 141.2 14.3732 141.254C14.0729 141.362 13.7417 141.347 13.4526 141.212C13.1634 141.076 12.9398 140.832 12.8311 140.532C12.7538 140.374 12.7121 140.201 12.7087 140.025C12.7054 139.85 12.7405 139.676 12.8117 139.515C12.8828 139.354 12.9884 139.211 13.1208 139.096C13.2532 138.98 13.4092 138.895 13.578 138.846Z" fill="#24C4A1"/>
<path d="M27.0475 48.7336C26.9191 48.6405 26.8103 48.523 26.7275 48.3878C26.6446 48.2526 26.5893 48.1023 26.5647 47.9457C26.54 47.7891 26.5466 47.6291 26.5839 47.475C26.6213 47.3209 26.6888 47.1757 26.7825 47.0477C26.896 46.8995 27.0417 46.7791 27.2087 46.6957C27.3757 46.6122 27.5595 46.5679 27.7462 46.5661C28.0078 46.5605 28.2633 46.6456 28.4692 46.8069C28.7248 46.9985 28.8937 47.2838 28.9389 47.5999C28.9841 47.9161 28.9018 48.2373 28.7101 48.4928C28.6195 48.6212 28.5036 48.7298 28.3696 48.812C28.2356 48.8942 28.0862 48.9482 27.9306 48.9708C27.775 48.9933 27.6164 48.9839 27.4646 48.9431C27.3127 48.9024 27.1708 48.8311 27.0475 48.7336Z" fill="#24C4A1"/>
<path d="M30.6618 168.186C30.837 168.186 31.0101 168.225 31.1685 168.3C31.3268 168.375 31.4666 168.484 31.5775 168.619C31.7296 168.803 31.8237 169.028 31.8476 169.266C31.8716 169.503 31.8244 169.742 31.712 169.953C31.5997 170.164 31.4272 170.336 31.2165 170.448C31.0059 170.561 30.7666 170.608 30.529 170.585C30.2914 170.561 30.0662 170.467 29.882 170.315C29.6979 170.163 29.5629 169.96 29.4945 169.731C29.4261 169.503 29.4274 169.259 29.4979 169.031C29.5684 168.803 29.7051 168.601 29.8907 168.451C30.1047 168.268 30.3804 168.173 30.6618 168.186Z" fill="#24C4A1"/>
<path d="M27.6496 164.359C27.855 164.359 28.0569 164.411 28.2363 164.511C28.4156 164.611 28.5666 164.755 28.6745 164.93C28.7825 165.104 28.844 165.303 28.8532 165.509C28.8624 165.714 28.819 165.917 28.7272 166.101C28.6353 166.285 28.4981 166.442 28.3285 166.557C28.1588 166.673 27.9624 166.743 27.7579 166.762C27.5533 166.78 27.3474 166.746 27.1597 166.663C26.9721 166.579 26.809 166.449 26.6857 166.285C26.5921 166.157 26.5247 166.012 26.4874 165.858C26.45 165.704 26.4433 165.544 26.4679 165.387C26.4926 165.231 26.5479 165.08 26.6307 164.945C26.7136 164.81 26.8225 164.693 26.9509 164.599C27.1494 164.442 27.396 164.357 27.6496 164.359Z" fill="#24C4A1"/>
<path d="M25.891 52.5114C25.7063 52.7731 25.4264 52.9523 25.1113 53.0107C24.7962 53.0692 24.4708 53.0024 24.2043 52.8245C23.9951 52.6786 23.8376 52.47 23.7546 52.229C23.6715 51.9879 23.6672 51.7267 23.7422 51.483C23.8173 51.2393 23.9678 51.0257 24.1721 50.873C24.3764 50.7203 24.6238 50.6363 24.8789 50.6332C25.1183 50.6261 25.3542 50.6934 25.5537 50.8258C25.8178 51.0024 26.0014 51.276 26.0646 51.5872C26.1278 51.8984 26.0654 52.2219 25.891 52.4873V52.5114Z" fill="#24C4A1"/>
<path d="M33.0471 41.1747C32.8796 41.0061 32.7659 40.7916 32.7202 40.5585C32.6745 40.3253 32.699 40.0839 32.7905 39.8645C32.8819 39.6452 33.0363 39.4579 33.2342 39.3261C33.4321 39.1943 33.6646 39.124 33.9024 39.124C34.1403 39.124 34.3729 39.1943 34.5708 39.3261C34.7687 39.4579 34.9231 39.6452 35.0145 39.8645C35.106 40.0839 35.1305 40.3253 35.0848 40.5585C35.0391 40.7916 34.9254 41.0061 34.7579 41.1747C34.5286 41.3968 34.2217 41.5209 33.9024 41.5209C33.5831 41.5209 33.2764 41.3968 33.0471 41.1747Z" fill="#24C4A1"/>
<path d="M24.8547 160.388C25.0534 160.39 25.2487 160.438 25.4246 160.531C25.6006 160.623 25.7521 160.755 25.8667 160.917C26.0423 161.187 26.1053 161.514 26.0423 161.829C25.9792 162.144 25.7951 162.422 25.5293 162.603C25.2641 162.782 24.9388 162.848 24.6247 162.787C24.3107 162.726 24.0336 162.543 23.8547 162.278C23.6758 162.013 23.6096 161.688 23.6706 161.374C23.7316 161.06 23.9148 160.783 24.18 160.604C24.3787 160.468 24.6134 160.392 24.8547 160.388Z" fill="#24C4A1"/>
<path d="M33.8182 171.844C33.985 171.846 34.1497 171.881 34.3028 171.947C34.4559 172.013 34.5943 172.109 34.7097 172.23C34.8806 172.397 34.9978 172.612 35.0462 172.846C35.0946 173.08 35.0723 173.323 34.9818 173.545C34.8913 173.766 34.7369 173.956 34.5382 174.089C34.3396 174.222 34.1058 174.293 33.8664 174.293C33.6271 174.293 33.3931 174.222 33.1945 174.089C32.9959 173.956 32.8416 173.766 32.7511 173.545C32.6606 173.323 32.6381 173.08 32.6865 172.846C32.735 172.612 32.8521 172.397 33.023 172.23C33.122 172.114 33.2438 172.021 33.3805 171.954C33.5173 171.888 33.6663 171.851 33.8182 171.844Z" fill="#24C4A1"/>
<path d="M29.9148 44.8819C29.6686 44.6756 29.513 44.3811 29.4815 44.0616C29.45 43.7421 29.545 43.4229 29.7461 43.1726C29.8607 43.0351 30.0044 42.9249 30.167 42.8499C30.3296 42.775 30.5068 42.7371 30.6859 42.7392C30.9618 42.7414 31.2274 42.8441 31.4328 43.0281C31.5567 43.1262 31.6595 43.2482 31.7353 43.3869C31.8111 43.5255 31.8583 43.6779 31.874 43.8351C31.8898 43.9922 31.8738 44.151 31.827 44.3018C31.7801 44.4527 31.7035 44.5926 31.6015 44.7133C31.3993 44.9578 31.1086 45.1125 30.7928 45.1441C30.477 45.1757 30.1615 45.0814 29.9148 44.8819Z" fill="#24C4A1"/>
<path d="M18.7829 64.907C18.6455 65.1975 18.3982 65.4216 18.0955 65.5299C17.7927 65.6383 17.4593 65.622 17.1685 65.4847C16.8777 65.3475 16.6534 65.1004 16.5449 64.7979C16.4365 64.4955 16.4527 64.1623 16.5901 63.8718C16.6883 63.6665 16.8417 63.4925 17.0332 63.3692C17.2247 63.2459 17.4467 63.1782 17.6744 63.1737C17.8492 63.1373 18.0298 63.1373 18.2046 63.1737C18.3654 63.2392 18.5102 63.3388 18.6289 63.4654C18.7476 63.5921 18.8375 63.7429 18.8924 63.9076C18.9474 64.0722 18.9661 64.2468 18.9471 64.4193C18.9282 64.5918 18.8722 64.7581 18.7829 64.907Z" fill="#24C4A1"/>
<path d="M21.65 56.8687C21.3789 56.6994 21.1844 56.4312 21.1079 56.1209C21.0315 55.8107 21.079 55.4829 21.2404 55.207C21.3519 55.0326 21.5048 54.8886 21.6856 54.7877C21.8664 54.6869 22.0695 54.6324 22.2765 54.6291C22.4972 54.6244 22.7146 54.6829 22.903 54.7977C23.1778 54.9637 23.3752 55.2321 23.4521 55.5437C23.5289 55.8553 23.4788 56.1847 23.3126 56.4593C23.1465 56.734 22.8779 56.9314 22.5661 57.0082C22.2543 57.0849 21.9248 57.0348 21.65 56.8687Z" fill="#24C4A1"/>
<path d="M15.1201 73.7645C15.0663 73.9147 14.9835 74.0529 14.8763 74.1711C14.7691 74.2892 14.6396 74.3852 14.4952 74.4534C14.3509 74.5215 14.1947 74.5606 14.0352 74.5685C13.8758 74.5763 13.7164 74.5526 13.5661 74.4989C13.4158 74.4451 13.2774 74.3623 13.1591 74.2552C13.0409 74.1481 12.9449 74.0187 12.8766 73.8745C12.8084 73.7303 12.7693 73.574 12.7615 73.4147C12.7537 73.2554 12.7772 73.0961 12.831 72.9459C12.9209 72.717 13.0763 72.5195 13.2777 72.3782C13.4791 72.2369 13.7176 72.1581 13.9636 72.1514C14.099 72.1265 14.2378 72.1265 14.3732 72.1514C14.5306 72.2049 14.6756 72.2899 14.7992 72.4011C14.9228 72.5122 15.0225 72.6473 15.0923 72.7981C15.1622 72.949 15.2006 73.1124 15.2054 73.2785C15.2102 73.4446 15.1812 73.61 15.1201 73.7645Z" fill="#24C4A1"/>
<path d="M12.325 82.9348C12.2884 83.0873 12.2217 83.2311 12.1288 83.3576C12.036 83.4841 11.9189 83.5908 11.7842 83.6716C11.6496 83.7523 11.5002 83.8054 11.3448 83.8277C11.1894 83.85 11.0311 83.8412 10.8792 83.8016C10.7243 83.7678 10.578 83.7031 10.4487 83.6115C10.3194 83.5199 10.2098 83.4031 10.1266 83.2683C10.0434 83.1335 9.98829 82.9833 9.96442 82.8267C9.94054 82.6701 9.94841 82.5103 9.98765 82.3568C10.0527 82.0938 10.2047 81.8604 10.419 81.6943C10.6333 81.5283 10.8972 81.4393 11.1683 81.4418H11.4576C11.6138 81.4809 11.7606 81.5509 11.8893 81.6477C12.0179 81.7444 12.1259 81.866 12.2068 82.0052C12.2876 82.1444 12.3399 82.2984 12.3602 82.458C12.3805 82.6177 12.3685 82.7798 12.325 82.9348Z" fill="#24C4A1"/>
<path d="M13.6022 78.3133C13.5077 78.6154 13.2979 78.8682 13.0183 79.0169C12.7387 79.1656 12.4118 79.1983 12.1083 79.1079C11.9549 79.067 11.8117 78.9949 11.6874 78.8962C11.5631 78.7976 11.4604 78.6743 11.3858 78.5343C11.3112 78.3942 11.2663 78.2403 11.2538 78.0822C11.2414 77.924 11.2614 77.765 11.3131 77.6149C11.3814 77.3668 11.5291 77.1478 11.7336 76.9913C11.938 76.8348 12.1881 76.7494 12.4457 76.7481H12.8071C12.9651 76.7942 13.112 76.8722 13.2386 76.9772C13.3653 77.0822 13.469 77.2121 13.5435 77.3587C13.618 77.5054 13.6617 77.6658 13.6717 77.8299C13.6818 77.9941 13.6582 78.1586 13.6022 78.3133Z" fill="#24C4A1"/>
<path d="M16.8311 69.3597C16.6907 69.6241 16.4568 69.8267 16.175 69.9281C15.8932 70.0295 15.5837 70.0223 15.3069 69.9081C15.03 69.7939 14.8056 69.5807 14.6776 69.3102C14.5495 69.0397 14.5271 68.7312 14.6143 68.4449C14.6991 68.2212 14.8511 68.0293 15.0497 67.8957C15.2482 67.762 15.4833 67.6932 15.7226 67.6987C15.8744 67.6756 16.0287 67.6756 16.1805 67.6987C16.3377 67.7584 16.4806 67.8503 16.6001 67.9686C16.7195 68.0868 16.8131 68.2287 16.8743 68.3851C16.9356 68.5416 16.9634 68.7092 16.956 68.877C16.9485 69.0449 16.906 69.2093 16.8311 69.3597Z" fill="#24C4A1"/>
<path d="M19.3128 61.129C19.1713 61.0555 19.0458 60.9546 18.9436 60.8322C18.8413 60.7098 18.7644 60.5683 18.7174 60.416C18.6703 60.2637 18.6541 60.1035 18.6694 59.9449C18.6848 59.7862 18.7315 59.6321 18.8069 59.4916C18.9117 59.2952 19.0679 59.131 19.2589 59.0165C19.4498 58.902 19.6685 58.8415 19.8912 58.8415C20.085 58.8435 20.2753 58.8931 20.4454 58.986C20.7298 59.1361 20.9429 59.3929 21.0378 59.6999C21.1327 60.007 21.1015 60.3391 20.9513 60.6233C20.8011 60.9075 20.5441 61.1204 20.2368 61.2153C19.9296 61.3101 19.5972 61.2791 19.3128 61.129Z" fill="#24C4A1"/>
<path d="M10.3252 86.2075C10.6397 86.2716 10.9166 86.4561 11.0967 86.7216C11.2768 86.9871 11.3459 87.3125 11.2891 87.6282C11.2249 87.9425 11.0402 88.2192 10.7745 88.3992C10.5088 88.5792 10.1833 88.6482 9.86741 88.5914C9.71235 88.5598 9.56502 88.498 9.43387 88.4095C9.30272 88.321 9.19038 88.2075 9.10312 88.0756C9.01586 87.9437 8.95541 87.7958 8.92532 87.6406C8.89523 87.4853 8.896 87.3256 8.92767 87.1707C8.98041 86.8837 9.13777 86.6265 9.36916 86.4486C9.60055 86.2707 9.88961 86.1848 10.1807 86.2075H10.3252Z" fill="#24C4A1"/>
<path d="M177.64 36.1233C196.434 54.8907 206.996 80.3472 207 106.893C207.005 133.438 196.452 158.898 177.664 177.672C158.876 196.446 133.391 206.995 106.817 207C80.2417 207.005 54.7534 196.464 35.9589 177.696C35.7371 177.463 35.6159 177.152 35.6215 176.83C35.6245 176.517 35.7449 176.216 35.9589 175.987C36.1942 175.765 36.5027 175.637 36.8263 175.626C36.9781 175.604 37.1323 175.604 37.2841 175.626C37.4217 175.701 37.551 175.789 37.6697 175.891C51.3446 189.55 68.7671 198.852 87.7343 202.621C106.702 206.389 126.361 204.454 144.228 197.062C162.095 189.669 177.365 177.15 188.109 161.088C198.853 145.027 204.588 126.143 204.588 106.826C204.588 87.5082 198.853 68.6246 188.109 52.5627C177.365 36.5008 162.095 23.982 144.228 16.5893C126.361 9.1967 106.702 7.26225 87.7343 11.0306C68.7671 14.7989 51.3446 24.1008 37.6697 37.76C37.4377 37.9766 37.1318 38.0971 36.8142 38.0971C36.4967 38.0971 36.191 37.9766 35.9589 37.76C35.8571 37.6415 35.7682 37.5124 35.6939 37.3749C35.6686 37.2155 35.6686 37.053 35.6939 36.8935C35.6969 36.5805 35.8173 36.2799 36.0313 36.0511C54.5271 17.673 79.4835 7.24705 105.571 7C106.548 7.00004 107.98 7 107.98 7C134.12 7.22978 159.129 17.6854 177.64 36.1233Z" fill="url(#paint1_linear)"/>
</g>
<defs>
<filter id="filter0_d" x="0" y="0" width="220" height="220" filterUnits="userSpaceOnUse" color-interpolation-filters="sRGB">
<feFlood flood-opacity="0" result="BackgroundImageFix"/>
<feColorMatrix in="SourceAlpha" type="matrix" values="0 0 0 0 0 0 0 0 0 0 0 0 0 0 0 0 0 0 127 0" result="hardAlpha"/>
<feOffset dx="3" dy="3"/>
<feGaussianBlur stdDeviation="5"/>
<feColorMatrix type="matrix" values="0 0 0 0 0 0 0 0 0 0 0 0 0 0 0 0 0 0 0.15 0"/>
<feBlend mode="normal" in2="BackgroundImageFix" result="effect1_dropShadow"/>
<feBlend mode="normal" in="SourceGraphic" in2="effect1_dropShadow" result="shape"/>
</filter>
<filter id="filter1_d" x="17.0596" y="16.6046" width="186.307" height="186.123" filterUnits="userSpaceOnUse" color-interpolation-filters="sRGB">
<feFlood flood-opacity="0" result="BackgroundImageFix"/>
<feColorMatrix in="SourceAlpha" type="matrix" values="0 0 0 0 0 0 0 0 0 0 0 0 0 0 0 0 0 0 127 0" result="hardAlpha"/>
<feOffset dx="3" dy="3"/>
<feGaussianBlur stdDeviation="5"/>
<feColorMatrix type="matrix" values="0 0 0 0 0 0 0 0 0 0 0 0 0 0 0 0 0 0 0.15 0"/>
<feBlend mode="normal" in2="BackgroundImageFix" result="effect1_dropShadow"/>
<feBlend mode="normal" in="SourceGraphic" in2="effect1_dropShadow" result="shape"/>
</filter>
<linearGradient id="paint0_linear" x1="24.3771" y1="106.778" x2="196.616" y2="106.778" gradientUnits="userSpaceOnUse">
<stop stop-color="#00B08A"/>
<stop offset="1" stop-color="#B2EADE"/>
</linearGradient>
<linearGradient id="paint1_linear" x1="15.2752" y1="106.55" x2="221.246" y2="106.55" gradientUnits="userSpaceOnUse">
<stop stop-color="#24C4A1"/>
<stop offset="1" stop-color="#B2EADE"/>
</linearGradient>
</defs>
</svg>
