<?xml version="1.0" encoding="utf-8"?>
<!-- Generator: Adobe Illustrator 25.4.1, SVG Export Plug-In . SVG Version: 6.00 Build 0)  -->
<svg version="1.1" id="Layer_1" xmlns="http://www.w3.org/2000/svg" xmlns:xlink="http://www.w3.org/1999/xlink" x="0px" y="0px"
	 viewBox="0 0 88 71" style="enable-background:new 0 0 88 71;" xml:space="preserve">
<style type="text/css">
	.st0{fill:#24C4A1;stroke:#244583;}
</style>
<path class="st0" d="M48.9,31.1L48.9,31.1L48.9,31.1c0-0.5-0.9-11.9,7.3-20.7c6-6.5,15.2-9.9,27.4-9.9h3.9V12l-3.1,0.6
	c-6.1,1.2-10.4,3.6-12.8,7.3l0,0c-1.2,1.9-1.9,4.2-2,6.5l0,0.5h0.5h13.5c1,0,2,0.4,2.8,1.1c0.7,0.7,1.1,1.7,1.1,2.8v30.7
	c0,4.6-3.7,8.3-8.3,8.3H52.8c-1,0-2-0.4-2.8-1.1c-0.7-0.7-1.1-1.7-1.1-2.8v-22v0L48.9,31.1z M0,31.1L0,31.1L0,31.1
	c0-0.5-0.9-11.9,7.3-20.7c6-6.5,15.2-9.9,27.4-9.9h3.9V12l-3.1,0.6c-6.1,1.2-10.4,3.6-12.8,7.3l0,0c-1.2,1.9-1.9,4.2-2,6.5l0,0.5
	h0.5h13.5c1,0,2,0.4,2.8,1.1c0.7,0.7,1.1,1.7,1.1,2.8v30.7c0,4.6-3.7,8.3-8.3,8.3H3.9c-1,0-2-0.4-2.8-1.1C0.4,67.9,0,66.9,0,65.9
	v-22v0L0,31.1z"/>
</svg>
