<svg id="_x31__x2C_5" enable-background="new 0 0 24 24" height="512" viewBox="0 0 24 24" width="512" xmlns="http://www.w3.org/2000/svg"><g><path d="m23.25 3.5v.75h-22.5v-.75c0-1.55 1.26-2.81 2.81-2.81h16.88c1.55 0 2.81 1.26 2.81 2.81z" fill="#607d8b"/></g><g><path d="m23.25 4.25v15.87c0 .62-.5 1.13-1.12 1.13h-20.26c-.62 0-1.12-.51-1.12-1.13v-15.87z" fill="#eceff1"/></g><g><path d="m16.942 12.343-4.725-1.607c-.141-.048-.294-.048-.434 0l-4.725 1.607c-.274.093-.458.35-.458.639v3.616c0 4.414 4.926 6.559 5.136 6.648.085.036.174.054.264.054s.179-.018.264-.054c.21-.089 5.136-2.234 5.136-6.648v-3.616c0-.289-.184-.546-.458-.639z" fill="#4caf50"/></g><g><path d="m21.25 22h-1.81c-.414 0-.75-.336-.75-.75s.336-.75.75-.75h1.81c.689 0 1.25-.561 1.25-1.25v-16.5c0-.689-.561-1.25-1.25-1.25h-18.5c-.689 0-1.25.561-1.25 1.25v16.5c0 .689.561 1.25 1.25 1.25h1.81c.414 0 .75.336.75.75s-.336.75-.75.75h-1.81c-1.517 0-2.75-1.233-2.75-2.75v-16.5c0-1.517 1.233-2.75 2.75-2.75h18.5c1.517 0 2.75 1.233 2.75 2.75v16.5c0 1.517-1.233 2.75-2.75 2.75z"/></g><g><path d="m23.25 5h-22.5c-.414 0-.75-.336-.75-.75s.336-.75.75-.75h22.5c.414 0 .75.336.75.75s-.336.75-.75.75z"/></g><g><path d="m12 24c-.1 0-.199-.02-.293-.06-.233-.099-5.707-2.482-5.707-7.386v-4.018c0-.321.204-.606.509-.71l5.25-1.786c.156-.054.326-.054.482 0l5.25 1.786c.305.103.509.388.509.71v4.018c0 4.904-5.474 7.288-5.707 7.387-.094.039-.193.059-.293.059zm-4.5-10.927v3.481c0 3.348 3.455 5.341 4.499 5.866 1.042-.528 4.501-2.531 4.501-5.866v-3.481l-4.5-1.531z"/></g><g><path d="m11.75 19.5c-.198 0-.39-.079-.53-.22l-2-2c-.293-.293-.293-.768 0-1.061s.768-.293 1.061 0l1.389 1.389 2.48-3.308c.246-.331.717-.399 1.05-.15.331.249.398.719.149 1.05l-3 4c-.13.174-.329.283-.547.298-.017.002-.034.002-.052.002z"/></g></svg>