<svg width="90" height="90" viewBox="0 0 90 90" fill="none" xmlns="http://www.w3.org/2000/svg">
<g filter="url(#filter0_d)">
<path d="M41.5991 75.633C60.3954 75.633 75.6328 60.3956 75.6328 41.5993C75.6328 22.8031 60.3954 7.56567 41.5991 7.56567C22.8028 7.56567 7.56543 22.8031 7.56543 41.5993C7.56543 60.3956 22.8028 75.633 41.5991 75.633Z" fill="#EBECE9"/>
<path d="M41.5994 7.56567C31.1347 7.56567 21.2357 12.4209 14.7778 20.67C28.2593 7.61281 49.8014 7.94278 62.8586 21.4714C74.6903 33.6801 75.6802 52.7239 65.2155 66.1111C78.7442 53.101 79.1684 31.5589 66.1112 18.0303C59.7004 11.2896 50.8384 7.56567 41.5994 7.56567Z" fill="#C1C1C1"/>
<path d="M41.5993 76.1986C22.5084 76.1986 7 60.6902 7 41.5993C7 22.5084 22.5084 7 41.5993 7C60.6902 7 76.1986 22.5084 76.1986 41.5993C76.1986 60.6902 60.6902 76.1986 41.5993 76.1986ZM41.5993 8.13131C23.1212 8.13131 8.13131 23.1212 8.13131 41.5993C8.13131 60.0774 23.1212 75.0673 41.5993 75.0673C60.0774 75.0673 75.0673 60.0774 75.0673 41.5993C75.0673 23.1212 60.0774 8.13131 41.5993 8.13131Z" fill="#244583"/>
<path d="M29.956 69.2693C29.8617 69.2693 29.7203 69.2693 29.626 69.2222C28.4947 68.7037 27.3634 68.138 26.2792 67.4781C25.9021 67.2424 25.8078 66.771 26.0435 66.3939C26.2792 66.0639 26.7506 65.9225 27.0806 66.1111C28.1176 66.7239 29.1546 67.2895 30.2388 67.7609C30.6159 67.9494 30.8045 68.4208 30.6631 68.7979C30.5688 69.0808 30.286 69.2693 29.956 69.2693Z" fill="white"/>
<path d="M24.0637 65.7812C23.8751 65.7812 23.7337 65.734 23.5923 65.6398C19.3499 62.4344 16.0502 58.0977 14.0704 53.1953C13.929 52.7711 14.1175 52.3468 14.4946 52.1583C14.9189 52.0169 15.3431 52.2054 15.5317 52.5825C17.4172 57.2492 20.5283 61.3031 24.5822 64.367C24.9121 64.6499 25.0064 65.1212 24.7236 65.4512C24.535 65.6869 24.2993 65.7812 24.0637 65.7812Z" fill="white"/>
<path d="M58.5991 45.3048V38.6776C58.5991 37.5842 57.7045 36.6895 56.611 36.6895H43.0474V25.589C43.0474 23.8163 40.9102 22.9382 39.651 24.1808L23.2488 40.5829C22.4702 41.3616 22.4702 42.6208 23.2488 43.3995L39.651 59.8016C40.9102 61.0608 43.0474 60.1661 43.0474 58.3934V47.2929H56.611C57.7045 47.2929 58.5991 46.3983 58.5991 45.3048Z" fill="#9FEFDE"/>
<path d="M23.8382 41.3945C23.3899 41.8428 23.4638 42.5892 23.9913 42.9409C24.386 43.204 24.9109 43.1553 25.2504 42.824L41.8124 26.6603C42.2479 26.2353 42.2751 25.544 41.8744 25.086C41.438 24.5873 40.6708 24.5618 40.2022 25.0304L23.8382 41.3945Z" fill="#24C4A1"/>
<path d="M43.0474 37.2895H42.4474V36.6895V25.589C42.4474 24.3582 40.9602 23.7338 40.0738 24.6065C40.0733 24.607 40.0729 24.6074 40.0725 24.6078L23.6731 41.0072C23.1287 41.5516 23.1287 42.4308 23.6731 42.9752L40.0753 59.3774C40.954 60.2561 42.4474 59.6351 42.4474 58.3934V47.2929V46.6929H43.0474H56.611C57.3731 46.6929 57.9991 46.0669 57.9991 45.3048V38.6776C57.9991 37.9155 57.3731 37.2895 56.611 37.2895H43.0474Z" stroke="#244583" stroke-width="1.2"/>
</g>
<defs>
<filter id="filter0_d" x="0" y="0" width="89.1986" height="89.1986" filterUnits="userSpaceOnUse" color-interpolation-filters="sRGB">
<feFlood flood-opacity="0" result="BackgroundImageFix"/>
<feColorMatrix in="SourceAlpha" type="matrix" values="0 0 0 0 0 0 0 0 0 0 0 0 0 0 0 0 0 0 127 0" result="hardAlpha"/>
<feOffset dx="3" dy="3"/>
<feGaussianBlur stdDeviation="5"/>
<feColorMatrix type="matrix" values="0 0 0 0 0 0 0 0 0 0 0 0 0 0 0 0 0 0 0.15 0"/>
<feBlend mode="normal" in2="BackgroundImageFix" result="effect1_dropShadow"/>
<feBlend mode="normal" in="SourceGraphic" in2="effect1_dropShadow" result="shape"/>
</filter>
</defs>
</svg>
