<svg xmlns="http://www.w3.org/2000/svg" viewBox="0 0 128 128" fill="#1a6094" xmlns:v="https://vecta.io/nano"><path d="M19.1 30.4a7 7 0 0 0 4.9-2.1 10 10 0 0 0 2.7-7.3 12.9 12.9 0 0 0-.5-3.5 34.7 34.7 0 0 0-4.2 3.4c.1.1.1.1.1.2s-.6 3.8-1.6 4.6a2 2 0 0 1-1.4.6 1.9 1.9 0 0 1-1.3-.5 27.4 27.4 0 0 0-2.3 3.6 7.5 7.5 0 0 0 3.6 1zM35 16h2.6v14h4.6V12h-4.7l-2.5.8zm18.2-2.3c-1.6 1.5-2.6 4.1-2.6 7.3s1 5.8 2.6 7.3a6.9 6.9 0 0 0 9.9 0c1.7-1.5 2.7-4.1 2.7-7.3a10.4 10.4 0 0 0-2.5-7.2 38.6 38.6 0 0 0-6-2.1 6.9 6.9 0 0 0-4.1 2zm8 7.4c0 1.5-.6 3.8-1.6 4.6a1.8 1.8 0 0 1-1.4.6 1.7 1.7 0 0 1-1.4-.6c-1.1-.9-1.6-3.2-1.6-4.7s.6-3.8 1.6-4.6a1.7 1.7 0 0 1 1.4-.6 1.8 1.8 0 0 1 1.4.6c1 .8 1.6 3.1 1.6 4.7zm8.5-3.6a12.9 12.9 0 0 0-.5 3.5c0 3.2 1 5.8 2.7 7.3a7 7 0 0 0 4.9 2.1 7.5 7.5 0 0 0 3.6-1 27.4 27.4 0 0 0-2.3-3.6 1.9 1.9 0 0 1-1.3.5 1.8 1.8 0 0 1-1.4-.6c-1.1-.9-1.6-3.2-1.6-4.7h0a43.5 43.5 0 0 0-4.1-3.5zM24 55.3a10.3 10.3 0 0 0 2.7-7.3 10.4 10.4 0 0 0-2.7-7.4 7.1 7.1 0 0 0-9.9 0 10.4 10.4 0 0 0-2.7 7.4 10.3 10.3 0 0 0 2.7 7.3 7.1 7.1 0 0 0 9.9 0zM16.1 48c0-1.7.6-3.9 1.5-4.7a2.5 2.5 0 0 1 1.5-.6 2.5 2.5 0 0 1 1.4.6c.9.8 1.6 3.1 1.6 4.7s-.6 3.8-1.6 4.7a2.4 2.4 0 0 1-1.4.5 2.5 2.5 0 0 1-1.5-.5c-1-.9-1.5-3.3-1.5-4.7zm22.5-9.4a6.9 6.9 0 0 0-4.9 2A10 10 0 0 0 31 48a9.9 9.9 0 0 0 2.7 7.3 7.1 7.1 0 0 0 9.9 0 10.3 10.3 0 0 0 2.6-7.3 10.4 10.4 0 0 0-2.6-7.4 6.9 6.9 0 0 0-5-2zm1.5 14.1a2.5 2.5 0 0 1-1.5.5 2.2 2.2 0 0 1-1.4-.5c-1.1-.9-1.6-3.3-1.6-4.7s.6-3.9 1.6-4.7a2.2 2.2 0 0 1 1.4-.6 2.5 2.5 0 0 1 1.5.6c.9.8 1.5 3.1 1.5 4.7a8 8 0 0 1-1.5 4.7zm21.7 4.2V39h-7.2v3.9h2.5v14h4.7zm11.4-14h2.6v14h4.6V39h-7.2v3.9zm-57.7 23v.6a23.9 23.9 0 0 0 2.1 3.4h.4v.5a32.7 32.7 0 0 0 4.7 5.1v-9.6zm28.1 16.3a10.1 10.1 0 0 0 2.6-7.3 10.4 10.4 0 0 0-2.6-7.4 7.1 7.1 0 0 0-9.9 0 10 10 0 0 0-2.7 7.4 9.7 9.7 0 0 0 2.7 7.3c.2.3.5.4.7.6a39.6 39.6 0 0 0 4.5 1.5 7.5 7.5 0 0 0 4.7-2.1zm-8-7.3c0-1.6.6-3.8 1.6-4.7a2.2 2.2 0 0 1 1.4-.5 2.5 2.5 0 0 1 1.5.5c.9.9 1.5 3.2 1.5 4.8s-.6 3.8-1.5 4.6a2.5 2.5 0 0 1-1.5.6 2.2 2.2 0 0 1-1.4-.6c-1.1-.9-1.6-3.2-1.6-4.7zm30.2 0a10 10 0 0 0-2.7-7.4 7.1 7.1 0 0 0-9.9 0 10.4 10.4 0 0 0-2.6 7.4 10.1 10.1 0 0 0 2.6 7.3 6.9 6.9 0 0 0 4.1 2 38.6 38.6 0 0 0 6-2.1 10.4 10.4 0 0 0 2.5-7.2zm-6.2 4.7a2.2 2.2 0 0 1-1.4.6 2 2 0 0 1-1.4-.6c-1.1-.9-1.6-3.2-1.6-4.7s.6-3.8 1.6-4.7a2 2 0 0 1 1.4-.5 2.2 2.2 0 0 1 1.4.5c1 .9 1.6 3.2 1.6 4.8s-.6 3.8-1.6 4.6zm13.6-13.7v4h2.6v3a37.2 37.2 0 0 0 4.6-6.4v-.6zm51.3 41.9L94.2 77.5h0l-5.1-5.1a47.2 47.2 0 0 0 6.8-24.5 48 48 0 1 0-48 48 47.2 47.2 0 0 0 24.5-6.8l8.8 8.8h0l26.6 26.6a12 12 0 0 0 8.4 3.5 11.9 11.9 0 0 0 8.3-20.2zM6 47.9a42 42 0 1 1 41.9 42A42 42 0 0 1 6 47.9zm79.7 29.5l3.8 3.8-8.3 8.3-3.8-3.8a46.6 46.6 0 0 0 8.3-8.3zm34.6 42.9a5.7 5.7 0 0 1-8.2 0L86 94.2l8.2-8.2 26.1 26.1a5.7 5.7 0 0 1 0 8.2z"/></svg>