<svg xmlns="http://www.w3.org/2000/svg" viewBox="0 0 128 128" fill="#1a6094" xmlns:v="https://vecta.io/nano"><path d="M19.6.4v106.8H4.5v3a18.2 18.2 0 0 0 18.1 18.2h81.8a18.3 18.3 0 0 0 18.2-18.2V.4zm3 121.8a12.1 12.1 0 0 1-11.6-8.9h75.5a17.7 17.7 0 0 0 4.3 8.9zm93.8-12a12 12 0 1 1-24 0v-3H25.7V6.6h90.7v103.6zM66.1 61.7L56.5 57l9.6-4.6v-7.2l-16.7 9.1v5.5l16.7 9.1v-7.2zM70.5 72l5.8-30.3h-4.7L65.8 72h4.7zM76 52.3l9.6 4.7-9.6 4.8v7.1l16.7-9.1v-5.5L76 45.2v7.1zM40.4 39.2v35.4l30.7 17.6 30.6-17.6V39.2L71.1 21.5zm56.8 2.6v30.1L71.1 87 45 71.9V41.8l26.1-15.1z"/></svg>