<svg xmlns="http://www.w3.org/2000/svg" viewBox="0 0 128 128" fill="#1a6094" xmlns:v="https://vecta.io/nano"><path d="M104.3 94.3c-9.1 0-14.3-6.2-18.6-12.7-4.2 6.5-9.4 12.7-18.4 12.7a17.5 17.5 0 0 1 0-35c9.1 0 14.2 6.2 18.5 12.7 4.2-6.5 9.4-12.7 18.5-12.7a17.5 17.5 0 0 1 0 35zM88.7 76.8c4.3 6.8 8.2 12.4 15.6 12.4a12.4 12.4 0 1 0 0-24.8c-7.3 0-11.4 5.9-15.6 12.4zM67.3 64.4a12.4 12.4 0 0 0 0 24.8c7.3 0 11.2-5.6 15.4-12.4-4.2-6.8-8.1-12.4-15.4-12.4zm-46 48.5h-5.1v-91h85.4v34.3h-5.1V27H21.3v85.9z"/><path d="M21.3 112.9h-5.1v-91h85.4v34.3h-5.1V27H21.3v85.9z"/><path d="M112.6 56.2h-5.1V15.9H32.3v8.5h-5.1V10.8h85.4v45.4zm-26 71.8H18.7a15.1 15.1 0 0 1-15-15.1v-2.5h72.9v2.5a10 10 0 1 0 19.9 0V97.4h5.1v15.5a15.1 15.1 0 0 1-15 15.1zM9.1 115.5a10 10 0 0 0 9.6 7.4h56.6a15.6 15.6 0 0 1-3.6-7.4zm29.1-65.3A5.9 5.9 0 0 1 34 52a6.1 6.1 0 0 1-4.3-1.8 8.8 8.8 0 0 1-2.2-6.2 9 9 0 0 1 2.2-6.3 6.1 6.1 0 0 1 4.3-1.8 5.9 5.9 0 0 1 4.2 1.8 8.6 8.6 0 0 1 2.3 6.3 8.4 8.4 0 0 1-2.3 6.2zM32.8 40c-.9.7-1.4 2.6-1.4 4a6.3 6.3 0 0 0 1.4 4 1.7 1.7 0 0 0 1.2.5 1.8 1.8 0 0 0 1.2-.5c.8-.7 1.3-2.7 1.3-4s-.5-3.3-1.3-4a1.8 1.8 0 0 0-1.2-.5 1.7 1.7 0 0 0-1.2.5zm17-.3h-2.2v-3.4h6.1v15.3h-3.9zm21.8 10.5a5.9 5.9 0 0 1-8.5 0 8.4 8.4 0 0 1-2.3-6.2 8.6 8.6 0 0 1 2.3-6.3 5.9 5.9 0 0 1 8.5 0 8.6 8.6 0 0 1 2.3 6.3 8.4 8.4 0 0 1-2.3 6.2zM66.1 40c-.8.7-1.3 2.6-1.3 4s.4 3.2 1.3 4a1.8 1.8 0 0 0 1.2.5 1.9 1.9 0 0 0 1.3-.5c.8-.7 1.3-2.7 1.3-4s-.5-3.3-1.3-4a1.9 1.9 0 0 0-1.3-.5 1.8 1.8 0 0 0-1.2.5zm21.4 10.2a5.9 5.9 0 0 1-4.2 1.8 6.1 6.1 0 0 1-4.3-1.8 8.4 8.4 0 0 1-2.3-6.2 8.6 8.6 0 0 1 2.3-6.3 6.1 6.1 0 0 1 4.3-1.8 5.9 5.9 0 0 1 4.2 1.8 8.6 8.6 0 0 1 2.3 6.3 8.4 8.4 0 0 1-2.3 6.2zM82 40c-.8.7-1.3 2.6-1.3 4s.4 3.2 1.3 4a1.9 1.9 0 0 0 1.3.5 1.8 1.8 0 0 0 1.2-.5c.8-.7 1.3-2.7 1.3-4s-.5-3.3-1.3-4a1.8 1.8 0 0 0-1.2-.5 1.9 1.9 0 0 0-1.3.5zM38.2 73.2A5.9 5.9 0 0 1 34 75a6.1 6.1 0 0 1-4.3-1.8 8.9 8.9 0 0 1-2.2-6.2 8.8 8.8 0 0 1 2.2-6.3 6.1 6.1 0 0 1 4.3-1.8 5.9 5.9 0 0 1 4.2 1.8 8.5 8.5 0 0 1 2.3 6.3 8.5 8.5 0 0 1-2.3 6.2zM32.8 63c-.9.7-1.4 2.5-1.4 4a6.3 6.3 0 0 0 1.4 4 1.7 1.7 0 0 0 1.2.5 1.8 1.8 0 0 0 1.2-.5 6.6 6.6 0 0 0 1.3-4c0-1.4-.5-3.3-1.3-4a1.8 1.8 0 0 0-1.2-.5 1.7 1.7 0 0 0-1.2.5zm.3 22.6h-2.2v-3.3h6.2v15.3h-4z"/><path d="M112.6 114H98.4v-5.1h9.1V97.4h5.1V114z"/><path d="M124.3 107.2h-14.2V102h9.1v-8.7h5.1v13.9zm-2.5-48.3h-5.1V5.1H41.5v8.6h-5.1V0h85.4v58.9z"/></svg>