<svg xmlns="http://www.w3.org/2000/svg" viewBox="0 0 128 128" fill="#1a6094" xmlns:v="https://vecta.io/nano"><path d="M63.5 119.5H0V25.8L23.4 2.4h73.2v19.8h-5.8v-14H25.7L5.8 28.1v85.7h57.7v5.7zM24.9 53.4a6.8 6.8 0 0 1-4.8 1.9 7 7 0 0 1-4.8-1.9 10.3 10.3 0 0 1-2.5-7.1 10 10 0 0 1 2.5-7.1 7.1 7.1 0 0 1 4.8-2 6.9 6.9 0 0 1 4.8 2 9.6 9.6 0 0 1 2.6 7.1 9.9 9.9 0 0 1-2.6 7.1zm-6.2-11.6c-.9.8-1.5 2.9-1.5 4.5s.5 3.7 1.5 4.5a2 2 0 0 0 1.4.6 1.8 1.8 0 0 0 1.4-.6c1-.8 1.5-3 1.5-4.5s-.6-3.7-1.5-4.5a2.2 2.2 0 0 0-1.4-.5 2.4 2.4 0 0 0-1.4.5zm19.3-.4h-2.5v-3.8h7V55H38zm24.7 12a7 7 0 0 1-4.8 1.9 6.8 6.8 0 0 1-4.8-1.9 9.9 9.9 0 0 1-2.6-7.1 9.6 9.6 0 0 1 2.6-7.1 6.9 6.9 0 0 1 4.8-2 7.1 7.1 0 0 1 4.8 2 10 10 0 0 1 2.5 7.1 10.3 10.3 0 0 1-2.5 7.1zm-6.2-11.6c-.9.8-1.5 2.9-1.5 4.5s.5 3.7 1.5 4.5a1.8 1.8 0 0 0 1.4.6 1.6 1.6 0 0 0 1.3-.6c1-.8 1.6-3 1.6-4.5s-.6-3.7-1.6-4.5a1.9 1.9 0 0 0-1.3-.5 2.2 2.2 0 0 0-1.4.5zM38 17.3h-2.5v-3.8h7v17.3H38zm35.9 0h-2.5v-3.8h7v17.3h-4.5zM62.7 29.2a6.7 6.7 0 0 1-4.8 2 6.5 6.5 0 0 1-4.8-2 9.5 9.5 0 0 1-2.6-7 9.6 9.6 0 0 1 2.6-7.1 6.5 6.5 0 0 1 4.8-2 6.7 6.7 0 0 1 4.8 2 10 10 0 0 1 2.5 7.1 9.9 9.9 0 0 1-2.5 7zm-6.2-11.5c-.9.8-1.5 2.9-1.5 4.5s.5 3.6 1.5 4.5a2.2 2.2 0 0 0 1.4.6 2 2 0 0 0 1.3-.6c1-.8 1.6-3 1.6-4.5s-.6-3.7-1.6-4.5a2 2 0 0 0-1.3-.6 2.2 2.2 0 0 0-1.4.6zm-31.6 61a6.8 6.8 0 0 1-4.8 1.9 7 7 0 0 1-4.8-1.9 10.3 10.3 0 0 1-2.5-7.1 10 10 0 0 1 2.5-7.1 7.1 7.1 0 0 1 4.8-2 6.9 6.9 0 0 1 4.8 2 9.6 9.6 0 0 1 2.6 7.1 9.9 9.9 0 0 1-2.6 7.1zm-6.2-11.6c-.9.8-1.5 2.9-1.5 4.5s.5 3.6 1.5 4.5a2.5 2.5 0 0 0 1.4.6 2.2 2.2 0 0 0 1.4-.6c1-.8 1.5-3 1.5-4.5s-.6-3.7-1.5-4.5a2.2 2.2 0 0 0-1.4-.6 2.5 2.5 0 0 0-1.4.6z"/><path d="M43.8 78.7a7 7 0 0 1-9.6 0 10.4 10.4 0 0 1-2.6-7.1 10 10 0 0 1 2.6-7.1 6.8 6.8 0 0 1 9.6 0 10 10 0 0 1 2.6 7.1 10.4 10.4 0 0 1-2.6 7.1zm-6.2-11.6c-.9.8-1.5 2.9-1.5 4.5s.5 3.6 1.5 4.5a2.5 2.5 0 0 0 1.4.6 2.5 2.5 0 0 0 1.4-.6c.9-.8 1.5-3 1.5-4.5s-.6-3.7-1.5-4.5a2.5 2.5 0 0 0-1.4-.6 2.5 2.5 0 0 0-1.4.6zm19.3-.4h-2.5v-3.8h7v17.3h-4.5zm0 25.3h-2.5v-3.8h7v17.3h-4.5zm-37.8 0h-2.5v-3.8h7v17.3h-4.5zm24.7 11.9a6.8 6.8 0 0 1-9.6 0 10.9 10.9 0 0 1 0-14.1 6.8 6.8 0 0 1 9.6 0 10.9 10.9 0 0 1 0 14.1zm-6.2-11.5c-.9.8-1.5 2.9-1.5 4.5s.5 3.6 1.5 4.5a2.5 2.5 0 0 0 1.4.6 2.5 2.5 0 0 0 1.4-.6c.9-.8 1.5-3 1.5-4.5s-.6-3.7-1.5-4.5a2.5 2.5 0 0 0-1.4-.6 2.5 2.5 0 0 0-1.4.6zm79.3 33.2H79.6a5.6 5.6 0 0 1-5.4-4.2H74a5.5 5.5 0 0 1-5.5-5.5V95.1a5.5 5.5 0 0 1 5.5-5.4h9.1c.1-1.1.1-2.2.1-3.2a52 52 0 0 0-4.3-20l-.4-.8a22.4 22.4 0 0 1-2.3-9.8 22 22 0 1 1 40.1 12.4 43.6 43.6 0 0 0-4.4 18.2c0 1 .1 2.1.2 3.2h10.4a5.5 5.5 0 0 1 5.5 5.4v20.8a5.5 5.5 0 0 1-5.5 5.5h-.2a5.6 5.6 0 0 1-5.4 4.2zm-37-5.8h36.8l.4-4.2h5.1V95.4H107l-.3-2.4a37.7 37.7 0 0 1-.5-6.5 49.9 49.9 0 0 1 5.1-21.1v-.3a16.1 16.1 0 0 0-13.1-25.3A16.2 16.2 0 0 0 82 55.9a16.5 16.5 0 0 0 1.7 7.2l.3.6h.1A58.8 58.8 0 0 1 89 86.5a48.8 48.8 0 0 1-.4 6.4l-.3 2.5h-14v20.2h5.1zM27.8 30l-24.9-.2v-5.7l19.1.1-.3-18.9 5.7-.1.4 24.8z"/></svg>