<svg xmlns="http://www.w3.org/2000/svg" viewBox="0 0 128 128" fill="#1a6094" xmlns:v="https://vecta.io/nano"><path d="M55.4 120.9a5.8 5.8 0 0 1-1.9-.3c-2.4-.8-4.9-3.6-3.9-8.6L56 76.4H40.6c-4.2 0-6.1-1.7-7-3.2s-1.3-4 .8-7.5L66.1 11C68 6.8 71.4 5.6 74 6.3s5.1 3.3 4.5 8.6v.2c-.8 4.4-1.7 8.8-2.6 13.1-1.6 7.3-3.1 14.8-4.3 22.5h15.8q5.1 0 6.9 3c1.2 2.1 1 4.6-.6 7.6l-31.9 55.3c-1.7 3.1-4.2 4.3-6.4 4.3zM39.3 70h24.2l-7.7 43a7.2 7.2 0 0 0-.1 1.3l.6-.8 31.9-55.2c.3-.6.4-1 .5-1.2H64.3l.5-3.6c1.2-9.1 3-17.9 4.8-26.5l2.6-12.8a2 2 0 0 0 0-1.1 2.4 2.4 0 0 0-.3.7l-.2.3-31.9 54.8a4.8 4.8 0 0 0-.5 1.1z"/><circle cx="4.4" cy="63.7" r="4.4"/><circle cx="21.3" cy="63.7" r="4.4"/><circle cx="106.7" cy="63.7" r="4.4"/><circle cx="123.6" cy="63.7" r="4.4"/></svg>