<?xml version="1.0" encoding="UTF-8" standalone="no"?>
<svg
   xmlns:dc="http://purl.org/dc/elements/1.1/"
   xmlns:cc="http://creativecommons.org/ns#"
   xmlns:rdf="http://www.w3.org/1999/02/22-rdf-syntax-ns#"
   xmlns:svg="http://www.w3.org/2000/svg"
   xmlns="http://www.w3.org/2000/svg"
   xmlns:sodipodi="http://sodipodi.sourceforge.net/DTD/sodipodi-0.dtd"
   xmlns:inkscape="http://www.inkscape.org/namespaces/inkscape"
   id="Outline-Expanded"
   enable-background="new 0 0 64 64"
   height="512"
   viewBox="0 0 64 64"
   width="512"
   version="1.1"
   sodipodi:docname="ci-cd.svg"
   inkscape:version="1.0.1 (0767f8302a, 2020-10-17)">
  <metadata
     id="metadata21">
    <rdf:RDF>
      <cc:Work
         rdf:about="">
        <dc:format>image/svg+xml</dc:format>
        <dc:type
           rdf:resource="http://purl.org/dc/dcmitype/StillImage" />
        <dc:title></dc:title>
      </cc:Work>
    </rdf:RDF>
  </metadata>
  <defs
     id="defs19" />
  <sodipodi:namedview
     pagecolor="#ffffff"
     bordercolor="#666666"
     borderopacity="1"
     objecttolerance="10"
     gridtolerance="10"
     guidetolerance="10"
     inkscape:pageopacity="0"
     inkscape:pageshadow="2"
     inkscape:window-width="3368"
     inkscape:window-height="1376"
     id="namedview17"
     showgrid="false"
     inkscape:zoom="1.8203125"
     inkscape:cx="256"
     inkscape:cy="254.07725"
     inkscape:window-x="1992"
     inkscape:window-y="27"
     inkscape:window-maximized="1"
     inkscape:current-layer="Outline-Expanded"
     inkscape:document-rotation="0" />
  <path
     d="m9 10.586-1.293-1.293-1.414 1.414 2 2c.195.195.451.293.707.293s.512-.098.707-.293l5-5-1.414-1.414z"
     id="path2"
     style="fill:#22417d;fill-opacity:1" />
  <path
     d="m29 10.586-1.293-1.293-1.414 1.414 2 2c.195.195.451.293.707.293s.512-.098.707-.293l5-5-1.414-1.414z"
     id="path4"
     style="fill:#22417d;fill-opacity:1" />
  <path
     d="m49 10.586-1.293-1.293-1.414 1.414 2 2c.195.195.451.293.707.293s.512-.098.707-.293l5-5-1.414-1.414z"
     id="path6"
     style="fill:#22417d;fill-opacity:1" />
  <path
     d="m13 57c.256 0 .512-.098.707-.293l5-5-1.414-1.414-4.293 4.293-1.293-1.293-1.414 1.414 2 2c.195.195.451.293.707.293z"
     id="path8"
     style="fill:#22417d;fill-opacity:1" />
  <path
     d="m33 57c.256 0 .512-.098.707-.293l5-5-1.414-1.414-4.293 4.293-1.293-1.293-1.414 1.414 2 2c.195.195.451.293.707.293z"
     id="path10"
     style="fill:#22417d;fill-opacity:1" />
  <path
     d="m53 57c.256 0 .512-.098.707-.293l5-5-1.414-1.414-4.293 4.293-1.293-1.293-1.414 1.414 2 2c.195.195.451.293.707.293z"
     id="path12"
     style="fill:#22417d;fill-opacity:1" />
  <path
     d="m62 28v-14c0-2.433-1.749-4.461-4.055-4.904-.451-3.987-3.84-7.096-7.945-7.096-4.072 0-7.436 3.06-7.931 7h-4.139c-.494-3.94-3.858-7-7.93-7s-7.436 3.06-7.931 7h-4.139c-.494-3.94-3.858-7-7.93-7-4.411 0-8 3.589-8 8s3.589 8 8 8c4.072 0 7.436-3.06 7.931-7h4.139c.495 3.94 3.859 7 7.931 7s7.436-3.06 7.931-7h4.139c.495 3.94 3.859 7 7.931 7 4.018 0 7.344-2.981 7.907-6.845 1.207.387 2.091 1.509 2.091 2.845v14c0 1.654-1.346 3-3 3h-16.586l2.293-2.293-1.414-1.414-3.707 3.707h-5.172l2.293-2.293-1.414-1.414-3.707 3.707h-5.172l2.293-2.293-1.414-1.414-3.707 3.707h-14.586c-2.757 0-5 2.243-5 5v14c0 2.433 1.749 4.461 4.055 4.904.451 3.987 3.84 7.096 7.945 7.096 4.072 0 7.436-3.06 7.931-7h4.139c.495 3.94 3.859 7 7.931 7s7.436-3.06 7.931-7h4.139c.495 3.94 3.859 7 7.931 7 4.411 0 8-3.589 8-8s-3.589-8-8-8c-4.072 0-7.436 3.06-7.931 7h-4.139c-.495-3.94-3.859-7-7.931-7s-7.436 3.06-7.931 7h-4.139c-.495-3.94-3.859-7-7.931-7-4.018 0-7.344 2.981-7.907 6.845-1.209-.387-2.093-1.509-2.093-2.845v-14c0-1.654 1.346-3 3-3h14.586l3.707 3.707 1.414-1.414-2.293-2.293h5.172l3.707 3.707 1.414-1.414-2.293-2.293h5.172l3.707 3.707 1.414-1.414-2.293-2.293h16.586c2.757 0 5-2.243 5-5zm-52-12c-3.309 0-6-2.691-6-6s2.691-6 6-6 6 2.691 6 6-2.691 6-6 6zm20 0c-3.309 0-6-2.691-6-6s2.691-6 6-6 6 2.691 6 6-2.691 6-6 6zm20 0c-3.309 0-6-2.691-6-6s2.691-6 6-6 6 2.691 6 6-2.691 6-6 6zm4 32c3.309 0 6 2.691 6 6s-2.691 6-6 6-6-2.691-6-6 2.691-6 6-6zm-20 0c3.309 0 6 2.691 6 6s-2.691 6-6 6-6-2.691-6-6 2.691-6 6-6zm-20 0c3.309 0 6 2.691 6 6s-2.691 6-6 6-6-2.691-6-6 2.691-6 6-6z"
     id="path14"
     style="fill:#22417d;fill-opacity:1" />
  <path
     style="fill:#bddbff;fill-opacity:1;fill-rule:evenodd;stroke:#360000;stroke-width:0.548807;stroke-miterlimit:2"
     d="m 75.536481,127.39067 c -16.376614,-1.43589 -30.756742,-11.40331 -38.165508,-26.45396 -3.719042,-7.555107 -4.82877,-12.382475 -4.82877,-21.00538 0,-8.164338 0.988425,-12.799206 4.222116,-19.798107 5.098457,-11.034941 15.163189,-20.500676 26.205247,-24.64566 11.01856,-4.136161 23.220371,-4.07065 34.596616,0.18575 10.166198,3.80366 20.163468,13.107173 25.231318,23.480401 11.48102,23.500112 1.79901,51.805296 -21.71595,63.486226 -8.159456,4.05317 -16.278939,5.56318 -25.545069,4.75073 z m -0.394373,-23.78219 c 0.985432,-0.42878 10.883445,-9.910365 22.36565,-21.424667 l 20.597892,-20.655469 -5.90257,-5.902571 -5.90257,-5.902571 -17.170891,17.164396 -17.170885,17.164396 -5.078338,-5.078338 -5.078339,-5.078338 -5.900398,5.900398 -5.900399,5.900399 8.510099,8.572298 c 4.680556,4.714762 9.251731,8.908437 10.158169,9.319277 2.140609,0.97023 4.274841,0.97709 6.47258,0.0208 z"
     id="path846"
     transform="scale(0.125)" />
  <path
     style="fill:#bddbff;fill-opacity:1;fill-rule:evenodd;stroke:#360000;stroke-width:0.548807;stroke-miterlimit:2"
     d="m 235.12446,127.37329 c -5.78563,-0.50367 -13.77407,-3.12421 -19.22746,-6.3074 -5.58238,-3.25848 -13.50062,-11.07059 -16.66651,-16.44312 -4.79665,-8.139957 -6.73002,-15.304458 -6.71923,-24.899418 0.0112,-9.945255 2.39465,-17.754856 7.98113,-26.150813 6.89681,-10.365269 18.1843,-17.910915 30.4758,-20.37296 6.73861,-1.349775 16.28371,-0.875755 22.55971,1.120339 15.83985,5.037901 27.8683,17.25941 32.45531,32.976219 1.64183,5.625528 2.02353,15.71384 0.82157,21.714179 -2.50529,12.506714 -10.05725,23.688214 -20.76204,30.740444 -9.25152,6.09482 -19.48529,8.61784 -30.91828,7.62253 z m 0.15499,-23.8445 c 1.37717,-0.57239 8.61839,-7.413497 22.23128,-21.002896 11.10386,-11.084704 20.18884,-20.401486 20.18884,-20.703961 0,-0.302475 -2.53097,-3.089567 -5.62437,-6.193538 l -5.62438,-5.643585 -17.17011,17.163618 -17.17011,17.163618 -5.22652,-5.204787 -5.22652,-5.204787 -5.89671,5.89671 -5.89671,5.896711 8.23531,8.300006 c 10.17546,10.255391 12.43074,11.506801 17.18,9.532891 z"
     id="path848"
     transform="scale(0.125)" />
  <path
     style="fill:#bddbff;fill-opacity:1;fill-rule:evenodd;stroke:#360000;stroke-width:0.548807;stroke-miterlimit:2"
     d="m 395.09602,127.33372 c -10.57401,-0.90483 -20.50165,-5.71549 -28.67542,-13.89532 -7.02834,-7.03356 -11.33278,-14.979734 -13.22102,-24.406588 -1.34978,-6.738607 -0.87576,-16.283713 1.12034,-22.559709 5.09883,-16.031428 17.56005,-28.107117 33.80025,-32.754535 5.49769,-1.573258 18.55177,-1.459297 24.33181,0.212415 14.85117,4.295287 27.08182,15.539704 32.22179,29.62356 2.12907,5.833783 2.83674,10.072574 2.8226,16.90671 -0.0268,12.943583 -4.5242,23.551457 -14.00443,33.031687 -10.69899,10.69898 -23.05765,15.1543 -38.39592,13.84178 z m 0.0461,-23.79956 c 1.38563,-0.57227 8.62218,-7.416114 22.50285,-21.281705 l 20.46041,-20.438173 -5.89617,-5.914511 -5.89617,-5.914512 -17.16989,17.163393 -17.16988,17.163394 -5.22652,-5.204787 -5.22652,-5.204787 -5.89671,5.89671 -5.89671,5.896711 8.23531,8.300006 c 10.17246,10.252361 12.42407,11.502451 17.18,9.538261 z"
     id="path850"
     transform="scale(0.125)" />
  <path
     style="fill:#bddbff;fill-opacity:1;fill-rule:evenodd;stroke:#360000;stroke-width:0.548807;stroke-miterlimit:2"
     d="m 422.72961,478.786 c -17.90186,-3.8441 -32.09484,-17.20398 -36.91991,-34.75277 -1.72087,-6.25881 -1.72379,-17.93918 -0.006,-23.93421 3.93947,-13.74857 12.52855,-24.40745 24.54361,-30.45814 7.49465,-3.77424 13.29045,-5.14349 21.80664,-5.15176 21.7249,-0.0211 40.39291,14.56492 46.12993,36.04307 1.65953,6.21292 1.65686,16.87892 -0.006,23.07296 -3.65601,13.62016 -12.7599,24.81677 -25.25747,31.06344 -6.64349,3.32062 -11.34687,4.44494 -19.57857,4.68013 -4.76917,0.13626 -8.32787,-0.0507 -10.71245,-0.56272 z m 5.78117,-23.79907 c 0.59718,-0.33067 10.23122,-9.76323 21.40898,-20.96125 l 20.32319,-20.36003 -5.90255,-5.90256 -5.90255,-5.90255 -17.17477,17.16828 -17.17477,17.16827 -4.9254,-4.94833 c -2.70898,-2.72158 -5.18219,-4.94833 -5.49604,-4.94833 -0.31384,0 -3.10289,2.54091 -6.19788,5.64648 l -5.62727,5.64648 8.93322,8.86915 c 6.20209,6.15762 9.43707,8.98075 10.58128,9.23419 0.90644,0.20077 1.89528,0.42645 2.19743,0.50151 0.79451,0.19737 3.69151,-0.51053 4.95713,-1.21131 z"
     id="path852"
     transform="scale(0.125)" />
  <path
     style="fill:#bddbff;fill-opacity:1;fill-rule:evenodd;stroke:#360000;stroke-width:0.548807;stroke-miterlimit:2"
     d="m 262.59227,478.79481 c -17.79589,-4.17411 -30.8178,-16.11707 -36.27235,-33.26691 -1.9961,-6.276 -2.47012,-15.8211 -1.12034,-22.55971 1.73011,-8.63741 5.94592,-16.82434 12.04226,-23.38558 9.05294,-9.74333 21.15571,-15.04928 34.41738,-15.08885 13.61305,-0.0406 24.13712,4.3187 33.83272,14.0143 9.48023,9.48023 13.97765,20.0881 14.00443,33.03169 0.0141,6.83413 -0.69353,11.07292 -2.8226,16.90671 -5.09903,13.97167 -17.35315,25.30674 -31.9309,29.53611 -5.22859,1.51694 -17.26456,1.95829 -22.1506,0.81224 z m 6.3176,-24.25447 c 1.05751,-0.71252 10.82096,-10.20084 21.69655,-21.08514 l 19.77379,-19.78963 -5.90251,-5.90252 -5.90252,-5.90251 -17.17476,17.16828 -17.17477,17.16827 -4.92541,-4.94833 c -2.70897,-2.72158 -5.18218,-4.94833 -5.49603,-4.94833 -0.31384,0 -3.09941,2.53742 -6.19014,5.63871 l -5.61952,5.63871 8.9851,8.97272 c 9.37031,9.3574 10.56197,10.14968 14.35941,9.54689 0.90643,-0.14389 2.5133,-0.84459 3.57081,-1.55712 z"
     id="path854"
     transform="scale(0.125)" />
  <path
     style="fill:#bddbff;fill-opacity:1;fill-rule:evenodd;stroke:#360000;stroke-width:0.548807;stroke-miterlimit:2"
     d="m 102.18026,478.72198 c -4.401104,-0.97243 -11.034237,-3.69957 -15.490441,-6.36873 -7.556237,-4.52601 -15.630162,-14.24913 -18.966036,-22.84007 -4.33664,-11.16823 -4.374501,-23.97718 -0.10309,-34.8765 3.56386,-9.09387 11.856629,-18.78794 20.276303,-23.70257 14.838664,-8.66145 33.528734,-8.62542 48.343344,0.0932 5.23785,3.08255 13.4102,10.99459 16.11291,15.59966 2.95161,5.02916 5.45112,11.36857 6.45153,16.36273 1.33888,6.68386 0.85811,16.20457 -1.13812,22.53821 -4.92571,15.62831 -16.47746,27.18306 -32.13876,32.14709 -5.98025,1.89551 -17.22511,2.39977 -23.34764,1.04699 z m 26.85577,-44.12032 20.93413,-20.93413 -5.9035,-5.90349 -5.90349,-5.9035 -17.17089,17.1644 -17.17089,17.16439 -5.078334,-5.07834 -5.078338,-5.07833 -5.900041,5.90004 -5.900042,5.90004 7.685708,7.7307 c 4.22714,4.25189 8.393887,8.24521 9.259439,8.87405 2.009788,1.46016 4.451268,1.96552 7.155338,1.4811 1.90301,-0.34092 4.42705,-2.67307 23.07091,-21.31693 z"
     id="path856"
     transform="scale(0.125)" />
</svg>
