<?xml version="1.0" encoding="UTF-8" standalone="no"?>
<svg
   xmlns:dc="http://purl.org/dc/elements/1.1/"
   xmlns:cc="http://creativecommons.org/ns#"
   xmlns:rdf="http://www.w3.org/1999/02/22-rdf-syntax-ns#"
   xmlns:svg="http://www.w3.org/2000/svg"
   xmlns="http://www.w3.org/2000/svg"
   xmlns:sodipodi="http://sodipodi.sourceforge.net/DTD/sodipodi-0.dtd"
   xmlns:inkscape="http://www.inkscape.org/namespaces/inkscape"
   height="512pt"
   viewBox="0 0 512 512"
   width="512pt"
   version="1.1"
   id="svg24"
   sodipodi:docname="insurance.svg"
   inkscape:version="1.0.1 (0767f8302a, 2020-10-17)">
  <metadata
     id="metadata30">
    <rdf:RDF>
      <cc:Work
         rdf:about="">
        <dc:format>image/svg+xml</dc:format>
        <dc:type
           rdf:resource="http://purl.org/dc/dcmitype/StillImage" />
      </cc:Work>
    </rdf:RDF>
  </metadata>
  <defs
     id="defs28" />
  <sodipodi:namedview
     pagecolor="#ffffff"
     bordercolor="#666666"
     borderopacity="1"
     objecttolerance="10"
     gridtolerance="10"
     guidetolerance="10"
     inkscape:pageopacity="0"
     inkscape:pageshadow="2"
     inkscape:window-width="3368"
     inkscape:window-height="1376"
     id="namedview26"
     showgrid="false"
     inkscape:zoom="0.96536648"
     inkscape:cx="409.03463"
     inkscape:cy="264.82656"
     inkscape:window-x="1992"
     inkscape:window-y="27"
     inkscape:window-maximized="1"
     inkscape:current-layer="svg24" />
  <path
     d="m129.703125 253.957031-34.652344 34.652344-10.867187-10.871094c-3.90625-3.902343-10.234375-3.902343-14.144532 0-3.902343 3.90625-3.902343 10.238281 0 14.144531l17.941407 17.9375c1.875 1.875 4.417969 2.929688 7.070312 2.929688 2.652344 0 5.195313-1.054688 7.070313-2.929688l41.722656-41.722656c3.90625-3.902344 3.90625-10.234375 0-14.140625s-10.234375-3.90625-14.140625 0zm0 0"
     id="path2"
     style="fill:#22417d;fill-opacity:1" />
  <path
     d="m187.59375 312.609375h47.117188c5.523437 0 10-4.476563 10-10 0-5.519531-4.476563-10-10-10h-47.117188c-5.523438 0-10 4.480469-10 10 0 5.523437 4.476562 10 10 10zm0 0"
     id="path4"
     style="fill:#22417d;fill-opacity:1" />
  <path
     d="m129.703125 363.019531-34.652344 34.652344-10.867187-10.871094c-3.90625-3.90625-10.234375-3.90625-14.144532 0-3.902343 3.90625-3.902343 10.238281 0 14.140625l17.941407 17.941406c1.875 1.875 4.417969 2.929688 7.070312 2.929688 2.652344 0 5.195313-1.054688 7.070313-2.929688l41.722656-41.722656c3.90625-3.902344 3.90625-10.234375 0-14.140625s-10.234375-3.90625-14.140625 0zm0 0"
     id="path6"
     style="fill:#22417d;fill-opacity:1" />
  <path
     d="m266.128906 411.671875c0-5.523437-4.480468-10-10-10h-68.535156c-5.523438 0-10 4.476563-10 10s4.476562 10 10 10h68.535156c5.519532 0 10-4.476563 10-10zm0 0"
     id="path8"
     style="fill:#22417d;fill-opacity:1" />
  <path
     d="m187.59375 377.8125h89.949219c5.523437 0 10-4.476562 10-10s-4.476563-10-10-10h-89.949219c-5.523438 0-10 4.476562-10 10s4.476562 10 10 10zm0 0"
     id="path10"
     style="fill:#22417d;fill-opacity:1" />
  <path
     d="m129.703125 144.957031-34.652344 34.652344-10.867187-10.871094c-3.90625-3.902343-10.234375-3.902343-14.144532 0-3.902343 3.90625-3.902343 10.238281 0 14.144531l17.941407 17.9375c1.875 1.875 4.417969 2.929688 7.070312 2.929688 2.652344 0 5.195313-1.054688 7.070313-2.929688l41.722656-41.722656c3.90625-3.902344 3.90625-10.234375 0-14.140625s-10.234375-3.90625-14.140625 0zm0 0"
     id="path12"
     style="fill:#22417d;fill-opacity:1" />
  <path
     d="m187.59375 203.609375h44.976562c5.519532 0 10-4.476563 10-10 0-5.519531-4.480468-10-10-10h-44.976562c-5.523438 0-10 4.480469-10 10 0 5.523437 4.476562 10 10 10zm0 0"
     id="path14"
     style="fill:#22417d;fill-opacity:1" />
  <path
     d="m158.210938 492c-2.640626 0-5.210938 1.070312-7.082032 2.929688-1.859375 1.859374-2.929687 4.441406-2.929687 7.070312s1.070312 5.210938 2.929687 7.070312c1.871094 1.859376 4.441406 2.929688 7.082032 2.929688 2.628906 0 5.199218-1.070312 7.058593-2.929688 1.871094-1.859374 2.929688-4.441406 2.929688-7.070312s-1.058594-5.210938-2.929688-7.070312c-1.859375-1.859376-4.429687-2.929688-7.058593-2.929688zm0 0"
     id="path16"
     style="fill:#22417d;fill-opacity:1" />
  <path
     d="m387.019531 156.359375-72 22.480469c-4.175781 1.304687-7.019531 5.167968-7.019531 9.542968v64.113282c0 48.46875 32.632812 91.28125 79.351562 104.109375.867188.238281 1.757813.355469 2.648438.355469s1.78125-.117188 2.648438-.355469c46.71875-12.828125 79.351562-55.640625 79.351562-104.105469v-64.113281c0-4.375-2.84375-8.242188-7.019531-9.546875l-72-22.480469c-1.941407-.605469-4.019531-.605469-5.960938 0zm64.980469 39.378906v56.757813c0 38.566406-25.359375 72.738281-62 84.050781-36.640625-11.3125-62-45.484375-62-84.050781v-56.757813l62-19.355469zm0 0"
     id="path18"
     style="fill:#22417d;fill-opacity:1" />
  <path
     d="m504.980469 149.421875-111.761719-34.890625c-1.023438-.347656-2.105469-.535156-3.210938-.535156-.003906 0-.011718 0-.015624 0-1.101563 0-2.1875.1875-3.207032.53125l-10.785156 3.367187v-63.957031c0-16.542969-13.457031-30-30-30h-72.832031v-13.9375c0-5.523438-4.480469-10-10-10h-150.335938c-5.519531 0-10 4.476562-10 10v13.9375h-72.832031c-16.542969 0-30 13.457031-30 30v428.0625c0 16.542969 13.457031 30 30 30h83.203125c5.523437 0 10-4.476562 10-10s-4.476563-10-10-10h-83.203125c-5.515625 0-10-4.484375-10-10v-428.0625c0-5.511719 4.484375-10 10-10h72.832031v10.480469c0 11.898437 9.683594 21.582031 21.585938 21.582031h127.164062c11.902344 0 21.585938-9.683594 21.585938-21.582031v-10.480469h72.832031c5.515625 0 10 4.488281 10 10v70.203125l-50 15.609375h-118.40625c-5.523438 0-10 4.476562-10 10s4.476562 10 10 10h80.40625v89h-80.40625c-5.523438 0-10 4.476562-10 10s4.476562 10 10 10h81.300781c5.804688 52.609375 39.457031 97.863281 87.105469 119.011719v41.238281h-33c-16.542969 0-30 13.457031-30 30v33h-89.789062c-5.523438 0-10 4.476562-10 10s4.476562 10 10 10h99.789062c2.652344 0 5.195312-1.054688 7.070312-2.929688l63-63c1.875-1.875 2.929688-4.417968 2.929688-7.070312v-44.039062c3.96875 1.113281 8.007812 2.074218 12.117188 2.859374.621093.121094 1.253906.179688 1.882812.179688s1.261719-.058594 1.882812-.179688c69.601563-13.335937 120.117188-74.453124 120.117188-145.320312v-93.53125c0-4.375-2.84375-8.242188-7.019531-9.546875zm-251.8125-95.003906c0 .871093-.710938 1.582031-1.585938 1.582031h-127.164062c-.875 0-1.585938-.710938-1.585938-1.582031v-34.417969h130.335938zm69.832031 394.582031h18.859375l-28.859375 28.859375v-18.859375c0-5.515625 4.484375-10 10-10zm169-196.5c0 60.648438-42.777344 113.039062-102 125.304688-59.222656-12.265626-102-64.65625-102-125.304688v-86.175781l79.761719-24.902344c.839843-.148437 1.636719-.402344 2.390625-.746094l19.847656-6.199219 102 31.84375zm0 0"
     id="path20"
     style="fill:#22417d;fill-opacity:1" />
  <path
     d="m381.039062 286.480469c-2.558593 0-5.117187-.976563-7.070312-2.929688l-23.039062-23.039062c-3.90625-3.90625-3.90625-10.238281 0-14.144531 3.90625-3.902344 10.234374-3.902344 14.140624 0l15.96875 15.96875 33.890626-33.886719c3.90625-3.90625 10.234374-3.90625 14.144531 0 3.902343 3.902343 3.902343 10.234375 0 14.140625l-40.960938 40.960937c-1.957031 1.953125-4.511719 2.929688-7.074219 2.929688zm0 0"
     id="path22"
     style="fill:#22417d;fill-opacity:1" />
  <path
     style="fill:#bddbff;fill-opacity:1;fill-rule:evenodd;stroke-width:0.731743;stroke-miterlimit:2"
     d="m 513.46495,446.16607 c -40.97949,-16.1682 -69.04538,-51.66972 -74.75637,-94.56194 -0.77652,-5.83198 -1.02694,-17.77612 -1.02929,-49.09197 l -0.003,-41.38484 40.82429,-12.65964 c 22.45335,-6.96281 41.3187,-12.63813 41.92299,-12.61184 0.60429,0.0263 19.22747,5.73122 41.38484,12.67761 l 40.28612,12.6298 0.22408,38.43697 c 0.14159,24.28902 -0.0772,41.77647 -0.59432,47.50967 -3.62434,40.17952 -28.03732,75.99496 -64.08756,94.02062 -6.6,3.3001 -16.53342,7.18185 -18.17241,7.10134 -0.47956,-0.0236 -3.17923,-0.95315 -5.99926,-2.06578 z m 0,-65.22027 c 3.62013,-1.69764 60.72472,-58.76286 61.86015,-61.81752 0.42155,-1.13409 0.76646,-3.53692 0.76646,-5.33962 0,-9.01628 -8.51028,-15.17898 -17.59343,-12.74024 -2.91237,0.78194 -5.84411,3.43077 -26.02441,23.51297 -17.50805,17.42293 -23.1581,22.63174 -24.5489,22.63174 -1.34161,0 -4.16037,-2.37779 -10.95155,-9.2383 -11.06194,-11.17487 -14.31946,-13.46842 -19.12908,-13.46842 -1.9092,0 -4.39918,0.35058 -5.53327,0.77907 -2.52604,0.9544 -5.86729,4.03669 -7.25471,6.69242 -1.21994,2.33515 -1.35688,8.4227 -0.25514,11.34206 1.15155,3.05135 34.10865,35.98714 37.67676,37.6524 3.72407,1.73804 7.27135,1.73592 10.98712,-0.007 z"
     id="path855"
     transform="scale(0.74999998)" />
  <path
     style="fill:#bddbff;fill-opacity:1;fill-rule:evenodd;stroke-width:0.731743;stroke-miterlimit:2"
     d="M 164.44063,50.543786 V 27.101574 h 86.44234 86.44233 l -0.19341,23.25608 -0.19341,23.25608 -86.24892,0.186132 -86.24893,0.186133 z"
     id="path857"
     transform="scale(0.74999998)" />
  <path
     style="fill:#bddbff;fill-opacity:1;fill-rule:evenodd;stroke-width:0.731743;stroke-miterlimit:2"
     d="m 417.80316,620.70837 c 0,-13.65788 0.91478,-16.56797 6.17763,-19.6522 2.99205,-1.75346 3.58573,-1.82083 16.0441,-1.82083 9.90915,0 12.93707,0.21579 12.93707,0.92198 0,0.50709 -7.0071,7.9234 -15.57134,16.48069 -12.69677,12.68647 -15.94203,15.5587 -17.5794,15.5587 h -2.00806 z"
     id="path859"
     transform="scale(0.74999998)" />
</svg>
