<?xml version="1.0" encoding="UTF-8" standalone="no"?>
<svg
   xmlns:dc="http://purl.org/dc/elements/1.1/"
   xmlns:cc="http://creativecommons.org/ns#"
   xmlns:rdf="http://www.w3.org/1999/02/22-rdf-syntax-ns#"
   xmlns:svg="http://www.w3.org/2000/svg"
   xmlns="http://www.w3.org/2000/svg"
   xmlns:sodipodi="http://sodipodi.sourceforge.net/DTD/sodipodi-0.dtd"
   xmlns:inkscape="http://www.inkscape.org/namespaces/inkscape"
   version="1.1"
   id="Capa_1"
   x="0px"
   y="0px"
   viewBox="0 0 512 512"
   style="enable-background:new 0 0 512 512;"
   xml:space="preserve"
   sodipodi:docname="manufacturing.svg"
   inkscape:version="1.0.1 (0767f8302a, 2020-10-17)"><metadata
   id="metadata55"><rdf:RDF><cc:Work
       rdf:about=""><dc:format>image/svg+xml</dc:format><dc:type
         rdf:resource="http://purl.org/dc/dcmitype/StillImage" /><dc:title></dc:title></cc:Work></rdf:RDF></metadata><defs
   id="defs53" /><sodipodi:namedview
   pagecolor="#ffffff"
   bordercolor="#666666"
   borderopacity="1"
   objecttolerance="10"
   gridtolerance="10"
   guidetolerance="10"
   inkscape:pageopacity="0"
   inkscape:pageshadow="2"
   inkscape:window-width="3368"
   inkscape:window-height="1376"
   id="namedview51"
   showgrid="false"
   inkscape:zoom="0.91015625"
   inkscape:cx="204.67582"
   inkscape:cy="252.9628"
   inkscape:window-x="1992"
   inkscape:window-y="27"
   inkscape:window-maximized="1"
   inkscape:current-layer="Capa_1" />
<g
   id="g6"
   style="fill:#22417d;fill-opacity:1">
	<g
   id="g4"
   style="fill:#22417d;fill-opacity:1">
		<path
   d="M491.729,112.971L259.261,0.745c-2.061-0.994-4.461-0.994-6.521,0L20.271,112.971c-2.592,1.251-4.239,3.876-4.239,6.754    v272.549c0,2.878,1.647,5.503,4.239,6.754l232.468,112.226c1.03,0.497,2.146,0.746,3.261,0.746s2.23-0.249,3.261-0.746    l232.468-112.226c2.592-1.251,4.239-3.876,4.239-6.754V119.726C495.968,116.846,494.32,114.223,491.729,112.971z M256,15.828    l215.217,103.897l-62.387,30.118c-0.395-0.301-0.812-0.579-1.27-0.8L193.805,45.853L256,15.828z M176.867,54.333l214.904,103.746    l-44.015,21.249L132.941,75.624L176.867,54.333z M396.799,172.307v78.546l-41.113,19.848v-78.546L396.799,172.307z     M480.968,387.568L263.5,492.55V236.658l51.873-25.042c3.73-1.801,5.294-6.284,3.493-10.015    c-1.801-3.729-6.284-5.295-10.015-3.493L256,223.623l-20.796-10.04c-3.731-1.803-8.214-0.237-10.015,3.493    c-1.801,3.73-0.237,8.214,3.493,10.015l19.818,9.567V492.55L31.032,387.566V131.674l165.6,79.945    c1.051,0.508,2.162,0.748,3.255,0.748c2.788,0,5.466-1.562,6.759-4.241c1.801-3.73,0.237-8.214-3.493-10.015l-162.37-78.386    l74.505-35.968L340.582,192.52c0.033,0.046,0.07,0.087,0.104,0.132v89.999c0,2.581,1.327,4.98,3.513,6.353    c1.214,0.762,2.599,1.147,3.988,1.147c1.112,0,2.227-0.247,3.26-0.746l56.113-27.089c2.592-1.251,4.239-3.875,4.239-6.754v-90.495    l69.169-33.392V387.568z"
   id="path2"
   style="fill:#22417d;fill-opacity:1" />
	</g>
</g>
<g
   id="g12"
   style="fill:#22417d;fill-opacity:1">
	<g
   id="g10"
   style="fill:#22417d;fill-opacity:1">
		<path
   d="M92.926,358.479L58.811,342.01c-3.732-1.803-8.214-0.237-10.015,3.493c-1.801,3.73-0.237,8.214,3.493,10.015    l34.115,16.469c1.051,0.508,2.162,0.748,3.255,0.748c2.788,0,5.466-1.562,6.759-4.241    C98.22,364.763,96.656,360.281,92.926,358.479z"
   id="path8"
   style="fill:#22417d;fill-opacity:1" />
	</g>
</g>
<g
   id="g18"
   style="fill:#22417d;fill-opacity:1">
	<g
   id="g16"
   style="fill:#22417d;fill-opacity:1">
		<path
   d="M124.323,338.042l-65.465-31.604c-3.731-1.801-8.214-0.237-10.015,3.494c-1.8,3.73-0.236,8.214,3.494,10.015    l65.465,31.604c1.051,0.507,2.162,0.748,3.255,0.748c2.788,0,5.466-1.562,6.759-4.241    C129.617,344.326,128.053,339.842,124.323,338.042z"
   id="path14"
   style="fill:#22417d;fill-opacity:1" />
	</g>
</g>
<g
   id="g20">
</g>
<g
   id="g22">
</g>
<g
   id="g24">
</g>
<g
   id="g26">
</g>
<g
   id="g28">
</g>
<g
   id="g30">
</g>
<g
   id="g32">
</g>
<g
   id="g34">
</g>
<g
   id="g36">
</g>
<g
   id="g38">
</g>
<g
   id="g40">
</g>
<g
   id="g42">
</g>
<g
   id="g44">
</g>
<g
   id="g46">
</g>
<g
   id="g48">
</g>
<path
   style="fill:#bddbff;fill-opacity:1;fill-rule:evenodd;stroke:#360000;stroke-width:0.548807;stroke-miterlimit:2"
   d="M 240.96248,127.41474 C 182.23347,99.059163 134.11052,75.786548 134.02259,75.697815 c -0.21934,-0.221338 42.1979,-20.762011 42.8762,-20.762925 1.07366,-0.0014 213.90294,103.01296 213.52792,103.35257 -0.21108,0.19115 -9.77778,4.85823 -21.25933,10.37129 -11.48154,5.51306 -20.99914,10.08851 -21.15021,10.16766 -0.15108,0.0791 -48.32568,-23.0561 -107.05469,-51.41167 z"
   id="path880" /><path
   style="fill:#bddbff;fill-opacity:1;fill-rule:evenodd;stroke:#360000;stroke-width:0.548807;stroke-miterlimit:2"
   d="m 355.70815,231.3974 v -38.91408 l 19.84222,-9.58071 c 10.91321,-5.2694 20.05999,-9.66313 20.32618,-9.76384 0.27626,-0.10453 0.48105,16.51717 0.47717,38.72961 l -0.007,38.91274 -18.80865,9.02791 c -10.34476,4.96535 -19.48848,9.35968 -20.31939,9.76518 l -1.51073,0.73727 z"
   id="path882" /></svg>
