<?xml version="1.0" encoding="UTF-8" standalone="no"?>
<svg
   xmlns:dc="http://purl.org/dc/elements/1.1/"
   xmlns:cc="http://creativecommons.org/ns#"
   xmlns:rdf="http://www.w3.org/1999/02/22-rdf-syntax-ns#"
   xmlns:svg="http://www.w3.org/2000/svg"
   xmlns="http://www.w3.org/2000/svg"
   xmlns:sodipodi="http://sodipodi.sourceforge.net/DTD/sodipodi-0.dtd"
   xmlns:inkscape="http://www.inkscape.org/namespaces/inkscape"
   version="1.1"
   id="Capa_1"
   x="0px"
   y="0px"
   viewBox="0 0 512 512"
   style="enable-background:new 0 0 512 512;"
   xml:space="preserve"
   sodipodi:docname="regulations.svg"
   inkscape:version="1.0.1 (0767f8302a, 2020-10-17)"><metadata
   id="metadata67"><rdf:RDF><cc:Work
       rdf:about=""><dc:format>image/svg+xml</dc:format><dc:type
         rdf:resource="http://purl.org/dc/dcmitype/StillImage" /></cc:Work></rdf:RDF></metadata><defs
   id="defs65" /><sodipodi:namedview
   pagecolor="#ffffff"
   bordercolor="#666666"
   borderopacity="1"
   objecttolerance="10"
   gridtolerance="10"
   guidetolerance="10"
   inkscape:pageopacity="0"
   inkscape:pageshadow="2"
   inkscape:window-width="3368"
   inkscape:window-height="1376"
   id="namedview63"
   showgrid="false"
   inkscape:zoom="0.91015625"
   inkscape:cx="-73.364068"
   inkscape:cy="184.40208"
   inkscape:window-x="1992"
   inkscape:window-y="27"
   inkscape:window-maximized="1"
   inkscape:current-layer="Capa_1" />
<g
   id="g6"
   style="fill:#22417d;fill-opacity:1">
	<g
   id="g4"
   style="fill:#22417d;fill-opacity:1">
		<path
   d="M379.237,180.014h-1.526L356.6,129.633v-0.252c1.056-0.01,2.117-0.023,3.172-0.07c4.138-0.183,7.345-3.685,7.163-7.823    c-0.183-4.137-3.668-7.319-7.823-7.163c-0.836,0.038-1.675,0.047-2.512,0.056v-2.88c0-4.143-3.357-7.5-7.5-7.5s-7.5,3.357-7.5,7.5    v1.509c-30.416-6.063-30.467-22.988-52.713-22.988h-1.327c-2.362-6.826-7.794-12.227-14.641-14.548v-4.773    c0-4.143-3.357-7.5-7.5-7.5s-7.5,3.357-7.5,7.5v4.773c-6.847,2.321-12.281,7.725-14.643,14.554    c-0.646,0.106-12.343-1.115-22.844,7.813c-6.68,5.68-16.875,12.179-30.646,15.056v-1.39c0-4.143-3.357-7.5-7.5-7.5    s-7.5,3.357-7.5,7.5v2.906c-4.054,0.101-7.311,3.412-7.311,7.49s3.256,7.389,7.311,7.49v0.244l-21.109,50.377    c-0.599,0.097-5.041-0.684-8.581,3.009c-3.601,3.754-2.919,8.246-2.005,14.188c1.345,7.938,6.394,15.119,14.534,19.048    c3.738,1.783,6.615,6.14,13.738,6.14h21.846c5.198,0,8.882-2.802,9.567-3.363c2.063-1.691,2.454-1.894,4.336-2.858    c10.596-5.062,14.565-14.415,15.066-25.995c0.138-5.929-4.483-10.168-9.756-10.168h-1.527l-21.109-50.377v-1.504    c19.474-3.383,33.214-12.787,40.362-18.865c5.741-4.881,12.596-4.173,13.036-4.24c2.311,6.955,7.796,12.471,14.734,14.822v77.931    c-14.978,1.006-24.755,16.358-19.24,30.372c-9.352,2.649-16.226,11.257-16.226,21.445c0,12.292,10.001,22.292,22.292,22.292    h41.988c12.292,0,22.291-10.001,22.291-22.292c0-10.398-7.156-19.153-16.802-21.605c5.383-13.995-4.405-29.211-19.303-30.212    v-77.931c6.938-2.352,12.426-7.87,14.736-14.828c0.531,0.082,7.119-0.707,12.939,4.24c7.227,6.145,21.192,15.689,41.006,18.976    v1.396l-21.111,50.381c-0.599,0.097-5.039-0.684-8.58,3.009c-3.095,3.227-2.718,7.256-2.701,7.156    c0,12.945,6.091,21.667,15.23,26.079c3.857,1.84,6.647,6.14,13.738,6.14h21.847c6.804-0.003,9.143-3.754,13.922-6.232    c10.67-5.106,14.607-14.438,15.052-25.996C389.222,184.663,384.808,180.014,379.237,180.014z M171.281,207.412l-0.001-0.002    c0.007,0,0.219,0.188,0.219,0.188C171.443,207.551,171.337,207.458,171.281,207.412z M193.258,207.436    c-0.038,0.03-0.055-0.035-0.052-0.038c-32.097-0.073-16.366,1.322-29.233-4.733c-3.132-1.479-5.368-4.322-6.036-7.648h48.695    C205.195,202.167,199.616,201.995,193.258,207.436z M194.63,180.014h-24.69l12.346-29.462L194.63,180.014z M294.022,249.597    c0,4.021-3.271,7.291-7.29,7.291h-41.987c-4.021,0-7.291-3.271-7.291-7.291s3.271-7.29,7.291-7.29c15.594,0,28.018,0,41.987,0    C290.751,242.307,294.022,245.578,294.022,249.597z M278.702,220.014c0,4.021-3.271,7.291-7.29,7.291h-11.987    c-4.02,0-7.29-3.271-7.29-7.291s3.271-7.29,7.29-7.29h11.987C275.431,212.724,278.702,215.994,278.702,220.014z M265.417,106.086    c-4.646,0-8.427-3.779-8.427-8.427c0-4.646,3.779-8.426,8.427-8.426s8.427,3.779,8.427,8.426    C273.844,102.307,270.064,106.086,265.417,106.086z M349.099,150.547l12.348,29.467h-24.695L349.099,150.547z M338.098,207.412    c0.286,0.245,0.188,0.161,0.209,0.18C338.308,207.592,338.183,207.486,338.098,207.412z M360.073,207.436    c-0.019,0.022-0.055-0.035-0.055-0.035c-28.304-0.069-18.799,1.246-27.062-3.604c-3.633-1.972-7.156-3.563-8.205-8.782h48.696    C372,202.228,366.144,202.227,360.073,207.436z"
   id="path2"
   style="fill:#22417d;fill-opacity:1" />
	</g>
</g>
<g
   id="g12"
   style="fill:#22417d;fill-opacity:1">
	<g
   id="g10"
   style="fill:#22417d;fill-opacity:1">
		<path
   d="M336.055,303.81H194.78c-4.143,0-7.5,3.357-7.5,7.5s3.357,7.5,7.5,7.5h141.277c4.143,0,7.5-3.357,7.5-7.5    S340.199,303.81,336.055,303.81z"
   id="path8"
   style="fill:#22417d;fill-opacity:1" />
	</g>
</g>
<g
   id="g18"
   style="fill:#22417d;fill-opacity:1">
	<g
   id="g16"
   style="fill:#22417d;fill-opacity:1">
		<path
   d="M336.055,335.31H194.78c-4.143,0-7.5,3.357-7.5,7.5s3.357,7.5,7.5,7.5h141.277c4.143,0,7.5-3.357,7.5-7.5    S340.199,335.31,336.055,335.31z"
   id="path14"
   style="fill:#22417d;fill-opacity:1" />
	</g>
</g>
<g
   id="g24"
   style="fill:#22417d;fill-opacity:1">
	<g
   id="g22"
   style="fill:#22417d;fill-opacity:1">
		<path
   d="M336.055,366.811H194.78c-4.143,0-7.5,3.357-7.5,7.5s3.357,7.5,7.5,7.5h141.277c4.143,0,7.5-3.357,7.5-7.5    S340.199,366.811,336.055,366.811z"
   id="path20"
   style="fill:#22417d;fill-opacity:1" />
	</g>
</g>
<g
   id="g30"
   style="fill:#22417d;fill-opacity:1">
	<g
   id="g28"
   style="fill:#22417d;fill-opacity:1">
		<path
   d="M465.466,364.311c4.143,0,7.5-3.357,7.5-7.5V25.059C472.967,11.241,461.725,0,447.908,0C431.661,0,98.246,0,81.848,0    C58.074,0,39.033,19.685,39.033,42.43c0,25.45,0.001,402.522,0.001,427.059c0,22.863,19.64,42.512,42.814,42.512h238.549    c4.143,0,7.5-3.357,7.5-7.5c0-4.143-3.357-7.5-7.5-7.5c-0.102,0-238.387-0.203-238.549-0.203    c-21.821,0-36.38-24.986-22.108-43.649c4.818-6.303,12.235-10.518,20.704-10.969c1.224-0.062,29.586-0.036,29.69-0.036v31.112    c0,8.271,9.149,13.309,16.142,8.87l17.074-10.847l16.818,10.685c7.115,4.511,16.397-0.619,16.397-9.013v-30.809h243.544v54.856    H355.4c-4.143,0-7.5,3.357-7.5,7.5s3.357,7.5,7.5,7.5c10.71,0,79.128,0,90.855,0c14.729,0,26.712-11.983,26.712-26.712    c0-11.398,0-85.349,0-93.476c0-4.143-3.357-7.5-7.5-7.5s-7.5,3.357-7.5,7.5v23.653c0,5.23-3.458,9.669-8.207,11.15    c-2.829,0.882-351.238,0.533-357.991,0.526V93.718c0-4.143-3.357-7.5-7.5-7.5s-7.5,3.357-7.5,7.5v333.728    c-8.582,1.039-16.473,4.674-22.731,10.05C54.925,33.5,51.093,39.919,58.089,28.425c4.09-6.699,10.906-11.511,18.678-12.945v43.236    c0,4.143,3.357,7.5,7.5,7.5s7.5-3.357,7.5-7.5V15.001h356.141c5.545,0,10.058,4.512,10.058,10.058v331.752    C457.966,360.954,461.323,364.311,465.466,364.311z M435.108,442.143L435.108,442.143c7.815-0.534,14.458,1.437,22.856-2.693    v45.839c0,6.457-5.253,11.711-11.711,11.711h-11.146V442.143z M125.134,442.143h36.43v22.936    c-9.889-5.754-12.32-9.229-18.214-9.229c-5.903,0-8.349,3.485-18.216,9.228V442.143z"
   id="path26"
   style="fill:#22417d;fill-opacity:1" />
	</g>
</g>
<g
   id="g32">
</g>
<g
   id="g34">
</g>
<g
   id="g36">
</g>
<g
   id="g38">
</g>
<g
   id="g40">
</g>
<g
   id="g42">
</g>
<g
   id="g44">
</g>
<g
   id="g46">
</g>
<g
   id="g48">
</g>
<g
   id="g50">
</g>
<g
   id="g52">
</g>
<g
   id="g54">
</g>
<g
   id="g56">
</g>
<g
   id="g58">
</g>
<g
   id="g60">
</g>
<path
   style="fill:#bddbff;fill-rule:evenodd;stroke:#360000;stroke-width:0.548807;stroke-miterlimit:2"
   d="m 169.65588,205.80762 c -0.85408,-0.71483 -2.81118,-1.935 -4.34911,-2.7115 -3.32512,-1.67886 -6.26814,-4.83422 -6.26814,-6.72039 v -1.35427 h 23.65933 23.65934 l -0.38377,1.23605 c -0.77324,2.49044 -2.5782,4.26903 -7.11078,7.00683 -2.54902,1.53968 -4.7797,3.03422 -4.95705,3.32119 -0.18654,0.30181 -5.0385,0.52177 -11.50971,0.52177 -10.96002,0 -11.21877,-0.0264 -12.74011,-1.29968 z"
   id="path892" /><path
   style="fill:#bddbff;fill-rule:evenodd;stroke:#360000;stroke-width:0.548807;stroke-miterlimit:2"
   d="m 240.99699,255.44619 c -3.83524,-2.35858 -4.27954,-7.46664 -0.93993,-10.80626 l 1.82449,-1.82448 h 23.45515 c 20.97848,0 23.6201,0.0974 25.01732,0.9228 3.7781,2.23177 4.32968,7.6166 1.11008,10.83706 l -1.69892,1.69937 -23.47486,0.14491 c -22.78319,0.14064 -23.52845,0.11196 -25.29333,-0.9734 z"
   id="path894" /><path
   style="fill:#bddbff;fill-rule:evenodd;stroke:#360000;stroke-width:0.548807;stroke-miterlimit:2"
   d="m 335.93133,205.42816 c -1.35966,-0.92094 -3.37058,-2.14638 -4.46871,-2.72321 -3.10903,-1.63311 -5.4197,-4.22431 -5.4197,-6.07768 v -1.60581 h 23.59374 23.59374 l -0.58067,1.6657 c -0.69581,1.996 -3.22311,4.62877 -5.60073,5.83448 -0.94991,0.4817 -2.90193,1.71053 -4.33783,2.73074 l -2.61071,1.85492 -10.84851,-0.002 -10.84852,-0.002 z"
   id="path896" /><path
   style="fill:#bddbff;fill-rule:evenodd;stroke:#360000;stroke-width:0.548807;stroke-miterlimit:2"
   d="m 255.51375,225.7369 c -4.00062,-3.14689 -4.00062,-8.29258 0,-11.43947 1.3314,-1.04727 2.17445,-1.14722 9.67729,-1.14722 6.62212,0 8.51433,0.17456 9.73987,0.8985 4.40505,2.60213 4.40505,9.33479 0,11.93692 -1.22554,0.72393 -3.11775,0.89849 -9.73987,0.89849 -7.50284,0 -8.34589,-0.0999 -9.67729,-1.14722 z"
   id="path898" /><path
   style="fill:#bddbff;fill-rule:evenodd;stroke:#360000;stroke-width:0.548807;stroke-miterlimit:2"
   d="m 263.0842,105.43185 c -1.94458,-0.56418 -4.50997,-2.91949 -5.22603,-4.79809 -2.69083,-7.059418 5.48776,-13.988319 11.62745,-9.850777 5.47406,3.688964 5.17399,11.096587 -0.56738,14.006717 -2.6304,1.33327 -3.22596,1.39882 -5.83404,0.64215 z"
   id="path900" /><path
   style="fill:#bddbff;fill-rule:evenodd;stroke:#360000;stroke-width:0.548807;stroke-miterlimit:2"
   d="m 125.5279,452.66953 v -10.43777 h 17.85407 17.85408 v 10.43777 10.43777 L 160,463.10554 c -0.67983,-9.9e-4 -2.71931,-1.00341 -4.53219,-2.22767 -6.01463,-4.06175 -8.46904,-5.09682 -12.08584,-5.09682 -3.61679,0 -6.0712,1.03507 -12.08583,5.09682 -1.81288,1.22426 -3.85236,2.22671 -4.53219,2.22767 l -1.23605,0.002 z"
   id="path902" /></svg>
