<svg xmlns="http://www.w3.org/2000/svg" width="63" height="60" fill="none" xmlns:v="https://vecta.io/nano"><path d="M5.571 22.177c-.218.653-.404 1.338-.56 2.022H3.861c-1.4 0-2.551 1.151-2.551 2.55v6.47c0 1.4 1.151 2.551 2.551 2.551h1.12a26.07 26.07 0 0 0 3.453 8.429l-.746.747c-.995.995-.995 2.613 0 3.577l4.572 4.572c.995.995 2.613.995 3.577 0l.715-.715c2.551 1.649 5.412 2.831 8.46 3.515v.995c0 1.4 1.151 2.551 2.55 2.551h6.47c1.4 0 2.55-1.151 2.55-2.551v-.995c3.048-.684 5.91-1.897 8.46-3.515l.715.715c.995.995 2.613.995 3.577 0l4.572-4.572c.995-.995.995-2.613 0-3.577l-.746-.747c1.617-2.55 2.768-5.381 3.453-8.429h1.12c1.4 0 2.55-1.151 2.55-2.551v-6.47c0-1.4-1.151-2.55-2.55-2.55h-1.182c-.684-2.986-1.866-5.785-3.484-8.305l.871-.871c.995-.995.995-2.613 0-3.577l-4.666-4.541c-.995-.995-2.613-.995-3.577 0l-.902.902c-2.519-1.586-5.288-2.737-8.274-3.421V3.11c0-1.4-1.151-2.551-2.551-2.551h-6.439c-1.4 0-2.55 1.151-2.55 2.551v1.275c-1.586.435-5.754 1.835-8.274 3.421l-.902-.902c-.995-.995-2.613-.995-3.577 0l-4.572 4.572c-.995.995-.995 2.613 0 3.577l.871.871a26.12 26.12 0 0 0-1.586 2.893l-1.369 3.359zm25.163 21.027c-7.278 0-13.188-5.91-13.188-13.188 0-7.309 5.91-13.219 13.188-13.219s13.188 5.91 13.188 13.188c.031 7.31-5.879 13.219-13.188 13.219z" fill="#ebece9"/><g fill="#244583"><path d="M33.969 59.845h-6.439c-1.617 0-2.955-1.337-2.955-2.955v-.684c-2.831-.653-5.506-1.773-7.994-3.328l-.498.498a2.95 2.95 0 0 1-4.168 0l-4.572-4.572a2.95 2.95 0 0 1 0-4.168l.529-.529a25.54 25.54 0 0 1-3.235-7.932H3.86c-1.617 0-2.955-1.337-2.955-2.955v-6.47c0-1.617 1.337-2.955 2.955-2.955h.84c.124-.56.311-1.151.498-1.742.062-.218.311-.342.529-.28s.342.311.28.529l-.56 1.991c-.031.187-.218.311-.404.311H3.86c-1.182 0-2.115.964-2.115 2.115v6.47c0 1.182.964 2.115 2.115 2.115h1.12c.187 0 .373.124.404.311.653 2.955 1.773 5.723 3.39 8.274.093.156.093.373-.062.498l-.746.746a2.12 2.12 0 0 0 0 3.017l4.572 4.572a2.12 2.12 0 0 0 3.017 0l.715-.715c.124-.124.342-.155.498-.062a25.3 25.3 0 0 0 8.305 3.453c.187.031.311.218.311.404v.995c0 1.182.964 2.115 2.115 2.115h6.47c1.182 0 2.115-.964 2.115-2.115v-.995c0-.187.124-.373.311-.404 2.955-.653 5.754-1.835 8.305-3.453.155-.093.373-.093.498.062l.715.715a2.12 2.12 0 0 0 3.017 0l4.572-4.572a2.12 2.12 0 0 0 0-3.017l-.746-.746c-.124-.124-.156-.342-.062-.498 1.617-2.55 2.737-5.35 3.39-8.274.031-.187.218-.311.404-.311h1.12c1.182 0 2.115-.964 2.115-2.115V26.75c0-1.182-.964-2.115-2.115-2.115h-1.182c-.187 0-.373-.124-.404-.311-.653-2.893-1.835-5.661-3.421-8.18-.093-.155-.093-.373.062-.498l.871-.871a2.12 2.12 0 0 0 0-3.017l-4.572-4.572a2.12 2.12 0 0 0-3.017 0l-.902.902c-.124.124-.342.156-.498.062a25.96 25.96 0 0 0-8.149-3.359c-.187-.031-.311-.218-.311-.404V3.11c0-1.182-.964-2.115-2.115-2.115h-6.439c-1.182 0-2.115.964-2.115 2.115v1.275c0 .187-.124.342-.311.404-1.617.435-5.723 1.835-8.149 3.359-.155.093-.373.093-.498-.062l-.902-.902a2.12 2.12 0 0 0-3.017 0l-4.603 4.572a2.12 2.12 0 0 0 0 3.017l.871.871c.124.124.156.342.062.498-.591.902-1.12 1.866-1.586 2.831-.093.218-.342.28-.56.187s-.28-.342-.187-.56l1.431-2.644-.622-.622a2.95 2.95 0 0 1 0-4.168l4.572-4.572a2.95 2.95 0 0 1 4.168 0l.653.653c2.395-1.431 6.065-2.706 7.807-3.204V3.11c0-1.617 1.337-2.955 2.955-2.955h6.47c1.617 0 2.955 1.337 2.955 2.955v.933c2.768.653 5.381 1.742 7.807 3.204l.653-.653a2.95 2.95 0 0 1 4.168 0l4.572 4.572a2.95 2.95 0 0 1 0 4.168l-.622.622c1.524 2.426 2.613 5.07 3.297 7.838h.84c1.617 0 2.955 1.338 2.955 2.955v6.47c0 1.617-1.337 2.955-2.955 2.955h-.778a27.14 27.14 0 0 1-3.235 7.932l.529.529a2.95 2.95 0 0 1 0 4.168l-4.572 4.572a2.95 2.95 0 0 1-4.168 0l-.498-.498c-2.457 1.524-5.163 2.644-7.994 3.328v.684c0 1.617-1.306 2.955-2.955 2.955zm-3.235-16.236a13.61 13.61 0 0 1-13.593-13.593 13.61 13.61 0 0 1 13.593-13.593 13.61 13.61 0 0 1 13.593 13.593c.031 7.496-6.065 13.593-13.593 13.593zm0-26.407c-7.061 0-12.784 5.723-12.784 12.784s5.723 12.784 12.784 12.784 12.784-5.723 12.784-12.784-5.723-12.784-12.784-12.784z"/><path d="M33.969 60H27.5a3.12 3.12 0 0 1-3.11-3.11v-.56c-2.768-.653-5.381-1.742-7.807-3.235l-.404.404c-.591.591-1.369.902-2.208.902s-1.617-.311-2.208-.902l-4.572-4.572a3.1 3.1 0 0 1 0-4.386l.435-.435a26.94 26.94 0 0 1-3.173-7.776H3.86a3.12 3.12 0 0 1-3.11-3.11v-6.47a3.12 3.12 0 0 1 3.11-3.11h.715l.467-1.648c.093-.311.404-.467.715-.373.156.031.249.155.342.28s.093.28.031.435l-.529 1.991a.57.57 0 0 1-.56.435H3.86a1.95 1.95 0 0 0-1.96 1.96v6.47a1.95 1.95 0 0 0 1.96 1.959h1.12a.57.57 0 0 1 .56.435c.622 2.924 1.773 5.692 3.359 8.243.156.218.124.529-.093.715l-.746.746a1.98 1.98 0 0 0-.591 1.4 1.98 1.98 0 0 0 .591 1.4l4.572 4.572a1.97 1.97 0 0 0 2.799 0l.715-.715a.56.56 0 0 1 .715-.062c2.551 1.617 5.319 2.799 8.274 3.453a.57.57 0 0 1 .436.56v.995a1.95 1.95 0 0 0 1.959 1.959H34a1.95 1.95 0 0 0 1.96-1.959v-.995a.57.57 0 0 1 .435-.56 25.14 25.14 0 0 0 8.274-3.453c.218-.155.529-.124.715.062l.715.715a1.97 1.97 0 0 0 2.799 0l4.572-4.572c.373-.373.591-.871.591-1.4s-.218-1.026-.591-1.4l-.747-.746c-.187-.187-.218-.467-.093-.715 1.586-2.55 2.737-5.319 3.359-8.243a.57.57 0 0 1 .56-.435h1.12a1.95 1.95 0 0 0 1.96-1.959V26.75a1.95 1.95 0 0 0-1.96-1.96h-1.182a.57.57 0 0 1-.56-.435 24.94 24.94 0 0 0-3.422-8.118c-.155-.218-.124-.529.062-.715l.871-.871a1.97 1.97 0 0 0 0-2.799l-4.572-4.572a1.98 1.98 0 0 0-1.4-.591 1.98 1.98 0 0 0-1.4.591l-.902.902c-.187.187-.467.218-.715.093-2.488-1.586-5.225-2.706-8.087-3.328a.57.57 0 0 1-.435-.56V3.11a1.95 1.95 0 0 0-1.96-1.96H27.5a1.95 1.95 0 0 0-1.96 1.96v1.275c0 .249-.187.467-.404.56-1.617.435-5.692 1.804-8.118 3.359-.218.156-.529.124-.715-.093l-.902-.902a1.97 1.97 0 0 0-2.799 0l-4.541 4.572a1.97 1.97 0 0 0 0 2.799l.871.871c.187.187.218.498.062.715-.56.902-1.089 1.835-1.555 2.831a.57.57 0 0 1-.747.28.57.57 0 0 1-.28-.747c.404-.871.871-1.742 1.4-2.55l-.529-.529a3.1 3.1 0 0 1 0-4.386l4.572-4.572a3.1 3.1 0 0 1 4.386 0l.591.591c2.426-1.431 5.972-2.644 7.621-3.11V3.11A3.12 3.12 0 0 1 27.562 0h6.47a3.12 3.12 0 0 1 3.11 3.11v.84c2.706.653 5.257 1.711 7.621 3.142l.56-.591a3.1 3.1 0 0 1 4.386 0l4.541 4.572c.591.591.902 1.369.902 2.208s-.311 1.617-.902 2.208l-.529.529c1.462 2.364 2.55 4.946 3.204 7.652h.715a3.12 3.12 0 0 1 3.11 3.11v6.47a3.12 3.12 0 0 1-3.11 3.11h-.653c-.653 2.737-1.711 5.35-3.173 7.776l.435.435c.591.591.902 1.369.902 2.208s-.311 1.617-.902 2.208l-4.572 4.51a3.1 3.1 0 0 1-4.386 0l-.404-.404c-2.426 1.493-5.039 2.582-7.807 3.235v.56a3.12 3.12 0 0 1-3.11 3.11zm-17.418-7.309l.093.062c2.457 1.524 5.132 2.644 7.932 3.297l.124.031v.809a2.79 2.79 0 0 0 2.799 2.799h6.47a2.79 2.79 0 0 0 2.799-2.799v-.809l.124-.031c2.799-.653 5.474-1.773 7.932-3.297l.093-.062.591.591a2.8 2.8 0 0 0 3.95 0l4.572-4.572c.529-.529.809-1.213.809-1.96s-.28-1.462-.809-1.959l-.622-.622.062-.093a26.96 26.96 0 0 0 3.235-7.901l.031-.124h.902a2.79 2.79 0 0 0 2.799-2.799V26.75a2.79 2.79 0 0 0-2.799-2.799h-.964l-.031-.124c-.653-2.768-1.773-5.381-3.266-7.807l-.062-.093.715-.715c.529-.529.809-1.213.809-1.96s-.28-1.462-.809-1.96l-4.572-4.572a2.8 2.8 0 0 0-3.95 0l-.746.747-.093-.062a26.83 26.83 0 0 0-7.745-3.204l-.124-.031V3.11A2.79 2.79 0 0 0 34 .311h-6.47a2.79 2.79 0 0 0-2.799 2.799v1.089l-.124.031c-1.617.467-5.319 1.742-7.776 3.173l-.093.062-.747-.747C15.462 6.19 14.747 5.91 14 5.91s-1.462.28-1.96.809l-4.572 4.572c-.529.529-.809 1.213-.809 1.96s.28 1.462.809 1.96l.715.715-.062.093c-.529.84-.995 1.711-1.431 2.613-.062.124 0 .28.124.342s.28 0 .342-.125a25.7 25.7 0 0 1 1.586-2.861c.062-.093.062-.249-.031-.311l-.871-.871a2.27 2.27 0 0 1 0-3.235l4.572-4.572a2.27 2.27 0 0 1 3.235 0l.902.902c.093.093.218.093.311.031 2.457-1.555 6.594-2.955 8.212-3.39.124-.031.187-.124.187-.249V3.11c0-1.244 1.026-2.271 2.271-2.271H34c1.244 0 2.271 1.026 2.271 2.271v1.275c0 .124.093.218.187.249 2.924.653 5.661 1.773 8.18 3.39.093.062.218.062.311-.031l.902-.902c.435-.435.995-.653 1.617-.653s1.182.249 1.617.653l4.572 4.572a2.27 2.27 0 0 1 0 3.235l-.871.871a.24.24 0 0 0-.031.311c1.617 2.519 2.799 5.288 3.453 8.243.031.124.124.187.249.187h1.182c1.244 0 2.271 1.026 2.271 2.271v6.47c0 1.244-1.026 2.271-2.271 2.271h-1.12c-.124 0-.218.093-.249.187-.653 2.955-1.804 5.754-3.422 8.336-.062.093-.062.218.031.311l.746.747a2.27 2.27 0 0 1 0 3.235l-4.572 4.572a2.27 2.27 0 0 1-3.235 0l-.715-.715c-.093-.093-.218-.093-.311-.031-2.582 1.649-5.381 2.83-8.367 3.484-.124.031-.187.124-.187.249v.995c0 1.244-1.026 2.271-2.271 2.271H27.5c-1.244 0-2.271-1.026-2.271-2.271v-.995c0-.124-.093-.218-.187-.249-2.986-.653-5.785-1.835-8.367-3.484-.093-.062-.218-.062-.311.031l-.715.715a2.27 2.27 0 0 1-3.235 0l-4.572-4.572a2.27 2.27 0 0 1 0-3.235l.747-.747c.093-.093.093-.218.031-.311-1.617-2.582-2.768-5.381-3.421-8.336-.031-.124-.124-.187-.249-.187H3.86c-1.244 0-2.271-1.026-2.271-2.271V26.75c0-1.244 1.026-2.271 2.271-2.271h1.182c.124 0 .218-.093.249-.187l.56-2.022c.031-.062 0-.124-.031-.187s-.093-.093-.156-.124c-.124-.031-.28.031-.311.156l-.498 1.742-.031.124H3.86a2.79 2.79 0 0 0-2.799 2.799v6.47A2.79 2.79 0 0 0 3.86 36.05h.902l.031.124a26.96 26.96 0 0 0 3.235 7.901l.062.093-.622.622c-.529.529-.809 1.213-.809 1.959s.28 1.462.809 1.96l4.572 4.572c.529.529 1.213.809 1.96.809s1.462-.28 1.96-.809l.591-.591zm14.184-8.927c-7.589 0-13.748-6.159-13.748-13.748s6.159-13.779 13.748-13.779 13.748 6.159 13.748 13.748-6.159 13.779-13.748 13.779zm0-27.216c-7.403 0-13.437 6.034-13.437 13.437s6.034 13.437 13.437 13.437 13.437-6.034 13.437-13.437-6.003-13.437-13.437-13.437zm0 26.376c-7.123 0-12.939-5.816-12.939-12.939s5.816-12.939 12.939-12.939 12.939 5.816 12.939 12.939-5.785 12.939-12.939 12.939zm0-25.568a12.64 12.64 0 0 0-12.628 12.628c0 6.967 5.692 12.628 12.628 12.628s12.628-5.661 12.628-12.628a12.64 12.64 0 0 0-12.628-12.628z"/></g><path d="M52.632 16.143c-.093-.155-.093-.373.062-.498l.871-.871a2.12 2.12 0 0 0 0-3.017l-4.572-4.572a2.12 2.12 0 0 0-3.017 0l-.902.902c-.124.124-.342.156-.498.062a25.54 25.54 0 0 0-7.652-3.235v3.67c0 .373.249.684.56.778 6.532 2.146 11.695 7.278 13.872 13.81.124.342.435.56.778.56h3.764c-.653-2.706-1.773-5.257-3.266-7.59z" fill="#c1c1c1"/><path d="M53.938 51.633l1.742 4.386-4.106 2.519-3.11-3.546c-1.96.56-4.012.622-6.003.156l-2.924 3.701-4.23-2.302 1.524-4.479c-1.462-1.4-2.551-3.173-3.142-5.132l-4.697-.684-.124-4.79 4.603-.902a12.27 12.27 0 0 1 2.862-5.257v-.031l-1.68-4.417 4.106-2.52 3.11 3.577c1.96-.56 4.012-.622 6.003-.155l2.924-3.701 4.23 2.302-1.524 4.479c1.462 1.4 2.55 3.173 3.142 5.132l4.666.684.124 4.79-4.603.902c-.529 1.991-1.524 3.795-2.893 5.288z" fill="#24c4a1"/><path d="M52.538 52.006l1.742 4.386-4.106 2.519-3.11-3.546a11.9 11.9 0 0 1-6.003.156l-2.924 3.701-4.23-2.302 1.524-4.479c-1.462-1.4-2.551-3.173-3.142-5.132l-4.697-.684-.093-4.821 4.603-.902a12.27 12.27 0 0 1 2.862-5.257v-.031l-1.742-4.386 4.106-2.52 3.11 3.577c1.96-.56 4.012-.622 6.003-.155l2.924-3.701 4.23 2.302-1.524 4.479c1.462 1.4 2.551 3.173 3.142 5.132l4.666.684.124 4.79-4.603.902c-.498 1.991-1.493 3.795-2.862 5.288z" fill="#9fefde"/><g fill="#244583"><path d="M39.661 59.16l-4.759-2.582 1.555-4.541c-1.369-1.369-2.395-3.048-2.986-4.915l-4.759-.684-.124-5.412 4.697-.933c.529-1.866 1.462-3.608 2.768-5.07l-1.773-4.448 4.603-2.83 3.173 3.608c1.866-.498 3.857-.56 5.754-.156l2.986-3.764 4.759 2.582L54 34.557c1.369 1.369 2.395 3.048 2.986 4.883l4.759.715.124 5.412-4.697.933c-.529 1.866-1.462 3.608-2.737 5.039l1.773 4.448-4.603 2.831-3.173-3.608c-1.866.498-3.857.56-5.723.156l-3.048 3.795zm-3.857-2.924l3.67 1.991 2.893-3.639.218.062c1.928.436 3.919.404 5.816-.155l.218-.062 3.079 3.484 3.577-2.177-1.711-4.324.187-.155a11.55 11.55 0 0 0 2.768-5.101l.031-.093.093-.156.187-.031 4.324-.871-.093-4.199-4.603-.684-.062-.218c-.56-1.897-1.617-3.608-3.048-4.977l-.156-.156 1.493-4.386-3.67-1.991-2.893 3.639-.218-.062c-1.928-.436-3.919-.404-5.816.155l-.218.062-3.079-3.515-3.577 2.177 1.617 4.292-.156.249c-1.337 1.431-2.302 3.204-2.799 5.101v.031l-.093.187-.155.031-4.324.871.093 4.199 4.603.684.062.218c.56 1.897 1.617 3.608 3.017 4.977l.156.156-1.431 4.386z"/><path d="M39.692 59.378l-4.977-2.706 1.555-4.572c-1.337-1.337-2.333-3.017-2.924-4.79l-4.79-.684-.124-5.661 4.728-.933a12.82 12.82 0 0 1 2.706-4.946l-1.773-4.479 4.852-2.955 3.204 3.639c1.835-.467 3.764-.529 5.63-.155l2.986-3.795 4.977 2.706-1.555 4.572c1.337 1.337 2.333 3.017 2.924 4.79l4.79.715.156 5.661-4.728.933c-.529 1.835-1.431 3.515-2.706 4.946l1.773 4.479-4.852 2.955-3.204-3.639c-1.835.467-3.764.529-5.63.124l-3.017 3.795zm-4.603-2.862l4.51 2.457 2.955-3.733.093.031c1.866.404 3.826.342 5.661-.124l.093-.031 3.142 3.577 4.386-2.675-1.742-4.417.062-.062a12.37 12.37 0 0 0 2.706-4.977l.031-.093 4.666-.933-.124-5.132-4.728-.715-.031-.093c-.591-1.804-1.617-3.484-2.955-4.821l-.062-.062 1.524-4.51-4.479-2.52-2.955 3.732-.093-.031c-1.866-.404-3.826-.342-5.661.155l-.093.031-3.142-3.577-4.386 2.675 1.742 4.417-.062.062a12.73 12.73 0 0 0-2.737 5.008l-.031.093-4.666.933.124 5.163 4.728.684.031.093c.591 1.804 1.617 3.484 2.955 4.852l.062.062-1.524 4.479zm4.417 1.928l-3.919-2.115 1.524-4.417-.093-.093a12.09 12.09 0 0 1-3.079-5.039l-.031-.124-4.635-.684-.124-4.448 4.541-.902.062-.125a12.15 12.15 0 0 1 2.799-5.163l.093-.156-1.68-4.355 3.795-2.333 3.079 3.546.124-.031c1.928-.56 3.95-.622 5.91-.155l.124.031 2.893-3.67 3.919 2.115-1.524 4.417.093.093a12.09 12.09 0 0 1 3.079 5.039l.031.124 4.635.684.124 4.448-4.541.902-.062.156c-.498 1.897-1.462 3.701-2.799 5.163l-.124.093 1.711 4.355-3.795 2.333-3.079-3.515-.124.031c-1.928.56-3.95.591-5.91.155l-.124-.031-2.893 3.67zm-3.515-2.271l3.453 1.866 2.862-3.608.311.062c1.897.435 3.888.404 5.754-.156l.311-.093 3.048 3.484 3.359-2.053-1.711-4.292.249-.249c1.306-1.4 2.239-3.142 2.737-5.039l.031-.093.124-.218.249-.062 4.199-.84-.093-3.919-4.572-.684-.093-.311c-.56-1.866-1.617-3.546-2.986-4.914l-.249-.218 1.493-4.355-3.453-1.866-2.862 3.608-.311-.062c-1.897-.435-3.888-.404-5.754.155l-.311.093-3.079-3.484-3.359 2.053 1.68 4.199-.218.342c-1.306 1.431-2.271 3.173-2.737 5.039l-.031.093-.124.249-.249.062-4.199.84.093 3.919 4.572.653.093.311c.56 1.866 1.586 3.546 2.986 4.914l.249.218-1.462 4.355z"/></g><path d="M45.167 49.145c3.161 0 5.723-2.562 5.723-5.723s-2.562-5.723-5.723-5.723-5.723 2.562-5.723 5.723 2.562 5.723 5.723 5.723z" fill="#ebece9"/><g fill="#244583"><path d="M45.136 49.549c-.995 0-1.991-.249-2.893-.747-2.955-1.617-4.044-5.319-2.426-8.274s5.319-4.043 8.274-2.426c1.431.778 2.457 2.084 2.924 3.639s.28 3.204-.498 4.634c-1.12 1.991-3.204 3.173-5.381 3.173zm.031-11.478c-1.897 0-3.764 1.026-4.728 2.799-1.431 2.613-.467 5.879 2.146 7.278a5.39 5.39 0 0 0 4.106.435c1.369-.404 2.519-1.337 3.204-2.582s.84-2.706.436-4.106c-.404-1.369-1.337-2.519-2.582-3.204-.84-.435-1.711-.622-2.582-.622z"/><path d="M45.136 49.705a6.34 6.34 0 0 1-2.986-.747c-3.017-1.648-4.137-5.443-2.488-8.491 1.649-3.017 5.443-4.137 8.492-2.488 1.462.809 2.55 2.115 3.017 3.733a6.32 6.32 0 0 1-.498 4.759c-1.12 1.959-3.235 3.235-5.536 3.235zm.031-12.224c-2.115 0-4.168 1.12-5.225 3.111-1.555 2.893-.498 6.501 2.364 8.056.871.467 1.835.715 2.831.715 2.177 0 4.199-1.182 5.225-3.111.746-1.4.933-2.986.467-4.51-.435-1.524-1.462-2.768-2.862-3.546-.871-.467-1.835-.715-2.799-.715zm-.031 11.478c-.902 0-1.804-.218-2.644-.684-1.306-.715-2.239-1.866-2.644-3.297s-.249-2.924.435-4.199a5.54 5.54 0 0 1 4.852-2.893c.902 0 1.835.218 2.644.684a5.54 5.54 0 0 1 2.675 3.297c.404 1.431.249 2.924-.435 4.199a5.54 5.54 0 0 1-3.297 2.675c-.529.156-1.057.218-1.586.218zm.031-10.731c-1.928 0-3.67 1.057-4.603 2.737-.653 1.213-.809 2.644-.435 3.981.404 1.337 1.275 2.457 2.519 3.11 1.213.653 2.644.809 3.981.435a5.22 5.22 0 0 0 3.11-2.519c.684-1.244.809-2.644.436-3.981a5.22 5.22 0 0 0-2.52-3.11c-.778-.435-1.617-.653-2.488-.653z"/></g><path d="M41.185 53.002c-.031 0-.062 0-.093-.031a7.18 7.18 0 0 1-1.089-.56c-.124-.062-.155-.249-.062-.342.062-.124.218-.155.342-.093l1.027.529c.124.062.187.218.124.342-.062.093-.156.156-.249.156zm-1.928-1.12c-.062 0-.124-.031-.156-.062-1.369-1.026-2.426-2.426-3.079-4.013-.062-.124 0-.28.155-.342.124-.062.28 0 .342.155a9.1 9.1 0 0 0 2.924 3.826c.124.093.124.249.062.342-.093.062-.155.093-.249.093zm-18.569-.498c-.062 0-.155-.031-.218-.031a16.61 16.61 0 0 1-2.333-1.213c-.249-.156-.342-.498-.155-.746.155-.249.467-.311.747-.187.715.435 1.462.809 2.208 1.151.28.124.404.435.28.715-.125.187-.311.311-.529.311zm-4.106-2.395c-.124 0-.249-.031-.342-.124a20.26 20.26 0 0 1-6.625-8.678c-.124-.28.031-.591.311-.715s.591.031.715.311c1.306 3.266 3.484 6.096 6.283 8.212.249.187.28.529.093.778-.093.124-.249.218-.435.218z" fill="#fff"/></svg>