<svg xmlns="http://www.w3.org/2000/svg" xmlns:xlink="http://www.w3.org/1999/xlink" width="120" height="80" fill="none" xmlns:v="https://vecta.io/nano"><path d="M77.461 47.294c-2.366-1.288-5.032-1.947-7.727-1.947H47.181c-9.704.03-17.581 8.506-17.581 18.989v7.218h41.573l6.29-24.26z" fill="#9fefde"/><g fill="#323c6b"><use xlink:href="#B"/><use xlink:href="#B" y="5.72"/><use xlink:href="#B" y="11.441"/></g><path d="M71.172 72.153H29.599a.6.6 0 0 1-.599-.599v-7.218c0-10.782 8.147-19.558 18.181-19.558h22.553c2.785 0 5.541.689 7.997 2.007.24.12.359.419.299.689l-6.32 24.26a.55.55 0 0 1-.539.419zm-40.973-1.198h40.494l6.08-23.332c-2.187-1.078-4.583-1.647-7.039-1.647H47.181c-9.375 0-16.982 8.237-16.982 18.36v6.619z" fill="#244583"/><path d="M44.575 25.609s-3.145-.269-4.193 1.857 1.527 7.578 4.672 7.308" fill="#ebece9"/><path d="M44.814 35.373c-1.587-.15-3.025-1.048-3.804-2.456-1.168-1.677-1.917-4.193-1.168-5.751 1.228-2.486 4.643-2.216 4.792-2.186.33.03.569.329.539.659s-.33.569-.659.539c-.03 0-2.755-.21-3.594 1.527-.479.959.03 2.995 1.078 4.523.599 1.108 1.737 1.857 2.995 1.917.329-.03.629.21.659.539s-.21.629-.539.659c-.09.03-.18.03-.3.03z" fill="#244583"/><path d="M71.95 25.549s3.145-.27 4.193 1.857-1.528 7.578-4.672 7.308" fill="#ebece9"/><path d="M71.681 35.343h-.27c-.329-.03-.569-.33-.539-.659s.329-.569.659-.539c1.258-.06 2.396-.779 2.995-1.917 1.078-1.557 1.557-3.594 1.078-4.523-.869-1.737-3.564-1.527-3.594-1.527-.329.03-.629-.21-.659-.539s.21-.629.539-.659c.15 0 3.564-.27 4.792 2.186.749 1.527-.03 4.043-1.168 5.751a5.07 5.07 0 0 1-3.834 2.426z" fill="#244583"/><path d="M67.008 40.285l.809 5.092-9.375 5.122-9.375-5.122.779-4.882 17.162-.21z" fill="#fcd462"/><path d="M58.442 51.097c-.09 0-.21-.03-.3-.06l-9.375-5.122a.7.7 0 0 1-.299-.36c-.03-.09-.03-.18-.03-.269l.779-4.882c.06-.3.3-.509.599-.509l17.132-.21c.299 0 .569.21.599.509l.809 5.092v.18a.68.68 0 0 1-.299.449l-9.375 5.122c-.03.03-.12.06-.24.06zm-8.686-6.05l8.716 4.762 8.716-4.762-.659-4.163-16.114.18-.659 3.983z" fill="#323c6b"/><path d="M37.836 24.291c-.27 0-.509-.18-.569-.449a28.36 28.36 0 0 1-1.078-7.428.68.68 0 0 1 .599-.659c.3-.03.569.21.599.509v.03.12c.03 2.396.389 4.792 1.048 7.128a.6.6 0 0 1-.419.749h-.18zm-.719-9.944h-.12c-.329-.06-.539-.359-.479-.689l.03-.24c.06-.299.09-.599.18-.869.06-.329.389-.539.719-.449.33.06.539.389.449.719l-.15.809-.06.24c-.03.27-.3.479-.569.479zm35.492 14.736c0 5.092-2.905 10.693-7.218 14.376a7.84 7.84 0 0 1-5.122 1.827h-3.834c-1.887 0-3.684-.629-5.122-1.827-3.983-3.295-6.529-7.997-7.158-13.118v-.06c.24-5.242.21-8.626 2.246-12.13a13.44 13.44 0 0 0 11.052-.659c5.721-3.055 8.566-3.385 11.142-1.108 2.576 2.246 4.014 12.699 4.014 12.699z" fill="#ebece9"/><g fill="#c1c1c1"><path d="M72.609 29.083c0 5.092-2.905 10.693-7.218 14.376a7.97 7.97 0 0 1-5.122 1.857h-3.834c-1.528 0-2.995-.419-4.283-1.228.449.06.869.12 1.318.12h3.864c1.887 0 3.684-.629 5.122-1.857 4.313-3.684 7.218-9.285 7.218-14.376 0 0-1.438-10.453-4.014-12.729a2.26 2.26 0 0 0-.419-.329c1.258.06 2.456.569 3.385 1.468 2.546 2.246 3.983 12.699 3.983 12.699z"/><path d="M72.609 29.083s-1.438-10.453-4.014-12.729c-2.546-2.276-5.421-1.947-11.142 1.108-3.414 1.797-7.458 2.037-11.052.659-2.037 3.504-1.977 6.889-2.246 12.13v.06c-1.767-4.313-3.774-9.045-3.774-14.167.12-2.516.809-5.002 1.977-7.248 0 0 0-.03.06-.09a3.65 3.65 0 0 1 4.852-1.438s5.871-9.554 18.21-5.93c.03 0 .06.03.09.03a14.81 14.81 0 0 1 10.004 12.16c.719 4.433-.15 11.621-2.965 15.455z"/></g><g fill="#244583"><path d="M44.156 30.91c-.24 0-.449-.12-.539-.329l-.18-.449c-1.707-4.193-3.654-8.925-3.654-13.987.12-2.636.839-5.182 2.037-7.518l.06-.12c1.018-1.827 3.205-2.636 5.152-1.887 1.348-1.857 7.488-9.045 18.6-5.781.03 0 .18.06.18.09a15.29 15.29 0 0 1 10.333 12.609c.779 4.732-.18 11.98-3.055 15.904-.18.27-.569.329-.839.12-.12-.09-.21-.24-.24-.419-.389-2.845-1.857-10.603-3.834-12.37-2.306-2.037-4.942-1.737-10.453 1.198-3.414 1.797-7.428 2.127-11.082.899-1.527 2.905-1.677 5.781-1.857 10.063l-.06 1.378c0 .3-.21.539-.509.599h-.06zm1.348-23.362c-1.078.06-2.067.629-2.606 1.587-1.138 2.186-1.797 4.583-1.947 7.068.18 3.924 1.078 7.817 2.696 11.411.18-3.834.479-6.739 2.187-9.734.15-.27.479-.359.749-.24a12.96 12.96 0 0 0 10.543-.659c5.99-3.205 9.075-3.474 11.801-1.048 2.127 1.857 3.445 8.356 3.954 11.471 1.947-4.283 2.666-9.015 2.007-13.688-.689-5.421-4.433-9.974-9.614-11.681-.03 0-.12-.06-.15-.06C53.5-1.467 47.81 7.578 47.75 7.668c-.15.27-.479.359-.749.24a3.34 3.34 0 0 0-1.498-.359z"/><path d="M60.299 45.886h-3.864c-2.007 0-3.954-.689-5.511-1.977a20.77 20.77 0 0 1-7.368-13.538v-.15l.06-1.378c.21-4.493.329-7.727 2.246-11.022.15-.27.479-.359.749-.24a12.96 12.96 0 0 0 10.543-.659c6.08-3.235 9.045-3.504 11.831-1.048 2.666 2.366 4.073 12.01 4.223 13.089v.09c0 5.152-2.905 10.962-7.428 14.826-1.528 1.318-3.474 2.037-5.481 2.007zM46.672 18.9c-1.527 2.905-1.647 5.781-1.857 10.034l-.06 1.378c.599 4.972 3.085 9.494 6.949 12.699 1.318 1.108 2.995 1.707 4.732 1.677h3.864c1.737.03 3.415-.599 4.732-1.707 4.223-3.624 6.979-9.075 7.009-13.897-.389-2.875-1.857-10.573-3.834-12.31-2.306-2.037-4.942-1.737-10.453 1.198a14.03 14.03 0 0 1-11.082.928z"/></g><path d="M41.19 71.494a.6.6 0 0 1-.599-.599v-12.46a.6.6 0 0 1 .599-.599.6.6 0 0 1 .599.599v12.46a.6.6 0 0 1-.599.599z" fill="#323c6b"/><use xlink:href="#C" fill="#e1e6e9"/><use xlink:href="#D" fill="#323c6b"/><g fill="#ebece9"><path d="M77.761 35.852h-.899a.73.73 0 0 1-.719-.719.73.73 0 0 1 .719-.719h.899a.73.73 0 0 1 .719.719c.03.389-.3.719-.719.719zm11.681 6.14c-.359 0-.659-.269-.719-.629-.449-3.145-3.115-5.511-6.29-5.511h-1.677a.73.73 0 0 1-.719-.719.73.73 0 0 1 .719-.719h1.677a7.86 7.86 0 0 1 7.727 6.769c.06.389-.21.749-.629.809h-.09z"/><use xlink:href="#C"/></g><path d="M85.189 42.232v27.974a2.75 2.75 0 0 1-2.756 2.755h-.419c.03-.06.03-.15.03-.24V44.748a2.75 2.75 0 0 0-2.755-2.755H39.813c.12-1.438 1.318-2.546 2.755-2.546h39.865c1.528.03 2.756 1.258 2.756 2.785zM69.704 79.281H55.297l1.228-6.32h11.95l1.228 6.32z" fill="#c1c1c1"/><g fill="#244583"><path d="M69.704 80H55.298a.64.64 0 0 1-.539-.27c-.15-.18-.18-.389-.15-.599l1.228-6.32c.06-.33.359-.569.719-.569h11.951c.359 0 .629.24.719.569l1.228 6.32c.03.21 0 .419-.15.599s-.359.27-.599.27zm-13.538-1.438h12.669l-.959-4.852H57.125l-.958 4.852z"/><path d="M71.771 80h-18.51a.73.73 0 0 1-.719-.719.73.73 0 0 1 .719-.719h18.51a.73.73 0 0 1 .719.719.73.73 0 0 1-.719.719z"/><use xlink:href="#D"/></g><defs ><path id="B" d="M58.083 57.148a1.17 1.17 0 0 0 1.168-1.168 1.17 1.17 0 0 0-1.168-1.168 1.17 1.17 0 0 0-1.168 1.168 1.17 1.17 0 0 0 1.168 1.168z"/><path id="C" d="M42.568 39.476h39.865a2.75 2.75 0 0 1 2.756 2.755v27.974a2.75 2.75 0 0 1-2.756 2.755H42.568a2.75 2.75 0 0 1-2.755-2.755V42.232a2.75 2.75 0 0 1 2.755-2.755z"/><path id="D" d="M82.433 73.681H42.568a3.48 3.48 0 0 1-3.474-3.474V42.232a3.48 3.48 0 0 1 3.474-3.474h39.865a3.48 3.48 0 0 1 3.474 3.474v27.974c.03 1.917-1.528 3.474-3.474 3.474zM42.568 40.195a2.04 2.04 0 0 0-2.037 2.037v27.974a2.02 2.02 0 0 0 2.037 2.037h39.865a2.04 2.04 0 0 0 2.037-2.037V42.232a2.04 2.04 0 0 0-2.037-2.037H42.568z"/></defs></svg>