<svg xmlns="http://www.w3.org/2000/svg" width="96" height="80" fill="none" xmlns:v="https://vecta.io/nano"><g clip-path="url(#A)"><g fill="#244583"><path d="M6.563.591h0-.009C3.593.643 1.153 2.93.893 5.888l-.002.022v.022c-.031.012-.046.006-.055.001-.015-.007-.02-.013-.02-.013h0A.17.17 0 0 1 .8 5.851 5.81 5.81 0 0 1 6.563.5h8.161c.029.009.04.015.048.024s.014.016.017.022.005.013.005.023-.012.01-.023.014-.03.008-.046.008H6.563z" stroke="#244583"/><path d="M21.178 1.091h-2.989c-.285 0-.569-.237-.569-.569S17.856 0 18.189 0h2.989c.285 0 .569.237.569.569s-.237.522-.569.522zM65.164 61.4c-.285 0-.569-.237-.569-.569v-2.942c0-.285.237-.569.569-.569s.569.237.569.569v2.942c0 .285-.285.569-.569.569zm0 14.852c-.285 0-.569-.237-.569-.569v-12.1c0-.285.237-.569.569-.569s.569.237.569.569V75.73c0 .285-.285.522-.569.522z"/></g><path d="M61.873 18.885v-.007l-.142-12.52a2.59 2.59 0 0 0-2.545-2.545H6.564c-1.375 0-2.498 1.123-2.498 2.498v70.558c0 1.375 1.123 2.498 2.498 2.498h52.811c1.375 0 2.498-1.123 2.498-2.498V18.885z" fill="#ebece9" stroke="#244583" stroke-width="1.2"/><g fill="#c1c1c1"><path d="M61.225 6.358c0-1.044-1.471-1.945-3.227-1.945H54.63c1.756 0 3.227.854 3.227 1.945l.237 12.527v57.983c0 1.044-1.376 1.898-3.132 1.898h3.369c1.708 0 3.132-.854 3.132-1.898V18.885l-.237-12.527zm16.94 36.726l2.705 2.847c.854.854.854 2.23 0 3.084l-6.88 6.88c-.854.854-2.23.854-3.084 0l-2.515-2.61s4.413-2.799 5.694-4.081c1.234-1.234 4.081-6.121 4.081-6.121z"/></g><path d="M72.471 56.94a2.62 2.62 0 0 1-1.851-.759l-2.705-2.705a.5.5 0 0 1 0-.617.5.5 0 0 1 .617 0l2.705 2.705c.712.664 1.756.664 2.467 0l6.88-6.88a1.78 1.78 0 0 0 0-2.467L77.5 43.132c-.19-.142-.237-.427-.047-.617.142-.19.427-.237.617-.047l.047.047 3.084 3.084c.996.996.996 2.657 0 3.701l-6.88 6.88a2.62 2.62 0 0 1-1.85.759z" fill="#22417d"/><path d="M58.094 55.658A22.59 22.59 0 0 0 80.68 33.072a22.59 22.59 0 0 0-22.586-22.586 22.59 22.59 0 0 0-22.586 22.586 22.59 22.59 0 0 0 22.586 22.586z" fill="#ebece9"/><path d="M58.094 56.085c-12.717 0-23.013-10.297-23.013-23.013s10.297-23.013 23.013-23.013 23.013 10.297 23.013 23.013S70.81 56.085 58.094 56.085zm0-45.172c-12.242 0-22.159 9.917-22.159 22.159s9.917 22.159 22.159 22.159 22.159-9.917 22.159-22.159a22.22 22.22 0 0 0-22.159-22.159z" fill="#323c6b"/><path d="M58.094 10.486c-5.979 0-11.72 2.372-15.943 6.596 10.249-7.07 24.342-4.508 31.412 5.741 6.216 8.968 5.077 21.115-2.657 28.849 10.249-7.07 12.859-21.115 5.789-31.412a22.63 22.63 0 0 0-18.6-9.775z" fill="#c1c1c1"/><path d="M74.701 55.231l12.764 12.764c1.518 1.518 3.986 1.518 5.552 0 1.518-1.518 1.518-3.986 0-5.552L80.253 49.68l-5.552 5.552z" fill="#9fefde"/><path d="M90.217 69.561c-1.139 0-2.278-.474-3.084-1.281L74.369 55.516c-.19-.19-.19-.427 0-.617l5.552-5.504c.19-.19.427-.19.617 0l12.764 12.764c1.708 1.708 1.708 4.46 0 6.121-.807.807-1.945 1.281-3.084 1.281zm-14.899-14.33l12.479 12.479c1.329 1.376 3.559 1.376 4.935.047s1.376-3.559.047-4.935l-.047-.048-12.527-12.479-4.887 4.935z" fill="#244583"/><g fill="#fff"><path d="M88.319 65.575c-.237.237-.569.237-.759 0l-3.796-3.796c-.237-.19-.237-.569 0-.759.237-.237.569-.237.807 0l3.796 3.796c.19.19.19.522-.047.759zm-5.124-5.931c.237.237.237.569 0 .807a.54.54 0 0 1-.38.142.54.54 0 0 1-.38-.142l-1.281-1.281a.59.59 0 0 1 .047-.807c.237-.19.569-.19.759 0l1.234 1.281z"/></g><g fill="#244583"><path d="M34.981 33.072c0 12.772 10.341 23.113 23.113 23.113s23.113-10.341 23.113-23.113S70.865 9.959 58.094 9.959 34.981 20.301 34.981 33.072zm1.054 0c0-12.187 9.872-22.059 22.059-22.059a22.12 22.12 0 0 1 22.059 22.059c0 12.187-9.872 22.059-22.059 22.059s-22.059-9.872-22.059-22.059z" stroke="#244583" stroke-width=".2"/><path d="M84.049 68.66c-.095 0-.237-.047-.285-.142l-1.471-1.471c-.19-.19-.19-.427 0-.617s.427-.19.617 0l1.471 1.471c.19.19.19.427 0 .617a.43.43 0 0 1-.332.142zm6.168 3.463c-1.85 0-3.606-.712-4.887-2.04-.19-.142-.19-.427 0-.617.142-.19.427-.19.617 0a6.07 6.07 0 0 0 8.588 0c.142-.19.427-.19.617 0s.19.427 0 .617c-1.329 1.329-3.084 2.088-4.935 2.04zM74.132 14.187c-.095 0-.19-.047-.285-.095l-1.566-1.234c-.19-.142-.237-.38-.142-.617s.38-.237.617-.142h.047c.522.332 1.044.759 1.661 1.281.19.142.19.427.047.617-.095.095-.237.19-.38.19zm8.446 13.429c-.19 0-.38-.142-.427-.332-1.044-4.223-3.179-8.114-6.168-11.293a.5.5 0 0 1 0-.617c.142-.19.427-.142.617 0 3.132 3.274 5.314 7.307 6.406 11.673.048.237-.095.475-.332.522-.047.047-.095.047-.095.047z"/></g><g fill="#fff"><path d="M52.447 49.727c-.095 0-.142 0-.19-.048a19.09 19.09 0 0 1-2.183-1.139c-.237-.142-.332-.474-.142-.712.142-.237.427-.285.664-.19l2.088 1.091c.285.095.38.427.285.664-.095.19-.285.332-.522.332zm-3.843-2.277a.87.87 0 0 1-.332-.095 19.9 19.9 0 0 1-6.216-8.161c-.095-.285 0-.569.285-.664s.569 0 .664.285c1.234 3.037 3.274 5.694 5.931 7.734.237.19.285.474.095.712-.095.142-.237.19-.427.19z"/></g><g fill="#244583"><path d="M53.017 63.25H12.922c-.332 0-.569.273-.569.6s.237.6.569.6h40.142c.332 0 .569-.273.569-.6s-.285-.6-.617-.6zm-12.954-8.825H12.922c-.332 0-.569.273-.569.6s.237.6.569.6h27.141c.332 0 .569-.273.569-.6 0-.382-.237-.6-.569-.6zm-8.067-8.873H12.922c-.332 0-.569.273-.569.6s.237.6.569.6h19.075c.332 0 .569-.273.569-.6a.61.61 0 0 0-.569-.6zm-1.755-9.111H12.922c-.332 0-.569.273-.569.6s.237.6.569.6h17.367c.332 0 .569-.273.569-.6s-.285-.6-.617-.6zm.332-8.825H12.922c-.332 0-.569.273-.569.6s.237.6.569.6h17.651c.332 0 .569-.273.569-.6s-.237-.6-.569-.6zm3.321-8.873H12.922c-.332 0-.569.273-.569.6s.237.6.569.6h20.973c.332 0 .569-.273.569-.6a.61.61 0 0 0-.569-.6z"/></g></g><defs><clipPath id="A"><path fill="#fff" transform="translate(.3)" d="M0 0h94.947v80H0z"/></clipPath></defs></svg>