<svg xmlns="http://www.w3.org/2000/svg" xmlns:xlink="http://www.w3.org/1999/xlink" width="64" height="60" fill="none" xmlns:v="https://vecta.io/nano"><path d="M2.809 0h36.373a2.05 2.05 0 0 1 2.059 2.059v48.595a2.05 2.05 0 0 1-2.059 2.059l-36.536.033C1.6 52.745.75 51.895.75 50.85V2.059A2.05 2.05 0 0 1 2.809 0zm.065.719a1.31 1.31 0 0 0-1.307 1.307v48.595a1.31 1.31 0 0 0 1.307 1.307h36.373a1.31 1.31 0 0 0 1.307-1.307V10.686l-.098-8.627a1.37 1.37 0 0 0-1.34-1.34H2.874z" fill="#22417d"/><path d="M2.874.719a1.31 1.31 0 0 0-1.307 1.307v48.595a1.31 1.31 0 0 0 1.307 1.307h36.373a1.31 1.31 0 0 0 1.307-1.307V10.686l-.098-8.627a1.37 1.37 0 0 0-1.34-1.34H2.874z" fill="#ebece9"/><path d="M6.077 3.268h36.373a2.05 2.05 0 0 1 2.059 2.059v48.595a2.05 2.05 0 0 1-2.059 2.059l-36.536.033c-1.046 0-1.895-.85-1.895-1.895V5.327a2.05 2.05 0 0 1 2.059-2.059zm.065.719a1.31 1.31 0 0 0-1.307 1.307v48.595a1.31 1.31 0 0 0 1.307 1.307h36.373a1.31 1.31 0 0 0 1.307-1.307V13.954l-.098-8.627a1.37 1.37 0 0 0-1.34-1.34H6.142z" fill="#22417d"/><path d="M6.142 3.987a1.31 1.31 0 0 0-1.307 1.307v48.595a1.31 1.31 0 0 0 1.307 1.307h36.373a1.31 1.31 0 0 0 1.307-1.307V13.954l-.098-8.627a1.37 1.37 0 0 0-1.34-1.34H6.142z" fill="#ebece9"/><path d="M9.508 6.438h36.373a2.05 2.05 0 0 1 2.059 2.059v48.595a2.05 2.05 0 0 1-2.059 2.059l-36.536.033c-1.046 0-1.895-.85-1.895-1.895V8.497a2.05 2.05 0 0 1 2.059-2.059zm.065.719a1.31 1.31 0 0 0-1.307 1.307v48.595a1.31 1.31 0 0 0 1.307 1.307h36.373a1.31 1.31 0 0 0 1.307-1.307V17.124l-.098-8.627a1.37 1.37 0 0 0-1.34-1.34H9.573z" fill="#22417d"/><path d="M9.573 7.157a1.31 1.31 0 0 0-1.307 1.307v48.595a1.31 1.31 0 0 0 1.307 1.307h36.373a1.31 1.31 0 0 0 1.307-1.307V17.092l-.098-8.627a1.37 1.37 0 0 0-1.34-1.34l-36.242.033z" fill="#ebece9"/><path d="M47.221 8.464c0-.719-1.013-1.34-2.222-1.34h-2.32c1.209 0 2.222.588 2.222 1.34l.163 8.627v39.935c0 .719-.948 1.307-2.157 1.307h2.32c1.176 0 2.157-.588 2.157-1.307V17.092l-.163-8.627z" fill="#c1c1c1"/><path d="M47.449 37.549l2.255 2.386c.719.719.719 1.863 0 2.549l-5.719 5.719c-.719.719-1.863.719-2.549 0l-2.091-2.19s3.693-2.353 4.739-3.399c1.013-.98 3.366-5.065 3.366-5.065z" fill="#c7cfd6"/><path d="M42.711 49.118c-.588 0-1.144-.229-1.536-.621l-2.222-2.222c-.131-.131-.131-.359 0-.523.131-.131.359-.131.49 0l2.222 2.222a1.48 1.48 0 0 0 2.059 0l5.719-5.719a1.48 1.48 0 0 0 0-2.059l-2.582-2.582c-.163-.131-.163-.359-.065-.49.131-.163.359-.163.49-.065.033 0 .033.033.065.065l2.582 2.582a2.17 2.17 0 0 1 0 3.072l-5.719 5.719c-.359.392-.915.621-1.503.621z" fill="#22417d"/><path d="M30.717 48.039c10.396 0 18.824-8.428 18.824-18.824s-8.428-18.823-18.823-18.823-18.823 8.428-18.823 18.824 8.428 18.824 18.824 18.824z" fill="#ebece9"/><use xlink:href="#B" fill="#323c6b"/><path d="M30.717 10.425c-5 0-9.771 1.961-13.301 5.49 8.562-5.915 20.261-3.758 26.177 4.804 5.163 7.484 4.248 17.582-2.19 24.02 8.562-5.882 10.719-17.614 4.804-26.176-3.497-5.098-9.281-8.137-15.49-8.137z" fill="#c1c1c1"/><path d="M44.541 47.68l10.654 10.621c1.275 1.275 3.333 1.275 4.608 0s1.275-3.333 0-4.608L49.181 43.072l-4.641 4.608z" fill="#9fefde"/><path d="M57.482 59.608c-.948 0-1.895-.392-2.549-1.046L44.312 47.908c-.131-.131-.131-.359 0-.523l4.608-4.608c.131-.131.36-.131.523 0l10.621 10.621c1.405 1.405 1.405 3.693 0 5.131-.686.719-1.601 1.078-2.582 1.078zM45.064 47.68l10.392 10.392a2.86 2.86 0 1 0 4.118-4.052l-.033-.033-10.392-10.392-4.085 4.085z" fill="#22417d"/><path d="M55.914 56.307c-.163.196-.458.196-.654 0l-3.17-3.17c-.196-.163-.196-.458 0-.654.196-.163.49-.163.654 0l3.17 3.17c.196.163.196.458 0 .654zm-4.282-4.934c.163.196.163.49 0 .654a.42.42 0 0 1-.327.131c-.131 0-.229-.065-.327-.131l-1.046-1.046c-.163-.196-.163-.49.033-.654.163-.163.457-.163.621 0l1.046 1.046z" fill="#fff"/><g fill="#22417d"><use xlink:href="#B"/><path d="M60.652 50.654c0-.098-.033-.196-.098-.261l-1.242-1.242c-.131-.131-.359-.131-.523 0-.131.131-.131.359 0 .523l1.242 1.242c.131.131.36.131.523 0 .065-.065.098-.163.098-.261zm2.909 5.13a5.79 5.79 0 0 0-1.699-4.085c-.131-.131-.359-.131-.523 0-.131.131-.131.359 0 .523 1.961 1.961 1.961 5.163 0 7.157-.131.131-.131.359 0 .523.131.131.36.131.523 0 1.078-1.111 1.699-2.582 1.699-4.118zM14.639 43.105c0-.098-.033-.163-.098-.229-.425-.49-.719-.915-1.013-1.307-.098-.163-.327-.229-.49-.098-.163.098-.229.327-.098.49 0 0 0 .033.033.033l1.046 1.373a.33.33 0 0 0 .49.033c.065-.098.131-.196.131-.294zm11.209 6.993c0-.163-.098-.294-.261-.359-3.529-.85-6.765-2.647-9.412-5.131-.131-.131-.36-.131-.523 0-.131.131-.131.36 0 .523 2.712 2.614 6.078 4.444 9.739 5.327.196.033.392-.065.425-.262.033-.033.033-.065.033-.098z"/></g><path d="M19.868 22.288h5.261v16.83h-5.261v-16.83z" fill="#9fefde"/><path d="M23.07 22.288h2.092v16.83H23.07v-16.83z" fill="#24c4a1"/><path d="M25.129 39.445h-5.261c-.196 0-.327-.163-.327-.327v-16.83c0-.196.163-.327.327-.327h5.261c.196 0 .327.457.327.621v16.536c0 .163-.163.327-.327.327zm-4.935-.686h4.575V22.614h-4.575v16.144z" fill="#244583"/><path d="M28.201 26.34h5.229v12.778h-5.229V26.34z" fill="#fed19a"/><path d="M31.338 26.34h2.092v12.778h-2.092V26.34z" fill="#febf2d"/><path d="M33.43 39.445h-5.229c-.196 0-.327-.163-.327-.327v-12.81c0-.196.163-.327.327-.327h5.229c.196 0 .327.163.327.327v12.778c.033.196-.131.359-.327.359zm-4.902-.686h4.575V26.667h-4.575v12.092z" fill="#244583"/><path d="M36.371 20.262h5.261v18.856h-5.261V20.262z" fill="#b6d2dd"/><path d="M39.541 20.262h2.092v18.856h-2.092V20.262z" fill="#acc6cc"/><path d="M41.633 39.445h-5.261c-.196 0-.327-.163-.327-.327V20.262c0-.196.163-.327.327-.327h5.261c.196 0 .327.163.327.327v18.856c0 .163-.163.327-.327.327zm-4.935-.686h4.575v-18.17h-4.575v18.17z" fill="#244583"/><defs ><path id="B" d="M30.717 48.399c-10.588 0-19.183-8.595-19.183-19.183s8.595-19.15 19.183-19.15S49.9 18.66 49.9 29.248c0 10.556-8.595 19.15-19.183 19.15zm0-37.614a18.47 18.47 0 0 0-18.464 18.464 18.47 18.47 0 0 0 18.464 18.464 18.47 18.47 0 0 0 18.464-18.464 18.47 18.47 0 0 0-18.464-18.464z"/></defs></svg>