<svg xmlns="http://www.w3.org/2000/svg" width="103" height="100" fill="none" xmlns:v="https://vecta.io/nano"><path d="M82.545 82.7H64.739a.79.79 0 0 1-.798-.8V61.1a.798.798 0 1 1 1.596 0v20h17.008a.8.8 0 1 1 0 1.6zm-45.088 0H19.651a.8.8 0 1 1 0-1.6h17.008v-20a.798.798 0 1 1 1.596 0v20.8c0 .4-.399.8-.798.8zm13.217 13.45a.79.79 0 0 1-.798-.8V66.651a.798.798 0 1 1 1.596 0V95.35a.79.79 0 0 1-.798.8z" fill="#244583"/><path d="M87.034 29.101c4.239-10.55-.848-22.55-11.372-26.799-7.781-3.15-16.708-1.2-22.494 4.85-8.579-7.45-21.546-6.55-28.978 2.05-2.743 3.15-4.489 7.1-4.938 11.3-12.569 2.7-20.649 15.1-17.955 27.7s15.063 20.7 27.631 18c2.993-.65 5.835-1.85 8.379-3.6 7.581 8.4 20.549 9.05 28.928 1.45.15-.1.249-.25.399-.35 8.23 7.85 21.247 7.5 29.078-.75s7.481-21.3-.748-29.149a20.3 20.3 0 0 0-7.93-4.7z" fill="#ebece9"/><path d="M101.348 48.701c0 11.35-9.177 20.6-20.499 20.6a20.65 20.65 0 0 1-14.215-5.7c-8.18 7.85-21.147 7.55-28.978-.65l-.399-.4c-10.574 7.35-25.088 4.65-32.419-5.95-2.394-3.45-3.791-7.5-4.09-11.7 5.287 11.75 19.053 17 30.823 11.7 1.297-.6 2.494-1.25 3.691-2.1 7.581 8.4 20.549 9.05 28.928 1.45.15-.1.249-.25.399-.4 8.23 7.85 21.197 7.55 29.028-.7 3.641-3.85 5.686-8.95 5.686-14.2v-.9c1.397 2.85 2.095 5.9 2.045 8.95z" fill="#c1c1c1"/><path d="M80.799 70.15c-5.237 0-10.225-1.9-14.165-5.4-8.529 7.6-21.546 7.1-29.477-1.15-11.172 7.25-26.085 4.05-33.317-7.15C1.347 52.55 0 48 0 43.35c.05-11.2 7.681-20.9 18.554-23.499C20.1 8.101 30.873-.099 42.544 1.501c3.89.55 7.531 2.1 10.574 4.55 3.99-3.9 9.327-6.1 14.863-6.05 11.771 0 21.347 9.55 21.347 21.35 0 2.45-.399 4.9-1.247 7.25 11.072 4.05 16.808 16.3 12.818 27.449-3.092 8.45-11.122 14.1-20.1 14.1zm-14.115-7.3c.2 0 .399.1.549.2 7.93 7.55 20.399 7.2 27.931-.7s7.183-20.45-.698-27.999c-2.145-2.05-4.788-3.6-7.631-4.5-.399-.15-.648-.6-.499-1v-.05c4.09-10.15-.848-21.65-10.973-25.75a19.77 19.77 0 0 0-21.646 4.7c-.299.3-.798.35-1.097.05-8.23-7.2-20.699-6.35-27.831 1.9-2.643 3.05-4.289 6.85-4.738 10.85-.05.35-.299.65-.648.7C7.282 23.85-.499 35.85 2.095 48s14.564 19.95 26.684 17.35c2.893-.6 5.636-1.8 8.08-3.5.349-.25.798-.2 1.047.1 7.282 8.1 19.751 8.7 27.831 1.4.15-.1.249-.25.399-.35.15-.05.349-.15.549-.15z" fill="#244583"/><path d="M53.168 7.152s2.245 1.6 3.042 5.65l-3.042-5.65z" fill="#dbe2eb"/><path d="M56.21 13.652c-.399 0-.698-.25-.798-.65-.748-3.7-2.743-5.15-2.743-5.2-.349-.25-.449-.75-.2-1.1s.748-.45 1.097-.2h.05c.1.05 2.494 1.85 3.392 6.15.1.45-.2.85-.599.95-.1.05-.15.05-.2.05z" fill="#2f3a5a"/><path d="M87.034 29.101c-2.394-1-5.038-1.3-7.631-.95l7.631.95z" fill="#dbe2eb"/><path d="M87.034 29.901c-.1 0-.249-.05-.349-.1-2.244-.9-4.738-1.2-7.132-.85-.449.05-.848-.25-.898-.7s.249-.85.648-.9c2.743-.4 5.536-.05 8.08 1 .399.2.549.65.349 1.05-.1.3-.399.45-.698.5z" fill="#2f3a5a"/><path d="M19.252 20.452s4.14-.9 6.883 1.6l-6.883-1.6z" fill="#dbe2eb"/><path d="M26.135 22.851c-.2 0-.399-.05-.549-.2-2.394-2.15-6.135-1.4-6.135-1.4-.449.1-.848-.2-.948-.6s.199-.85.598-.95c.2-.05 4.589-.95 7.581 1.8.349.3.349.8.05 1.15a1.22 1.22 0 0 1-.598.2z" fill="#2f3a5a"/><path d="M50.674 88.1c-3.043 0-5.536 2.5-5.536 5.55s2.494 5.55 5.536 5.55 5.536-2.5 5.536-5.55-2.494-5.55-5.536-5.55z" fill="#9fefde"/><path d="M50.674 100c-3.491 0-6.334-2.85-6.334-6.35s2.843-6.35 6.334-6.35 6.334 2.85 6.334 6.35-2.843 6.35-6.334 6.35zm0-11.1c-2.594 0-4.738 2.1-4.738 4.75a4.71 4.71 0 0 0 4.738 4.75 4.71 4.71 0 0 0 4.738-4.75c0-2.6-2.145-4.75-4.738-4.75z" fill="#244583"/><path d="M82.545 75.851c-3.042 0-5.536 2.5-5.536 5.55s2.494 5.55 5.536 5.55 5.536-2.5 5.536-5.55a5.53 5.53 0 0 0-5.536-5.55z" fill="#fed19a"/><path d="M82.545 87.7c-3.491 0-6.334-2.85-6.334-6.35S79.053 75 82.545 75s6.334 2.85 6.334 6.35a6.32 6.32 0 0 1-6.334 6.35zm0-11.05c-2.594 0-4.738 2.15-4.738 4.75s2.145 4.75 4.738 4.75 4.738-2.15 4.738-4.75c0-2.65-2.145-4.75-4.738-4.75z" fill="#244583"/><path d="M18.404 76.35c-3.042 0-5.536 2.5-5.536 5.55s2.494 5.55 5.536 5.55 5.536-2.5 5.536-5.55a5.53 5.53 0 0 0-5.536-5.55z" fill="#24c4a1"/><path d="M18.404 88.25c-3.491 0-6.334-2.85-6.334-6.35s2.843-6.35 6.334-6.35 6.334 2.85 6.334 6.35-2.843 6.3-6.334 6.35zm0-11.1c-2.593 0-4.738 2.1-4.738 4.75 0 2.6 2.095 4.75 4.738 4.75a4.71 4.71 0 0 0 4.738-4.75c0-2.65-2.145-4.75-4.738-4.75z" fill="#244583"/><path d="M49.343 8.67c-2.392 1.575-7.933 4.783-14.7 6.183-1.05.233-1.808 1.167-1.808 2.217v18.259a18.5 18.5 0 0 0 .875 5.658c1.225 3.967 3.733 7.467 7.117 9.917l8.984 6.534c.467.35 1.108.35 1.633 0l8.983-6.534c3.383-2.45 5.892-5.95 7.117-9.917.583-1.808.875-3.733.875-5.658v-18.2c0-1.108-.758-1.983-1.808-2.217-6.883-1.458-12.425-4.667-14.817-6.242a2.32 2.32 0 0 0-2.45 0z" fill="#9fefde"/><path d="M66.901 14.387c-.175-.058-.35-.058-.583-.117a2.24 2.24 0 0 1 .525 1.458v18.784c0 1.983-.292 3.908-.875 5.833-1.283 4.083-3.967 7.7-7.525 10.209l-9.508 6.709c-.233.175-.467.233-.758.233l.992.7c.525.35 1.225.35 1.692 0l9.509-6.708c3.558-2.508 6.242-6.125 7.525-10.208.583-1.867.875-3.85.875-5.834V16.72c.058-1.108-.758-2.1-1.867-2.333z" fill="#24c4a1"/><g fill="#22417d"><path d="M66.901 13.862c-6.942-1.458-12.6-4.842-14.759-6.242-.992-.642-2.217-.642-3.208 0-2.158 1.4-7.817 4.783-14.759 6.242-1.4.292-2.392 1.517-2.392 2.917v18.609c0 2.042.292 4.025.875 5.95 1.283 4.2 3.967 7.875 7.467 10.442l9.159 6.65c.35.233.758.408 1.167.408s.817-.117 1.167-.408l9.158-6.65c3.558-2.567 6.183-6.3 7.467-10.442.583-1.925.875-3.967.875-5.95V16.779c.175-1.4-.817-2.625-2.217-2.917zm1.108 2.917v18.609c0 1.925-.292 3.792-.817 5.6-1.225 3.908-3.675 7.409-7 9.8l-9.158 6.65c-.292.175-.642.175-.875 0l-9.217-6.65c-3.325-2.392-5.775-5.892-7-9.8-.583-1.808-.817-3.675-.817-5.6V16.779c0-.817.583-1.517 1.4-1.633 6.883-1.458 12.484-4.609 15.167-6.417a1.79 1.79 0 0 1 1.867 0c2.742 1.75 8.342 4.958 15.167 6.417.758.117 1.283.817 1.283 1.633z"/><path d="M50.568 59.013c-.467 0-.933-.117-1.283-.408l-9.158-6.65a20.3 20.3 0 0 1-7.525-10.559 20.8 20.8 0 0 1-.875-6.008V16.779c0-1.458 1.05-2.742 2.508-3.033 6.825-1.458 12.484-4.842 14.642-6.242 1.05-.7 2.392-.642 3.383 0 2.1 1.4 7.817 4.725 14.7 6.183 1.458.292 2.508 1.575 2.508 3.033v18.609c0 2.042-.292 4.083-.875 6.008-1.283 4.2-3.967 7.934-7.525 10.559l-9.158 6.65c-.408.35-.875.467-1.342.467zm0-51.684c-.525 0-1.05.175-1.517.467-2.158 1.4-7.875 4.783-14.817 6.242-1.283.292-2.275 1.4-2.275 2.742v18.609c0 1.983.292 4.025.875 5.892 1.283 4.142 3.908 7.817 7.409 10.383l9.217 6.709a1.93 1.93 0 0 0 2.217 0l9.159-6.65c3.5-2.567 6.125-6.242 7.409-10.383.583-1.925.875-3.908.875-5.892V16.779c0-1.342-.933-2.45-2.275-2.742-6.942-1.458-12.659-4.842-14.817-6.242-.408-.292-.933-.467-1.458-.467zm0 50.459c-.175 0-.408-.058-.525-.175l-9.159-6.65c-3.325-2.45-5.833-5.95-7.058-9.858a18.5 18.5 0 0 1-.875-5.658V16.779c0-.875.642-1.633 1.517-1.808 6.825-1.458 12.425-4.608 15.109-6.358.642-.408 1.4-.408 2.042 0 2.742 1.75 8.283 4.958 15.109 6.358.875.175 1.517.933 1.517 1.808v18.609c0 1.925-.292 3.792-.875 5.658-1.225 3.967-3.733 7.467-7.059 9.859l-9.158 6.65c-.233.175-.408.233-.583.233zm0-49.176c-.292 0-.583.058-.817.233-2.742 1.75-8.342 4.958-15.225 6.417a1.5 1.5 0 0 0-1.225 1.517v18.609c0 1.867.292 3.733.817 5.542 1.167 3.908 3.675 7.35 6.942 9.742l9.158 6.65c.233.175.525.175.7 0l9.158-6.65c3.267-2.392 5.775-5.833 6.942-9.742.525-1.808.817-3.675.817-5.542V16.779c0-.758-.525-1.342-1.225-1.517-6.883-1.458-12.483-4.667-15.225-6.417-.233-.175-.525-.233-.817-.233z"/></g><path d="M56.751 22.962l-9.684 11.084-3.208-2.567c-1.4-1.167-3.5-.933-4.667.467s-.933 3.5.467 4.608l8.108 6.533L61.651 27.22c1.225-1.342 1.05-3.442-.292-4.667-1.342-1.108-3.442-.992-4.608.408z" fill="#ebece9"/><path d="M63.168 24.829a3.75 3.75 0 0 0-1.342-2.683c-1.633-1.4-4.142-1.225-5.542.35l-9.333 10.617-2.683-2.158a3.97 3.97 0 0 0-5.542.583c-.642.817-.992 1.808-.875 2.858a3.86 3.86 0 0 0 1.458 2.625l8.575 6.942 14.292-16.334c.7-.7 1.05-1.75.992-2.8zM40.126 36.087c-.525-.467-.875-1.108-.992-1.808-.058-.7.117-1.4.583-1.925.525-.642 1.283-.992 2.1-.992.583 0 1.225.233 1.692.583l3.675 2.975 10.034-11.55c.992-1.108 2.625-1.225 3.733-.233.525.467.875 1.108.933 1.808s-.175 1.4-.642 1.925l-13.475 15.4-7.642-6.183z" fill="#22417d"/></svg>