<svg xmlns="http://www.w3.org/2000/svg" xmlns:xlink="http://www.w3.org/1999/xlink" width="150" height="100" fill="none" xmlns:v="https://vecta.io/nano"><style><![CDATA[.B{fill:#244583}.C{fill:#c1c1c1}.D{fill:#ebece9}.E{fill:#9fefde}]]></style><path d="M1.648 42.43H12.21v56.96H1.648V42.43z" class="D"/><path d="M8.059 42.43h4.212v56.96H8.059V42.43z" class="C"/><path d="M6.96 32.356a6.29 6.29 0 0 0 6.288-6.288A6.29 6.29 0 0 0 6.96 19.78a6.29 6.29 0 0 0-6.288 6.288 6.29 6.29 0 0 0 6.288 6.288z" class="E"/><use xlink:href="#B" fill="#fed19a"/><use xlink:href="#B" x="25.031" y="-28.266" class="E"/><use xlink:href="#B" x="50.122" y="-12.576" fill="#bddbff"/><path d="M13.248 26.068a6.3 6.3 0 0 1-2.93 5.311c.427-.855.672-1.831.672-2.808a6.28 6.28 0 0 0-6.288-6.288 6.35 6.35 0 0 0-3.358.977c1.526-3.114 5.311-4.396 8.425-2.869a6.4 6.4 0 0 1 3.48 5.678z" fill="#24c4a1"/><path d="M38.278 42.43c0 2.137-1.099 4.09-2.869 5.25.427-.855.672-1.832.672-2.747a6.28 6.28 0 0 0-6.288-6.288c-1.221 0-2.381.366-3.419 1.038 1.526-3.114 5.311-4.396 8.425-2.869 2.137 1.038 3.48 3.175 3.48 5.617z" fill="#febf2d"/><path d="M63.37 14.164a6.3 6.3 0 0 1-2.93 5.311c.427-.855.672-1.832.672-2.808a6.28 6.28 0 0 0-6.288-6.288 6.35 6.35 0 0 0-3.358.977 6.23 6.23 0 0 1 8.425-2.808c2.137 1.038 3.48 3.236 3.48 5.617z" fill="#24c4a1"/><path d="M88.462 29.853c0 2.137-1.099 4.09-2.869 5.25.427-.855.672-1.77.672-2.747a6.28 6.28 0 0 0-6.288-6.288c-1.221 0-2.381.366-3.419 1.038 1.526-3.114 5.25-4.396 8.364-2.93 2.198 1.038 3.541 3.236 3.541 5.678z" fill="#69b0ee"/><g class="B"><path d="M26.74 39.683c-.122 0-.244-.061-.366-.122l-14.53-9.463c-.305-.183-.427-.61-.183-.916.183-.305.611-.427.916-.183l14.53 9.463c.305.183.427.611.183.916a.64.64 0 0 1-.55.305zm50.122-12.516c-.122 0-.244-.061-.366-.122L62.088 18.01c-.305-.183-.427-.61-.244-.916a.69.69 0 0 1 .916-.244l14.408 9.035c.305.183.427.61.244.916-.122.244-.305.366-.549.366z"/><path d="M36.203 38.401a.68.68 0 0 1-.672-.672c0-.183.061-.305.183-.427l16.728-18.803c.244-.305.672-.305.977-.061s.305.671.061.977L36.752 38.217c-.183.061-.366.183-.549.183zM6.96 33.028a6.96 6.96 0 0 1 0-13.92 6.96 6.96 0 0 1 0 13.92zm0-12.576a5.6 5.6 0 0 0-5.617 5.617 5.6 5.6 0 0 0 5.617 5.617 5.6 5.6 0 0 0 5.617-5.617c0-3.053-2.503-5.617-5.617-5.617z"/><path d="M57.082 21.123a6.96 6.96 0 0 1 0-13.919 6.96 6.96 0 0 1 0 13.919zm0-12.576a5.6 5.6 0 0 0-5.617 5.617 5.6 5.6 0 1 0 11.233 0 5.6 5.6 0 0 0-5.617-5.617z"/></g><path d="M82.173 36.813a6.96 6.96 0 0 1 0-13.919 6.96 6.96 0 0 1 0 13.919zm0-12.576a5.6 5.6 0 1 0 0 11.233 5.6 5.6 0 1 0 0-11.233z" fill="#22417d"/><path d="M12.21 100H1.648a.68.68 0 0 1-.672-.671V42.43a.68.68 0 0 1 .672-.671H12.21a.68.68 0 0 1 .672.671v56.96c0 .305-.305.611-.672.611zm-9.89-1.343h9.219V43.101H2.32v55.556z" class="B"/><path d="M26.679 55.922H37.24V99.39H26.679V55.922z" fill="#faf9f8"/><path d="M33.028 55.922h4.212V99.39h-4.212V55.922z" class="C"/><path d="M37.241 100H26.679a.68.68 0 0 1-.671-.672V55.861a.68.68 0 0 1 .671-.672h10.562a.68.68 0 0 1 .672.672v43.468a.68.68 0 0 1-.672.672zm-9.89-1.343h9.219V56.593h-9.219v42.063z" class="B"/><path d="M52.137 32.417h10.562V99.39H52.137V32.417z" class="D"/><path d="M58.547 32.356h4.212v66.972h-4.212V32.356z" class="C"/><path d="M62.698 100H52.137a.68.68 0 0 1-.671-.672V32.418a.68.68 0 0 1 .671-.672h10.562a.68.68 0 0 1 .672.672V99.39c0 .305-.305.611-.672.611zm-9.89-1.343h9.219V33.089h-9.219v65.568z" class="B"/><path d="M76.923 43.712h10.562v55.678H76.923V43.712z" class="D"/><path d="M83.272 43.712h4.213v55.678h-4.213V43.712z" class="C"/><path d="M87.485 100H76.923a.68.68 0 0 1-.672-.672V43.712a.68.68 0 0 1 .672-.671h10.562a.68.68 0 0 1 .671.671V99.39c0 .305-.305.611-.671.611zm-9.89-1.343h9.219V44.322h-9.219v54.335zM32.051 49.389a6.96 6.96 0 0 1 0-13.919 6.96 6.96 0 0 1 6.96 6.96c-.061 3.846-3.175 6.96-6.96 6.96zm0-12.576a5.617 5.617 0 1 0 0 11.233 5.6 5.6 0 0 0 5.617-5.617c-.061-3.113-2.564-5.617-5.617-5.617zm-6.41-1.831a.68.68 0 0 1-.672-.672.91.91 0 0 1 .244-.55c1.893-1.465 4.152-2.32 6.593-2.381a.68.68 0 0 1 .672.672.68.68 0 0 1-.672.672c-2.076.061-4.151.794-5.739 2.076a.66.66 0 0 1-.427.183zM36.325 33.7c-.122 0-.183 0-.305-.061a13.15 13.15 0 0 0-1.648-.611c-.366-.122-.55-.488-.489-.794.122-.366.489-.55.794-.488.611.183 1.282.366 1.831.671a.64.64 0 0 1 .305.916c0 .244-.244.366-.489.366zm30.403 49.878a.68.68 0 0 1-.671-.671V79.67a.68.68 0 0 1 .671-.671.68.68 0 0 1 .671.671v3.236c0 .366-.244.671-.671.671zm0-6.777a.68.68 0 0 1-.671-.671V58.425a.68.68 0 0 1 .671-.672.68.68 0 0 1 .671.672V76.13c0 .366-.244.671-.671.671z" class="B"/><path d="M126.557 43.773l3.602 3.785c1.099 1.099 1.099 2.93 0 4.09l-9.097 9.096a2.95 2.95 0 0 1-4.09 0l-3.358-3.48s5.861-3.724 7.57-5.372c1.588-1.648 5.373-8.12 5.373-8.12z" class="C"/><path d="M118.987 62.149c-.916 0-1.771-.366-2.442-1.038l-3.541-3.541c-.244-.244-.183-.611 0-.794.244-.244.549-.244.793 0l3.541 3.541a2.44 2.44 0 0 0 3.297 0l9.096-9.097a2.32 2.32 0 0 0 0-3.297l-4.09-4.09c-.244-.183-.305-.549-.061-.794.183-.244.549-.305.794-.061l.061.061 4.09 4.09c1.343 1.343 1.343 3.541 0 4.884l-9.096 9.096c-.672.672-1.527 1.038-2.442 1.038z" class="B"/><path d="M99.878 60.501c16.555 0 29.976-13.42 29.976-29.976S116.433.549 99.878.549 69.902 13.97 69.902 30.525s13.421 29.976 29.976 29.976z" class="D"/><use xlink:href="#C" fill="#323c6b"/><path d="M99.878.549c-7.936 0-15.568 3.114-21.184 8.73 13.614-9.402 32.296-5.983 41.698 7.631 8.242 11.905 6.776 28.022-3.48 38.278 13.614-9.402 17.094-28.022 7.692-41.697C118.987 5.372 109.768.488 99.878.549z" class="C"/><path d="M121.917 59.89l16.972 16.972a5.2 5.2 0 0 0 7.326 0c2.015-2.015 2.015-5.311 0-7.326l-16.972-16.972-7.326 7.326z" class="E"/><path d="M142.552 78.938c-1.526 0-2.992-.611-4.09-1.709L121.49 60.256c-.245-.244-.245-.611 0-.794l7.326-7.326c.244-.244.61-.244.793 0l16.972 16.911c2.259 2.259 2.259 5.922 0 8.12-1.038 1.16-2.503 1.77-4.029 1.77zM122.711 59.89l16.544 16.545c1.771 1.831 4.701 1.831 6.533.061s1.831-4.701.061-6.532l-.061-.061-16.545-16.545-6.532 6.532z" class="B"/><path d="M140.049 73.626a.7.7 0 0 1-1.038 0l-5.067-5.006a.7.7 0 0 1 0-1.038.7.7 0 0 1 1.038 0l5.067 5.006c.244.305.305.733 0 1.038zm-6.838-7.875a.7.7 0 0 1 0 1.038c-.122.122-.305.183-.549.244-.183 0-.367-.061-.55-.244l-1.709-1.709c-.305-.305-.244-.794.061-1.038s.733-.244 1.038 0l1.709 1.709z" fill="#fff"/><g class="B"><use xlink:href="#C"/><path d="M134.371 77.717a.66.66 0 0 1-.427-.183l-1.954-1.954c-.244-.244-.244-.611 0-.794.244-.244.611-.244.794 0l1.953 1.954c.245.244.245.61 0 .794-.061.122-.244.183-.366.183zm8.181 4.64c-2.442 0-4.762-.977-6.532-2.686-.245-.244-.245-.611 0-.794s.61-.244.793 0a7.96 7.96 0 0 0 11.355 0c.245-.244.611-.244.794 0s.244.611 0 .794c-1.648 1.709-3.968 2.686-6.41 2.686zM121.184 5.372c-.122 0-.244-.061-.366-.122l-2.076-1.648c-.244-.183-.366-.549-.183-.794s.55-.366.794-.183h.061l2.198 1.648c.244.183.305.549.061.794a.5.5 0 0 1-.489.305zm11.173 17.888c-.245 0-.489-.183-.55-.427-1.343-5.617-4.212-10.806-8.181-14.957-.244-.244-.183-.61 0-.794.245-.244.611-.183.794 0 4.151 4.335 7.082 9.646 8.486 15.507.061.305-.122.611-.427.672h-.122z"/></g><defs ><path id="B" d="M32.051 48.718a6.29 6.29 0 0 0 6.288-6.288 6.29 6.29 0 0 0-6.288-6.288 6.29 6.29 0 0 0-6.288 6.288 6.29 6.29 0 0 0 6.288 6.288z"/><path id="C" d="M99.878 61.05c-16.85 0-30.525-13.675-30.525-30.525S83.028 0 99.878 0s30.525 13.675 30.525 30.525S116.728 61.05 99.878 61.05zm0-59.951c-16.239 0-29.426 13.187-29.426 29.426s13.187 29.426 29.426 29.426 29.426-13.187 29.426-29.426c-.061-16.239-13.187-29.426-29.426-29.426z"/></defs></svg>