<svg xmlns="http://www.w3.org/2000/svg" width="109" height="100" fill="none" xmlns:v="https://vecta.io/nano"><path d="M97.212 57.044v37.867H59.333V78.795h-1.879c-1.03 2.06-3.152 3.393-5.455 3.393-3.455.061-6.242-2.726-6.303-6.119-.061-3.454 2.727-6.24 6.121-6.301 2.364 0 4.545 1.272 5.636 3.393h1.879V57.044h16.121a3.64 3.64 0 0 1-1.273 2.726c-1.454 1.272-2.242 3.151-2.121 5.089.242 3.393 3.273 5.938 6.667 5.695 3.212-.242 5.697-2.969 5.697-6.18 0-1.818-.788-3.514-2.182-4.665-.788-.666-1.212-1.696-1.212-2.726l16.182.061z" fill="#9fefde"/><path d="M92.606 57.044h4.606v37.867h-4.606V57.044z" fill="#24c4a1"/><path d="M55.152 15.481c1.03 3.272-.727 6.725-3.939 7.816-1.879.606-3.939.303-5.515-.848-.848-.606-1.939-.788-2.909-.545l3.879 15.631-15.697 3.878c-.242-1.03-.061-2.121.545-2.969 1.151-1.575 1.455-3.635.788-5.513-1.091-3.272-4.606-4.968-7.879-3.878-3.03 1.03-4.788 4.241-4.061 7.392.424 1.757 1.636 3.211 3.212 3.999.909.485 1.576 1.333 1.818 2.302L9.879 46.684.728 9.907 37.515.758l3.879 15.632c1.03-.242 1.879-.969 2.364-1.878.909-1.757 2.545-2.969 4.485-3.272a6.2 6.2 0 0 1 6.909 4.241z" fill="#9fefde"/><path d="M55.394 17.662c-1.394-1.939-3.697-2.848-6.061-2.484-1.939.303-3.576 1.515-4.485 3.272-.485.969-1.333 1.636-2.364 1.878L38.606 4.696 1.879 13.845.728 9.301 37.515.152l3.879 15.631c1.03-.242 1.879-.969 2.364-1.878.909-1.757 2.545-2.969 4.485-3.272 3.394-.545 6.546 1.696 7.151 5.089.061.667.061 1.333 0 1.939z" fill="#24c4a1"/><path d="M81.091 57.044a3.64 3.64 0 0 0 1.273 2.726 6.22 6.22 0 0 1 2.121 4.847c-.121 3.393-2.97 6.119-6.364 5.998s-6.061-2.848-6-6.24c0-1.818.788-3.514 2.182-4.665.788-.666 1.212-1.636 1.212-2.726H59.333V40.928a3.68 3.68 0 0 1 2.727 1.212c2.242 2.605 6.121 2.908 8.727.666 1.515-1.272 2.303-3.211 2.121-5.15-.182-3.029-2.606-5.513-5.697-5.756a6.02 6.02 0 0 0-5.152 2.121c-.667.788-1.697 1.272-2.727 1.272V19.116h37.879v37.867l-16.121.061z" fill="#ebece9"/><path d="M97.212 19.116v37.867h-4.546V24.084H59.333v-4.908l37.879-.061zM45.758 76.189c.121 3.332 2.909 5.998 6.242 5.998 2.303 0 4.424-1.333 5.455-3.393h1.879V94.91H21.455V57.044h16.121c0-1.03-.424-1.999-1.212-2.726a6.16 6.16 0 0 1-.667-8.725c1.273-1.515 3.212-2.302 5.152-2.181 3.03.182 5.515 2.605 5.758 5.695.182 1.939-.606 3.878-2.121 5.15a3.64 3.64 0 0 0-1.273 2.726h16.121v16.116h-1.879c-1.515-3.029-5.273-4.241-8.303-2.726-2.182 1.151-3.515 3.393-3.394 5.816z" fill="#c1c1c1"/><g fill="#244583"><path d="M59.333 95.638H21.455a.7.7 0 0 1-.727-.727V57.044a.7.7 0 0 1 .727-.727h15.333c-.121-.545-.424-1.03-.849-1.454-2.909-2.484-3.212-6.846-.727-9.755s6.849-3.211 9.758-.727 3.212 6.846.727 9.755l-.667.727c-.424.364-.788.909-.909 1.454h15.333a.7.7 0 0 1 .727.727V73.16a.7.7 0 0 1-.727.727h-1.879c-.303 0-.546-.182-.667-.424-1.394-2.666-4.667-3.756-7.333-2.363-1.879.969-3.03 2.908-2.97 5.089.121 2.969 2.545 5.271 5.455 5.271h.061a5.32 5.32 0 0 0 4.788-2.969c.121-.242.364-.424.667-.424h1.879a.7.7 0 0 1 .727.727V94.91c-.121.424-.424.727-.848.727zm-37.152-1.454h36.424V79.522h-.727c-1.212 2.06-3.454 3.393-5.879 3.393h-.061c-3.758 0-6.788-2.969-6.909-6.725-.121-3.817 2.849-7.028 6.667-7.149 2.545-.121 4.909 1.212 6.182 3.393h.727V57.771H43.212a.7.7 0 0 1-.727-.727c0-1.272.545-2.484 1.515-3.272 1.333-1.151 2-2.848 1.879-4.544-.242-3.029-2.909-5.271-5.939-5.029-1.212.121-2.364.606-3.273 1.454-2.182 2.06-2.303 5.453-.242 7.695.121.182.303.303.485.424.97.848 1.455 1.999 1.455 3.272a.7.7 0 0 1-.727.727H22.182v36.413zM81.516 100h-1.091a.727.727 0 1 1 0-1.454h1.091a.727.727 0 1 1 0 1.454zm-4.486 0H63.879a.727.727 0 1 1 0-1.454H77.03a.727.727 0 1 1 0 1.454zm24.364-12.783v-1.091a.727.727 0 1 1 1.455 0v1.091a.7.7 0 0 1-.728.727c-.363 0-.727-.303-.727-.727z"/><path d="M101.394 82.733V69.585a.727.727 0 1 1 1.454 0v13.147a.7.7 0 0 1-.727.727c-.363 0-.727-.303-.727-.727zM42.243 2.516c-.364 0-.606-.242-.727-.545l-.121-.727c-.121-.364.121-.788.485-.909s.788.121.909.485v.06l.182.667c.061.424-.182.848-.546.909-.061 0-.121.061-.182.061zm1.636 6.482c-.121 0-.182 0-.303-.061-.182-.061-.364-.242-.424-.485l-.909-3.635c-.061-.364.182-.788.545-.848s.727.121.849.485l.727 2.726c.97-.485 2-.788 3.091-.969a11.4 11.4 0 0 1 3.515 0c.424.061.667.424.606.848s-.424.666-.849.606a8.83 8.83 0 0 0-3.091 0c-1.212.182-2.364.606-3.394 1.272-.121 0-.242.061-.364.061zm53.333 86.64H59.333a.7.7 0 0 1-.727-.727V79.522h-.727c-1.212 2.06-3.455 3.393-5.879 3.393h-.061c-3.818 0-6.909-3.09-6.909-6.968 0-1.818.727-3.514 1.939-4.847 1.273-1.333 3.091-2.121 4.97-2.121 2.424 0 4.667 1.272 5.939 3.393h.727V57.044a.7.7 0 0 1 .727-.727h16.121a.7.7 0 0 1 .727.727c0 1.272-.545 2.484-1.515 3.272-1.273 1.151-2 2.787-1.879 4.484.242 3.029 2.849 5.271 5.879 5.029 2.849-.242 5.03-2.605 5.03-5.453 0-1.575-.727-3.09-1.939-4.12-.97-.788-1.515-1.999-1.454-3.272a.7.7 0 0 1 .727-.727H97.15a.7.7 0 0 1 .727.727V94.85c.061.485-.242.788-.667.788zM60.06 94.184h36.424V57.771H81.879c.121.545.424 1.03.848 1.454 1.515 1.333 2.424 3.211 2.424 5.21a7.01 7.01 0 0 1-2.182 5.089 6.69 6.69 0 0 1-5.212 1.818c-3.394-.242-6.121-2.969-6.424-6.362a6.77 6.77 0 0 1 2.364-5.695c.424-.364.788-.909.909-1.454H60.061V73.22a.7.7 0 0 1-.727.727h-1.879c-.303 0-.545-.182-.667-.424-1.394-2.666-4.667-3.756-7.333-2.363s-3.758 4.665-2.364 7.331c.909 1.818 2.788 2.969 4.849 2.969H52a5.32 5.32 0 0 0 4.788-2.969c.121-.242.364-.424.667-.424h1.879a.7.7 0 0 1 .727.727v15.389z"/><path d="M9.879 47.41c-.121 0-.242-.061-.364-.121-.182-.121-.303-.242-.303-.424L0 10.089c0-.182 0-.364.121-.545s.242-.303.424-.303L37.333.031c.364-.121.788.121.909.545l3.697 14.844c.545-.303.909-.727 1.212-1.272a6.91 6.91 0 0 1 5.03-3.696c3.394-.545 6.667 1.454 7.697 4.726 1.212 3.635-.788 7.513-4.424 8.724-2.121.666-4.364.364-6.182-.969-.485-.303-1.03-.485-1.576-.485l3.697 14.844c.121.364-.121.788-.545.909l-15.636 3.878c-.364.121-.788-.121-.909-.545a4.41 4.41 0 0 1 .667-3.575c.97-1.393 1.273-3.211.727-4.847-.97-2.848-4.061-4.423-6.97-3.454-1.151.424-2.182 1.151-2.849 2.242-1.636 2.545-.909 5.877 1.576 7.513.182.121.364.242.546.303a4.33 4.33 0 0 1 2.242 2.787c.121.364-.121.788-.545.909L10.061 47.29c-.061.121-.121.121-.182.121zM1.636 10.452l8.788 35.322 14.121-3.514a2.49 2.49 0 0 0-1.212-1.151 6.94 6.94 0 0 1-3.091-9.27c1.697-3.393 5.879-4.786 9.273-3.09a6.94 6.94 0 0 1 3.091 9.27c-.121.303-.303.606-.485.848-.364.485-.545 1.03-.545 1.636l14.182-3.514-3.697-14.965c-.121-.364.121-.788.545-.909h.061c1.212-.303 2.485-.061 3.515.666 2.485 1.757 5.879 1.151 7.636-1.272a5.5 5.5 0 0 0-1.273-7.634c-2.485-1.757-5.879-1.151-7.636 1.272-.121.242-.303.424-.424.667-.545 1.151-1.576 1.939-2.848 2.242-.364.121-.788-.121-.909-.545L36.97 1.667 1.636 10.452zm76.667 60.89a6.85 6.85 0 0 1-4.727-1.878c-2.788-2.605-2.97-6.968-.364-9.755l.545-.545a2.53 2.53 0 0 0 .849-1.454H59.333a.7.7 0 0 1-.727-.727V40.928a.7.7 0 0 1 .727-.727c1.273 0 2.424.545 3.273 1.454 2 2.302 5.454 2.545 7.697.606 2.303-1.999 2.545-5.453.606-7.694-2-2.302-5.454-2.545-7.697-.606l-.545.545c-.849.969-2 1.515-3.273 1.515a.7.7 0 0 1-.727-.727V19.116a.7.7 0 0 1 .727-.727h37.879a.7.7 0 0 1 .727.727v37.867a.7.7 0 0 1-.727.727H81.939c.182.545.485 1.091.909 1.454 1.576 1.333 2.424 3.393 2.364 5.453a7.04 7.04 0 0 1-6.424 6.665c-.182.061-.364.061-.485.061zM60.061 56.317h15.394a.7.7 0 0 1 .727.727c0 1.272-.545 2.423-1.454 3.272-2.303 1.939-2.546 5.392-.546 7.695 1.152 1.333 2.849 1.999 4.546 1.878 2.788-.242 4.909-2.484 5.091-5.271a5.37 5.37 0 0 0-1.879-4.302c-.97-.848-1.515-1.999-1.515-3.272a.7.7 0 0 1 .727-.727h15.394V19.843H60.061v14.601c.545-.182 1.091-.485 1.455-.909 1.455-1.636 3.576-2.545 5.758-2.363 3.818.303 6.667 3.635 6.364 7.452a6.93 6.93 0 0 1-7.455 6.362c-1.818-.121-3.515-1.03-4.727-2.423-.364-.424-.849-.727-1.455-.848l.061 14.602z"/></g><path d="M26.546 71.403c.485 0 .909.424.909.909v.909c0 .485-.424.909-.909.849a.87.87 0 0 1-.849-.849v-.909c-.061-.485.364-.909.849-.909zm-.001 4.544c.485 0 .909.424.909.909v11.451c0 .485-.424.909-.909.848-.485 0-.848-.424-.848-.848V76.856c-.061-.545.364-.909.848-.909z" fill="#fff"/></svg>