<svg xmlns="http://www.w3.org/2000/svg" xmlns:xlink="http://www.w3.org/1999/xlink" width="126" height="100" fill="none" xmlns:v="https://vecta.io/nano"><path d="M26.909 22.922v58.806h89.394V22.922c0-2.16-1.758-3.84-3.879-3.84H30.788c-2.121 0-3.879 1.74-3.879 3.84z" fill="#ebece9"/><use xlink:href="#B" fill="#323c6b"/><g fill="#c1c1c1"><path d="M112.364 19.082H30.788c-2.182 0-3.879 1.74-3.879 3.9v1.02h80.667c2.182 0 3.879 1.74 3.879 3.84v53.885h4.787V22.922c0-2.1-1.697-3.84-3.878-3.84z"/><path d="M18.909 81.728c.545 5.101 4.606 9.121 9.697 9.661.727.06 1.455.12 2.182.12h81.454c.728 0 1.455-.06 2.182-.12 5.152-.54 9.212-4.62 9.697-9.661H18.909z"/></g><g fill="#244583"><path d="M112.303 92.289H30.849c-.727 0-1.515-.06-2.242-.12-5.515-.6-9.879-4.921-10.424-10.381-.061-.42.242-.78.667-.84h.121 105.272a.8.8 0 0 1 .788.78v.12a11.74 11.74 0 0 1-10.424 10.381c-.788 0-1.515.06-2.303.06zm-92.485-9.781c.848 4.38 4.424 7.681 8.909 8.161.727.06 1.394.12 2.121.12h81.455c.727 0 1.394-.06 2.121-.12 4.424-.48 8.061-3.78 8.909-8.161H19.818z"/><use xlink:href="#B"/><path d="M121.151 31.683a.8.8 0 0 0 .788-.78v-3.42a.8.8 0 0 0-.788-.78.8.8 0 0 0-.787.78v3.42c0 .48.363.78.787.78zm0-6.72a.8.8 0 0 0 .788-.78v-1.26c0-5.1-4.181-9.241-9.333-9.241a.8.8 0 0 0-.788.78.8.8 0 0 0 .788.78c4.303 0 7.758 3.42 7.758 7.681v1.26a.8.8 0 0 0 .787.78zM105.939 96.85h-4.121a.8.8 0 0 1-.788-.78.8.8 0 0 1 .788-.78h4.121a.8.8 0 0 1 .788.78.8.8 0 0 1-.788.78zm-7.454 0H83.636a.8.8 0 0 1-.788-.78.8.8 0 0 1 .788-.78h14.849a.8.8 0 0 1 .788.78.8.8 0 0 1-.788.78z"/></g><path d="M32.061 55.866a1.08 1.08 0 0 1-1.091-1.08v-2.46a1.091 1.091 0 1 1 2.182 0v2.46a1.08 1.08 0 0 1-1.091 1.08zm0 16.141a1.08 1.08 0 0 1-1.091-1.08V58.386a1.091 1.091 0 1 1 2.182 0v12.481c0 .6-.485 1.14-1.091 1.14z" fill="#fff"/><path d="M70.364 31.143c-2.182 1.44-7.394 4.381-13.697 5.701-.97.18-1.697 1.08-1.697 2.04v16.862c0 1.8.242 3.54.788 5.22 1.152 3.66 3.455 6.901 6.606 9.181l8.364 6.001c.424.3 1.03.3 1.515 0l8.364-6.001c3.151-2.28 5.455-5.461 6.606-9.181.545-1.68.788-3.48.788-5.22V38.884a2.07 2.07 0 0 0-1.697-2.04c-6.303-1.32-11.454-4.26-13.697-5.701-.667-.48-1.576-.48-2.242 0z" fill="#9fefde"/><path d="M86.727 36.424c-.182-.06-.364-.06-.546-.12.303.36.485.84.485 1.38v17.342c0 1.8-.303 3.66-.848 5.401-1.212 3.78-3.697 7.081-7.03 9.421l-8.909 6.181c-.182.12-.424.24-.667.24l.909.66c.485.36 1.091.36 1.576 0l8.909-6.181c3.333-2.34 5.818-5.641 7.03-9.421.545-1.74.849-3.54.849-5.4V38.524c.061-1.02-.727-1.92-1.758-2.1z" fill="#24c4a1"/><g fill="#22417d"><path d="M86.727 35.944c-6.424-1.32-11.758-4.441-13.758-5.761-.909-.6-2.121-.6-3.03 0-2 1.26-7.333 4.38-13.758 5.761-1.273.24-2.242 1.38-2.242 2.7v17.162c0 1.86.303 3.72.849 5.52 1.212 3.84 3.697 7.261 6.97 9.661l8.545 6.121c.303.24.727.36 1.091.36s.788-.12 1.091-.36l8.545-6.121c3.273-2.34 5.758-5.821 6.97-9.661.546-1.8.849-3.66.849-5.52V38.584c.121-1.26-.788-2.4-2.121-2.64zm1.091 2.64v17.222c0 1.74-.242 3.48-.788 5.16-1.151 3.6-3.454 6.841-6.545 9.061l-8.545 6.121c-.242.18-.606.18-.849 0l-8.545-6.121c-3.091-2.22-5.394-5.46-6.545-9.061-.545-1.68-.788-3.42-.788-5.16V38.584c0-.72.545-1.38 1.273-1.56 6.424-1.32 11.636-4.26 14.182-5.881.545-.36 1.212-.36 1.697 0 2.545 1.62 7.758 4.561 14.182 5.881.727.18 1.273.84 1.273 1.56z"/><path d="M71.515 77.588a2.2 2.2 0 0 1-1.212-.36l-8.545-6.121c-3.333-2.4-5.818-5.821-7.03-9.721a19.16 19.16 0 0 1-.849-5.581V38.584c0-1.38.97-2.52 2.364-2.82 6.424-1.32 11.697-4.44 13.697-5.701.97-.6 2.182-.6 3.151 0 2 1.26 7.273 4.38 13.697 5.701 1.333.3 2.364 1.5 2.364 2.82v17.222c0 1.86-.303 3.78-.849 5.581-1.212 3.9-3.697 7.321-7.03 9.721l-8.545 6.121a2.2 2.2 0 0 1-1.212.36zm0-47.705c-.485 0-.97.12-1.394.42-2 1.26-7.333 4.44-13.818 5.761-1.212.24-2.121 1.32-2.121 2.52v17.222c0 1.86.303 3.72.848 5.461 1.212 3.84 3.636 7.201 6.909 9.601l8.545 6.121c.606.42 1.455.42 2.061 0l8.546-6.121c3.273-2.34 5.697-5.761 6.909-9.601.545-1.8.849-3.6.849-5.461V38.584c0-1.2-.909-2.28-2.121-2.52-6.485-1.38-11.818-4.501-13.818-5.761-.424-.3-.909-.42-1.394-.42zm0 46.565c-.182 0-.364-.06-.485-.18l-8.606-6.121c-3.091-2.22-5.454-5.461-6.606-9.121-.545-1.68-.788-3.42-.788-5.221V38.584c0-.84.606-1.5 1.394-1.68 6.364-1.32 11.576-4.26 14.121-5.881a1.77 1.77 0 0 1 1.879 0c2.546 1.62 7.758 4.56 14.121 5.881.849.18 1.394.84 1.394 1.68v17.222c0 1.74-.242 3.54-.788 5.221-1.151 3.66-3.454 6.901-6.606 9.121L72 76.268c-.121.12-.303.18-.485.18zm0-45.364c-.242 0-.545.06-.788.24-2.546 1.62-7.758 4.561-14.182 5.941-.667.12-1.152.72-1.152 1.38v17.162c0 1.74.242 3.48.788 5.101 1.091 3.6 3.394 6.781 6.485 8.941l8.545 6.121c.182.12.485.12.667 0l8.545-6.121c3.091-2.22 5.333-5.401 6.485-8.941a16.3 16.3 0 0 0 .788-5.101V38.584c0-.66-.485-1.26-1.152-1.38-6.424-1.32-11.636-4.32-14.182-5.941a2.4 2.4 0 0 0-.849-.18z"/></g><path d="M77.273 44.284l-9.03 10.261-2.97-2.4c-1.333-1.08-3.273-.84-4.303.42-1.091 1.32-.849 3.24.424 4.261l7.576 6.061 12.97-14.641c1.091-1.26.97-3.18-.303-4.26-1.333-1.08-3.273-.96-4.364.3z" fill="#ebece9"/><path d="M83.212 46.085c-.061-.96-.485-1.86-1.273-2.46-1.515-1.32-3.818-1.14-5.152.36l-8.667 9.781-2.545-2.04c-1.576-1.26-3.879-1.02-5.152.54a3.45 3.45 0 0 0-.788 2.64c.121.96.606 1.8 1.333 2.46l8 6.421 13.333-15.062c.667-.78 1.03-1.68.909-2.64zM61.758 56.406c-.545-.42-.848-1.02-.909-1.62-.061-.66.121-1.26.545-1.8.485-.6 1.152-.9 1.939-.9.545 0 1.152.18 1.576.54l3.394 2.7 9.455-10.681c.909-1.02 2.485-1.14 3.515-.24.485.42.788 1.02.849 1.68s-.182 1.26-.606 1.8L68.909 62.106l-7.151-5.701z" fill="#22417d"/><path d="M.848 88.629c0 5.281 9.879 9.541 22.061 9.541s22.061-4.26 22.061-9.541V47.345c0 5.281-9.879 9.541-22.061 9.541S.848 52.625.848 47.345v41.284z" fill="#ebece9"/><path d="M44.97 47.345v41.284c0 5.281-9.879 9.541-22.061 9.541-10.242 0-18.848-3-21.333-7.081 5.333 2.4 11.091 3.6 16.97 3.42 12.182 0 22.061-4.26 22.061-9.541V53.045c2.727-1.56 4.364-3.6 4.364-5.701z" fill="#c1c1c1"/><path d="M22.909 56.886c12.184 0 22.061-4.272 22.061-9.541s-9.877-9.541-22.061-9.541S.848 42.075.848 47.345s9.877 9.541 22.061 9.541z" fill="#ebece9"/><path d="M22.909 57.726C10.061 57.726 0 53.165 0 47.345s10.061-10.381 22.909-10.381 22.909 4.56 22.909 10.381-10.061 10.381-22.909 10.381zm0-19.082c-11.515 0-21.212 3.96-21.212 8.701s9.697 8.701 21.212 8.701 21.212-3.96 21.212-8.701-9.697-8.701-21.212-8.701z" fill="#244583"/><path d="M22.909 71.467C10.061 71.467 0 66.907 0 61.086c0-.48.364-.84.848-.84s.848.36.848.84c0 4.74 9.697 8.701 21.212 8.701s21.212-3.96 21.212-8.701c0-.48.364-.84.849-.84s.848.36.848.84c.061 5.821-10.061 10.381-22.909 10.381zm0 13.802C10.061 85.269 0 80.708 0 74.888c0-.48.364-.84.848-.84s.848.36.848.84c0 4.74 9.697 8.701 21.212 8.701s21.212-3.96 21.212-8.701c0-.48.364-.84.849-.84s.848.36.848.84c.061 5.821-10.061 10.381-22.909 10.381z" fill="#22417d"/><path d="M.848 39.304c-.485-.06-.848-.42-.848-.9 0-.24.121-.54.364-.66l1.515-1.02c.424-.24.909-.12 1.152.3a.8.8 0 0 1-.303 1.14l-1.394.9c-.121.18-.303.24-.485.24zm5.637-3c-.485 0-.848-.36-.848-.84 0-.36.242-.66.545-.78 4.727-1.74 9.697-2.64 14.667-2.76.485 0 .848.36.909.84 0 .48-.364.84-.849.9a43.65 43.65 0 0 0-14.121 2.7c-.121-.06-.182-.06-.303-.06zM22.909 99.01C10.061 99.01 0 94.449 0 88.629V47.345c0-.48.364-.84.848-.84s.848.36.848.84c0 4.74 9.697 8.701 21.212 8.701s21.212-3.96 21.212-8.701c0-.48.364-.84.849-.84s.848.36.848.84v41.284c.061 5.821-10.061 10.381-22.909 10.381zM1.697 51.365v37.264c0 4.74 9.697 8.701 21.212 8.701s21.212-3.96 21.212-8.701V51.365c-3.394 3.78-11.515 6.361-21.212 6.361s-17.818-2.58-21.212-6.361z" fill="#244583"/><path d="M17.576 65.347l-.485-.18c-.364-.12-.788.06-.97.42-.121.36.061.78.424.9h.061c.242.06.303.12.545.18a.65.65 0 0 0 .909-.36.64.64 0 0 0-.364-.9c-.061 0-.121 0-.121-.06zm11.939-.12c-2.909 1.14-6.121 1.44-9.212.78-.364-.06-.788.18-.849.54s.182.72.606.78h.061a17.88 17.88 0 0 0 9.879-.84c.364-.12.606-.48.485-.9v-.06c-.182-.3-.545-.48-.97-.3z" fill="#fff"/><g fill="#244583"><path d="M43.273 0l-1.151.66 4.667 5.101-6.061 2.82.909 1.08 7.333-3.42L43.273 0z"/><path d="M10.424 25.503c-.061 0-.121 0-.182-.06-.424-.12-.606-.54-.545-.9C14.182 9.241 30.788.54 46.667 5.101c.424.12.606.54.545.9-.121.42-.545.6-.909.54-15.091-4.32-30.848 3.9-35.091 18.422-.182.36-.485.54-.788.54z"/><path d="M16.485 21.662l-.606-1.2-5.455 4.201L8 18.482l-1.152.78 2.909 7.501 6.727-5.1z"/></g><defs ><path id="B" d="M116.242 82.508H26.909a.8.8 0 0 1-.788-.78V22.922c0-2.58 2.121-4.62 4.667-4.62h81.576c2.606 0 4.666 2.1 4.666 4.621v58.806a.8.8 0 0 1-.788.78zm-88.545-1.56h87.818V22.922c0-1.74-1.394-3.12-3.151-3.12H30.788c-1.758 0-3.152 1.38-3.152 3.12l.061 58.026z"/></defs></svg>