<svg xmlns="http://www.w3.org/2000/svg" xmlns:xlink="http://www.w3.org/1999/xlink" width="120" height="80" fill="none" xmlns:v="https://vecta.io/nano"><path d="M96.539 56.857v9.169c0 1.682-1.317 3.083-2.945 3.083h-67.81c-1.627 0-2.984-1.361-2.984-3.083v-9.169h73.738z" fill="#c1c1c1"/><use xlink:href="#B" fill="#323c6b"/><path d="M96.539 13.173v43.684H22.801V13.173c0-1.682 1.356-3.083 2.984-3.083h67.771a3.09 3.09 0 0 1 2.984 3.083z" fill="#ebece9"/><use xlink:href="#C" fill="#323c6b"/><path d="M96.539 56.857v9.169c0 1.682-1.317 3.083-2.945 3.083h-.659V56.857h3.604z" fill="#a4a4a4"/><path d="M96.539 13.173v43.684h-3.604V17.618c0-1.682-1.317-3.043-2.945-3.043H22.8v-1.361c0-1.682 1.356-3.083 2.984-3.083h67.771c1.627 0 2.984 1.361 2.984 3.043zM71.662 79.44l-2.674-10.29H50.351l-2.674 10.29h23.985z" fill="#c1c1c1"/><g fill="#244583"><path d="M71.662 80H47.677c-.31 0-.542-.24-.542-.561v-.16l2.674-10.29c.078-.24.271-.4.542-.4h18.638c.233 0 .465.16.542.4l2.674 10.29a.55.55 0 0 1-.388.681c-.078 0-.116.04-.155.04zm-23.288-1.121h22.552l-2.364-9.169H50.777l-2.402 9.169z"/><path d="M75.498 80H43.841c-.31 0-.542-.24-.542-.561s.233-.561.542-.561H75.46c.31 0 .542.24.542.561.039.28-.233.561-.504.561z"/><use xlink:href="#B"/><use xlink:href="#C"/></g><path d="M59.65 65.105c1.134 0 2.054-.95 2.054-2.122s-.919-2.122-2.054-2.122-2.054.95-2.054 2.122.919 2.122 2.054 2.122z" fill="#eeefee"/><path d="M59.65 65.666c-1.434 0-2.596-1.201-2.596-2.683S58.217 60.3 59.65 60.3s2.596 1.201 2.596 2.683-1.162 2.683-2.596 2.683zm0-4.244c-.852 0-1.511.721-1.511 1.562 0 .881.697 1.562 1.511 1.562.852 0 1.511-.721 1.511-1.562.039-.841-.659-1.562-1.511-1.562z" fill="#244583"/><path d="M45.585 66.827h-2.441c-.388 0-.698-.32-.698-.721s.31-.721.698-.721h2.441c.387 0 .697.32.697.721.039.4-.31.721-.697.721zm-5.541 0H29.93c-.387 0-.697-.32-.697-.721s.31-.721.697-.721h10.113c.388 0 .698.32.698.721s-.31.721-.698.721z" fill="#fff"/><path d="M73.794 40.08l2.79 7.247-6.587 4.164-4.999-5.886c-3.139.921-6.471 1.001-9.648.24l-4.689 6.166-6.781-3.804 2.441-7.407c-2.364-2.362-4.107-5.285-5.037-8.529l-7.517-1.121-.194-7.968 7.401-1.522c.814-3.283 2.402-6.286 4.611-8.729v-.04l-2.751-7.287 6.587-4.164 4.999 5.926c3.139-.921 6.471-1.041 9.648-.24L68.756.961l6.781 3.804-2.441 7.407c2.364 2.362 4.069 5.285 5.037 8.488l7.517 1.161.194 7.968-7.401 1.521c-.852 3.283-2.441 6.286-4.65 8.769z" fill="#24c4a1"/><path d="M71.546 40.721l2.79 7.247-6.587 4.164-4.998-5.886c-3.139.921-6.471 1.001-9.648.24l-4.688 6.166-6.781-3.844 2.441-7.407c-2.364-2.362-4.069-5.285-5.037-8.529l-7.517-1.121-.194-7.968 7.401-1.521c.814-3.283 2.402-6.286 4.611-8.729v-.04l-2.79-7.247 6.587-4.164 4.999 5.926c3.139-.921 6.471-1.041 9.648-.24l4.688-6.126 6.781 3.804-2.402 7.367c2.364 2.362 4.069 5.285 5.037 8.489l7.517 1.161.194 7.968-7.401 1.521c-.852 3.243-2.441 6.286-4.65 8.769z" fill="#9fefde"/><path d="M50.854 52.573l-7.633-4.284 2.48-7.527c-2.209-2.282-3.836-5.085-4.805-8.128l-7.633-1.161-.232-8.969 7.556-1.562c.814-3.123 2.364-6.006 4.417-8.408l-2.829-7.367L49.615.48l5.076 6.006c3.022-.841 6.161-.921 9.222-.24L68.679 0l7.633 4.284-2.48 7.528c2.209 2.282 3.836 5.085 4.805 8.128l7.633 1.161.233 8.969-7.556 1.561c-.814 3.083-2.364 6.006-4.417 8.368l2.829 7.367-7.401 4.685-5.076-6.006c-3.022.841-6.161.921-9.222.24l-4.805 6.286zm-6.2-4.845l5.89 3.323 4.65-6.046.349.08c3.061.761 6.316.641 9.338-.24l.349-.12 4.921 5.806 5.735-3.644-2.751-7.167.271-.28a20.09 20.09 0 0 0 4.456-8.448l.039-.12.116-.24.271-.08 6.936-1.401-.155-6.967-7.401-1.121-.116-.36c-.93-3.123-2.596-5.966-4.882-8.248l-.271-.28 2.402-7.287-5.89-3.323L64.3 7.608l-.349-.08c-3.061-.761-6.316-.641-9.338.24l-.349.12-4.882-5.846-5.735 3.644 2.712 7.047-.233.4c-2.17 2.362-3.72 5.285-4.495 8.449v.08l-.155.32-.271.08-6.936 1.401.155 6.967 7.401 1.121.116.36c.891 3.123 2.596 5.966 4.882 8.248l.233.28-2.402 7.287z" fill="#244583"/><path d="M59.689 35.996c5.093 0 9.222-4.267 9.222-9.529s-4.129-9.529-9.222-9.529-9.222 4.266-9.222 9.529 4.129 9.529 9.222 9.529z" fill="#ebece9"/><path d="M59.689 36.597a9.32 9.32 0 0 1-4.65-1.241c-4.727-2.683-6.51-8.809-3.914-13.734 2.596-4.885 8.525-6.727 13.291-4.044 2.286 1.281 3.952 3.443 4.727 6.006.736 2.603.465 5.325-.775 7.688-1.86 3.403-5.231 5.325-8.68 5.325zm0-19.059c-3.061 0-6.045 1.682-7.595 4.645-2.286 4.324-.736 9.73 3.449 12.092 2.015 1.121 4.34 1.401 6.587.721 2.209-.681 4.03-2.202 5.153-4.284s1.356-4.485.698-6.807c-.659-2.282-2.131-4.164-4.146-5.325-1.317-.681-2.751-1.041-4.146-1.041z" fill="#244583"/><path d="M53.296 42.362c-.039 0-.116 0-.155-.04l-1.744-.921c-.194-.12-.232-.4-.116-.601s.349-.24.542-.16l1.666.881c.194.08.31.36.194.561-.078.16-.233.28-.388.28zm-3.062-1.882c-.078 0-.194-.04-.233-.08-2.209-1.722-3.914-4.044-4.96-6.687-.078-.2 0-.48.233-.56.194-.08.465 0 .543.24a14.75 14.75 0 0 0 4.688 6.326c.194.16.233.4.078.601-.078.12-.232.16-.349.16z" fill="#fff"/><defs ><path id="B" d="M93.555 69.67H25.784c-1.937 0-3.526-1.642-3.526-3.644v-9.169c0-.32.232-.561.542-.561h73.738c.31 0 .543.24.543.561v9.169c0 2.002-1.589 3.644-3.526 3.644zM23.343 57.418v8.609c0 1.401 1.085 2.522 2.441 2.522h67.771c1.356 0 2.441-1.121 2.441-2.522v-8.609H23.343z"/><path id="C" d="M96.539 57.417H22.801c-.31 0-.542-.24-.542-.561V13.173c0-2.002 1.589-3.644 3.526-3.604h67.771c1.937 0 3.487 1.642 3.487 3.604v43.684a.51.51 0 0 1-.504.561zm-73.196-1.121h72.653V13.173c0-1.401-1.085-2.482-2.441-2.523H25.784c-1.356 0-2.441 1.121-2.441 2.523v43.123z"/></defs></svg>