<svg xmlns="http://www.w3.org/2000/svg" width="66" height="60" fill="none" xmlns:v="https://vecta.io/nano"><path d="M58.82 34.226v22.72h-22.72v-9.67h-1.127a3.68 3.68 0 0 1-3.272 2.036c-2.072.036-3.744-1.636-3.781-3.672-.036-2.072 1.636-3.744 3.672-3.781 1.418 0 2.726.763 3.381 2.036h1.127v-9.67h9.67c0 .618-.291 1.236-.763 1.636-.873.763-1.345 1.89-1.272 3.054.145 2.036 1.963 3.563 3.999 3.417 1.927-.146 3.417-1.781 3.417-3.708 0-1.09-.473-2.108-1.309-2.799-.473-.4-.727-1.018-.727-1.636l9.706.036z" fill="#9fefde"/><path d="M56.057 34.226h2.763v22.72h-2.763v-22.72z" fill="#24c4a1"/><path d="M33.591 9.289a3.75 3.75 0 0 1-2.363 4.689c-1.127.364-2.363.182-3.308-.509-.509-.364-1.163-.473-1.745-.327l2.326 9.379-9.415 2.327c-.145-.618-.036-1.272.327-1.781.691-.945.873-2.181.473-3.308-.654-1.963-2.763-2.981-4.726-2.326-1.818.618-2.872 2.545-2.436 4.435.255 1.054.982 1.927 1.927 2.399.545.291.945.8 1.091 1.381L6.436 28.01.947 5.944 23.013.455l2.327 9.379c.618-.145 1.127-.582 1.418-1.127.545-1.054 1.527-1.781 2.69-1.963a3.72 3.72 0 0 1 4.144 2.545z" fill="#9fefde"/><path d="M33.737 10.597c-.836-1.163-2.217-1.709-3.635-1.49-1.163.182-2.145.909-2.69 1.963-.291.582-.8.981-1.418 1.127l-2.326-9.379-22.03 5.489-.691-2.726L23.013.091l2.327 9.379c.618-.145 1.127-.582 1.418-1.127.545-1.054 1.527-1.781 2.69-1.963 2.036-.327 3.926 1.018 4.29 3.054.036.4.036.8 0 1.163z" fill="#24c4a1"/><path d="M49.15 34.226c0 .618.291 1.236.763 1.636a3.73 3.73 0 0 1 1.272 2.908c-.073 2.036-1.781 3.672-3.817 3.599s-3.635-1.709-3.599-3.744c0-1.091.472-2.108 1.309-2.799.473-.4.727-.982.727-1.636h-9.706v-9.633c.618 0 1.2.254 1.636.727 1.345 1.563 3.672 1.745 5.235.4a3.61 3.61 0 0 0 1.272-3.09 3.71 3.71 0 0 0-3.417-3.453 3.61 3.61 0 0 0-3.09 1.272c-.4.473-1.018.763-1.636.763V11.47h22.72v22.72l-9.67.036z" fill="#ebece9"/><path d="M58.819 11.47v22.72h-2.726V14.451H36.099v-2.944l22.72-.036zM27.956 45.714a3.76 3.76 0 0 0 3.744 3.599 3.68 3.68 0 0 0 3.272-2.036h1.127v9.67h-22.72v-22.72h9.67a2.21 2.21 0 0 0-.727-1.636c-1.563-1.345-1.745-3.672-.4-5.235.763-.909 1.927-1.381 3.09-1.309a3.71 3.71 0 0 1 3.453 3.417 3.61 3.61 0 0 1-1.272 3.09c-.473.4-.763 1.018-.763 1.636h9.67v9.67h-1.127c-.909-1.818-3.163-2.545-4.98-1.636-1.309.691-2.108 2.036-2.036 3.49z" fill="#c1c1c1"/><g fill="#244583"><path d="M36.099 57.383h-22.72a.42.42 0 0 1-.436-.436v-22.72a.42.42 0 0 1 .436-.436h9.197c-.073-.327-.254-.618-.509-.872-1.745-1.491-1.927-4.108-.436-5.853s4.108-1.927 5.853-.436 1.927 4.108.436 5.853l-.4.436c-.254.218-.473.545-.545.872h9.197a.42.42 0 0 1 .436.436v9.67a.42.42 0 0 1-.436.436h-1.127c-.182 0-.327-.109-.4-.255-.836-1.599-2.799-2.254-4.399-1.418-1.127.582-1.818 1.745-1.781 3.054.073 1.781 1.527 3.163 3.272 3.163h.036a3.19 3.19 0 0 0 2.872-1.781c.073-.145.218-.255.4-.255h1.127a.42.42 0 0 1 .436.436v9.67c-.073.255-.254.436-.509.436zm-22.284-.873h21.848v-8.797h-.436c-.727 1.236-2.072 2.036-3.526 2.036h-.036c-2.254 0-4.072-1.781-4.144-4.035-.073-2.29 1.709-4.217 3.999-4.29 1.527-.073 2.945.727 3.708 2.036h.436v-8.797H26.43a.42.42 0 0 1-.436-.436c0-.763.327-1.491.909-1.963a3.29 3.29 0 0 0 1.127-2.726c-.145-1.818-1.745-3.163-3.563-3.017-.727.073-1.418.363-1.963.872-1.309 1.236-1.381 3.272-.145 4.617.073.109.182.182.291.254a2.54 2.54 0 0 1 .872 1.963.42.42 0 0 1-.436.436h-9.27V56.51zM49.404 60h-.655a.436.436 0 1 1 0-.873h.655a.436.436 0 1 1 0 .873zm-2.69 0h-7.888a.436.436 0 1 1 0-.872h7.888a.436.436 0 1 1 0 .872zm14.614-7.67v-.654a.436.436 0 1 1 .873 0v.654a.42.42 0 0 1-.436.436c-.218 0-.436-.182-.436-.436z"/><path d="M61.328 49.64v-7.888a.436.436 0 1 1 .873 0v7.888a.42.42 0 0 1-.436.436c-.218 0-.436-.182-.436-.436zM25.848 1.51c-.218 0-.364-.145-.436-.327l-.073-.436c-.073-.218.073-.473.291-.545s.473.073.546.291v.036l.109.4c.036.255-.109.509-.327.545-.036 0-.073.036-.109.036zm.981 3.889c-.073 0-.109 0-.182-.036-.109-.036-.218-.145-.255-.291l-.545-2.181c-.036-.218.109-.473.327-.509s.436.073.509.291l.436 1.636c.582-.291 1.2-.473 1.854-.582.691-.109 1.418-.109 2.108 0 .255.036.4.254.364.509s-.255.4-.509.364c-.618-.109-1.236-.109-1.854 0a5.13 5.13 0 0 0-2.036.763c-.073 0-.145.036-.218.036zm31.99 51.984h-22.72a.42.42 0 0 1-.436-.436v-9.233h-.436c-.727 1.236-2.072 2.036-3.526 2.036h-.036c-2.29 0-4.144-1.854-4.144-4.181 0-1.091.436-2.108 1.163-2.908a4.15 4.15 0 0 1 2.981-1.272c1.454 0 2.799.763 3.563 2.036h.436v-9.197a.42.42 0 0 1 .436-.436h9.67a.42.42 0 0 1 .436.436c0 .763-.327 1.491-.909 1.963-.763.691-1.2 1.672-1.127 2.69.145 1.818 1.708 3.163 3.526 3.017 1.709-.145 3.017-1.563 3.017-3.272 0-.945-.436-1.854-1.163-2.472a2.38 2.38 0 0 1-.873-1.963.42.42 0 0 1 .436-.436h9.67a.42.42 0 0 1 .436.436v22.72c.036.291-.145.473-.4.473zm-22.284-.873h21.848V34.663h-8.761c.073.327.255.618.509.872.909.8 1.454 1.927 1.454 3.126a4.21 4.21 0 0 1-1.309 3.054 4.01 4.01 0 0 1-3.126 1.091c-2.036-.145-3.672-1.781-3.853-3.817a4.06 4.06 0 0 1 1.418-3.417c.254-.218.472-.545.545-.873h-8.724v9.234a.42.42 0 0 1-.436.436h-1.127c-.182 0-.327-.109-.4-.254-.836-1.599-2.799-2.254-4.399-1.418s-2.254 2.799-1.418 4.399c.545 1.09 1.672 1.781 2.908 1.781h.036a3.19 3.19 0 0 0 2.872-1.781c.073-.145.218-.255.4-.255h1.127a.42.42 0 0 1 .436.436v9.234z"/><path d="M6.436 28.446c-.073 0-.145-.036-.218-.073-.109-.073-.182-.145-.182-.255L.51 6.053c0-.109 0-.218.073-.327s.145-.182.254-.182L22.903.019c.218-.073.473.073.545.327l2.217 8.906c.327-.182.545-.436.727-.763.582-1.163 1.709-1.999 3.017-2.217 2.036-.327 3.999.872 4.617 2.835.727 2.181-.473 4.508-2.654 5.235-1.272.4-2.617.218-3.708-.582a1.8 1.8 0 0 0-.945-.291l2.217 8.906c.073.218-.073.473-.327.545l-9.379 2.326c-.218.073-.473-.073-.545-.327-.182-.727-.036-1.527.4-2.145.582-.836.763-1.927.436-2.908-.582-1.709-2.436-2.654-4.18-2.072-.691.254-1.309.691-1.709 1.345a3.27 3.27 0 0 0 .945 4.508c.109.073.218.145.327.182a2.6 2.6 0 0 1 1.345 1.672c.073.218-.073.473-.327.545l-9.379 2.326c-.036.073-.073.073-.109.073zM1.492 6.271l5.271 21.193 8.47-2.108c-.145-.291-.4-.545-.727-.691-2.036-1.018-2.872-3.526-1.854-5.562s3.526-2.872 5.562-1.854 2.872 3.526 1.854 5.562a2.32 2.32 0 0 1-.291.509c-.218.291-.327.618-.327.982l8.506-2.108-2.217-8.979c-.073-.218.073-.473.327-.545h.036c.727-.182 1.49-.036 2.108.4a3.3 3.3 0 0 0 4.58-.763 3.3 3.3 0 0 0-.763-4.58 3.3 3.3 0 0 0-4.58.763c-.073.145-.182.254-.255.4-.327.691-.945 1.163-1.708 1.345-.218.073-.473-.073-.545-.327L22.685 1 1.492 6.271zm45.986 36.534a4.11 4.11 0 0 1-2.836-1.127c-1.672-1.563-1.781-4.181-.218-5.853l.327-.327a1.52 1.52 0 0 0 .509-.872h-9.161a.42.42 0 0 1-.436-.436v-9.633a.42.42 0 0 1 .436-.436 2.67 2.67 0 0 1 1.963.872c1.2 1.381 3.272 1.527 4.617.364 1.381-1.2 1.527-3.272.364-4.617-1.2-1.381-3.272-1.527-4.617-.363l-.327.327c-.509.582-1.2.909-1.963.909a.42.42 0 0 1-.436-.436V11.47a.42.42 0 0 1 .436-.436h22.72a.42.42 0 0 1 .436.436v22.72a.42.42 0 0 1-.436.436h-9.197c.109.327.291.654.545.872.945.8 1.454 2.036 1.418 3.272-.109 2.108-1.745 3.817-3.853 3.999-.109.036-.218.036-.291.036zM36.536 33.79h9.234a.42.42 0 0 1 .436.436 2.67 2.67 0 0 1-.872 1.963c-1.381 1.163-1.527 3.235-.327 4.617a3.29 3.29 0 0 0 2.726 1.127c1.672-.145 2.945-1.49 3.054-3.163a3.22 3.22 0 0 0-1.127-2.581c-.582-.509-.909-1.2-.909-1.963a.42.42 0 0 1 .436-.436h9.234V11.906H36.536v8.761c.327-.109.654-.291.873-.545.873-.982 2.145-1.527 3.453-1.418 2.29.182 3.999 2.181 3.817 4.471s-2.181 3.999-4.471 3.817c-1.09-.073-2.108-.618-2.835-1.454a1.52 1.52 0 0 0-.872-.509l.036 8.761z"/></g><path d="M16.433 42.842a.56.56 0 0 1 .545.545v.546c0 .291-.255.545-.545.509a.52.52 0 0 1-.509-.509v-.546c-.036-.291.218-.545.509-.545zm-.001 2.726a.56.56 0 0 1 .545.545v6.871c0 .291-.255.545-.545.509a.52.52 0 0 1-.509-.509v-6.871c-.036-.327.218-.545.509-.545z" fill="#fff"/></svg>