<svg xmlns="http://www.w3.org/2000/svg" xmlns:xlink="http://www.w3.org/1999/xlink" width="120" height="80" fill="none" xmlns:v="https://vecta.io/nano"><path d="M98.567 57.417v8.963c0 1.644-1.376 3.014-3.075 3.014h-70.81c-1.699 0-3.116-1.331-3.116-3.014v-8.963h77.001z" fill="#c1c1c1"/><use xlink:href="#B" fill="#323c6b"/><path d="M98.567 14.716v42.701h-77V14.716c0-1.644 1.416-3.014 3.116-3.014h70.769c1.7 0 3.116 1.331 3.116 3.014z" fill="#ebece9"/><use xlink:href="#C" fill="#323c6b"/><path d="M98.567 57.417v8.963c0 1.644-1.376 3.014-3.075 3.014h-.688V57.417h3.763z" fill="#a4a4a4"/><path d="M98.567 14.716v42.701h-3.763V19.061c0-1.644-1.376-2.975-3.075-2.975H21.566v-1.331c0-1.644 1.416-3.014 3.116-3.014h70.769c1.7-.039 3.116 1.292 3.116 2.975zM72.59 79.452l-2.792-10.059H50.335l-2.792 10.059H72.59z" fill="#c1c1c1"/><g fill="#244583"><path d="M72.59 80H47.544c-.324 0-.566-.235-.566-.548v-.157l2.792-10.059a.57.57 0 0 1 .567-.391h19.463c.243 0 .486.156.567.391l2.792 10.059c.081.274-.081.587-.405.665-.081.039-.121.039-.162.039zm-24.318-1.096h23.549l-2.468-8.963H50.781l-2.509 8.963z"/><path d="M76.596 80H43.538c-.324 0-.566-.235-.566-.548s.243-.548.566-.548h33.018c.324 0 .567.235.567.548.04.313-.243.548-.526.548z"/><use xlink:href="#B"/><use xlink:href="#C"/></g><path d="M60.047 65.479c1.184 0 2.145-.929 2.145-2.074s-.96-2.074-2.145-2.074-2.145.929-2.145 2.074.96 2.074 2.145 2.074z" fill="#eeefee"/><path d="M60.046 66.027c-1.497 0-2.711-1.174-2.711-2.622s1.214-2.622 2.711-2.622 2.711 1.174 2.711 2.622-1.214 2.622-2.711 2.622zm0-4.188c-.89 0-1.578.704-1.578 1.526 0 .861.728 1.526 1.578 1.526.89 0 1.578-.705 1.578-1.526.041-.822-.688-1.526-1.578-1.526z" fill="#244583"/><path d="M45.359 67.162H42.81c-.405 0-.728-.313-.728-.705s.324-.704.728-.704h2.549c.405 0 .728.313.728.704.04.352-.324.705-.728.705zm-5.787 0h-10.56c-.405 0-.728-.313-.728-.705s.324-.704.728-.704h10.561c.405 0 .728.313.728.704 0 .352-.324.705-.728.705z" fill="#fff"/><path d="M78.578 2.74v19.726c0 1.331-1.012 2.427-2.225 2.427H44.145c-1.214 0-2.225-1.096-2.225-2.427V2.74c0-1.331 1.012-2.427 2.225-2.427h32.208c1.214 0 2.225 1.096 2.225 2.427z" fill="#fed19a"/><path d="M76.353.313H44.145c-1.214 0-2.225 1.018-2.225 2.231v.783h31.44c1.214 0 2.225 1.018 2.225 2.231v17.299h.769c1.214 0 2.225-1.018 2.225-2.231V2.544c0-1.213-1.012-2.231-2.225-2.231z" fill="#febf2d"/><path d="M76.353 23.875H44.145c-1.497 0-2.711-1.253-2.711-2.779V2.779C41.434 1.252 42.648 0 44.145 0h32.208c1.497 0 2.711 1.252 2.711 2.779v18.317c0 1.526-1.214 2.779-2.711 2.779zM44.145.978a1.74 1.74 0 0 0-1.74 1.761v18.317a1.74 1.74 0 0 0 1.74 1.761h32.208a1.74 1.74 0 0 0 1.74-1.761V2.779a1.74 1.74 0 0 0-1.74-1.761L44.145.978z" fill="#244583"/><path d="M44.549 13.464c-.364 0-.647-.274-.647-.626V5.44c0-.352.283-.626.647-.626s.647.274.647.626v7.397c-.041.352-.324.626-.647.626z" fill="#fff"/><path d="M56.041 20.861l-1.983-4.07c-.405-.783-1.214-1.331-2.145-1.331H38.601c-1.295 0-2.347 1.018-2.347 2.27v33.542c0 1.253 1.052 2.27 2.347 2.27h42.971c1.295 0 2.347-1.018 2.347-2.27v-26.81c0-1.252-1.052-2.27-2.347-2.27H58.145c-.89 0-1.74-.509-2.104-1.331z" fill="#9fefde"/><path d="M58.145 22.192h-3.358c-.931 0-1.74-.509-2.145-1.292l-1.983-4.07c-.364-.783-1.214-1.292-2.104-1.292h3.318c.931 0 1.74.509 2.145 1.292l2.023 4.07c.364.783 1.214 1.292 2.104 1.292zm25.774 2.27V51.35c0 1.253-1.052 2.27-2.347 2.27h-3.318c1.295 0 2.347-1.018 2.347-2.27V24.462c0-1.252-1.052-2.27-2.347-2.27h3.318c1.295 0 2.347 1.018 2.347 2.27z" fill="#24c4a1"/><g fill="#244583"><path d="M83.919 30.333H36.254c-.324 0-.607-.274-.607-.587s.283-.587.607-.587h47.705c.324 0 .607.274.607.587s-.283.587-.647.587z"/><path d="M81.573 54.207H38.601c-1.659 0-2.994-1.292-2.994-2.896V17.808c0-1.605 1.335-2.896 2.994-2.896h13.312a3.05 3.05 0 0 1 2.711 1.644l1.983 4.07c.283.587.89.978 1.578.978h23.428c1.659 0 2.994 1.292 2.994 2.896v26.889c-.081 1.566-1.376 2.818-3.035 2.818zM38.601 16.125c-.971 0-1.74.744-1.74 1.683V51.35c0 .939.769 1.683 1.74 1.683h42.971c.971 0 1.74-.744 1.74-1.683V24.462c0-.939-.769-1.683-1.74-1.683H58.145c-1.133 0-2.185-.626-2.67-1.644l-1.983-4.071c-.283-.587-.89-.979-1.578-.979l-13.312.039z"/></g><path d="M76.029 24.814h.324a.79.79 0 0 1 .809.861c0 .43-.364.783-.809.783h-.324a.79.79 0 0 1-.809-.861c0-.391.364-.744.809-.783zm-13.352 0h10.156a.79.79 0 0 1 .809.861c0 .43-.364.783-.809.783H62.677a.79.79 0 0 1-.809-.861c0-.391.364-.744.809-.783z" fill="#fff"/><path d="M58.469 14.912c-.243 0-.445-.196-.445-.43 0-.078 0-.117.04-.157l3.884-8.376c.121-.235.364-.313.607-.235.243.117.324.352.243.587l-3.884 8.376c-.121.157-.283.235-.445.235zm-2.833-1.252a.47.47 0 0 1-.324-.117l-3.035-2.935c-.162-.157-.162-.47 0-.626l3.035-2.935c.162-.157.486-.157.647 0s.162.431 0 .626l-2.711 2.622 2.711 2.622c.162.157.162.47 0 .626a.47.47 0 0 1-.324.117zm9.549-.001c-.243 0-.445-.196-.445-.431a.44.44 0 0 1 .121-.313l2.711-2.622-2.711-2.622c-.162-.157-.162-.47 0-.626s.445-.157.647 0l3.035 2.935c.162.157.162.47 0 .626l-3.035 2.935a.47.47 0 0 1-.324.117z" fill="#244583"/><path d="M67.021 43.445l2.073 1.659-1.396 2.314-2.552-.887a7.32 7.32 0 0 1-2.991 1.659l-.478 2.584h-2.751l-.439-2.584a7.32 7.32 0 0 1-2.991-1.659l-2.552.926-1.396-2.314 2.073-1.659c-.279-1.08-.279-2.237 0-3.317l-2.073-1.659 1.396-2.314 2.552.926c.837-.81 1.874-1.35 2.991-1.659l.478-2.584h2.752l.479 2.584a7.32 7.32 0 0 1 2.991 1.659l2.552-.887 1.396 2.314-2.073 1.659c.239 1.003.239 2.121-.04 3.24z" fill="#24c4a1"/><path d="M60.492 45.088c1.832 0 3.318-1.437 3.318-3.209s-1.486-3.209-3.318-3.209-3.318 1.437-3.318 3.209 1.486 3.209 3.318 3.209z" fill="#ebece9"/><path d="M60.492 45.401c-2.023 0-3.642-1.565-3.642-3.523s1.619-3.523 3.642-3.523 3.642 1.566 3.642 3.523-1.618 3.523-3.642 3.523zm0-6.458c-1.659 0-3.035 1.331-3.035 2.935s1.376 2.935 3.035 2.935 3.035-1.331 3.035-2.935-1.376-2.935-3.035-2.935zm1.416 12.368h-2.792c-.162 0-.283-.117-.283-.235l-.445-2.427a7.24 7.24 0 0 1-2.832-1.605l-2.387.861c-.121.039-.283 0-.364-.117l-1.416-2.348c-.081-.117-.041-.274.081-.352l1.942-1.565a6.99 6.99 0 0 1 0-3.17l-1.942-1.565c-.121-.078-.121-.235-.081-.352l1.416-2.348c.081-.117.243-.196.364-.117l2.387.861a7.24 7.24 0 0 1 2.832-1.605l.445-2.427c.04-.156.162-.235.283-.235h2.792c.162 0 .283.117.283.235l.445 2.427c1.052.313 2.023.861 2.832 1.566l2.387-.861c.121-.039.283 0 .364.117l1.416 2.348c.081.117.04.274-.081.352l-1.942 1.566a6.99 6.99 0 0 1 0 3.17l1.942 1.566c.121.078.121.235.081.352l-1.376 2.348c-.081.117-.243.157-.364.117l-2.428-.861c-.809.744-1.78 1.252-2.832 1.566L62.19 51c-.041.196-.162.313-.283.313zm-2.549-.587h2.266l.405-2.387c0-.117.121-.196.202-.235 1.092-.274 2.104-.861 2.913-1.605.081-.078.202-.117.324-.078l2.347.822 1.133-1.918-1.902-1.526c-.081-.039-.121-.157-.121-.235v-.078a6.32 6.32 0 0 0 0-3.248v-.078c0-.078.04-.157.121-.235l1.902-1.526-1.133-1.918-2.347.822c-.121.039-.243 0-.324-.078a6.44 6.44 0 0 0-2.913-1.605c-.121-.039-.202-.117-.202-.235l-.405-2.388h-2.266l-.405 2.388c0 .117-.121.196-.202.235a6.46 6.46 0 0 0-2.873 1.605c-.081.078-.202.117-.324.078l-2.347-.822-1.133 1.918 1.902 1.526c.081.039.121.157.121.235v.078c-.283 1.057-.283 2.192 0 3.249v.078c0 .078-.04.157-.121.235l-1.902 1.526 1.133 1.918 2.347-.822c.121-.039.243 0 .324.078a6.31 6.31 0 0 0 2.873 1.605c.121.039.202.117.202.235l.405 2.387z" fill="#244583"/><defs ><path id="B" d="M95.451 69.941H24.682c-2.023 0-3.682-1.605-3.682-3.562v-8.963c0-.313.243-.548.567-.548h77c.324 0 .566.235.566.548v8.963c0 1.957-1.659 3.522-3.682 3.562zM22.133 57.965v8.415c0 1.37 1.133 2.466 2.549 2.466h70.769c1.416 0 2.549-1.096 2.549-2.466v-8.415H22.133z"/><path id="C" d="M98.567 57.965h-77c-.324 0-.567-.235-.567-.548V14.716c0-1.957 1.659-3.562 3.682-3.523h70.769c2.023 0 3.642 1.605 3.642 3.523v42.701c.04.274-.243.548-.526.548zm-76.434-1.096h75.868V14.716c0-1.37-1.133-2.427-2.549-2.466H24.682c-1.416 0-2.549 1.096-2.549 2.466v42.153z"/></defs></svg>