<svg xmlns="http://www.w3.org/2000/svg" width="109" height="100" fill="none" xmlns:v="https://vecta.io/nano"><path d="M49.081 99.832c26.263 0 47.553-21.29 47.553-47.553S75.344 4.725 49.081 4.725 1.527 26.015 1.527 52.278s21.29 47.553 47.553 47.553z" fill="#ebece9"/><path d="M49.081 4.725c-14.66 0-28.471 6.785-37.497 18.355 18.9-18.294 49.007-17.81 67.241 1.03 16.477 17.022 17.931 43.676 3.271 62.334 18.901-18.234 19.446-48.28 1.272-67.18C74.402 9.935 62.044 4.725 49.081 4.725z" fill="#c1c1c1"/><path d="M37.206 35.771c1.373-1.174 1.622-3.136.557-4.382s-3.042-1.304-4.416-.13-1.622 3.136-.557 4.382 3.043 1.304 4.416.13z" fill="#eeefee"/><path d="M32.846 90.927c-.182 0-.303-.061-.424-.121a42.44 42.44 0 0 1-4.664-2.423c-.485-.303-.666-1.03-.364-1.514s.969-.666 1.454-.364l4.422 2.302c.545.242.787.909.545 1.454-.121.424-.545.666-.969.666zm-8.239-4.846c-.242 0-.485-.061-.666-.242-5.937-4.483-10.54-10.48-13.327-17.386-.242-.545.061-1.212.606-1.454s1.212.061 1.454.606a39.37 39.37 0 0 0 12.6 16.477c.485.363.606 1.09.182 1.575a1.06 1.06 0 0 1-.848.424z" fill="#fff"/><path d="M68.345 57.367c.485-1.696.727-3.453.727-5.21s-.242-3.574-.727-5.27l5.816-4.786-3.756-6.542-7.027 2.666c-2.484-2.544-5.634-4.301-9.087-5.21l-1.212-7.451h-7.572l-1.212 7.451c-3.514.909-6.603 2.726-9.087 5.27l-7.027-2.665-3.756 6.542 5.815 4.786a18.98 18.98 0 0 0-.727 5.21c0 1.757.242 3.574.727 5.27l-5.815 4.786 3.756 6.542 7.027-2.665c2.484 2.544 5.634 4.301 9.087 5.21l1.212 7.451h7.572l1.212-7.451c3.453-.909 6.542-2.726 9.087-5.27l7.027 2.665 3.756-6.542-5.815-4.786zm-19.082 5.149c-5.694 0-10.359-4.664-10.359-10.359s4.665-10.359 10.359-10.359 10.359 4.665 10.359 10.359-4.604 10.359-10.359 10.359z" fill="#9fefde"/><g fill="#244583"><path d="M45.567 79.478a.84.84 0 0 1-.788-.666l-1.151-6.966c-3.211-.909-6.179-2.605-8.602-4.907l-6.603 2.484c-.363.121-.727 0-.969-.364l-3.756-6.542c-.182-.303-.121-.727.182-.969l5.452-4.483c-.848-3.271-.848-6.663 0-9.874l-5.452-4.422c-.303-.242-.364-.666-.182-.969l3.756-6.542c.182-.303.606-.485.969-.363l6.603 2.484a21.31 21.31 0 0 1 8.541-4.967l1.151-6.966a.79.79 0 0 1 .788-.666h7.572a.84.84 0 0 1 .788.666l1.03 6.966c3.211.909 6.179 2.605 8.602 4.907l6.603-2.484c.364-.121.787 0 .969.363l3.756 6.542c.182.303.121.727-.182.969l-5.452 4.483c.424 1.636.606 3.271.606 4.967 0 1.636-.182 3.271-.606 4.907l5.452 4.422c.303.242.364.666.182.969l-3.756 6.542c-.182.303-.606.485-.969.363l-6.603-2.484a21.31 21.31 0 0 1-8.541 4.967l-1.151 6.966c-.061.364-.363.666-.787.666h-7.451zM35.209 65.302c.182 0 .424.061.545.242 2.423 2.423 5.391 4.119 8.723 5.028.303.061.545.303.545.606l1.151 6.785h6.24l1.09-6.785a.8.8 0 0 1 .545-.606c3.271-.848 6.3-2.605 8.723-5.028a.75.75 0 0 1 .848-.182l6.421 2.423 3.09-5.391-5.331-4.362a.75.75 0 0 1-.242-.848c.424-1.636.666-3.271.666-4.967a18.44 18.44 0 0 0-.727-5.089c-.061-.303 0-.606.242-.787l5.331-4.362-3.09-5.391-6.421 2.423a.75.75 0 0 1-.848-.182c-2.423-2.423-5.391-4.18-8.723-5.028-.303-.061-.545-.303-.545-.606l-1.151-6.785h-6.239l-1.09 6.785a.8.8 0 0 1-.545.606c-3.271.848-6.3 2.605-8.723 5.028a.75.75 0 0 1-.848.182l-6.421-2.423-3.089 5.391 5.331 4.362c.242.182.363.485.242.787-.424 1.636-.666 3.332-.666 5.028a17.7 17.7 0 0 0 .727 5.028c.061.303 0 .606-.242.788l-5.331 4.361 3.09 5.391 6.421-2.423h.303zm14.054-1.999a11.12 11.12 0 0 1-11.146-11.146c0-6.179 4.967-11.146 11.146-11.146s11.146 4.967 11.146 11.146a11.16 11.16 0 0 1-11.146 11.146zm0-20.717c-5.27 0-9.571 4.301-9.571 9.571s4.301 9.571 9.571 9.571 9.571-4.301 9.571-9.571-4.24-9.571-9.571-9.571zm.242-37.679l-4.059-3.756-.121-.121L46.355 0l5.27 4.907-5.27 4.967-.969-1.09 4.119-3.877z"/><path d="M50.171 4.18c-10.965-.182-21.808 3.392-30.47 10.116C3.526 26.836-2.471 47.674 2.921 66.211l1.333-.545c-5.21-17.931.666-38.103 16.356-50.219 8.541-6.603 18.779-10.056 29.562-9.814h.121V4.18h-.121zm38.588 74.752L94.15 77.6l.121-.061.364 1.393-7.027 1.757-1.212-7.087 1.393-.242.969 5.573z"/><path d="M89.062 79.902c6.179-9.087 9.026-20.112 8.178-31.076-1.636-20.415-15.811-36.831-34.287-42.404l-.303 1.393c17.87 5.452 31.5 21.384 33.136 41.132.848 10.783-1.878 21.202-7.936 30.168l-.061.121 1.212.788.061-.121zM8.009 74.753l-1.272 5.391-.061.121-1.393-.303 1.696-7.027 6.906 2.181-.485 1.393-5.391-1.757z"/><path d="M6.98 74.571c5.21 9.632 13.63 17.325 23.807 21.626 18.84 7.935 39.981 3.029 53.49-10.783l-1.151-.909c-13.085 13.327-33.56 18.052-51.794 10.359-9.995-4.18-17.931-11.449-23.08-20.96l-.061-.121-1.272.666.061.121z"/></g><path d="M90.516 3.756c-2.12 1.393-7.027 4.24-13.024 5.513-.969.182-1.636 1.03-1.636 1.999v16.235a17.71 17.71 0 0 0 .727 5.028c1.09 3.574 3.332 6.663 6.3 8.844l7.996 5.815a1.28 1.28 0 0 0 1.454 0l7.996-5.815c3.029-2.181 5.209-5.27 6.3-8.844a17.73 17.73 0 0 0 .727-5.028V11.268c0-.969-.667-1.817-1.636-1.999-5.997-1.272-10.904-4.119-13.024-5.513-.606-.424-1.514-.424-2.181 0z" fill="#9fefde"/><path d="M106.145 8.844c-.182-.061-.303-.061-.485-.121.303.363.485.788.485 1.333v16.719c0 1.757-.243 3.513-.788 5.149-1.151 3.635-3.513 6.845-6.663 9.087l-8.481 5.937c-.182.121-.424.182-.666.242l.848.606a1.38 1.38 0 0 0 1.515 0l8.481-5.937a17.5 17.5 0 0 0 6.663-9.087c.546-1.696.788-3.392.788-5.149V10.904c.06-1.03-.666-1.817-1.696-2.06z" fill="#24c4a1"/><g fill="#22417d"><path d="M106.205 8.36c-6.118-1.272-11.206-4.301-13.145-5.513-.848-.545-1.999-.545-2.847 0-1.878 1.212-6.966 4.24-13.145 5.513-1.212.242-2.12 1.333-2.12 2.605v16.598c0 1.817.242 3.574.787 5.331 1.151 3.695 3.514 7.027 6.663 9.268l8.178 5.937c.303.242.666.364 1.09.364s.727-.121 1.09-.364l8.178-5.937c3.15-2.302 5.513-5.573 6.664-9.268.545-1.696.787-3.514.787-5.331V10.965c-.06-1.212-.969-2.302-2.181-2.605zm.97 2.605v16.598c0 1.696-.243 3.332-.727 4.967-1.091 3.453-3.272 6.603-6.24 8.723L92.03 47.19c-.242.182-.545.182-.787 0l-8.178-5.937c-2.968-2.12-5.149-5.21-6.239-8.723-.485-1.636-.727-3.271-.727-4.967V10.965c0-.727.485-1.333 1.212-1.454 6.118-1.272 11.086-4.119 13.509-5.694.485-.303 1.151-.303 1.636 0 2.423 1.575 7.39 4.422 13.509 5.694.727.121 1.212.727 1.212 1.454z"/><path d="M91.606 48.523c-.424 0-.787-.121-1.151-.363l-8.178-5.937c-3.15-2.302-5.573-5.634-6.724-9.389-.545-1.757-.787-3.513-.787-5.331V10.965c0-1.333.909-2.423 2.241-2.726 6.118-1.272 11.207-4.301 13.085-5.513a2.75 2.75 0 0 1 3.029 0c1.878 1.212 6.966 4.24 13.084 5.513 1.272.303 2.242 1.393 2.242 2.726v16.598c0 1.817-.243 3.635-.788 5.331-1.151 3.756-3.513 7.087-6.724 9.389l-8.178 5.937a2.32 2.32 0 0 1-1.151.303zm0-45.978c-.485 0-.969.121-1.333.424-1.878 1.212-6.966 4.24-13.145 5.573-1.151.242-1.999 1.272-1.999 2.423v16.598c0 1.757.242 3.574.787 5.27 1.151 3.695 3.453 6.966 6.603 9.208l8.178 5.937a1.64 1.64 0 0 0 1.938 0l8.178-5.937c3.089-2.241 5.452-5.513 6.603-9.208.545-1.696.787-3.453.787-5.27V10.965c0-1.151-.848-2.181-1.999-2.423-6.179-1.333-11.267-4.301-13.145-5.573-.485-.242-.969-.424-1.454-.424zm0 44.888c-.182 0-.363-.061-.485-.182l-8.178-5.937c-2.968-2.181-5.21-5.27-6.3-8.784a17.71 17.71 0 0 1-.727-5.028V10.965c0-.787.545-1.454 1.333-1.636 6.058-1.272 11.025-4.119 13.448-5.694a1.65 1.65 0 0 1 1.817 0c2.423 1.575 7.39 4.362 13.448 5.694.787.182 1.333.848 1.333 1.636v16.598a17.73 17.73 0 0 1-.727 5.028c-1.091 3.514-3.332 6.603-6.3 8.784l-8.178 5.876c-.121.121-.303.182-.485.182zm0-43.737c-.242 0-.485.061-.727.242-2.423 1.575-7.391 4.422-13.569 5.694-.666.121-1.09.666-1.09 1.333v16.598c0 1.696.242 3.332.727 4.907 1.09 3.453 3.271 6.542 6.179 8.663l8.178 5.937a.55.55 0 0 0 .606 0l8.178-5.937c2.908-2.12 5.088-5.21 6.179-8.663a16.91 16.91 0 0 0 .727-4.907V10.965c0-.666-.485-1.212-1.091-1.333-6.118-1.272-11.146-4.119-13.569-5.694-.182-.182-.424-.242-.727-.242z"/></g><path d="M97.119 16.477l-8.663 9.874-2.847-2.302c-1.272-1.03-3.09-.848-4.119.424s-.848 3.089.424 4.119l7.209 5.815 12.418-14.114c1.09-1.212.969-3.09-.303-4.119-1.211-1.03-3.029-.909-4.119.303z" fill="#ebece9"/><path d="M102.813 18.173c-.061-.909-.485-1.757-1.212-2.423-1.453-1.272-3.695-1.09-4.906.303l-8.299 9.45-2.423-1.939c-1.514-1.211-3.695-.969-4.907.545-.606.727-.848 1.636-.788 2.544.121.909.545 1.757 1.272 2.363l7.633 6.179 12.721-14.539c.667-.666.97-1.575.909-2.484zm-20.475 9.935c-.485-.424-.787-.969-.848-1.575s.121-1.212.545-1.757 1.151-.848 1.817-.848c.545 0 1.09.182 1.514.545l3.271 2.605 8.966-10.238c.848-.969 2.362-1.09 3.332-.242.485.424.788.969.788 1.636.06.606-.182 1.212-.606 1.696L89.122 33.621l-6.785-5.513z" fill="#22417d"/></svg>