<svg xmlns="http://www.w3.org/2000/svg" width="100" height="100" fill="none" xmlns:v="https://vecta.io/nano"><path d="M50 98.62c26.852 0 48.62-21.768 48.62-48.619S76.852 1.38 50 1.38 1.38 23.148 1.38 50 23.148 98.62 50 98.62z" fill="#ebece9"/><path d="M50 1.38c-14.949 0-29.091 6.936-38.316 18.721C30.943 1.448 61.717 1.919 80.37 21.246c16.902 17.441 18.316 44.647 3.367 63.771 19.327-18.586 19.933-49.36 1.28-68.687C75.859 6.7 63.199 1.38 50 1.38z" fill="#c1c1c1"/><path d="M50 99.428C22.727 99.428.572 77.273.572 50S22.727.572 50 .572 99.428 22.727 99.428 50 77.273 99.428 50 99.428zm0-97.239C23.603 2.189 2.189 23.603 2.189 50S23.603 97.811 50 97.811 97.811 76.397 97.811 50 76.397 2.189 50 2.189z" fill="#244583"/><path d="M37.836 33.127c1.385-1.185 1.626-3.176.538-4.448s-3.093-1.343-4.477-.158-1.626 3.176-.538 4.448 3.093 1.343 4.477.158z" fill="#eeefee"/><path d="M33.367 89.529c-.135 0-.337 0-.471-.067-1.616-.741-3.232-1.549-4.781-2.492-.539-.337-.673-1.01-.337-1.549.337-.471 1.01-.673 1.482-.404 1.482.876 2.963 1.684 4.512 2.357.539.269.808.943.606 1.481-.135.404-.539.673-1.01.673zm-8.417-4.983c-.269 0-.471-.067-.673-.202a42.1 42.1 0 0 1-13.603-17.778 1.2 1.2 0 0 1 .606-1.482 1.2 1.2 0 0 1 1.481.606A39.72 39.72 0 0 0 25.69 82.525c.471.404.606 1.077.202 1.549-.269.337-.606.471-.943.471z" fill="#fff"/><path d="M73.278 47.402c2 1.155 2 4.041 0 5.196l-32.667 18.86c-2 1.155-4.5-.289-4.5-2.598V31.14c0-2.309 2.5-3.753 4.5-2.598l32.667 18.86z" fill="#9fefde"/><path d="M72.701 47.766c1.792 1.049 1.814 3.631.04 4.711-.866.527-1.953.533-2.825.016L37.961 33.547a2.64 2.64 0 0 1-1.294-2.272c0-2.041 2.215-3.311 3.976-2.28l32.058 18.771z" fill="#24c4a1"/><path d="M72.903 48.051c1.5.866 1.5 3.031 0 3.897l-32.667 18.86c-1.5.866-3.375-.216-3.375-1.949V31.14c0-1.732 1.875-2.815 3.375-1.949l32.667 18.86z" stroke="#244583" stroke-width="1.5"/></svg>