<svg xmlns="http://www.w3.org/2000/svg" xmlns:xlink="http://www.w3.org/1999/xlink" width="120" height="80" fill="none" xmlns:v="https://vecta.io/nano"><style><![CDATA[.B{fill:#244583}.C{fill:#ebece9}.D{fill:#9fefde}.E{fill:#c1c1c1}]]></style><path d="M.681 71.518c0 4.293 7.958 7.749 17.749 7.749s17.749-3.456 17.749-7.749v-33.56c0 4.293-7.958 7.749-17.749 7.749S.681 42.251.681 37.958v33.56z" class="C"/><path d="M36.23 37.958v33.56c0 4.293-7.958 7.749-17.749 7.749-8.22 0-15.183-2.461-17.173-5.759 4.293 1.937 8.953 2.88 13.665 2.775 9.843 0 17.749-3.456 17.749-7.749V42.618c2.199-1.309 3.508-2.932 3.508-4.66z" class="E"/><path d="M18.482 45.707c9.802 0 17.749-3.469 17.749-7.749s-7.946-7.749-17.749-7.749S.733 33.679.733 37.958s7.946 7.749 17.749 7.749z" class="C"/><path d="M18.482 46.387C8.115 46.387 0 42.67 0 37.958s8.115-8.429 18.482-8.429 18.482 3.717 18.482 8.429-8.167 8.429-18.482 8.429zm0-15.497c-9.267 0-17.12 3.246-17.12 7.068s7.853 7.068 17.12 7.068S35.55 41.78 35.55 37.958s-7.801-7.068-17.068-7.068z" class="B"/><path d="M18.482 57.592C8.115 57.592 0 53.874 0 49.162c0-.367.314-.681.681-.681s.681.314.681.681c0 3.822 7.801 7.068 17.068 7.068s17.068-3.246 17.068-7.068c0-.367.314-.681.681-.681s.681.314.681.681c.052 4.712-8.063 8.429-18.377 8.429zm0 11.204C8.115 68.796 0 65.079 0 60.366c0-.367.314-.681.681-.681s.681.314.681.681c0 3.822 7.801 7.068 17.068 7.068s17.068-3.246 17.068-7.068c0-.367.314-.681.681-.681s.681.314.681.681c.052 4.712-8.063 8.429-18.377 8.429z" fill="#22417d"/><path d="M.681 31.414c-.366 0-.681-.314-.681-.681 0-.209.105-.419.262-.524.366-.262.785-.576 1.204-.785.314-.209.733-.105.942.21s.105.733-.209.942l-1.099.733c-.105.052-.262.105-.419.105zm4.555-2.409c-.366 0-.681-.314-.681-.681a.68.68 0 0 1 .419-.628c3.77-1.414 7.801-2.147 11.832-2.251.366 0 .681.262.733.681 0 .367-.262.681-.681.733-3.874.105-7.749.838-11.361 2.199-.105-.052-.209-.052-.262-.052z" class="C"/><path d="M18.482 80C8.115 80 0 76.283 0 71.571V37.958c0-.366.314-.681.681-.681s.681.314.681.681c0 3.822 7.853 7.068 17.12 7.068S35.55 41.78 35.55 37.958c0-.366.314-.681.681-.681s.681.314.681.681v33.56c0 4.764-8.115 8.482-18.429 8.482zM1.361 41.204v30.314c0 3.822 7.801 7.068 17.068 7.068s17.068-3.246 17.068-7.068V41.204c-2.722 3.089-9.267 5.183-17.068 5.183S4.136 44.293 1.361 41.204z" class="B"/><path d="M14.136 52.618l-.419-.157c-.314-.105-.628.052-.785.314-.105.314.052.628.367.733h.052l.419.157c.262.105.628 0 .733-.314.105-.262 0-.628-.314-.733 0 .052 0 0-.052 0zm9.634-.105c-2.356.942-4.922 1.152-7.435.681-.314-.052-.628.157-.681.471s.157.628.471.681h.052c2.67.524 5.445.314 7.958-.681.314-.105.471-.419.419-.733v-.052c-.105-.367-.471-.523-.785-.367z" fill="#fff"/><path d="M113.926 30.838V44.45a5.05 5.05 0 0 1-5.078 5.078H47.644a5.05 5.05 0 0 1-5.079-5.078V30.838c0-2.775 2.251-5.079 5.026-5.079h61.205c2.879 0 5.13 2.251 5.13 5.079z" class="C"/><path d="M85.864 38.587h-34.66c-.523 0-.942-.366-.942-.785s.419-.785.942-.785h34.66c.524 0 .942.366.942.785s-.419.785-.942.785z" class="B"/><path d="M113.926 59.529v13.613a5.05 5.05 0 0 1-5.078 5.078H47.644a5.05 5.05 0 0 1-5.079-5.078V59.477c0-2.775 2.251-5.079 5.026-5.079h61.205c2.879 0 5.13 2.304 5.13 5.131 0-.052 0-.052 0 0z" class="C"/><path d="M113.927 30.838V44.45c0 2.461-1.781 4.555-4.189 4.974.052-.314.052-.628.052-.943V34.869a5.05 5.05 0 0 0-5.078-5.079H43.508c-.314 0-.576 0-.89.052.471-2.408 2.565-4.136 4.974-4.136h61.205c2.879.052 5.131 2.304 5.131 5.131zm0 28.691v13.613c0 2.461-1.781 4.555-4.189 4.974.052-.314.052-.628.052-.942V63.56a5.05 5.05 0 0 0-5.078-5.079H43.508c-.314 0-.576 0-.89.052.419-2.408 2.513-4.136 4.974-4.136h61.205c2.879 0 5.131 2.304 5.131 5.131 0 0 0-.052 0 0z" class="E"/><path d="M85.864 67.278h-34.66c-.523 0-.942-.314-.942-.733s.419-.733.942-.733h34.66c.524 0 .942.314.942.733s-.419.733-.942.733z" class="B"/><path d="M48.167 49.529h60.157v4.869H48.167v-4.869z" class="E"/><path d="M108.953 55.079H47.539v-6.178h61.466v6.178h-.052zM48.848 53.77h58.848v-3.56H48.848v3.56z" class="B"/><use xlink:href="#B" class="D"/><path d="M104.398 40.89c-1.78 0-3.194-1.414-3.194-3.194s1.466-3.194 3.194-3.194 3.194 1.414 3.194 3.194c.052 1.728-1.414 3.194-3.194 3.194zm0-5.393c-1.204 0-2.147.995-2.147 2.147s.995 2.147 2.147 2.147c1.204 0 2.146-.995 2.146-2.147s-.942-2.147-2.146-2.147z" class="B"/><use xlink:href="#B" x="-10.629" class="D"/><path d="M93.769 40.89a3.17 3.17 0 0 1-3.194-3.194 3.17 3.17 0 1 1 6.387 0c0 1.728-1.414 3.194-3.194 3.194zm0-5.393c-1.204 0-2.147.995-2.147 2.147s.995 2.147 2.147 2.147c1.204 0 2.147-.995 2.147-2.147s-.942-2.147-2.147-2.147z" class="B"/><use xlink:href="#B" y="28.691" class="D"/><path d="M104.398 69.529c-1.78 0-3.194-1.414-3.194-3.194s1.466-3.194 3.194-3.194 3.194 1.414 3.194 3.194c.052 1.728-1.414 3.194-3.194 3.194zm0-5.393c-1.204 0-2.147.995-2.147 2.147 0 1.204.995 2.147 2.147 2.147 1.204 0 2.146-.995 2.146-2.147.053-1.152-.942-2.147-2.146-2.147z" class="B"/><use xlink:href="#B" x="-10.629" y="28.691" class="D"/><path d="M93.769 69.529a3.194 3.194 0 1 1 0-6.387 3.17 3.17 0 0 1 3.194 3.194 3.21 3.21 0 0 1-3.194 3.194zm0-5.393c-1.204 0-2.147.995-2.147 2.147 0 1.204.995 2.147 2.147 2.147 1.204 0 2.147-.995 2.147-2.147s-.942-2.147-2.147-2.147zm14.503 15.026H47.068c-3.141 0-5.707-2.565-5.707-5.707V59.791c0-3.141 2.565-5.707 5.707-5.707h61.204c1.518 0 2.984.576 4.031 1.675a5.62 5.62 0 0 1 1.676 4.031v13.665c.052 3.141-2.513 5.707-5.707 5.707zm-61.204-23.77a4.43 4.43 0 0 0-4.398 4.398v13.665a4.39 4.39 0 0 0 4.398 4.398h61.204a4.39 4.39 0 0 0 4.398-4.398V59.791a4.39 4.39 0 0 0-1.309-3.141c-.838-.837-1.937-1.309-3.141-1.309H47.068v.052z" class="B"/><path d="M56.963 73.089h-.785c-.576 0-1.099-.471-1.099-1.1 0-.576.471-1.099 1.099-1.099h.785c.576 0 1.099.471 1.099 1.099a1.07 1.07 0 0 1-1.099 1.1zm16.388 0H60.628c-.576 0-1.099-.471-1.099-1.1 0-.576.471-1.099 1.099-1.099h12.723c.576 0 1.099.471 1.099 1.099s-.523 1.1-1.099 1.1z" fill="#fff"/><path d="M108.691 50.052H47.487c-3.141 0-5.707-2.565-5.707-5.707V30.681c0-3.141 2.566-5.707 5.707-5.707h61.204c3.141 0 5.707 2.565 5.707 5.707v13.665c.052 3.141-2.513 5.707-5.707 5.707zm-61.204-23.77c-2.408 0-4.398 1.989-4.398 4.398v13.665a4.39 4.39 0 0 0 4.398 4.398h61.204a4.39 4.39 0 0 0 4.398-4.398V30.681c0-2.408-1.99-4.398-4.398-4.398H47.487z" class="B"/><path d="M118.586 38.848c.419 0 .785-.367.785-.785v-3.56c0-.419-.366-.785-.785-.785s-.785.366-.785.785v3.56a.77.77 0 0 0 .785.785zm0-7.015c.419 0 .786-.366.786-.785v-1.309a9.59 9.59 0 0 0-9.582-9.581c-.418 0-.785.366-.785.785s.367.785.785.785c4.398 0 8.011 3.56 8.011 8.011v1.309a.77.77 0 0 0 .785.785z" class="C"/><path d="M40.052.89c-2.618 1.675-8.744 5.236-16.23 6.859-1.152.262-2.042 1.257-2.042 2.461v20.209c0 2.147.314 4.241.942 6.283 1.361 4.398 4.084 8.272 7.853 10.942l9.948 7.225a1.58 1.58 0 0 0 1.78 0l9.948-7.225c3.717-2.722 6.492-6.544 7.853-10.942.628-2.042.943-4.136.943-6.283V10.21c0-1.204-.838-2.199-2.042-2.461C51.518 6.178 45.393 2.618 42.775.89c-.838-.524-1.885-.524-2.722 0z" class="D"/><path d="M59.057 7.539l-.576-.157c.367.419.576.995.576 1.571v20.367c0 2.147-.314 4.241-.995 6.283-1.414 4.45-4.293 8.325-8.168 11.047l-10.314 7.277c-.262.157-.524.262-.785.262l1.047.733c.576.367 1.309.367 1.832 0l10.314-7.277c3.874-2.723 6.754-6.597 8.167-11.047.628-2.042.995-4.188.995-6.283V10.052c0-1.204-.89-2.251-2.094-2.513z" fill="#24c4a1"/><path d="M41.414 55.654c-.419 0-.838-.105-1.204-.367l-9.948-7.225c-3.822-2.775-6.649-6.754-8.01-11.257-.628-2.094-.942-4.241-.942-6.387V10.209c0-1.414 1.047-2.67 2.461-2.984C31.309 5.654 37.487 1.99 39.791.471c.995-.628 2.304-.628 3.298 0 2.304 1.518 8.534 5.183 16.021 6.754 1.414.314 2.461 1.571 2.461 2.984v20.209a21.68 21.68 0 0 1-.942 6.387c-1.361 4.503-4.241 8.482-8.01 11.257l-9.948 7.225c-.419.209-.838.367-1.257.367zM40.314 1.361c-2.932 1.885-8.953 5.34-16.388 6.911-.942.209-1.623.995-1.623 1.99v20.209a20.22 20.22 0 0 0 .942 6.126c1.309 4.293 4.031 8.063 7.644 10.681l9.948 7.173a1.02 1.02 0 0 0 1.204 0l9.948-7.225c3.612-2.618 6.335-6.44 7.644-10.681a20.22 20.22 0 0 0 .942-6.126V10.209c0-.942-.681-1.78-1.623-1.99-7.382-1.571-13.455-5.026-16.387-6.911-.733-.419-1.571-.419-2.251.052z" class="B"/><path d="M48.063 16.806L37.539 28.848l-3.456-2.775c-1.518-1.257-3.77-.995-5.026.524s-.995 3.77.524 5.026l8.796 7.12 15.026-17.173c1.309-1.466 1.152-3.717-.366-5.026-1.414-1.361-3.717-1.204-4.974.262z" class="C"/><path d="M38.429 39.372l-9.162-7.382c-.838-.681-1.361-1.675-1.466-2.722-.105-1.099.209-2.147.89-2.984 1.414-1.728 3.979-1.989 5.759-.576l3.089 2.461 10.105-11.675c1.466-1.675 4.084-1.885 5.759-.367a4.21 4.21 0 0 1 1.414 2.775c.052 1.099-.262 2.147-.995 2.932L38.429 39.372zm-6.597-13.612c-.89 0-1.78.366-2.356 1.152-.524.628-.733 1.414-.681 2.251.105.785.471 1.518 1.099 2.042l8.429 6.806 14.712-16.806c.523-.628.785-1.414.733-2.199a2.91 2.91 0 0 0-1.047-2.094c-1.257-1.1-3.194-.995-4.346.314L37.592 29.529 33.77 26.44a3.02 3.02 0 0 0-1.937-.681z" class="B"/><defs ><path id="B" d="M104.398 40.314a2.67 2.67 0 1 0 0-5.34 2.67 2.67 0 1 0 0 5.34z"/></defs></svg>