<svg xmlns="http://www.w3.org/2000/svg" xmlns:xlink="http://www.w3.org/1999/xlink" width="120" height="80" fill="none" xmlns:v="https://vecta.io/nano"><style><![CDATA[.B{fill:#244583}.C{fill:#ebece9}.D{fill:#24c4a1}.E{fill:#9fefde}]]></style><path d="M59.703.52c-.326 0-.594.267-.594.594v77.655c0 .327.267.594.594.594s.594-.267.594-.594V1.143c0-.356-.267-.623-.594-.623z" class="C"/><path d="M63.117 2.019a4.84 4.84 0 0 0-6.857 0 4.84 4.84 0 0 0 0 6.857 4.84 4.84 0 0 0 6.857 0 4.84 4.84 0 0 0 0-6.857z" class="D"/><path d="M63.562 1.603c-2.137-2.137-5.581-2.137-7.688 0-2.137 2.137-2.137 5.581 0 7.688a5.44 5.44 0 0 0 7.718 0c2.078-2.108 2.078-5.581-.03-7.688zm-.861 6.827a4.23 4.23 0 0 1-5.996 0 4.23 4.23 0 0 1 0-5.996 4.2 4.2 0 0 1 2.998-1.247 4.2 4.2 0 0 1 2.998 1.247c1.633 1.662 1.633 4.364 0 5.996z" class="B"/><path d="M63.117 71.124a4.84 4.84 0 1 0-6.857 6.857 4.84 4.84 0 1 0 6.857-6.857z" class="D"/><path d="M63.562 70.709c-2.137-2.137-5.581-2.137-7.688 0-2.137 2.137-2.137 5.581 0 7.688a5.44 5.44 0 0 0 7.718 0c2.078-2.108 2.078-5.581-.03-7.688zm-.861 6.827a4.23 4.23 0 1 1-5.996-5.996 4.2 4.2 0 0 1 5.996 0c1.633 1.662 1.633 4.364 0 5.996z" class="B"/><path d="M98.56 39.407H20.906c-.327 0-.594.267-.594.594s.267.594.594.594H98.56c.326 0 .594-.267.594-.594s-.237-.594-.594-.594z" class="C"/><path d="M103.399 36.587a4.84 4.84 0 1 0-6.857 6.857 4.84 4.84 0 0 0 6.857 0c1.9-1.9 1.9-4.987 0-6.857z" class="E"/><path d="M103.814 36.141c-2.107-2.137-5.58-2.137-7.688 0-2.137 2.137-2.137 5.581 0 7.688a5.44 5.44 0 0 0 7.718 0c2.108-2.108 2.108-5.551-.03-7.688zm-.86 6.857a4.23 4.23 0 1 1-5.997-5.996 4.23 4.23 0 1 1 5.997 5.996z" class="B"/><path d="M22.865 36.587a4.84 4.84 0 1 0-6.857 6.857 4.84 4.84 0 0 0 6.857 0c1.87-1.9 1.87-4.987 0-6.857z" class="E"/><path d="M23.28 36.141c-2.137-2.137-5.581-2.137-7.688 0s-2.137 5.581 0 7.688a5.44 5.44 0 0 0 7.718 0c2.108-2.108 2.108-5.551-.03-7.688zm-.861 6.857a4.23 4.23 0 1 1-5.996-5.996 4.23 4.23 0 1 1 5.996 5.996z" class="B"/><path d="M87.607 12.096a.61.61 0 0 0-.861 0L31.829 67.013a.61.61 0 0 0 0 .861c.119.119.267.178.416.178s.297-.059.416-.178l54.916-54.916c.267-.238.267-.623.03-.861z" class="C"/><path d="M85.885 8.98a4.84 4.84 0 0 0-4.839 4.839 4.84 4.84 0 0 0 4.839 4.839 4.84 4.84 0 0 0 4.839-4.839 4.84 4.84 0 0 0-4.839-4.839z" fill="#febf2d"/><path d="M85.885 8.356c-2.998 0-5.432 2.434-5.432 5.432s2.434 5.432 5.432 5.432 5.432-2.434 5.432-5.432c.03-2.969-2.434-5.432-5.432-5.432zm0 9.677c-2.345 0-4.245-1.9-4.245-4.245s1.9-4.245 4.245-4.245 4.245 1.9 4.245 4.245-1.9 4.245-4.245 4.245z" class="B"/><use xlink:href="#B" fill="#febf2d"/><path d="M33.521 60.75c-2.998 0-5.432 2.434-5.432 5.432s2.434 5.432 5.432 5.432 5.432-2.434 5.432-5.432-2.434-5.432-5.432-5.432zm0 9.677c-2.345 0-4.245-1.9-4.245-4.245s1.9-4.245 4.245-4.245 4.245 1.9 4.245 4.245c-.03 2.345-1.93 4.245-4.245 4.245z" class="B"/><path d="M87.607 67.043L32.69 12.126a.61.61 0 0 0-.861 0 .61.61 0 0 0 0 .861l54.917 54.917c.119.119.267.178.416.178s.297-.059.416-.178c.267-.237.267-.623.03-.861z" class="C"/><path d="M85.885 71.021a4.84 4.84 0 0 0 4.839-4.839 4.84 4.84 0 0 0-4.839-4.839 4.84 4.84 0 0 0-4.839 4.839 4.84 4.84 0 0 0 4.839 4.839z" fill="#fed19a"/><path d="M85.885 60.75c-2.998 0-5.432 2.434-5.432 5.432s2.434 5.432 5.432 5.432 5.432-2.434 5.432-5.432c.03-2.998-2.434-5.432-5.432-5.432zm0 9.677c-2.345 0-4.245-1.9-4.245-4.245s1.9-4.245 4.245-4.245 4.245 1.9 4.245 4.245-1.9 4.245-4.245 4.245z" class="B"/><use xlink:href="#B" y="-52.363" fill="#fed19a"/><path d="M37.351 9.959a5.41 5.41 0 0 0-3.859-1.603c-2.968 0-5.432 2.464-5.432 5.462s2.434 5.432 5.432 5.432 5.432-2.434 5.432-5.432c.03-1.455-.534-2.82-1.573-3.859zm-3.829 8.074c-2.345 0-4.245-1.9-4.245-4.245s1.9-4.245 4.245-4.245c1.128 0 2.197.445 2.998 1.247s1.247 1.87 1.247 2.998c-.03 2.345-1.929 4.245-4.245 4.245z" class="B"/><path d="M75.228 29.937l-.98.03c-1.781-6.382-7.599-11.043-14.545-11.043-8.341 0-15.109 6.768-15.109 15.109v.356c-.802-.178-1.662-.267-2.523-.267-6.323 0-11.429 5.106-11.429 11.429S35.748 56.98 42.07 56.98c.267 0 .534 0 .801-.03v.03h32.534c7.392-.089 13.328-6.115 13.328-13.506 0-7.51-6.026-13.536-13.507-13.536z" class="C"/><path d="M75.228 29.314h-.534c-2.048-6.501-8.134-11.013-14.991-11.013-8.519 0-15.495 6.827-15.703 15.317-.623-.089-1.276-.148-1.9-.148-6.649 0-12.052 5.403-12.052 12.052S35.451 57.573 42.1 57.573c.208 0 .416 0 .653-.03.059 0 .089.03.148.03h6.115c.326 0 .594-.267.594-.594s-.267-.594-.594-.594H43.08c-.089-.03-.148-.03-.238-.03-.297.03-.534.03-.742.03a10.86 10.86 0 0 1-10.835-10.835A10.86 10.86 0 0 1 42.1 34.716a10.59 10.59 0 0 1 2.375.267c.178.03.386 0 .505-.119a.62.62 0 0 0 .237-.475v-.148-.178a14.51 14.51 0 0 1 14.486-14.486c6.471 0 12.23 4.364 13.952 10.597.089.267.356.475.623.445.356-.03.653-.03.95-.03 7.124 0 12.913 5.788 12.913 12.913 0 7.006-5.699 12.794-12.735 12.913h-.059-21.135c-.326 0-.594.267-.594.594s.267.594.594.594h21.225.089c7.659-.148 13.863-6.471 13.863-14.1-.03-7.837-6.382-14.189-14.16-14.189z" class="B"/><path d="M75.228 30.531l-.95.03c-.297.03-.564-.178-.623-.445-1.751-6.234-7.481-10.597-13.952-10.597-1.039 0-2.048.119-3.057.326a14.54 14.54 0 0 1 10.954 10.271c.089.267.326.475.623.445.356-.03.653-.03.95-.03 7.124 0 12.913 5.789 12.913 12.913 0 7.035-5.699 12.824-12.735 12.913h-.059 6.056.059c7.035-.089 12.735-5.878 12.735-12.913 0-7.124-5.788-12.913-12.913-12.913z" fill="#c1c1c1"/><path d="M59.02 32.994c-1.603 1.069-5.314 3.206-9.826 4.126-.712.148-1.217.772-1.217 1.484v12.23a12.7 12.7 0 0 0 .594 3.8 13.2 13.2 0 0 0 4.749 6.649l6.026 4.364c.326.237.742.237 1.098 0l6.026-4.364c2.256-1.633 3.948-3.978 4.749-6.649.386-1.217.594-2.494.594-3.8V38.664c0-.742-.505-1.336-1.217-1.484-4.601-.98-8.312-3.117-9.915-4.186-.534-.326-1.158-.326-1.662 0z" class="E"/><path d="M70.776 36.824c-.119-.03-.237-.03-.386-.089.237.267.356.623.356.98v12.586c0 1.336-.208 2.612-.594 3.918-.861 2.731-2.642 5.165-5.046 6.827l-6.382 4.482c-.148.119-.326.148-.505.148l.653.475c.356.237.831.237 1.128 0l6.352-4.482c2.375-1.692 4.186-4.096 5.046-6.827a13.33 13.33 0 0 0 .594-3.918V38.397c.059-.772-.475-1.425-1.217-1.573z" class="D"/><path d="M70.776 36.468c-4.66-.98-8.43-3.236-9.885-4.186a1.99 1.99 0 0 0-2.137 0c-1.455.95-5.225 3.206-9.885 4.186-.95.208-1.603 1.009-1.603 1.959v12.467a13.73 13.73 0 0 0 .594 3.978c.861 2.82 2.642 5.284 4.987 6.976l6.145 4.453c.237.148.505.267.772.267a1.28 1.28 0 0 0 .772-.267l6.145-4.453c2.375-1.722 4.126-4.215 4.987-6.976.386-1.276.594-2.642.594-3.978V38.427c.089-.95-.564-1.751-1.484-1.959zm.742 1.959v12.467c0 1.276-.208 2.523-.534 3.74-.831 2.612-2.464 4.957-4.69 6.56l-6.145 4.453c-.208.119-.416.119-.594 0l-6.174-4.453c-2.226-1.603-3.859-3.948-4.69-6.56-.386-1.217-.534-2.464-.534-3.74V38.427c0-.534.386-1.009.95-1.098 4.601-.98 8.341-3.087 10.152-4.304a1.18 1.18 0 0 1 1.247 0c1.84 1.158 5.581 3.325 10.152 4.304.505.089.861.534.861 1.098z" fill="#22417d"/><path d="M59.822 66.687c-.327 0-.623-.089-.861-.267l-6.145-4.453c-2.375-1.722-4.185-4.215-5.046-7.065a13.93 13.93 0 0 1-.594-4.007V38.427c0-.98.712-1.84 1.692-2.019 4.571-.98 8.341-3.236 9.796-4.186.712-.475 1.603-.416 2.256 0 1.395.95 5.224 3.176 9.826 4.126.98.208 1.692 1.069 1.692 2.019v12.468a13.93 13.93 0 0 1-.594 4.007c-.861 2.82-2.642 5.314-5.046 7.065l-6.145 4.453c-.208.237-.505.327-.831.327zm0-34.583c-.356 0-.712.119-1.009.327-1.455.95-5.284 3.206-9.915 4.186-.861.208-1.514.95-1.514 1.84v12.468a13.53 13.53 0 0 0 .594 3.948 13.74 13.74 0 0 0 4.957 6.946l6.174 4.482a1.25 1.25 0 0 0 1.484 0l6.145-4.453a13.74 13.74 0 0 0 4.957-6.946c.386-1.276.594-2.612.594-3.948V38.457c0-.89-.623-1.633-1.514-1.84-4.66-.98-8.46-3.236-9.915-4.186-.327-.208-.683-.327-1.039-.327zm0 33.751c-.119 0-.267-.03-.356-.119l-6.145-4.453c-2.226-1.633-3.918-3.978-4.72-6.59-.386-1.217-.594-2.494-.594-3.8V38.397c0-.594.416-1.098 1.009-1.217 4.571-.98 8.312-3.087 10.123-4.245.416-.267.95-.267 1.365 0 1.84 1.158 5.551 3.325 10.122 4.245.594.119 1.009.623 1.009 1.217v12.468c0 1.276-.208 2.523-.594 3.8-.831 2.642-2.493 4.987-4.72 6.59l-6.145 4.453a.47.47 0 0 1-.356.148zm0-32.89c-.208 0-.386.03-.534.148-1.84 1.158-5.581 3.325-10.182 4.304-.505.119-.831.505-.831 1.009v12.468c0 1.247.208 2.494.534 3.711.772 2.612 2.464 4.928 4.66 6.531l6.145 4.453c.148.119.356.119.475 0l6.145-4.453c2.197-1.603 3.859-3.918 4.66-6.531.356-1.217.534-2.464.534-3.711V38.427c0-.505-.356-.891-.831-1.009-4.601-.98-8.341-3.117-10.182-4.304-.208-.119-.386-.148-.594-.148z" class="B"/><path d="M63.978 42.553l-6.471 7.421-2.137-1.722c-.95-.772-2.345-.623-3.117.326s-.623 2.345.327 3.087l5.432 4.364 9.291-10.627c.831-.891.712-2.315-.208-3.117-.95-.742-2.345-.653-3.117.267z" class="C"/><path d="M68.252 43.8c-.03-.712-.356-1.336-.89-1.811-1.098-.95-2.761-.831-3.711.237l-6.234 7.095-1.811-1.455a2.67 2.67 0 0 0-3.711.386c-.416.534-.653 1.217-.594 1.9.089.713.416 1.336.98 1.751l5.729 4.66L67.57 45.64c.505-.416.742-1.128.683-1.841zm-15.406 7.54c-.356-.327-.594-.742-.653-1.217-.03-.475.089-.95.386-1.276.356-.416.861-.653 1.395-.653.386 0 .831.148 1.128.386l2.464 1.989 6.709-7.718c.653-.742 1.751-.831 2.493-.148.356.326.594.742.623 1.217s-.119.95-.415 1.276l-9.024 10.301-5.106-4.156z" class="B"/><defs ><path id="B" d="M33.522 61.343a4.84 4.84 0 0 0-4.839 4.839 4.84 4.84 0 0 0 4.839 4.839 4.84 4.84 0 0 0 4.838-4.839 4.84 4.84 0 0 0-4.838-4.839z"/></defs></svg>