<svg xmlns="http://www.w3.org/2000/svg" width="21" height="20" fill="none" xmlns:v="https://vecta.io/nano"><path d="M8.922.931A1.67 1.67 0 0 1 10.417 0a1.66 1.66 0 0 1 .88.252 1.67 1.67 0 0 1 .615.679l2.316 4.701 5.179.751c.308.045.597.175.835.376a1.67 1.67 0 0 1 .088 2.471l-3.747 3.656.885 5.164a1.67 1.67 0 0 1-.663 1.63 1.66 1.66 0 0 1-.858.314c-.309.022-.62-.042-.895-.186l-4.635-2.438-4.633 2.438c-.275.144-.585.209-.895.186s-.607-.132-.858-.314a1.67 1.67 0 0 1-.663-1.63l.883-5.164L.502 9.228a1.67 1.67 0 0 1-.42-1.71 1.67 1.67 0 0 1 .511-.76c.238-.201.527-.331.834-.375l5.179-.753L8.92.931h.002z" fill="#24c4a1"/></svg>