<svg xmlns="http://www.w3.org/2000/svg" width="131" height="100" fill="none" xmlns:v="https://vecta.io/nano"><path d="M2.146 85.515c0 7.333 13.569 13.212 30.289 13.212s30.289-5.939 30.289-13.212V28.303c0 7.273-13.569 13.212-30.289 13.212S2.146 35.576 2.146 28.303v57.212z" fill="#ebece9"/><path d="M62.724 28.303v57.212c0 7.273-13.569 13.212-30.289 13.212-14.054 0-25.806-4.182-29.259-9.818 7.269 3.333 15.205 4.97 23.262 4.727 16.719 0 30.289-5.879 30.289-13.212V36.182c3.756-2.121 5.997-4.909 5.997-7.879z" fill="#c1c1c1"/><path d="M32.435 41.515c16.728 0 30.289-5.915 30.289-13.212S49.163 15.091 32.435 15.091 2.146 21.006 2.146 28.303s13.561 13.212 30.289 13.212z" fill="#ebece9"/><g fill="#22417d"><path d="M32.435 14C14.868 14 1.056 20.303 1.056 28.303s13.751 14.303 31.379 14.303c17.567 0 31.379-6.303 31.379-14.303S50.003 14 32.435 14zm.061 26.727c-15.992 0-29.501-5.697-29.501-12.424s13.509-12.424 29.501-12.424 29.501 5.697 29.501 12.424-13.509 12.424-29.501 12.424zm30.228 5.758c-.485 0-.909.424-.909.909 0 6.667-13.448 12.364-29.38 12.364s-29.38-5.636-29.38-12.364c0-.485-.424-.909-.909-.909s-.909.424-.909.909c0 7.939 13.69 14.121 31.137 14.121s31.137-6.182 31.137-14.121c.061-.485-.303-.909-.788-.909zm0 18.97c-.545 0-.969.424-.969.97 0 6.667-13.388 12.242-29.32 12.242-15.871 0-29.319-5.636-29.319-12.242 0-.546-.424-.97-.969-.97s-.969.424-.969.97c0 7.939 13.751 14.182 31.258 14.182s31.258-6.242 31.258-14.182a1 1 0 0 0-.969-.97zM2.146 17.152c-.666 0-1.151-.545-1.151-1.212 0-.364.182-.727.485-.909l2.06-1.394c.545-.364 1.272-.182 1.636.424.363.545.182 1.273-.424 1.636L2.873 16.97c-.242.121-.485.182-.727.182z"/><path d="M9.9 13.03a1.15 1.15 0 0 1-1.151-1.152c0-.485.303-.909.727-1.091 6.482-2.364 13.266-3.697 20.172-3.879.666 0 1.212.485 1.212 1.152s-.485 1.212-1.151 1.212c-6.603.182-13.145 1.455-19.385 3.697-.182.061-.303.061-.424.061zM63.693 28c0-.485-.424-.909-.909-.909s-.909.424-.909.909c0 6.727-13.509 12.485-29.501 12.485S2.873 34.788 2.873 28c0-.485-.424-.909-.909-.909s-.909.424-.909.909v57.758c.121 8 13.872 14.242 31.379 14.242s31.258-6.242 31.258-14.242V28zm-1.757 57.758c0 6.727-13.509 12.485-29.501 12.485S2.934 92.546 2.934 85.758v-52.97l.545.606c4.725 5.333 16.114 8.849 28.956 8.849s24.231-3.455 28.956-8.849l.545-.606v52.97z"/></g><path d="M25.045 53.333c-.303-.061-.424-.121-.727-.242a1.11 1.11 0 0 0-1.333.545c-.182.485.121 1.091.606 1.273h.061c.303.121.424.182.727.242.485.242 1.03 0 1.272-.485s0-1.03-.485-1.273c0-.061-.061-.061-.121-.061zm16.477-.242c-3.998 1.576-8.42 2-12.661 1.091-.545-.121-1.03.242-1.151.788-.061.545.303 1.03.848 1.091h.061c4.543.909 9.268.545 13.569-1.212.545-.121.848-.667.666-1.212v-.061c-.242-.424-.848-.667-1.333-.485z" fill="#fff"/><path d="M86.955 81.03c20.575 0 37.255-16.688 37.255-37.273S107.53 6.485 86.955 6.485 49.7 23.172 49.7 43.758 66.379 81.03 86.955 81.03z" fill="#ebece9"/><path d="M86.955 5.455c-11.813 0-22.898 5.455-30.168 14.788 15.144-14.667 39.375-14.303 54.096.849 13.266 13.697 14.417 35.152 2.665 50.182 15.205-14.667 15.69-38.909 1.03-54.121-7.269-7.455-17.204-11.697-27.623-11.697z" fill="#c1c1c1"/><g fill="#244583"><path d="M86.955 10.909c-.424 0-.788-.303-.788-.606V.606c0-.364.363-.606.788-.606s.787.303.787.606v9.636c0 .364-.364.667-.787.667zm0 76.606c-.424 0-.788-.303-.788-.606v-9.636c0-.364.363-.606.788-.606s.787.303.787.606v9.636c0 .303-.364.606-.787.606zm43.07-42.969h-9.632c-.363 0-.605-.364-.605-.788s.303-.788.605-.788h9.632c.364 0 .606.364.606.788.061.424-.242.788-.606.788zm-76.57 0h-9.632c-.363 0-.606-.364-.606-.788s.303-.788.606-.788h9.632c.363 0 .606.364.606.788.061.424-.242.788-.606.788z"/><path d="M86.955 82.667c-21.505 0-38.891-17.455-38.891-38.909C48.003 22.242 65.45 4.849 86.955 4.849s38.89 17.455 38.89 38.909-17.446 38.909-38.89 38.909zm0-76.182C66.358 6.485 49.7 23.152 49.7 43.758S66.358 81.03 86.955 81.03s37.255-16.667 37.255-37.273c-.061-20.606-16.72-37.273-37.255-37.273z"/></g><path d="M77.335 30.423c1.093-.935 1.292-2.498.444-3.49s-2.422-1.038-3.515-.102-1.292 2.498-.444 3.49 2.422 1.038 3.515.102z" fill="#eeefee"/><path d="M73.87 74.848c-.121 0-.242 0-.364-.061-1.272-.545-2.544-1.212-3.756-1.939-.424-.242-.545-.788-.242-1.212.242-.424.788-.546 1.212-.303 1.151.667 2.363 1.333 3.574 1.818.424.182.666.727.485 1.151-.242.364-.545.545-.909.545zm-6.663-3.878c-.182 0-.364-.061-.545-.182a33.37 33.37 0 0 1-10.722-14c-.182-.485.061-.97.485-1.151.485-.182.969.061 1.151.485 2.12 5.273 5.634 9.818 10.177 13.273.364.303.485.848.182 1.273-.182.121-.424.303-.727.303z" fill="#fff"/><path d="M73.688 37.576a3.52 3.52 0 0 0-3.513 3.515V59.03c0 4.061 3.332 7.394 7.391 7.394h18.718c4.058 0 7.39-3.333 7.39-7.394V41.091a3.52 3.52 0 0 0-3.513-3.515H73.688z" fill="#9fefde"/><path d="M100.645 37.576h-2.968c1.696 0 3.029 1.576 3.029 3.515V59.03c0 4.061-2.908 7.394-6.422 7.394h2.968c3.574 0 6.421-3.333 6.421-7.394V41.091c0-1.939-1.333-3.515-3.029-3.515z" fill="#24c4a1"/><g fill="#244583"><path d="M100.221 36.303H73.749a4.8 4.8 0 0 0-4.786 4.788V59.03c0 4.788 3.877 8.667 8.663 8.667h18.718c4.786 0 8.663-3.879 8.663-8.667V41.091a4.8 4.8 0 0 0-4.786-4.788zm3.029 4.788V59.03c0 3.818-3.089 6.909-6.906 6.909H77.626c-3.816 0-6.906-3.091-6.906-6.909V41.091a3.04 3.04 0 0 1 3.029-3.03h26.472a3.04 3.04 0 0 1 3.029 3.03z"/><path d="M86.955 16c-6.724 0-12.176 5.454-12.176 12.182v8.182c0 .485.424.909.909.909s.909-.424.909-.909v-8.182c0-5.758 4.664-10.424 10.419-10.424s10.419 4.667 10.419 10.424v8.182c0 .485.424.909.909.909s.909-.424.909-.909v-8.182C99.131 21.455 93.679 16 86.955 16z"/></g><path d="M89.257 52.242v6c0 .545-.424.97-.909.97h-2.726c-.485 0-.909-.424-.909-.97v-6c-1.03-.727-1.696-1.939-1.696-3.333 0-2.242 1.757-4.061 3.998-4.061 2.181 0 3.998 1.818 3.998 4.061-.061 1.333-.727 2.545-1.757 3.333z" fill="#e9ecef"/><path d="M86.955 44.061c-2.605 0-4.725 2.182-4.725 4.849 0 1.455.606 2.788 1.696 3.697v5.636c0 .97.727 1.697 1.696 1.697h2.726c.909 0 1.696-.788 1.696-1.697v-5.636c1.09-.909 1.696-2.242 1.696-3.697-.061-2.667-2.181-4.849-4.786-4.849zm-1.817 7.576c-.848-.606-1.393-1.636-1.393-2.727 0-1.818 1.454-3.333 3.211-3.333s3.211 1.515 3.211 3.333c0 1.091-.485 2.121-1.393 2.727l-.303.242v6.424c0 .121-.06.182-.182.182h-2.726c-.121 0-.182-.061-.182-.182v-6.485l-.242-.182z" fill="#244583"/></svg>