<svg height='100px' width='100px'  fill="#0059B3" xmlns="http://www.w3.org/2000/svg" viewBox="0 0 64 64" x="0px" y="0px"><path d="M52.793,10.328,47,16.121V7a5.006,5.006,0,0,0-5-5H7A5.006,5.006,0,0,0,2,7v4a1,1,0,0,0,1,1h7V56a6.006,6.006,0,0,0,6,6H51a6.006,6.006,0,0,0,6-6V53a1,1,0,0,0-1-1H47V28.949L59.207,16.742a4.535,4.535,0,0,0-6.414-6.414ZM10,10H4V7a3,3,0,0,1,6,0ZM20,53v3a4,4,0,0,1-8,0V7a4.948,4.948,0,0,0-1.026-3H42a3,3,0,0,1,3,3V18.121L31.293,31.828c-.01.01-.013.023-.022.033a.982.982,0,0,0-.182.275c0,.011-.013.021-.018.033l-.008.015-3,8a1,1,0,0,0,1.289,1.288l8-3,.015-.008c.011,0,.021-.012.032-.018a.982.982,0,0,0,.275-.182c.01-.009.023-.012.033-.022L45,30.949V52H21A1,1,0,0,0,20,53ZM32.391,34.341l2.8,2.8-4.485,1.681ZM55,54v2a4,4,0,0,1-4,4H20.469A5.98,5.98,0,0,0,22,56V54ZM37,36.121l-3.586-3.586L48.5,17.449l3.586,3.586Zm16.5-16.5-3.586-3.586L51.5,14.449l3.586,3.586Zm4.293-4.293L56.5,16.621l-3.586-3.586,1.293-1.293a2.536,2.536,0,0,1,3.586,3.586Z"></path><rect x="16" y="46" width="7" height="2"></rect><rect x="16" y="38" width="10" height="2"></rect><rect x="16" y="30" width="9" height="2"></rect><rect x="20" y="22" width="16" height="2"></rect><rect x="27" y="30" width="2" height="2"></rect><rect x="16" y="22" width="2" height="2"></rect><rect x="37" y="46" width="2" height="2"></rect><rect x="25" y="46" width="10" height="2"></rect><rect x="28" y="6" width="2" height="2"></rect><rect x="28" y="16" width="2" height="2"></rect><rect x="24.465" y="7.465" width="2" height="2" transform="translate(1.473 20.486) rotate(-45)"></rect><rect x="31.535" y="14.535" width="2" height="2" transform="translate(-1.456 27.556) rotate(-45)"></rect><rect x="23" y="11" width="2" height="2"></rect><rect x="33" y="11" width="2" height="2"></rect><rect x="24.465" y="14.535" width="2" height="2" transform="translate(-3.527 22.557) rotate(-45)"></rect><rect x="31.535" y="7.465" width="2" height="2" transform="translate(3.544 25.485) rotate(-45)"></rect></svg>