<svg height='100px' width='100px'  fill="#0059B3" xmlns="http://www.w3.org/2000/svg" data-name="Layer 1" viewBox="0 0 128 128" x="0px" y="0px"><title>94Miscellaneous 19</title><path d="M54.42,127.08l1,.18.34,0a2,2,0,0,0,.34-4l-.92-.17a2,2,0,0,0-.77,3.93Z"></path><path d="M49.16,123.7A2,2,0,0,0,48,121.13l-.87-.34a2,2,0,1,0-1.49,3.71l1,.37a2,2,0,0,0,.7.13A2,2,0,0,0,49.16,123.7Z"></path><path d="M63.53,128h1a2,2,0,1,0,0-4h-1a2,2,0,0,0,0,4Z"></path><path d="M21.25,90a2,2,0,1,0-3.93.75q.1.5.21,1a2,2,0,0,0,3.91-.85Q21.34,90.43,21.25,90Z"></path><path d="M41.1,120.19a2,2,0,0,0-.66-2.75l-.79-.5a2,2,0,0,0-2.17,3.36l.87.54a2,2,0,0,0,2.75-.66Z"></path><path d="M27.67,105.33a2,2,0,1,0-3.3,2.26l.58.83a2,2,0,0,0,3.25-2.33Z"></path><path d="M23.67,98A2,2,0,0,0,20,99.52l.4.94A2,2,0,1,0,24,98.84Z"></path><path d="M30.25,111.78a2,2,0,0,0,0,2.83l.74.7a2,2,0,1,0,2.72-2.93l-.68-.64A2,2,0,0,0,30.25,111.78Z"></path><path d="M72.3,127.29l.34,0,1-.19a2,2,0,0,0-.77-3.93l-.92.17a2,2,0,0,0,.34,4Z"></path><path d="M80.77,125a2,2,0,0,0,.71-.13l.95-.37a2,2,0,1,0-1.49-3.71l-.87.34a2,2,0,0,0,.71,3.87Z"></path><path d="M95,111.69l-.68.64A2,2,0,0,0,97,115.26l.74-.7A2,2,0,0,0,95,111.69Z"></path><path d="M109.1,88.31a2,2,0,0,0-2.34,1.59q-.09.46-.18.91a2,2,0,0,0,3.91.84c.07-.33.14-.67.2-1A2,2,0,0,0,109.1,88.31Z"></path><path d="M91.17,117.51a2,2,0,0,0-2.76-.6l-.79.5a2,2,0,0,0,2.1,3.4l.86-.54A2,2,0,0,0,91.17,117.51Z"></path><path d="M103.14,104.76a2,2,0,0,0-2.78.52l-.54.77a2,2,0,0,0,3.25,2.33l.59-.84A2,2,0,0,0,103.14,104.76Z"></path><path d="M104.36,97.92l-.37.86a2,2,0,1,0,3.66,1.62q.21-.47.4-.94a2,2,0,1,0-3.69-1.54Z"></path><path d="M25.19,76.91a2,2,0,0,0,2-2V70.58a6,6,0,1,0-4,.14v4.2A2,2,0,0,0,25.19,76.91ZM23,65a2,2,0,1,1,2,2A2,2,0,0,1,23,65Z"></path><path d="M102.81,76.91a2,2,0,0,0,2-2v-4.2a6,6,0,1,0-4-.14v4.33A2,2,0,0,0,102.81,76.91ZM103,63a2,2,0,1,1-2,2A2,2,0,0,1,103,63Z"></path><path d="M119,36.08a2,2,0,0,0,2-2v-5c0-8.33-7.12-15.1-15.88-15.1h-4.24A16.19,16.19,0,0,0,89,19.11v10C89,23,94.33,18,100.88,18h4.24C111.67,18,117,23,117,29.1v5A2,2,0,0,0,119,36.08Z"></path><path d="M123.76,43H98v4h25.76a.23.23,0,0,1,.24.2V79.79A1.25,1.25,0,0,1,122.71,81H97.8A9.89,9.89,0,0,1,96,85h26.72A5.25,5.25,0,0,0,128,79.79V47.2A4.23,4.23,0,0,0,123.76,43Z"></path><path d="M44,100a20.23,20.23,0,0,0,20,20h.28A19.48,19.48,0,0,0,84,100.56,20.06,20.06,0,0,0,72.57,82.62V75.69L67,70.36l4.47-3.78a1.07,1.07,0,0,0-.09-1.77l-4.64-3.29,4.69-3.8a1.27,1.27,0,0,0,.08-1.93l-4.07-4.06,4.31-4a1.87,1.87,0,0,0,.53-1.2V44.39a2.25,2.25,0,0,0-.47-1.27l-7.68-8.67a1.23,1.23,0,0,0-.93-.46,1.19,1.19,0,0,0-.92.46l-5.58,7.95a4.66,4.66,0,0,0-.9,2.54l.08,37.23A19.33,19.33,0,0,0,44,100ZM57.41,85.86a4,4,0,0,0,2.43-3.69l-.08-37.11a1.31,1.31,0,0,1,.08-.21l.1-.14,3.49-5,4.83,5.45v.33l-3.55,3.28a4,4,0,0,0-.11,5.77l1.95,1.94-2.35,1.9a4,4,0,0,0,.2,6.37L66,65.93,64.39,67.3a4,4,0,0,0-.18,5.95l4.35,4.15v5.22a4,4,0,0,0,2.26,3.59A16.15,16.15,0,0,1,80,100.57a15.18,15.18,0,0,1-4.46,10.83A15.73,15.73,0,0,1,64.31,116h-.22A16.23,16.23,0,0,1,48,100,15.36,15.36,0,0,1,57.41,85.86Z"></path><path d="M64,109h0a8,8,0,1,0-5.69-2.38A8,8,0,0,0,64,109Z"></path><path d="M9,36.08a2,2,0,0,0,2-2v-5C11,23,16.33,18,22.88,18h4.24C33.67,18,39,23,39,29.1v-10A16.19,16.19,0,0,0,27.12,14H22.88C14.12,14,7,20.77,7,29.1v5A2,2,0,0,0,9,36.08Z"></path><path d="M5.29,85H32a9.9,9.9,0,0,1-1.81-4H5.29A1.25,1.25,0,0,1,4,79.79V47.2a.23.23,0,0,1,.24-.2H30V43H4.24A4.23,4.23,0,0,0,0,47.2V79.79A5.25,5.25,0,0,0,5.29,85Z"></path><path d="M66.52,0h-5C51.29,0,43,8,43,17.91V34H38.73A4.73,4.73,0,0,0,34,38.72V79a6,6,0,0,0,6,6h5.48a23.46,23.46,0,0,1,6.36-5.3L51.76,45A8.66,8.66,0,0,1,53.45,40l4.22-6H47V17.91C47,10.24,53.5,4,61.48,4h5C74.5,4,81,10.24,81,17.91V34H69l5.74,6.47a6.22,6.22,0,0,1,1.48,3.91v2.15a5.82,5.82,0,0,1-1.81,4.15L73.2,51.84,74.31,53a5.27,5.27,0,0,1-.4,7.88l-.59.48.34.24A5.06,5.06,0,0,1,74,69.63l-1.07.9,2.36,2.25a4,4,0,0,1,1.24,2.89v4.58A24.36,24.36,0,0,1,82.1,85H88a6,6,0,0,0,6-6V38.72A4.73,4.73,0,0,0,89.27,34H85V17.91C85,8,76.71,0,66.52,0Z"></path></svg>