<svg height='100px' width='100px'  fill="#0059B3" xmlns="http://www.w3.org/2000/svg" data-name="Layer 1" viewBox="0 0 32 32" x="0px" y="0px"><title>UI</title><path d="M16,9a7,7,0,1,0,7,7A7,7,0,0,0,16,9Zm0,12a5,5,0,1,1,5-5A5,5,0,0,1,16,21Z"></path><path d="M9.15,8.73A1,1,0,1,0,7.78,7.27a12,12,0,0,0,0,17.46,1,1,0,1,0,1.37-1.46,10,10,0,0,1,0-14.54Z"></path><path d="M22.85,23.27a1,1,0,1,0,1.37,1.46,12,12,0,0,0,0-17.46,1,1,0,0,0-1.37,1.46,10,10,0,0,1,0,14.54Z"></path><path d="M24,2.13a1,1,0,1,0-1,1.73,14,14,0,0,1,0,24.27,1,1,0,0,0,1,1.73A16,16,0,0,0,24,2.13Z"></path><path d="M8,2.13A16,16,0,0,0,8,29.87a1,1,0,0,0,1-1.73A14,14,0,0,1,9,3.87,1,1,0,0,0,8,2.13Z"></path></svg>