<svg height='100px' width='100px'  fill="#0059B3" xmlns="http://www.w3.org/2000/svg" data-name="Layer 1" viewBox="0 0 100 100" x="0px" y="0px"><title>Artboard 23</title><path d="M95.79,50.23a3.66,3.66,0,0,1,1,3.19L94.3,68.62a3.65,3.65,0,0,1-3,3,3.46,3.46,0,0,1-.58,0A3.88,3.88,0,0,1,88,70.51l-2.86-2.86L66,86.83a4.8,4.8,0,0,1-6.79,0l-9.71-9.71L29,97.59a4.8,4.8,0,0,1-6.79-6.79L46.08,66.94a4.8,4.8,0,0,1,6.79,0l9.71,9.71L78.36,60.87,75.47,58a3.73,3.73,0,0,1-1.13-2.9,3.67,3.67,0,0,1,3.06-3.37l15.2-2.51a3.54,3.54,0,0,1,.6-.05A3.67,3.67,0,0,1,95.79,50.23ZM22.4,78.56,26,75l3.47-3.47a4.34,4.34,0,0,0,.41-5.79,4.22,4.22,0,0,0-6.24-.31L20,69a36.2,36.2,0,0,1-7.58-18.35h5.36a4.22,4.22,0,0,0,0-8.44H12.47A36.19,36.19,0,0,1,20,23.86l3.6,3.6a4.22,4.22,0,0,0,6.24-.31,4.34,4.34,0,0,0-.41-5.78L26,17.9a36.19,36.19,0,0,1,18.35-7.58v5.09a4.22,4.22,0,0,0,8.44,0V10.32l1.4.19A36.14,36.14,0,0,1,74.09,20.84l.16.16A35.88,35.88,0,0,1,84,38.13l.05.22a4.56,4.56,0,0,0,5.16,3.54,4.66,4.66,0,0,0,3.66-5.68A45.45,45.45,0,1,0,16.44,78.57,4.22,4.22,0,0,0,22.4,78.56Zm47.17-53a4,4,0,0,0-5.37-.29L50,36.64a9.92,9.92,0,1,0,8.58,9.82,9.85,9.85,0,0,0-.1-1.34L69.86,31A4,4,0,0,0,69.56,25.6Z"></path></svg>