<svg xmlns="http://www.w3.org/2000/svg" height="512" viewBox="0 0 64 64" width="512" xmlns:v="https://vecta.io/nano"><path d="M56 27a11.984 11.984 0 0 1-7.2-2.4L44 21l-4.8 3.6a1.429 1.429 0 0 1-.2.14A11.953 11.953 0 0 1 32 27h-5v17.78a11.682 11.682 0 0 0 .21 2.22 11.839 11.839 0 0 0 3.07 6 11.478 11.478 0 0 0 3.11 2.38l5.41 2.86L44 61l10.61-5.62A12 12 0 0 0 61 44.78V27zm1 17.78a7.977 7.977 0 0 1-4.26 7.07L44 56.47l-8.74-4.62A7.977 7.977 0 0 1 31 44.78V31h1a16.119 16.119 0 0 0 9.6-3.2L44 26l2.4 1.8A16.119 16.119 0 0 0 56 31h1zM39 7v4h8V7a4 4 0 0 0-8 0zm-12 8h4v-4h-4V7h-4v4h-4v4h4v4h4zM7 61a4 4 0 0 0 4-4v-4H3v4a4 4 0 0 0 4 4z" fill="#bddbff"/><path d="M39.707 40.293l-1.414 1.414 4 4a1 1 0 0 0 1.414 0l9-9-1.414-1.414L43 43.586zM61 26h-5a11.044 11.044 0 0 1-6.6-2.2l-4.8-3.6a.99.99 0 0 0-1.2 0L40 22.75V12h7a1 1 0 0 0 1-1V7a5 5 0 0 0-5-5H15a5 5 0 0 0-5 5v45H3a1 1 0 0 0-1 1v4a5 5 0 0 0 5 5h28a4.953 4.953 0 0 0 4.24-2.39l4.29 2.27a.98.98 0 0 0 .94 0l10.61-5.62A12.952 12.952 0 0 0 62 44.78V27a1 1 0 0 0-1-1zM40 7a3 3 0 0 1 6 0v3h-6zM10 57a3 3 0 0 1-6 0v-3h6zm25 3H10.97A4.924 4.924 0 0 0 12 57V7a3.009 3.009 0 0 1 3-3h24.03A4.924 4.924 0 0 0 38 7v17.21A11.038 11.038 0 0 1 32 26h-5a1 1 0 0 0-1 1v1H16v2h10v4H16v2h10v4H16v2h10v2.78l.06 1.22H16v2h10.41a13.2 13.2 0 0 0 1.78 4H16v2h13.84a12.816 12.816 0 0 0 3.08 2.26l4.56 2.42A2.987 2.987 0 0 1 35 60zm25-15.22a10.987 10.987 0 0 1-5.85 9.72L44 59.87 33.85 54.5A10.987 10.987 0 0 1 28 44.78V28h4a13.056 13.056 0 0 0 7.8-2.6l4.2-3.15 4.2 3.15A13.056 13.056 0 0 0 56 28h4zM31 10h-3V7a1 1 0 0 0-1-1h-4a1 1 0 0 0-1 1v3h-3a1 1 0 0 0-1 1v4a1 1 0 0 0 1 1h3v3a1 1 0 0 0 1 1h4a1 1 0 0 0 1-1v-3h3a1 1 0 0 0 1-1v-4a1 1 0 0 0-1-1zm-1 4h-3a1 1 0 0 0-1 1v3h-2v-3a1 1 0 0 0-1-1h-3v-2h3a1 1 0 0 0 1-1V8h2v3a1 1 0 0 0 1 1h3zm17 13l-2.4-1.8a1 1 0 0 0-1.2 0L41 27a15.091 15.091 0 0 1-9 3h-1a1 1 0 0 0-1 1v13.775a8.98 8.98 0 0 0 4.789 7.954l8.743 4.628a.994.994 0 0 0 .936 0l8.742-4.628A8.979 8.979 0 0 0 58 44.775V31a1 1 0 0 0-1-1h-1a15.086 15.086 0 0 1-9-3zm9 17.775a6.986 6.986 0 0 1-3.726 6.187L44 55.342l-8.275-4.38A6.987 6.987 0 0 1 32 44.775V32a17.1 17.1 0 0 0 10.2-3.4l1.8-1.35 1.8 1.35A17.107 17.107 0 0 0 56 32zM16 22h18v2H16z" fill="#57a4ff"/></svg>