<svg xmlns="http://www.w3.org/2000/svg" height="682.667" viewBox="0 -46 512 512" width="682.667" xmlns:v="https://vecta.io/nano"><path d="M479.859 10.094h21.305v70.797H116.879V10.094zm0 0" fill="#5e6e82"/><path d="M116.879 80.891h384.285v257.605H393.637" fill="#e3e3e3"/><path d="M372.332 81.211h21.305v70.801H9.348V81.211zm0 0" fill="#5e6e82"/><g fill="#fff"><path d="M9.348 152.012h384.289v257.605H9.348zm0 0"/><path d="M151.113 250.914c0-30.52 21.949-55.348 48.93-55.348s48.934 24.828 48.934 55.348"/></g><path d="M177.516 364.723h-28.992c-8.652 0-15.664-7.016-15.664-15.664v-82.48c0-8.652 7.012-15.664 15.664-15.664h101.945c8.652 0 15.664 7.012 15.664 15.664v82.48c0 8.648-7.012 15.664-15.664 15.664zm0 0" fill="#ff6379"/><path d="M215.727 295.969c0 8.262-6.699 14.961-14.961 14.961s-14.965-6.699-14.965-14.961 6.699-14.965 14.965-14.965 14.961 6.699 14.961 14.965zm0 0" fill="#fff5f5"/><path d="M123.508 266.578v82.48c0 14.199 11.555 25.754 25.758 25.754h101.949c14.199 0 25.754-11.551 25.754-25.754v-82.48c0-11.391-7.434-21.07-17.703-24.461-3.891-31.937-28.621-56.645-58.477-56.645-29.746 0-54.41 24.527-58.434 56.297-10.859 3.027-18.848 13-18.848 24.809zm133.277 82.48a5.58 5.58 0 0 1-5.574 5.57H149.262a5.58 5.58 0 0 1-5.57-5.57v-82.484a5.58 5.58 0 0 1 5.57-5.57h101.949a5.58 5.58 0 0 1 5.574 5.57zM200.789 205.66c18.438 0 33.906 15.051 37.852 35.16h-75.707c3.949-20.109 19.418-35.16 37.855-35.16zm.719 65.254c-13.816 0-25.055 11.238-25.055 25.055 0 10.223 6.16 19.031 14.961 22.922v17.551c0 5.574 4.52 10.094 10.094 10.094s10.09-4.52 10.09-10.094v-17.551c8.805-3.891 14.965-12.699 14.965-22.926 0-13.812-11.242-25.051-25.055-25.051zm0 20.184a4.88 4.88 0 0 1 4.871 4.871 4.88 4.88 0 0 1-4.871 4.867 4.88 4.88 0 0 1-4.871-4.867 4.88 4.88 0 0 1 4.871-4.871zM501.906 0H117.621c-5.574 0-10.094 4.52-10.094 10.094v61.027H10.094C4.52 71.121 0 75.641 0 81.211v328.406c0 5.57 4.52 10.09 10.094 10.09h384.285c5.57 0 10.09-4.52 10.09-10.09V348.59h97.438c5.574 0 10.094-4.52 10.094-10.094V10.094A10.1 10.1 0 0 0 501.906 0zM384.285 399.523H20.184V162.105h364.102zm0-257.602H20.184V91.305h364.102zm107.531 186.48h-87.348V90.984h87.348zm0-257.602H127.715V20.184h364.102zm-63.527 47.822h35.012v27.457c0 5.574 4.52 10.094 10.09 10.094a10.1 10.1 0 0 0 10.094-10.094v-37.551c0-5.574-4.52-10.094-10.094-10.094h-45.102c-5.57 0-10.09 4.52-10.09 10.094s4.52 10.094 10.09 10.094zm0 0"/><path d="M428.289 321.055h45.102c5.574 0 10.094-4.52 10.094-10.094v-37.547c0-5.574-4.52-10.094-10.094-10.094s-10.09 4.52-10.09 10.094v27.457h-35.012c-5.57 0-10.09 4.52-10.09 10.09a10.1 10.1 0 0 0 10.09 10.094zM38.223 227.289c5.574 0 10.094-4.52 10.094-10.09v-27.461h35.012c5.57 0 10.09-4.52 10.09-10.09a10.1 10.1 0 0 0-10.09-10.094H38.223c-5.57 0-10.09 4.52-10.09 10.094v37.551c0 5.57 4.52 10.09 10.09 10.09zm0 0"/><path d="M38.223 392.176h45.105c5.57 0 10.09-4.52 10.09-10.094s-4.52-10.094-10.09-10.094H48.316v-27.457c0-5.57-4.52-10.09-10.094-10.09s-10.09 4.52-10.09 10.09v37.551c0 5.574 4.52 10.094 10.09 10.094zm282.539-202.438h35.008v27.461c0 5.57 4.52 10.09 10.094 10.09s10.094-4.52 10.094-10.09v-37.551c0-5.574-4.52-10.094-10.094-10.094h-45.102c-5.574 0-10.094 4.52-10.094 10.094s4.52 10.09 10.094 10.09zm0 0"/><path d="M320.762 392.176h45.102c5.574 0 10.094-4.52 10.094-10.094v-37.551c0-5.57-4.52-10.09-10.094-10.09s-10.094 4.52-10.094 10.09v27.457h-35.008c-5.574 0-10.094 4.52-10.094 10.094s4.52 10.094 10.094 10.094zM125.094 190.051a10.09 10.09 0 0 0 2.324-.27l.348-.082c5.426-1.281 8.789-6.715 7.508-12.141a10.1 10.1 0 0 0-12.141-7.504l-.344.082a10.09 10.09 0 0 0-7.508 12.137c1.094 4.645 5.238 7.777 9.813 7.777zm-79.989-64.246a9.98 9.98 0 0 0 2.309-.27l.344-.082a10.09 10.09 0 0 0 7.531-12.121c-1.266-5.426-6.691-8.809-12.125-7.531l-.344.078a10.09 10.09 0 0 0-7.531 12.125c1.086 4.656 5.234 7.801 9.816 7.801zm33.243 0a10.09 10.09 0 0 0 2.297-.266l.348-.082c5.43-1.266 8.805-6.691 7.539-12.117a10.1 10.1 0 0 0-12.117-7.543l-.348.082c-5.43 1.266-8.805 6.691-7.539 12.117a10.1 10.1 0 0 0 9.82 7.809zm0 0"/><path d="M111.586 125.805c.762 0 1.535-.086 2.305-.27l.348-.082a10.09 10.09 0 0 0 7.531-12.121c-1.27-5.426-6.691-8.809-12.125-7.531l-.344.078a10.1 10.1 0 0 0-7.535 12.125c1.09 4.656 5.238 7.801 9.82 7.801zm40.633-68.891a10.12 10.12 0 0 0 2.324-.273l.348-.082c5.426-1.281 8.789-6.715 7.508-12.137a10.1 10.1 0 0 0-12.141-7.508l-.344.082a10.09 10.09 0 0 0-7.508 12.137c1.094 4.648 5.238 7.781 9.813 7.781zm33.242 0a10.12 10.12 0 0 0 2.324-.273l.348-.082c5.426-1.281 8.785-6.715 7.508-12.137a10.1 10.1 0 0 0-12.141-7.508l-.348.082a10.09 10.09 0 0 0-7.504 12.137c1.094 4.648 5.234 7.781 9.813 7.781zm33.238 0c.77 0 1.551-.09 2.332-.273l.348-.082a10.1 10.1 0 0 0 7.5-12.145 10.1 10.1 0 0 0-12.145-7.5l-.348.082a10.1 10.1 0 0 0 2.313 19.918zm-67.543 69.793h47.766c5.574 0 10.09-4.52 10.09-10.094s-4.516-10.094-10.09-10.094h-47.766c-5.574 0-10.094 4.52-10.094 10.094s4.52 10.094 10.094 10.094zm0 0"/></svg>