<svg xmlns="http://www.w3.org/2000/svg" viewBox="0 0 51.052 51.052" xmlns:v="https://vecta.io/nano"><path d="M41.026 22.052h-4V15.5c0-6.341-5.159-11.5-11.5-11.5s-11.5 5.159-11.5 11.5v6.552h-4V15.5c0-8.547 6.953-15.5 15.5-15.5s15.5 6.953 15.5 15.5v6.552z" fill="#556080"/><path d="M38.026 51.052h-25a7 7 0 0 1-7-7v-22h39v22a7 7 0 0 1-7 7z" fill="#97a5af"/><path d="M13.026 51.052h12v-29h-19v22a7 7 0 0 0 7 7z" fill="#abbcc6"/><path d="M38.026 51.052h-25a7 7 0 0 1-7-7h0 39 0a7 7 0 0 1-7 7z" fill="#8697cb"/><path d="M32.026 27.052h5v12h-5zm-9 0h5v12h-5zm-9 0h5v12h-5z" fill="#556080"/><path d="M15.026 28.052h3v2h-3zm0 4h3v2h-3z" fill="#313847"/><path d="M15.026 36.052h3v2h-3z" fill="#8697cb"/><path d="M24.026 28.052h3v2h-3z" fill="#313847"/><path d="M24.026 32.052h3v2h-3z" fill="#8697cb"/><path d="M24.026 36.052h3v2h-3zm9-8h3v2h-3zm0 4h3v2h-3z" fill="#313847"/><path d="M33.026 36.052h3v2h-3z" fill="#8697cb"/><path d="M6.026 44.052a7 7 0 0 0 7 7h12v-7h-19z" fill="#99ade0"/></svg>