<?xml version="1.0" encoding="UTF-8" standalone="no"?>
<svg
   xmlns:dc="http://purl.org/dc/elements/1.1/"
   xmlns:cc="http://creativecommons.org/ns#"
   xmlns:rdf="http://www.w3.org/1999/02/22-rdf-syntax-ns#"
   xmlns:svg="http://www.w3.org/2000/svg"
   xmlns="http://www.w3.org/2000/svg"
   xmlns:sodipodi="http://sodipodi.sourceforge.net/DTD/sodipodi-0.dtd"
   xmlns:inkscape="http://www.inkscape.org/namespaces/inkscape"
   version="1.1"
   id="Layer_1"
   x="0px"
   y="0px"
   viewBox="0 0 415 415"
   style="enable-background:new 0 0 415 415;"
   xml:space="preserve"
   sodipodi:docname="lightning.svg"
   inkscape:version="1.0.1 (3bc2e813f5, 2020-09-07)"><metadata
   id="metadata43"><rdf:RDF><cc:Work
       rdf:about=""><dc:format>image/svg+xml</dc:format><dc:type
         rdf:resource="http://purl.org/dc/dcmitype/StillImage" /><dc:title></dc:title></cc:Work></rdf:RDF></metadata><defs
   id="defs41" /><sodipodi:namedview
   pagecolor="#ffffff"
   bordercolor="#666666"
   borderopacity="1"
   objecttolerance="10"
   gridtolerance="10"
   guidetolerance="10"
   inkscape:pageopacity="0"
   inkscape:pageshadow="2"
   inkscape:window-width="1853"
   inkscape:window-height="1025"
   id="namedview39"
   showgrid="false"
   inkscape:zoom="1.4959994"
   inkscape:cx="118.00361"
   inkscape:cy="182.3192"
   inkscape:window-x="67"
   inkscape:window-y="27"
   inkscape:window-maximized="1"
   inkscape:current-layer="g4"
   inkscape:document-rotation="0" />
<g
   id="g6">
	<g
   id="g4">
		<path
   d="M325.662,3.768C324.325,1.437,321.844,0,319.157,0H164.555c-3.218,0-6.078,2.053-7.107,5.102L91.19,201.421    c-0.772,2.289-0.394,4.81,1.014,6.772c1.409,1.962,3.677,3.126,6.093,3.126h62.812L88.817,404.876    c-1.278,3.422,0.096,7.268,3.254,9.106c1.18,0.686,2.48,1.018,3.769,1.018c2.16,0,4.287-0.932,5.756-2.687l201.228-240.49    c1.869-2.234,2.276-5.348,1.043-7.987c-1.232-2.639-3.882-4.326-6.795-4.326h-58.094l86.654-148.224    C326.988,8.966,327,6.099,325.662,3.768z M219.429,163.223c-1.356,2.32-1.368,5.187-0.03,7.518    c1.337,2.331,3.818,3.768,6.505,3.768h55.111L118.189,369.107l60.754-162.664c0.86-2.302,0.537-4.88-0.865-6.9    c-1.401-2.019-3.703-3.224-6.161-3.224h-63.173L169.939,15h136.145L219.429,163.223z"
   id="path2"
   style="stroke:#22417d;stroke-opacity:1;stroke-width:6;stroke-miterlimit:4;stroke-dasharray:none;fill:#22417d;fill-opacity:1" />
	</g>
</g>
<g
   id="g8">
</g>
<g
   id="g10">
</g>
<g
   id="g12">
</g>
<g
   id="g14">
</g>
<g
   id="g16">
</g>
<g
   id="g18">
</g>
<g
   id="g20">
</g>
<g
   id="g22">
</g>
<g
   id="g24">
</g>
<g
   id="g26">
</g>
<g
   id="g28">
</g>
<g
   id="g30">
</g>
<g
   id="g32">
</g>
<g
   id="g34">
</g>
<g
   id="g36">
</g>
</svg>
