<?xml version="1.0" encoding="UTF-8" standalone="no"?>
<svg
   xmlns:dc="http://purl.org/dc/elements/1.1/"
   xmlns:cc="http://creativecommons.org/ns#"
   xmlns:rdf="http://www.w3.org/1999/02/22-rdf-syntax-ns#"
   xmlns:svg="http://www.w3.org/2000/svg"
   xmlns="http://www.w3.org/2000/svg"
   xmlns:sodipodi="http://sodipodi.sourceforge.net/DTD/sodipodi-0.dtd"
   xmlns:inkscape="http://www.inkscape.org/namespaces/inkscape"
   version="1.1"
   id="Capa_1"
   x="0px"
   y="0px"
   viewBox="0 0 243.317 243.317"
   style="enable-background:new 0 0 243.317 243.317;"
   xml:space="preserve"
   sodipodi:docname="star.svg"
   inkscape:version="1.0.1 (3bc2e813f5, 2020-09-07)"><metadata
   id="metadata39"><rdf:RDF><cc:Work
       rdf:about=""><dc:format>image/svg+xml</dc:format><dc:type
         rdf:resource="http://purl.org/dc/dcmitype/StillImage" /><dc:title></dc:title></cc:Work></rdf:RDF></metadata><defs
   id="defs37" /><sodipodi:namedview
   pagecolor="#ffffff"
   bordercolor="#666666"
   borderopacity="1"
   objecttolerance="10"
   gridtolerance="10"
   guidetolerance="10"
   inkscape:pageopacity="0"
   inkscape:pageshadow="2"
   inkscape:window-width="1853"
   inkscape:window-height="1025"
   id="namedview35"
   showgrid="false"
   inkscape:zoom="3.6084614"
   inkscape:cx="110.15775"
   inkscape:cy="121.6585"
   inkscape:window-x="67"
   inkscape:window-y="27"
   inkscape:window-maximized="1"
   inkscape:current-layer="Capa_1" />
<path
   d="M242.949,93.714c-0.882-2.715-3.229-4.694-6.054-5.104l-74.98-10.9l-33.53-67.941c-1.264-2.56-3.871-4.181-6.725-4.181  c-2.855,0-5.462,1.621-6.726,4.181L81.404,77.71L6.422,88.61C3.596,89.021,1.249,91,0.367,93.714  c-0.882,2.715-0.147,5.695,1.898,7.688l54.257,52.886L43.715,228.96c-0.482,2.814,0.674,5.658,2.983,7.335  c2.309,1.678,5.371,1.9,7.898,0.571l67.064-35.254l67.063,35.254c1.097,0.577,2.296,0.861,3.489,0.861c0.007,0,0.014,0,0.021,0  c0,0,0,0,0.001,0c4.142,0,7.5-3.358,7.5-7.5c0-0.629-0.078-1.24-0.223-1.824l-12.713-74.117l54.254-52.885  C243.096,99.41,243.832,96.429,242.949,93.714z M173.504,146.299c-1.768,1.723-2.575,4.206-2.157,6.639l10.906,63.581  l-57.102-30.018c-2.185-1.149-4.795-1.149-6.979,0l-57.103,30.018l10.906-63.581c0.418-2.433-0.389-4.915-2.157-6.639  l-46.199-45.031l63.847-9.281c2.443-0.355,4.555-1.889,5.647-4.103l28.55-57.849l28.55,57.849c1.092,2.213,3.204,3.748,5.646,4.103  l63.844,9.281L173.504,146.299z"
   id="path2"
   style="fill:#22417d;fill-opacity:1" />
<g
   id="g4">
</g>
<g
   id="g6">
</g>
<g
   id="g8">
</g>
<g
   id="g10">
</g>
<g
   id="g12">
</g>
<g
   id="g14">
</g>
<g
   id="g16">
</g>
<g
   id="g18">
</g>
<g
   id="g20">
</g>
<g
   id="g22">
</g>
<g
   id="g24">
</g>
<g
   id="g26">
</g>
<g
   id="g28">
</g>
<g
   id="g30">
</g>
<g
   id="g32">
</g>
</svg>
