<svg xmlns="http://www.w3.org/2000/svg" height="661.333" viewBox="0 0 496 496" width="661.333" xmlns:v="https://vecta.io/nano"><g fill="#244484"><path d="M120 208v-16c-39.703 0-72-32.297-72-72H32c0 48.52 39.48 88 88 88zm0-32c30.871 0 56-25.129 56-56s-25.129-56-56-56-56 25.129-56 56 25.129 56 56 56zm0-96c22.055 0 40 17.945 40 40s-17.945 40-40 40-40-17.945-40-40 17.945-40 40-40zm0 0"/><path d="M120 144c13.23 0 24-10.77 24-24s-10.77-24-24-24-24 10.77-24 24 10.77 24 24 24zm0-32a8.01 8.01 0 0 1 8 8 8.01 8.01 0 0 1-8 8 8.01 8.01 0 0 1-8-8 8.01 8.01 0 0 1 8-8zm376 269.68v-59.36l-21.648-7.551c-2.43-7.984-5.609-15.68-9.504-22.977l9.969-20.625-7.727-7.727c-3.578-4.699-9.449-10.898-13.891-15.387-5.527-5.59-11.902-11.656-16.23-15.445l-53.227-46.547 4.57-13.703 18.52 9.266 30.785-30.785-9.266-18.52L448 125.77V82.238l-19.648-6.543 9.266-18.52-30.785-30.785-18.52 9.266L381.77 16h-43.531l-6.543 19.648-18.52-9.266-30.785 30.785 9.266 18.52L272 82.23v6.105l-65.848-57.582C183.488 10.922 154.426 0 124.305 0v.215C122.863.168 121.457 0 120 0 53.832 0 0 53.832 0 120c0 1.457.168 2.863.215 4.305H0c0 30.121 10.922 59.176 30.754 81.84L88.375 272H82.23l-6.543 19.648-18.52-9.266-30.785 30.785 9.266 18.52L16 338.23v43.531l19.648 6.543-9.266 18.52 30.785 30.785 18.52-9.266L82.23 448h43.531l6.543-19.648 18.52 9.266 30.785-30.785-9.266-18.52 13.793-4.594 46.438 53.074c3.641 4.152 9.098 9.934 14.234 15.109 4.863 4.891 11.559 11.336 16.582 15.168l7.754 7.754 20.625-9.969a128.33 128.33 0 0 0 22.973 9.504L322.32 496h59.359l7.551-21.648c7.984-2.43 15.68-5.609 22.977-9.504l20.625 9.969 41.984-41.984-9.969-20.625a128.36 128.36 0 0 0 9.504-22.977zm-256.848-89.887a128.36 128.36 0 0 0-9.504 22.977L208 322.32v59.359l21.648 7.551c2.43 7.984 5.609 15.68 9.504 22.977l-2.426 5.016L73.391 230.574C87.727 236.641 103.48 240 120 240c66.168 0 120-53.832 120-120 0-16.535-3.359-32.297-9.434-46.641l186.762 163.32-5.113 2.473a128.25 128.25 0 0 0-22.977-9.504L381.68 208h-59.36l-7.551 21.648c-7.984 2.43-15.68 5.609-22.977 9.504l-20.625-9.969-41.984 41.984zM288 93.77l18.367-6.121 1.344-3.543c.395-1.035.801-2.035 1.234-3.027l1.551-3.461-8.648-17.297 14.473-14.473 17.297 8.648 3.461-1.551a59.76 59.76 0 0 1 3.027-1.234l3.543-1.344L349.77 32h20.469l6.121 18.367 3.543 1.344a68.01 68.01 0 0 1 3.027 1.234l3.461 1.551 17.297-8.648L418.16 60.32l-8.648 17.297 1.551 3.461a59.76 59.76 0 0 1 1.234 3.027l1.344 3.543L432 93.77v20.469l-18.367 6.121-1.344 3.543a68.01 68.01 0 0 1-1.234 3.027l-1.551 3.461 8.648 17.297-14.473 14.473-17.297-8.648-3.461 1.551a59.76 59.76 0 0 1-3.027 1.234l-3.543 1.344-5.664 17.008L288 102.328zM120 16c57.344 0 104 46.656 104 104s-46.656 104-104 104S16 177.344 16 120 62.656 16 120 16zm37.633 360.352l-1.344 3.543c-.395 1.035-.801 2.035-1.234 3.027l-1.551 3.461 8.648 17.297-14.473 14.473-17.297-8.648-3.461 1.551a59.76 59.76 0 0 1-3.027 1.234l-3.543 1.344L114.23 432H93.762l-6.121-18.367-3.543-1.344a68.01 68.01 0 0 1-3.027-1.234l-3.461-1.551-17.289 8.648-14.473-14.473 8.648-17.297-1.551-3.461a59.76 59.76 0 0 1-1.234-3.027l-1.344-3.543L32 370.23v-20.469l18.367-6.121 1.344-3.543a68.01 68.01 0 0 1 1.234-3.027l1.551-3.461-8.648-17.289 14.473-14.473 17.297 8.648 3.461-1.551a59.76 59.76 0 0 1 3.027-1.234l3.543-1.344L93.77 288h8.613l72.336 82.664zm303.535.535l-1.098 4.09c-2.543 9.504-6.293 18.574-11.148 26.969l-2.129 3.672 8.664 17.934-25.906 25.906-17.934-8.664-3.672 2.129c-8.395 4.848-17.473 8.598-26.969 11.148l-4.09 1.098L370.32 480h-36.64l-6.566-18.832-4.09-1.098c-9.504-2.543-18.574-6.293-26.969-11.148l-3.672-2.129-17.934 8.664-25.906-25.906 8.664-17.934-2.129-3.672c-4.848-8.395-8.598-17.473-11.148-26.969l-1.098-4.09L224 370.32v-36.64l18.832-6.566 1.098-4.09c2.543-9.504 6.293-18.574 11.148-26.969l2.129-3.672-8.664-17.934 25.906-25.906 17.934 8.664 3.672-2.129c8.395-4.848 17.473-8.598 26.969-11.148l4.09-1.098L333.68 224h36.641l6.566 18.832 4.09 1.098c9.504 2.543 18.574 6.293 26.969 11.148l3.672 2.129 17.934-8.664 25.906 25.906-8.664 17.934 2.129 3.672c4.848 8.395 8.598 17.473 11.148 26.969l1.098 4.09L480 333.68v36.641zm0 0"/><path d="M352 272c-44.113 0-80 35.887-80 80s35.887 80 80 80 80-35.887 80-80-35.887-80-80-80zm0 144c-35.289 0-64-28.711-64-64s28.711-64 64-64 64 28.711 64 64-28.711 64-64 64zm0-112c-26.473 0-48 21.527-48 48s21.527 48 48 48 48-21.527 48-48-21.527-48-48-48zm0 80c-17.648 0-32-14.352-32-32s14.352-32 32-32 32 14.352 32 32-14.352 32-32 32zm48-280c0-22.055-17.945-40-40-40s-40 17.945-40 40 17.945 40 40 40 40-17.945 40-40zm-64 0c0-13.23 10.77-24 24-24s24 10.77 24 24-10.77 24-24 24-24-10.77-24-24zM64 360c0 22.055 17.945 40 40 40s40-17.945 40-40-17.945-40-40-40-40 17.945-40 40zm64 0c0 13.23-10.77 24-24 24s-24-10.77-24-24 10.77-24 24-24 24 10.77 24 24zm0 0"/></g><path d="M359.888 79.631c-13.974-.201-26.328 13.57-24.049 27.478 1.611 12.452 13.686 22.691 26.358 21.25 14.276-.999 25.275-16.394 21.478-30.215-2.647-10.522-12.798-18.813-23.786-18.513zm-8.652 208.07c-23.866-.01-46.929 14.589-57.112 36.176-11.33 22.818-7.406 52.229 9.916 71.012 14.574 16.491 37.884 24.537 59.522 20.47 28.868-4.99 52.449-31.955 52.798-61.385.986-24.06-12.935-47.853-34.326-58.875-9.433-5.002-20.126-7.549-30.798-7.398zm.557 16.836c18.216-.385 35.841 11.034 43.239 27.562 3.072 6.185 4.593 13.054 4.08 19.946.827 11.277-3.899 22.188-10.96 30.763-9.209 10.935-23.68 17.368-37.939 16.435-14.576.097-28.647-8.151-37.001-19.883-7.209-9.874-9.712-22.513-8.083-34.488 2.873-21.718 22.583-39.688 44.447-40.279a53.36 53.36 0 0 1 2.216-.056zm-248.149 31.14c-12.057-.127-23.064 10.191-23.874 22.186-.957 9.132 3.793 18.381 11.771 22.927 10.527 7.082 25.91 3.196 32.689-7.267 7.111-9.875 4.748-24.747-4.777-32.205-4.306-3.806-10.088-5.757-15.809-5.641zm15.607-255.896c-19.017-.265-36.638 15.223-39.05 34.058-2.263 13.222 2.703 27.249 12.862 36.032 8.43 7.983 20.451 11.775 31.942 10.084 19.553-1.849 35.927-20.27 35.238-39.953.547-17.357-11.992-33.691-28.469-38.642-4.022-1.325-8.316-1.597-12.523-1.579zm1.473 16.768c13.487.061 24.794 13.498 22.548 26.808-1.594 11.95-13.537 21.544-25.57 19.949-11.912-.682-21.733-12.183-21.143-23.802-.239-11.726 9.973-22.242 21.669-22.887a25.19 25.19 0 0 1 2.496-.068z" fill="#bddbff" fill-rule="evenodd"/></svg>