<svg xmlns="http://www.w3.org/2000/svg" xmlns:xlink="http://www.w3.org/1999/xlink" height="512" viewBox="0 0 520 520" width="512" xmlns:v="https://vecta.io/nano"><g fill="#244484"><path d="M441.72 370c4.129 11.639 15.244 20 28.28 20 16.542 0 30-13.458 30-30s-13.458-30-30-30c-13.036 0-24.151 8.361-28.28 20H430v-30h40c5.522 0 10-4.478 10-10v-31.72c11.639-4.129 20-15.244 20-28.28 0-16.542-13.458-30-30-30s-30 13.458-30 30c0 13.036 8.361 24.151 20 28.28V300h-30v-70c0-5.523-4.478-10-10-10h-20v-40h20c5.522 0 10-4.477 10-10s-4.478-10-10-10h-20c0-77.196-62.804-140-140-140S120 82.804 120 160h-20a10 10 0 1 0 0 20h20v40h-20a10 10 0 0 0-10 10v70H60v-21.72c11.639-4.129 20-15.244 20-28.28 0-16.542-13.458-30-30-30s-30 13.458-30 30c0 13.036 8.361 24.151 20 28.28V310c0 5.522 4.477 10 10 10h40v30H78.28c-4.128-11.639-15.243-20-28.28-20-16.542 0-30 13.458-30 30s13.458 30 30 30c13.037 0 24.152-8.361 28.28-20H90v30H50c-5.523 0-10 4.478-10 10v31.72c-11.639 4.129-20 15.244-20 28.28 0 16.542 13.458 30 30 30s30-13.458 30-30c0-13.036-8.361-24.151-20-28.28V420h30v70c0 5.522 4.477 10 10 10h320c5.522 0 10-4.478 10-10v-70h30v21.72c-11.639 4.129-20 15.244-20 28.28 0 16.542 13.458 30 30 30s30-13.458 30-30c0-13.036-8.361-24.151-20-28.28V410c0-5.522-4.478-10-10-10h-40v-30zM470 350c5.514 0 10 4.486 10 10s-4.486 10-10 10-10-4.486-10-10 4.486-10 10-10zm0-110c5.514 0 10 4.486 10 10s-4.486 10-10 10-10-4.486-10-10 4.486-10 10-10zm-420 0c5.514 0 10 4.486 10 10s-4.486 10-10 10-10-4.486-10-10 4.486-10 10-10zm0 130c-5.514 0-10-4.486-10-10s4.486-10 10-10 10 4.486 10 10-4.485 10-10 10zm0 110c-5.514 0-10-4.486-10-10s4.486-10 10-10 10 4.486 10 10-4.485 10-10 10zm420 0c-5.514 0-10-4.486-10-10s4.486-10 10-10 10 4.486 10 10-4.486 10-10 10zm-90-260h-20v-40h20zm-200 0v-40h160v40zm0-60c0-44.112 35.888-80 80-80s80 35.888 80 80zm80-120c66.168 0 120 53.832 120 120h-20c0-55.14-44.859-100-100-100s-100 44.86-100 100h-20c0-66.168 53.832-120 120-120zM140 180h20v40h-20zm270 220h-60c-5.522 0-10 4.478-10 10s4.478 10 10 10h60v60H110v-60h60c5.523 0 10-4.478 10-10s-4.477-10-10-10h-60v-30h60c5.523 0 10-4.478 10-10s-4.477-10-10-10h-60v-30h60c5.523 0 10-4.478 10-10s-4.477-10-10-10h-60v-60h300v60h-60c-5.522 0-10 4.478-10 10s4.478 10 10 10h60v30h-60c-5.522 0-10 4.478-10 10s4.478 10 10 10h60zM260 280c-33.084 0-60 26.916-60 60 0 29.676 21.661 54.374 50 59.15V430c0 5.522 4.477 10 10 10s10-4.478 10-10v-30.85c28.339-4.776 50-29.475 50-59.15 0-33.084-26.916-60-60-60zm0 100c-22.056 0-40-17.944-40-40s17.944-40 40-40 40 17.944 40 40-17.944 40-40 40z"/><use xlink:href="#B"/><use xlink:href="#B" x="-390" y="70"/></g><path d="M110.193 449.979v-29.85h31.267c30.046 0 31.351-.043 33.429-1.103 8.236-4.202 6.546-16.901-2.529-19.006-1.204-.279-15.684-.514-32.178-.521l-29.989-.013v-14.506-14.506l30.268-.003c19.1-.002 31.034-.216 32.343-.579 4.402-1.222 7.27-5.034 7.317-9.725.037-3.687-1.475-6.718-4.277-8.573l-2.243-1.484-31.704-.153-31.704-.153v-14.759-14.759l31.704-.153 31.704-.153 2.021-1.385c2.185-1.497 3.97-4.265 4.565-7.077.852-4.026-1.915-8.959-6.088-10.854-2.099-.954-4.38-1.025-33.081-1.036l-30.826-.012v-29.571-29.571H260h149.807v29.571 29.571l-30.826.012c-28.701.011-30.982.083-33.081 1.036-7.419 3.37-8.263 13.311-1.523 17.931l2.021 1.385 31.704.153 31.704.153v14.759 14.759l-31.704.153-31.704.153-2.243 1.485c-2.802 1.855-4.315 4.886-4.277 8.573.047 4.691 2.916 8.502 7.317 9.725 1.309.364 13.244.577 32.343.579l30.268.003v14.506 14.506l-29.989.013c-16.494.007-30.974.242-32.178.521-9.076 2.105-10.765 14.804-2.529 19.006 2.078 1.06 3.383 1.103 33.429 1.103h31.267v29.85 29.85H260 110.193zm153.849-10.622c2.767-1.156 4.011-2.346 5.23-5 .919-2.002 1.026-3.913 1.037-18.53l.012-16.298 2.371-.61c6.734-1.731 8.928-2.497 13.578-4.737 11.546-5.564 21.802-15.578 27.424-26.778 4.353-8.671 6.332-17.21 6.351-27.394.019-10.467-1.904-18.57-6.556-27.621-6.011-11.695-15.145-20.563-27.267-26.472-13.232-6.451-27.555-7.849-41.959-4.098-4.998 1.302-13.139 5.005-17.851 8.121-4.038 2.67-11.234 9.479-14.504 13.724-5.065 6.575-9.223 15.922-11.079 24.904-1.191 5.762-1.167 17.076.049 23.046 3.821 18.76 15.884 34.393 32.849 42.568 4.65 2.241 6.844 3.006 13.578 4.737l2.371.61v16.177c0 16.979.2 18.577 2.671 21.36 2.508 2.824 7.892 3.88 11.693 2.292z" fill="#bddbff" fill-rule="evenodd"/><defs ><path id="B" d="m450 100c16.542 0 30-13.458 30-30s-13.458-30-30-30-30 13.458-30 30 13.458 30 30 30zm0-40c5.514 0 10 4.486 10 10s-4.486 10-10 10-10-4.486-10-10 4.486-10 10-10z"/></defs></svg>