<svg xmlns="http://www.w3.org/2000/svg" height="512" viewBox="0 0 64 64" width="512" xmlns:v="https://vecta.io/nano"><g fill="#244484"><path d="M27 11h2v2h-2zm26 24h2v2h-2zM35 51h2v2h-2zm-8 3h2v2h-2zM11 31h2v2h-2zm24-20h2v2h-2zm16 16h2v2h-2zm-5-10h2v2h-2zm-30 0h2v2h-2zm30 28h2v2h-2zm-30 0h2v2h-2zm15.882-14A2.994 2.994 0 0 0 31 36.822V39h2v-2.185A2.993 2.993 0 0 0 31.882 31zM33 33.961A1 1 0 1 1 31.96 33H32a1 1 0 0 1 1 .96z"/><path d="M37 28.184V27a5 5 0 0 0-10 0v1.184A3 3 0 0 0 25 31v8a3 3 0 0 0 3 3h8a3 3 0 0 0 3-3v-8a3 3 0 0 0-2-2.816zM29 27a3 3 0 0 1 6 0v1h-6zm8 12a1 1 0 0 1-1 1h-8a1 1 0 0 1-1-1v-8a1 1 0 0 1 1-1h8a1 1 0 0 1 1 1zm22 2a2.951 2.951 0 0 0-1.285.3l-2.3-2.3H46v-2h5v-2h-5v-2h5.236l5.687-2.844A2.994 2.994 0 1 0 56 28a2.9 2.9 0 0 0 .037.363L50.764 31H46v-2h3v-2h-3v-2h4.414l3.3-3.3A2.951 2.951 0 0 0 55 22a3 3 0 1 0-3-3 2.951 2.951 0 0 0 .3 1.285L49.586 23H46a5.006 5.006 0 0 0-5-5v-2.586L46.715 9.7A2.951 2.951 0 0 0 48 10a3 3 0 1 0-3-3 2.951 2.951 0 0 0 .3 1.285l-6.3 6.3V18h-2v-3h-2v3h-2v-7.184a3 3 0 1 0-2 0V18h-2v-3h-2v3h-2v-7.414l-4.3-4.3A2.951 2.951 0 0 0 21 5a3 3 0 1 0-3 3 2.951 2.951 0 0 0 1.285-.3L23 11.414V18a5.006 5.006 0 0 0-5 5h-3.586L11.7 20.285A2.951 2.951 0 0 0 12 19a3 3 0 1 0-3 3 2.951 2.951 0 0 0 1.285-.3l3.3 3.3H18v2h-6.362L6.4 31.364A2.953 2.953 0 0 0 5 31a3 3 0 1 0 3 3 2.972 2.972 0 0 0-.237-1.168L12.362 29H18v2h-3v2h3v2H9v2h9v2h-5.535l-4.03 6.044A2.968 2.968 0 0 0 8 45a3.028 3.028 0 1 0 2.21.988L13.535 41H18a5.006 5.006 0 0 0 5 5v6.586L19.285 56.3A2.951 2.951 0 0 0 18 56a3 3 0 1 0 3 3 2.951 2.951 0 0 0-.3-1.285l4.3-4.3V46h2v6h2v-6h2v8.554l6.074 3.8a3.044 3.044 0 1 0 1.069-1.691L33 53.446V46h2v3h2v-3h2v8h7.184a3 3 0 1 0 0-2H41v-6a5.006 5.006 0 0 0 5-5h8.586l1.714 1.715A2.951 2.951 0 0 0 56 44a3 3 0 1 0 3-3zm0-14a1 1 0 1 1-1 1 1 1 0 0 1 1-1zm-4-9a1 1 0 1 1-1 1 1 1 0 0 1 1-1zM48 6a1 1 0 1 1-1 1 1 1 0 0 1 1-1zM32 7a1 1 0 1 1-1 1 1 1 0 0 1 1-1zM17 5a1 1 0 1 1 1 1 1 1 0 0 1-1-1zM8 19a1 1 0 1 1 1 1 1 1 0 0 1-1-1zM5 35a1 1 0 1 1 1-1 1 1 0 0 1-1 1zm3 14a1 1 0 1 1 1-1 1 1 0 0 1-1 1zm10 11a1 1 0 1 1 1-1 1 1 0 0 1-1 1zm22-2a1 1 0 1 1-1 1 1 1 0 0 1 1-1zm9-6a1 1 0 1 1-1 1 1 1 0 0 1 1-1zm-5-11a3 3 0 0 1-3 3H23a3 3 0 0 1-3-3V23a3 3 0 0 1 3-3h18a3 3 0 0 1 3 3zm15 4a1 1 0 1 1 1-1 1 1 0 0 1-1 1z"/></g><path d="M30.688 29.918c-1.037.041-2.094-.075-3.119.102-.487.187-.665.724-.616 1.206l-.021 8.031c.2.515.723.876 1.287.805l7.625-.012c.425 0 .911-.108 1.089-.548.293-.4.068-.95.138-1.412l-.054-7.344c-.066-.554-.669-.869-1.188-.804l-5.14-.025zm1.315 1.177c1.485-.044 2.864 1.226 2.88 2.724.133 1.266-.727 2.481-1.9 2.909-.17.416-.026.942-.075 1.4.045.48.062.931-.551.751h-1.261c-.025-.681.048-1.39-.035-2.055-.561-.322-1.157-.693-1.51-1.275-.414-.529-.449-1.226-.409-1.876.027-1.179 1.014-2.21 2.132-2.489.239-.06.484-.089.73-.089zM7.939 46.928c-.851.007-1.311 1.127-.764 1.755.474.649 1.581.439 1.826-.311a1.08 1.08 0 0 0-1.062-1.444zM4.962 32.932c-.753.006-1.291.907-.895 1.565.295.711 1.329.757 1.767.163.576-.61.068-1.722-.757-1.727l-.115-.001zm4.161-14.993c-.656-.079-1.251.509-1.198 1.162.042.732 1.012 1.285 1.62.796.668-.334.692-1.378.058-1.764-.128-.127-.297-.212-.481-.194zm8.832-14.01c-.854.012-1.375 1.184-.746 1.799.482.588 1.521.406 1.773-.316.298-.693-.261-1.523-1.026-1.484zm14.034 3.007c-.796-.019-1.395.99-.889 1.645.359.577 1.248.673 1.687.131.61-.559.201-1.628-.578-1.755-.072-.015-.146-.022-.22-.021zM47.944 5.92c-.808.045-1.389 1.159-.753 1.766.434.584 1.398.47 1.732-.157.467-.696-.183-1.648-.98-1.608zm6.867 12.022c-.76.12-1.212 1.217-.606 1.777.361.438 1.025.482 1.455.122.679-.452.476-1.612-.302-1.83a1.58 1.58 0 0 0-.547-.069zm4.152 8.993c-.835-.001-1.38 1.113-.794 1.741.453.58 1.473.506 1.782-.183.369-.697-.176-1.619-.988-1.558zm.003 16.009c-.814-.028-1.347 1.004-.855 1.651.417.672 1.538.61 1.855-.122.352-.695-.201-1.587-.999-1.528zm-9.981 8.984c-.839-.025-1.35 1.062-.84 1.707.341.486 1.075.608 1.524.19.637-.454.472-1.501-.225-1.802a.93.93 0 0 0-.459-.095zm-9.031 6.008c-.877-.007-1.352 1.206-.731 1.811.532.611 1.638.308 1.808-.478.214-.668-.397-1.372-1.077-1.333z" fill="#bddbff" fill-rule="evenodd"/></svg>