<svg xmlns="http://www.w3.org/2000/svg" viewBox="0 0 64 64" width="512" height="512" xmlns:v="https://vecta.io/nano"><ellipse cx="29.89" cy="34.374" rx="16.746" ry="16.843" transform="matrix(.999959 -.009088 0 1 0 0)" fill="#bddbff" fill-rule="evenodd"/><g fill="#244484"><path d="M33.063 17.466v-2.28h2a1 1 0 0 0 1-1v-4a1 1 0 0 0-1-1h-27a1 1 0 1 0 0 2h26v2h-9a1 1 0 1 0 0 2h2v2.27a17 17 0 0 0-6.7 2.79l-2.3-2.32a1 1 0 0 0-1.41 0l-2.83 2.82a1 1 0 0 0-.3.71 1 1 0 0 0 .3.71l2.32 2.32a16.94 16.94 0 0 0-2.5 5.45 1 1 0 1 0 1.93.5 15.21 15.21 0 0 1 1.07-2.85l1.68 1c.48.276 1.094.11 1.37-.37s.111-1.094-.37-1.37l-1.69-1a14.76 14.76 0 0 1 4.11-4.11l1 1.69c.276.48.889.646 1.37.37s.646-.889.37-1.37l-1-1.69a14.84 14.84 0 0 1 5.58-1.55v2a1 1 0 1 0 2 0v-1.95a14.91 14.91 0 0 1 5.61 1.5l-1 1.69c-.276.48-.11 1.094.37 1.37s1.094.111 1.37-.37l1-1.7a15.17 15.17 0 0 1 4.11 4.11l-1.7 1c-.48.276-.646.889-.37 1.37s.889.646 1.37.37l1.69-1a14.91 14.91 0 0 1 1.55 5.61h-2a1 1 0 1 0 0 2h2a14.91 14.91 0 0 1-1.5 5.61l-1.69-1c-.48-.276-1.094-.11-1.37.37s-.111 1.094.37 1.37l1.7 1a15.17 15.17 0 0 1-4.11 4.11l-1-1.7c-.276-.48-.889-.646-1.37-.37s-.646.889-.37 1.37l1 1.69a14.91 14.91 0 0 1-5.66 1.55v-2a1 1 0 1 0-2 0v2a14.84 14.84 0 0 1-5.61-1.51l1-1.69c.179-.311.178-.693-.002-1.004a1 1 0 0 0-.87-.5c-.358.001-.689.193-.868.504l-1 1.69a14.76 14.76 0 0 1-4.11-4.11l1.69-1c.48-.276.646-.889.37-1.37s-.889-.646-1.37-.37l-1.68 1a15.21 15.21 0 0 1-1.07-2.85 1 1 0 0 0-1.21-.79 1 1 0 0 0-.71 1.22 17 17 0 1 0 19.44-20.94zm-4-2.28h2v2.05c-.33 0-.66-.05-1-.05h-1zm-13.14 6.27l1.41-1.41 1.45 1.44a17.17 17.17 0 0 0-1.41 1.42zm2.14 12.73a1 1 0 0 0-1-1h-7a1 1 0 1 0 0 2h7a1 1 0 0 0 1-1z"/><path d="M35.723 28.526a1 1 0 0 0-1.42 0l-3 3a3 3 0 0 0-2.56 0l-4.38-4.37a1 1 0 1 0-1.41 1.41l4.37 4.37a3 3 0 1 0 5.44-.04l3-2.95a1 1 0 0 0-.04-1.42zm-4.95 6.37a1 1 0 1 1-1.42-1.42 1 1 0 0 1 1.42 0h0a1 1 0 0 1 0 1.42zm-2.95 18.21a1 1 0 0 0-1.37.37l-.54.94-2.18-1.23a1 1 0 0 0-1.15.11 8.17 8.17 0 0 1-2.52 1.42 1 1 0 0 0-.66.95v2.52h-4v-2.52a1 1 0 0 0-.67-.95 7.81 7.81 0 0 1-2.2-1.19 1 1 0 0 0-1.11-.08l-3 1.72-2-3.46 2.72-1.52a1 1 0 0 0 .47-1.1 8 8 0 0 1-.22-1.9 8.33 8.33 0 0 1 .13-1.46 1 1 0 0 0-.48-1l-2.18-1.31 2-3.46 1.56.9a1 1 0 1 0 1-1.73l-2.43-1.4a1 1 0 0 0-1.36.36l-3 5.2a1 1 0 0 0 .36 1.36l2.46 1.42a10.65 10.65 0 0 0-.06 1.12 9.44 9.44 0 0 0 .13 1.58l-3 1.71a1 1 0 0 0-.37 1.36l3 5.2a1 1 0 0 0 1.37.36l3.29-1.89a10.38 10.38 0 0 0 1.54.84v2.84a1 1 0 0 0 1 1h6a1 1 0 0 0 1-1v-2.84a9.8 9.8 0 0 0 1.97-1.16l2.46 1.42a1 1 0 0 0 1.36-.36l1.05-1.81a1 1 0 0 0-.37-1.33zm-13.76-8.37a1 1 0 0 0-1.31.54 5.08 5.08 0 0 0-.36 1.91 5 5 0 0 0 5 5 4.88 4.88 0 0 0 2-.44 1 1 0 1 0-.81-1.82 3 3 0 0 1-1.19.26 3 3 0 0 1-3-3 2.87 2.87 0 0 1 .23-1.14 1 1 0 0 0-.56-1.31zm10-40.55h16a1 1 0 1 0 0-2h-16a1 1 0 1 0 0 2zm-23 28h7a1 1 0 1 0 0-2h-7a1 1 0 1 0 0 2zm4-7h4a1 1 0 1 0 0-2h-4a1 1 0 1 0 0 2zm2-9h8a1 1 0 1 0 0-2h-8a1 1 0 1 0 0 2zm1 44h-7a1 1 0 1 0 0 2h7a1 1 0 1 0 0-2zm-7-22h3a1 1 0 1 0 0-2h-3a1 1 0 1 0 0 2zm49-9a1 1 0 1 0 0 2h5a1 1 0 1 0 0-2zm-10 25h-8a1 1 0 1 0 0 2h8a1 1 0 1 0 0-2zm-4 4h-6a1 1 0 1 0 0 2h6a1 1 0 1 0 0-2zm20-15h-8a1 1 0 1 0 0 2h8a1 1 0 1 0 0-2zm-2 6h-8a1 1 0 1 0 0 2h8a1 1 0 1 0 0-2zm5-12h-7a1 1 0 1 0 0 2h7a1 1 0 1 0 0-2zm-18.06-21l-.62.62a1 1 0 1 0 1.41 1.42l1-1a1 1 0 0 0 .26-1 7 7 0 0 1 1.81-6.76l2.12-2.12a4 4 0 0 1 4.86-.62l-4.15 4.16a4 4 0 0 0 5.65 5.65l4.16-4.15a4 4 0 0 1-.62 4.86l-2.12 2.12a7 7 0 0 1-6.7 1.82 1 1 0 0 0-1 .26l-1 1a1 1 0 1 0 1.42 1.41l.62-.62a9 9 0 0 0 8.11-2.45l2.12-2.12a6 6 0 0 0 0-8.49 1 1 0 0 0-1.41 0l-4.98 5.01a2.001 2.001 0 1 1-2.83-2.83l5-4.95a1 1 0 0 0 0-1.41 6 6 0 0 0-8.49 0l-2.17 2.07a9 9 0 0 0-2.45 8.12z"/></g></svg>