<svg xmlns="http://www.w3.org/2000/svg" height="640" viewBox="0 0 480 480.003" width="640" xmlns:v="https://vecta.io/nano"><g fill="#244484"><path d="M273.395 304.004c-22.457-.332-40.957 17.547-41.395 40v.297c-21.477 1.18-40.5 14.242-49.32 33.863a42.06 42.06 0 0 0-13.285-2.16c-22.457-.332-40.957 17.547-41.395 40a38.62 38.62 0 0 0 1.457 10.086c.945 3.488 4.105 5.91 7.719 5.914h189.648a8.01 8.01 0 0 0 7.723-5.914c.93-3.281 1.418-6.676 1.453-10.086a40.71 40.71 0 0 0-14.527-30.531 40.72 40.72 0 0 0-32.582-9.039 55.67 55.67 0 0 0-12.168-16.43h154.102a8.01 8.01 0 0 0 7.723-5.914c.93-3.281 1.418-6.676 1.453-10.086a40.75 40.75 0 0 0-14.531-30.527c-9.039-7.59-20.922-10.887-32.578-9.043a59 59 0 0 0-53.637-32.422 58.99 58.99 0 0 0-52.547 34.152 42.14 42.14 0 0 0-13.312-2.16zm13.086 89.406a26.53 26.53 0 0 1 8.129-1.406c13.629-.359 24.984 10.371 25.391 24H144c.41-13.629 11.766-24.359 25.395-24a26.27 26.27 0 0 1 13.832 3.941c2.18 1.355 4.883 1.582 7.258.605s4.141-3.035 4.742-5.531a42.67 42.67 0 0 1 81.215-2.762 8 8 0 0 0 10.039 5.152zm8-68.879a8.01 8.01 0 0 0 4.73-5.512 42.67 42.67 0 0 1 81.215-2.762 8 8 0 0 0 10.063 5.152 26.61 26.61 0 0 1 8.121-1.406c13.629-.359 24.984 10.371 25.391 24H248c.41-13.629 11.766-24.359 25.395-24a26.27 26.27 0 0 1 13.832 3.941 7.99 7.99 0 0 0 7.246.586zM472 192.004H296a8 8 0 0 0-5.656 2.344l-61.652 61.656H104a8 8 0 0 0-8 8v48H72a8 8 0 0 0-8 8v32h-8a8 8 0 0 1-8-8v-120a8 8 0 0 1 8-8h96c13.258 0 24-10.746 24-24v-24h48a8 8 0 0 0 8-8v-24h96a8 8 0 0 0 8-8v-16c0-32.449-26.91-56-64-56-5.301-.074-10.594.461-15.773 1.598C241.801 22.355 211.074.004 176 .004c-38.457-.309-73.145 23.078-87.277 58.848C80.684 56.609 72.34 55.648 64 56.004c-37.086 0-64 23.551-64 56v16a8 8 0 0 0 8 8h96v24a8 8 0 0 0 8 8h48v24a8 8 0 0 1-8 8H56c-13.254 0-24 10.746-24 24v120c0 13.254 10.746 24 24 24h8v32a8 8 0 0 0 8 8h24v64a8 8 0 0 0 8 8h368a8 8 0 0 0 8-8v-272a8 8 0 0 0-8-8zm-456-80c0-27.488 24.883-40 48-40a47.69 47.69 0 0 1 25.504 4.695c2.184 1.355 4.883 1.582 7.258.605a8 8 0 0 0 4.742-5.527A76.06 76.06 0 0 1 176 16.004c37.129 0 59.777 29.336 67.891 54.453a8 8 0 0 0 12 4.25A35.73 35.73 0 0 1 272 72.004c23.121 0 48 12.512 48 40v8H46.922c-1.059-4.906-.008-10.035 2.895-14.129a15.75 15.75 0 0 1 12.297-2.098l3.832-15.535a30.74 30.74 0 0 0-27.129 6.016c-6.41 6.934-9.324 16.406-7.918 25.746H16zm104 24h96v16h-96zm-40 256v-64h16v64zm384 72H112v-192h120a8 8 0 0 0 5.656-2.344l61.656-61.656H464zm-336-176h16v16h-16zm32 0h16v16h-16zm0 0"/><path d="M192 288.004h16v16h-16zM145.25 55.203c8.633-5.879 19.094-8.457 29.473-7.273l2.598-15.781a59.18 59.18 0 0 0-41.375 10.016 63.83 63.83 0 0 0-23.863 44.703l15.84 2.273a48.79 48.79 0 0 1 17.328-33.937zm62.75.801h16v16h-16zm-16 16h16v16h-16zm0 0"/></g><path d="M248.498 341.96c0-.859.482-3.003 1.07-4.764 3.382-10.122 12.75-16.875 23.358-16.838 4.797.017 7.348.645 12.816 3.158 4.014 1.845 4.818 2.045 6.932 1.728 3.403-.51 5.703-2.989 7.484-8.065 4.538-12.931 13.998-22.27 27.137-26.792 4.671-1.608 5.243-1.684 12.618-1.691 8.845-.008 11.857.615 18.581 3.844 9.127 4.383 15.488 10.925 20.335 20.913 2.035 4.193 3.493 6.545 4.445 7.168 1.988 1.303 5.536 1.513 9.246.548 8.256-2.147 17.34.088 23.558 5.796 3.482 3.196 7.527 11.431 7.527 15.324v1.233h-87.554-87.554zm-104.035 72.104c0-2.238 1.885-7.566 3.666-10.362 1.707-2.679 5.449-6.342 8.179-8.006 6.984-4.257 18.09-4.349 25.494-.211 3.186 1.781 5.14 2.183 7.757 1.595 2.64-.593 4.977-3.152 6.152-6.736 4.115-12.553 13.552-22.643 25.416-27.177 5.637-2.154 10.202-2.822 17.368-2.542 5.113.2 6.929.508 10.852 1.842 12.239 4.161 21.726 13.123 26.422 24.96 1.374 3.464 3.828 5.85 6.54 6.359 1.184.222 3.276.035 5.548-.496 10.035-2.347 19.108.183 25.448 7.096 2.731 2.978 5.592 8.901 6.056 12.537l.345 2.704h-87.621-87.621zM16.268 114.016c0-12.265 3.179-20.613 10.665-28.009 9.823-9.703 23.42-14.121 41.867-13.602 9.155.257 11.561.75 19.051 3.896 4.523 1.9 7.718 2.092 10.149.61 2.23-1.36 2.931-2.563 4.765-8.178 3.77-11.544 9.62-20.994 18.566-29.993 12.942-13.018 28.495-20.359 46.899-22.134 19.332-1.865 36.504 3.639 51.151 16.392 9.616 8.373 18.29 21.358 23.296 34.877 3.01 8.128 6.436 9.897 13.634 7.038 4.992-1.983 8.758-2.66 14.792-2.66 17.22 0 33.143 6.654 41.125 17.186 5.186 6.842 7.388 13.992 7.388 23.989v6.207H183.434 47.251l-.35-1.593c-.494-2.247.137-5.936 1.549-9.062 1.653-3.658 4.127-4.956 9.786-5.135l4.114-.13 1.91-7.62c1.237-4.936 1.733-7.797 1.409-8.123-.275-.276-2.87-.587-5.766-.691-6.466-.232-10.901.706-16.023 3.387-4.526 2.37-7.32 5.172-9.713 9.741-2.676 5.111-3.653 8.93-3.698 14.46l-.039 4.763-7.082.001h-7.082zm111.963-25.581c.172-.448.313-1.454.313-2.235 0-2.613 2.05-9.524 4.091-13.794 4.697-9.826 10.56-16.26 18.154-19.922 6.503-3.136 9.826-3.947 17.548-4.285 6.158-.27 6.589-.357 6.818-1.378.899-4.013 2.316-13.996 2.075-14.624-.247-.644-1.616-.72-8.91-.498-7.092.216-9.529.504-13.768 1.622-6.837 1.803-16.509 6.605-20.693 10.272-9.852 8.635-16.692 19.551-20.029 31.963-1.634 6.078-2.202 11.619-1.198 11.673.395.021 3.383.458 6.641.97 7.666 1.206 8.577 1.23 8.958.237zm80.141-8.198v-7.983h7.983 7.983v-8.24-8.24h-8.24-8.24v7.983 7.983h-7.983-7.983v8.24 8.24h8.24 8.24z" fill="#bddbff" fill-rule="evenodd" stroke="#244583" stroke-width="3.09"/></svg>