<svg xmlns="http://www.w3.org/2000/svg" height="661.333" viewBox="0 0 496 496" width="661.333" xmlns:v="https://vecta.io/nano"><path d="M192 32h144v40H192zm144 72h-48v64h48v96h64V104zm0 0" fill="#bddbff"/><g fill="#244484"><path d="M176 368h16v16h-16zm-32 0h16v16h-16zm-32 0h16v16h-16zM432 81.801V68.688L363.313 0H248c-43.551 0-86.105 11.504-123.586 33.105l-4.812-4.816A41.63 41.63 0 0 0 89.938 16C66.816 16 48 34.816 48 57.945c0 10.84 4.168 21.016 11.617 28.848C21.152 131.703 0 188.633 0 248c0 136.742 111.246 248 248 248s248-111.258 248-248c0-61.672-22.734-120.543-64-166.199zM480 248c0 37.383-8.945 72.695-24.711 104H218.426l-24-16H96V168c0-12.199 9.184-22.191 20.984-23.695L160 187.32V320h272V106.68c31.078 40.398 48 89.824 48 141.32zm-72.258 168c-12.102 11.512-25.391 21.777-39.742 30.488V416zm-167.207-16v16H352v32H224v-48H120c-13.23 0-24-10.77-24-24v-24h93.574l24 16H446.48c-6.887 11.352-14.77 22.023-23.441 32zm52.152-176L256 260.688 107.313 112 144 75.313zm9.879 46.566l-29.598-4.23 25.375-25.375zM368 27.313L404.688 64H368zM352 16v64h64v224H176V203.32l76.223 76.223 69.203 9.891-9.891-69.203L176 84.687V27.543C199.113 20.008 223.375 16 248 16zM160 33.414v35.281l-23.848-23.848c7.742-4.281 15.695-8.094 23.848-11.434zM89.938 32c6.934 0 13.445 2.695 18.344 7.602L132.688 64 96 100.688 71.602 76.289C66.695 71.383 64 64.863 64 57.945 64 43.641 75.633 32 89.938 32zM16 248c0-55.09 19.457-107.937 54.895-149.793l33.152 33.152C89.922 137.543 80 151.625 80 168v208c0 22.055 17.945 40 40 40h88v32h-32v16h156.496c-26.207 10.289-54.687 16-84.496 16-127.922 0-232-104.07-232-232zm0 0"/><path d="M192 32h16v16h-16zm32 0h112v16H224zm-32 32h144v16H192zm96 32h112v16H288zm0 32h112v16H288zm0 32h112v16H288zm48 32h64v16h-64zm0 32h64v16h-64zm0 32h64v16h-64zm0 0"/></g><path d="M224.22 423.686v-23.948h-53.373c-58.204 0-56.485.084-62.224-3.039-4.001-2.177-7.765-6.265-9.944-10.798l-1.919-3.991-.164-14.768-.164-14.768h46.606 46.606l11.957 7.983 11.957 7.983h116.026l116.026.377c0 1.412-15.226 22.354-21.138 29.075l-1.713 1.948h-91.287-91.287v8.249 8.249h55.88 55.88v15.7 15.7h-63.863-63.863zm-95.794-47.631v-8.249h-8.249-8.249v8.249 8.249h8.249 8.249zm31.931 0v-8.249h-8.249-8.249v8.249 8.249h8.249 8.249zm31.931 0v-8.249h-8.249-8.249v8.249 8.249h8.249 8.249zm-10.637-189.898l-74.174-74.174 18.228-18.227 18.228-18.227 74.24 74.239 74.24 74.239-18.16 18.161-18.294 18.161c-.074 0-33.512-33.378-74.308-74.174z" fill="#bddbff" fill-rule="evenodd"/></svg>