<svg xmlns="http://www.w3.org/2000/svg" width="512" height="512" xmlns:v="https://vecta.io/nano"><path d="M416,304h16V424a40,40,0,0,1-5.357,20.007l-13.85-8.014A23.956,23.956,0,0,0,416,424Zm16-120V72a56.063,56.063,0,0,0-56-56H152a39.955,39.955,0,0,0-26.457,10l10.586,12A23.969,23.969,0,0,1,152,32H376a40.045,40.045,0,0,1,40,40V184Zm-48-8V144H336a40.045,40.045,0,0,1-40-40V64H120A24.028,24.028,0,0,0,96,88V304H80V88a40.045,40.045,0,0,1,40-40H304a8.006,8.006,0,0,1,5.382,2.08l88,80A8,8,0,0,1,400,136v40Zm-12.693-48L312,74.084V104a24.028,24.028,0,0,0,24,24ZM384,456a24.028,24.028,0,0,1-24,24H120a24.028,24.028,0,0,1-24-24V416H80v40a40.045,40.045,0,0,0,40,40H360a40.045,40.045,0,0,0,40-40V296H384ZM152,216v16h40V216Zm-16,0H120v16h16Zm16,48h48V248H152Zm-16-16H120v16h16Zm16,48h56V280H152Zm-32,0h16V280H120Zm176,32h16V312H296Zm72-16H328v16h40Zm-72,48h16V344H296Zm32,0h40V344H328Zm0,32h40V376H328Zm-32,16v16h16V408Zm32,16h40V408H328ZM216,184H120v16h96Zm48,272H368V440H264Zm-144,0h88V440H120Zm96-288h32V152H216Zm72-48H216v16h72ZM124,168a4,4,0,0,1-4-4V112a8,8,0,0,1,4.422-7.155l32-16a8,8,0,0,1,7.156,0l32,16A8,8,0,0,1,200,112v52a4,4,0,0,1-4,4Zm60-32H168v16h16Zm-48-16h48v-3.056l-24-12-24,12Zm0,32h16V136H136ZM480,312c0,7.074-8.805,10.51-13.657,5.657A127.724,127.724,0,0,0,375.432,280H288v24a8,8,0,0,1-13.979,5.314l-64-72a8,8,0,0,1,0-10.628l64-72A8,8,0,0,1,288,160v24h64A128.146,128.146,0,0,1,480,312Zm-17.6-18.952A112.18,112.18,0,0,0,352,200H280a8,8,0,0,1-8-8V181.042L226.7,232,272,282.958V272a8,8,0,0,1,8-8h95.432A143.472,143.472,0,0,1,462.4,293.048ZM160,424A128.146,128.146,0,0,1,32,296a8,8,0,0,1,13.657-5.657A127.724,127.724,0,0,0,136.568,328H224V304a8,8,0,0,1,13.979-5.314l64,72a8,8,0,0,1,0,10.628l-64,72A8,8,0,0,1,224,448V424Zm0-16h72a8,8,0,0,1,8,8v10.958L285.3,376,240,325.042V336a8,8,0,0,1-8,8H136.568A143.472,143.472,0,0,1,49.6,314.952,112.18,112.18,0,0,0,160,408Z" fill="#244484"/><path d="M50.873 316.219c-2.411.252-1.184 3.197-.875 4.651 4.186 17.912 12.601 34.954 24.821 48.745 7.688 8.431 16.085 16.337 25.951 22.177 14.614 9.108 31.374 14.846 48.522 16.442 25.806.66 51.63.402 77.443.656 3.401.265 7.35-.913 10.008 1.777 3.578 3.039 2.17 8.251 2.665 12.333-.203 2.565 3.336 1.857 4.333.378 11.323-11.767 21.906-24.232 32.76-36.431 2.877-3.593 6.405-6.809 8.719-10.785-.68-2.542-3.191-4.269-4.661-6.407l-36.412-40.754c-1.048-1.32-3.752-3.078-4.809-.997-.352 4.305 1.085 9.736-2.401 13.109-2.204 2.597-5.831 1.416-8.806 1.743-34.61.231-69.285.351-103.856-.186-24.959-2.079-49.409-10.932-70.01-25.204-1.048-.571-2.162-1.24-3.391-1.247zm220.82-133.277c-3.239.091-4.832 3.584-7.054 5.445l-36.489 41.38c-1.044 1.03-1.804 2.68-.476 3.841 10.778 13.205 22.409 25.694 33.703 38.457 2.966 2.911 5.357 6.641 8.935 8.817 2.786.91 2.599-2.206 2.504-4.03.285-3.626-.665-8.626 3.229-10.768 2.334-2.125 5.762-.675 8.62-1.088l105.72.295c17.529 2.341 34.902 7.019 50.599 15.334 5.508 2.707 10.73 5.993 15.937 9.21-1.026-.295 1.325 1.037 1.982 1.256 1.417.871 3.867.147 3.438-1.835-4.518-23.327-17.168-44.823-34.75-60.725-12.743-11.748-28.458-20.095-45.016-25.037-10.196-2.941-20.799-4.182-31.396-4.07-24.24-.361-48.534.236-72.742-.486-3.418-.666-6.009-4.148-5.564-7.655-.295-2.676.33-5.506-.388-8.075-.274-.012-.514-.294-.793-.266zm39.779-107.244c-.628 5.544-.099 11.309-.271 16.939.214 7.696-.963 16.02 3.05 23.009 4.236 8.142 13.359 13.556 22.586 12.898 10.542-.004 21.113.383 31.639-.161 1.943-.161 1.626-2.535.227-3.274-15.851-15.23-32.273-29.862-48.64-44.533-2.274-1.698-4.167-4.22-6.87-5.192-.626-.038-1.173-.034-1.721.314z" fill="#bddbff" fill-rule="evenodd"/></svg>