<svg xmlns="http://www.w3.org/2000/svg" height="640" viewBox="0 0 480.033 480" width="640" xmlns:v="https://vecta.io/nano"><g fill="#244484"><path d="M8.031 448.016h24v24a8 8 0 0 0 8 8h336a8 8 0 0 0 8-8v-32h-16v24h-320v-16h184v-16h-216v-344h64a8 8 0 0 0 8-8v-64h248v152h16v-120h16v136h16v-144a8 8 0 0 0-8-8h-24v-24a8 8 0 0 0-8-8h-264c-.16 0-.305.082-.465.098a7.52 7.52 0 0 0-2.133.422c-.238.07-.469.156-.699.25a7.87 7.87 0 0 0-2.359 1.598l-72 72a7.98 7.98 0 0 0-1.598 2.348c-.113.246-.176.496-.266.75a7.55 7.55 0 0 0-.406 2.055c0 .176-.105.328-.105.504v359.977c0 2.129.848 4.168 2.355 5.668s3.551 2.34 5.676 2.332zm64-420.687v44.688H27.344zm176 148.687v-8h64v-40c-.016-12.418-9.508-22.773-21.879-23.871a16.02 16.02 0 0 0-2.121-.129h-224c-13.254 0-24 10.746-24 24v256c0 13.258 10.746 24 24 24h120v-16h-80v-24h64v-16h-64v-24h56v-16h-56v-24h57.602v-16h-57.602v-24h72v-16h-72v-24h104v-16h-104v-24h128v8zm40.656-55.941a7.95 7.95 0 0 1 7.344 7.941v24h-48v-32.055h39.664c.328.059.66.094.992.113zm-224.656-.059h24v32h-32v-24a8 8 0 0 1 8-8zm24 272h-24a8 8 0 0 1-8-8v-16h32zm0-40h-32v-24h32zm0-40h-32v-24h32zm0-40h-32v-24h32zm0-40h-32v-24h32zm0-40h-32v-24h32zm16-40v-32l128-.039v32.039zm0 0"/><path d="M120.031 72.016h64v16h-64zm80 0h32v16h-32zm0 0"/><path d="M120.031 40.016h112v16h-112zm293.657 338.343l-1.023 1.023c35.004-56.262 21.496-129.914-31.195-170.094s-127.294-33.718-172.29 14.927-45.637 123.523-1.477 172.926 118.641 57.145 172.008 17.867l57.695 57.695a24.97 24.97 0 0 0 35.313 0c9.75-9.754 9.754-25.559 0-35.309zm-221.656-66.344c0-61.855 50.145-112 112-112s112 50.145 112 112-50.145 112-112 112c-61.828-.066-111.934-50.172-112-112zm263.031 152a8.93 8.93 0 0 1-6.344-2.621l-56.687-56.684a128.09 128.09 0 0 0 12.152-13.223l57.215 57.215a8.97 8.97 0 0 1 1.949 9.773c-1.387 3.352-4.656 5.539-8.285 5.539zm0 0"/><path d="M304.031 216.016c-53.02 0-96 42.98-96 96s42.98 96 96 96 96-42.98 96-96c-.055-52.996-43.004-95.941-96-96zm-32 96c0-17.672 14.328-32 32-32s32 14.328 32 32-14.324 32-32 32-32-14.324-32-32zm-9.305 24.328a97.12 97.12 0 0 1-36.16-24.328c10.055-10.742 22.422-19.062 36.16-24.328-8.926 14.992-8.926 33.668 0 48.656zm82.609-48.656c13.742 5.266 26.105 13.586 36.16 24.328a97.09 97.09 0 0 1-36.16 24.328c8.926-14.988 8.926-33.664 0-48.656zm-41.305-55.672c35.578.043 66.859 23.555 76.801 57.715a122.04 122.04 0 0 0-71.824-25.457 47.67 47.67 0 0 0-9.902 0c-26.062.594-51.25 9.512-71.875 25.457 9.941-34.16 41.227-57.672 76.801-57.715zm0 160c-35.574-.043-66.859-23.551-76.801-57.711a122.08 122.08 0 0 0 71.824 25.457 48.23 48.23 0 0 0 9.906 0 122.08 122.08 0 0 0 71.871-25.457c-9.941 34.16-41.223 57.668-76.801 57.711zm16.001-80c0 8.836-7.164 16-16 16s-16-7.164-16-16 7.164-16 16-16 16 7.164 16 16zm0 0"/></g><path d="M303.591 279.65c-13.67-.046-26.368 9.711-30.463 22.662-4.056 11.893.095 25.878 9.758 33.858 6.329 6.155 15.351 8.851 24.061 7.975 16.75-.974 31-17.322 29.275-34.127-.499-15.021-13.303-28.588-28.242-30.134-1.456-.175-2.923-.254-4.389-.235zm.56 17.009c8.418-.463 16.384 7.865 15.098 16.38.085 7.823-7.233 14.832-15.139 14.132-4.699.607-9.362-1.914-12.266-5.651-5.429-6.583-3.708-17.202 3.152-22.168 2.644-1.93 5.982-2.703 9.155-2.694zm-2.049-97.053c-32.975.332-65.21 16.422-85.672 42.217-20.714 25.184-29.078 59.736-22.699 91.658 6.021 31.62 26.429 60.085 54.472 75.902 15.544 9.268 33.519 14.114 51.523 15.051 14.606.228 29.316-1.683 43.01-6.935 29.691-10.698 54.065-34.637 65.665-63.947 8.89-21.387 9.971-45.61 4.932-68.078-7.88-32.476-30.885-60.927-61.244-75.02-15.542-7.374-32.784-11.133-49.987-10.848zm1.81 17.029c34.14-.509 67.669 19.257 83.809 49.356 16.329 29.538 15.571 67.579-2.44 96.223-14.981 24.682-41.858 41.652-70.524 44.616-31.16 3.894-64.168-9.3-84.165-33.721-24.001-28.308-28.841-70.93-11.927-103.892 15.044-30.675 47.647-51.888 81.905-52.504a95.77 95.77 0 0 1 3.342-.077zm100.209 175.61c-3.844 1.838-5.774 6.255-8.981 8.852-1.577 1.386-3.149 3.994-1.032 5.682 14.35 15.646 29.742 30.311 44.771 45.301 4.17 3.794 7.881 8.236 12.438 11.539 4.706 1.884 10.659-.237 12.41-5.191 1.722-3.206.513-6.931-2.012-9.319-13.651-15.037-28.434-29.011-42.724-43.436-4.84-4.446-9.184-9.63-14.527-13.435l-.214-.007z" fill="#bddbff" fill-rule="evenodd"/></svg>