<?xml version="1.0" encoding="UTF-8" standalone="no"?>
<svg
   xmlns:dc="http://purl.org/dc/elements/1.1/"
   xmlns:cc="http://creativecommons.org/ns#"
   xmlns:rdf="http://www.w3.org/1999/02/22-rdf-syntax-ns#"
   xmlns:svg="http://www.w3.org/2000/svg"
   xmlns="http://www.w3.org/2000/svg"
   xmlns:sodipodi="http://sodipodi.sourceforge.net/DTD/sodipodi-0.dtd"
   xmlns:inkscape="http://www.inkscape.org/namespaces/inkscape"
   height="480pt"
   viewBox="0 0 480.03335 480"
   width="480pt"
   version="1.1"
   id="svg18"
   sodipodi:docname="audit.svg"
   inkscape:version="1.0.1 (0767f8302a, 2020-10-17)">
  <metadata
     id="metadata24">
    <rdf:RDF>
      <cc:Work
         rdf:about="">
        <dc:format>image/svg+xml</dc:format>
        <dc:type
           rdf:resource="http://purl.org/dc/dcmitype/StillImage" />
        <dc:title></dc:title>
      </cc:Work>
    </rdf:RDF>
  </metadata>
  <defs
     id="defs22" />
  <sodipodi:namedview
     pagecolor="#ffffff"
     bordercolor="#666666"
     borderopacity="1"
     objecttolerance="10"
     gridtolerance="10"
     guidetolerance="10"
     inkscape:pageopacity="0"
     inkscape:pageshadow="2"
     inkscape:window-width="1815"
     inkscape:window-height="1376"
     id="namedview20"
     showgrid="false"
     inkscape:zoom="1.0297243"
     inkscape:cx="254.57915"
     inkscape:cy="299.23599"
     inkscape:window-x="1992"
     inkscape:window-y="27"
     inkscape:window-maximized="0"
     inkscape:current-layer="svg18" />
  <path
     d="m8.03125 448.015625h24v24c0 4.417969 3.582031 8 8 8h336c4.417969 0 8-3.582031 8-8v-32h-16v24h-320v-16h184v-16h-216v-344h64c4.417969 0 8-3.582031 8-8v-64h248v152h16v-120h16v136h16v-144c0-4.417969-3.582031-8-8-8h-24v-24c0-4.417969-3.582031-8-8-8h-264c-.160156 0-.304688.0820312-.464844.097656-.726562.035157-1.445312.179688-2.132812.421875-.238282.070313-.46875.15625-.699219.25-.875.382813-1.675781.925782-2.359375 1.597656l-72 72c-.667969.679688-1.210938 1.476563-1.597656 2.347657-.113282.246093-.175782.496093-.265625.75-.230469.664062-.367188 1.355469-.40625 2.054687 0 .175782-.105469.328125-.105469.503906v359.976563c0 2.128906.847656 4.167969 2.355469 5.667969 1.507812 1.503906 3.550781 2.339844 5.675781 2.332031zm64-420.6875v44.6875h-44.6875zm0 0"
     id="path2"
     style="fill:#244484;fill-opacity:1" />
  <path
     d="m248.03125 176.015625v-8h64v-40c-.015625-12.417969-9.507812-22.773437-21.878906-23.871094-.703125-.089843-1.410156-.132812-2.121094-.128906h-224c-13.253906 0-24 10.746094-24 24v256c0 13.257813 10.746094 24 24 24h120v-16h-80v-24h64v-16h-64v-24h56v-16h-56v-24h57.601562v-16h-57.601562v-24h72v-16h-72v-24h104v-16h-104v-24h128v8zm40.65625-55.941406c4.148438.316406 7.351562 3.78125 7.34375 7.941406v24h-48v-32.054687h39.664062c.328126.058593.660157.09375.992188.113281zm-224.65625-.058594h24v32h-32v-24c0-4.417969 3.582031-8 8-8zm24 272h-24c-4.417969 0-8-3.582031-8-8v-16h32zm0-40h-32v-24h32zm0-40h-32v-24h32zm0-40h-32v-24h32zm0-40h-32v-24h32zm0-40h-32v-24h32zm16-40v-32l128-.039063v32.039063zm0 0"
     id="path4"
     style="fill:#244484;fill-opacity:1" />
  <path
     d="m120.03125 72.015625h64v16h-64zm0 0"
     id="path6"
     style="fill:#244484;fill-opacity:1" />
  <path
     d="m200.03125 72.015625h32v16h-32zm0 0"
     id="path8"
     style="fill:#244484;fill-opacity:1" />
  <path
     d="m120.03125 40.015625h112v16h-112zm0 0"
     id="path10"
     style="fill:#244484;fill-opacity:1" />
  <path
     d="m413.6875 378.359375-1.023438 1.023437c35.003907-56.261718 21.496094-129.914062-31.195312-170.09375-52.691406-40.183593-127.292969-33.71875-172.289062 14.925782-44.996094 48.644531-45.636719 123.523437-1.476563 172.925781 44.160156 49.40625 118.640625 57.144531 172.007813 17.867187l57.695312 57.695313c9.753906 9.753906 25.5625 9.753906 35.3125 0 9.753906-9.75 9.753906-25.558594 0-35.308594zm-221.65625-66.34375c0-61.855469 50.144531-112 112-112s112 50.144531 112 112-50.144531 112-112 112c-61.828125-.066406-111.933594-50.171875-112-112zm263.03125 152c-2.378906.007813-4.660156-.9375-6.34375-2.621094l-56.6875-56.683593c4.355469-4.117188 8.414062-8.535157 12.152344-13.222657l57.214844 57.214844c2.566406 2.566406 3.335937 6.421875 1.949218 9.773437-1.386718 3.351563-4.65625 5.539063-8.285156 5.539063zm0 0"
     id="path12"
     style="fill:#244484;fill-opacity:1" />
  <path
     d="m304.03125 216.015625c-53.019531 0-96 42.980469-96 96s42.980469 96 96 96 96-42.980469 96-96c-.054688-52.996094-43.003906-95.941406-96-96zm-32 96c0-17.671875 14.328125-32 32-32 17.675781 0 32 14.328125 32 32 0 17.675781-14.324219 32-32 32-17.671875 0-32-14.324219-32-32zm-9.304688 24.328125c-13.738281-5.265625-26.105468-13.582031-36.160156-24.328125 10.054688-10.742187 22.421875-19.0625 36.160156-24.328125-8.925781 14.992188-8.925781 33.667969 0 48.65625zm82.609376-48.65625c13.742187 5.265625 26.105468 13.585938 36.160156 24.328125-10.054688 10.746094-22.417969 19.0625-36.160156 24.328125 8.925781-14.988281 8.925781-33.664062 0-48.65625zm-41.304688-55.671875c35.578125.042969 66.859375 23.554687 76.800781 57.714844-20.609375-15.933594-45.78125-24.855469-71.824219-25.457031-3.292968-.34375-6.609374-.34375-9.902343 0-26.0625.59375-51.25 9.511718-71.875 25.457031 9.941406-34.160157 41.226562-57.671875 76.800781-57.714844zm0 160c-35.574219-.042969-66.859375-23.550781-76.800781-57.710937 20.613281 15.933593 45.78125 24.851562 71.824219 25.457031 3.292968.339843 6.613281.339843 9.90625 0 26.058593-.59375 51.246093-9.515625 71.871093-25.457031-9.941406 34.160156-41.222656 57.667968-76.800781 57.710937zm0 0"
     id="path14"
     style="fill:#244484;fill-opacity:1" />
  <path
     d="m320.03125 312.015625c0 8.835937-7.164062 16-16 16s-16-7.164063-16-16 7.164062-16 16-16 16 7.164063 16 16zm0 0"
     id="path16"
     style="fill:#244484;fill-opacity:1" />
  <path
     style="fill:#bddbff;fill-rule:evenodd;stroke-width:0.686009;stroke-miterlimit:2"
     d="m 404.75993,372.86347 c -18.22583,-0.0608 -35.15531,12.9468 -40.61478,30.21399 -5.40761,15.85652 0.12731,34.50181 13.01016,45.14142 8.43862,8.2058 20.46652,11.80035 32.07886,10.63305 22.33224,-1.29817 41.33042,-23.0941 39.03032,-45.49893 -0.66554,-20.02642 -17.73573,-38.11505 -37.6529,-40.17569 -1.94078,-0.23384 -3.89708,-0.33842 -5.85166,-0.31384 z m 0.74704,22.67703 c 11.2231,-0.61751 21.84351,10.48601 20.12876,21.83879 0.11347,10.42996 -9.64345,19.77506 -20.18357,18.84193 -6.26521,0.80904 -12.48237,-2.55192 -16.35345,-7.53426 -7.23832,-8.77662 -4.94347,-22.93412 4.20199,-29.55472 3.52458,-2.57294 7.97611,-3.60371 12.20627,-3.59174 z"
     id="path851"
     transform="matrix(0.75005211,0,0,0.75005211,0,-0.016675)" />
  <path
     style="fill:#bddbff;fill-rule:evenodd;stroke-width:0.686009;stroke-miterlimit:2"
     d="m 402.77495,266.14539 c -43.96365,0.44217 -86.94023,21.89441 -114.22175,56.28499 -27.6164,33.57614 -38.76816,79.64237 -30.26316,122.20246 8.02733,42.15726 35.23674,80.10722 72.62478,101.19541 20.72441,12.35684 44.68861,18.81746 68.6922,20.06633 19.4733,0.30449 39.08494,-2.24336 57.34234,-9.24547 39.58477,-14.26318 72.08111,-46.18008 87.54667,-85.25712 11.85245,-28.51339 13.29329,-60.80938 6.57575,-90.76461 -10.5064,-43.29807 -41.17739,-81.23026 -81.6525,-100.01928 -20.72086,-9.83102 -43.70935,-14.8427 -66.64433,-14.46271 z m 2.41282,22.70386 c 45.51712,-0.67872 90.21922,25.6742 111.7382,65.80338 21.77076,39.38181 20.76051,90.09912 -3.25376,128.28862 -19.97282,32.90723 -55.80692,55.53157 -94.02517,59.48378 -41.5432,5.19215 -85.55165,-12.39863 -112.21245,-44.95878 -31.99972,-37.74094 -38.4522,-94.56616 -15.90138,-138.51286 20.0577,-40.89725 63.5251,-69.17937 109.19909,-70.00087 1.5097,-0.0614 2.95227,-0.0935 4.45547,-0.10327 z"
     id="path853"
     transform="matrix(0.75005211,0,0,0.75005211,0,-0.016675)" />
  <path
     style="fill:#bddbff;fill-rule:evenodd;stroke-width:0.686009;stroke-miterlimit:2"
     d="m 538.79024,522.97881 c -5.1247,2.45055 -7.69769,8.33884 -11.9733,11.80224 -2.1019,1.84815 -4.19869,5.32541 -1.37568,7.57544 19.13221,20.85945 39.65325,40.41148 59.69056,60.39683 5.56027,5.05769 10.50764,10.98008 16.58223,15.38375 6.27461,2.51191 14.21059,-0.31654 16.54507,-6.9206 2.29543,-4.27452 0.68435,-9.24037 -2.68241,-12.4249 -18.2003,-20.04795 -37.90905,-38.67926 -56.96085,-57.91045 -6.45315,-5.92811 -12.24504,-12.8387 -19.36827,-17.9117 l -0.28568,-0.009 z"
     id="path855"
     transform="matrix(0.75005211,0,0,0.75005211,0,-0.016675)" />
</svg>
