<?xml version="1.0" encoding="UTF-8" standalone="no"?>
<svg
   xmlns:dc="http://purl.org/dc/elements/1.1/"
   xmlns:cc="http://creativecommons.org/ns#"
   xmlns:rdf="http://www.w3.org/1999/02/22-rdf-syntax-ns#"
   xmlns:svg="http://www.w3.org/2000/svg"
   xmlns="http://www.w3.org/2000/svg"
   xmlns:sodipodi="http://sodipodi.sourceforge.net/DTD/sodipodi-0.dtd"
   xmlns:inkscape="http://www.inkscape.org/namespaces/inkscape"
   height="496pt"
   viewBox="0 0 496 496"
   width="496pt"
   version="1.1"
   id="svg18"
   sodipodi:docname="cogwheels.svg"
   inkscape:version="1.0.1 (0767f8302a, 2020-10-17)">
  <metadata
     id="metadata24">
    <rdf:RDF>
      <cc:Work
         rdf:about="">
        <dc:format>image/svg+xml</dc:format>
        <dc:type
           rdf:resource="http://purl.org/dc/dcmitype/StillImage" />
        <dc:title></dc:title>
      </cc:Work>
    </rdf:RDF>
  </metadata>
  <defs
     id="defs22" />
  <sodipodi:namedview
     pagecolor="#ffffff"
     bordercolor="#666666"
     borderopacity="1"
     objecttolerance="10"
     gridtolerance="10"
     guidetolerance="10"
     inkscape:pageopacity="0"
     inkscape:pageshadow="2"
     inkscape:window-width="1992"
     inkscape:window-height="1376"
     id="namedview20"
     showgrid="false"
     inkscape:zoom="0.7046371"
     inkscape:cx="325.47574"
     inkscape:cy="314.68933"
     inkscape:window-x="3368"
     inkscape:window-y="27"
     inkscape:window-maximized="0"
     inkscape:current-layer="svg18" />
  <path
     d="m120 208v-16c-39.703125 0-72-32.296875-72-72h-16c0 48.519531 39.480469 88 88 88zm0 0"
     id="path2"
     style="fill:#244484;fill-opacity:1" />
  <path
     d="m120 176c30.871094 0 56-25.128906 56-56s-25.128906-56-56-56-56 25.128906-56 56 25.128906 56 56 56zm0-96c22.054688 0 40 17.945312 40 40s-17.945312 40-40 40-40-17.945312-40-40 17.945312-40 40-40zm0 0"
     id="path4"
     style="fill:#244484;fill-opacity:1" />
  <path
     d="m120 144c13.230469 0 24-10.769531 24-24s-10.769531-24-24-24-24 10.769531-24 24 10.769531 24 24 24zm0-32c4.414062 0 8 3.585938 8 8s-3.585938 8-8 8-8-3.585938-8-8 3.585938-8 8-8zm0 0"
     id="path6"
     style="fill:#244484;fill-opacity:1" />
  <path
     d="m496 381.679688v-59.359376l-21.648438-7.550781c-2.429687-7.984375-5.609374-15.679687-9.503906-22.976562l9.96875-20.625-7.726562-7.726563c-3.578125-4.699218-9.449219-10.898437-13.890625-15.386718-5.527344-5.589844-11.902344-11.65625-16.230469-15.445313l-53.226562-46.546875 4.570312-13.703125 18.519531 9.265625 30.785157-30.785156-9.265626-18.519532 19.648438-6.550781v-43.53125l-19.648438-6.542969 9.265626-18.519531-30.785157-30.785156-18.519531 9.265625-6.542969-19.65625h-43.53125l-6.542969 19.648438-18.519531-9.265626-30.785156 30.785157 9.265625 18.519531-19.65625 6.542969v6.105469l-65.847656-57.582032c-22.664063-19.832031-51.726563-30.753906-81.847656-30.753906v.214844c-1.441407-.046875-2.847657-.214844-4.304688-.214844-66.167969 0-120 53.832031-120 120 0 1.457031.167969 2.863281.214844 4.304688h-.214844c0 30.121093 10.921875 59.175781 30.753906 81.839843l57.621094 65.855469h-6.144531l-6.542969 19.648438-18.519531-9.265626-30.785157 30.785157 9.265626 18.519531-19.648438 6.542969v43.53125l19.648438 6.542969-9.265626 18.519531 30.785157 30.785156 18.519531-9.265625 6.542969 19.65625h43.53125l6.542969-19.648438 18.519531 9.265626 30.785156-30.785157-9.265625-18.519531 13.792969-4.59375 46.4375 53.074219c3.640625 4.152343 9.097656 9.933593 14.234375 15.109375 4.863281 4.890625 11.558594 11.335937 16.582031 15.167968l7.753906 7.753907 20.625-9.96875c7.292969 3.886719 14.992188 7.074219 22.972657 9.503906l7.578124 21.640625h59.359376l7.550781-21.648438c7.984375-2.429687 15.679687-5.609374 22.976562-9.503906l20.625 9.96875 41.984375-41.984375-9.96875-20.625c3.886719-7.296875 7.074219-14.992187 9.503906-22.976562zm-256.847656-89.886719c-3.886719 7.296875-7.074219 14.992187-9.503906 22.976562l-21.648438 7.550781v59.359376l21.648438 7.550781c2.429687 7.984375 5.609374 15.679687 9.503906 22.976562l-2.425782 5.015625-163.335937-186.648437c14.335937 6.066406 30.089844 9.425781 46.609375 9.425781 66.167969 0 120-53.832031 120-120 0-16.535156-3.359375-32.296875-9.433594-46.640625l186.761719 163.320313-5.113281 2.472656c-7.292969-3.886719-14.992188-7.074219-22.976563-9.503906l-7.558593-21.648438h-59.359376l-7.550781 21.648438c-7.984375 2.429687-15.679687 5.609374-22.976562 9.503906l-20.625-9.96875-41.984375 41.984375zm48.847656-198.023438 18.367188-6.121093 1.34375-3.542969c.394531-1.035157.800781-2.035157 1.234374-3.027344l1.550782-3.460937-8.648438-17.296876 14.472656-14.472656 17.296876 8.648438 3.460937-1.550782c.992187-.441406 1.992187-.839843 3.027344-1.234374l3.542969-1.34375 6.121093-18.367188h20.46875l6.121094 18.367188 3.542969 1.34375c1.035156.394531 2.035156.800781 3.027344 1.234374l3.460937 1.550782 17.296875-8.648438 14.472656 14.472656-8.648437 17.296876 1.550781 3.460937c.441406.992187.839844 1.992187 1.234375 3.027344l1.34375 3.542969 18.359375 6.121093v20.46875l-18.367188 6.121094-1.34375 3.542969c-.394531 1.035156-.800781 2.035156-1.234374 3.027344l-1.550782 3.460937 8.648438 17.296875-14.472656 14.472656-17.296876-8.648437-3.460937 1.550781c-.992187.441406-1.992187.839844-3.027344 1.234375l-3.542969 1.34375-5.664062 17.007813-82.6875-72.320313zm-168-77.769531c57.34375 0 104 46.65625 104 104s-46.65625 104-104 104-104-46.65625-104-104 46.65625-104 104-104zm37.632812 360.351562-1.34375 3.542969c-.394531 1.035157-.800781 2.035157-1.234374 3.027344l-1.550782 3.460937 8.648438 17.296876-14.472656 14.472656-17.296876-8.648438-3.460937 1.550782c-.992187.441406-1.992187.839843-3.027344 1.234374l-3.542969 1.34375-6.121093 18.367188h-20.46875l-6.121094-18.367188-3.542969-1.34375c-1.035156-.394531-2.035156-.800781-3.027344-1.234374l-3.460937-1.550782-17.289063 8.648438-14.472656-14.472656 8.648438-17.296876-1.550782-3.460937c-.441406-.992187-.839843-1.992187-1.234374-3.027344l-1.34375-3.542969-18.367188-6.121093v-20.46875l18.367188-6.121094 1.34375-3.542969c.394531-1.035156.800781-2.035156 1.234374-3.027344l1.550782-3.460937-8.648438-17.289063 14.472656-14.472656 17.296876 8.648438 3.460937-1.550782c.992187-.441406 1.992187-.839843 3.027344-1.234374l3.542969-1.34375 6.121093-18.367188h8.613281l72.335938 82.664062zm303.535157.535157-1.097657 4.089843c-2.542968 9.503907-6.292968 18.574219-11.148437 26.96875l-2.128906 3.671876 8.664062 17.933593-25.90625 25.90625-17.933593-8.664062-3.671876 2.128906c-8.394531 4.847656-17.472656 8.597656-26.96875 11.148437l-4.089843 1.097657-6.566407 18.832031h-36.640624l-6.566407-18.832031-4.089843-1.097657c-9.503907-2.542968-18.574219-6.292968-26.96875-11.148437l-3.671876-2.128906-17.933593 8.664062-25.90625-25.90625 8.664062-17.933593-2.128906-3.671876c-4.847656-8.394531-8.597656-17.472656-11.148437-26.96875l-1.097657-4.089843-18.832031-6.566407v-36.640624l18.832031-6.566407 1.097657-4.089843c2.542968-9.503907 6.292968-18.574219 11.148437-26.96875l2.128906-3.671876-8.664062-17.933593 25.90625-25.90625 17.933593 8.664062 3.671876-2.128906c8.394531-4.847656 17.472656-8.597656 26.96875-11.148437l4.089843-1.097657 6.566407-18.832031h36.640624l6.566407 18.832031 4.089843 1.097657c9.503907 2.542968 18.574219 6.292968 26.96875 11.148437l3.671876 2.128906 17.933593-8.664062 25.90625 25.90625-8.664062 17.933593 2.128906 3.671876c4.847656 8.394531 8.597656 17.472656 11.148437 26.96875l1.097657 4.089843 18.832031 6.566407v36.640624zm0 0"
     id="path8"
     style="fill:#244484;fill-opacity:1" />
  <path
     d="m352 272c-44.113281 0-80 35.886719-80 80s35.886719 80 80 80 80-35.886719 80-80-35.886719-80-80-80zm0 144c-35.289062 0-64-28.710938-64-64s28.710938-64 64-64 64 28.710938 64 64-28.710938 64-64 64zm0 0"
     id="path10"
     style="fill:#244484;fill-opacity:1" />
  <path
     d="m352 304c-26.472656 0-48 21.527344-48 48s21.527344 48 48 48 48-21.527344 48-48-21.527344-48-48-48zm0 80c-17.648438 0-32-14.351562-32-32s14.351562-32 32-32 32 14.351562 32 32-14.351562 32-32 32zm0 0"
     id="path12"
     style="fill:#244484;fill-opacity:1" />
  <path
     d="m400 104c0-22.054688-17.945312-40-40-40s-40 17.945312-40 40 17.945312 40 40 40 40-17.945312 40-40zm-64 0c0-13.230469 10.769531-24 24-24s24 10.769531 24 24-10.769531 24-24 24-24-10.769531-24-24zm0 0"
     id="path14"
     style="fill:#244484;fill-opacity:1" />
  <path
     d="m64 360c0 22.054688 17.945312 40 40 40s40-17.945312 40-40-17.945312-40-40-40-40 17.945312-40 40zm64 0c0 13.230469-10.769531 24-24 24s-24-10.769531-24-24 10.769531-24 24-24 24 10.769531 24 24zm0 0"
     id="path16"
     style="fill:#244484;fill-opacity:1" />
  <path
     style="fill:#bddbff;fill-opacity:1;fill-rule:evenodd;stroke-width:0.708876;stroke-miterlimit:2"
     d="m 479.85001,106.17445 c -18.63215,-0.2678 -35.10439,18.09274 -32.06576,36.63787 2.14854,16.60328 18.24845,30.25494 35.14386,28.33351 19.03486,-1.33151 33.69963,-21.85896 28.63703,-40.28697 -3.52891,-14.02869 -17.06447,-25.08381 -31.71513,-24.68441 z"
     id="path849"
     transform="scale(0.75000002)" />
  <path
     style="fill:#bddbff;fill-opacity:1;fill-rule:evenodd;stroke-width:0.708876;stroke-miterlimit:2"
     d="m 468.3151,383.60144 c -31.82174,-0.0134 -62.57231,19.45253 -76.14912,48.23414 -15.10607,30.42444 -9.87515,69.63914 13.22171,94.68251 19.43199,21.98829 50.51168,32.71662 79.36289,27.2937 38.49133,-6.653 69.93172,-42.60634 70.39697,-81.8473 1.31401,-32.08016 -17.24678,-63.80336 -45.76799,-78.49954 -12.57695,-6.66899 -26.83434,-10.06558 -41.06446,-9.86351 z m 0.74284,22.44756 c 24.28853,-0.51272 47.7882,14.71223 57.65263,36.74967 4.09619,8.24627 6.12361,17.40541 5.43946,26.59466 1.10322,15.03544 -5.19862,29.58388 -14.61321,41.01761 -12.27902,14.58003 -31.57336,23.15777 -50.58544,21.91347 -19.43461,0.12959 -38.19541,-10.86837 -49.33407,-26.51096 -9.61258,-13.16496 -12.94974,-30.01799 -10.77696,-45.98427 3.83012,-28.95669 30.11116,-52.91797 59.26283,-53.70534 0.96088,-0.0444 2.05953,-0.073 2.95476,-0.0748 z"
     id="path851"
     transform="scale(0.75000002)" />
  <path
     style="fill:#bddbff;fill-opacity:1;fill-rule:evenodd;stroke-width:0.708876;stroke-miterlimit:2"
     d="m 138.1917,447.56943 c -16.07654,-0.16965 -30.75261,13.58793 -31.83154,29.58083 -1.27564,12.17639 5.05703,24.50832 15.69402,30.56898 14.03546,9.44205 34.54609,4.26195 43.58544,-9.68888 9.48144,-13.16731 6.33112,-32.99548 -6.36971,-42.94004 -5.74093,-5.07456 -13.45046,-7.67562 -21.07821,-7.52089 z"
     id="path853"
     transform="scale(0.75000002)" />
  <path
     style="fill:#bddbff;fill-opacity:1;fill-rule:evenodd;stroke-width:0.708876;stroke-miterlimit:2"
     d="m 159.00112,106.37402 c -25.35575,-0.35376 -48.85089,20.29716 -52.06657,45.4108 -3.01798,17.62938 3.60376,36.33183 17.14925,48.0424 11.23972,10.64403 27.26749,15.6999 42.58971,13.44468 26.07117,-2.46538 47.9026,-27.02682 46.98368,-53.27016 0.72997,-23.14204 -15.98955,-44.92111 -37.95865,-51.52253 -5.36275,-1.76694 -11.08803,-2.12933 -16.69742,-2.10519 z m 1.96383,22.35747 c 17.98265,0.0817 33.05849,17.99756 30.06451,35.74397 -2.12554,15.93268 -18.04926,28.72581 -34.09299,26.59849 -15.88317,-0.90968 -28.97782,-16.2434 -28.19112,-31.73606 -0.31845,-15.63483 13.29698,-29.65639 28.89203,-30.51631 1.10708,-0.0878 2.21741,-0.11229 3.32757,-0.0901 z"
     id="path855"
     transform="scale(0.75000002)" />
</svg>
