<svg xmlns="http://www.w3.org/2000/svg" viewBox="0 0 163.66 165"><g id="Layer_2" data-name="Layer 2"><g id="Layer_1-2" data-name="Layer 1"><path d="M162.48,94.93V156.7H100.71V130.41H97.64a10.12,10.12,0,1,1,0-9.18h3.07V94.93H127a6,6,0,0,1-2.06,4.47,10.11,10.11,0,1,0,13.24-.07,5.82,5.82,0,0,1-2-4.41Z" style="fill:#bddbff"/><path d="M154.93,94.93h7.55v61.76h-7.55Z" style="fill:#69b0ee"/><path d="M89.9,25.15A10.07,10.07,0,0,1,74.48,36.48a5.83,5.83,0,0,0-4.76-.87l6.35,25.51L50.53,67.47a5.92,5.92,0,0,1,.93-4.83A10.12,10.12,0,1,0,38.62,65.9a5.82,5.82,0,0,1,3,3.79L16.11,76.05,1.19,16.11,61.12,1.19,67.47,26.7a6,6,0,0,0,3.85-3.09,10,10,0,0,1,7.31-5.35A10.15,10.15,0,0,1,89.9,25.15Z" style="fill:#bddbff"/><path d="M90.25,29.8a10.1,10.1,0,0,0-9.84-4.08,10,10,0,0,0-7.31,5.33,5.91,5.91,0,0,1-3.84,3.09L62.9,8.64,3,23.53,1.19,16.11,61.12,1.19l6.36,25.5a5.92,5.92,0,0,0,3.84-3.08,10,10,0,0,1,7.31-5.34A10.08,10.08,0,0,1,90.25,29.8Z" style="fill:#69b0ee"/><path d="M136.19,94.93a6,6,0,0,0,2.06,4.48,10,10,0,0,1,3.46,7.93,10.11,10.11,0,1,1-16.69-8,5.82,5.82,0,0,0,2-4.4H100.71V68.64a5.82,5.82,0,0,1,4.41,2,10.11,10.11,0,1,0,.06-13.24,5.94,5.94,0,0,1-4.48,2.06V33.16h61.78V94.93Z" style="fill:#e9ecef"/><path d="M162.48,33.16V94.93h-7.4V41.21H100.71V33.16Z" style="fill:#c7cfd6"/><path d="M78.57,126.14a10.16,10.16,0,0,0,10.17,9.78,10,10,0,0,0,8.9-5.51h3.07V156.7H38.94V94.93H65.23a5.82,5.82,0,0,0-2-4.41,10.11,10.11,0,1,1,13.24,0,5.94,5.94,0,0,0-2.06,4.47h26.29v26.28H97.64a10.08,10.08,0,0,0-19.07,4.93Z" style="fill:#c7cfd6"/><path d="M100.71,157.88H38.94a1.18,1.18,0,0,1-1.18-1.18V94.93a1.18,1.18,0,0,1,1.18-1.18h25a4.51,4.51,0,0,0-1.43-2.34,11.3,11.3,0,1,1,15.93-1.2,11.06,11.06,0,0,1-1.13,1.14,4.91,4.91,0,0,0-1.51,2.4h24.95a1.18,1.18,0,0,1,1.18,1.18v26.29a1.19,1.19,0,0,1-1.18,1.19H97.64a1.19,1.19,0,0,1-1.06-.65,8.91,8.91,0,1,0-7.91,13h.07a8.86,8.86,0,0,0,7.84-4.88,1.19,1.19,0,0,1,1.06-.65h3.07a1.18,1.18,0,0,1,1.18,1.19V156.7A1.18,1.18,0,0,1,100.71,157.88Zm-60.58-2.37H99.52V131.6H98.34a11.21,11.21,0,0,1-9.6,5.52h-.07A11.31,11.31,0,1,1,98.33,120h1.19V96.12H74.42a1.19,1.19,0,0,1-1.19-1.19,7.11,7.11,0,0,1,2.47-5.36,8.83,8.83,0,0,0,3-7.41A8.92,8.92,0,1,0,63.27,88.9a7.31,7.31,0,0,0,.75.72,6.94,6.94,0,0,1,2.39,5.3,1.18,1.18,0,0,1-1.18,1.19H40.13Z" style="fill:#22417d"/><path d="M136.88,165H135.1a1.19,1.19,0,1,1,0-2.37h1.78a1.19,1.19,0,0,1,0,2.37Z" style="fill:#22417d"/><path d="M129.57,165H108.12a1.19,1.19,0,1,1,0-2.37h21.45a1.19,1.19,0,0,1,0,2.37Z" style="fill:#22417d"/><path d="M68.86,4a1.19,1.19,0,0,1-1.15-.9L67.44,2A1.18,1.18,0,0,1,68.25.53a1.19,1.19,0,0,1,1.47.82s0,0,0,.07L70,2.53A1.19,1.19,0,0,1,69.15,4h0a1.43,1.43,0,0,1-.29,0Z" style="fill:#22417d"/><path d="M71.5,14.59A1.22,1.22,0,0,1,71,14.5a1.18,1.18,0,0,1-.69-.8l-1.52-6a1.19,1.19,0,0,1,2.3-.58l1.14,4.48a18.72,18.72,0,0,1,5-1.57,17.46,17.46,0,0,1,5.77,0,1.18,1.18,0,1,1-.36,2.34h0a15,15,0,0,0-5,0,16,16,0,0,0-5.56,2,1.21,1.21,0,0,1-.61.16Z" style="fill:#22417d"/><path d="M162.48,157.88H100.71a1.18,1.18,0,0,1-1.19-1.18V131.6H98.34a11.21,11.21,0,0,1-9.6,5.52h-.07A11.3,11.3,0,0,1,80.57,118,11.25,11.25,0,0,1,98.34,120h1.19V94.93a1.18,1.18,0,0,1,1.18-1.18H127a1.19,1.19,0,0,1,1.19,1.18,7.19,7.19,0,0,1-2.46,5.36,8.82,8.82,0,0,0-3,7.35,8.92,8.92,0,1,0,14.7-7.41A7,7,0,0,1,135,94.92a1.18,1.18,0,0,1,1.19-1.18h26.29a1.18,1.18,0,0,1,1.18,1.18V156.7A1.18,1.18,0,0,1,162.48,157.88Zm-60.59-2.37h59.4V96.12H137.52a4.5,4.5,0,0,0,1.42,2.32,11.29,11.29,0,1,1-14.78.08,5,5,0,0,0,1.5-2.4H101.89v25.1a1.19,1.19,0,0,1-1.18,1.19H97.64a1.19,1.19,0,0,1-1.06-.65,8.91,8.91,0,1,0-7.91,13h.07a8.86,8.86,0,0,0,7.84-4.88,1.19,1.19,0,0,1,1.06-.65h3.07a1.18,1.18,0,0,1,1.18,1.19Z" style="fill:#22417d"/><path d="M16.11,77.23a1.17,1.17,0,0,1-.61-.17,1.15,1.15,0,0,1-.54-.73L0,16.39a1.16,1.16,0,0,1,.13-.89A1.15,1.15,0,0,1,.9,15L60.83,0A1.18,1.18,0,0,1,62.27.9h0l6,24.2a4.88,4.88,0,0,0,2-2,11.15,11.15,0,0,1,8.18-6,11.31,11.31,0,1,1-4.68,20.37,4.55,4.55,0,0,0-2.61-.83l6,24.22a1.18,1.18,0,0,1-.87,1.43l-25.5,6.36a1.19,1.19,0,0,1-1.44-.86h0a7.15,7.15,0,0,1,1.1-5.8A8.8,8.8,0,0,0,51.63,54,8.94,8.94,0,1,0,39.15,64.83a7,7,0,0,1,3.62,4.57,1.18,1.18,0,0,1-.86,1.44h0L16.39,77.2a1.33,1.33,0,0,1-.28,0ZM2.62,17,17,74.61,40,68.86A4.55,4.55,0,0,0,38.09,67a11.29,11.29,0,1,1,15.16-5,11,11,0,0,1-.83,1.4A4.84,4.84,0,0,0,51.54,66L74.6,60.26l-6-24.36a1.19,1.19,0,0,1,.86-1.44h.06a6.93,6.93,0,0,1,5.69,1.06,8.93,8.93,0,1,0-2.11-12.44,7.53,7.53,0,0,0-.66,1.09,7.2,7.2,0,0,1-4.62,3.69A1.19,1.19,0,0,1,66.34,27L60.26,2.62Z" style="fill:#22417d"/><path d="M131.59,118.26a11.27,11.27,0,0,1-8.27-18.92c.29-.31.6-.61.92-.89a4.55,4.55,0,0,0,1.43-2.33h-25a1.19,1.19,0,0,1-1.19-1.19V68.64a1.18,1.18,0,0,1,1.19-1.18,6.93,6.93,0,0,1,5.31,2.4,8.92,8.92,0,1,0,1-12.59,9.66,9.66,0,0,0-.91.9,7.11,7.11,0,0,1-5.36,2.47,1.19,1.19,0,0,1-1.19-1.19V33.16A1.18,1.18,0,0,1,100.71,32h61.77a1.18,1.18,0,0,1,1.18,1.18V94.93a1.18,1.18,0,0,1-1.18,1.19H137.53a4.86,4.86,0,0,0,1.5,2.39,11.2,11.2,0,0,1,3.86,8.87,11.41,11.41,0,0,1-10.45,10.85c-.29,0-.56,0-.85,0Zm-29.7-24.51H127a1.19,1.19,0,0,1,1.19,1.18,7,7,0,0,1-2.4,5.31,8.9,8.9,0,0,0,6.48,15.62,9,9,0,0,0,8.25-8.56,8.82,8.82,0,0,0-3.05-7A7.15,7.15,0,0,1,135,94.92a1.18,1.18,0,0,1,1.19-1.18h25.1V34.35h-59.4V58.11a4.82,4.82,0,0,0,2.4-1.5,11.13,11.13,0,0,1,9.38-3.83,11.3,11.3,0,1,1-9.44,18.62A4.52,4.52,0,0,0,101.89,70Z" style="fill:#22417d"/><path d="M47.25,118.38a1.46,1.46,0,0,1,1.46,1.46h0v1.48a1.47,1.47,0,0,1-2.93,0v-1.48a1.46,1.46,0,0,1,1.46-1.46Z" style="fill:#fff"/><path d="M47.25,125.74a1.47,1.47,0,0,1,1.46,1.46h0v18.7a1.47,1.47,0,0,1-2.93,0V127.2a1.47,1.47,0,0,1,1.46-1.46Z" style="fill:#fff"/></g></g></svg>