<svg xmlns="http://www.w3.org/2000/svg" viewBox="0 0 179.62 165"><g id="Layer_2" data-name="Layer 2"><g id="Layer_1-2" data-name="Layer 1"><rect x="159.62" y="33.19" width="20" height="123" style="fill:none"/><path d="M160.42,94.07V156.6H97.9V130H94.79a10.13,10.13,0,0,1-9,5.59,10.24,10.24,0,1,1,9-14.89H97.9V94.07h26.61a6,6,0,0,1-2.08,4.52,10.24,10.24,0,1,0,13.4-.06,5.9,5.9,0,0,1-2-4.47Z" style="fill:#bddbff"/><path d="M152.79,94.07h7.63v62.52h-7.63Z" style="fill:#69b0ee"/><path d="M91,25.46A10.19,10.19,0,0,1,75.39,36.93a5.87,5.87,0,0,0-4.81-.88L77,61.87,51.15,68.3a6,6,0,0,1,.94-4.89,10.24,10.24,0,1,0-13,3.3,5.89,5.89,0,0,1,3,3.84L16.31,77,1.2,16.31,61.87,1.2,68.3,27a6,6,0,0,0,3.89-3.12,10.13,10.13,0,0,1,7.41-5.42,10.26,10.26,0,0,1,11.4,7Z" style="fill:#bddbff"/><path d="M91.36,29.15a10.27,10.27,0,0,0-10-4.13A10.08,10.08,0,0,0,74,30.42a6,6,0,0,1-3.89,3.12L63.67,7.73,3.07,22.81,1.2,15.3,61.87.19,68.31,26a6,6,0,0,0,3.89-3.12,10.08,10.08,0,0,1,7.39-5.4A10.21,10.21,0,0,1,91.36,29.15Z" style="fill:#69b0ee"/><path d="M133.81,94.07a6,6,0,0,0,2.09,4.53,10.25,10.25,0,0,1-7,18,10.23,10.23,0,0,1-9.93-10.3,10.11,10.11,0,0,1,3.56-7.71,5.91,5.91,0,0,0,2-4.46H97.9V67.46a5.92,5.92,0,0,1,4.46,2,10.23,10.23,0,1,0,.06-13.4,6,6,0,0,1-4.53,2.09V31.55h62.53V94.07Z" style="fill:#e9ecef"/><path d="M160.42,31.55V94.07h-7.49V39.69h-55V31.55Z" style="fill:#c7cfd6"/><path d="M75.49,125.67A10.21,10.21,0,0,0,94.79,130H97.9V156.6H35.37V94.07H62a5.89,5.89,0,0,0-2-4.46,10.24,10.24,0,1,1,13.4-.06,6,6,0,0,0-2.09,4.53H97.9v26.6H94.79a10.2,10.2,0,0,0-19.3,5Z" style="fill:#c7cfd6"/><path d="M97.9,157.8H35.37a1.2,1.2,0,0,1-1.2-1.2V94.07a1.2,1.2,0,0,1,1.2-1.2H60.63a4.54,4.54,0,0,0-1.44-2.36,11.38,11.38,0,1,1,15-.06,4.93,4.93,0,0,0-1.53,2.42H97.9a1.2,1.2,0,0,1,1.2,1.2v26.61a1.2,1.2,0,0,1-1.2,1.2H94.79a1.21,1.21,0,0,1-1.07-.65,9,9,0,1,0-8,13.15h.07a9,9,0,0,0,7.94-4.94,1.21,1.21,0,0,1,1.07-.66H97.9a1.2,1.2,0,0,1,1.2,1.2V156.6A1.2,1.2,0,0,1,97.9,157.8Zm-61.33-2.4H96.69V131.19h-1.2a11.33,11.33,0,0,1-9.71,5.59h-.07a11.45,11.45,0,1,1,9.78-17.3h1.2V95.27H71.28a1.2,1.2,0,0,1-1.2-1.2,7.24,7.24,0,0,1,2.5-5.43,9,9,0,0,0,3.07-7.5,9,9,0,0,0-15.21-5.83A9,9,0,0,0,60,88a8.5,8.5,0,0,0,.75.72,7.08,7.08,0,0,1,2.43,5.37,1.2,1.2,0,0,1-1.2,1.2H36.57Z" style="fill:#244583"/><path d="M134.51,165h-1.8a1.2,1.2,0,0,1,0-2.4h1.8a1.2,1.2,0,0,1,0,2.4Z" style="fill:#244583"/><path d="M127.11,165H105.4a1.2,1.2,0,0,1,0-2.4h21.71a1.2,1.2,0,0,1,0,2.4Z" style="fill:#244583"/><path d="M167.34,143.94v-1.8a1.2,1.2,0,0,1,2.4,0v1.8a1.2,1.2,0,1,1-2.4,0Z" style="fill:#244583"/><path d="M167.34,136.54V114.83a1.2,1.2,0,0,1,2.4,0v21.71a1.2,1.2,0,0,1-2.4,0Z" style="fill:#244583"/><path d="M69.71,4.05a1.19,1.19,0,0,1-1.17-.91L68.26,2a1.2,1.2,0,0,1,2.31-.66.24.24,0,0,1,0,.08l.28,1.12A1.2,1.2,0,0,1,70,4h0a1.33,1.33,0,0,1-.28,0Z" style="fill:#244583"/><path d="M72.38,14.77a1.18,1.18,0,0,1-.46-.09,1.25,1.25,0,0,1-.71-.81l-1.54-6A1.2,1.2,0,0,1,72,7.24l1.16,4.55a18.46,18.46,0,0,1,5.07-1.59,17.61,17.61,0,0,1,5.84,0,1.2,1.2,0,0,1,1,1.37,1.19,1.19,0,0,1-1.37,1h0a15.47,15.47,0,0,0-5.08,0,16.37,16.37,0,0,0-5.63,2,1.22,1.22,0,0,1-.61.17Z" style="fill:#244583"/><path d="M160.42,157.8H97.9a1.21,1.21,0,0,1-1.21-1.2V131.19h-1.2a11.33,11.33,0,0,1-9.71,5.59h-.07a11.44,11.44,0,0,1-8.2-19.41,11.39,11.39,0,0,1,18,2.12h1.2V94.07a1.2,1.2,0,0,1,1.2-1.2h26.61a1.2,1.2,0,0,1,1.2,1.2,7.26,7.26,0,0,1-2.49,5.43,8.91,8.91,0,0,0-3,7.44,9,9,0,1,0,14.88-7.5,7,7,0,0,1-2.44-5.38,1.2,1.2,0,0,1,1.2-1.2h26.61a1.2,1.2,0,0,1,1.2,1.2V156.6A1.2,1.2,0,0,1,160.42,157.8ZM99.1,155.4h60.12V95.27H135.16a4.61,4.61,0,0,0,1.44,2.36,11.31,11.31,0,0,1,4,8.62,11.46,11.46,0,0,1-3.63,8.37,11.3,11.3,0,0,1-8.63,3,11.47,11.47,0,0,1-10.56-10.52,11.31,11.31,0,0,1,3.86-9.43,4.94,4.94,0,0,0,1.52-2.43H99.1v25.41a1.2,1.2,0,0,1-1.2,1.2H94.79a1.21,1.21,0,0,1-1.07-.65,9,9,0,1,0-8,13.15h.07a9,9,0,0,0,7.94-4.94,1.21,1.21,0,0,1,1.07-.66H97.9a1.2,1.2,0,0,1,1.2,1.2Z" style="fill:#244583"/><path d="M16.31,78.18a1.2,1.2,0,0,1-1.17-.91L0,16.59a1.19,1.19,0,0,1,.13-.9,1.21,1.21,0,0,1,.74-.55L61.58,0A1.21,1.21,0,0,1,63,.91h0l6.11,24.5a4.92,4.92,0,0,0,2-2.06,11.3,11.3,0,0,1,8.28-6.06,11.45,11.45,0,1,1-4.74,20.62A4.53,4.53,0,0,0,72,37.07l6.1,24.51A1.2,1.2,0,0,1,77.26,63L51.45,69.47A1.2,1.2,0,0,1,50,68.6h0a7.21,7.21,0,0,1,1.11-5.87,8.93,8.93,0,0,0,1.17-8,9,9,0,0,0-16.17-2,9,9,0,0,0,2.63,12.39,8,8,0,0,0,.9.51,7.09,7.09,0,0,1,3.66,4.63,1.19,1.19,0,0,1-.86,1.46h0L16.6,78.14a1,1,0,0,1-.29,0Zm-13.65-61L17.18,75.52l23.35-5.81a4.61,4.61,0,0,0-2-1.94A11.43,11.43,0,1,1,53.9,62.68a10.08,10.08,0,0,1-.84,1.41,4.93,4.93,0,0,0-.89,2.72L75.51,61,69.39,36.34a1.19,1.19,0,0,1,.87-1.45l.06,0A7,7,0,0,1,76.08,36a9,9,0,1,0-2.14-12.6,9.49,9.49,0,0,0-.67,1.1,7.2,7.2,0,0,1-4.67,3.74,1.2,1.2,0,0,1-1.45-.88L61,2.66Z" style="fill:#244583"/><path d="M129.16,117.68a11.41,11.41,0,0,1-8.38-19.15c.29-.31.61-.61.94-.9a4.61,4.61,0,0,0,1.44-2.36H97.9a1.2,1.2,0,0,1-1.21-1.2V67.46a1.21,1.21,0,0,1,1.21-1.2,7.08,7.08,0,0,1,5.38,2.43,9,9,0,1,0,1-12.74,8.69,8.69,0,0,0-.91.91,7.24,7.24,0,0,1-5.43,2.5,1.21,1.21,0,0,1-1.21-1.2V31.55a1.2,1.2,0,0,1,1.21-1.2h62.52a1.2,1.2,0,0,1,1.2,1.2V94.07a1.2,1.2,0,0,1-1.2,1.2H135.17a4.87,4.87,0,0,0,1.52,2.43,11.33,11.33,0,0,1,3.9,9,11.52,11.52,0,0,1-10.58,11c-.28,0-.56,0-.85,0ZM99.1,92.87h25.41a1.2,1.2,0,0,1,1.2,1.2,7.08,7.08,0,0,1-2.43,5.38,9,9,0,0,0,6.56,15.81,9.1,9.1,0,0,0,8.35-8.67,8.93,8.93,0,0,0-3.08-7.09,7.24,7.24,0,0,1-2.5-5.44,1.2,1.2,0,0,1,1.2-1.2h25.41V32.75H99.1v24a4.92,4.92,0,0,0,2.42-1.52A11.29,11.29,0,0,1,111,51.4a11.44,11.44,0,1,1-9.55,18.86,4.52,4.52,0,0,0-2.36-1.44Z" style="fill:#244583"/><path d="M43.78,117.8a1.49,1.49,0,0,1,1.48,1.48h0v1.5a1.49,1.49,0,0,1-3,0v-1.5a1.49,1.49,0,0,1,1.48-1.48Z" style="fill:#fff"/><path d="M43.78,125.26a1.48,1.48,0,0,1,1.48,1.48h0v18.93a1.49,1.49,0,0,1-3,0V126.74a1.48,1.48,0,0,1,1.48-1.48Z" style="fill:#fff"/></g></g></svg>