<svg xmlns="http://www.w3.org/2000/svg" viewBox="0 0 206.26 165"><g id="Layer_2" data-name="Layer 2"><g id="Layer_1-2" data-name="Layer 1"><path d="M44.38,38.21v98H191.83v-98a6.44,6.44,0,0,0-6.44-6.44H50.82a6.44,6.44,0,0,0-6.44,6.44Z" style="fill:#e9ecef"/><path d="M191.83,137.46H44.38a1.28,1.28,0,0,1-1.28-1.28v-98a7.73,7.73,0,0,1,7.73-7.72H185.38a7.73,7.73,0,0,1,7.73,7.72v98a1.28,1.28,0,0,1-1.28,1.27ZM45.66,134.91H190.55V38.21A5.18,5.18,0,0,0,185.38,33H50.83a5.18,5.18,0,0,0-5.17,5.17Z" style="fill:#323c6b"/><path d="M185.39,31.75H50.82a6.45,6.45,0,0,0-6.44,6.46h0v1.71H177.51A6.45,6.45,0,0,1,184,46.37h0v89.81h7.87v-98a6.45,6.45,0,0,0-6.44-6.46Z" style="fill:#c7cfd6"/><path d="M31.24,136.18a18.11,18.11,0,0,0,16,16.14c1.2.11,2.41.17,3.62.17H185.31c1.21,0,2.42-.06,3.63-.17a18.11,18.11,0,0,0,16-16.14Z" style="fill:#c7cfd6"/><path d="M185.31,153.77H50.91c-1.24,0-2.5-.06-3.74-.17A19.43,19.43,0,0,1,30,136.32a1.27,1.27,0,0,1,1.12-1.41H205a1.28,1.28,0,0,1,1.29,1.27.76.76,0,0,1,0,.15,19.43,19.43,0,0,1-17.19,17.27q-1.87.18-3.75.18ZM32.73,137.46a16.77,16.77,0,0,0,14.66,13.59c1.17.11,2.33.16,3.51.16H185.31c1.18,0,2.35-.05,3.51-.16a16.77,16.77,0,0,0,14.66-13.59Z" style="fill:#22417d"/><path d="M191.83,137.46H44.38a1.28,1.28,0,0,1-1.28-1.28v-98a7.73,7.73,0,0,1,7.73-7.72H185.38a7.73,7.73,0,0,1,7.73,7.72v98a1.28,1.28,0,0,1-1.28,1.27ZM45.66,134.91H190.55V38.21A5.18,5.18,0,0,0,185.38,33H50.83a5.18,5.18,0,0,0-5.17,5.17Z" style="fill:#22417d"/><path d="M199.89,52.84a1.28,1.28,0,0,0,1.28-1.28V45.81a1.28,1.28,0,0,0-2.56,0v5.75A1.28,1.28,0,0,0,199.89,52.84Z" style="fill:#22417d"/><path d="M199.89,41.56a1.28,1.28,0,0,0,1.28-1.28V38.21a15.42,15.42,0,0,0-15.39-15.39,1.28,1.28,0,0,0,0,2.56,12.84,12.84,0,0,1,12.83,12.83v2.08A1.29,1.29,0,0,0,199.89,41.56Z" style="fill:#22417d"/><path d="M174.81,161.43H168a1.28,1.28,0,0,1,0-2.55h6.82a1.28,1.28,0,0,1,0,2.55Z" style="fill:#22417d"/><path d="M162.46,161.43H138a1.28,1.28,0,1,1,0-2.55h24.49a1.28,1.28,0,0,1,0,2.55Z" style="fill:#22417d"/><path d="M52.91,93.11a1.81,1.81,0,0,1-1.8-1.81h0V87.17a1.81,1.81,0,1,1,3.61,0V91.3a1.8,1.8,0,0,1-1.8,1.81Z" style="fill:#fff"/><path d="M52.91,120a1.8,1.8,0,0,1-1.8-1.8h0V97.35a1.81,1.81,0,1,1,3.61,0v20.79a1.8,1.8,0,0,1-1.8,1.81Z" style="fill:#fff"/><path d="M116.07,51.89a69.69,69.69,0,0,1-22.55,9.52,3.51,3.51,0,0,0-2.82,3.44V92.93a29.59,29.59,0,0,0,12.22,24l13.82,10a2.13,2.13,0,0,0,2.48,0l13.82-10a29.59,29.59,0,0,0,12.22-24V64.85a3.52,3.52,0,0,0-2.82-3.44,69.77,69.77,0,0,1-22.56-9.52,3.51,3.51,0,0,0-3.81,0Z" style="fill:#bddbff"/><path d="M143.09,60.68l-.85-.19a3.53,3.53,0,0,1,.84,2.27V91.63a29.61,29.61,0,0,1-1.39,9,30.56,30.56,0,0,1-11.58,15.69l-14.67,10.31a2.24,2.24,0,0,1-1.12.4l1.51,1.07a2.3,2.3,0,0,0,2.63,0l14.67-10.32A30.45,30.45,0,0,0,144.7,102a29.61,29.61,0,0,0,1.39-9V64.22A3.67,3.67,0,0,0,143.09,60.68Z" style="fill:#69b0ee"/><path d="M143.15,59.87a70.86,70.86,0,0,1-22.69-9.58,4.55,4.55,0,0,0-5,0,71,71,0,0,1-22.69,9.58,4.59,4.59,0,0,0-3.66,4.46V93a31.09,31.09,0,0,0,1.38,9.18A31.44,31.44,0,0,0,102,118.26l14.11,10.24a3.12,3.12,0,0,0,3.68,0l14.11-10.24A31.2,31.2,0,0,0,146.81,93V64.33A4.59,4.59,0,0,0,143.15,59.87Zm1.71,4.46V93a29.31,29.31,0,0,1-12.08,23.68l-14.11,10.24a1.17,1.17,0,0,1-1.38,0l-14.12-10.24A29.24,29.24,0,0,1,91.1,93V64.33a2.63,2.63,0,0,1,2.11-2.56,71.67,71.67,0,0,0,23.35-9.84h0a2.61,2.61,0,0,1,2.83,0,71.63,71.63,0,0,0,23.36,9.84A2.63,2.63,0,0,1,144.86,64.33Z" style="fill:#22417d"/><path d="M118,129.35a3.34,3.34,0,0,1-2-.65l-14.11-10.24A31.45,31.45,0,0,1,88.9,93V64.33a4.85,4.85,0,0,1,3.86-4.71,70.79,70.79,0,0,0,22.61-9.54,4.8,4.8,0,0,1,5.22,0,70.79,70.79,0,0,0,22.61,9.54h0a4.85,4.85,0,0,1,3.86,4.71V93a31.45,31.45,0,0,1-13,25.46L120,128.7A3.29,3.29,0,0,1,118,129.35Zm0-79.54a4.29,4.29,0,0,0-2.34.69,71.15,71.15,0,0,1-22.78,9.61,4.35,4.35,0,0,0-3.46,4.22V93a30.83,30.83,0,0,0,1.37,9.1,31.17,31.17,0,0,0,11.4,16l14.12,10.24a2.91,2.91,0,0,0,3.38,0l14.11-10.24A31,31,0,0,0,146.56,93V64.33a4.36,4.36,0,0,0-3.46-4.22h0a71.15,71.15,0,0,1-22.78-9.61A4.31,4.31,0,0,0,118,49.81Zm0,77.59a1.37,1.37,0,0,1-.84-.28L103,116.88A29.54,29.54,0,0,1,90.85,93V64.33a2.86,2.86,0,0,1,2.31-2.8,71.46,71.46,0,0,0,23.27-9.81,2.85,2.85,0,0,1,3.1,0,71.46,71.46,0,0,0,23.27,9.81,2.86,2.86,0,0,1,2.31,2.8V93a29.54,29.54,0,0,1-12.18,23.88l-14.11,10.24A1.39,1.39,0,0,1,118,127.4Zm0-75.64a2.35,2.35,0,0,0-1.28.37A71.9,71.9,0,0,1,93.26,62a2.37,2.37,0,0,0-1.91,2.31V93a29,29,0,0,0,12,23.48l14.11,10.24a.92.92,0,0,0,1.09,0l14.12-10.24a29.18,29.18,0,0,0,10.68-15A28.73,28.73,0,0,0,144.61,93V64.33A2.37,2.37,0,0,0,142.69,62a72,72,0,0,1-23.43-9.88A2.3,2.3,0,0,0,118,51.76Z" style="fill:#22417d"/><path d="M127.49,73.83,112.55,90.89l-4.89-4a5.06,5.06,0,1,0-6.39,7.86l12.49,10.09,21.38-24.39a5.07,5.07,0,0,0-7.65-6.66Z" style="fill:#e9ecef"/><path d="M137.35,76.75a6,6,0,0,0-10.59-3.56L112.44,89.54l-4.17-3.37a6,6,0,1,0-7.62,9.38l13.23,10.68,22-25.1A6,6,0,0,0,137.35,76.75ZM101.88,94a4.08,4.08,0,0,1-.6-5.74,4.11,4.11,0,0,1,5.76-.6l5.63,4.54,15.56-17.76a4.11,4.11,0,0,1,5.78-.38,4,4,0,0,1,1.39,2.8,4,4,0,0,1-1,3l-20.75,23.69Z" style="fill:#22417d"/><path d="M1.41,147.68c0,8.78,16.31,15.9,36.42,15.9s36.42-7.12,36.42-15.9V78.87c0,8.77-16.31,15.91-36.42,15.91S1.41,87.66,1.41,78.87Z" style="fill:#e9ecef"/><path d="M74.24,78.88v68.81c0,8.77-16.3,15.9-36.41,15.9-16.89,0-31.07-5-35.2-11.83a63,63,0,0,0,28,5.69c20.12,0,36.41-7.1,36.41-15.9V88.39c4.56-2.63,7.25-5.94,7.25-9.51Z" style="fill:#c7cfd6"/><ellipse cx="37.83" cy="78.87" rx="36.41" ry="15.9" style="fill:#e9ecef"/><path d="M37.83,96.19C16.61,96.19,0,88.58,0,78.87S16.62,61.56,37.83,61.56s37.83,7.59,37.83,17.31S59,96.19,37.83,96.19Zm0-31.8c-19,0-35,6.63-35,14.48s16,14.49,35,14.49,35-6.63,35-14.49S56.8,64.39,37.83,64.39Z" style="fill:#22417d"/><path d="M37.83,119.13C16.61,119.13,0,111.52,0,101.81a1.42,1.42,0,0,1,2.83,0c0,7.85,16,14.49,35,14.49s35-6.64,35-14.49a1.42,1.42,0,0,1,2.83,0C75.66,111.52,59,119.13,37.83,119.13Z" style="fill:#22417d"/><path d="M37.83,142.06C16.61,142.06,0,134.46,0,124.74a1.42,1.42,0,0,1,2.83,0c0,7.86,16,14.49,35,14.49s35-6.63,35-14.49a1.42,1.42,0,0,1,2.83,0C75.66,134.46,59,142.06,37.83,142.06Z" style="fill:#22417d"/><path d="M1.41,65.46A1.42,1.42,0,0,1,0,64a1.44,1.44,0,0,1,.57-1.12c.79-.58,1.62-1.13,2.49-1.66a1.42,1.42,0,0,1,1.47,2.42h0c-.81.49-1.57,1-2.29,1.52A1.4,1.4,0,0,1,1.41,65.46Z" style="fill:#22417d"/><path d="M10.7,60.53a1.42,1.42,0,0,1-1.42-1.42,1.4,1.4,0,0,1,.91-1.31,76,76,0,0,1,24.24-4.65,1.42,1.42,0,0,1,1.47,1.36h0A1.42,1.42,0,0,1,34.53,56h0a72.9,72.9,0,0,0-23.32,4.46A1.52,1.52,0,0,1,10.7,60.53Z" style="fill:#22417d"/><path d="M37.83,165C16.61,165,0,157.39,0,147.68V78.87a1.42,1.42,0,0,1,2.83,0c0,7.86,16,14.49,35,14.49s35-6.63,35-14.49a1.42,1.42,0,0,1,2.83,0v68.81C75.66,157.39,59,165,37.83,165Zm-35-79.44v62.12c0,7.85,16,14.49,35,14.49s35-6.64,35-14.49V85.56c-5.61,6.29-19,10.63-35,10.63s-29.39-4.33-35-10.63Z" style="fill:#22417d"/><path d="M29,108.94c-.34-.1-.51-.16-.85-.28a1.25,1.25,0,0,0-1.58.66,1.17,1.17,0,0,0,.73,1.5l.06,0c.36.13.54.19.91.3a1.16,1.16,0,0,0,.92-2.14l-.21-.06Z" style="fill:#fff"/><path d="M48.74,108.67A26.61,26.61,0,0,1,33.56,110a1.23,1.23,0,0,0-1.42.93,1.19,1.19,0,0,0,1,1.35h.06a28.57,28.57,0,0,0,16.33-1.44,1.19,1.19,0,0,0,.82-1.47s0,0,0-.06A1.24,1.24,0,0,0,48.74,108.67Z" style="fill:#fff"/><polygon points="71.45 0 69.53 1.08 77.23 9.6 67.24 14.31 68.66 16.12 80.83 10.38 71.45 0" style="fill:#22417d"/><path d="M17.17,41.29C24.39,16.43,51,2.3,76.64,9.75" style="fill:none;stroke:#22417d;stroke-linecap:round;stroke-linejoin:round;stroke-width:2.5px"/><polygon points="27.18 36.08 26.25 34.08 17.16 41.12 13.23 30.8 11.32 32.08 16.12 44.65 27.18 36.08" style="fill:#22417d"/></g></g></svg>