<?xml version="1.0" encoding="UTF-8" standalone="no"?>
<svg
   xmlns:dc="http://purl.org/dc/elements/1.1/"
   xmlns:cc="http://creativecommons.org/ns#"
   xmlns:rdf="http://www.w3.org/1999/02/22-rdf-syntax-ns#"
   xmlns:svg="http://www.w3.org/2000/svg"
   xmlns="http://www.w3.org/2000/svg"
   xmlns:sodipodi="http://sodipodi.sourceforge.net/DTD/sodipodi-0.dtd"
   xmlns:inkscape="http://www.inkscape.org/namespaces/inkscape"
   enable-background="new 0 0 520 520"
   height="512"
   viewBox="0 0 520 520"
   width="512"
   version="1.1"
   id="svg13"
   sodipodi:docname="digital.svg"
   inkscape:version="1.0.1 (0767f8302a, 2020-10-17)">
  <metadata
     id="metadata19">
    <rdf:RDF>
      <cc:Work
         rdf:about="">
        <dc:format>image/svg+xml</dc:format>
        <dc:type
           rdf:resource="http://purl.org/dc/dcmitype/StillImage" />
      </cc:Work>
    </rdf:RDF>
  </metadata>
  <defs
     id="defs17" />
  <sodipodi:namedview
     pagecolor="#ffffff"
     bordercolor="#666666"
     borderopacity="1"
     objecttolerance="10"
     gridtolerance="10"
     guidetolerance="10"
     inkscape:pageopacity="0"
     inkscape:pageshadow="2"
     inkscape:window-width="3368"
     inkscape:window-height="1376"
     id="namedview15"
     showgrid="false"
     inkscape:zoom="1.8203125"
     inkscape:cx="256"
     inkscape:cy="256"
     inkscape:window-x="1992"
     inkscape:window-y="27"
     inkscape:window-maximized="1"
     inkscape:current-layer="g10" />
  <g
     id="_x34_36_x2C__Digital_x2C__Lock_x2C__Technology">
    <g
       id="g10">
      <path
         d="m441.72 370c4.129 11.639 15.244 20 28.28 20 16.542 0 30-13.458 30-30s-13.458-30-30-30c-13.036 0-24.151 8.361-28.28 20h-11.72v-30h40c5.522 0 10-4.478 10-10v-31.72c11.639-4.129 20-15.244 20-28.28 0-16.542-13.458-30-30-30s-30 13.458-30 30c0 13.036 8.361 24.151 20 28.28v21.72h-30v-70c0-5.523-4.478-10-10-10h-20v-40h20c5.522 0 10-4.477 10-10s-4.478-10-10-10h-20c0-77.196-62.804-140-140-140s-140 62.804-140 140h-20c-5.523 0-10 4.477-10 10s4.477 10 10 10h20v40h-20c-5.523 0-10 4.477-10 10v70h-30v-21.72c11.639-4.129 20-15.244 20-28.28 0-16.542-13.458-30-30-30s-30 13.458-30 30c0 13.036 8.361 24.151 20 28.28v31.72c0 5.522 4.477 10 10 10h40v30h-11.72c-4.128-11.639-15.243-20-28.28-20-16.542 0-30 13.458-30 30s13.458 30 30 30c13.037 0 24.152-8.361 28.28-20h11.72v30h-40c-5.523 0-10 4.478-10 10v31.72c-11.639 4.129-20 15.244-20 28.28 0 16.542 13.458 30 30 30s30-13.458 30-30c0-13.036-8.361-24.151-20-28.28v-21.72h30v70c0 5.522 4.477 10 10 10h320c5.522 0 10-4.478 10-10v-70h30v21.72c-11.639 4.129-20 15.244-20 28.28 0 16.542 13.458 30 30 30s30-13.458 30-30c0-13.036-8.361-24.151-20-28.28v-31.72c0-5.522-4.478-10-10-10h-40v-30zm28.28-20c5.514 0 10 4.486 10 10s-4.486 10-10 10-10-4.486-10-10 4.486-10 10-10zm0-110c5.514 0 10 4.486 10 10s-4.486 10-10 10-10-4.486-10-10 4.486-10 10-10zm-420 0c5.514 0 10 4.486 10 10s-4.486 10-10 10-10-4.486-10-10 4.486-10 10-10zm0 130c-5.514 0-10-4.486-10-10s4.486-10 10-10 10 4.486 10 10-4.485 10-10 10zm0 110c-5.514 0-10-4.486-10-10s4.486-10 10-10 10 4.486 10 10-4.485 10-10 10zm420 0c-5.514 0-10-4.486-10-10s4.486-10 10-10 10 4.486 10 10-4.486 10-10 10zm-90-260h-20v-40h20zm-200 0v-40h160v40zm0-60c0-44.112 35.888-80 80-80s80 35.888 80 80zm80-120c66.168 0 120 53.832 120 120h-20c0-55.14-44.859-100-100-100-55.14 0-100 44.86-100 100h-20c0-66.168 53.832-120 120-120zm-120 140h20v40h-20zm270 220h-60c-5.522 0-10 4.478-10 10s4.478 10 10 10h60v60h-300v-60h60c5.523 0 10-4.478 10-10s-4.477-10-10-10h-60v-30h60c5.523 0 10-4.478 10-10s-4.477-10-10-10h-60v-30h60c5.523 0 10-4.478 10-10s-4.477-10-10-10h-60v-60h300v60h-60c-5.522 0-10 4.478-10 10s4.478 10 10 10h60v30h-60c-5.522 0-10 4.478-10 10s4.478 10 10 10h60z"
         id="path2"
         style="fill:#244484;fill-opacity:1" />
      <path
         d="m260 280c-33.084 0-60 26.916-60 60 0 29.676 21.661 54.374 50 59.15v30.85c0 5.522 4.477 10 10 10 5.522 0 10-4.478 10-10v-30.85c28.339-4.776 50-29.475 50-59.15 0-33.084-26.916-60-60-60zm0 100c-22.056 0-40-17.944-40-40s17.944-40 40-40 40 17.944 40 40-17.944 40-40 40z"
         id="path4"
         style="fill:#244484;fill-opacity:1" />
      <path
         d="m450 100c16.542 0 30-13.458 30-30s-13.458-30-30-30-30 13.458-30 30 13.458 30 30 30zm0-40c5.514 0 10 4.486 10 10s-4.486 10-10 10-10-4.486-10-10 4.486-10 10-10z"
         id="path6"
         style="fill:#244484;fill-opacity:1" />
      <path
         d="m60 170c16.542 0 30-13.458 30-30s-13.458-30-30-30-30 13.458-30 30 13.458 30 30 30zm0-40c5.514 0 10 4.486 10 10s-4.486 10-10 10-10-4.486-10-10 4.486-10 10-10z"
         id="path8"
         style="fill:#244484;fill-opacity:1" />
    </g>
  </g>
  <path
     style="fill:#bddbff;fill-rule:evenodd;stroke-width:3.29614"
     d="m 108.49785,443.05579 v -29.39055 h 30.78584 c 29.58422,0 30.86894,-0.0424 32.91511,-1.08628 8.10958,-4.1372 6.44565,-16.64143 -2.49024,-18.71391 -1.1852,-0.27488 -15.44247,-0.50568 -31.68281,-0.51289 l -29.5279,-0.0131 v -14.28327 -14.28326 l 29.80258,-0.003 c 18.80569,-0.002 30.55643,-0.21243 31.8456,-0.57047 4.33402,-1.20367 7.1581,-4.95694 7.20477,-9.5753 0.0367,-3.63036 -1.45226,-6.61459 -4.21152,-8.44097 l -2.20833,-1.46147 -31.21655,-0.15051 -31.21655,-0.1505 V 329.8887 315.3571 l 31.21666,-0.15051 31.21666,-0.15051 1.99012,-1.36395 c 2.15135,-1.47446 3.90894,-4.19916 4.4946,-6.96776 0.83845,-3.96361 -1.88595,-8.82114 -5.99402,-10.68719 -2.06706,-0.93893 -4.31301,-1.0093 -32.57208,-1.02053 l -30.35194,-0.0121 V 265.88841 236.77253 H 256 403.50215 v 29.11588 29.11588 l -30.35194,0.0121 c -28.25907,0.0112 -30.50502,0.0816 -32.57208,1.02054 -7.30486,3.31814 -8.13617,13.10636 -1.49942,17.65494 l 1.99012,1.36396 31.21665,0.1505 31.21667,0.15051 v 14.5316 14.53161 l -31.21656,0.1505 -31.21654,0.15051 -2.20833,1.46171 c -2.75926,1.82638 -4.2482,4.8106 -4.21152,8.44096 0.0466,4.61836 2.87075,8.37163 7.20477,9.5753 1.28917,0.35804 13.03991,0.56854 31.8456,0.57047 l 29.80258,0.003 v 14.28326 14.28327 l -29.5279,0.0131 c -16.24034,0.007 -30.49761,0.238 -31.68281,0.51288 -8.93589,2.07248 -10.59982,14.57671 -2.49024,18.71391 2.04617,1.04388 3.33089,1.08628 32.91511,1.08628 l 30.78584,-2e-5 v 29.39055 29.39056 H 256 108.49785 Z m 151.48252,-10.45872 c 2.72418,-1.13823 3.9493,-2.30951 5.14953,-4.92325 0.905,-1.97082 1.0103,-3.85231 1.02113,-18.24492 l 0.0121,-16.04749 2.33477,-0.60025 c 6.63053,-1.70463 8.7907,-2.45832 13.36893,-4.66452 11.36855,-5.47836 21.46677,-15.33846 27.00228,-26.36557 4.28556,-8.53712 6.23477,-16.94505 6.25307,-26.97271 0.0188,-10.30644 -1.87474,-18.28419 -6.45511,-27.19604 -5.91843,-11.51523 -14.91176,-20.24656 -26.84731,-26.06515 -13.02856,-6.35144 -27.13094,-7.72864 -41.31356,-4.03458 -4.92101,1.28175 -12.93648,4.9282 -17.57607,7.99584 -3.97547,2.62852 -11.06131,9.33317 -14.28064,13.51241 -4.98686,6.47378 -9.08107,15.67689 -10.90881,24.52125 -1.17244,5.67338 -1.14863,16.81359 0.0485,22.69159 3.76194,18.47137 15.63995,33.86347 32.34404,41.91296 4.57824,2.2062 6.7384,2.95989 13.36894,4.66452 l 2.33476,0.60025 v 15.92779 c 0,16.71814 0.19669,18.29081 2.63039,21.03154 2.46943,2.78097 7.77084,3.81994 11.51307,2.25633 z"
     id="path844"
     transform="scale(1.015625)" />
</svg>
