<?xml version="1.0" encoding="UTF-8" standalone="no"?>
<svg
   xmlns:dc="http://purl.org/dc/elements/1.1/"
   xmlns:cc="http://creativecommons.org/ns#"
   xmlns:rdf="http://www.w3.org/1999/02/22-rdf-syntax-ns#"
   xmlns:svg="http://www.w3.org/2000/svg"
   xmlns="http://www.w3.org/2000/svg"
   xmlns:sodipodi="http://sodipodi.sourceforge.net/DTD/sodipodi-0.dtd"
   xmlns:inkscape="http://www.inkscape.org/namespaces/inkscape"
   height="512"
   viewBox="0 0 64 64"
   width="512"
   version="1.1"
   id="svg31"
   sodipodi:docname="cyber-security.svg"
   inkscape:version="1.0.1 (0767f8302a, 2020-10-17)">
  <metadata
     id="metadata37">
    <rdf:RDF>
      <cc:Work
         rdf:about="">
        <dc:format>image/svg+xml</dc:format>
        <dc:type
           rdf:resource="http://purl.org/dc/dcmitype/StillImage" />
        <dc:title></dc:title>
      </cc:Work>
    </rdf:RDF>
  </metadata>
  <defs
     id="defs35" />
  <sodipodi:namedview
     pagecolor="#ffffff"
     bordercolor="#666666"
     borderopacity="1"
     objecttolerance="10"
     gridtolerance="10"
     guidetolerance="10"
     inkscape:pageopacity="0"
     inkscape:pageshadow="2"
     inkscape:window-width="1992"
     inkscape:window-height="1376"
     id="namedview33"
     showgrid="false"
     inkscape:zoom="1.2871553"
     inkscape:cx="312.95687"
     inkscape:cy="235.32625"
     inkscape:window-x="3368"
     inkscape:window-y="27"
     inkscape:window-maximized="0"
     inkscape:current-layer="svg31" />
  <g
     id="Processor_security"
     data-name="Processor security">
    <path
       d="m27 11h2v2h-2z"
       id="path2"
       style="fill:#244484;fill-opacity:1" />
    <path
       d="m53 35h2v2h-2z"
       id="path4"
       style="fill:#244484;fill-opacity:1" />
    <path
       d="m35 51h2v2h-2z"
       id="path6"
       style="fill:#244484;fill-opacity:1" />
    <path
       d="m27 54h2v2h-2z"
       id="path8"
       style="fill:#244484;fill-opacity:1" />
    <path
       d="m11 31h2v2h-2z"
       id="path10"
       style="fill:#244484;fill-opacity:1" />
    <path
       d="m35 11h2v2h-2z"
       id="path12"
       style="fill:#244484;fill-opacity:1" />
    <path
       d="m51 27h2v2h-2z"
       id="path14"
       style="fill:#244484;fill-opacity:1" />
    <path
       d="m46 17h2v2h-2z"
       id="path16"
       style="fill:#244484;fill-opacity:1" />
    <path
       d="m16 17h2v2h-2z"
       id="path18"
       style="fill:#244484;fill-opacity:1" />
    <path
       d="m46 45h2v2h-2z"
       id="path20"
       style="fill:#244484;fill-opacity:1" />
    <path
       d="m16 45h2v2h-2z"
       id="path22"
       style="fill:#244484;fill-opacity:1" />
    <path
       d="m31.882 31a2.994 2.994 0 0 0 -.882 5.822v2.178h2v-2.185a2.993 2.993 0 0 0 -1.118-5.815zm1.118 2.961a1 1 0 0 1 -.96 1.039 1 1 0 0 1 -.719-.266 1 1 0 0 1 .639-1.734h.04a1 1 0 0 1 1 .96z"
       id="path24"
       style="fill:#244484;fill-opacity:1" />
    <path
       d="m37 28.184v-1.184a5 5 0 0 0 -10 0v1.184a3 3 0 0 0 -2 2.816v8a3 3 0 0 0 3 3h8a3 3 0 0 0 3-3v-8a3 3 0 0 0 -2-2.816zm-8-1.184a3 3 0 0 1 6 0v1h-6zm8 12a1 1 0 0 1 -1 1h-8a1 1 0 0 1 -1-1v-8a1 1 0 0 1 1-1h8a1 1 0 0 1 1 1z"
       id="path26"
       style="fill:#244484;fill-opacity:1" />
    <path
       d="m59 41a2.951 2.951 0 0 0 -1.285.3l-2.3-2.3h-9.415v-2h5v-2h-5v-2h5.236l5.687-2.844a2.994 2.994 0 1 0 -.923-2.156 2.9 2.9 0 0 0 .037.363l-5.273 2.637h-4.764v-2h3v-2h-3v-2h4.414l3.3-3.3a2.951 2.951 0 0 0 1.286.3 3 3 0 1 0 -3-3 2.951 2.951 0 0 0 .3 1.285l-2.714 2.715h-3.586a5.006 5.006 0 0 0 -5-5v-2.586l5.715-5.714a2.951 2.951 0 0 0 1.285.3 3 3 0 1 0 -3-3 2.951 2.951 0 0 0 .3 1.285l-6.3 6.3v3.415h-2v-3h-2v3h-2v-7.184a3 3 0 1 0 -2 0v7.184h-2v-3h-2v3h-2v-7.414l-4.3-4.3a2.951 2.951 0 0 0 .3-1.286 3 3 0 1 0 -3 3 2.951 2.951 0 0 0 1.285-.3l3.715 3.714v6.586a5.006 5.006 0 0 0 -5 5h-3.586l-2.714-2.715a2.951 2.951 0 0 0 .3-1.285 3 3 0 1 0 -3 3 2.951 2.951 0 0 0 1.285-.3l3.3 3.3h4.415v2h-6.362l-5.238 4.364a2.953 2.953 0 0 0 -1.4-.364 3 3 0 1 0 3 3 2.972 2.972 0 0 0 -.237-1.168l4.599-3.832h5.638v2h-3v2h3v2h-9v2h9v2h-5.535l-4.03 6.044a2.968 2.968 0 0 0 -.435-.044 3.028 3.028 0 1 0 2.21.988l3.325-4.988h4.465a5.006 5.006 0 0 0 5 5v6.586l-3.715 3.714a2.951 2.951 0 0 0 -1.285-.3 3 3 0 1 0 3 3 2.951 2.951 0 0 0 -.3-1.285l4.3-4.3v-7.415h2v6h2v-6h2v8.554l6.074 3.8a3.044 3.044 0 1 0 1.069-1.691l-5.143-3.217v-7.446h2v3h2v-3h2v8h7.184a3 3 0 1 0 0-2h-5.184v-6a5.006 5.006 0 0 0 5-5h8.586l1.714 1.715a2.951 2.951 0 0 0 -.3 1.285 3 3 0 1 0 3-3zm0-14a1 1 0 1 1 -1 1 1 1 0 0 1 1-1zm-4-9a1 1 0 1 1 -1 1 1 1 0 0 1 1-1zm-7-12a1 1 0 1 1 -1 1 1 1 0 0 1 1-1zm-16 1a1 1 0 1 1 -1 1 1 1 0 0 1 1-1zm-15-2a1 1 0 1 1 1 1 1 1 0 0 1 -1-1zm-9 14a1 1 0 1 1 1 1 1 1 0 0 1 -1-1zm-3 16a1 1 0 1 1 1-1 1 1 0 0 1 -1 1zm3 14a1 1 0 1 1 1-1 1 1 0 0 1 -1 1zm10 11a1 1 0 1 1 1-1 1 1 0 0 1 -1 1zm22-2a1 1 0 1 1 -1 1 1 1 0 0 1 1-1zm9-6a1 1 0 1 1 -1 1 1 1 0 0 1 1-1zm-5-11a3 3 0 0 1 -3 3h-18a3 3 0 0 1 -3-3v-18a3 3 0 0 1 3-3h18a3 3 0 0 1 3 3zm15 4a1 1 0 1 1 1-1 1 1 0 0 1 -1 1z"
       id="path28"
       style="fill:#244484;fill-opacity:1" />
  </g>
  <path
     style="fill:#bddbff;fill-rule:evenodd;stroke-width:0.548807;stroke-miterlimit:2;fill-opacity:1"
     d="m 245.5,239.34764 c -8.29359,0.32839 -16.75254,-0.59899 -24.95064,0.81867 -3.89571,1.49689 -5.32307,5.78924 -4.93189,9.65158 -0.34008,21.41454 -0.0918,42.83501 -0.17112,64.25185 1.60114,4.11841 5.78257,7.00555 10.29265,6.4385 20.32652,0.26732 40.67571,0.47101 60.9969,-0.0975 3.39859,-0.002 7.28532,-0.86733 8.71088,-4.38042 2.34487,-3.19673 0.5432,-7.59915 1.10628,-11.29962 -0.22031,-19.58036 0.46073,-39.19359 -0.43074,-58.7543 -0.53035,-4.43058 -5.34829,-6.95152 -9.50108,-6.42811 -13.70268,-0.34426 -27.41534,-0.14937 -41.12124,-0.20064 z m 10.51824,9.41202 c 11.88266,-0.35401 22.91387,9.8107 23.04282,21.79543 1.06501,10.1246 -5.81434,19.84429 -15.20054,23.26894 -1.35897,3.32887 -0.20561,7.53942 -0.60203,11.20386 0.36161,3.83893 0.49428,7.4483 -4.41085,6.00645 -3.36266,0 -6.72532,0 -10.08798,0 -0.19657,-5.45049 0.38643,-11.1172 -0.28298,-16.43654 -4.49098,-2.57213 -9.2565,-5.54099 -12.0829,-10.19866 -3.31237,-4.23564 -3.59213,-9.81151 -3.27462,-15.01173 0.21586,-9.43562 8.11337,-17.67728 17.05788,-19.91209 1.90829,-0.47892 3.87415,-0.71536 5.8412,-0.71566 z"
     id="path862"
     transform="scale(0.125)" />
  <path
     style="fill:#bddbff;fill-rule:evenodd;stroke-width:0.548807;stroke-miterlimit:2"
     d="m 63.509657,375.42489 c -6.806836,0.0575 -10.484318,9.0199 -6.113734,14.03756 3.790089,5.19477 12.650084,3.51406 14.606223,-2.48606 2.260216,-5.53362 -2.484169,-12.06943 -8.492489,-11.5515 z"
     id="path864"
     transform="scale(0.125)" />
  <path
     style="fill:#bddbff;fill-rule:evenodd;stroke-width:0.548807;stroke-miterlimit:2"
     d="m 39.698498,263.45386 c -6.025508,0.0476 -10.329147,7.25446 -7.160944,12.52253 2.35871,5.6847 10.632651,6.05389 14.135193,1.30151 4.610634,-4.88339 0.546482,-13.7722 -6.056867,-13.81653 -0.30544,-0.0161 -0.611748,-0.0233 -0.917382,-0.008 z"
     id="path866"
     transform="scale(0.125)" />
  <path
     style="fill:#bddbff;fill-rule:evenodd;stroke-width:0.548807;stroke-miterlimit:2"
     d="m 72.986052,143.5118 c -5.2485,-0.63265 -10.007639,4.06906 -9.582619,9.29721 0.337348,5.85984 8.096507,10.27925 12.96352,6.36588 5.346081,-2.66984 5.538985,-11.02583 0.464592,-14.11266 -1.022163,-1.0158 -2.373616,-1.69337 -3.845493,-1.55043 z"
     id="path868"
     transform="scale(0.125)" />
  <path
     style="fill:#bddbff;fill-rule:evenodd;stroke-width:0.548807;stroke-miterlimit:2"
     d="m 143.6427,31.430258 c -6.83575,0.09866 -10.99986,9.472424 -5.96995,14.395922 3.85665,4.706116 12.16641,3.246841 14.18133,-2.527897 2.387,-5.542719 -2.09044,-12.186694 -8.21138,-11.868025 z"
     id="path870"
     transform="scale(0.125)" />
  <path
     style="fill:#bddbff;fill-rule:evenodd;stroke-width:0.548807;stroke-miterlimit:2"
     d="m 255.91202,55.486052 c -6.36444,-0.148847 -11.15944,7.920354 -7.11052,13.159871 2.87229,4.618756 9.98314,5.387818 13.49356,1.049356 4.87741,-4.471089 1.60745,-13.02527 -4.62124,-14.040773 -0.57855,-0.12172 -1.17063,-0.179386 -1.7618,-0.168454 z"
     id="path872"
     transform="scale(0.125)" />
  <path
     style="fill:#bddbff;fill-rule:evenodd;stroke-width:0.548807;stroke-miterlimit:2"
     d="m 383.55472,47.356223 c -6.46121,0.356826 -11.11125,9.268089 -6.02039,14.12661 3.47316,4.674857 11.18485,3.763724 13.85837,-1.259657 3.73452,-5.565655 -1.46703,-13.18213 -7.83798,-12.866953 z"
     id="path874"
     transform="scale(0.125)" />
  <path
     style="fill:#bddbff;fill-rule:evenodd;stroke-width:0.548807;stroke-miterlimit:2"
     d="m 438.48605,143.53648 c -6.07762,0.96135 -9.69432,9.73479 -4.85193,14.21674 2.88539,3.50742 8.19835,3.85692 11.64056,0.97639 5.43113,-3.61471 3.80679,-12.89439 -2.41631,-14.63841 -1.40087,-0.47855 -2.9021,-0.58169 -4.37232,-0.55472 z"
     id="path876"
     transform="scale(0.125)" />
  <path
     style="fill:#bddbff;fill-rule:evenodd;stroke-width:0.548807;stroke-miterlimit:2"
     d="m 471.70708,215.48391 c -6.67746,-0.008 -11.0417,8.90139 -6.35515,13.93025 3.62546,4.64132 11.78444,4.04617 14.25966,-1.46244 2.95382,-5.57203 -1.40655,-12.95553 -7.90451,-12.46781 z"
     id="path878"
     transform="scale(0.125)" />
  <path
     style="fill:#bddbff;fill-rule:evenodd;stroke-width:0.548807;stroke-miterlimit:2"
     d="m 471.72425,343.55258 c -6.51314,-0.22069 -10.77939,8.03552 -6.84335,13.20493 3.33828,5.37995 12.30691,4.88093 14.83691,-0.97747 2.81549,-5.56118 -1.60684,-12.69783 -7.99356,-12.22746 z"
     id="path880"
     transform="scale(0.125)" />
  <path
     style="fill:#bddbff;fill-rule:evenodd;stroke-width:0.548807;stroke-miterlimit:2"
     d="m 391.88305,415.42275 c -6.70862,-0.2001 -10.7984,8.49827 -6.72211,13.65343 2.72719,3.88503 8.60253,4.86644 12.18885,1.52253 5.09593,-3.63292 3.77692,-12.0044 -1.79829,-14.41845 -1.13299,-0.55783 -2.40658,-0.82518 -3.66845,-0.75751 z"
     id="path882"
     transform="scale(0.125)" />
  <path
     style="fill:#bddbff;fill-rule:evenodd;stroke-width:0.548807;stroke-miterlimit:2"
     d="m 319.63197,463.4882 c -7.01493,-0.0587 -10.81921,9.65101 -5.84871,14.48605 4.25362,4.88738 13.10343,2.46289 14.46567,-3.82296 1.71513,-5.34374 -3.17501,-10.97206 -8.61696,-10.66309 z"
     id="path884"
     transform="scale(0.125)" />
</svg>
