<svg xmlns="http://www.w3.org/2000/svg" viewBox="0 0 479.998 479.998" xmlns:v="https://vecta.io/nano"><path d="M478.215 314.963c-.414-.511-.889-.969-1.415-1.364-21.931-16.365-51.716-17.398-74.728-2.592L301.64 375.999h-27.424l-53.336-32H256c26.499-.026 47.974-21.501 48-48a8 8 0 0 0-8-8l-55.2.04-80-8a8.14 8.14 0 0 0-3.952.608L102.4 303.999H0v16h104a7.91 7.91 0 0 0 3.152-.648l54.104-23.2L240 303.999h46.992a32.07 32.07 0 0 1-30.992 24h-64a8 8 0 0 0-4.12 14.856l80 48c1.244.748 2.668 1.144 4.12 1.144h32a8 8 0 0 0 4.344-1.28l102.4-66.272a49.6 49.6 0 0 1 47.296-3.464L301.168 447.999h-43.744l-150.656-55.504a8.02 8.02 0 0 0-2.768-.496H0v16h102.576l150.656 55.504c.886.328 1.823.495 2.768.496h48c1.832-.001 3.608-.631 5.032-1.784l168-136a8 8 0 0 0 1.183-11.252zM384 111.999v-56c0-31.576-90.512-40-144-40s-144 8.424-144 40v56c.396 6.56 3.943 12.523 9.52 16a20.13 20.13 0 0 0-9.52 16v56c0 31.576 90.512 40 144 40s144-8.424 144-40v-56c-.368-6.569-3.922-12.543-9.52-16 5.577-3.477 9.124-9.44 9.52-16zm-16 88c-1.512 8.12-48.064 24-128 24s-126.488-15.88-128-24v-35.896c28.392 15.256 88.352 19.896 128 19.896s99.616-4.64 128-19.896v35.896zm-128-32c-79.936 0-126.456-15.872-128-23.952 0-.08 1.136-3.128 10.272-7.328 30.88 11.592 82.384 15.28 117.728 15.28s86.848-3.688 117.728-15.296c9.128 4.2 10.272 7.296 10.272 7.296-1.512 8.16-48.064 24-128 24zm128-56c-1.512 8.16-48.064 24-128 24s-126.488-15.88-128-24V76.103c28.392 15.256 88.352 19.896 128 19.896s99.616-4.64 128-19.896v35.896zm-128-32c-79.8 0-126.456-15.872-128-23.952 1.544-8.176 48.088-24.048 128-24.048 79.8 0 126.336 15.832 128 24-1.664 8.168-48.2 24-128 24z" fill="#244484"/><path d="M111.518 165.181c-.521 9.942-.173 20.071-.182 30.086-.099 3.697.526 8.197 4.529 9.669 13.148 7.548 28.345 10.323 43.041 13.239 26.349 4.711 53.143 6.616 79.896 6.254 24.788.369 49.605-1.099 74.113-4.892 16.611-2.793 33.618-5.645 48.83-13.217 3.192-1.575 6.928-3.759 6.727-7.879.407-10.592.437-21.241-.024-31.829-.346-2.987-3.907-1.331-5.58-.702-25.672 10.261-53.472 13.403-80.878 15.743-41.713 2.945-83.921 1.855-125.18-4.969-14.19-2.384-28.161-5.92-41.481-11.434-1.202-.366-2.662-.764-3.811-.069zm0-88.068c-.569 11.764-.08 23.719-.243 35.556 4.882 6.236 13.166 8.444 20.366 11.003 34.547 10.332 70.886 12.491 106.742 13.193 36.506-.499 73.464-2.585 108.73-12.724 7.613-2.554 16.107-4.914 21.49-11.2.282-11.673.04-23.457.121-35.173-1.623-2.277-4.983-.151-7.127.569-19.021 7.947-39.748 10.768-60.035 13.4-31.144 3.829-62.705 3.773-94 2.58-29.802-2.138-60.171-4.933-88.3-15.574-2.427-.957-5.094-2.784-7.745-1.631z" fill="#bddbff" fill-rule="evenodd"/></svg>