<?xml version="1.0" encoding="UTF-8" standalone="no"?>
<svg
   xmlns:dc="http://purl.org/dc/elements/1.1/"
   xmlns:cc="http://creativecommons.org/ns#"
   xmlns:rdf="http://www.w3.org/1999/02/22-rdf-syntax-ns#"
   xmlns:svg="http://www.w3.org/2000/svg"
   xmlns="http://www.w3.org/2000/svg"
   xmlns:sodipodi="http://sodipodi.sourceforge.net/DTD/sodipodi-0.dtd"
   xmlns:inkscape="http://www.inkscape.org/namespaces/inkscape"
   version="1.1"
   id="Capa_1"
   x="0px"
   y="0px"
   viewBox="0 0 479.998 479.998"
   style="enable-background:new 0 0 479.998 479.998;"
   xml:space="preserve"
   sodipodi:docname="hand.svg"
   inkscape:version="1.0.1 (0767f8302a, 2020-10-17)"><metadata
   id="metadata49"><rdf:RDF><cc:Work
       rdf:about=""><dc:format>image/svg+xml</dc:format><dc:type
         rdf:resource="http://purl.org/dc/dcmitype/StillImage" /><dc:title></dc:title></cc:Work></rdf:RDF></metadata><defs
   id="defs47" /><sodipodi:namedview
   pagecolor="#ffffff"
   bordercolor="#666666"
   borderopacity="1"
   objecttolerance="10"
   gridtolerance="10"
   guidetolerance="10"
   inkscape:pageopacity="0"
   inkscape:pageshadow="2"
   inkscape:window-width="1992"
   inkscape:window-height="1376"
   id="namedview45"
   showgrid="false"
   inkscape:zoom="0.68648571"
   inkscape:cx="262.03617"
   inkscape:cy="70.354613"
   inkscape:window-x="3368"
   inkscape:window-y="27"
   inkscape:window-maximized="0"
   inkscape:current-layer="Capa_1" />
<g
   id="g6">
	<g
   id="g4">
		<path
   d="M478.215,314.963c-0.414-0.511-0.889-0.969-1.415-1.364c-21.931-16.365-51.716-17.398-74.728-2.592L301.64,375.999    h-27.424l-53.336-32H256c26.499-0.026,47.974-21.501,48-48c0-4.418-3.582-8-8-8l-55.2,0.04l-80-8    c-1.347-0.129-2.706,0.08-3.952,0.608L102.4,303.999H0v16h104c1.084,0.002,2.157-0.218,3.152-0.648l54.104-23.2L240,303.999    h46.992c-3.669,14.118-16.405,23.981-30.992,24h-64c-4.418,0.001-7.999,3.584-7.997,8.003c0.001,2.806,1.472,5.407,3.877,6.853    l80,48c1.244,0.748,2.668,1.144,4.12,1.144h32c1.541,0.001,3.049-0.444,4.344-1.28l102.4-66.272    c14.156-9.105,31.964-10.409,47.296-3.464L301.168,447.999h-43.744l-150.656-55.504c-0.886-0.327-1.823-0.495-2.768-0.496H0v16    h102.576l150.656,55.504c0.886,0.328,1.823,0.495,2.768,0.496h48c1.832-0.001,3.608-0.631,5.032-1.784l168-136    C480.466,323.435,480.996,318.397,478.215,314.963z"
   id="path2"
   style="fill:#244484;fill-opacity:1" />
	</g>
</g>
<g
   id="g12">
	<g
   id="g10">
		<path
   d="M384,111.999v-56c0-31.576-90.512-40-144-40c-53.488,0-144,8.424-144,40v56c0.396,6.56,3.943,12.523,9.52,16    c-5.597,3.457-9.152,9.431-9.52,16v56c0,31.576,90.512,40,144,40c53.488,0,144-8.424,144-40v-56    c-0.368-6.569-3.922-12.543-9.52-16C380.057,124.522,383.604,118.559,384,111.999z M368,199.999c-1.512,8.12-48.064,24-128,24    s-126.488-15.88-128-24v-35.896c28.392,15.256,88.352,19.896,128,19.896s99.616-4.64,128-19.896V199.999z M240,167.999    c-79.936,0-126.456-15.872-128-23.952c0-0.08,1.136-3.128,10.272-7.328c30.88,11.592,82.384,15.28,117.728,15.28    s86.848-3.688,117.728-15.296c9.128,4.2,10.272,7.296,10.272,7.296C366.488,152.159,319.936,167.999,240,167.999z M368,111.999    c-1.512,8.16-48.064,24-128,24s-126.488-15.88-128-24V76.103c28.392,15.256,88.352,19.896,128,19.896s99.616-4.64,128-19.896    V111.999z M240,79.999c-79.8,0-126.456-15.872-128-23.952c1.544-8.176,48.088-24.048,128-24.048c79.8,0,126.336,15.832,128,24    C366.336,64.167,319.8,79.999,240,79.999z"
   id="path8"
   style="fill:#244484;fill-opacity:1" />
	</g>
</g>
<g
   id="g14">
</g>
<g
   id="g16">
</g>
<g
   id="g18">
</g>
<g
   id="g20">
</g>
<g
   id="g22">
</g>
<g
   id="g24">
</g>
<g
   id="g26">
</g>
<g
   id="g28">
</g>
<g
   id="g30">
</g>
<g
   id="g32">
</g>
<g
   id="g34">
</g>
<g
   id="g36">
</g>
<g
   id="g38">
</g>
<g
   id="g40">
</g>
<g
   id="g42">
</g>
<path
   style="fill:#bddbff;fill-rule:evenodd;stroke-width:0.514504;stroke-miterlimit:2"
   d="m 111.51777,165.18137 c -0.52127,9.9423 -0.17308,20.0713 -0.18206,30.08639 -0.0989,3.69734 0.52589,8.19731 4.52854,9.66868 13.14752,7.54784 28.34526,10.32344 43.04107,13.23938 26.34907,4.71054 53.14303,6.61557 79.89564,6.25375 24.78804,0.3693 49.60451,-1.09872 74.11274,-4.89224 16.61113,-2.7934 33.61764,-5.64517 48.83002,-13.21678 3.19162,-1.57479 6.92768,-3.75889 6.72744,-7.87919 0.40721,-10.59242 0.43662,-21.24075 -0.0241,-31.82859 -0.34592,-2.98653 -3.90653,-1.33067 -5.57971,-0.70212 -25.67212,10.261 -53.47208,13.4032 -80.87828,15.7429 -41.71318,2.94546 -83.92095,1.85546 -125.17955,-4.96943 -14.1898,-2.38415 -28.16137,-5.91964 -41.48052,-11.43376 -1.20172,-0.36558 -2.66221,-0.76392 -3.81119,-0.069 z"
   id="path874" /><path
   style="fill:#bddbff;fill-rule:evenodd;stroke-width:0.514504;stroke-miterlimit:2"
   d="m 111.51777,77.113075 c -0.56913,11.764383 -0.0801,23.719085 -0.24342,35.556445 4.88174,6.23639 13.16646,8.44363 20.36617,11.00296 34.54747,10.33231 70.88597,12.49097 106.74198,13.19265 36.50577,-0.49914 73.46407,-2.58548 108.73045,-12.72436 7.61287,-2.55431 16.10652,-4.91439 21.48993,-11.19952 0.28179,-11.67319 0.0401,-23.45746 0.12076,-35.173336 -1.62308,-2.277263 -4.98343,-0.151466 -7.12678,0.569338 -19.02075,7.946565 -39.74849,10.767567 -60.03452,13.40031 -31.14447,3.828528 -62.70477,3.772641 -93.9995,2.580377 -29.8015,-2.137558 -60.17057,-4.932628 -88.29996,-15.574144 -2.42693,-0.956758 -5.09426,-2.783896 -7.74511,-1.63072 z"
   id="path876" /></svg>
