<?xml version="1.0" encoding="UTF-8" standalone="no"?>
<svg
   xmlns:dc="http://purl.org/dc/elements/1.1/"
   xmlns:cc="http://creativecommons.org/ns#"
   xmlns:rdf="http://www.w3.org/1999/02/22-rdf-syntax-ns#"
   xmlns:svg="http://www.w3.org/2000/svg"
   xmlns="http://www.w3.org/2000/svg"
   xmlns:sodipodi="http://sodipodi.sourceforge.net/DTD/sodipodi-0.dtd"
   xmlns:inkscape="http://www.inkscape.org/namespaces/inkscape"
   viewBox="0 0 64 64"
   width="512"
   height="512"
   version="1.1"
   id="svg41"
   sodipodi:docname="fast.svg"
   inkscape:version="1.0.1 (0767f8302a, 2020-10-17)">
  <metadata
     id="metadata47">
    <rdf:RDF>
      <cc:Work
         rdf:about="">
        <dc:format>image/svg+xml</dc:format>
        <dc:type
           rdf:resource="http://purl.org/dc/dcmitype/StillImage" />
      </cc:Work>
    </rdf:RDF>
  </metadata>
  <defs
     id="defs45" />
  <sodipodi:namedview
     pagecolor="#ffffff"
     bordercolor="#666666"
     borderopacity="1"
     objecttolerance="10"
     gridtolerance="10"
     guidetolerance="10"
     inkscape:pageopacity="0"
     inkscape:pageshadow="2"
     inkscape:window-width="2192"
     inkscape:window-height="1376"
     id="namedview43"
     showgrid="false"
     inkscape:zoom="1.8203125"
     inkscape:cx="216.98193"
     inkscape:cy="248.42828"
     inkscape:window-x="3168"
     inkscape:window-y="27"
     inkscape:window-maximized="0"
     inkscape:current-layer="layer2" />
  <g
     id="Outline"
     style="display:inline" />
  <g
     inkscape:groupmode="layer"
     id="layer2"
     inkscape:label="Layer 2"
     style="display:inline">
    <ellipse
       style="display:inline;fill:#bddbff;fill-opacity:1;fill-rule:evenodd;stroke:none;stroke-width:0.835733;stroke-opacity:1"
       id="path874"
       cx="29.890192"
       cy="34.37426"
       rx="16.746168"
       ry="16.842985"
       transform="matrix(0.9999587,-0.0090884,0,1,0,0)" />
  </g>
  <g
     inkscape:groupmode="layer"
     id="layer1"
     inkscape:label="Layer 1"
     style="display:inline">
    <g
       id="g38"
       transform="translate(-1.9371051,0.18644702)">
      <path
         d="M 35,17.28 V 15 h 2 a 1,1 0 0 0 1,-1 V 10 A 1,1 0 0 0 37,9 H 10 a 1,1 0 0 0 0,2 h 26 v 2 h -9 a 1,1 0 0 0 0,2 h 2 v 2.27 a 17,17 0 0 0 -6.7,2.79 L 20,17.74 a 1,1 0 0 0 -1.41,0 l -2.83,2.82 a 1,1 0 0 0 -0.3,0.71 1,1 0 0 0 0.3,0.71 l 2.32,2.32 a 16.94,16.94 0 0 0 -2.5,5.45 1,1 0 1 0 1.93,0.5 15.21,15.21 0 0 1 1.07,-2.85 l 1.68,1 a 1.0034441,1.0034441 0 0 0 1,-1.74 l -1.69,-1 a 14.76,14.76 0 0 1 4.11,-4.11 l 1,1.69 a 1.0034441,1.0034441 0 0 0 1.74,-1 l -1,-1.69 A 14.84,14.84 0 0 1 31,19 v 2 a 1,1 0 0 0 2,0 v -1.95 a 14.91,14.91 0 0 1 5.61,1.5 l -1,1.69 a 1.0034441,1.0034441 0 0 0 1.74,1 l 1,-1.7 a 15.17,15.17 0 0 1 4.11,4.11 l -1.7,1 a 1.0034441,1.0034441 0 0 0 1,1.74 l 1.69,-1 A 14.91,14.91 0 0 1 47,33 h -2 a 1,1 0 0 0 0,2 h 2 a 14.91,14.91 0 0 1 -1.5,5.61 l -1.69,-1 a 1.0034441,1.0034441 0 0 0 -1,1.74 l 1.7,1 a 15.17,15.17 0 0 1 -4.11,4.11 l -1,-1.7 a 1.0034441,1.0034441 0 0 0 -1.74,1 l 1,1.69 A 14.91,14.91 0 0 1 33,49 v -2 a 1,1 0 0 0 -2,0 v 2 a 14.84,14.84 0 0 1 -5.61,-1.51 l 1,-1.69 a 1.0034441,1.0034441 0 1 0 -1.74,-1 l -1,1.69 a 14.76,14.76 0 0 1 -4.11,-4.11 l 1.69,-1 a 1.0034441,1.0034441 0 0 0 -1,-1.74 l -1.68,1 A 15.21,15.21 0 0 1 17.48,37.79 1,1 0 0 0 16.27,37 1,1 0 0 0 15.56,38.22 17,17 0 1 0 35,17.28 Z M 31,15 h 2 v 2.05 c -0.33,0 -0.66,-0.05 -1,-0.05 -0.34,0 -0.67,0 -1,0 z m -13.14,6.27 1.41,-1.41 1.45,1.44 a 17.17,17.17 0 0 0 -1.41,1.42 z"
         id="path2"
         style="fill:#244484;fill-opacity:1" />
      <path
         d="m 20,34 a 1,1 0 0 0 -1,-1 h -7 a 1,1 0 0 0 0,2 h 7 a 1,1 0 0 0 1,-1 z"
         id="path4"
         style="fill:#244484;fill-opacity:1" />
      <path
         d="m 37.66,28.34 a 1,1 0 0 0 -1.42,0 l -3,3 a 3,3 0 0 0 -2.56,0 L 26.3,26.97 a 1,1 0 1 0 -1.41,1.41 l 4.37,4.37 A 3,3 0 0 0 29,34 a 3,3 0 0 0 6,0 3,3 0 0 0 -0.3,-1.29 l 3,-2.95 a 1,1 0 0 0 -0.04,-1.42 z m -4.95,6.37 a 1,1 0 0 1 -1.42,0 1,1 0 0 1 0,-1.42 1,1 0 0 1 1.42,0 v 0 a 1,1 0 0 1 0,1.42 z"
         id="path6"
         style="fill:#244484;fill-opacity:1" />
      <path
         d="m 29.76,52.92 a 1,1 0 0 0 -1.37,0.37 L 27.85,54.23 25.67,53 A 1,1 0 0 0 24.52,53.11 8.17,8.17 0 0 1 22,54.53 1,1 0 0 0 21.34,55.48 V 58 h -4 v -2.52 a 1,1 0 0 0 -0.67,-0.95 7.81,7.81 0 0 1 -2.2,-1.19 1,1 0 0 0 -1.11,-0.08 l -3,1.72 -2,-3.46 2.72,-1.52 a 1,1 0 0 0 0.47,-1.1 8,8 0 0 1 -0.22,-1.9 8.33,8.33 0 0 1 0.13,-1.46 1,1 0 0 0 -0.48,-1 l -2.18,-1.31 2,-3.46 1.56,0.9 a 1,1 0 1 0 1,-1.73 l -2.43,-1.4 A 1,1 0 0 0 9.57,37.9 l -3,5.2 a 1,1 0 0 0 0.36,1.36 l 2.46,1.42 A 10.65,10.65 0 0 0 9.33,47 9.44,9.44 0 0 0 9.46,48.58 l -3,1.71 a 1,1 0 0 0 -0.37,1.36 l 3,5.2 a 1,1 0 0 0 1.37,0.36 l 3.29,-1.89 a 10.38,10.38 0 0 0 1.54,0.84 V 59 a 1,1 0 0 0 1,1 h 6 a 1,1 0 0 0 1,-1 V 56.16 A 9.8,9.8 0 0 0 25.26,55 l 2.46,1.42 a 1,1 0 0 0 1.36,-0.36 l 1.05,-1.81 a 1,1 0 0 0 -0.37,-1.33 z"
         id="path8"
         style="fill:#244484;fill-opacity:1" />
      <path
         d="m 16,44.55 a 1,1 0 0 0 -1.31,0.54 5.08,5.08 0 0 0 -0.36,1.91 5,5 0 0 0 5,5 4.88,4.88 0 0 0 2,-0.44 1,1 0 1 0 -0.81,-1.82 3,3 0 0 1 -1.19,0.26 3,3 0 0 1 -3,-3 2.87,2.87 0 0 1 0.23,-1.14 A 1,1 0 0 0 16,44.55 Z"
         id="path10"
         style="fill:#244484;fill-opacity:1" />
      <path
         d="M 26,4 H 42 A 1,1 0 0 0 42,2 H 26 a 1,1 0 0 0 0,2 z"
         id="path12"
         style="fill:#244484;fill-opacity:1" />
      <path
         d="m 3,32 h 7 a 1,1 0 0 0 0,-2 H 3 a 1,1 0 0 0 0,2 z"
         id="path14"
         style="fill:#244484;fill-opacity:1" />
      <path
         d="m 7,25 h 4 a 1,1 0 0 0 0,-2 H 7 a 1,1 0 0 0 0,2 z"
         id="path16"
         style="fill:#244484;fill-opacity:1" />
      <path
         d="m 9,16 h 8 a 1,1 0 0 0 0,-2 H 9 a 1,1 0 0 0 0,2 z"
         id="path18"
         style="fill:#244484;fill-opacity:1" />
      <path
         d="M 10,60 H 3 a 1,1 0 0 0 0,2 h 7 a 1,1 0 0 0 0,-2 z"
         id="path20"
         style="fill:#244484;fill-opacity:1" />
      <path
         d="M 3,38 H 6 A 1,1 0 0 0 6,36 H 3 a 1,1 0 0 0 0,2 z"
         id="path22"
         style="fill:#244484;fill-opacity:1" />
      <path
         d="m 52,29 a 1,1 0 0 0 0,2 h 5 a 1,1 0 0 0 0,-2 z"
         id="path24"
         style="fill:#244484;fill-opacity:1" />
      <path
         d="m 42,54 h -8 a 1,1 0 0 0 0,2 h 8 a 1,1 0 0 0 0,-2 z"
         id="path26"
         style="fill:#244484;fill-opacity:1" />
      <path
         d="m 38,58 h -6 a 1,1 0 0 0 0,2 h 6 a 1,1 0 0 0 0,-2 z"
         id="path28"
         style="fill:#244484;fill-opacity:1" />
      <path
         d="m 58,43 h -8 a 1,1 0 0 0 0,2 h 8 a 1,1 0 0 0 0,-2 z"
         id="path30"
         style="fill:#244484;fill-opacity:1" />
      <path
         d="m 56,49 h -8 a 1,1 0 0 0 0,2 h 8 a 1,1 0 0 0 0,-2 z"
         id="path32"
         style="fill:#244484;fill-opacity:1" />
      <path
         d="m 61,37 h -7 a 1,1 0 0 0 0,2 h 7 a 1,1 0 0 0 0,-2 z"
         id="path34"
         style="fill:#244484;fill-opacity:1" />
      <path
         d="m 42.94,16 -0.62,0.62 a 1,1 0 0 0 0,1.42 1,1 0 0 0 1.41,0 l 1,-1 a 1,1 0 0 0 0.26,-1 7,7 0 0 1 1.81,-6.76 l 2.12,-2.12 a 4,4 0 0 1 4.86,-0.62 l -4.15,4.16 a 4,4 0 0 0 5.65,5.65 l 4.16,-4.15 a 4,4 0 0 1 -0.62,4.86 L 56.7,19.18 A 7,7 0 0 1 50,21 1,1 0 0 0 49,21.26 l -1,1 a 1.0005623,1.0005623 0 1 0 1.42,1.41 l 0.62,-0.62 a 9,9 0 0 0 8.11,-2.45 l 2.12,-2.12 a 6,6 0 0 0 0,-8.49 1,1 0 0 0 -1.41,0 L 53.88,15 a 2.0011122,2.0011122 0 0 1 -2.83,-2.83 l 5,-4.95 a 1,1 0 0 0 0.29,-0.71 1,1 0 0 0 -0.29,-0.7 6,6 0 0 0 -8.49,0 L 45.39,7.88 A 9,9 0 0 0 42.94,16 Z"
         id="path36"
         style="fill:#244484;fill-opacity:1" />
    </g>
  </g>
</svg>
