<?xml version="1.0" encoding="UTF-8" standalone="no"?>
<svg
   xmlns:dc="http://purl.org/dc/elements/1.1/"
   xmlns:cc="http://creativecommons.org/ns#"
   xmlns:rdf="http://www.w3.org/1999/02/22-rdf-syntax-ns#"
   xmlns:svg="http://www.w3.org/2000/svg"
   xmlns="http://www.w3.org/2000/svg"
   xmlns:sodipodi="http://sodipodi.sourceforge.net/DTD/sodipodi-0.dtd"
   xmlns:inkscape="http://www.inkscape.org/namespaces/inkscape"
   height="480pt"
   viewBox="0 0 480 480.00297"
   width="480pt"
   version="1.1"
   id="svg18"
   sodipodi:docname="online.svg"
   inkscape:version="1.0.1 (0767f8302a, 2020-10-17)">
  <metadata
     id="metadata24">
    <rdf:RDF>
      <cc:Work
         rdf:about="">
        <dc:format>image/svg+xml</dc:format>
        <dc:type
           rdf:resource="http://purl.org/dc/dcmitype/StillImage" />
      </cc:Work>
    </rdf:RDF>
  </metadata>
  <defs
     id="defs22" />
  <sodipodi:namedview
     pagecolor="#ffffff"
     bordercolor="#666666"
     borderopacity="1"
     objecttolerance="10"
     gridtolerance="10"
     guidetolerance="10"
     inkscape:pageopacity="0"
     inkscape:pageshadow="2"
     inkscape:window-width="2192"
     inkscape:window-height="1376"
     id="namedview20"
     showgrid="false"
     inkscape:zoom="1.45625"
     inkscape:cx="171.45717"
     inkscape:cy="254.02182"
     inkscape:window-x="3168"
     inkscape:window-y="27"
     inkscape:window-maximized="0"
     inkscape:current-layer="svg18" />
  <path
     d="m273.394531 304.003906c-22.457031-.332031-40.957031 17.546875-41.394531 40v.296875c-21.476562 1.179688-40.5 14.242188-49.320312 33.863281-4.28125-1.429687-8.769532-2.15625-13.285157-2.160156-22.457031-.332031-40.957031 17.546875-41.394531 40 .039062 3.410156.527344 6.804688 1.457031 10.085938.945313 3.488281 4.105469 5.910156 7.71875 5.914062h189.648438c3.613281-.003906 6.777343-2.425781 7.722656-5.914062.929687-3.28125 1.417969-6.675782 1.453125-10.085938-.1875-11.804687-5.488281-22.941406-14.527344-30.53125-9.039062-7.59375-20.925781-10.890625-32.582031-9.039062-3.007813-6.179688-7.132813-11.753906-12.167969-16.429688h154.101563c3.613281-.003906 6.777343-2.425781 7.722656-5.914062.929687-3.28125 1.417969-6.675782 1.453125-10.085938-.195312-11.800781-5.496094-22.9375-14.53125-30.527344-9.039062-7.589843-20.921875-10.886718-32.578125-9.042968-10.183594-20.195313-31.019531-32.789063-53.636719-32.421875-22.613281.367187-43.027344 13.636719-52.546875 34.152343-4.292969-1.429687-8.789062-2.160156-13.3125-2.160156zm13.085938 89.40625c2.621093-.890625 5.363281-1.363281 8.128906-1.40625 13.628906-.359375 24.984375 10.371094 25.390625 24h-176c.410156-13.628906 11.765625-24.359375 25.394531-24 4.886719 0 9.675781 1.367188 13.832031 3.941406 2.179688 1.355469 4.882813 1.582032 7.257813.605469 2.378906-.976562 4.140625-3.035156 4.742187-5.53125 5.0625-17.839843 21.066407-30.367187 39.601563-30.996093 18.53125-.632813 35.351563 10.78125 41.613281 28.234374 1.359375 4.1875 5.847656 6.492188 10.039063 5.152344zm8-68.878906c2.367187-.976562 4.125-3.023438 4.730469-5.511719 5.0625-17.839843 21.066406-30.367187 39.601562-30.996093 18.53125-.632813 35.351562 10.78125 41.613281 28.234374 1.359375 4.199219 5.863281 6.507813 10.0625 5.152344 2.617188-.886718 5.359375-1.363281 8.121094-1.40625 13.628906-.359375 24.984375 10.371094 25.390625 24h-176c.410156-13.628906 11.765625-24.359375 25.394531-24 4.886719 0 9.675781 1.367188 13.832031 3.941406 2.183594 1.347657 4.875 1.5625 7.246094.585938zm0 0"
     id="path2"
     style="fill:#244484;fill-opacity:1" />
  <path
     d="m472 192.003906h-176c-2.121094 0-4.15625.84375-5.65625 2.34375l-61.652344 61.65625h-124.691406c-4.417969 0-8 3.582032-8 8v48h-24c-4.417969 0-8 3.582032-8 8v32h-8c-4.417969 0-8-3.582031-8-8v-120c0-4.417968 3.582031-8 8-8h96c13.257812 0 24-10.746094 24-24v-24h48c4.417969 0 8-3.582031 8-8v-24h96c4.417969 0 8-3.582031 8-8v-16c0-32.449218-26.910156-56-64-56-5.300781-.074218-10.59375.460938-15.773438 1.597656-14.425781-35.246093-45.152343-57.59765575-80.226562-57.59765575-38.457031-.30859425-73.144531 23.07812475-87.277344 58.84765575-8.039062-2.242187-16.382812-3.203124-24.722656-2.847656-37.085938 0-64 23.550782-64 56v16c0 4.417969 3.582031 8 8 8h96v24c0 4.417969 3.582031 8 8 8h48v24c0 4.417969-3.582031 8-8 8h-96c-13.253906 0-24 10.746094-24 24v120c0 13.253906 10.746094 24 24 24h8v32c0 4.417969 3.582031 8 8 8h24v64c0 4.417969 3.582031 8 8 8h368c4.417969 0 8-3.582031 8-8v-272c0-4.417968-3.582031-8-8-8zm-456-80c0-27.488281 24.882812-40 48-40 8.773438-.820312 17.601562.804688 25.503906 4.695313 2.183594 1.355469 4.882813 1.582031 7.257813.605469 2.378906-.972657 4.140625-3.027344 4.742187-5.527344 9.234375-33.386719 39.859375-56.316406 74.496094-55.773438 37.128906 0 59.777344 29.335938 67.890625 54.453125.761719 2.378907 2.59375 4.265625 4.945313 5.097657 2.355468.835937 4.964843.519531 7.054687-.847657 5.089844-2.132812 10.605469-3.058593 16.109375-2.703125 23.121094 0 48 12.511719 48 40v8h-273.078125c-1.058594-4.90625-.007813-10.035156 2.894531-14.128906 3.636719-2.363281 8.085938-3.121094 12.296875-2.097656l3.832031-15.535156c-9.484374-2.429688-19.558593-.195313-27.128906 6.015624-6.410156 6.933594-9.324218 16.40625-7.917968 25.746094h-14.898438zm104 24h96v16h-96zm-40 256v-64h16v64zm384 72h-352v-192h120c2.121094 0 4.15625-.84375 5.65625-2.34375l61.65625-61.65625h164.6875zm0 0"
     id="path4"
     style="fill:#244484;fill-opacity:1" />
  <path
     d="m128 288.003906h16v16h-16zm0 0"
     id="path6"
     style="fill:#244484;fill-opacity:1" />
  <path
     d="m160 288.003906h16v16h-16zm0 0"
     id="path8"
     style="fill:#244484;fill-opacity:1" />
  <path
     d="m192 288.003906h16v16h-16zm0 0"
     id="path10"
     style="fill:#244484;fill-opacity:1" />
  <path
     d="m145.25 55.203125c8.632812-5.878906 19.09375-8.457031 29.472656-7.273437l2.597656-15.78125c-14.554687-1.910157-29.300781 1.660156-41.375 10.015624-13.78125 10.96875-22.417968 27.148438-23.863281 44.703126l15.839844 2.273437c.9375-13.195313 7.191406-25.441406 17.328125-33.9375zm0 0"
     id="path12"
     style="fill:#244484;fill-opacity:1" />
  <path
     d="m208 56.003906h16v16h-16zm0 0"
     id="path14"
     style="fill:#244484;fill-opacity:1" />
  <path
     d="m192 72.003906h16v16h-16zm0 0"
     id="path16"
     style="fill:#244484;fill-opacity:1" />
  <path
     style="fill:#bddbff;fill-opacity:1;fill-rule:evenodd;stroke:#244583;stroke-width:4.12017"
     d="m 331.33047,455.944 c 0,-1.14496 0.64207,-4.00333 1.42681,-6.35193 4.50923,-13.49528 17.00038,-22.49973 31.14418,-22.45082 6.39531,0.0221 9.79773,0.86046 17.08845,4.21049 5.35251,2.45944 6.42395,2.72647 9.24326,2.30369 4.53736,-0.68042 7.60392,-3.9847 9.97922,-10.75286 6.05085,-17.24114 18.6634,-29.69349 36.18246,-35.72288 6.22778,-2.14337 6.9907,-2.24561 16.82403,-2.25462 11.79392,-0.0108 15.80945,0.81993 24.7744,5.1254 12.1692,5.84434 20.65105,14.56695 27.11352,27.88319 2.71302,5.59032 4.65738,8.72595 5.92645,9.55747 2.6505,1.73667 7.38079,2.017 12.32767,0.73056 11.00853,-2.86277 23.11927,0.11668 31.41044,7.7275 4.64272,4.26174 10.03551,15.24139 10.03551,20.43216 v 1.6444 h -116.7382 -116.7382 z"
     id="path853"
     transform="matrix(0.75000464,0,0,0.75000464,-0.001485,0)" />
  <path
     style="fill:#bddbff;fill-opacity:1;fill-rule:evenodd;stroke:#244583;stroke-width:4.12017"
     d="m 192.61803,552.08134 c 0,-2.98447 2.51339,-10.08804 4.88851,-13.81635 2.27593,-3.5726 7.26503,-8.45617 10.90548,-10.67481 9.3126,-5.67549 24.12049,-5.79817 33.99141,-0.28161 4.24856,2.37438 6.8537,2.91007 10.34251,2.1267 3.52,-0.79038 6.63578,-4.20212 8.20251,-8.98165 5.4863,-16.73677 18.06888,-30.19086 33.88799,-36.23519 7.51658,-2.87201 13.60289,-3.76287 23.15695,-3.3895 6.81697,0.26641 9.23799,0.67732 14.4687,2.45572 16.3189,5.54828 28.96758,17.49725 35.22897,33.28015 1.83209,4.61808 5.10446,7.79991 8.71933,8.47807 1.57871,0.29616 4.36751,0.0467 7.39666,-0.66163 13.38043,-3.12888 25.47755,0.24415 33.93014,9.46069 3.64194,3.9711 7.4566,11.86821 8.07459,16.71601 l 0.45957,3.60515 H 309.44469 192.61803 Z"
     id="path855"
     transform="matrix(0.75000464,0,0,0.75000464,-0.001485,0)" />
  <path
     style="fill:#bddbff;fill-opacity:1;fill-rule:evenodd;stroke:#244583;stroke-width:4.12017"
     d="m 21.692212,152.02084 c 0,-16.35281 4.238822,-27.48443 14.220437,-37.34445 13.097282,-12.93772 31.226003,-18.827452 55.822481,-18.13582 12.20593,0.343217 15.41425,0.999417 25.40052,5.19521 6.03069,2.53383 10.29,2.78966 13.53213,0.81281 2.97298,-1.81274 3.90791,-3.417366 6.35331,-10.904253 5.02727,-15.391585 12.82706,-27.991551 24.75506,-39.989904 17.25591,-17.357692 37.9935,-27.144556 62.53197,-29.511225 25.77569,-2.485997 48.67213,4.851395 68.20153,21.855856 12.82174,11.16402 24.3867,28.477775 31.06174,46.502145 4.01361,10.837821 8.58189,13.196041 18.17827,9.383959 6.65559,-2.64388 11.67756,-3.547049 19.72303,-3.547049 22.9599,0 44.19077,8.872181 54.83291,22.914151 6.91432,9.12323 9.85013,18.65639 9.85013,31.98536 v 8.27645 H 244.57939 63.003052 l -0.466382,-2.12342 c -0.658112,-2.99636 0.182712,-7.91402 2.065789,-12.08201 2.203768,-4.8778 5.502337,-6.60859 13.047533,-6.84616 l 5.485677,-0.17271 2.546052,-10.16038 c 1.64929,-6.58173 2.310984,-10.39636 1.878656,-10.83038 -0.367067,-0.3685 -3.826839,-0.78329 -7.688381,-0.92175 -8.620642,-0.30912 -14.535205,0.94117 -21.363798,4.51613 -6.035193,3.15959 -9.760311,6.89553 -12.950322,12.98795 -3.568476,6.81523 -4.870343,11.90638 -4.930086,19.27983 l -0.05146,6.35096 -9.44206,9.7e-4 -9.44206,9.7e-4 z M 170.97497,117.91286 c 0.22925,-0.59742 0.41681,-1.93855 0.41681,-2.98028 0,-3.4839 2.7328,-12.69911 5.45431,-18.392387 6.26276,-13.101403 14.08016,-21.680024 24.20548,-26.562496 8.67033,-4.180872 13.10186,-5.263053 23.3973,-5.71364 8.21111,-0.359365 8.78584,-0.475513 9.09099,-1.837181 1.19892,-5.350042 3.08759,-18.661515 2.76647,-19.49833 -0.32946,-0.858548 -2.15446,-0.960518 -11.87937,-0.663745 -9.45584,0.288562 -12.70587,0.671337 -18.35707,2.16202 -9.11547,2.404497 -22.0113,8.805982 -27.5903,13.695816 -13.13588,11.513215 -22.25627,26.06791 -26.7054,42.617573 -2.17846,8.10336 -2.93655,15.49161 -1.5969,15.56325 0.52634,0.0282 4.51063,0.61023 8.85398,1.29349 10.22061,1.60785 11.4356,1.63998 11.9437,0.31591 z M 277.82955,106.9819 V 96.338119 h 10.64378 10.64377 V 85.350994 74.36387 H 288.12998 277.14286 V 85.007647 95.651424 H 266.49908 255.8553 v 10.987126 10.98712 h 10.98713 10.98712 z"
     id="path857"
     transform="matrix(0.75000464,0,0,0.75000464,-0.001485,0)" />
</svg>
