<?xml version="1.0" encoding="UTF-8" standalone="no"?>
<svg
   xmlns:dc="http://purl.org/dc/elements/1.1/"
   xmlns:cc="http://creativecommons.org/ns#"
   xmlns:rdf="http://www.w3.org/1999/02/22-rdf-syntax-ns#"
   xmlns:svg="http://www.w3.org/2000/svg"
   xmlns="http://www.w3.org/2000/svg"
   xmlns:sodipodi="http://sodipodi.sourceforge.net/DTD/sodipodi-0.dtd"
   xmlns:inkscape="http://www.inkscape.org/namespaces/inkscape"
   height="496pt"
   viewBox="0 0 496 496"
   width="496pt"
   version="1.1"
   id="svg36"
   sodipodi:docname="data.svg"
   inkscape:version="1.0.1 (0767f8302a, 2020-10-17)">
  <metadata
     id="metadata42">
    <rdf:RDF>
      <cc:Work
         rdf:about="">
        <dc:format>image/svg+xml</dc:format>
        <dc:type
           rdf:resource="http://purl.org/dc/dcmitype/StillImage" />
      </cc:Work>
    </rdf:RDF>
  </metadata>
  <defs
     id="defs40" />
  <sodipodi:namedview
     pagecolor="#ffffff"
     bordercolor="#666666"
     borderopacity="1"
     objecttolerance="10"
     gridtolerance="10"
     guidetolerance="10"
     inkscape:pageopacity="0"
     inkscape:pageshadow="2"
     inkscape:window-width="2192"
     inkscape:window-height="1376"
     id="namedview38"
     showgrid="false"
     inkscape:zoom="0.7046371"
     inkscape:cx="692.58422"
     inkscape:cy="348.60712"
     inkscape:window-x="3168"
     inkscape:window-y="27"
     inkscape:window-maximized="0"
     inkscape:current-layer="svg36"
     inkscape:document-rotation="0" />
  <g
     fill="#f0bc5e"
     id="g8">
    <path
       d="m192 32h144v40h-144zm0 0"
       id="path4"
       style="fill:#bddbff;fill-opacity:1" />
    <path
       d="m336 104h-48v64h48v96h64v-160zm0 0"
       id="path6"
       style="fill:#bddbff;fill-opacity:1" />
  </g>
  <path
     d="m176 368h16v16h-16zm0 0"
     id="path10"
     style="fill-opacity:1;fill:#244484" />
  <path
     d="m144 368h16v16h-16zm0 0"
     id="path12"
     style="fill-opacity:1;fill:#244484" />
  <path
     d="m112 368h16v16h-16zm0 0"
     id="path14"
     style="fill-opacity:1;fill:#244484" />
  <path
     d="m432 81.800781v-13.113281l-68.6875-68.6875h-115.3125c-43.550781 0-86.105469 11.503906-123.585938 33.105469l-4.8125-4.816407c-7.921874-7.929687-18.449218-12.289062-29.664062-12.289062-23.121094 0-41.9375 18.816406-41.9375 41.945312 0 10.839844 4.167969 21.015626 11.617188 28.847657-38.464844 44.910156-59.617188 101.839843-59.617188 161.207031 0 136.742188 111.246094 248 248 248s248-111.257812 248-248c0-61.671875-22.734375-120.542969-64-166.199219zm48 166.199219c0 37.382812-8.945312 72.695312-24.710938 104h-236.863281l-24-16h-98.425781v-168c0-12.199219 9.183594-22.191406 20.984375-23.695312l43.015625 43.015624v132.679688h272v-213.320312c31.078125 40.398437 48 89.824218 48 141.320312zm-72.257812 168c-12.101563 11.511719-25.390626 21.777344-39.742188 30.488281v-30.488281zm-167.207032-16v16h111.464844v32h-128v-48h-104c-13.230469 0-24-10.769531-24-24v-24h93.574219l24 16h232.90625c-6.886719 11.351562-14.769531 22.023438-23.441407 32zm52.152344-176-36.6875 36.6875-148.6875-148.6875 36.6875-36.6875zm9.878906 46.566406-29.597656-4.230468 25.375-25.375zm65.433594-243.253906 36.6875 36.6875h-36.6875zm-16-11.3125v64h64v224h-240v-100.679688l76.222656 76.222657 69.203125 9.890625-9.890625-69.203125-135.535156-135.542969v-57.144531c23.113281-7.535157 47.375-11.542969 72-11.542969zm-192 17.414062v35.28125l-23.847656-23.847656c7.742187-4.28125 15.695312-8.09375 23.847656-11.433594zm-70.0625-1.414062c6.933594 0 13.445312 2.695312 18.34375 7.601562l24.40625 24.398438-36.6875 36.6875-24.398438-24.398438c-4.90625-4.90625-7.601562-11.425781-7.601562-18.34375 0-14.304687 11.632812-25.945312 25.9375-25.945312zm-73.9375 216c0-55.089844 19.457031-107.9375 54.894531-149.792969l33.152344 33.152344c-14.125 6.183594-24.046875 20.265625-24.046875 36.640625v208c0 22.054688 17.945312 40 40 40h88v32h-32v16h156.496094c-26.207032 10.289062-54.6875 16-84.496094 16-127.921875 0-232-104.070312-232-232zm0 0"
     id="path16"
     style="stroke:none;stroke-opacity:1;fill:#244484;fill-opacity:1" />
  <path
     d="m192 32h16v16h-16zm0 0"
     id="path18"
     style="fill:#244484;fill-opacity:1" />
  <path
     d="m224 32h112v16h-112zm0 0"
     id="path20"
     style="fill:#244484;fill-opacity:1" />
  <path
     d="m192 64h144v16h-144zm0 0"
     id="path22"
     style="fill:#244484;fill-opacity:1" />
  <path
     d="m288 96h112v16h-112zm0 0"
     id="path24"
     style="fill:#244484;fill-opacity:1" />
  <path
     d="m288 128h112v16h-112zm0 0"
     id="path26"
     style="fill:#244484;fill-opacity:1" />
  <path
     d="m288 160h112v16h-112zm0 0"
     id="path28"
     style="fill:#244484;fill-opacity:1" />
  <path
     d="m336 192h64v16h-64zm0 0"
     id="path30"
     style="fill:#244484;fill-opacity:1" />
  <path
     d="m336 224h64v16h-64zm0 0"
     id="path32"
     style="fill:#244484;fill-opacity:1" />
  <path
     d="m336 256h64v16h-64zm0 0"
     id="path34"
     style="fill:#244484;fill-opacity:1" />
  <path
     style="fill:#bddbff;fill-opacity:1;fill-rule:evenodd;stroke-width:4.25751"
     d="m 298.95961,564.91479 v -31.93133 h -71.16422 c -77.60511,0 -75.3137,0.11192 -82.96505,-4.05247 -5.33429,-2.90328 -10.3532,-8.35317 -13.25823,-14.39675 l -2.55814,-5.32188 -0.2185,-19.69099 -0.21851,-19.69099 h 62.14135 62.14135 l 15.94258,10.64378 15.94258,10.64377 h 154.70111 c 85.08559,0 154.70109,0.22615 154.70109,0.50255 0,1.88215 -20.30132,29.80566 -28.18433,38.76623 l -2.28448,2.59675 H 441.96269 320.24716 v 10.99857 10.99857 h 74.50644 74.50644 v 20.93276 20.93276 H 384.10982 298.95961 Z M 171.23429,501.40692 v -10.99857 h -10.99857 -10.99857 v 10.99857 10.99857 h 10.99857 10.99857 z m 42.5751,0 v -10.99857 h -10.99856 -10.99857 v 10.99857 10.99857 h 10.99857 10.99856 z m 42.57511,0 v -10.99857 h -10.99857 -10.99857 v 10.99857 10.99857 h 10.99857 10.99857 z"
     id="path850"
     transform="scale(0.75000002)" />
  <path
     style="fill:#bddbff;fill-opacity:1;fill-rule:evenodd;stroke-width:2.12876"
     d="m 242.20093,248.20953 -98.89855,-98.89903 24.30402,-24.30208 24.30403,-24.30209 98.98639,98.98592 98.98639,98.98592 -24.21326,24.2152 c -13.31729,13.31835 -24.29362,24.21519 -24.39186,24.21519 -0.0982,0 -44.68295,-44.50457 -99.07716,-98.89903 z"
     id="path852"
     transform="scale(0.75000002)" />
</svg>
