<svg xmlns="http://www.w3.org/2000/svg" viewBox="0 0 165 165"><g id="Layer_2" data-name="Layer 2"><g id="Layer_1-2" data-name="Layer 1"><circle cx="82.5" cy="82.5" r="72.21" style="fill:#e9ecef"/><path d="M82.5,10.28A72,72,0,0,0,25.61,38.12a72.15,72.15,0,0,1,107,96.3A72.16,72.16,0,0,0,82.5,10.28Z" style="fill:#c7cfd6"/><path d="M82.5,20.57a1.2,1.2,0,0,1-1.2-1.2V1.2a1.2,1.2,0,1,1,2.4,0V19.37A1.2,1.2,0,0,1,82.5,20.57Z" style="fill:#22417d"/><path d="M82.5,165a1.2,1.2,0,0,1-1.2-1.2V145.63a1.2,1.2,0,0,1,2.4,0V163.8A1.2,1.2,0,0,1,82.5,165Z" style="fill:#22417d"/><path d="M163.8,83.7H145.63a1.2,1.2,0,1,1,0-2.4H163.8a1.2,1.2,0,0,1,0,2.4Z" style="fill:#22417d"/><path d="M19.37,83.7H1.2a1.2,1.2,0,1,1,0-2.4H19.37a1.2,1.2,0,0,1,0,2.4Z" style="fill:#22417d"/><path d="M82.5,155.91A73.41,73.41,0,1,1,155.91,82.5h0A73.48,73.48,0,0,1,82.5,155.91Zm0-144.43a71,71,0,1,0,71,71h0a71.09,71.09,0,0,0-71-71Z" style="fill:#22417d"/><ellipse cx="61.54" cy="54" rx="4.93" ry="4.47" transform="translate(-20.33 52.96) rotate(-40.54)" style="fill:#eeefee"/><path d="M117.27,155a1.2,1.2,0,0,1-.47-2.3,78.13,78.13,0,0,0,24.67-19,1.19,1.19,0,1,1,1.8,1.57h0a79.41,79.41,0,0,1-25.52,19.64A1.29,1.29,0,0,1,117.27,155Z" style="fill:#22417d"/><path d="M102.08,160.54a1.19,1.19,0,0,1-1.2-1.19,1.21,1.21,0,0,1,.9-1.17,75.9,75.9,0,0,0,9-2.8,1.2,1.2,0,0,1,.87,2.23,78.79,78.79,0,0,1-9.26,2.89A.92.92,0,0,1,102.08,160.54Z" style="fill:#22417d"/><path d="M7.34,58.18A1.2,1.2,0,0,1,6.14,57a1.34,1.34,0,0,1,.07-.39A81,81,0,0,1,28.89,22.42a1.2,1.2,0,1,1,1.59,1.79,78.55,78.55,0,0,0-22,33.16A1.2,1.2,0,0,1,7.34,58.18Z" style="fill:#22417d"/><path d="M38.26,17.82a1.2,1.2,0,0,1-.67-2.19c1.77-1.19,3.75-2.39,6.07-3.67A1.2,1.2,0,0,1,44.84,14h0c-2.26,1.25-4.19,2.42-5.89,3.56a1.16,1.16,0,0,1-.67.21Z" style="fill:#22417d"/><path d="M57.81,141.17a1.72,1.72,0,0,1-.68-.14A63.77,63.77,0,0,1,50,137.35a1.67,1.67,0,0,1,1.72-2.87A60.45,60.45,0,0,0,58.48,138a1.67,1.67,0,0,1-.67,3.21Z" style="fill:#fff"/><path d="M45.31,133.79a1.69,1.69,0,0,1-1-.34A63,63,0,0,1,24.06,107a1.68,1.68,0,0,1,3.11-1.26,59.56,59.56,0,0,0,19.16,25,1.67,1.67,0,0,1,.31,2.34,1.65,1.65,0,0,1-1.33.66Z" style="fill:#fff"/><path d="M61.8,76.7A5.34,5.34,0,0,0,56.46,82v27.33a11.28,11.28,0,0,0,11.28,11.28H96.25a11.29,11.29,0,0,0,11.29-11.28V82a5.35,5.35,0,0,0-5.35-5.34Z" style="fill:#bddbff"/><path d="M102.88,76.7H98.35c2.57,0,4.65,2.39,4.65,5.34v27.33c0,6.23-4.4,11.28-9.83,11.28h4.54c5.42,0,9.82-5.05,9.83-11.28V82C107.54,79.09,105.45,76.7,102.88,76.7Z" style="fill:#69b0ee"/><path d="M96.31,122.44H67.8a13.09,13.09,0,0,1-13.07-13.07V82.05a7.16,7.16,0,0,1,7.13-7.14h40.39a7.16,7.16,0,0,1,7.13,7.14v27.32A13.09,13.09,0,0,1,96.31,122.44ZM61.86,77.3a4.76,4.76,0,0,0-4.75,4.75v27.32A10.72,10.72,0,0,0,67.8,120.06H96.31A10.73,10.73,0,0,0,107,109.37V82.05a4.77,4.77,0,0,0-4.75-4.75Z" style="fill:#22417d"/><path d="M99.28,77.3a1.19,1.19,0,0,1-1.19-1.19V63.63a16,16,0,0,0-32.07,0V76.11a1.19,1.19,0,0,1-2.38,0V63.63a18.42,18.42,0,1,1,36.83,0V76.11A1.19,1.19,0,0,1,99.28,77.3Z" style="fill:#22417d"/><path d="M85.57,99v9.18a1.44,1.44,0,0,1-1.42,1.45H80a1.44,1.44,0,0,1-1.42-1.45V99A6.25,6.25,0,0,1,76,94a6.07,6.07,0,1,1,12.13,0A6.23,6.23,0,0,1,85.57,99Z" style="fill:#e9ecef"/><path d="M84.15,110.67H80a2.44,2.44,0,0,1-2.42-2.45V99.53A7.3,7.3,0,0,1,75,94a7.07,7.07,0,1,1,14.13,0,7.3,7.3,0,0,1-2.56,5.55v8.69A2.44,2.44,0,0,1,84.15,110.67Zm-2.08-21.9A5.15,5.15,0,0,0,77,94a5.26,5.26,0,0,0,2.15,4.25l.41.3v9.69a.44.44,0,0,0,.42.45h4.17a.44.44,0,0,0,.42-.45V98.53l.41-.3A5.24,5.24,0,0,0,87.13,94,5.14,5.14,0,0,0,82.07,88.77Z" style="fill:#22417d"/></g></g></svg>