<?xml version="1.0" encoding="UTF-8" standalone="no"?>
<svg
   xmlns:dc="http://purl.org/dc/elements/1.1/"
   xmlns:cc="http://creativecommons.org/ns#"
   xmlns:rdf="http://www.w3.org/1999/02/22-rdf-syntax-ns#"
   xmlns:svg="http://www.w3.org/2000/svg"
   xmlns="http://www.w3.org/2000/svg"
   xmlns:sodipodi="http://sodipodi.sourceforge.net/DTD/sodipodi-0.dtd"
   xmlns:inkscape="http://www.inkscape.org/namespaces/inkscape"
   viewBox="0 0 512 512"
   width="512"
   height="512"
   version="1.1"
   id="svg5"
   sodipodi:docname="transaction.svg"
   inkscape:version="1.0.1 (0767f8302a, 2020-10-17)">
  <metadata
     id="metadata11">
    <rdf:RDF>
      <cc:Work
         rdf:about="">
        <dc:format>image/svg+xml</dc:format>
        <dc:type
           rdf:resource="http://purl.org/dc/dcmitype/StillImage" />
        <dc:title></dc:title>
      </cc:Work>
    </rdf:RDF>
  </metadata>
  <defs
     id="defs9" />
  <sodipodi:namedview
     pagecolor="#ffffff"
     bordercolor="#666666"
     borderopacity="1"
     objecttolerance="10"
     gridtolerance="10"
     guidetolerance="10"
     inkscape:pageopacity="0"
     inkscape:pageshadow="2"
     inkscape:window-width="1992"
     inkscape:window-height="1376"
     id="namedview7"
     showgrid="false"
     inkscape:zoom="0.91015625"
     inkscape:cx="88.51063"
     inkscape:cy="335.72612"
     inkscape:window-x="3368"
     inkscape:window-y="27"
     inkscape:window-maximized="0"
     inkscape:current-layer="Outline" />
  <g
     id="Outline">
    <path
       d="M416,304h16V424a40,40,0,0,1-5.357,20.007l-13.85-8.014A23.956,23.956,0,0,0,416,424Zm16-120V72a56.063,56.063,0,0,0-56-56H152a39.955,39.955,0,0,0-26.457,10l10.586,12A23.969,23.969,0,0,1,152,32H376a40.045,40.045,0,0,1,40,40V184Zm-48-8V144H336a40.045,40.045,0,0,1-40-40V64H120A24.028,24.028,0,0,0,96,88V304H80V88a40.045,40.045,0,0,1,40-40H304a8.006,8.006,0,0,1,5.382,2.08l88,80A8,8,0,0,1,400,136v40Zm-12.693-48L312,74.084V104a24.028,24.028,0,0,0,24,24ZM384,456a24.028,24.028,0,0,1-24,24H120a24.028,24.028,0,0,1-24-24V416H80v40a40.045,40.045,0,0,0,40,40H360a40.045,40.045,0,0,0,40-40V296H384ZM152,216v16h40V216Zm-16,0H120v16h16Zm16,48h48V248H152Zm-16-16H120v16h16Zm16,48h56V280H152Zm-32,0h16V280H120Zm176,32h16V312H296Zm72-16H328v16h40Zm-72,48h16V344H296Zm32,0h40V344H328Zm0,32h40V376H328Zm-32,16v16h16V408Zm32,16h40V408H328ZM216,184H120v16h96Zm48,272H368V440H264Zm-144,0h88V440H120Zm96-288h32V152H216Zm72-48H216v16h72ZM124,168a4,4,0,0,1-4-4V112a8,8,0,0,1,4.422-7.155l32-16a8,8,0,0,1,7.156,0l32,16A8,8,0,0,1,200,112v52a4,4,0,0,1-4,4Zm60-32H168v16h16Zm-48-16h48v-3.056l-24-12-24,12Zm0,32h16V136H136ZM480,312c0,7.074-8.805,10.51-13.657,5.657A127.724,127.724,0,0,0,375.432,280H288v24a8,8,0,0,1-13.979,5.314l-64-72a8,8,0,0,1,0-10.628l64-72A8,8,0,0,1,288,160v24h64A128.146,128.146,0,0,1,480,312Zm-17.6-18.952A112.18,112.18,0,0,0,352,200H280a8,8,0,0,1-8-8V181.042L226.7,232,272,282.958V272a8,8,0,0,1,8-8h95.432A143.472,143.472,0,0,1,462.4,293.048ZM160,424A128.146,128.146,0,0,1,32,296a8,8,0,0,1,13.657-5.657A127.724,127.724,0,0,0,136.568,328H224V304a8,8,0,0,1,13.979-5.314l64,72a8,8,0,0,1,0,10.628l-64,72A8,8,0,0,1,224,448V424Zm0-16h72a8,8,0,0,1,8,8v10.958L285.3,376,240,325.042V336a8,8,0,0,1-8,8H136.568A143.472,143.472,0,0,1,49.6,314.952,112.18,112.18,0,0,0,160,408Z"
       id="path2"
       style="fill:#244484;fill-opacity:1" />
    <path
       style="fill:#bddbff;fill-opacity:1;fill-rule:evenodd;stroke-width:0.388065;stroke-miterlimit:2"
       d="m 50.872832,316.21893 c -2.410948,0.25233 -1.183617,3.19721 -0.87478,4.65138 4.185694,17.91177 12.60149,34.9537 24.820684,48.74474 7.687726,8.43074 16.08515,16.33672 25.950644,22.17705 14.61391,9.10786 31.37423,14.84587 48.52194,16.44232 25.80623,0.65995 51.6296,0.40174 77.44276,0.65564 3.40091,0.26548 7.35013,-0.91317 10.00769,1.77694 3.57809,3.03923 2.17,8.25136 2.66495,12.33284 -0.20278,2.56529 3.3361,1.85683 4.33252,0.37763 11.32346,-11.76676 21.90573,-24.23207 32.76005,-36.431 2.87724,-3.59348 6.40546,-6.80941 8.71875,-10.78507 -0.68019,-2.54185 -3.19141,-4.26854 -4.66051,-6.40712 -11.97648,-13.72414 -23.92027,-27.49543 -36.41239,-40.75356 -1.04835,-1.31978 -3.75193,-3.07839 -4.80863,-0.99693 -0.35182,4.30546 1.08475,9.73551 -2.40051,13.10879 -2.20405,2.59714 -5.83087,1.41632 -8.80602,1.74294 -34.60976,0.23067 -69.28494,0.35073 -103.85613,-0.18609 -24.958675,-2.07927 -49.409024,-10.93153 -70.009637,-25.20396 -1.047543,-0.57121 -2.161788,-1.23956 -3.391381,-1.24654 z"
       id="path848" />
    <path
       style="fill:#bddbff;fill-opacity:1;fill-rule:evenodd;stroke-width:0.388065;stroke-miterlimit:2"
       d="m 271.69272,182.9422 c -3.23868,0.0906 -4.83184,3.58421 -7.05392,5.44492 -12.30505,13.66378 -24.70831,27.2585 -36.48853,41.37966 -1.04416,1.0297 -1.80389,2.67967 -0.47571,3.84053 10.77783,13.20485 22.40878,25.69435 33.70325,38.45684 2.96585,2.91053 5.35747,6.64079 8.93484,8.81689 2.7859,0.9099 2.59853,-2.20605 2.50431,-4.03002 0.28491,-3.62556 -0.6648,-8.62628 3.22917,-10.76763 2.33441,-2.12455 5.76153,-0.6755 8.61956,-1.08763 35.2383,0.11844 70.48953,0.0762 105.71977,0.29525 17.52858,2.34088 34.90206,7.01853 50.59924,15.33376 5.50763,2.70696 10.72972,5.99305 15.93737,9.20967 -1.02608,-0.29535 1.32542,1.03716 1.98248,1.25564 1.41713,0.87119 3.86706,0.14685 3.43766,-1.83453 -4.5181,-23.32732 -17.16793,-44.82269 -34.75033,-60.72495 -12.74264,-11.74751 -28.45795,-20.09471 -45.01617,-25.03678 -10.19584,-2.94084 -20.79856,-4.18172 -31.39645,-4.07042 -24.24038,-0.3611 -48.53448,0.23645 -72.74171,-0.48557 -3.41754,-0.66569 -6.00936,-4.14778 -5.56429,-7.65526 -0.29476,-2.67644 0.33006,-5.50575 -0.3877,-8.07483 -0.27374,-0.0121 -0.51397,-0.29386 -0.79284,-0.26554 z"
       id="path850" />
    <path
       style="fill:#bddbff;fill-opacity:1;fill-rule:evenodd;stroke-width:0.388065;stroke-miterlimit:2"
       d="m 311.47203,75.697923 c -0.62761,5.543643 -0.0992,11.309033 -0.27122,16.939455 0.21435,7.695732 -0.9631,16.020262 3.05033,23.009042 4.23556,8.14223 13.35893,13.55592 22.58628,12.89804 10.54203,-0.004 21.11312,0.38275 31.6394,-0.16101 1.9428,-0.16059 1.62556,-2.53474 0.22716,-3.27404 -15.8512,-15.2304 -32.27301,-29.861761 -48.64033,-44.533485 -2.27373,-1.697969 -4.16718,-4.219728 -6.87013,-5.192103 -0.62639,-0.03759 -1.1725,-0.03393 -1.72149,0.314101 z"
       id="path852" />
  </g>
</svg>
