<svg xmlns="http://www.w3.org/2000/svg" id="Layer_1" data-name="Layer 1" viewBox="0 0 128 128"><title>05_Autenticate</title><path d="M19.1,30.4A7,7,0,0,0,24,28.3,10,10,0,0,0,26.7,21a12.9,12.9,0,0,0-.5-3.5A34.7,34.7,0,0,0,22,20.9c.1.1.1.1.1.2s-.6,3.8-1.6,4.6a2,2,0,0,1-1.4.6,1.9,1.9,0,0,1-1.3-.5,27.4,27.4,0,0,0-2.3,3.6A7.5,7.5,0,0,0,19.1,30.4Z" fill="#1a6094"></path><path d="M35,16h2.6V30h4.6V12H37.5l-2.5.8Z" fill="#1a6094"></path><path d="M53.2,13.7c-1.6,1.5-2.6,4.1-2.6,7.3s1,5.8,2.6,7.3a6.9,6.9,0,0,0,9.9,0c1.7-1.5,2.7-4.1,2.7-7.3a10.4,10.4,0,0,0-2.5-7.2,38.6,38.6,0,0,0-6-2.1A6.9,6.9,0,0,0,53.2,13.7Zm8,7.4c0,1.5-.6,3.8-1.6,4.6a1.8,1.8,0,0,1-1.4.6,1.7,1.7,0,0,1-1.4-.6c-1.1-.9-1.6-3.2-1.6-4.7s.6-3.8,1.6-4.6a1.7,1.7,0,0,1,1.4-.6,1.8,1.8,0,0,1,1.4.6C60.6,17.2,61.2,19.5,61.2,21.1Z" fill="#1a6094"></path><path d="M69.7,17.5a12.9,12.9,0,0,0-.5,3.5c0,3.2,1,5.8,2.7,7.3a7,7,0,0,0,4.9,2.1,7.5,7.5,0,0,0,3.6-1,27.4,27.4,0,0,0-2.3-3.6,1.9,1.9,0,0,1-1.3.5,1.8,1.8,0,0,1-1.4-.6c-1.1-.9-1.6-3.2-1.6-4.7h0A43.5,43.5,0,0,0,69.7,17.5Z" fill="#1a6094"></path><path d="M24,55.3A10.3,10.3,0,0,0,26.7,48,10.4,10.4,0,0,0,24,40.6a7.1,7.1,0,0,0-9.9,0A10.4,10.4,0,0,0,11.4,48a10.3,10.3,0,0,0,2.7,7.3,7.1,7.1,0,0,0,9.9,0ZM16.1,48c0-1.7.6-3.9,1.5-4.7a2.5,2.5,0,0,1,1.5-.6,2.5,2.5,0,0,1,1.4.6c.9.8,1.6,3.1,1.6,4.7s-.6,3.8-1.6,4.7a2.4,2.4,0,0,1-1.4.5,2.5,2.5,0,0,1-1.5-.5C16.6,51.8,16.1,49.4,16.1,48Z" fill="#1a6094"></path><path d="M38.6,38.6a6.9,6.9,0,0,0-4.9,2A10,10,0,0,0,31,48a9.9,9.9,0,0,0,2.7,7.3,7.1,7.1,0,0,0,9.9,0A10.3,10.3,0,0,0,46.2,48a10.4,10.4,0,0,0-2.6-7.4A6.9,6.9,0,0,0,38.6,38.6Zm1.5,14.1a2.5,2.5,0,0,1-1.5.5,2.2,2.2,0,0,1-1.4-.5c-1.1-.9-1.6-3.3-1.6-4.7s.6-3.9,1.6-4.7a2.2,2.2,0,0,1,1.4-.6,2.5,2.5,0,0,1,1.5.6c.9.8,1.5,3.1,1.5,4.7A8,8,0,0,1,40.1,52.7Z" fill="#1a6094"></path><polygon points="61.8 56.9 61.8 39 54.6 39 54.6 42.9 57.1 42.9 57.1 56.9 61.8 56.9" fill="#1a6094"></polygon><polygon points="73.2 42.9 75.8 42.9 75.8 56.9 80.4 56.9 80.4 39 73.2 39 73.2 42.9" fill="#1a6094"></polygon><path d="M15.5,65.9v.6a23.9,23.9,0,0,0,2.1,3.4H18v.5a32.7,32.7,0,0,0,4.7,5.1V65.9Z" fill="#1a6094"></path><path d="M43.6,82.2a10.1,10.1,0,0,0,2.6-7.3,10.4,10.4,0,0,0-2.6-7.4,7.1,7.1,0,0,0-9.9,0A10,10,0,0,0,31,74.9a9.7,9.7,0,0,0,2.7,7.3c.2.3.5.4.7.6a39.6,39.6,0,0,0,4.5,1.5A7.5,7.5,0,0,0,43.6,82.2Zm-8-7.3c0-1.6.6-3.8,1.6-4.7a2.2,2.2,0,0,1,1.4-.5,2.5,2.5,0,0,1,1.5.5c.9.9,1.5,3.2,1.5,4.8s-.6,3.8-1.5,4.6a2.5,2.5,0,0,1-1.5.6,2.2,2.2,0,0,1-1.4-.6C36.1,78.7,35.6,76.4,35.6,74.9Z" fill="#1a6094"></path><path d="M65.8,74.9a10,10,0,0,0-2.7-7.4,7.1,7.1,0,0,0-9.9,0,10.4,10.4,0,0,0-2.6,7.4,10.1,10.1,0,0,0,2.6,7.3,6.9,6.9,0,0,0,4.1,2,38.6,38.6,0,0,0,6-2.1A10.4,10.4,0,0,0,65.8,74.9Zm-6.2,4.7a2.2,2.2,0,0,1-1.4.6,2,2,0,0,1-1.4-.6c-1.1-.9-1.6-3.2-1.6-4.7s.6-3.8,1.6-4.7a2,2,0,0,1,1.4-.5,2.2,2.2,0,0,1,1.4.5c1,.9,1.6,3.2,1.6,4.8S60.6,78.8,59.6,79.6Z" fill="#1a6094"></path><path d="M73.2,65.9v4h2.6v3a37.2,37.2,0,0,0,4.6-6.4v-.6Z" fill="#1a6094"></path><path d="M124.5,107.8,94.2,77.5h0l-5.1-5.1a47.2,47.2,0,0,0,6.8-24.5,48,48,0,1,0-48,48,47.2,47.2,0,0,0,24.5-6.8l8.8,8.8h0l26.6,26.6a12,12,0,0,0,8.4,3.5,11.9,11.9,0,0,0,8.3-20.2ZM6,47.9a42,42,0,1,1,41.9,42A42,42,0,0,1,6,47.9ZM85.7,77.4l3.8,3.8-8.3,8.3-3.8-3.8A46.6,46.6,0,0,0,85.7,77.4Zm34.6,42.9a5.7,5.7,0,0,1-8.2,0L86,94.2,94.2,86l26.1,26.1A5.7,5.7,0,0,1,120.3,120.3Z" fill="#1a6094"></path></svg>