<svg xmlns="http://www.w3.org/2000/svg" id="Layer_1" data-name="Layer 1" viewBox="0 0 128 128"><title>01_No3Parts</title><path d="M19.6.4V107.2H4.5v3a18.2,18.2,0,0,0,18.1,18.2h81.8a18.3,18.3,0,0,0,18.2-18.2V.4Zm3,121.8A12.1,12.1,0,0,1,11,113.3H86.5a17.7,17.7,0,0,0,4.3,8.9Zm93.8-12a12,12,0,1,1-24,0v-3H25.7V6.6h90.7V110.2Z" fill="#1a6094"></path><polygon points="66.1 61.7 56.5 57 66.1 52.4 66.1 45.2 49.4 54.3 49.4 59.8 66.1 68.9 66.1 61.7" fill="#1a6094"></polygon><polygon points="70.5 72 76.3 41.7 71.6 41.7 65.8 72 70.5 72" fill="#1a6094"></polygon><polygon points="76 52.3 85.6 57 76 61.8 76 68.9 92.7 59.8 92.7 54.3 76 45.2 76 52.3" fill="#1a6094"></polygon><path d="M40.4,39.2V74.6L71.1,92.2l30.6-17.6V39.2L71.1,21.5Zm56.8,2.6V71.9L71.1,87,45,71.9V41.8L71.1,26.7Z" fill="#1a6094"></path></svg>