<svg xmlns="http://www.w3.org/2000/svg" id="Layer_1" data-name="Layer 1" viewBox="0 0 128 128"><title>03_UnlimitedCapa</title><path d="M104.3,94.3c-9.1,0-14.3-6.2-18.6-12.7-4.2,6.5-9.4,12.7-18.4,12.7a17.5,17.5,0,0,1,0-35c9.1,0,14.2,6.2,18.5,12.7,4.2-6.5,9.4-12.7,18.5-12.7a17.5,17.5,0,0,1,0,35ZM88.7,76.8c4.3,6.8,8.2,12.4,15.6,12.4a12.4,12.4,0,1,0,0-24.8C97,64.4,92.9,70.3,88.7,76.8ZM67.3,64.4a12.4,12.4,0,0,0,0,24.8c7.3,0,11.2-5.6,15.4-12.4C78.5,70,74.6,64.4,67.3,64.4Z" fill="#1a6094"></path><polygon points="21.3 112.9 16.2 112.9 16.2 21.9 101.6 21.9 101.6 56.2 96.5 56.2 96.5 27 21.3 27 21.3 112.9" fill="#1a6094"></polygon><polygon points="21.3 112.9 16.2 112.9 16.2 21.9 101.6 21.9 101.6 56.2 96.5 56.2 96.5 27 21.3 27 21.3 112.9" fill="#1a6094"></polygon><polygon points="112.6 56.2 107.5 56.2 107.5 15.9 32.3 15.9 32.3 24.4 27.2 24.4 27.2 10.8 112.6 10.8 112.6 56.2" fill="#1a6094"></polygon><path d="M86.6,128H18.7a15.1,15.1,0,0,1-15-15.1v-2.5H76.6v2.5a10,10,0,1,0,19.9,0V97.4h5.1v15.5A15.1,15.1,0,0,1,86.6,128ZM9.1,115.5a10,10,0,0,0,9.6,7.4H75.3a15.6,15.6,0,0,1-3.6-7.4Z" fill="#1a6094"></path><path d="M38.2,50.2A5.9,5.9,0,0,1,34,52a6.1,6.1,0,0,1-4.3-1.8A8.8,8.8,0,0,1,27.5,44a9,9,0,0,1,2.2-6.3A6.1,6.1,0,0,1,34,35.9a5.9,5.9,0,0,1,4.2,1.8A8.6,8.6,0,0,1,40.5,44,8.4,8.4,0,0,1,38.2,50.2ZM32.8,40c-.9.7-1.4,2.6-1.4,4a6.3,6.3,0,0,0,1.4,4,1.7,1.7,0,0,0,1.2.5,1.8,1.8,0,0,0,1.2-.5c.8-.7,1.3-2.7,1.3-4s-.5-3.3-1.3-4a1.8,1.8,0,0,0-1.2-.5A1.7,1.7,0,0,0,32.8,40Z" fill="#1a6094"></path><path d="M49.8,39.7H47.6V36.3h6.1V51.6H49.8Z" fill="#1a6094"></path><path d="M71.6,50.2a5.9,5.9,0,0,1-8.5,0A8.4,8.4,0,0,1,60.8,44a8.6,8.6,0,0,1,2.3-6.3,5.9,5.9,0,0,1,8.5,0A8.6,8.6,0,0,1,73.9,44,8.4,8.4,0,0,1,71.6,50.2ZM66.1,40c-.8.7-1.3,2.6-1.3,4s.4,3.2,1.3,4a1.8,1.8,0,0,0,1.2.5,1.9,1.9,0,0,0,1.3-.5c.8-.7,1.3-2.7,1.3-4s-.5-3.3-1.3-4a1.9,1.9,0,0,0-1.3-.5A1.8,1.8,0,0,0,66.1,40Z" fill="#1a6094"></path><path d="M87.5,50.2A5.9,5.9,0,0,1,83.3,52,6.1,6.1,0,0,1,79,50.2,8.4,8.4,0,0,1,76.7,44,8.6,8.6,0,0,1,79,37.7a6.1,6.1,0,0,1,4.3-1.8,5.9,5.9,0,0,1,4.2,1.8A8.6,8.6,0,0,1,89.8,44,8.4,8.4,0,0,1,87.5,50.2ZM82,40c-.8.7-1.3,2.6-1.3,4s.4,3.2,1.3,4a1.9,1.9,0,0,0,1.3.5,1.8,1.8,0,0,0,1.2-.5c.8-.7,1.3-2.7,1.3-4s-.5-3.3-1.3-4a1.8,1.8,0,0,0-1.2-.5A1.9,1.9,0,0,0,82,40Z" fill="#1a6094"></path><path d="M38.2,73.2A5.9,5.9,0,0,1,34,75a6.1,6.1,0,0,1-4.3-1.8A8.9,8.9,0,0,1,27.5,67a8.8,8.8,0,0,1,2.2-6.3A6.1,6.1,0,0,1,34,58.9a5.9,5.9,0,0,1,4.2,1.8A8.5,8.5,0,0,1,40.5,67,8.5,8.5,0,0,1,38.2,73.2ZM32.8,63c-.9.7-1.4,2.5-1.4,4a6.3,6.3,0,0,0,1.4,4,1.7,1.7,0,0,0,1.2.5,1.8,1.8,0,0,0,1.2-.5,6.6,6.6,0,0,0,1.3-4c0-1.4-.5-3.3-1.3-4a1.8,1.8,0,0,0-1.2-.5A1.7,1.7,0,0,0,32.8,63Z" fill="#1a6094"></path><path d="M33.1,85.6H30.9V82.3h6.2V97.6h-4Z" fill="#1a6094"></path><polygon points="112.6 114 98.4 114 98.4 108.9 107.5 108.9 107.5 97.4 112.6 97.4 112.6 114" fill="#1a6094"></polygon><polygon points="124.3 107.2 110.1 107.2 110.1 102 119.2 102 119.2 93.3 124.3 93.3 124.3 107.2" fill="#1a6094"></polygon><polygon points="121.8 58.9 116.7 58.9 116.7 5.1 41.5 5.1 41.5 13.7 36.4 13.7 36.4 0 121.8 0 121.8 58.9" fill="#1a6094"></polygon></svg>