<svg xmlns="http://www.w3.org/2000/svg" id="Layer_1" data-name="Layer 1" viewBox="0 0 128 128"><title>04_Notarize</title><polygon points="63.5 119.5 0 119.5 0 25.8 23.4 2.4 96.6 2.4 96.6 22.2 90.8 22.2 90.8 8.2 25.7 8.2 5.8 28.1 5.8 113.8 63.5 113.8 63.5 119.5" fill="#1a6094"></polygon><path d="M24.9,53.4a6.8,6.8,0,0,1-4.8,1.9,7,7,0,0,1-4.8-1.9,10.3,10.3,0,0,1-2.5-7.1,10,10,0,0,1,2.5-7.1,7.1,7.1,0,0,1,4.8-2,6.9,6.9,0,0,1,4.8,2,9.6,9.6,0,0,1,2.6,7.1A9.9,9.9,0,0,1,24.9,53.4ZM18.7,41.8c-.9.8-1.5,2.9-1.5,4.5s.5,3.7,1.5,4.5a2,2,0,0,0,1.4.6,1.8,1.8,0,0,0,1.4-.6c1-.8,1.5-3,1.5-4.5s-.6-3.7-1.5-4.5a2.2,2.2,0,0,0-1.4-.5A2.4,2.4,0,0,0,18.7,41.8Z" fill="#1a6094"></path><path d="M38,41.4H35.5V37.6h7V55H38Z" fill="#1a6094"></path><path d="M62.7,53.4a7,7,0,0,1-4.8,1.9,6.8,6.8,0,0,1-4.8-1.9,9.9,9.9,0,0,1-2.6-7.1,9.6,9.6,0,0,1,2.6-7.1,6.9,6.9,0,0,1,4.8-2,7.1,7.1,0,0,1,4.8,2,10,10,0,0,1,2.5,7.1A10.3,10.3,0,0,1,62.7,53.4ZM56.5,41.8c-.9.8-1.5,2.9-1.5,4.5s.5,3.7,1.5,4.5a1.8,1.8,0,0,0,1.4.6,1.6,1.6,0,0,0,1.3-.6c1-.8,1.6-3,1.6-4.5s-.6-3.7-1.6-4.5a1.9,1.9,0,0,0-1.3-.5A2.2,2.2,0,0,0,56.5,41.8Z" fill="#1a6094"></path><path d="M38,17.3H35.5V13.5h7V30.8H38Z" fill="#1a6094"></path><path d="M73.9,17.3H71.4V13.5h7V30.8H73.9Z" fill="#1a6094"></path><path d="M62.7,29.2a6.7,6.7,0,0,1-4.8,2,6.5,6.5,0,0,1-4.8-2,9.5,9.5,0,0,1-2.6-7,9.6,9.6,0,0,1,2.6-7.1,6.5,6.5,0,0,1,4.8-2,6.7,6.7,0,0,1,4.8,2,10,10,0,0,1,2.5,7.1A9.9,9.9,0,0,1,62.7,29.2ZM56.5,17.7c-.9.8-1.5,2.9-1.5,4.5s.5,3.6,1.5,4.5a2.2,2.2,0,0,0,1.4.6,2,2,0,0,0,1.3-.6c1-.8,1.6-3,1.6-4.5s-.6-3.7-1.6-4.5a2,2,0,0,0-1.3-.6A2.2,2.2,0,0,0,56.5,17.7Z" fill="#1a6094"></path><path d="M24.9,78.7a6.8,6.8,0,0,1-4.8,1.9,7,7,0,0,1-4.8-1.9,10.3,10.3,0,0,1-2.5-7.1,10,10,0,0,1,2.5-7.1,7.1,7.1,0,0,1,4.8-2,6.9,6.9,0,0,1,4.8,2,9.6,9.6,0,0,1,2.6,7.1A9.9,9.9,0,0,1,24.9,78.7ZM18.7,67.1c-.9.8-1.5,2.9-1.5,4.5s.5,3.6,1.5,4.5a2.5,2.5,0,0,0,1.4.6,2.2,2.2,0,0,0,1.4-.6c1-.8,1.5-3,1.5-4.5s-.6-3.7-1.5-4.5a2.2,2.2,0,0,0-1.4-.6A2.5,2.5,0,0,0,18.7,67.1Z" fill="#1a6094"></path><path d="M43.8,78.7a7,7,0,0,1-9.6,0,10.4,10.4,0,0,1-2.6-7.1,10,10,0,0,1,2.6-7.1,6.8,6.8,0,0,1,9.6,0,10,10,0,0,1,2.6,7.1A10.4,10.4,0,0,1,43.8,78.7ZM37.6,67.1c-.9.8-1.5,2.9-1.5,4.5s.5,3.6,1.5,4.5a2.5,2.5,0,0,0,1.4.6,2.5,2.5,0,0,0,1.4-.6c.9-.8,1.5-3,1.5-4.5s-.6-3.7-1.5-4.5a2.5,2.5,0,0,0-1.4-.6A2.5,2.5,0,0,0,37.6,67.1Z" fill="#1a6094"></path><path d="M56.9,66.7H54.4V62.9h7V80.2H56.9Z" fill="#1a6094"></path><path d="M56.9,92H54.4V88.2h7v17.3H56.9Z" fill="#1a6094"></path><path d="M19.1,92H16.6V88.2h7v17.3H19.1Z" fill="#1a6094"></path><path d="M43.8,103.9a6.8,6.8,0,0,1-9.6,0,10.9,10.9,0,0,1,0-14.1,6.8,6.8,0,0,1,9.6,0,10.9,10.9,0,0,1,0,14.1ZM37.6,92.4c-.9.8-1.5,2.9-1.5,4.5s.5,3.6,1.5,4.5a2.5,2.5,0,0,0,1.4.6,2.5,2.5,0,0,0,1.4-.6c.9-.8,1.5-3,1.5-4.5s-.6-3.7-1.5-4.5a2.5,2.5,0,0,0-1.4-.6A2.5,2.5,0,0,0,37.6,92.4Z" fill="#1a6094"></path><path d="M116.9,125.6H79.6a5.6,5.6,0,0,1-5.4-4.2H74a5.5,5.5,0,0,1-5.5-5.5V95.1A5.5,5.5,0,0,1,74,89.7h9.1c.1-1.1.1-2.2.1-3.2a52,52,0,0,0-4.3-20l-.4-.8a22.4,22.4,0,0,1-2.3-9.8,22,22,0,1,1,40.1,12.4,43.6,43.6,0,0,0-4.4,18.2c0,1,.1,2.1.2,3.2h10.4a5.5,5.5,0,0,1,5.5,5.4v20.8a5.5,5.5,0,0,1-5.5,5.5h-.2A5.6,5.6,0,0,1,116.9,125.6Zm-37-5.8h36.8l.4-4.2h5.1V95.4H107l-.3-2.4a37.7,37.7,0,0,1-.5-6.5,49.9,49.9,0,0,1,5.1-21.1v-.3A16.1,16.1,0,0,0,98.2,39.8,16.2,16.2,0,0,0,82,55.9a16.5,16.5,0,0,0,1.7,7.2l.3.6h.1A58.8,58.8,0,0,1,89,86.5a48.8,48.8,0,0,1-.4,6.4l-.3,2.5h-14v20.2h5.1Z" fill="#1a6094"></path><polygon points="27.8 30 2.9 29.8 2.9 24.1 22 24.2 21.7 5.3 27.4 5.2 27.8 30" fill="#1a6094"></polygon></svg>