<svg width="668" height="477" viewBox="0 0 668 477" fill="none" xmlns="http://www.w3.org/2000/svg">
<rect x="0.5" y="0.5" width="667" height="476" rx="29.5" fill="url(#paint0_linear)" stroke="#244583"/>
<path d="M0.5 449.024C0.5 433.98 12.6953 421.785 27.7389 421.785H640.261C655.305 421.785 667.5 433.98 667.5 449.024C667.5 464.067 655.305 476.262 640.261 476.262H27.7389C12.6953 476.262 0.5 464.067 0.5 449.024Z" fill="white" stroke="#244583"/>
<path d="M490.174 449.672C490.174 452.824 492.302 455.192 495.47 455.192C498.622 455.192 500.766 452.824 500.766 449.672C500.766 446.52 498.622 444.152 495.47 444.152C492.302 444.152 490.174 446.52 490.174 449.672ZM499.39 449.672C499.39 452.152 497.854 454.008 495.47 454.008C493.07 454.008 491.55 452.152 491.55 449.672C491.55 447.176 493.07 445.336 495.47 445.336C497.854 445.336 499.39 447.176 499.39 449.672ZM508.009 455H509.209V449.576C509.209 447.896 508.361 447.08 506.745 447.08C505.593 447.08 504.537 447.752 503.993 448.392V447.272H502.793V455H503.993V449.352C504.441 448.728 505.337 448.152 506.281 448.152C507.321 448.152 508.009 448.584 508.009 449.944V455ZM515.778 455H517.106V450.76H520.066C522.178 450.76 523.41 449.288 523.41 447.544C523.41 445.8 522.21 444.328 520.066 444.328H515.778V455ZM522.034 447.544C522.034 448.744 521.17 449.576 519.906 449.576H517.106V445.512H519.906C521.17 445.512 522.034 446.344 522.034 447.544ZM524.47 451.128C524.47 453.544 526.118 455.192 528.406 455.192C529.67 455.192 530.71 454.776 531.478 454.008L530.902 453.224C530.294 453.848 529.398 454.2 528.518 454.2C526.854 454.2 525.83 452.984 525.734 451.528H531.99V451.224C531.99 448.904 530.614 447.08 528.278 447.08C526.07 447.08 524.47 448.888 524.47 451.128ZM528.262 448.072C530.022 448.072 530.79 449.496 530.806 450.648H525.734C525.798 449.464 526.614 448.072 528.262 448.072ZM533.933 455H535.133V449.528C535.485 448.904 536.493 448.296 537.229 448.296C537.421 448.296 537.565 448.312 537.709 448.344V447.112C536.653 447.112 535.757 447.704 535.133 448.52V447.272H533.933V455ZM548.543 455H549.743V449.416C549.743 447.864 548.991 447.08 547.583 447.08C546.463 447.08 545.423 447.816 544.991 448.52C544.767 447.72 544.095 447.08 542.911 447.08C541.775 447.08 540.735 447.896 540.415 448.392V447.272H539.215V455H540.415V449.352C540.831 448.728 541.663 448.152 542.447 448.152C543.455 448.152 543.871 448.776 543.871 449.752V455H545.071V449.336C545.471 448.728 546.319 448.152 547.119 448.152C548.111 448.152 548.543 448.776 548.543 449.752V455Z" fill="#13274B"/>
<rect x="468.792" y="441.956" width="14" height="14" rx="3" fill="#147CB6"/>
<path d="M293.505 455H294.833V444.328H293.505V448.92H287.265V444.328H285.937V455H287.265V450.104H293.505V455ZM297.04 456.936L296.848 458.024C297.072 458.088 297.472 458.136 297.728 458.136C298.752 458.12 299.536 457.688 300 456.568L303.872 447.272H302.56L300 453.608L297.424 447.272H296.128L299.36 455.08L298.848 456.248C298.576 456.888 298.224 457.064 297.696 457.064C297.504 457.064 297.216 457.016 297.04 456.936ZM305.123 455H306.323V453.848C306.899 454.632 307.843 455.192 308.931 455.192C310.947 455.192 312.371 453.656 312.371 451.144C312.371 448.68 310.947 447.08 308.931 447.08C307.875 447.08 306.947 447.592 306.323 448.44V444.328H305.123V455ZM306.323 452.904V449.4C306.739 448.728 307.683 448.152 308.627 448.152C310.195 448.152 311.123 449.432 311.123 451.144C311.123 452.856 310.195 454.12 308.627 454.12C307.683 454.12 306.739 453.576 306.323 452.904ZM314.326 455H315.526V449.528C315.878 448.904 316.886 448.296 317.622 448.296C317.814 448.296 317.958 448.312 318.102 448.344V447.112C317.046 447.112 316.15 447.704 315.526 448.52V447.272H314.326V455ZM320.2 445.976C320.648 445.976 321.016 445.608 321.016 445.16C321.016 444.712 320.648 444.36 320.2 444.36C319.768 444.36 319.4 444.712 319.4 445.16C319.4 445.608 319.768 445.976 320.2 445.976ZM319.608 455H320.808V447.272H319.608V455ZM328.801 455H330.001V444.328H328.801V448.44C328.177 447.592 327.233 447.08 326.193 447.08C324.161 447.08 322.753 448.68 322.753 451.144C322.753 453.656 324.177 455.192 326.193 455.192C327.281 455.192 328.225 454.632 328.801 453.848V455ZM328.801 452.904C328.369 453.576 327.441 454.12 326.481 454.12C324.929 454.12 324.001 452.856 324.001 451.144C324.001 449.432 324.929 448.152 326.481 448.152C327.441 448.152 328.369 448.728 328.801 449.4V452.904ZM341.586 455.192C343.522 455.192 344.802 454.296 345.698 453.08L344.562 452.456C343.954 453.368 342.85 454.008 341.586 454.008C339.298 454.008 337.522 452.2 337.522 449.672C337.522 447.128 339.298 445.336 341.586 445.336C342.85 445.336 343.954 445.992 344.562 446.888L345.682 446.264C344.834 445.064 343.522 444.152 341.586 444.152C338.562 444.152 336.146 446.392 336.146 449.672C336.146 452.952 338.562 455.192 341.586 455.192ZM347.342 455H348.542V444.328H347.342V455ZM354.312 455.192C356.664 455.192 358.136 453.368 358.136 451.128C358.136 448.888 356.664 447.08 354.312 447.08C351.96 447.08 350.488 448.888 350.488 451.128C350.488 453.368 351.96 455.192 354.312 455.192ZM354.312 454.12C352.664 454.12 351.736 452.712 351.736 451.128C351.736 449.56 352.664 448.152 354.312 448.152C355.96 448.152 356.872 449.56 356.872 451.128C356.872 452.712 355.96 454.12 354.312 454.12ZM365.308 455H366.508V447.272H365.308V452.952C364.86 453.576 363.964 454.12 363.02 454.12C361.98 454.12 361.292 453.72 361.292 452.36V447.272H360.092V452.728C360.092 454.408 360.94 455.192 362.556 455.192C363.708 455.192 364.716 454.584 365.308 453.912V455ZM374.505 455H375.705V444.328H374.505V448.44C373.881 447.592 372.937 447.08 371.897 447.08C369.865 447.08 368.457 448.68 368.457 451.144C368.457 453.656 369.881 455.192 371.897 455.192C372.985 455.192 373.929 454.632 374.505 453.848V455ZM374.505 452.904C374.073 453.576 373.145 454.12 372.185 454.12C370.633 454.12 369.705 452.856 369.705 451.144C369.705 449.432 370.633 448.152 372.185 448.152C373.145 448.152 374.073 448.728 374.505 449.4V452.904ZM376.908 455.32H377.852L381.644 444.008H380.7L376.908 455.32ZM382.89 455H384.218V450.76H387.178C389.29 450.76 390.522 449.288 390.522 447.544C390.522 445.8 389.322 444.328 387.178 444.328H382.89V455ZM389.146 447.544C389.146 448.744 388.282 449.576 387.018 449.576H384.218V445.512H387.018C388.282 445.512 389.146 446.344 389.146 447.544ZM391.582 451.128C391.582 453.544 393.23 455.192 395.518 455.192C396.782 455.192 397.822 454.776 398.59 454.008L398.014 453.224C397.406 453.848 396.51 454.2 395.63 454.2C393.966 454.2 392.942 452.984 392.846 451.528H399.102V451.224C399.102 448.904 397.726 447.08 395.39 447.08C393.182 447.08 391.582 448.888 391.582 451.128ZM395.374 448.072C397.134 448.072 397.902 449.496 397.918 450.648H392.846C392.91 449.464 393.726 448.072 395.374 448.072ZM401.045 455H402.245V449.528C402.597 448.904 403.605 448.296 404.341 448.296C404.533 448.296 404.677 448.312 404.821 448.344V447.112C403.765 447.112 402.869 447.704 402.245 448.52V447.272H401.045V455ZM415.654 455H416.854V449.416C416.854 447.864 416.102 447.08 414.694 447.08C413.574 447.08 412.534 447.816 412.102 448.52C411.878 447.72 411.206 447.08 410.022 447.08C408.886 447.08 407.846 447.896 407.526 448.392V447.272H406.326V455H407.526V449.352C407.942 448.728 408.774 448.152 409.558 448.152C410.566 448.152 410.982 448.776 410.982 449.752V455H412.182V449.336C412.582 448.728 413.43 448.152 414.23 448.152C415.222 448.152 415.654 448.776 415.654 449.752V455Z" fill="#13274B"/>
<rect x="263.549" y="441.956" width="14" height="14" rx="3" fill="#AC80FF"/>
<path d="M142.095 455.222H143.423V450.358H148.975V449.174H143.423V445.734H149.087V444.55H142.095V455.222ZM156.06 455.222H157.26V447.494H156.06V453.174C155.612 453.798 154.716 454.342 153.772 454.342C152.732 454.342 152.044 453.942 152.044 452.582V447.494H150.844V452.95C150.844 454.63 151.692 455.414 153.308 455.414C154.46 455.414 155.468 454.806 156.06 454.134V455.222ZM159.656 455.222H160.856V444.55H159.656V455.222ZM163.25 455.222H164.45V444.55H163.25V455.222ZM176.025 455.414C177.961 455.414 179.241 454.518 180.137 453.302L179.001 452.678C178.393 453.59 177.289 454.23 176.025 454.23C173.737 454.23 171.961 452.422 171.961 449.894C171.961 447.35 173.737 445.558 176.025 445.558C177.289 445.558 178.393 446.214 179.001 447.11L180.121 446.486C179.273 445.286 177.961 444.374 176.025 444.374C173.001 444.374 170.585 446.614 170.585 449.894C170.585 453.174 173.001 455.414 176.025 455.414ZM181.781 455.222H182.981V444.55H181.781V455.222ZM188.751 455.414C191.103 455.414 192.575 453.59 192.575 451.35C192.575 449.11 191.103 447.302 188.751 447.302C186.399 447.302 184.927 449.11 184.927 451.35C184.927 453.59 186.399 455.414 188.751 455.414ZM188.751 454.342C187.103 454.342 186.175 452.934 186.175 451.35C186.175 449.782 187.103 448.374 188.751 448.374C190.399 448.374 191.311 449.782 191.311 451.35C191.311 452.934 190.399 454.342 188.751 454.342ZM199.747 455.222H200.947V447.494H199.747V453.174C199.299 453.798 198.403 454.342 197.459 454.342C196.419 454.342 195.731 453.942 195.731 452.582V447.494H194.531V452.95C194.531 454.63 195.379 455.414 196.995 455.414C198.147 455.414 199.155 454.806 199.747 454.134V455.222ZM208.944 455.222H210.144V444.55H208.944V448.662C208.32 447.814 207.376 447.302 206.336 447.302C204.304 447.302 202.896 448.902 202.896 451.366C202.896 453.878 204.32 455.414 206.336 455.414C207.424 455.414 208.368 454.854 208.944 454.07V455.222ZM208.944 453.126C208.512 453.798 207.584 454.342 206.624 454.342C205.072 454.342 204.144 453.078 204.144 451.366C204.144 449.654 205.072 448.374 206.624 448.374C207.584 448.374 208.512 448.95 208.944 449.622V453.126Z" fill="#13274B"/>
<rect x="115.693" y="442.955" width="14" height="14" rx="3" fill="#24C4A1"/>
<path d="M130.816 387.672C130.816 390.824 132.944 393.192 136.112 393.192C139.264 393.192 141.408 390.824 141.408 387.672C141.408 384.52 139.264 382.152 136.112 382.152C132.944 382.152 130.816 384.52 130.816 387.672ZM140.032 387.672C140.032 390.152 138.496 392.008 136.112 392.008C133.712 392.008 132.192 390.152 132.192 387.672C132.192 385.176 133.712 383.336 136.112 383.336C138.496 383.336 140.032 385.176 140.032 387.672ZM143.434 393H144.634V387.528C144.986 386.904 145.994 386.296 146.73 386.296C146.922 386.296 147.066 386.312 147.21 386.344V385.112C146.154 385.112 145.258 385.704 144.634 386.52V385.272H143.434V393ZM153.548 393H154.748V387.688C154.748 385.816 153.388 385.08 151.756 385.08C150.492 385.08 149.5 385.496 148.668 386.36L149.228 387.192C149.916 386.456 150.668 386.12 151.596 386.12C152.716 386.12 153.548 386.712 153.548 387.752V389.144C152.924 388.424 152.044 388.088 150.988 388.088C149.676 388.088 148.284 388.904 148.284 390.632C148.284 392.312 149.676 393.192 150.988 393.192C152.028 393.192 152.908 392.824 153.548 392.12V393ZM153.548 391.368C153.084 392.008 152.268 392.328 151.42 392.328C150.3 392.328 149.516 391.624 149.516 390.648C149.516 389.656 150.3 388.952 151.42 388.952C152.268 388.952 153.084 389.272 153.548 389.912V391.368ZM156.705 389.128C156.705 391.432 158.257 393.192 160.561 393.192C161.969 393.192 162.801 392.616 163.393 391.848L162.593 391.112C162.081 391.8 161.425 392.12 160.625 392.12C158.977 392.12 157.953 390.84 157.953 389.128C157.953 387.416 158.977 386.152 160.625 386.152C161.425 386.152 162.081 386.456 162.593 387.16L163.393 386.424C162.801 385.656 161.969 385.08 160.561 385.08C158.257 385.08 156.705 386.84 156.705 389.128ZM165.075 393H166.275V382.328H165.075V393ZM168.221 389.128C168.221 391.544 169.869 393.192 172.157 393.192C173.421 393.192 174.461 392.776 175.229 392.008L174.653 391.224C174.045 391.848 173.149 392.2 172.269 392.2C170.605 392.2 169.581 390.984 169.485 389.528H175.741V389.224C175.741 386.904 174.365 385.08 172.029 385.08C169.821 385.08 168.221 386.888 168.221 389.128ZM172.013 386.072C173.773 386.072 174.541 387.496 174.557 388.648H169.485C169.549 387.464 170.365 386.072 172.013 386.072Z" fill="#13274B"/>
<path d="M259.408 387.672C259.408 384.52 257.264 382.152 254.112 382.152C250.944 382.152 248.816 384.52 248.816 387.672C248.816 390.824 250.944 393.192 254.112 393.192C255.216 393.192 256.192 392.904 257.008 392.392L258.032 393.496L258.96 392.696L257.952 391.608C258.88 390.616 259.408 389.24 259.408 387.672ZM254.112 392.008C251.712 392.008 250.192 390.152 250.192 387.672C250.192 385.176 251.712 383.336 254.112 383.336C256.496 383.336 258.032 385.176 258.032 387.672C258.032 388.856 257.68 389.896 257.056 390.648L255.552 389.032L254.624 389.816L256.144 391.464C255.568 391.816 254.896 392.008 254.112 392.008ZM261.482 393H267.77V391.816H262.81V382.328H261.482V393ZM269.639 393H273.287C276.599 393 278.759 390.712 278.759 387.672C278.759 384.648 276.599 382.328 273.287 382.328H269.639V393ZM270.967 391.816V383.512H273.287C275.927 383.512 277.383 385.368 277.383 387.672C277.383 389.96 275.879 391.816 273.287 391.816H270.967ZM280.842 393H285.706C287.658 393 288.794 391.832 288.794 390.12C288.794 388.84 287.85 387.672 286.714 387.496C287.69 387.288 288.586 386.392 288.586 385.048C288.586 383.448 287.45 382.328 285.594 382.328H280.842V393ZM282.17 386.952V383.512H285.37C286.57 383.512 287.21 384.28 287.21 385.24C287.21 386.216 286.57 386.952 285.37 386.952H282.17ZM282.17 391.816V388.136H285.434C286.746 388.136 287.418 389 287.418 389.976C287.418 391.112 286.682 391.816 285.434 391.816H282.17Z" fill="#13274B"/>
<path d="M399.303 393H400.631V382.328H399.303V393ZM412.411 393H413.611V387.416C413.611 385.864 412.859 385.08 411.451 385.08C410.331 385.08 409.291 385.816 408.859 386.52C408.635 385.72 407.963 385.08 406.779 385.08C405.643 385.08 404.603 385.896 404.283 386.392V385.272H403.083V393H404.283V387.352C404.699 386.728 405.531 386.152 406.315 386.152C407.323 386.152 407.739 386.776 407.739 387.752V393H408.939V387.336C409.339 386.728 410.187 386.152 410.987 386.152C411.979 386.152 412.411 386.776 412.411 387.752V393ZM425.333 393H426.533V387.416C426.533 385.864 425.781 385.08 424.373 385.08C423.253 385.08 422.213 385.816 421.781 386.52C421.557 385.72 420.885 385.08 419.701 385.08C418.565 385.08 417.525 385.896 417.205 386.392V385.272H416.005V393H417.205V387.352C417.621 386.728 418.453 386.152 419.237 386.152C420.245 386.152 420.661 386.776 420.661 387.752V393H421.861V387.336C422.261 386.728 423.109 386.152 423.909 386.152C424.901 386.152 425.333 386.776 425.333 387.752V393ZM434.143 393H435.343V385.272H434.143V390.952C433.695 391.576 432.799 392.12 431.855 392.12C430.815 392.12 430.127 391.72 430.127 390.36V385.272H428.927V390.728C428.927 392.408 429.775 393.192 431.391 393.192C432.543 393.192 433.551 392.584 434.143 391.912V393ZM443.339 393H444.539V382.328H443.339V386.44C442.715 385.592 441.771 385.08 440.731 385.08C438.699 385.08 437.291 386.68 437.291 389.144C437.291 391.656 438.715 393.192 440.731 393.192C441.819 393.192 442.763 392.632 443.339 391.848V393ZM443.339 390.904C442.907 391.576 441.979 392.12 441.019 392.12C439.467 392.12 438.539 390.856 438.539 389.144C438.539 387.432 439.467 386.152 441.019 386.152C441.979 386.152 442.907 386.728 443.339 387.4V390.904ZM446.942 393H448.142V391.848C448.718 392.632 449.662 393.192 450.75 393.192C452.766 393.192 454.19 391.656 454.19 389.144C454.19 386.68 452.766 385.08 450.75 385.08C449.694 385.08 448.766 385.592 448.142 386.44V382.328H446.942V393ZM448.142 390.904V387.4C448.558 386.728 449.502 386.152 450.446 386.152C452.014 386.152 452.942 387.432 452.942 389.144C452.942 390.856 452.014 392.12 450.446 392.12C449.502 392.12 448.558 391.576 448.142 390.904Z" fill="#13274B"/>
<path d="M527.045 393.192C528.981 393.192 530.261 392.296 531.157 391.08L530.021 390.456C529.413 391.368 528.309 392.008 527.045 392.008C524.757 392.008 522.981 390.2 522.981 387.672C522.981 385.128 524.757 383.336 527.045 383.336C528.309 383.336 529.413 383.992 530.021 384.888L531.141 384.264C530.293 383.064 528.981 382.152 527.045 382.152C524.021 382.152 521.605 384.392 521.605 387.672C521.605 390.952 524.021 393.192 527.045 393.192ZM536.178 393.192C538.53 393.192 540.002 391.368 540.002 389.128C540.002 386.888 538.53 385.08 536.178 385.08C533.826 385.08 532.354 386.888 532.354 389.128C532.354 391.368 533.826 393.192 536.178 393.192ZM536.178 392.12C534.53 392.12 533.602 390.712 533.602 389.128C533.602 387.56 534.53 386.152 536.178 386.152C537.826 386.152 538.738 387.56 538.738 389.128C538.738 390.712 537.826 392.12 536.178 392.12ZM547.558 393H548.758V382.328H547.558V386.44C546.934 385.592 545.99 385.08 544.95 385.08C542.918 385.08 541.51 386.68 541.51 389.144C541.51 391.656 542.934 393.192 544.95 393.192C546.038 393.192 546.982 392.632 547.558 391.848V393ZM547.558 390.904C547.126 391.576 546.198 392.12 545.238 392.12C543.686 392.12 542.758 390.856 542.758 389.144C542.758 387.432 543.686 386.152 545.238 386.152C546.198 386.152 547.126 386.728 547.558 387.4V390.904ZM550.713 389.128C550.713 391.544 552.361 393.192 554.649 393.192C555.913 393.192 556.953 392.776 557.721 392.008L557.145 391.224C556.537 391.848 555.641 392.2 554.761 392.2C553.097 392.2 552.073 390.984 551.977 389.528H558.233V389.224C558.233 386.904 556.857 385.08 554.521 385.08C552.313 385.08 550.713 386.888 550.713 389.128ZM554.505 386.072C556.265 386.072 557.033 387.496 557.049 388.648H551.977C552.041 387.464 552.857 386.072 554.505 386.072ZM565.393 393H566.593V387.576C566.593 385.896 565.745 385.08 564.129 385.08C562.977 385.08 561.921 385.752 561.377 386.392V385.272H560.177V393H561.377V387.352C561.825 386.728 562.721 386.152 563.665 386.152C564.705 386.152 565.393 386.584 565.393 387.944V393ZM572.365 393.192C574.717 393.192 576.189 391.368 576.189 389.128C576.189 386.888 574.717 385.08 572.365 385.08C570.013 385.08 568.541 386.888 568.541 389.128C568.541 391.368 570.013 393.192 572.365 393.192ZM572.365 392.12C570.717 392.12 569.789 390.712 569.789 389.128C569.789 387.56 570.717 386.152 572.365 386.152C574.013 386.152 574.925 387.56 574.925 389.128C574.925 390.712 574.013 392.12 572.365 392.12ZM580.097 393.192C580.801 393.192 581.233 392.984 581.537 392.696L581.185 391.8C581.025 391.976 580.705 392.12 580.369 392.12C579.841 392.12 579.585 391.704 579.585 391.128V386.328H581.153V385.272H579.585V383.16H578.385V385.272H577.105V386.328H578.385V391.384C578.385 392.536 578.961 393.192 580.097 393.192ZM587.68 393H588.88V387.688C588.88 385.816 587.52 385.08 585.888 385.08C584.624 385.08 583.632 385.496 582.8 386.36L583.36 387.192C584.048 386.456 584.8 386.12 585.728 386.12C586.848 386.12 587.68 386.712 587.68 387.752V389.144C587.056 388.424 586.176 388.088 585.12 388.088C583.808 388.088 582.416 388.904 582.416 390.632C582.416 392.312 583.808 393.192 585.12 393.192C586.16 393.192 587.04 392.824 587.68 392.12V393ZM587.68 391.368C587.216 392.008 586.4 392.328 585.552 392.328C584.432 392.328 583.648 391.624 583.648 390.648C583.648 389.656 584.432 388.952 585.552 388.952C586.4 388.952 587.216 389.272 587.68 389.912V391.368ZM591.286 393H592.486V387.528C592.838 386.904 593.846 386.296 594.582 386.296C594.774 386.296 594.918 386.312 595.062 386.344V385.112C594.006 385.112 593.11 385.704 592.486 386.52V385.272H591.286V393ZM596.327 394.936L596.135 396.024C596.359 396.088 596.759 396.136 597.015 396.136C598.039 396.12 598.823 395.688 599.287 394.568L603.159 385.272H601.847L599.287 391.608L596.711 385.272H595.415L598.647 393.08L598.135 394.248C597.863 394.888 597.511 395.064 596.983 395.064C596.791 395.064 596.503 395.016 596.327 394.936Z" fill="#13274B"/>
<line x1="113.222" y1="369.641" x2="641.995" y2="369.641" stroke="#13274B"/>
<line x1="113.222" y1="316.764" x2="641.995" y2="316.764" stroke="#C1C1C1"/>
<line x1="113.222" y1="262.153" x2="641.995" y2="262.153" stroke="#C1C1C1"/>
<line x1="113.222" y1="207.542" x2="641.995" y2="207.542" stroke="#C1C1C1"/>
<line x1="113.222" y1="152.931" x2="641.995" y2="152.931" stroke="#C1C1C1"/>
<line x1="113.222" y1="98.3198" x2="641.995" y2="98.3199" stroke="#C1C1C1"/>
<path d="M99.5516 370.422C99.5516 372.366 100.416 374.562 102.612 374.562C104.796 374.562 105.672 372.366 105.672 370.422C105.672 368.466 104.796 366.294 102.612 366.294C100.416 366.294 99.5516 368.466 99.5516 370.422ZM104.652 370.422C104.652 372.018 104.136 373.674 102.612 373.674C101.088 373.674 100.572 372.018 100.572 370.422C100.572 368.826 101.088 367.182 102.612 367.182C104.136 367.182 104.652 368.826 104.652 370.422Z" fill="#13274B"/>
<path d="M72.5756 319.418H73.5716V311.414H72.6956L70.6916 313.478L71.2916 314.09L72.5756 312.734V319.418ZM75.118 315.422C75.118 317.366 75.982 319.562 78.178 319.562C80.362 319.562 81.238 317.366 81.238 315.422C81.238 313.466 80.362 311.294 78.178 311.294C75.982 311.294 75.118 313.466 75.118 315.422ZM80.218 315.422C80.218 317.018 79.702 318.674 78.178 318.674C76.654 318.674 76.138 317.018 76.138 315.422C76.138 313.826 76.654 312.182 78.178 312.182C79.702 312.182 80.218 313.826 80.218 315.422ZM82.6067 320.942C83.1587 320.546 83.5907 319.862 83.5907 319.13C83.5907 318.554 83.2307 318.218 82.8347 318.218C82.4747 318.218 82.1987 318.518 82.1987 318.866C82.1987 319.226 82.4387 319.478 82.7747 319.478C82.8347 319.478 82.9187 319.466 82.9427 319.454C82.8947 319.85 82.5467 320.318 82.1627 320.57L82.6067 320.942ZM84.8563 315.422C84.8563 317.366 85.7203 319.562 87.9163 319.562C90.1003 319.562 90.9763 317.366 90.9763 315.422C90.9763 313.466 90.1003 311.294 87.9163 311.294C85.7203 311.294 84.8563 313.466 84.8563 315.422ZM89.9563 315.422C89.9563 317.018 89.4403 318.674 87.9163 318.674C86.3923 318.674 85.8763 317.018 85.8763 315.422C85.8763 313.826 86.3923 312.182 87.9163 312.182C89.4403 312.182 89.9563 313.826 89.9563 315.422ZM92.2039 315.422C92.2039 317.366 93.0679 319.562 95.2639 319.562C97.4479 319.562 98.3239 317.366 98.3239 315.422C98.3239 313.466 97.4479 311.294 95.2639 311.294C93.0679 311.294 92.2039 313.466 92.2039 315.422ZM97.3039 315.422C97.3039 317.018 96.7879 318.674 95.2639 318.674C93.7399 318.674 93.2239 317.018 93.2239 315.422C93.2239 313.826 93.7399 312.182 95.2639 312.182C96.7879 312.182 97.3039 313.826 97.3039 315.422ZM99.5516 315.422C99.5516 317.366 100.416 319.562 102.612 319.562C104.796 319.562 105.672 317.366 105.672 315.422C105.672 313.466 104.796 311.294 102.612 311.294C100.416 311.294 99.5516 313.466 99.5516 315.422ZM104.652 315.422C104.652 317.018 104.136 318.674 102.612 318.674C101.088 318.674 100.572 317.018 100.572 315.422C100.572 313.826 101.088 312.182 102.612 312.182C104.136 312.182 104.652 313.826 104.652 315.422Z" fill="#13274B"/>
<path d="M68.0993 264.418H73.5953V263.53H69.6713C71.9033 261.766 73.5593 260.278 73.5593 258.646C73.5593 257.05 72.2033 256.294 70.8713 256.294C69.7433 256.294 68.6993 256.75 68.0873 257.554L68.6993 258.19C69.1673 257.59 69.9113 257.182 70.8713 257.182C71.6993 257.182 72.5393 257.626 72.5393 258.646C72.5393 260.026 70.9793 261.358 68.0993 263.626V264.418ZM75.118 260.422C75.118 262.366 75.982 264.562 78.178 264.562C80.362 264.562 81.238 262.366 81.238 260.422C81.238 258.466 80.362 256.294 78.178 256.294C75.982 256.294 75.118 258.466 75.118 260.422ZM80.218 260.422C80.218 262.018 79.702 263.674 78.178 263.674C76.654 263.674 76.138 262.018 76.138 260.422C76.138 258.826 76.654 257.182 78.178 257.182C79.702 257.182 80.218 258.826 80.218 260.422ZM82.6067 265.942C83.1587 265.546 83.5907 264.862 83.5907 264.13C83.5907 263.554 83.2307 263.218 82.8347 263.218C82.4747 263.218 82.1987 263.518 82.1987 263.866C82.1987 264.226 82.4387 264.478 82.7747 264.478C82.8347 264.478 82.9187 264.466 82.9427 264.454C82.8947 264.85 82.5467 265.318 82.1627 265.57L82.6067 265.942ZM84.8563 260.422C84.8563 262.366 85.7203 264.562 87.9163 264.562C90.1003 264.562 90.9763 262.366 90.9763 260.422C90.9763 258.466 90.1003 256.294 87.9163 256.294C85.7203 256.294 84.8563 258.466 84.8563 260.422ZM89.9563 260.422C89.9563 262.018 89.4403 263.674 87.9163 263.674C86.3923 263.674 85.8763 262.018 85.8763 260.422C85.8763 258.826 86.3923 257.182 87.9163 257.182C89.4403 257.182 89.9563 258.826 89.9563 260.422ZM92.2039 260.422C92.2039 262.366 93.0679 264.562 95.2639 264.562C97.4479 264.562 98.3239 262.366 98.3239 260.422C98.3239 258.466 97.4479 256.294 95.2639 256.294C93.0679 256.294 92.2039 258.466 92.2039 260.422ZM97.3039 260.422C97.3039 262.018 96.7879 263.674 95.2639 263.674C93.7399 263.674 93.2239 262.018 93.2239 260.422C93.2239 258.826 93.7399 257.182 95.2639 257.182C96.7879 257.182 97.3039 258.826 97.3039 260.422ZM99.5516 260.422C99.5516 262.366 100.416 264.562 102.612 264.562C104.796 264.562 105.672 262.366 105.672 260.422C105.672 258.466 104.796 256.294 102.612 256.294C100.416 256.294 99.5516 258.466 99.5516 260.422ZM104.652 260.422C104.652 262.018 104.136 263.674 102.612 263.674C101.088 263.674 100.572 262.018 100.572 260.422C100.572 258.826 101.088 257.182 102.612 257.182C104.136 257.182 104.652 258.826 104.652 260.422Z" fill="#13274B"/>
<path d="M68.1743 208.242C68.6663 208.962 69.6623 209.562 71.0183 209.562C72.7823 209.562 73.8503 208.59 73.8503 207.258C73.8503 205.974 72.7343 205.35 72.0023 205.29C72.7583 205.158 73.7303 204.582 73.7303 203.43C73.7303 202.074 72.5543 201.294 71.0183 201.294C69.7823 201.294 68.8583 201.834 68.2823 202.53L68.8343 203.154C69.4223 202.518 70.0703 202.182 70.9463 202.182C71.9183 202.182 72.7343 202.662 72.7343 203.55C72.7343 204.474 71.8823 204.87 70.8743 204.87C70.5503 204.87 70.1783 204.87 70.0463 204.858V205.77C70.1663 205.758 70.5383 205.758 70.8743 205.758C72.0503 205.758 72.8663 206.178 72.8663 207.174C72.8663 208.098 72.1583 208.674 70.9943 208.674C70.0463 208.674 69.2303 208.242 68.7623 207.618L68.1743 208.242ZM75.118 205.422C75.118 207.366 75.982 209.562 78.178 209.562C80.362 209.562 81.238 207.366 81.238 205.422C81.238 203.466 80.362 201.294 78.178 201.294C75.982 201.294 75.118 203.466 75.118 205.422ZM80.218 205.422C80.218 207.018 79.702 208.674 78.178 208.674C76.654 208.674 76.138 207.018 76.138 205.422C76.138 203.826 76.654 202.182 78.178 202.182C79.702 202.182 80.218 203.826 80.218 205.422ZM82.6067 210.942C83.1587 210.546 83.5907 209.862 83.5907 209.13C83.5907 208.554 83.2307 208.218 82.8347 208.218C82.4747 208.218 82.1987 208.518 82.1987 208.866C82.1987 209.226 82.4387 209.478 82.7747 209.478C82.8347 209.478 82.9187 209.466 82.9427 209.454C82.8947 209.85 82.5467 210.318 82.1627 210.57L82.6067 210.942ZM84.8563 205.422C84.8563 207.366 85.7203 209.562 87.9163 209.562C90.1003 209.562 90.9763 207.366 90.9763 205.422C90.9763 203.466 90.1003 201.294 87.9163 201.294C85.7203 201.294 84.8563 203.466 84.8563 205.422ZM89.9563 205.422C89.9563 207.018 89.4403 208.674 87.9163 208.674C86.3923 208.674 85.8763 207.018 85.8763 205.422C85.8763 203.826 86.3923 202.182 87.9163 202.182C89.4403 202.182 89.9563 203.826 89.9563 205.422ZM92.2039 205.422C92.2039 207.366 93.0679 209.562 95.2639 209.562C97.4479 209.562 98.3239 207.366 98.3239 205.422C98.3239 203.466 97.4479 201.294 95.2639 201.294C93.0679 201.294 92.2039 203.466 92.2039 205.422ZM97.3039 205.422C97.3039 207.018 96.7879 208.674 95.2639 208.674C93.7399 208.674 93.2239 207.018 93.2239 205.422C93.2239 203.826 93.7399 202.182 95.2639 202.182C96.7879 202.182 97.3039 203.826 97.3039 205.422ZM99.5516 205.422C99.5516 207.366 100.416 209.562 102.612 209.562C104.796 209.562 105.672 207.366 105.672 205.422C105.672 203.466 104.796 201.294 102.612 201.294C100.416 201.294 99.5516 203.466 99.5516 205.422ZM104.652 205.422C104.652 207.018 104.136 208.674 102.612 208.674C101.088 208.674 100.572 207.018 100.572 205.422C100.572 203.826 101.088 202.182 102.612 202.182C104.136 202.182 104.652 203.826 104.652 205.422Z" fill="#13274B"/>
<path d="M72.0026 154.418H72.9986V152.39H74.1266V151.514H72.9986V146.414H71.6306L68.1986 151.562V152.39H72.0026V154.418ZM72.0026 147.338V151.514H69.1946L72.0026 147.338ZM75.118 150.422C75.118 152.366 75.982 154.562 78.178 154.562C80.362 154.562 81.238 152.366 81.238 150.422C81.238 148.466 80.362 146.294 78.178 146.294C75.982 146.294 75.118 148.466 75.118 150.422ZM80.218 150.422C80.218 152.018 79.702 153.674 78.178 153.674C76.654 153.674 76.138 152.018 76.138 150.422C76.138 148.826 76.654 147.182 78.178 147.182C79.702 147.182 80.218 148.826 80.218 150.422ZM82.6067 155.942C83.1587 155.546 83.5907 154.862 83.5907 154.13C83.5907 153.554 83.2307 153.218 82.8347 153.218C82.4747 153.218 82.1987 153.518 82.1987 153.866C82.1987 154.226 82.4387 154.478 82.7747 154.478C82.8347 154.478 82.9187 154.466 82.9427 154.454C82.8947 154.85 82.5467 155.318 82.1627 155.57L82.6067 155.942ZM84.8563 150.422C84.8563 152.366 85.7203 154.562 87.9163 154.562C90.1003 154.562 90.9763 152.366 90.9763 150.422C90.9763 148.466 90.1003 146.294 87.9163 146.294C85.7203 146.294 84.8563 148.466 84.8563 150.422ZM89.9563 150.422C89.9563 152.018 89.4403 153.674 87.9163 153.674C86.3923 153.674 85.8763 152.018 85.8763 150.422C85.8763 148.826 86.3923 147.182 87.9163 147.182C89.4403 147.182 89.9563 148.826 89.9563 150.422ZM92.2039 150.422C92.2039 152.366 93.0679 154.562 95.2639 154.562C97.4479 154.562 98.3239 152.366 98.3239 150.422C98.3239 148.466 97.4479 146.294 95.2639 146.294C93.0679 146.294 92.2039 148.466 92.2039 150.422ZM97.3039 150.422C97.3039 152.018 96.7879 153.674 95.2639 153.674C93.7399 153.674 93.2239 152.018 93.2239 150.422C93.2239 148.826 93.7399 147.182 95.2639 147.182C96.7879 147.182 97.3039 148.826 97.3039 150.422ZM99.5516 150.422C99.5516 152.366 100.416 154.562 102.612 154.562C104.796 154.562 105.672 152.366 105.672 150.422C105.672 148.466 104.796 146.294 102.612 146.294C100.416 146.294 99.5516 148.466 99.5516 150.422ZM104.652 150.422C104.652 152.018 104.136 153.674 102.612 153.674C101.088 153.674 100.572 152.018 100.572 150.422C100.572 148.826 101.088 147.182 102.612 147.182C104.136 147.182 104.652 148.826 104.652 150.422Z" fill="#13274B"/>
<path d="M68.2199 98.278C68.8199 99.07 69.6839 99.562 71.0399 99.562C72.6479 99.562 73.8839 98.554 73.8839 96.922C73.8839 95.278 72.6719 94.366 71.3399 94.366C70.5359 94.366 69.8519 94.702 69.4679 95.086V92.302H73.3679V91.414H68.4719V95.734L69.2039 95.986C69.7439 95.458 70.3439 95.23 71.0519 95.23C72.1319 95.23 72.8879 95.902 72.8879 96.958C72.8879 97.93 72.1319 98.674 71.0399 98.674C70.0559 98.674 69.3599 98.29 68.8319 97.618L68.2199 98.278ZM75.118 95.422C75.118 97.366 75.982 99.562 78.178 99.562C80.362 99.562 81.238 97.366 81.238 95.422C81.238 93.466 80.362 91.294 78.178 91.294C75.982 91.294 75.118 93.466 75.118 95.422ZM80.218 95.422C80.218 97.018 79.702 98.674 78.178 98.674C76.654 98.674 76.138 97.018 76.138 95.422C76.138 93.826 76.654 92.182 78.178 92.182C79.702 92.182 80.218 93.826 80.218 95.422ZM82.6067 100.942C83.1587 100.546 83.5907 99.862 83.5907 99.13C83.5907 98.554 83.2307 98.218 82.8347 98.218C82.4747 98.218 82.1987 98.518 82.1987 98.866C82.1987 99.226 82.4387 99.478 82.7747 99.478C82.8347 99.478 82.9187 99.466 82.9427 99.454C82.8947 99.85 82.5467 100.318 82.1627 100.57L82.6067 100.942ZM84.8563 95.422C84.8563 97.366 85.7203 99.562 87.9163 99.562C90.1003 99.562 90.9763 97.366 90.9763 95.422C90.9763 93.466 90.1003 91.294 87.9163 91.294C85.7203 91.294 84.8563 93.466 84.8563 95.422ZM89.9563 95.422C89.9563 97.018 89.4403 98.674 87.9163 98.674C86.3923 98.674 85.8763 97.018 85.8763 95.422C85.8763 93.826 86.3923 92.182 87.9163 92.182C89.4403 92.182 89.9563 93.826 89.9563 95.422ZM92.2039 95.422C92.2039 97.366 93.0679 99.562 95.2639 99.562C97.4479 99.562 98.3239 97.366 98.3239 95.422C98.3239 93.466 97.4479 91.294 95.2639 91.294C93.0679 91.294 92.2039 93.466 92.2039 95.422ZM97.3039 95.422C97.3039 97.018 96.7879 98.674 95.2639 98.674C93.7399 98.674 93.2239 97.018 93.2239 95.422C93.2239 93.826 93.7399 92.182 95.2639 92.182C96.7879 92.182 97.3039 93.826 97.3039 95.422ZM99.5516 95.422C99.5516 97.366 100.416 99.562 102.612 99.562C104.796 99.562 105.672 97.366 105.672 95.422C105.672 93.466 104.796 91.294 102.612 91.294C100.416 91.294 99.5516 93.466 99.5516 95.422ZM104.652 95.422C104.652 97.018 104.136 98.674 102.612 98.674C101.088 98.674 100.572 97.018 100.572 95.422C100.572 93.826 101.088 92.182 102.612 92.182C104.136 92.182 104.652 93.826 104.652 95.422Z" fill="#13274B"/>
<path d="M550.977 318.861C550.977 312.234 556.349 306.861 562.977 306.861H563.248C569.876 306.861 575.248 312.234 575.248 318.861V369.274H550.977V318.861Z" fill="url(#paint1_linear)"/>
<path d="M439.154 203.572C439.154 196.944 444.527 191.572 451.154 191.572H451.426C458.053 191.572 463.426 196.944 463.426 203.572V369.274H439.154V203.572Z" fill="url(#paint2_linear)"/>
<path d="M582 290C582 283.373 587.373 278 594 278C600.627 278 606 283.373 606 290V369H582V290Z" fill="url(#paint3_linear)"/>
<path d="M407.948 342.266C407.948 335.639 413.32 330.266 419.948 330.266H420.219C426.847 330.266 432.219 335.639 432.219 342.266V369.274H407.948V342.266Z" fill="url(#paint4_linear)"/>
<path d="M376.741 174.966C376.741 168.338 382.114 162.966 388.741 162.966H389.013C395.64 162.966 401.013 168.338 401.013 174.966V369.274H376.741V174.966Z" fill="url(#paint5_linear)"/>
<path d="M242 369C242 368.448 242.448 368 243 368H265C265.552 368 266 368.448 266 369H242Z" fill="url(#paint6_linear)"/>
<path d="M125 369C125 366.239 127.239 364 130 364H144C146.761 364 149 366.239 149 369H125Z" fill="url(#paint7_linear)"/>
<path d="M520 243C520 236.373 525.373 231 532 231C538.627 231 544 236.373 544 243V369H520V243Z" fill="url(#paint8_linear)"/>
<path d="M156.564 369.274C156.564 366.88 158.504 364.939 160.898 364.939H176.501C178.895 364.939 180.836 366.88 180.836 369.274H156.564Z" fill="url(#paint9_linear)"/>
<path d="M272.721 369.274C272.721 368.795 273.109 368.407 273.588 368.407H296.125C296.604 368.407 296.992 368.795 296.992 369.274H272.721Z" fill="url(#paint10_linear)"/>
<path d="M579.168 273H580.872V264.996H579.384L576.864 267.528L577.836 268.548L579.168 267.192V273ZM583.118 273H584.99L587.966 266.184V264.996H581.954V266.496H585.986L583.118 273ZM588.424 274.644C589.156 274.116 589.66 273.312 589.66 272.412C589.66 271.632 589.144 271.188 588.58 271.188C588.076 271.188 587.644 271.62 587.644 272.148C587.644 272.664 588.004 273.024 588.46 273.024C588.544 273.024 588.652 273 588.688 272.988C588.592 273.408 588.148 273.9 587.764 274.104L588.424 274.644ZM590.57 270.924C590.57 272.424 592.106 273.144 593.786 273.144C595.466 273.144 597.002 272.412 597.002 270.924C597.002 269.952 596.234 269.208 595.274 268.872C596.162 268.56 596.87 267.984 596.87 266.988C596.87 265.488 595.262 264.876 593.786 264.876C592.298 264.876 590.702 265.488 590.702 266.988C590.702 267.984 591.398 268.56 592.286 268.872C591.326 269.208 590.57 269.952 590.57 270.924ZM595.13 267.252C595.13 267.876 594.278 268.152 593.786 268.224C593.294 268.152 592.43 267.876 592.43 267.252C592.43 266.688 592.994 266.34 593.786 266.34C594.566 266.34 595.13 266.688 595.13 267.252ZM595.274 270.72C595.274 271.308 594.602 271.68 593.786 271.68C592.946 271.68 592.298 271.308 592.298 270.72C592.298 270.024 593.282 269.688 593.786 269.628C594.278 269.688 595.274 270.024 595.274 270.72ZM598.016 271.944C598.7 272.688 599.708 273.144 601.1 273.144C603.032 273.144 604.304 272.076 604.304 270.384C604.304 268.764 603.092 267.792 601.736 267.792C601.004 267.792 600.356 268.092 599.936 268.464V266.46H603.764V264.996H598.268V269.568L599.456 269.892C599.936 269.436 600.476 269.232 601.136 269.232C602.048 269.232 602.576 269.724 602.576 270.456C602.576 271.116 602.036 271.656 601.088 271.656C600.248 271.656 599.504 271.356 598.952 270.792L598.016 271.944ZM606.181 273H608.053L611.029 266.184V264.996H605.017V266.496H609.049L606.181 273Z" fill="#147CB6"/>
<path d="M432.597 183.86C433.185 184.58 434.277 185.144 435.753 185.144C437.673 185.144 438.909 184.172 438.909 182.792C438.909 181.592 437.853 180.956 437.037 180.872C437.925 180.716 438.789 180.056 438.789 179.048C438.789 177.716 437.637 176.876 435.765 176.876C434.361 176.876 433.353 177.416 432.705 178.148L433.545 179.204C434.109 178.664 434.817 178.364 435.585 178.364C436.425 178.364 437.073 178.688 437.073 179.324C437.073 179.924 436.485 180.212 435.597 180.212C435.297 180.212 434.745 180.212 434.601 180.2V181.688C434.721 181.676 435.261 181.676 435.597 181.676C436.713 181.676 437.205 181.976 437.205 182.624C437.205 183.236 436.665 183.656 435.693 183.656C434.913 183.656 434.037 183.32 433.485 182.744L432.597 183.86ZM439.64 183.86C440.228 184.58 441.32 185.144 442.796 185.144C444.716 185.144 445.952 184.172 445.952 182.792C445.952 181.592 444.896 180.956 444.08 180.872C444.968 180.716 445.832 180.056 445.832 179.048C445.832 177.716 444.68 176.876 442.808 176.876C441.404 176.876 440.396 177.416 439.748 178.148L440.588 179.204C441.152 178.664 441.86 178.364 442.628 178.364C443.468 178.364 444.116 178.688 444.116 179.324C444.116 179.924 443.528 180.212 442.64 180.212C442.34 180.212 441.788 180.212 441.644 180.2V181.688C441.764 181.676 442.304 181.676 442.64 181.676C443.756 181.676 444.248 181.976 444.248 182.624C444.248 183.236 443.708 183.656 442.736 183.656C441.956 183.656 441.08 183.32 440.528 182.744L439.64 183.86ZM447.787 186.644C448.519 186.116 449.023 185.312 449.023 184.412C449.023 183.632 448.507 183.188 447.943 183.188C447.439 183.188 447.007 183.62 447.007 184.148C447.007 184.664 447.367 185.024 447.823 185.024C447.907 185.024 448.015 185 448.051 184.988C447.955 185.408 447.511 185.9 447.127 186.104L447.787 186.644ZM449.754 183.86C450.342 184.58 451.434 185.144 452.91 185.144C454.83 185.144 456.066 184.172 456.066 182.792C456.066 181.592 455.01 180.956 454.194 180.872C455.082 180.716 455.946 180.056 455.946 179.048C455.946 177.716 454.794 176.876 452.922 176.876C451.518 176.876 450.51 177.416 449.862 178.148L450.702 179.204C451.266 178.664 451.974 178.364 452.742 178.364C453.582 178.364 454.23 178.688 454.23 179.324C454.23 179.924 453.642 180.212 452.754 180.212C452.454 180.212 451.902 180.212 451.758 180.2V181.688C451.878 181.676 452.418 181.676 452.754 181.676C453.87 181.676 454.362 181.976 454.362 182.624C454.362 183.236 453.822 183.656 452.85 183.656C452.07 183.656 451.194 183.32 450.642 182.744L449.754 183.86ZM456.797 183.86C457.385 184.58 458.477 185.144 459.953 185.144C461.873 185.144 463.109 184.172 463.109 182.792C463.109 181.592 462.053 180.956 461.237 180.872C462.125 180.716 462.989 180.056 462.989 179.048C462.989 177.716 461.837 176.876 459.965 176.876C458.561 176.876 457.553 177.416 456.905 178.148L457.745 179.204C458.309 178.664 459.017 178.364 459.785 178.364C460.625 178.364 461.273 178.688 461.273 179.324C461.273 179.924 460.685 180.212 459.797 180.212C459.497 180.212 458.945 180.212 458.801 180.2V181.688C458.921 181.676 459.461 181.676 459.797 181.676C460.913 181.676 461.405 181.976 461.405 182.624C461.405 183.236 460.865 183.656 459.893 183.656C459.113 183.656 458.237 183.32 457.685 182.744L456.797 183.86ZM463.84 183.86C464.428 184.58 465.52 185.144 466.996 185.144C468.916 185.144 470.152 184.172 470.152 182.792C470.152 181.592 469.096 180.956 468.28 180.872C469.168 180.716 470.032 180.056 470.032 179.048C470.032 177.716 468.88 176.876 467.008 176.876C465.604 176.876 464.596 177.416 463.948 178.148L464.788 179.204C465.352 178.664 466.06 178.364 466.828 178.364C467.668 178.364 468.316 178.688 468.316 179.324C468.316 179.924 467.728 180.212 466.84 180.212C466.54 180.212 465.988 180.212 465.844 180.2V181.688C465.964 181.676 466.504 181.676 466.84 181.676C467.956 181.676 468.448 181.976 468.448 182.624C468.448 183.236 467.908 183.656 466.936 183.656C466.156 183.656 465.28 183.32 464.728 182.744L463.84 183.86Z" fill="#147CB6"/>
<path d="M513.615 223.376H519.639V221.876H516.303C518.451 220.364 519.579 219.176 519.579 217.808C519.579 216.212 518.223 215.252 516.519 215.252C515.403 215.252 514.215 215.66 513.435 216.56L514.407 217.688C514.947 217.124 515.643 216.764 516.543 216.764C517.215 216.764 517.851 217.112 517.851 217.808C517.851 218.792 516.891 219.62 513.615 222.032V223.376ZM520.654 219.392C520.654 221.648 521.674 223.52 524.11 223.52C525.934 223.52 527.17 222.332 527.17 220.772C527.17 219.068 525.886 218.192 524.446 218.192C523.57 218.192 522.766 218.672 522.394 219.212C522.382 219.164 522.382 219.104 522.382 219.044C522.382 217.772 523.174 216.728 524.386 216.728C525.094 216.728 525.55 216.956 525.982 217.364L526.75 216.08C526.174 215.588 525.358 215.252 524.386 215.252C522.022 215.252 520.654 216.968 520.654 219.392ZM525.442 220.844C525.442 221.408 524.95 222.032 524.026 222.032C522.898 222.032 522.466 221.144 522.394 220.376C522.778 219.908 523.354 219.608 523.954 219.608C524.734 219.608 525.442 219.98 525.442 220.844ZM528.891 225.02C529.623 224.492 530.127 223.688 530.127 222.788C530.127 222.008 529.611 221.564 529.047 221.564C528.543 221.564 528.111 221.996 528.111 222.524C528.111 223.04 528.471 223.4 528.927 223.4C529.011 223.4 529.119 223.376 529.155 223.364C529.059 223.784 528.615 224.276 528.231 224.48L528.891 225.02ZM530.857 222.236C531.445 222.956 532.537 223.52 534.013 223.52C535.933 223.52 537.169 222.548 537.169 221.168C537.169 219.968 536.113 219.332 535.297 219.248C536.185 219.092 537.049 218.432 537.049 217.424C537.049 216.092 535.897 215.252 534.025 215.252C532.621 215.252 531.613 215.792 530.965 216.524L531.805 217.58C532.369 217.04 533.077 216.74 533.845 216.74C534.685 216.74 535.333 217.064 535.333 217.7C535.333 218.3 534.745 218.588 533.857 218.588C533.557 218.588 533.005 218.588 532.861 218.576V220.064C532.981 220.052 533.521 220.052 533.857 220.052C534.973 220.052 535.465 220.352 535.465 221C535.465 221.612 534.925 222.032 533.953 222.032C533.173 222.032 532.297 221.696 531.745 221.12L530.857 222.236ZM540.096 223.376H541.8V215.372H540.312L537.792 217.904L538.764 218.924L540.096 217.568V223.376ZM543.398 222.68C543.962 223.184 544.778 223.508 545.75 223.508C548.114 223.508 549.47 221.792 549.47 219.38C549.47 217.112 548.45 215.24 546.026 215.24C544.202 215.24 542.954 216.428 542.954 217.988C542.954 219.692 544.25 220.58 545.69 220.58C546.566 220.58 547.37 220.088 547.754 219.548V219.716C547.754 220.928 547.034 222.02 545.75 222.02C545.042 222.02 544.586 221.804 544.154 221.408L543.398 222.68ZM547.742 218.396C547.358 218.864 546.77 219.14 546.17 219.14C545.402 219.14 544.694 218.768 544.694 217.916C544.694 217.352 545.186 216.716 546.098 216.716C547.238 216.716 547.67 217.628 547.742 218.396Z" fill="#24C4A1"/>
<path d="M371.275 154.622C371.863 155.342 372.955 155.906 374.431 155.906C376.351 155.906 377.587 154.934 377.587 153.554C377.587 152.354 376.531 151.718 375.715 151.634C376.603 151.478 377.467 150.818 377.467 149.81C377.467 148.478 376.315 147.638 374.443 147.638C373.039 147.638 372.031 148.178 371.383 148.91L372.223 149.966C372.787 149.426 373.495 149.126 374.263 149.126C375.103 149.126 375.751 149.45 375.751 150.086C375.751 150.686 375.163 150.974 374.275 150.974C373.975 150.974 373.423 150.974 373.279 150.962V152.45C373.399 152.438 373.939 152.438 374.275 152.438C375.391 152.438 375.883 152.738 375.883 153.386C375.883 153.998 375.343 154.418 374.371 154.418C373.591 154.418 372.715 154.082 372.163 153.506L371.275 154.622ZM379.53 155.762H381.402L384.378 148.946V147.758H378.366V149.258H382.398L379.53 155.762ZM384.836 157.406C385.568 156.878 386.072 156.074 386.072 155.174C386.072 154.394 385.556 153.95 384.992 153.95C384.488 153.95 384.056 154.382 384.056 154.91C384.056 155.426 384.416 155.786 384.872 155.786C384.956 155.786 385.064 155.762 385.1 155.75C385.004 156.17 384.56 156.662 384.176 156.866L384.836 157.406ZM386.971 151.766C386.971 153.83 387.991 155.906 390.283 155.906C392.563 155.906 393.595 153.83 393.595 151.766C393.595 149.702 392.563 147.638 390.283 147.638C387.991 147.638 386.971 149.702 386.971 151.766ZM391.855 151.766C391.855 153.242 391.423 154.394 390.283 154.394C389.131 154.394 388.699 153.242 388.699 151.766C388.699 150.29 389.131 149.15 390.283 149.15C391.423 149.15 391.855 150.29 391.855 151.766ZM394.244 154.622C394.832 155.342 395.924 155.906 397.4 155.906C399.32 155.906 400.556 154.934 400.556 153.554C400.556 152.354 399.5 151.718 398.684 151.634C399.572 151.478 400.436 150.818 400.436 149.81C400.436 148.478 399.284 147.638 397.412 147.638C396.008 147.638 395 148.178 394.352 148.91L395.192 149.966C395.756 149.426 396.464 149.126 397.232 149.126C398.072 149.126 398.72 149.45 398.72 150.086C398.72 150.686 398.132 150.974 397.244 150.974C396.944 150.974 396.392 150.974 396.248 150.962V152.45C396.368 152.438 396.908 152.438 397.244 152.438C398.36 152.438 398.852 152.738 398.852 153.386C398.852 153.998 398.312 154.418 397.34 154.418C396.56 154.418 395.684 154.082 395.132 153.506L394.244 154.622ZM402.499 155.762H404.371L407.347 148.946V147.758H401.335V149.258H405.367L402.499 155.762Z" fill="#24C4A1"/>
<path d="M126.457 356.016C126.457 358.272 127.477 360.144 129.913 360.144C131.737 360.144 132.973 358.956 132.973 357.396C132.973 355.692 131.689 354.816 130.249 354.816C129.373 354.816 128.569 355.296 128.197 355.836C128.185 355.788 128.185 355.728 128.185 355.668C128.185 354.396 128.977 353.352 130.189 353.352C130.897 353.352 131.353 353.58 131.785 353.988L132.553 352.704C131.977 352.212 131.161 351.876 130.189 351.876C127.825 351.876 126.457 353.592 126.457 356.016ZM131.245 357.468C131.245 358.032 130.753 358.656 129.829 358.656C128.701 358.656 128.269 357.768 128.197 357C128.581 356.532 129.157 356.232 129.757 356.232C130.537 356.232 131.245 356.604 131.245 357.468ZM133.938 358.944C134.622 359.688 135.63 360.144 137.022 360.144C138.954 360.144 140.226 359.076 140.226 357.384C140.226 355.764 139.014 354.792 137.658 354.792C136.926 354.792 136.278 355.092 135.858 355.464V353.46H139.686V351.996H134.19V356.568L135.378 356.892C135.858 356.436 136.398 356.232 137.058 356.232C137.97 356.232 138.498 356.724 138.498 357.456C138.498 358.116 137.958 358.656 137.01 358.656C136.17 358.656 135.426 358.356 134.874 357.792L133.938 358.944ZM141.058 356.016C141.058 358.272 142.078 360.144 144.514 360.144C146.338 360.144 147.574 358.956 147.574 357.396C147.574 355.692 146.29 354.816 144.85 354.816C143.974 354.816 143.17 355.296 142.798 355.836C142.786 355.788 142.786 355.728 142.786 355.668C142.786 354.396 143.578 353.352 144.79 353.352C145.498 353.352 145.954 353.58 146.386 353.988L147.154 352.704C146.578 352.212 145.762 351.876 144.79 351.876C142.426 351.876 141.058 353.592 141.058 356.016ZM145.846 357.468C145.846 358.032 145.354 358.656 144.43 358.656C143.302 358.656 142.87 357.768 142.798 357C143.182 356.532 143.758 356.232 144.358 356.232C145.138 356.232 145.846 356.604 145.846 357.468Z" fill="#24C4A1"/>
<path d="M248.889 364H250.593V355.996H249.105L246.585 358.528L247.557 359.548L248.889 358.192V364ZM255.515 364H257.219V362.344H258.251V360.844H257.219V355.996H254.867L251.687 361V362.344H255.515V364ZM255.515 357.508V360.844H253.355L255.515 357.508Z" fill="#24C4A1"/>
<path d="M158.156 356.016C158.156 358.272 159.176 360.144 161.612 360.144C163.436 360.144 164.672 358.956 164.672 357.396C164.672 355.692 163.388 354.816 161.948 354.816C161.072 354.816 160.268 355.296 159.896 355.836C159.884 355.788 159.884 355.728 159.884 355.668C159.884 354.396 160.676 353.352 161.888 353.352C162.596 353.352 163.052 353.58 163.484 353.988L164.252 352.704C163.676 352.212 162.86 351.876 161.888 351.876C159.524 351.876 158.156 353.592 158.156 356.016ZM162.944 357.468C162.944 358.032 162.452 358.656 161.528 358.656C160.4 358.656 159.968 357.768 159.896 357C160.28 356.532 160.856 356.232 161.456 356.232C162.236 356.232 162.944 356.604 162.944 357.468ZM169.177 360H170.881V358.344H171.913V356.844H170.881V351.996H168.529L165.349 357V358.344H169.177V360ZM169.177 353.508V356.844H167.017L169.177 353.508ZM172.449 358.86C173.037 359.58 174.129 360.144 175.605 360.144C177.525 360.144 178.761 359.172 178.761 357.792C178.761 356.592 177.705 355.956 176.889 355.872C177.777 355.716 178.641 355.056 178.641 354.048C178.641 352.716 177.489 351.876 175.617 351.876C174.213 351.876 173.205 352.416 172.557 353.148L173.397 354.204C173.961 353.664 174.669 353.364 175.437 353.364C176.277 353.364 176.925 353.688 176.925 354.324C176.925 354.924 176.337 355.212 175.449 355.212C175.149 355.212 174.597 355.212 174.453 355.2V356.688C174.573 356.676 175.113 356.676 175.449 356.676C176.565 356.676 177.057 356.976 177.057 357.624C177.057 358.236 176.517 358.656 175.545 358.656C174.765 358.656 173.889 358.32 173.337 357.744L172.449 358.86Z" fill="#AC80FF"/>
<path d="M280.819 364H282.523V355.996H281.035L278.515 358.528L279.487 359.548L280.819 358.192V364ZM283.904 362.944C284.588 363.688 285.596 364.144 286.988 364.144C288.92 364.144 290.192 363.076 290.192 361.384C290.192 359.764 288.98 358.792 287.624 358.792C286.892 358.792 286.244 359.092 285.824 359.464V357.46H289.652V355.996H284.156V360.568L285.344 360.892C285.824 360.436 286.364 360.232 287.024 360.232C287.936 360.232 288.464 360.724 288.464 361.456C288.464 362.116 287.924 362.656 286.976 362.656C286.136 362.656 285.392 362.356 284.84 361.792L283.904 362.944Z" fill="#AC80FF"/>
<path d="M406.311 324H408.183L411.159 317.184V315.996H405.147V317.496H409.179L406.311 324ZM411.617 325.644C412.349 325.116 412.853 324.312 412.853 323.412C412.853 322.632 412.337 322.188 411.773 322.188C411.269 322.188 410.837 322.62 410.837 323.148C410.837 323.664 411.197 324.024 411.653 324.024C411.737 324.024 411.845 324 411.881 323.988C411.785 324.408 411.341 324.9 410.957 325.104L411.617 325.644ZM413.752 320.004C413.752 322.068 414.772 324.144 417.064 324.144C419.344 324.144 420.376 322.068 420.376 320.004C420.376 317.94 419.344 315.876 417.064 315.876C414.772 315.876 413.752 317.94 413.752 320.004ZM418.636 320.004C418.636 321.48 418.204 322.632 417.064 322.632C415.912 322.632 415.48 321.48 415.48 320.004C415.48 318.528 415.912 317.388 417.064 317.388C418.204 317.388 418.636 318.528 418.636 320.004ZM424.913 324H426.617V322.344H427.649V320.844H426.617V315.996H424.265L421.085 321V322.344H424.913V324ZM424.913 317.508V320.844H422.753L424.913 317.508ZM428.509 324H434.533V322.5H431.197C433.345 320.988 434.473 319.8 434.473 318.432C434.473 316.836 433.117 315.876 431.413 315.876C430.297 315.876 429.109 316.284 428.329 317.184L429.301 318.312C429.841 317.748 430.537 317.388 431.437 317.388C432.109 317.388 432.745 317.736 432.745 318.432C432.745 319.416 431.785 320.244 428.509 322.656V324Z" fill="#AC80FF"/>
<path d="M548.336 301H550.04V292.996H548.552L546.032 295.528L547.004 296.548L548.336 295.192V301ZM553.27 301H554.974V292.996H553.486L550.966 295.528L551.938 296.548L553.27 295.192V301ZM557.112 302.644C557.844 302.116 558.348 301.312 558.348 300.412C558.348 299.632 557.832 299.188 557.268 299.188C556.764 299.188 556.332 299.62 556.332 300.148C556.332 300.664 556.692 301.024 557.148 301.024C557.232 301.024 557.34 301 557.376 300.988C557.28 301.408 556.836 301.9 556.452 302.104L557.112 302.644ZM559.411 301H561.283L564.259 294.184V292.996H558.247V294.496H562.279L559.411 301ZM565.086 299.944C565.77 300.688 566.778 301.144 568.17 301.144C570.102 301.144 571.374 300.076 571.374 298.384C571.374 296.764 570.162 295.792 568.806 295.792C568.074 295.792 567.426 296.092 567.006 296.464V294.46H570.834V292.996H565.338V297.568L566.526 297.892C567.006 297.436 567.546 297.232 568.206 297.232C569.118 297.232 569.646 297.724 569.646 298.456C569.646 299.116 569.106 299.656 568.158 299.656C567.318 299.656 566.574 299.356 566.022 298.792L565.086 299.944ZM572.207 297.016C572.207 299.272 573.227 301.144 575.663 301.144C577.487 301.144 578.723 299.956 578.723 298.396C578.723 296.692 577.439 295.816 575.999 295.816C575.123 295.816 574.319 296.296 573.947 296.836C573.935 296.788 573.935 296.728 573.935 296.668C573.935 295.396 574.727 294.352 575.939 294.352C576.647 294.352 577.103 294.58 577.535 294.988L578.303 293.704C577.727 293.212 576.911 292.876 575.939 292.876C573.575 292.876 572.207 294.592 572.207 297.016ZM576.995 298.468C576.995 299.032 576.503 299.656 575.579 299.656C574.451 299.656 574.019 298.768 573.947 298C574.331 297.532 574.907 297.232 575.507 297.232C576.287 297.232 576.995 297.604 576.995 298.468Z" fill="#AC80FF"/>
<path d="M36.3369 352.158L36.3369 350.83L26.8489 350.83L26.8489 347.438L25.6649 347.438L25.6649 355.534L26.8489 355.534L26.8489 352.158L36.3369 352.158ZM36.3369 339.497L36.3369 337.929L31.9849 340.809C31.8569 339.353 30.8009 338.041 28.8809 338.041C26.9129 338.041 25.6649 339.433 25.6649 341.385L25.6649 345.673L36.3369 345.673L36.3369 344.345L32.0969 344.345L32.0969 342.217L36.3369 339.497ZM28.8809 339.417C30.0809 339.417 30.9289 340.281 30.9289 341.545L30.9289 344.345L26.8489 344.345L26.8489 341.545C26.8489 340.281 27.6809 339.417 28.8809 339.417ZM36.3369 328.274L36.3369 326.802L25.6649 331.106L25.6649 332.754L36.3369 337.042L36.3369 335.57L33.9689 334.626L33.9689 329.218L36.3369 328.274ZM26.8489 331.922L32.7849 329.618L32.7849 334.242L26.8489 331.922ZM36.3369 317.855L36.3369 316.575L25.6649 316.575L25.6649 317.903L34.0969 317.903L25.6649 324.047L25.6649 325.407L36.3369 325.407L36.3369 324.079L27.7289 324.079L36.3369 317.855ZM34.8329 314.719C35.8249 313.839 36.5289 312.479 36.5289 310.623C36.5289 307.743 34.9449 306.687 33.3929 306.687C31.1529 306.687 30.6089 308.671 30.1449 310.415C29.7769 311.775 29.4569 313.007 28.3849 313.007C27.3769 313.007 26.6889 312.095 26.6889 310.815C26.6889 309.647 27.0889 308.527 27.9689 307.727L26.9929 306.927C26.0489 307.823 25.5049 309.087 25.5049 310.719C25.5049 312.815 26.7049 314.383 28.4649 314.383C30.5609 314.383 31.0409 312.479 31.4889 310.767C31.8729 309.359 32.2249 308.063 33.5049 308.063C34.3209 308.063 35.3449 308.671 35.3449 310.575C35.3449 312.079 34.6089 313.231 33.8249 313.935L34.8329 314.719ZM36.3369 297.196L36.3369 295.724L25.6649 300.028L25.6649 301.676L36.3369 305.964L36.3369 304.492L33.9689 303.548L33.9689 298.14L36.3369 297.196ZM26.8489 300.844L32.7849 298.54L32.7849 303.164L26.8489 300.844ZM36.5289 289.915C36.5289 287.979 35.6329 286.699 34.4169 285.803L33.7929 286.939C34.7049 287.547 35.3449 288.651 35.3449 289.915C35.3449 292.203 33.5369 293.979 31.0089 293.979C28.4649 293.979 26.6729 292.203 26.6729 289.915C26.6729 288.651 27.3289 287.547 28.2249 286.939L27.6009 285.819C26.4009 286.667 25.4889 287.979 25.4889 289.915C25.4889 292.939 27.7289 295.355 31.0089 295.355C34.2889 295.355 36.5289 292.939 36.5289 289.915ZM36.3369 281.47L36.3369 280.142L26.8489 280.142L26.8489 276.75L25.6649 276.75L25.6649 284.846L26.8489 284.846L26.8489 281.47L36.3369 281.47ZM36.3369 274.985L36.3369 273.657L25.6649 273.657L25.6649 274.985L36.3369 274.985ZM31.0089 271.589C34.1609 271.589 36.5289 269.461 36.5289 266.293C36.5289 263.141 34.1609 260.997 31.0089 260.997C27.8569 260.997 25.4889 263.141 25.4889 266.293C25.4889 269.461 27.8569 271.589 31.0089 271.589ZM31.0089 262.373C33.4889 262.373 35.3449 263.909 35.3449 266.293C35.3449 268.693 33.4889 270.213 31.0089 270.213C28.5129 270.213 26.6729 268.693 26.6729 266.293C26.6729 263.909 28.5129 262.373 31.0089 262.373ZM36.3369 251.371L36.3369 250.091L25.6649 250.091L25.6649 251.419L34.0969 251.419L25.6649 257.563L25.6649 258.923L36.3369 258.923L36.3369 257.595L27.7289 257.595L36.3369 251.371ZM34.8329 248.235C35.8249 247.355 36.5289 245.995 36.5289 244.139C36.5289 241.259 34.9449 240.203 33.3929 240.203C31.1529 240.203 30.6089 242.187 30.1449 243.931C29.7769 245.291 29.4569 246.523 28.3849 246.523C27.3769 246.523 26.6889 245.611 26.6889 244.331C26.6889 243.163 27.0889 242.043 27.9689 241.243L26.9929 240.443C26.0489 241.339 25.5049 242.603 25.5049 244.235C25.5049 246.331 26.7049 247.899 28.4649 247.899C30.5609 247.899 31.0409 245.995 31.4889 244.283C31.8729 242.875 32.2249 241.579 33.5049 241.579C34.3209 241.579 35.3449 242.187 35.3449 244.091C35.3449 245.595 34.6089 246.747 33.8249 247.451L34.8329 248.235ZM36.3369 234.095L36.3369 232.767L32.0969 232.767L32.0969 229.807C32.0969 227.695 30.6249 226.463 28.8809 226.463C27.1369 226.463 25.6649 227.663 25.6649 229.807L25.6649 234.095L36.3369 234.095ZM28.8809 227.839C30.0809 227.839 30.9129 228.703 30.9129 229.967L30.9129 232.767L26.8489 232.767L26.8489 229.967C26.8489 228.703 27.6809 227.839 28.8809 227.839ZM36.3369 224.704L36.3369 217.712L35.1529 217.712L35.1529 223.376L31.4729 223.376L31.4729 217.824L30.2889 217.824L30.2889 223.376L26.8489 223.376L26.8489 217.712L25.6649 217.712L25.6649 224.704L36.3369 224.704ZM36.3369 209.419L36.3369 207.851L31.9849 210.731C31.8569 209.275 30.8009 207.963 28.8809 207.963C26.9129 207.963 25.6649 209.355 25.6649 211.307L25.6649 215.595L36.3369 215.595L36.3369 214.267L32.0969 214.267L32.0969 212.139L36.3369 209.419ZM28.8809 209.339C30.0809 209.339 30.9289 210.203 30.9289 211.467L30.9289 214.267L26.8489 214.267L26.8489 211.467C26.8489 210.203 27.6809 209.339 28.8809 209.339ZM34.8329 202.375C35.8249 201.495 36.5289 200.135 36.5289 198.279C36.5289 195.399 34.9449 194.343 33.3929 194.343C31.1529 194.343 30.6089 196.327 30.1449 198.071C29.7769 199.431 29.4569 200.663 28.3849 200.663C27.3769 200.663 26.6889 199.751 26.6889 198.471C26.6889 197.303 27.0889 196.183 27.9689 195.383L26.9929 194.583C26.0489 195.479 25.5049 196.743 25.5049 198.375C25.5049 200.471 26.7049 202.039 28.4649 202.039C30.5609 202.039 31.0409 200.135 31.4889 198.423C31.8729 197.015 32.2249 195.719 33.5049 195.719C34.3209 195.719 35.3449 196.327 35.3449 198.231C35.3449 199.735 34.6089 200.887 33.8249 201.591L34.8329 202.375ZM36.3369 192.36L36.3369 185.368L35.1529 185.368L35.1529 191.032L31.4729 191.032L31.4729 185.48L30.2889 185.48L30.2889 191.032L26.8489 191.032L26.8489 185.368L25.6649 185.368L25.6649 192.36L36.3369 192.36ZM36.5289 178.243C36.5289 176.307 35.6329 175.027 34.4169 174.131L33.7929 175.267C34.7049 175.875 35.3449 176.979 35.3449 178.243C35.3449 180.531 33.5369 182.307 31.0089 182.307C28.4649 182.307 26.6729 180.531 26.6729 178.243C26.6729 176.979 27.3289 175.875 28.2249 175.267L27.6009 174.147C26.4009 174.995 25.4889 176.307 25.4889 178.243C25.4889 181.267 27.7289 183.683 31.0089 183.683C34.2889 183.683 36.5289 181.267 36.5289 178.243ZM31.0089 172.87C34.1609 172.87 36.5289 170.742 36.5289 167.574C36.5289 164.422 34.1609 162.278 31.0089 162.278C27.8569 162.278 25.4889 164.422 25.4889 167.574C25.4889 170.742 27.8569 172.87 31.0089 172.87ZM31.0089 163.654C33.4889 163.654 35.3449 165.19 35.3449 167.574C35.3449 169.974 33.4889 171.494 31.0089 171.494C28.5129 171.494 26.6729 169.974 26.6729 167.574C26.6729 165.19 28.5129 163.654 31.0089 163.654ZM36.3369 152.652L36.3369 151.372L25.6649 151.372L25.6649 152.7L34.0969 152.7L25.6649 158.844L25.6649 160.204L36.3369 160.204L36.3369 158.876L27.7289 158.876L36.3369 152.652ZM36.3369 148.876L36.3369 145.228C36.3369 141.916 34.0489 139.756 31.0089 139.756C27.9849 139.756 25.6649 141.916 25.6649 145.228L25.6649 148.876L36.3369 148.876ZM35.1529 147.548L26.8489 147.548L26.8489 145.228C26.8489 142.588 28.7049 141.132 31.0089 141.132C33.2969 141.132 35.1529 142.636 35.1529 145.228L35.1529 147.548Z" fill="#768E98"/>
<path d="M107.24 57.5405H113.552C118.568 57.5405 122.048 54.3725 122.048 49.5485C122.048 44.7245 118.568 41.5325 113.552 41.5325H107.24V57.5405ZM110.648 54.5405V44.5325H113.552C116.84 44.5325 118.568 46.7165 118.568 49.5485C118.568 52.2605 116.72 54.5405 113.552 54.5405H110.648ZM134.855 57.5405H138.575L132.407 41.5325H128.135L121.943 57.5405H125.687L126.695 54.7805H133.847L134.855 57.5405ZM130.271 44.4845L132.911 51.8285H127.607L130.271 44.4845ZM142.202 57.5405H145.634V44.5325H150.29V41.5325H137.522V44.5325H142.202V57.5405ZM162.136 57.5405H165.856L159.688 41.5325H155.416L149.224 57.5405H152.968L153.976 54.7805H161.128L162.136 57.5405ZM157.552 44.4845L160.192 51.8285H154.888L157.552 44.4845ZM167.334 57.5405H176.022C179.07 57.5405 180.678 55.6205 180.678 53.2205C180.678 51.2045 179.31 49.5485 177.606 49.2845C179.118 48.9725 180.366 47.6285 180.366 45.6125C180.366 43.4765 178.806 41.5325 175.758 41.5325H167.334V57.5405ZM170.742 47.9645V44.4365H175.014C176.166 44.4365 176.886 45.2045 176.886 46.1885C176.886 47.2205 176.166 47.9645 175.014 47.9645H170.742ZM170.742 54.6365V50.8685H175.134C176.478 50.8685 177.198 51.7325 177.198 52.7405C177.198 53.8925 176.43 54.6365 175.134 54.6365H170.742ZM194.456 57.5405H198.176L192.008 41.5325H187.736L181.544 57.5405H185.288L186.296 54.7805H193.448L194.456 57.5405ZM189.872 44.4845L192.512 51.8285H187.208L189.872 44.4845ZM198.386 55.2845C199.898 56.7965 202.106 57.8285 205.178 57.8285C209.498 57.8285 211.586 55.6205 211.586 52.6925C211.586 49.1405 208.226 48.3485 205.586 47.7485C203.738 47.3165 202.394 46.9805 202.394 45.9005C202.394 44.9405 203.21 44.2685 204.746 44.2685C206.306 44.2685 208.034 44.8205 209.33 46.0205L211.226 43.5245C209.642 42.0605 207.53 41.2925 204.986 41.2925C201.218 41.2925 198.914 43.4525 198.914 46.1165C198.914 49.6925 202.274 50.4125 204.89 51.0125C206.738 51.4445 208.13 51.8525 208.13 53.0525C208.13 53.9645 207.218 54.8525 205.346 54.8525C203.138 54.8525 201.386 53.8685 200.258 52.6925L198.386 55.2845ZM213.881 57.5405H225.209V54.5885H217.289V50.8685H225.041V47.9405H217.289V44.4605H225.209V41.5325H213.881V57.5405ZM237.71 57.5405H241.142V44.5325H245.798V41.5325H233.03V44.5325H237.71V57.5405ZM258.95 57.5405H262.382V41.5325H258.95V47.8205H251.39V41.5325H247.982V57.5405H251.39V50.8205H258.95V57.5405ZM274.585 57.5405H278.497L274.897 51.4445C276.625 51.0365 278.401 49.5245 278.401 46.6925C278.401 43.7165 276.361 41.5325 273.025 41.5325H265.537V57.5405H268.945V51.8045H271.441L274.585 57.5405ZM274.921 46.6685C274.921 48.0125 273.889 48.8765 272.521 48.8765H268.945V44.4605H272.521C273.889 44.4605 274.921 45.3245 274.921 46.6685ZM280.191 49.5485C280.191 54.3725 283.719 57.8285 288.543 57.8285C293.391 57.8285 296.919 54.3725 296.919 49.5485C296.919 44.7245 293.391 41.2685 288.543 41.2685C283.719 41.2685 280.191 44.7245 280.191 49.5485ZM293.415 49.5485C293.415 52.5245 291.495 54.8045 288.543 54.8045C285.591 54.8045 283.695 52.5245 283.695 49.5485C283.695 46.5485 285.591 44.2925 288.543 44.2925C291.495 44.2925 293.415 46.5485 293.415 49.5485ZM299.311 51.1565C299.311 55.0925 301.591 57.8285 306.487 57.8285C311.335 57.8285 313.615 55.1165 313.615 51.1325V41.5325H310.159V51.0365C310.159 53.2685 308.935 54.8045 306.487 54.8045C303.991 54.8045 302.767 53.2685 302.767 51.0365V41.5325H299.311V51.1565ZM316.004 49.5485C316.004 54.5885 319.844 57.8525 324.524 57.8525C327.428 57.8525 329.708 56.6525 331.34 54.8285V48.7085H323.708V51.6365H327.98V53.5805C327.284 54.2045 325.988 54.8045 324.524 54.8045C321.62 54.8045 319.508 52.5725 319.508 49.5485C319.508 46.5245 321.62 44.2925 324.524 44.2925C326.204 44.2925 327.572 45.1805 328.316 46.3085L331.148 44.7725C329.924 42.8765 327.836 41.2685 324.524 41.2685C319.844 41.2685 316.004 44.4845 316.004 49.5485ZM345.013 57.5405H348.445V41.5325H345.013V47.8205H337.453V41.5325H334.045V57.5405H337.453V50.8205H345.013V57.5405ZM351.6 57.5405H355.008V51.8045H359.088C362.544 51.8045 364.464 49.4765 364.464 46.6925C364.464 43.8845 362.568 41.5325 359.088 41.5325H351.6V57.5405ZM360.984 46.6685C360.984 48.0125 359.976 48.8765 358.632 48.8765H355.008V44.4605H358.632C359.976 44.4605 360.984 45.3485 360.984 46.6685ZM366.576 51.1565C366.576 55.0925 368.856 57.8285 373.752 57.8285C378.6 57.8285 380.88 55.1165 380.88 51.1325V41.5325H377.424V51.0365C377.424 53.2685 376.2 54.8045 373.752 54.8045C371.256 54.8045 370.032 53.2685 370.032 51.0365V41.5325H366.576V51.1565ZM387.733 57.5405H391.165V44.5325H395.821V41.5325H383.053V44.5325H387.733V57.5405ZM411.779 57.8285C415.427 57.8285 417.443 55.8845 418.595 53.8925L415.667 52.4765C414.995 53.7965 413.555 54.8045 411.779 54.8045C408.995 54.8045 406.883 52.5725 406.883 49.5485C406.883 46.5245 408.995 44.2925 411.779 44.2925C413.555 44.2925 414.995 45.3245 415.667 46.6205L418.595 45.1805C417.467 43.1885 415.427 41.2685 411.779 41.2685C407.099 41.2685 403.379 44.6285 403.379 49.5485C403.379 54.4685 407.099 57.8285 411.779 57.8285ZM419.855 49.5485C419.855 54.3725 423.383 57.8285 428.207 57.8285C433.055 57.8285 436.583 54.3725 436.583 49.5485C436.583 44.7245 433.055 41.2685 428.207 41.2685C423.383 41.2685 419.855 44.7245 419.855 49.5485ZM433.079 49.5485C433.079 52.5245 431.159 54.8045 428.207 54.8045C425.255 54.8045 423.359 52.5245 423.359 49.5485C423.359 46.5485 425.255 44.2925 428.207 44.2925C431.159 44.2925 433.079 46.5485 433.079 49.5485ZM452.895 57.5405H456.327V41.5325H451.527L447.639 51.5165L443.751 41.5325H438.975V57.5405H442.383V46.0205L446.895 57.5405H448.383L452.895 46.0205V57.5405ZM459.506 57.5405H462.914V51.8045H466.994C470.45 51.8045 472.37 49.4765 472.37 46.6925C472.37 43.8845 470.474 41.5325 466.994 41.5325H459.506V57.5405ZM468.89 46.6685C468.89 48.0125 467.882 48.8765 466.538 48.8765H462.914V44.4605H466.538C467.882 44.4605 468.89 45.3485 468.89 46.6685ZM483.909 57.5405H487.629L481.461 41.5325H477.189L470.997 57.5405H474.741L475.749 54.7805H482.901L483.909 57.5405ZM479.325 44.4845L481.965 51.8285H476.661L479.325 44.4845ZM498.155 57.5405H502.067L498.467 51.4445C500.195 51.0365 501.971 49.5245 501.971 46.6925C501.971 43.7165 499.931 41.5325 496.595 41.5325H489.107V57.5405H492.515V51.8045H495.011L498.155 57.5405ZM498.491 46.6685C498.491 48.0125 497.459 48.8765 496.091 48.8765H492.515V44.4605H496.091C497.459 44.4605 498.491 45.3245 498.491 46.6685ZM504.529 57.5405H507.937V41.5325H504.529V57.5405ZM510.011 55.2845C511.523 56.7965 513.731 57.8285 516.803 57.8285C521.123 57.8285 523.211 55.6205 523.211 52.6925C523.211 49.1405 519.851 48.3485 517.211 47.7485C515.363 47.3165 514.019 46.9805 514.019 45.9005C514.019 44.9405 514.835 44.2685 516.371 44.2685C517.931 44.2685 519.659 44.8205 520.955 46.0205L522.851 43.5245C521.267 42.0605 519.155 41.2925 516.611 41.2925C512.843 41.2925 510.539 43.4525 510.539 46.1165C510.539 49.6925 513.899 50.4125 516.515 51.0125C518.363 51.4445 519.755 51.8525 519.755 53.0525C519.755 53.9645 518.843 54.8525 516.971 54.8525C514.763 54.8525 513.011 53.8685 511.883 52.6925L510.011 55.2845ZM525.506 57.5405H528.914V41.5325H525.506V57.5405ZM531.324 49.5485C531.324 54.3725 534.852 57.8285 539.676 57.8285C544.524 57.8285 548.052 54.3725 548.052 49.5485C548.052 44.7245 544.524 41.2685 539.676 41.2685C534.852 41.2685 531.324 44.7245 531.324 49.5485ZM544.548 49.5485C544.548 52.5245 542.628 54.8045 539.676 54.8045C536.724 54.8045 534.828 52.5245 534.828 49.5485C534.828 46.5485 536.724 44.2925 539.676 44.2925C542.628 44.2925 544.548 46.5485 544.548 49.5485ZM561.483 57.5405H564.771V41.5325H561.363V51.9005L553.947 41.5325H550.443V57.5405H553.851V46.7885L561.483 57.5405Z" fill="#244583"/>
<defs>
<linearGradient id="paint0_linear" x1="334" y1="0" x2="334" y2="477" gradientUnits="userSpaceOnUse">
<stop offset="0.21875" stop-color="white"/>
<stop offset="1" stop-color="#DBFDF5"/>
</linearGradient>
<linearGradient id="paint1_linear" x1="563.112" y1="306.861" x2="563.112" y2="369.274" gradientUnits="userSpaceOnUse">
<stop stop-color="#AC80FF"/>
<stop offset="1" stop-color="#FFEAB9"/>
</linearGradient>
<linearGradient id="paint2_linear" x1="451.29" y1="191.572" x2="451.29" y2="369.274" gradientUnits="userSpaceOnUse">
<stop stop-color="#147CB6"/>
<stop offset="1" stop-color="#A8E0FF"/>
</linearGradient>
<linearGradient id="paint3_linear" x1="594" y1="278" x2="594" y2="369" gradientUnits="userSpaceOnUse">
<stop stop-color="#147CB6"/>
<stop offset="1" stop-color="#A8E0FF"/>
</linearGradient>
<linearGradient id="paint4_linear" x1="420.084" y1="330.266" x2="420.084" y2="369.274" gradientUnits="userSpaceOnUse">
<stop stop-color="#AC80FF"/>
<stop offset="1" stop-color="#FFEAB9"/>
</linearGradient>
<linearGradient id="paint5_linear" x1="388.877" y1="162.966" x2="388.877" y2="369.274" gradientUnits="userSpaceOnUse">
<stop stop-color="#24C4A1"/>
<stop offset="1" stop-color="#9FEFDE"/>
</linearGradient>
<linearGradient id="paint6_linear" x1="254" y1="368" x2="254" y2="369" gradientUnits="userSpaceOnUse">
<stop stop-color="#24C4A1"/>
<stop offset="1" stop-color="#D5FFF6"/>
</linearGradient>
<linearGradient id="paint7_linear" x1="137" y1="364" x2="137" y2="369" gradientUnits="userSpaceOnUse">
<stop stop-color="#24C4A1"/>
<stop offset="1" stop-color="#FFEAB8"/>
</linearGradient>
<linearGradient id="paint8_linear" x1="532" y1="231" x2="532" y2="369" gradientUnits="userSpaceOnUse">
<stop stop-color="#24C4A1"/>
<stop offset="1" stop-color="#9FEFDE"/>
</linearGradient>
<linearGradient id="paint9_linear" x1="168.7" y1="364.939" x2="168.7" y2="369.274" gradientUnits="userSpaceOnUse">
<stop stop-color="#AC80FF"/>
<stop offset="1" stop-color="#FFE8B3"/>
</linearGradient>
<linearGradient id="paint10_linear" x1="284.856" y1="368.407" x2="284.856" y2="369.274" gradientUnits="userSpaceOnUse">
<stop stop-color="#AC80FF"/>
<stop offset="1" stop-color="#FFE6AB"/>
</linearGradient>
</defs>
</svg>
