<svg width="472" height="477" viewBox="0 0 472 477" fill="none" xmlns="http://www.w3.org/2000/svg">
<rect x="0.5" y="0.5" width="471" height="476" rx="29.5" fill="url(#paint0_linear)" stroke="#244583"/>
<path d="M0.5 449.024C0.5 433.98 12.6953 421.785 27.7389 421.785H444.261C459.305 421.785 471.5 433.98 471.5 449.024C471.5 464.067 459.305 476.262 444.261 476.262H27.7389C12.6953 476.262 0.5 464.067 0.5 449.024Z" fill="white" stroke="#244583"/>
<rect x="222" y="435" width="129" height="30" rx="7" fill="url(#paint1_linear)"/>
<path d="M121.248 455H122.576V444.328H121.248V455ZM134.356 455H135.556V449.416C135.556 447.864 134.804 447.08 133.396 447.08C132.276 447.08 131.236 447.816 130.804 448.52C130.58 447.72 129.908 447.08 128.724 447.08C127.588 447.08 126.548 447.896 126.228 448.392V447.272H125.028V455H126.228V449.352C126.644 448.728 127.476 448.152 128.26 448.152C129.268 448.152 129.684 448.776 129.684 449.752V455H130.884V449.336C131.284 448.728 132.132 448.152 132.932 448.152C133.924 448.152 134.356 448.776 134.356 449.752V455ZM147.278 455H148.478V449.416C148.478 447.864 147.726 447.08 146.318 447.08C145.198 447.08 144.158 447.816 143.726 448.52C143.502 447.72 142.83 447.08 141.646 447.08C140.51 447.08 139.47 447.896 139.15 448.392V447.272H137.95V455H139.15V449.352C139.566 448.728 140.398 448.152 141.182 448.152C142.19 448.152 142.606 448.776 142.606 449.752V455H143.806V449.336C144.206 448.728 145.054 448.152 145.854 448.152C146.846 448.152 147.278 448.776 147.278 449.752V455ZM156.088 455H157.288V447.272H156.088V452.952C155.64 453.576 154.744 454.12 153.8 454.12C152.76 454.12 152.072 453.72 152.072 452.36V447.272H150.872V452.728C150.872 454.408 151.72 455.192 153.336 455.192C154.488 455.192 155.496 454.584 156.088 453.912V455ZM165.284 455H166.484V444.328H165.284V448.44C164.66 447.592 163.716 447.08 162.676 447.08C160.644 447.08 159.236 448.68 159.236 451.144C159.236 453.656 160.66 455.192 162.676 455.192C163.764 455.192 164.708 454.632 165.284 453.848V455ZM165.284 452.904C164.852 453.576 163.924 454.12 162.964 454.12C161.412 454.12 160.484 452.856 160.484 451.144C160.484 449.432 161.412 448.152 162.964 448.152C163.924 448.152 164.852 448.728 165.284 449.4V452.904ZM168.888 455H170.088V453.848C170.664 454.632 171.608 455.192 172.696 455.192C174.712 455.192 176.135 453.656 176.135 451.144C176.135 448.68 174.712 447.08 172.696 447.08C171.64 447.08 170.712 447.592 170.088 448.44V444.328H168.888V455ZM170.088 452.904V449.4C170.504 448.728 171.448 448.152 172.391 448.152C173.96 448.152 174.888 449.432 174.888 451.144C174.888 452.856 173.96 454.12 172.391 454.12C171.448 454.12 170.504 453.576 170.088 452.904Z" fill="#13274B"/>
<path d="M245.056 450.744C245.056 453.368 246.576 455.192 249.84 455.192C253.072 455.192 254.592 453.384 254.592 450.728V444.328H252.288V450.664C252.288 452.152 251.472 453.176 249.84 453.176C248.176 453.176 247.36 452.152 247.36 450.664V444.328H245.056V450.744ZM264.057 455H266.249V444.328H263.977V451.24L259.033 444.328H256.697V455H258.969V447.832L264.057 455ZM268.353 455H275.137V453H270.625V444.328H268.353V455ZM276.728 455H279V444.328H276.728V455ZM290.399 455H292.687V444.328H289.487L286.895 450.984L284.303 444.328H281.118V455H283.391V447.32L286.399 455H287.391L290.399 447.32V455ZM294.806 455H297.078V444.328H294.806V455ZM301.661 455H303.949V446.328H307.053V444.328H298.541V446.328H301.661V455ZM308.509 455H316.061V453.032H310.781V450.552H315.949V448.6H310.781V446.28H316.061V444.328H308.509V455ZM317.837 455H322.045C325.389 455 327.709 452.888 327.709 449.672C327.709 446.456 325.389 444.328 322.045 444.328H317.837V455ZM320.109 453V446.328H322.045C324.237 446.328 325.389 447.784 325.389 449.672C325.389 451.48 324.157 453 322.045 453H320.109Z" fill="white"/>
<path d="M200 458L207.5 450.5L200 443" stroke="#24C4A1" stroke-width="3" stroke-linecap="round" stroke-linejoin="round"/>
<path d="M189 450.516C189 450.114 189.159 449.729 189.442 449.445C189.726 449.161 190.11 449.001 190.51 449.001L206.471 449.001C206.424 448.954 206.5 450.474 206.471 452.031L190.51 452.031C190.11 452.031 189.726 451.872 189.442 451.588C189.159 451.303 189 450.918 189 450.516Z" fill="#24C4A1"/>
<path d="M123.816 387.672C123.816 390.824 125.944 393.192 129.112 393.192C132.264 393.192 134.408 390.824 134.408 387.672C134.408 384.52 132.264 382.152 129.112 382.152C125.944 382.152 123.816 384.52 123.816 387.672ZM133.032 387.672C133.032 390.152 131.496 392.008 129.112 392.008C126.712 392.008 125.192 390.152 125.192 387.672C125.192 385.176 126.712 383.336 129.112 383.336C131.496 383.336 133.032 385.176 133.032 387.672ZM136.434 393H137.634V387.528C137.986 386.904 138.994 386.296 139.73 386.296C139.922 386.296 140.066 386.312 140.21 386.344V385.112C139.154 385.112 138.258 385.704 137.634 386.52V385.272H136.434V393ZM146.548 393H147.748V387.688C147.748 385.816 146.388 385.08 144.756 385.08C143.492 385.08 142.5 385.496 141.668 386.36L142.228 387.192C142.916 386.456 143.668 386.12 144.596 386.12C145.716 386.12 146.548 386.712 146.548 387.752V389.144C145.924 388.424 145.044 388.088 143.988 388.088C142.676 388.088 141.284 388.904 141.284 390.632C141.284 392.312 142.676 393.192 143.988 393.192C145.028 393.192 145.908 392.824 146.548 392.12V393ZM146.548 391.368C146.084 392.008 145.268 392.328 144.42 392.328C143.3 392.328 142.516 391.624 142.516 390.648C142.516 389.656 143.3 388.952 144.42 388.952C145.268 388.952 146.084 389.272 146.548 389.912V391.368ZM149.705 389.128C149.705 391.432 151.257 393.192 153.561 393.192C154.969 393.192 155.801 392.616 156.393 391.848L155.593 391.112C155.081 391.8 154.425 392.12 153.625 392.12C151.977 392.12 150.953 390.84 150.953 389.128C150.953 387.416 151.977 386.152 153.625 386.152C154.425 386.152 155.081 386.456 155.593 387.16L156.393 386.424C155.801 385.656 154.969 385.08 153.561 385.08C151.257 385.08 149.705 386.84 149.705 389.128ZM158.075 393H159.275V382.328H158.075V393ZM161.221 389.128C161.221 391.544 162.869 393.192 165.157 393.192C166.421 393.192 167.461 392.776 168.229 392.008L167.653 391.224C167.045 391.848 166.149 392.2 165.269 392.2C163.605 392.2 162.581 390.984 162.485 389.528H168.741V389.224C168.741 386.904 167.365 385.08 165.029 385.08C162.821 385.08 161.221 386.888 161.221 389.128ZM165.013 386.072C166.773 386.072 167.541 387.496 167.557 388.648H162.485C162.549 387.464 163.365 386.072 165.013 386.072Z" fill="#13274B"/>
<path d="M257.408 387.672C257.408 384.52 255.264 382.152 252.112 382.152C248.944 382.152 246.816 384.52 246.816 387.672C246.816 390.824 248.944 393.192 252.112 393.192C253.216 393.192 254.192 392.904 255.008 392.392L256.032 393.496L256.96 392.696L255.952 391.608C256.88 390.616 257.408 389.24 257.408 387.672ZM252.112 392.008C249.712 392.008 248.192 390.152 248.192 387.672C248.192 385.176 249.712 383.336 252.112 383.336C254.496 383.336 256.032 385.176 256.032 387.672C256.032 388.856 255.68 389.896 255.056 390.648L253.552 389.032L252.624 389.816L254.144 391.464C253.568 391.816 252.896 392.008 252.112 392.008ZM259.482 393H265.77V391.816H260.81V382.328H259.482V393ZM267.639 393H271.287C274.599 393 276.759 390.712 276.759 387.672C276.759 384.648 274.599 382.328 271.287 382.328H267.639V393ZM268.967 391.816V383.512H271.287C273.927 383.512 275.383 385.368 275.383 387.672C275.383 389.96 273.879 391.816 271.287 391.816H268.967ZM278.842 393H283.706C285.658 393 286.794 391.832 286.794 390.12C286.794 388.84 285.85 387.672 284.714 387.496C285.69 387.288 286.586 386.392 286.586 385.048C286.586 383.448 285.45 382.328 283.594 382.328H278.842V393ZM280.17 386.952V383.512H283.37C284.57 383.512 285.21 384.28 285.21 385.24C285.21 386.216 284.57 386.952 283.37 386.952H280.17ZM280.17 391.816V388.136H283.434C284.746 388.136 285.418 389 285.418 389.976C285.418 391.112 284.682 391.816 283.434 391.816H280.17Z" fill="#13274B"/>
<path d="M352.545 393.192C354.481 393.192 355.761 392.296 356.657 391.08L355.521 390.456C354.913 391.368 353.809 392.008 352.545 392.008C350.257 392.008 348.481 390.2 348.481 387.672C348.481 385.128 350.257 383.336 352.545 383.336C353.809 383.336 354.913 383.992 355.521 384.888L356.641 384.264C355.793 383.064 354.481 382.152 352.545 382.152C349.521 382.152 347.105 384.392 347.105 387.672C347.105 390.952 349.521 393.192 352.545 393.192ZM361.678 393.192C364.03 393.192 365.502 391.368 365.502 389.128C365.502 386.888 364.03 385.08 361.678 385.08C359.326 385.08 357.854 386.888 357.854 389.128C357.854 391.368 359.326 393.192 361.678 393.192ZM361.678 392.12C360.03 392.12 359.102 390.712 359.102 389.128C359.102 387.56 360.03 386.152 361.678 386.152C363.326 386.152 364.238 387.56 364.238 389.128C364.238 390.712 363.326 392.12 361.678 392.12ZM373.058 393H374.258V382.328H373.058V386.44C372.434 385.592 371.49 385.08 370.45 385.08C368.418 385.08 367.01 386.68 367.01 389.144C367.01 391.656 368.434 393.192 370.45 393.192C371.538 393.192 372.482 392.632 373.058 391.848V393ZM373.058 390.904C372.626 391.576 371.698 392.12 370.738 392.12C369.186 392.12 368.258 390.856 368.258 389.144C368.258 387.432 369.186 386.152 370.738 386.152C371.698 386.152 372.626 386.728 373.058 387.4V390.904ZM376.213 389.128C376.213 391.544 377.861 393.192 380.149 393.192C381.413 393.192 382.453 392.776 383.221 392.008L382.645 391.224C382.037 391.848 381.141 392.2 380.261 392.2C378.597 392.2 377.573 390.984 377.477 389.528H383.733V389.224C383.733 386.904 382.357 385.08 380.021 385.08C377.813 385.08 376.213 386.888 376.213 389.128ZM380.005 386.072C381.765 386.072 382.533 387.496 382.549 388.648H377.477C377.541 387.464 378.357 386.072 380.005 386.072ZM390.893 393H392.093V387.576C392.093 385.896 391.245 385.08 389.629 385.08C388.477 385.08 387.421 385.752 386.877 386.392V385.272H385.677V393H386.877V387.352C387.325 386.728 388.221 386.152 389.165 386.152C390.205 386.152 390.893 386.584 390.893 387.944V393ZM397.865 393.192C400.217 393.192 401.689 391.368 401.689 389.128C401.689 386.888 400.217 385.08 397.865 385.08C395.513 385.08 394.041 386.888 394.041 389.128C394.041 391.368 395.513 393.192 397.865 393.192ZM397.865 392.12C396.217 392.12 395.289 390.712 395.289 389.128C395.289 387.56 396.217 386.152 397.865 386.152C399.513 386.152 400.425 387.56 400.425 389.128C400.425 390.712 399.513 392.12 397.865 392.12ZM405.597 393.192C406.301 393.192 406.733 392.984 407.037 392.696L406.685 391.8C406.525 391.976 406.205 392.12 405.869 392.12C405.341 392.12 405.085 391.704 405.085 391.128V386.328H406.653V385.272H405.085V383.16H403.885V385.272H402.605V386.328H403.885V391.384C403.885 392.536 404.461 393.192 405.597 393.192ZM413.18 393H414.38V387.688C414.38 385.816 413.02 385.08 411.388 385.08C410.124 385.08 409.132 385.496 408.3 386.36L408.86 387.192C409.548 386.456 410.3 386.12 411.228 386.12C412.348 386.12 413.18 386.712 413.18 387.752V389.144C412.556 388.424 411.676 388.088 410.62 388.088C409.308 388.088 407.916 388.904 407.916 390.632C407.916 392.312 409.308 393.192 410.62 393.192C411.66 393.192 412.54 392.824 413.18 392.12V393ZM413.18 391.368C412.716 392.008 411.9 392.328 411.052 392.328C409.932 392.328 409.148 391.624 409.148 390.648C409.148 389.656 409.932 388.952 411.052 388.952C411.9 388.952 412.716 389.272 413.18 389.912V391.368ZM416.786 393H417.986V387.528C418.338 386.904 419.346 386.296 420.082 386.296C420.274 386.296 420.418 386.312 420.562 386.344V385.112C419.506 385.112 418.61 385.704 417.986 386.52V385.272H416.786V393ZM421.827 394.936L421.635 396.024C421.859 396.088 422.259 396.136 422.515 396.136C423.539 396.12 424.323 395.688 424.787 394.568L428.659 385.272H427.347L424.787 391.608L422.211 385.272H420.915L424.147 393.08L423.635 394.248C423.363 394.888 423.011 395.064 422.483 395.064C422.291 395.064 422.003 395.016 421.827 394.936Z" fill="#13274B"/>
<line x1="93" y1="369.5" x2="445" y2="369.5" stroke="#13274B"/>
<line x1="93" y1="302.5" x2="445" y2="302.5" stroke="#C1C1C1"/>
<line x1="93" y1="233.5" x2="445" y2="233.5" stroke="#C1C1C1"/>
<line x1="93" y1="163.5" x2="445" y2="163.5" stroke="#C1C1C1"/>
<line x1="93" y1="94.5" x2="445" y2="94.5" stroke="#C1C1C1"/>
<path d="M79.2643 370.004C79.2643 371.948 80.1283 374.144 82.3243 374.144C84.5083 374.144 85.3843 371.948 85.3843 370.004C85.3843 368.048 84.5083 365.876 82.3243 365.876C80.1283 365.876 79.2643 368.048 79.2643 370.004ZM84.3643 370.004C84.3643 371.6 83.8483 373.256 82.3243 373.256C80.8003 373.256 80.2843 371.6 80.2843 370.004C80.2843 368.408 80.8003 366.764 82.3243 366.764C83.8483 366.764 84.3643 368.408 84.3643 370.004Z" fill="#13274B"/>
<path d="M23.273 305H28.769V304.112H24.845C27.077 302.348 28.733 300.86 28.733 299.228C28.733 297.632 27.377 296.876 26.045 296.876C24.917 296.876 23.873 297.332 23.261 298.136L23.873 298.772C24.341 298.172 25.085 297.764 26.045 297.764C26.873 297.764 27.713 298.208 27.713 299.228C27.713 300.608 26.153 301.94 23.273 304.208V305ZM30.4717 303.86C31.0717 304.652 31.9357 305.144 33.2917 305.144C34.8997 305.144 36.1357 304.136 36.1357 302.504C36.1357 300.86 34.9237 299.948 33.5917 299.948C32.7877 299.948 32.1037 300.284 31.7197 300.668V297.884H35.6197V296.996H30.7237V301.316L31.4557 301.568C31.9957 301.04 32.5957 300.812 33.3037 300.812C34.3837 300.812 35.1397 301.484 35.1397 302.54C35.1397 303.512 34.3837 304.256 33.2917 304.256C32.3077 304.256 31.6117 303.872 31.0837 303.2L30.4717 303.86ZM37.8858 306.524C38.4378 306.128 38.8698 305.444 38.8698 304.712C38.8698 304.136 38.5098 303.8 38.1138 303.8C37.7538 303.8 37.4778 304.1 37.4778 304.448C37.4778 304.808 37.7178 305.06 38.0538 305.06C38.1138 305.06 38.1978 305.048 38.2218 305.036C38.1738 305.432 37.8258 305.9 37.4418 306.152L37.8858 306.524ZM40.1354 301.004C40.1354 302.948 40.9994 305.144 43.1954 305.144C45.3794 305.144 46.2554 302.948 46.2554 301.004C46.2554 299.048 45.3794 296.876 43.1954 296.876C40.9994 296.876 40.1354 299.048 40.1354 301.004ZM45.2354 301.004C45.2354 302.6 44.7194 304.256 43.1954 304.256C41.6714 304.256 41.1554 302.6 41.1554 301.004C41.1554 299.408 41.6714 297.764 43.1954 297.764C44.7194 297.764 45.2354 299.408 45.2354 301.004ZM47.4831 301.004C47.4831 302.948 48.3471 305.144 50.5431 305.144C52.7271 305.144 53.6031 302.948 53.6031 301.004C53.6031 299.048 52.7271 296.876 50.5431 296.876C48.3471 296.876 47.4831 299.048 47.4831 301.004ZM52.5831 301.004C52.5831 302.6 52.0671 304.256 50.5431 304.256C49.0191 304.256 48.5031 302.6 48.5031 301.004C48.5031 299.408 49.0191 297.764 50.5431 297.764C52.0671 297.764 52.5831 299.408 52.5831 301.004ZM54.8308 301.004C54.8308 302.948 55.6948 305.144 57.8908 305.144C60.0748 305.144 60.9508 302.948 60.9508 301.004C60.9508 299.048 60.0748 296.876 57.8908 296.876C55.6948 296.876 54.8308 299.048 54.8308 301.004ZM59.9308 301.004C59.9308 302.6 59.4148 304.256 57.8908 304.256C56.3668 304.256 55.8508 302.6 55.8508 301.004C55.8508 299.408 56.3668 297.764 57.8908 297.764C59.4148 297.764 59.9308 299.408 59.9308 301.004ZM62.3194 306.524C62.8714 306.128 63.3034 305.444 63.3034 304.712C63.3034 304.136 62.9434 303.8 62.5474 303.8C62.1874 303.8 61.9114 304.1 61.9114 304.448C61.9114 304.808 62.1514 305.06 62.4874 305.06C62.5474 305.06 62.6314 305.048 62.6554 305.036C62.6074 305.432 62.2594 305.9 61.8754 306.152L62.3194 306.524ZM64.569 301.004C64.569 302.948 65.433 305.144 67.629 305.144C69.813 305.144 70.689 302.948 70.689 301.004C70.689 299.048 69.813 296.876 67.629 296.876C65.433 296.876 64.569 299.048 64.569 301.004ZM69.669 301.004C69.669 302.6 69.153 304.256 67.629 304.256C66.105 304.256 65.589 302.6 65.589 301.004C65.589 299.408 66.105 297.764 67.629 297.764C69.153 297.764 69.669 299.408 69.669 301.004ZM71.9167 301.004C71.9167 302.948 72.7807 305.144 74.9767 305.144C77.1607 305.144 78.0367 302.948 78.0367 301.004C78.0367 299.048 77.1607 296.876 74.9767 296.876C72.7807 296.876 71.9167 299.048 71.9167 301.004ZM77.0167 301.004C77.0167 302.6 76.5007 304.256 74.9767 304.256C73.4527 304.256 72.9367 302.6 72.9367 301.004C72.9367 299.408 73.4527 297.764 74.9767 297.764C76.5007 297.764 77.0167 299.408 77.0167 301.004ZM79.2643 301.004C79.2643 302.948 80.1283 305.144 82.3243 305.144C84.5083 305.144 85.3843 302.948 85.3843 301.004C85.3843 299.048 84.5083 296.876 82.3243 296.876C80.1283 296.876 79.2643 299.048 79.2643 301.004ZM84.3643 301.004C84.3643 302.6 83.8483 304.256 82.3243 304.256C80.8003 304.256 80.2843 302.6 80.2843 301.004C80.2843 299.408 80.8003 297.764 82.3243 297.764C83.8483 297.764 84.3643 299.408 84.3643 301.004Z" fill="#13274B"/>
<path d="M23.499 235.86C24.099 236.652 24.963 237.144 26.319 237.144C27.927 237.144 29.163 236.136 29.163 234.504C29.163 232.86 27.951 231.948 26.619 231.948C25.815 231.948 25.131 232.284 24.747 232.668V229.884H28.647V228.996H23.751V233.316L24.483 233.568C25.023 233.04 25.623 232.812 26.331 232.812C27.411 232.812 28.167 233.484 28.167 234.54C28.167 235.512 27.411 236.256 26.319 236.256C25.335 236.256 24.639 235.872 24.111 235.2L23.499 235.86ZM30.3972 233.004C30.3972 234.948 31.2612 237.144 33.4572 237.144C35.6412 237.144 36.5172 234.948 36.5172 233.004C36.5172 231.048 35.6412 228.876 33.4572 228.876C31.2612 228.876 30.3972 231.048 30.3972 233.004ZM35.4972 233.004C35.4972 234.6 34.9812 236.256 33.4572 236.256C31.9332 236.256 31.4172 234.6 31.4172 233.004C31.4172 231.408 31.9332 229.764 33.4572 229.764C34.9812 229.764 35.4972 231.408 35.4972 233.004ZM37.8858 238.524C38.4378 238.128 38.8698 237.444 38.8698 236.712C38.8698 236.136 38.5098 235.8 38.1138 235.8C37.7538 235.8 37.4778 236.1 37.4778 236.448C37.4778 236.808 37.7178 237.06 38.0538 237.06C38.1138 237.06 38.1978 237.048 38.2218 237.036C38.1738 237.432 37.8258 237.9 37.4418 238.152L37.8858 238.524ZM40.1354 233.004C40.1354 234.948 40.9994 237.144 43.1954 237.144C45.3794 237.144 46.2554 234.948 46.2554 233.004C46.2554 231.048 45.3794 228.876 43.1954 228.876C40.9994 228.876 40.1354 231.048 40.1354 233.004ZM45.2354 233.004C45.2354 234.6 44.7194 236.256 43.1954 236.256C41.6714 236.256 41.1554 234.6 41.1554 233.004C41.1554 231.408 41.6714 229.764 43.1954 229.764C44.7194 229.764 45.2354 231.408 45.2354 233.004ZM47.4831 233.004C47.4831 234.948 48.3471 237.144 50.5431 237.144C52.7271 237.144 53.6031 234.948 53.6031 233.004C53.6031 231.048 52.7271 228.876 50.5431 228.876C48.3471 228.876 47.4831 231.048 47.4831 233.004ZM52.5831 233.004C52.5831 234.6 52.0671 236.256 50.5431 236.256C49.0191 236.256 48.5031 234.6 48.5031 233.004C48.5031 231.408 49.0191 229.764 50.5431 229.764C52.0671 229.764 52.5831 231.408 52.5831 233.004ZM54.8308 233.004C54.8308 234.948 55.6948 237.144 57.8908 237.144C60.0748 237.144 60.9508 234.948 60.9508 233.004C60.9508 231.048 60.0748 228.876 57.8908 228.876C55.6948 228.876 54.8308 231.048 54.8308 233.004ZM59.9308 233.004C59.9308 234.6 59.4148 236.256 57.8908 236.256C56.3668 236.256 55.8508 234.6 55.8508 233.004C55.8508 231.408 56.3668 229.764 57.8908 229.764C59.4148 229.764 59.9308 231.408 59.9308 233.004ZM62.3194 238.524C62.8714 238.128 63.3034 237.444 63.3034 236.712C63.3034 236.136 62.9434 235.8 62.5474 235.8C62.1874 235.8 61.9114 236.1 61.9114 236.448C61.9114 236.808 62.1514 237.06 62.4874 237.06C62.5474 237.06 62.6314 237.048 62.6554 237.036C62.6074 237.432 62.2594 237.9 61.8754 238.152L62.3194 238.524ZM64.569 233.004C64.569 234.948 65.433 237.144 67.629 237.144C69.813 237.144 70.689 234.948 70.689 233.004C70.689 231.048 69.813 228.876 67.629 228.876C65.433 228.876 64.569 231.048 64.569 233.004ZM69.669 233.004C69.669 234.6 69.153 236.256 67.629 236.256C66.105 236.256 65.589 234.6 65.589 233.004C65.589 231.408 66.105 229.764 67.629 229.764C69.153 229.764 69.669 231.408 69.669 233.004ZM71.9167 233.004C71.9167 234.948 72.7807 237.144 74.9767 237.144C77.1607 237.144 78.0367 234.948 78.0367 233.004C78.0367 231.048 77.1607 228.876 74.9767 228.876C72.7807 228.876 71.9167 231.048 71.9167 233.004ZM77.0167 233.004C77.0167 234.6 76.5007 236.256 74.9767 236.256C73.4527 236.256 72.9367 234.6 72.9367 233.004C72.9367 231.408 73.4527 229.764 74.9767 229.764C76.5007 229.764 77.0167 231.408 77.0167 233.004ZM79.2643 233.004C79.2643 234.948 80.1283 237.144 82.3243 237.144C84.5083 237.144 85.3843 234.948 85.3843 233.004C85.3843 231.048 84.5083 228.876 82.3243 228.876C80.1283 228.876 79.2643 231.048 79.2643 233.004ZM84.3643 233.004C84.3643 234.6 83.8483 236.256 82.3243 236.256C80.8003 236.256 80.2843 234.6 80.2843 233.004C80.2843 231.408 80.8003 229.764 82.3243 229.764C83.8483 229.764 84.3643 231.408 84.3643 233.004Z" fill="#13274B"/>
<path d="M24.9559 168H26.0599L29.3359 160.68V159.996H23.8759V160.884H28.1839L24.9559 168ZM30.4717 166.86C31.0717 167.652 31.9357 168.144 33.2917 168.144C34.8997 168.144 36.1357 167.136 36.1357 165.504C36.1357 163.86 34.9237 162.948 33.5917 162.948C32.7877 162.948 32.1037 163.284 31.7197 163.668V160.884H35.6197V159.996H30.7237V164.316L31.4557 164.568C31.9957 164.04 32.5957 163.812 33.3037 163.812C34.3837 163.812 35.1397 164.484 35.1397 165.54C35.1397 166.512 34.3837 167.256 33.2917 167.256C32.3077 167.256 31.6117 166.872 31.0837 166.2L30.4717 166.86ZM37.8858 169.524C38.4378 169.128 38.8698 168.444 38.8698 167.712C38.8698 167.136 38.5098 166.8 38.1138 166.8C37.7538 166.8 37.4778 167.1 37.4778 167.448C37.4778 167.808 37.7178 168.06 38.0538 168.06C38.1138 168.06 38.1978 168.048 38.2218 168.036C38.1738 168.432 37.8258 168.9 37.4418 169.152L37.8858 169.524ZM40.1354 164.004C40.1354 165.948 40.9994 168.144 43.1954 168.144C45.3794 168.144 46.2554 165.948 46.2554 164.004C46.2554 162.048 45.3794 159.876 43.1954 159.876C40.9994 159.876 40.1354 162.048 40.1354 164.004ZM45.2354 164.004C45.2354 165.6 44.7194 167.256 43.1954 167.256C41.6714 167.256 41.1554 165.6 41.1554 164.004C41.1554 162.408 41.6714 160.764 43.1954 160.764C44.7194 160.764 45.2354 162.408 45.2354 164.004ZM47.4831 164.004C47.4831 165.948 48.3471 168.144 50.5431 168.144C52.7271 168.144 53.6031 165.948 53.6031 164.004C53.6031 162.048 52.7271 159.876 50.5431 159.876C48.3471 159.876 47.4831 162.048 47.4831 164.004ZM52.5831 164.004C52.5831 165.6 52.0671 167.256 50.5431 167.256C49.0191 167.256 48.5031 165.6 48.5031 164.004C48.5031 162.408 49.0191 160.764 50.5431 160.764C52.0671 160.764 52.5831 162.408 52.5831 164.004ZM54.8308 164.004C54.8308 165.948 55.6948 168.144 57.8908 168.144C60.0748 168.144 60.9508 165.948 60.9508 164.004C60.9508 162.048 60.0748 159.876 57.8908 159.876C55.6948 159.876 54.8308 162.048 54.8308 164.004ZM59.9308 164.004C59.9308 165.6 59.4148 167.256 57.8908 167.256C56.3668 167.256 55.8508 165.6 55.8508 164.004C55.8508 162.408 56.3668 160.764 57.8908 160.764C59.4148 160.764 59.9308 162.408 59.9308 164.004ZM62.3194 169.524C62.8714 169.128 63.3034 168.444 63.3034 167.712C63.3034 167.136 62.9434 166.8 62.5474 166.8C62.1874 166.8 61.9114 167.1 61.9114 167.448C61.9114 167.808 62.1514 168.06 62.4874 168.06C62.5474 168.06 62.6314 168.048 62.6554 168.036C62.6074 168.432 62.2594 168.9 61.8754 169.152L62.3194 169.524ZM64.569 164.004C64.569 165.948 65.433 168.144 67.629 168.144C69.813 168.144 70.689 165.948 70.689 164.004C70.689 162.048 69.813 159.876 67.629 159.876C65.433 159.876 64.569 162.048 64.569 164.004ZM69.669 164.004C69.669 165.6 69.153 167.256 67.629 167.256C66.105 167.256 65.589 165.6 65.589 164.004C65.589 162.408 66.105 160.764 67.629 160.764C69.153 160.764 69.669 162.408 69.669 164.004ZM71.9167 164.004C71.9167 165.948 72.7807 168.144 74.9767 168.144C77.1607 168.144 78.0367 165.948 78.0367 164.004C78.0367 162.048 77.1607 159.876 74.9767 159.876C72.7807 159.876 71.9167 162.048 71.9167 164.004ZM77.0167 164.004C77.0167 165.6 76.5007 167.256 74.9767 167.256C73.4527 167.256 72.9367 165.6 72.9367 164.004C72.9367 162.408 73.4527 160.764 74.9767 160.764C76.5007 160.764 77.0167 162.408 77.0167 164.004ZM79.2643 164.004C79.2643 165.948 80.1283 168.144 82.3243 168.144C84.5083 168.144 85.3843 165.948 85.3843 164.004C85.3843 162.048 84.5083 159.876 82.3243 159.876C80.1283 159.876 79.2643 162.048 79.2643 164.004ZM84.3643 164.004C84.3643 165.6 83.8483 167.256 82.3243 167.256C80.8003 167.256 80.2843 165.6 80.2843 164.004C80.2843 162.408 80.8003 160.764 82.3243 160.764C83.8483 160.764 84.3643 162.408 84.3643 164.004Z" fill="#13274B"/>
<path d="M20.5071 99H21.5031V90.996H20.6271L18.6231 93.06L19.2231 93.672L20.5071 92.316V99ZM23.0495 95.004C23.0495 96.948 23.9135 99.144 26.1095 99.144C28.2935 99.144 29.1695 96.948 29.1695 95.004C29.1695 93.048 28.2935 90.876 26.1095 90.876C23.9135 90.876 23.0495 93.048 23.0495 95.004ZM28.1495 95.004C28.1495 96.6 27.6335 98.256 26.1095 98.256C24.5855 98.256 24.0695 96.6 24.0695 95.004C24.0695 93.408 24.5855 91.764 26.1095 91.764C27.6335 91.764 28.1495 93.408 28.1495 95.004ZM30.3972 95.004C30.3972 96.948 31.2612 99.144 33.4572 99.144C35.6412 99.144 36.5172 96.948 36.5172 95.004C36.5172 93.048 35.6412 90.876 33.4572 90.876C31.2612 90.876 30.3972 93.048 30.3972 95.004ZM35.4972 95.004C35.4972 96.6 34.9812 98.256 33.4572 98.256C31.9332 98.256 31.4172 96.6 31.4172 95.004C31.4172 93.408 31.9332 91.764 33.4572 91.764C34.9812 91.764 35.4972 93.408 35.4972 95.004ZM37.8858 100.524C38.4378 100.128 38.8698 99.444 38.8698 98.712C38.8698 98.136 38.5098 97.8 38.1138 97.8C37.7538 97.8 37.4778 98.1 37.4778 98.448C37.4778 98.808 37.7178 99.06 38.0538 99.06C38.1138 99.06 38.1978 99.048 38.2218 99.036C38.1738 99.432 37.8258 99.9 37.4418 100.152L37.8858 100.524ZM40.1354 95.004C40.1354 96.948 40.9994 99.144 43.1954 99.144C45.3794 99.144 46.2554 96.948 46.2554 95.004C46.2554 93.048 45.3794 90.876 43.1954 90.876C40.9994 90.876 40.1354 93.048 40.1354 95.004ZM45.2354 95.004C45.2354 96.6 44.7194 98.256 43.1954 98.256C41.6714 98.256 41.1554 96.6 41.1554 95.004C41.1554 93.408 41.6714 91.764 43.1954 91.764C44.7194 91.764 45.2354 93.408 45.2354 95.004ZM47.4831 95.004C47.4831 96.948 48.3471 99.144 50.5431 99.144C52.7271 99.144 53.6031 96.948 53.6031 95.004C53.6031 93.048 52.7271 90.876 50.5431 90.876C48.3471 90.876 47.4831 93.048 47.4831 95.004ZM52.5831 95.004C52.5831 96.6 52.0671 98.256 50.5431 98.256C49.0191 98.256 48.5031 96.6 48.5031 95.004C48.5031 93.408 49.0191 91.764 50.5431 91.764C52.0671 91.764 52.5831 93.408 52.5831 95.004ZM54.8308 95.004C54.8308 96.948 55.6948 99.144 57.8908 99.144C60.0748 99.144 60.9508 96.948 60.9508 95.004C60.9508 93.048 60.0748 90.876 57.8908 90.876C55.6948 90.876 54.8308 93.048 54.8308 95.004ZM59.9308 95.004C59.9308 96.6 59.4148 98.256 57.8908 98.256C56.3668 98.256 55.8508 96.6 55.8508 95.004C55.8508 93.408 56.3668 91.764 57.8908 91.764C59.4148 91.764 59.9308 93.408 59.9308 95.004ZM62.3194 100.524C62.8714 100.128 63.3034 99.444 63.3034 98.712C63.3034 98.136 62.9434 97.8 62.5474 97.8C62.1874 97.8 61.9114 98.1 61.9114 98.448C61.9114 98.808 62.1514 99.06 62.4874 99.06C62.5474 99.06 62.6314 99.048 62.6554 99.036C62.6074 99.432 62.2594 99.9 61.8754 100.152L62.3194 100.524ZM64.569 95.004C64.569 96.948 65.433 99.144 67.629 99.144C69.813 99.144 70.689 96.948 70.689 95.004C70.689 93.048 69.813 90.876 67.629 90.876C65.433 90.876 64.569 93.048 64.569 95.004ZM69.669 95.004C69.669 96.6 69.153 98.256 67.629 98.256C66.105 98.256 65.589 96.6 65.589 95.004C65.589 93.408 66.105 91.764 67.629 91.764C69.153 91.764 69.669 93.408 69.669 95.004ZM71.9167 95.004C71.9167 96.948 72.7807 99.144 74.9767 99.144C77.1607 99.144 78.0367 96.948 78.0367 95.004C78.0367 93.048 77.1607 90.876 74.9767 90.876C72.7807 90.876 71.9167 93.048 71.9167 95.004ZM77.0167 95.004C77.0167 96.6 76.5007 98.256 74.9767 98.256C73.4527 98.256 72.9367 96.6 72.9367 95.004C72.9367 93.408 73.4527 91.764 74.9767 91.764C76.5007 91.764 77.0167 93.408 77.0167 95.004ZM79.2643 95.004C79.2643 96.948 80.1283 99.144 82.3243 99.144C84.5083 99.144 85.3843 96.948 85.3843 95.004C85.3843 93.048 84.5083 90.876 82.3243 90.876C80.1283 90.876 79.2643 93.048 79.2643 95.004ZM84.3643 95.004C84.3643 96.6 83.8483 98.256 82.3243 98.256C80.8003 98.256 80.2843 96.6 80.2843 95.004C80.2843 93.408 80.8003 91.764 82.3243 91.764C83.8483 91.764 84.3643 93.408 84.3643 95.004Z" fill="#13274B"/>
<path d="M346 246C346 223.909 363.909 206 386 206C408.091 206 426 223.909 426 246V369H346V246Z" fill="url(#paint2_linear)"/>
<path d="M228 369C228 365.686 230.686 363 234 363H302C305.314 363 308 365.686 308 369H228Z" fill="url(#paint3_linear)"/>
<path d="M110 369C110 368.448 110.448 368 111 368H189C189.552 368 190 368.448 190 369H110Z" fill="#36D6D0"/>
<path d="M355.697 196.944C356.381 197.688 357.389 198.144 358.781 198.144C360.713 198.144 361.985 197.076 361.985 195.384C361.985 193.764 360.773 192.792 359.417 192.792C358.685 192.792 358.037 193.092 357.617 193.464V191.46H361.445V189.996H355.949V194.568L357.137 194.892C357.617 194.436 358.157 194.232 358.817 194.232C359.729 194.232 360.257 194.724 360.257 195.456C360.257 196.116 359.717 196.656 358.769 196.656C357.929 196.656 357.185 196.356 356.633 195.792L355.697 196.944ZM363.214 197.304C363.778 197.808 364.594 198.132 365.566 198.132C367.93 198.132 369.286 196.416 369.286 194.004C369.286 191.736 368.266 189.864 365.842 189.864C364.018 189.864 362.77 191.052 362.77 192.612C362.77 194.316 364.066 195.204 365.506 195.204C366.382 195.204 367.186 194.712 367.57 194.172V194.34C367.57 195.552 366.85 196.644 365.566 196.644C364.858 196.644 364.402 196.428 363.97 196.032L363.214 197.304ZM367.558 193.02C367.174 193.488 366.586 193.764 365.986 193.764C365.218 193.764 364.51 193.392 364.51 192.54C364.51 191.976 365.002 191.34 365.914 191.34C367.054 191.34 367.486 192.252 367.558 193.02ZM370.797 199.644C371.529 199.116 372.033 198.312 372.033 197.412C372.033 196.632 371.517 196.188 370.953 196.188C370.449 196.188 370.017 196.62 370.017 197.148C370.017 197.664 370.377 198.024 370.833 198.024C370.917 198.024 371.025 198 371.061 197.988C370.965 198.408 370.521 198.9 370.137 199.104L370.797 199.644ZM372.931 194.016C372.931 196.272 373.951 198.144 376.387 198.144C378.211 198.144 379.447 196.956 379.447 195.396C379.447 193.692 378.163 192.816 376.723 192.816C375.847 192.816 375.043 193.296 374.671 193.836C374.659 193.788 374.659 193.728 374.659 193.668C374.659 192.396 375.451 191.352 376.663 191.352C377.371 191.352 377.827 191.58 378.259 191.988L379.027 190.704C378.451 190.212 377.635 189.876 376.663 189.876C374.299 189.876 372.931 191.592 372.931 194.016ZM377.719 195.468C377.719 196.032 377.227 196.656 376.303 196.656C375.175 196.656 374.743 195.768 374.671 195C375.055 194.532 375.631 194.232 376.231 194.232C377.011 194.232 377.719 194.604 377.719 195.468ZM382.26 198H383.964V189.996H382.476L379.956 192.528L380.928 193.548L382.26 192.192V198ZM388.886 198H390.59V196.344H391.622V194.844H390.59V189.996H388.238L385.058 195V196.344H388.886V198ZM388.886 191.508V194.844H386.726L388.886 191.508ZM393.262 199.644C393.994 199.116 394.498 198.312 394.498 197.412C394.498 196.632 393.982 196.188 393.418 196.188C392.914 196.188 392.482 196.62 392.482 197.148C392.482 197.664 392.842 198.024 393.298 198.024C393.382 198.024 393.49 198 393.526 197.988C393.43 198.408 392.986 198.9 392.602 199.104L393.262 199.644ZM395.792 197.304C396.356 197.808 397.172 198.132 398.144 198.132C400.508 198.132 401.864 196.416 401.864 194.004C401.864 191.736 400.844 189.864 398.42 189.864C396.596 189.864 395.348 191.052 395.348 192.612C395.348 194.316 396.644 195.204 398.084 195.204C398.96 195.204 399.764 194.712 400.148 194.172V194.34C400.148 195.552 399.428 196.644 398.144 196.644C397.436 196.644 396.98 196.428 396.548 196.032L395.792 197.304ZM400.136 193.02C399.752 193.488 399.164 193.764 398.564 193.764C397.796 193.764 397.088 193.392 397.088 192.54C397.088 191.976 397.58 191.34 398.492 191.34C399.632 191.34 400.064 192.252 400.136 193.02ZM403.093 197.304C403.657 197.808 404.473 198.132 405.445 198.132C407.809 198.132 409.165 196.416 409.165 194.004C409.165 191.736 408.145 189.864 405.721 189.864C403.897 189.864 402.649 191.052 402.649 192.612C402.649 194.316 403.945 195.204 405.385 195.204C406.261 195.204 407.065 194.712 407.449 194.172V194.34C407.449 195.552 406.729 196.644 405.445 196.644C404.737 196.644 404.281 196.428 403.849 196.032L403.093 197.304ZM407.437 193.02C407.053 193.488 406.465 193.764 405.865 193.764C405.097 193.764 404.389 193.392 404.389 192.54C404.389 191.976 404.881 191.34 405.793 191.34C406.933 191.34 407.365 192.252 407.437 193.02ZM410.394 197.304C410.958 197.808 411.774 198.132 412.746 198.132C415.11 198.132 416.466 196.416 416.466 194.004C416.466 191.736 415.446 189.864 413.022 189.864C411.198 189.864 409.95 191.052 409.95 192.612C409.95 194.316 411.246 195.204 412.686 195.204C413.562 195.204 414.366 194.712 414.75 194.172V194.34C414.75 195.552 414.03 196.644 412.746 196.644C412.038 196.644 411.582 196.428 411.15 196.032L410.394 197.304ZM414.738 193.02C414.354 193.488 413.766 193.764 413.166 193.764C412.398 193.764 411.69 193.392 411.69 192.54C411.69 191.976 412.182 191.34 413.094 191.34C414.234 191.34 414.666 192.252 414.738 193.02Z" fill="#36D6D0"/>
<path d="M249.495 355H251.367L254.343 348.184V346.996H248.331V348.496H252.363L249.495 355ZM257.018 355H258.722V346.996H257.234L254.714 349.528L255.686 350.548L257.018 349.192V355ZM259.756 353.86C260.344 354.58 261.436 355.144 262.912 355.144C264.832 355.144 266.068 354.172 266.068 352.792C266.068 351.592 265.012 350.956 264.196 350.872C265.084 350.716 265.948 350.056 265.948 349.048C265.948 347.716 264.796 346.876 262.924 346.876C261.52 346.876 260.512 347.416 259.864 348.148L260.704 349.204C261.268 348.664 261.976 348.364 262.744 348.364C263.584 348.364 264.232 348.688 264.232 349.324C264.232 349.924 263.644 350.212 262.756 350.212C262.456 350.212 261.904 350.212 261.76 350.2V351.688C261.88 351.676 262.42 351.676 262.756 351.676C263.872 351.676 264.364 351.976 264.364 352.624C264.364 353.236 263.824 353.656 262.852 353.656C262.072 353.656 261.196 353.32 260.644 352.744L259.756 353.86ZM267.903 356.644C268.635 356.116 269.139 355.312 269.139 354.412C269.139 353.632 268.623 353.188 268.059 353.188C267.555 353.188 267.123 353.62 267.123 354.148C267.123 354.664 267.483 355.024 267.939 355.024C268.023 355.024 268.131 355 268.167 354.988C268.071 355.408 267.627 355.9 267.243 356.104L267.903 356.644ZM270.881 355H272.585V346.996H271.097L268.577 349.528L269.549 350.548L270.881 349.192V355ZM273.967 353.944C274.651 354.688 275.659 355.144 277.051 355.144C278.983 355.144 280.255 354.076 280.255 352.384C280.255 350.764 279.043 349.792 277.687 349.792C276.955 349.792 276.307 350.092 275.887 350.464V348.46H279.715V346.996H274.219V351.568L275.407 351.892C275.887 351.436 276.427 351.232 277.087 351.232C277.999 351.232 278.527 351.724 278.527 352.456C278.527 353.116 277.987 353.656 277.039 353.656C276.199 353.656 275.455 353.356 274.903 352.792L273.967 353.944ZM281.1 352.924C281.1 354.424 282.636 355.144 284.316 355.144C285.996 355.144 287.532 354.412 287.532 352.924C287.532 351.952 286.764 351.208 285.804 350.872C286.692 350.56 287.4 349.984 287.4 348.988C287.4 347.488 285.792 346.876 284.316 346.876C282.828 346.876 281.232 347.488 281.232 348.988C281.232 349.984 281.928 350.56 282.816 350.872C281.856 351.208 281.1 351.952 281.1 352.924ZM285.66 349.252C285.66 349.876 284.808 350.152 284.316 350.224C283.824 350.152 282.96 349.876 282.96 349.252C282.96 348.688 283.524 348.34 284.316 348.34C285.096 348.34 285.66 348.688 285.66 349.252ZM285.804 352.72C285.804 353.308 285.132 353.68 284.316 353.68C283.476 353.68 282.828 353.308 282.828 352.72C282.828 352.024 283.812 351.688 284.316 351.628C284.808 351.688 285.804 352.024 285.804 352.72Z" fill="#36D6D0"/>
<path d="M131.969 358.924C131.969 360.424 133.505 361.144 135.185 361.144C136.865 361.144 138.401 360.412 138.401 358.924C138.401 357.952 137.633 357.208 136.673 356.872C137.561 356.56 138.269 355.984 138.269 354.988C138.269 353.488 136.661 352.876 135.185 352.876C133.697 352.876 132.101 353.488 132.101 354.988C132.101 355.984 132.797 356.56 133.685 356.872C132.725 357.208 131.969 357.952 131.969 358.924ZM136.529 355.252C136.529 355.876 135.677 356.152 135.185 356.224C134.693 356.152 133.829 355.876 133.829 355.252C133.829 354.688 134.393 354.34 135.185 354.34C135.965 354.34 136.529 354.688 136.529 355.252ZM136.673 358.72C136.673 359.308 136.001 359.68 135.185 359.68C134.345 359.68 133.697 359.308 133.697 358.72C133.697 358.024 134.681 357.688 135.185 357.628C135.677 357.688 136.673 358.024 136.673 358.72ZM139.39 361H145.414V359.5H142.078C144.226 357.988 145.354 356.8 145.354 355.432C145.354 353.836 143.998 352.876 142.294 352.876C141.178 352.876 139.99 353.284 139.21 354.184L140.182 355.312C140.722 354.748 141.418 354.388 142.318 354.388C142.99 354.388 143.626 354.736 143.626 355.432C143.626 356.416 142.666 357.244 139.39 359.656V361ZM147.365 362.644C148.097 362.116 148.601 361.312 148.601 360.412C148.601 359.632 148.085 359.188 147.521 359.188C147.017 359.188 146.585 359.62 146.585 360.148C146.585 360.664 146.945 361.024 147.401 361.024C147.485 361.024 147.593 361 147.629 360.988C147.533 361.408 147.089 361.9 146.705 362.104L147.365 362.644ZM149.665 361H151.537L154.513 354.184V352.996H148.501V354.496H152.533L149.665 361ZM156.204 361H158.076L161.052 354.184V352.996H155.04V354.496H159.072L156.204 361ZM165.419 361H167.123V359.344H168.155V357.844H167.123V352.996H164.771L161.591 358V359.344H165.419V361ZM165.419 354.508V357.844H163.259L165.419 354.508Z" fill="#36D6D0"/>
<path d="M76.0027 58H79.4347V44.992H84.0907V41.992H71.3227V44.992H76.0027V58ZM95.3234 58H99.2354L95.6354 51.904C97.3634 51.496 99.1394 49.984 99.1394 47.152C99.1394 44.176 97.0994 41.992 93.7634 41.992H86.2754V58H89.6834V52.264H92.1794L95.3234 58ZM95.6594 47.128C95.6594 48.472 94.6274 49.336 93.2594 49.336H89.6834V44.92H93.2594C94.6274 44.92 95.6594 45.784 95.6594 47.128ZM112.905 58H116.625L110.457 41.992H106.185L99.9933 58H103.737L104.745 55.24H111.897L112.905 58ZM108.321 44.944L110.961 52.288H105.657L108.321 44.944ZM129.144 58H132.432V41.992H129.024V52.36L121.608 41.992H118.104V58H121.512V47.248L129.144 58ZM134.484 55.744C135.996 57.256 138.204 58.288 141.276 58.288C145.596 58.288 147.684 56.08 147.684 53.152C147.684 49.6 144.324 48.808 141.684 48.208C139.836 47.776 138.492 47.44 138.492 46.36C138.492 45.4 139.308 44.728 140.844 44.728C142.404 44.728 144.132 45.28 145.428 46.48L147.324 43.984C145.74 42.52 143.628 41.752 141.084 41.752C137.316 41.752 135.012 43.912 135.012 46.576C135.012 50.152 138.372 50.872 140.988 51.472C142.836 51.904 144.228 52.312 144.228 53.512C144.228 54.424 143.316 55.312 141.444 55.312C139.236 55.312 137.484 54.328 136.356 53.152L134.484 55.744ZM161.022 58H164.742L158.574 41.992H154.302L148.11 58H151.854L152.862 55.24H160.014L161.022 58ZM156.438 44.944L159.078 52.288H153.774L156.438 44.944ZM173.032 58.288C176.68 58.288 178.696 56.344 179.848 54.352L176.92 52.936C176.248 54.256 174.808 55.264 173.032 55.264C170.248 55.264 168.136 53.032 168.136 50.008C168.136 46.984 170.248 44.752 173.032 44.752C174.808 44.752 176.248 45.784 176.92 47.08L179.848 45.64C178.72 43.648 176.68 41.728 173.032 41.728C168.352 41.728 164.632 45.088 164.632 50.008C164.632 54.928 168.352 58.288 173.032 58.288ZM185.573 58H189.005V44.992H193.661V41.992H180.893V44.992H185.573V58ZM195.846 58H199.254V41.992H195.846V58ZM201.664 50.008C201.664 54.832 205.192 58.288 210.016 58.288C214.864 58.288 218.392 54.832 218.392 50.008C218.392 45.184 214.864 41.728 210.016 41.728C205.192 41.728 201.664 45.184 201.664 50.008ZM214.888 50.008C214.888 52.984 212.968 55.264 210.016 55.264C207.064 55.264 205.168 52.984 205.168 50.008C205.168 47.008 207.064 44.752 210.016 44.752C212.968 44.752 214.888 47.008 214.888 50.008ZM231.823 58H235.111V41.992H231.703V52.36L224.287 41.992H220.783V58H224.191V47.248L231.823 58ZM237.164 55.744C238.676 57.256 240.884 58.288 243.956 58.288C248.276 58.288 250.364 56.08 250.364 53.152C250.364 49.6 247.004 48.808 244.364 48.208C242.516 47.776 241.172 47.44 241.172 46.36C241.172 45.4 241.988 44.728 243.524 44.728C245.084 44.728 246.812 45.28 248.108 46.48L250.004 43.984C248.42 42.52 246.308 41.752 243.764 41.752C239.996 41.752 237.692 43.912 237.692 46.576C237.692 50.152 241.052 50.872 243.668 51.472C245.516 51.904 246.908 52.312 246.908 53.512C246.908 54.424 245.996 55.312 244.124 55.312C241.916 55.312 240.164 54.328 239.036 53.152L237.164 55.744ZM258.799 58H262.207V52.264H266.287C269.743 52.264 271.663 49.936 271.663 47.152C271.663 44.344 269.767 41.992 266.287 41.992H258.799V58ZM268.183 47.128C268.183 48.472 267.175 49.336 265.831 49.336H262.207V44.92H265.831C267.175 44.92 268.183 45.808 268.183 47.128ZM273.775 58H285.103V55.048H277.183V51.328H284.935V48.4H277.183V44.92H285.103V41.992H273.775V58ZM296.816 58H300.728L297.128 51.904C298.856 51.496 300.632 49.984 300.632 47.152C300.632 44.176 298.592 41.992 295.256 41.992H287.768V58H291.176V52.264H293.672L296.816 58ZM297.152 47.128C297.152 48.472 296.12 49.336 294.752 49.336H291.176V44.92H294.752C296.12 44.92 297.152 45.784 297.152 47.128ZM309.33 58H315.642C320.658 58 324.138 54.832 324.138 50.008C324.138 45.184 320.658 41.992 315.642 41.992H309.33V58ZM312.738 55V44.992H315.642C318.93 44.992 320.658 47.176 320.658 50.008C320.658 52.72 318.81 55 315.642 55H312.738ZM325.789 50.008C325.789 54.832 329.317 58.288 334.141 58.288C338.989 58.288 342.517 54.832 342.517 50.008C342.517 45.184 338.989 41.728 334.141 41.728C329.317 41.728 325.789 45.184 325.789 50.008ZM339.013 50.008C339.013 52.984 337.093 55.264 334.141 55.264C331.189 55.264 329.293 52.984 329.293 50.008C329.293 47.008 331.189 44.752 334.141 44.752C337.093 44.752 339.013 47.008 339.013 50.008ZM344.908 58H355.084V55H348.316V41.992H344.908V58ZM357.471 58H367.647V55H360.879V41.992H357.471V58ZM381.241 58H384.961L378.793 41.992H374.521L368.329 58H372.073L373.081 55.24H380.233L381.241 58ZM376.657 44.944L379.297 52.288H373.993L376.657 44.944ZM395.487 58H399.399L395.799 51.904C397.527 51.496 399.303 49.984 399.303 47.152C399.303 44.176 397.263 41.992 393.927 41.992H386.439V58H389.847V52.264H392.343L395.487 58ZM395.823 47.128C395.823 48.472 394.791 49.336 393.423 49.336H389.847V44.92H393.423C394.791 44.92 395.823 45.784 395.823 47.128Z" fill="#244583"/>
<defs>
<linearGradient id="paint0_linear" x1="236" y1="0" x2="236" y2="477" gradientUnits="userSpaceOnUse">
<stop offset="0.432292" stop-color="white"/>
<stop offset="1" stop-color="#FFF4DC"/>
</linearGradient>
<linearGradient id="paint1_linear" x1="222" y1="450" x2="351" y2="450" gradientUnits="userSpaceOnUse">
<stop stop-color="#24C4A1"/>
<stop offset="1" stop-color="#F4E459"/>
</linearGradient>
<linearGradient id="paint2_linear" x1="386" y1="206" x2="386" y2="369" gradientUnits="userSpaceOnUse">
<stop stop-color="#36D6D0"/>
<stop offset="1" stop-color="#F4E459"/>
</linearGradient>
<linearGradient id="paint3_linear" x1="268" y1="363" x2="268" y2="369" gradientUnits="userSpaceOnUse">
<stop stop-color="#36D6D0"/>
<stop offset="1" stop-color="#FDEB81"/>
<stop offset="1" stop-color="#F4E459"/>
</linearGradient>
</defs>
</svg>
