<?xml version="1.0" encoding="UTF-8" standalone="no"?>
<svg
   xmlns:dc="http://purl.org/dc/elements/1.1/"
   xmlns:cc="http://creativecommons.org/ns#"
   xmlns:rdf="http://www.w3.org/1999/02/22-rdf-syntax-ns#"
   xmlns:svg="http://www.w3.org/2000/svg"
   xmlns="http://www.w3.org/2000/svg"
   xmlns:sodipodi="http://sodipodi.sourceforge.net/DTD/sodipodi-0.dtd"
   xmlns:inkscape="http://www.inkscape.org/namespaces/inkscape"
   id="Layer_1"
   enable-background="new 0 0 512 512"
   height="512"
   viewBox="0 0 512 512"
   width="512"
   version="1.1"
   sodipodi:docname="car.svg"
   inkscape:version="1.0.1 (0767f8302a, 2020-10-17)">
  <metadata
     id="metadata33">
    <rdf:RDF>
      <cc:Work
         rdf:about="">
        <dc:format>image/svg+xml</dc:format>
        <dc:type
           rdf:resource="http://purl.org/dc/dcmitype/StillImage" />
      </cc:Work>
    </rdf:RDF>
  </metadata>
  <defs
     id="defs31" />
  <sodipodi:namedview
     pagecolor="#ffffff"
     bordercolor="#666666"
     borderopacity="1"
     objecttolerance="10"
     gridtolerance="10"
     guidetolerance="10"
     inkscape:pageopacity="0"
     inkscape:pageshadow="2"
     inkscape:window-width="3368"
     inkscape:window-height="1376"
     id="namedview29"
     showgrid="false"
     inkscape:zoom="1.8203125"
     inkscape:cx="195.55689"
     inkscape:cy="287.47298"
     inkscape:window-x="1992"
     inkscape:window-y="27"
     inkscape:window-maximized="1"
     inkscape:current-layer="Layer_1"
     inkscape:document-rotation="0" />
  <g
     id="XMLID_1_"
     style="fill:#244484;fill-opacity:1">
    <g
       id="XMLID_3340_"
       style="fill:#244484;fill-opacity:1">
      <g
         id="XMLID_393_"
         style="fill:#244484;fill-opacity:1">
        <path
           id="XMLID_3139_"
           d="m417.3 349c-29.6 0-53.7-24.1-53.7-53.7s24.1-53.7 53.7-53.7 53.7 24.1 53.7 53.7-24.1 53.7-53.7 53.7zm0-97.5c-24.1 0-43.7 19.6-43.7 43.7s19.6 43.7 43.7 43.7 43.7-19.6 43.7-43.7-19.6-43.7-43.7-43.7z"
           fill="rgb(0,0,0)"
           style="fill:#244484;fill-opacity:1" />
      </g>
      <g
         id="XMLID_392_"
         style="fill:#244484;fill-opacity:1">
        <path
           id="XMLID_3136_"
           d="m93.1 349c-29.6 0-53.7-24.1-53.7-53.7s24.1-53.7 53.7-53.7 53.7 24.1 53.7 53.7-24.1 53.7-53.7 53.7zm0-97.5c-24.1 0-43.7 19.6-43.7 43.7s19.6 43.8 43.7 43.8 43.7-19.6 43.7-43.7-19.6-43.8-43.7-43.8z"
           fill="rgb(0,0,0)"
           style="fill:#244484;fill-opacity:1" />
      </g>
      <g
         id="XMLID_386_"
         style="fill:#244484;fill-opacity:1">
        <path
           id="XMLID_3133_"
           d="m93.1 324.2c-15.9 0-28.9-13-28.9-28.9s13-28.9 28.9-28.9 28.9 13 28.9 28.9-13 28.9-28.9 28.9zm0-47.9c-10.4 0-18.9 8.5-18.9 18.9s8.5 18.9 18.9 18.9 18.9-8.5 18.9-18.9-8.5-18.9-18.9-18.9z"
           fill="rgb(0,0,0)"
           style="fill:#244484;fill-opacity:1" />
      </g>
      <g
         id="XMLID_378_"
         style="fill:#244484;fill-opacity:1">
        <path
           id="XMLID_3130_"
           d="m417.1 324.2c-15.9 0-28.9-13-28.9-28.9s13-28.9 28.9-28.9 28.9 13 28.9 28.9-13 28.9-28.9 28.9zm0-47.9c-10.4 0-18.9 8.5-18.9 18.9s8.5 18.9 18.9 18.9 18.9-8.5 18.9-18.9-8.5-18.9-18.9-18.9z"
           fill="rgb(0,0,0)"
           style="fill:#244484;fill-opacity:1" />
      </g>
      <g
         id="XMLID_1878_"
         style="fill:#244484;fill-opacity:1">
        <path
           id="XMLID_3129_"
           d="m495 324h-35.3v-10h30.3v-18.8c0-.7.1-1.4.4-2l10.4-23.7-19.9-14.9c-22-16.5-49.2-25.6-76.7-25.6h-42.2c-1 0-2-.3-2.8-.9l-44.3-30.1c-24.2-16.4-52.4-25.1-81.6-25.1h-104.6l-118.7 36.3v4.8h6c2.8 0 5 2.2 5 5v43c0 2.8-2.2 5-5 5h-6v27.3l15 19.7h25.6v10h-28.1c-1.6 0-3-.7-4-2l-17.5-23c-.7-.9-1-1.9-1-3v-34c0-2.8 2.2-5 5-5h6v-33h-6c-2.8 0-5-2.2-5-5v-13.5c0-2.2 1.4-4.1 3.5-4.8l123-37.5c.5-.1 1-.2 1.5-.2h105.3c31.2 0 61.4 9.3 87.2 26.8l43 29.2h40.7c29.6 0 59 9.8 82.7 27.6l23.1 17.3c1.9 1.4 2.5 3.9 1.6 6l-11.6 26.4v22.7c0 2.8-2.2 5-5 5z"
           fill="rgb(0,0,0)"
           style="fill:#244484;fill-opacity:1" />
      </g>
      <g
         id="XMLID_1946_"
         style="fill:#244484;fill-opacity:1">
        <path
           id="XMLID_3128_"
           d="m303.2 314h71.6v10h-71.6z"
           fill="rgb(0,0,0)"
           style="fill:#244484;fill-opacity:1" />
      </g>
      <g
         id="XMLID_1945_"
         style="fill:#244484;fill-opacity:1">
        <path
           id="XMLID_3127_"
           d="m135.5 314h147.7v10h-147.7z"
           fill="rgb(0,0,0)"
           style="fill:#244484;fill-opacity:1" />
      </g>
      <g
         id="XMLID_394_"
         style="fill:#244484;fill-opacity:1">
        <path
           id="XMLID_3124_"
           d="m37.7 267h-21.7c-2.8 0-5-2.2-5-5v-43c0-2.8 2.2-5 5-5h21.8c2 0 3.8 1.2 4.6 3l10.5 24.5c.6 1.4.5 3.1-.2 4.4l-10.5 18.5c-1 1.6-2.7 2.6-4.5 2.6zm-16.7-10h13.8l7.8-13.8-8.1-19.2h-13.5z"
           fill="rgb(0,0,0)"
           style="fill:#244484;fill-opacity:1" />
      </g>
      <g
         id="XMLID_437_"
         style="fill:#244484;fill-opacity:1">
        <path
           id="XMLID_3123_"
           d="m331 227h-75c-.3 0-.5 0-.8-.1l-100.5-15.5 1.5-9.9 100.2 15.5h59l-4.1-2.9c-24.8-17.7-54-27.1-84.5-27.1h-89.1l-26.2 7.7 24.8 3.8-1.5 9.9-47-7.2c-2.3-.4-4.1-2.3-4.2-4.6-.2-2.3 1.3-4.5 3.6-5.1l48.5-14.2c.5-.1.9-.2 1.4-.2h89.8c32.6 0 63.8 10 90.3 28.9l16.8 12c1.8 1.3 2.5 3.5 1.9 5.6-.8 2-2.7 3.4-4.9 3.4z"
           fill="rgb(0,0,0)"
           style="fill:#244484;fill-opacity:1" />
      </g>
      <g
         id="XMLID_436_"
         style="fill:#244484;fill-opacity:1">
        <path
           id="XMLID_3120_"
           d="m195.2 217.7c-.3 0-.5 0-.8-.1l-20.4-3.1c-2.4-.4-4.2-2.5-4.2-4.9v-27.6c0-2.8 2.2-5 5-5h20.4c2.8 0 5 2.2 5 5v30.6c0 1.5-.6 2.8-1.7 3.8-.9.8-2.1 1.3-3.3 1.3zm-15.4-12.5 10.4 1.6v-19.8h-10.4z"
           fill="rgb(0,0,0)"
           style="fill:#244484;fill-opacity:1" />
      </g>
      <g
         id="XMLID_438_"
         style="fill:#244484;fill-opacity:1">
        <path
           id="XMLID_3119_"
           d="m356.2 300.2-162.6-9.7c-1.4-.1-2.7-.8-3.6-1.9l-30.9-39c-1-1.2-1.3-2.8-.9-4.3s1.4-2.7 2.8-3.4l32.3-14.5c.9-.4 1.8-.5 2.8-.4l158.4 24-1.5 9.9-157-23.7-25 11.2 25.5 32.2 160.4 9.6z"
           fill="rgb(0,0,0)"
           style="fill:#244484;fill-opacity:1" />
      </g>
      <g
         id="XMLID_439_"
         style="fill:#244484;fill-opacity:1">
        <path
           id="XMLID_3118_"
           d="m476 263h31v10h-31z"
           fill="rgb(0,0,0)"
           style="fill:#244484;fill-opacity:1" />
      </g>
    </g>
  </g>
  <path
     style="fill:#bddbff;fill-opacity:1;fill-rule:evenodd;stroke-width:1.09761;stroke-miterlimit:2"
     d="m 416.62843,276.08874 c -13.35123,-0.0213 -22.89663,15.65275 -16.6824,27.50429 4.97492,11.54796 21.39886,14.25658 30.19957,5.53004 10.87177,-9.06805 6.086,-28.47093 -7.30687,-32.23176 -2.00272,-0.62631 -4.11483,-0.88676 -6.2103,-0.80257 z"
     id="path860" />
  <path
     style="fill:#bddbff;fill-opacity:1;fill-rule:evenodd;stroke-width:1.09761;stroke-miterlimit:2"
     d="m 92.029719,276.04582 c -14.21006,0.14639 -22.655072,18.09496 -14.90558,29.58369 5.387791,9.13358 18.508896,11.86446 26.881971,5.09871 11.30718,-6.95254 10.55374,-25.28946 -1.01502,-31.59442 -3.254249,-2.06079 -7.089115,-3.2718 -10.961371,-3.08798 z"
     id="path862" />
  <path
     style="fill:#bddbff;fill-rule:evenodd;stroke-width:0.0686009;stroke-miterlimit:2"
     d="m 199.83221,186.12084 c -0.64384,0.30321 -0.61676,1.06329 -0.58447,1.66711 0.0208,6.85378 0.003,13.71179 0.0482,20.56293 0.0309,0.70143 0.76653,0.9932 1.37548,1.00343 18.49795,2.85763 36.9927,5.73953 55.49082,8.59397 17.92499,0.0142 35.85109,0.0253 53.77649,0.008 1.70528,-0.0331 3.41856,0.0461 5.11869,-0.096 0.82905,-0.10745 1.16235,-1.26066 0.52093,-1.796 -1.74677,-1.44514 -3.65635,-2.68215 -5.5082,-3.98734 -17.75552,-12.34316 -38.28619,-20.67788 -59.63619,-24.13372 -7.63183,-1.24021 -15.36153,-1.89107 -23.09461,-1.88348 -9.03083,-0.0506 -18.06189,-0.0196 -27.09281,-0.0286 -0.1381,0.03 -0.2762,0.0599 -0.4143,0.0899 z"
     id="path858" />
  <path
     style="fill:#bddbff;fill-rule:evenodd;stroke-width:0.0686009;stroke-miterlimit:2"
     d="m 20.607558,223.13197 c -0.645144,0.30155 -0.619447,1.06248 -0.588117,1.66658 0,10.71267 0,21.42534 0,32.13801 0.01117,0.6854 0.705198,1.11195 1.343347,1 4.49681,-0.01 8.99779,0.0194 13.492002,-0.0146 0.84559,-0.0741 1.035156,-1.04226 1.445476,-1.62898 2.374246,-4.23358 4.81316,-8.43277 7.124083,-12.70075 0.23361,-0.72106 -0.307076,-1.36455 -0.505024,-2.02691 -2.464092,-5.9748 -5.001948,-11.91879 -7.508119,-17.87599 -0.276636,-0.63328 -1.012605,-0.65412 -1.605416,-0.61297 -4.283136,-0.001 -8.570346,-0.0418 -12.850947,-0.0188 -0.115762,0.0248 -0.231523,0.0496 -0.347285,0.0744 z"
     id="path861" />
</svg>
