<?xml version="1.0" encoding="UTF-8" standalone="no"?>
<svg
   xmlns:dc="http://purl.org/dc/elements/1.1/"
   xmlns:cc="http://creativecommons.org/ns#"
   xmlns:rdf="http://www.w3.org/1999/02/22-rdf-syntax-ns#"
   xmlns:svg="http://www.w3.org/2000/svg"
   xmlns="http://www.w3.org/2000/svg"
   xmlns:sodipodi="http://sodipodi.sourceforge.net/DTD/sodipodi-0.dtd"
   xmlns:inkscape="http://www.inkscape.org/namespaces/inkscape"
   version="1.1"
   id="Capa_1"
   x="0px"
   y="0px"
   viewBox="0 0 512 512"
   style="enable-background:new 0 0 512 512;"
   xml:space="preserve"
   sodipodi:docname="circle.svg"
   inkscape:version="1.0.1 (0767f8302a, 2020-10-17)"><metadata
   id="metadata43"><rdf:RDF><cc:Work
       rdf:about=""><dc:format>image/svg+xml</dc:format><dc:type
         rdf:resource="http://purl.org/dc/dcmitype/StillImage" /></cc:Work></rdf:RDF></metadata><defs
   id="defs41" /><sodipodi:namedview
   pagecolor="#ffffff"
   bordercolor="#666666"
   borderopacity="1"
   objecttolerance="10"
   gridtolerance="10"
   guidetolerance="10"
   inkscape:pageopacity="0"
   inkscape:pageshadow="2"
   inkscape:window-width="3368"
   inkscape:window-height="1376"
   id="namedview39"
   showgrid="false"
   inkscape:zoom="1.8203125"
   inkscape:cx="256"
   inkscape:cy="256"
   inkscape:window-x="1992"
   inkscape:window-y="27"
   inkscape:window-maximized="1"
   inkscape:current-layer="Capa_1"
   inkscape:document-rotation="0" />
<g
   id="g6"
   style="fill:#244484;fill-opacity:1">
	<g
   id="g4"
   style="fill:#244484;fill-opacity:1">
		<path
   d="M437.02,74.981C388.667,26.629,324.38,0,256,0C193.371,0,133.084,22.87,86.246,64.396    c-3.1,2.748-3.384,7.488-0.637,10.588c2.748,3.099,7.488,3.384,10.588,0.636C140.289,36.529,197.041,15,256,15    c132.888,0,241,108.112,241,241S388.888,497,256,497S15,388.888,15,256c0-58.959,21.529-115.711,60.621-159.803    c2.748-3.099,2.463-7.84-0.637-10.587c-3.1-2.749-7.84-2.462-10.588,0.636C22.87,133.084,0,193.371,0,256    c0,68.38,26.629,132.667,74.98,181.019C123.333,485.371,187.62,512,256,512s132.667-26.629,181.02-74.981    C485.371,388.667,512,324.38,512,256S485.371,123.333,437.02,74.981z"
   id="path2"
   style="fill:#244484;fill-opacity:1" />
	</g>
</g>
<g
   id="g8">
</g>
<g
   id="g10">
</g>
<g
   id="g12">
</g>
<g
   id="g14">
</g>
<g
   id="g16">
</g>
<g
   id="g18">
</g>
<g
   id="g20">
</g>
<g
   id="g22">
</g>
<g
   id="g24">
</g>
<g
   id="g26">
</g>
<g
   id="g28">
</g>
<g
   id="g30">
</g>
<g
   id="g32">
</g>
<g
   id="g34">
</g>
<g
   id="g36">
</g>
</svg>
