<?xml version="1.0" encoding="UTF-8" standalone="no"?>
<svg
   xmlns:dc="http://purl.org/dc/elements/1.1/"
   xmlns:cc="http://creativecommons.org/ns#"
   xmlns:rdf="http://www.w3.org/1999/02/22-rdf-syntax-ns#"
   xmlns:svg="http://www.w3.org/2000/svg"
   xmlns="http://www.w3.org/2000/svg"
   xmlns:sodipodi="http://sodipodi.sourceforge.net/DTD/sodipodi-0.dtd"
   xmlns:inkscape="http://www.inkscape.org/namespaces/inkscape"
   version="1.1"
   id="Capa_1"
   x="0px"
   y="0px"
   viewBox="0 0 511.999 511.999"
   style="enable-background:new 0 0 511.999 511.999;"
   xml:space="preserve"
   sodipodi:docname="plane.svg"
   inkscape:version="1.0.1 (0767f8302a, 2020-10-17)"><metadata
   id="metadata73"><rdf:RDF><cc:Work
       rdf:about=""><dc:format>image/svg+xml</dc:format><dc:type
         rdf:resource="http://purl.org/dc/dcmitype/StillImage" /></cc:Work></rdf:RDF></metadata><defs
   id="defs71" /><sodipodi:namedview
   pagecolor="#ffffff"
   bordercolor="#666666"
   borderopacity="1"
   objecttolerance="10"
   gridtolerance="10"
   guidetolerance="10"
   inkscape:pageopacity="0"
   inkscape:pageshadow="2"
   inkscape:window-width="1443"
   inkscape:window-height="1376"
   id="namedview69"
   showgrid="false"
   inkscape:zoom="0.64357892"
   inkscape:cx="191.61005"
   inkscape:cy="84.996588"
   inkscape:window-x="1992"
   inkscape:window-y="27"
   inkscape:window-maximized="0"
   inkscape:current-layer="Capa_1" />
<g
   id="g12"
   transform="matrix(-1,0,0,1,511.99972,0)"
   style="fill:#244484;fill-opacity:1">
	<g
   id="g10"
   style="fill:#244484;fill-opacity:1">
		<g
   id="g8"
   style="fill:#244484;fill-opacity:1">
			<path
   d="m 485.266,157.318 c 0.002,-0.006 0.002,-0.005 0,0 z"
   id="path2"
   style="fill:#244484;fill-opacity:1" />
			<path
   d="m 485.257,157.342 c 0.004,-0.012 0.007,-0.02 0.009,-0.024 -0.002,0.004 -0.004,0.012 -0.009,0.024 z"
   id="path4"
   style="fill:#244484;fill-opacity:1" />
			<path
   d="m 496.919,64.116 c -12.886,-1.963 -13.568,-2.3 -16.018,-2.3 -5.262,0 -10.223,2.3 -13.607,6.307 L 409.269,136.501 294.505,118.646 357.39,90.899 c 11.878,-5.251 9.21,-24.645 -2.782,-25.166 -11.653,-0.753 -35.08,-10.434 -67.856,3.927 l -94.77,33.029 C 102.15,89.215 79.235,79.135 43.83,102.515 43.066,103.019 9.376,122.23 9.477,122.173 c -4.751,2.712 -8.188,7.348 -9.103,12.742 -2.362,13.904 6.581,29.473 23.309,32.095 0.1,-0.02 9.09,2.239 10.384,-6.025 0.633,-4.107 -2.189,-7.954 -6.307,-8.586 -0.1,-0.062 -14.577,-1.327 -12.524,-14.672 8.343,1.494 60.516,10.838 69.082,12.372 10.007,1.82 19.879,-3.947 23.318,-13.477 4.402,-12.389 -3.42,-25.316 -15.897,-27.576 -11.324,-2.064 -9.539,-1.89 -21.009,-3.98 25.909,-6.147 57.048,4.53 91.014,8.168 42.738,6.645 123.122,19.145 306.131,47.631 -9.931,26.656 -9.412,25.037 -9.6,26.19 -0.551,3.412 -3.05,6.606 -7.06,7.411 -12.52,1.728 -65.352,7.137 -81.664,8.807 -11.734,1.205 -16.083,-1.222 -74.052,-9.651 l -29.866,-4.599 c -26.08,-4.016 -61.775,-9.51 -208.098,-32.045 -4.097,-0.623 -7.954,2.189 -8.586,6.297 -0.633,4.117 2.189,7.964 6.297,8.596 l 132.045,20.326 c 0.155,0.118 9.283,7.054 92.894,70.547 l 13.507,10.253 c 8.074,6.136 16.801,11.308 25.98,15.435 -0.863,5.783 0.103,12.487 3.274,18.438 h -22.691 c -16.579,0 -30.611,12.975 -31.102,29.547 -0.51,17.22 13.348,31.39 30.454,31.39 h 21.912 c -3.263,5.511 -4.845,12.123 -4.005,19.075 1.863,15.421 15.385,26.788 30.917,26.788 25.852,0 80.346,0 106.836,0 16.576,0 30.597,-12.97 31.093,-29.539 0.516,-17.224 -13.344,-31.408 -30.454,-31.408 h -21.912 c 5.496,-9.283 5.546,-20.528 0.663,-29.695 h 22.68 c 16.583,0 30.619,-12.976 31.113,-29.552 0.514,-17.223 -13.345,-31.395 -30.454,-31.395 h -85.621 l -30.057,-26.763 c -3.103,-2.772 -7.863,-2.49 -10.635,0.613 -2.762,3.103 -2.491,7.863 0.623,10.635 l 17.423,15.515 c -9.982,0.04 -18.849,4.911 -24.383,12.382 -7.964,-3.615 -15.536,-8.124 -22.545,-13.457 l -13.507,-10.253 c -31.583,-23.991 -54.349,-41.284 -70.748,-53.737 l 70.256,10.816 20.978,18.679 c 3.103,2.762 7.863,2.49 10.635,-0.623 2.762,-3.103 2.491,-7.863 -0.613,-10.625 l -3.615,-3.214 c 38.4,5.673 42.391,7.468 54.901,6.216 3.692,-0.379 78.992,-8.097 82.719,-8.958 9.651,-1.788 17.002,-8.948 19.07,-18.438 9.554,-25.876 12.196,-33.033 12.38,-33.529 -0.34,0.919 -8.923,24.163 8.529,-23.12 1.446,-3.906 -0.552,-8.235 -4.459,-9.671 -3.896,-1.446 -8.225,0.552 -9.671,4.459 l -6.437,17.444 -46.486,-7.241 52.06,-61.359 c 1.748,-2.06 3.457,-0.383 15.787,1.145 1.704,0.269 2.79,2.041 2.169,3.696 l -6.678,18.096 c -1.436,3.906 0.552,8.235 4.459,9.681 3.907,1.446 8.235,-0.562 9.671,-4.459 l 6.688,-18.106 c 3.841,-10.42 -2.631,-22.004 -13.97,-23.789 z m -407.87,59.742 c 3.542,0.649 5.615,4.315 4.409,7.672 -0.944,2.621 -3.706,4.238 -6.477,3.736 L 30.506,125.153 c 6.678,-2.724 11.468,-5.639 17.425,-8.941 z m 134.568,-16.249 c 72.736,-25.35 68.652,-23.913 68.931,-24.051 19.989,-8.798 33.579,-7.344 53.014,-3.896 L 266.92,114.348 Z M 342.9,321.933 v 0 c 8.574,0 10.428,-12.115 2.3,-14.702 -11.722,-3.759 -14.749,-19.395 -4.559,-27.024 2.571,-1.918 5.764,-3.063 9.219,-3.063 14.898,0 93.381,0 108.136,0 8.496,0 15.405,6.909 15.405,15.405 0,8.496 -6.909,15.415 -15.405,15.415 h -43.293 c -3.716,0 -6.869,2.701 -7.441,6.367 -0.572,3.665 1.607,7.2 5.142,8.335 6.327,2.029 10.755,8.064 10.755,14.672 0,8.335 -6.799,15.244 -15.144,15.395 -4.137,0.07 -7.431,3.455 -7.401,7.592 0.04,4.137 3.404,7.461 7.532,7.461 h 47.761 c 8.496,0 15.405,6.919 15.405,15.415 0,8.496 -6.909,15.405 -15.405,15.405 H 347.76 c -8.496,0 -15.405,-6.909 -15.405,-15.405 0,-8.345 6.789,-15.244 15.134,-15.395 4.137,-0.07 7.441,-3.455 7.401,-7.592 -0.03,-4.137 -3.394,-7.471 -7.532,-7.471 h -47.751 c -8.496,0 -15.405,-6.909 -15.405,-15.405 0,-8.496 6.909,-15.405 15.405,-15.405 H 342.9 Z M 187.291,192.196 h 0.002 c 1.232,0.936 -0.002,-0.001 -0.002,0 z"
   id="path6"
   style="fill:#244484;fill-opacity:1" />
		</g>
	</g>
</g>
<g
   id="g18"
   transform="matrix(-1,0,0,1,511.99972,0)"
   style="fill:#244484;fill-opacity:1">
	<g
   id="g16"
   style="fill:#244484;fill-opacity:1">
		<path
   d="m 198.36,140.036 c -10.482,14.389 -0.154,34.887 17.825,34.887 12.202,0 22.003,-9.962 22.003,-22.003 0,-21.339 -27.436,-30.053 -39.828,-12.884 z m 17.825,19.823 c -3.912,0 -6.949,-3.201 -6.949,-6.939 0,-3.826 3.113,-6.939 6.949,-6.939 3.818,0 6.939,3.107 6.939,6.939 0.001,3.826 -3.113,6.939 -6.939,6.939 z"
   id="path14"
   style="fill:#244484;fill-opacity:1" />
	</g>
</g>
<g
   id="g24"
   transform="matrix(-1,0,0,1,511.99972,0)"
   style="fill:#244484;fill-opacity:1">
	<g
   id="g22"
   style="fill:#244484;fill-opacity:1">
		<path
   d="m 276.67,140.146 c -15.092,0 -25.732,14.929 -20.818,29.163 3.976,11.553 16.518,17.506 27.747,13.728 8.747,-2.902 15.074,-11.167 15.074,-20.878 0,-12.141 -9.872,-22.013 -22.003,-22.013 z m 0,28.952 c -3.836,0 -6.949,-3.113 -6.949,-6.939 0,-3.836 3.113,-6.949 6.949,-6.949 3.826,0 6.939,3.113 6.939,6.949 0.001,3.826 -3.113,6.939 -6.939,6.939 z"
   id="path20"
   style="fill:#244484;fill-opacity:1" />
	</g>
</g>
<g
   id="g30"
   transform="matrix(-1,0,0,1,511.99972,0)"
   style="fill:#244484;fill-opacity:1">
	<g
   id="g28"
   style="fill:#244484;fill-opacity:1">
		<path
   d="m 337.145,149.385 c -12.131,0 -22.003,9.872 -22.003,22.003 0,12.131 9.872,22.003 22.003,22.003 12.141,0 22.013,-9.872 22.013,-22.003 0,-12.131 -9.871,-22.003 -22.013,-22.003 z m 0,28.942 c -3.826,0 -6.939,-3.113 -6.939,-6.939 0,-3.826 3.113,-6.939 6.939,-6.939 3.836,0 6.949,3.113 6.949,6.939 0,3.826 -3.112,6.939 -6.949,6.939 z"
   id="path26"
   style="fill:#244484;fill-opacity:1" />
	</g>
</g>
<g
   id="g36"
   transform="matrix(-1,0,0,1,511.99972,0)"
   style="fill:#244484;fill-opacity:1">
	<g
   id="g34"
   style="fill:#244484;fill-opacity:1">
		<path
   d="m 256.847,382.92 h -36.223 c -4.278,-13.778 -17.243,-23.79 -32.135,-23.79 h -61.047 c -18.548,0 -33.632,15.094 -33.632,33.632 0,18.548 15.084,33.632 33.632,33.632 h 56.609 c 4.268,13.788 17.233,23.79 32.125,23.79 h 40.672 c 18.538,0 33.632,-15.084 33.632,-33.632 0,-18.548 -15.095,-33.632 -33.633,-33.632 z m 0,52.2 h -40.672 c -9.55,0 -17.664,-7.461 -18.488,-16.982 -0.331,-3.917 -3.615,-6.889 -7.492,-6.889 -0.161,0 -0.331,0 -0.492,0.01 l -0.402,0.03 c -0.271,0.02 -0.542,0.04 -0.813,0.04 h -61.047 c -10.243,0 -18.568,-8.325 -18.568,-18.568 0,-10.233 8.325,-18.568 18.568,-18.568 h 61.047 c 9.55,0 17.664,7.461 18.488,16.992 0.351,4.077 3.906,7.14 7.984,6.869 l 0.402,-0.03 c 0.271,-0.02 0.542,-0.04 0.813,-0.04 h 40.672 c 10.233,0 18.568,8.335 18.568,18.568 0,10.243 -8.335,18.568 -18.568,18.568 z"
   id="path32"
   style="fill:#244484;fill-opacity:1" />
	</g>
</g>
<g
   id="g38"
   transform="matrix(-1,0,0,1,511.99972,0)">
</g>
<g
   id="g40"
   transform="matrix(-1,0,0,1,511.99972,0)">
</g>
<g
   id="g42"
   transform="matrix(-1,0,0,1,511.99972,0)">
</g>
<g
   id="g44"
   transform="matrix(-1,0,0,1,511.99972,0)">
</g>
<g
   id="g46"
   transform="matrix(-1,0,0,1,511.99972,0)">
</g>
<g
   id="g48"
   transform="matrix(-1,0,0,1,511.99972,0)">
</g>
<g
   id="g50"
   transform="matrix(-1,0,0,1,511.99972,0)">
</g>
<g
   id="g52"
   transform="matrix(-1,0,0,1,511.99972,0)">
</g>
<g
   id="g54"
   transform="matrix(-1,0,0,1,511.99972,0)">
</g>
<g
   id="g56"
   transform="matrix(-1,0,0,1,511.99972,0)">
</g>
<g
   id="g58"
   transform="matrix(-1,0,0,1,511.99972,0)">
</g>
<g
   id="g60"
   transform="matrix(-1,0,0,1,511.99972,0)">
</g>
<g
   id="g62"
   transform="matrix(-1,0,0,1,511.99972,0)">
</g>
<g
   id="g64"
   transform="matrix(-1,0,0,1,511.99972,0)">
</g>
<g
   id="g66"
   transform="matrix(-1,0,0,1,511.99972,0)">
</g>
<path
   style="fill:#bddbff;fill-rule:evenodd;stroke-width:0.548806;stroke-miterlimit:2"
   d="m 174.81725,163.87132 c -5.96787,-0.0432 -10.09986,8.02924 -5.59119,12.45384 3.03129,3.86806 9.27046,3.2069 11.7929,-0.86266 3.58536,-4.50489 -0.49177,-11.94099 -6.20171,-11.59118 z"
   id="path898" /><path
   style="fill:#bddbff;fill-rule:evenodd;stroke-width:0.548806;stroke-miterlimit:2"
   d="m 235.20554,154.62348 c -5.52751,7.1e-4 -9.98625,7.55213 -5.84655,11.88625 3.17496,4.79665 11.50707,3.84387 13.01714,-1.90343 1.73142,-4.80976 -2.04105,-10.14122 -7.17059,-9.98282 z"
   id="path900" /><path
   style="fill:#bddbff;fill-rule:evenodd;stroke-width:0.548806;stroke-miterlimit:2"
   d="m 295.43933,145.36492 c -5.60554,0.0508 -9.28737,7.15477 -5.80793,11.67272 3.15134,5.55817 13.10014,3.62358 13.49461,-2.8648 0.78091,-4.66268 -2.95914,-9.00176 -7.68668,-8.80792 z"
   id="path902" /><path
   style="fill:#bddbff;fill-rule:evenodd;stroke-width:0.548806;stroke-miterlimit:2"
   d="m 442.8811,119.44759 c -7.43919,1.6081 -15.14836,2.45906 -22.39588,4.72102 -4.56826,2.81826 -3.03678,10.13974 1.84084,11.6415 4.04444,0.74184 8.2723,-1.24116 12.37871,-1.56678 14.12635,-2.60548 28.36858,-4.90915 42.42626,-7.64554 2.24319,-2.35235 -0.88747,-4.87103 -3.01072,-5.71458 -3.67056,-1.65144 -7.12375,-4.5749 -11.03252,-5.20191 -6.73557,1.25543 -13.47113,2.51086 -20.20669,3.76629 z"
   id="path904" /><path
   style="fill:#bddbff;fill-rule:evenodd;stroke-width:0.548806;stroke-miterlimit:2"
   d="m 107.38713,276.62754 c -19.355239,0.12734 -38.749505,-0.057 -58.080362,0.26502 -7.502104,2.88978 -12.946565,11.17666 -10.813284,19.24138 1.682673,7.04916 8.378834,12.66769 15.763918,12.29182 15.153474,0.81643 30.389513,-0.39459 45.510642,0.83583 5.340746,1.551 5.697016,10.17943 0.477466,12.22315 -7.393369,2.87425 -13.66094,10.61202 -11.766072,18.86906 1.556528,7.38628 8.483142,12.74917 15.905892,13.20356 4.78287,0.22108 7.90521,5.87674 5.24321,9.9949 -2.48643,4.62203 -8.4974,3.15208 -12.753109,3.52971 -14.778415,0.18113 -29.58934,-0.1003 -44.34764,0.16663 -5.357452,2.15003 -10.728528,5.86413 -11.885169,11.92166 -2.634497,9.25994 4.849192,20.05572 14.711345,19.80897 32.064491,0.62448 64.145803,0.29993 96.216443,0.29152 6.7363,-0.4415 13.90125,0.60006 20.32088,-1.87307 7.13745,-4.27603 10.7842,-14.18725 6.36372,-21.63836 -2.79445,-5.91694 -9.31778,-8.42717 -15.44846,-9.00642 -6.6799,-1.00343 -6.19721,-12.22121 0.31437,-12.92058 17.83023,-1.17801 35.9634,0.0579 53.85397,-1.44635 5.28377,-0.7683 9.31567,-5.63545 10.76071,-10.55577 1.8528,-7.29071 -1.22696,-15.90837 -8.47852,-18.91735 -4.81888,-3.0607 -10.81116,-1.15915 -16.19772,-1.7784 -12.42798,-0.13549 -24.85596,-0.27142 -37.28394,-0.40721 -2.16201,-1.83279 -3.97223,-4.31452 -3.06438,-7.19367 -0.28843,-4.93697 5.36128,-5.7412 8.54184,-7.91682 8.52386,-5.52094 9.14121,-19.40649 0.91094,-25.46883 -3.67619,-2.71528 -8.03659,-4.3823 -12.65876,-3.65336 -17.37264,0.0443 -34.74529,0.0887 -52.11793,0.13298 z"
   id="path906" /><path
   style="fill:#bddbff;fill-rule:evenodd;stroke-width:0.548806;stroke-miterlimit:2"
   d="m 338.47787,373.27971 c -8.83386,0.57781 -19.07659,-1.61033 -26.57612,4.35943 -4.79899,3.49285 -7.01169,9.20269 -8.01072,14.84225 -0.65974,2.95854 -3.24461,4.89437 -6.26286,4.39162 -15.92272,0.85612 -31.96639,-0.0275 -47.8733,1.2457 -8.86511,2.5002 -14.97538,12.0564 -13.56006,21.17378 1.2744,8.61545 9.24476,16.56192 18.29825,16.10941 15.40052,0.0482 30.8385,0.35985 46.21879,-0.4324 5.56545,-1.21935 10.31482,-5.69784 12.68775,-10.78109 1.83955,-3.70091 0.99725,-9.46078 5.35836,-11.39912 15.85728,-1.13434 32.00196,-0.54179 47.98127,-0.89478 7.65606,-0.12835 15.34516,0.0159 22.98103,-0.27904 8.09052,-3.17726 15.07773,-11.17277 13.91629,-20.31005 -0.70136,-8.93059 -8.36974,-16.74358 -17.09866,-17.85341 -16.01992,-0.0647 -32.03986,-0.23949 -48.06002,-0.1723 z"
   id="path908" /></svg>
