<?xml version="1.0" encoding="UTF-8" standalone="no"?>
<svg
   xmlns:dc="http://purl.org/dc/elements/1.1/"
   xmlns:cc="http://creativecommons.org/ns#"
   xmlns:rdf="http://www.w3.org/1999/02/22-rdf-syntax-ns#"
   xmlns:svg="http://www.w3.org/2000/svg"
   xmlns="http://www.w3.org/2000/svg"
   xmlns:sodipodi="http://sodipodi.sourceforge.net/DTD/sodipodi-0.dtd"
   xmlns:inkscape="http://www.inkscape.org/namespaces/inkscape"
   id="Layer_1"
   data-name="Layer 1"
   viewBox="0 0 512 512"
   width="512"
   height="512"
   version="1.1"
   sodipodi:docname="rocket.svg"
   inkscape:version="1.0.1 (0767f8302a, 2020-10-17)">
  <metadata
     id="metadata49">
    <rdf:RDF>
      <cc:Work
         rdf:about="">
        <dc:format>image/svg+xml</dc:format>
        <dc:type
           rdf:resource="http://purl.org/dc/dcmitype/StillImage" />
        <dc:title></dc:title>
      </cc:Work>
    </rdf:RDF>
  </metadata>
  <defs
     id="defs47" />
  <sodipodi:namedview
     pagecolor="#ffffff"
     bordercolor="#666666"
     borderopacity="1"
     objecttolerance="10"
     gridtolerance="10"
     guidetolerance="10"
     inkscape:pageopacity="0"
     inkscape:pageshadow="2"
     inkscape:window-width="1925"
     inkscape:window-height="1376"
     id="namedview45"
     showgrid="false"
     inkscape:zoom="0.91015625"
     inkscape:cx="206.94225"
     inkscape:cy="221.53602"
     inkscape:window-x="3435"
     inkscape:window-y="27"
     inkscape:window-maximized="0"
     inkscape:current-layer="Layer_1" />
  <path
     d="M361.377,257.848A310.625,310.625,0,0,0,483.582,11a6,6,0,0,0-6-6,309.721,309.721,0,0,0-190.6,65.542,314.15,314.15,0,0,0-56.1,56.478,29.879,29.879,0,0,1-36.679-4.266,41.771,41.771,0,0,0-59.042-.03L75.732,181.283a6,6,0,0,0,0,8.542l34.384,33.96a59.1,59.1,0,0,0,67.062,11.081c-.02.074-.042.146-.062.219a6,6,0,0,0,1.55,5.807L195.971,258.2l-42.338,8.973a6,6,0,0,0-3,10.112l21.3,21.3a53.242,53.242,0,0,0-15.5-6.221c-1.738-.393-3.48-.7-5.163-.91a53.414,53.414,0,0,0-6.349-.425A52.678,52.678,0,0,0,107.1,306.579a53.923,53.923,0,0,0-16.112,38.515,6,6,0,0,0,5.848,6l4.525.115A57.377,57.377,0,0,0,91.11,393.188,5.984,5.984,0,0,0,97,398h16.392a6,6,0,0,0,0-12h-10.93c-.17-8,1.586-23.158,16.115-35.979a5.991,5.991,0,0,0-3.817-10.483l-11.36-.286A42.066,42.066,0,0,1,115.557,315.1a40.9,40.9,0,0,1,28.964-12.071l.313,0c.955.006,1.913.057,2.87.13a27.672,27.672,0,0,0-13.422,20.526l-3.441,27.8a6,6,0,0,0,5.954,6.737,6.1,6.1,0,0,0,.737-.045l27.8-3.442a27.771,27.771,0,0,0,20.532-13.466c.086,1.081.145,2.171.147,3.269a41.251,41.251,0,0,1-12.157,29.351,6,6,0,1,0,8.484,8.485A53.447,53.447,0,0,0,197.592,337.9c-.2-1.673-.492-3.374-.866-5.058a53.284,53.284,0,0,0-6.273-15.739L211.3,337.948a6,6,0,0,0,10.066-2.8l10.222-41.331,15.562,15.563a6.006,6.006,0,0,0,5.778,1.558c.359-.1.714-.2,1.073-.3a59.088,59.088,0,0,0,10.735,67.766L298.693,413a6.222,6.222,0,0,0,4.269,2h0a6.217,6.217,0,0,0,4.27-2l58.53-59.5a41.884,41.884,0,0,0,0-59.126A29.953,29.953,0,0,1,361.377,257.848ZM471.521,17.061a298.168,298.168,0,0,1-6.094,54.3A124.694,124.694,0,0,1,417.062,23.2,297.374,297.374,0,0,1,471.521,17.061ZM118.545,215.247,88.487,185.561,143.61,131.24a29.771,29.771,0,0,1,42.1,0,41.911,41.911,0,0,0,33.476,12.006,311.053,311.053,0,0,0-36.56,73.713A47.03,47.03,0,0,1,118.545,215.247Zm58.6,116.177a15.809,15.809,0,0,1-13.292,11.4l-20.158,2.5,2.5-20.153a15.951,15.951,0,0,1,11.78-13.4,15.85,15.85,0,0,1,19.175,19.659Zm35.123-9.477-45.329-45.328,39.153-8.3L221.676,283.9Zm40.909-23.511L189.62,234.879q1.6-5.66,3.433-11.248c.036-.036.073-.068.109-.1l-.057-.057A301.408,301.408,0,0,1,379.163,33.715q12.725-4.463,25.755-7.728A136.694,136.694,0,0,0,462.65,83.493C436.984,185.911,358.068,269.385,253.177,298.436Zm104.071,46.5L302.957,400.03l-29.686-30.057a47.024,47.024,0,0,1-1.032-64.83,308.378,308.378,0,0,0,73.032-35.806,41.922,41.922,0,0,0,12.007,33.469A29.813,29.813,0,0,1,357.248,344.938Z"
     id="path2"
     style="fill:#244484;fill-opacity:1" />
  <path
     d="M154.21,384.878A41.7,41.7,0,0,1,144.5,386h-9.452a6,6,0,0,0,0,12H144.5a53.678,53.678,0,0,0,12.5-1.452,6,6,0,0,0-2.795-11.67Z"
     id="path4"
     style="fill:#244484;fill-opacity:1" />
  <path
     d="M395.659,260.914a5.974,5.974,0,0,0,3.824-1.379c4.276-3.54,8.516-7.248,12.6-11.02a6,6,0,1,0-8.137-8.819c-3.931,3.627-8.01,7.192-12.121,10.6a6,6,0,0,0,3.83,10.621Z"
     id="path6"
     style="fill:#244484;fill-opacity:1" />
  <path
     d="M494.754,102.88a6,6,0,0,0-7.48,4.007,297.025,297.025,0,0,1-19.462,48.466c-2.876,5.663-5.979,11.313-9.221,16.792-3.985,6.731-8.29,13.392-12.8,19.8A300.531,300.531,0,0,1,422.505,221a6,6,0,0,0,8.881,8.071A312.778,312.778,0,0,0,455.6,198.849c4.69-6.662,9.169-13.59,13.314-20.593,3.373-5.7,6.6-11.577,9.594-17.469a309.129,309.129,0,0,0,20.249-50.428A6,6,0,0,0,494.754,102.88Z"
     id="path8"
     style="fill:#244484;fill-opacity:1" />
  <path
     d="M20.991,250.51a5.982,5.982,0,0,0,4.242-1.757l4.595-4.595a6,6,0,0,0-8.484-8.485l-4.6,4.595a6,6,0,0,0,4.242,10.242Z"
     id="path10"
     style="fill:#244484;fill-opacity:1" />
  <path
     d="M42.862,231.124l20.531-20.53a6,6,0,1,0-8.485-8.486l-20.53,20.53a6,6,0,1,0,8.484,8.486Z"
     id="path12"
     style="fill:#244484;fill-opacity:1" />
  <path
     d="M25.787,271.18a6,6,0,0,0,8.485,0l24.133-24.134a6,6,0,0,0-8.486-8.485L25.786,262.694A6,6,0,0,0,25.787,271.18Z"
     id="path14"
     style="fill:#244484;fill-opacity:1" />
  <path
     d="M65.961,237a5.982,5.982,0,0,0,4.242-1.757l8.922-8.921a6,6,0,1,0-8.484-8.486l-8.922,8.922A6,6,0,0,0,65.961,237Z"
     id="path16"
     style="fill:#244484;fill-opacity:1" />
  <path
     d="M41.4,278.547,14.74,305.205a6,6,0,0,0,8.485,8.485l26.658-26.658a6,6,0,1,0-8.485-8.485Z"
     id="path18"
     style="fill:#244484;fill-opacity:1" />
  <path
     d="M94.856,233.573a6,6,0,0,0-8.484,0L55.141,264.8a6,6,0,1,0,8.484,8.486l31.231-31.232A6,6,0,0,0,94.856,233.573Z"
     id="path20"
     style="fill:#244484;fill-opacity:1" />
  <path
     d="M212.9,427.226,208.3,431.82a6,6,0,0,0,8.486,8.485l4.594-4.6a6,6,0,0,0-8.486-8.484Z"
     id="path22"
     style="fill:#244484;fill-opacity:1" />
  <path
     d="M246.461,393.661l-20.53,20.53a6,6,0,1,0,8.484,8.485l20.53-20.53a6,6,0,0,0-8.484-8.485Z"
     id="path24"
     style="fill:#244484;fill-opacity:1" />
  <path
     d="M217.338,462.732a6,6,0,0,0,8.485,0L249.957,438.6a6,6,0,1,0-8.484-8.485l-24.134,24.133A6,6,0,0,0,217.338,462.732Z"
     id="path26"
     style="fill:#244484;fill-opacity:1" />
  <path
     d="M253.271,426.8a6,6,0,0,0,8.486,0l8.921-8.922a6,6,0,0,0-8.487-8.485l-8.92,8.921A6,6,0,0,0,253.271,426.8Z"
     id="path28"
     style="fill:#244484;fill-opacity:1" />
  <path
     d="M232.951,470.1l-26.658,26.657a6,6,0,1,0,8.484,8.486l26.659-26.658a6,6,0,1,0-8.485-8.485Z"
     id="path30"
     style="fill:#244484;fill-opacity:1" />
  <path
     d="M277.925,425.125l-31.232,31.232a6,6,0,1,0,8.485,8.485l31.231-31.231a6,6,0,1,0-8.484-8.486Z"
     id="path32"
     style="fill:#244484;fill-opacity:1" />
  <path
     d="M447.828,352.31a33.632,33.632,0,0,1-21.135-21.2,6,6,0,0,0-11.386,0,33.632,33.632,0,0,1-21.135,21.2,6,6,0,0,0,0,11.38,33.632,33.632,0,0,1,21.135,21.2,6,6,0,0,0,11.386,0,33.632,33.632,0,0,1,21.135-21.2,6,6,0,0,0,0-11.38ZM421,369.691A45.932,45.932,0,0,0,409.332,358,45.932,45.932,0,0,0,421,346.309,45.932,45.932,0,0,0,432.668,358,45.932,45.932,0,0,0,421,369.691Z"
     id="path34"
     style="fill:#244484;fill-opacity:1" />
  <path
     d="M22.172,122.69a33.632,33.632,0,0,1,21.135,21.2,6,6,0,0,0,11.386,0,33.632,33.632,0,0,1,21.135-21.2,6,6,0,0,0,0-11.38,33.632,33.632,0,0,1-21.135-21.2,6,6,0,0,0-11.386,0,33.632,33.632,0,0,1-21.135,21.2,6,6,0,0,0,0,11.38ZM49,105.309A45.932,45.932,0,0,0,60.668,117,45.932,45.932,0,0,0,49,128.691,45.932,45.932,0,0,0,37.332,117,45.932,45.932,0,0,0,49,105.309Z"
     id="path36"
     style="fill:#244484;fill-opacity:1" />
  <ellipse
     cx="127.038"
     cy="54"
     rx="10.985"
     ry="11"
     id="ellipse38"
     style="fill:#244484;fill-opacity:1" />
  <ellipse
     cx="402.038"
     cy="445"
     rx="10.985"
     ry="11"
     id="ellipse40"
     style="fill:#244484;fill-opacity:1" />
  <path
     d="M336.744,107.968a43.86,43.86,0,1,0,31.021,74.891h0a43.87,43.87,0,0,0-31.022-74.891Zm22.536,66.406a31.871,31.871,0,1,1,0-45.071A31.906,31.906,0,0,1,359.28,174.374Z"
     id="path42"
     style="fill:#244484;fill-opacity:1" />
  <path
     style="fill:#bddbff;fill-opacity:1;fill-rule:evenodd;stroke-width:0.548807;stroke-miterlimit:2"
     d="m 335.98391,119.27682 c -15.60029,0.23939 -29.85639,13.05919 -31.44206,28.64271 -2.43722,16.75838 10.49025,33.83231 27.26502,36.08262 14.10332,2.57328 28.86118,-5.90224 34.46781,-18.94743 6.16365,-12.85615 2.16022,-29.33573 -8.9206,-38.20493 -5.93666,-4.92587 -13.63898,-7.7423 -21.37017,-7.57297 z"
     id="path876" />
  <path
     style="fill:#bddbff;fill-opacity:1;fill-rule:evenodd;stroke-width:0.548807;stroke-miterlimit:2"
     d="m 161.6309,310.73176 c -8.23987,-0.0739 -15.52469,6.88497 -16.07511,15.07725 -0.85865,6.41649 -2.17514,12.88058 -2.23712,19.34335 1.52582,1.99199 4.89534,-0.20969 7.08218,0.0895 7.78805,-1.5003 17.1308,-0.62221 23.23649,-6.612 7.83615,-7.36515 5.21597,-21.91089 -4.54721,-26.28004 -2.31475,-1.11242 -4.89254,-1.6642 -7.45923,-1.61803 z"
     id="path878" />
  <path
     style="fill:#bddbff;fill-opacity:1;fill-rule:evenodd;stroke-width:0.548807;stroke-miterlimit:2"
     d="m 420.81223,347.84871 c -4.07834,1.84406 -7.19819,5.60821 -9.78219,9.18992 -1.00262,2.80193 2.58371,4.78401 4,6.73176 2.16449,2.29033 5.9434,6.0243 9.02575,2.92167 2.44098,-2.91956 5.91529,-5.04747 7.89163,-8.28219 -0.8715,-3.28372 -4.43329,-5.23254 -6.65772,-7.65665 -1.3881,-0.99056 -2.68341,-2.73054 -4.47747,-2.90451 z"
     id="path880" />
  <path
     style="fill:#bddbff;fill-opacity:1;fill-rule:evenodd;stroke-width:0.548807;stroke-miterlimit:2"
     d="m 48.874464,106.69099 c -4.027061,1.96204 -7.082746,5.75336 -9.745709,9.29077 -1.020645,2.58648 2.300233,4.52499 3.531426,6.41038 2.034953,1.67588 3.84797,4.79337 6.698188,4.84391 3.973655,-2.40265 7.537456,-5.87513 10.056867,-9.77575 0.0097,-2.86916 -3.259029,-4.61364 -4.88983,-6.68949 -1.735726,-1.38277 -3.359039,-3.71137 -5.650942,-4.07982 z"
     id="path882" />
  <path
     style="fill:#bddbff;fill-opacity:1;fill-rule:evenodd;stroke-width:0.548807;stroke-miterlimit:2"
     d="m 462.46888,16.755365 c -14.47238,0.809424 -29.00654,2.255063 -43.15665,5.432403 -3.1951,1.72777 -0.0762,5.58939 1.05064,7.664721 10.67118,16.523558 25.1802,30.753767 42.29915,40.491932 2.76063,1.500567 4.41154,-1.8513 4.45922,-4.136267 2.95227,-16.235464 4.93819,-32.826926 4.92194,-49.271375 -2.60195,-1.215788 -6.56506,0.07114 -9.5743,-0.181414 z"
     id="path884" />
</svg>
