<?xml version="1.0" encoding="utf-8"?>
<!-- Generator: Adobe Illustrator 25.4.1, SVG Export Plug-In . SVG Version: 6.00 Build 0)  -->
<svg version="1.1" id="svg" xmlns="http://www.w3.org/2000/svg" xmlns:xlink="http://www.w3.org/1999/xlink" x="0px" y="0px"
	 viewBox="0 0 400 400" style="enable-background:new 0 0 400 400;" xml:space="preserve">
<style type="text/css">
	.st0{fill:#086EAF;}
	.st1{fill:#020202;}
</style>
<path class="st0" d="M62,321.6c0-0.4-3.9-9.6-10.2-24.6c-1.7-4-3.8-9.1-4.8-11.4c-1-2.3-2.9-6.9-4.3-10.2l-2.5-6l-6.8-0.1
	c-5.3-0.1-6.9,0-7.3,0.4c-0.4,0.5-6.9,15.7-16.1,37.9c-2,4.7-4.1,9.8-4.8,11.3c-1.5,3.4-2.1,3.1,6.5,3.2c7.9,0,7.6,0.1,8.6-2.5
	c0.4-1,1.1-2.9,1.7-4.3l1-2.5h10h10l0.9,2.1c0.5,1.2,1.4,3.2,1.9,4.5l1,2.4l7,0.2C61.1,322.2,62,322.2,62,321.6z M33,301.2
	c-4,0-5.4-0.1-5.4-0.5c0-1,5-13.1,5.4-13c0.2,0.1,1.5,3,2.9,6.5c1.4,3.5,2.5,6.5,2.5,6.7C38.4,301,36,301.2,33,301.2z"/>
<path class="st0" d="M317.2,270.5c-3.6-0.9-28.7-1.3-29-0.5c-0.1,0.3-0.2,12.1-0.1,26.3l0.1,25.7l12.6-0.1c6.9,0,13.5-0.2,14.6-0.5
	C344.7,316,346.1,277.6,317.2,270.5z M306.9,309.2h-4.1V296c0-10.2,0.1-13.2,0.5-13.4c0.9-0.4,8.4,0.2,10.5,0.8
	c5.7,1.6,9,6.1,9,12.4C322.8,304.8,317.6,309.2,306.9,309.2z"/>
<path class="st0" d="M88.1,322.1l19.1-0.1l0.1-0.9c0.1-0.5,0-3.3-0.1-6.3l-0.2-5.4l-12.5-0.1L82,309.2l-0.1-19.7l-0.1-19.7l-6.8-0.1
	c-3.8-0.1-6.9,0-7.1,0.2c-0.7,0.7-0.3,52,0.4,52.2C68.7,322.1,77.6,322.1,88.1,322.1z"/>
<path class="st0" d="M249.6,219.4c-16.1,10.6-32,18.6-51.8,26.1c-3.3,1.3-5.4,2.2-5,2.3c1.7,0.7,127.8,0,130.2-0.7
	c8-2.4,7.9-8.5-0.3-21.1c-1.5-2.3-9-14.4-12.7-20.5c-2.4-3.9-2.1-3.8-5.4-2.5c-12.3,5-31.4,10.3-47.8,13.2
	C253.8,216.8,253,217.1,249.6,219.4z"/>
<path class="st0" d="M271.6,203.5c0,1,30.7-6.1,32.1-7.4c0.3-0.3-8.1-14.2-8.7-14.3c-0.2,0-3,2.6-6.2,5.7c-3.2,3.2-8.4,8-11.5,10.8
	C274.2,201.1,271.6,203.4,271.6,203.5z"/>
<path class="st0" d="M123.3,166.3c32.7,24.4,69.2,37.9,107.2,39.6l5.9,0.3l6.5-3.5c16-8.7,29.5-17.8,41.5-28.3
	c3.9-3.4,4.1-3.6,3.6-4.5c-0.3-0.5-1.3-2.2-2.3-3.8c-2-3.3-1.8-3.2-5.2-2.1c-47.1,14.3-104.5,10.3-150.3-10.3c-2.5-1.1-4.7-2-4.9-2
	c-0.2,0-1.8,2.2-3.6,4.9C117.6,162.6,117.5,161.9,123.3,166.3z"/>
<path class="st0" d="M159.6,141.2c28.4,13.2,59.2,19.3,90.5,17.7c10.9-0.6,26.7-2.5,28.2-3.4c0.4-0.2-0.7-2.2-4.5-8.2
	c-1.4-2.2-11.3-18.1-16.9-27c-2.7-4.4-6.3-10.2-7.9-12.8c-6.7-11.1-10.8-17.8-17.1-27.4c-3.6-5.6-9.9-15.3-13.9-21.6
	c-11.4-17.6-15.3-20.8-21.2-17.4c-4.3,2.5-8.1,7.5-21.8,29.8c-9.7,15.8-16.4,26.5-27.3,44.1c-4.9,7.8-8.9,14.4-8.9,14.7
	C138.8,130.4,150.5,136.9,159.6,141.2z"/>
<path class="st0" d="M80.9,247.7c5,0.6,5.2,0.5,4.8-2.2c-0.5-3.2-0.3-17.1,0.2-18.3l0.4-1l5.3,0.7c17.5,2.4,44.1,3.3,58.3,2
	c17.7-1.6,29-3.5,43.4-7.1c10-2.6,10-2.5,2.4-3.4c-31.8-3.5-60.8-13.2-87-28.9c-3-1.8-5.5-3.3-5.6-3.4c-0.1-0.1-1,1-1.8,2.4
	c-3.4,5.4-9.9,15.8-16.1,25.9c-3.6,5.8-7.7,12.5-9.1,14.7C68.1,241.9,69.2,246.2,80.9,247.7z"/>
<path class="st0" d="M392.9,314.1c-3.4-7.9-10-23.6-15.4-36.3c-1.8-4.2-3.4-7.8-3.6-8.1c-0.7-0.9-13.8-0.7-14.3,0.2
	c-0.2,0.4-2.8,6.6-5.8,13.7c-5,12-7.9,18.9-12.4,29.4c-3,7-3.6,8.6-3.3,8.8c0.4,0.4,14.3,0.3,14.7-0.1c0.2-0.2,1.1-2.2,2.1-4.5
	l1.7-4.2h10.1h10.1l1.8,4.4c1,2.4,1.9,4.5,1.9,4.6c0.2,0.2,15,0.2,15.3-0.1C396,321.7,394.6,318.3,392.9,314.1z M366.6,301.2
	c-3,0-5.4-0.1-5.4-0.3s1.1-2.9,2.3-6.1s2.4-6.1,2.6-6.5c0.5-1.4,1-0.7,2.5,3.2c0.8,2.1,1.9,4.9,2.4,6.2
	C372.6,301.4,372.8,301.2,366.6,301.2z"/>
<path class="st0" d="M228.6,269.8l-7.5-0.1c-7.4-0.1-7.5-0.1-8.1,0.8c-0.4,0.5-3.1,5-6.2,9.9c-3,5-5.7,9-5.9,8.9
	c-0.2,0-2.8-4.1-5.8-9c-3-4.9-5.8-9.3-6.1-9.8c-0.6-0.9-14.7-1.5-15.5-0.6c-0.1,0.1-0.3,11.9-0.3,26.2V322l7.1-0.1l7.1-0.1l0.1-13.2
	c0-7.3,0.1-13.8,0.1-14.6c0-1.5,0.4-1,10,13.9c1.6,2.5,3.1,4.5,3.3,4.5c0.2,0,1.7-2.1,3.4-4.7c1.7-2.6,4.5-6.9,6.3-9.6
	c1.8-2.7,3.4-4.9,3.5-4.9c0.2,0,0.4,6.3,0.4,14.4c0,14.1,0,14.4,0.8,14.4c0.4,0,3.4,0,6.6,0s6.1,0,6.4,0c0.5,0,0.6-3.1,0.5-26.1
	L228.6,269.8z"/>
<path class="st0" d="M266.6,309.6l-14-0.2v-3.8v-3.8l12.5-0.1l12.5-0.1v-5.8V290l-12.5-0.1l-12.5-0.1V286v-3.8l13.8-0.2l13.8-0.2v-6
	v-6l-20.9-0.1c-16.5-0.1-21,0-21.1,0.4c-0.7,1.7,0,52.1,0.7,52.1c0.4,0,10-0.1,21.3-0.1l20.6,0v-6c0-3.3,0-6-0.1-6.1
	C280.6,309.9,274.3,309.7,266.6,309.6z"/>
<path class="st0" d="M167.9,321.5c-0.1-0.3-2-4.8-4.3-10.1c-2.2-5.3-4.8-11.2-5.6-13.2c-5.2-12.4-9.5-22.5-10.8-25.4l-1.5-3.4
	l-6.8-0.1c-6.7-0.1-6.9-0.1-7.5,0.8c-0.3,0.5-0.6,1-0.6,1.2c0,0.2-1.3,3.4-2.9,7.2c-1.6,3.8-3.9,9.1-5,11.7
	c-15.3,36.4-13.5,31.8-12.4,31.8c5.3,0.2,14,0,14.3-0.3c0.2-0.2,1.1-2.3,2-4.6l1.7-4.3h10.1h10.1l1.8,4.5l1.8,4.5l7.9,0.1
	C166.5,322,168,321.9,167.9,321.5z M138.6,300.4c-3,0-5.4-0.2-5.4-0.3c0-0.4,3.5-9.6,4.7-12.2c0.8-1.9,0.8-2,3.7,5.4
	c1.4,3.5,2.5,6.5,2.5,6.7C144,300.3,141.9,300.4,138.6,300.4z"/>
<g>
	<path class="st1" d="M267.8,347c-2.8-0.8-3.4-1.2-3.4-2.4c0-1.6,2.3-1.9,5.1-0.6c2.2,1,2.2,1,3.4-0.7c2-2.8-4.4-5.6-9.1-3.9
		c-3.7,1.3-5.4,5.3-3.7,8.6c0.5,1,4.1,3.2,5.2,3.2c1.8,0,4.6,1.5,4.6,2.4c0,1.8-3.6,2.1-6.7,0.5c-1.2-0.6-2.2-1-2.2-0.9
		c-0.1,0.1-0.6,0.8-1.2,1.5c-2.7,3.3,7.4,6.7,11.7,3.9C277.2,354.9,275.3,349.2,267.8,347z"/>
	<path d="M220.7,347c-3.1-1-3.8-1.4-3.9-2.1c-0.2-1.8,3.7-2.3,5.8-0.7c1.4,1,3.8-0.6,3.8-2.6c0-1.5-7.2-3.2-9.7-2.2
		c-7,2.6-6.3,9.6,1.1,11.7c3.2,0.9,4.6,1.7,4.6,2.5c0,2-3.1,2.3-6.4,0.6l-2.1-1.1l-1.1,1.4c-1.5,1.8-1.3,2.3,1.5,3.8
		c6.3,3.4,13.3,0.5,12.9-5.4C226.9,349.9,225.6,348.7,220.7,347z"/>
	<polygon points="60.9,339.4 60.9,347.2 53.3,347.2 53.3,339.4 48.8,339.4 48.8,359.5 53.3,359.5 53.3,351.7 60.9,351.7 60.9,359.5 
		65.4,359.5 65.4,339.4 	"/>
	<polygon points="346.8,339.2 346.8,339.2 346.7,339.2 341.5,346.9 336.3,339.2 336.3,339.2 331.8,339.2 331.8,359.5 336.3,359.5 
		336.3,348 341.5,354.4 341.5,354.5 341.5,354.5 341.5,354.5 341.6,354.4 346.8,348 346.8,359.5 351.3,359.5 351.3,339.2 	"/>
	<polygon points="252.9,339.1 247.6,339 243.2,345.9 238.9,339.2 233.6,339.3 241,351.3 241,359.5 245.5,359.5 245.5,351 	"/>
	<polygon points="184,339.4 184,347.2 176.4,347.2 176.4,339.4 171.9,339.4 171.9,359.5 176.4,359.5 176.4,351.7 184,351.7 
		184,359.5 188.5,359.5 188.5,339.4 	"/>
	<polygon points="163,339.4 157,339.4 152.5,339.4 146.4,339.4 146.4,343.9 152.5,343.9 152.5,359.5 157,359.5 157,343.9 163,343.9 
			"/>
	<polygon points="298.3,339.4 292.3,339.4 287.8,339.4 281.7,339.4 281.7,343.9 287.8,343.9 287.8,359.5 292.3,359.5 292.3,343.9 
		298.3,343.9 	"/>
	<polygon points="132.1,355 132.1,339.4 127.6,339.4 127.6,359.5 130.4,359.5 132.1,359.5 142.4,359.5 142.4,355 	"/>
	<path d="M114.8,359.5h4.5l-8.1-20.1H111h-4.4h-0.2l-8.1,20.1h4.5l1.9-4.8h8L114.8,359.5z M106.7,350.2l2.2-5.4l2.2,5.4H106.7z"/>
	<polygon points="90.6,343.7 90.6,339.3 77.6,339.3 77.6,339.3 75.7,339.3 75.7,359.5 77.6,359.5 80.2,359.5 90.6,359.5 90.6,355.2 
		80.2,355.2 80.2,351.2 89.6,351.2 89.6,347.2 80.2,347.2 80.2,343.7 	"/>
	<polygon points="322.3,343.7 322.3,339.3 309.3,339.3 309.3,339.3 307.3,339.3 307.3,359.5 309.3,359.5 311.9,359.5 322.3,359.5 
		322.3,355.2 311.9,355.2 311.9,351.2 321.2,351.2 321.2,347.2 311.9,347.2 311.9,343.7 	"/>
</g>
</svg>
