<?xml version="1.0" encoding="utf-8"?>
<!-- Generator: Adobe Illustrator 25.4.1, SVG Export Plug-In . SVG Version: 6.00 Build 0)  -->
<svg version="1.1" id="Layer_1" xmlns="http://www.w3.org/2000/svg" xmlns:xlink="http://www.w3.org/1999/xlink" x="0px" y="0px"
	 viewBox="0 0 418.3 250.4" style="enable-background:new 0 0 418.3 250.4;" xml:space="preserve">
<style type="text/css">
	.st0{fill-rule:evenodd;clip-rule:evenodd;fill:#18223C;}
</style>
<g>
	<g>
		<g>
			<path class="st0" d="M33.8,188.9c1.4,3.4,1.6,3.9,3.1,4.8c1.3,0.8,2.4,0.8,2.4,1.3c0,0.3-0.2,0.4-1.1,0.4c-1.6,0-2.6-0.2-5.8-0.2
				h-5.5c-0.4,0-0.7,0-0.7-0.6c0-0.5,0.4-0.7,1.2-0.8c1.1-0.1,1.9-0.4,1.9-1.2c0-0.5-0.3-1-0.5-1.7l-1.9-6.1
				c-0.1-0.3-0.2-0.5-1.2-0.5c-1.1,0-2.7-0.2-5.8-0.2c-1.1,0-1.6,0.6-2.3,2.4c-0.8,1.9-2.1,4.5-2.1,5.6c0,1.3,1.1,1.5,2.2,1.6
				c0.5,0,1.4,0.2,1.4,0.9c0,0.6-0.4,0.8-1.4,0.8c-0.5,0-1.5-0.2-3.2-0.2c-1.8,0-3.2,0.2-5.2,0.2c-0.5,0-0.8,0-0.8-0.4
				c0-0.8,1.3-0.6,2.4-1.3c0.9-0.5,1.6-1.3,2-2.2l7.9-16.8c1.8-3.8,2.9-7,3.9-9.8h0.6L33.8,188.9L33.8,188.9L33.8,188.9z
				 M23.2,174.4c-0.1-0.2-0.3-0.2-0.4-0.2c-0.2,0-0.4,0.3-0.5,0.6l-2.5,5.7c-0.2,0.5-0.4,0.9-0.4,1.2c0,0.3,1.8,0.4,3.3,0.4
				c1.8,0,3.1,0,3.1-0.3c0-0.2,0-0.4-0.1-0.5L23.2,174.4L23.2,174.4z"/>
			<path class="st0" d="M59.4,183.9c0.5,1.1,1,2.1,1.3,2.1c0.4,0,1.2-2.2,0.7-1.1l6-15.1c0.9-2.2,1.3-2.8,3.4-2.8h7.1
				c0.8,0,0.9,0.2,0.9,0.7c0,0.5-0.2,0.8-2.1,1c-2.3,0.2-2.7,0.3-2.7,2v19.8c0,1.9,0.6,2.7,2.5,3.1c1.6,0.3,2.3,0.7,2.3,1
				c0,0.6-0.2,0.8-1.6,0.8c-1.2,0-3.7-0.3-5.3-0.3c-1.7,0-3.9,0.1-6.2,0.1c-0.6,0-0.7,0-0.7-0.6c0-0.6,0.5-0.8,1.8-0.9
				c1.7-0.1,1.9-0.7,1.9-1.2v-18.1c0-0.9-0.1-1.2-0.2-1.2c-0.2,0-0.7,0.9-1.3,2.6l-7.4,18.4c-0.1,0.4-0.3,0.4-0.6,0.4
				c-0.4,0-0.5-0.2-0.8-0.9l-7.9-18.1c-0.4-0.8-1-2.3-1.3-2.3c-0.2,0-0.2,0.3-0.2,0.5l-0.2,14.5c0,4.5,0.4,5.3,2,5.5
				c2.5,0.3,2.9,0.4,2.9,1c0,0.6-0.4,0.6-1.4,0.6c-0.9,0-2.7-0.2-5-0.2c-2,0-3.1,0.2-4.2,0.2c-0.8,0-1,0-1-0.6c0-0.7,0.2-0.9,2.1-1
				c1.2-0.1,2-0.5,2.2-3.4l1-19c0.1-1.8-0.3-2.3-2.6-2.6c-1.8-0.3-1.9-0.5-1.9-1.1c0-0.4,0.1-0.7,1-0.7c0.8,0,2.6,0.3,3.8,0.3
				c1.5,0,2.6-0.2,3.1-0.2c1.8,0,2,0.1,2.2,0.5L59.4,183.9L59.4,183.9z"/>
			<path class="st0" d="M85.8,171.4c0-1.1,0-2.6-1.5-2.8c-2.3-0.2-2.5-0.4-2.5-0.9c0-0.6,0.2-0.6,0.9-0.6c2,0,4,0.2,9.6,0.2
				c2.9,0,6.1-0.2,10-0.2c0.9,0,1,0.1,1,3.8c0,1.7,0,2.8-0.7,2.8c-0.7,0-0.8-1.3-1.7-2.9c-0.8-1.4-3.4-2-7.3-2c-2,0-2.1,0.1-2.1,2.7
				v7.1c0,0.9,0.2,1.2,2.9,1.2c2.6,0,3.2-0.6,3.8-1.5c0.7-1.1,1.1-2.6,1.8-2.6c0.7,0,0.6,1.2,0.6,1.3c0,1.1-0.4,3.5-0.4,5.3
				c0,1.9,0.2,2.7,0.2,3.1c0,0.4-0.1,0.6-0.7,0.6c-0.5,0-0.6-0.2-1.1-2.3c-0.3-1.4-1.3-2.3-5.3-2.3c-1.7,0-1.9,0.2-1.9,1.4v8.8
				c0,1.7,2.2,2,4.3,2c1.9,0,2.6-0.3,3.5-0.8c3.2-1.8,3.2-4.6,4.3-4.6c0.6,0,0.6,0.5,0.6,0.9c0,0.6-0.6,2.4-0.7,3.5
				c-0.2,1-0.5,2.7-0.9,2.7c-3.9,0-5.7-0.2-7.5-0.2h-9.8c-2.3,0-2.9,0.2-3.3,0.2c-0.6,0-1.1-0.1-1.1-0.7c0-0.9,1-0.9,1.4-1
				c3-0.4,3.4-0.5,3.4-5.1V171.4L85.8,171.4z"/>
			<path class="st0" d="M112,170.8c0-1.4-0.8-2-1.6-2.1c-2.6-0.3-2.8-0.3-2.8-0.9c0-0.7,0.2-0.8,0.9-0.8c2,0,6.5,0.2,7.4,0.2
				c0.7,0,5.1-0.2,7.1-0.2c4,0,8.9,1.6,8.9,6.5c0,6-5.5,6.1-5.5,7c0,0.4,0.1,0.6,0.4,1.1l5.8,9.9c0.8,1.3,1.8,2,2.8,2.2
				c1.8,0.5,2,0.5,2,0.9c0,0.4-0.1,0.5-0.5,0.5h-8.1c-0.3,0-0.7-0.1-0.9-0.5c-0.8-1.7-1.8-3.4-2-4c-4.2-8.5-5.2-9.1-6.9-9.1
				c-1.4,0-1.6,0.2-1.6,3.8v5.1c0,2.3,0.4,3.2,1.3,3.3c2.7,0.3,3.1,0.5,3.1,1c0,0.5-0.2,0.6-0.7,0.6c-1.6,0-2.6-0.2-6.6-0.2h-6.3
				c-0.9,0-1,0-1-0.5c0-0.6,0.4-0.8,1.4-0.9c0.9-0.1,3-0.2,3-2.1c0-0.9,0.3-2.4,0.3-10.2V170.8L112,170.8L112,170.8z M117.4,179.1
				c0,0.9,0.2,1,0.8,1c4.1,0,8.2-0.2,8.2-5.8c0-5-4.5-5.7-7.4-5.7c-1.4,0-1.6,1.1-1.6,3.2V179.1L117.4,179.1z"/>
			<path class="st0" d="M144.1,171.3c0-1.9-0.3-2.5-2.2-2.6c-1.1,0-1.4-0.3-1.4-0.8c0-0.6,0.2-0.8,1.3-0.8c1.1,0,2.3,0.2,4.6,0.2
				c3.7,0,4.3-0.2,5.8-0.2c1.1,0,1.3,0.1,1.3,0.5c0,0.4-0.4,0.8-1.4,0.8c-2.3,0.2-2.5,0.5-2.5,2.2v20.2c0,2.4,0.8,2.5,2.5,2.8
				c1,0.2,1.5,0.4,1.5,1.1c0,0.4-0.1,0.5-1.1,0.5c-1.2,0-3.5-0.2-6.9-0.2c-2.6,0-4,0.2-5.3,0.2c-0.7,0-0.8-0.3-0.8-0.9
				c0-0.6,0.2-0.7,2-0.8c1.6-0.1,2.6-0.1,2.6-3.6V171.3L144.1,171.3z"/>
			<path class="st0" d="M156,181.7c0-11.2,8.8-15.2,15.7-15.2c3.5,0,8.1,1.1,8.3,2.4c0.1,0.6,0.3,3.1,0.3,3.5c0,0.3-0.1,0.6-0.6,0.6
				c-1.2,0-2.9-5.1-8.1-5.1c-4.9,0-9.7,5.2-9.7,13c0,11.9,7,13.5,9.1,13.5c6,0,7.8-6.2,8.8-6.2c0.3,0,0.5,0.4,0.5,0.8
				c0,0.5-0.6,3.6-0.8,4.6c-0.4,1.9-6.1,2.5-8.2,2.5C163.8,196,156,190.5,156,181.7L156,181.7z"/>
			<path class="st0" d="M208.5,188.9c1.4,3.4,1.6,3.9,3.1,4.8c1.3,0.8,2.4,0.8,2.4,1.3c0,0.3-0.2,0.4-1.1,0.4
				c-1.6,0-2.6-0.2-5.8-0.2h-5.5c-0.4,0-0.7,0-0.7-0.6c0-0.5,0.4-0.7,1.2-0.8c1.1-0.1,1.9-0.4,1.9-1.2c0-0.5-0.3-1-0.5-1.7l-1.9-6.1
				c-0.1-0.3-0.3-0.5-1.2-0.5c-1.2,0-2.7-0.2-5.8-0.2c-1.1,0-1.6,0.6-2.3,2.4c-0.8,1.9-2.1,4.5-2.1,5.6c0,1.3,1.1,1.5,2.2,1.6
				c0.5,0,1.4,0.2,1.4,0.9c0,0.6-0.4,0.8-1.4,0.8c-0.6,0-1.5-0.2-3.2-0.2c-1.8,0-3.2,0.2-5.2,0.2c-0.5,0-0.8,0-0.8-0.4
				c0-0.8,1.3-0.6,2.4-1.3c0.9-0.5,1.6-1.3,2-2.2l7.8-16.8c1.8-3.8,2.9-7,4-9.8h0.6L208.5,188.9L208.5,188.9L208.5,188.9z
				 M197.9,174.4c-0.1-0.2-0.3-0.2-0.4-0.2c-0.2,0-0.4,0.3-0.5,0.6l-2.5,5.7c-0.2,0.5-0.4,0.9-0.4,1.2c0,0.3,1.8,0.4,3.3,0.4
				c1.8,0,3.1,0,3.1-0.3c0-0.2,0-0.4-0.1-0.5L197.9,174.4L197.9,174.4z"/>
			<path class="st0" d="M220.9,171.6c0-2.1-0.5-2.4-3.7-2.9c-0.7-0.1-0.7-0.2-0.7-0.8c0-0.3,0.1-0.6,0.7-0.6c6.5,0,7.5-0.1,9.3-0.2
				l11.1,13.6c3.4,4.1,5,5.4,5.6,6.1c0.2,0.2,0.3,0.2,0.4,0.2c0.1,0,0.2-0.1,0.2-0.2v-14.7c0-2.8-0.3-3.1-3.7-3.3
				c-0.8,0-1-0.2-1-0.8c0-0.5,0.1-0.9,1.2-0.9c1.1,0,2.8,0.2,4.3,0.2c2.5,0,3.8-0.2,4.5-0.2c0.7,0,1.1,0.2,1.1,0.7
				c0,0.5-0.1,0.5-2.5,1c-1.2,0.2-1.4,0.7-1.6,3.2c-0.2,4.5-0.4,9.6-0.4,14.9v9.1c0,0.7-0.2,0.9-0.5,0.9c-0.8,0-1.3-1.3-3.4-3.7
				l-18.7-21c-0.1-0.1-0.3,0-0.3,0.1v8.5c0,3.6,0.2,6.5,0.2,9.3c0,2.3,0.5,3,3.4,3.6c1.3,0.3,1.7,0.5,1.7,0.9c0,0.8-0.5,0.8-1.3,0.8
				c-1.7,0-3.3-0.2-5-0.2c-1.9,0-3.1,0.2-4.4,0.2c-0.8,0-1.4,0-1.4-0.7c0-0.5,0.5-0.9,1.9-1c1.7-0.1,2.5-0.4,2.5-2.9
				c0.1-2.5,0.3-9.5,0.3-10V171.6L220.9,171.6z"/>
		</g>
		<g>
			<path class="st0" d="M269.6,171.4c0-1.1,0-2.6-1.5-2.8c-2.4-0.2-2.5-0.4-2.5-0.9c0-0.6,0.2-0.6,0.9-0.6c2,0,4,0.2,9.6,0.2
				c2.9,0,6-0.2,10-0.2c0.9,0,1,0.1,1,3.8c0,1.7,0,2.8-0.7,2.8c-0.7,0-0.8-1.3-1.7-2.9c-0.8-1.4-3.4-2-7.3-2c-2,0-2.1,0.1-2.1,2.7
				v7.1c0,0.9,0.2,1.2,2.9,1.2c2.6,0,3.2-0.6,3.8-1.5c0.7-1.1,1.1-2.6,1.8-2.6c0.7,0,0.7,1.2,0.7,1.3c0,1.1-0.4,3.5-0.4,5.3
				c0,1.9,0.2,2.7,0.2,3.1c0,0.4-0.1,0.6-0.7,0.6c-0.6,0-0.7-0.2-1.2-2.3c-0.3-1.4-1.3-2.3-5.3-2.3c-1.7,0-1.9,0.2-1.9,1.4v8.8
				c0,1.7,2.2,2,4.3,2c1.9,0,2.6-0.3,3.5-0.8c3.2-1.8,3.2-4.6,4.3-4.6c0.6,0,0.6,0.5,0.6,0.9c0,0.6-0.6,2.4-0.7,3.5
				c-0.2,1-0.5,2.7-0.9,2.7c-4,0-5.7-0.2-7.5-0.2h-9.8c-2.3,0-2.9,0.2-3.3,0.2c-0.6,0-1.1-0.1-1.1-0.7c0-0.9,1-0.9,1.4-1
				c3-0.4,3.4-0.5,3.4-5.1V171.4L269.6,171.4z"/>
			<path class="st0" d="M316.3,188.9c1.4,3.4,1.6,3.9,3.1,4.8c1.3,0.8,2.4,0.8,2.4,1.3c0,0.3-0.2,0.4-1.1,0.4
				c-1.6,0-2.6-0.2-5.8-0.2h-5.5c-0.4,0-0.7,0-0.7-0.6c0-0.5,0.4-0.7,1.2-0.8c1.1-0.1,1.9-0.4,1.9-1.2c0-0.5-0.3-1-0.5-1.7l-1.9-6.1
				c-0.1-0.3-0.2-0.5-1.2-0.5c-1.1,0-2.7-0.2-5.8-0.2c-1.2,0-1.6,0.6-2.3,2.4c-0.8,1.9-2.1,4.5-2.1,5.6c0,1.3,1.1,1.5,2.2,1.6
				c0.5,0,1.4,0.2,1.4,0.9c0,0.6-0.4,0.8-1.4,0.8c-0.6,0-1.5-0.2-3.2-0.2c-1.8,0-3.2,0.2-5.2,0.2c-0.4,0-0.8,0-0.8-0.4
				c0-0.8,1.3-0.6,2.4-1.3c0.9-0.5,1.6-1.3,2-2.2l7.8-16.8c1.8-3.8,2.9-7,3.9-9.8h0.6L316.3,188.9L316.3,188.9L316.3,188.9z
				 M305.7,174.4c-0.1-0.2-0.3-0.2-0.4-0.2c-0.2,0-0.4,0.3-0.5,0.6l-2.5,5.7c-0.2,0.5-0.4,0.9-0.4,1.2c0,0.3,1.8,0.4,3.3,0.4
				c1.8,0,3.1,0,3.1-0.3c0-0.2,0-0.4-0.1-0.5L305.7,174.4L305.7,174.4z"/>
			<path class="st0" d="M347.7,192.9c0,1.2-5.8,3.2-10.9,3.2c-7.4,0-15.3-4-15.3-14.3c0-9.8,7.1-15.2,15.9-15.2c3.5,0,8.9,0.6,9,2.5
				c0,1.5,0.3,2.9,0.3,4.4c0,0.3-0.2,0.4-0.5,0.4c-0.4,0-0.5-0.1-1.1-1.4c-1.2-2.7-3.4-4.5-7.2-4.5c-6.6,0-10.8,5.8-10.8,13.8
				c0,8.1,5.9,12.6,10,12.6c5.2,0,6-0.5,6-7.8c0-2.4-0.1-3-2.2-3.1c-2.9-0.2-2.9-0.2-2.9-0.8c0-0.5,0.2-0.7,1.1-0.7h7.1
				c1.8,0,3.3-0.2,4-0.2c0.8,0,1.3,0,1.3,0.7c0,0.5-0.2,0.6-1.9,1c-1.3,0.2-1.6,0.6-1.7,2.8L347.7,192.9L347.7,192.9z"/>
			<path class="st0" d="M357.8,170.4c0-0.4-0.7-1.6-2.4-1.6c-1.6,0-1.8-0.5-1.8-0.9c0-0.5,0.3-0.7,0.8-0.7c2,0,4,0.2,6.1,0.2
				c2,0,4-0.2,6-0.2c1,0,1.3,0.1,1.3,0.9c0,0.3-0.3,0.7-1,0.8c-2.3,0.3-3.5,0.5-3.5,1.7V191c0,2.3,0.2,2.6,1.3,2.6h3.2c7,0,8-5,9-5
				c0.3,0,0.6,0.1,0.6,1c0,1.6-0.8,5.8-1.7,5.8c-3.6,0-10-0.2-13.2-0.2c-2.1,0-5,0.2-7.6,0.2c-1.2,0-1.7,0-1.7-0.8
				c0-0.7,1.4-0.8,3-1c1.4-0.2,1.6-0.5,1.6-5.5V170.4L357.8,170.4z"/>
			<path class="st0" d="M384.2,171.4c0-1.1,0-2.6-1.5-2.8c-2.3-0.2-2.5-0.4-2.5-0.9c0-0.6,0.2-0.6,0.9-0.6c2,0,4.1,0.2,9.7,0.2
				c2.9,0,6.1-0.2,10-0.2c0.9,0,1,0.1,1,3.8c0,1.7,0,2.8-0.7,2.8c-0.7,0-0.8-1.3-1.7-2.9c-0.8-1.4-3.4-2-7.3-2c-2,0-2.1,0.1-2.1,2.7
				v7.1c0,0.9,0.2,1.2,2.9,1.2c2.6,0,3.2-0.6,3.8-1.5c0.7-1.1,1.1-2.6,1.8-2.6c0.7,0,0.6,1.2,0.6,1.3c0,1.1-0.4,3.5-0.4,5.3
				c0,1.9,0.2,2.7,0.2,3.1c0,0.4-0.1,0.6-0.7,0.6c-0.5,0-0.6-0.2-1.1-2.3c-0.3-1.4-1.3-2.3-5.3-2.3c-1.7,0-1.9,0.2-1.9,1.4v8.8
				c0,1.7,2.2,2,4.3,2c1.9,0,2.6-0.3,3.5-0.8c3.2-1.8,3.2-4.6,4.3-4.6c0.6,0,0.6,0.5,0.6,0.9c0,0.6-0.5,2.4-0.7,3.5
				c-0.2,1-0.5,2.7-0.9,2.7c-3.9,0-5.7-0.2-7.5-0.2h-9.8c-2.2,0-2.9,0.2-3.3,0.2c-0.6,0-1.1-0.1-1.1-0.7c0-0.9,1-0.9,1.4-1
				c3-0.4,3.4-0.5,3.4-5.1V171.4L384.2,171.4z"/>
		</g>
	</g>
	<g>
		<path class="st0" d="M101.6,209c8.1,0,13.4,5.8,13.4,11.9c0,6.1-5.4,11.9-13.4,11.9c-8.1,0-13.4-5.8-13.4-11.9
			C88.2,214.8,93.6,209,101.6,209L101.6,209L101.6,209z M101.6,231.6c4.8,0,8.2-4,8.2-10.6c0-7.6-3.4-10.6-8.2-10.6
			c-4.8,0-8.2,3-8.2,10.6C93.4,227.6,96.8,231.6,101.6,231.6L101.6,231.6z"/>
		<path class="st0" d="M120.6,212.8c0-1.1-0.1-1.7-1.1-1.7c-2.3,0-2.3-0.2-2.3-0.6c0-0.7,0.6-0.8,1.3-0.8h9.1c0.7,0,0.8,0.2,0.8,0.7
			c0,0.4-0.1,0.4-1.3,0.5c-1.8,0-2,0.2-2.1,3.3l-0.1,9.9c-0.1,6.2,2.4,7.4,6.6,7.4c3.7,0,7.2-1.4,7.3-5.5l0.2-12.5
			c0-1.4-0.1-2-2.5-2.6c-1.1-0.3-1.3-0.4-1.3-0.7c0-0.4,0.2-0.6,0.7-0.6c0.5,0,1.2,0.1,1.8,0.1h5.7c0.3,0,0.3,0.3,0.3,0.4
			c0,0.4-0.1,0.5-1.2,0.8c-1.6,0.5-2.1,0.9-2.1,2.6l-0.2,11.8c-0.1,5.3-3.1,7.6-9.3,7.6c-3.1,0-10.4-0.8-10.3-6.9L120.6,212.8
			L120.6,212.8z"/>
		<path class="st0" d="M165.7,210.2c3.5,0,2.3-1.7,3.3-1.7c0.3,0,0.4,0.2,0.4,1c0,5.3-0.2,5.7-0.7,5.7c-0.3,0-0.4-0.2-0.6-0.6
			c-0.6-2.4-1.3-3-6.4-3c-1.6,0-1.8,0.1-1.8,0.9v15.9c0,1.8,0.2,2.6,1.2,2.6c2.2,0,2.8,0.3,2.8,0.8c0,0.5-0.4,0.5-1.1,0.5
			c-1.1,0-3.9-0.1-5-0.1c-1.8,0-3.6,0.3-5.4,0.3c-0.7,0-0.8-0.2-0.8-0.5c0-0.8,1.9-0.5,3-1c0.4-0.2,0.8-1.5,0.8-2.1v-15.1
			c0-2-0.1-2.1-2.8-2.1c-5.4-0.1-5.5,4.1-6.7,4.1c-0.4,0-0.5-0.2-0.5-0.4c0-0.9,1-3.4,1.7-5.4c0.3-1,0.5-1.1,0.9-1.1
			c1,0-0.4,1.5,3.6,1.5H165.7L165.7,210.2z"/>
		<path class="st0" d="M179.6,218.8c0,0.7,0.3,0.9,1.5,0.9c3.7,0,4.5-0.7,4.9-1.4c0.6-1.1,0.6-1.9,1.1-1.9c0.5,0,0.7,0.1,0.7,4.6
			c0,3.4-0.1,3.5-0.6,3.5c-0.4,0-0.5-0.7-0.8-1.4c-0.4-1.1-0.9-2.1-4.4-2.1c-2.1,0-2.3,0.1-2.3,1.4v6.2c0,1.9,0.5,2.1,2.9,2.5
			c1.4,0.2,1.5,0.4,1.5,0.8c0,0.5-0.1,0.5-1,0.5c-1.8,0-3.6-0.1-5.4-0.1c-1.7,0-3.5,0.1-5.3,0.1c-0.5,0-0.6-0.2-0.6-0.6
			c0-0.5,0.2-0.6,2.3-0.7c0.5,0,1-0.2,1-1.6c0-5.5,0.2-11.1,0.2-16.7c0-1.4-0.4-1.9-1.5-1.9c-1.4,0-1.5-0.2-1.5-0.7
			c0-0.5,0.3-0.7,1.4-0.7c1.8,0,3.7,0.1,5.3,0.1c2.1,0,7.8-0.1,9.5-0.1c1.5,0,1.7,0,1.7,1.7c0,3.8-0.1,3.8-0.6,3.8
			c-0.5,0-0.5-1.3-1-2.2c-1.1-1.8-4.7-2-6.2-2c-2.3,0-2.7,0.1-2.7,2.4V218.8L179.6,218.8z"/>
		<path class="st0" d="M197.1,213c0-1.5-0.3-2-1.8-2.1c-0.9,0-1.1-0.2-1.1-0.7c0-0.4,0.2-0.7,1-0.7c0.9,0,1.9,0.1,3.7,0.1
			c3,0,3.4-0.1,4.7-0.1c0.9,0,1,0.1,1,0.4c0,0.3-0.3,0.6-1.2,0.7c-1.9,0.2-2,0.4-2,1.8v16.3c0,1.9,0.7,2,2,2.3
			c0.8,0.2,1.2,0.3,1.2,0.9c0,0.3-0.1,0.4-0.8,0.4c-1,0-2.9-0.1-5.6-0.1c-2.1,0-3.3,0.1-4.3,0.1c-0.6,0-0.6-0.3-0.6-0.7
			c0-0.5,0.1-0.6,1.6-0.6c1.3-0.1,2.1-0.1,2.1-2.9V213L197.1,213z"/>
		<path class="st0" d="M227.6,210.2c3.6,0,2.3-1.7,3.3-1.7c0.3,0,0.4,0.2,0.4,1c0,5.3-0.2,5.7-0.7,5.7c-0.3,0-0.4-0.2-0.5-0.6
			c-0.6-2.4-1.3-3-6.4-3c-1.6,0-1.8,0.1-1.8,0.9v15.9c0,1.8,0.2,2.6,1.2,2.6c2.2,0,2.8,0.3,2.8,0.8c0,0.5-0.4,0.5-1.1,0.5
			c-1.2,0-3.9-0.1-5-0.1c-1.8,0-3.6,0.3-5.4,0.3c-0.7,0-0.8-0.2-0.8-0.5c0-0.8,1.9-0.5,3-1c0.4-0.2,0.8-1.5,0.8-2.1v-15.1
			c0-2-0.1-2.1-2.8-2.1c-5.4-0.1-5.5,4.1-6.7,4.1c-0.5,0-0.5-0.2-0.5-0.4c0-0.9,1-3.4,1.7-5.4c0.3-1,0.5-1.1,0.9-1.1
			c1,0-0.4,1.5,3.6,1.5H227.6L227.6,210.2z"/>
		<path class="st0" d="M253.9,210.2c3.6,0,2.3-1.7,3.3-1.7c0.3,0,0.5,0.2,0.5,1c0,5.3-0.2,5.7-0.7,5.7c-0.3,0-0.4-0.2-0.5-0.6
			c-0.6-2.4-1.3-3-6.4-3c-1.6,0-1.8,0.1-1.8,0.9v15.9c0,1.8,0.2,2.6,1.2,2.6c2.2,0,2.8,0.3,2.8,0.8c0,0.5-0.4,0.5-1.1,0.5
			c-1.1,0-3.9-0.1-5-0.1c-1.8,0-3.6,0.3-5.4,0.3c-0.7,0-0.8-0.2-0.8-0.5c0-0.8,1.9-0.5,3-1c0.4-0.2,0.9-1.5,0.9-2.1v-15.1
			c0-2-0.1-2.1-2.8-2.1c-5.4-0.1-5.5,4.1-6.7,4.1c-0.4,0-0.5-0.2-0.5-0.4c0-0.9,1-3.4,1.7-5.4c0.3-1,0.5-1.1,0.9-1.1
			c1,0-0.4,1.5,3.6,1.5H253.9L253.9,210.2z"/>
		<path class="st0" d="M263.4,213c0-0.9,0-2.1-1.2-2.2c-1.9-0.2-2-0.3-2-0.7c0-0.4,0.2-0.5,0.7-0.5c1.6,0,3.3,0.1,7.8,0.1
			c2.4,0,4.9-0.1,8.1-0.1c0.7,0,0.8,0.1,0.8,3.1c0,1.4,0,2.3-0.6,2.3c-0.6,0-0.6-1.1-1.4-2.3c-0.7-1.1-2.7-1.6-5.9-1.6
			c-1.6,0-1.7,0.1-1.7,2.2v5.7c0,0.7,0.1,1,2.4,1c2.1,0,2.6-0.5,3.1-1.2c0.6-0.9,0.9-2.1,1.4-2.1c0.5,0,0.5,1,0.5,1.1
			c0,0.8-0.3,2.8-0.3,4.3c0,1.5,0.1,2.2,0.1,2.5c0,0.3-0.1,0.5-0.6,0.5c-0.4,0-0.5-0.2-0.9-1.9c-0.2-1.1-1-1.9-4.3-1.9
			c-1.4,0-1.5,0.2-1.5,1.1v7.1c0,1.4,1.8,1.6,3.5,1.6c1.6,0,2.1-0.3,2.8-0.7c2.6-1.4,2.6-3.7,3.4-3.7c0.5,0,0.5,0.4,0.5,0.7
			c0,0.5-0.5,1.9-0.6,2.8c-0.2,0.8-0.4,2.2-0.7,2.2c-3.2,0-4.6-0.1-6-0.1H263c-1.8,0-2.3,0.1-2.6,0.1c-0.5,0-0.8-0.1-0.8-0.5
			c0-0.7,0.8-0.7,1.1-0.8c2.4-0.3,2.8-0.4,2.8-4.1V213L263.4,213z"/>
		<path class="st0" d="M284.7,212.6c0-1.1-0.6-1.6-1.3-1.7c-2.1-0.2-2.2-0.2-2.2-0.7c0-0.5,0.2-0.6,0.8-0.6c1.6,0,5.2,0.1,5.9,0.1
			c0.6,0,4.1-0.1,5.7-0.1c3.3,0,7.1,1.3,7.1,5.2c0,4.8-4.4,4.9-4.4,5.7c0,0.3,0.1,0.5,0.3,0.9l4.7,8c0.6,1,1.5,1.6,2.3,1.8
			c1.5,0.4,1.6,0.4,1.6,0.7c0,0.3,0,0.4-0.4,0.4h-6.6c-0.3,0-0.5-0.1-0.7-0.4c-0.7-1.4-1.4-2.8-1.6-3.2c-3.4-6.8-4.2-7.4-5.6-7.4
			c-1.1,0-1.3,0.1-1.3,3.1v4.1c0,1.9,0.3,2.6,1.1,2.6c2.1,0.2,2.5,0.4,2.5,0.8c0,0.4-0.2,0.5-0.6,0.5c-1.3,0-2.1-0.1-5.3-0.1h-5.1
			c-0.7,0-0.8,0-0.8-0.5c0-0.5,0.3-0.7,1.2-0.7c0.7-0.1,2.4-0.1,2.4-1.7c0-0.7,0.3-2,0.3-8.2V212.6L284.7,212.6L284.7,212.6z
			 M289.1,219.3c0,0.7,0.2,0.8,0.7,0.8c3.3,0,6.6-0.2,6.6-4.7c0-4-3.6-4.6-6-4.6c-1.1,0-1.3,0.8-1.3,2.5V219.3L289.1,219.3z"/>
		<path class="st0" d="M321.1,214.2c0,0.4-0.1,0.6-0.5,0.6c-0.9,0-0.8-4.4-5.3-4.4c-3.3,0-4.3,2.1-4.3,3.8c0,4.1,11.7,3.5,11.7,11.5
			c0,2.6-1.3,7.1-8.3,7.1c-3.2,0-6.9-0.8-6.9-2.4c0-1.7,0-4.7,0.9-4.7c0.9,0,0.5,1.8,1.8,3.4c0.9,1.1,3,2.3,5.2,2.3
			c3.1,0,4.5-1.9,4.5-3.8c0-5.7-11.5-4.7-11.5-12.4c0-3.8,2.5-6.2,7.7-6.2c2.7,0,5,0.5,5,1.5V214.2L321.1,214.2z"/>
	</g>
	<g>
		<path class="st0" d="M125.3,25.6c0.6,3,0.3,6.9,2.6,8.3c0-4.2-1.8-13.3,1.1-16.5c0.2,4.4,0.5,8.8,2.8,11.1
			c0.3-4.6-1.2-12.2,2.4-14.6c-0.9,10.5,2.2,18.5,9.1,22c0.3,0-0.2-1.1,0-1.7c8.4,9.7,20.7,13.7,29.6,22.6
			c8.8,8.8,11,22.8,21.3,30.7c9.7-3.4,11.4-14.2,14.8-23.9c2.4-7.1,6.5-14,11.7-19.1c5.3-5.1,12.9-8.3,19.1-11.7
			c6.5-3.6,13.5-6.8,19.1-11.5c1.2-1,2-2.9,4.1-3.5c-0.1,4.4-3.7,7.2-5.4,10.7c3.9-0.9,7-3.8,10-6.3c1.6-1.3,3-2.6,4.3-4.1
			c1.3-1.5,2.1-3.4,3.9-4.4c0.2,5.3-3.1,8.8-6.1,11.7c-2.3,2.3-5.3,4-7.2,6.5c2.4,0.8,4.6-1.1,6.3-2.2c3.8-2.4,7-5.3,10.2-8.5
			c1.6-1.5,3-3.5,5-4.4c-0.7,9-8.5,12.8-13.3,18.5c5.8-1.3,11.2-5.9,15.7-8.5c-2,8.5-11.8,9.2-17.4,14.1c2.8,1.5,5.9-0.5,8.3-1.5
			c2.7-1.1,5.1-2.5,7.8-3c-0.9,8.1-11.2,8.6-17,12.6c3.6,1.6,7.9-1.6,11.7-2c-0.9,2.5-3.5,3.7-5.9,4.8c-2.5,1.1-5.6,1.2-7.4,3
			c0.6,1.7,3.1,0.5,4.6,0.4c-0.3,3.3-4.9,2.2-7.2,3.5c0.7,1.2,2.6,1.1,3.9,1.5c-1,3.4-8.2,0.7-9.8,3.5c0.5,1.3,2.7,0.7,3.9,1.3
			c-1.1,2.3-6.5,0.5-7.6,2.8c0,1.1,1.8,1.5,1.7,2c-0.7,1.9-5.6-0.2-6.1,2c0.1,0.8,1,0.9,1.5,1.3c-0.4,1.9-3.7,1.1-4.8,2.4
			c-0.3,1.3,1.3,0.9,1.5,1.1c0,2-2.2,1.8-2.8,3c-0.2,1.4,1.3,1.2,1.1,2.6c-1,0.2-2.6-0.1-2.8,1.3c0.3,1.3,1.5,1.7,1.1,3.7
			c-1.2-0.2-2.4-0.1-2.8,0.9c0.3,1.3,2,1.1,1.5,3c-1-0.3-2.5-0.3-2.6,0.9c0.3,1.7,2.6,1.5,2.2,3.9c-1.6-0.5-3.6-0.1-4.1,1.1
			c0.3,1.5,1.8,1.9,1.5,3.9c-0.6,0.4-1.3-0.9-2.2-0.2c-0.2,1.2,1.6,2.7,0.7,4.6c-1.1-0.2-1.3-1.3-2.8-1.1c-0.6,1.6,1.2,2.9,0.4,4.8
			c-0.6,0.2-2-1-2.8,0c0,1.8,0.9,2.7,0.7,4.8c-1.9,0.3-2.4-0.8-3.7-1.1c-0.6,1.1,0.5,2.9-0.2,4.1c-1,0.2-3.1-2-4.6-0.7
			c-0.5,1.5,1.1,1.6,0.7,2.4c-6.1,0.2-6.6-5.3-11.3-6.5c3.9,8,8,14.6,14.6,19.6c3.8,2.9,10.7,4.2,10.4,11.3c-2.3,0-2.3,2.4-4.6,2.4
			c-0.7,0.7-0.8,2-1.7,2.4c-1.2,0.1-1.8-0.4-2.6-0.7c-1.2,0.1-1.3,1.3-2.2,1.7c-2.6-1.5-3.9,1.6-5.9,1.7c-1,0.1-1.6-0.9-2.8-1.1
			c-1.4-0.2-2.8,1-3.9,0.9c-1.8-0.2-3.2-3.7-6.1-1.5c-1.3-0.3-1.2-1.9-2.4-2.4c-0.8-0.1-0.8,0.5-1.5,0.4c-0.9-0.5-1.7-1.9-3.3-1.1
			c-1.1-0.6-1.2-2.6-3-1.7c-0.3-0.6-0.3-1.5-0.4-2.2c-0.4-0.6-1.3,0.3-1.5-0.2c-1-5.4,6.5-7.4,4.4-12.4c-2.6,0.9-3.9,3.2-4.4,6.3
			c-0.8,0.1-0.7-0.8-1.1-1.1c-0.8,1.6-1.5,3.5-1.5,5.9c-0.7-0.5-1-1.3-1.3-2.2c-1.9,1.4-3.3,3.4-4.1,5.9c-0.7-0.5-0.3-2-1.3-2.2
			c-2.1,0.5-2.2,3.2-1.5,4.4c1.3,2.4,8.6,3,5.2,7.6c-0.4-0.8-0.6-1.9-1.3-2.4c-2.3,0.6-4-0.9-5.2-2c-4.4-0.3-7.3,1-7.6,4.8
			c-1.2-0.5-1.8-2.9-0.9-4.1c-1.5,0.1-2.3,0.7-2.6,2c-1.2-0.5-1.1-2.3-0.4-3.3c-1.7-0.2-2.1,1.9-3,1.7c-1.4-4.4,4.8-4.6,8.3-5.7
			c-0.4-1.4-1.6-0.8-2.8-1.3c-3-1.2-7.2-5.9-9.6-1.7c-1.3-0.9-0.4-3,0.4-3.7c-2-0.5-2.9,1.3-3.7,1.3c-0.1-1.8,0.7-2.6,1.5-3.5
			c-1.1-0.8-2.9,0-3.9,0.4c1.1-3.9,4.8-2.6,7.8-1.3c1.1,0.5,2.7,1.9,3.9,1.7c2-0.2,3.4-5.6,4.4-8.5c1.7-4.9,4.6-9.3,3.9-16.1
			c-0.5-5.3-4.3-8.4-9.6-6.7c-0.6,0.2-1,0.6-1.5,0.9c-2.4,1-6.2,0.2-8,2.2c-0.8-0.8,0.8-1.9-0.2-2.4c-1.7,0.4-2.1,2.1-2.4,3.9
			c-2.4-1.5-2.5-6.4-0.2-8c-0.2-3.3,1-5.1,3-6.7c3.1-2.4,10.1-3.5,10.7-6.3c0.6-3.5-4.3-9.4-5.9-11.1c-8.3-8.8-21.8-12.7-33.1-17.8
			c0.6-0.5,2.1-0.1,2.8-0.4c-1.8-2.2-5.1-3.1-6.3-5.9c1,0.1,1.7,0.3,2.8,0.2c-2-2.4-6.4-4.2-7.8-7.8c1.4,0,2.8,1.9,4.6,2.2
			c-3.6-3.5-6.7-9.9-6.7-16.8C124.2,29.6,124.3,26.9,125.3,25.6z M178.8,139.5c1.6,0.7,1.9,2.7,2.6,4.4c1.8-1.6,3.3-4.5,2.4-8
			C181.2,136.1,180.1,137.9,178.8,139.5z"/>
	</g>
</g>
</svg>
