<?xml version="1.0" encoding="utf-8"?>
<!-- Generator: Adobe Illustrator 25.4.1, SVG Export Plug-In . SVG Version: 6.00 Build 0)  -->
<svg version="1.1" id="svg" xmlns="http://www.w3.org/2000/svg" xmlns:xlink="http://www.w3.org/1999/xlink" x="0px" y="0px"
	 viewBox="0 0 400 200" style="enable-background:new 0 0 400 200;" xml:space="preserve">
<style type="text/css">
	.st0{fill-rule:evenodd;clip-rule:evenodd;fill:#FA2524;}
	.st1{fill:#040404;}
</style>
<path id="path0" class="st0" d="M35.5,18.2c-0.3,0.5-0.3,9.3-0.3,81.3c0,81.9,0,81.7,0.7,81.7c0.3,0,161.3,0,161.7,0
	c0.9,0,0.9,4.1,0.9-81.8c0-80,0-80.6-0.4-81.2l-0.4-0.6h-80.9H35.8L35.5,18.2 M77.6,51.4c3.1,0.6,7.4,3.1,7.4,4.2
	c0,0.1,0.2,0.2,0.4,0.3c0.4,0.1,0.5,0.3,1.1,2.2c0.6,2,0.7,3.2,0.7,16.1C87.3,89.6,87.6,88,84.5,88c-4,0-3.7,1.1-3.8-13.8
	c0-6.5-0.2-12.2-0.3-12.6c-0.9-3.6-2-4.4-6.1-4.5c-2.5-0.1-4.2,0.2-5.8,1.2c-0.6,0.3-1.1,0.6-1.2,0.6c-0.1,0-0.5,0.2-0.8,0.5
	c-0.7,0.6-1.3,0.6-1.9,0.1c-0.8-0.8-1-4.5-0.3-5.4C65.9,51.8,72.9,50.5,77.6,51.4 M133.9,51.2c1.9,0.4,3.6,1.3,5,2.8
	c1.1,1.2,1.2,1.3,1.5,1c2.6-2.2,4.2-3.3,5.9-3.8c1.6-0.5,6-0.1,7.2,0.6c0.3,0.2,0.8,0.4,1,0.4c0.8,0,2.5,1.6,3.2,3
	c0.3,0.5,0.7,1.1,0.9,1.4c0.3,0.3,0.5,1,0.6,1.9c0.1,0.8,0.3,1.6,0.4,1.9c0.1,0.3,0.2,5.1,0.1,13.7l-0.1,13.2l-0.5,0.4
	c-0.4,0.3-0.8,0.4-3.1,0.3l-2.6-0.1l-0.3-0.6c-0.2-0.5-0.3-2.9-0.3-13.3l0-12.7l-0.6-1.3c-1-2.1-2-2.7-4.4-2.8c-2.2,0-4,1.1-5.3,3.2
	c-0.7,1.2-0.8,4.5-0.8,16c0,10.4,0,10.9-0.7,11.3c-0.5,0.3-5.5,0.2-5.8-0.2c-0.4-0.4-0.4,0.8-0.4-13.7c-0.1-14.5-0.1-14.7-2.1-16.3
	c-0.7-0.5-3.6-0.7-4.9-0.3c-1,0.3-3,2.6-3.2,3.6c-0.1,0.5-0.3,1.3-0.5,1.7c-0.3,0.8-0.4,1.6-0.4,12.7c0,14.3,0.4,12.8-3.3,12.6
	c-2.8-0.1-3.3-0.3-3.5-1.2c-0.1-0.4-0.2-7-0.2-17.5l0-16.8l0.6-0.6c0.6-0.6,0.7-0.6,2.6-0.6c2.9,0,3.6,0.4,3.6,2
	c0,1.2,0.4,1.2,1.5,0.2C127.6,51.3,130.3,50.6,133.9,51.2 M182.1,51.3c2.8,0.6,5.4,2,7,3.7c1.6,1.8,1.9,2.6,2.7,6.5
	c0.3,1.6,0.2,25.8-0.2,26.1c-0.3,0.3-4.8,0.5-5.4,0.2c-0.3-0.2-0.4-0.4-0.4-0.8c0-0.3-0.1-0.8-0.3-1.1c-0.2-0.5-0.3-1.7-0.5-7.5
	c0-0.1,0-3.7,0.1-8c0.1-8.7,0-9.7-1-11c-1.4-1.8-2.4-2.3-5.4-2.3c-3.1,0-4.2,0.3-7.9,2.4l-1.1,0.6l-0.4-0.6
	c-0.2-0.3-0.5-1.1-0.5-1.8c-0.1-0.6-0.2-1.4-0.3-1.7c-0.2-0.5,0.1-1.5,0.7-2.2c0.4-0.5,2.1-1.3,3.2-1.6c0.5-0.1,1.2-0.3,1.5-0.4
	C175.7,51,179.7,50.8,182.1,51.3 M110.4,51.8c0.3,0.3,0.4,1.6,0.3,3.3c-0.2,1.9-0.8,2.7-2.1,2.7c-1.1,0-4.6,2.7-4.6,3.6
	c0,0.1-0.1,0.4-0.3,0.6c-0.4,0.4-1.1,4.8-1.1,6.2c0,0.6,0,5.1,0,10l0,8.9l-0.5,0.5c-0.5,0.5-5,0.8-5.7,0.3
	c-0.6-0.4-0.7-1.5-0.7-18.6c0-20.2-0.5-17.9,3.2-17.7c2.9,0.1,3.1,0.3,3.1,2.2c0,1.6,0.2,2,0.7,1.1c0.2-0.3,0.7-0.9,1.2-1.2
	c0.4-0.3,0.9-0.7,1-0.8C105.6,51.7,109.6,51,110.4,51.8 M75.7,65.6c2,1.2,1.2,5.2-1.1,5.2c-1,0-3.1,0.6-3.8,1.1
	c-0.9,0.7-0.9,0.7-1.6,1.1c-1.7,1.1-2.4,6.7-1,7.8c0.1,0.1,0.3,0.4,0.4,0.5c0.7,1.3,5.1,2.1,6.7,1.2c1.9-1.1,3.2,2.7,1.4,4.4
	c-1.7,1.7-7.8,1.9-10.9,0.3c-1.3-0.6-3.3-2.4-3.3-2.9c0-0.2-0.2-0.4-0.4-0.6c-0.7-0.5-1.3-2.5-1.6-5.3c-0.4-4.1,1.4-8.3,4.5-10.2
	c0.6-0.4,1-0.7,1-0.8c0-0.1,0.4-0.3,0.9-0.4c0.5-0.1,1.2-0.4,1.6-0.6c0.4-0.2,1.2-0.4,1.8-0.5c0.6-0.1,1.2-0.2,1.4-0.4
	c0.3-0.2,1.6-0.4,2.8-0.5C74.9,65.2,75.3,65.4,75.7,65.6 M180.4,65.4c0.5,0.3,0.8,1.4,0.8,2.8c0,2-0.4,2.3-3.1,2.9
	c-4.9,1.1-7,4.2-5.7,8.5c0.4,1.3,1.4,2.6,1.9,2.6c0.1,0,0.5,0.2,0.7,0.4c0.6,0.5,3.4,0.6,4.5,0.1c1.9-0.8,2.9,0.3,2.6,2.8
	c-0.3,2-1.7,2.8-5.4,2.9c-5.4,0.1-7.7-1-10.2-4.8c-1.1-1.7-1.5-8.2-0.6-10.2c0.2-0.5,0.5-1.2,0.6-1.6c0.1-0.4,0.5-0.9,0.8-1.2
	c0.3-0.3,0.8-0.8,1.1-1.1c0.8-0.9,2.4-2,3.3-2.3c0.4-0.1,1-0.4,1.2-0.5c0.6-0.4,5.1-1.3,6.8-1.5C179.9,65.2,180.2,65.3,180.4,65.4"
	/>
<g>
	<path class="st1" d="M228.6,73.1c-0.3-1-2.5-3.3-3.2-3.3c-0.3,0-0.8-0.3-1.3-0.7c-0.5-0.5-0.9-0.7-1.3-0.7c-0.3,0-0.8-0.2-1.1-0.5
		c-0.3-0.3-0.8-0.5-1-0.5c-0.3,0-0.8-0.2-1.1-0.5c-0.4-0.3-0.8-0.5-1.1-0.5c-0.4,0-1.3-0.7-2.8-2.1c-2.3-2.2-0.4-8.1,2.6-8.1
		c0.3,0,0.8-0.1,1.1-0.2c0.9-0.3,5.3,0.1,5.7,0.5c0.2,0.2,0.7,0.4,1.2,0.5c0.9,0.2,0.9,0.2,1.1-2.3c0.1-1.8,0-1.9-1-1.9
		c-0.3,0-0.7-0.2-1-0.5c-0.5-0.5-1.5-0.6-1.5-0.1c0,0.3-0.4,0.2-0.8-0.1c-0.4-0.4-2.6-0.5-4.6-0.3c-0.5,0-1.2,0.3-1.5,0.5
		c-0.3,0.2-1,0.4-1.6,0.5c-0.8,0.1-1.2,0.3-1.4,0.6c-0.2,0.2-0.5,0.5-0.7,0.6c-0.8,0.4-2.6,2.3-2.7,2.9c-0.1,0.3-0.4,0.9-0.6,1.3
		c-0.7,1.1-0.8,6.1-0.1,7.1c0.2,0.3,0.5,0.8,0.6,1.2c0.2,0.8,2.4,3,3.3,3.3c0.4,0.1,1,0.4,1.3,0.7c0.3,0.3,0.9,0.5,1.2,0.5
		c0.4,0,0.8,0.2,1.1,0.5c0.3,0.3,0.8,0.5,1.2,0.6c0.4,0.1,0.9,0.3,1.2,0.6c0.3,0.3,0.6,0.5,1,0.5c0.4,0,0.8,0.2,1.2,0.6
		c0.3,0.3,0.7,0.6,0.9,0.7c0.2,0.1,0.3,0.2,0.3,0.4c0,0.1,0.3,0.5,0.6,0.8c1,1,0.9,4.6-0.3,5.8c-0.3,0.3-0.5,0.6-0.5,0.7
		c0,0.1-0.4,0.3-0.9,0.4c-0.5,0.1-1.1,0.4-1.3,0.7c-0.6,0.7-5.8,0.6-6.7,0c-0.3-0.2-1.1-0.5-1.8-0.7c-0.6-0.1-1.4-0.4-1.7-0.6
		c-1-0.7-1.2-0.4-1.2,1.6v1.8L210,86c0.8,0.8,1.5,1,3.4,1c0.8,0,1.1,0.1,1.4,0.4c0.6,0.6,6.6,0.6,7.2,0c0.2-0.2,0.6-0.4,1.1-0.4
		c1.3,0,2.4-0.7,3.9-2.4c0.3-0.4,0.8-0.8,1-1.1c0.5-0.5,0.7-1.2,0.7-2.1c0-0.4,0.2-0.9,0.4-1.2c0.6-0.8,0.7-5.4,0.1-6
		C228.9,74,228.7,73.5,228.6,73.1z"/>
	<path class="st1" d="M274.9,45.5c1.2,0,1.3,0,2.1-0.8l0.8-0.8v-1.7c0-2.5-2-4-4.2-3.1c-1.1,0.4-1.6,1.4-1.6,3.1v1.7l0.8,0.8
		C273.6,45.5,273.7,45.5,274.9,45.5z"/>
	<path class="st1" d="M273.2,52.5c-0.1,0-0.1,0-0.2,0v33.8c0.1,0.1,0.2,0.2,0.3,0.4c0.4,0.4,3.7,0.4,4.1,0c0.5-0.5,0.5-33.5-0.1-34
		C277.1,52.4,274.6,52.3,273.2,52.5z"/>
	<path class="st1" d="M362.8,62.8c-0.2-0.3-0.5-1.2-0.6-2.3c-0.2-1.7-0.3-1.8-1.2-2.9c-0.5-0.6-1-1.5-1.1-1.8
		c-0.1-0.4-0.3-0.7-0.6-0.8c-0.2-0.1-0.5-0.3-0.6-0.6c-0.1-0.3-0.3-0.4-0.8-0.5c-0.4-0.1-0.9-0.4-1.2-0.6c-0.6-0.5-1.5-0.9-2.4-0.9
		c-0.3,0-0.8-0.1-1.1-0.3c-0.6-0.4-3-0.6-4-0.3c-0.3,0.1-0.8,0.3-1.1,0.5c-0.3,0.2-1,0.4-1.6,0.5c-0.9,0.1-1.2,0.3-2.1,1.1
		c-0.6,0.6-1.3,1-1.7,1.1c-0.5,0.1-0.7,0.3-0.9,0.9c-0.1,0.4-0.7,1.2-1.2,1.7c-0.8,0.8-0.9,1.1-1.1,2.2c-0.1,0.7-0.4,1.5-0.6,1.8
		c-0.5,0.6-0.8,3-0.8,5.8c0,1.3-0.1,1.8-0.4,2.3c-0.8,1.3-1.4,1.3,12.6,1.3h12.7l0.1-3.8C363.2,63.7,363.2,63.3,362.8,62.8z
		 M350.9,67.4h-6.7l-0.3-0.6c-0.2-0.3-0.4-0.7-0.6-0.8c-0.4-0.4-0.4-1.5,0.1-1.9c0.3-0.2,0.4-0.7,0.5-1.5c0.1-0.7,0.3-1.5,0.6-1.9
		c0.3-0.4,0.5-1,0.6-1.3c0.1-0.6,1.1-1.7,2.4-2.9c0.8-0.7,3.2-1,5.3-0.6c0.5,0.1,1.2,0.4,1.5,0.6c1.3,1.2,2.3,2.3,2.4,2.9
		c0.1,0.3,0.4,0.9,0.6,1.4c0.5,0.7,0.5,0.9,0.5,3.3C357.9,67.8,358.8,67.4,350.9,67.4z"/>
	<path class="st1" d="M359.9,81.8c-0.3,0.2-0.8,0.5-1.2,0.6c-0.4,0.1-0.9,0.4-1.1,0.6c-1,0.9-8.8,0.9-8.8,0c0-0.1-0.3-0.3-0.6-0.4
		c-0.3-0.1-0.7-0.5-0.9-0.7c-0.2-0.2-0.5-0.5-0.8-0.6c-0.8-0.2-1.2-0.7-1.2-1.3c0-0.3-0.2-0.8-0.5-1.1c-0.3-0.3-0.6-0.9-0.6-1.2
		c-0.2-1.3-1.7-2.3-2.5-1.5c-0.3,0.3-0.4,0.3-0.7,0c-0.5-0.5-1.1-0.4-1.7,0.2c-0.6,0.6-0.6,1-0.1,1.6c0.2,0.2,0.5,0.9,0.6,1.7
		c0.1,0.9,0.4,1.4,0.7,1.8c1.2,1.3,1.5,1.7,1.5,2.1c0,0.5,1.4,1.9,2.3,2.3c0.4,0.2,0.9,0.4,1,0.6c0.4,0.4,1.5,0.7,2.4,0.7
		c0.4,0,0.8,0.2,1,0.4c0.6,0.6,7.4,0.6,8.2,0c0.3-0.3,0.9-0.5,1.7-0.5c1-0.1,1.3-0.2,2-0.8l0.8-0.7l-0.1-1.8
		C361.1,81.4,360.8,81,359.9,81.8z"/>
	<path class="st1" d="M331.2,71.9c-0.1-0.7-0.3-0.8-0.8-0.9c-0.4-0.1-1.1-0.5-1.7-1.2c-0.6-0.6-1.2-1-1.4-1c-0.4,0-1.4-0.4-1.4-0.6
		c0-0.2-1-0.6-2.1-0.7c-1-0.1-1.7-0.5-2.7-1.5c-0.3-0.3-0.8-0.6-1.2-0.7c-0.4-0.1-1-0.6-1.5-1l-0.8-0.8l0-2.2l0-2.2l0.9-0.8
		c0.5-0.5,1.1-0.9,1.5-1c0.4-0.1,0.8-0.3,1-0.6l0.3-0.5l3,0.1c2.7,0.1,3.1,0.2,3.5,0.5c0.4,0.4,1.4,0.6,2.1,0.3
		c1-0.4,0.3-4.3-0.8-4.3c-0.2,0-0.7-0.2-0.9-0.4c-0.6-0.5-1.2-0.5-1.5-0.1c-0.3,0.3-0.8,0.4-0.8,0.1c0-0.6-2.9-0.8-3.7-0.2
		c-0.6,0.5-0.7,0.5-1.1,0.1c-0.4-0.4-1-0.4-1.3,0c-0.4,0.4-1.1,0.7-1.5,0.7c-0.2,0-0.6,0.2-1,0.5c-0.4,0.3-0.8,0.5-0.9,0.5
		c-0.5,0-2.1,1.6-2.2,2.3c-0.1,0.3-0.4,0.8-0.6,1.1c-0.3,0.3-0.5,0.8-0.6,1.2c-0.1,0.4-0.2,0.8-0.4,0.8c-0.5,0.2-0.5,0.9-0.1,1.4
		c0.4,0.5,0.4,0.5,0,1c-0.4,0.5-0.4,1,0.1,1.4c0.1,0.1,0.3,0.7,0.4,1.4c0.1,0.7,0.3,1.4,0.5,1.7c0.2,0.3,0.5,0.7,0.6,1
		c0.4,1,0.5,1.1,1.1,1.3c0.5,0.2,1.8,1.1,2.6,1.9c0.3,0.3,0.5,0.3,1.9,0.6c0.4,0.1,1,0.3,1.3,0.6c0.3,0.3,0.8,0.5,1.1,0.6
		c0.3,0.1,0.9,0.3,1.2,0.6c0.3,0.3,0.8,0.5,1.1,0.5c0.7,0,2.2,1.5,2.4,2.4c0.1,0.4,0.4,0.9,0.6,1.2c0.6,0.6,0.6,2.4,0,3
		c-0.2,0.3-0.4,0.5-0.4,0.6c0,0.2-2,2.2-2.2,2.2c-0.1,0-0.4,0.2-0.6,0.4c-0.8,0.7-6.8,0.8-7.5,0.1c-0.4-0.4-1.1-0.7-1.6-0.7
		c-0.3,0-0.7-0.2-0.9-0.5c-0.9-1.1-2-0.1-2.1,1.9c-0.1,2,0.8,2.9,3.4,3.1c0.9,0.1,1.7,0.3,2,0.5c0.8,0.6,7.5,0.6,8.2,0
		c0.3-0.2,0.8-0.5,1.2-0.6c0.4-0.1,0.8-0.3,1-0.5c0.2-0.2,0.6-0.4,1-0.6c0.9-0.4,2.1-1.5,2.1-2c0-0.4,0.4-1.1,0.8-1.4
		c1-0.7,0.9-8,0-9.1C331.6,72.9,331.3,72.3,331.2,71.9z"/>
	<path class="st1" d="M306.4,74.2c0-1.1-0.5-1.9-1.8-3.2c-0.7-0.7-1.5-1.5-1.8-1.7c-0.3-0.3-0.8-0.5-1.5-0.6
		c-0.6-0.1-1.3-0.3-1.7-0.6c-0.4-0.3-0.8-0.5-1-0.5s-0.7-0.3-1.2-0.6c-0.5-0.3-1-0.6-1.2-0.6c-0.8,0-3.5-2.5-3.7-3.4
		c-0.1-0.4-0.3-1-0.5-1.3c-0.3-0.6-0.3-0.7-0.1-0.9c0.2-0.2,0.4-0.7,0.5-1.2c0.2-0.9,0.3-1,2.6-3c0.8-0.7,7.2-0.7,7.8,0
		c0.3,0.4,0.6,0.4,1.3,0.4l0.8-0.1v-2v-2l-0.8-0.3c-0.4-0.2-1.1-0.3-1.5-0.3c-0.4,0-0.7-0.1-0.7-0.2c0-0.4-1-0.5-1.5-0.1
		c-0.5,0.3-0.5,0.3-1-0.1c-0.5-0.4-0.9-0.4-3.4-0.3c-0.5,0-1.1,0.2-1.3,0.4c-0.2,0.2-0.9,0.4-1.7,0.6c-1.4,0.3-1.4,0.3-3.8,2.6
		c-1,0.9-1.3,1.4-1.3,1.8c0,0.3-0.2,0.8-0.4,1c-0.6,0.6-0.7,2-0.6,5l0.1,2.5l0.7,0.9c0.9,1.2,3.1,3,3.4,3c0.2,0,0.7,0.3,1.2,0.6
		c0.5,0.3,1,0.6,1.2,0.6c0.2,0,0.6,0.2,1,0.5c0.4,0.3,1,0.5,1.4,0.6c0.4,0.1,1,0.3,1.2,0.6c0.3,0.3,0.7,0.5,1,0.5
		c0.8,0,3.2,2.5,3.6,3.7c0.7,2.4-0.7,5.7-2.4,5.7c-0.2,0-0.7,0.2-1,0.5l-0.7,0.5l-3.3,0c-3.3,0-3.4,0-4-0.5c-0.3-0.3-0.8-0.5-1-0.5
		c-0.2,0-0.7-0.2-1.1-0.5c-1.1-0.7-1.2-0.6-1.4,1.5l-0.1,1.9l0.7,0.6c0.9,0.8,1.7,1.1,3.4,1.1c1,0,1.3,0.1,1.6,0.4
		c0.5,0.6,6.4,0.6,7.1,0c0.3-0.2,1-0.5,1.7-0.6c1.2-0.2,1.5-0.4,3.1-2.1c0.5-0.5,1.1-1.1,1.3-1.3c0.2-0.2,0.4-0.8,0.6-1.6
		c0.1-0.8,0.3-1.4,0.6-1.6c0.6-0.6,0.6-4.1,0-4.8C306.6,75.1,306.4,74.6,306.4,74.2z"/>
	<path class="st1" d="M261.5,52.8c-0.3-0.5-3.4-0.6-4.6-0.2v1.5c0.1,0.1,0.1,0.2,0,0.3v2l0.1,0.2l-0.1,0.2v2c0.1,0.2,0.1,0.3,0,0.3
		v2c0,0,0,0.1,0,0.1v2.2c0,0,0,0,0,0.1v2.2c0,0,0,0,0,0.1V68c0,0,0,0.1,0,0.1v2c0.1,0.1,0.1,0.2,0,0.3v2l0.1,0.2l-0.1,0.2v2.1h0
		c0,0.2,0,0.4-0.3,0.6c-0.3,0.3-0.4,0.8-0.5,1.6c-0.1,0.8-0.2,1.3-0.5,1.6c-0.2,0.2-0.5,0.8-0.6,1.2c-0.2,0.9-1.6,2.3-2.4,2.5
		c-0.3,0.1-0.8,0.3-1.1,0.6c-1,0.7-3.5,0.7-4.6,0c-0.4-0.3-0.9-0.5-1.1-0.5c-0.4,0-1.9-1.2-2.2-1.9c-0.1-0.2-0.3-1.2-0.4-2.2
		c-0.1-1.4-0.2-1.8-0.5-2c-0.3-0.2-0.3-1.2-0.3-11.7c0-13.5,0.3-12.2-2.4-12.2c-1.4,0-1.8,0.1-2,0.4c-0.3,0.3-0.3,1.5-0.3,12.8
		c0,13.8,0.1,16,0.9,17.1c0.3,0.4,0.5,0.9,0.5,1.1c0,0.3,0.3,0.7,2.2,2.4c0.6,0.6,1.6,0.9,2.5,0.9c0.3,0,0.7,0.2,0.9,0.4
		c0.5,0.6,5.2,0.6,5.9,0c0.3-0.2,0.8-0.4,1.1-0.5c0.3-0.1,0.9-0.4,1.2-0.6c0.3-0.3,0.9-0.6,1.3-0.7c0.5-0.2,0.7-0.4,0.8-0.8
		c0.3-1.7,2.1-1.7,2.3,0.1c0.3,2.1,0.3,2.1,2.4,2.1c1.2,0,2-0.1,2.1-0.2C262,86.3,261.9,53.4,261.5,52.8z"/>
</g>
</svg>
