<?xml version="1.0" encoding="utf-8"?>
<!-- Generator: Adobe Illustrator 25.4.1, SVG Export Plug-In . SVG Version: 6.00 Build 0)  -->
<svg version="1.1" id="svg" xmlns="http://www.w3.org/2000/svg" xmlns:xlink="http://www.w3.org/1999/xlink" x="0px" y="0px"
	 viewBox="0 0 376.6 180.9" style="enable-background:new 0 0 376.6 180.9;" xml:space="preserve">
<style type="text/css">
	.st0{fill-rule:evenodd;clip-rule:evenodd;fill:#1F4465;}
	.st1{fill-rule:evenodd;clip-rule:evenodd;fill:#A1C0D4;}
</style>
<path id="path0" class="st0" d="M103.8,9.9c-0.7,0.1-1.5,0.3-1.9,0.4c-0.3,0.1-1,0.2-1.5,0.2c-0.8,0-3.1,0.6-5.6,1.5
	c-0.6,0.2-1.5,0.5-2,0.6c-0.6,0.2-1.4,0.5-1.9,0.8s-1,0.5-1.2,0.5s-0.7,0.2-1.3,0.5c-0.5,0.3-1.2,0.6-1.4,0.7
	c-0.2,0.1-0.6,0.2-0.8,0.4c-0.2,0.1-0.7,0.4-1.1,0.6c-0.7,0.3-1.5,0.8-3.8,2.1c-0.4,0.3-1,0.6-1.2,0.7s-0.9,0.6-1.6,1
	c-1.9,1.2-6.8,4.7-7.2,5.1c-0.1,0.1-0.9,0.8-1.8,1.5c-2.9,2.2-5.4,4.8-9.1,9.1c-1,1.2-1.9,2.3-2,2.3c-0.1,0.1-0.7,0.9-1.4,1.8
	c-0.7,0.9-1.8,2.3-2.4,3.1c-0.6,0.8-1.8,2.4-2.6,3.5s-2.2,3-3.1,4.2c-0.9,1.2-2,2.8-2.5,3.5c-1.2,1.7-3.6,5.2-6,8.5
	c-0.9,1.3-1.7,2.4-1.7,2.5c0,0.1-0.4,0.7-0.8,1.3c-1.1,1.6-5.4,8.1-5.4,8.1s-0.4,0.7-1,1.5c-0.5,0.8-1.7,2.6-2.6,4.1s-1.9,3-2.2,3.3
	c-0.3,0.3-0.5,0.7-0.5,0.8c0,0.1-0.5,1-1.2,2.1c-0.6,1-1.4,2.3-1.7,2.8c-0.3,0.5-0.8,1.3-1.1,1.8c-3.6,5.6-5.3,9-7,13.2
	c-0.5,1.4-1.1,2.8-1.3,3.2c-3.6,9.2-3.9,23.7-0.7,30.8c2.9,6.4,8.1,12.2,14,15.6c0.2,0.1,1.1,0.6,2,1.1c5.5,3.2,14.6,6.4,21.2,7.5
	c1.9,0.3,2.2,0.5,3.9,2c2.9,2.7,3.4,3.1,5.1,4.3c12.1,8.1,28.3,7.6,42.6-1.5c4.2-2.6,9.1-6.3,12-8.9c1.5-1.3,2.3-1.7,4.7-2.1
	c2.1-0.4,2.9-0.5,10.6-2.3c4.5-1,10-2.3,13.1-3.2c0.9-0.2,2.4-0.6,3.4-0.9c2.9-0.8,8.8-2.8,11-3.7c0.4-0.2,1-0.4,1.5-0.6
	c3.1-1.2,5.6-3.1,6.3-4.7c1.1-2.3,0.8-2.9-1.2-2c-0.6,0.2-1.7,0.6-2.5,0.8s-2.2,0.5-3.1,0.8c-0.9,0.2-2.2,0.6-2.9,0.8
	c-3.3,1-4.2,1.2-4.9,1.4c-0.4,0.1-1.4,0.3-2.1,0.6c-0.7,0.2-2.4,0.7-3.6,1c-1.2,0.3-3.2,0.8-4.4,1.1s-2.3,0.6-2.5,0.6
	s-1,0.2-1.8,0.4c-1.4,0.4-2.6,0.7-6.8,1.5c-1,0.2-2,0.5-2.4,0.7c-0.7,0.4-1.7,0.4-1.9,0.2c-0.5-0.8-0.3-1.3,0.7-2.4
	c0.9-0.9,3.1-3.9,4-5.4c0.1-0.2,0.4-0.7,0.7-1c0.5-0.8,1.1-1.8,1.6-2.7c0.2-0.4,0.6-1.2,1-1.8c0.7-1.3,3.2-6.3,4-8.1
	c0.3-0.6,0.6-1.4,0.8-1.8c1-2.2,1.6-3.8,2.5-6.4c0.2-0.6,0.5-1.5,0.8-2.1c0.5-1.4,1-3,1.6-4.8c0.5-1.7,1.3-2.8,2.6-3.5
	c2.9-1.6,6.1-3.7,7.3-4.9c0.4-0.3,1.2-1,1.8-1.5c5.7-4.3,10.8-13.2,11.5-20.1c0.5-4.6,0.2-12.3-0.5-14.1c-0.2-0.4-0.4-1.3-0.5-1.9
	c-0.7-3.3-3.9-8.7-7-11.9c-1.3-1.4-6-5.2-6.4-5.2c-0.1,0-0.5-0.3-1-0.6c-0.4-0.3-1.1-0.7-1.4-0.9c-1.4-0.6-2-1.3-2.7-3.4
	c-0.4-1.1-0.9-2.6-1.2-3.2c-0.3-0.7-0.5-1.4-0.5-1.5c0-0.3-0.7-1.8-2.1-4.7c-1.9-3.9-2.4-4.8-4.1-7.3c-0.2-0.3-0.5-0.8-0.8-1.1
	c-3.3-4.8-8.5-10-12.5-12.3c-3.7-2.1-6.5-3.1-11-3.9C112.4,9.7,105.5,9.7,103.8,9.9 M108.8,19.3c4.9,1,4.8,1,7.1,2
	c6.2,2.8,10.6,6.6,14.9,12.9c0.8,1.1,1.4,2.2,1.4,2.3s0.1,0.3,0.2,0.3c0.1,0,0.4,0.4,0.7,1c0.3,0.5,0.7,1.4,1,1.8
	c0.8,1.4,0.9,1.4,0.6,2c-0.3,0.6-1.1,0.7-2.1,0.2c-0.4-0.2-1.5-0.4-2.5-0.6c-1-0.1-2.8-0.4-4-0.6c-3.5-0.6-18.8-0.6-22.5,0.1
	c-1.5,0.3-3,0.5-3.4,0.5s-1.2,0.2-1.9,0.3c-0.7,0.2-2,0.5-2.9,0.7s-2.7,0.6-4,1s-3,0.9-3.8,1.1C85.5,45,84.1,45.5,83,46
	c-0.5,0.2-1.1,0.4-1.3,0.4c-0.2,0-0.8,0.3-1.3,0.6c-0.6,0.3-1.2,0.6-1.4,0.6c-0.2,0-0.7,0.2-1.1,0.4s-0.9,0.5-1.2,0.6
	c-4.5,1.3-21,10.8-25.7,14.7c-3.3,2.7-4.5,1.6-1.7-1.4c0.4-0.4,1.3-1.5,2-2.5c0.7-0.9,1.8-2.3,2.4-3c0.6-0.7,1.2-1.5,1.4-1.7
	c0.1-0.2,0.6-0.8,1-1.3s1.5-1.9,2.4-2.9s1.8-2.1,2-2.4c0.5-0.7,4.6-5.2,5.8-6.5c1.9-2,5.7-5.8,7.5-7.4c1-0.9,2-1.8,2.2-2
	C85.2,23.5,100.3,17.6,108.8,19.3 M291,32.9c-0.8,0.1-0.8-0.6-0.7,45.9l0.1,44l0.6,0.9c2.5,3.9,7.4,5.5,19.3,6.6
	c6.1,0.5,20.7,0.4,25.4-0.2c0.9-0.1,2.5-0.3,3.6-0.5c6.3-0.8,11.2-3,12.2-5.5c0.6-1.4,0.4-50.7-0.2-52.4c-0.8-2.1-4.5-5.2-6.2-5.2
	c-0.2,0-0.6-0.2-0.9-0.3c-0.5-0.3-3.1-1-5.8-1.5c-4.6-0.8-17.6-1.2-25.2-0.6c-5.5,0.4-5.8,0.4-6.3-0.2c-0.4-0.5-0.4-1.5-0.4-15.6
	c0-14.9,0-15.1-0.4-15.2S291.9,32.8,291,32.9 M272,41c-0.9,0.8-8,6.6-12.1,9.7c-2.6,2-2.7,2.3-2.5,5.6c0.2,4.7,1,4.3-9.1,4.3h-8.1
	l-0.3,0.6c-1.1,2.2-0.5,2.3,8.7,2.3c8.7,0,8.8,0,8.9,1.3c0.1,0.5,0.1,13.5,0.1,29.1c0,31.4-0.1,28.7,1.5,30.5
	c3.4,3.5,12.1,5.4,26.4,5.7c3.2,0.1,3.4,0,3.4-1.1c0-0.9-0.2-1-3.8-1.1c-6.1-0.2-9.3-1.4-10.7-4c-0.3-0.6-0.4-4.1-0.5-42.1
	C273.8,34.7,274,39.1,272,41 M118.4,47.8c1.2,0.1,3.3,0.3,4.7,0.4c5.4,0.5,13.6,2.9,16,4.6c0.2,0.1,1,3.2,1.4,5.4
	c0.2,1.3,0.5,2.4,0.6,2.5c0.1,0.2,0.9,6.4,1.3,10.4c0.5,5-0.2,14.8-1.4,20c-0.2,1-0.5,2.4-0.6,3s-0.3,1.3-0.4,1.6s-0.4,1.1-0.5,1.9
	c-0.6,2.8-1.8,4.7-3.2,4.7c-0.3,0-0.9,0.2-1.5,0.4c-0.6,0.2-1.6,0.6-2.3,0.8s-1.7,0.5-2.3,0.7c-0.9,0.3-1.1,0.4-1.8,0.1
	c-0.8-0.3-0.8-0.4-0.1-2.7c0.5-1.6,0.6-10.5,0.1-12.6c-0.6-2.8-1.8-6.2-2.9-8.2c-0.3-0.6-0.8-1.5-1.2-2.2
	c-2.2-4.2-8.4-10.7-11.5-12.2c-0.3-0.1-0.6-0.3-0.6-0.4s-0.4-0.3-0.8-0.5c-0.5-0.2-1-0.5-1.2-0.6c-5.3-3.4-18.1-4.5-24.5-2
	c-0.4,0.1-1.1,0.3-1.7,0.5c-10.7,2.4-21.4,14.3-25.2,28.1c-0.6,2.1-0.6,2.6-0.7,7c-0.1,4.2-0.1,4.9-0.5,5.5
	c-0.5,0.9-2.4,4.6-3.4,6.7c-0.4,0.9-0.8,1.7-0.9,2c-0.1,0.2-0.6,1.4-1.1,2.7c-0.5,1.3-1,2.4-1.1,2.5s-0.2,0.4-0.2,0.5
	c0,0.2-0.2,0.9-0.5,1.7c-2.8,7.3-4.2,14.8-4.2,21.9c0,3.6,0.4,7.9,0.9,8.7c1.1,2-0.3,3-2.5,1.9c-0.6-0.3-1.3-0.6-1.5-0.6
	c-1,0-6.6-2.8-9.5-4.8C29.4,144.4,23,136,23,133.4c0-0.2-0.2-0.7-0.4-1.2c-0.5-1.3-1.2-5.2-1.4-8c-0.1-2.3,0-3.6,0.6-7.9
	c0.3-2.2,1.3-6.2,2.2-8.4c0.4-1,0.8-2.1,0.9-2.6c0.8-2.3,3.7-8.2,5.2-10.6c0.1-0.2,0.7-1.2,1.3-2.1c2.1-3.3,5-7.4,5.8-8.1
	c0.2-0.2,0.4-0.5,0.4-0.6s0.4-0.7,1-1.2c0.5-0.6,1.8-2,2.8-3.1c3.8-4.1,10.7-9.9,15-12.6c0.6-0.4,1.7-1.1,2.5-1.6
	c3.2-2.1,13.3-7.1,17.5-8.7c0.6-0.2,1.1-0.5,1.2-0.6c0.2-0.2,0.9-0.4,3.8-1.5c0.9-0.3,2.2-0.8,3-1.1c2.5-0.9,2.7-1,4.7-1.6
	c6.9-2,13.2-3.3,18.2-3.8C115.3,47.5,115.5,47.5,118.4,47.8 M151.2,61.5c0.5,0.6,1.1,1.3,1.2,1.6c0.3,0.3,1.3,1.9,2.4,3.8
	c3.5,5.9,3.5,15.7,0,21.3c-0.1,0.2-0.4,0.6-0.6,1c-0.2,0.4-0.5,0.8-0.7,0.9s-0.3,0.3-0.3,0.5s-0.7,1.1-1.6,2.1c-3.7,4-4.4,4.5-5,3.6
	c-0.3-0.5-0.3-0.5,0.4-3.9c0.2-0.9,0.4-2.4,0.6-3.4c0.1-1,0.4-2.7,0.6-3.8c0.3-1.9,0.5-4.2,1.1-11.5c0.3-3.8,0.1-10.3-0.3-11.4
	C148.2,60,149.7,59.6,151.2,61.5 M203.6,64.2c-0.6,0-2.7,0.2-4.7,0.3c-2.1,0.1-4.3,0.4-4.9,0.6c-0.7,0.2-1.5,0.3-1.8,0.3
	c-0.8,0-5.2,1.4-5.8,1.9c-0.3,0.2-0.6,0.3-0.8,0.3c-0.9,0-3.5,2.9-4.1,4.4c-0.7,1.9-0.9,5.9-0.3,6.5c0.5,0.5,15.6,0.5,15.9,0.1
	c0.1-0.2,0.2-1.9,0.2-3.8c0-7.1,2.4-8.7,12.9-8.6c9.2,0,13.9,1.5,15.5,4.8c0.6,1.3,0.7,20.5,0.1,21c-0.2,0.2-3,0.3-11.1,0.3
	c-16,0.1-22.4,0.6-28,2.4c-2.6,0.8-4,1.7-5,3.1l-0.7,1v12.8v12.8l0.5,0.9c1.8,3.2,8.4,5,20.4,5.6c11.7,0.6,28.3-0.1,32.7-1.5
	c1.7-0.5,2.1-0.4,3.2,0.7c1,1,1.1,1,2.4,1c2.5,0,2.2,3.7,2.2-29.5v-29l-0.5-1.1c-1-2-4.7-4.8-6.4-4.8c-0.2,0-0.9-0.2-1.4-0.4
	c-1-0.4-3.8-1-6.6-1.4C223.6,64.3,208.1,63.9,203.6,64.2 M326.5,66c4.8,0.2,7,1.3,8.6,4.1c0.5,0.8,0.5,0.9,0.5,27v26.2l-0.6,1.1
	c-1.8,3.4-4.6,4.2-13.5,4.2c-9.7,0-13.3-1.1-14.5-4.6c-0.4-1.1-0.5-51.1-0.2-52.6c0.7-2.9,4.1-4.8,9.8-5.4
	C320.6,65.7,320.9,65.7,326.5,66 M98.5,73.1c1.9,0.4,4.9,1.2,5.4,1.5c0.2,0.1,1.1,0.5,2.1,0.9c8.5,3.7,12.9,14.1,11.1,26.2
	c-1.7,10.9-6.7,16.6-15.9,18c-4.8,0.8-12.3-0.1-16.5-2c-3.4-1.5-4.2-1.9-4.8-2.3c-0.4-0.3-0.8-0.5-1-0.5c-0.1,0-0.3-0.1-0.3-0.2
	s-0.3-0.4-0.7-0.6c-0.4-0.2-0.8-0.5-1-0.7c-0.1-0.1-0.8-0.7-1.5-1.2c-8-6.6-10.2-15-6.4-23.5c2.5-5.5,5.2-9,9.2-12
	c0.9-0.7,5.1-2.8,5.5-2.8c0.1,0,0.8-0.2,1.6-0.4C88.1,72.6,94.9,72.4,98.5,73.1 M225.6,94.7c0.5,0.4,0.6,27.4,0.2,29.3
	c-0.9,3.5-4.3,4.8-13,5c-9.6,0.2-13.2-0.7-15-3.8l-0.7-1.2v-12.2V99.6l0.6-1.1c1.2-2.2,3.1-3.3,6.8-3.8
	C208.2,94.2,225,94.2,225.6,94.7 M133.2,114.2c0.5,0.2,0.5,0.3,0.4,1c-0.2,1-0.8,2.4-1.1,2.5c-0.1,0.1-0.3,0.4-0.4,0.7
	c-0.1,0.3-0.3,1-0.6,1.5c-0.2,0.5-0.7,1.5-1,2.2c-1.1,2.4-3.6,7.4-4.4,8.8c-1.8,3.1-3.1,5.3-3.5,5.9c-0.2,0.3-0.5,0.8-0.8,1.1
	c-1.5,2.3-2.1,3.1-2.5,3.7c-0.2,0.3-0.6,0.9-0.9,1.3c-0.6,0.9-4.3,5.4-5.2,6.4c-1.7,1.8-1.1,1.6-17.4,4.1c-1.2,0.2-3.8,0.5-5.7,0.7
	c-1.9,0.2-3.7,0.4-4,0.4c-3.1,0.7-23.4,1.3-25,0.8c-3.5-1.1-5.7-13.9-3.8-22.2c0.9-4.2,1.7-7.1,2.2-8.2c0.5-1.3,2.2-5.4,2.6-6.5
	c0.2-0.6,0.5-1,0.9-1.2c0.8-0.3,0.9-0.3,1.5,0.6c0.7,1,1.6,2,2.6,2.7c0.4,0.3,1,0.8,1.3,1c2.3,1.7,4.8,3.1,9.8,5.4
	c12.4,5.7,29.3,5.1,36.5-1.1c0.1-0.1,0.6-0.5,1.1-0.9c1.9-1.5,4.2-4,5.5-6c0.7-1.1,1.3-1.4,5.5-2.8c1.9-0.6,3.9-1.4,4.5-1.7
	C132.5,113.9,132.4,114,133.2,114.2 M99.6,160c0.6,0.7-0.8,1.9-3.7,3.2c-9.1,4-14.8,4.8-22.2,3c-2.5-0.6-2.8-0.7-3-1.5
	c-0.2-1,0.3-1.2,2.9-1.2c3.9,0,20.2-2.3,23.3-3.3C98,159.8,99.4,159.7,99.6,160"/>
<path id="path2" class="st1" d="M50.3,62.6c0,0.2-0.1,0.3-0.3,0.3s-0.3-0.1-0.2-0.3s0.2-0.3,0.3-0.3S50.3,62.5,50.3,62.6 M88.5,72.8
	c-1,0.1-2.3,0.4-3.1,0.7c-0.7,0.2-1.4,0.4-1.6,0.4c-2.4,0-9.1,5.3-11.7,9.2c-7.4,11.3-6.3,21,3.4,29.1c0.7,0.6,1.3,1.1,1.5,1.2
	c0.1,0.1,0.6,0.4,1,0.7c0.4,0.2,0.7,0.5,0.7,0.6s0.1,0.2,0.3,0.2c0.1,0,0.6,0.2,1,0.5c0.6,0.5,1.4,0.9,4.8,2.3
	c4.2,1.8,11.7,2.7,16.5,2c9.2-1.5,14.2-7.1,15.9-18c1.8-12-2.6-22.4-11.1-26.2c-0.9-0.4-1.9-0.8-2.1-0.9c-0.5-0.3-3.5-1.1-5.4-1.5
	C96.5,72.7,90.7,72.6,88.5,72.8 M214.5,134.8c-2.9,0.9-3.5,2.2-3.5,8.3s0.4,7,3.3,8.1c2.7,1.1,7.2-0.4,7.2-2.4
	c0-0.2,0.2-0.6,0.3-0.8c0.9-1.2,0.2-2.3-1.5-2.4c-1.2,0-1.6,0.3-2,1.4c-0.5,1.5-2.5,1.9-3.3,0.6c-0.8-1.2-0.7-7.9,0-9.3
	c0.8-1.6,2.4-1.2,3.4,0.8c0.6,1.2,2.3,1.5,3.1,0.5l0.6-0.6l-0.4-1.1C220.8,134.9,217.9,133.7,214.5,134.8 M261.3,135
	c-0.8,0.4-1.5,1-2,1.7l-0.8,1.1v5c0,5.5,0.1,5.9,1.4,7.1c3,2.8,7.7,1.8,9.3-1.9c0.8-1.8,0.6-9.2-0.3-11
	C267.7,134.6,264.1,133.6,261.3,135 M290.5,134.8c-2.6,1.1-3.4,2.8-3.4,7.8c0,6,1,8,4.2,8.8c5.6,1.3,8-2.8,7.1-12
	C298,135.5,294.3,133.3,290.5,134.8 M305.9,134.5c-3,1-3.8,2.6-4,7.7c-0.1,4.6,0.3,6.8,1.6,7.9c1.8,1.5,4.3,1.9,6.2,1
	c1-0.5,1-0.5,2-0.1c1.5,0.6,1.6,0.5,1.6-4.1v-4l-0.6-0.2c-0.8-0.3-4-0.3-4.3,0.1c-0.1,0.1-0.3,0.7-0.3,1.1c0,0.8,0.2,1.1,1.3,2
	c0.6,0.5,0.5,1.1-0.3,1.9c-0.8,0.8-1.7,0.9-2.6,0.1l-0.8-0.7v-4.1c0-4.5,0.1-5,1.2-5.6c0.8-0.5,1.1-0.3,2.5,1
	c1.2,1.2,1.1,1.2,3.3,0.7c1.1-0.2,0.6-1.9-1-3.4C310.6,134.7,307.5,134,305.9,134.5 M343.3,134.9c-3.6,1.9-3.4,7,0.3,8.6
	c0.3,0.1,0.6,0.3,0.8,0.4c0.2,0.1,0.7,0.3,1.2,0.5c2.6,0.8,3.4,2.6,1.7,3.7l-0.9,0.6l-1.2-0.4c-0.6-0.2-1.3-0.6-1.5-0.9
	c-0.8-1.2-3.4,0-3.1,1.4c0.6,2.9,7,3.8,9.6,1.3c3.1-3,1.7-6.8-3.3-8.9c-2.9-1.2-3.6-2.1-2.5-3.4c0.9-1,1.9-1,3.2,0.2l1.1,1l0.9-0.4
	c1.3-0.7,1.7-1.7,0.9-2.5C348.7,134.4,345.4,133.8,343.3,134.9 M182.3,134.8c-2.2,0.4-1.6,3.1,0.6,2.8c1-0.1,1.2-0.1,1.7,0.4
	l0.6,0.5v5.9c0,6.8,0,6.8,2,6.8c1.6,0,1.6,0,1.6-6.6c0-7,0-7,2.5-7c1.6,0,2.5-1.6,1.3-2.5C192.3,134.7,183.7,134.5,182.3,134.8
	 M197.4,134.8c-1.4,0.3-1.4,0-1.3,8.2c0,5.6,0.1,7.5,0.3,7.7s1.6,0.3,5.5,0.3c5.9,0,5.9,0,5.7-1.7c-0.2-1.2-0.2-1.2-3.8-1.2
	c-3.8,0-4.2-0.2-4.2-1.9c0-1.6,0.5-2,2.7-2c2.3,0,3.4-1.3,2.1-2.5c-0.4-0.4-0.6-0.4-2.7-0.4c-1.8,0-2.4-0.5-2.4-2
	c0-1.6,0.8-1.9,4.1-1.7c2.8,0.1,2.9,0.1,3.2-0.4c0.7-1,0.2-2.4-0.7-2.4C203.7,134.7,198,134.7,197.4,134.8 M226.9,135
	c-0.7,0.5-0.8,1.5-0.8,9.8c0,6.2,0,6,1.2,6.3c2,0.5,2.5-0.3,2.5-3.7c0-3.2,0.1-3.4,2.3-3.4c2.4,0,2.6,0.3,2.5,3.8
	c-0.1,3.1,0,3.3,1.9,3.3c1.8,0,1.8,0.4,1.8-7.8c0.1-8.3,0.1-8.1-1.1-8.5c-2.1-0.6-2.8,0-2.7,3c0,3-0.9,3.8-3.5,3.1
	c-1.1-0.3-1.2-0.4-1.2-3.1c0-2.3-0.1-2.5-0.8-2.9C228.3,134.5,227.5,134.6,226.9,135 M243.2,134.9l-0.6,0.3l-0.1,7.6
	c-0.1,8.4-0.1,8.3,1.4,8.3c1.6,0,1.6-0.1,1.6-4.3c0-3.7,0.1-4.5,0.8-4.5c0.2,0,1,1.3,2.1,3.6c0.5,1.1,1,2,1.2,2.1
	c0.1,0.1,0.3,0.4,0.4,0.8c0.3,1.3,1.5,2.3,2.7,2.4c1.7,0.1,1.7,0.1,1.7-8.3c0-8.1,0-8-1.8-8c-1.5,0-1.6,0.1-1.6,4.2
	c0,5.2-0.3,5.2-3.2-0.5C246.1,135,244.9,134,243.2,134.9 M274.2,134.8c-0.3,0.1-0.6,0.3-0.7,0.6c-0.3,0.6-0.1,15.1,0.2,15.5
	c0.3,0.3,9.8,0.2,10.2-0.1c0.4-0.3,0.4-1.4-0.1-2.1c-0.4-0.5-0.4-0.6-3.2-0.6c-3.9,0-3.6,0.6-3.6-6.6c0-3.2-0.1-5.9-0.2-6
	C276.4,134.7,275.5,134.5,274.2,134.8 M317.2,134.8c-0.5,0.2-0.9,1-0.6,1.1c1.2,0.4,1.2,0.5,1.3,6.8v5.9l-1,1l-1,1l0.6,0.4
	c0.5,0.3,0.8,0.4,1.7,0.3c1.4-0.2,2.7-0.2,3.6,0c0.5,0.1,0.8,0.1,1.2-0.3l0.5-0.4l-1-0.9l-1-0.9v-5.9V137l0.8-0.6
	c0.7-0.6,0.8-0.7,0.5-1.1C322.4,134.6,318.3,134.4,317.2,134.8 M327.4,134.8c-0.5,0.1-1.1,0.3-1.2,0.5c-0.3,0.6-0.3,14.8,0.1,15.3
	s10.5,0.6,11,0.1c0.4-0.4,0.3-2.2-0.1-2.5c-0.2-0.1-1.7-0.2-3.5-0.2c-3.7,0-3.9-0.1-4.1-1.7c-0.2-1.8,0.5-2.4,2.7-2.2
	c1.6,0.1,1.7,0.1,2.1-0.4c1.2-1.5,0.4-2.3-2.1-2.3c-1.9,0-2.1-0.1-2.5-0.8c-0.4-0.8-0.3-1.5,0.3-2.3l0.6-0.7l2.5,0.1
	c2.8,0.1,3.7-0.1,3.9-0.9c0.2-0.8-0.1-1.6-0.8-1.8C335.7,134.6,329.2,134.6,327.4,134.8 M293.8,137.8c0.8,0.6,0.9,1.3,0.9,5
	c0,5.4-1,6.9-3.3,4.9l-0.6-0.5V143v-4.2l0.9-0.8C292.7,137,292.9,137,293.8,137.8 M265.3,138l0.7,0.7v4.3c0,4.6,0,4.5-1.3,5.4
	c-1.7,1.1-2.5-0.3-2.6-4.9C261.9,138,263.2,135.8,265.3,138"/>
</svg>
