<?xml version="1.0" encoding="utf-8"?>
<!-- Generator: Adobe Illustrator 25.4.1, SVG Export Plug-In . SVG Version: 6.00 Build 0)  -->
<svg version="1.1" id="Layer_1" xmlns="http://www.w3.org/2000/svg" xmlns:xlink="http://www.w3.org/1999/xlink" x="0px" y="0px"
	 viewBox="0 0 285 56" style="enable-background:new 0 0 285 56;" xml:space="preserve">
<style type="text/css">
	.st0{fill:#004776;}
</style>
<g id="atlas-uae-logo">
	<path class="st0" d="M88.8,48l-0.9,2h-1l3.7-8.1l3.7,8.1h-1l-0.9-2H88.8z M90.6,43.9l-1.4,3.2H92C92,47.1,90.6,43.9,90.6,43.9z
		 M100.9,46.4c-0.4-0.4-0.8-0.7-1.4-0.7c-0.9,0-1.6,0.8-1.6,1.7c0,1,0.7,1.7,1.7,1.7c0.5,0,1-0.2,1.3-0.6v1.2
		c-0.4,0.2-0.9,0.3-1.3,0.3c-1.4,0-2.6-1.1-2.6-2.5c0-1.5,1.2-2.6,2.6-2.6c0.4,0,0.9,0.1,1.3,0.3L100.9,46.4L100.9,46.4z
		 M106.4,47.5c0,1.5-1.1,2.6-2.6,2.6s-2.6-1.1-2.6-2.6s1.1-2.6,2.6-2.6C105.2,44.9,106.4,46,106.4,47.5z M102.1,47.5
		c0,0.9,0.7,1.7,1.7,1.7s1.7-0.8,1.7-1.7c0-0.9-0.7-1.7-1.7-1.7S102.1,46.6,102.1,47.5z M108.1,45.7L108.1,45.7
		c0.3-0.4,0.8-0.8,1.3-0.8c0.6,0,1.1,0.3,1.4,0.9c0.3-0.5,0.9-0.9,1.5-0.9c1.3,0,1.6,1,1.6,2.1v2.9H113v-2.7c0-0.6-0.1-1.4-0.9-1.4
		c-1,0-1.1,1-1.1,1.8v2.4h-0.9v-2.6c0-0.6,0-1.6-0.9-1.6c-1,0-1.1,1-1.1,1.8v2.4h-0.9v-4.8h0.9L108.1,45.7L108.1,45.7z M116,45.9
		L116,45.9c0.4-0.6,1-1,1.7-1c1.4,0,2.3,1.2,2.3,2.5c0,1.4-0.8,2.6-2.3,2.6c-0.7,0-1.3-0.4-1.6-0.9h0v3.5h-0.9v-7.6h0.9V45.9z
		 M119.1,47.5c0-0.9-0.6-1.7-1.6-1.7c-1,0-1.5,0.8-1.5,1.7c0,0.9,0.5,1.8,1.5,1.8C118.5,49.2,119.1,48.4,119.1,47.5z M125.5,49.9
		h-0.9v-0.8h0c-0.4,0.5-1,0.9-1.6,0.9c-1.5,0-2.3-1.2-2.3-2.6c0-1.3,0.9-2.5,2.3-2.5c0.7,0,1.3,0.4,1.7,1h0v-0.8h0.9
		C125.5,45.1,125.5,49.9,125.5,49.9z M124.6,47.5c0-0.9-0.6-1.7-1.6-1.7c-1,0-1.5,0.8-1.5,1.7c0,0.9,0.5,1.8,1.5,1.8
		C124,49.2,124.6,48.4,124.6,47.5z M127.6,45.7L127.6,45.7c0.3-0.5,0.9-0.8,1.5-0.8c1.4,0,1.7,0.9,1.7,2.1v2.9h-0.9v-2.8
		c0-0.8-0.1-1.4-1.1-1.4c-1.2,0-1.2,1.1-1.2,1.9v2.2h-0.9v-4.8h0.9C127.6,45.1,127.6,45.7,127.6,45.7z M131.3,45.1h1.1l1.6,3.1
		l1.5-3.1h1l-3.9,7.6h-1.1l1.9-3.6L131.3,45.1z M144.3,47.5c0,1.5-1.1,2.6-2.6,2.6s-2.6-1.1-2.6-2.6s1.1-2.6,2.6-2.6
		C143.2,44.9,144.3,46,144.3,47.5z M140.1,47.5c0,0.9,0.7,1.7,1.7,1.7s1.7-0.8,1.7-1.7c0-0.9-0.7-1.7-1.7-1.7S140.1,46.6,140.1,47.5
		z M147.3,41.9c-0.2-0.1-0.4-0.2-0.6-0.2c-0.7,0-0.7,0.8-0.7,1.3v2.1h1.3v0.9H146v4h-0.9v-4h-0.4v-0.9h0.4v-2.4
		c0-1.1,0.4-1.9,1.6-1.9c0.2,0,0.4,0,0.7,0.1L147.3,41.9L147.3,41.9z M151.8,49.9h-0.9v-4h-0.5v-0.9h0.5v-1.9h0.9v1.9h0.9v0.9h-0.9
		V49.9z M154.1,40.9v4.8h0c0.3-0.5,0.9-0.8,1.5-0.8c1.4,0,1.7,0.9,1.7,2.1v2.9h-0.9v-2.8c0-0.8-0.1-1.4-1.1-1.4
		c-1.2,0-1.2,1.1-1.2,1.9v2.2h-0.9v-9H154.1L154.1,40.9z M159.2,47.6c0,0.8,0.6,1.6,1.5,1.6c0.7,0,1.1-0.4,1.4-0.9l0.8,0.4
		c-0.4,0.8-1.3,1.3-2.2,1.3c-1.5,0-2.4-1.1-2.4-2.5c0-1.5,0.8-2.6,2.4-2.6c1.5,0,2.3,1.1,2.3,2.6v0.1H159.2L159.2,47.6z M161.9,46.9
		c-0.1-0.7-0.6-1.2-1.3-1.2c-0.7,0-1.3,0.5-1.4,1.2H161.9z M167.9,48l-0.9,2h-1l3.7-8.1l3.7,8.1h-1l-0.9-2H167.9L167.9,48z
		 M169.7,43.9l-1.4,3.2h2.8L169.7,43.9z M175.3,49.9h-1V43h-1.9v-0.9h4.7V43h-1.9L175.3,49.9L175.3,49.9z M178.9,49h2.4v0.9h-3.3
		v-7.8h1V49z"/>
	<path class="st0" d="M183,48l-0.9,2h-1l3.7-8.1l3.7,8.1h-1l-0.9-2H183L183,48z M184.8,43.9l-1.4,3.2h2.8L184.8,43.9z M192.6,43.6
		c-0.3-0.5-0.7-0.7-1.3-0.7c-0.6,0-1.3,0.4-1.3,1.1c0,0.6,0.6,0.9,1.1,1.1l0.6,0.2c1.1,0.4,1.9,1,1.9,2.3c0,1.4-1.1,2.4-2.5,2.4
		c-1.3,0-2.2-0.9-2.4-2.2l1-0.2c0,0.9,0.7,1.5,1.5,1.5s1.4-0.7,1.4-1.5c0-0.8-0.7-1.2-1.3-1.5l-0.5-0.2c-0.9-0.4-1.7-0.9-1.7-2
		c0-1.3,1.1-2,2.3-2c0.9,0,1.6,0.4,2,1.2L192.6,43.6L192.6,43.6z M197.7,42.1h4.2V43h-3.2v2.2h3.1v0.9h-3.1V49h3.2v0.9h-4.2
		C197.7,49.9,197.7,42.1,197.7,42.1z M204.1,49h2.4v0.9h-3.3v-7.8h1V49z M207.1,42.1h4.2V43h-3.2v2.2h3.1v0.9h-3.1V49h3.2v0.9h-4.2
		C207.1,49.9,207.1,42.1,207.1,42.1z M216.8,42.1h1.3l-3.5,3.5l3.6,4.3h-1.3l-2.9-3.6l-0.4,0.4v3.3h-1v-7.8h1v3.4L216.8,42.1z"/>
	<path class="st0" d="M220.8,49.9h-1V43H218v-0.9h4.7V43h-1.9L220.8,49.9L220.8,49.9z M228.3,49.9h-1.2l-2.3-3.3h-0.4v3.3h-1v-7.8
		h1.2c0.7,0,1.4,0,2.1,0.4c0.7,0.4,1,1.1,1,1.9c0,1.1-0.7,2-1.9,2.2L228.3,49.9L228.3,49.9z M224.4,45.8h0.3c1,0,2.1-0.2,2.1-1.4
		c0-1.2-1.2-1.4-2.1-1.4h-0.3V45.8z M236.6,46c0,2.3-1.8,4.1-4.1,4.1s-4.1-1.7-4.1-4.1c0-2.2,1.9-4.1,4.1-4.1S236.6,43.8,236.6,46z
		 M235.7,46c0-1.7-1.3-3.2-3.1-3.2s-3.1,1.4-3.1,3.2c0,1.8,1.4,3.2,3.1,3.2C234.2,49.2,235.7,47.8,235.7,46z M237.5,41.7l5.9,6.1
		v-5.8h1v8.1l-5.9-6.1v5.8h-1C237.5,49.9,237.5,41.7,237.5,41.7z M246.7,49.9h-1v-7.8h1V49.9z M252.4,42.1h1.3l-3.5,3.5l3.6,4.3
		h-1.3l-2.9-3.6l-0.4,0.4v3.3h-1v-7.8h1v3.4L252.4,42.1z M264.4,46v0.3c0,2.1-1.5,3.8-3.7,3.8s-3.9-1.9-3.9-4c0-2.2,1.8-4.1,4-4.1
		c1.2,0,2.4,0.5,3.2,1.5l-0.7,0.7c-0.6-0.8-1.5-1.3-2.5-1.3c-1.7,0-3.1,1.4-3.1,3.2c0,1.6,1.3,3.2,3,3.2c1.2,0,2.5-1,2.6-2.3h-2V46
		L264.4,46L264.4,46z M266.3,45.9L266.3,45.9c0.3-0.6,0.7-0.9,1.4-0.9c0.3,0,0.5,0.1,0.8,0.2L268,46c-0.2-0.1-0.4-0.2-0.6-0.2
		c-1,0-1.1,0.9-1.1,1.7v2.4h-0.9v-4.8h0.9V45.9z M273.6,47.5c0,1.5-1.1,2.6-2.6,2.6s-2.6-1.1-2.6-2.6s1.1-2.6,2.6-2.6
		C272.5,44.9,273.6,46,273.6,47.5z M269.4,47.5c0,0.9,0.7,1.7,1.7,1.7c0.9,0,1.7-0.8,1.7-1.7c0-0.9-0.7-1.7-1.7-1.7
		C270.1,45.8,269.4,46.6,269.4,47.5z M275.4,45.1v2.7c0,0.8,0.2,1.5,1.1,1.5c0.9,0,1.1-0.7,1.1-1.5v-2.7h0.9v2.8
		c0,1.3-0.6,2.2-2,2.2s-2-0.9-2-2.2v-2.8H275.4z M280.6,45.9L280.6,45.9c0.4-0.6,1-1,1.7-1c1.4,0,2.3,1.2,2.3,2.5
		c0,1.4-0.8,2.6-2.3,2.6c-0.7,0-1.3-0.4-1.6-0.9h0v3.5h-0.9v-7.6h0.9V45.9L280.6,45.9z M283.7,47.5c0-0.9-0.6-1.7-1.6-1.7
		c-1,0-1.5,0.8-1.5,1.7c0,0.9,0.5,1.8,1.5,1.8C283.1,49.2,283.7,48.4,283.7,47.5z"/>
	<g>
		<path class="st0" d="M-0.3,26.7l23.4-9.4l-4.6,32.9l-5.4-23.5C13.1,26.7-0.3,26.7-0.3,26.7z M46.5,26.8l-23.4,9.4l4.6-32.9
			l5.4,23.5H46.5z"/>
	</g>
	<g>
		<path class="st0" d="M55.3,31.3l-1.4,3.5h-3.4l6.5-17h2.5l6.3,17h-3.5l-1.3-3.5H55.3z M58.1,22.6L58.1,22.6l-1.9,6h3.9L58.1,22.6z
			 M70.4,34.8h-3.2V21h-3.3v-2.8h9.9V21h-3.3V34.8z M78.2,32h4.6v2.8H75V18.2h3.2L78.2,32L78.2,32z M88.3,31.3l-1.4,3.5h-3.4l6.5-17
			h2.5l6.3,17h-3.5l-1.3-3.5C94.1,31.3,88.3,31.3,88.3,31.3z M91.1,22.6L91.1,22.6l-1.9,6h3.9L91.1,22.6z M107.4,21.8
			c-0.6-0.8-1.4-1.4-2.5-1.4c-1,0-2,0.8-2,1.9c0,2.8,6.6,1.6,6.6,7.2c0,3.3-2.1,5.7-5.5,5.7c-2.3,0-4-1.3-5.1-3.2l2.1-2
			c0.4,1.3,1.6,2.4,3,2.4c1.3,0,2.1-1.1,2.1-2.4c0-1.7-1.6-2.2-2.9-2.7c-2.1-0.9-3.7-2-3.7-4.5c0-2.8,2-5,4.8-5
			c1.5,0,3.5,0.7,4.5,1.8C108.9,19.6,107.4,21.8,107.4,21.8z M120.7,21v3.7h5.2v2.8h-5.2V32h5.3v2.8h-8.6V18.2h8.6V21H120.7z
			 M131.7,32h4.6v2.8h-7.8V18.2h3.2L131.7,32L131.7,32z M140.8,21v3.7h5.2v2.8h-5.2V32h5.3v2.8h-8.6V18.2h8.6V21H140.8z M157,18.2h4
			l-6.3,7.7l6.6,8.9h-4.2l-5.3-7.5h0v7.5h-3.2V18.2h3.2v7h0L157,18.2z M167.9,34.8h-3.2V21h-3.3v-2.8h9.9V21h-3.3L167.9,34.8
			L167.9,34.8z M183.9,34.8H180l-4-6.7h0v6.7h-3.2V18.2h4.4c3.3,0,5.5,1.5,5.5,5c0,2.1-1.2,4.2-3.4,4.6L183.9,34.8z M176,25.8h0.4
			c1.8,0,3-0.5,3-2.6c0-2-1.3-2.4-3-2.4H176L176,25.8L176,25.8z M184.5,26.5c0-4.6,3.4-8.7,8.2-8.7s8.2,4.1,8.2,8.7
			c0,4.8-3.4,8.8-8.2,8.8S184.5,31.2,184.5,26.5z M187.8,26.3c0,2.5,2.1,5.7,4.9,5.7c2.8,0,4.9-3.2,4.9-5.7c0-2.7-2-5.4-4.9-5.4
			C189.8,20.9,187.8,23.6,187.8,26.3z M202.7,17.7h2.3l8.7,11.6h0V18.2h3.2v16.9h-2.3L206,23.5h0v11.3h-3.2L202.7,17.7L202.7,17.7z
			 M223,34.8h-3.2V18.2h3.2V34.8z M234,18.2h4l-6.3,7.7l6.6,8.9h-4.2l-5.3-7.5h0v7.5h-3.2V18.2h3.2v7h0L234,18.2L234,18.2z
			 M247.1,18.2h3.2v9.3c0,2,0.2,4.9,2.9,4.9c2.8,0,2.9-2.9,2.9-4.9v-9.3h3.2v9.9c0,4-1.7,7.1-6.2,7.1c-4.4,0-6.2-3.1-6.2-7.1
			L247.1,18.2L247.1,18.2z M264.3,31.3l-1.4,3.5h-3.4l6.5-17h2.5l6.3,17h-3.5l-1.3-3.5H264.3L264.3,31.3z M267.1,22.6L267.1,22.6
			l-1.9,6h3.9L267.1,22.6z M279.4,21v3.7h5.2v2.8h-5.2V32h5.3v2.8h-8.6V18.2h8.6V21H279.4z"/>
	</g>
</g>
</svg>
