<?xml version="1.0" encoding="utf-8"?>
<!-- Generator: Adobe Illustrator 25.4.1, SVG Export Plug-In . SVG Version: 6.00 Build 0)  -->
<svg version="1.1" id="Layer_1" xmlns="http://www.w3.org/2000/svg" xmlns:xlink="http://www.w3.org/1999/xlink" x="0px" y="0px"
	 viewBox="0 0 80 80.5" style="enable-background:new 0 0 80 80.5;" xml:space="preserve">
<style type="text/css">
	.st0{fill:#0090DF;}
	.st1{fill:#FFFFFF;}
</style>
<path class="st0" d="M0,0c13.1,3.4,26.5,5.1,40,5.1C53.5,5,66.9,3.3,80,0v80.3H0V0"/>
<g transform="translate(0)">
	<path class="st1" d="M40.7,56.9v18.5h5.2v-7.9l6,7.9h6.6L50.7,66l7.4-9h-6.5l-5.7,7.7v-7.7H40.7 M9.8,67.3h2c2.6,0,3.2,1.1,3.2,2.2
		c0,1.1-0.8,2.2-3.4,2.2H9.8L9.8,67.3z M4.9,56.9v18.5h8.3c3.8,0,7.3-1.4,7.3-5.3c0-2.3-1.5-4.4-3.7-5.2c1.2-0.8,1.9-2.1,1.8-3.6
		c0-3.5-3.1-4.4-6.4-4.4L4.9,56.9z M9.8,60.3h1.6c1.6,0,2.9,0.5,2.9,1.8c0,1.6-1,1.9-2.8,1.9H9.8L9.8,60.3z M27.3,56.9l-6.7,18.5
		h5.5l1-3.2h6.1l1,3.2h5.5l-6.8-18.5H27.3z M30.1,61.6l1.9,6.6h-3.7L30.1,61.6z M56.4,66c0,5.3,4.3,9.7,9.7,9.6
		c5.3,0,9.7-4.3,9.6-9.7c0-5.3-4.3-9.7-9.7-9.6c0,0,0,0,0,0c-5.3,0-9.6,4.3-9.6,9.6C56.4,65.9,56.4,66,56.4,66L56.4,66z M60.9,66.1
		c0-2.8,2.2-5.2,5.1-5.2c0,0,0.1,0,0.1,0c2.8,0,5.1,2.2,5.1,5c0,0,0,0,0,0c0.1,2.8-2.2,5.2-5,5.3c-2.8,0.1-5.2-2.2-5.3-5
		C60.9,66.2,60.9,66.1,60.9,66.1z M22.7,58.5c0-0.8,0.7-1.5,1.5-1.5c0.8,0,1.5,0.7,1.5,1.5c0,0.8-0.7,1.5-1.5,1.5
		C23.3,60,22.6,59.3,22.7,58.5C22.7,58.5,22.7,58.5,22.7,58.5L22.7,58.5z M35.9,60c0.8,0,1.5-0.7,1.5-1.5S36.8,57,36,57
		c-0.8,0-1.5,0.7-1.5,1.5c0,0,0,0,0,0C34.4,59.3,35.1,60,35.9,60L35.9,60z"/>
</g>
</svg>
