<?xml version="1.0" encoding="utf-8"?>
<!-- Generator: Adobe Illustrator 25.4.1, SVG Export Plug-In . SVG Version: 6.00 Build 0)  -->
<svg version="1.1" id="_x31_cac801f-8a9a-4f8d-a07c-e423655fddd3"
	 xmlns="http://www.w3.org/2000/svg" xmlns:xlink="http://www.w3.org/1999/xlink" x="0px" y="0px" viewBox="0 0 500 250"
	 style="enable-background:new 0 0 500 250;" xml:space="preserve">
<style type="text/css">
	.st0{fill:#B7BC00;}
</style>
<path class="st0" d="M450.7,148.7c7.6,0,15.2-2.2,21.5-6.3v-28.9c-33.1,3.5-40.5,12-40.5,21.8C431.9,143.3,438.9,148.7,450.7,148.7
	 M417.8,72.1c11.3-5.9,24.1-9.1,36.8-9.3c24.8,0,37.2,12.4,37.2,33.3v68.1l-16.3-6.7c-8.3,5-17.9,7.6-27.6,7.4
	c-25.3,0-36.8-13.9-36.8-28.1c0-8.7,2.6-16.3,9.1-22.2c9.3-8.7,25.7-14.4,51.8-16.7c-0.2-12.6-6.7-18.1-20-18.1
	c-8.1,0-18.7,2.6-29.8,8.7L417.8,72.1z M378,64.7h19.6v98.1H378V64.7L378,64.7z M323.6,113.4l41.4,49.4h-25l-41.1-49l42.2-49H366
	L323.6,113.4z M230,71.8c11.1-6.1,21.8-8.9,31.8-8.9c10.4,0,19.2,3.3,24.8,9.1c5.2,5.4,8,13,8,23.7v67.2H275v-62
	c0-8-1.5-12.4-4.4-15.4c-2.6-2.6-7.6-4.3-13.5-4.3c-7.2,0-15.2,2-23.5,7.2V163h-19.6V64L230,71.8z M152.9,148.7
	c7.6,0,15.2-2.2,21.5-6.3v-28.9c-33.1,3.5-40.5,12-40.5,21.8C133.8,143.3,141,148.7,152.9,148.7 M119.9,72.1
	c11.3-5.9,24.1-9.1,36.8-9.3c24.8,0,37.2,12.4,37.2,33.3v68.1l-16.3-6.7c-8.3,5-17.9,7.6-27.6,7.4c-25.3,0-36.8-13.9-36.8-28.1
	c0-8.7,2.6-16.3,9.1-22.2c9.3-8.7,25.7-14.4,51.8-16.7c-0.2-12.6-6.7-18.1-20-18.1c-8.1,0-18.5,2.6-29.8,8.7L119.9,72.1z
	 M28.7,141.5c8.1,4.3,17.4,6.5,26.6,6.5c19.2,0,28.5-8.7,28.5-22.8c0-14.4-9.4-22.8-32.9-24.2c9.8-7.2,14.2-15.5,14.2-22.9
	c0-8.9-5.9-17.2-21.3-17.2c-5.2,0-10.2,0.7-15.2,2.2L28.7,141.5L28.7,141.5z M105,127.1C105,150,88.3,165,56.3,165
	c-10.7,0-23.1-2.6-32.2-7.4l-15.9,6.7V49.6C19.7,46,31.7,44.2,43.7,44c25.9,0,41.1,12.6,41.1,30.2c0,6.8-2.2,12.4-7.2,17.8
	C94.8,95.6,104.8,108.8,105,127.1"/>
</svg>
