<?xml version="1.0" encoding="utf-8"?>
<!-- Generator: Adobe Illustrator 25.4.1, SVG Export Plug-In . SVG Version: 6.00 Build 0)  -->
<svg version="1.1" id="layer" xmlns="http://www.w3.org/2000/svg" xmlns:xlink="http://www.w3.org/1999/xlink" x="0px" y="0px"
	 viewBox="0 0 652 225.4" style="enable-background:new 0 0 652 225.4;" xml:space="preserve">
<style type="text/css">
	.st0{fill:#00457C;}
	.st1{fill:#F59D21;}
</style>
<g>
	<path class="st0" d="M308.1,121V65.8c0-4.1-5.5-5.2-5.5-5.2h-11.8v82.7h64.7c0,0,5.4,0.7,5.4-5.7V127h-46.1
		C307,127,308.1,121,308.1,121"/>
	<path class="st0" d="M99.6,98.9c0.5-0.5,0.9-1,1.4-1.6c2.7-3.7,4.3-8.6,4.3-13.4c0-6.9-3-13.3-8.2-17.6c-6.8-5.7-14.4-5.7-20.6-5.7
		H27.9c-7.9,0-8.8,5.6-8.8,5.6v77.1h61.6c8.5,0,15.1-1.9,19.7-5.5c5.5-4.4,8.6-11.4,8.6-19.4C109,110.2,105.5,103.2,99.6,98.9
		 M36.4,80.9c0-3.8,3.4-4.3,6.5-4.3h33.8c4.9,0,7.1,0.7,8,1.3c1.5,0.9,3,3.2,3,6.4c0,1.5-0.2,3.5-2.1,5.2c-2.5,2.4-6.5,2.6-10.1,2.6
		H36.4V80.9z M89.5,124.4c-2.2,2.3-5.8,2.6-9,2.6H36.4v-18.6H75c9.6,0,12.8,1.9,13.8,3l0.4,0.4c0.4,0.4,2.4,2.3,2.4,6.6
		C91.6,121.9,90,123.9,89.5,124.4"/>
	<path class="st0" d="M384.2,108.3h53.5c4.6,0,4.1-4,4.1-4V92h-57.6v-8.8v-0.6v-1.4c0-3.8,3.4-4.3,6.4-4.3h2.1h1.4h47.6
		c0,0,4.7,0.3,4.7-4.5V60.6h-71.9c-8.3,0-7.8,5.7-7.8,5.7v77h78.2c0,0,4.4,0.2,4.4-4.5V127H384v-18.7H384.2z"/>
	<path class="st0" d="M209.2,128.2c10.6,0,26.7,0,32.9,0c0.7,0,1.5,0,2.4,0c6.5-0.2,21.7,0.3,23.1-8.2c0.1-0.5,0.2-0.9,0.1-1.3
		c-0.3-3.3-1.8-9.2-24.2-10.2c-12.3-0.5-21-0.9-28.4-3.7c-8.9-3.3-13.6-9.6-13.9-18.6l-0.1-0.8c0-15.3,12.6-23.8,35.2-24.8
		c1.3,0,2.6-0.1,3.9-0.1h1.6h0.7c10.5,0,20.8,0.1,38.4,0.1v10.5c0,5.6-6.5,5.1-6.5,5.1c-14.5,0-23.8-0.1-30.5-0.1
		c-0.6,0-1.4,0-2.3,0h-0.9c-1.1,0-2.6,0-4.3,0.1c-6.7,0.4-17.6,1.4-17.6,7.8c0,0.5,0,0.9,0.1,1.3c0.6,2.4,3.3,5.5,21.8,6.3h1.1
		c12.5,0.5,22.4,2.3,30.3,5.7c9.1,3.9,13.7,10.9,13.7,20.9c0,0.5,0,1,0,1.6v0.2l-0.1,0.9c-0.8,9.1-5.3,21.6-37.9,22.4l-0.1,0.1h-1.1
		h-1.2c-11.3,0-22.6-0.1-36.1-0.1l-5.3-10.7C204,132.6,202.1,128.2,209.2,128.2"/>
	<path class="st1" d="M579.7,32.8c-7.6-7.5-17.5-8.4-17.5-8.4c-19.7,8.4-39.6,20.4-39.6,20.4s29.7-13.4,60.3-7.2
		C582.9,37.7,581.2,34.3,579.7,32.8"/>
	<path class="st0" d="M616.7,23.9c-8.7-13.1-32.2-8.6-47.3-4c4.3,1.2,28.3,3.2,19.6,39.6c-5.2,21.6-20.7,47.1-20,48.4
		C569.9,109.6,631.9,46.8,616.7,23.9"/>
	<path class="st0" d="M522.1,109.8c3.7-0.8,7.6-2.3,11-4.9c2.1-1.7,3.8-3.6,5.2-5.9c0.1-0.1,0.2-0.3,0.3-0.5
		c2.2-3.8,3.4-8.2,3.4-13.1c0-9.1-4.5-17.3-11.8-21.5c-6.2-3.4-13.2-3.4-18.4-3.4h-48.7c-6.2,0-6.5,4.9-6.5,4.9v77.9h12.7
		c0,0,4.5,0.1,4.5-5.2V111H495c0,0,0.3,0,0.8,0c0.2,0,1.7,0,3.9,0l22.5,25.6l0,0c1.6,1.8,2.7,3.1,2.7,3.1s2.9,3.7,9.2,3.6h17.5
		L522.1,109.8z M473.9,94.6V81.4c0,0-0.6-4.6,5.6-4.6h32.7c3.5,0,6.9,0,9.3,1.9c1.3,1,2.9,3.3,2.9,6.6c0,2.5-0.8,4.9-2.1,6.3
		c-2.7,2.9-7.7,3.1-14.4,3.1L473.9,94.6L473.9,94.6z"/>
	<path class="st0" d="M160.5,60.6h-5.3h-1.6c-7.3,0-7.9,1.1-10.2,5.9c-4.7,10-14.7,27.8-23,44.6c4.5-3.5,11.6-7.1,22.2-7.7
		l10.9-19.8l12.5,24.9h-24.7v-0.1c-14.6,1.2-21.8,8.7-24.3,11.9c-5.7,11.5-9.9,20-9.9,20s-1.7,2.9,1.9,2.9h15.2l6.3-12.9
		c0,0,2.8-5.9,10.1-5.9h33.2c0,0,5.6,11,7.2,14.3c1.3,2.5,2.2,4.5,6.8,4.5h2.8c4.3,0,8,0,11.3,0L160.5,60.6z"/>
	<path class="st0" d="M181.5,193.2V180h-3.1v-2.9h3.1v-6.6h3.3v6.6h7v2.9h-7v12.8c0,2.7,1.5,3.6,3.7,3.6c1.1,0,2-0.2,3.2-0.8v2.8
		c-1.1,0.6-2.4,0.9-3.9,0.9C184.2,199.4,181.5,197.7,181.5,193.2"/>
	<path class="st0" d="M196.7,168.1h3.3V181c1.4-2.4,3.7-4.3,7.5-4.3c5.3,0,8.4,3.6,8.4,8.8v13.6h-3.3v-12.8c0-4.1-2.2-6.6-6.1-6.6
		c-3.8,0-6.6,2.8-6.6,6.9v12.6h-3.3v-31.1H196.7z"/>
	<path class="st0" d="M230.8,196.7c3,0,5.1-1.2,6.9-3.1l2,1.8c-2.2,2.5-4.9,4.1-9,4.1c-6,0-10.9-4.6-10.9-11.5
		c0-6.4,4.5-11.5,10.5-11.5c6.5,0,10.2,5.2,10.2,11.6c0,0.3,0,0.6,0,1.2H223C223.5,194,226.9,196.7,230.8,196.7 M237.2,186.8
		c-0.4-4-2.7-7.4-7-7.4c-3.8,0-6.7,3.1-7.1,7.4H237.2z"/>
	<path class="st0" d="M258.9,177.1h3.3v4.4c1.8-2.6,4.4-4.9,8.4-4.9c5.3,0,10.5,4.2,10.5,11.4v0.1c0,7.2-5.2,11.4-10.5,11.4
		c-4.1,0-6.7-2.2-8.4-4.7v11h-3.3V177.1z M277.7,188.1L277.7,188.1c0-5.3-3.6-8.6-7.7-8.6s-7.9,3.4-7.9,8.4v0.1
		c0,5.1,3.9,8.5,7.9,8.5C274.2,196.6,277.7,193.4,277.7,188.1"/>
	<path class="st0" d="M285.6,188.2L285.6,188.2c0-6.3,4.8-11.5,11.4-11.5s11.4,5.2,11.4,11.4v0.1c0,6.2-4.9,11.5-11.5,11.5
		C290.4,199.5,285.6,194.4,285.6,188.2 M305.1,188.2L305.1,188.2c0-4.8-3.5-8.7-8.1-8.7c-4.8,0-8,3.9-8,8.5v0.1
		c0,4.7,3.5,8.5,8.1,8.5C301.8,196.6,305.1,192.8,305.1,188.2"/>
	<polygon class="st0" points="309.6,177.1 313.1,177.1 318.8,194.7 324.7,177 327.4,177 333.4,194.7 339.1,177.1 342.5,177.1 
		334.8,199.2 332,199.2 326.1,181.9 320.1,199.2 317.2,199.2 	"/>
	<path class="st0" d="M356.8,196.7c3,0,5.1-1.2,6.9-3.1l2,1.8c-2.2,2.5-4.9,4.1-9,4.1c-6,0-10.9-4.6-10.9-11.5
		c0-6.4,4.5-11.5,10.5-11.5c6.5,0,10.2,5.2,10.2,11.6c0,0.3,0,0.6,0,1.2h-17.4C349.5,194,352.9,196.7,356.8,196.7 M363.2,186.8
		c-0.4-4-2.7-7.4-7-7.4c-3.8,0-6.7,3.1-7.1,7.4H363.2z"/>
	<path class="st0" d="M372.2,177.1h3.3v5.7c1.6-3.6,4.8-6.3,8.9-6.1v3.5h-0.3c-4.8,0-8.7,3.4-8.7,10.1v8.7h-3.3v-21.9H372.2z"/>
	<path class="st0" d="M399.2,188.2L399.2,188.2c0-6.3,4.8-11.5,11.5-11.5c6.6,0,11.4,5.2,11.4,11.4v0.1c0,6.2-4.9,11.5-11.5,11.5
		C404,199.5,399.2,194.4,399.2,188.2 M418.7,188.2L418.7,188.2c0-4.8-3.5-8.7-8.1-8.7c-4.8,0-8,3.9-8,8.5v0.1c0,4.7,3.5,8.5,8.1,8.5
		C415.4,196.6,418.7,192.8,418.7,188.2"/>
	<path class="st0" d="M428.3,180h-3v-2.8h3v-1.9c0-2.5,0.7-4.4,1.9-5.6c1.1-1.1,2.7-1.7,4.7-1.7c1.5,0,2.5,0.2,3.6,0.5v2.8
		c-1.2-0.3-2.1-0.6-3.2-0.6c-2.5,0-3.8,1.5-3.8,4.7v1.8h7v2.8h-6.9v19h-3.3L428.3,180L428.3,180z"/>
	<path class="st1" d="M453.6,196.2l1.7-2.3c2.4,1.8,5,2.8,7.6,2.8s4.5-1.4,4.5-3.5v-0.1c0-2.2-2.6-3.1-5.5-3.9
		c-3.4-1-7.3-2.2-7.3-6.2v-0.1c0-3.8,3.1-6.3,7.5-6.3c2.7,0,5.6,0.9,7.9,2.4l-1.5,2.5c-2-1.3-4.4-2.1-6.5-2.1
		c-2.6,0-4.2,1.4-4.2,3.2v0.1c0,2.1,2.7,2.9,5.6,3.8c3.4,1,7,2.3,7,6.3v0.1c0,4.2-3.4,6.6-7.8,6.6
		C459.5,199.5,456,198.2,453.6,196.2"/>
	<path class="st1" d="M475.7,168.7h3.7v3.6h-3.7V168.7z M475.9,177.1h3.3V199h-3.3V177.1z"/>
	<path class="st1" d="M485.7,202.9l1.5-2.5c2.5,1.8,5.3,2.8,8.4,2.8c4.8,0,8-2.7,8-7.8v-2.6c-1.9,2.5-4.6,4.6-8.6,4.6
		c-5.3,0-10.3-3.9-10.3-10.3V187c0-6.4,5.1-10.3,10.3-10.3c4.1,0,6.8,2,8.6,4.4v-3.9h3.3v18.1c0,3.4-1,6-2.8,7.8
		c-1.9,2-4.9,2.9-8.4,2.9C492,205.9,488.6,204.9,485.7,202.9 M503.7,187L503.7,187c0-4.6-3.9-7.5-8.1-7.5s-7.6,2.9-7.6,7.4v0.1
		c0,4.4,3.5,7.5,7.6,7.5C499.8,194.5,503.7,191.5,503.7,187"/>
	<path class="st1" d="M513.3,168.1h3.3V181c1.4-2.4,3.7-4.3,7.5-4.3c5.3,0,8.4,3.6,8.4,8.8v13.6h-3.3v-12.8c0-4.1-2.2-6.6-6.1-6.6
		c-3.8,0-6.6,2.8-6.6,6.9v12.6h-3.3L513.3,168.1L513.3,168.1z"/>
	<path class="st1" d="M539.7,193.2V180h-3.1v-2.9h3.1v-6.6h3.3v6.6h7v2.9h-7v12.8c0,2.7,1.5,3.6,3.7,3.6c1.1,0,2-0.2,3.2-0.8v2.8
		c-1.1,0.6-2.4,0.9-3.9,0.9C542.4,199.4,539.7,197.7,539.7,193.2"/>
</g>
</svg>
