<?xml version="1.0" encoding="utf-8"?>
<!-- Generator: Adobe Illustrator 25.4.1, SVG Export Plug-In . SVG Version: 6.00 Build 0)  -->
<svg version="1.1" id="Layer_1" xmlns="http://www.w3.org/2000/svg" xmlns:xlink="http://www.w3.org/1999/xlink" x="0px" y="0px"
	 viewBox="0 0 1920 234" style="enable-background:new 0 0 1920 234;" xml:space="preserve">
<style type="text/css">
	.st0{fill:#422831;}
</style>
<path class="st0" d="M163.4,117.4c7.2-3.5,17.3-8.4,17.3-24.2c0-30-31.1-30-44-30H71v114.9h58c23.6,0,55.6-1.3,55.6-32.2
	C184.6,126.7,170.2,120.4,163.4,117.4z M84.7,74.9h43.5c20.3,0,38.7,0.2,38.7,18.5c0,16.1-18.1,18.8-34,18.8H84.7V74.9z
	 M137.9,165.8H84.7v-41.9h54.8c18.6,0,31.1,5.5,31.1,21.5C170.6,162.9,154.5,165.8,137.9,165.8z"/>
<path class="st0" d="M287.3,126.9c13.7-0.6,35.7-7.6,35.7-31.6c0-28.1-26.5-32.1-44.6-32.1h-65.5v114.9h13.7v-50.9h44.6l36.5,50.9
	h17L287.3,126.9z M226.6,114.9V75.5h48.7c19.8,0,34.6,2.8,34.6,19.6c0,16.9-14.8,19.7-34.6,19.7H226.6z"/>
<polygon class="st0" points="354.7,63.2 455.8,63.2 455.8,75.5 368.4,75.5 368.4,112.2 441.5,112.2 441.5,124.5 368.4,124.5 
	368.4,165.8 457.7,165.8 457.7,178.1 354.7,178.1 "/>
<polygon class="st0" points="490.7,63.2 540.8,162.9 591,63.2 606.1,63.2 547.5,178.1 534.1,178.1 475.4,63.2 "/>
<path class="st0" d="M668.9,63.2H652l-58.4,114.9H609l14.8-29.9H697l14.7,29.9h15.5L668.9,63.2z M630,135.9l30.4-61.8l30.4,61.8H630
	z"/>
<polygon class="st0" points="749.5,63.2 769,63.2 853.4,157.7 853.4,63.2 867.1,63.2 867.1,178.1 853.4,178.1 762.6,75.5 
	762.6,178.1 749.5,178.1 "/>
<polygon class="st0" points="958,63.2 980.1,63.2 980.1,108.7 1056.3,108.7 1056.3,63.2 1078.4,63.2 1078.4,178.1 1056.3,178.1 
	1056.3,128.6 980.1,128.6 980.1,178.1 958,178.1 "/>
<path class="st0" d="M1168.6,60.4c-49.9,0-67.6,29.7-67.6,61.2c0,23.8,13.9,59.4,67.6,59.4c53.7,0,67.6-35.6,67.6-59.4
	C1236.2,90.1,1218.6,60.4,1168.6,60.4z M1168.6,161.6c-21.2,0-45.4-8.8-45.4-41.4c0-27.7,19.5-40.6,45.4-40.6
	c25.9,0,45.4,13,45.4,40.6C1214,152.8,1189.8,161.6,1168.6,161.6z"/>
<polygon class="st0" points="1248.4,63.2 1270.5,63.2 1292.4,142.2 1292.7,142.2 1314.4,63.2 1335.6,63.2 1357.6,142.1 
	1357.9,142.1 1379.7,63.2 1401.3,63.2 1368.2,178.1 1347,178.1 1325.5,96.6 1325.1,96.6 1303.4,178.1 1281.8,178.1 "/>
<path class="st0" d="M1484.1,63.2h-25.3l-55.9,114.9h23.6l12-26.4h65.4l11.9,26.4h23.4L1484.1,63.2z M1447.7,132.4l23.7-51.2
	l23.7,51.2H1447.7z"/>
<path class="st0" d="M1641.7,131.3c16.7-1,31.7-12.6,31.7-33.8c0-28.1-19.3-34.3-46.2-34.3H1559v114.9h22.2v-45.2h35.1l32.9,45.2
	h27.3L1641.7,131.3z M1581.2,114.3V81.9h42.8c18.1,0,27.3,2.7,27.3,16.1c0,13.6-9.2,16.3-27.3,16.3H1581.2z"/>
<path class="st0" d="M1756.4,63.2h-54.6v114.9h55.6c37.5,0,63.7-19,63.7-58.1C1821,78.5,1792.3,63.2,1756.4,63.2z M1746.4,158.8
	h-22.5V82.5h22.5c37.1,0,52.4,9.6,52.4,37.8C1798.8,147.1,1784.2,158.8,1746.4,158.8z"/>
</svg>
