<?xml version="1.0" encoding="utf-8"?>
<!-- Generator: Adobe Illustrator 25.4.1, SVG Export Plug-In . SVG Version: 6.00 Build 0)  -->
<svg version="1.1" id="svg" xmlns="http://www.w3.org/2000/svg" xmlns:xlink="http://www.w3.org/1999/xlink" x="0px" y="0px"
	 viewBox="0 0 400 201.5" style="enable-background:new 0 0 400 201.5;" xml:space="preserve">
<style type="text/css">
	.st0{fill-rule:evenodd;clip-rule:evenodd;fill:#F9AE0D;}
	.st1{fill-rule:evenodd;clip-rule:evenodd;fill:#122542;}
</style>
<path id="path0" class="st0" d="M45.3,100.8v55.4h11.5h11.5v-43.9V68.3h10.5h10.5v43.9v43.9h11.5h11.5v-55.4V45.3H78.8H45.3V100.8"
	/>
<path id="path1" class="st1" d="M0.8,100.6v99.7h55.7h55.7v-11.5v-11.5h-44h-44v-76.6V24.2h44h44V12.5V0.8H56.5H0.8V100.6
	 M146.9,53.1c-13.1,0.9-12.5,14.8-12.7,15c-0.2,2.1-0.3,9.6-0.2,10.4c0.6,15.1,3.2,21.4,27.7,18.5v-6.8c0,0-12.9,0.5-13.3,0.3
	c-0.2-0.2-6.6,1.3-6.5-15.5c0.1-11.5,1.1-13.6,8.6-14.3c0.1-0.3,10.8-0.2,10.8-0.2v-7.4 M166.2,52.3l-0.2,45.3l27.3,0.1v-8.5h-17.9
	V79.2h14.3v-8.4l-14.3-0.1V60.7h17.6v-8.3l-26.8,0.2 M371.3,52.3l-0.2,45.3l27.3,0.1v-8.5h-17.9V79.2h14.3v-8.4l-14.3-0.1V60.7h17.6
	v-8.3l-26.8,0.2 M197.6,52.3l-0.4,45.4h9.5l0-16.8c0-15.9,0-16.7,0.4-16.1c0,0,11.4,32.5,11.4,32.8h14.6l0,0
	c0.1-10.1,0.1-34.7-0.2-45.1l-9.1,0c-0.1,0.3-0.3,33.3-0.4,33.3c-0.1,0-12.2-33.5-12.2-33.5L197.6,52.3 M237.4,60.7h11l0,37h8.3
	l0.1-37h10.6v-7.6h-30 M272.2,97.7h8.2V82.2h8.5l4.8,15.4l8.7-0.1c-0.2-0.2-6-17.5-5.7-17.7c9.3-5.5,9.3-26.5-7.9-26.5l-16.4,0
	 M305.8,97.3h9.4c0-0.6,1.6-8.6,1.6-8.6h12.4l2.1,8.6h9.5c0,0-12.3-43.7-12.3-44h-10.8 M345.1,97.3l22.6,0.2v-7.1L353,90.2l0-36.9
	H345 M287.6,60.7c9.6,0.3,8,14.3,1.5,14.5c-1.6,0.1-8.1,0-8.1,0V60.7 M323.2,60.3c0.2,0,4.8,20.8,4.8,20.8h-9.6
	C318.4,81.1,323.1,60.3,323.2,60.3 M135.1,107.4c-0.4,0.4-0.4,40.7,0,41c0.2,0.2,1.1,0.2,2.7,0.2h2.5c0,0,0.6-39,0.2-34.5
	c0,0.1,0.2,0.1,0.2,0.3c0,0.2,0.1,0.6,0.3,0.9s14.9,32.3,15,32.3c0.1,0,0.2,0.2,0.3,0.5c0.1,0.5,0.1,0.5,4,0.5l4,0.1v-41.5h-5.4
	c0,0,0,34.1-0.3,34.1c-0.2,0-0.3-0.2-0.3-0.7c0-0.4-15.7-32.8-15.8-33L135.1,107.4 M205.7,107.4c-0.4,0.4-0.4,40.7,0,41
	c0.2,0.2,1.1,0.2,2.7,0.2h2.5c0,0,0.6-39,0.2-34.5c0,0.1,0.2,0.1,0.2,0.3c0,0.2,0.1,0.6,0.3,0.9s14.9,32.3,15,32.3
	c0.1,0,0.2,0.2,0.3,0.5c0.1,0.5,0.1,0.5,4,0.5l4,0.1v-41.5h-5.4c0,0,0,34.1-0.3,34.1c-0.2,0-0.3-0.2-0.3-0.7
	c0-0.4-15.7-32.8-15.8-33L205.7,107.4 M182,107.8c0,0-13.5,40.7-13.6,40.9h4.9l3-9.9l16.5,0c0,0.4,3.3,9.9,3.3,9.9h5.2
	c0,0-14.2-40.6-14.2-40.9 M237.9,112.1l11.8,0.1l0.1,36.4l5.5,0.1v-36.5l11.8-0.1v-4.8c0,0-29.1-0.1-29.2,0.2 M270.8,128v20.8H283
	h12.2v-2.4c0-2-0.1-2.4-0.3-2.5c-0.2-0.1-4.4-0.1-9.5-0.1h-9.2v-6.8v-6.8h7.8h7.8v-2.4v-2.4H284h-7.8v-6.5v-6.5h9.5h9.5v-2.5v-2.5
	H283h-12.2V128 M312.9,107.8c-11.4,0-12.9,5.7-12.9,11c0,5.7,3.8,10.6,9.9,11.1c2,0.2,6.7,0.3,8.9,4.4c0.1,0.2,4.8,11-10.4,10.4
	c-8.8,0-8.1,0-8.1,0v4.1h7.5c21.4,1.1,16.3-15,16.1-15.1c-1.8-5.9-4.3-6.4-15-8.6c-4.8-1-8.5-12.3,1.6-13.1
	c0.1-0.3,13.4-0.1,13.4-0.1v-4 M192.2,134.8h-15l7.5-22.8"/>
</svg>
