<?xml version="1.0" encoding="utf-8"?>
<!-- Generator: Adobe Illustrator 25.4.1, SVG Export Plug-In . SVG Version: 6.00 Build 0)  -->
<svg version="1.1" id="svg" xmlns="http://www.w3.org/2000/svg" xmlns:xlink="http://www.w3.org/1999/xlink" x="0px" y="0px"
	 viewBox="0 0 400 104.5" style="enable-background:new 0 0 400 104.5;" xml:space="preserve">
<style type="text/css">
	.st0{fill-rule:evenodd;clip-rule:evenodd;fill:#AB231B;}
	.st1{fill-rule:evenodd;clip-rule:evenodd;fill:#431304;}
	.st2{fill-rule:evenodd;clip-rule:evenodd;fill:#F9F6F5;}
</style>
<g>
	<path id="path1" class="st0" d="M86.8,12.6c0,0.1-0.1,0.2-0.2,0.2s-0.2,0.1-0.2,0.2c0,0.2-0.2,0.2-0.5,0.2s-0.5,0.1-0.5,0.2
		c0,0.2-0.2,0.2-0.5,0.2s-0.5,0.1-0.5,0.2c0,0.2-0.2,0.2-0.5,0.2s-0.5,0.1-0.5,0.2c0,0.1-0.1,0.2-0.2,0.2S83,14.5,83,14.6
		c0,0.1-0.1,0.2-0.2,0.2s-0.2,0.1-0.2,0.2c0,0.1-0.1,0.2-0.2,0.2s-0.2,0.1-0.2,0.2c0,0.1-0.1,0.2-0.2,0.2s-0.2,0.1-0.2,0.2
		c0,0.1-0.1,0.2-0.2,0.2s-0.2,0.1-0.2,0.2s-0.1,0.2-0.2,0.2c-0.2,0-0.2,0.2-0.2,0.5s-0.1,0.5-0.2,0.5c-0.2,0-0.2,0.2-0.2,0.4
		c0,0.2-0.1,0.5-0.2,0.5c-0.1,0.1-0.2,0.3-0.2,0.6c0,0.3-0.1,0.5-0.2,0.5c-0.2,0-0.2,0.2-0.2,0.8c0,0.6-0.1,0.8-0.2,0.8
		c-0.2,0-0.2,2.8-0.2,24s0,24,0.2,24s0.2,0.2,0.2,0.6s0.1,0.7,0.2,0.9c0.1,0.1,0.2,0.5,0.2,0.8c0,0.4,0.1,0.6,0.2,0.6
		c0.2,0,0.2,0.2,0.2,0.4c0,0.2,0.1,0.5,0.2,0.5c0.1,0.1,0.2,0.2,0.2,0.3c0,0.1,0.1,0.2,0.2,0.2s0.3,0.1,0.3,0.3
		c0.2,0.6,0.6,1.2,0.8,1.2c0.1,0,0.2,0.1,0.2,0.2s0.1,0.2,0.2,0.2s0.3,0.1,0.4,0.2s0.4,0.2,0.6,0.2s0.3,0.1,0.3,0.2s0.1,0.2,0.2,0.2
		s0.2,0.1,0.2,0.2c0,0.2,0.2,0.2,0.5,0.2s0.5,0.1,0.5,0.2c0,0.2,0.2,0.2,0.5,0.2s0.5,0.1,0.5,0.2c0,0.2,0.2,0.3,0.7,0.3
		c0.4,0,0.9,0.1,1,0.2c0.5,0.4,296.6,0.4,296.6,0c0-0.2,0.2-0.2,0.8-0.2c0.6,0,0.8-0.1,0.8-0.2c0-0.2,0.2-0.2,0.5-0.2
		s0.5-0.1,0.5-0.2c0-0.2,0.2-0.2,0.5-0.2s0.5-0.1,0.5-0.2c0-0.2,0.2-0.2,0.4-0.2c0.2,0,0.5-0.1,0.5-0.2c0.1-0.1,0.2-0.2,0.3-0.2
		c0.1,0,0.2-0.1,0.2-0.2s0.1-0.2,0.2-0.2s0.2-0.1,0.2-0.2s0.1-0.2,0.2-0.2s0.2-0.1,0.2-0.2s0.1-0.2,0.2-0.2s0.2-0.1,0.2-0.2
		s0.1-0.3,0.2-0.3c0.1-0.1,0.2-0.3,0.2-0.5c0-0.3,0.1-0.4,0.2-0.4s0.2-0.1,0.2-0.2s0.1-0.3,0.2-0.4s0.2-0.3,0.2-0.5s0.1-0.3,0.2-0.3
		c0.2,0,0.2-0.2,0.2-0.7c0-0.4,0.1-0.8,0.2-0.9c0.2-0.2,0.2-3.1,0.2-24.7c0-21.5,0-24.5-0.2-24.7c-0.1-0.1-0.2-0.5-0.2-0.8
		c0-0.4-0.1-0.6-0.2-0.6c-0.2,0-0.2-0.2-0.2-0.5s-0.1-0.5-0.2-0.5c-0.2,0-0.2-0.2-0.2-0.4c0-0.2-0.1-0.5-0.2-0.5
		c-0.1-0.1-0.2-0.2-0.2-0.3c0-0.1-0.1-0.2-0.2-0.2s-0.2-0.1-0.2-0.3s-0.1-0.4-0.2-0.6c-0.1-0.1-0.2-0.3-0.2-0.4
		c0-0.1-0.1-0.2-0.3-0.2c-0.1,0-0.3-0.1-0.4-0.2c-0.1-0.1-0.3-0.2-0.5-0.2s-0.4-0.1-0.4-0.2c0-0.1-0.1-0.2-0.2-0.2s-0.2-0.1-0.2-0.2
		c0-0.2-0.2-0.2-0.5-0.2s-0.5-0.1-0.5-0.2c0-0.1-0.1-0.2-0.3-0.2c-0.1,0-0.3-0.1-0.4-0.2c-0.1-0.2-0.3-0.2-0.7-0.2
		c-0.6,0-0.6,0-0.7-0.5l-0.1-0.5H236.2C103.4,12.3,86.8,12.4,86.8,12.6 M115.2,27.9c3.1,0.5,5.7,1.6,8.1,3.4c2,1.6,2,1.6,0.2,3.8
		c-2,2.3-2,2.3-3.6,1.1c-5.2-3.9-11.3-4-15.6-0.2c-3.8,3.4-5,9.7-2.7,14.7c3.1,7,11.6,8.9,18,3.9c1.9-1.4,1.8-1.4,3.8,0.9
		c2,2.3,2,2.3-0.1,3.9c-6.1,4.6-15.4,4.9-21.5,0.7c-8-5.4-10.2-16.7-4.8-24.8C100.8,29.6,107.7,26.7,115.2,27.9 M257.8,27.9
		c18.8,3.3,20,29.7,1.6,34.8c-9.2,2.5-19.2-2.7-22-11.5C233.2,38,244.1,25.6,257.8,27.9 M143,28.4l0.5,0.3v7.7c0,8.3,0,8.3,1,8.3
		c0.2,0,3.9,0,8.3,0h8l0.4-0.4l0.4-0.4v-7.6v-7.6l0.4-0.3c0.7-0.4,4.7-0.3,5.2,0.1l0.4,0.3v16.6c0,15.2,0,16.6-0.3,16.9
		c-0.3,0.4-4.8,0.5-5.4,0.1c-0.3-0.2-0.3-0.4-0.3-5.7s0-5.6-0.3-5.9c-0.5-0.5-0.8-0.6-9.2-0.5l-7.8,0.1l-0.3,0.4
		c-0.3,0.4-0.3,0.7-0.3,5.9c0,6.7,0.3,6-3,6c-2,0-2.5,0-2.7-0.3c-0.2-0.2-0.3-2-0.3-17V28.7l0.4-0.3C138.4,28.1,142.3,28.1,143,28.4
		 M187.3,28.4c0.7,0.4,0.7-0.4,0.7,17.2c0,19.4,0.4,17.1-3.1,17.1s-3,2.4-3-17.2V28.9l0.4-0.3C182.9,28,186.6,28,187.3,28.4
		 M216.5,28.3c8.3,0.8,12.9,6.8,11.2,14.4c-1.4,6-5.9,8.7-14.9,8.9c-3.6,0.1-4.7,0.1-5,0.3l-0.4,0.2V57c0,6.1,0.3,5.6-3.2,5.6
		c-2.4,0-2.5,0-2.8-0.4c-0.2-0.3-0.3-2.2-0.3-16.8V29l0.4-0.4l0.4-0.4h6.3C212,28.2,215.6,28.2,216.5,28.3 M305.8,28.4
		c0.8,0.4,1.1,4.3,0.4,5.1l-0.3,0.4H301c-4.7,0-4.9,0.1-5.2,0.4c-0.3,0.3-0.3,1.2-0.3,14c0,12.5,0,13.7-0.3,14
		c-0.5,0.5-5.3,0.5-5.6-0.1c-0.2-0.3-0.3-1.9-0.3-14c0-12,0-13.6-0.3-14s-0.3-0.4-5-0.4c-6.1,0-5.6,0.3-5.6-2.9c0-2.3,0-2.4,0.4-2.6
		C279.4,28.1,305.1,28,305.8,28.4 M322.3,28.4c0.7,0.4,0.7-0.2,0.7,14.4c0,13.4,0,13.7,0.3,14s0.6,0.3,8.6,0.3
		c10.1,0,9.1-0.3,9.1,2.8c0,2,0,2.2-0.3,2.4c-0.6,0.4-23.2,0.3-23.6-0.1c-0.3-0.3-0.3-0.6-0.3-16.8V29l0.4-0.4
		C317.8,28.1,321.4,28,322.3,28.4 M374.7,28.5c0.5,0.4,0.7,4.4,0.2,4.9c-0.2,0.2-1.3,0.3-9.3,0.3h-9.1l-0.4,0.4l-0.4,0.4v4.7
		c0,4.4,0,4.8,0.3,5.1l0.3,0.4h7c8.4,0.1,7.6-0.2,7.6,2.7c0,1.7,0,2-0.3,2.4l-0.3,0.4h-7c-6.9,0-7,0-7.3,0.4c-0.4,0.5-0.4,5.5,0,6.1
		l0.3,0.4h9.1c11.2,0,10.2-0.3,10.2,2.9c0,2.9,1.6,2.6-13,2.6h-12.3l-0.3-0.4c-0.3-0.4-0.3-0.5-0.3-16.6c0-17.6,0-16.8,0.7-17.2
		C351.2,28,374.1,28,374.7,28.5 M252.5,33.4c-12.2,2.4-13,20-1.1,23.9c1.3,0.4,5.2,0.4,6.4,0c12.6-4.3,10.2-23.5-2.9-23.9
		C253.8,33.4,252.7,33.4,252.5,33.4 M207.9,34.1l-0.4,0.3V40v5.7l0.4,0.3c0.6,0.4,8.3,0.3,9.5-0.2c5.8-2.1,6-9.4,0.3-11.4
		C216.4,33.8,208.5,33.6,207.9,34.1"/>
	<path class="st1" d="M78.8,71.4c0,0.1,0.1,0.2,0.3,0.2c0.2,0,0.2,0,0.1-0.2c-0.1-0.1-0.2-0.2-0.3-0.2
		C78.9,71.2,78.8,71.3,78.8,71.4"/>
	<path class="st1" d="M224.2,102.9c0,0,7.5,0,9.5,0v-2.3h-7V98h6c0,0,0-1.3,0-2.5h-6v-2.4h6.5V91c0,0-3.1,0-8.9,0"/>
	<path class="st1" d="M207.2,96.9v5.9c0.5,0,1.8,0,2.5,0c0-1.6,0-4.6,0-7.7c1.5,2.1,3.6,4.7,3.6,4.7s2.8-3.7,3.5-4.7
		c0.1-0.2,0,7.7,0,7.7h2.5v-5.9V91H216c-0.6,0.9-2.7,3.9-2.7,3.9c-0.9-1.3-0.9-1.3-2.6-3.9h-3.5V96.9"/>
	<rect x="253.2" y="91" class="st1" width="2.7" height="11.9"/>
	<polygon class="st1" points="300.1,91 300.1,99 294.7,91 292.1,91 292.1,102.9 294.7,102.9 294.7,94.9 300.1,102.9 302.8,102.9 
		302.8,91 	"/>
	<path class="st1" d="M284.9,102.9h2.7L283,91h-0.3h-2.4H280l-4.5,11.9h2.7l1.1-2.9h4.5L284.9,102.9z M280.1,98l1.5-3.9l1.5,3.9
		H280.1z"/>
	<polygon class="st1" points="248.5,91 245.9,91 243,95 240.2,91 237.5,91 241.7,96.9 237.5,102.9 240.2,102.9 243,98.8 
		245.9,102.9 248.5,102.9 244.4,96.9 	"/>
	<path class="st1" d="M269.9,99.4c-0.6,0.9-1.7,1.6-2.7,1.6c-2.3,0-4.1-2.5-4.1-4.3s1.6-3.7,3.5-3.7c1.3,0,2.1,0.1,3.3,1.2l1.5-1.8
		c-1.3-1.4-3-1.9-4.5-1.9c-4,0-6.5,3.7-6.4,6.6c0.2,3.7,2.9,6.6,6.9,6.6c1.8,0,3.7-1.3,4.4-2.6L269.9,99.4z"/>
	<path class="st1" d="M326.2,100.9V98v-0.7V96h-5v2h3.1v1.9c-0.3,0.5-1.1,1.1-2.6,1.1c-3-0.1-4.1-2.4-4.1-4.2s1.7-3.8,3.7-3.8
		c1.3,0,1.7,0.1,3.1,1.1l1.7-1.7c-1.2-0.9-3.2-1.9-5.3-1.7c-4,0.3-5.9,3.8-5.9,6c0,3.6,2.9,6.3,6.7,6.4
		C324.2,103.1,326.2,100.9,326.2,100.9z"/>
	<path class="st1" d="M341.5,94.8c0-2.1-1.7-3.8-3.8-3.8c-0.1,0-0.2,0-0.4,0l0,0h-3.7h-1h-1.5v11.9h2.5v-4h2.5l2.7,4h2.5l-2.9-4.4
		C340.1,98.3,341.5,96.7,341.5,94.8z M333.6,97v-4h3.7l0,0c0.5,0,1.4,0.8,1.4,1.9c0,1.2-0.6,1.9-1.5,2.1l0,0h-0.8h-1.6H333.6z"/>
	<rect x="346.1" y="91" class="st1" width="2.6" height="11.9"/>
	<polygon class="st1" points="356.6,100.5 356.6,91 354.1,91 354.1,102.9 356.3,102.9 356.6,102.9 362.7,102.9 362.7,100.5 	"/>
	<polygon class="st1" points="369.7,100.5 369.7,91 367.3,91 367.3,102.9 369.4,102.9 369.7,102.9 375.8,102.9 375.8,100.5 	"/>
	<g>
		<path id="path0_00000098932525649065871070000007242171082372453565_" class="st2" d="M52.4,21.1c-0.5,0.1-1.4,0.2-2.2,0.3
			c-0.7,0.1-1.5,0.2-1.7,0.3c-0.3,0.1-1.4,0.9-2.7,2c-0.8,0.6-1,0.8-3.5,2.8c-1.1,0.9-2.1,1.7-2.2,1.8c-1.2,1.4-2.7,1.6-4.5,0.8
			c-1.9-0.9-1.8-0.9-2.7-0.4c-1.1,0.6-1.2,1.1-0.3,0.9c0.9-0.1,2.5,0.6,2.5,1.2c0,0.5-0.1,0.5-2.4,0.7c-2.7,0.3-2.6,0.3-5.1,2.6
			l-2.2,2.1L25.3,38c-0.1,1-0.2,2.8-0.4,4.1c-0.6,5.1-0.6,5.7-0.4,6.7c0.1,0.5,0.3,1.6,0.4,2.3c0.2,1.1,0.4,1.6,0.9,2.5
			c0.4,0.6,0.7,1.2,0.7,1.2c0,0.1,2.4,3.8,2.6,4c0.1,0.1,0.3,0.5,0.5,0.8c0.2,0.4,0.4,0.7,0.5,0.8c0.1,0,0.4,0.6,0.9,1.2
			c0.8,1.2,2.2,3.1,2.8,3.9c1.6,2.1,3.5,2.7,9.2,3.2c7.1,0.6,9.8,0.3,11.4-1.6c2.1-2.5,2.7-4.6,1.3-4.9C54.4,61.9,50,59.5,48,58
			c-1.2-0.9-1.6-1.7-1.6-3.2c0-0.8-0.1-1.2-0.4-1.8l-0.4-0.7l0.7-0.5c0.4-0.3,0.8-0.8,1.1-1.3c0.2-0.5,0.6-1.3,0.9-1.9
			c0.3-0.6,0.8-1.5,1.2-2.1c1.9-2.5,2.4-5.9,1.2-7.7c-0.4-0.5-1.1-1.8-1.6-2.8s-0.9-1.8-1-1.8C47.5,33.7,47.4,33,48,33
			c1,0,2.2-1.2,1.4-1.4c-0.2-0.1-0.7-0.1-1-0.1c-1.4,0.1-1.6,0-2.3-0.7c-0.5-0.5-0.7-0.8-0.6-1c0-0.2,0.2-0.8,0.4-1.4
			s0.4-1.4,0.4-1.7c0.2-0.7,0.6-1.2,2.1-2.3c1.5-1.1,1.7-1.2,3.9-1.3c2.4-0.1,2.3-0.2,3.3,1.8c1,1.8,0.9,1.9-0.2,2.9
			c-1,0.9-1.2,1.3-0.5,1.2c0.2-0.1,0.9-0.1,1.6-0.1c1.4,0,1.3,0.1,1.9-2.2c0.4-1.5,0.5-1.4-1.3-3.8C55.8,21.2,54.7,20.7,52.4,21.1
			 M38.4,34.1c0.1,0.1,0.2,0.3,0.2,0.5c0,1.3,2.7,1.8,4,0.7c1.6-1.3,1.7-1.3,2.8,0.1c0.4,0.6,0.9,1.2,1.1,1.4c0.2,0.2,0.7,1,1.2,1.9
			s1,1.7,1.1,1.8c0.7,1.1,0.7,1.3,0.4,2.4c-0.4,1.5-0.7,2.3-1.3,3.1c-0.3,0.4-0.5,0.8-0.5,0.8c0,0.1-1.5,2.6-1.7,2.7
			c-1.2,1.1-1.8,3.2-1.2,4.7c0.8,2.1,1.1,3.3,1,4.4c-0.1,1.1-0.1,1.1,0.3,1.1c0.4,0,1.5,0.7,2.4,1.4c0.2,0.2,1,0.8,1.7,1.3
			c1.9,1.4,1.9,1.7,0.1,2.9c-1.6,1-2.2,1.1-4.6,1c-5.4-0.2-9-0.9-10-1.9c-0.6-0.6-4-5.8-5.8-9c-0.1-0.2-0.5-0.8-1-1.5
			c-1.7-2.5-1.6-2-1.6-5.6c0-3.3,0.5-9.6,0.7-10.1c0.3-0.5,2.2-2.9,2.6-3.3c0.4-0.3,0.7-0.4,2.7-0.6C37.6,33.9,38.2,33.9,38.4,34.1
			 M35.7,37.6c-0.4,0.1-1.4,0.3-2.2,0.4c-2.9,0.4-3,0.6-3.5,2.8c-0.1,0.5-0.3,1.4-0.4,2c-0.3,1.5-0.2,7,0.2,8.2
			c0.5,1.5,1,2.6,1.9,3.9c0.2,0.4,0.6,1.1,0.9,1.6c0.8,1.6,1.1,2,2,2.6c1.2,0.9,1.4,0.5,0.5-0.8c-0.6-0.9-2.2-3.8-2.6-4.9
			c-1.3-3.7-1.5-4.6-1.4-7.9c0.2-5.2,0.3-5.3,5-5.9l2.7-0.4l1.6,0.4c1.5,0.3,3,1,3.6,1.5s0.5,0.6-2.3,6.5c-1.3,2.8-1.4,3-1.4,4.3
			c0,3,0.7,5.5,2.2,8.7c0.6,1.3-0.6,1.1-2.2-0.4c-0.9-0.8-4.6-8.5-4.9-9.8c-0.3-1.7,0.2-6.2,0.6-6.6c1.8-1.5,4.5,0.7,3.4,2.8
			c-0.1,0.1-0.3,0.7-0.5,1.3c-0.4,1.2-0.7,1.3-0.9,0.6c-0.1-0.5-0.5-0.8-0.7-0.6c-0.4,0.4-0.3,2.7,0.2,3.3c0.6,0.7,0.9,0.4,1.8-1.9
			c0.2-0.4,0.4-0.9,0.5-1.2c1.3-3.2,1.2-4.5-0.1-5.6c-1-0.8-4.2-0.8-5.1,0.1c-0.9,0.9-1.3,6.8-0.6,8.3c0.3,0.6,3.4,6.9,4.1,8.4
			c0.7,1.5,3.2,3.6,4.7,4.1c2.7,0.8,3.6,0.3,2.2-1.2c-0.7-0.7-1.4-2.1-1.9-3.6c-1.1-3.2-1.3-3.7-1.4-5.9l-0.1-2.2l0.7-1.1
			c3-4.8,4.4-7.3,4.4-7.9c0-0.7-2.4-3.6-3-3.6c-0.5,0-0.8,0-0.9,0.3c-0.7,0.8-2.6,0.6-4.9-0.4c-0.6-0.3-1.1-0.5-1.2-0.5
			C36.4,37.5,36.1,37.5,35.7,37.6"/>
		<path id="path1_00000170962008693348036900000008346215371569830040_" class="st1" d="M51.8,20.9c-0.4,0.1-1.4,0.2-2.2,0.3
			c-1.4,0.2-1.9,0.4-2.7,1.2c-0.3,0.3-6.7,5.4-7.7,6.2c-1.2,0.9-1.9,0.9-4-0.1L33.8,28l-1,0.6c-1.7,1-1.7,1.2,0.1,1.4
			c2.5,0.2,2.7,1.1,0.3,1.3c-3.2,0.3-3,0.2-5.6,2.7l-2.3,2.2v0.9c0,1.3-0.4,5.4-0.6,6.6c-0.3,1.9-0.4,4.6-0.2,5.7
			c0.5,2.8,0.6,3.4,0.8,3.8c1.2,2.3,7.3,11.5,8.8,13.3c0.5,0.6,1.9,1.5,2.6,1.7c0.2,0.1,0.5,0.2,0.5,0.2c0.2,0.3,1.9,0.7,3.8,0.8
			c5.3,0.5,6.3,0.5,8.2,0.4c3.7-0.2,4.7-0.7,6.6-3.6c1.5-2.3,1.4-3.2-0.3-3.7c-1.8-0.5-6.4-3.1-7.8-4.4c-0.7-0.7-1.2-1.8-1.2-3.1
			c0-0.7-0.1-1.1-0.3-1.4c-0.4-0.6-0.4-0.6,0.2-1c0.6-0.3,0.7-0.6,2-3.4c0.2-0.5,0.8-1.4,1.2-1.9c0.7-0.9,1.1-1.7,1.6-3.2
			c0.5-1.4,0.4-3.5-0.1-4.3c-0.3-0.4-0.9-1.4-1.3-2.2c-0.4-0.8-1-1.8-1.2-2.1c-0.9-1.5-0.9-1.5-0.4-1.5c0.9,0,1.9-1,1.7-1.6
			c-0.1-0.2-0.4-0.3-1.4-0.3c-1.7,0-3.2-1-2.8-1.7c0.1-0.2,0.4-1.3,0.7-2.8c0.2-1,1.5-2.2,3.2-3.2c0.9-0.5,0.9-0.5,2.9-0.5h2
			l0.8,1.6c1,1.9,1,1.7,0.1,2.5c-1.8,1.6-1.8,1.6,0.6,1.6h2l0.3-1.2c0.2-0.6,0.4-1.3,0.4-1.5c0.3-0.8,0.3-1,0-1.7
			c-0.2-0.4-0.4-0.7-0.5-0.9c-0.1-0.1-0.3-0.4-0.4-0.6C56,20.9,55,20.4,51.8,20.9 M55.4,21.3c0.7,0.3,0.9,0.5,1.8,1.7
			c1.8,2.4,1.7,2.3,1.3,3.8C57.9,29.2,58,29,56.6,29c-0.7,0-1.4,0-1.6,0.1c-0.7,0.2-0.4-0.3,0.5-1.2c1.1-1,1.1-1,0.2-2.9
			c-1-2-0.9-1.9-3.3-1.8c-2.2,0.1-2.5,0.2-3.9,1.3c-1.5,1.2-2,1.7-2.1,2.3c-0.1,0.4-0.3,1.1-0.4,1.7c-0.2,0.6-0.3,1.2-0.4,1.4
			c-0.1,0.2,0.1,0.6,0.6,1c0.7,0.7,0.9,0.8,2.3,0.7c0.4,0,0.8,0,1,0.1c0.7,0.2-0.5,1.4-1.4,1.4c-0.6,0-0.5,0.7,0.1,1.2
			c0.1,0,0.5,0.9,1,1.8c0.5,1,1.2,2.2,1.6,2.8c1.2,1.8,0.7,5.2-1.2,7.7c-0.4,0.5-1,1.5-1.2,2.1c-0.3,0.6-0.7,1.5-0.9,1.9
			c-0.3,0.5-0.6,1-1.1,1.3l-0.7,0.5l0.4,0.7c0.3,0.6,0.4,0.9,0.4,1.8c0,1.5,0.4,2.2,1.6,3.2c2.1,1.6,6.4,4,7.7,4.2
			c1.4,0.3,0.9,2.3-1.3,4.9c-1.6,1.9-4.3,2.2-11.4,1.6c-4.9-0.4-7.2-1.1-8.5-2.5c-0.7-0.7-2.2-2.7-3.5-4.7c-0.4-0.6-0.8-1.2-0.9-1.2
			s-0.3-0.4-0.5-0.8c-0.2-0.4-0.5-0.7-0.5-0.8c-0.2-0.3-2.6-4-2.6-4s-0.3-0.6-0.7-1.2c-0.5-0.9-0.7-1.5-0.9-2.5
			c-0.1-0.8-0.3-1.8-0.4-2.3c-0.2-1-0.1-1.6,0.4-6.7c0.1-1.3,0.3-3.1,0.4-4.1l0.1-1.8l2.2-2.1c2.4-2.4,2.4-2.3,5.1-2.6
			c2.3-0.2,2.4-0.3,2.4-0.7c0-0.6-1.6-1.4-2.5-1.2c-0.9,0.1-0.8-0.3,0.3-0.9c0.9-0.5,0.8-0.5,2.7,0.4c1.8,0.8,3.2,0.6,4.5-0.8
			c0-0.1,1-0.8,2.2-1.8c2.5-2,2.7-2.2,3.5-2.8c1.3-1.1,2.4-1.9,2.7-2c0.2,0,0.9-0.2,1.7-0.3c0.7-0.1,1.7-0.3,2.2-0.3
			C53.5,20.9,54.4,21,55.4,21.3 M36.1,34c-4.4,0.4-5.4,0.5-5.8,0.9s-2.3,2.8-2.6,3.3C27.4,38.6,27,45,27,48.3c0,3.6-0.1,3.1,1.6,5.6
			c0.5,0.7,0.9,1.3,1,1.5c1.8,3.2,5.2,8.4,5.8,9c1,1,4.6,1.7,10,1.9c2.4,0.1,3.1,0,4.6-1c1.8-1.2,1.8-1.5-0.1-2.9
			c-0.8-0.6-1.6-1.2-1.7-1.3c-0.8-0.7-2-1.4-2.4-1.4s-0.4,0-0.3-1.1c0.1-1.1-0.1-2.3-1-4.4c-0.6-1.5,0-3.6,1.2-4.7
			c0.1-0.1,1.7-2.7,1.7-2.7s0.2-0.4,0.5-0.8c0.6-0.8,0.9-1.6,1.3-3.1c0.3-1.1,0.3-1.3-0.4-2.4c-0.1-0.1-0.6-1-1.1-1.8
			c-0.5-0.9-1.1-1.7-1.2-1.9c-0.2-0.2-0.6-0.8-1.1-1.4c-1.1-1.5-1.2-1.5-2.8-0.1c-1.3,1.1-4,0.6-4-0.7C38.6,33.9,38.3,33.9,36.1,34
			 M38.5,34.7c0.4,1.4,3.2,2.1,4,1c0-0.1,0.5-0.4,0.9-0.7l0.8-0.6l0.4,0.5c0.7,0.8,1.6,1.9,2,2.5c0.2,0.3,0.5,0.6,0.5,0.7
			c0.1,0,0.1,0.1,0.1,0.2s0.4,0.8,0.9,1.6c1.5,2.5,0.7,5.3-3.1,10.3c-1.2,1.6-1.4,2.8-0.8,4.1c0.2,0.4,0.4,1.1,0.6,1.5
			c0.1,0.5,0.3,1.2,0.5,1.6c0.2,0.6,0.2,0.8,0,1.3c-0.4,1.1-0.2,1.4,0.7,1.4c0.4,0,1.7,0.8,3.4,2.2c0.1,0.1,0.5,0.4,1,0.8
			c1,0.7,1,1,0,1.7c-1.8,1.4-2.6,1.5-6.7,1.2c-7.4-0.6-7.9-0.8-10.3-4.5c-1.3-2.2-2.7-4.4-2.9-4.7c-0.1-0.2-0.3-0.5-0.4-0.5
			S30,56.2,30,56.1c0-0.1-0.3-0.6-0.8-1.2c-0.4-0.6-0.8-1.1-0.8-1.2s-0.2-0.4-0.5-0.7c-1.1-1.5-1.2-3-0.7-10.7
			c0.3-3.6,0.3-3.9,1.6-5.5c1.6-2.1,1.8-2.1,4.9-2.3c1.2-0.1,2.6-0.2,3-0.2C38.3,34,38.3,34,38.5,34.7 M34.9,37.5
			c-0.5,0.1-1.6,0.3-2.3,0.4c-2,0.2-2.4,0.6-2.9,3c-0.1,0.7-0.4,1.8-0.5,2.4c-0.8,3.3,0.2,8.5,2.3,11.9c0.6,0.9,1,1.7,1,1.8
			c0,0.4,1.1,1.8,1.9,2.4c1.5,1.2,1.8,0.4,0.5-1.5c-0.3-0.5-0.7-1-0.8-1.2s-0.2-0.4-0.3-0.6c-0.2-0.4-1.2-2.4-1.2-2.6
			c0-0.1-0.1-0.4-0.2-0.7c-0.9-2.1-1.3-4.7-1.2-6.8c0.3-4,0.6-5.4,1.5-5.6c1.3-0.3,4.9-0.8,5.5-0.8c2.2,0,5.5,1.2,5.7,2
			c0,0.1-0.3,1-0.8,2s-1.3,2.6-1.8,3.7c-1.6,3.3-1.6,3.3-1.5,5.2c0.1,2.6,0.5,4.1,1.2,5.8c1.3,3,1.3,3.4-0.2,2.2
			c-1.1-0.9-1.4-1.4-3.9-6.6c-0.6-1.3-1.2-2.5-1.3-2.7c-0.2-0.4-0.4-4.8-0.2-6.4c0.2-1.5,1.3-2,2.8-1.2c1.2,0.6,1.3,0.9,0.7,2.8
			c-0.7,2.1-0.8,2.2-0.9,1.6c-0.3-1.2-1.2-1-1.4,0.2c-0.4,2.4,1.2,4.2,2.1,2.3c0.6-1.4,0.9-1.9,0.9-2.1c0-0.1,0.1-0.3,0.1-0.4
			c0.3,0.1,1.3-3,1.3-3.5c0-1.7-1.4-2.8-3.6-2.8c-3.2,0-3.8,0.6-4,4.5c-0.1,2.2,0,4.3,0.3,4.8c0.1,0.2,0.9,1.8,1.7,3.5
			c2.9,6.1,2.6,5.5,4.6,7.6c1.3,1.3,1.9,1.6,4,2c1.7,0.3,2.2-0.7,1.1-1.8c-0.3-0.3-0.8-1-1.1-1.7c-0.3-0.6-0.6-1.2-0.7-1.4
			c-0.1-0.2-0.2-0.4-0.2-0.5S43,58.3,42.9,58c-0.8-1.7-1.1-3.4-1.2-5.8l-0.1-1.4l0.7-1.1c0.4-0.6,0.7-1.2,0.8-1.4s0.2-0.3,0.2-0.3
			c0.1,0,0.1-0.1,0.1-0.2s0.3-0.6,0.6-1c0.3-0.5,0.6-0.9,0.6-1s0.1-0.2,0.1-0.3c0.1,0,1-1.6,1.7-2.9c0.5-0.9,0.3-1.4-0.6-2.6
			c-1.8-2.2-2.4-2.6-3.3-1.9c-0.8,0.7-3.8,0.3-5.1-0.6C37,37.2,36.2,37.2,34.9,37.5 M37.7,37.9c2.3,1,4.2,1.2,4.9,0.4
			c0.2-0.2,0.5-0.3,0.9-0.3c0.6,0,3,2.9,3,3.6c0,0.6-1.4,3.1-4.4,7.9l-0.7,1.1l0.1,2.2c0.1,3.2,1.7,7.7,3.3,9.4
			c1.4,1.5,0.5,2.1-2.2,1.2c-1.5-0.5-4-2.6-4.7-4.1s-3.8-7.8-4.1-8.4c-0.7-1.6-0.3-7.4,0.6-8.3c0.9-0.9,4.1-1,5.1-0.1
			c1.3,1.1,1.4,2.4,0.1,5.6c-0.1,0.2-0.3,0.8-0.5,1.2c-0.9,2.3-1.2,2.6-1.8,1.9c-0.5-0.5-0.7-2.9-0.2-3.3c0.2-0.2,0.6,0.1,0.7,0.6
			c0.2,0.8,0.4,0.6,0.9-0.6c0.2-0.6,0.5-1.2,0.5-1.3c1.1-2.1-1.7-4.3-3.4-2.8c-0.5,0.4-0.9,4.9-0.6,6.6c0.2,1.4,4,9,4.9,9.8
			c1.6,1.5,2.9,1.8,2.2,0.4c-1.1-2.2-1.7-4.1-2-5.8c-0.5-3.5-0.4-3.9,1.2-7.3c2.8-5.9,2.9-6,2.3-6.5c-0.6-0.5-2.1-1.1-3.6-1.5
			l-1.6-0.4L36,39.7c-4.7,0.7-4.8,0.8-5,5.9c-0.1,3.2,0,4.2,1.4,7.9c0.4,1,1.9,4,2.6,4.9c0.9,1.3,0.7,1.6-0.5,0.8
			c-0.8-0.6-1.2-1-2-2.6c-0.3-0.5-0.6-1.2-0.9-1.6c-0.8-1.3-1.4-2.5-1.9-3.9c-0.4-1.2-0.5-6.8-0.2-8.2c0.1-0.6,0.3-1.5,0.4-2
			c0.4-2.3,0.6-2.4,3.5-2.8c0.9-0.1,1.9-0.3,2.2-0.4s0.7-0.2,0.8-0.2C36.6,37.4,37.1,37.6,37.7,37.9"/>
		<path id="path2" class="st1" d="M16.3,13c0,0.1-0.1,0.2-0.2,0.2s-0.2,0.1-0.2,0.2c0,0.2-0.2,0.2-0.8,0.2s-0.8,0.1-0.8,0.2
			c0,0.1-0.1,0.2-0.2,0.2c-0.1,0-0.2,0.1-0.2,0.2c0,0.2-0.2,0.2-0.5,0.2s-0.5,0.1-0.5,0.2c0,0.1-0.1,0.2-0.2,0.2
			c-0.1,0-0.2,0.1-0.2,0.2c0,0.2-0.2,0.2-0.4,0.2s-0.5,0.1-0.5,0.2c-0.1,0.1-0.2,0.2-0.3,0.2s-0.2,0.1-0.2,0.2
			c0,0.1-0.1,0.2-0.2,0.2c-0.2,0-0.2,0.2-0.2,0.5S10.6,17,10.5,17c-0.1,0-0.2,0.1-0.2,0.2s-0.1,0.2-0.2,0.2c-0.2,0-0.2,0.2-0.2,0.5
			s-0.1,0.5-0.2,0.5c-0.1,0-0.2,0.1-0.2,0.3c0,0.2-0.1,0.4-0.2,0.5c-0.1,0.1-0.2,0.5-0.2,0.8S9,20.6,8.9,20.8
			c-0.4,0.3-0.4,49.5,0,49.5c0.2,0,0.2,0.2,0.2,0.8c0,0.6,0.1,0.8,0.2,0.8c0.2,0,0.2,0.2,0.2,0.5s0.1,0.5,0.2,0.5
			c0.1,0,0.2,0.1,0.2,0.2s0.1,0.2,0.2,0.2c0.2,0,0.2,0.2,0.2,0.5s0.1,0.5,0.2,0.5c0.1,0,0.2,0.1,0.2,0.2s0.1,0.2,0.2,0.2
			c0.1,0,0.2,0.1,0.2,0.2s0.1,0.2,0.2,0.2c0.1,0,0.2,0.1,0.2,0.2s0.1,0.2,0.2,0.2c0.1,0,0.2,0.1,0.2,0.2s0.1,0.2,0.2,0.2
			c0.1,0,0.2,0.1,0.2,0.2c0,0.2,0.2,0.2,0.5,0.2s0.5,0.1,0.5,0.2c0,0.2,0.2,0.2,0.5,0.2s0.5,0.1,0.5,0.2c0,0.2,0.2,0.2,0.5,0.2
			s0.5,0.1,0.5,0.2c0,0.2,0.2,0.2,0.8,0.2s0.8,0.1,0.8,0.2c0,0.2,2.8,0.2,24.2,0.2s24.2,0,24.2-0.2s0.2-0.2,0.8-0.2
			c0.6,0,0.8-0.1,0.8-0.2c0-0.2,0.2-0.2,0.5-0.2s0.5-0.1,0.5-0.2c0-0.2,0.2-0.2,0.5-0.2s0.5-0.1,0.5-0.2s0.1-0.2,0.3-0.2
			c0.2,0,0.4-0.1,0.5-0.2s0.3-0.2,0.4-0.2s0.2-0.1,0.2-0.2s0.1-0.2,0.2-0.2s0.2-0.1,0.2-0.2s0.1-0.2,0.2-0.2s0.2-0.1,0.2-0.2
			s0.1-0.2,0.2-0.2s0.2-0.1,0.2-0.2s0.1-0.2,0.2-0.2c0.2,0,0.2-0.2,0.2-0.5s0.1-0.5,0.2-0.5s0.2-0.1,0.2-0.2s0.1-0.3,0.2-0.4
			s0.2-0.3,0.2-0.5s0.1-0.3,0.2-0.3c0.2,0,0.2-0.2,0.2-0.7s0.1-0.8,0.2-0.8c0.4-0.1,0.4-49.3,0-49.3c-0.2,0-0.2-0.2-0.2-0.8
			c0-0.6-0.1-0.8-0.2-0.8c-0.2,0-0.2-0.2-0.2-0.5s-0.1-0.5-0.2-0.5c-0.2,0-0.2-0.2-0.2-0.5s-0.1-0.5-0.2-0.5s-0.2-0.1-0.2-0.2
			s-0.1-0.2-0.2-0.2s-0.2-0.1-0.2-0.2s-0.1-0.2-0.2-0.2s-0.2-0.1-0.2-0.2s-0.1-0.2-0.2-0.2s-0.2-0.1-0.2-0.2s-0.1-0.2-0.2-0.2
			s-0.2-0.1-0.2-0.2c0-0.1-0.1-0.2-0.2-0.2s-0.2-0.1-0.2-0.2c0-0.1-0.1-0.2-0.2-0.2s-0.2-0.1-0.2-0.2c0-0.2-0.2-0.2-0.5-0.2
			s-0.5-0.1-0.5-0.2c0-0.1-0.1-0.2-0.3-0.2c-0.2,0-0.4-0.1-0.5-0.2c-0.1-0.1-0.4-0.2-0.7-0.2c-0.3,0-0.5-0.1-0.5-0.2
			c0-0.1-0.1-0.2-0.2-0.2s-0.2-0.1-0.2-0.2c0-0.2-2.9-0.2-24.7-0.2S16.3,12.8,16.3,13 M55.3,21c0.9,0.3,1.2,0.7,2.5,2.5
			c0.1,0.2,0.3,0.5,0.4,0.6c0.1,0.1,0.3,0.5,0.5,0.9c0.3,0.6,0.3,0.9,0,1.7c-0.1,0.2-0.3,0.9-0.4,1.5L58,29.3h-1.8
			c-2.4,0-2.4,0-0.6-1.6c0.9-0.8,0.9-0.6-0.1-2.5l-0.8-1.6h-2c-2,0-2.1,0-2.9,0.5c-1.8,1-3,2.2-3.2,3.2c-0.3,1.5-0.6,2.6-0.7,2.8
			c-0.5,0.7,1.1,1.7,2.8,1.7c1,0,1.3,0.1,1.4,0.3c0.2,0.6-0.8,1.6-1.7,1.6c-0.5,0-0.5,0,0.4,1.5c0.2,0.3,0.7,1.3,1.2,2.1
			c0.4,0.8,1,1.9,1.3,2.2c0.6,0.8,0.6,2.8,0.1,4.3c-0.5,1.6-0.9,2.3-1.6,3.2c-0.4,0.5-0.9,1.4-1.2,1.9c-1.2,2.7-1.4,3-2,3.4
			c-0.7,0.4-0.7,0.5-0.2,1c0.2,0.3,0.3,0.7,0.3,1.4c0,1.3,0.4,2.5,1.2,3.1c1.4,1.3,6,3.8,7.8,4.4c1.7,0.5,1.7,1.4,0.3,3.7
			c-1.9,2.9-2.9,3.5-6.6,3.6c-1.9,0.1-2.9,0-8.2-0.4c-1.9-0.2-3.7-0.5-3.8-0.8c0-0.1-0.3-0.2-0.5-0.2c-0.6-0.2-2.1-1.1-2.6-1.7
			c-1.5-1.8-7.7-11-8.8-13.3c-0.2-0.4-0.3-0.9-0.8-3.8c-0.2-1-0.1-3.8,0.2-5.7c0.2-1.2,0.5-5.3,0.6-6.6v-0.9l2.3-2.2
			c2.6-2.5,2.4-2.4,5.6-2.7c2.4-0.3,2.2-1.2-0.3-1.3c-1.8-0.1-1.8-0.4-0.1-1.4l1-0.6l1.4,0.6c2.1,1,2.9,1,4,0.1
			c1-0.8,7.4-5.9,7.7-6.2c0.8-0.8,1.3-1,2.7-1.2c0.8-0.1,1.8-0.3,2.2-0.3C53.1,20.7,54.4,20.7,55.3,21 M37,34.3
			c-0.4,0.1-1.8,0.2-3,0.2c-3.1,0.2-3.3,0.2-4.9,2.3c-1.3,1.6-1.3,1.8-1.6,5.5C27,50,27.1,51.5,28.2,53c0.3,0.3,0.5,0.6,0.5,0.7
			s0.3,0.6,0.8,1.2c0.4,0.6,0.8,1.2,0.8,1.2c0,0.1,0.1,0.2,0.1,0.2c0.1,0,0.2,0.3,0.4,0.5c0.2,0.4,1.5,2.6,2.9,4.7
			c2.3,3.7,2.8,4,10.3,4.5c4.1,0.3,4.8,0.2,6.7-1.2c1-0.7,0.9-1,0-1.7c-0.5-0.3-0.9-0.7-1-0.8c-1.7-1.4-3-2.2-3.4-2.2
			c-0.9,0-1-0.4-0.7-1.4c0.2-0.4,0.2-0.7,0-1.3c-0.1-0.4-0.3-1.1-0.5-1.6c-0.1-0.5-0.4-1.2-0.6-1.5c-0.6-1.2-0.4-2.5,0.8-4.1
			c3.7-5,4.6-7.8,3.1-10.3c-0.5-0.8-0.9-1.5-0.9-1.6s-0.1-0.2-0.1-0.2c-0.1,0-0.3-0.3-0.5-0.7c-0.4-0.6-1.3-1.8-2-2.5l-0.4-0.5
			L43.4,35c-0.5,0.3-0.9,0.7-0.9,0.7c-0.8,1.1-3.6,0.4-4-1C38.3,34,38.3,34,37,34.3 M37.4,37.5c1.4,0.9,4.3,1.3,5.1,0.6
			c1.5-1.2,4.8,2.7,3.9,4.5c-0.7,1.3-1.6,2.8-1.7,2.9c-0.1,0-0.1,0.1-0.1,0.3c0,0.1-0.3,0.6-0.6,1c-0.3,0.5-0.6,0.9-0.6,1
			S43.3,48,43.3,48c-0.1,0-0.2,0.1-0.2,0.3c-0.1,0.2-0.4,0.8-0.8,1.4l-0.7,1.1l0.1,1.4c0.1,2.4,0.5,4.1,1.2,5.8
			c0.1,0.3,0.2,0.6,0.2,0.7s0.1,0.3,0.2,0.5c0.1,0.2,0.4,0.8,0.7,1.4c0.3,0.6,0.8,1.4,1.1,1.7c1.2,1.1,0.6,2.1-1.1,1.8
			c-2.2-0.4-2.7-0.7-4-2c-2.1-2.1-1.7-1.5-4.6-7.6c-0.8-1.7-1.6-3.3-1.7-3.5c-0.3-0.5-0.4-2.6-0.3-4.8c0.2-3.9,0.8-4.5,4-4.5
			c2.2,0,3.6,1.1,3.6,2.8c0,0.5-1,3.5-1.2,3.8c-0.1,0.1-0.1,0.3-0.1,0.4c0,0.2-0.2,0.8-0.9,2.1c-0.9,1.9-2.4,0.1-2.1-2.3
			c0.2-1.3,1.1-1.4,1.4-0.2c0.1,0.7,0.2,0.5,0.9-1.6c0.6-1.9,0.5-2.2-0.7-2.8c-1.5-0.8-2.6-0.3-2.8,1.2c-0.2,1.6,0,6,0.2,6.4
			c0.1,0.2,0.7,1.4,1.3,2.7c2.4,5.2,2.7,5.7,3.9,6.6c1.5,1.2,1.5,0.7,0.2-2.2c-0.8-1.7-1.1-3.2-1.2-5.8c-0.1-1.9-0.1-1.9,1.5-5.2
			c3-6.4,2.9-5.8,1.8-6.4c-1.2-0.8-3.4-1.4-5-1.3c-0.7,0-4.2,0.5-5.5,0.8c-0.8,0.2-1.2,1.6-1.5,5.6c-0.1,2.1,0.3,4.7,1.2,6.8
			c0.1,0.3,0.2,0.6,0.2,0.7c0,0.1,0.9,2.2,1.2,2.6c0.1,0.1,0.2,0.4,0.3,0.6c0.1,0.2,0.4,0.7,0.8,1.2c1.3,1.9,1,2.6-0.5,1.5
			c-0.8-0.6-1.9-2-1.9-2.4c0-0.1-0.5-0.9-1-1.8c-2.1-3.4-3.1-8.6-2.3-11.9c0.2-0.6,0.4-1.7,0.5-2.4c0.5-2.4,0.9-2.8,2.9-3
			c0.7-0.1,1.8-0.3,2.3-0.4C36.2,37.2,37,37.2,37.4,37.5"/>
	</g>
</g>
</svg>
