<?xml version="1.0" encoding="utf-8"?>
<!-- Generator: Adobe Illustrator 25.4.1, SVG Export Plug-In . SVG Version: 6.00 Build 0)  -->
<svg version="1.1" id="Layer_1" xmlns="http://www.w3.org/2000/svg" xmlns:xlink="http://www.w3.org/1999/xlink" x="0px" y="0px"
	 viewBox="0 0 225.5 240.9" style="enable-background:new 0 0 225.5 240.9;" xml:space="preserve">
<style type="text/css">
	.st0{fill:#FFFFFF;stroke:#000000;stroke-width:5.5;}
	.st1{fill:#DC0D15;}
	.st2{fill:#0053A1;}
	.st3{fill:#B51F1F;}
	.st4{fill:#EF7D00;}
</style>
<g>
	<g>
		<g>
			<path class="st0" d="M113.1,116.8"/>
		</g>
		<polygon class="st1" points="20.7,166.7 199.7,166.7 110.6,113.9 		"/>
		<path class="st2" d="M59.2,209.2V220c-2.2,1.2-11.4,5.5-23.2,1.7c-6.7-2.2-9.9-8.7-10.6-11.5c-0.7-2.9-4.8-26.9,17.2-29
			c5.6-0.5,14,0,16.6,2.3V194c-1.5-1-8.1-4.5-16.4-2.5s-8.9,17.2-1.8,20.2C48.2,214.7,58.3,211,59.2,209.2z"/>
		<g>
			<rect x="64.8" y="181.6" class="st2" width="11.6" height="40.6"/>
			<path class="st2" d="M70.6,201.9"/>
		</g>
		<polygon class="st2" points="80.1,181.6 80.1,191.4 91.1,191.4 91.1,222.3 102.6,222.3 102.6,191.5 113.2,191.5 113.2,181.6 		"/>
		<path class="st2" d="M149.3,183.5c-1.4-1.1-10.9-4-22.4-1.8c-10.4,2-11.7,13.5-12,14.6c-0.7,2.8-3.2,23.1,11.4,25.7
			c16,2.9,26.8-0.4,26.8-13.5v-10.3h-18.6v8.7h8.4c0,3.4-0.7,6.3-4.1,6.7c-3.4,0.4-14,1.8-13.6-9.8c0.3-9.5,1.1-14.6,14.7-13.1
			c4.9,0.5,9.2,1.9,9.2,1.9L149.3,183.5z"/>
		<path class="st2" d="M176.6,180.8c14.8,0,20.3,6.3,20.3,20.8c0,14.5-5.3,20.9-19.7,21.1c-14.4,0.1-20.1-5.6-20.3-20.3
			C156.7,186.9,161.8,180.8,176.6,180.8z M166.9,201.9c0.1,7.8,2.9,10.9,9.9,10.8c7-0.1,9.6-3.5,9.6-11.2c0-7.7-2.7-11.1-9.9-11.1
			C169.3,190.4,166.8,193.6,166.9,201.9z"/>
		<polygon class="st3" points="199.7,166.7 110.6,15.5 110.6,113.9 		"/>
		<polygon class="st4" points="20.7,166.7 110.6,15.5 110.6,113.9 		"/>
	</g>
	<g>
		<path class="st2" d="M196.3,218.8c0-2,1.6-3.5,3.5-3.5c1.9,0,3.5,1.5,3.5,3.5c0,2-1.6,3.5-3.5,3.5
			C197.9,222.3,196.3,220.8,196.3,218.8z M199.8,221.7c1.6,0,2.8-1.2,2.8-2.9c0-1.6-1.2-2.9-2.8-2.9c-1.6,0-2.8,1.2-2.8,2.9
			C197,220.5,198.2,221.7,199.8,221.7z M199.1,220.8h-0.6v-4h1.5c0.9,0,1.4,0.4,1.4,1.1c0,0.7-0.4,1-1,1.1l1.1,1.8h-0.7l-1.1-1.7
			h-0.7V220.8z M199.8,218.6c0.5,0,1,0,1-0.7c0-0.5-0.4-0.6-0.9-0.6h-0.8v1.2H199.8z"/>
	</g>
</g>
</svg>
