<?xml version="1.0" encoding="utf-8"?>
<!-- Generator: Adobe Illustrator 25.4.1, SVG Export Plug-In . SVG Version: 6.00 Build 0)  -->
<svg version="1.1" id="Layer_1" xmlns="http://www.w3.org/2000/svg" xmlns:xlink="http://www.w3.org/1999/xlink" x="0px" y="0px"
	 viewBox="0 0 116 39.5" style="enable-background:new 0 0 116 39.5;" xml:space="preserve">
<style type="text/css">
	.st0{fill:#70767E;}
	.st1{fill:#BBBFC3;}
	.st2{fill:#53712A;}
	.st3{fill:#7CA12B;}
	.st4{fill:#CAD500;}
</style>
<path class="st0" d="M15.4,30.3c-0.2-4-0.7-12.6-1-17.9C14.1,6.2,1,0,1,0l0.7,1.7l0.4,5.8L0.8,8L0.5,33.7c2.3-1.9,5.3-3.2,9.4-3.4
	C11.8,30.1,13.7,30.2,15.4,30.3"/>
<path class="st1" d="M23.1,16c-3.9,0.3-6.8,0.3-7.5-0.7l0.8,15.2c3.1,0.4,5.8,1.1,8.1,2.1L23.1,16z"/>
<path class="st2" d="M3.6,32.9C1.4,34.1,0.2,35.7,0,37c-0.2,0.9,1.1,2,1.9,2.5c2.2-0.9,4.8-1.8,7.7-2.5C6.4,34.1,4.4,33.1,3.6,32.9"
	/>
<path class="st3" d="M19.4,35.2c-2.4-2.3-4.1-3.5-5.3-4.1c-3.8-0.3-6.8,0.2-9.1,1.1c1.3,0.6,3.2,1.9,5.9,4.4
	C13.6,36,16.5,35.4,19.4,35.2"/>
<path class="st4" d="M28.3,35.4c-4.3-2.1-8.1-3.4-11.4-4c1.1,0.9,2.5,2,4.1,3.6C23.4,34.9,25.9,35,28.3,35.4"/>
<path class="st0" d="M31,17.2c0-2.2,2-2.8,3.6-2.8c1.5,0,2.4,0.3,3.9,0.9l0.4-2.8c-1.4-0.5-3.1-0.7-4.4-0.7c-3.8,0-6.7,2-6.7,5.7
	c0,6.5,8.9,5.2,8.9,9.9c0,2.5-2.4,3.4-4.1,3.4c-1.4,0-4-0.8-5-1.2l0.3,2.9c1.1,0.3,3.2,0.9,4.4,0.9c4.2,0,7.6-1.8,7.6-6.2
	C40,20.3,31,21.2,31,17.2"/>
<path class="st0" d="M60.7,24.7H63c2.6,0,4.1-1.9,4.1-3.6c0-1.6-1.3-3.3-3.8-3.3h-2.6V24.7z M60.7,26.9v6.3H58V15.5h4.7
	c3.8,0,7.4,1.3,7.4,5.5c0,2.1-1.4,4.8-3.9,5.4C64.1,26.9,60.7,26.9,60.7,26.9"/>
<polygon class="st0" points="87.6,15.5 98.2,15.5 98.2,17.7 90.3,17.7 90.3,23.2 97.5,23.2 97.5,25.8 90.3,25.8 90.3,30.9 
	98.2,30.9 98.2,33.1 87.6,33.1 "/>
<polygon class="st0" points="106.6,27.2 99.8,15.5 103,15.5 108,24.8 112.9,15.5 116,15.5 109.3,27.2 109.3,33.1 106.6,33.1 "/>
<path class="st0" d="M70.9,30.9c-1-0.6-2.3-1.7-4.7-4.9l-2.9,0.4c0,0,3.7,6,7,7.4L70.9,30.9z"/>
<path class="st0" d="M75.5,24.7h2.3c2.6,0,4.1-1.9,4.1-3.6c0-1.6-1.3-3.3-3.8-3.3h-2.6V24.7z M75.5,26.9v6.3h-2.7V15.5h4.7
	c3.8,0,7.4,1.3,7.4,5.5c0,2.1-1.4,4.8-3.9,5.4C78.9,26.9,75.5,26.9,75.5,26.9"/>
<path class="st0" d="M85.8,30.9c-1-0.6-2.3-1.7-4.7-4.9l-2.9,0.4c0,0,3.7,6,7,7.4L85.8,30.9z"/>
<path class="st0" d="M55,25.9c0,4.9-2.4,7.5-6.7,7.5c-4.2,0-6.7-2.6-6.7-7.5V15.7h2.5v9.8c0,3.3,1,5.6,4.2,5.6
	c3.2,0,4.2-2.3,4.2-5.6v-9.8H55V25.9z"/>
<path class="st0" d="M45.5,9.7c-0.4-0.4-0.9-0.6-1.4-0.6c-1,0-1.8,0.9-1.8,1.9c0,1,0.8,1.9,1.8,1.9c0.5,0,1-0.2,1.4-0.6v0.6
	c-0.4,0.3-0.9,0.4-1.3,0.4c-1.3,0-2.3-1-2.3-2.3c0-1.3,1.1-2.3,2.3-2.3c0.5,0,0.9,0.1,1.3,0.4V9.7z"/>
<rect x="47.6" y="8.7" class="st0" width="0.5" height="4.5"/>
<polygon class="st0" points="51.3,13.2 50.8,13.2 50.8,9.2 49.8,9.2 49.8,8.7 52.4,8.7 52.4,9.2 51.3,9.2 "/>
<polygon class="st0" points="53.7,8.7 54.3,8.7 55.5,10.7 56.6,8.7 57.2,8.7 55.7,11.3 55.7,13.2 55.2,13.2 55.2,11.3 "/>
<path class="st0" d="M61.7,11c0,1,0.8,1.9,1.8,1.9c1,0,1.8-0.8,1.8-1.9c0-1-0.8-1.9-1.8-1.9C62.5,9.1,61.7,9.9,61.7,11 M65.9,11
	c0,1.3-1.1,2.3-2.3,2.3c-1.3,0-2.3-1-2.3-2.3c0-1.3,1.1-2.3,2.3-2.3C64.8,8.6,65.9,9.7,65.9,11"/>
<polygon class="st0" points="68.2,9.2 68.2,10.5 69.7,10.5 69.7,11 68.2,11 68.2,13.2 67.7,13.2 67.7,8.7 69.8,8.7 69.8,9.2 "/>
</svg>
