<svg id="svg" xmlns="http://www.w3.org/2000/svg" xmlns:xlink="http://www.w3.org/1999/xlink" width="400" height="400" viewBox="0, 0, 400,400"><g id="svgg"><path id="path0" d="M177.451 12.464 C 140.459 15.358,100.942 25.663,67.884 41.038 L 62.239 43.663 61.735 49.119 C 61.458 52.120,61.257 78.325,61.290 107.352 L 61.348 160.128 59.923 160.416 C 59.138 160.574,57.215 160.845,55.648 161.018 C 53.742 161.228,51.932 162.030,50.174 163.443 L 47.548 165.553 47.819 161.288 C 48.056 157.577,48.376 156.697,50.284 154.524 C 55.379 148.722,56.829 139.960,54.329 130.077 C 52.626 123.340,52.171 122.797,49.970 124.865 C 43.622 130.828,40.889 146.741,44.885 154.468 C 45.801 156.240,45.822 157.130,45.065 162.061 C 44.232 167.484,44.193 167.568,43.717 164.931 C 43.052 161.247,40.972 157.344,37.171 152.646 C 35.422 150.485,33.476 147.463,32.845 145.930 C 31.511 142.685,31.196 142.552,30.170 144.802 C 28.077 149.396,29.777 156.110,35.981 167.762 C 41.751 178.598,41.889 179.127,41.373 188.456 C 40.958 195.972,40.891 196.262,40.157 193.768 C 38.392 187.775,28.295 173.269,27.163 175.100 C 24.743 179.017,26.569 185.917,32.442 195.047 C 39.825 206.525,42.314 213.702,40.880 219.382 L 40.410 221.242 39.541 219.588 C 39.062 218.678,36.548 216.048,33.955 213.743 C 31.361 211.438,28.717 208.694,28.080 207.645 C 26.573 205.167,25.490 206.786,25.490 211.515 C 25.490 215.850,27.247 219.063,33.708 226.546 C 41.014 235.005,42.343 237.409,43.846 244.881 C 45.459 252.900,45.499 252.735,42.702 249.639 C 41.384 248.180,38.957 246.228,37.310 245.302 C 35.662 244.375,33.089 242.774,31.592 241.743 C 28.098 239.337,28.105 239.335,28.105 242.831 C 28.105 248.597,30.913 252.633,39.231 258.823 C 45.561 263.533,49.168 268.444,51.578 275.633 C 53.198 280.463,53.314 281.869,51.931 279.894 C 50.470 277.808,46.121 275.482,40.713 273.894 C 38.121 273.132,35.824 272.224,35.609 271.876 C 34.919 270.759,33.987 271.197,33.987 272.637 C 33.987 278.790,38.410 283.722,48.542 288.870 C 56.869 293.101,58.175 294.208,62.628 300.807 C 66.781 306.961,66.781 306.947,62.673 304.865 C 60.408 303.718,57.579 302.992,53.889 302.611 C 50.895 302.302,47.859 301.735,47.142 301.352 C 45.230 300.328,45.028 300.464,45.505 302.451 C 47.319 309.997,51.494 313.194,64.052 316.653 C 67.467 317.593,71.291 319.085,72.549 319.968 C 78.254 323.973,80.669 325.965,82.153 327.891 L 83.750 329.964 80.600 329.010 C 77.786 328.157,76.978 328.171,72.998 329.141 C 70.481 329.755,67.286 330.084,65.645 329.899 C 62.374 329.531,62.411 329.493,63.670 331.895 C 66.466 337.233,70.324 338.993,81.172 339.880 C 93.484 340.886,97.712 342.162,102.266 346.250 C 103.763 347.593,105.557 349.023,106.252 349.427 C 107.242 350.003,106.514 350.092,102.892 349.838 C 99.604 349.607,97.149 349.843,94.395 350.653 C 92.266 351.279,89.103 351.977,87.368 352.203 L 84.214 352.614 86.212 355.369 C 89.876 360.420,93.423 361.264,104.713 359.773 C 115.691 358.323,126.450 359.630,131.016 362.970 C 132.184 363.824,132.041 363.941,129.046 364.591 C 127.270 364.976,123.522 366.483,120.716 367.940 C 117.181 369.776,114.794 370.588,112.935 370.588 C 110.294 370.588,110.272 370.608,111.440 371.898 C 116.333 377.304,125.026 377.788,136.811 373.308 L 143.883 370.620 148.902 373.137 C 164.529 380.974,194.764 389.789,202.030 388.627 C 209.091 387.498,233.201 378.789,245.061 373.084 L 251.888 369.800 261.812 373.135 C 275.076 377.593,280.585 377.461,286.328 372.552 L 288.562 370.641 285.900 370.615 C 284.097 370.597,281.251 369.612,277.077 367.563 C 272.077 365.107,270.211 364.523,267.183 364.465 C 262.614 364.376,262.936 364.031,269.608 361.860 C 279.073 358.780,282.886 358.443,293.575 359.744 C 305.921 361.247,309.999 360.212,312.758 354.877 C 314.117 352.249,313.982 351.823,311.888 352.130 C 310.877 352.278,307.920 351.753,305.318 350.963 C 300.617 349.535,294.517 349.386,291.176 350.617 C 290.458 350.882,291.193 350.227,292.810 349.160 C 294.428 348.094,296.487 346.424,297.386 345.449 C 300.274 342.316,304.955 341.013,317.419 339.871 C 325.747 339.108,329.577 337.961,332.239 335.432 C 334.729 333.066,337.087 328.631,335.251 329.765 C 334.062 330.500,330.351 330.244,325.368 329.083 C 321.080 328.084,320.304 328.069,317.832 328.934 C 314.426 330.125,314.756 328.925,318.766 325.540 C 320.128 324.390,322.044 322.743,323.024 321.880 C 325.708 319.517,327.965 318.522,335.728 316.280 C 346.950 313.040,350.364 310.557,352.594 304.011 C 353.751 300.617,353.605 300.252,351.536 301.360 C 350.701 301.806,347.636 302.389,344.725 302.654 C 341.040 302.990,338.405 303.657,336.055 304.847 C 331.884 306.961,331.884 306.965,336.262 300.318 C 340.216 294.313,341.228 293.439,348.366 289.869 C 359.055 284.521,363.394 280.338,364.395 274.415 C 364.880 271.546,364.524 270.707,363.251 271.715 C 362.793 272.078,359.976 273.179,356.990 274.161 C 353.943 275.164,350.250 276.950,348.571 278.232 L 345.579 280.515 346.011 278.793 C 348.060 270.632,352.515 264.014,359.542 258.694 C 367.982 252.303,370.588 248.648,370.588 243.197 C 370.588 240.615,369.749 239.237,368.957 240.519 C 368.729 240.888,366.362 242.386,363.698 243.848 C 360.823 245.426,357.605 247.882,355.784 249.888 C 354.095 251.747,352.903 252.755,353.133 252.127 C 353.363 251.500,354.030 248.411,354.614 245.264 C 355.958 238.027,357.517 235.177,364.751 226.741 C 371.612 218.741,373.203 215.846,373.203 211.356 C 373.203 207.513,371.718 204.661,370.960 207.049 C 370.713 207.825,368.132 210.600,365.224 213.217 C 362.316 215.833,359.370 218.856,358.678 219.935 L 357.420 221.895 357.662 216.002 C 357.949 209.027,359.418 205.400,366.299 194.687 C 372.111 185.638,373.646 179.739,371.321 175.382 C 370.278 173.426,360.677 186.666,358.846 192.585 L 357.716 196.237 357.289 193.125 C 357.055 191.414,356.863 187.579,356.863 184.604 L 356.863 179.195 362.442 168.114 C 368.794 155.499,370.035 151.105,368.646 146.144 C 367.648 142.579,367.193 142.418,366.151 145.261 C 365.723 146.430,363.571 149.739,361.370 152.614 C 356.736 158.670,354.959 162.148,354.860 165.359 L 354.790 167.647 354.199 165.686 C 352.902 161.380,352.742 155.877,353.850 153.734 C 357.683 146.321,355.320 132.439,349.000 125.241 L 346.826 122.765 345.965 124.409 C 342.008 131.961,342.327 145.629,346.609 151.984 C 350.270 157.419,350.978 159.075,350.979 162.211 L 350.980 165.271 347.647 163.028 C 345.243 161.410,343.590 160.784,341.721 160.784 C 335.805 160.784,336.030 165.952,337.633 66.960 L 337.994 44.704 327.003 39.408 C 283.857 18.616,227.836 8.523,177.451 12.464 M222.876 21.302 C 261.901 24.637,296.667 33.947,325.633 48.820 L 331.332 51.746 331.043 54.468 C 330.746 57.252,330.342 95.689,329.707 181.373 C 329.321 233.566,328.868 244.107,326.454 257.190 C 316.054 313.552,274.298 356.352,211.551 374.969 C 200.193 378.338,196.560 378.100,177.451 372.727 C 115.037 355.179,72.893 298.744,69.209 227.778 C 68.469 213.520,68.874 58.586,69.666 53.146 L 70.064 50.410 77.025 47.359 C 125.213 26.240,175.508 17.254,222.876 21.302 M176.742 42.105 C 167.569 46.099,172.676 59.281,182.571 57.151 C 187.576 56.074,189.673 53.581,189.673 48.711 C 189.673 42.885,182.900 39.424,176.742 42.105 M191.503 42.484 C 191.503 43.210,191.939 43.791,192.484 43.791 C 193.273 43.791,193.464 44.808,193.464 49.020 C 193.464 53.232,193.273 54.248,192.484 54.248 C 191.939 54.248,191.503 54.829,191.503 55.556 C 191.503 56.997,192.168 57.105,196.968 56.447 C 199.792 56.060,201.483 54.248,199.020 54.248 C 198.366 54.248,198.039 53.595,198.039 52.288 C 198.039 50.980,198.366 50.327,199.020 50.327 C 199.559 50.327,200.000 50.768,200.000 51.307 C 200.000 51.852,200.581 52.288,201.307 52.288 C 202.440 52.288,202.614 51.852,202.614 49.020 C 202.614 45.689,200.741 44.185,199.764 46.732 C 199.117 48.417,198.039 47.804,198.039 45.752 C 198.039 43.138,201.184 42.955,203.654 45.425 C 206.401 48.172,207.795 47.191,206.446 43.460 L 205.620 41.176 198.562 41.176 C 191.939 41.176,191.503 41.257,191.503 42.484 M221.786 41.887 C 215.074 43.852,214.330 53.963,220.701 56.625 C 224.967 58.408,231.515 56.820,232.520 53.759 C 233.006 52.279,230.791 52.136,229.016 53.532 C 226.060 55.858,223.001 55.092,221.584 51.672 C 219.216 45.954,225.271 41.508,228.758 46.405 C 230.751 49.204,232.941 49.104,232.330 46.242 C 231.656 43.086,230.978 42.162,229.294 42.106 C 228.460 42.077,226.895 41.880,225.817 41.668 C 224.739 41.455,222.925 41.554,221.786 41.887 M155.974 42.959 C 154.318 43.206,154.147 43.446,154.471 45.065 C 154.743 46.428,154.460 47.246,153.356 48.283 C 151.309 50.206,150.327 50.021,150.327 47.712 C 150.327 46.365,150.648 45.752,151.355 45.752 C 151.983 45.752,152.298 45.306,152.163 44.608 C 152.042 43.979,151.579 43.493,151.135 43.529 C 150.690 43.565,148.856 43.639,147.059 43.693 C 143.960 43.786,141.712 46.405,144.731 46.405 C 145.645 46.405,146.015 48.008,146.580 54.412 C 146.729 56.097,146.531 56.863,145.947 56.863 C 145.480 56.863,145.098 57.451,145.098 58.170 C 145.098 59.611,145.763 59.719,150.562 59.061 C 153.759 58.623,154.778 57.050,152.288 56.399 C 150.730 55.991,150.573 54.093,151.998 52.910 C 152.856 52.198,153.293 52.343,154.776 53.831 C 156.098 55.156,156.327 55.726,155.697 56.118 C 152.830 57.903,158.734 59.231,163.235 57.814 C 164.463 57.428,164.218 56.229,162.804 55.698 C 162.117 55.440,160.351 53.858,158.878 52.183 L 156.202 49.137 159.204 46.495 C 163.298 42.891,162.473 41.988,155.974 42.959 M234.641 43.791 C 234.641 44.510,234.935 45.098,235.294 45.098 C 236.000 45.098,236.210 52.804,235.551 54.522 C 235.333 55.090,234.723 55.556,234.196 55.556 C 233.636 55.556,233.328 56.031,233.455 56.699 C 233.760 58.299,241.830 58.802,241.830 57.221 C 241.830 56.664,241.536 56.209,241.176 56.209 C 240.470 56.209,240.257 47.859,240.920 46.132 C 241.138 45.563,241.726 45.098,242.227 45.098 C 243.713 45.098,243.262 43.323,241.667 42.896 C 238.192 41.964,234.641 42.417,234.641 43.791 M244.444 44.399 C 244.444 45.066,244.845 45.765,245.334 45.953 C 245.981 46.201,246.150 47.246,245.952 49.781 C 245.550 54.926,245.181 56.209,244.105 56.209 C 243.573 56.209,243.137 56.797,243.137 57.516 C 243.137 58.505,243.575 58.825,244.935 58.831 C 245.923 58.835,247.835 59.020,249.183 59.243 C 251.796 59.675,252.965 57.513,250.608 56.609 C 249.498 56.183,249.540 53.521,250.663 53.153 C 251.027 53.033,252.293 54.554,253.477 56.533 C 255.420 59.781,255.847 60.131,257.880 60.131 C 259.118 60.131,260.347 60.204,260.612 60.294 C 260.877 60.384,261.187 59.968,261.303 59.370 C 261.419 58.768,260.985 58.109,260.331 57.896 C 259.682 57.683,258.540 56.566,257.794 55.413 L 256.439 53.317 258.448 52.312 C 260.634 51.219,261.565 47.806,260.143 46.093 C 258.368 43.955,244.444 42.452,244.444 44.399 M183.660 45.098 C 185.425 46.863,185.402 50.906,183.613 53.180 C 180.943 56.574,177.124 54.404,177.124 49.492 C 177.124 44.431,180.634 42.072,183.660 45.098 M128.595 45.910 C 125.071 46.514,122.775 49.020,125.746 49.020 C 126.767 49.020,127.152 50.273,127.805 55.719 C 128.179 58.845,128.088 59.477,127.261 59.477 C 126.590 59.477,126.377 59.900,126.606 60.778 C 126.846 61.696,127.357 61.996,128.343 61.796 C 129.110 61.641,130.842 61.336,132.190 61.119 C 134.527 60.743,135.821 58.824,133.736 58.824 C 132.812 58.824,131.869 55.685,132.490 54.680 C 132.680 54.373,134.227 55.495,135.930 57.172 C 138.695 59.895,139.297 60.199,141.566 60.012 C 144.621 59.762,145.541 57.816,142.916 57.158 C 142.027 56.935,140.638 56.047,139.828 55.185 L 138.356 53.618 140.093 52.252 C 146.089 47.535,139.694 44.008,128.595 45.910 M267.592 46.654 C 260.739 49.728,261.246 59.110,268.393 61.468 C 272.301 62.758,278.431 60.934,278.431 58.482 C 278.431 57.252,276.522 57.272,274.875 58.518 C 271.879 60.784,267.320 58.370,267.320 54.518 C 267.320 49.013,272.680 47.000,275.481 51.453 C 277.159 54.119,279.088 54.304,279.076 51.797 C 279.058 48.214,278.441 47.237,275.925 46.808 C 274.607 46.584,272.647 46.254,271.569 46.075 C 270.490 45.896,268.701 46.157,267.592 46.654 M113.235 48.236 C 108.184 49.079,107.190 49.442,107.190 50.440 C 107.190 51.097,107.619 51.634,108.145 51.634 C 109.125 51.634,109.993 54.216,110.727 59.314 C 111.046 61.533,110.928 62.092,110.138 62.092 C 109.054 62.092,108.904 62.653,109.667 63.852 C 110.395 64.998,123.440 62.845,124.142 61.464 C 125.360 59.064,125.453 56.335,124.331 55.904 C 123.724 55.671,123.117 55.811,122.983 56.216 C 121.672 60.148,115.544 62.061,115.153 58.660 C 114.921 56.650,116.509 56.114,117.492 57.870 C 118.384 59.464,120.318 58.353,119.930 56.468 C 119.753 55.607,119.450 54.147,119.258 53.225 C 118.879 51.411,116.667 51.169,116.667 52.941 C 116.667 54.551,114.588 54.465,114.163 52.838 C 113.519 50.376,118.309 49.602,120.714 51.779 C 122.833 53.696,124.053 52.224,122.699 49.385 C 121.451 46.768,121.789 46.809,113.235 48.236 M255.882 48.693 C 255.882 49.763,255.380 50.036,253.105 50.201 C 250.384 50.398,249.228 49.029,250.794 47.463 C 251.873 46.384,255.882 47.353,255.882 48.693 M281.046 48.947 C 281.046 49.785,281.463 50.327,282.108 50.327 C 282.965 50.327,283.081 50.738,282.711 52.451 C 280.707 61.723,282.167 64.706,288.711 64.706 C 293.114 64.706,294.612 62.736,295.741 55.464 C 296.002 53.783,296.510 52.981,297.471 52.730 C 299.732 52.138,298.455 50.690,295.135 50.079 C 291.784 49.463,289.955 50.498,291.875 51.923 C 292.959 52.728,292.144 59.551,290.765 61.213 C 289.077 63.248,286.620 62.016,286.402 59.026 C 286.159 55.679,287.351 50.939,288.383 51.151 C 288.798 51.237,289.245 50.819,289.377 50.223 C 289.619 49.123,289.231 48.976,283.497 47.989 C 281.305 47.612,281.046 47.713,281.046 48.947 M137.126 49.795 C 137.275 50.584,136.644 51.088,134.905 51.568 C 131.996 52.371,131.373 52.081,131.373 49.924 C 131.373 47.880,136.740 47.759,137.126 49.795 M97.059 51.305 C 96.699 51.427,95.302 51.711,93.954 51.937 C 91.230 52.393,90.783 53.601,92.827 54.986 C 94.662 56.229,96.357 64.036,95.023 65.105 C 92.171 67.390,94.249 67.749,101.731 66.264 C 106.814 65.255,107.075 65.118,107.450 63.241 C 108.137 59.806,107.933 58.824,106.536 58.824 C 105.810 58.824,105.229 59.259,105.229 59.804 C 105.229 61.187,102.853 63.399,101.367 63.399 C 99.830 63.399,97.789 54.223,99.220 53.746 C 99.649 53.603,100.000 52.922,100.000 52.233 C 100.000 51.065,98.843 50.700,97.059 51.305 M299.583 51.959 C 299.337 52.602,299.531 53.305,300.044 53.622 C 301.500 54.522,299.853 62.684,297.921 64.141 C 297.098 64.762,296.665 65.511,296.959 65.805 C 297.658 66.503,304.089 67.948,304.732 67.550 C 305.462 67.099,305.338 65.359,304.575 65.359 C 302.848 65.359,304.786 55.549,306.607 55.073 C 309.151 54.407,308.026 52.463,304.818 51.982 C 303.155 51.733,301.393 51.375,300.902 51.187 C 300.412 50.999,299.819 51.346,299.583 51.959 M309.182 55.177 C 307.275 58.263,308.899 60.509,311.111 57.843 C 312.457 56.222,314.593 56.574,314.149 58.345 C 313.944 59.160,313.453 61.336,313.058 63.181 C 312.542 65.587,311.980 66.629,311.071 66.867 C 308.523 67.533,309.729 69.056,313.467 69.893 C 317.633 70.825,318.925 70.262,317.575 68.102 C 316.895 67.013,316.918 66.011,317.698 62.633 C 318.759 58.041,319.990 57.286,321.450 60.332 C 322.323 62.154,324.580 62.611,324.444 60.939 C 324.408 60.494,324.335 59.254,324.281 58.182 C 324.202 56.618,323.828 56.160,322.386 55.858 C 318.398 55.024,312.558 53.608,311.616 53.246 C 310.943 52.988,310.143 53.623,309.182 55.177 M83.287 54.244 C 77.408 55.107,75.163 57.465,75.163 62.778 C 75.163 70.693,87.255 72.990,91.405 65.863 C 93.266 62.666,91.285 61.919,88.833 64.894 C 86.022 68.304,82.528 68.204,80.695 64.659 C 77.838 59.135,82.429 54.491,87.109 58.172 C 88.541 59.299,90.850 59.403,90.850 58.341 C 90.850 57.385,88.026 53.606,87.365 53.676 C 86.945 53.721,85.110 53.977,83.287 54.244 M175.417 66.671 C 173.212 67.534,171.242 70.534,171.242 73.029 C 171.242 79.423,181.290 82.120,184.282 76.529 C 185.232 74.755,183.455 74.238,181.986 75.861 C 179.432 78.683,175.163 76.549,175.163 72.450 C 175.163 68.757,178.254 67.587,181.017 70.234 C 183.354 72.473,184.735 71.611,183.532 68.664 C 182.603 66.386,178.636 65.412,175.417 66.671 M187.632 67.705 C 183.117 71.504,186.120 79.085,192.139 79.085 C 199.312 79.085,202.498 72.955,197.778 68.235 C 194.856 65.313,190.731 65.098,187.632 67.705 M201.123 66.415 C 200.902 66.636,201.164 67.492,201.705 68.317 C 202.887 70.121,202.715 76.472,201.471 76.950 C 199.404 77.744,200.738 79.085,203.595 79.085 C 205.773 79.085,206.536 78.831,206.536 78.105 C 206.536 77.565,206.242 77.124,205.882 77.124 C 205.523 77.124,205.258 75.874,205.293 74.346 L 205.357 71.569 206.466 75.160 C 208.052 80.299,209.392 80.264,211.014 75.041 L 212.296 70.915 212.357 74.020 C 212.391 75.727,212.124 77.124,211.765 77.124 C 211.405 77.124,211.111 77.565,211.111 78.105 C 211.111 78.845,211.910 79.085,214.379 79.085 C 216.848 79.085,217.647 78.845,217.647 78.105 C 217.647 77.565,217.353 77.124,216.993 77.124 C 216.625 77.124,216.340 75.272,216.340 72.876 C 216.340 70.479,216.625 68.627,216.993 68.627 C 217.353 68.627,217.647 68.039,217.647 67.320 C 217.647 66.191,217.211 66.013,214.444 66.013 L 211.241 66.013 210.445 69.334 C 209.563 73.009,209.098 72.909,207.927 68.791 C 207.163 66.104,202.917 64.621,201.123 66.415 M219.608 67.647 C 219.608 68.186,219.943 68.627,220.352 68.627 C 221.321 68.627,220.653 76.667,219.656 76.999 C 217.274 77.793,219.096 79.739,222.222 79.739 C 224.691 79.739,225.490 79.499,225.490 78.758 C 225.490 78.219,225.196 77.778,224.837 77.778 C 224.477 77.778,224.183 77.042,224.183 76.144 C 224.183 74.682,224.450 74.510,226.717 74.510 C 228.246 74.510,229.597 74.094,230.122 73.461 C 230.600 72.885,231.592 72.150,232.326 71.829 C 233.060 71.508,234.161 70.887,234.773 70.450 C 236.330 69.336,236.460 69.719,236.105 74.346 C 235.883 77.232,235.526 78.431,234.889 78.431 C 234.393 78.431,233.987 78.873,233.987 79.412 C 233.987 80.043,234.626 80.395,235.784 80.401 C 236.773 80.406,238.218 80.581,238.995 80.789 C 240.377 81.160,240.400 81.055,240.051 75.971 C 239.677 70.501,240.399 68.707,241.966 71.216 C 242.644 72.302,245.098 73.166,245.098 72.320 C 245.098 68.032,234.192 64.720,232.476 68.486 C 231.890 69.772,231.643 69.884,231.078 69.118 C 229.248 66.637,219.608 65.401,219.608 67.647 M151.354 69.001 C 150.131 70.224,150.045 71.353,151.096 72.403 C 151.685 72.992,151.609 73.454,150.769 74.382 C 146.435 79.171,151.587 81.742,162.925 80.450 C 163.720 80.359,164.710 77.242,164.291 76.149 C 163.603 74.357,161.240 74.925,161.598 76.797 C 161.770 77.696,161.657 78.431,161.347 78.431 C 160.398 78.431,160.723 75.374,161.765 74.510 C 163.496 73.073,162.925 71.895,160.496 71.895 C 157.870 71.895,157.052 72.805,158.266 74.375 C 158.907 75.205,158.750 75.168,157.653 74.231 C 156.647 73.372,156.391 72.759,156.847 72.303 C 157.921 71.229,157.621 69.383,156.252 68.650 C 154.438 67.680,152.539 67.816,151.354 69.001 M194.107 68.622 C 196.766 70.045,196.108 76.459,193.247 77.010 C 190.137 77.609,188.207 71.840,190.624 69.169 C 191.861 67.802,192.413 67.715,194.107 68.622 M245.752 69.514 C 245.752 70.105,246.087 70.588,246.496 70.588 C 247.683 70.588,246.760 78.170,245.408 79.522 C 244.345 80.585,244.351 80.672,245.508 81.127 C 247.818 82.034,251.634 81.780,251.634 80.719 C 251.634 80.180,251.340 79.739,250.980 79.739 C 250.621 79.739,250.327 79.003,250.327 78.105 C 250.327 75.663,251.267 76.121,253.013 79.412 C 254.283 81.807,254.907 82.353,256.371 82.353 C 257.361 82.353,258.386 82.426,258.651 82.516 C 258.916 82.606,259.232 82.165,259.353 81.536 C 259.486 80.844,259.173 80.392,258.561 80.392 C 256.733 80.392,255.282 76.646,256.910 76.129 C 259.541 75.294,259.831 71.173,257.352 69.846 C 254.899 68.534,245.752 68.272,245.752 69.514 M134.140 70.153 C 129.464 70.803,127.223 72.883,128.566 75.327 C 129.101 76.301,130.574 75.788,130.908 74.510 C 131.096 73.791,131.685 73.203,132.216 73.203 C 133.547 73.203,134.433 80.048,133.282 81.435 C 132.050 82.919,133.317 83.631,136.438 83.210 C 138.615 82.916,139.216 82.562,139.216 81.575 C 139.216 80.882,138.946 80.482,138.615 80.686 C 138.035 81.045,137.799 80.242,136.943 75.000 C 136.495 72.262,137.308 71.803,139.343 73.645 C 141.229 75.351,142.210 73.873,140.889 71.317 C 140.309 70.197,139.623 69.329,139.362 69.387 C 139.102 69.445,136.752 69.790,134.140 70.153 M227.142 69.963 C 227.669 70.816,226.290 72.549,225.083 72.549 C 224.559 72.549,224.183 71.867,224.183 70.915 C 224.183 69.214,226.265 68.544,227.142 69.963 M263.252 71.607 C 257.827 74.551,259.746 82.793,266.136 83.992 C 272.316 85.151,276.455 79.514,273.549 73.895 C 271.968 70.837,266.790 69.687,263.252 71.607 M254.334 71.941 C 255.972 72.818,254.859 74.510,252.643 74.510 C 250.788 74.510,250.391 74.079,250.801 72.511 C 251.172 71.092,252.382 70.896,254.334 71.941 M116.993 72.865 C 113.443 73.645,112.590 74.791,114.682 75.970 C 115.879 76.645,116.703 83.685,115.661 84.330 C 113.983 85.367,115.789 86.372,118.531 85.927 C 122.103 85.347,122.513 84.849,120.929 83.023 C 117.775 79.386,119.611 78.828,123.187 82.338 C 125.503 84.611,126.075 84.873,127.744 84.426 C 130.311 83.740,130.577 82.515,128.343 81.666 C 125.077 80.424,124.703 79.788,126.153 77.944 C 129.864 73.226,125.747 70.943,116.993 72.865 M276.471 73.475 C 276.471 73.984,276.792 74.508,277.184 74.639 C 278.290 75.007,276.735 82.342,275.334 83.367 C 273.693 84.566,274.441 84.979,279.748 85.800 C 284.353 86.513,284.468 86.496,285.672 84.930 C 287.848 82.099,286.736 79.931,284.338 82.329 C 281.582 85.085,280.156 84.148,280.644 79.902 C 280.886 77.797,281.501 75.824,282.041 75.418 C 283.429 74.375,283.231 73.415,281.536 72.961 C 278.890 72.252,276.471 72.497,276.471 73.475 M269.804 73.987 C 270.907 75.090,270.779 78.521,269.571 80.247 C 267.532 83.157,264.052 81.513,264.052 77.639 C 264.052 74.226,267.717 71.900,269.804 73.987 M108.333 74.324 C 106.505 74.601,105.753 76.471,107.470 76.471 C 108.981 76.471,110.221 83.523,108.937 84.808 C 106.882 86.862,104.575 84.015,104.575 79.424 C 104.575 78.219,104.860 77.135,105.208 77.015 C 107.322 76.287,104.508 75.100,101.893 75.617 C 99.088 76.172,97.257 78.431,99.613 78.431 C 100.619 78.431,100.865 79.090,101.622 83.805 C 102.272 87.850,105.796 89.327,109.827 87.243 C 112.189 86.022,112.744 84.032,111.866 79.941 C 111.446 77.983,111.423 76.563,111.805 76.176 C 112.142 75.835,112.418 75.173,112.418 74.706 C 112.418 73.862,111.780 73.802,108.333 74.324 M123.318 75.556 C 123.788 76.779,122.512 77.754,120.425 77.768 C 119.408 77.775,118.954 77.391,118.954 76.525 C 118.954 74.501,122.603 73.691,123.318 75.556 M155.572 76.186 C 156.418 78.413,156.413 78.431,154.881 78.431 C 153.416 78.431,152.594 77.011,153.178 75.490 C 153.751 73.995,154.862 74.318,155.572 76.186 M288.889 75.436 C 288.889 75.945,289.159 76.460,289.489 76.580 C 290.410 76.914,288.965 83.866,287.786 84.773 C 286.211 85.983,287.204 87.354,289.977 87.799 C 291.356 88.020,293.399 88.384,294.518 88.608 C 296.279 88.961,296.751 88.737,298.030 86.941 C 299.807 84.445,298.936 82.646,296.859 84.525 C 295.174 86.050,291.957 86.016,292.392 84.477 C 292.570 83.848,292.909 82.083,293.147 80.556 C 293.420 78.803,293.920 77.778,294.502 77.778 C 296.717 77.778,295.404 75.331,292.974 74.929 C 289.414 74.341,288.889 74.406,288.889 75.436 M301.627 79.043 C 302.139 82.072,300.828 87.582,299.596 87.582 C 296.470 87.582,299.309 89.543,304.085 90.683 L 309.477 91.970 311.271 89.968 C 313.510 87.470,312.759 86.579,309.545 87.922 C 306.472 89.206,304.575 88.685,304.575 86.557 C 304.575 84.643,305.866 84.437,306.347 86.275 C 306.912 88.435,308.294 87.753,309.002 84.964 C 309.698 82.222,309.035 80.900,307.655 82.279 C 306.443 83.492,305.319 83.130,305.706 81.651 C 306.268 79.500,311.111 81.127,311.111 83.468 C 311.111 85.178,312.739 83.938,312.960 82.060 C 313.251 79.575,312.885 79.333,306.653 77.882 L 301.217 76.616 301.627 79.043 M88.217 78.892 C 82.359 82.929,84.321 90.850,91.179 90.850 C 96.579 90.850,99.346 88.522,99.346 83.980 C 99.346 78.892,92.655 75.833,88.217 78.892 M197.712 80.260 C 193.532 81.133,192.203 86.499,195.764 88.122 C 198.062 89.169,197.834 90.030,193.874 95.257 C 191.942 97.807,190.172 100.904,189.940 102.141 L 189.518 104.389 182.831 104.741 C 175.120 105.148,169.352 106.503,154.076 111.496 C 136.300 117.307,129.883 118.391,123.769 116.613 C 118.273 115.015,116.901 113.143,118.691 109.681 C 120.133 106.893,119.138 104.869,115.882 103.965 C 99.896 99.526,92.567 113.606,107.549 119.973 C 109.898 120.971,111.697 122.107,111.546 122.495 C 111.317 123.087,91.592 155.576,76.048 180.966 C 71.085 189.073,71.150 188.489,75.002 190.441 C 96.300 201.233,130.456 201.232,151.797 190.437 C 155.957 188.333,157.927 192.415,134.649 154.902 C 116.927 126.343,115.068 123.276,115.319 123.025 C 115.426 122.919,116.935 123.150,118.674 123.540 C 128.317 125.701,134.924 124.750,159.518 117.662 C 180.744 111.545,188.235 111.224,188.235 116.432 C 188.235 122.072,190.111 127.885,192.526 129.726 L 194.771 131.439 194.771 160.981 L 194.771 190.523 192.157 194.771 C 190.719 197.108,189.543 199.563,189.543 200.228 C 189.543 201.333,189.195 201.388,185.458 200.881 C 167.409 198.432,133.787 204.640,127.007 211.674 C 123.275 215.546,120.483 216.084,116.597 213.683 C 115.396 212.940,113.744 212.261,112.926 212.173 C 112.107 212.085,110.703 211.541,109.804 210.965 C 108.905 210.388,106.918 209.550,105.387 209.102 C 103.857 208.654,101.416 207.270,99.964 206.027 C 96.737 203.265,96.324 203.523,97.999 207.256 L 99.288 210.131 96.866 210.659 C 94.307 211.218,91.386 211.012,89.216 210.119 C 87.909 209.582,87.909 209.583,89.214 211.067 C 90.928 213.016,93.269 214.187,97.155 215.038 C 101.309 215.948,105.387 217.874,109.699 220.961 C 111.622 222.339,114.640 223.945,116.407 224.532 C 118.173 225.119,119.451 225.868,119.248 226.198 C 119.044 226.528,119.409 226.798,120.059 226.799 C 120.710 226.801,123.007 227.976,125.163 229.412 C 127.320 230.847,129.397 232.023,129.779 232.024 C 130.161 232.025,131.104 232.880,131.876 233.923 C 132.647 234.967,134.926 236.763,136.939 237.915 C 138.953 239.067,140.452 240.158,140.271 240.339 C 139.149 241.461,143.676 243.549,146.895 243.395 C 149.870 243.252,150.327 243.393,150.327 244.452 C 150.327 246.178,151.139 246.479,153.445 245.608 C 156.283 244.537,159.661 246.926,163.732 252.883 C 165.881 256.028,167.876 258.100,169.893 259.280 C 171.533 260.241,174.471 262.516,176.420 264.337 C 178.370 266.157,179.717 267.206,179.414 266.667 C 176.257 261.051,167.983 251.459,162.218 246.732 C 160.026 244.935,158.052 242.949,157.830 242.320 C 157.609 241.691,156.994 241.176,156.463 241.176 C 155.907 241.176,155.580 240.692,155.690 240.033 C 155.815 239.293,155.404 238.820,154.527 238.695 C 153.782 238.589,152.900 237.793,152.566 236.926 C 151.531 234.234,143.768 226.656,142.837 227.429 C 142.259 227.908,141.693 227.729,140.853 226.801 C 140.206 226.086,138.424 224.767,136.892 223.870 C 135.360 222.972,133.501 221.425,132.761 220.433 C 131.478 218.713,131.413 218.696,131.393 220.070 C 131.374 221.438,131.193 221.387,127.880 219.090 L 124.388 216.668 127.390 213.225 C 129.041 211.331,131.127 209.601,132.026 209.379 C 132.925 209.157,137.239 208.006,141.612 206.821 C 159.732 201.911,183.055 200.066,188.042 203.148 C 189.364 203.965,188.059 217.444,186.385 220.267 C 183.685 224.819,178.210 226.863,167.320 227.386 C 159.482 227.762,159.142 227.838,158.941 229.248 C 158.746 230.624,158.416 230.719,153.844 230.719 L 148.955 230.719 151.413 233.660 L 153.872 236.601 176.609 236.601 L 199.346 236.601 199.390 250.490 C 199.414 258.129,199.534 267.946,199.657 272.306 L 199.880 280.233 197.141 278.702 C 187.209 273.151,165.039 273.566,136.755 279.833 C 125.283 282.375,124.909 282.993,136.203 280.746 C 164.526 275.110,193.417 275.415,200.052 281.419 C 201.242 282.497,201.507 282.455,205.716 280.519 C 211.534 277.842,220.015 276.395,230.065 276.364 C 237.015 276.342,237.894 276.230,235.948 275.612 C 229.681 273.624,213.570 275.550,205.086 279.303 L 201.475 280.900 201.056 266.103 C 200.826 257.966,200.459 247.998,200.240 243.954 L 199.843 236.601 208.909 236.601 L 217.974 236.601 219.761 234.362 C 220.743 233.130,222.899 231.152,224.550 229.966 C 227.886 227.571,227.915 227.612,221.895 226.188 C 213.436 224.186,210.804 220.604,210.254 210.343 C 209.860 202.994,209.286 203.596,217.656 202.578 C 229.840 201.097,244.926 204.221,262.603 211.886 C 266.659 213.645,270.200 214.946,270.472 214.778 C 270.744 214.610,271.650 216.951,272.486 219.981 C 273.964 225.338,274.542 226.071,276.370 224.913 C 277.838 223.982,275.878 218.035,274.014 217.767 C 272.971 217.617,272.391 216.874,271.904 215.065 C 271.333 212.942,270.819 212.423,268.459 211.583 C 266.934 211.041,262.671 209.378,258.985 207.889 C 241.467 200.812,222.800 198.429,210.621 201.716 C 209.476 202.025,209.150 201.841,209.150 200.883 C 209.150 200.206,207.974 197.639,206.536 195.179 L 203.922 190.705 203.922 161.086 L 203.922 131.467 205.918 129.905 C 208.321 128.024,209.540 124.747,210.155 118.515 C 210.600 113.996,210.672 113.846,212.578 113.465 C 218.365 112.307,223.733 113.047,235.948 116.683 C 261.797 124.379,270.558 125.748,279.989 123.569 C 281.744 123.163,283.286 122.937,283.415 123.066 C 283.544 123.195,278.175 132.249,271.483 143.186 C 262.057 158.594,246.428 184.308,243.992 188.417 C 243.573 189.125,250.759 192.277,258.170 194.635 C 273.320 199.456,293.124 200.052,307.938 196.134 C 315.025 194.259,326.451 189.979,327.078 188.964 C 327.369 188.493,318.680 174.122,299.181 142.820 C 285.036 120.114,285.822 122.341,291.134 120.027 C 298.688 116.736,301.463 111.364,297.929 106.872 C 292.976 100.574,275.859 103.149,280.059 109.560 C 281.771 112.171,281.098 113.864,277.673 115.564 C 271.086 118.833,264.509 117.996,244.444 111.336 C 229.980 106.534,224.487 105.256,216.297 104.787 L 209.392 104.392 208.277 101.252 C 207.664 99.525,205.700 96.405,203.914 94.318 C 200.090 89.851,200.081 89.808,202.610 88.368 C 207.307 85.696,203.316 79.090,197.712 80.260 M315.033 81.130 C 315.033 81.802,315.299 82.353,315.624 82.353 C 316.491 82.353,314.458 89.742,313.356 90.595 C 311.737 91.848,312.322 92.713,315.196 93.320 C 318.260 93.968,319.596 93.391,318.392 91.941 C 317.621 91.011,318.004 88.889,318.944 88.889 C 319.220 88.889,320.064 90.324,320.819 92.078 C 321.888 94.563,322.590 95.345,324.004 95.622 C 326.564 96.124,327.321 95.099,325.710 93.309 C 324.099 91.520,323.324 89.542,324.233 89.542 C 325.666 89.542,328.022 86.426,327.654 85.019 C 326.949 82.323,315.033 78.651,315.033 81.130 M77.778 81.004 C 72.986 81.954,71.242 83.796,71.242 87.908 C 71.242 95.141,80.873 97.279,84.333 90.814 C 85.687 88.284,83.976 87.760,82.005 90.102 C 79.139 93.508,75.163 91.930,75.163 87.386 C 75.163 83.830,77.952 82.432,80.480 84.720 C 82.578 86.619,84.013 85.365,82.569 82.894 C 81.177 80.510,80.874 80.390,77.778 81.004 M94.407 81.845 C 96.585 84.954,95.037 89.425,92.044 88.674 C 89.433 88.019,87.847 83.003,89.673 81.176 C 90.921 79.929,93.300 80.264,94.407 81.845 M323.643 85.151 C 324.305 86.222,323.655 86.930,322.020 86.918 C 319.918 86.903,318.845 86.014,319.347 84.703 C 319.827 83.454,322.785 83.762,323.643 85.151 M150.050 182.516 L 153.585 188.235 136.688 188.235 C 127.394 188.235,118.426 188.422,116.758 188.651 L 113.725 189.067 113.725 156.514 L 113.725 123.961 130.120 150.379 C 139.137 164.909,148.105 179.371,150.050 182.516 M112.119 188.072 C 111.778 188.962,84.939 189.276,77.320 188.479 L 73.402 188.070 86.586 166.421 C 93.837 154.513,102.542 140.296,105.931 134.826 L 112.092 124.881 112.262 156.068 C 112.355 173.221,112.291 187.623,112.119 188.072 M284.593 188.174 C 283.981 188.788,248.852 189.042,247.273 188.445 C 245.706 187.853,244.908 189.244,273.417 142.845 L 284.641 124.580 284.810 156.183 C 284.904 173.565,284.806 187.961,284.593 188.174 M305.998 156.536 C 316.229 173.072,324.817 186.969,325.083 187.418 C 325.466 188.065,321.460 188.235,305.921 188.235 L 286.275 188.235 286.275 156.732 C 286.275 139.140,286.522 125.503,286.836 125.850 C 287.144 126.191,295.768 140.000,305.998 156.536 M338.245 170.605 C 338.473 170.973,340.770 172.329,343.349 173.617 C 352.995 178.435,354.140 180.141,354.621 190.412 C 354.948 197.409,354.936 197.413,352.421 191.295 C 351.339 188.663,349.525 187.391,345.752 186.616 C 344.493 186.358,342.765 185.703,341.911 185.161 C 339.923 183.900,339.240 184.814,339.226 188.752 C 339.210 193.140,341.211 196.202,346.944 200.567 C 354.592 206.388,356.133 209.854,355.252 219.254 L 354.770 224.397 353.364 220.869 C 352.272 218.130,351.233 216.827,348.720 215.043 C 346.939 213.779,344.474 211.779,343.242 210.599 C 340.593 208.062,340.427 208.151,340.025 212.332 C 339.585 216.915,341.224 221.189,345.866 227.562 C 353.141 237.551,353.702 239.619,351.695 249.020 C 350.455 254.829,350.274 254.834,348.984 249.092 C 348.437 246.662,347.496 244.839,345.947 243.210 C 344.712 241.912,342.790 239.453,341.675 237.745 C 339.226 233.992,339.438 234.010,337.891 237.418 C 335.354 243.007,336.333 247.120,342.339 256.099 C 347.746 264.182,347.877 265.199,344.712 274.510 C 342.749 280.283,342.114 281.571,341.973 280.065 C 341.514 275.176,340.309 271.284,338.185 267.826 C 334.796 262.308,333.784 258.351,334.584 253.751 C 335.805 246.732,336.024 240.867,336.247 209.150 C 336.369 191.716,336.499 175.760,336.535 173.693 C 336.597 170.201,337.258 169.007,338.245 170.605 M61.087 204.655 C 61.310 234.344,61.229 238.027,60.387 236.438 C 59.166 234.131,59.156 234.134,57.105 237.418 C 56.151 238.946,54.293 241.377,52.977 242.821 C 50.779 245.229,50.175 246.683,48.635 253.268 C 48.238 254.963,48.016 254.476,46.994 249.673 C 44.861 239.651,45.330 237.733,52.230 228.246 C 58.214 220.018,60.393 212.853,57.932 209.489 C 57.082 208.326,56.988 208.352,55.879 210.044 C 55.240 211.020,53.447 212.562,51.895 213.472 C 48.094 215.699,45.267 219.056,44.673 222.045 L 44.184 224.510 43.738 222.549 C 41.385 212.204,43.781 206.367,53.343 199.153 C 58.295 195.417,59.790 192.606,59.250 188.045 C 58.768 183.981,58.906 184.079,55.863 185.631 C 54.463 186.344,52.719 186.929,51.986 186.931 C 49.085 186.936,46.546 189.309,45.337 193.143 C 43.710 198.305,42.966 195.903,43.879 188.438 C 44.718 181.585,45.195 180.214,47.415 178.283 C 48.966 176.934,60.198 170.728,60.647 170.973 C 60.751 171.029,60.949 186.186,61.087 204.655 M277.580 225.055 L 258.754 234.324 257.368 232.849 C 256.605 232.037,256.302 231.373,256.694 231.373 C 257.087 231.373,257.531 231.740,257.682 232.190 C 257.890 232.807,258.501 232.728,260.188 231.866 L 262.418 230.725 258.824 230.884 C 255.922 231.012,254.807 230.742,253.045 229.486 C 237.322 218.283,215.359 230.810,215.359 250.980 C 215.359 280.839,257.957 283.006,263.425 253.426 C 263.793 251.432,264.050 249.552,263.996 249.247 C 263.715 247.667,264.157 246.405,264.992 246.405 C 266.932 246.405,302.539 228.160,303.272 226.791 C 304.793 223.949,300.501 215.612,297.580 215.736 C 296.934 215.764,287.934 219.957,277.580 225.055 M109.284 261.275 C 99.831 300.363,100.312 296.111,105.392 295.695 C 107.639 295.512,127.404 294.349,149.314 293.111 L 189.151 290.860 191.599 293.406 C 195.872 297.853,200.930 298.404,207.262 295.113 L 210.275 293.547 235.693 294.771 C 284.409 297.118,296.091 297.591,296.450 297.232 C 296.781 296.901,282.986 244.963,281.858 242.295 C 281.438 241.303,281.189 241.255,280.202 241.976 C 279.112 242.773,279.494 244.410,286.382 268.451 C 290.420 282.544,293.532 294.268,293.298 294.502 C 293.063 294.736,278.961 294.306,261.959 293.545 C 244.957 292.784,226.193 292.000,220.261 291.804 C 206.519 291.349,207.104 291.512,204.949 287.552 C 202.219 282.536,199.653 282.189,194.245 286.107 C 191.607 288.018,191.436 288.048,182.549 288.152 C 172.375 288.272,154.705 289.423,125.575 291.862 C 114.658 292.777,105.569 293.369,105.379 293.179 C 105.060 292.860,108.359 277.734,116.360 242.826 C 118.088 235.286,119.362 228.889,119.190 228.610 C 117.923 226.561,116.716 230.544,109.284 261.275 M248.542 229.931 C 262.372 236.049,265.281 255.878,253.828 265.959 C 239.987 278.142,219.243 270.478,217.812 252.654 C 216.468 235.904,233.527 223.290,248.542 229.931 M230.948 231.361 C 228.802 232.434,226.351 234.051,225.501 234.956 L 223.955 236.601 239.509 236.601 C 256.771 236.601,256.434 236.723,250.719 232.571 C 248.556 230.999,247.541 230.719,244.020 230.719 C 241.688 230.719,239.869 230.432,239.869 230.065 C 239.869 228.709,234.776 229.449,230.948 231.361 M124.837 233.660 L 124.837 236.601 129.081 236.601 L 133.325 236.601 131.858 234.903 C 130.597 233.443,126.256 230.719,125.189 230.719 C 124.995 230.719,124.837 232.042,124.837 233.660 M63.749 252.830 C 64.776 258.010,64.038 262.182,61.419 266.013 C 58.847 269.775,57.363 273.657,56.947 277.713 L 56.506 282.026 54.316 276.144 C 50.428 265.702,50.709 263.815,57.610 253.988 C 59.356 251.502,60.784 249.239,60.784 248.960 C 60.784 248.680,61.131 247.623,61.555 246.611 L 62.325 244.771 62.562 246.405 C 62.692 247.304,63.226 250.195,63.749 252.830 M168.464 254.397 C 173.237 259.531,173.495 260.122,169.935 257.766 C 168.497 256.814,167.320 255.784,167.320 255.478 C 167.320 255.171,165.642 252.930,163.590 250.499 C 159.114 245.195,162.210 247.671,168.464 254.397 M221.569 257.369 C 221.569 258.579,228.439 265.507,230.957 266.835 C 234.667 268.793,241.742 268.832,245.353 266.914 L 247.895 265.564 243.351 265.142 C 237.778 264.624,232.638 262.904,226.354 259.455 C 223.722 258.011,221.569 257.072,221.569 257.369 M72.645 287.908 C 72.639 289.346,71.846 292.435,70.883 294.771 C 69.416 298.331,69.186 299.688,69.461 303.141 L 69.790 307.262 66.609 302.160 C 62.550 295.651,62.426 293.015,65.693 282.680 C 66.943 278.725,67.983 274.902,68.003 274.183 C 68.071 271.730,72.655 285.285,72.645 287.908 M335.108 291.991 C 335.491 295.550,333.445 300.963,330.104 305.229 L 328.824 306.863 329.184 303.268 C 329.472 300.386,329.206 298.783,327.844 295.184 C 325.662 289.420,325.702 287.966,328.251 280.688 L 330.359 274.671 332.549 281.616 C 333.754 285.436,334.905 290.105,335.108 291.991 M243.464 276.376 C 241.809 276.785,242.210 276.937,246.028 277.349 C 252.675 278.066,265.206 280.721,274.424 283.364 C 284.508 286.256,285.285 285.969,275.933 282.806 C 260.863 277.711,248.208 275.205,243.464 276.376 M85.169 318.209 C 84.838 322.156,85.004 323.165,86.531 326.501 C 88.152 330.041,88.175 330.214,86.871 329.039 C 84.071 326.516,77.124 316.629,77.124 315.167 C 77.124 313.855,78.652 306.652,79.506 303.940 C 80.462 300.903,85.546 313.712,85.169 318.209 M320.575 309.641 C 322.023 315.690,321.827 316.339,316.449 323.295 C 310.742 330.675,309.524 331.662,311.931 326.954 C 313.695 323.503,313.822 322.795,313.520 318.113 C 313.195 313.061,313.212 312.990,315.910 308.532 C 319.046 303.349,319.071 303.355,320.575 309.641 M145.098 320.588 C 145.098 321.127,145.539 321.569,146.078 321.569 C 147.564 321.569,147.481 329.764,145.987 330.600 C 144.219 331.590,145.637 332.680,148.693 332.680 C 151.749 332.680,153.167 331.590,151.399 330.600 C 149.233 329.388,150.061 326.797,152.614 326.797 C 155.168 326.797,155.996 329.388,153.830 330.600 C 152.053 331.595,153.486 332.680,156.575 332.680 C 159.388 332.680,160.574 331.474,158.824 330.392 C 158.464 330.170,158.170 328.094,158.170 325.778 C 158.170 323.408,158.455 321.569,158.824 321.569 C 159.183 321.569,159.477 321.127,159.477 320.588 C 159.477 319.847,158.678 319.608,156.209 319.608 C 153.740 319.608,152.941 319.847,152.941 320.588 C 152.941 321.127,153.382 321.569,153.922 321.569 C 154.532 321.569,154.902 322.186,154.902 323.203 C 154.902 324.586,154.598 324.837,152.921 324.837 C 150.572 324.837,149.555 323.096,151.201 321.892 C 153.261 320.386,152.407 319.608,148.693 319.608 C 145.933 319.608,145.098 319.836,145.098 320.588 M160.131 320.588 C 160.131 321.127,160.425 321.569,160.784 321.569 C 161.152 321.569,161.438 323.408,161.438 325.778 C 161.438 328.094,161.144 330.170,160.784 330.392 C 158.362 331.889,160.306 332.725,165.786 332.542 L 171.441 332.353 172.274 329.941 C 173.310 326.942,172.264 326.255,170.129 328.531 C 168.060 330.737,164.706 330.675,164.706 328.431 C 164.706 326.637,166.285 326.167,166.903 327.778 C 167.666 329.766,168.627 328.672,168.627 325.817 C 168.627 322.962,167.666 321.868,166.903 323.856 C 166.351 325.296,164.706 325.051,164.706 323.529 C 164.706 321.905,168.653 321.658,169.935 323.203 C 170.382 323.742,171.153 324.183,171.649 324.183 C 172.731 324.183,172.728 324.237,171.831 321.666 L 171.114 319.608 165.622 319.608 C 161.177 319.608,160.131 319.795,160.131 320.588 M172.549 320.518 C 172.549 321.019,172.990 321.598,173.529 321.805 C 174.988 322.365,174.911 329.776,173.438 330.600 C 171.661 331.595,173.094 332.680,176.182 332.680 C 179.113 332.680,179.910 331.805,178.376 330.271 C 177.986 329.882,177.766 328.867,177.886 328.017 C 178.085 326.609,178.305 326.749,180.340 329.575 L 182.575 332.680 187.366 332.680 C 191.189 332.680,192.157 332.482,192.157 331.699 C 192.157 331.160,191.863 330.719,191.503 330.719 C 191.144 330.719,190.867 329.322,190.889 327.614 L 190.928 324.510 192.989 328.595 C 196.262 335.081,198.039 334.564,198.039 327.124 C 198.039 323.856,198.308 321.569,198.693 321.569 C 199.052 321.569,199.346 321.127,199.346 320.588 C 199.346 319.880,198.620 319.608,196.732 319.608 C 194.844 319.608,194.118 319.880,194.118 320.588 C 194.118 321.127,194.412 321.569,194.771 321.569 C 195.131 321.569,195.407 322.672,195.385 324.020 L 195.345 326.471 193.616 323.039 C 191.987 319.807,191.743 319.608,189.407 319.608 C 186.989 319.608,185.963 320.895,187.582 321.895 C 188.649 322.555,188.401 329.862,187.297 330.286 C 184.783 331.250,182.078 327.038,184.314 325.642 C 186.062 324.550,185.985 321.898,184.168 320.625 C 182.202 319.248,172.549 319.159,172.549 320.518 M202.330 324.312 C 201.356 326.937,200.111 329.581,199.563 330.188 C 198.175 331.721,199.007 332.680,201.724 332.680 C 203.941 332.680,204.010 332.608,203.595 330.719 C 203.187 328.863,203.275 328.758,205.229 328.758 C 207.183 328.758,207.270 328.863,206.863 330.719 L 206.432 332.680 212.040 332.680 C 217.456 332.680,219.310 331.824,216.993 330.392 C 216.634 330.170,216.354 328.609,216.372 326.922 L 216.404 323.856 218.669 328.268 C 222.005 334.768,223.413 334.492,223.666 327.288 C 223.843 322.260,223.956 321.881,225.327 321.687 C 226.920 321.460,227.669 329.449,226.144 330.392 C 222.919 332.385,231.490 333.745,235.294 331.844 C 236.193 331.395,237.442 330.002,238.071 328.749 C 238.699 327.496,239.214 326.969,239.215 327.578 C 239.217 330.303,242.164 332.353,246.078 332.353 C 252.605 332.353,255.510 325.997,251.031 321.518 C 247.397 317.885,239.289 320.011,239.190 324.623 C 239.174 325.392,238.848 325.091,238.277 323.777 C 236.706 320.168,235.187 319.608,226.979 319.608 C 220.863 319.608,219.608 319.775,219.608 320.588 C 219.608 321.127,219.902 321.569,220.261 321.569 C 220.621 321.569,220.901 322.525,220.885 323.693 L 220.854 325.817 219.238 322.712 C 217.539 319.449,212.418 317.854,212.418 320.588 C 212.418 321.127,212.726 321.569,213.102 321.569 C 213.529 321.569,213.713 323.223,213.592 325.980 C 213.329 331.984,212.176 331.751,209.541 325.163 C 206.560 317.712,204.850 317.510,202.330 324.312 M180.978 322.166 C 182.355 323.038,181.314 324.837,179.432 324.837 C 178.103 324.837,177.778 324.515,177.778 323.203 C 177.778 321.489,179.187 321.033,180.978 322.166 M233.188 322.586 C 236.045 324.588,234.859 330.065,231.569 330.065 C 230.154 330.065,230.065 329.814,230.065 325.817 C 230.065 321.237,230.548 320.737,233.188 322.586 M247.824 322.650 C 249.531 324.195,249.439 328.390,247.670 329.629 C 244.706 331.706,241.702 328.285,243.149 324.480 C 244.299 321.454,245.837 320.852,247.824 322.650 M301.728 331.863 C 301.543 332.851,301.210 335.036,300.989 336.719 C 300.466 340.697,299.022 342.432,293.224 346.045 C 287.551 349.582,286.583 349.785,289.435 346.843 C 290.595 345.646,292.149 343.072,292.888 341.124 C 294.950 335.688,302.491 327.787,301.728 331.863 M101.060 335.496 C 102.901 337.722,105.032 340.719,105.795 342.157 C 106.557 343.595,107.992 345.776,108.983 347.004 L 110.784 349.236 109.150 348.375 C 101.666 344.431,98.276 341.231,97.716 337.582 C 97.496 336.144,97.161 334.158,96.972 333.170 C 96.462 330.503,97.345 331.006,101.060 335.496 M145.539 343.164 C 142.474 345.575,142.615 350.532,145.835 353.532 C 148.031 355.578,152.483 355.420,154.685 353.217 C 157.026 350.876,155.775 349.642,153.080 351.635 C 149.792 354.065,146.241 351.062,147.319 346.764 C 148.097 343.666,152.069 343.188,153.171 346.060 C 154.273 348.932,156.024 346.584,155.166 343.385 C 154.624 341.367,148.016 341.216,145.539 343.164 M159.705 342.599 C 155.623 344.575,155.207 351.297,159.022 353.624 C 166.407 358.126,174.327 350.013,168.366 344.052 C 165.997 341.683,162.730 341.135,159.705 342.599 M170.208 342.570 C 169.957 342.977,170.234 343.579,170.823 343.909 C 171.643 344.368,171.895 345.494,171.895 348.688 C 171.895 357.795,181.867 357.574,182.135 348.461 C 182.194 346.432,182.268 344.551,182.298 344.281 C 182.328 344.011,182.941 343.791,183.660 343.791 C 184.843 343.791,184.967 344.227,184.967 348.366 C 184.967 350.980,184.687 352.941,184.314 352.941 C 183.954 352.941,183.660 353.382,183.660 353.922 C 183.660 354.630,184.386 354.902,186.275 354.902 C 188.163 354.902,188.889 354.630,188.889 353.922 C 188.889 353.382,188.595 352.941,188.235 352.941 C 187.876 352.941,187.599 351.544,187.621 349.837 L 187.660 346.732 189.721 350.817 C 192.928 357.172,194.771 356.768,194.771 349.712 C 194.771 346.857,195.065 344.340,195.425 344.118 C 197.088 343.090,196.008 341.830,193.464 341.830 C 191.576 341.830,190.850 342.102,190.850 342.810 C 190.850 343.350,191.144 343.791,191.503 343.791 C 191.863 343.791,192.143 344.747,192.126 345.915 L 192.096 348.039 190.480 344.935 L 188.864 341.830 183.648 341.830 C 178.614 341.830,176.831 342.724,179.085 344.118 C 179.444 344.340,179.739 345.919,179.739 347.626 C 179.739 354.232,175.669 354.911,175.289 348.369 C 175.179 346.467,175.400 344.600,175.780 344.220 C 176.160 343.840,176.471 343.147,176.471 342.680 C 176.471 341.603,170.866 341.505,170.208 342.570 M196.705 343.857 C 195.514 346.733,197.000 347.565,199.090 345.193 L 200.612 343.464 200.633 348.203 C 200.645 350.940,200.378 352.941,200.000 352.941 C 199.641 352.941,199.346 353.382,199.346 353.922 C 199.346 354.662,200.145 354.902,202.614 354.902 C 205.872 354.902,207.230 353.598,204.902 352.705 C 203.518 352.174,203.483 344.444,204.865 344.444 C 205.384 344.444,206.207 345.013,206.694 345.708 C 207.669 347.101,209.695 346.508,208.816 345.086 C 208.505 344.583,208.618 344.376,209.113 344.541 C 210.881 345.130,213.456 350.866,212.582 352.267 C 211.238 354.421,211.619 354.902,214.667 354.902 C 217.756 354.902,219.188 353.817,217.412 352.823 C 215.579 351.797,217.297 347.176,220.499 344.518 C 222.435 342.911,221.785 341.830,218.883 341.830 C 216.395 341.830,216.226 341.942,216.582 343.358 C 217.197 345.809,215.449 347.752,214.398 345.786 C 213.759 344.592,213.758 344.175,214.395 343.781 C 216.483 342.491,213.889 341.906,205.945 341.875 L 197.539 341.842 196.705 343.857 M232.680 342.745 C 232.680 343.278,232.974 343.895,233.333 344.118 C 233.693 344.340,233.987 346.252,233.987 348.366 C 233.987 350.480,233.693 352.392,233.333 352.614 C 231.572 353.703,232.771 354.902,235.621 354.902 C 238.471 354.902,239.670 353.703,237.908 352.614 C 236.886 351.983,237.143 349.673,238.235 349.673 C 238.775 349.673,239.216 349.967,239.216 350.327 C 239.216 350.686,239.657 350.980,240.196 350.980 C 240.904 350.980,241.176 350.254,241.176 348.366 C 241.176 346.478,240.904 345.752,240.196 345.752 C 239.657 345.752,239.216 346.046,239.216 346.405 C 239.216 346.765,238.775 347.059,238.235 347.059 C 237.691 347.059,237.255 346.478,237.255 345.752 C 237.255 343.965,240.744 343.933,241.988 345.708 C 243.339 347.637,244.778 346.426,243.981 344.030 C 243.244 341.813,232.680 340.612,232.680 342.745 M244.444 342.810 C 244.444 343.350,244.739 343.791,245.098 343.791 C 245.472 343.791,245.752 345.752,245.752 348.366 C 245.752 350.980,245.472 352.941,245.098 352.941 C 244.739 352.941,244.444 353.382,244.444 353.922 C 244.444 355.913,254.141 355.269,254.918 353.225 C 256.219 349.803,254.848 348.170,253.067 351.022 C 252.539 351.867,251.688 352.294,250.786 352.166 C 248.922 351.900,248.199 344.718,249.967 344.040 C 252.323 343.136,250.991 341.830,247.712 341.830 C 245.243 341.830,244.444 342.070,244.444 342.810 M164.985 344.817 C 168.569 348.401,165.091 355.267,161.389 351.917 C 159.710 350.397,159.735 346.801,161.438 345.098 C 163.014 343.522,163.641 343.473,164.985 344.817 M222.007 352.560 C 221.796 353.108,222.034 353.967,222.535 354.468 C 223.214 355.147,223.257 355.566,222.703 356.120 C 222.202 356.622,222.176 357.078,222.623 357.525 C 223.629 358.531,226.300 355.376,226.034 353.495 C 225.774 351.654,222.634 350.925,222.007 352.560 " stroke="none" fill="#000000" fill-rule="evenodd"></path></g></svg>