<?xml version="1.0" encoding="utf-8"?>
<!-- Generator: Adobe Illustrator 25.4.1, SVG Export Plug-In . SVG Version: 6.00 Build 0)  -->
<svg version="1.1" id="Layer_1" xmlns="http://www.w3.org/2000/svg" xmlns:xlink="http://www.w3.org/1999/xlink" x="0px" y="0px"
	 viewBox="0 0 500 80" style="enable-background:new 0 0 500 80;" xml:space="preserve">
<g id="XMLID_1_">
	<path id="XMLID_3_" d="M4.1,49c0,17.3,9.7,21.4,26.1,21.4h29.3c18.3,0,21.9-7.8,21.9-17.8v-5.6H63.2c0,7.3-2.5,8.2-10.6,8.2H33.1
		c-8.6,0-10.4-3.3-10.4-11.8V37c0-7.3,1.8-11.8,11.4-11.8h19.8c5.4,0,8.5,1.2,8.5,5.5v1.6h18.2C80.8,15.6,77.5,10,51.6,10H30.2
		C13.8,10,4.1,14.1,4.1,31.4V49"/>
	<path id="XMLID_6_" d="M84.9,49V31.4C84.9,14.1,94.6,10,111,10h29.2c16.4,0,26.1,4.1,26.1,21.4V49c0,17.3-9.7,21.4-26.1,21.4H111
		C94.6,70.4,84.9,66.3,84.9,49z M103.5,37v6.4c0,8.6,1.8,11.8,10.4,11.8h23.3c8.6,0,10.4-3.3,10.4-11.8V37c0-7.3-1.8-11.8-11.4-11.8
		h-21.3C105.3,25.2,103.5,29.7,103.5,37"/>
	<path id="XMLID_7_" d="M170.1,49c0,17.3,9.7,21.4,26.1,21.4h21.9c20.5,0,29.3-0.8,29.3-17.8V35.8h-40.8V48h22.6v1.7
		c0,5.7-4.8,6.5-9.5,6.5h-19.4c-9.2,0-11.6-2.2-11.6-12.3v-7.3c0-10.1,2.4-12.3,11.6-12.3h19.7c5.8,0,9.2,0.7,9.2,6.6h17.9v-1.9
		c0-11.5-2.9-18.9-23.5-18.9h-27.4c-16.4,0-26.1,4.1-26.1,21.4V49"/>
	<polyline id="XMLID_8_" points="252,69.8 270.2,69.8 270.2,26.8 270.4,26.8 304.5,69.8 332.7,69.8 332.7,10.7 314.5,10.7 
		314.5,53.6 314.3,53.6 280.2,10.7 252,10.7 252,69.8 	"/>
	<polyline id="XMLID_9_" points="339.5,69.8 405.5,69.8 405.5,55.6 357.7,55.6 357.7,46.1 401.9,46.1 401.9,33.8 357.7,33.8 
		357.7,24.4 404.4,24.4 404.4,10.7 339.5,10.7 339.5,69.8 	"/>
	<polyline id="XMLID_10_" points="408,69.8 432.4,69.8 452,48.3 471.5,69.8 495.9,69.8 466.9,40.1 493.9,10.7 470.4,10.7 452,31.3 
		433.5,10.7 410,10.7 437,40.1 408,69.8 	"/>
</g>
</svg>
