<?xml version="1.0" encoding="utf-8"?>
<!-- Generator: Adobe Illustrator 25.4.1, SVG Export Plug-In . SVG Version: 6.00 Build 0)  -->
<svg version="1.1" id="Layer_8" xmlns="http://www.w3.org/2000/svg" xmlns:xlink="http://www.w3.org/1999/xlink" x="0px" y="0px"
	 viewBox="0 0 629 375.2" style="enable-background:new 0 0 629 375.2;" xml:space="preserve">
<style type="text/css">
	.st0{fill:#22569E;}
	.st1{fill:url(#SVGID_1_);}
	.st2{fill:url(#SVGID_00000028313216538061752760000016653493403698574756_);}
	.st3{fill:url(#SVGID_00000149371575059230523780000005259676178169676423_);}
	.st4{fill:url(#SVGID_00000002380447727067723720000003886335377308092083_);}
	.st5{fill:url(#SVGID_00000178890501496979691840000008953419262640012712_);}
	.st6{fill:url(#SVGID_00000119094503855775870240000015623417919949684657_);}
</style>
<g>
	<g>
		<g>
			<path class="st0" d="M219.8,229.9c-37.4,0-71.7,27.1-71.7,69.3c0,0,0.6,18.1,5.4,27.1c0,0-13.9,18.1-47.6,18.1
				s-57.8-27.7-57.8-71.1c0-43.4,22.3-74.7,69.3-74.7c0,0,21.1-0.6,36.8,8.4l15.7-22.9c0,0-14.5-13.3-57.2-13.3
				c-42.8,0-110.3,25.9-110.3,104.8s63.9,94,89.8,94s43.4-5.4,70.5-25.9c0,0,17.5,23.5,56,23.5s70.5-21.7,70.5-68.7
				C289.1,251.6,257.1,229.9,219.8,229.9z M219.2,346.8c0,0-30.1,1.2-30.1-48.8s30.7-47.6,30.7-47.6s29.5-3,29.5,48.2
				C249.3,349.8,219.2,346.8,219.2,346.8z"/>
		</g>
	</g>
	<path class="st0" d="M389.7,231.1v21.7h-31.9c0,0-16.3,1.2-16.3,10.8s16.9,16.9,24.7,20.5s31.9,13.9,31.9,38.6
		s-19.3,44.6-57.8,44.6s-42.2-24.7-42.2-30.7c0,0-2.4-18.1,7.8-3c0,0,10.2,11.4,27.7,11.4c17.5,0,24.1-8.4,24.1-15.7
		s-10.2-16.3-25.9-23.5s-31.3-16.9-31.3-35.5s18.1-39.2,49.4-39.2S389.7,231.1,389.7,231.1z"/>
	<g>
		<g>
			<path class="st0" d="M616.2,345.6c-7.8,0-9.6-13.9-9.6-13.9V231.1l-43.4,0.6c-71.1,7.8-72.3,76.5-72.3,85c0,8.4,3,20.5,3,20.5
				s-4.2,7.2-19.9,7.2s-17.5-15.1-17.5-15.1v-77.1h33.1v-20.5h-33.1v-39.8c0,0-30.1,43.4-57.8,60.2h21.7c0,0,0,72.9,0,85
				s10.2,30.1,34.3,30.1c24.1,0,43.4-18.1,43.4-18.1s4.8,17.5,31.9,17.5c27.1,0,42.8-26.5,42.8-26.5c6.6,28.9,25.3,26.5,25.3,26.5
				c26.5,0,27.7-24.1,27.7-24.1S624.1,345.6,616.2,345.6z M571.9,316.3c0,0-11.7,21.4-28,21.4c-16.3,0-15.7-29.8-15.7-29.8
				s-0.9-55.4,31.6-55.4h12.1V316.3z"/>
		</g>
	</g>
	<path class="st0" d="M413.6,133.8l45.6,16.3c0,0-48.8,57.4-164.5,57.4s-108.4-59.6-108.4-59.6S185,103.5,263.2,71l121.6-21.2
		c0,0,32.5,1.4,54.7,11.7l-39.8,16.7c0,0-8.6-3.2-15.4-5l-145.5,68.2c0,0,9,31.6,70.5,31.6S399.2,147.3,413.6,133.8z"/>
	<g>
		<linearGradient id="SVGID_1_" gradientUnits="userSpaceOnUse" x1="238.8943" y1="138.6086" x2="316.0134" y2="138.6086">
			<stop  offset="0" style="stop-color:#FFF526"/>
			<stop  offset="0.1813" style="stop-color:#FEFDEB"/>
			<stop  offset="0.3556" style="stop-color:#FEFBB7"/>
			<stop  offset="0.6329" style="stop-color:#FFF869"/>
			<stop  offset="0.8308" style="stop-color:#FFF639"/>
			<stop  offset="0.9286" style="stop-color:#FFF526"/>
		</linearGradient>
		<rect x="238.9" y="98.8" class="st1" width="77.1" height="79.5"/>
		
			<linearGradient id="SVGID_00000124139342220612874820000016893207575653211068_" gradientUnits="userSpaceOnUse" x1="238.9012" y1="94.7467" x2="323.2502" y2="94.7467">
			<stop  offset="0" style="stop-color:#C3E8F6"/>
			<stop  offset="0.1865" style="stop-color:#8EB9DC"/>
			<stop  offset="0.373" style="stop-color:#6091C5"/>
			<stop  offset="0.5389" style="stop-color:#3F74B5"/>
			<stop  offset="0.6766" style="stop-color:#2B62AB"/>
			<stop  offset="0.7692" style="stop-color:#245CA7"/>
		</linearGradient>
		<path style="fill:url(#SVGID_00000124139342220612874820000016893207575653211068_);" d="M323.3,113.5V87.9c0,0-5.4-12-42.2-12
			c-36.8,0-42.2,17.7-42.2,19.8s0,16,0,16s5.4-13.3,42.8-13.3C319,98.5,323.3,113.5,323.3,113.5z"/>
	</g>
	<g>
		
			<linearGradient id="SVGID_00000000206336833765216100000004371615255332516768_" gradientUnits="userSpaceOnUse" x1="263.1751" y1="123.2452" x2="347.524" y2="123.2452">
			<stop  offset="0" style="stop-color:#FFF526"/>
			<stop  offset="0.1813" style="stop-color:#FEFDEB"/>
			<stop  offset="0.3556" style="stop-color:#FEFBB7"/>
			<stop  offset="0.6329" style="stop-color:#FFF869"/>
			<stop  offset="0.8308" style="stop-color:#FFF639"/>
			<stop  offset="0.9286" style="stop-color:#FFF526"/>
		</linearGradient>
		
			<rect x="263.2" y="68.4" style="fill:url(#SVGID_00000000206336833765216100000004371615255332516768_);" width="84.3" height="109.7"/>
		
			<linearGradient id="SVGID_00000025438621002460226270000000376415394092186265_" gradientUnits="userSpaceOnUse" x1="263.191" y1="64.3534" x2="347.5381" y2="64.3534">
			<stop  offset="0" style="stop-color:#C3E8F6"/>
			<stop  offset="0.1865" style="stop-color:#8EB9DC"/>
			<stop  offset="0.373" style="stop-color:#6091C5"/>
			<stop  offset="0.5389" style="stop-color:#3F74B5"/>
			<stop  offset="0.6766" style="stop-color:#2B62AB"/>
			<stop  offset="0.7692" style="stop-color:#245CA7"/>
		</linearGradient>
		<path style="fill:url(#SVGID_00000025438621002460226270000000376415394092186265_);" d="M347.5,83.1V57.5c0,0-5.4-15-42.2-15
			c-36.8,0-42.2,20.7-42.2,22.8c0,2.1,0,20.8,0,20.8S268.6,69,306,69C343.3,69,347.5,83.1,347.5,83.1z"/>
	</g>
	<g>
		
			<linearGradient id="SVGID_00000164499739578221388790000011679969166902443406_" gradientUnits="userSpaceOnUse" x1="300.5264" y1="106.49" x2="384.8771" y2="106.49">
			<stop  offset="0" style="stop-color:#FFF526"/>
			<stop  offset="0.1099" style="stop-color:#FEFDEB"/>
			<stop  offset="0.1964" style="stop-color:#FEFCD0"/>
			<stop  offset="0.4064" style="stop-color:#FEF994"/>
			<stop  offset="0.5993" style="stop-color:#FFF865"/>
			<stop  offset="0.7686" style="stop-color:#FFF642"/>
			<stop  offset="0.908" style="stop-color:#FFF52E"/>
			<stop  offset="1" style="stop-color:#FFF526"/>
		</linearGradient>
		
			<rect x="300.5" y="34.8" style="fill:url(#SVGID_00000164499739578221388790000011679969166902443406_);" width="84.4" height="143.4"/>
		
			<linearGradient id="SVGID_00000117657782707195425310000014991560425665044664_" gradientUnits="userSpaceOnUse" x1="300.5281" y1="31.4545" x2="384.8771" y2="31.4545">
			<stop  offset="0" style="stop-color:#C3E8F6"/>
			<stop  offset="0.1865" style="stop-color:#8EB9DC"/>
			<stop  offset="0.373" style="stop-color:#6091C5"/>
			<stop  offset="0.5389" style="stop-color:#3F74B5"/>
			<stop  offset="0.6766" style="stop-color:#2B62AB"/>
			<stop  offset="0.7692" style="stop-color:#245CA7"/>
		</linearGradient>
		<path style="fill:url(#SVGID_00000117657782707195425310000014991560425665044664_);" d="M384.9,49.7V24.1c0,0-5.4-18.1-42.2-18.1
			c-36.8,0-42.2,23.8-42.2,25.9s0,25,0,25s5.4-20.8,42.8-20.8S384.9,49.7,384.9,49.7z"/>
	</g>
	<path class="st0" d="M238.8,141.5c0,0,9,31.6,70.5,31.6s89.9-25.8,104.4-39.3l45.6,16.3c0,0-48.8,57.4-164.5,57.4
		s-108.4-59.6-108.4-59.6"/>
</g>
</svg>
