<?xml version="1.0" encoding="utf-8"?>
<!-- Generator: Adobe Illustrator 25.4.1, SVG Export Plug-In . SVG Version: 6.00 Build 0)  -->
<svg version="1.1" id="レイヤー_1" xmlns="http://www.w3.org/2000/svg" xmlns:xlink="http://www.w3.org/1999/xlink" x="0px"
	 y="0px" viewBox="0 0 1000 300" style="enable-background:new 0 0 1000 300;" xml:space="preserve">
<style type="text/css">
	.st0{fill:#0033A0;}
	.st1{fill:url(#SVGID_1_);}
	.st2{fill:#FFFFFF;}
	.st3{fill:url(#SVGID_00000160152479615400961270000003538083925246003602_);}
</style>
<g>
	<g>
		<polygon class="st0" points="569.9,115.9 559.2,122.6 552.9,112.7 563.6,106 		"/>
		<polygon class="st0" points="425.1,115.9 414.4,122.6 408.2,112.7 418.9,106 		"/>
		<path class="st0" d="M365.8,168.9c0-8.4,0.3-14.9,0.5-19.7l0.2-6.6c0-9.5-5-13.4-17.1-13.4c-18,0-26,6.2-26,12.3
			c0,3.2,2.2,5.4,5.4,5.4c4.3,0,5.7-3.4,6.9-6.2c0.4-1.1,0.9-2.1,1.4-2.8c1.6-2.2,4.4-3.5,7.9-3.5c7.6,0,10.9,3.5,10.9,11.8
			c0,7.7-2,8.8-11.7,13.1c-13.9,6.1-22.5,10.3-22.5,19.5c0,7.9,8,14.6,17.4,14.6c7.3,0,13.2-3.8,16.8-10.5c0.2,3.7,0.7,6.9,1.7,9.4
			l0.1,0.3l13.8-0.9l-1.1-0.7C367.2,189.3,365.8,181.8,365.8,168.9z M355.3,159.7c0,1.1,0,8.8,0,8.8c0,11-3.8,16.2-11.8,16.2
			c-6,0-10.1-3.4-10.1-8.3C333.4,168.5,341.7,165.2,355.3,159.7z"/>
		<path class="st0" d="M273.6,103c-4.2,0-8.6,0.4-13.3,0.7c-5.3,0.4-10.8,0.9-16.7,0.9h-10.8l0.7,0.7c3.3,3.4,3.3,17.6,3.3,41.1v5.5
			c0,22.9-0.2,36-3.3,39.2l-0.7,0.7H243l9.7,0.3l13.5,0.4c29.4,0,47.6-18.5,47.6-48.3C313.8,118.4,298.8,103,273.6,103z
			 M299.2,148.6c0,23.8-12.4,37.5-34.1,37.5c-11.5,0-14.6-1.1-15.2-5.3c-0.4-3-0.6-11.3-0.6-22.7v-19.7c0-14.8,0.3-23.2,1-27.4
			c4.1-0.9,8.2-1.3,13-1.3C286.1,109.6,299.2,123.8,299.2,148.6z"/>
		<polygon class="st0" points="395.3,115.9 384.6,122.6 378.4,112.7 389,106 		"/>
		<path class="st0" d="M393,174.6v-7.7c0-18.8,0.1-32.3,0.7-37.2l0.1-0.6l-0.6,0.1c-3.8,0.8-7.9,1.3-13.1,1.5l-1.4,0l1.1,0.7
			c2.5,1.6,2.6,9.1,2.6,22.3v20.5c0,9-0.2,15-2.7,16.8l-1,0.8h17.9l-1-0.8C393.2,189.1,393,183,393,174.6z"/>
		<path class="st0" d="M422.8,174.6v-7.7c0-18.8,0.1-32.3,0.7-37.2l0.1-0.6l-0.6,0.1c-3.8,0.8-7.9,1.3-13.1,1.5l-1.3,0l1.1,0.7
			c2.5,1.6,2.6,9.1,2.6,22.3v20.5c0,9-0.2,15-2.6,16.8l-1,0.8h17.9l-0.9-0.8C423,189.1,422.8,183,422.8,174.6z"/>
		<path class="st0" d="M466.7,185.2c-11.5,0-19.5-9.6-19.5-23.4c0-16.1,7.9-26.9,19.8-26.9c6.2,0,10.6,3.6,12.9,10.8l0.8-0.1
			l0.4-14.5l-0.3-0.1c-4-1.1-8.2-1.6-13.2-1.6c-19.1,0-32.5,13.7-32.5,33.3c0,17.9,11.9,30.9,28.2,30.9c12.3,0,20.2-5.9,20.2-15.1
			v-1.5l-0.8,1C479.3,182.5,473.5,185.2,466.7,185.2z"/>
		<path class="st0" d="M540.6,177.3v-15c0-10.9-0.1-19-1.4-22.9c-2.1-6.5-7.1-10.2-14.3-10.2c-8,0-13.5,2.9-19.2,10
			c0.1-2.3,1.1-42.8,1.1-42.8l-0.5,0.1L492,99l0.7,0.6c2.5,2,2.7,8.3,2.7,17.7v10.9l0.2,24.4l0.1,14.9c0,13.8-0.5,22.1-2.9,23.5
			l-1.4,0.8h18.2l-1-0.8c-2.5-1.8-2.6-7.8-2.6-16.8v-12.9c0-14.8,0-23.7,13.1-23.7c8.1,0,11,3.6,11,13.7c0,20.2-0.2,31.8-0.7,40
			l0,0.4h14.8l-0.8-0.7C540.8,188.9,540.6,184.4,540.6,177.3z"/>
		<path class="st0" d="M567.5,174.6v-7.7c0-18.8,0.1-32.3,0.7-37.2l0.1-0.6l-0.6,0.1c-3.7,0.8-7.9,1.3-13.1,1.5l-1.3,0l1.1,0.7
			c2.5,1.6,2.6,9.1,2.6,22.3v20.5c0,9-0.2,15-2.7,16.8l-1.1,0.8h17.9l-1-0.8C567.7,189.1,567.5,183,567.5,174.6z"/>
		<path class="st0" d="M587.9,155.5l-6.3,8.2l0.4,0.3c0.8,0.5,1.6,0.5,2.5,0.5h28.7l6.4-8.9h-0.8L587.9,155.5L587.9,155.5z"/>
		<path class="st0" d="M660.3,141.7l-0.9-0.4c-9.8-5.2-17.6-9.3-17.6-18.3c0-8.1,6.8-13.2,17.8-13.2c8.1,0,14.1,3,17.4,8.6l0.8,1.3
			v-16H674l-1.5-0.1l-1-0.1l-3.9-0.2l-10.4-0.4c-16.8,0-28.4,9.4-28.4,22.9c0,13.1,9.6,18.4,22.9,25.6l1.8,1
			c10.1,5.5,14.2,10.7,14.2,17.9c0,9.4-7.1,16-17.2,16c-10.4,0-18.6-4.7-23.9-13.5l-0.8-1.3v16.5l0.3,0.1c9.4,3.5,17,5.2,24,5.2
			c17.5,0,31.3-11.7,31.3-26.6C681.3,156.9,675.2,149.6,660.3,141.7z"/>
		<path class="st0" d="M732.4,168.9c0-8.4,0.3-14.9,0.5-19.7l0.2-6.6c0-9.5-4.9-13.4-17.1-13.4c-18,0-26,6.2-26,12.3
			c0,3.2,2.2,5.4,5.4,5.4c4.3,0,5.7-3.4,6.9-6.2c0.5-1.1,0.9-2.1,1.4-2.8c1.6-2.2,4.4-3.5,7.9-3.5c7.6,0,10.9,3.5,10.9,11.8
			c0,7.7-2.1,8.8-11.8,13.1c-13.9,6.1-22.5,10.3-22.5,19.5c0,7.9,8,14.6,17.4,14.6c7.3,0,13.1-3.8,16.8-10.5
			c0.2,3.7,0.7,6.9,1.7,9.4l0.1,0.3l13.8-0.9l-1.1-0.7C733.8,189.3,732.4,181.8,732.4,168.9z M722,159.7c0,1.1,0,8.8,0,8.8
			c0,11-3.8,16.2-11.9,16.2c-6,0-10.1-3.4-10.1-8.3C700,168.5,708.3,165.2,722,159.7z"/>
		<path class="st0" d="M794.2,177.8v-17.5c0-19.2-0.8-31-15.7-31c-7.7,0-13.3,2.9-18.6,9.3c0-0.3,0-0.7,0-0.7c0-2.5-0.2-4.9-0.7-6.8
			l-0.1-0.4l-13.8,1.5l0.9,0.6c2.5,1.8,2.6,10,2.6,24.3v17.1c0,9-0.2,15-2.7,16.8l-1,0.8h17.9l-1-0.8c-2.5-1.8-2.7-7.8-2.7-16.8
			v-12.9c0-14.8,0-23.7,13.1-23.7c10.6,0,11,5.5,11,17v3.2c0,13.3-0.2,23.7-0.7,33.5l0,0.4h14.8l-0.9-0.7
			C794.4,188.9,794.2,184.6,794.2,177.8z"/>
		<path class="st0" d="M820.8,174.3c0,0,0-14.5,0-15.1c0.5,0,1.5,0.7,2.6,2.5c0,0,20,30.1,20,30.1h14.2l0.2-0.8
			c-2.6-1.1-6.3-6.4-12-14.4c-4.2-6-9.4-13.4-16.2-22.1c2-1.6,3.6-3.2,4.8-4.5c0,0,18.1-19.3,18.1-19.3h-15.4l0.4,0.7
			c0.7,1.1,1,2.1,1,3.5c0,3.8-5.5,11.5-17.7,20.2c0-1.6,0-58.7,0-58.7l-0.5,0.1l-14.8,2.2l0.9,0.6c3.4,2.3,4,9,4,21.5l-0.1,9.9
			l-0.1,14.5l0.1,15.2l0.1,10.1c0,12.2-0.4,19.1-2.8,20.5l-1.2,0.8h18.1l-1-0.8C821,189.3,820.8,183.3,820.8,174.3z"/>
		<path class="st0" d="M910.8,130.7h-15.6l0.3,0.6c0.8,1.4,1.2,3,1.2,4.8c0,4.9-4,20.7-12.9,44.7c-0.6-2.3-6.5-23.4-6.5-23.4
			c-5.2-19.5-7.4-27.5-10.6-27.5h-1.2c0,0-9.3,1.1-9.3,1.1l-1.7,0.2l1.6,0.6c2.5,1,4.8,7.3,8.2,17.4c8.7,25.6,11.6,40.9,11.6,42.7
			c0,5.1-3.3,14.7-10.7,23.7c-4.2,5.2-8.1,5.8-15.6,5.8l-2.2,0l-3.7-0.1c-4.5,0-7.3,0.2-7.3,2.9c0,3.4,4.6,7,12,7
			c17.5,0,28.2-18.7,41.8-53.2l6.8-17.8c5.2-13.8,9-23.9,13.2-28.8L910.8,130.7z"/>
		<path class="st0" d="M940.3,129.3c-18.4,0-30.7,13.4-30.7,33.3c0,19.6,10.2,30.9,28.1,30.9c18.4,0,30.2-13.9,30.2-35.5
			C967.8,140,957.5,129.3,940.3,129.3z M940.6,187.5c-11.9,0-19.3-10.7-19.3-27.9c0-16,5.8-24.5,16.7-24.5c10.6,0,18,10.9,18,26.4
			C956.1,178.8,950.9,187.5,940.6,187.5z"/>
	</g>
	<g>
		<g>
			
				<radialGradient id="SVGID_1_" cx="-295.0266" cy="4.9406" r="23.4605" gradientTransform="matrix(3.3485 0 0 -3.3487 1098.5916 164.9328)" gradientUnits="userSpaceOnUse">
				<stop  offset="0.65" style="stop-color:#00AEEB"/>
				<stop  offset="0.7066" style="stop-color:#00AAE8"/>
				<stop  offset="0.7597" style="stop-color:#019FE0"/>
				<stop  offset="0.8114" style="stop-color:#038CD2"/>
				<stop  offset="0.8623" style="stop-color:#0571BE"/>
				<stop  offset="0.9121" style="stop-color:#084FA5"/>
				<stop  offset="0.95" style="stop-color:#0B308E"/>
			</radialGradient>
			<path class="st1" d="M173.1,100.6c1.9,6,2.9,12.3,2.9,18.9c0,34.7-28.1,62.8-62.8,62.8c-34.7,0-62.8-28.1-62.8-62.8
				c0-10.5,2.6-20.4,7.1-29.1c-15.6,14.3-25.3,34.9-25.3,57.8c0,43.4,35.2,78.5,78.5,78.5c43.4,0,78.5-35.2,78.5-78.5
				C189.2,130.3,183.2,113.8,173.1,100.6z"/>
			<path class="st2" d="M57.5,90.5C57.5,90.5,57.5,90.5,57.5,90.5C57.5,90.5,57.5,90.5,57.5,90.5C57.5,90.5,57.5,90.5,57.5,90.5z"/>
			<path class="st2" d="M173.1,100.6C173.1,100.6,173.1,100.6,173.1,100.6C173.1,100.6,173.1,100.6,173.1,100.6
				C173.1,100.6,173.1,100.6,173.1,100.6z"/>
		</g>
		<g>
			
				<radialGradient id="SVGID_00000020374100164351876110000001829276623646061221_" cx="-295.0067" cy="4.6217" r="23.5523" gradientTransform="matrix(3.3485 0 0 -3.3487 1098.5916 164.9328)" gradientUnits="userSpaceOnUse">
				<stop  offset="0.75" style="stop-color:#FFED00"/>
				<stop  offset="0.7708" style="stop-color:#ECE705"/>
				<stop  offset="0.8129" style="stop-color:#BCD811"/>
				<stop  offset="0.8724" style="stop-color:#6FC025"/>
				<stop  offset="0.9465" style="stop-color:#05A040"/>
				<stop  offset="0.95" style="stop-color:#009E41"/>
			</radialGradient>
			<path style="fill:url(#SVGID_00000020374100164351876110000001829276623646061221_);" d="M98.4,89.3c9.5,3.7,27.7,13.8,38.7,15.6
				c15.9,2.6,25.6,0.6,36-4.3c-14.3-18.8-37-30.9-62.4-30.9c-20.5,0-39.2,7.9-53.2,20.7C70.3,85.1,83.6,83.5,98.4,89.3z"/>
		</g>
	</g>
</g>
</svg>
