<?xml version="1.0" encoding="utf-8"?>
<!-- Generator: Adobe Illustrator 25.4.1, SVG Export Plug-In . SVG Version: 6.00 Build 0)  -->
<svg version="1.1" id="Layer_1" xmlns="http://www.w3.org/2000/svg" xmlns:xlink="http://www.w3.org/1999/xlink" x="0px" y="0px"
	 viewBox="0 0 224 86" style="enable-background:new 0 0 224 86;" xml:space="preserve">
<style type="text/css">
	.st0{fill:#231F20;}
</style>
<path class="st0" d="M1.9,25.6h16c10.2,0,16.7,8.2,16.7,19.5c0,6.2-2.1,11.6-6.1,15c-3.2,2.5-7.2,3.8-11.3,3.7H1.9V25.6z M16.8,57
	c7.2,0,10.1-4.4,10.1-12S23.5,32.2,17,32.2H9.6v24.8L16.8,57z"/>
<path class="st0" d="M35.8,50c0-7.9,6.4-14.3,14.3-14.3c7.9,0,14.3,6.4,14.3,14.3c0,8.2-5.8,14.5-14.3,14.5S35.8,58.3,35.8,50z
	 M57.1,50c0-5.3-2.5-9-6.9-9s-6.9,3.6-6.9,9s2.5,8.9,6.9,8.9S57,55.4,57.1,50L57.1,50z"/>
<path class="st0" d="M65.9,50c0-8.2,5.3-14.4,13.6-14.4c7.1,0,11.5,4.1,12.4,10h-7.1c-0.4-2.5-2.5-4.2-5-4.2c-4.4,0-6.6,3.4-6.6,8.6
	s2.1,8.6,6.5,8.6c2.8,0.2,5.2-1.8,5.5-4.6h7c-0.5,5.8-5,10.5-12.3,10.5C71.3,64.5,65.9,58.3,65.9,50z"/>
<path class="st0" d="M111.4,63.7v-3.2h-0.2c-1.7,2.6-4.7,4.1-7.8,4c-6.1,0-9.5-3.9-9.5-9.9V36.3h7.2v17c0,3.2,1.4,5,4.5,5
	c3.4,0,5.5-2.6,5.5-6.2V36.3h7.2v27.3H111.4z"/>
<path class="st0" d="M153.7,25.7h7.2v6.8h-7.2V25.7z M153.7,36.4h7.2v27.3h-7.2V36.4z"/>
<path class="st0" d="M163.9,64.5h7.2c0.6,1.7,2.1,3,5.5,3c4.1,0,6.1-2,6.1-5.7v-3h-0.2c-1.7,2.1-4.4,3.3-7.1,3.2
	c-6.1,0-12-4.8-12-13.1s4.9-13.3,11.8-13.3c3-0.1,5.8,1.2,7.6,3.6h0.1v-2.9h7v25.2c0.2,3.1-1,6.2-3.3,8.3c-2.3,2.1-5.8,3.1-9.9,3.1
	C169.3,73,164.7,69.8,163.9,64.5z M183.1,48.8c0-4-2.1-7.4-6.5-7.4c-3.7,0-6.1,2.9-6.1,7.5s2.4,7.4,6.2,7.4
	C181.2,56.2,183.1,52.9,183.1,48.8z"/>
<path class="st0" d="M200,40.1h0.2c1.7-2.9,4.8-4.6,8.1-4.5c5.7,0,9.4,4.3,9.4,10.2v17.9h-7.3V46.9c0-2.9-1.7-5-4.7-5
	c-3,0-5.6,2.6-5.6,6.3v15.5h-7.2V36.3h7.1V40.1z"/>
<path class="st0" d="M137.1,40.7c-5.6-1.2-8.3-2.1-8.3-5.2c0-2.7,2.7-4.5,6.9-4.5c3.8,0,6.6,1.8,7.3,5.3h7.4
	c-0.8-7.4-6.2-11.5-14.6-11.5c-8.4,0-14.6,3.9-14.6,11.4c0,8,6.2,9.8,13.1,11.3c5.8,1.3,9.4,2.1,9.4,5.8c0,3.5-3.5,4.9-7.4,4.9
	c-5.4,0-8.1-1.8-8.6-6.4h-7.6c0.3,8.1,6.1,12.6,16.5,12.6c8.6,0,14.8-4.3,14.8-12C151.4,44.3,145,42.4,137.1,40.7z"/>
<path class="st0" d="M193.3,37.3c-1.2,0-2.2-1-2.2-2.2s1-2.2,2.2-2.2s2.2,1,2.2,2.2l0,0C195.4,36.3,194.5,37.3,193.3,37.3z
	 M193.3,33.3c-1,0-1.8,0.8-1.8,1.8s0.8,1.8,1.8,1.8s1.8-0.8,1.8-1.8S194.3,33.3,193.3,33.3L193.3,33.3z"/>
<path class="st0" d="M192.5,34h0.7c0.2,0,0.5,0,0.7,0.2c0.2,0.1,0.3,0.3,0.2,0.5c0,0.3-0.2,0.5-0.4,0.6l0.5,0.9h-0.5l-0.4-0.8h-0.4
	v0.8h-0.4V34z M192.9,34.3V35h0.4c0.2,0,0.4-0.1,0.4-0.3c0,0,0,0,0,0c0-0.1-0.1-0.2-0.2-0.3c-0.1,0-0.3,0-0.4,0L192.9,34.3z"/>
</svg>
