<?xml version="1.0" encoding="utf-8"?>
<!-- Generator: Adobe Illustrator 25.4.1, SVG Export Plug-In . SVG Version: 6.00 Build 0)  -->
<svg version="1.1" id="svg2" xmlns:svg="http://www.w3.org/2000/svg"
	 xmlns="http://www.w3.org/2000/svg" xmlns:xlink="http://www.w3.org/1999/xlink" x="0px" y="0px" viewBox="0 0 925 241.4"
	 style="enable-background:new 0 0 925 241.4;" xml:space="preserve">
<style type="text/css">
	.st0{fill:#0072B9;}
	.st1{fill:#FFFFFF;}
	.st2{fill:#F26D35;}
	.st3{enable-background:new    ;}
	.st4{fill:#606163;}
</style>
<g id="g13" transform="matrix(0,1.1703917,1.1703917,0,-12.524051,-270.57704)">
</g>
<path id="path37" class="st0" d="M247.6,9.3v115.6h29.9c35.1,0,65-12,65-57.8c0-45.8-29.9-57.8-65-57.8H247.6z M356.2,9.3v15.1H410
	l-55.9,83.4v17.1h76.6v-15.1h-57.6l56.5-83.4V9.3H356.2z M481.5,9.3v115.6h38.7c14.6,0,39-4.4,39-32.7c0-13.6-9-25.5-27.5-27.4
	c17.4-3.1,24.1-13.6,24.1-26.8c0-24.3-20.6-28.8-35.5-28.8H481.5z M613.7,9.3l-43.7,115.6h20.2l10.1-27.3h49.3l9.9,27.3h21.8
	l-44-115.6H613.7z M698.9,9.3v115.6h18.7l0.4-94.9l47,94.9h25.5V9.3h-18.7l-0.4,94.9L724.5,9.3H698.9z M821.4,9.3v115.6H841
	l0.4-58.8l44.2,58.8h25.7l-48.1-61.2l46-54.3h-23.8L841,63.8V9.3H821.4z M267.3,24.5H282c20.3,0,39.9,15.6,39.9,42.7
	c0,27.1-19.6,42.7-39.9,42.7h-14.7V24.5z M501.2,24.5h10.7c10.2,0,24.1,0.9,24.1,16.7c0,14.3-14.2,16.3-23.6,16.3h-11.2V24.5z
	 M625.3,26l19.2,56.5h-38.8L625.3,26z M501.2,71.6h12.7c11.5,0,25.6,2.4,25.6,19.8c0,15.7-15.1,18.4-25.6,18.4h-12.7V71.6z"/>
<path id="path2468" class="st1" d="M185.3,126H13.7V7.7h171.6"/>
<path id="path2460" class="st2" d="M13.6,106.9v19h65.2l-4.2-19H13.6z M120,106.9l-3.5,19h68.8v-19H120z"/>
<path id="path51" class="st0" d="M185.3,95.5h-63.2c3-16.2,6.2-32.9,6.9-36.4c0.4-1.9,1.5-2.3,2.1-2.2c0.4,0,1.3,0.5,1,2.4
	c-0.6,3.5-1.3,8.5-1.4,9.2c-1,8.6,16.8,9.6,19,0.9c4.6-18.4,8.6-37.2,8.6-37.2s-14.5-0.1-20-0.1c-25.9,0-28.6,4.8-32.8,24l-7.7,35.3
	L84.6,32.2l-46.5,0l5.8,25.1l19.9,0l8.4,38.3H13.7V7.7h171.6"/>
<g class="st3">
	<path class="st4" d="M14.4,218.1v-9.7l27.9-34.5H17.6v-9h38.9v8.3l-29.1,35.9h30.2v9H14.4z"/>
</g>
<g class="st3">
	<path class="st4" d="M93.5,218.1v-5.8c-1.4,2.1-3.2,3.7-5.5,4.9c-2.3,1.2-4.7,1.8-7.2,1.8c-2.6,0-4.9-0.6-7-1.7
		c-2.1-1.1-3.5-2.7-4.5-4.8c-0.9-2.1-1.4-4.9-1.4-8.5v-24.4h10.2v17.7c0,5.4,0.2,8.7,0.6,10c0.4,1.2,1.1,2.2,2,2.9
		c1,0.7,2.2,1.1,3.8,1.1c1.7,0,3.3-0.5,4.7-1.4c1.4-1,2.3-2.1,2.8-3.6c0.5-1.4,0.8-4.9,0.8-10.4v-16.2H103v38.5H93.5z"/>
</g>
<g class="st3">
	<path class="st4" d="M115.2,207.1l10.2-1.6c0.4,2,1.3,3.5,2.6,4.5c1.3,1,3.2,1.5,5.6,1.5c2.6,0,4.6-0.5,5.9-1.5
		c0.9-0.7,1.3-1.6,1.3-2.7c0-0.8-0.2-1.4-0.7-1.9c-0.5-0.5-1.6-0.9-3.4-1.3c-8.2-1.8-13.4-3.5-15.6-5c-3-2.1-4.6-5-4.6-8.7
		c0-3.3,1.3-6.1,4-8.4c2.6-2.3,6.7-3.4,12.3-3.4c5.3,0,9.2,0.9,11.8,2.6c2.6,1.7,4.3,4.3,5.3,7.6l-9.6,1.8c-0.4-1.5-1.2-2.6-2.3-3.4
		s-2.8-1.2-4.9-1.2c-2.7,0-4.6,0.4-5.8,1.1c-0.8,0.5-1.2,1.2-1.2,2.1c0,0.7,0.3,1.3,1,1.8c0.9,0.7,4.1,1.6,9.5,2.9
		c5.4,1.2,9.2,2.7,11.4,4.5c2.1,1.8,3.2,4.3,3.2,7.6c0,3.5-1.5,6.6-4.4,9.1c-3,2.5-7.3,3.8-13.1,3.8c-5.2,0-9.4-1.1-12.5-3.2
		C118.1,213.7,116.1,210.8,115.2,207.1z"/>
</g>
<g class="st3">
	<path class="st4" d="M168.6,191.4l-9.2-1.7c1-3.7,2.8-6.5,5.4-8.3c2.5-1.8,6.3-2.7,11.3-2.7c4.5,0,7.9,0.5,10.2,1.6
		c2.2,1.1,3.8,2.4,4.7,4.1c0.9,1.7,1.4,4.7,1.4,9.1l-0.1,11.9c0,3.4,0.2,5.9,0.5,7.5c0.3,1.6,0.9,3.3,1.8,5.2h-10.1
		c-0.3-0.7-0.6-1.7-1-3c-0.2-0.6-0.3-1-0.4-1.2c-1.7,1.7-3.6,3-5.6,3.8c-2,0.8-4.1,1.3-6.3,1.3c-4,0-7.1-1.1-9.4-3.2
		c-2.3-2.2-3.4-4.9-3.4-8.2c0-2.2,0.5-4.1,1.6-5.8c1-1.7,2.5-3,4.4-3.9c1.9-0.9,4.6-1.7,8.1-2.4c4.8-0.9,8.1-1.7,9.9-2.5v-1
		c0-2-0.5-3.4-1.5-4.2c-1-0.8-2.8-1.3-5.5-1.3c-1.8,0-3.2,0.4-4.2,1.1S169.3,189.6,168.6,191.4z M182.3,199.6
		c-1.3,0.4-3.4,1-6.2,1.6s-4.7,1.2-5.5,1.8c-1.3,0.9-2,2.1-2,3.6c0,1.4,0.5,2.7,1.6,3.7c1.1,1,2.4,1.6,4.1,1.6
		c1.8,0,3.6-0.6,5.3-1.8c1.2-0.9,2-2,2.4-3.4c0.3-0.9,0.4-2.5,0.4-5V199.6z"/>
</g>
<g class="st3">
	<path class="st4" d="M209.4,179.6h9.4v5.3c3.4-4.1,7.4-6.1,12-6.1c2.5,0,4.6,0.5,6.4,1.5s3.3,2.6,4.5,4.6c1.7-2.1,3.5-3.6,5.5-4.6
		c2-1,4-1.5,6.3-1.5c2.8,0,5.2,0.6,7.2,1.7s3.4,2.8,4.4,5.1c0.7,1.6,1.1,4.3,1.1,8v24.6h-10.2v-22c0-3.8-0.4-6.3-1.1-7.4
		c-0.9-1.5-2.4-2.2-4.4-2.2c-1.4,0-2.8,0.4-4,1.3c-1.3,0.9-2.2,2.1-2.7,3.8c-0.6,1.7-0.8,4.3-0.8,8v18.5h-10.2V197
		c0-3.7-0.2-6.2-0.5-7.3c-0.4-1.1-0.9-1.9-1.7-2.4c-0.8-0.5-1.8-0.8-3.1-0.8c-1.6,0-3,0.4-4.2,1.3c-1.3,0.8-2.2,2.1-2.7,3.7
		s-0.8,4.2-0.8,7.9v18.7h-10.2V179.6z"/>
</g>
<g class="st3">
	<path class="st4" d="M279.2,179.6h9.4v5.3c3.4-4.1,7.4-6.1,12-6.1c2.5,0,4.6,0.5,6.4,1.5c1.8,1,3.3,2.6,4.5,4.6
		c1.7-2.1,3.5-3.6,5.5-4.6c2-1,4-1.5,6.3-1.5c2.8,0,5.2,0.6,7.2,1.7c2,1.1,3.4,2.8,4.4,5.1c0.7,1.6,1.1,4.3,1.1,8v24.6h-10.2v-22
		c0-3.8-0.4-6.3-1.1-7.4c-0.9-1.5-2.4-2.2-4.4-2.2c-1.4,0-2.8,0.4-4,1.3c-1.3,0.9-2.2,2.1-2.7,3.8c-0.6,1.7-0.8,4.3-0.8,8v18.5
		h-10.2V197c0-3.7-0.2-6.2-0.5-7.3c-0.4-1.1-0.9-1.9-1.7-2.4c-0.8-0.5-1.8-0.8-3.1-0.8c-1.6,0-3,0.4-4.2,1.3
		c-1.3,0.8-2.2,2.1-2.7,3.7c-0.5,1.6-0.8,4.2-0.8,7.9v18.7h-10.2V179.6z"/>
</g>
<g class="st3">
	<path class="st4" d="M372.1,205.9l10.2,1.7c-1.3,3.7-3.4,6.6-6.2,8.5s-6.3,2.9-10.6,2.9c-6.7,0-11.7-2.2-14.9-6.6
		c-2.5-3.5-3.8-7.9-3.8-13.3c0-6.4,1.7-11.4,5-15c3.3-3.6,7.6-5.4,12.7-5.4c5.7,0,10.3,1.9,13.6,5.7c3.3,3.8,4.9,9.6,4.8,17.4h-25.5
		c0.1,3,0.9,5.4,2.5,7.1c1.6,1.7,3.5,2.5,5.9,2.5c1.6,0,2.9-0.4,4-1.3C370.8,209.2,371.6,207.8,372.1,205.9z M372.7,195.6
		c-0.1-3-0.8-5.2-2.3-6.7c-1.5-1.5-3.2-2.3-5.3-2.3c-2.2,0-4.1,0.8-5.5,2.4c-1.5,1.6-2.2,3.8-2.1,6.6H372.7z"/>
</g>
<g class="st3">
	<path class="st4" d="M434.1,218.1h-10.2v-19.7c0-4.2-0.2-6.8-0.7-8.1c-0.4-1.2-1.1-2.2-2.1-2.8c-1-0.7-2.2-1-3.5-1
		c-1.8,0-3.3,0.5-4.8,1.5c-1.4,1-2.4,2.2-2.9,3.8c-0.5,1.6-0.8,4.5-0.8,8.8v17.4h-10.2v-38.5h9.5v5.7c3.4-4.4,7.6-6.5,12.7-6.5
		c2.2,0,4.3,0.4,6.2,1.2c1.9,0.8,3.3,1.8,4.2,3.1c1,1.3,1.6,2.7,2,4.3c0.4,1.6,0.6,3.9,0.6,6.9V218.1z"/>
</g>
<g class="st3">
	<path class="st4" d="M480,220.7l11.6,1.4c0.2,1.4,0.6,2.3,1.3,2.8c1,0.7,2.5,1.1,4.6,1.1c2.7,0,4.7-0.4,6-1.2
		c0.9-0.5,1.6-1.4,2-2.6c0.3-0.8,0.5-2.4,0.5-4.7v-5.6c-3,4.2-6.9,6.2-11.5,6.2c-5.2,0-9.3-2.2-12.3-6.6c-2.4-3.5-3.6-7.8-3.6-12.9
		c0-6.5,1.6-11.4,4.7-14.8c3.1-3.4,7-5.1,11.6-5.1c4.8,0,8.7,2.1,11.8,6.3v-5.4h9.5v34.6c0,4.5-0.4,7.9-1.1,10.2
		c-0.8,2.2-1.8,4-3.2,5.3c-1.4,1.3-3.2,2.3-5.4,3c-2.3,0.7-5.1,1.1-8.6,1.1c-6.5,0-11.2-1.1-13.9-3.4s-4.1-5.1-4.1-8.5
		C480,221.6,480,221.1,480,220.7z M489.1,198.1c0,4.1,0.8,7.1,2.4,9c1.6,1.9,3.5,2.8,5.9,2.8c2.5,0,4.6-1,6.3-2.9s2.6-4.8,2.6-8.7
		c0-4-0.8-7-2.5-8.9c-1.6-1.9-3.7-2.9-6.2-2.9c-2.4,0-4.5,0.9-6,2.8C489.9,191.3,489.1,194.2,489.1,198.1z"/>
</g>
<g class="st3">
	<path class="st4" d="M555.2,205.9l10.2,1.7c-1.3,3.7-3.4,6.6-6.2,8.5c-2.8,1.9-6.3,2.9-10.6,2.9c-6.7,0-11.7-2.2-14.9-6.6
		c-2.5-3.5-3.8-7.9-3.8-13.3c0-6.4,1.7-11.4,5-15c3.3-3.6,7.6-5.4,12.7-5.4c5.7,0,10.3,1.9,13.6,5.7c3.3,3.8,4.9,9.6,4.8,17.4h-25.5
		c0.1,3,0.9,5.4,2.5,7.1c1.6,1.7,3.5,2.5,5.9,2.5c1.6,0,2.9-0.4,4-1.3C553.8,209.2,554.6,207.8,555.2,205.9z M555.8,195.6
		c-0.1-3-0.8-5.2-2.3-6.7c-1.5-1.5-3.2-2.3-5.3-2.3c-2.2,0-4.1,0.8-5.5,2.4c-1.5,1.6-2.2,3.8-2.1,6.6H555.8z"/>
</g>
<g class="st3">
	<path class="st4" d="M592.2,164.9v19.5c3.3-3.8,7.2-5.8,11.8-5.8c2.3,0,4.5,0.4,6.3,1.3c1.9,0.9,3.3,2,4.3,3.3s1.6,2.9,2,4.5
		c0.4,1.6,0.5,4.2,0.5,7.7v22.6h-10.2v-20.3c0-4-0.2-6.6-0.6-7.7c-0.4-1.1-1.1-2-2-2.6c-1-0.6-2.2-1-3.7-1c-1.7,0-3.2,0.4-4.5,1.2
		c-1.3,0.8-2.3,2.1-2.9,3.7c-0.6,1.7-0.9,4.1-0.9,7.3v19.3H582v-53.2H592.2z"/>
</g>
<g class="st3">
	<path class="st4" d="M650.3,179.6v8.1h-7v15.5c0,3.1,0.1,5,0.2,5.5c0.1,0.5,0.4,0.9,0.9,1.3c0.5,0.3,1,0.5,1.7,0.5
		c0.9,0,2.3-0.3,4.1-1l0.9,7.9c-2.4,1-5.1,1.5-8.1,1.5c-1.8,0-3.5-0.3-5-0.9c-1.5-0.6-2.6-1.4-3.2-2.4c-0.7-1-1.2-2.3-1.4-4
		c-0.2-1.2-0.3-3.6-0.3-7.2v-16.8h-4.7v-8.1h4.7v-7.7l10.2-5.9v13.6H650.3z"/>
</g>
<g class="st3">
	<path class="st4" d="M701.4,179.6h9.4v5.3c3.4-4.1,7.4-6.1,12-6.1c2.5,0,4.6,0.5,6.4,1.5c1.8,1,3.3,2.6,4.5,4.6
		c1.7-2.1,3.5-3.6,5.5-4.6c2-1,4-1.5,6.3-1.5c2.8,0,5.2,0.6,7.2,1.7c2,1.1,3.4,2.8,4.4,5.1c0.7,1.6,1.1,4.3,1.1,8v24.6h-10.2v-22
		c0-3.8-0.4-6.3-1.1-7.4c-0.9-1.5-2.4-2.2-4.4-2.2c-1.4,0-2.8,0.4-4,1.3c-1.3,0.9-2.2,2.1-2.7,3.8c-0.6,1.7-0.8,4.3-0.8,8v18.5
		h-10.2V197c0-3.7-0.2-6.2-0.5-7.3c-0.4-1.1-0.9-1.9-1.7-2.4c-0.8-0.5-1.8-0.8-3.1-0.8c-1.6,0-3,0.4-4.2,1.3
		c-1.3,0.8-2.2,2.1-2.7,3.7c-0.5,1.6-0.8,4.2-0.8,7.9v18.7h-10.2V179.6z"/>
</g>
<g class="st3">
	<path class="st4" d="M794.3,205.9l10.2,1.7c-1.3,3.7-3.4,6.6-6.2,8.5c-2.8,1.9-6.3,2.9-10.6,2.9c-6.7,0-11.7-2.2-14.9-6.6
		c-2.5-3.5-3.8-7.9-3.8-13.3c0-6.4,1.7-11.4,5-15c3.3-3.6,7.6-5.4,12.7-5.4c5.7,0,10.3,1.9,13.6,5.7c3.3,3.8,4.9,9.6,4.8,17.4h-25.5
		c0.1,3,0.9,5.4,2.5,7.1c1.6,1.7,3.5,2.5,5.9,2.5c1.6,0,2.9-0.4,4-1.3C792.9,209.2,793.7,207.8,794.3,205.9z M794.9,195.6
		c-0.1-3-0.8-5.2-2.3-6.7c-1.5-1.5-3.2-2.3-5.3-2.3c-2.2,0-4.1,0.8-5.5,2.4c-1.5,1.6-2.2,3.8-2.1,6.6H794.9z"/>
</g>
<g class="st3">
	<path class="st4" d="M831.3,164.9v19.5c3.3-3.8,7.2-5.8,11.8-5.8c2.3,0,4.5,0.4,6.3,1.3c1.9,0.9,3.3,2,4.3,3.3c1,1.4,1.6,2.9,2,4.5
		c0.4,1.6,0.5,4.2,0.5,7.7v22.6H846v-20.3c0-4-0.2-6.6-0.6-7.7s-1.1-2-2-2.6c-1-0.6-2.2-1-3.7-1c-1.7,0-3.2,0.4-4.5,1.2
		c-1.3,0.8-2.3,2.1-2.9,3.7c-0.6,1.7-0.9,4.1-0.9,7.3v19.3h-10.2v-53.2H831.3z"/>
</g>
<g class="st3">
	<path class="st4" d="M881.5,218.1h-10.2v-38.5h9.5v5.5c1.6-2.6,3.1-4.3,4.4-5.1c1.3-0.8,2.8-1.2,4.4-1.2c2.3,0,4.6,0.6,6.7,1.9
		l-3.2,8.9c-1.7-1.1-3.3-1.7-4.8-1.7c-1.4,0-2.6,0.4-3.6,1.2c-1,0.8-1.8,2.2-2.3,4.3c-0.6,2.1-0.9,6.4-0.9,12.9V218.1z"/>
</g>
<g class="st3">
	<path class="st4" d="M902.5,218.1v-10.2h10.2v10.2H902.5z"/>
</g>
</svg>
