<?xml version="1.0" encoding="utf-8"?>
<!-- Generator: Adobe Illustrator 25.4.1, SVG Export Plug-In . SVG Version: 6.00 Build 0)  -->
<svg version="1.1" id="Layer_1" xmlns="http://www.w3.org/2000/svg" xmlns:xlink="http://www.w3.org/1999/xlink" x="0px" y="0px"
	 viewBox="0 0 386 195" style="enable-background:new 0 0 386 195;" xml:space="preserve">
<style type="text/css">
	.st0{fill:#005BAA;}
	.st1{fill:#939598;}
</style>
<g id="XMLID_11_">
	<polygon id="polygon7" class="st0" points="109.3,94.5 83.5,135.5 165.6,135.5 190.2,135.5 230.6,71 245.4,94.5 232.7,94.5 
		219.8,114.9 258.3,114.9 271.3,135.5 295.8,135.5 230.6,32.2 230.6,32.2 178.3,114.9 121,114.9 134.2,94.5 169.8,94.5 182.8,73.9 
		103.3,73.9 90.3,94.5 	"/>
	<polygon id="polygon9" class="st0" points="200.5,53.3 213.4,33 213.4,33 129.2,33 116.2,53.6 	"/>
	<path id="path11" class="st1" d="M15.1,169v-8.7c0-1.6-0.3-3.2-1.1-4.8h10.8l-1.3,2.9c-1.3-0.8-3.2-1.1-5.3-1.1H18v6.3H24l-1.8,2.4
		c-1.1-0.3-2.4-0.5-4.2-0.8v6.6c0.3,0,0.5,0,0.8,0c2.4,0,4.8-0.5,7.1-1.3l-1.3,2.9H14C14.8,172.2,15.1,170.6,15.1,169L15.1,169z"/>
	<path id="path13" class="st1" d="M40.1,160.3v11.6c3.2-0.3,5.5-0.8,7.7-1.6c-0.5,1.1-1.1,2.1-1.6,3.2h-9.8c0.5-1.3,0.8-2.9,0.8-4.5
		v-8.7c0-1.6-0.3-3.2-0.8-4.8h4.8C40.4,157.1,40.1,158.7,40.1,160.3L40.1,160.3z"/>
	<path id="path15" class="st1" d="M58.4,169v-8.7c0-1.6-0.3-3.2-1.1-4.8h10.8l-1.3,2.9c-1.3-0.8-3.2-1.1-5.3-1.1h-0.3v6.3h6.1
		l-1.6,2.4c-1.1-0.3-2.6-0.5-4.5-0.8v6.6c0.3,0,0.5,0,0.8,0c2.6,0,5-0.5,7.1-1.3l-1.3,2.9H57.3C58.1,172.2,58.4,170.6,58.4,169
		L58.4,169z"/>
	<path id="path17" class="st1" d="M89.3,173.8c-2.6,0-4.8-0.8-6.3-1.9c-2.4-1.9-3.7-4.2-3.7-7.1c0-2.9,1.3-5.3,3.7-7.1
		c2.1-1.6,4.8-2.1,7.7-2.1c1.6,0,3.2,0,5,0.5l-0.3,3.2c-1.3-1.1-3.4-1.6-5.3-1.6c-4.5,0-7.4,2.6-7.4,7.1c0,4.2,2.9,6.6,7.1,6.6
		c2.1,0,4.2-0.5,6.1-2.1v3.2C93.5,173.3,91.1,173.8,89.3,173.8L89.3,173.8z"/>
	<path id="path19" class="st1" d="M105.7,158.7l1.1-3.2h15.1l-1.3,3.2c-1.6-0.8-3.2-1.1-5.5-1.1V169c0,1.6,0.3,3.2,1.1,4.5h-4.8
		c0.5-1.3,0.8-2.9,0.8-4.5v-11.4C109.3,157.7,107.5,157.9,105.7,158.7L105.7,158.7z"/>
	<path id="path21" class="st1" d="M135.2,157.4c2.9,0,4.5,1.3,4.5,3.4c0,2.1-1.6,3.4-4.5,4V157.4L135.2,157.4L135.2,157.4z
		 M135.2,169v-3.7c4,5.5,6.9,8.2,7.7,8.2h2.9c-2.6-2.4-5-5.3-6.9-8.2c2.6-0.8,4-2.4,4-4.5c0-3.4-2.6-5.3-8.5-5.3h-3.2
		c0.5,1.6,0.8,3.2,0.8,4.8v8.7c0,1.6-0.3,3.2-0.8,4.5h4.8C135.2,172.2,135.2,170.6,135.2,169L135.2,169z"/>
	<path id="path23" class="st1" d="M165.6,171.7c-2.4,0-4.2-1.1-5.5-2.6c-1.1-1.6-1.6-3.2-1.6-4.8c0-4,2.6-6.6,6.3-6.6
		c2.4,0,4.5,1.1,5.8,2.9c0.8,1.3,1.3,2.9,1.3,4.5C171.9,169,169.3,171.7,165.6,171.7L165.6,171.7L165.6,171.7z M175.1,164.5
		c0-2.6-1.1-5-2.9-6.6c-1.8-1.6-4.2-2.4-6.9-2.4c-3.2,0-6.1,1.1-7.9,3.2c-1.6,1.6-2.4,3.4-2.4,5.8c0,2.9,1.3,5.5,3.4,7.1
		c2.1,1.3,4.2,2.1,6.6,2.1c2.6,0,5-0.8,6.9-2.4C174.1,169.6,175.1,167.2,175.1,164.5L175.1,164.5z"/>
	<path id="path25" class="st1" d="M190.7,173.5h-4.5c0.8-1.3,1.1-2.9,1.1-4.5v-10.8l-2.4-2.6h5c0,0.3,0,0.3,0,0.3
		c0,0.8,0.5,1.3,1.1,2.1l9,11.4v-9c0-1.6-0.3-3.2-0.8-4.8h4.5c-0.8,1.6-0.8,3.2-0.8,4.8v8.7c0,1.9,0,3.2,0.3,4.5h-4
		c-0.3-0.8-0.5-1.3-0.8-1.9l-8.4-10.3v7.7C189.9,170.6,190.2,172.2,190.7,173.5L190.7,173.5z"/>
	<path id="path27" class="st1" d="M219,160.3v8.7c0,1.6,0.3,3.2,1.1,4.5h-4.8c0.5-1.3,0.8-2.9,0.8-4.5v-8.7c0-1.6-0.3-3.2-0.8-4.8
		h4.8C219.2,157.1,219,158.7,219,160.3L219,160.3z"/>
	<path id="path29" class="st1" d="M240.9,173.8c-2.4,0-4.5-0.8-6.3-1.9c-2.4-1.9-3.7-4.2-3.7-7.1c0-2.9,1.3-5.3,3.7-7.1
		c2.1-1.6,4.8-2.1,7.9-2.1c1.3,0,2.9,0,4.8,0.5v3.2c-1.6-1.1-3.4-1.6-5.5-1.6c-4.2,0-7.1,2.6-7.1,7.1c0,4.2,2.6,6.6,6.9,6.6
		c2.4,0,4.2-0.5,6.3-2.1v3.2C245.1,173.3,243,173.8,240.9,173.8L240.9,173.8z"/>
	<path id="path31" class="st1" d="M276.5,165.9l2.6-5l2.4,5H276.5L276.5,165.9L276.5,165.9z M275.5,168h7.1l1.3,2.9
		c0.3,0.5,0.5,1.1,0.5,1.9c0,0.3,0,0.5,0,0.8h5c-1.1-1.3-2.1-2.6-2.6-3.7l-7.4-14.5l-7.7,14c-1.1,1.6-1.9,3.2-2.9,4.2h4.8
		c-0.3,0-0.3-0.3-0.3-0.5c0-0.8,0.3-1.6,0.8-2.6L275.5,168L275.5,168z"/>
	<path id="path33" class="st1" d="M302.4,157.4c2.9,0,4.8,1.3,4.8,3.4c0,2.1-1.6,3.4-4.8,4V157.4L302.4,157.4L302.4,157.4z
		 M302.4,169v-3.7c4.2,5.5,7.1,8.2,7.9,8.2h2.9c-2.6-2.4-5-5.3-6.9-8.2c2.6-0.8,4-2.4,4-4.5c0-3.4-2.9-5.3-8.5-5.3h-3.2
		c0.5,1.6,0.8,3.2,0.8,4.8v8.7c0,1.6-0.3,3.2-0.8,4.5h4.8C302.7,172.2,302.4,170.6,302.4,169L302.4,169z"/>
	<path id="path35" class="st1" d="M320.9,158.7l0.8-3.2h15.1l-1.3,3.2c-1.3-0.8-3.2-1.1-5.3-1.1V169c0,1.6,0.3,3.2,0.8,4.5h-4.8
		c0.5-1.3,0.8-2.9,0.8-4.5v-11.4C324.6,157.7,322.5,157.9,320.9,158.7L320.9,158.7L320.9,158.7z"/>
	<path id="path37" class="st1" d="M351,171.4c1.8,0,2.9-0.8,2.9-2.1c0-1.8-1.6-2.6-3.7-3.7c-2.6-1.3-4-2.4-4-4.8
		c0-2.9,2.6-5.3,6.1-5.3c1.1,0,2.4,0,3.7,0.5l-0.3,3.2c-0.8-1.1-1.8-1.6-3.4-1.6c-1.6,0-2.9,1.1-2.9,2.6c0,1.6,1.3,2.1,3.2,3.2
		c1.3,0.8,2.4,1.1,3.2,2.1c1.1,0.8,1.3,1.9,1.3,3.2c0,2.9-2.4,5-6.9,5c-1.1,0-2.1-0.3-3.2-0.5V169
		C348.1,170.6,349.4,171.4,351,171.4L351,171.4z"/>
	<path id="path39" class="st1" d="M366.3,155.8v0.8h-1.8v4.8h-1.3v-4.8h-1.8v-0.8L366.3,155.8L366.3,155.8L366.3,155.8z
		 M369.2,155.8l1.6,3.7l1.3-3.7h1.8v5.5h-1.3v-4.5l-1.6,4.5h-0.8l-1.6-4.5v4.5h-1.3v-5.5H369.2L369.2,155.8z"/>
</g>
</svg>
