<?xml version="1.0" encoding="utf-8"?>
<!-- Generator: Adobe Illustrator 25.4.1, SVG Export Plug-In . SVG Version: 6.00 Build 0)  -->
<svg version="1.1" id="svg" xmlns="http://www.w3.org/2000/svg" xmlns:xlink="http://www.w3.org/1999/xlink" x="0px" y="0px"
	 viewBox="0 0 400 73" style="enable-background:new 0 0 400 73;" xml:space="preserve">
<style type="text/css">
	.st0{fill-rule:evenodd;clip-rule:evenodd;fill:#7CB41C;}
</style>
<g id="svgg">
	<path id="path1" class="st0" d="M202.4,1.5c-0.1,0.1,0,0.1,0.1,0c0.1-0.1,0.2-0.1,0.1,0.1c-0.1,0.1-0.3,0.2-0.4,0.2
		c-0.2,0-0.3,0.1-0.3,0.2c0,0.2-0.2,0.2-0.5,0.2c-0.3,0-0.5,0.1-0.5,0.2c0,0.1-0.1,0.2-0.2,0.2c-0.1,0-0.2,0.1-0.2,0.2
		c0,0.1-0.1,0.2-0.2,0.2c-0.1,0-0.2,0.1-0.2,0.2c0,0.1-0.1,0.2-0.2,0.2c-0.1,0-0.2,0.1-0.2,0.3c0,0.1-0.1,0.2-0.2,0.2
		c-0.2,0-0.2,0.2-0.2,0.5c0,0.3-0.1,0.5-0.2,0.5c-0.1,0-0.3,0.2-0.3,0.5c0,0.3-0.1,0.5-0.2,0.5c-0.1,0-0.2,0.4-0.2,1.6
		s0.1,1.6,0.2,1.6c0.1,0,0.2,0.2,0.2,0.5c0,0.3,0.1,0.5,0.3,0.5c0.2,0,0.2,0.2,0.2,0.5c0,0.3,0.1,0.5,0.2,0.5c0.1,0,0.2,0.1,0.2,0.2
		c0,0.1,0.1,0.2,0.2,0.2c0.1,0,0.2,0.1,0.2,0.2c0,0.1,0.1,0.2,0.2,0.2c0.1,0,0.2,0.1,0.2,0.2c0,0.2,0.2,0.2,0.5,0.2
		c0.3,0,0.5,0.1,0.5,0.2c0,0.2,0.2,0.2,0.5,0.2c0.3,0,0.5,0.1,0.5,0.2c0,0.2,0.3,0.2,1.9,0.2s1.9,0,1.9-0.2c0-0.2,0.2-0.2,0.5-0.2
		c0.3,0,0.5-0.1,0.5-0.2c0-0.2,0.2-0.2,0.5-0.2c0.3,0,0.5-0.1,0.5-0.2c0-0.1,0.1-0.2,0.2-0.2c0.1,0,0.2-0.1,0.2-0.2
		c0-0.1,0.1-0.3,0.2-0.3c0.1-0.1,0.2-0.3,0.2-0.5c0-0.3,0.1-0.4,0.2-0.4c0.2,0,0.2-0.2,0.2-0.4c0-0.2,0.1-0.5,0.2-0.5
		c0.2-0.1,0.2-0.3,0.2-0.8c0-0.5,0.1-0.7,0.2-0.7c0.3,0,0.3-1,0-1.3c-0.2-0.2-0.2-0.3-0.3-1.3c0-0.5-0.1-0.8-0.3-0.8
		c-0.2,0-0.2-0.2-0.2-0.4c0-0.2-0.1-0.5-0.2-0.5c-0.1-0.1-0.2-0.2-0.2-0.3c0-0.1-0.1-0.2-0.2-0.2c-0.1,0-0.2-0.1-0.2-0.2
		c0-0.1-0.1-0.2-0.2-0.2c-0.1,0-0.2-0.1-0.2-0.2c0-0.2-0.2-0.2-0.5-0.2c-0.3,0-0.5-0.1-0.5-0.2c0-0.1-0.1-0.2-0.2-0.2
		c-0.1,0-0.3-0.1-0.4-0.3c-0.1-0.2-0.2-0.2-0.1-0.1c0.1,0.1,0,0.1-0.3,0c-0.2-0.1-0.4-0.3-0.4-0.4C205.7,1.3,202.6,1.3,202.4,1.5
		 M65.1,17.7c-0.1,0.1-0.8,0.2-1.9,0.2c-1.4,0-1.8,0-1.8,0.2c-0.1,0.1-0.3,0.2-0.6,0.2c-0.3,0-0.6,0.1-0.7,0.2
		c-0.1,0.1-0.5,0.2-0.7,0.2c-0.3,0-0.5,0.1-0.5,0.2c0,0.1-0.1,0.2-0.2,0.2c-0.1,0-0.2,0.1-0.2,0.2c0,0.1-0.1,0.3-0.2,0.3
		c-0.5,0-0.6,0.1-0.7,0.2c-0.1,0.1,0,0.1,0.1,0c0.2-0.1,0.2-0.1,0.1,0.1c-0.1,0.1-0.3,0.2-0.4,0.2c-0.2,0-0.3,0.1-0.3,0.2
		c0,0.1-0.1,0.2-0.2,0.2c-0.1,0-0.2,0.1-0.2,0.2c0,0.1-0.1,0.2-0.2,0.2c-0.1,0-0.2,0.1-0.2,0.2c0,0.1-0.1,0.3-0.2,0.3
		s-0.3,0.3-0.3,0.6c0,0.3-0.1-0.4-0.1-1.5c0-2.6,0.3-2.5-4.9-2.5l-4,0l3.8,0.1l3.8,0.1l-3.8,0c-2.3,0-3.9,0-4.1-0.1
		c-0.2-0.1-0.4-0.1-0.6,0.1c-0.1,0.1-0.3,0.2-0.4,0.2c-0.1,0-0.2,5.4-0.2,18.2v18.2h5.4h5.4V43.7c0-10,0-11.5,0.2-11.7
		c0.1-0.1,0.2-0.6,0.2-1c0-0.6,0.1-0.8,0.2-0.8c0.2,0,0.2-0.2,0.2-0.5c0-0.3,0.1-0.5,0.2-0.5c0.1,0,0.2-0.1,0.2-0.2
		c0-0.1,0.1-0.2,0.2-0.2c0.1,0,0.2-0.1,0.2-0.2c0-0.1,0.1-0.2,0.2-0.2c0.1,0,0.2-0.1,0.2-0.2c0-0.1,0.1-0.2,0.2-0.2
		c0.1,0,0.2-0.1,0.2-0.2c0-0.2,0.2-0.2,0.5-0.2c0.3,0,0.5-0.1,0.5-0.2c0-0.2,0.3-0.2,2.1-0.2s2.1,0,2.1,0.2c0,0.2,0.2,0.2,0.5,0.2
		c0.3,0,0.5,0.1,0.5,0.2c0,0.1,0.1,0.2,0.2,0.2c0.1,0,0.2,0.1,0.2,0.2c0,0.1,0.1,0.2,0.2,0.2c0.1,0,0.2,0.1,0.2,0.2
		c0,0.1,0.1,0.2,0.2,0.2c0.1,0,0.2,0.1,0.2,0.2c0,0.1,0.1,0.2,0.2,0.2c0.2,0,0.2,0.2,0.2,0.7c0,0.4,0.1,0.7,0.2,0.8
		c0.2,0.1,0.2,1.6,0.2,12.3v12.2h5.4h5.4V41.1c0-12.4,0-14.1-0.2-14.2c-0.2-0.1-0.2-0.3-0.2-0.8c0-0.5-0.1-0.7-0.2-0.7
		c-0.2,0-0.2-0.2-0.2-0.8c0-0.6-0.1-0.8-0.2-0.8c-0.2,0-0.2-0.2-0.2-0.4c0-0.2-0.1-0.5-0.2-0.5c-0.1-0.1-0.2-0.2-0.2-0.3
		c0-0.1-0.1-0.2-0.2-0.2c-0.1,0-0.2-0.1-0.2-0.2c0-0.1-0.1-0.2-0.2-0.2c-0.1,0-0.2-0.1-0.2-0.2c0-0.1-0.1-0.2-0.2-0.2
		c-0.1,0-0.2-0.1-0.2-0.2c0-0.1-0.1-0.2-0.2-0.2c-0.1,0-0.2-0.1-0.2-0.2c0-0.1-0.1-0.2-0.2-0.2c-0.1,0-0.2-0.1-0.2-0.2
		c0-0.1-0.1-0.2-0.2-0.2c-0.1,0-0.2-0.1-0.2-0.2c0-0.2-0.2-0.2-0.5-0.2c-0.3,0-0.5-0.1-0.5-0.2c0-0.2-0.2-0.2-0.5-0.2
		c-0.3,0-0.5-0.1-0.5-0.2c0-0.2-0.2-0.2-0.7-0.2c-0.5,0-0.8-0.1-0.8-0.2c-0.1-0.2-0.5-0.2-2.1-0.2c-1.2,0-2-0.1-2.2-0.2
		C65.3,17.5,65.2,17.5,65.1,17.7 M102.6,17.7c-0.1,0.1-1.2,0.2-2.4,0.2c-1.6,0-2.3,0.1-2.2,0.2c0,0.1-0.3,0.2-0.8,0.2
		c-0.6,0-0.8,0.1-0.8,0.3c0,0.2-0.2,0.2-0.7,0.2c-0.4,0-0.7,0.1-0.8,0.2c-0.1,0.1-0.3,0.2-0.6,0.2c-0.3,0-0.5,0.1-0.5,0.2
		c0,0.2-0.2,0.2-0.4,0.2c-0.2,0-0.5,0.1-0.5,0.2c-0.1,0.1-0.2,0.2-0.3,0.2c-0.1,0-0.2,0.1-0.2,0.2c0,0.2-0.2,0.2-0.5,0.2
		c-0.3,0-0.5,0.1-0.5,0.2c0,0.1-0.1,0.2-0.2,0.2c-0.1,0-0.2,0.1-0.2,0.2c0,0.1-0.1,0.2-0.2,0.2c-0.1,0-0.2,0.1-0.2,0.2
		c0,0.1-0.1,0.2-0.2,0.2c-0.1,0-0.2,0.1-0.2,0.2c0,0.1-0.1,0.2-0.2,0.2c-0.1,0-0.2,0.1-0.2,0.2c0,0.1-0.1,0.2-0.2,0.2
		c-0.1,0-0.2,0.1-0.2,0.2c0,0.1-0.1,0.2-0.2,0.2c-0.1,0-0.2,0.1-0.2,0.2c0,0.1-0.1,0.2-0.2,0.2c-0.2,0-0.2,0.2-0.2,0.5
		c0,0.3-0.1,0.5-0.2,0.5c-0.1,0-0.2,0.1-0.2,0.2c0,0.1-0.1,0.2-0.2,0.2c-0.2,0-0.2,0.2-0.2,0.5c0,0.3-0.1,0.5-0.2,0.5
		c-0.2,0-0.2,0.2-0.2,0.5c0,0.3-0.1,0.5-0.2,0.5c-0.1,0-0.3,0.2-0.3,0.5c0,0.3-0.1,0.5-0.3,0.5c-0.1,0-0.2,0-0.2,0.1
		c0.1,0.6-0.1,1.5-0.2,1.5c-0.2,0-0.3,0-0.3,1.4c0,0.8-0.1,1-0.3,1c-0.2,0-0.2,0.5-0.2,3.9c0,3.2,0,3.9,0.2,4.2
		c0.2,0.2,0.2,0.6,0.2,1.3c0,0.8,0.1,1,0.2,1c0.2,0,0.2,0.2,0.2,0.8c0,0.6,0.1,0.8,0.2,0.8c0.2,0,0.2,0.2,0.2,0.5
		c0,0.3,0.1,0.6,0.2,0.7c0.1,0.1,0.2,0.3,0.2,0.5s0.1,0.4,0.2,0.5c0.1,0.1,0.2,0.3,0.2,0.5s0.1,0.3,0.2,0.3c0.2,0,0.2,0.2,0.2,0.5
		c0,0.3,0.1,0.5,0.2,0.5c0.1,0,0.2,0.1,0.2,0.2c0,0.1,0.1,0.2,0.2,0.2c0.1,0,0.2,0.1,0.2,0.2c0,0.1,0.1,0.2,0.2,0.2
		c0.1,0,0.2,0.1,0.2,0.2c0,0.1,0.1,0.3,0.2,0.4c0.1,0.1,0.2,0.3,0.2,0.5c0,0.2,0.1,0.3,0.5,0.3c0.3,0,0.5,0.1,0.5,0.2
		c0,0.1,0.1,0.2,0.2,0.2c0.1,0,0.2,0.1,0.2,0.2c0,0.1,0.1,0.2,0.2,0.2c0.1,0,0.2,0.1,0.2,0.2c0,0.1,0.1,0.2,0.2,0.2
		c0.1,0,0.2,0.1,0.2,0.2c0,0.2,0.2,0.2,0.5,0.2c0.3,0,0.5,0.1,0.5,0.2c0,0.2,0.2,0.2,0.4,0.2c0.2,0,0.4,0.1,0.5,0.2
		c0.1,0.1,0.3,0.2,0.6,0.2c0.3,0,0.5,0.1,0.5,0.2c0,0.2,0.2,0.2,0.5,0.2c0.3,0,0.5,0.1,0.5,0.2c0,0.2,0.2,0.2,0.8,0.2
		c0.5,0,0.9,0.1,1,0.2c0.2,0.2,0.6,0.2,1.5,0.2c1,0,1.2,0,1.2,0.3c0,0.2,0.3,0.3,2.6,0.2c2,0,2.6-0.1,2.6-0.3c0-0.2,0.4-0.2,1.5-0.2
		c1.3,0,1.6,0,1.6-0.2c0-0.2,0.2-0.3,0.8-0.3c1.1,0,1.2-0.1,1.1-0.3c0-0.1,0.2-0.2,0.5-0.2c0.4,0,0.6-0.1,0.6-0.2
		c0-0.2,0.2-0.2,0.5-0.2c0.3,0,0.5-0.1,0.5-0.2c0-0.2,0.2-0.2,0.5-0.2c0.3,0,0.5-0.1,0.5-0.2c0-0.1,0.1-0.2,0.2-0.2s0.3-0.1,0.3-0.2
		c0.1-0.1,0.3-0.2,0.5-0.2c0.3,0,0.4-0.1,0.4-0.2c0-0.1,0.1-0.2,0.2-0.2c0.1,0,0.2-0.1,0.2-0.2c0-0.1,0.1-0.2,0.2-0.2
		c0.1,0,0.2-0.1,0.2-0.2c0-0.1,0.1-0.2,0.2-0.2c0.1,0,0.2-0.1,0.2-0.2c0-0.1,0.1-0.2,0.2-0.2c0.1,0,0.2-0.1,0.2-0.2
		c0-0.1,0.1-0.2,0.2-0.2c0.1,0,0.2-0.1,0.2-0.2c0-0.1,0.1-0.2,0.2-0.2c0.1,0,0.2-0.1,0.2-0.2c0-0.1,0.1-0.3,0.2-0.3
		c0.1-0.1,0.2-0.3,0.2-0.5c0-0.3,0.1-0.4,0.2-0.4c0.1,0,0.2-0.1,0.2-0.3c0-0.2,0.1-0.3,0.2-0.3c0.2,0,0.2-0.1,0.3-0.9
		c0-0.3,0.1-0.5,0.3-0.5c0.2,0,0.2-0.2,0.2-0.5c0-0.3,0.1-0.5,0.2-0.5c0.2,0,0.2-0.2,0.2-0.7v-0.7h-3.1c-2.5,0-3.1,0-3.3-0.2
		c-0.2-0.2-0.6-0.2-2.4-0.2h-2.1v0.5c0,0.3-0.1,0.5-0.2,0.5c-0.1,0-0.2,0.1-0.2,0.2c0,0.1-0.1,0.2-0.2,0.2c-0.1,0-0.2,0.1-0.2,0.2
		c0,0.1-0.1,0.2-0.2,0.2c-0.1,0-0.2,0.1-0.2,0.2c0,0.1-0.1,0.2-0.2,0.2c-0.1,0-0.2,0.1-0.2,0.2c0,0.2-0.4,0.3-0.9,0.3
		c-0.1,0-0.1,0.1-0.1,0.2c0,0.1-0.2,0.2-0.5,0.3c-0.3,0-0.5,0.1-0.5,0.3c0,0.2-0.4,0.2-2.6,0.2c-2.2,0-2.6,0-2.6-0.2
		c0-0.2-0.2-0.2-0.5-0.2c-0.3,0-0.5-0.1-0.5-0.2c0-0.2-0.2-0.2-0.5-0.2c-0.3,0-0.5-0.1-0.5-0.2c0-0.1-0.1-0.2-0.2-0.2
		c-0.1,0-0.2-0.1-0.2-0.2c0-0.1-0.1-0.2-0.2-0.2c-0.1,0-0.2-0.1-0.2-0.2c0-0.1-0.1-0.2-0.2-0.2c-0.2,0-0.2-0.2-0.2-0.5
		c0-0.3-0.1-0.5-0.2-0.5c-0.2,0-0.2-0.2-0.2-0.5c0-0.3-0.1-0.5-0.2-0.5c-0.2,0-0.2-0.2-0.2-0.8c0-0.6-0.1-0.8-0.2-0.8
		c-0.2,0-0.2-0.2-0.2-0.6v-0.6h13h13v-2.3c0-1.9,0-2.4-0.2-2.5c-0.2-0.1-0.2-0.6-0.3-2.1c0-1.4-0.1-1.9-0.2-1.9
		c-0.1,0-0.2-0.3-0.2-0.8c0-0.6-0.1-0.8-0.3-0.8c-0.2,0-0.2-0.2-0.2-0.8c0-0.6-0.1-0.8-0.2-0.8c-0.2,0-0.2-0.2-0.2-0.5
		c0-0.3-0.1-0.5-0.2-0.5c-0.2,0-0.2-0.2-0.2-0.5c0-0.3-0.1-0.5-0.2-0.5c-0.2,0-0.2-0.2-0.2-0.4c0-0.2-0.1-0.5-0.2-0.5
		c-0.1-0.1-0.2-0.2-0.2-0.3c0-0.1-0.1-0.2-0.2-0.2c-0.1,0-0.2-0.1-0.2-0.2c0-0.1-0.1-0.2-0.2-0.2c-0.2,0-0.2-0.2-0.2-0.4
		c0-0.2-0.1-0.5-0.2-0.5c-0.1-0.1-0.2-0.2-0.2-0.3c0-0.1-0.1-0.2-0.2-0.2c-0.1,0-0.2-0.1-0.2-0.2c0-0.1-0.1-0.2-0.2-0.2
		c-0.1,0-0.2-0.1-0.2-0.2c0-0.2-0.2-0.2-0.5-0.2c-0.3,0-0.5-0.1-0.5-0.2c0-0.1-0.1-0.2-0.2-0.2c-0.1,0-0.2-0.1-0.2-0.2
		c0-0.1-0.1-0.2-0.2-0.2c-0.1,0-0.2-0.1-0.2-0.2c0-0.2-0.2-0.2-0.5-0.2c-0.3,0-0.5-0.1-0.5-0.2c0-0.2-0.2-0.2-0.5-0.2
		c-0.3,0-0.5-0.1-0.5-0.2c0-0.2-0.2-0.2-0.5-0.2c-0.3,0-0.5-0.1-0.5-0.2c0-0.2-0.2-0.2-0.8-0.2c-0.6,0-0.8-0.1-0.8-0.2
		c0-0.2-0.2-0.2-0.7-0.2c-0.5,0-0.8-0.1-0.8-0.2c-0.1-0.2-0.5-0.2-2.3-0.2c-1.3,0-2.3-0.1-2.4-0.2C102.8,17.6,102.7,17.6,102.6,17.7
		 M147.6,17.7c-0.1,0.1-0.8,0.2-1.7,0.2c-1.3,0-1.6,0-1.6,0.2c0,0.2-0.2,0.2-0.5,0.2c-0.3,0-0.5,0.1-0.5,0.2c0,0.2-0.2,0.2-0.5,0.2
		c-0.3,0-0.5,0.1-0.5,0.2c0,0.2-0.2,0.2-0.5,0.2c-0.3,0-0.5,0.1-0.5,0.2c0,0.1-0.1,0.2-0.2,0.2c-0.1,0-0.2,0.1-0.2,0.2
		c0,0.1-0.1,0.2-0.2,0.2c-0.1,0-0.2,0.1-0.2,0.2c0,0.1-0.1,0.2-0.2,0.2c-0.1,0-0.2,0.1-0.2,0.2c0,0.1-0.1,0.2-0.2,0.2
		c-0.1,0-0.2,0.1-0.2,0.2c0,0.1-0.1,0.3-0.2,0.3c-0.1,0.1-0.2,0.3-0.2,0.5c0,0.3-0.1,0.4-0.2,0.4c-0.2,0-0.2,0.2-0.2,0.5
		c0,0.3-0.1,0.5-0.1,0.5c-0.1,0-0.1-1.1-0.1-2.5l0.1-2.5l-0.5-0.1c-0.3,0-0.5-0.1-0.4-0.2c0-0.2-0.7-0.2-0.9,0
		c-0.2,0.2-7.2,0.1-7.3,0c-0.1-0.2-0.3-0.1-0.8,0.1c-0.2,0.1-0.3,0.1-0.4,0c-0.5-0.5-0.6,0.1-0.6,18.4v18.1h5.4h5.4v-9.6
		c0-7.4,0-9.6,0.2-9.5c0.2,0,0.3,0,0.3-1.4c0-0.8,0.1-1,0.3-1c0.2,0,0.2-0.2,0.2-0.5c0-0.3,0.1-0.6,0.2-0.7c0.1-0.1,0.2-0.4,0.2-0.5
		s0.1-0.3,0.2-0.3c0.1,0,0.2-0.1,0.2-0.2c0-0.1,0.1-0.2,0.2-0.2c0.2,0,0.2-0.2,0.2-0.5c0-0.4,0.1-0.5,0.5-0.5c0.3,0,0.5-0.1,0.5-0.2
		c0-0.1,0.1-0.2,0.2-0.2c0.1,0,0.2-0.1,0.2-0.2c0-0.2,0.2-0.3,0.5-0.3c0.8,0,0.9-0.1,0.9-0.3c0-0.1,0.2-0.2,0.7-0.2
		c0.5,0,0.8-0.1,0.9-0.2c0.1-0.2,0.5-0.2,2.3-0.2h2.2V23v-5.2h-0.6c-0.3,0-0.6-0.1-0.6-0.2c0-0.1-0.2-0.2-0.4-0.2
		S147.6,17.6,147.6,17.7 M168.6,17.7c-0.1,0.1-0.9,0.2-1.8,0.2c-1.4,0-1.8,0-1.8,0.2c-0.1,0.2-0.3,0.2-0.8,0.2
		c-0.5,0-0.7,0.1-0.7,0.2c0,0.2-0.2,0.2-0.7,0.2c-0.4,0-0.7,0.1-0.8,0.2c-0.1,0.1-0.3,0.3-0.6,0.3c-0.2,0-0.4,0.2-0.4,0.3
		c0,0.1-0.1,0.2-0.3,0.2c-0.2,0-0.3,0.1-0.3,0.2c0,0.2-0.2,0.2-0.5,0.2c-0.3,0-0.5,0.1-0.5,0.2c0,0.1-0.1,0.2-0.2,0.2
		c-0.1,0-0.2,0.1-0.2,0.2c0,0.1-0.1,0.2-0.2,0.2c-0.1,0-0.2,0.1-0.2,0.2c0,0.1-0.1,0.2-0.2,0.2c-0.1,0-0.2,0.1-0.2,0.2
		c0,0.1-0.1,0.2-0.2,0.2c-0.1,0-0.2,0.1-0.2,0.2c0,0.1-0.1,0.2-0.2,0.2c-0.1,0-0.2,0.1-0.2,0.2c0,0.1-0.1,0.2-0.2,0.2
		c-0.1,0-0.2,0.1-0.2,0.2c0,0.1-0.1,0.2-0.2,0.2c-0.1,0-0.2,0.1-0.2,0.2c0,0.1-0.1,0.2-0.2,0.2c-0.2,0-0.2,0.2-0.2,0.5
		c0,0.3-0.1,0.5-0.2,0.5c-0.1,0-0.2,0.1-0.2,0.2c0,0.1-0.1,0.2-0.2,0.2c-0.2,0-0.2,0.2-0.2,0.5c0,0.3-0.1,0.5-0.2,0.5
		c-0.2,0-0.2,0.2-0.2,0.5c0,0.3-0.1,0.5-0.2,0.5c-0.2,0-0.2,0.2-0.2,0.5c0,0.3-0.1,0.5-0.2,0.6c-0.2,0.1-0.2,0.3-0.2,0.8
		c0,0.4-0.1,0.7-0.2,0.8c-0.2,0.1-0.2,0.4-0.2,1c0,0.6-0.1,1-0.2,1.2c-0.4,0.4-0.4,7.7,0,8.2c0.1,0.2,0.2,0.7,0.2,1.1
		c0,0.5,0.1,0.9,0.3,1c0.1,0.1,0.2,0.5,0.2,0.8c0,0.3,0.1,0.6,0.2,0.8c0.1,0.1,0.2,0.5,0.2,0.8c0,0.4,0.1,0.6,0.2,0.6
		c0.2,0,0.2,0.2,0.2,0.5c0,0.3,0.1,0.5,0.2,0.5c0.2,0,0.2,0.2,0.2,0.4c0,0.2,0.1,0.5,0.2,0.5c0.1,0.1,0.2,0.2,0.2,0.3
		c0,0.1,0.1,0.2,0.2,0.2c0.2,0,0.2,0.2,0.2,0.5c0,0.3,0.1,0.5,0.2,0.5c0.1,0,0.2,0.1,0.2,0.2c0,0.1,0.1,0.2,0.2,0.2
		c0.1,0,0.2,0.1,0.2,0.2c0,0.1,0.1,0.2,0.2,0.2c0.1,0,0.2,0.1,0.2,0.2c0,0.1,0.1,0.2,0.2,0.2c0.1,0,0.2,0.1,0.2,0.2
		c0,0.1,0.1,0.2,0.2,0.2c0.1,0,0.2,0.1,0.2,0.2c0,0.1,0.1,0.2,0.2,0.2c0.1,0,0.2,0.1,0.2,0.2c0,0.2,0.2,0.2,0.5,0.2
		c0.3,0,0.5,0.1,0.5,0.2c0,0.1,0.1,0.2,0.2,0.2c0.1,0,0.2,0.1,0.2,0.2c0,0.2,0.2,0.2,0.5,0.2c0.3,0,0.5,0.1,0.5,0.2
		c0,0.2,0.2,0.2,0.5,0.2c0.3,0,0.5,0.1,0.5,0.2c0,0.2,0.2,0.2,0.5,0.2c0.3,0,0.5,0.1,0.5,0.2c0,0.2,0.2,0.2,0.7,0.2
		c0.5,0,0.8,0.1,0.8,0.2c0.1,0.2,0.4,0.2,1.5,0.2c0.9,0,1.6,0.1,1.9,0.2c0.6,0.3,1.7,0.3,1.8,0c0.1-0.2,0.6-0.3,2.1-0.3
		c1.4,0,1.9-0.1,1.9-0.3c0-0.1,0.2-0.2,0.5-0.2c0.4,0,0.6-0.1,0.6-0.2c0-0.2,0.2-0.2,0.5-0.2c0.3,0,0.5-0.1,0.5-0.2
		c0-0.2,0.2-0.2,0.5-0.2c0.3,0,0.5-0.1,0.5-0.2c0-0.1,0.1-0.2,0.2-0.2c0.1,0,0.2-0.1,0.2-0.2c0-0.2,0.2-0.2,0.5-0.2
		c0.3,0,0.5-0.1,0.5-0.2c0-0.1,0.1-0.3,0.2-0.3c0.1-0.1,0.2-0.3,0.2-0.5c0-0.3,0.1-0.4,0.2-0.4c0.1,0,0.2-0.1,0.2-0.2
		c0-0.1,0.1-0.2,0.2-0.2c0.1,0,0.3-0.2,0.3-0.5c0-0.3,0.1,0.4,0.1,1.6c0,1.6,0,2.2-0.2,2.4c-0.1,0.1-0.2,0.7-0.3,1.7
		c0,1.1-0.1,1.6-0.3,1.8c-0.1,0.1-0.2,0.5-0.2,0.7c0,0.3-0.1,0.5-0.2,0.5c-0.2,0-0.2,0.2-0.2,0.5c0,0.3-0.1,0.5-0.2,0.5
		c-0.1,0-0.2,0.1-0.2,0.2c0,0.1-0.1,0.2-0.2,0.2c-0.1,0-0.2,0.1-0.2,0.2c0,0.1-0.1,0.2-0.2,0.2c-0.1,0-0.2,0.1-0.2,0.2
		c0,0.2-0.2,0.2-0.5,0.2c-0.3,0-0.5,0.1-0.5,0.2c0,0.2-0.2,0.2-0.5,0.2c-0.3,0-0.5,0.1-0.5,0.2c0,0.2-0.2,0.2-0.9,0.2
		c-0.7,0-0.9,0.1-1,0.2c-0.1,0.4-3.6,0.4-3.8,0c-0.1-0.2-0.4-0.2-1-0.2c-0.7,0-0.9-0.1-0.9-0.2c0-0.2-0.2-0.2-0.5-0.2
		c-0.3,0-0.5-0.1-0.5-0.2c0-0.1-0.1-0.2-0.2-0.2c-0.1,0-0.2-0.1-0.2-0.2c0-0.1-0.1-0.2-0.2-0.2c-0.2,0-0.2-0.2-0.2-0.5
		c0-0.3-0.1-0.5-0.2-0.5c-0.2,0-0.2-0.2-0.2-0.5c0-0.3-0.1-0.5-0.2-0.5c-0.1,0-0.2-0.1-0.2-0.2c0-0.2-0.7-0.2-5.4-0.2h-5.4v1.1
		c0,0.8,0.1,1.1,0.2,1.2c0.2,0.1,0.2,0.3,0.2,0.8c0,0.4,0.1,0.7,0.2,0.8c0.1,0.1,0.2,0.3,0.2,0.6c0,0.3,0.1,0.5,0.2,0.5
		c0.2,0,0.2,0.2,0.2,0.5c0,0.3,0.1,0.5,0.2,0.5c0.1,0,0.2,0.1,0.2,0.2c0,0.1,0.1,0.2,0.2,0.2c0.2,0,0.2,0.2,0.2,0.5
		c0,0.3,0.1,0.5,0.2,0.5c0.1,0,0.2,0.1,0.2,0.2c0,0.1,0.1,0.2,0.2,0.2c0.1,0,0.2,0.1,0.2,0.2c0,0.1,0.1,0.2,0.2,0.2
		c0.1,0,0.2,0.1,0.2,0.2c0,0.1,0.1,0.2,0.2,0.2c0.1,0,0.2,0.1,0.2,0.2c0,0.1,0.2,0.3,0.4,0.3c0.2,0.1,0.3,0.2,0.2,0.3
		c-0.1,0.1-0.1,0.2,0,0.2c0.5-0.1,0.9,0,0.9,0.3c0,0.2,0.2,0.2,0.5,0.2c0.3,0,0.5,0.1,0.5,0.2c0,0.1,0.1,0.2,0.3,0.2
		s0.4,0.1,0.5,0.2c0.1,0.1,0.5,0.2,0.7,0.2c0.3,0,0.5,0.1,0.5,0.2c0,0.2,0.2,0.2,0.8,0.2c0.6,0,0.8,0.1,0.8,0.2c0,0.2,0.2,0.2,1,0.2
		c0.7,0,1,0.1,1.1,0.2c0.1,0.2,0.3,0.2,0.8,0.2c0.5,0,0.7,0.1,0.7,0.2c0,0.4,6.8,0.4,6.9,0c0.1-0.2,0.3-0.2,0.8-0.2
		c0.4,0,0.7-0.1,0.8-0.2c0.1-0.2,0.4-0.2,1.2-0.2c0.8,0,1.1-0.1,1.2-0.2c0.1-0.2,0.3-0.2,0.8-0.2c0.5,0,0.7-0.1,0.7-0.2
		c0-0.2,0.2-0.2,0.5-0.2c0.3,0,0.5-0.1,0.5-0.2c0-0.2,0.2-0.2,0.5-0.2c0.3,0,0.6-0.1,0.7-0.2c0.1-0.1,0.3-0.2,0.5-0.2
		s0.3-0.1,0.3-0.2c0-0.2,0.2-0.2,0.5-0.2c0.3,0,0.5-0.1,0.5-0.2c0-0.1,0.1-0.2,0.2-0.2c0.1,0,0.2-0.1,0.2-0.2c0-0.1,0.1-0.2,0.2-0.2
		c0.1,0,0.2-0.1,0.2-0.2c0-0.1,0.1-0.2,0.2-0.2c0.1,0,0.2-0.1,0.2-0.2c0-0.1,0.2-0.2,0.4-0.3c0.2-0.1,0.5-0.3,0.6-0.6
		c0.1-0.2,0.2-0.4,0.3-0.4c0.1,0,0.2-0.1,0.2-0.2c0-0.1,0.1-0.2,0.2-0.2c0.1,0,0.2-0.1,0.2-0.2c0-0.1,0.1-0.2,0.2-0.2
		c0.1,0,0.2-0.1,0.2-0.2c0-0.1,0.1-0.2,0.2-0.2c0.2,0,0.2-0.2,0.2-0.5c0-0.3,0.1-0.5,0.2-0.5c0.2,0,0.2-0.2,0.2-0.5
		c0-0.3,0.1-0.5,0.2-0.5c0.2,0,0.2-0.2,0.2-0.8c0-0.6,0.1-0.8,0.2-0.8c0.2,0,0.2-0.2,0.2-0.7c0-0.5,0.1-0.8,0.2-0.8
		c0.2-0.1,0.2-0.5,0.2-2.1c0-1.3,0.1-2,0.2-2.2c0.2-0.2,0.2-0.2,0-0.3c-0.2-0.1-0.2-3.7-0.2-17.6c0-15.8,0-17.6-0.3-17.7
		c-0.1-0.1-0.2-0.2-0.2-0.2c0.1-0.2-0.7-0.2-0.8,0c-0.1,0.1-1.7,0.1-3.7,0.1l-3.6,0l3.6-0.1l3.6-0.1l-4.1,0c-2.3,0-4,0.1-3.9,0.1
		c0.1,0.1,0.1,0.1-0.1,0.2c-0.1,0.1-0.3,0-0.3-0.1c0-0.1-0.1-0.1-0.2,0c-0.2,0.2-0.3,0.7-0.3,2.2c0,1.1-0.1,1.9-0.1,1.7
		c0-0.2-0.2-0.3-0.3-0.3c-0.1,0-0.2-0.1-0.2-0.2c0-0.1-0.1-0.2-0.2-0.2c-0.1,0-0.2-0.1-0.2-0.2c0-0.1-0.1-0.2-0.2-0.2
		c-0.1,0-0.2-0.1-0.2-0.2c0-0.1-0.1-0.2-0.2-0.2c-0.1,0-0.2-0.1-0.2-0.2c0-0.1-0.1-0.2-0.2-0.2c-0.1,0-0.2-0.1-0.2-0.2
		c0-0.1-0.1-0.2-0.2-0.2c-0.1,0-0.3-0.1-0.3-0.2c-0.1-0.1-0.3-0.2-0.5-0.2c-0.3,0-0.4-0.1-0.4-0.2c0-0.2-0.2-0.2-0.5-0.2
		c-0.3,0-0.5-0.1-0.5-0.2c0-0.2-0.2-0.2-0.8-0.2c-0.6,0-0.8-0.1-0.8-0.2c0-0.2-0.3-0.2-1.8-0.2c-1,0-1.9-0.1-1.9-0.2
		c-0.1-0.1-0.2-0.2-0.4-0.2S168.6,17.6,168.6,17.7 M234.1,17.7c-0.1,0.1-0.9,0.2-2.4,0.2c-1.8,0-2.3,0-2.3,0.2
		c-0.1,0.2-0.3,0.2-0.8,0.2c-0.5,0-0.7,0.1-0.7,0.2c0,0.2-0.2,0.2-0.8,0.2c-0.6,0-0.8,0.1-0.8,0.2c0,0.2-0.2,0.2-0.5,0.2
		c-0.3,0-0.5,0.1-0.5,0.2c0,0.2-0.2,0.2-0.5,0.2c-0.3,0-0.5,0.1-0.5,0.2c0,0.2-0.2,0.2-0.5,0.2c-0.3,0-0.5,0.1-0.5,0.2
		c0,0.1-0.1,0.2-0.2,0.2c-0.1,0-0.2,0.1-0.2,0.2c0,0.2-0.2,0.2-0.4,0.2c-0.2,0-0.5,0.1-0.5,0.2c-0.1,0.1-0.2,0.2-0.3,0.2
		c-0.1,0-0.2,0.1-0.2,0.2c0,0.1-0.1,0.2-0.2,0.2c-0.1,0-0.2,0.1-0.2,0.2c0,0.1-0.1,0.2-0.2,0.2c-0.1,0-0.2,0.1-0.2,0.2
		c0,0.2-0.7,0.9-0.9,0.9c-0.1,0-0.1,0-0.1,0.1c0.1,0.5-0.1,0.9-0.3,0.9c-0.1,0-0.2,0.1-0.2,0.2c0,0.1-0.1,0.2-0.2,0.2
		c-0.2,0-0.2,0.2-0.2,0.5c0,0.3-0.1,0.5-0.2,0.5c-0.2,0-0.2,0.2-0.2,0.5c0,0.3-0.1,0.5-0.2,0.5c-0.2,0-0.2,0.2-0.2,0.5
		c0,0.3-0.1,0.5-0.2,0.5c-0.2,0-0.2,0.2-0.2,0.8c0,0.6-0.1,0.8-0.2,0.8c-0.2,0-0.2,0.2-0.2,0.8c0,0.6-0.1,0.8-0.2,0.8
		c-0.2,0-0.2,0.3-0.2,1.5c0,1.2,0,1.5-0.2,1.5c-0.3,0-0.4,4.6,0,5c0.2,0.2,0.2,0.2,0,0.1c-0.2-0.1-0.1,0,0,0.1
		c0.2,0.2,0.3,0.5,0.3,1.4c0,0.9,0.1,1.2,0.2,1.2c0.2,0,0.2,0.2,0.2,0.9c0,0.7,0.1,0.9,0.2,1c0.1,0.1,0.2,0.3,0.2,0.6
		c0,0.3,0.1,0.5,0.2,0.5c0.2,0,0.2,0.2,0.2,0.7c0,0.4,0.1,0.7,0.2,0.8c0.1,0.1,0.2,0.3,0.2,0.6c0,0.3,0.1,0.5,0.2,0.5
		c0.1,0,0.2,0.1,0.2,0.2c0,0.1,0.1,0.2,0.2,0.2c0.2,0,0.3,0.4,0.3,0.9c0,0.1,0.1,0.1,0.2,0c0.1-0.1,0.2,0,0.3,0.2
		c0,0.2,0.2,0.3,0.3,0.3s0.2,0.1,0.2,0.2c0,0.1,0.1,0.2,0.2,0.2c0.1,0,0.2,0.1,0.2,0.2c0,0.1,0.1,0.2,0.2,0.2c0.1,0,0.2,0.1,0.2,0.2
		c0,0.1,0.1,0.2,0.2,0.2c0.1,0,0.2,0.1,0.2,0.2c0,0.1,0.1,0.2,0.2,0.2c0.1,0,0.2,0.1,0.2,0.2c0,0.1,0.1,0.2,0.2,0.2
		c0.1,0,0.2,0.1,0.2,0.2c0,0.2,0.2,0.2,0.5,0.2c0.3,0,0.5,0.1,0.5,0.2c0,0.1,0.1,0.2,0.2,0.2c0.1,0,0.2,0.1,0.2,0.2
		c0,0.2,0.2,0.2,0.5,0.2c0.3,0,0.5,0.1,0.5,0.2c0,0.2,0.2,0.2,0.5,0.2c0.3,0,0.5,0.1,0.5,0.2c0,0.2,0.2,0.2,0.5,0.2
		c0.3,0,0.5,0.1,0.6,0.2c0.1,0.2,0.4,0.2,1,0.2c0.7,0,0.9,0.1,0.9,0.2c0,0.2,1.9,0.4,2.7,0.3c0.1,0,0.2,0.1,0.2,0.2
		c0.1,0.4,4.7,0.4,4.8,0c0.1-0.2,0.4-0.2,1.6-0.2c1.2,0,1.5,0,1.5-0.2c0-0.2,0.2-0.2,0.9-0.2c0.7,0,0.9-0.1,1-0.2
		c0.1-0.1,0.3-0.2,0.6-0.2c0.3,0,0.5-0.1,0.5-0.2c0-0.2,0.2-0.2,0.7-0.2c0.4,0,0.7-0.1,0.8-0.2c0.1-0.1,0.2-0.2,0.3-0.2
		c0.1,0,0.2-0.1,0.2-0.2c0-0.2,0.2-0.2,0.5-0.2c0.3,0,0.5-0.1,0.5-0.2c0-0.1,0.1-0.2,0.2-0.2c0.1,0,0.2-0.1,0.2-0.2
		c0-0.2,0.2-0.2,0.5-0.2c0.3,0,0.5-0.1,0.5-0.2c0-0.1,0.1-0.2,0.2-0.2c0.1,0,0.2-0.1,0.2-0.2c0-0.1,0.1-0.2,0.2-0.2
		c0.1,0,0.2-0.1,0.2-0.2c0-0.1,0.2-0.4,0.5-0.7c0.3-0.3,0.5-0.7,0.5-0.8c0-0.2,0.1-0.3,0.2-0.3c0.1,0,0.2-0.1,0.2-0.2
		c0-0.1,0.1-0.2,0.2-0.2c0.2,0,0.2-0.2,0.2-0.5c0-0.3,0.1-0.5,0.2-0.5c0.2,0,0.2-0.2,0.2-0.5c0-0.3,0.1-0.5,0.2-0.5
		c0.2,0,0.2-0.2,0.2-0.5c0-0.3,0.1-0.5,0.3-0.5c0.2,0,0.2-0.2,0.2-0.9l-0.1-0.9l-3-0.1c-2.1-0.1-3-0.1-3-0.3c0-0.1-0.6-0.2-2.1-0.2
		c-1.8,0-2.2,0-2.2,0.2c0,0.1-0.1,0.3-0.2,0.3c-0.1,0-0.2,0.1-0.2,0.3c0,0.2-0.1,0.3-0.2,0.3c-0.2,0-0.2,0-0.3,0.6
		c0,0.1-0.1,0.2-0.3,0.2c-0.1,0-0.2,0.1-0.2,0.2c0,0.1-0.1,0.2-0.2,0.2c-0.1,0-0.2,0.1-0.2,0.2c0,0.2-0.2,0.2-0.5,0.2
		c-0.3,0-0.5,0.1-0.5,0.2c0,0.2-0.2,0.2-0.5,0.2c-0.3,0-0.5,0.1-0.5,0.2c0,0.2-0.4,0.2-2.6,0.2c-2.1,0-2.6,0-2.8-0.2
		c-0.1-0.1-0.5-0.2-0.7-0.2c-0.3,0-0.5-0.1-0.5-0.2c0-0.1-0.1-0.2-0.2-0.2c-0.1,0-0.2-0.1-0.2-0.2c0-0.1-0.1-0.2-0.2-0.2
		c-0.1,0-0.2-0.1-0.2-0.2c0-0.1-0.1-0.2-0.2-0.2c-0.1,0-0.2-0.1-0.2-0.2c0-0.1-0.1-0.2-0.2-0.2c-0.1,0-0.2-0.1-0.2-0.2
		c0-0.1-0.1-0.2-0.2-0.2c-0.2,0-0.2-0.2-0.2-0.5c0-0.3-0.1-0.5-0.2-0.5c-0.2,0-0.2-0.2-0.2-0.5c0-0.3-0.1-0.5-0.2-0.5
		c-0.2,0-0.2-0.2-0.2-0.8c0-0.5-0.1-0.9-0.3-1.1c-0.3-0.3,0.1-0.3,12.8-0.3h13v-3.4c0-2.9,0-3.4-0.2-3.4c-0.2,0-0.2-0.3-0.2-1.4
		c0-0.9-0.1-1.5-0.2-1.5c-0.1-0.1-0.1,0-0.1,0.1c0.1,0.1,0.1,0.2-0.1,0.1c-0.1-0.1-0.2-0.4-0.2-0.7s-0.1-0.6-0.2-0.8
		c-0.1-0.1-0.2-0.5-0.2-0.8c0-0.4-0.1-0.6-0.2-0.6c-0.2,0-0.2-0.2-0.2-0.5c0-0.3-0.1-0.5-0.2-0.5c-0.2,0-0.2-0.2-0.2-0.4
		c0-0.2-0.1-0.5-0.2-0.5c-0.1-0.1-0.2-0.2-0.2-0.3c0-0.1-0.1-0.2-0.2-0.2c-0.2,0-0.2-0.2-0.2-0.5c0-0.3-0.1-0.5-0.2-0.5
		c-0.1,0-0.2-0.1-0.2-0.2c0-0.1-0.1-0.2-0.2-0.2c-0.1,0-0.2-0.1-0.2-0.2c0-0.1-0.1-0.2-0.2-0.2c-0.1,0-0.2-0.1-0.2-0.2
		c0-0.1-0.1-0.2-0.2-0.2c-0.1,0-0.2-0.1-0.2-0.2c0-0.1-0.1-0.2-0.2-0.2c-0.1,0-0.2-0.1-0.2-0.2c0-0.1-0.1-0.2-0.2-0.2
		c-0.1,0-0.2-0.1-0.2-0.2c0-0.1-0.1-0.2-0.2-0.2c-0.1,0-0.3-0.1-0.3-0.2c-0.1-0.1-0.3-0.2-0.5-0.2c-0.3,0-0.4-0.1-0.4-0.2
		c0-0.1-0.1-0.2-0.2-0.2c-0.1,0-0.3-0.1-0.3-0.2c-0.1-0.1-0.3-0.2-0.5-0.2c-0.2,0-0.4-0.1-0.5-0.2c-0.1-0.1-0.3-0.2-0.5-0.2
		c-0.2,0-0.4-0.1-0.5-0.2c-0.1-0.2-0.3-0.2-0.8-0.2c-0.5,0-0.7-0.1-0.7-0.2c0-0.2-0.2-0.2-0.7-0.2c-0.5,0-0.8-0.1-0.9-0.3
		c-0.1-0.2-0.2-0.2-0.1,0c0.1,0.2,0.1,0.2-0.1,0c-0.2-0.1-0.9-0.2-2.2-0.2c-1.2,0-2.1-0.1-2.2-0.2C234.3,17.5,234.2,17.5,234.1,17.7
		 M15.4,18.1c-0.1,0.2-0.3,0.3-0.8,0.3c-0.5,0-0.7,0.1-0.7,0.2c0,0.2-0.2,0.2-0.8,0.2c-0.6,0-0.8,0.1-0.8,0.2c0,0.2-0.2,0.2-0.5,0.2
		c-0.3,0-0.5,0.1-0.5,0.2c0,0.2-0.2,0.2-0.5,0.2c-0.3,0-0.5,0.1-0.5,0.2c0,0.2-0.2,0.2-0.5,0.2c-0.3,0-0.5,0.1-0.5,0.2
		c0,0.1-0.1,0.2-0.2,0.2c-0.1,0-0.2,0.1-0.2,0.2c0,0.1-0.1,0.2-0.2,0.2c-0.1,0-0.2,0.1-0.2,0.2c0,0.2-0.2,0.2-0.5,0.2
		c-0.3,0-0.5,0.1-0.5,0.2c0,0.1-0.2,0.4-0.5,0.6c-0.3,0.2-0.5,0.5-0.5,0.8c0,0.2-0.1,0.4-0.2,0.4c-0.1,0-0.2,0.1-0.2,0.2
		c0,0.1-0.1,0.2-0.2,0.2c-0.1,0-0.2,0.1-0.2,0.2c0,0.1-0.1,0.2-0.2,0.2c-0.1,0-0.3,0.2-0.3,0.4c-0.1,0.2-0.2,0.3-0.3,0.2
		c-0.1-0.1-0.2-0.1-0.2,0c0.1,0.5,0,0.9-0.3,0.9c-0.2,0-0.3,0.2-0.3,0.5c0,0.3-0.1,0.5-0.2,0.5c-0.1,0-0.3,0.2-0.3,0.5
		c0,0.3-0.1,0.5-0.2,0.5c-0.1,0-0.2,0.3-0.2,0.7c0,0.4-0.1,0.8-0.3,0.8c-0.2,0.1-0.2,0.4-0.2,1c0,0.6-0.1,0.9-0.2,1
		c-0.1,0-0.3,0.3-0.3,0.6c0,0.3-0.1,0.5-0.3,0.4c-0.3-0.1-0.3,7.7,0,7.9c0.1,0.1,0.3,0.3,0.3,0.5s0.1,0.4,0.2,0.5
		c0.2,0.1,0.2,0.5,0.2,1c0,0.6,0.1,0.8,0.2,0.8c0.2,0,0.2,0.2,0.2,0.8c0,0.6,0.1,0.8,0.2,0.8c0.2,0,0.2,0.2,0.2,0.5
		c0,0.3,0.1,0.5,0.2,0.5c0.2,0,0.2,0.2,0.2,0.5c0,0.3,0.1,0.5,0.3,0.5c0.2,0,0.2,0.2,0.2,0.5c0,0.3,0.1,0.5,0.2,0.5
		c0.1,0,0.2,0.1,0.2,0.2c0,0.1,0.1,0.2,0.2,0.2c0.2,0,0.2,0.2,0.2,0.5c0,0.3,0.1,0.5,0.2,0.5c0.1,0,0.2,0.1,0.2,0.2
		c0,0.1,0.1,0.2,0.2,0.2c0.1,0,0.2,0.1,0.2,0.2c0,0.1,0.1,0.2,0.2,0.2c0.1,0,0.2,0.1,0.2,0.2c0,0.1,0.1,0.2,0.2,0.2
		c0.1,0,0.2,0.1,0.2,0.2c0,0.1,0.1,0.2,0.2,0.2c0.1,0,0.2,0.1,0.2,0.2c0,0.1,0.1,0.2,0.2,0.2c0.1,0,0.3,0.1,0.4,0.2
		c0.1,0.1,0.4,0.2,0.6,0.2s0.3,0.1,0.3,0.2c0,0.1,0.1,0.2,0.2,0.2c0.1,0,0.2,0.1,0.2,0.2c0,0.2,0.2,0.2,0.5,0.2
		c0.3,0,0.5,0.1,0.5,0.2c0,0.2,0.2,0.2,0.5,0.2c0.3,0,0.5,0.1,0.5,0.2c0,0.2,0.2,0.2,0.6,0.2c0.3,0,0.6,0.1,0.7,0.2
		c0.1,0.1,0,0.1-0.1,0.1c-0.1-0.1-0.2-0.1-0.1,0.1c0.1,0.1,0.5,0.2,1,0.2c0.7,0,0.9,0.1,0.9,0.2c0,0.2,0.3,0.2,1.5,0.2
		c1.2,0,1.5,0,1.5,0.2c0,0.2,0.4,0.2,2.4,0.2c1.9,0,2.4,0,2.6-0.2c0.2-0.2,0.6-0.2,1.5-0.2c1,0,1.3-0.1,1.4-0.2
		c0.1-0.2,0.4-0.2,1-0.2c0.7,0,0.9-0.1,0.9-0.2c0-0.2,0.2-0.3,0.5-0.3c0.8,0,0.9-0.1,0.9-0.3c0-0.1,0.2-0.2,0.5-0.2
		c0.3,0,0.5-0.1,0.6-0.2c0.1-0.1,0.2-0.2,0.3-0.2s0.3-0.1,0.3-0.2c0.1-0.1,0.3-0.2,0.5-0.2c0.3,0,0.4-0.1,0.4-0.2
		c0-0.1,0.1-0.2,0.2-0.2s0.3-0.1,0.3-0.2c0.1-0.1,0.3-0.2,0.5-0.2c0.3,0,0.4-0.1,0.4-0.2c0-0.1,0.1-0.2,0.2-0.2
		c0.1,0,0.2-0.1,0.2-0.2c0-0.1,0.1-0.2,0.2-0.2c0.1,0,0.2-0.1,0.2-0.2c0-0.1,0.1-0.2,0.2-0.2c0.1,0,0.2-0.1,0.2-0.2
		c0-0.1,0.1-0.2,0.2-0.2c0.1,0,0.3-0.2,0.3-0.4c0.1-0.2,0.2-0.4,0.3-0.4s0.2-0.2,0.2-0.3c0-0.2,0.1-0.3,0.2-0.3
		c0.1,0,0.2-0.1,0.2-0.3s0.1-0.4,0.2-0.5c0.1-0.1,0.2-0.3,0.2-0.4c0-0.1,0.1-0.2,0.2-0.2c0.1,0,0.3-0.2,0.3-0.5
		c0-0.3,0.1-0.5,0.2-0.5c0.1,0,0.2-0.3,0.2-1.1l0-1.1l-3,0c-2.4,0-3-0.1-3.1-0.3c-0.1-0.4-4.2-0.4-4.2,0c0,0.1-0.1,0.2-0.2,0.2
		c-0.2,0-0.2,0.2-0.2,0.5c0,0.3-0.1,0.5-0.2,0.5c-0.1,0-0.2,0.1-0.2,0.2c0,0.1-0.1,0.2-0.2,0.2c-0.1,0-0.2,0.1-0.2,0.2
		c0,0.1-0.1,0.2-0.2,0.2c-0.1,0-0.2,0.1-0.2,0.2c0,0.2-0.2,0.2-0.5,0.2c-0.3,0-0.5,0.1-0.5,0.2c0,0.2-0.2,0.2-0.5,0.2
		c-0.3,0-0.5,0.1-0.5,0.2c0,0.2-0.4,0.2-2.6,0.2c-2.1,0-2.6,0-2.6-0.2c0-0.1-0.2-0.3-0.5-0.3c-0.3,0-0.5-0.1-0.5-0.3
		c0-0.1,0-0.2-0.1-0.2c-0.5,0.1-0.9-0.1-0.9-0.3c0-0.1-0.1-0.2-0.2-0.2c-0.1,0-0.2-0.1-0.2-0.2c0-0.1-0.1-0.2-0.2-0.2
		c-0.1,0-0.2-0.1-0.2-0.2c0-0.1-0.1-0.2-0.2-0.2c-0.1,0-0.2-0.1-0.2-0.2c0-0.1-0.1-0.2-0.2-0.2c-0.2,0-0.2-0.2-0.2-0.5
		c0-0.3-0.1-0.5-0.2-0.5c-0.2,0-0.2-0.2-0.2-0.5c0-0.3-0.1-0.5-0.2-0.5c-0.2,0-0.2-0.2-0.2-1c0-0.8-0.1-1-0.3-1.1
		c-0.2,0,5.6-0.1,12.8-0.1l13,0v-3.8c0-3.3,0-3.9-0.2-3.9c-0.2-0.1-0.2-0.4-0.2-1.1c0-0.8-0.1-1-0.2-1c-0.2,0-0.2-0.2-0.2-0.8
		c0-0.6-0.1-0.8-0.2-0.8c-0.2,0-0.2-0.2-0.2-0.5c0-0.3-0.1-0.5-0.2-0.5c-0.2,0-0.2-0.2-0.2-0.5c0-0.3-0.1-0.5-0.2-0.5
		c-0.2,0-0.2-0.2-0.2-0.5c0-0.3-0.1-0.5-0.2-0.5c-0.1,0-0.2-0.1-0.2-0.2c0-0.1-0.1-0.3-0.2-0.4c-0.1-0.1-0.2-0.3-0.2-0.5
		c0-0.2-0.1-0.3-0.2-0.3c-0.1,0-0.2-0.1-0.2-0.2c0-0.1-0.1-0.2-0.2-0.2c-0.1,0-0.2-0.1-0.2-0.2c0-0.1-0.1-0.2-0.2-0.2
		c-0.1,0-0.2-0.1-0.2-0.2c0-0.1-0.1-0.2-0.2-0.2c-0.1,0-0.2-0.1-0.2-0.2c0-0.1-0.1-0.2-0.2-0.2c-0.1,0-0.2-0.1-0.2-0.2
		c0-0.1-0.1-0.2-0.2-0.2c-0.1,0-0.2-0.1-0.2-0.2c0-0.1-0.1-0.2-0.2-0.2c-0.1,0-0.2-0.1-0.2-0.2c0-0.2-0.2-0.2-0.5-0.2
		c-0.3,0-0.5-0.1-0.5-0.2c0-0.1-0.1-0.2-0.2-0.2c-0.1,0-0.2-0.1-0.2-0.2c0-0.2-0.2-0.2-0.5-0.2c-0.3,0-0.5-0.1-0.5-0.2
		c0-0.2-0.2-0.2-0.5-0.2c-0.3,0-0.5-0.1-0.5-0.2c0-0.2-0.2-0.2-0.8-0.2c-0.5,0-0.8-0.1-0.8-0.2c0-0.2-0.2-0.3-0.8-0.3
		c-0.5,0-0.8-0.1-0.8-0.2C25.2,17.7,15.5,17.7,15.4,18.1 M130.9,18.5c1,0,2.6,0,3.7,0c1,0,0.2-0.1-1.8-0.1S129.9,18.4,130.9,18.5
		 M199.9,18.5c-0.2,0.1-0.5,0.2-0.7,0.3l-0.4,0.1V37v18.1h5.4h5.4V37c0-17.1,0-18.2-0.3-18.4C209.1,18.4,200.6,18.2,199.9,18.5
		 M206,18.6c-1.1,0-2.8,0-3.9,0c-1.1,0-0.2-0.1,2-0.1S207,18.6,206,18.6 M22.4,26.4c0.1,0.2,0.3,0.2,0.8,0.2c0.5,0,0.7,0.1,0.7,0.2
		c0,0.1,0.1,0.2,0.2,0.2c0.1,0,0.3,0.1,0.3,0.2c0.1,0.1,0.3,0.2,0.5,0.2c0.3,0,0.4,0.1,0.4,0.2c0,0.1,0.1,0.2,0.2,0.2
		c0.1,0,0.2,0.1,0.2,0.2c0,0.1,0.1,0.2,0.2,0.2c0.2,0,0.2,0.2,0.2,0.5c0,0.3,0.1,0.5,0.2,0.5c0.1,0,0.2,0.1,0.2,0.3
		c0,0.2,0.1,0.4,0.2,0.5c0.1,0.1,0.2,0.4,0.2,0.7c0,0.3,0.1,0.5,0.2,0.5c0.2,0,0.2,0.2,0.2,0.6v0.6l-7.6,0c-4.2,0-7.5-0.1-7.3-0.1
		c0.2-0.1,0.3-0.3,0.3-0.8c0-0.5,0.1-0.7,0.2-0.7c0.2,0,0.2-0.2,0.2-0.5c0-0.3,0.1-0.5,0.2-0.5c0.2,0,0.2-0.2,0.2-0.5
		c0-0.3,0.1-0.5,0.2-0.5c0.1,0,0.2-0.1,0.2-0.2c0-0.1,0.1-0.2,0.2-0.2c0.1,0,0.2-0.1,0.2-0.2c0-0.1,0.1-0.2,0.2-0.2
		c0.1,0,0.2-0.1,0.2-0.2c0-0.1,0.1-0.2,0.2-0.2c0.1,0,0.2-0.1,0.2-0.2c0-0.2,0.2-0.2,0.5-0.2c0.3,0,0.5-0.1,0.5-0.2
		c0-0.2,0.2-0.2,0.7-0.2c0.4,0,0.7-0.1,0.8-0.2c0.1-0.2,0.4-0.2,1.9-0.2S22.3,26.2,22.4,26.4 M105.1,26.4c0.1,0.1,0.5,0.2,0.7,0.2
		c0.3,0,0.5,0.1,0.5,0.2s0.2,0.2,0.5,0.2c0.3,0,0.5,0.1,0.5,0.2c0,0.1,0.1,0.2,0.2,0.2c0.1,0,0.2,0.1,0.2,0.2c0,0.1,0.1,0.2,0.2,0.2
		c0.1,0,0.2,0.1,0.2,0.2c0,0.1,0.1,0.2,0.2,0.2c0.1,0,0.2,0.1,0.2,0.2c0,0.1,0.1,0.2,0.2,0.2c0.2,0,0.2,0.2,0.2,0.5
		c0,0.3,0.1,0.5,0.2,0.5c0.2,0,0.2,0.2,0.2,0.5c0,0.3,0.1,0.5,0.2,0.5c0.2,0,0.2,0.2,0.2,0.7c0,0.6,0.1,0.8,0.3,0.8
		c0.2,0-3.1,0.1-7.3,0.1l-7.6,0v-0.6c0-0.4,0.1-0.6,0.2-0.6c0.2,0,0.2-0.2,0.2-0.5c0-0.3,0.1-0.5,0.2-0.5c0.2,0,0.2-0.2,0.2-0.5
		c0-0.3,0.1-0.5,0.2-0.5c0.2,0,0.2-0.2,0.2-0.5c0-0.3,0.1-0.5,0.2-0.5c0.1,0,0.2-0.1,0.2-0.2c0-0.1,0.1-0.2,0.2-0.2
		c0.1,0,0.2-0.1,0.2-0.2c0-0.2,0.2-0.2,0.5-0.2c0.3,0,0.5-0.1,0.5-0.2c0-0.1,0.1-0.2,0.2-0.2c0.1,0,0.2-0.1,0.2-0.2
		c0-0.2,0.2-0.2,0.9-0.2c0.7,0,0.9-0.1,1-0.2c0.1-0.2,0.4-0.2,1.7-0.2C104.5,26.2,104.9,26.2,105.1,26.4 M236.3,26.4
		c0,0.2,0.2,0.2,0.8,0.2c0.6,0,0.8,0.1,0.8,0.2c0,0.1,0.1,0.2,0.2,0.2c0.1,0,0.2,0.1,0.2,0.2c0,0.2,0.2,0.2,0.5,0.2
		c0.3,0,0.5,0.1,0.5,0.2c0,0.1,0.1,0.2,0.2,0.2c0.2,0,0.2,0.2,0.2,0.4c0,0.2,0.1,0.4,0.2,0.5c0.1,0.1,0.2,0.2,0.2,0.4
		c0,0.1,0.1,0.3,0.2,0.3c0.2,0,0.2,0.2,0.2,0.5c0,0.3,0.1,0.5,0.2,0.5c0.2,0,0.2,0.2,0.2,0.7c0,0.4,0.1,0.7,0.2,0.8
		c0.1,0.1,0.2,0.2,0.2,0.4c0,0.3-0.3,0.3-7.6,0.3c-7.4,0-7.6,0-7.3-0.3c0.2-0.2,0.3-0.5,0.3-0.8c0-0.4,0.1-0.5,0.2-0.5
		c0.2,0,0.2-0.2,0.2-0.6c0-0.4,0.1-0.6,0.2-0.5c0.2,0,0.2,0,0.3-0.6c0-0.1,0.1-0.2,0.3-0.2c0.1,0,0.2-0.1,0.2-0.2
		c0-0.1,0.1-0.2,0.2-0.2c0.1,0,0.2-0.1,0.2-0.2c0-0.1,0.1-0.2,0.2-0.2c0.1,0,0.2-0.1,0.2-0.2c0-0.1,0.1-0.2,0.2-0.2
		c0.1,0,0.2-0.1,0.2-0.2c0-0.2,0.2-0.2,0.5-0.2c0.3,0,0.5-0.1,0.5-0.2c0-0.2,0.2-0.2,0.8-0.2c0.6,0,0.8-0.1,0.8-0.2
		c0-0.2,0.3-0.2,1.8-0.2S236.3,26.2,236.3,26.4 M174.3,27.4c0,0.2,0.2,0.2,0.5,0.2c0.3,0,0.5,0.1,0.5,0.2c0,0.2,0.2,0.2,0.5,0.2
		c0.3,0,0.5,0.1,0.5,0.2c0,0.1,0.1,0.2,0.2,0.2c0.1,0,0.2,0.1,0.2,0.2c0,0.1,0.1,0.2,0.2,0.2c0.1,0,0.2,0.1,0.2,0.2
		c0,0.1,0.1,0.2,0.2,0.2c0.1,0,0.2,0.1,0.2,0.2c0,0.1,0.1,0.2,0.2,0.2c0.2,0,0.2,0.2,0.2,0.5c0,0.3,0.1,0.5,0.2,0.5
		c0.2,0,0.2,0.2,0.2,0.5c0,0.3,0.1,0.5,0.2,0.5c0.2,0,0.2,0.2,0.2,0.9c0,0.7,0.1,0.9,0.2,1c0.2,0.1,0.2,0.5,0.2,2.6s0,2.6-0.2,2.6
		c-0.2,0.1-0.2,0.4-0.2,1c0,0.7-0.1,0.9-0.2,0.9c-0.2,0-0.2,0.2-0.2,0.5c0,0.3-0.1,0.5-0.2,0.5c-0.2,0-0.2,0.2-0.2,0.5
		c0,0.3-0.1,0.5-0.2,0.5c-0.1,0-0.2,0.1-0.2,0.2c0,0.1-0.1,0.2-0.2,0.2c-0.1,0-0.2,0.1-0.2,0.2c0,0.1-0.1,0.2-0.2,0.2
		c-0.1,0-0.2,0.1-0.2,0.2c0,0.1-0.1,0.2-0.2,0.2c-0.1,0-0.2,0.1-0.2,0.2c0,0.2-0.2,0.2-0.5,0.2c-0.3,0-0.5,0.1-0.5,0.2
		s-0.2,0.2-0.5,0.2c-0.3,0-0.6,0.1-0.7,0.2c-0.2,0.2-0.7,0.2-2.6,0.2c-2,0-2.3,0-2.3-0.2c0-0.2-0.2-0.2-0.8-0.2
		c-0.6,0-0.8-0.1-0.8-0.2c0-0.1-0.1-0.2-0.2-0.2c-0.1,0-0.3-0.1-0.3-0.2c-0.1-0.1-0.3-0.2-0.5-0.2c-0.3,0-0.4-0.1-0.4-0.2
		c0-0.1-0.1-0.2-0.2-0.2c-0.1,0-0.2-0.1-0.2-0.2c0-0.1-0.1-0.2-0.2-0.2c-0.1,0-0.2-0.1-0.2-0.2c0-0.1-0.1-0.2-0.2-0.2
		c-0.2,0-0.2-0.2-0.2-0.5c0-0.3-0.1-0.5-0.2-0.5c-0.2,0-0.2-0.2-0.2-0.5c0-0.3-0.1-0.5-0.2-0.5c-0.2,0-0.2-0.2-0.2-0.7
		c0-0.5-0.1-0.8-0.3-0.9c-0.3-0.3-0.3-6.1,0-6.1c0.1,0,0.2-0.3,0.2-0.7c0-0.8,0.1-1,0.4-0.9c0.1,0.1,0.1,0,0.1,0
		c-0.1-0.5,0-0.9,0.3-0.9c0.2,0,0.2-0.2,0.2-0.5c0-0.3,0.1-0.5,0.2-0.5c0.1,0,0.2-0.1,0.2-0.2c0-0.1,0.1-0.2,0.2-0.2
		c0.1,0,0.2-0.1,0.2-0.2c0-0.1,0.1-0.2,0.2-0.2c0.1,0,0.2-0.1,0.2-0.2c0-0.1,0.1-0.2,0.2-0.2c0.1,0,0.2-0.1,0.2-0.2
		c0-0.2,0.2-0.2,0.4-0.2c0.2,0,0.5-0.1,0.5-0.2c0.1-0.1,0.3-0.2,0.6-0.2c0.3,0,0.5-0.1,0.5-0.2c0-0.2,0.4-0.2,2.8-0.2
		S174.3,27.2,174.3,27.4"/>
</g>
<g>
	<path d="M263.9,52.3c-3.1-2.7-4.6-6.4-4.6-11.1v-0.6h6.4v0.8c0,3.1,0.9,5.5,2.8,7.1c1.9,1.6,4.5,2.5,8,2.5c3.5,0,6.3-0.8,8.3-2.4
		c2-1.6,3-3.9,3-7.1c0-3.3-1.1-5.6-3.2-7c-2.2-1.4-4.3-2.4-7.7-2.4h-3.5v-5.9l4.2,0c3.5-0.9,4.3-1.2,6.3-2.7c2-1.5,2.8-2.4,2.8-5.2
		c0-2.9-0.9-5.2-2.8-6.6c-1.9-1.5-4.2-2.2-7.1-2.2c-3,0-5.5,0.8-7.3,2.3c-1.8,1.5-2.8,3.8-2.8,6.8v0.7h-6.4V18
		c0-2.7,0.7-5.2,2.1-7.3c1.4-2.1,3.3-3.7,5.8-4.9c2.5-1.2,5.3-1.7,8.5-1.7c5,0,9,1.2,12,3.6c3,2.4,4.5,5.8,4.5,10.2
		c0,2.8-0.7,5.1-2.2,6.9c-1.4,1.8-3.5,3.3-6.1,4.5v0.3c2.8,0.8,5.1,2.3,6.8,4.4c1.7,2.1,2.5,4.8,2.5,8c0,2.9-0.7,5.5-2.2,7.7
		c-1.5,2.2-3.5,3.9-6.1,5c-2.6,1.2-5.6,1.7-9,1.7C271.4,56.4,267,55,263.9,52.3z"/>
	<path d="M303.5,51c-3.1-3.8-4.6-10.2-4.6-19.2c0-6.8,0.7-12.3,2-16.4c1.4-4.1,3.3-7,6-8.8c2.6-1.8,6-2.7,10-2.7
		c5.1,0,8.9,1.5,11.3,4.4c2.5,2.9,3.7,6.7,3.7,11.5h-6.5c0-3.4-0.7-6-2.2-7.7c-1.5-1.8-3.7-2.7-6.7-2.7c-4.2,0-7,1.6-8.6,4.8
		c-1.6,3.2-2.4,8-2.5,14.5c1.5-1.8,3.2-3.2,5.4-4.1c2.2-1,4.5-1.5,7.1-1.5c5.1,0,9,1.6,11.7,4.7c2.7,3.2,4.1,7.2,4.1,12.2
		c0,3.4-0.7,6.3-2.1,8.9c-1.4,2.6-3.4,4.5-5.9,5.9c-2.5,1.4-5.3,2-8.5,2C311.1,56.7,306.5,54.8,303.5,51z M324.4,48
		c1.8-2.2,2.6-5,2.6-8.4c0-3.3-0.9-6-2.6-8.1c-1.8-2.1-4.4-3.1-7.8-3.1s-6,1.1-7.8,3.2c-1.8,2.2-2.7,4.9-2.7,8.3
		c0,3.3,0.9,6.1,2.7,8.2c1.8,2.1,4.4,3.2,7.8,3.2S322.7,50.2,324.4,48z"/>
	<path d="M345.4,53.2c-2.4-1.5-4.3-4.1-5.6-7.9c-1.3-3.7-1.9-8.8-1.9-15.3c0-6.5,0.6-11.6,1.9-15.3c1.3-3.7,3.1-6.3,5.6-7.9
		c2.4-1.5,5.5-2.3,9.1-2.3c3.6,0,6.7,0.8,9.1,2.3c2.4,1.5,4.3,4.1,5.6,7.9c1.3,3.7,1.9,8.8,1.9,15.3c0,6.5-0.6,11.6-1.9,15.3
		c-1.3,3.7-3.2,6.3-5.6,7.9c-2.4,1.5-5.5,2.3-9.1,2.3C350.8,55.4,347.8,54.7,345.4,53.2z M360.9,48c1.5-1.5,2.6-3.6,3.1-6.5
		c0.6-2.8,0.9-6.4,0.9-10.8V30c0-4.5-0.3-8.3-0.9-11.2c-0.6-2.9-1.6-5.2-3.1-6.7c-1.5-1.6-3.6-2.3-6.3-2.3c-2.7,0-4.8,0.7-6.3,2.2
		c-1.5,1.5-2.6,3.6-3.1,6.5c-0.6,2.8-0.9,6.4-0.9,10.8V30c0,4.5,0.3,8.3,0.9,11.2c0.6,2.9,1.6,5.2,3.1,6.7c1.5,1.6,3.6,2.3,6.3,2.3
		C357.2,50.2,359.3,49.4,360.9,48z"/>
</g>
<path d="M387.4,4.8c-6.2,0-11.3,5.1-11.3,11.3c0,6.2,5.1,11.3,11.3,11.3c6.2,0,11.3-5.1,11.3-11.3C398.7,9.9,393.6,4.8,387.4,4.8z
	 M387.4,22.6c-3.6,0-6.5-2.9-6.5-6.5s2.9-6.5,6.5-6.5s6.5,2.9,6.5,6.5S390.9,22.6,387.4,22.6z"/>
</svg>
