<?xml version="1.0" encoding="utf-8"?>
<!-- Generator: Adobe Illustrator 25.4.1, SVG Export Plug-In . SVG Version: 6.00 Build 0)  -->
<svg version="1.1" id="svg" xmlns="http://www.w3.org/2000/svg" xmlns:xlink="http://www.w3.org/1999/xlink" x="0px" y="0px"
	 viewBox="0 0 400 85.8" style="enable-background:new 0 0 400 85.8;" xml:space="preserve">
<style type="text/css">
	.st0{fill-rule:evenodd;clip-rule:evenodd;fill:#5B6062;}
	.st1{fill-rule:evenodd;clip-rule:evenodd;fill:#D41218;}
</style>
<path class="st0" d="M3.7,0.3C1.8,0.7,0.6,2,0.6,3.7S1.8,6.4,5,7.1c2.3,0.5,3,1.1,2.7,2.4c-0.6,2.3-5,2.1-5.5-0.2
	C2,8.9,2,8.9,1.2,8.9H0.4l0.1,0.7C1,13.8,9,13.5,9.4,9.3c0.2-2.1-0.6-2.9-4.3-3.8C2.5,4.7,2,4.3,2.3,3c0.5-1.9,5.1-1.9,5.1,0
	c0,0.3,0.1,0.3,0.9,0.3c0.5,0,0.9-0.1,0.9-0.1C9.1,1.1,6.4-0.3,3.7,0.3"/>
<g>
	<path class="st0" d="M27.4,0.3C26.4,0.7,26,1.4,26,3v1h-0.8h-0.8v0.5V5h0.8H26v3.6v3.6h0.8h0.8V8.7V5.1h1h1V4.5V4h-1h-1V3.1
		c0-1.2,0.2-1.5,1.3-1.5h0.8V1C29.6,0.1,28.7-0.1,27.4,0.3"/>
	<path class="st0" d="M103.7,0.3c-2,0.4-3.2,1.6-3.2,3.3c0,1.9,1.2,2.8,5,3.6c3.2,0.7,2.8,3.7-0.5,3.9c-1.9,0.1-2.7-0.4-2.9-1.6
		L102,8.9h-0.9h-0.9l0.1,0.6c0.4,2.3,2.3,3.4,5.3,3c2.4-0.3,3.7-1.5,3.7-3.6c0-1.9-0.7-2.5-4.1-3.4c-2.7-0.8-3.1-1-3.1-2.1
		c0-2,4.2-2.5,5-0.6l0.2,0.5h0.8h0.8l-0.1-0.5C108.7,0.9,106.3-0.2,103.7,0.3"/>
	<polyline class="st0" points="247,1.2 247,2 248,2 249,2 249,1.2 249,0.4 248,0.4 247,0.4 247,1.2 	"/>
	<polyline class="st0" points="294.4,6.3 294.4,12.3 295.2,12.3 295.9,12.3 295.9,6.3 295.9,0.4 295.2,0.4 294.4,0.4 294.4,6.3 	"/>
	<polyline class="st0" points="311.9,1.2 311.9,2 312.8,2 313.7,2 313.7,1.2 313.7,0.4 312.8,0.4 311.9,0.4 311.9,1.2 	"/>
	<path class="st0" d="M33.9,2l-0.7,0.2v0.9V4h-0.7h-0.7v0.5V5h0.7h0.7v3.2c0.1,4.1,0.3,4.5,2.7,4.2l0.7-0.1v-0.6v-0.6H36
		c-0.5,0-0.7,0-1-0.3l-0.4-0.4V7.6V4.8h0.9h0.9V4.5V4h-1h-0.9V2.9V1.8L33.9,2"/>
	<path class="st0" d="M135.8,2l-0.6,0.2v0.9V4h-0.8h-0.8v0.5V5h0.7h0.7v3.1c0,3.9,0.1,4,1.6,4.2c1.2,0.2,1.7,0,1.7-0.6v-0.5h-0.6
		c-1.2,0-1.2,0-1.2-3.4V5.1h1h1V4.5V4h-1h-1V2.9c0-0.6,0-1.1-0.1-1.1C136.5,1.8,136.2,1.9,135.8,2"/>
	<path class="st0" d="M236.2,0.4l-2.8-0.1v6v6l2.8-0.1c5-0.1,6.8-1.7,6.8-5.9S241.2,0.5,236.2,0.4z M239,10.6
		c-0.4,0.2-1,0.2-2.3,0.2h-1.8V6.4c0-2.4,0-4.5,0-4.6c0.1-0.3,3.5-0.2,4.3,0.2C242.1,3.7,242,9.3,239,10.6z"/>
	<path class="st0" d="M287.8,2l-0.7,0.2v0.9V4h-0.7h-0.7v0.5V5h0.7h0.7v3.2c0.1,4.1,0.3,4.5,2.7,4.2l0.7-0.1v-0.6v-0.6h-0.6
		c-0.5,0-0.7,0-1-0.3l-0.4-0.4V7.6V4.8h0.9h0.9V4.5V4h-1h-0.9V2.9V1.8L287.8,2"/>
	<path class="st0" d="M329.5,2l-0.6,0.2v0.9V4h-0.8h-0.8v0.5V5h0.7h0.7v3.1c0,3.9,0.1,4,1.6,4.2c1.2,0.2,1.7,0,1.7-0.6v-0.5h-0.6
		c-1.2,0-1.2,0-1.2-3.4V5.1h1h1V4.5V4h-1h-1V2.9c0-0.6,0-1.1-0.1-1.1C330.2,1.8,329.9,1.9,329.5,2"/>
	<path class="st0" d="M125.8,4.1c-1.2,0.6-1.7,1.5-1.5,2.6c0.2,1,1,1.6,3.3,2c1.7,0.4,2.2,1.1,1.3,2c-0.9,1-3.2,0.6-3.2-0.6
		c0-0.3,0-0.3-0.8-0.3c-0.9,0-1,0.2-0.6,1.1c1,2.3,5.9,1.9,6.5-0.4c0.5-1.7-0.6-2.7-3.6-3.3c-1.3-0.3-1.7-1.1-0.9-1.9
		c0.8-0.8,2.7-0.4,2.7,0.6c0,0.3,0,0.3,0.8,0.3s0.8,0,0.8-0.3C130.7,4.3,127.8,3.2,125.8,4.1"/>
	<path class="st0" d="M156.3,4c-0.2,0.1-0.6,0.4-0.9,0.7L155,5.2V4.6V3.9h-0.7h-0.7V8v4.1h0.7h0.7V9.2c0.1-3.4,0.2-3.8,1.4-4.3
		c2.1-0.8,2.6,0.1,2.7,4.3v2.9h0.8h0.8V9.7c0-3.6,0.3-4.4,1.7-4.7c1.9-0.4,2.4,0.6,2.4,4.6v2.7h0.8h0.8V9.1c0-3,0-3.2-0.3-3.8
		c-0.9-1.7-3.7-2.1-5.1-0.6l-0.5,0.5l-0.3-0.4C159.5,4,157.3,3.5,156.3,4"/>
	<path class="st0" d="M204.7,4c-0.3,0.1-0.7,0.4-1,0.7l-0.5,0.5V4.6V3.9h-0.7h-0.7V8v4.1h0.8h0.8V9.5c0-3.5,0.2-4,1.5-4.4
		c2-0.6,2.6,0.3,2.6,4.5v2.8h0.8h0.8V9.2c0-3.5-0.1-3.9-0.8-4.6C207.3,3.8,205.8,3.6,204.7,4"/>
	<path class="st0" d="M267.7,4c-0.3,0.1-0.7,0.4-0.9,0.7l-0.5,0.5V4.6V4h-0.8h-0.8v4.2v4.2h0.8h0.8V9.9c0-1.3,0.1-2.7,0.1-3.1
		c0.3-1.7,2.2-2.5,3.5-1.4l0.4,0.4V9v3.2h0.8h0.8V8.9c-0.1-3.7-0.1-3.9-1-4.5C270.2,3.8,268.6,3.6,267.7,4"/>
	<path class="st0" d="M278,4c-1.2,0.5-1.8,1.1-1.8,2.3c0,1.4,0.6,1.8,3,2.4c1.5,0.4,1.9,0.7,1.9,1.3c0,1.7-3.1,1.9-3.5,0.1
		c-0.1-0.3-1.7-0.5-1.7-0.2c0,2.8,5,3.6,6.5,1.1c1-1.6,0.1-2.9-2.7-3.6c-2-0.5-2.3-0.8-1.9-1.8c0.5-1.2,3.1-0.9,3.1,0.3
		c0,0.2,0.1,0.3,0.8,0.3c1,0,1-0.1,0.5-1.1C281.8,4,279.5,3.4,278,4"/>
	<path class="st0" d="M319.5,4.1c-1.2,0.6-1.7,1.5-1.5,2.6c0.2,1,1,1.6,3.3,2c1.7,0.4,2.2,1.1,1.3,2c-0.9,1-3.2,0.6-3.2-0.6
		c0-0.3,0-0.4-0.8-0.4s-0.8,0-0.8,0.3c0,3,6,3.2,6.7,0.2c0.4-1.6-0.7-2.5-3.6-3.1c-1.3-0.3-1.7-1.1-0.9-1.9c0.8-0.8,2.7-0.4,2.7,0.6
		c0,0.3,0,0.3,0.8,0.3s0.8,0,0.8-0.3C324.3,4.3,321.5,3.2,319.5,4.1"/>
	<path class="st0" d="M351,4c-0.3,0.1-0.7,0.4-0.9,0.7l-0.5,0.5V4.6V4h-0.8H348v4.2v4.2h0.8h0.8V9.9c0-1.3,0.1-2.7,0.1-3.1
		c0.3-1.7,2.2-2.5,3.5-1.4l0.4,0.4V9v3.2h0.8h0.8V8.9c-0.1-3.7-0.1-3.9-1-4.5C353.5,3.8,352,3.6,351,4"/>
	<path class="st0" d="M386.1,4c-0.3,0.1-0.7,0.4-0.9,0.7l-0.5,0.5V4.6V3.9L384,4h-0.7v4.1v4.1h0.7h0.7l0.1-2.8
		c0.1-2.3,0.1-2.9,0.3-3.3c0.8-1.4,2.7-1.7,3.6-0.4c0.3,0.4,0.3,0.6,0.3,3.4v3.1h0.7h0.7v-3c0-3.5-0.1-3.9-0.8-4.6
		C388.8,3.9,387.2,3.6,386.1,4"/>
	<path class="st0" d="M39.3,4.1c0,0.1,0.6,2,1.3,4.2l1.3,4h0.9h0.9l1.1-3.4C45.4,7,45.9,5.5,46,5.5s0.5,1.5,1,3.4l0.9,3.3h0.9h0.9
		l1.4-4C51.9,6,52.5,4.1,52.6,4c0,0-0.2,0-0.8,0H51l-1,3.2c-0.6,1.8-1,3.2-1.1,3.2c0,0-0.5-1.5-1-3.2L47,4h-1h-1l-1,3.3
		c-0.6,1.8-1.1,3.3-1.1,3.3s-0.5-1.5-1-3.3l-1-3.3h-0.8C39.5,4,39.3,4,39.3,4.1"/>
	<path class="st0" d="M67.4,4.1c-0.1,0.1-0.1,1.9-0.1,4.2v4.1H68h0.7l0.1-2.7C68.9,6,69.2,5.5,71,5.4l0.8-0.1V4.6V4h-0.6
		c-0.8,0-1.6,0.4-2,1.1l-0.3,0.5V4.8V4h-0.7C67.8,4,67.5,4,67.4,4.1"/>
	<path class="st0" d="M112.7,4.1c0,0.1,0.7,1.9,1.6,4.1c1.9,4.5,1.8,3.9,1.1,5.6c-0.7,1.7-0.7,1.6,0.2,1.6h0.7l2.4-5.6
		c2.8-6.5,2.6-5.8,1.7-5.8s-0.8-0.2-2.2,3.4c-0.7,1.7-1.2,3-1.3,3c0,0-0.7-1.4-1.4-3.2L114.3,4h-0.8C113,4,112.7,4,112.7,4.1"/>
	<path class="st0" d="M189.8,7.2c0,3.4,0.1,3.8,0.7,4.6c1,1.1,3.3,1,4.3-0.2c0.5-0.5,0.6-0.5,0.6,0.2v0.5h0.7h0.7V8.1V3.9h-0.7h-0.7
		l-0.1,2.9c-0.1,3.7-0.4,4.4-2.1,4.5c-1.7,0-1.8-0.3-1.9-4.2V4h-0.7h-0.7v3.2"/>
	<path class="st0" d="M247.3,4c-0.1,0.1-0.1,1.9-0.1,4.2v4.1h0.8h0.8V8.2V4.1h-0.7C247.7,4,247.3,4,247.3,4"/>
	<polyline class="st0" points="312.1,8.1 312.1,12.3 312.8,12.3 313.6,12.3 313.6,8.1 313.6,4 312.8,4 312.1,4 312.1,8.1 	"/>
	<path class="st0" d="M336.2,4.1c-0.2,0.2-0.1,5.8,0.1,6.5c0.6,2.1,3.5,2.6,5,0.9l0.4-0.5v0.6v0.6h0.8h0.8V8.1V4h-0.8h-0.8v2.5
		c0,3.6-0.3,4.6-1.7,4.9c-1.9,0.4-2.3-0.5-2.4-4.9V4h-0.7C336.6,4,336.2,4,336.2,4.1"/>
	<path class="st0" d="M220.3,0.4h-0.8v2.3V5l-0.3-0.4c-1-1.2-3.7-1.2-4.9,0.1c-1.4,1.6-1.5,4.8-0.1,6.6c1.1,1.4,3.7,1.4,4.9,0.1
		l0.3-0.4l0.1,0.6l0.1,0.6h0.7h0.7V6.3V0.4H220.3z M218.7,10.8c-1.3,1.3-3.1,0.7-3.6-1.2c-0.9-3.1,1-5.7,3.2-4.5
		C219.7,5.9,219.9,9.5,218.7,10.8z"/>
	<path class="st0" d="M19.2,4.3c-1-0.5-2.8-0.6-3.9-0.2c-3.2,1.3-3.2,6.9,0.1,8.2c0.7,0.3,2.3,0.3,3.1,0.1
		C21.7,11.4,22.2,5.9,19.2,4.3z M17.6,11.3c-2.2,0.4-3.6-1.9-2.9-4.6c0.4-1.5,2.1-2.3,3.4-1.6C20.3,6.2,19.9,10.9,17.6,11.3z"/>
	<path class="st0" d="M81.5,9.7c-0.6,0-0.8,0-0.8,0.2c0,0.8-0.9,1.5-1.9,1.5c-1.2,0-2-0.8-2.2-2.2l-0.1-0.8h3h3l-0.1-1
		C82.2,4.6,79.9,3,77.3,4c-3.1,1.2-3.1,7.4,0,8.3c2.1,0.6,4.3-0.2,4.8-1.9C82.4,9.7,82.4,9.7,81.5,9.7z M76.8,6.3
		c0.5-1.3,1.9-1.8,3-1.1c0.5,0.3,1,1.2,1,1.8v0.4h-2.1C76.3,7.4,76.4,7.4,76.8,6.3z"/>
	<path class="st0" d="M149.3,8.5V7.7c0-3-2.6-4.7-5.3-3.5c-2.8,1.3-2.9,6.6-0.2,8c2.2,1.1,5.3-0.2,5.4-2.2c0-0.5-1.5-0.3-1.7,0.3
		c-0.7,2.1-3.7,1.4-4-1l-0.1-0.7h3h2.9V8.5z M143.4,7.4l0.1-0.4c0.4-1.8,2.3-2.7,3.4-1.6c0.4,0.4,0.7,1.1,0.7,1.6v0.4h-2.1H143.4z"
		/>
	<path class="st0" d="M174.9,8.5c3.3,0,3.1,0.1,2.9-1.5c-0.4-2.5-2.6-3.8-5-3c-2.9,1.1-3.3,6.7-0.6,8.1c2.1,1.1,5,0,5.5-2l0.1-0.4
		H177c-0.5,0-0.8,0.1-0.8,0.2c0,0.4-0.5,1.1-0.9,1.3c-1.5,0.8-3.2-0.3-3.2-2.1V8.5H174.9z M172.1,7c0-1.6,1.9-2.6,3.2-1.8
		c0.5,0.3,0.8,0.8,0.9,1.6l0.1,0.6h-2.1h-2.1L172.1,7L172.1,7z"/>
	<path class="st0" d="M259.6,9.7h-0.8l-0.2,0.6c-0.7,2-3.7,1.3-3.9-1l-0.1-0.8h3h3l-0.1-1c-0.2-2.8-2.5-4.3-5.1-3.4
		c-3.1,1.2-3.1,7.4,0,8.3c2,0.6,4-0.1,4.7-1.6C260.6,9.7,260.6,9.7,259.6,9.7z M254.9,6.4c0.4-1.3,2-1.9,3.1-1.2
		c0.5,0.3,1,1.2,1,1.8v0.4h-2.1C254.5,7.4,254.5,7.4,254.9,6.4z"/>
	<path class="st0" d="M307.7,8.5v-1c0-2.8-2.3-4.4-5-3.5c-3.2,1.1-3.3,7.2-0.2,8.3c2,0.7,4.4-0.3,4.9-2l0.2-0.6h-0.8H306l-0.3,0.6
		c-0.9,2-3.7,1.3-3.9-1l-0.1-0.8h2.9H307.7z M301.9,7.4V7c0-1.5,1.7-2.5,3.1-1.8c0.5,0.3,0.9,0.9,1,1.7l0.1,0.5H304
		C304,7.4,301.9,7.4,301.9,7.4z"/>
	<path class="st0" d="M366.6,4h-0.8v0.6v0.6l-0.4-0.5c-0.7-0.9-2.2-1.2-3.5-0.8c-2.2,0.7-3.1,4.2-1.8,6.5c0.9,1.7,3.8,2.1,5.2,0.7
		l0.5-0.5l-0.1,1.1c0,0.7-0.1,1.3-0.3,1.6c-0.7,1.4-3.3,1.4-3.7,0c-0.2-0.6-1.7-0.7-1.7-0.1c0,3,6,3,7.1,0c0.1-0.4,0.2-1.7,0.2-4.9
		l0.1-4.4h-0.8V4z M364.8,10.5c-1.1,1-3,0.4-3.5-1.1c-1-2.8,1.2-5.6,3.3-4.2C366.1,6.2,366.2,9.4,364.8,10.5z"/>
	<path class="st0" d="M376,8.5h2.9V7.8c0-2.9-2.4-4.7-5.1-3.8c-3.2,1.1-3.2,7.3-0.1,8.3c2.2,0.7,5-0.7,5-2.5c0-0.4-1.6-0.1-1.7,0.3
		c-0.5,2.4-4.1,1.4-4.1-1.2V8.5H376z M373.3,6.3c0.5-1.3,1.9-1.8,3-1.1c0.6,0.4,0.8,0.8,0.9,1.6l0.1,0.6h-2.1
		C372.8,7.4,372.9,7.4,373.3,6.3z"/>
	<path class="st0" d="M62.6,9.1c0-4.1-0.2-4.6-1.8-5.1c-0.6-0.2-2.4-0.2-3.1,0c-0.7,0.2-1.2,0.7-1.4,1.3C56,6.1,56,6.1,56.9,6.1
		c0.6,0,0.8,0,0.8-0.2c0-0.5,0.6-0.9,1.3-1c1.4-0.1,2,0.5,2,1.8v0.5h-1.5c-3.1,0.1-4.7,1.9-3.6,3.9c0.8,1.6,3.9,1.8,4.8,0.3
		c0.3-0.4,0.5-0.3,0.5,0.3v0.5h0.7h0.7L62.6,9.1z M61,9c-0.2,2.3-2.8,3.4-3.6,1.6c-0.6-1.4,0.5-2.3,2.8-2.4h0.9L61,9z"/>
	<path class="st0" d="M87.1,10.6c0,0.1-0.3,1-0.5,2l-0.5,1.8h0.6h0.6l0.9-1.8c0.5-1,0.9-1.9,0.9-1.9C88.9,10.3,87.1,10.4,87.1,10.6"
		/>
	<path class="st1" d="M271.4,27c-6.5,1.1-10.7,5.1-11.5,10.9c-0.9,6.6,2.5,12.3,8.7,14.2c4.1,1.3,9.9,0.9,13.9-0.9l1-0.5v-3.4
		c0-1.8,0-3.4-0.1-3.4c0,0-0.6,0.3-1.3,0.6c-6.5,3-12.6,1.3-13.4-3.8c-1-6.2,6-9.3,12.9-5.8c0.9,0.4,1.6,0.8,1.7,0.8
		s0.1-1.6,0.1-3.6v-3.7l-1.2-0.4C279.3,26.9,274.4,26.5,271.4,27"/>
	<polyline class="st1" points="0,39.8 0,52.2 4.3,52.2 8.6,52.2 8.6,47.3 8.7,42.4 13.1,42.4 17.5,42.3 17.5,39.7 17.5,37.1 
		13,37.1 8.6,37.1 8.6,34.9 8.7,32.7 13.3,32.7 18,32.6 18,30 18,27.5 9,27.5 0,27.5 0,39.8 	"/>
	<polyline class="st1" points="63,39.8 63,52.2 67.3,52.2 71.6,52.2 71.6,39.8 71.6,27.5 67.3,27.5 63,27.5 63,39.8 	"/>
	<polyline class="st1" points="81,30.5 81,33.6 84.9,33.6 88.8,33.6 88.8,42.9 88.8,52.2 93.1,52.2 97.4,52.2 97.4,42.9 97.4,33.6 
		101.3,33.6 105.2,33.6 105.2,30.5 105.2,27.5 93.1,27.5 81,27.5 81,30.5 	"/>
	<path class="st1" d="M113.1,30.4v2.9h6.5h6.5l-6.2,9.2c-3.4,5-6.2,9.3-6.3,9.4c-0.1,0.2,0.5,0.2,12.7,0.2h12.8v-2.9v-2.9H133h-6.1
		l6.1-9c3.3-5,6.2-9.2,6.3-9.4l0.2-0.4h-13.3h-13.3v2.9"/>
	<path class="st1" d="M186.3,39.8v12.4h4.4h4.4L195,50c-0.1-3.6-0.2-11.2-0.2-11.2s1.5,2,3.4,4.5c1.8,2.5,3.3,4.5,3.3,4.5
		s1.5-2,3.3-4.5s3.3-4.5,3.4-4.5c0.1,0-0.1,10.4-0.2,12.1l-0.1,1.3h4.4h4.4V39.8V27.5h-3.9h-3.9l-3.7,5c-2,2.7-3.7,5-3.7,5
		s-1.7-2.2-3.7-5l-3.7-5h-3.9h-3.9L186.3,39.8"/>
	<path class="st1" d="M291.3,30.4v2.9h6.4c3.5,0,6.4,0,6.4,0.1s-9.8,14.7-12.2,18.2l-0.4,0.6h12.8h12.8v-2.9v-2.9H311h-6.1l6.3-9.3
		c3.4-5.1,6.3-9.3,6.3-9.4s-5.9-0.1-13.2-0.1h-13.2v2.8"/>
	<polyline class="st1" points="326.8,39.8 326.8,52.2 331.1,52.2 335.4,52.2 335.4,39.8 335.4,27.5 331.1,27.5 326.8,27.5 
		326.8,39.8 	"/>
	<polyline class="st1" points="381.6,39.8 381.6,52.2 390.8,52.2 400,52.2 400,49.1 400,46 395.1,46 390.2,46 390.2,36.7 
		390.2,27.5 385.9,27.5 381.6,27.5 381.6,39.8 	"/>
	<path class="st1" d="M55,51.3c-3.9-8.7-4.5-9.8-5.9-10.7c-0.8-0.5-0.8-0.4,0.2-1c4.2-2.4,3.9-8.7-0.5-11c-2.3-1.2-3.6-1.3-12.8-1.3
		h-7.3v12.4V52H33h4.3v-5.1v-5.1h1.6c3,0,3.9,1,6.4,6.7c0.6,1.4,1.2,2.8,1.3,3.1l0.2,0.4H51h4.2L55,51.3z M41.9,37.6
		c-0.4,0.2-1.2,0.2-2.6,0.3l-2,0.1v-3.4v-3.4l2,0.1c1.3,0,2.2,0.1,2.6,0.3C44.9,32.6,44.9,36.5,41.9,37.6z"/>
	<path class="st1" d="M250.2,39.6l-5.6-12.3h-4.5h-4.5l-0.3,0.5c-0.2,0.4-9.4,20.6-10.7,23.4l-0.4,0.9h4.3h4.3l0.8-2l0.8-2h5.7h5.6
		l0.8,1.9l0.8,1.9h4.3c2.3,0,4.3,0,4.3-0.1C255.8,51.9,253.3,46.4,250.2,39.6z M240,43.7c-2.1,0-3.8-0.1-3.8-0.1
		c0-0.3,3.8-9.7,3.8-9.6c0.1,0.1,0.9,2.2,1.9,4.8s1.8,4.7,1.8,4.8C243.8,43.7,242.8,43.7,240,43.7z"/>
	<path class="st1" d="M372.9,38.6c-0.6-8.1-7.1-13-15.9-12c-7.1,0.8-11.5,5.7-11.5,12.8c0,6.9,4,11.7,10.6,12.8
		C366,53.9,373.5,47.8,372.9,38.6z M360.7,44.9c-4.1,1.2-7.3-2.4-6.3-7c0.7-3.2,3.9-4.8,6.8-3.5C365.3,36.2,364.9,43.6,360.7,44.9z"
		/>
	<path class="st0" d="M178.6,46.4c-0.2-0.2-0.3-0.2-0.5-0.1c-1.2,1-2.8,0.9-4.4-0.3l-0.8-0.6l1.2-1.2c1.4-1.5,3.5-4.4,3.5-4.9
		c0-0.1-1.1-0.1-3-0.1h-3L171,40c-0.3,0.5-0.8,1.1-1.1,1.5l-0.5,0.6l-1.7-1.6c-1.9-1.8-1.8-1.6-0.9-2c5.5-2.8,4.5-9.7-1.6-11.2
		c-1.2-0.3-3.3-0.4-4.5-0.3c-6.9,0.9-9.6,6.6-5.4,11.2l0.9,1l-1,0.6c-5.8,3.4-5.3,10.3,0.9,12c3.4,1,8.4,0.2,11.4-1.9l0.4-0.3l1,0.9
		c3,2.8,5.1,2.2,8.9-2.6C178.8,46.7,178.8,46.7,178.6,46.4z M163.4,47.1c-2.7,1.8-5.9,0.9-5.9-1.8c0-1.5,1.5-3.4,2.2-2.8
		c0.1,0.1,1.2,1,2.3,2C164.6,46.7,164.5,46.4,163.4,47.1z M163.7,35.5c-1.1,0.7-1.7,0.6-3-0.9c-2-2.2,0.3-4.8,3.1-3.5
		C165.8,32,165.7,34.2,163.7,35.5z"/>
	<path class="st0" d="M347.8,60.5c-1.3,0.2-2.2,0.8-2.9,1.8l-0.5,0.7v-1.1v-1.1h-2.3h-2.3v8.7v8.7h2.5h2.5v-5.5c0-7.4,0.3-8,3.6-8
		h0.8v-2.2C349,60.2,349.1,60.3,347.8,60.5"/>
	<path class="st0" d="M368.8,68.4c0,6.9,0.1,7.7,0.3,8c1.4,2.6,6,2.9,7.8,0.5l0.3-0.5v0.9v0.9h2.5h2.5l-0.1-1c0-0.6-0.1-4.5-0.1-8.7
		v-7.7h-2.5H377v6.7c0,8.1,0,8-1.8,8s-1.8,0-1.9-8v-6.7h-2.4h-2.4L368.8,68.4"/>
	<polyline class="st0" points="0.4,64 0.4,65.6 159.1,65.6 317.8,65.6 317.8,64 317.8,62.4 159.1,62.4 0.4,62.4 0.4,64 	"/>
	<path class="st0" d="M333.5,60.8h-2.3v1.1V63l-0.4-0.6c-0.9-1.5-2.9-2.2-4.9-1.7c-3,0.7-3.7,2.5-3.8,8.8c0,4.4,0.1,4.9,0.8,6.4
		c1.3,2.6,6,3,7.7,0.6l0.3-0.5v2.2c0,1.2-0.1,2.4-0.2,2.7c-0.6,2.2-3.7,1.8-3.7-0.5v-0.5h-2.4h-2.4l0.1,0.7c0.3,2.9,2.2,4.2,6,4.4
		c4.3,0.2,6.8-1.3,7.3-4.6c0.1-0.4,0.1-4.9,0.1-10.2v-9.4C335.7,60.8,333.5,60.8,333.5,60.8z M329.9,74.6c-0.9,0.7-2.2,0.3-2.8-0.9
		c-0.6-1.3-0.5-8.2,0.2-9.5c0.4-0.9,1.6-1.2,2.4-0.7c0.9,0.6,1.1,1.3,1.1,5.5C330.8,73.3,330.7,74,329.9,74.6z"/>
	<path class="st0" d="M399.2,63.6c-0.8-2.5-3-3.7-5.6-3.1c-1.2,0.3-2.2,1-2.7,1.9c-0.1,0.2-0.2,0.1-0.2-0.7v-1h-2.3h-2.3v12.5v12.5
		h2.4h2.4v-4.6c0-2.5,0-4.6,0-4.6s0.4,0.3,0.8,0.7c2,1.9,5.7,1.5,7-0.8C399.9,74.6,400.2,66.6,399.2,63.6z M392.9,75.5
		c-1.4,0-1.7-0.8-1.9-4.3c-0.4-6.4,0.7-9.1,3-7.6c0.8,0.6,0.9,1.1,0.9,5.5C394.9,74.7,394.6,75.5,392.9,75.5z"/>
	<path class="st0" d="M363.3,62.1c-1.3-1.3-4.1-2-6.8-1.6c-4.4,0.6-5.9,3.5-5.5,10.7c0.3,5.4,2.2,7.4,7,7.4c5.4,0,7.1-2.2,7.1-9.2
		C365.1,65.1,364.7,63.5,363.3,62.1z M360.2,69.9c-0.1,4.7-0.4,5.6-2.1,5.6c-1.9,0-2.3-1.3-2.3-6.4c0-3.4,0.3-4.8,1.3-5.3
		c0.6-0.3,1.6-0.3,2.1,0.1C360.1,64.4,360.3,65.4,360.2,69.9z"/>
</g>
</svg>
