<?xml version="1.0" encoding="utf-8"?>
<!-- Generator: Adobe Illustrator 25.4.1, SVG Export Plug-In . SVG Version: 6.00 Build 0)  -->
<svg version="1.1" id="Layer_1" xmlns="http://www.w3.org/2000/svg" xmlns:xlink="http://www.w3.org/1999/xlink" x="0px" y="0px"
	 viewBox="0 0 1069.5 412.9" style="enable-background:new 0 0 1069.5 412.9;" xml:space="preserve">
<style type="text/css">
	.st0{fill-rule:evenodd;clip-rule:evenodd;fill:#006DB7;}
</style>
<g>
	<circle class="st0" cx="309.4" cy="270.8" r="28.8"/>
	<path class="st0" d="M943.4,144.7c-64.6,0-117.8,48.5-125.2,111c-7.5-62.6-60.7-111-125.2-111V51h-28.8v219.8
		c0,15.9,12.9,28.8,28.8,28.8c15.9,0,28.8-12.9,28.8-28.8c0-15.9-12.9-28.8-28.8-28.8v-68.6c53.8,0,97.3,43.6,97.3,97.3
		c0,53.8-43.6,97.3-97.3,97.3c-53.8,0-97.3-43.6-97.3-97.3V51h-28.8v93.7h-7.7c-63.8,0-116.7,47.8-124.7,109.8
		c-8-62-61-109.8-125.1-109.8c-12.5,0-24.6,1.8-36,5.2v-1.6c-0.1-69.6-56.5-126.1-126.1-126.1c-69.5,0-125.9,56.5-126.1,126v245H50
		V148.3C50.2,94.6,93.7,51,147.3,51c53.7,0,97.2,43.7,97.2,97.3h-68.4c0-15.9-12.9-28.8-28.8-28.8c-15.9,0-28.8,12.9-28.8,28.8v28.8
		H225c-18.8,16.9-32.5,39.4-38.4,64.9h-67.9l-0.2,151.2h29.1V270.8h35.7c0,69.6,56.5,126.1,126.1,126.1c61.8,0,113.2-44.5,124-103.1
		v99.4h126.4V270.7h7.1v0.1c0,69.7,56.5,126.1,126.1,126.1c64.6,0,117.8-48.5,125.2-111c7.5,62.5,60.7,111,125.2,111
		c69.7,0,126.1-56.5,126.1-126.1C1069.5,201.1,1013,144.7,943.4,144.7z M309.5,368.1c-53.8-0.1-97.3-43.6-97.3-97.3
		c0-53.7,43.5-97.3,97.3-97.3c53.7,0,97.3,43.5,97.3,97.3C406.8,324.5,363.3,368.1,309.5,368.1z M559.8,241.9
		c-15.9,0-28.8,12.9-28.8,28.8v93.7h-68.7v-93.7c0-53.7,43.4-97.2,96.9-97.2h0.6h7.1v68.4H559.8z M943.4,368.1
		c-53.7-0.1-97.3-43.6-97.3-97.3c0-53.7,43.5-97.3,97.3-97.3c53.7,0,97.3,43.5,97.3,97.3C1040.7,324.5,997.2,368.1,943.4,368.1z"/>
	<circle class="st0" cx="943.4" cy="270.8" r="28.8"/>
</g>
</svg>
