<?xml version="1.0" encoding="utf-8"?>
<!-- Generator: Adobe Illustrator 25.4.1, SVG Export Plug-In . SVG Version: 6.00 Build 0)  -->
<svg version="1.1" id="Layer_1" xmlns="http://www.w3.org/2000/svg" xmlns:xlink="http://www.w3.org/1999/xlink" x="0px" y="0px"
	 viewBox="0 0 1920 1080" style="enable-background:new 0 0 1920 1080;" xml:space="preserve">
<style type="text/css">
	.st0{fill-rule:evenodd;clip-rule:evenodd;fill:#E63027;}
</style>
<g>
	<path class="st0" d="M159.9,831.9H39.1c0,0,22.7-11.4,22.7-33.1c0-9.3,0-342.9,0-359.4c0-24.8-22.7-31-22.7-31h253.1v71.3
		c0,0-6.2-23.8-25.8-23.8c-16.5,0-129.1,0-129.1,0v116.7h131.2v65.1c0,0-4.1-15.5-22.7-15.5c-15.5,0-108.5,0-108.5,0
		s0,166.3,0,175.6C137.2,821.6,159.9,831.9,159.9,831.9L159.9,831.9z"/>
	<path class="st0" d="M1710.3,840c-89-0.3-150.8-54.6-150.8-110.3c0-89.9,0-269.6,0-290.2c0-20.7-24.8-31-24.8-31h121.9
		c0,0-24.8,10.3-24.8,30c0,19.6,0,284,0,291.3c0,27.8,38.9,63.5,76.4,63.3c36.8-0.3,74.4-35.2,74.4-63.3c0-10.3,0-277.3,0-290.8
		c0-21.7-24.8-30-24.8-30h121.9c0,0-24.8,8.3-24.8,30s0,211.2,0,290.8C1854.9,783.9,1793.2,840.3,1710.3,840L1710.3,840z"/>
	<path class="st0" d="M483.2,840c-89-0.3-150.8-54.6-150.8-110.3c0-89.9,0-269.6,0-290.2c0-20.7-24.8-31-24.8-31h121.9
		c0,0-24.8,10.3-24.8,30c0,19.6,0,284,0,291.3c0,27.8,38.9,63.5,76.4,63.3c36.8-0.3,74.4-35.2,74.4-63.3c0-10.3,0-277.8,0-291.3
		c0-21.7-24.8-30-24.8-30h121.9c0,0-24.8,8.3-24.8,30c0,21.7,0,211.7,0,291.3C627.8,783.9,566.2,840.3,483.2,840L483.2,840z"/>
	<path class="st0" d="M805.5,408.4c0,0-24.8,10.3-24.8,32c0,22.7,0,446.2,0,446.2s-1.3,77.5-132.2,111.6
		c-2.7,0.7,58.9-65.1,58.9-111.6c0-31,0.7-429.7,0-446.2c-1-22.7-24.8-32-24.8-32H805.5L805.5,408.4z"/>
	<path class="st0" d="M929.4,798.8c1,22.7,24.8,32,24.8,32H831.3c0,0,24.8-10.3,24.8-32h0.1c0.2-128,0.4-346.5-0.1-358.4
		c-1-22.7-24.8-32-24.8-32h122.9c0,0-24.8,10.3-24.8,32c0,15.8,0,231.1,0,357.4V798.8L929.4,798.8z"/>
	<path class="st0" d="M1152.5,455.9c0,54.5,0,231.9,0,341.9v1c1,22.7,24.8,32,24.8,32h-122.9c0,0,24.8-10.3,24.8-32h0.1
		c0.1-110,0.3-287.7,0.1-342.9c0,0-52.9,0-81.8,0c-25.8,0-40.3,28.9-40.3,28.9l24.8-76.4h288.2l-17.6,70.2c0,0-1-22.7-25.8-22.7
		C1207.3,455.9,1152.5,455.9,1152.5,455.9L1152.5,455.9z"/>
	<path class="st0" d="M794.3,281.8c14.8,32.3,57.1,56.9,102.1,56.9c65.3,0,118.3-53,118.3-118.3c0-65.3-53-118.3-118.3-118.3
		c-35.6,0-67.6,15.7-89.2,40.6l0.8,62.7c3.8-43,50.4-67.3,88.4-66.3c44.9,1.2,81.4,36.4,81.4,81.4c0,44.9-36.4,81.4-81.4,81.4
		c-28.9,0-53.7-15.6-68.2-38.3l-3.8-7.2c-16.2-30.1-49.1-53.3-87.1-53.3c-54.1,0-97.9,43.8-97.9,97.9c0,54.1,43.8,97.9,97.9,97.9
		c31,0,58.6-14.4,76.5-36.9v-44l-35.3,29.4c-10.6,7.3-26,13.5-41.2,13.5c-33.1,0-59.9-26.8-59.9-59.9c0-33.1,26.8-59.9,59.9-59.9
		c24.5,0,44.5,15.2,56.3,39.4L794.3,281.8L794.3,281.8z"/>
	<path class="st0" d="M1490.8,474.5c0,0,0-39.8,0-52.2c0-7.2-47.2-18-77.2-18.3c-21.7-0.2-147.4,4.9-147.4,114.9
		c0,90.4,95,126,107.4,132.2c12.4,6.2,82.1,37.2,82.1,74.4c0,48.5-41.3,72.8-90.9,72.8c-49.6,0-89.9-32.1-101.2-41.8
		c-0.9-0.8,17,74.4,17,74.4s44.8,11.4,82.6,11.4c17.6,0,166.3,0,166.3-117.7c0-89.3-91.4-121.4-109.5-130.1
		c-16.6-8.1-81.1-33.1-81.1-79.5c0-37.2,44.4-68.2,77.5-68.2C1463,446.6,1479.4,461.6,1490.8,474.5L1490.8,474.5z"/>
</g>
</svg>
