<?xml version="1.0" encoding="utf-8"?>
<!-- Generator: Adobe Illustrator 25.4.1, SVG Export Plug-In . SVG Version: 6.00 Build 0)  -->
<svg version="1.1" id="Layer_1" xmlns="http://www.w3.org/2000/svg" xmlns:xlink="http://www.w3.org/1999/xlink" x="0px" y="0px"
	 viewBox="0 0 1001.1 709" style="enable-background:new 0 0 1001.1 709;" xml:space="preserve">
<style type="text/css">
	.st0{fill:#27A737;}
	.st1{fill-rule:evenodd;clip-rule:evenodd;fill:#27A737;}
</style>
<g>
	<polygon class="st0" points="635.3,386.1 626.3,386.1 626.3,263.8 507.7,263.8 507.7,254.8 626.3,254.8 626.3,134.8 635.3,134.8 
		635.3,254.8 751.3,254.8 751.3,263.8 635.3,263.8 	"/>
	<g>
		<path class="st1" d="M297.4,353.1c83.6,8.2,96.4,8.2,97.6,30.2c-1.2,0-1.2,0,0,0v144.5c-1.2,29.8,1.5,106.8-113.1,111.5
			C147.5,642,136.3,453.6,137.1,394.6c0.4-9.4,0.8-18.1,0.8-27.5c0.4-51.4,13.9-285.9,144-287.5c135.1,0,201.7,188.5,202.5,238V82.1
			c0,0-38.7,83.3-53.4,83.3c-7,0-55-84.8-149.1-85.6C189.8,80.6,42.7,178,42.7,377.1c0,200.3,135.1,258.8,237.8,262.3
			c94.5,0.8,115.4-76.2,163.4-76.2c44.9,0,48.4,76.2,48.4,80.5V383.3l0,0c0-22,13.6-22,93.7-30.2L297.4,353.1L297.4,353.1z"/>
		<path class="st0" d="M282,644c-0.5,0-1,0-1.5,0l-0.1,0c-0.6,0-1.3,0-2-0.1c-6.2,0-12.3-0.5-18.1-1.3
			c-37.9-3.9-93.5-16.9-140.1-57.1c-25.4-21.8-45.2-49.3-58.9-81.6c-15.3-36.2-23.1-78.8-23.1-126.8c0-114,47-185.9,86.4-226.2
			c41.9-42.8,96.7-70.8,145.7-75.1c3.8-0.5,7.7-0.7,11.6-0.8c13.2,0,28.4,1.8,44.6,7c50,15.3,82.1,52.3,97.7,70.3
			c2.9,3.4,5.9,6.8,7.5,8.3c2.3-1.1,10-7.1,27.9-39.8c11.1-20.2,20.6-40.4,20.6-40.6l8.7,1.9v235.5l-9.1,0.1
			c-0.4-23-16.6-81.9-50.2-135.2c-21.5-34.1-54.8-73.2-100.7-90c-14.1-4.9-29.9-8-47.1-8.1c-3.4,0-6.9,0.2-10.4,0.5
			c-24.2,2.9-45.5,15-63.4,36.1c-17.2,20.3-31.5,48.9-42.4,85.1c-21.4,71-23.1,146.7-23.2,161.1c0,8.9-0.4,17.1-0.7,25.8l-0.1,1.8
			c-0.2,15.6,0.3,56.6,9.4,100.4c10.1,48.5,27.2,85.1,50.9,108.6c16.6,16.5,36.6,26.5,59.6,29.8c6.3,0.6,12,1,17.2,1.2
			c1,0,2.1,0,3.2,0c19.7-0.8,35.8-3.8,48.9-8.3c9.6-3.6,18.2-8.2,26-13.3c31.8-23.4,32.9-60,33.6-81.3c0-1.4,0.1-2.8,0.1-4.1V383.4
			c-0.5-8.3-2.3-12.2-12.6-15.4c-11.6-3.6-32.8-5.7-68-9.1c-4.1-0.4-8.4-0.8-12.9-1.3l0.4-9.1H586l0.5,9.1
			c-4.7,0.5-9.2,0.9-13.5,1.4c-71.2,7.2-76.1,8.8-76.1,24.3v260.4h-9.1c0-0.8-2.6-76-43.9-76c-18.2,0-32.9,12.8-50,27.6
			c-9.2,8-19.1,16.6-30.8,24.4c-8.4,6.4-18.7,11.8-31.5,16C317.5,640.8,301.2,644,282,644z M218.5,98c-31,12.5-61.7,33-87.5,59.3
			c-38.2,39-83.8,108.9-83.8,219.8c0,88.7,26.5,156.5,78.8,201.5c27.5,23.6,58.2,37.5,86.3,45.6c-5.9-4-11.5-8.7-16.8-14
			c-25-24.9-43-62.9-53.4-113.2c-9.3-44.7-9.8-86.5-9.6-102.4l0.1-2c0.4-8.6,0.7-16.8,0.7-25.5c0.1-14.7,1.8-91.6,23.6-163.7
			c11.3-37.4,26.2-67.1,44.2-88.3C206.6,108.6,212.4,102.9,218.5,98z M443.9,558.7c23.5,0,36.6,18.1,43.9,37.6V383.3
			c0-13.1,5-19.8,17.7-23.9c1.9-0.6,4-1.2,6.4-1.7H374.3c2.3,0.5,4.4,1.1,6.3,1.7c13.1,4.1,18.2,10.5,18.9,23.7l-0.1,0.1l0.1,0.1
			l0,144.7c-0.1,1.3-0.1,2.7-0.1,4.1c-0.4,13.7-1.1,35.2-10.6,55.7C406.8,572.1,422.6,558.7,443.9,558.7z M432.3,169.9
			c1.7,2.5,3.4,5.1,5,7.8c19.4,30.8,31.6,60.8,38.4,80.4c1.5,4.3,2.9,8.6,4.1,12.8v-169c-3.6,7.1-8,15.6-12.7,24.1
			C447.3,161.9,438.2,169,432.3,169.9z"/>
	</g>
	<path class="st1" d="M728,84.1l-78.2-4.3h322.6l-67.8,7.1c-45.7,0-42.2,32.6-42.2,32.6v393.1c0,94.6-94.9,125.7-166.1,126.8
		c-45.7-1.2-119.6-46.3-118.9-126.8c-0.8-55,31-76.2,63.5-77c33.7,0.8,58.9,24.7,59.6,62c-0.8,33.8-23.2,57.3-56.9,56.6
		c-25.9,0.8-37.2-9.8-43-15.7c-0.8-2-1.9,0-1.9,0c-5.8,27.5,31,99.7,97.6,100.9c73.2-1.2,74-95.8,74.7-96.6
		c-1.5-1.6-1.2-343.2-0.4-406.8c0.4-6.3,0.8-13,0.4-19.2C770.6,108.8,765.6,85.7,728,84.1L728,84.1z"/>
	<path class="st0" d="M696.4,643.9h-0.2c-12.8-0.2-25.2-3-36.8-8.2c-15.2-6.1-30.2-15.2-43-26.7c-20.1-17.9-44-49.2-43.6-96.5
		c-0.4-26.7,6.5-47.6,20.5-62c11.8-12.1,28.6-19.1,47.4-19.6h0.2c17.7,0.4,33.8,7,45.3,18.7c11.9,12.1,18.4,28.6,18.7,47.8l0,0.2
		c-0.4,17.9-6.5,33.2-17.4,44.3c-11.2,11.3-26.4,17.1-44,16.7c-21.6,0.6-33.9-6.3-40.9-12.1c0.7,12.9,7.8,32.5,22.1,50.5
		c6.9,8.6,18.8,21,35.8,29.2c12.8,5.4,25.2,8.2,35.6,8.5c54.6-1,67.2-57,69.9-90.3c0.1-0.7,0.1-1.3,0.2-1.8
		c-0.2-2.2-0.3-6.4-0.4-15.3c-0.1-9.3-0.2-22.7-0.3-40c-0.2-31.2-0.2-74.4-0.3-124.9c0-96.5,0.3-196.1,0.7-226.7
		c0-2.6,0.1-5.2,0.3-7.8c0.2-3.9,0.4-7.5,0.1-11c-0.3-6.4-4-27-38.7-28.4l-0.1,0l-78.2-4.3l0.2-9.1h322.6l0.5,9.1l-67.8,7.1l-0.5,0
		c-14.7,0-25.3,3.5-31.6,10.4c-6.9,7.6-6.1,17.1-6.1,17.2l0,0.5v393.1c0,43.8-20.2,79.2-58.5,102.4
		C779,632.7,738.2,643.3,696.4,643.9z M775.5,543.7c0,0.3-0.1,0.8-0.1,1.6c-1.7,20.7-6,38.8-13,53.7c-6.4,13.7-14.9,24.4-25.2,32
		c25.1-4.5,48.2-12.6,66.5-23.8c35.9-21.7,54.2-53.6,54.2-94.6V119.7c-0.2-2.1-0.6-13.9,8.3-23.9c5-5.5,11.8-9.4,20.4-11.5H751.7
		c16.4,6.9,23.3,20,23.9,32.2c0.3,3.9,0.1,8-0.1,12c-0.1,2.6-0.2,5-0.2,7.4c-0.8,61.7-1.1,395.3,0.3,405.9c0-0.1-0.2-1.2-1.1-2.3
		l0.1,6.1C775.3,544.8,775.4,543.9,775.5,543.7z M640.9,440.1c-14.2,0.4-59.9,6.8-59,72.4l0,0.1c-0.2,28.3,9,51.8,22.8,70.4
		c-8.8-16.7-13-33.6-10.5-45.5l0.5-1.3c1.2-2.1,3.2-3.4,5.3-3.2c0.9,0.1,2.9,0.4,4.3,2.7c5,5.1,15.2,14.6,39.1,13.8l0.2,0
		c30.5,0.7,51.5-20.3,52.3-52.1C695.3,464,673.2,441,640.9,440.1z M596.4,540.2c0.1,0.2,0.2,0.5,0.5,0.7L596.4,540.2z"/>
	<path class="st0" d="M976.6,682.8H31.4v-9.1h945.2V682.8z M976.6,40.7H31.4v-9.1h945.2V40.7z"/>
</g>
</svg>
