<?xml version="1.0" encoding="utf-8"?>
<!-- Generator: Adobe Illustrator 25.4.1, SVG Export Plug-In . SVG Version: 6.00 Build 0)  -->
<svg version="1.1" id="svg" xmlns="http://www.w3.org/2000/svg" xmlns:xlink="http://www.w3.org/1999/xlink" x="0px" y="0px"
	 viewBox="0 0 400 400" style="enable-background:new 0 0 400 400;" xml:space="preserve">
<style type="text/css">
	.st0{fill-rule:evenodd;clip-rule:evenodd;fill:#020C1F;}
</style>
<g id="svgg">
	<path id="path0" class="st0" d="M184.6,0.5c-1.5,0.2-6.8,0.9-11.7,1.4C39.9,17.3-39.6,167.6,21.1,289
		c74.1,148,285.6,147.2,358.3-1.4c9-18.4,21.2-59.2,18.5-61.9c-0.3-0.3-55.5-0.4-122.8-0.2l-122.3,0.2l90.6,20
		c49.8,11,90.8,20.2,91,20.3c2,1.4-17.3,28.6-27.6,39.1C212.8,400.3,50.4,333.7,50.4,200c0-112,117.8-184.2,217.8-133.5
		c5.9,3,11,5.1,11.3,4.7c1.5-1.7,25.2-40.5,25.2-41.3c0-3-36.8-18.9-54.7-23.5C231.8,1.7,198.1-1.4,184.6,0.5 M217.1,161.3
		c-11.4,5.6-7.1,20.5,7.5,25.8c1.3,0.5,0.9,5.5-0.5,6.4c-1.4,0.9-7.8,0.6-10.3-0.5c-1.9-0.8-3.6,6.4-1.9,8.1
		c1.9,1.9,13.4,1.9,17,0.1c10.5-5.5,10.1-18.1-0.9-23.6c-11.6-5.9-8.1-13.5,4.1-8.8c1.2,0.5,1.5-0.2,1.5-3.6c0-3.6-0.3-4.3-2.1-4.8
		C227.7,159.4,220.1,159.8,217.1,161.3 M280.1,160.5c-0.2,0.4-3,9.3-6.3,19.9c-3.2,10.5-6,19.7-6.3,20.3c-0.3,0.8,1,1.2,4.7,1.2h5.1
		l1.1-4.2l1.1-4.2l5.8,0.3l5.8,0.3l0.8,4l0.8,4h5.1c2.8,0,5.1-0.4,5.1-0.9c0-1.3-11-39.1-11.7-40.2
		C290.4,159.7,280.7,159.5,280.1,160.5 M348.4,161.7c-17.5,9.2-11.2,41.1,8.2,41.1c8.8,0,9.7-0.6,9.7-6.2c0-4.7-0.1-5-1.8-4.1
		c-6,3.2-13.5-0.3-15.1-7c-2.8-12.1,4.2-19.6,14.8-15.9c3.4,1.2,3.2-7.5-0.3-8.9C360,159.2,352.2,159.7,348.4,161.7 M372,180.8v21
		h4.7h4.7v-8.4V185h4.2h4.2v8.4v8.4h5.1h5.1v-21v-21h-5.1h-5.1v8.5v8.5l-4-0.3l-4-0.3l-0.3-8.2l-0.3-8.2h-4.6H372V180.8
		 M150.5,181.3v20.6h5.1h5.1v-7.9c0-11.9,2.6-11.5,5.5,0.8l1.6,6.7l5.4,0.3c4.9,0.3,5.4,0.1,4.9-1.4c-0.3-0.9-1.2-4.4-2-7.8
		c-0.8-3.3-2.3-7.2-3.3-8.6l-1.8-2.5l3.2-3.2c9.1-9.1,2.3-17.5-14-17.5h-9.9V181.3 M183.2,181.3v20.6h11.7h11.7v-4.2v-4.2h-7h-7
		v-4.2V185h6.5h6.5v-4.2v-4.2H199h-6.6l0.3-4l0.3-4l6.8-0.3l6.8-0.3v-3.7v-3.7h-11.7h-11.7V181.3 M242.1,181.3v20.6h11.7h11.7v-4.2
		v-4.2h-7h-7v-4.2V185h6.5h6.5v-4.2v-4.2h-6.6h-6.6l0.3-4l0.3-4l6.8-0.3l6.8-0.3v-3.7v-3.7h-11.7h-11.7V181.3 M306.5,181.3v20.6h5.1
		h5.1v-7.9c0-11.8,3.1-11.2,6,1.2l1.6,6.8h5c3.4,0,5-0.4,5-1.2c-0.1-3.4-4.8-17.2-6.2-18.3c-1.4-1.1-1.4-1.4-0.3-1.8
		c6.3-2.3,7.8-13.1,2.5-17.7c-2.3-2-3.4-2.2-13.2-2.2h-10.7V181.3 M165.8,169.7c3,3,1,7.9-3.2,7.9c-2.7,0-2.8-0.1-2.8-4.7
		C159.8,167.8,162.5,166.4,165.8,169.7 M322.2,169.3c3,3,0.6,8.2-3.7,8.2c-2.5,0-2.6-0.2-2.6-4.7C315.9,168,319.1,166.2,322.2,169.3
		 M288.2,181.7l0.6,3.4H285c-3.2,0-3.8-0.3-3.4-1.6c0.3-0.9,1.2-4.6,2.1-8.2l1.6-6.5l1.1,4.8C287.1,176.1,287.9,179.8,288.2,181.7"
		/>
</g>
</svg>
