<?xml version="1.0" encoding="utf-8"?>
<!-- Generator: Adobe Illustrator 25.4.1, SVG Export Plug-In . SVG Version: 6.00 Build 0)  -->
<svg version="1.1" id="svg" xmlns="http://www.w3.org/2000/svg" xmlns:xlink="http://www.w3.org/1999/xlink" x="0px" y="0px"
	 viewBox="0 0 400 117.5" style="enable-background:new 0 0 400 117.5;" xml:space="preserve">
<style type="text/css">
	.st0{fill-rule:evenodd;clip-rule:evenodd;fill:#960C32;}
	.st1{fill-rule:evenodd;clip-rule:evenodd;fill:#F67F13;}
</style>
<path id="path0" class="st0" d="M42.5,16.2c-1,0.1-2,0.2-2.3,0.3c-0.3,0.1-0.9,0.2-1.4,0.3c-0.8,0.1-1.3,0.2-4.2,1.1
	c-1.6,0.5-2.8,1-3.4,1.3c-0.1,0.1-0.4,0.2-0.5,0.2c-0.7,0.3-1.8,0.8-2.5,1.3c-0.4,0.3-0.8,0.5-0.8,0.5c-0.1,0-1.6,1-3.1,2.1
	c-2.3,1.7-5.2,4.5-7.6,7.1c-1.5,1.7-5.5,7.2-5.5,7.5c0,0.1-0.4,0.7-0.8,1.5c-1.5,2.5-4.2,8.4-4.2,9.2c0,0.1-0.1,0.4-0.2,0.6
	c-0.1,0.2-0.3,0.7-0.4,1.1c-0.1,0.4-0.4,1.3-0.5,1.9c-0.2,0.6-0.4,1.5-0.5,2c-0.1,0.5-0.2,1-0.3,1.2c-0.1,0.2-0.2,0.9-0.3,1.6
	c-0.1,0.6-0.2,1.7-0.4,2.4c-0.7,3.6-0.3,13,0.7,16.7c0.4,1.5,0.9,2.9,1.1,3.1c0.1,0.1,0.1,0.3,0.1,0.4c0,0.1,0.1,0.5,0.3,0.9
	c0.2,0.4,0.4,0.8,0.4,0.9c0.8,2.1,3.5,5.2,6,6.9c1.2,0.8,4.5,2.4,5,2.4c0.1,0,0.4,0.1,0.7,0.2c0.7,0.4,3.4,1,5.2,1.3
	c0.6,0.1,1.8,0.3,2.6,0.4c1.8,0.3,14.9,0.3,18.2-0.1c1-0.1,3.2-0.3,4.9-0.4c5.7-0.4,5.2-0.2,5.6-1.8c0.2-0.6,0.4-1.6,0.5-2.1
	c0.1-0.5,0.3-1.4,0.5-1.9c0.1-0.5,0.3-1.3,0.4-1.8c0.1-0.5,0.3-1.1,0.4-1.5c0.1-0.4,0.2-0.9,0.3-1.2c0.1-0.3,0.2-0.8,0.3-1.2
	c0.2-0.9,0.5-2.1,0.8-3.2c0.3-1,0.5-2,0.8-3.2c0.1-0.5,0.3-1.3,0.5-1.9c0.4-1.7,0.7-2.7,0.9-3.5c0.1-0.4,0.2-0.9,0.3-1
	c0.1-0.2,0.2-0.5,0.2-0.7s0.1-0.8,0.3-1.2c0.2-0.8,1.4-5.6,2-7.9c0.5-2.1,0.8-3.1,1.4-5.3c0.2-0.6,0.2-1.1,0.2-1.2
	c-0.2-0.2-25.3-0.2-25.4,0c-0.1,0.1-0.2,0.5-0.3,0.8c-0.2,0.6-0.3,1-0.8,3.1c-0.4,1.8-0.6,2.6-0.9,3.4c-0.1,0.4-0.3,1.2-0.4,1.6
	c-0.6,2.7-0.6,2.8-3.1,2.4c-5.3-0.9-6.4-5.7-3-12.5c0.8-1.6,3.7-5,4.3-5c0.1,0,0.4-0.2,0.8-0.5c3.2-2.1,9.1-1.9,14,0.4
	c1.2,0.6,3.5,1.8,3.7,2c0.7,0.8,1.3,0.7,2.2-0.5c0.6-0.8,2.7-3.4,3.1-3.9c0.1-0.2,0.7-0.8,1.2-1.5c0.5-0.7,1.1-1.3,1.2-1.5
	s0.7-0.8,1.2-1.5c0.6-0.7,1.5-1.9,2.1-2.7c0.6-0.7,1.3-1.6,1.5-1.9c0.2-0.3,0.5-0.6,0.6-0.7c0.1-0.1,0.6-0.8,1.1-1.4
	c0.5-0.7,1.1-1.3,1.2-1.4c0.1-0.1,0.5-0.6,0.8-1.1s0.7-1,0.8-1.1c0.3-0.3,1.5-1.8,1.7-2.2c0.3-0.5-1.5-2.1-5-4.4
	c-1.6-1.1-6.2-3.5-6.8-3.5c-0.1,0-0.4-0.1-0.6-0.2c-0.3-0.1-0.6-0.2-0.8-0.2c-0.2,0-0.5-0.1-0.7-0.2c-0.4-0.2-1.8-0.5-3.3-0.8
	c-0.5-0.1-1.5-0.3-2.1-0.4C50.9,16.1,44.9,16,42.5,16.2 M215.6,16.1c-2.6,0.5-5.9,3.7-7,6.9c-0.8,2.5-0.8,2.5-0.8,4.3
	c0.1,2.5,1.1,5,2,5c0.1,0,0.3,0.1,0.5,0.3c0.6,0.5,4.1,0.4,5.3-0.2c0.9-0.5,3-2.4,3.5-3.2c0.1-0.2,0.4-0.6,0.5-0.8
	c0.4-0.5,1.4-2.7,1.7-3.7c0.4-1.1,0.4-4.8,0-5.4c-0.1-0.2-0.2-0.6-0.2-0.7C221.1,17.1,218.1,15.7,215.6,16.1 M142.7,17.3l-11.2,0.1
	l-0.4,1.5c-0.5,2-0.8,3.1-1.2,4.8c-0.2,0.8-0.4,1.8-0.6,2.3s-0.3,1.3-0.4,1.8s-0.3,1.2-0.4,1.7c-0.5,1.9-0.8,2.9-0.9,3.6
	c-0.1,0.4-0.3,1.2-0.4,1.8c-0.1,0.5-0.3,1.3-0.4,1.8c-0.1,0.4-0.3,1.1-0.4,1.6c-0.1,0.5-0.3,1.2-0.4,1.6c-0.4,1.6-1,4.1-1.4,5.8
	c-0.6,2.3-0.8,3-1,3.8c-0.1,0.4-0.2,1-0.2,1.2c0,0.2-0.1,0.6-0.2,0.9c-0.1,0.3-0.3,0.9-0.4,1.5c-0.3,1.2-0.5,2.2-0.8,3.3
	c-0.1,0.5-0.3,1.2-0.4,1.7c-0.1,0.5-0.3,1.3-0.4,1.8c-0.1,0.5-0.3,1.4-0.5,1.9c-0.1,0.5-0.3,1-0.3,1.2c-0.1,0.2-0.2,0.7-0.3,1.2
	c-0.1,0.5-0.3,1.5-0.5,2.1s-0.4,1.6-0.5,2.2c-0.1,0.6-0.3,1.2-0.3,1.3c-0.1,0.1-0.2,0.5-0.3,0.9c-0.1,0.4-0.3,1.5-0.6,2.4
	c-0.2,0.9-0.5,2-0.6,2.3c-0.2,0.8-0.8,3.2-1.1,4.4c-0.1,0.5-0.3,1.4-0.5,1.9c-0.3,1.1-1,4-1.7,6.7c-0.6,2.3-0.8,3.2-0.7,3.5
	c0.1,0.2,1.9,0.2,11.5,0.2c12.4,0,11.9,0,11.9-0.9c0-0.2,0.1-0.7,0.2-1.2c0.3-1.2,0.5-1.9,1.3-5c0.1-0.5,0.3-1.2,0.4-1.7
	c0.3-1,0.5-2,0.8-3.2c0.1-0.5,0.3-1.1,0.4-1.5c0.1-0.3,0.2-0.8,0.2-0.9s0.1-0.7,0.2-1.1c0.4-1.4,1.3-4.9,1.4-5.8
	c0.1-0.4,0.2-0.9,0.3-1.1c0.1-0.2,0.2-0.7,0.3-1.2c0.2-1.1,0.5-2.1,0.8-3.2c0.1-0.4,0.3-1.3,0.5-2.1c0.2-0.7,0.4-1.8,0.6-2.3
	s0.4-1.6,0.6-2.3c0.2-0.7,0.4-1.6,0.5-2c0.1-0.4,0.3-1,0.3-1.4c0.1-0.4,0.2-0.9,0.3-1.1c0.1-0.2,0.2-0.7,0.3-1.1
	c0.2-1,1-4.3,1.7-6.8c0.2-0.7,0.4-1.6,0.5-2c0.1-0.4,0.2-0.9,0.3-1.2c0.1-0.3,0.3-1.3,0.5-2.2c0.2-0.9,0.4-1.8,0.5-2.1
	c0.1-0.3,0.2-0.9,0.3-1.3s0.2-1.1,0.4-1.5c0.1-0.4,0.4-1.3,0.5-1.9c0.2-0.7,0.4-1.5,0.5-1.9c0.1-0.4,0.3-1.1,0.4-1.6
	c0.3-1.5,1.1-4.3,1.3-5.2c0.1-0.5,0.3-1.2,0.4-1.7c0.1-0.5,0.3-1.3,0.4-1.8s0.4-1.5,0.5-2c0.1-0.6,0.3-1.2,0.4-1.5
	C155,17.2,155.8,17.2,142.7,17.3 M165.8,17.4c-0.2,0.1-0.3,0.3-0.3,0.6c0,0.3-0.1,0.7-0.2,0.9c-0.1,0.2-0.3,0.8-0.4,1.4
	c-0.1,0.5-0.3,1.3-0.4,1.8c-0.1,0.4-0.3,1.2-0.4,1.8c-0.1,0.5-0.3,1.3-0.5,1.8c-0.1,0.4-0.3,1-0.3,1.3c-0.1,0.3-0.2,1-0.3,1.4
	c-0.3,1.1-0.7,2.6-1,4.1c-0.2,0.7-0.4,1.7-0.6,2.2c-0.2,0.5-0.3,1.2-0.3,1.4c0,0.2-0.1,0.8-0.2,1.1c-0.3,1-0.6,2-1.4,5.3
	c-0.1,0.6-0.3,1.3-0.4,1.4c-0.1,0.2-0.2,0.5-0.2,0.7c0,0.4-0.2,1.3-0.8,3c-0.1,0.5-0.3,1.2-0.4,1.7c-0.1,0.5-0.2,1.1-0.3,1.3
	c-0.2,0.6-0.5,1.7-0.8,3c-0.4,1.6-0.6,2.6-0.8,3.2c-0.1,0.3-0.2,0.8-0.3,1.2c-0.1,0.4-0.3,1.3-0.5,2.1c-0.2,0.7-0.4,1.7-0.5,2.1
	c-0.1,0.4-0.3,1.1-0.4,1.6c-0.3,1.1-0.6,2.2-0.8,3.3c-0.1,0.6-0.4,1.6-0.6,2.3c-0.2,0.7-0.4,1.7-0.5,2.1c-0.1,0.4-0.2,0.9-0.3,1
	c-0.1,0.2-0.3,0.9-0.7,2.9c-0.1,0.5-0.3,1.2-0.4,1.7c-0.4,1.4-0.6,2.3-0.8,3.1c-0.1,0.4-0.3,1.1-0.4,1.6c-0.1,0.5-0.5,2-0.8,3.3
	c-0.3,1.4-0.7,2.9-0.8,3.3s-0.2,1-0.2,1.2c0,0.2-0.1,0.6-0.2,0.8s-0.2,0.7-0.2,1v0.5l11.6,0l11.6,0l0.2-0.7c0.1-0.4,0.3-1.1,0.5-1.7
	c0.1-0.6,0.3-1.4,0.5-2c0.1-0.6,0.4-1.6,0.6-2.4c0.2-0.8,0.4-1.9,0.6-2.4c0.1-0.6,0.4-1.5,0.5-2.1c0.1-0.6,0.4-1.6,0.6-2.3
	c0.2-0.7,0.4-1.7,0.6-2.2c0.2-0.9,0.5-1.9,0.9-3.7c0.1-0.4,0.3-1.2,0.4-1.7c0.5-1.9,0.9-3.8,1.2-4.6c0.1-0.5,0.2-1,0.2-1.1
	c0-0.1,0.1-0.6,0.2-1c0.1-0.4,0.4-1.4,0.6-2.3c0.2-0.9,0.5-1.9,0.6-2.3c0.1-0.4,0.3-1.1,0.4-1.6c0.1-0.5,0.3-1.2,0.4-1.8
	c0.1-0.5,0.4-1.7,0.7-2.7c0.2-1,0.5-2.1,0.7-2.6c0.1-0.5,0.3-1.2,0.4-1.7c0.1-0.5,0.3-1.4,0.5-2.2c0.2-0.7,0.4-1.7,0.5-2.1
	c0.1-0.4,0.2-1.1,0.4-1.6c0.3-1.1,0.7-2.6,1-4.1c0.2-0.7,0.4-1.5,0.4-1.8c0.1-0.3,0.3-1,0.4-1.5c0.1-0.5,0.3-1.5,0.5-2
	s0.5-2,0.8-3.2s0.6-2.3,0.7-2.4c0.1-0.1,0.2-0.6,0.2-0.9c0.1-0.6,0.2-1.1,0.8-3.5c0.1-0.5,0.4-1.5,0.6-2.4s0.5-1.9,0.6-2.2
	c0.4-1.1,0.4-1.7,0.3-1.8C188.6,17.3,166.2,17.2,165.8,17.4 M243.8,17.3l-11.4,0.1l-0.2,0.9c-0.1,0.5-0.3,1.3-0.5,1.8
	c-0.1,0.5-0.3,1.3-0.4,1.8c-0.2,0.9-0.4,1.8-0.9,3.4c-0.1,0.5-0.3,1.1-0.3,1.3c0,0.3-0.4,1.8-0.9,3.2c-0.1,0.3-0.2,0.9-0.3,1.3
	c-0.1,0.4-0.3,1.3-0.5,2.1c-0.2,0.7-0.5,1.8-0.6,2.3c-0.1,0.5-0.3,1.2-0.4,1.5c-0.1,0.3-0.2,0.7-0.2,0.9s-0.1,0.7-0.2,0.9
	c-0.1,0.3-0.3,0.9-0.4,1.4c-0.2,1.3-0.6,2.8-0.8,3.4c-0.1,0.3-0.2,0.7-0.2,0.9s-0.1,0.7-0.2,0.9c-0.1,0.3-0.3,0.8-0.4,1.3
	c-0.1,0.5-0.3,1.2-0.4,1.7c-0.1,0.5-0.3,1.3-0.5,1.8c-0.1,0.5-0.3,1.3-0.4,1.6c-0.1,0.3-0.3,1-0.4,1.6c-0.2,1.2-0.5,2.3-0.8,3.1
	c-0.1,0.3-0.3,1.1-0.4,1.7c-0.5,2.3-0.6,2.6-0.7,3c-0.1,0.2-0.2,0.8-0.3,1.2c-0.1,0.5-0.3,1.4-0.5,2.1c-0.2,0.7-0.5,1.7-0.6,2.2
	c-0.3,1.2-0.5,2.2-0.8,3.3c-0.1,0.5-0.3,1.2-0.4,1.7c-0.1,0.5-0.3,1.2-0.4,1.8c-0.1,0.5-0.3,1.3-0.4,1.8c-0.2,0.8-0.3,1.2-1,3.8
	c-0.2,0.7-0.3,1.4-0.3,1.6c0,0.2-0.1,0.7-0.2,1.1c-0.3,1.1-0.7,2.5-0.9,3.4c-0.3,1.2-1,4.2-1.3,5c-0.1,0.4-0.2,1-0.2,1.2v0.4h11.7
	h11.7l0.3-0.9c0.1-0.5,0.3-1.2,0.4-1.6c0.2-1.2,0.6-2.9,0.8-3.4c0.1-0.3,0.4-1.7,0.8-3.2c0.3-1.5,0.7-3,0.8-3.3
	c0.1-0.4,0.2-0.8,0.2-1c0-0.2,0.1-0.6,0.2-1c0.1-0.4,0.4-1.3,0.5-2c0.2-0.7,0.4-1.7,0.6-2.3c0.2-0.6,0.4-1.5,0.5-1.9
	c0.1-0.5,0.3-1.3,0.4-1.8c0.1-0.6,0.3-1.4,0.4-1.8c0.1-0.5,0.3-1.1,0.4-1.5c0.1-0.3,0.2-0.8,0.2-1c0-0.6,0.6-2,0.8-2
	c0.9,0,3.7,3.9,3.7,5.2c0,0.2,0.1,0.7,0.3,1.1c0.2,0.7,0.3,1.5,0.3,5.1l0,4.3l1,0.1c1.4,0.1,1.4,0.2,1.2,1.3c-0.1,0.5-0.3,1.4-0.5,2
	c-0.5,2.2-1.8,7.4-1.9,7.8c-0.1,0.2-0.2,0.6-0.2,1l0,0.7l4.9,0l4.9,0l0.2-0.4c1.3-3.4,6.5-6.7,10.4-6.7c2.2,0,2.2,0,2.4-1.4
	c0.1-0.5,0.2-1.3,0.3-1.8c0.1-0.5,0.3-1.5,0.4-2.3c0.1-0.8,0.3-2.1,0.4-2.8c0.8-5.7-0.5-13-3.1-17.3c-0.8-1.4-0.8-1.8-0.1-2.2
	c1.5-0.9,7.7-7.5,7.7-8.2c0-0.1,0.7-1.1,0.8-1.3c0.1-0.1,0.9-1.4,1.5-2.5c1.3-2.4,2.6-5.3,3.3-7.2c0.1-0.4,0.4-1.1,0.6-1.6
	c0.5-1.3,0.8-2.4,0.8-2.7c0-0.3-0.7-0.3-11.8-0.3h-11.8l-0.3,0.5c-0.1,0.3-0.3,0.9-0.4,1.2s-0.2,0.8-0.3,0.8
	c-0.1,0.1-0.2,0.3-0.2,0.5c0,0.2-0.2,0.7-0.3,1c-0.2,0.4-0.3,0.8-0.3,0.9c0,0.4-1.6,4-2.5,5.5c-1.9,3.4-4.3,6.1-7.1,8
	c-1.7,1.1-2,0.9-1.4-0.9c0.1-0.4,0.4-1.5,0.6-2.4c0.2-0.9,0.4-1.9,0.5-2.1s0.3-0.9,0.4-1.4c0.1-0.5,0.3-1.5,0.5-2
	c0.1-0.5,0.3-1.4,0.4-1.8c0.1-0.5,0.3-1.1,0.4-1.4c0.1-0.3,0.3-1,0.4-1.6c0.5-2.1,0.7-3,1.1-4.3c0.2-0.7,0.4-1.6,0.5-2
	c0.1-0.4,0.2-1,0.3-1.3c0.2-0.5,0.5-1.8,0.9-3.7c0.1-0.5,0.4-1.5,0.5-2c0.1-0.5,0.4-1.4,0.5-1.9c0.2-1,0.5-2,0.8-3.2
	c0.4-1.4,0.4-1.6,0.2-1.9c-0.1-0.1-0.2-0.2-0.3-0.2C255.3,17.2,250.1,17.3,243.8,17.3 M309.1,31.8c-1.6,0.1-3.9,0.5-4.4,0.8
	c-0.2,0.1-0.6,0.2-1,0.3c-0.4,0.1-0.8,0.2-0.8,0.3c-0.1,0.1-0.2,0.2-0.4,0.2c-0.5,0-4.6,2.2-6,3.1c-2.3,1.6-4.8,3.9-6.8,6.2
	c-1.4,1.7-3.5,4.5-4,5.5c-0.1,0.1-0.3,0.5-0.5,0.9c-0.6,1.1-2.3,4.3-2.3,4.4c0,0.1-0.2,0.6-0.5,1.2c-0.3,0.6-0.5,1.3-0.6,1.5
	c-0.1,0.3-0.2,0.6-0.3,0.7c-0.1,0.1-0.2,0.5-0.3,0.8c-0.1,0.4-0.3,1.2-0.5,1.8c-0.5,1.5-0.8,2.9-1.1,4.3c-0.1,0.6-0.3,1.5-0.4,1.8
	c-0.8,3.2-0.5,11.8,0.6,14.3c0.1,0.2,0.3,0.8,0.5,1.4c0.7,1.9,2.3,4.3,2.8,4.3c0.1,0,0.5-0.1,0.8-0.3c0.5-0.3,12.4-0.6,14.4-0.4
	l0.8,0.1l0,0.8c0,0.5-0.1,1.2-0.3,1.7c-0.1,0.5-0.3,1.2-0.4,1.7c-0.1,0.5-0.3,1.1-0.4,1.4c-0.3,1.1-0.4,1.3-0.1,1.6
	c0.2,0.3,1.1,0.3,1.8,0.1c0.4-0.1,0.7-0.9,1.1-2.8c0.3-1.4,1-3.8,1.1-4.1c0.1-0.3,0.2-0.2,1.2,0.2c1.8,0.8,6.1,0.6,7.2-0.3
	c0.5-0.4,0.5,1-0.1,3c-0.5,1.8-0.5,1.8,0.2,1.8c0.8-0.1,2.8-1.2,3.3-1.8c1.1-1.4,2.9-2.6,4.5-3.1c0.7-0.2,3.8-3,5.3-4.8
	c0.5-0.6,1.3-2.6,1.3-3.4c0-0.2,0.1-0.5,0.2-0.7c0.1-0.3,0.3-1,0.8-3.3c0.1-0.4,0.3-1.1,0.4-1.5c0.4-1.2,0.1-2.2-0.4-1.3
	c-0.1,0.2-0.8,0.8-2,1.8c-1,0.8-4.1,2.4-5.5,2.9c-2.5,0.8-3,0.9-5.3,0.9c-2.4,0-3.9-0.3-4.6-0.9c-0.1-0.1-0.4-0.2-0.5-0.2
	c-0.3,0-2.6-2.4-3-3.2c-0.6-1.2-0.9-1.9-0.9-2.2c0-0.1-0.1-0.8-0.3-1.4c-0.4-1.8-1.6-1.6,11.8-1.6c12.9,0,11.9,0.1,12.2-1.1
	c1.4-5,2.2-12.9,1.6-16.6c-0.3-2.1-0.8-4.4-1.1-4.9c-0.1-0.2-0.2-0.6-0.2-0.8c0-0.5-1.4-3.2-2.3-4.5c-1-1.5-2.9-3.2-4.2-4
	c-0.8-0.5-3-1.5-3.2-1.5c-0.2,0-0.4-0.1-0.4-0.2C317.2,32,312.5,31.6,309.1,31.8 M95.8,32.4c-0.2,0-1.3,0.2-2.3,0.3
	c-1.1,0.1-2.2,0.3-2.4,0.4c-0.3,0.1-0.9,0.2-1.3,0.3c-1.8,0.3-5.6,1.6-7.5,2.4c-0.3,0.1-0.9,0.4-1.3,0.6c-4.1,1.8-5.5,2.7-5.7,3.6
	c-0.1,0.3-0.2,1-0.3,1.4c-0.4,1.5-0.7,2.8-0.8,3.5c-0.1,0.4-0.2,0.8-0.2,0.9c-0.1,0.3-0.3,0.9-0.8,3c-0.3,1.4-0.6,2.4-0.8,3.2
	c-0.1,0.4-0.3,1-0.3,1.5c-0.1,0.5-0.2,1-0.3,1.2c-0.3,0.6-0.4,1.6-0.2,1.8c0.1,0.1,2.3-0.9,5.3-2.4c0.1-0.1,0.9-0.3,1.8-0.6
	c0.8-0.3,1.7-0.5,1.8-0.6c0.3-0.1,0.9-0.2,4.1-0.7c1.3-0.2,1.6-0.2,4.3,0.4c2.8,0.6,4.6,3.3,4.2,6.5c-0.2,1.5-0.4,1.9-0.8,1.8
	c-3-1.2-10-1.6-12-0.6c-0.2,0.1-0.6,0.2-0.9,0.3C77.9,61,75,62.6,73,64.1c-1.2,1-4.5,4.5-4.5,4.9c0,0-0.2,0.4-0.5,0.8
	c-0.6,0.9-1.7,2.9-1.7,3.2c0,0.1-0.1,0.4-0.3,0.7c-0.1,0.3-0.3,0.8-0.4,1.1c-0.1,0.3-0.2,0.8-0.3,1.1c-1.6,4.7-1.2,9.8,1,13.2
	c3.1,4.7,11.5,4.3,18.3-0.7c1-0.8,1.4-0.5,1,0.6c-0.1,0.3-0.3,0.9-0.4,1.4s-0.2,1-0.3,1.2c-0.1,0.3,22.6,0.5,23.2,0.2
	c0.2-0.1,0.3-0.4,0.4-1c0.1-0.4,0.2-1.1,0.3-1.4c0.1-0.3,0.3-1,0.4-1.5c0.4-1.7,0.8-3.7,1.3-5.2c0.1-0.5,0.3-1.2,0.4-1.7
	c0.1-0.5,0.3-1.3,0.4-1.8c0.1-0.6,0.4-1.4,0.5-1.9c0.5-1.9,0.6-2.6,0.9-3.4c0.1-0.4,0.3-1.1,0.4-1.5c0.4-1.8,0.7-2.9,0.8-3.3
	c0.1-0.2,0.2-0.8,0.3-1.3c0.1-0.5,0.2-0.9,0.3-1c0.1,0,0.2-0.4,0.2-0.8c0.1-0.4,0.2-1,0.3-1.3c0.2-0.5,0.3-1.2,0.8-3.3
	c0.3-1.3,0.7-2.8,0.9-3.4c0.1-0.3,0.2-0.9,0.3-1.4c0.1-0.5,0.2-1.5,0.4-2.3c1.6-8.5-0.3-16.1-4.7-18.8c-1.6-1-2.7-1.5-3.1-1.7
	c-1.7-0.6-2.5-0.9-3.7-1c-0.7-0.1-1.6-0.3-2-0.3C103.1,32.4,96.6,32.3,95.8,32.4 M374.4,32.6c-0.3,0.1-0.7,0.2-0.8,0.2
	c-2.6,0-9.5,6.5-12.1,11.5c-0.4,0.8-0.7-0.2-0.3-1.1c0.1-0.3,0.3-0.8,0.4-1.3c0.1-0.5,0.3-1.3,0.5-1.9c0.2-0.6,0.4-1.5,0.4-1.9
	c0.1-0.5,0.3-1.1,0.4-1.5c0.1-0.4,0.3-1,0.3-1.4c0.1-0.4,0.2-0.9,0.3-1.2c0.5-1.1,1.3-1-11.5-1l-11.6,0l-0.3,0.9
	c-0.2,0.5-0.3,1-0.3,1.2c0,0.2-0.1,0.6-0.2,1.1c-0.1,0.4-0.4,1.3-0.5,2c-0.3,1.1-0.7,2.8-1.1,4.4c-0.6,2.4-0.9,3.7-1.3,4.9
	c-0.1,0.5-0.3,1.2-0.4,1.7c-0.1,0.5-0.3,1.2-0.4,1.8c-0.5,2-1.6,6.5-1.9,7.6c-0.2,0.6-0.3,1.3-0.3,1.5c0,0.2-0.1,0.7-0.2,1.1
	c-0.1,0.4-0.4,1.2-0.5,1.8c-0.8,3.2-1,3.9-1.2,4.6c-0.1,0.4-0.2,0.9-0.2,1.1c0,0.2-0.1,0.7-0.2,1.1c-0.1,0.5-0.4,1.5-0.6,2.3
	c-0.2,0.8-0.5,1.8-0.6,2.2c-0.1,0.5-0.4,1.5-0.6,2.2c-0.2,0.8-0.5,2.2-0.8,3.2c-0.2,1-0.5,2-0.6,2.3c-0.1,0.3-0.3,1.1-0.4,1.7
	c-0.4,1.4-0.3,1.6,0.9,2.1c1.4,0.6,1.5,0.8,0.5,2.2c-0.3,0.4-0.5,0.7-0.5,0.8c0,0-0.4,0.7-0.9,1.5c-1.1,1.6-1.1,1.7,0.9,1.7
	c2.7,0,4.2-0.4,1.6-0.5c-1.5,0-1.5-0.2,0.6-1.9c0.6-0.4,1.3-1.1,1.7-1.4c0.4-0.3,0.9-0.8,1.3-1c0.9-0.7,4.4-3.5,7.3-5.9
	c1.4-1.2,2.7-2,2.9-1.9c0.2,0.1,0.2,0.7,0,0.8c-0.1,0.1-0.2,0.3-0.2,0.6c0,0.3-0.1,0.9-0.3,1.5c-0.8,2.8-0.8,2.8,2.4,3
	c0.6,0,0.6,0.4-0.1,3.2c-0.7,2.9-0.8,3-1.7,3c-3.7,0.1-3.6,0.2,0.5,0.4l3.1,0.1l0.3-0.4c0.2-0.2,0.3-0.8,0.4-1.2
	c0.1-0.4,0.2-0.9,0.2-1c0.1-0.1,0.2-0.5,0.2-1c0.2-1.6,0.7-2.9,1-2.8c0.5,0.3,1-0.1,1.1-0.9c0.1-0.4,0.2-1,0.3-1.4
	c0.1-0.4,0.4-1.4,0.6-2.2c0.2-0.8,0.5-1.8,0.6-2.2c0.1-0.5,0.3-1.4,0.5-2.1c0.2-0.7,0.4-1.7,0.6-2.3c0.2-0.6,0.4-1.7,0.6-2.4
	c0.2-0.7,0.4-1.6,0.5-1.9c0.1-0.3,0.3-0.9,0.3-1.2c0.1-0.4,0.2-0.7,0.2-0.8c0.1-0.1,0.2-0.5,0.3-0.9c0.9-3.8,4.8-11,6-11
	c0.2,0,0.4,0.2,0.7,0.7c3.8,7.5,15.7,4.7,20.2-4.8c0.6-1.2,1-2.2,1-2.5c0-0.2,0.1-0.4,0.2-0.4c0.8-0.8,1.7-7.9,1.2-9.3
	c-0.1-0.2-0.2-0.8-0.3-1.2c-0.3-1.8-2.1-4.5-3.5-5.2C379.3,32.3,375.7,32,374.4,32.6 M196.1,33.5c-0.1,0.2-0.4,0.9-0.5,1.5
	c-0.1,0.6-0.4,1.7-0.6,2.5s-0.4,1.8-0.5,2.2c-0.1,0.4-0.2,1-0.3,1.2c-0.2,0.5-0.4,1.6-0.9,3.6c-0.1,0.5-0.3,1.4-0.5,2
	c-0.1,0.6-0.4,1.5-0.5,2c-0.4,1.7-0.6,2.6-0.9,3.4c-0.9,3.4-1.3,5-1.5,5.8c-0.1,0.5-0.3,1.5-0.5,2c-0.1,0.5-0.3,1.4-0.4,1.8
	c-0.1,0.5-0.3,1.2-0.4,1.7c-0.6,2-1.8,6.8-1.9,7.8c-0.1,0.4-0.2,0.9-0.2,1c-0.1,0.1-0.2,0.6-0.3,1.1c-0.1,0.5-0.3,1.4-0.5,1.9
	s-0.3,1.4-0.4,1.8c-0.1,0.5-0.3,1.2-0.4,1.7c-0.2,0.8-0.7,2.6-1.2,4.6c-0.1,0.5-0.4,1.6-0.6,2.4c-0.3,1.5-0.6,2.4-1.1,4.1
	c-0.1,0.5-0.3,1.1-0.3,1.5l0,0.6h11.7h11.7l0.2-0.9c0.1-0.5,0.3-1.3,0.4-1.8c0.1-0.5,0.2-1.1,0.3-1.2s0.2-0.7,0.3-1.1
	c0.1-0.4,0.3-1.4,0.5-2.2c0.2-0.8,0.4-1.8,0.5-2.2c0.1-0.4,0.2-0.9,0.3-1.1c0.1-0.2,0.2-0.7,0.3-1.2c0.2-1,1-4.4,1.4-5.7
	c0.1-0.4,0.2-1,0.2-1.1s0.1-0.6,0.2-0.9c0.1-0.3,0.3-1,0.4-1.5c0.1-0.5,0.3-1.3,0.5-1.9c0.2-0.6,0.4-1.5,0.4-1.9
	c0.1-0.5,0.3-1.1,0.4-1.4c0.1-0.3,0.2-0.7,0.2-0.9c0-0.2,0.1-0.6,0.2-0.9c0.1-0.3,0.3-0.9,0.4-1.5c0.1-0.5,0.4-1.6,0.6-2.4
	c0.2-0.8,0.5-1.8,0.6-2.3c0.1-0.5,0.3-1.4,0.5-2c0.1-0.6,0.4-1.5,0.5-2.1c0.3-1.4,0.6-2.4,0.8-3.2c0.1-0.4,0.3-1,0.3-1.5
	s0.2-1,0.3-1.3c0.1-0.2,0.2-0.6,0.2-0.8c0-0.2,0.1-0.8,0.2-1.2c0.1-0.5,0.3-1.2,0.4-1.6c0.1-0.4,0.3-1.2,0.4-1.7
	c0.1-0.5,0.3-1.3,0.4-1.8c0.2-0.8,0.4-1.8,0.9-3.4c0.1-0.5,0.3-1.3,0.4-1.7c0.1-0.4,0.2-0.9,0.4-1.1c0.5-0.8,0.1-1.1-0.8-0.6
	c-1.8,0.9-2.7,1.3-4.2,1.7c-3.2,0.9-3.3,0.9-7.2,0.9c-3,0-3.9-0.1-4.6-0.3c-0.5-0.1-1-0.3-1.3-0.3c-0.2,0-0.5-0.1-0.5-0.1
	c-0.1-0.1-0.3-0.2-0.5-0.3c-0.9-0.2-2.7-1.2-3.3-1.7l-0.4-0.4L196.1,33.5 M314.6,47.1c1.7,1.1,2.5,6.6,1.2,8.7
	c-0.2,0.3-10.3,0.2-10.7-0.1c-0.2-0.2-0.2-0.3-0.1-0.5c0.1-0.1,0.2-0.5,0.3-0.8c0.1-0.7,0.5-1.5,1.4-3.3c1.1-2.2,2.9-3.9,4.6-4.4
	C312.1,46.6,313.9,46.8,314.6,47.1 M88.7,70.1c1.3,0.4,1.6,0.7,1.3,1.5c-0.1,0.4-0.2,0.8-0.2,1.1c0,0.2-0.1,0.5-0.2,0.7
	c-0.1,0.2-0.3,0.8-0.4,1.4c-1,4.4-1,4.4-2.6,5.2c-0.9,0.5-2.7,0.6-3.9,0.4c-2.9-0.7-3-6-0.1-8.9C84.1,69.8,86.2,69.3,88.7,70.1
	 M311.2,78.8c1.6,0.8,0.8,4.6-1.2,5.9c-2.9,1.8-4.6-2.1-2.1-4.9C308.9,78.5,310.1,78.2,311.2,78.8"/>
<path id="path1" class="st1" d="M42.9,16.1c0.3,0,0.7,0,0.9,0c0.3,0,0-0.1-0.5-0.1S42.6,16.1,42.9,16.1 M49.1,16.1
	c0.2,0,0.5,0,0.7,0c0.2,0,0-0.1-0.4-0.1C49,16,48.9,16.1,49.1,16.1 M220.4,17.4c0.4,0.4,0.7,0.8,0.7,0.8c0.1,0-0.6-0.9-1-1.2
	C219.9,16.7,220.1,16.9,220.4,17.4 M137.2,17.3c3.1,0,8.1,0,11.2,0c3,0,0.5,0-5.6,0S134.1,17.3,137.2,17.3 M171.9,17.3
	c3,0,7.9,0,10.9,0c3,0,0.5,0-5.5,0C171.3,17.2,168.9,17.3,171.9,17.3 M238.3,17.3c3.1,0,8.2,0,11.3,0c3.1,0,0.5,0-5.7,0
	C237.7,17.2,235.2,17.3,238.3,17.3 M221.2,18.8c0,0.1,0.1,0.4,0.2,0.6c0.1,0.2,0.2,0.3,0.2,0.2c0-0.1-0.1-0.4-0.2-0.6
	C221.3,18.8,221.2,18.7,221.2,18.8 M221.7,21.8c0,0.8,0,1.1,0.1,0.7c0-0.4,0-1,0-1.4S221.7,21.1,221.7,21.8 M18.2,28.5l-0.7,0.7
	L18.2,28.5c0.7-0.6,0.8-0.7,0.7-0.7C18.9,27.8,18.6,28.2,18.2,28.5 M217.8,30.8l-0.6,0.6L217.8,30.8c0.6-0.5,0.8-0.6,0.6-0.6
	C218.4,30.2,218.1,30.4,217.8,30.8 M309.5,31.8c0.2,0,0.5,0,0.8,0c0.2,0,0-0.1-0.4-0.1C309.4,31.7,309.3,31.7,309.5,31.8
	 M313.2,31.8c0.2,0,0.4,0,0.6,0c0.2,0,0-0.1-0.3-0.1S313,31.7,313.2,31.8 M98.8,32.3c0.4,0,1,0,1.4,0c0.4,0,0.1-0.1-0.7-0.1
	S98.4,32.3,98.8,32.3 M376.5,32.3c0.2,0,0.5,0,0.8,0c0.2,0,0-0.1-0.4-0.1C376.4,32.2,376.3,32.2,376.5,32.3 M95.4,32.4
	c0.2,0,0.4,0,0.6,0c0.2,0,0-0.1-0.3-0.1C95.3,32.4,95.2,32.4,95.4,32.4 M266.1,33c2.9,0,7.6,0,10.4,0c2.9,0,0.5,0-5.2,0
	C265.6,32.9,263.3,32.9,266.1,33 M282.1,33c0.2,0,0.5,0,0.7,0c0.2,0,0-0.1-0.4-0.1C282,32.9,281.9,32.9,282.1,33 M347,33
	c2.9,0,7.5,0,10.3,0c2.8,0,0.5,0-5.2,0C346.4,32.9,344.1,32.9,347,33 M212.4,33.1c0.3,0,0.7,0,0.9,0c0.3,0,0-0.1-0.5-0.1
	C212.3,33,212.1,33.1,212.4,33.1 M206.2,36.3c0.5,0,1.4,0,1.9,0s0.1-0.1-1-0.1C206.1,36.2,205.7,36.3,206.2,36.3 M384.9,41.2
	c0,0.4,0,0.6,0.1,0.4c0-0.2,0-0.5,0-0.8C384.9,40.6,384.9,40.8,384.9,41.2 M361,43.8c0,0.5,0.2,1,0.4,0.7c0.1-0.1,0-0.2-0.1-0.2
	S361.2,44.1,361,43.8C361.1,43.4,361,43.4,361,43.8 M252.1,48.7l-1,1L252.1,48.7c0.6-0.5,1.1-1,1.1-1
	C253.2,47.6,253,47.7,252.1,48.7 M329.7,52.4c0,1.3,0,1.8,0.1,1.1c0-0.7,0-1.7,0-2.3C329.8,50.6,329.7,51.1,329.7,52.4 M40.2,51.8
	c0.6,0,1.6,0,2.2,0c0.6,0,0.1-0.1-1.1-0.1C40.1,51.7,39.6,51.8,40.2,51.8 M247.3,51.9c0,0.3,0.3,0.4,0.7,0.1
	c0.2-0.1,0.2-0.2-0.1-0.1c-0.2,0.1-0.4,0-0.5-0.1C247.4,51.6,247.3,51.7,247.3,51.9 M85.1,52.5c0.3,0,0.8,0,1,0c0.2,0,0-0.1-0.5-0.1
	C85,52.4,84.8,52.4,85.1,52.5 M272.9,53.4l-0.5,0.5L272.9,53.4c0.6-0.4,0.7-0.5,0.5-0.5C273.4,52.8,273.2,53.1,272.9,53.4
	 M304.9,55.3c-0.1,0.1,0,0.3,0.2,0.4c0.3,0.3,10.5,0.4,10.6,0.1c0-0.1-2.2-0.1-5.1-0.1c-5.1,0-5.8,0-5.5-0.5c0-0.1,0.1-0.1,0-0.1
	S305,55.2,304.9,55.3 M360.9,56.4c-0.3,0.4-0.3,0.4,0,0.1c0.2-0.2,0.5-0.3,0.7-0.4c0.3-0.1,0.3-0.1,0-0.1
	C361.4,56,361.1,56.2,360.9,56.4 M84.8,59.8c0.2,0,0.5,0,0.7,0c0.2,0,0-0.1-0.4-0.1C84.7,59.7,84.6,59.7,84.8,59.8 M92.4,60.6
	c-0.1,0.3-0.2,0.4-0.5,0.3c-0.3-0.1-0.3-0.1-0.1,0.1c0.3,0.2,0.8-0.1,0.8-0.6C92.7,60,92.5,60.1,92.4,60.6 M366.3,60.4
	c0.2,0.1,0.5,0.2,0.6,0.2c0.1,0,0-0.1-0.2-0.2s-0.5-0.2-0.6-0.2C366,60.2,366.1,60.3,366.3,60.4 M373.2,60.4
	c-0.2,0.1-0.3,0.2-0.2,0.2c0.1,0,0.4-0.1,0.6-0.2s0.3-0.2,0.2-0.2S373.4,60.3,373.2,60.4 M370,61c0.2,0,0.5,0,0.8,0
	c0.2,0,0-0.1-0.4-0.1C369.9,60.9,369.8,60.9,370,61 M3.2,63.1c0,0.5,0,0.8,0.1,0.5c0-0.3,0-0.8,0-1C3.2,62.3,3.2,62.5,3.2,63.1
	 M355.7,66.1c-0.3,0.6-0.2,0.7,0.1,0.2c0.1-0.3,0.2-0.5,0.2-0.5C355.9,65.7,355.8,65.9,355.7,66.1 M70.2,66.7l-0.7,0.7L70.2,66.7
	c0.7-0.6,0.8-0.7,0.7-0.7C70.9,66,70.6,66.3,70.2,66.7 M313.2,66.3c1.4,0,3.5,0,4.8,0s0.2-0.1-2.5-0.1
	C312.9,66.2,311.9,66.3,313.2,66.3 M322,66.3c0.2,0,0.5,0,0.7,0c0.2,0,0-0.1-0.4-0.1S321.8,66.2,322,66.3 M323.5,66.3
	c0.2,0,0.4,0,0.6,0c0.2,0,0-0.1-0.3-0.1C323.5,66.2,323.4,66.2,323.5,66.3 M303.7,66.6c-0.1,0.1-0.1,0.4,0,0.5
	c0,0.2,0.1,0.1,0.2-0.2C303.9,66.3,303.9,66.2,303.7,66.6 M279,67.9c0,0.4,0,0.5,0.1,0.3c0-0.2,0-0.5,0-0.7
	C279.1,67.4,279,67.6,279,67.9 M3.2,69.8c0,0.4,0,0.6,0.1,0.4c0-0.2,0-0.5,0-0.8C3.2,69.3,3.2,69.4,3.2,69.8 M278.9,69.9
	c0,0.4,0,0.5,0.1,0.3c0-0.2,0-0.5,0-0.7C278.9,69.4,278.9,69.6,278.9,69.9 M86.8,69.7c0,0,0.3,0.1,0.7,0.2c0.4,0.1,0.5,0.1,0.3-0.1
	C87.6,69.7,86.7,69.6,86.8,69.7 M354.4,70.3c-0.1,0.1-0.1,0.4-0.1,0.5s0.1,0.1,0.2-0.2C354.7,70.1,354.6,69.8,354.4,70.3 M89.7,70.6
	c0.1,0.2,0.2,0.5,0.2,0.7c-0.1,0.2,0,0.2,0.1,0c0.2-0.3,0.1-0.4-0.2-0.7l-0.4-0.4L89.7,70.6 M249.1,74.8c0,0.6,0,0.9,0.1,0.5
	c0-0.3,0-0.9,0-1.2C249.1,73.8,249.1,74.1,249.1,74.8 M311.9,75.8c0.5,0,1.4,0,1.9,0c0.5,0,0.1-0.1-1-0.1
	C311.8,75.7,311.3,75.8,311.9,75.8 M80.3,77.4c0,0.2,0.1,0.4,0.2,0.6c0.1,0.2,0.1,0.1,0.1-0.2C80.4,77.1,80.3,77,80.3,77.4
	 M248.9,77.5c-0.1,1.1-0.3,1.3-1.5,1.3c-6.1,0.1-5.8-0.1-6.4,2.9c-0.2,0.7-0.5,2-0.7,2.8c-0.2,0.8-0.5,2-0.6,2.5
	c-0.1,0.6-0.4,1.7-0.6,2.5c-0.2,0.8-0.4,1.8-0.5,2.2c-0.1,0.4-0.3,1.3-0.5,2c-0.2,0.7-0.5,1.6-0.5,2.1c-0.1,0.5-0.3,1.4-0.5,2
	c-0.2,0.6-0.5,1.7-0.6,2.4c-0.1,0.7-0.4,1.8-0.6,2.4c-0.3,1.1-0.7,2.9-0.9,4.3c-0.1,0.5,0,0.7,0.1,0.8c0.3,0.2,17.8,0.2,18.1,0
	c0.4-0.3,0.6-0.8,1.2-3.7c0.1-0.4,0.3-1.3,0.5-1.9c0.4-1.7,0.5-1.6-3.8-1.7c-4.3,0-4.3,0-4-1.6c0.6-3.1,1.2-5.5,1.6-6.5l0.2-0.6h4.5
	c2.5,0,4.5,0.1,4.6,0.1c0,0.1-0.2,1-0.6,2.1c-3.1,8.5-0.1,14.6,6.8,14c2.6-0.2,3.8-0.7,5.9-2.3c2.7-2,4.6-4.8,5.6-8.1
	c0.2-0.8,0.5-1.8,0.7-2.2c1.2-4.1-0.5-9-3.8-10.6c-0.7-0.3-0.9-0.5-1-0.8l-0.1-0.4l-0.2,0.4c-0.2,0.4-0.3,0.4-2.4,0.5
	c-4.1,0.2-9,3.4-10.2,6.7l-0.2,0.4l-4.9,0l-4.9,0l0-0.7c0-0.4,0.1-0.8,0.2-1c0.1-0.3,1.5-5.5,1.9-7.8c0.1-0.6,0.3-1.5,0.5-2
	c0.3-1.2,0.2-1.3-1.2-1.3l-1-0.1L249,78C248.9,77.5,248.9,77.3,248.9,77.5 M356.8,78.5c-0.8,0.2-2.2,1.8-2.4,2.6
	c-0.7,3.1,0.8,5,3,3.7C360.6,82.7,360.1,77.5,356.8,78.5 M309.1,78.7c-2.2,1-3.2,5-1.5,6.1c2.1,1.3,5.3-2.7,4.2-5.4
	C311.5,78.6,310.2,78.3,309.1,78.7 M240.4,79.5c-0.3,0.8-0.2,1.2,0.1,0.5c0.1-0.3,0.2-0.7,0.2-0.8C240.6,79,240.5,79.2,240.4,79.5
	 M343.1,79.7c-0.4,0.3-1.3,0.9-1.9,1.5c-2.9,2.4-6.3,5.2-7.3,5.9c-0.3,0.3-0.9,0.7-1.3,1c-0.4,0.3-1.1,0.9-1.7,1.4
	c-2.1,1.7-2.1,1.9-0.6,1.9c1.6,0,1.7,0.3,0.2,0.4l-1.4,0.2l1.1,0c1.6,0,1.6,0,1.3,1.9c-0.2,0.9-0.5,2.2-0.7,3
	c-1.6,5.5-0.9,9.1,2,10.7c1.4,0.8,4.9,0.8,6.4,0.1c2-1,2.1-1,2.3-1.8c0.1-0.4,0.3-0.9,0.4-1.1c0.2-0.4,1-3.6,1.3-5.1
	c0.3-1.5,0.1-1.8-0.9-1.3c-1.5,0.7-2.5,0.1-2.2-1.4c0.3-1.7,1.1-4.5,1.2-4.7c0.2-0.3,6.3-0.3,6.4,0c0,0.1-0.1,1.1-0.4,2.2
	c-0.8,3.1-1.5,5.7-1.8,7.2c-0.2,0.7-0.4,1.7-0.6,2.2s-0.4,1.4-0.5,2.1c-0.1,0.6-0.3,1.2-0.3,1.3c0,0.1,0,0.3,0.1,0.5
	c0.2,0.4,8.7,0.5,9,0c0.1-0.1,0.3-0.9,0.5-1.8c0.2-0.8,0.4-1.7,0.5-2c0.3-0.9,1.2-4.6,1.4-5.7c0.1-0.6,0.8-3.2,1.5-5.9
	s1.3-5.3,1.4-5.9c0.1-1.2,0.2-1.2-1.8-0.6c-2.7,0.8-5.4,0.4-5.4-0.7c0-0.3-0.1-0.5-0.1-0.3c-0.1,0.4-0.7,0.8-1.1,0.5
	c-0.3-0.2-0.8,1.2-1,2.8c-0.1,0.5-0.2,0.9-0.2,1c-0.1,0.1-0.2,0.5-0.2,1c-0.1,0.4-0.2,1-0.4,1.2l-0.3,0.4l-3.1-0.1
	c-4.1-0.2-4.2-0.3-0.5-0.4c1,0,1-0.1,1.7-3c0.7-2.8,0.7-3.2,0.1-3.2c-3.2-0.1-3.2-0.1-2.4-3c0.2-0.6,0.3-1.3,0.3-1.5
	c0-0.3,0.1-0.5,0.2-0.6c0.2-0.1,0.2-0.7,0-0.8C343.9,79.2,343.5,79.4,343.1,79.7 M271.9,79.8c0,0.3,0,0.5,0.1,0.3s0-0.4,0-0.6
	C271.9,79.4,271.9,79.5,271.9,79.8 M64.4,80.7c0,0.3,0,0.5,0.1,0.3c0-0.2,0-0.4,0-0.6S64.4,80.3,64.4,80.7 M64.2,82.1
	c0,0.5,0,0.6,0.1,0.4c0-0.3,0-0.6,0-0.8C64.2,81.4,64.2,81.6,64.2,82.1 M351.2,83.4c-0.3,0.8-0.2,1,0.1,0.3c0.1-0.3,0.2-0.6,0.2-0.7
	C351.4,82.9,351.3,83.1,351.2,83.4 M239.4,83.7c0,0.2-0.1,0.4-0.1,0.6c-0.1,0.3-0.1,0.3,0.1,0C239.4,84.1,239.5,83.9,239.4,83.7
	C239.4,83.4,239.4,83.4,239.4,83.7 M319.7,84.3c-0.5,0.4-1.1,0.9-1.3,0.9c-1.7,0.5-3.5,1.7-4.6,3.1c-0.2,0.3-0.9,0.8-1.5,1.1
	c-0.6,0.3-1.1,0.6-1,0.6s0.3-0.1,0.6-0.2c0.8-0.4,1.1-0.2,0.7,0.6c-1.7,3.3-0.2,7,3.2,8.1c2.8,0.9,2.7,3.8-0.2,3.9
	c-1.2,0-3.2-1.3-3.5-2.5c-0.1-0.4-0.8-0.1-1,0.5c-0.1,0.3-0.7,1.3-1.4,2.4c-1,1.5-1.4,3.2-0.9,3.2c0.1,0,0.4,0.2,0.7,0.3
	c2.3,1.6,9.3,2.3,11.6,1.2c0.3-0.2,1-0.5,1.5-0.7c3.4-1.6,5.8-7.6,4.3-10.8c-0.5-1-1.9-2.1-3.2-2.5c-2-0.5-3-1.7-2.3-2.7
	c0.9-1.4,2.7-1.2,3.9,0.3l0.6,0.8l1.5,0c1.4,0,1.4,0,0.6-0.1c-1.3-0.1-1.3-0.1-0.2-1.7c0.5-0.8,0.9-1.4,0.9-1.5c0,0,0.2-0.4,0.5-0.8
	c0.9-1.3,0.9-1.5-0.6-2.2c-0.7-0.4-1-0.6-1.1-0.9c-0.1-0.4-0.1-0.4-0.4-0.1c-0.3,0.2-0.4,0.2-0.9,0.1c-0.5-0.2-2-0.2-6.2-0.3
	c-0.1,0,0-0.1,0.1-0.3C321,83.3,320.8,83.3,319.7,84.3 M369.9,84.7c-2.7,0.5-7.1,3.4-8.2,5.5c-0.2,0.3-0.4,0.7-0.6,0.9
	c-0.8,0.9-2,3.8-2.5,6.2c-1.3,6.3,1.4,10.6,7.1,11c2.6,0.2,5.9-0.3,7.1-1c0.2-0.1,0.4-0.5,0.4-0.9c0.1-0.4,0.4-1.7,0.7-2.8
	c1.6-6.5,1.7-6-1-5.3c-3.9,0.9-6.3-0.7-4.3-2.9c1-1,4.4-1.1,5.9,0c1.1,0.8,1.3,0.6,1.8-1.4c0.2-0.7,0.4-1.6,0.5-2.1
	c0.4-1.2,1.2-5.1,1.2-5.4C378.2,85.2,373.1,84.1,369.9,84.7 M386.7,84.7c-1.3,0.2-3,0.7-3.3,0.9c-0.1,0.1-0.5,0.3-0.8,0.5
	c-3.3,1.7-5.5,7.3-3.9,9.9c0.9,1.4,1.1,1.7,3.1,2.7c2.6,1.3,3,2.2,1.7,3.4c-1.2,1.2-3.5,0.5-4.8-1.5c-0.3-0.5-0.6-0.9-0.7-0.9
	c-0.2,0-1.1,1.4-1.8,2.7c-0.3,0.7-0.9,1.6-1.2,2.1c-0.8,1.3-0.3,1.9,2.5,2.8c0.5,0.2,1.1,0.4,1.4,0.5c0.8,0.3,4,0.6,5.5,0.5
	c3.1-0.3,5.2-1.4,7.4-3.9c1.3-1.6,2.2-5.5,1.7-7.3c-0.5-1.7-1.1-2.2-4.1-3.6c-1.8-0.8-2.1-1.3-1.7-2.3c0.6-1.4,2.4-1.4,4.1,0.2
	c1.3,1.1,1,1.3,3.3-2.4c1.4-2.3,1.4-2.4,0.1-3C393,84.7,389.6,84.3,386.7,84.7 M282.2,85.1c0.4,0.8,0.3,1-0.4,1.5
	c-1,0.7-2.6,2.4-3,3.2c-0.2,0.4-0.5,1.2-0.8,1.7c-1.4,3-1.5,7.3-0.2,8.9c1.5,1.9,3.7,2.5,6.5,1.9c1.6-0.4,1.8-0.3,1.2,0.8
	c-1.3,2.5-5.5,2.3-8.3-0.3c-0.8-0.7-1.5-1.3-1.6-1.3c-0.2,0-1.2,3.4-1.5,5.5c-0.1,0.5-0.2,1-0.3,1.1c-0.1,0.1-0.3,0.8-0.4,1.7
	l-0.3,1.5l0.7,0.6c2.3,2,5,2.8,9.6,2.6c2-0.1,2.7-0.1,3.4-0.4c2.9-1.2,4.2-2.2,5.7-4.4c1.4-2.1,1.9-3.6,3-7.8
	c0.1-0.4,0.3-1.3,0.5-1.9c0.2-0.6,0.4-1.5,0.4-1.8c0.1-0.4,0.3-1.4,0.6-2.4c0.3-0.9,0.5-1.9,0.5-2c0-0.4,0.5-0.7,1.4-0.7
	c1.2,0,1.2,0.1,0.3,3.4c-0.6,2.6-1.2,4.8-1.9,7.6c-0.1,0.4-0.4,1.4-0.6,2.2c-0.5,2-0.7,1.9,4.3,1.9c5,0,4.5,0.3,5.3-3.6
	c0.3-1.7,1.1-4.5,1.5-5.9c0.2-0.7,0.5-1.8,0.6-2.5c0.1-0.7,0.4-1.8,0.6-2.5s0.4-1.6,0.5-2c0.2-0.6,0.3-0.8,0.8-1.1l0.6-0.3l-0.6,0.1
	c-0.7,0.1-0.7,0-0.2-1.8c0.6-2,0.7-3.4,0.1-3c-1.1,0.9-5.4,1.1-7.2,0.3c-0.9-0.4-1-0.4-1.2-0.2c-0.2,0.3-0.8,2.7-1.1,4.1
	c-0.4,1.9-0.7,2.7-1.1,2.8c-0.7,0.2-1.6,0.2-1.8-0.1c-0.2-0.2-0.2-0.5,0.1-1.6c0.1-0.3,0.3-1,0.4-1.4c0.1-0.5,0.3-1.2,0.4-1.7
	c0.1-0.5,0.3-1.2,0.3-1.7l0-0.8l-0.8-0.1c-2-0.2-13.9,0.1-14.4,0.4c-0.7,0.4-0.9,0.4-1.5-0.3C282,84.6,282,84.6,282.2,85.1
	 M9.6,86.3c0.4,0.4,0.7,0.7,0.7,0.7c0,0-0.2-0.3-0.6-0.7C9.4,86,9.1,85.7,9,85.7C9,85.7,9.2,86,9.6,86.3 M238.7,86.3
	c-0.1,0.3-0.2,0.6-0.1,0.6c0,0,0.2-0.2,0.3-0.4C239.1,85.8,238.9,85.7,238.7,86.3 M85,88.2l-0.4,0.3l0.5-0.3
	c0.7-0.4,0.7-0.4,0.5-0.4C85.4,87.8,85.2,88,85,88.2 M238.1,88.6c-0.1,0.2-0.1,0.5,0,0.5c0,0,0.1-0.1,0.2-0.4c0.1-0.2,0.1-0.5,0-0.5
	C238.2,88.2,238.2,88.4,238.1,88.6 M53.9,91.8c-0.1,0.1-0.6,0.2-1.1,0.2l-0.9,0.1l0.9,0C53.5,92.2,53.9,92.1,53.9,91.8
	C54.2,91.6,54.2,91.6,53.9,91.8 M158.9,91.8l-11.5,0.1l11.4,0c7.5,0,11.5,0,11.6-0.1c0.1-0.1,0.1-0.1,0.1-0.1
	C170.4,91.7,165.2,91.8,158.9,91.8 M288.4,92.6c-0.1,2.4-1,4.2-2.1,4.2c-2.3,0-1.5-4.3,0.9-5C288.3,91.5,288.4,91.6,288.4,92.6
	 M91,92c3.1,0,8.2,0,11.2,0c3.1,0,0.6,0-5.6,0C90.5,91.9,87.9,91.9,91,92 M119,92c3.1,0,8.2,0,11.3,0c3.1,0,0.5,0-5.7,0
	C118.3,91.9,115.8,91.9,119,92 M187.6,92c3.1,0,8.1,0,11.2,0c3,0,0.5,0-5.6,0C186.9,91.9,184.5,91.9,187.6,92 M219.9,92
	c3.2,0,8.4,0,11.6,0c3.2,0,0.6,0-5.8,0C219.3,91.9,216.7,91.9,219.9,92 M51,92.3c0.2,0,0.4,0,0.6,0c0.2,0,0-0.1-0.3-0.1
	S50.9,92.2,51,92.3 M48.4,92.5c0.3,0,0.6,0,0.8,0c0.2,0,0-0.1-0.5-0.1C48.3,92.4,48.1,92.4,48.4,92.5 M72.5,92.5c0.5,0,1.2,0,1.7,0
	c0.4,0,0-0.1-0.9-0.1C72.3,92.4,72,92.4,72.5,92.5 M44.8,92.6c0.2,0,0.5,0,0.8,0c0.2,0,0-0.1-0.4-0.1C44.8,92.5,44.6,92.6,44.8,92.6
	 M43.1,92.8c0.2,0,0.5,0,0.7,0c0.2,0,0-0.1-0.4-0.1C43,92.7,42.9,92.7,43.1,92.8 M41,93c0.2,0,0.5,0,0.7,0s0-0.1-0.4-0.1
	C40.9,92.9,40.8,92.9,41,93 M31.2,93.1c1,0,2.6,0,3.5,0c0.9,0,0.1-0.1-1.8-0.1C31,93.1,30.2,93.1,31.2,93.1 M267.6,94
	c0.5,0.5,0.6,2.4,0.1,3.3c-1,1.9-3.5,1.7-3.5-0.3C264.2,94.8,266.4,92.9,267.6,94"/>
</svg>
