<?xml version="1.0" encoding="utf-8"?>
<!-- Generator: Adobe Illustrator 25.4.1, SVG Export Plug-In . SVG Version: 6.00 Build 0)  -->
<svg version="1.1" id="layer" xmlns="http://www.w3.org/2000/svg" xmlns:xlink="http://www.w3.org/1999/xlink" x="0px" y="0px"
	 viewBox="0 0 652 145" style="enable-background:new 0 0 652 145;" xml:space="preserve">
<style type="text/css">
	.st0{fill:#695D54;}
	.st1{fill:#299DD0;}
</style>
<g>
	<path id="XMLID_625_" class="st0" d="M594.6,14.9c0.1,0.1,0.1,0.2,0.1,0.3l0,0C594.7,15.1,594.7,15,594.6,14.9"/>
	<polyline id="XMLID_626_" class="st0" points="567.7,62.2 567.7,62.2 567.7,62.2 567.7,62.2 	"/>
	<path id="XMLID_627_" class="st0" d="M596.7,63.5L596.7,63.5l0.2-0.1v-0.1l0,0h-0.2V63.5 M596.8,63.5L596.8,63.5l0.1-0.1l0,0"/>
	<polyline id="XMLID_630_" class="st0" points="596.7,63.6 596.7,63.5 596.7,63.5 596.7,63.5 	"/>
	<path id="XMLID_631_" class="st0" d="M621.4,43.7L621.4,43.7l-0.1-0.6c-0.1-0.2-0.2-0.3-0.3-0.5c-0.8,1.1-0.9-0.3-1.1-0.3
		c-0.1,0-0.4,1.1-0.6,0.3c-0.3-0.3-0.5,0.2-0.8-0.3l-0.2,0.3c0.2-0.3-0.1-0.6-0.1-0.8s0.8-0.5,0.1-0.8c0.2,0.6-0.9,0.2-0.1-0.2
		l0.4-0.8c-0.5,0.2-0.3-0.8-0.4-1.2l-0.2,0.1l-0.1-0.4c-0.1,0.2-0.6,0.3-0.5,0.5c0.2-0.3,0,0.9,0,1c0.5-0.7,0.2,0.2,0.2,0.5
		l-0.1-0.3l-0.4,0.1c0.1,0,0.4,0.3,0.4,0.5c0-0.1,0.3,0.2,0,0.1V41l-0.2,0.2c-0.5,0.1-0.5-0.7-0.4-1c0-0.1-0.2-0.9,0-0.8
		c-0.1,0,0.5-0.2,0-0.4c-0.1,0,0.1-0.4-0.1-0.4c-0.4-0.1-0.6,0.7-0.7-0.1c-0.2,0.2-0.3-0.1-0.5-0.1c0.1,0.1-0.3,0.5-0.3,0.7
		c0-0.4-0.3-0.5-0.6-0.6l-0.5-0.6c-0.6,0-0.5,1.5-0.7,1.6c-0.3,0.1-0.4-0.7-0.3-0.8c-0.4,0.1-0.2-0.3-0.4-0.5l-0.6,0.8
		c0-0.4-0.2-0.5-0.4-0.2c0.4,0.2,0,1-0.3,1.2c0-0.3-0.3-0.6-0.1-0.9c-0.4,0-0.3,0.3-0.6,0.4c-0.2,0.1-0.6-0.4-0.7,0.1
		c0.1-0.2,0.3-0.1,0.4,0.1l-0.8,0.7c-0.2-0.1-0.1-0.5-0.1-0.7c-0.3,0.5,0,0.6-0.1,1c0.2-0.2,0.5-0.2,0.2,0.1
		c0.6,0.2,0.1,0.3-0.2,0.6c0.1-0.1,0.4,0.6,0,0.4c0.3,0.3-0.1,0.7,0.2,1c0.8-1.1,0.9,1,0.2,1c-0.2,0,0.3-0.7-0.2-0.8
		c-0.4-0.1-0.4,1.1-0.4,1.3v1l-0.3,0.8c0.5,0.2,0.1,0.8,0.5,1.1c-0.2,0.3-0.3,0-0.5-0.1c0.2,0.1-0.5,2.2-0.5,2.5
		c0.3,0.1,0-0.5,0.4-0.6c0.3-0.1,0,0.8,0.2,0.9c0.4,0.1,0.5-0.3,0.7-0.5c0.4-0.7,0.9,0.8,0.3,0.1c-0.2,0.1,0,0.4-0.2,0.6
		c0.3,0,0.5-0.4,0.8-0.2c-0.3,0.1-0.1,0.4-0.2,0.6c-0.2,0.3-0.3-0.1-0.5-0.1l0.1,1c-0.3,0.2-0.3,1.4-0.1,1.4l0.1-1.2l0.7,0.5
		c0.1,0.2-0.5,0.6-0.5,0.9l-0.1,1.7c0.4,0.1-0.1-1,0.4-0.7c0.4,0.3,0.2,0.7,0.2,0.6c0.1,0.1-0.1,0.2,0.2,0.2
		c-0.8,0.4,0.5,0.9-0.2,1.4c-0.7-0.9-0.1-0.1-0.7-0.1c-0.2-0.1-0.2-0.4,0-0.5c-0.1-0.3-0.5,0.2-0.4,0.3c0,0.1,0.9,0.7,0.4,0.7
		c-0.2,0-0.5,0.2-0.7,0c-0.2-0.2-0.3-0.7-0.6-0.7c-0.1,0.3,0.4,1,0.6,1.3c-0.2-0.6,0.7-0.3,0.8-0.2c0.5-1,0.5,0.5,0.5,0.8l-0.3,2.5
		c-0.1,0.6,0.2,1.2,0,1.7c-0.2,0.6-0.8,1.1-0.5,1.8l-2.9-0.3c-0.4,0-0.6,0.4-1.1,0.4l-1.4-0.2l-1,0.3c-0.4,0.1-0.4-0.3-0.7-0.2
		c-0.5,0.2-0.2-0.1-0.5-0.1c-0.4,0-0.4,0.2-0.8,0.1c0,0.8-0.3,0.1-0.6,0.4c0.2-0.5-0.1-0.3-0.5-0.4c-0.1,0.5,0.1,0.3-0.4,0.3
		c-0.2,0-0.5,0.1-0.5-0.2c-0.2,0.6-0.5,0.1-0.8-0.1s-0.4,0.7-1,0.1c0,0,0.8-0.3,0.5-0.4l-0.5,0.3c-0.2-0.3-0.4-0.3-0.6,0
		c-0.1-0.2-0.5-0.1-0.5-0.3v-0.1c-0.1,0.2-0.2,0.5-0.4,0.3c-0.2-0.1,0-0.4-0.2-0.5c-0.3-0.1-0.6,0.1-0.9,0c-0.5-0.2-1.1,1.1-1.5,0.5
		c-0.1-0.1-0.2-0.5-0.4-0.5c-0.3,0.1-0.8,0.6-1-0.1c-0.1,0.2,0,1.4-0.2,1.5s-0.3-0.4-0.4-0.5c0.3-0.4,0.2,0.5,0.3-0.5
		c0-0.5,0.4-1.2-0.3-1.2c0,0.1,0.5,0.8,0,0.8c0,0-1.2,0.1-0.7-0.2c-0.4-0.3-0.9-0.4-1.4-0.2c-0.6,0.2-0.7-0.6-1,0.2
		c-0.2,0-0.3-0.1-0.4-0.2l-0.2,0.5c-0.2-1.2-0.4-0.1-0.6,0.4c-0.2,0.4-0.6-0.1-0.7-0.2c-0.3-0.3-0.2-0.4-0.2-0.8l0.3,0.2l0.1-0.4
		c0-0.3-0.6,0.3-0.8,0c0.2,0.4-0.3,0.5-0.5,0.8c0.2,0,0.5-0.1,0.6,0.1c-0.3,0.2-1.1,0.4-0.8-0.3l-0.6,0.1c0.6,0.6-0.5,0.5-0.5,0
		l-0.5,0.5c-0.1,0-0.4-0.1-0.2-0.3c-0.3,0-0.3-0.3-0.5-0.3c-0.5,0-0.6,0.7-1,1c-0.2-0.2-0.1-0.5,0.1-0.7c-0.1,0-0.5-0.4-0.7-0.2
		l-0.2,0.5c-0.3,0-0.1-0.5-0.5-0.6c-0.3,0-1.2,0.4-1-0.3l-0.5,0.4c0-0.2-0.4-0.8-0.2-1.2c-0.3,0.5-0.6,0.3-0.6,0.8
		c0,0.6-0.5-0.1-0.7,0c-0.5,0.3-2.4-0.4-2.7,0.3c-0.4-0.2,0.3-0.3-0.4-0.3c0.3,0.3-0.3,0.4-0.3,0.1l-0.3-0.1
		c-0.2,0.2,0.2,0.6,0.1,0.8c0,0.2-0.7,0.2-0.8,0l0.1-0.5c0.1-0.2-0.3-0.2-0.3-0.2c0,0.3-0.3,0.2-0.6,0.2c-0.5,0.1-0.2,0.7-0.6,0.7
		c-0.1,0-0.7-0.9-0.7-0.5c0,0.3-0.8,0.2-1,0.2c0.1-0.3,0.6-0.3,0.8-0.5l-2-0.1l-1,0.2c-0.1-0.5-0.3-0.8-0.6-1.2V62
		c-0.1,0.1-0.5-0.1-0.5-0.2h0.4l-0.5-0.5l0.2-1.4v-0.3l0,0v-0.1c-0.1-0.9,0.1-1,0.8-0.5c0.3-0.4-1.1-2.3,0.2-1.8
		c0-0.4-0.4-0.4-0.7-0.4c0.1-0.5,0.7-2.4-0.2-2.5l0.5-0.1c-0.3-0.4,0.1-0.8,0.2-1.2c0.1-0.4-0.2-0.9,0-1.4c0.2-0.6-0.1-0.8-0.2-1.3
		l0.5-1.1c-0.1-0.3-0.7-0.4-0.4-0.7c0.3-0.3,0.3-1.1,0-1.3c-0.6-0.5,0.7-1.5-0.1-1.8l0.1-0.4l0,0l0,0c0-0.4-0.1-1,0.1-1.4
		c-0.8,0.2,0.2-0.9-0.7-1l0.4-0.3c0.2-0.1-0.3-0.5,0.1-0.6c-0.4,0.1-0.4-0.8,0.2-0.5c0-0.2-0.3-0.7-0.4-0.6l0.6-0.5
		c-0.3,0-0.7-0.1-0.3-0.5c-0.5-0.2,0-0.3,0.2-0.4c0.1-0.2-0.6-0.2-0.6-0.2s1-0.9,0.3-0.7c-0.5,0.2-0.7-0.7-0.7-1
		c-0.7,0.7,0-1.2,0.4-0.2c0.1,0.3,0.2,1.1,0.7,1c-0.4-0.4,0.3-0.5,0.5-0.8c-0.7,0-0.1-0.7-0.3-1.1c-0.1-0.3-0.4-1,0.3-0.7
		c-0.2-0.7-0.6-0.3-0.9-0.5c0.1,0.1,0-0.8,0.4-0.3c0-0.3-0.2-0.2,0.1-0.5c-0.7-0.2-0.2-0.6,0-1.1c-0.3-0.1-0.5,0.7-0.6,0.9
		c0,0,0,1.4-0.5,0.9c-0.3-0.3,0.9-1.5-0.1-1.6c-0.2,0,0.9-0.7,0.7-0.2c0.1-0.1,0.3-0.4,0.1-0.5l-0.1,0.1l-0.1-0.6
		c-0.5,0.3-0.4-0.3-0.4-0.3L568,32c-0.3-0.6-0.2-1.1-0.5-1.7c-0.2-0.5-0.2-1.1,0-1.5c0-0.2-0.7-0.6-0.4-0.9l0.2,0.3
		c0.2-0.2,0-0.5-0.3-0.9l-0.3-0.4v-0.5c0-0.3,0.4-0.5,0.4-0.4c0-0.3-1.1-0.8-0.3-1.2c-0.5,0.3-0.6-0.6-0.6-0.9l0.5,0.1
		c0-0.1,0-0.9,0.3-0.6c0.3,0.2-0.3,0.3,0.2,0.4l0.7,0.1l0.8-0.6c0.1,0,0,0.4,0.1,0.4l0.8-0.8c0.1-0.4-0.7-0.3-0.5-0.7
		c-0.1,0.2,0.7,0.1,0.7,0.1c-0.3,0.6,1.6,0.7,1.8,0.1c0.1,0.2,0.1,0.5,0.3,0.7c0.4-0.7,1.1-0.4,1.7-0.8c0.3-0.2,0.3,0.2,0.2,0.3
		c-0.1,0.3,0.6,0.1,0.6,0.5c0-0.1,0.1-0.5,0.2-0.4c0.8,0.6,0.7-0.1,0.3-0.1c0.1-0.3,0.7-0.2,0.7-0.7c0.2,0.1,0.9,0.1,0.6,0.5
		l0.6-0.1l0.1,0.6c0.4-0.3,0.3-1.2,1-1.1l-0.2,0.6c0.2-0.1,0.5,0,0.6,0.2c0.3,0.3-0.3,0.5,0.5,0.1c-0.4,0.1-0.2-0.5-0.2-0.7
		c-0.3,0-0.1,0.2-0.5-0.1c0.4-0.5,0.7,0.1,1.1,0.3c-0.1-0.2,0.9-0.4,0.9,0.1c0.3-0.6,0.9,0.2,1.2-0.3c0.4-0.6,0.3-0.9,1.2-0.6
		c0.7,0.2,0.3,0.6,1.2,0.6l0.5-0.9c0.2,0.4-0.1,0.7,0.5,0.9c0.3,0.1,0.7-1.1,0.7-1.3c0.3,0.2,0.3,0.1,0.1,0.6
		c0.6,0.1,0.2-0.6,0.5-0.8c0.2,0.1,0,0.3,0,0.4c0.3,0,0.5,0.4,1,0.5c0.5,0.2,1.1-0.2,0.2,0c0.1-0.5-1.1-0.3-0.4-0.9
		c0.2-0.1,0.9,0,0.7,0.3c-0.2,0.4,0.7,0.2,0.9,0.2l-0.5,0.4c0.7,0.4,0.6-0.5,1.1-0.6c0.6,0-0.1,0.5,0,0.5c0.6,0.4,0.7-0.7,0.9-0.6
		h0.6l0.2,0.1l-0.2,0.3c0.6,0.2-0.1-0.7,0.7,0.1l0.1-0.5l0.3,0.2c-0.1,0,0.3-0.7,0.5-0.2c-0.1-0.3,0.5-0.5,0.6-0.2
		c0.1,0.2-0.1,0.4-0.1,0.6c0.4-0.4,0.5-0.5,1-0.1c0.4,0.3,0.4-0.2,0.5-0.4c0.1,0.3,0.5,0.5,0.7,0.6c0.3,0.2,0.2-0.4,0-0.5
		c0.1-0.3,0.8-0.2,0.9,0.1c0.1-0.1,0.3-0.6,0.5-0.4c0.3,0.2,0,0.5-0.1,0.4c0.6,1,0.3-0.2,0.6-0.5c0,0,0.2,0.7,0.3,0.5
		c0.2-0.2,0.1-0.6,0.4-0.7c0.3,0.2,0,0.5,0.2,0.7c0.1,0.1,0.5,0,0.2,0.4c0.2,0.2,1-1.1,1.1-0.1c0,0.2,0.4,0.4,0.6,0.2
		c0.3-0.2-0.3-0.6,0.1-0.7l0.2,0.8c0.5-0.5,0.2,0,0.7,0c-0.3-0.4,0.1-0.9,0.3-1.3c0.5,0.6-0.3,0.4-0.1,0.8c0.3,0.5,0.5,0.7,0.8,0.2
		c-0.2-0.1-0.2,0.4-0.4,0.1c-0.1-0.1-0.2-0.2,0-0.3c0.2-0.1,0.1-1-0.3-1.1c0.2-0.2,1-0.8,0.6,0c-0.1,0.1,0,0.2,0.1,0.3l-0.2,0.5
		c-0.1,0.6,0.4,0.1,0.4,0c0.1,0.3,0.7,0.3,0.8,0c0.2,0.7,0.3,0.4,0.5,0c0.3,0.5,0.4-0.3,0.7-0.3c0.4,0.1-0.1,1.1-0.2,0.8
		c0,0.3,0,0.5,0.4,0.3c0.3-0.1,0.1-0.8,0.2-1c0.1,0.3,0.3,0.6,0.1,1l0.4,0.2c-0.1-0.2-0.6-0.8-0.1-0.9c0.5-0.1,0.5,1,0.6,0.9
		c0.1-0.1,0.1-0.7,0.3-0.7c0.3,0,0,1,0.6,0.8c-0.1,0,0.3-1.5,0.6-0.6c-0.1-0.2-0.5,1,0.1,0.7c0.3-0.1,0.4-1.3,1-0.3
		c0-0.1-0.1-0.5,0.1-0.5c0.3,0,0,0.4,0.4,0.3L608,21c0.2-0.4,0.6,0.4,0.9,0c0.1,0.4,0.3,0.1,0.5,0c0.4-0.1,0,0.4,0.1,0.5
		c0.4-1.1,0.6,0.6,1.1,0.5c-0.3,0.3,0.2,0.1,0.4,0.1c0.2,0.9,0,0.3,0.4,0.2c0.1,0.4,0.3,0.4,0.5-0.1l0.3,1l0.3-0.2
		c0,0.2,0.1,0.3,0.3,0.2l0.4,0.2c0.5,0.4-0.6,0.3-0.7,0.6c0.3-0.1,0.6,0.5,0.7,0c0.7,0.6,0,0,0.5-0.1c0.2-0.1,0.4,0.2,0.4,0.4
		L615,24l0.3-0.6c0.3-0.2,0.4-0.5,0.1-0.9c-0.3-0.4,0.3-0.3,0.2-0.5c0-0.1-0.4,0.1-0.4-0.3c0-0.6,0.8,0.5,0.8,0.5
		c0.2,0.2,0.7,0,0.6-0.3c-0.2-0.6,0.2-0.2,0.2-0.7c0-0.2,0-0.5,0.3-0.6c0.1-0.1,0.1-0.7,0.4-0.5c0.3,0.3,0.3,0.5,0.7,0.3
		c0.1,0,0.2,0,0.1-0.2c0-0.3,0.2,0,0.4,0c0-0.5-0.6-0.4-0.5-1c0.4,0.3,0.7-0.5,0.1-0.7c0.2-0.2,0.2-1.4,0.1-1.5l-0.6,0.1
		c-0.4-0.1,0-0.7,0.2-0.9c-0.4,0.1-0.2-0.4-0.7-0.1c-0.4,0.2-0.8-0.3-0.5-0.5c0.2,0.3,0.6-0.2,0.4-0.3l-0.5,0.1
		c-0.1-0.3-0.2-0.4-0.4-0.2c-0.5,0.3-0.2-0.2-0.5-0.2l-0.3,0.4c-0.3-0.4,0,0.1-0.5-0.1l0.2-0.4c-0.2-0.3-0.3,0.5-0.3,0.5
		c-0.1,0.1-0.8-0.5-0.7-0.8c-0.4,0.5-0.7,0.1-1.2,0.6c-0.2-0.3-0.7,0-0.7-0.5l-0.1,0.4c-0.1,0.1-0.2-0.4,0.1-0.6l-0.9,0.4
		c-0.1-0.2-0.7-0.9-0.7-0.3c-0.2-0.1-0.1-0.5-0.4-0.4c-0.1,0.3,0.2,0.4,0.4,0.5c-0.3,0-0.6,0.9-0.8,0.3c0-0.1-0.1-1-0.4-0.7l0.3,0.3
		c-0.4,0.2-0.7-0.1-1.2,0c0.1,0.2,0.1,0.9-0.4,0.6c0.3-0.5-0.3-0.8-0.5-1.1c0,0.7-2.5,0.5-3.1,0.6c-0.2,0-2.5,0.3-2.4,0
		c0,0.4-1.4,0.3-1.6,0.3c-0.2-0.4-0.3-0.5-0.7,0.1c-0.3,0.1-0.7,0-0.9,0v0.2l-0.9-0.3c0.2,0.4-0.5,0.3-0.9,0.3
		c0.4-0.5-0.2-0.3-0.4,0c-0.5,0-0.4,0.2-0.2-0.3c-0.7,0.1-0.8,0.4-1.5,0.5c0-0.6-0.1,0-0.4-0.5l0.1,0.5c-0.3-0.1-0.4,0.2-0.4-0.2
		c-0.3,0.3-0.4,0.3-0.9,0.3c0-0.3,0.6-0.1,0.5-0.5c-0.4,0.1-0.7,0.4-0.9,0.2c-0.1,0.4-0.3,0.5-0.4,0.2l-1.4-0.5
		c-0.4-0.2-0.2-0.5-0.5-0.1l-1,0.5l-0.1-0.6v0.3c0,0.3-0.6,0.1-0.8,0.2c0-0.1-0.9-0.4-1,0.1l-0.2-0.7l-0.4,0.8
		c-0.2-0.4-1.1-0.1-1,0.1c-0.1,0.3-0.2,0.7-0.6,0.7c0,0,0.4-0.6,0.1-0.6c-0.1,1.1-1.1,0.1-1-0.5c-0.4,0.1-0.5,1.5-1.1,1.1
		c-0.1-0.1-0.5-0.2-0.7-0.2c0,0.6-1.6,0.5-1.6,0.4c-0.3,0.2-0.7,0.2-1.1,0.2c0.1,0,0-0.2-0.1-0.2l0.1,0.2c-0.4,0-1.7-0.1-2,0.1
		c-0.4,0.2-0.8,0.2-1.2,0.2c-0.5,0-0.5,0-0.9-0.3c-0.3,0.9-0.3-0.2-0.7,0.2l0.2,0.2c-0.6,0-2.7,0.5-3,0c-0.2,0.3-0.8,0.2-0.6,0h0.3
		c0-0.2-0.2-0.2-0.4-0.2c-0.3,0.1-0.1,0.4-0.3,0.5c-0.5,0.3-0.9-0.1-1.2-0.2c-0.1,0.4,0,0.2-0.4,0.3c0.2-0.1,0.2-0.2,0.1-0.3
		l-0.6,0.6l0.3,0.1l-0.3,0.4c-0.5-0.5-0.7,0.3-1.3-0.2c-0.4-0.3-0.5,0.2-1,0.2c-0.3,0-0.8-0.4-1,0.1c-0.4-0.4-0.9,0.6-1.1,0.3
		c-0.3-0.3,0-0.3-0.5,0c-0.3-0.3-1-0.4-1.4-0.3c-0.4,0.1-0.5-0.1-0.8,0.2c0.3,0.3,0.6,0.2,0,0.5c-0.5,0.3-0.2,1.1-0.4,1.6
		c-0.1-0.4-0.3-0.7-0.2-1.1c-0.2,0.2-1,0.6-0.5,0.9c0.2-0.8,0.3-0.3,0.6,0c-0.2,0.1-0.8,0.3-0.2,0.6l0.4,0.2c0,0.1,0.1,0.6-0.1,0.5
		l-0.2-0.5c-0.5,0.5,0.4,0.7,0.2,0.8c-0.2,0.2-0.7-0.3-0.7-0.5c-0.4-0.1-0.2,0.8-0.4,1c-0.1-0.6-0.6-0.8-0.5-1.5l-0.2-1.2
		c-0.1-0.6,0.4-0.8-0.2-1c0,0.5,0.3,1.1-0.2,1.4c0.7,0.2,0.2,1.1-0.2,1.3c-0.7,0.4-0.5,1-0.2,1.6c0.1,0.3-0.6,0.1-0.5-0.4
		s0.2-1.2-0.4-1.4c0.1-0.1,0.4-0.5,0.5-0.3c0.1,0.1,0.3,0.5,0.4,0.4c0.3-0.2,0.3-0.5,0.2-0.8c-0.3-0.1-0.4,0.5-0.7,0.3l-0.3-0.9
		c0.2-0.3,0.3-0.9,0.8-0.7c0.1-0.3-0.3-0.3-0.3-0.6c-0.1,0.3-0.2,0.3-0.5,0.4l-0.1,1.1c-0.6-0.5-0.7,0.8-0.8,0.9
		c-0.5-0.6-0.5-1.3-0.4-2c-0.3,0-0.5-1.4-0.9-0.7l-0.2-0.5c0,0.3,0,0.6,0.2,0.9l0.4-0.3c0.3,0.3,0.5,1.5,0,1.7c-0.3,0.1-0.4-1,0-0.8
		c-0.1-0.1,0-0.5-0.2-0.4c-0.1,0.1-0.1,0.4-0.3,0.1c0,0.5-0.5,0.1-0.7,0.2c-0.1-0.1-0.1-0.9,0.2-0.6c0.2-0.4-0.1-0.5-0.3-0.9
		l-0.3,0.6c-0.1-0.2-0.2-0.2-0.3,0c0.3,0.1,0.5,1,0.1,1c-0.5,0,0-0.5-0.1-0.8l-0.5,0.5v0.4c-0.2,0.2-0.6,0.2-0.5,0.5
		c0-0.1-0.4-0.6-0.2-0.7c0.5-0.3,0.2-0.3,0-0.7c0.1,0.3,0.1,1-0.3,0.6c0.1,0.4-0.1,0.3-0.3,0.3c-0.3,0-0.2,0.7-0.2,0.9
		c0,0.3-0.3,0.9-0.1,1.2c0.2,0.3,0.7,0.4,0.4,0.8l-0.4-0.3c0,0.5,0.5,0.2,0.6,0.5l-0.3,0.9l0.6,0.2c0.1,0.1,0,1.3,0,1.4
		c0.4-0.4,0.3,0.1,0.2,0.4c-0.2,0.4-0.3,0.3,0.1,0.6l0.4,1l0.1,1c0.1,1.1-0.2,2.1,0.2,3.1c0.2,0.4,0,0.8-0.1,1.2
		c-0.1,0.5,0.4,0.7,0.1,1.1c0.8,0-0.1,1.2,0.4,1.2l0.3-0.4c0.2,0.3,0.1,1.6-0.4,0.6c-0.4,0.4,0.9,1.4,0.1,1.6c1,0.2,0.2,0.2,0.1,0.5
		c0.6-0.5,0.9,1.6,0.1,0.3c-0.2,0.1,0.1,0.9,0.1,1.1l0.1,0.7c-0.3,0.1-0.3,0.4-0.4,0.6c0.4-0.9,0.4,0.5,0.4,0.6l-0.1,1.9
		c-0.1,0.7,0.5,0.8,0.1,1.4c-0.4,0.5-0.4,0.6,0.2,0.2c0.2,0.2,0.3,0.6,0.1,0.8c-0.4-0.8-0.1-0.2,0,0.1V45l0.1-0.2
		c0.1-0.3,0.2-0.6,0.5-0.3l-0.2,0.3c-0.2,0.4,0,1-0.3,1.4c-0.1,0.2-0.1,1.6-0.4,1.5v-0.5c-0.2,0.5,0.1,1.2-0.1,1.4h0.2
		c0.2,0.1-0.1,0.5-0.1,0.7c0.1,0.4,0.6,0.4,0.8,0.5c0.3,0.2,0.3,0.9,0.2,0.9l-0.6-0.6c-0.1-0.3-0.2,0-0.2,0.1
		c0.1,0.3,0.1,0.2,0.3,0.3c0,0-0.6,0.6-0.6,0.1c-0.3,0.6,0.2,0.6,0.7,0.7l-0.2,1.3l-0.4-0.9c-0.1,0.3-0.4,0.1-0.5,0.4
		c-0.1,0.3,0.3,0.6,0.1,0.9l0.9,0.2c-0.1,0.2-0.5,0.2-0.5,0.4c0.2,0,0.3,0.3,0.2,0.4s-0.3-0.1-0.4-0.2c-0.5,0,0.1,1.1,0.1,1
		c0.2-0.2-0.3-0.5,0.2-0.6c0,0.3,0.5,0.5,0.3,0.8c-0.2,0.3-0.9-0.1-0.6,0.7c0.2,0.6-0.2,0.6,0,1.3c0,0.1-0.3,1.3-0.1,1.2
		c0.2-0.2,0.4-1.8,1.1-1L557,58c-0.1-0.1-0.1-0.3-0.3-0.1c-0.1,0.1,0.4,0.4,0.5,0.5l-0.7,0.1c0.4,0.6-0.7,1.3-0.2,1.7l0.1,0.1
		l0.4,0.5c-0.3,0.3,0.1,0.8-0.3,0.9c-0.8,0.3-0.2,1.3-0.6,1.8c-0.2,0.2,0.6,0.1,0.6,0.4c-0.1,0.6-0.5,0.2-0.6-0.1l-0.5,0.7l0.1,0.4
		c-0.1,0.2-0.8,0.9-0.3,1.1c0.4,0.2,0-0.9,0.6,0c-0.2,0-0.3,0.5-0.6,0.2c0,0.1,0,0.6-0.2,0.3l-0.1,1c-0.4-0.4-0.2-0.8-0.4-1.2
		l-0.1,0.2c0.2,0.2,0.1,0.4-0.3,0.6c0.3-0.1,0.6,0.4,0.8,0.5c0.4,0.4-0.1,0.7,0,1.1c-0.5-0.2,0-0.6-0.3-0.9
		c-0.1-0.1-0.3,0.5-0.6,0.3c-0.1-0.1,0.2-0.2,0.2-0.3l-0.2-0.1l-0.2,0.1c-0.1,0.1-0.1,0.3,0.1,0.4c-0.1,0-0.7,0.2-0.5,0.3
		c0.1-0.2,0.4,0,0.4,0.1c0,0.4-0.1,1-0.4,1.3l-0.1-0.7l-0.1,0.7c-0.1,0.8,0.2,0,0.4,0.4c-0.3,0.2-0.4,1.5-0.1,1.5c0.1,0,0-0.3,0.2,0
		c0-0.9,1.3-0.1,1.3-1c0.4,0.4,0.2,0,0.6-0.2c0.4,0.5,0.7-0.5,1.1-0.1c0.2-0.7,0.8-0.3,1.3-0.3c0.2,0,0.8-0.7,0.9-0.3
		c0.1-0.2,0.7-0.3,0.9-0.3c0.3-0.1,0.3,0.2,0.5,0.1l1-0.2c0.4-0.1,1.3-0.5,1.5,0.1c0.2,0.8,0.9,0.3,0.9-0.3c0.5,0.3,0.2,0.5,0.2,1
		c-0.1,0.7,0.5,0,0.7,0.4l0.1,0.8l-0.9-0.3c0.2,0-0.7,1.1-0.2,0.8c0.8-0.5-0.4,1.4-0.4,1.5l-0.3-0.4c-0.2-0.1-0.3-0.2-0.1-0.3
		c0-0.1-0.6-0.1-0.3-0.3c-1.6,0.1,0.3,1.5,0.1,1.9l-0.4-0.1c0.3,0.2,0.7,0.2,0.3,0.6c0.6,0.1,0.2-0.9,0.5-1.2l0.2,0.8l0.2-0.8
		c0.1,0.1,0.1,0.6,0.3,0.6c0.4-0.1,1.5-0.5,1.1-0.9c0.2-0.1,0.6-0.4,0.8-0.3c0.1,0.1,0,0.3-0.1,0.3c0.2,0.3,0.5,0.1,0.6-0.1
		c0.3-0.3,0.4-0.2,0.7,0.1c0-0.1,0-0.5,0.2-0.5c0,0,1.1-0.1,0.5,0.2c0.6,0,0.3-0.5,0.4-1.1c-0.1-0.2,0.8,0.6,0.3,0.4
		c-0.1,0.4,0.3,0.4,0.5,0.3l0.4-0.3c0.2,0.2,0.5,0.2,0.7,0.2c0.4-0.1,0.4,0,0.2-0.4c0.3-0.2,0.5,0.1,0.6,0.3
		c0.4-0.5,1.2-0.4,1.8-0.6c-0.3-0.4,0.8-0.9,0.8-0.2c0.1-0.1,1.7-0.5,1.3,0.2c0.2-0.8,0.7-0.9,1.3-0.6c0.3,0.1,0.3,0,0.3-0.2
		c0.1-0.3,0.6-0.3,0.9-0.3c-0.2,0.4,0.1,0,0.2,0.3c0.1,0.4-0.4,0.4,0.3,0.4c-0.6,0,0.2-0.8-0.3-1l0.4-0.3c0,0.3,0.3,0.6,0.2,1
		c0.1-0.3,0.3,0,0.5-0.2c-0.1,0.9,0.7,0,1,0.4l-0.1-0.6l-0.3,0.5c-0.5-1.2,0.3-0.4,0.8-0.7c0.3,0.2-0.2,0.7,0.6,0.4
		c0.3-0.1,0.4-0.5,0.4-0.7c0.1-0.6,0.2-0.2,0.6-0.4c0.8-0.5,0.2,0.4,0.4,0.6c0.2,0.2,0.3-0.8,0.6-0.4c0-0.5,0.6,0.1,0.1,0.4
		c-0.3,0.2,0,0.7,0.3,0.5c0.3-0.2,0.8-0.5,0.8-0.9c-0.7,0,0-1.1,0.1-0.5c0,0.3,0.6-0.2,0.3,0.3c-0.2,0.5,0.1,0.4,0.1,0.8
		c0,0,0.7-0.5,0.6,0c0.3-0.4,0.8,0,1.4-0.2c0.3-0.1,0.4-0.9,0.7-0.4c0.3,0.4,0.2,0.7,0.6,0.7c-0.4-0.5,0.1-0.8-0.2-1.3
		c-0.4,0.3-0.7-0.4-1.2-0.2c-0.1-0.6,0.4-0.1,0.6-0.3c0.2-0.2,0-0.7,0.7-0.3l0.8,0.4c0.5,0.4-0.7,0.3-0.4,0.6c0.3,0.4,0.9,0,0.8-0.4
		l0.3,0.2c0.1,0.2,0.4,0,0.6,0.3c0,0.4-0.9,0.1-0.4,0.6c0.6-0.7,1.3-0.1,1.8-0.6c0.3-0.4,0.7-0.2,1-0.2s0.3,0.4,0.5,0.4
		c0.4,0.1,0.2-0.2,0.5,0.1c-0.2,0.1-0.2,0.3-0.2,0.5c0.4-0.4,0.3,0.1,0.7,0.1c-0.2-0.7,0.8-0.7,1.1-0.5c-0.2-0.3,0.5-0.7,0.1-0.9
		l-0.4-0.2c0-0.3,0.7-0.5,0.9-1c0.8,0.6-0.2,0.8,0.1,1.5c0.2,0.5,1.5,0.5,1.9,0.4c0.1,0,1.5-0.2,1-0.4c-0.5-0.2-1.2-0.2-1.4-0.8
		c0.1,0.1,0.6-0.3,0.7-0.1c0.1,0.3,0.1,0.4,0.4,0.2c0.5-0.3,0.6,0.9,0.6,1.1c0,0.1,0.3-0.2,0.2,0.1l0.7-0.7
		c-0.2,0.5,0.8,0.7,0.6,1.2c0.6-0.7,0.2-1.8,0.8-0.5l0.2-0.2c0.2-0.2,0.1,0.6,0.1,0.6c0.1,0.3,0.4-0.4,0.4-0.4
		c0.2-0.1,0.5,0.3,0.6,0.2l-0.3,0.2c0.3,0.3,0,0.2,0.4,0.1c0,0,0.9,0.3,0.7-0.1l-0.6-0.2c0.3-0.2,0.7-0.3,1-0.1
		c-0.2,0.1-0.1,0.5,0.1,0.6c0.4-1.4,0.2-0.1,0.5-0.1c0.1,0,0.2-0.7,0.2-0.8c0.1,0.2,0.9,0.2,0.6,0.7c0.2,0,0.6,0.1,0.7-0.2
		c0.3,0.1,0,0.8,0.6,0.5c0-0.2-0.2-0.2-0.4-0.2c0.2-0.1,1.2-0.3,1.2,0.1c0-0.4,1.1-0.4,1.3-0.3c0.3,0.2,1.7-0.7,1.4,0.3l0.7-0.2
		l-0.2-0.2c0-0.4,0.6,0.4,0.6,0.2l-0.2-0.2c0.2,0,0.6-1,0.6-0.4c0.3-0.2,1,0.5,1.1-0.2c0.1,0.1,0.7,0.1,0.7-0.2
		c0.4,0.2,0.1,0.5,0.1,0.8l2.1-0.6c0.4-0.1,0.8,0,0.9-0.5l0.3-0.1c0.3,0.1,0,0.5,0.1,0.7c0.3-0.2,0.6-0.2,0.9-0.1
		c0.8,0.2,0.3-0.3,0.8-0.2c0.7,0.1,0.4-1,0.8-1.3c-0.3-0.3,0.4-0.8,0.5-1c0.2-0.4,0.2-1.3,0.9-1c-0.1-0.2-0.2-0.3-0.4-0.2
		c-0.1-0.3,0.4-1.6,0.6-0.8c0.1,0-0.2-0.7,0.4-0.5c0-0.1-0.3-0.5-0.1-0.5l0.3,0.1c0-0.1-0.2-1-0.5-1.1c0.4-0.3,0.4-0.9,0.4-1.3
		c0-0.2-0.6-0.5-0.5-0.7l0.2-0.1c0.6,0,0.7-0.1,0.5-0.7v-0.3l0.1-0.5c0.1-0.4-0.1-0.9,0.4-0.4c0-0.2,0.1-1.1-0.2-1
		c-0.1,1-0.1,0.2-0.4-0.4c-0.1-0.1-0.2-0.4,0.1-0.3c-0.1-0.3-0.5-0.6-0.2-1c0.9,0.9,0.4-2.2,0.4-2.5c-0.1,0-0.3,0.4-0.4,0.3
		c-0.3-0.4,0.2-1.2,0.5-0.7c0.1-0.2,0.3-2.1-0.2-1.9c0.2,0.4-0.5,0.7-0.2,1.1c0.4,0.6-0.5,0.8-0.5,0.6c0-0.4,0.2-0.4,0.1-0.9
		l0.3-1.1c-0.2-0.1-0.4,0.4-0.5,0.1c-0.1-0.2,0.3-0.5,0.4-0.4c0.2-0.7,0.2-1.4-0.1-2.1l-0.3-1.9c0.2-0.1,0.5-0.1,0.5-0.4
		c-0.5,0,0-1.5,0.4-1.5l-0.2-0.2c-0.2-0.3,0.2-0.7,0.5-0.4L621.4,43.7 M620.6,58.4v0.1c-0.1,0.1-0.2-0.1-0.1-0.2L620.6,58.4
		 M620.3,55v-0.2l0.3,0.1 M620.5,55.6l-0.1,0.6c-0.1-0.1-0.2-0.4-0.1-0.6H620.5 M620.3,43.5l-0.1-0.2l0.3,0.2 M620.1,45l0.1-0.4
		l0.3-0.4 M620.1,60.3l0.2-0.8v0.7 M620.1,59.1V59V59.1h0.1 M620,54.5v0.1c-0.1,0.1-0.1-0.1-0.1-0.2L620,54.5 M620,59.5L620,59.5
		C619.9,59.6,619.8,59.7,620,59.5L620,59.5 M619.8,51.2L620,51l0.1,0.2 M619.9,48h-0.1v-0.1h0.1 M619.6,43.3v-0.1h0.1v0.1
		 M619.5,64.4h-0.2c0-0.1,0.1-0.2,0.2-0.1V64.4 M619,18v-0.1C619.2,17.8,619.2,17.9,619,18L619,18 M618.9,50.6v-0.1h0.1L618.9,50.6
		 M618.7,18.2l-0.1-0.3l0.1,0.1 M618.4,19.8v-0.1h0.1L618.4,19.8 M618.3,18v-0.3h0.2 M618.3,17v0.1c-0.1,0.1-0.2-0.1-0.1-0.2
		L618.3,17 M618.3,40v0.3c-0.2,0-0.2,0-0.2-0.1L618.3,40 M618.1,17.4L618.1,17.4l-0.1-0.1h0.1 M617.7,18v-0.2h0.1v0.1 M617.7,20.3
		l0.2-0.3l0.2,0.3 M617.6,42.4l0.1-0.2l0.2-0.1 M617.6,17v0.1C617.5,17.2,617.5,17,617.6,17L617.6,17 M617.4,21.4L617.4,21.4
		L617.4,21.4L617.4,21.4 M617,43.6v-0.2h0.2 M617,42.1V42h0.1L617,42.1 M617,42.5v-0.1h0.1L617,42.5 M617,42.9v-0.1h0.1L617,42.9
		 M616.9,21.6v-0.1V21.6L616.9,21.6 M616.9,43.8V44c0.1,0.1,0.4,0.2,0.1,0.4c-0.2,0-0.3,0.2-0.3,0.4l-0.1-0.5L616.9,43.8
		 M616.7,45.3v-0.1h0.1l0.1,0.1 M616.6,21.3l0.2-0.5c0,0.2,0.1,0.2,0.3,0.2l-0.2,0.2L616.6,21.3 M616.6,16.2l-0.3-0.3v-0.3l0.4,0.4
		l0.2,0.4 M616.3,20.1l0.1-0.3l0.3-0.5c-0.1,0.2-0.4,0.4-0.1,0.6c0,0,0.8,0.1,0.6,0.4c-0.3,0.3-0.3-0.4-0.6-0.1L616.3,20.1
		 M616.4,39.2h-0.1v-0.1h0.2 M616.3,39.8v0.5l-0.2-0.4 M616,16v-0.1h0.1L616,16 M616,43.3l0.1-0.6c0-0.3,0.1-0.5,0.2-0.3
		c0.1,0.1-0.3,0.3-0.2,0.4c0,0.2,0.2,0.2,0.2,0.6L616,43.3 M615.7,24.1V24V24.1h0.1 M615.7,53.6v-0.1V53.6h0.1 M615.6,16.9l0.5-0.1
		c0.2,0,0.3-0.1,0.4-0.3c-0.1,0.2,0.2,0.4,0.4,0.2c-0.2,0.8-0.3-0.1-0.2,0.8c-0.2-0.1-0.4,0.4-0.5,0.5c0.1-0.3,0.3-0.6,0.2-0.9
		c0-0.1-0.1-0.2-0.3-0.1l-0.3,0.2L615.6,16.9 M615.8,44.1v0.1c-0.1,0.1-0.2-0.1-0.2-0.2L615.8,44.1 M615.7,15.9h-0.1
		c0-0.1,0.1-0.2,0.2-0.1L615.7,15.9 M615.5,22.7l0.1-0.2l0.2,0.1 M615.5,23.3l0.3-0.1l-0.1,0.1 M615.5,39.1l0.1-0.1
		c0.1,0,0.3,0.3,0.3-0.1c0,0.2,0,0.3-0.1,0.3L615.5,39.1 M615.6,22v0.1c-0.1,0.1-0.2,0-0.2-0.1H615.6 M615.4,22.8v-0.1h0.1
		L615.4,22.8 M615.1,43.7v-0.1h0.1v0.1 M615,21.1v-0.3c0,0.1,0.5,0,0.4,0.1L615,21.1 M614.9,57.2v-0.1V57.2L614.9,57.2 M614.9,17.6
		v0.2l-0.1-0.2 M614.7,46.5l0.2-0.4l0.1,0.2 M614.6,69.4v0.1h-0.1L614.6,69.4 M615,40.9l0.3-0.4V40l0.4,0.3l0.1-0.3v0.3h-0.1
		l-0.3,0.2l-0.1,0.2 M615,40.3L615,40.3L615,40.3L615,40.3 M614.5,40.2l0.1-0.4l0.3-0.3c0.1,0.3,0.2,0.7-0.2,0.3L614.5,40.2
		 M614.4,17.8v-0.1h0.1L614.4,17.8 M614.5,15.6l-0.1-0.1v-0.2c0.3-0.1,0.2,0.2,0.3,0.3H614.5 M614.3,19.8v-0.1h0.1v0.1 M614.5,21.5
		L614.5,21.5C614.4,21.6,614.3,21.7,614.5,21.5L614.5,21.5 M614.2,49.2v-0.1h0.1v0.1 M614,38.8v0.3l-0.1,0.2V39 M614.2,16.9L614,17
		c-0.1,0.1-0.2,0.1-0.2,0c-0.1-0.2,0-0.2,0.1-0.2L614.2,16.9 M613.6,22l0.2-0.2h0.2 M613.7,17.4L613.7,17.4c-0.1,0.1-0.2,0.2-0.1,0
		H613.7 M613.6,21.5v-0.1V21.5h0.1 M613.6,16.9L613.6,16.9L613.6,16.9L613.6,16.9 M613.4,21.9V22c-0.1,0.1-0.2,0-0.2-0.1H613.4
		 M613.3,39.9v-0.1h0.1v0.1 M613.3,52.9v-0.2h0.1v0.1 M613.2,15.8v-0.3l0.3,0.1 M613.3,21.7l-0.1,0.2c0-0.1-0.1-0.6,0.1-0.5V21.7
		 M612.7,22.3v-0.2l0.2,0.1 M612.6,15.1v0.1c-0.1,0.1-0.2,0-0.2-0.1H612.6 M612.5,15.7l-0.1-0.2h0.1 M612.3,47.8l0.1-0.1l0.1,0.1
		 M612.4,49.6h-0.1v-0.2h0.1 M612.3,50.9v-0.1h0.1v0.1 M612.3,16.1v0.1c-0.1,0.1-0.2-0.1-0.1-0.2L612.3,16.1 M612.1,21.1v-0.2
		l0.2,0.2 M612.1,40.3v-0.1h0.1v0.1 M612.2,50.3L612.2,50.3l-0.1-0.1L612.2,50.3 M612.1,20.4v0.3l-0.2-0.4 M612.1,21.9l-0.1,0.2
		c0-0.3-0.4-0.8-0.4-1l0.4,0.5L612.1,21.9 M611.7,49.5h0.2v0.2c-0.3-0.1-0.1,0.3-0.2,0.4l-0.1-0.4L611.7,49.5 M611.7,52.7v0.1
		c-0.1,0.1-0.2-0.1-0.2-0.2L611.7,52.7 M611.5,15.3v-0.1h0.1L611.5,15.3 M611.6,60.3L611.6,60.3l-0.1-0.1L611.6,60.3 M611.4,42.9
		L611.4,42.9l0.1-0.3 M611.5,48L611.5,48l-0.1-0.1h0.1 M611.3,44.7v0.1c-0.1,0.1-0.2-0.1-0.1-0.2L611.3,44.7 M611.1,39.8L611.1,39.8
		l-0.1-0.1L611.1,39.8 M611,45.3v-0.1h0.1L611,45.3 M610.9,49.6l0.2-0.5c0.2,1.1,0.2-0.1,0.2,0.7l-0.2-0.2H610.9 M611.3,52.9
		l-0.4,0.2l-0.1,0.4c-0.2-0.2-0.2-0.4,0-0.5L611.3,52.9 M610.8,50.4l0.1-0.2c0.2,0.3,0.5,0.3-0.2,0.6l-0.1-0.4L610.8,50.4
		 M610.8,60.7v0.1c-0.1,0.1-0.1-0.1-0.1-0.2L610.8,60.7 M610.7,46L610.7,46l-0.1-0.1L610.7,46 M610.7,41.3l-0.1-0.1
		c0-0.2,0.1-0.5-0.2-0.5c0.1-0.1,0.3,0.1,0.3,0.2L610.7,41.3 M610.3,18.2v-0.1V18.2h0.1 M610.4,46.2L610.4,46.2
		c-0.1,0.1-0.2,0.2-0.1,0H610.4 M610.3,18.4v0.1h-0.1v-0.2 M610.1,42.1l0.1-0.1h0.1v0.1 M610.2,63.6v0.1c-0.1,0.1-0.2,0-0.2-0.1
		H610.2 M610,44.4l0.1-0.1l0.1,0.1 M609.8,18.5v-0.2h0.1v0.1 M609.8,15.2l-0.1-0.2h0.2 M609.4,48.5h-0.2c0-0.1,0.1-0.2,0.2-0.1V48.5
		 M608.8,16.2v-0.1h0.1v0.1 M608.1,16.8L608.1,16.8l-0.1-0.1L608.1,16.8 M608.1,17.2L608.1,17.2L608.1,17.2L608.1,17.2 M607.5,16.4
		l-0.3-0.1c-0.2,0.3,0.1,0.4-0.4,0.7c0.2-0.3,0.4-0.6-0.1-0.8h0.8V16.4 M606.5,20.9l-0.1,0.1C606.3,20.8,606.4,20.8,606.5,20.9
		L606.5,20.9 M606.3,69.4l-0.2-0.2h0.2 M605.3,68.8h0.3V69 M605.3,17.8h-0.1v-0.1h0.1 M604.2,20.4l0.4-0.3l0.4,0.1 M604.2,69.2v0.4
		l-0.1,0.2V69l0.2-0.1 M604,18.5v0.1h-0.1L604,18.5 M603.5,69v-0.1h0.1L603.5,69 M603.4,18v-0.1V18L603.4,18 M603.4,69.5v-0.2
		C603.6,69.3,603.5,69.5,603.4,69.5L603.4,69.5 M603.4,20.4l-0.4-0.2c-0.1,0-0.3-0.1-0.3-0.3l0.5,0.2L603.4,20.4 M602.4,19.9v-0.1
		V19.9L602.4,19.9 M602.5,15.9l-0.1-0.1l0.6,0.1c0.1,0.2,0,0.3-0.1,0.2L602.5,15.9 M601.8,64.2v-0.1h0.1v0.1 M601.2,15.9l0.4-0.6
		v0.4 M601.1,15.2V15V15.2h0.1 M601,18.1L601,18.1l-0.1-0.1L601,18.1 M600.5,21.3l0.1-0.6l0.1,0.3 M600.5,69.6l0.2-0.2v0.2
		 M600.5,18.1L600.5,18.1l-0.1-0.1L600.5,18.1 M601.1,20v0.1C601,20.2,600.9,20,601.1,20L601.1,20 M601.3,19.5v0.4
		c-0.4,0-1.3-0.4-1,0.4l-0.3-0.6h0.7L601.3,19.5 M600.2,15.9l-0.2-0.1v-0.3c0.1,0,0.2,0,0.2,0.1V15.9 M599.8,18.1L599.8,18.1
		L599.8,18.1L599.8,18.1 M599.6,16.9v0.2c-0.1,0.1-0.1-0.3-0.1-0.4L599.6,16.9 M599.5,16v0.1C599.4,16.2,599.3,16,599.5,16L599.5,16
		 M599.4,17.5L599.4,17.5L599.4,17.5L599.4,17.5 M599.7,19.9l-0.4,0.4c0-0.1,0-0.2-0.1,0c0-0.2-0.1-0.6,0.1-0.7l0.1,0.2L599.7,19.9
		 M599.1,17.5L599.1,17.5c-0.1-0.1,0-0.2,0-0.1V17.5 M598.7,64.6l0.3-0.2l-0.1,0.2 M598.4,69.8l0.2-0.4l0.3-0.2v0.2 M598.4,64.7
		h-0.1v-0.1h0.1 M597.8,17l-0.3,0.1l0.4-0.3 M597.5,19.6L597.5,19.6C597.4,19.8,597.3,19.8,597.5,19.6L597.5,19.6 M597.4,20.2h-0.1
		v-0.1h0.1 M597,64.7v-0.3l0.2,0.2 M596.9,17.2l0.1-0.6l0.1,0.4 M596.7,15.5v-0.2h0.1v0.1 M596.7,20.5h-0.1c0-0.1,0.1-0.2,0.2-0.1
		L596.7,20.5 M596.3,64.5v-0.1V64.5h0.1 M596.1,20.6l-0.2,0.2l0.2-0.4 M595.8,64.7v-0.6l0.1,0.3 M595.3,68.9l0.2,0.1h0.2v-0.6
		c0.2,0.1,0.2,0,0.1-0.2c0.4,0.1,0.3,0.4,0.2,0.6c-0.1,0.3,0.4,0.4,0.3,0.2l0.2,0.3l-0.6,0.1L595.3,68.9 M595.4,20.5h-0.2l0.3-0.3
		 M594.9,63.8l-0.1-0.1h0.3 M593.7,20.7l0.1-0.2l0.1-0.2l0.1,0.3 M593.1,64v-0.1h0.1V64 M593,69.9V70c-0.1,0.1-0.2-0.1-0.2-0.1H593
		 M593,65.1l0.1,0.2c0,0.2,0,0.4-0.2,0.3c0-0.2,0.1-0.6-0.2-0.6L593,65.1 M592.6,20.4v-0.2l0.3,0.1 M592.5,15.6h0.4V16 M592.6,64.4
		L592.6,64.4L592.6,64.4L592.6,64.4 M592.5,69.5v-0.1V69.5L592.5,69.5 M592.3,20.3h-0.2c0-0.1,0.1-0.3,0.2-0.2V20.3 M591.3,16
		l0.1-0.4c0-0.1,0.1-0.2,0.3-0.2c0.3,0.1,0.7,0,0.4,0.4c-0.1,0.2-0.2,0.2-0.3,0.1L591.3,16 M591.5,67.7L591.5,67.7
		c-0.1-0.1,0-0.2,0.1-0.1L591.5,67.7 M591.6,20.4L591.6,20.4C591.5,20.5,591.4,20.6,591.6,20.4L591.6,20.4 M591.1,20.4l0.2-0.3
		l0.3-0.3 M590.7,64.3l-0.1-0.1V64c-0.1,0.3,0.4,0.3,0.4,0.3L590.7,64.3 M590.2,15.9l0.1-0.2c0.2-0.2,0.4,0.2,0.6,0.2h-0.5H590.2
		 M590.1,63.4v-0.2l0.2,0.1 M590,21v-0.2h0.1L590,21 M590.1,65.8L590.1,65.8l-0.1-0.1h0.1 M590,69v-0.1h0.1L590,69 M589.5,20.5
		L589.5,20.5L589.5,20.5L589.5,20.5 M589.3,69.3l0.4,0.1l-0.2,0.2l-0.1-0.2 M589.3,68.5L589.3,68.5L589.3,68.5L589.3,68.5
		 M589.1,66.1L589.1,66.1L589,66h0.1 M589.1,63.5l-0.2-0.3L589.1,63.5 M588.8,64.6v-0.1h0.1v0.1 M588.8,20.6l-0.1-0.4l0.1,0.2
		 M588.8,69l-0.3,0.2c-0.1-0.2,0.3-0.6,0.4-0.9L588.8,69 M588.3,63.5v-0.1h0.1v0.1 M588.4,68.3L588.4,68.3L588.4,68.3L588.4,68.3
		 M588.4,64.4l-0.2-0.1l0.4-0.1 M588,68.4l-0.1-0.2h0.1 M587.6,19.4v-0.2l0.1,0.1 M587.6,65.7l0.1-0.6c0.4,0.9,0.3,0.5,0.1,0.5
		L587.6,65.7 M587.5,20.3l0.5-0.2l-0.1,0.2 M587.5,67.3h-0.2c0-0.1,0-0.3,0.2-0.2V67.3 M587.3,16.2l0.1-0.4l0.2,0.4 M587.1,20.4
		v-0.1V20.4h0.1 M587.1,64.2v-0.1h0.1v0.1 M587.1,65.4L587.1,65.4L587.1,65.4L587.1,65.4 M586.7,68.3l0.1-0.2l0.1,0.2 M586.6,68.4
		h-0.2c0-0.1,0.1-0.2,0.2-0.1V68.4 M586.3,20.4L586.3,20.4l-0.1-0.1L586.3,20.4 M586.3,17.9l-0.1-0.3l0.2,0.1 M586,66v0.3l-0.2-0.4
		 M585.8,68.5v-0.4l0.1-0.4 M585.5,17l-0.1-0.2l0.2-0.1 M585.2,17v-0.1h0.1V17 M585.2,64.2l0.1,0.2v0.2 M585.3,65.4L585.3,65.4
		l-0.1-0.2h0.1 M585.3,21.1l-0.2-0.1h0.3 M585.2,21.5l-0.2,0.2l0.3-0.4 M584.7,16.8L584.7,16.8l-0.1-0.1L584.7,16.8 M584.6,66.5
		l0.4-0.3l0.4-0.2l-0.7,0.6 M584.8,69.1h0.5l0.3,0.1c-0.2,0.1,0.2,0.4-0.1,0.5c-0.2,0-0.8,0.1-0.8,0.2c-0.2-0.1-0.2-0.2-0.2-0.3
		L584.8,69.1 M583.8,17.6v-0.7l0.1,0.4 M584,69.1l-0.2,0.3l-0.1-0.6l0.2,0.1 M583.7,21.4v-0.3l0.1,0.3 M583.5,17.4v-0.1V17.4
		L583.5,17.4 M583.3,21.6l0.2-0.1l0.2,0.2 M583.4,66.7l-0.3-0.3V66c-0.1,0.2,0.2,0.3,0.3,0.5V66.7 M583,64.5v-0.1V64.5L583,64.5
		 M583,68.5l0.5-0.5l-0.1,0.3 M582.9,67.4L582.9,67.4l-0.1-0.1L582.9,67.4 M582.9,70.3l-0.2,0.2l-0.1-0.3 M582.5,66v-0.1V66
		L582.5,66 M582.6,69l-0.1,0.3l-0.1-0.4 M582.4,67.1H582c-0.1-0.1-0.2-0.2,0-0.4C582,66.8,582.3,66.9,582.4,67.1L582.4,67.1
		 M581.9,17.7h-0.1v-0.1h0.1 M581.6,19.5L581.6,19.5C581.4,19.4,581.5,19.4,581.6,19.5L581.6,19.5 M581,64.1L581,64.1l-0.1-0.2h0.2
		 M580.7,68.9l0.3-0.2c0.1-0.1,0.2-0.2,0.5-0.2c0.5,0,0.6,0.8,0.3,0.7c0.1-0.2,0.2-0.4-0.1-0.5c-0.2-0.1-0.4,0-0.5,0.2l-0.1,0.3
		L580.7,68.9 M580.5,63.5v-0.1h0.1L580.5,63.5 M580.6,69.5l-0.1-0.2l0.3,0.1 M580.7,67.7l0.1,0.4c0-0.1-0.6-0.4-0.3-0.6L580.7,67.7
		 M580.5,64.5L580.5,64.5l-0.1-0.1h0.2 M580.3,68.6L580.3,68.6l0.1,0.3c-0.2,0.2-0.4-0.2-0.2-0.4l0.4-0.1l0.1,0.1L580.3,68.6
		 M579.9,22l0.1-0.2l0.2,0.1 M579.9,67.7h-0.1c-0.1-0.2,0-0.2,0.1-0.2V67.7 M579.7,68.6h-0.2c0-0.1,0.1-0.2,0.2-0.1V68.6
		 M579.2,70.3v-0.2l0.1,0.1 M578.4,68.4v-0.1h0.1L578.4,68.4 M578.4,66.9l-0.1-0.3l0.2-0.3 M578.4,70.2l0.2-0.4l0.2,0.3 M578.1,70.3
		l-0.2-0.2l0.1-0.3h0.2 M577.7,63.7L577.7,63.7l-0.1-0.1L577.7,63.7 M577.4,66.5h-0.1v-0.1h0.1 M577.1,68.3l0.1,0.2l0.1-0.1
		l-0.1,0.3 M577.1,70.4L577.1,70.4c-0.2-0.2-0.1-0.2,0-0.2V70.4 M576.9,18v-0.4l0.3,0.2 M576.9,69v-0.1h0.1L576.9,69 M576.7,19.7
		v-0.1h0.1v0.1 M576.6,68h-0.2c0-0.1,0-0.3,0.2-0.2V68 M576.2,70.6v-0.7l0.1,0.7 M576.3,69.7h-0.1v-0.1h0.1 M576.2,69.3v-0.6
		c0-0.2-0.1-0.3-0.4-0.1c0.1-0.1,0.3-0.1,0.2-0.3c0.2,0.1,0.4,0.6,0.7,0.2c0.2,0.3-0.6,0.4-0.3,0.8H576.2 M575.6,65.6l-0.1,0.2
		c-0.3-0.2,0-0.5,0.3-0.4L575.6,65.6 M575.4,64.6h0.2l0.1-0.2c0.1,0.2,0.4,0,0.4,0.2c0,0.1-0.1,0.2-0.3,0.1L575.4,64.6 M575.3,66.8
		l0.2-0.3c0.2-0.1,0.3,0.3,0.3,0.3H575.3 M575,69.5v-0.2l0.1-0.2 M575,63.6v0.2l-0.3-0.3c0.1,0,0.4-0.1,0.2-0.3
		c0.2-0.1,0.2,0.2,0.5,0.2L575,63.6 M574.5,66.5l0.1-0.3l0.1,0.2 M574.4,70.6l-0.2-0.1l0.8-0.8l0.1,0.6c-0.1-0.2-0.2,0-0.4,0.1
		L574.4,70.6 M574.4,69.7h-0.3c0.1-0.3,0.4-0.2,0.6-0.2L574.4,69.7 M573.6,64.2L573.6,64.2L573.6,64.2L573.6,64.2 M573.1,17.8v-0.2
		h0.1v0.1 M573.3,69.1h-0.2c0-0.1,0.1-0.2,0.2-0.1V69.1 M572.9,22.8l-0.1-0.1L572.9,22.8 M572.6,69.9l0.2-0.1v0.3 M572.5,66.9
		l0.1-1.1c0.1,0.2-0.2,0.8,0.2,0.9L572.5,66.9 M572.3,69.3l0.4-0.2l-0.1,0.3 M572.3,17.7L572.3,17.7l-0.1-0.1L572.3,17.7
		 M572.3,65.6v0.1c-0.1,0.1-0.1-0.1-0.1-0.2L572.3,65.6 M572,18v-0.1V18L572,18 M572,18.9l0.1-0.5v0.4 M572.1,68v0.1
		c-0.1,0.1-0.2-0.1-0.1-0.2L572.1,68 M571.8,66.4v-0.2h0.1v0.1 M571.5,19.9v-0.1h0.1L571.5,19.9 M571.3,71.4l-0.2,0.3
		c-0.1-0.3,0.4-0.6,0.6-0.5c-0.1,0.2-0.1,0.3,0.1,0.5l-0.3-0.1v-0.2L571.3,71.4 M571.2,22.6l-0.2-0.3l0.5,0.2 M570.8,19.2l0.1-0.4
		c0.1,0.1,0.3,0,0.3,0.1l-0.2,0.2L570.8,19.2 M570.8,68.2l0.2-0.4l0.4-0.1v0.6 M571,66.9v0.5l-0.2-0.3 M570.9,64.7L570.9,64.7
		l-0.1-0.2l0.1,0.1 M570.5,63.9v-0.1h0.1L570.5,63.9 M570.5,66l0.1-0.1l0.1,0.1 M570.2,63.7v-0.1h0.1v0.1 M570.2,71.2h0.3V71
		c0.4,0.3-0.1,0.5,0.1,0.8l-0.2-0.3L570.2,71.2 M569.5,70.9v-0.1V70.9L569.5,70.9 M569.5,68.4h-0.2c0-0.1,0.1-0.2,0.2-0.1V68.4
		 M569.5,68.7h-0.2c0-0.1,0.1-0.2,0.2-0.1V68.7 M569.4,64.1v0.1c-0.1,0.1-0.2-0.1-0.2-0.2L569.4,64.1 M569.3,65.7v0.4l-0.1-0.2
		 M569.3,18.7h-0.1v-0.1h0.1 M569.1,71.8l0.1-0.1v-0.2l0.2,0.4 M568.8,63.8l0.4-0.1l-0.1,0.2 M568.8,70.5v-0.1h0.1v0.1 M568.8,64.2
		h-0.1v-0.1h0.1 M568.4,64.1v-0.2h0.1V64 M568.4,69.1l0.5-0.9c0.2,0.4-0.1,0.3-0.2,0.7L568.4,69.1 M568.1,68.4l-0.1-0.1l0.2,0.1
		 M568.2,36.7l-0.3,0.7l-0.1-1.1l0.2,0.2 M567.7,36.2V36C567.9,35.9,567.8,36,567.7,36.2L567.7,36.2 M567.7,50.3h-0.1v-0.2
		L567.7,50.3 M567.6,46.5l-0.1-0.2l0.2-0.1 M567.4,71.6l0.1-0.1L567.4,71.6 M567.5,52.1l-0.1-0.2l0.1,0.1 M567.5,47.1v0.1
		C567.4,47.3,567.3,47.1,567.5,47.1L567.5,47.1 M567.6,55.1l0.1,0.2l-0.3,0.7l-0.1-1.1 M567.9,48.8v-0.2V48.8L567.9,48.8
		 M567.3,49.4l0.3-0.9c0.1-0.3,0.1-0.5-0.3-0.7c0.1-0.2,0.4-0.5,0.6-0.2c-0.1,0-0.2,1.1-0.4,1.5L567.3,49.4 M567.3,58.6l0.1-0.2
		l0.2,0.2 M567.1,19h0.3c0.2-0.1,0.1-0.5,0.4-0.3l-0.3,0.4L567.1,19 M567.1,71l0.3-0.3l0.3,0.1l-0.2,0.2 M567.2,30.8V31
		c0,0.1-0.1,0.1-0.1-0.3L567.2,30.8 M567.4,29l0.1,0.2v0.5c-0.4,1-0.1-0.7-0.4-0.6L567.4,29 M567.2,44.3l-0.1-0.2h0.1 M567.2,46.9
		h-0.1v-0.2L567.2,46.9 M567.2,60.5v0.1c-0.1,0.1-0.2,0-0.2-0.2L567.2,60.5 M567,67.8v-0.1h0.1L567,67.8 M567,36.4v-0.5l0.1,0.2
		 M567,69l0.2,0.1l0.2-0.1c-0.1,0.4-0.5,1.2,0.1,1.2c-0.7,0.4-0.7-1.2-0.6-1.5v-0.2L567,69 M567.1,50.4l-0.1,0.3
		c-0.1,0.1-0.1-0.5-0.1-0.5L567.1,50.4 M567.1,41.5l-0.2,0.1l-0.1-0.1H567.1l0.3-0.3l-0.1,0.2 M567,62.7h-0.2c0-0.1,0.1-0.3,0.2-0.2
		V62.7 M567,51.3l0.1,0.4c0,0.2,0.1,0.3,0.1,0.1l-0.1,1.5c-0.3-0.3-0.3-0.6-0.3-1L567,51.3 M567.1,42.1v0.5l-0.3,0.4v-0.4l0.1-0.3
		 M566.7,43.5V44c0,0.2,0.1,0.3,0.2,0.1l-0.1,1.5l-0.1-0.2V43.5 M566.9,27.1v0.2h-0.2c0.1,0.2-0.2-0.4-0.1-0.4L566.9,27.1
		 M566.6,31.6l0.2-0.3c0.2,0-0.1,0.3,0,0.4L566.6,31.6 M566.7,29.8h-0.2c0-0.1,0-0.3,0.2-0.2V29.8 M566.7,32.1v0.1
		c-0.1,0.1-0.2-0.1-0.1-0.2L566.7,32.1 M566.5,53.3v-0.2h0.1v0.1 M567.3,38.4l-0.2,1c0,0.3,0,0.6,0.3,1.1c-0.3-0.1-0.2,0.5-0.2,0.6
		l-0.6-1.1l0.2-0.1c0.4-0.5,0.1-1.1-0.2-1.3l0.4-0.1L567.3,38.4 M566.6,45L566.6,45c-0.1,0.2-0.2,0.2-0.2,0H566.6 M566.5,42.6
		L566.5,42.6l-0.1-0.2h0.2 M566.6,36.6v0.3l-0.2-0.3 M566.2,42.8h0.2V43 M566.2,68.9v-0.2h0.1v0.1 M566.3,37.4h-0.2
		c0-0.1,0.1-0.3,0.2-0.2V37.4 M566.1,28v-0.2h0.1v0.1 M566.2,54.6l0.1,0.3v0.4L566,55 M566.1,29.4l-0.1-0.5l0.3,0.1 M565.9,21.1V21
		h0.1L565.9,21.1 M566.1,71.1l0.1,0.3c-0.3,0.1-0.3-0.3-0.3-0.4L566.1,71.1 M566.1,34.3v0.4c-0.3-0.1-0.3-0.5-0.1-0.7L566.1,34.3
		 M566,47.2v0.4c-0.3-0.1-0.3-0.5-0.1-0.7L566,47.2 M565.9,69.5v0.7l-0.1-0.3 M565.6,39.5v0.3c0-0.2-0.3-0.4-0.1-0.6l0.2-0.1
		L565.6,39.5 M565.3,60.4l-0.1-0.1h0.2 M565.2,19.9l0.6-0.7c-0.2,0.2-0.1,0.3,0.1,0.5l-0.4-0.1L565.2,19.9 M565.2,69.7l0.1,0.6
		l-0.1,0.5l-0.1-0.6 M565.1,26.1L565.1,26.1L565.1,26.1L565.1,26.1 M565,72.5l0.6-0.3l0.5-0.5l-0.2,0.3c-0.1,0.2,0.2,0.3,0.3,0.4
		h-0.6L565,72.5 M565.2,31l0.2,0.3l-0.1,0.2c-0.2,0-0.4-0.5-0.4-0.8h0.1L565.2,31 M564.9,53.1V53h0.1L564.9,53.1 M564.9,52.7
		L564.9,52.7l-0.1-0.1L564.9,52.7 M564.7,21.5l0.1-0.3l0.5-0.2 M564.8,22.1v0.1c-0.1,0.1-0.2,0-0.2-0.1H564.8 M564.8,23.2v0.1
		c-0.1,0.1-0.2-0.1-0.2-0.2L564.8,23.2 M564.7,67.7v-0.1h0.1v0.1 M564.7,45h-0.1v-0.2h0.1 M564.5,32.4v-0.1V32.4l0.2,0.1
		 M564.4,52.8v-0.3l0.2-0.2 M564.5,65v0.5l-0.2-0.3 M564.5,32l0.1-0.2h0.2v0.1 M564.4,31.7v0.2l-0.1,0.2l-0.1-0.2 M564.4,44.7v0.2
		l-0.2,0.2v-0.2 M564.2,71.9l0.1-0.3l0.4,0.1c-0.2,0.4,0.3,1-0.4,1c0.3-0.1,0.3-0.3,0.2-0.5L564.2,71.9 M564.4,24.6l-0.1,0.5
		l-0.1-0.3 M564.2,28l0.1-0.3l0.2,0.1 M564.2,61L564.2,61L564.2,61L564.2,61 M564,62.5v-0.2h0.1v0.1 M564.1,63.4v0.3
		c-0.1,0.1-0.1-0.4-0.1-0.5L564.1,63.4 M563.7,20.7v-0.2h0.1v0.1 M563.6,53.3v-0.1h0.1v0.1 M563.6,28.9v-0.1h0.1v0.1 M563.6,68.4
		l0.5-0.9l-0.1,0.7l-0.1,0.2 M563.9,31.2v0.2c-0.4,0.2-0.3-0.4-0.1-0.4L563.9,31.2 M563.7,57.4v0.4l-0.2-0.3 M563.6,29.8v0.3
		c-0.1,0.1-0.1-0.4-0.1-0.5L563.6,29.8 M563.4,19.5v-0.2h0.1L563.4,19.5 M563.5,69.6v0.1c-0.1,0.1-0.2-0.1-0.1-0.2L563.5,69.6
		 M563.4,54.8L563.4,54.8l-0.1-0.1L563.4,54.8 M563.2,45.6v-0.2h0.1v0.1 M563.3,56.1l-0.1-0.6l0.4,0.3 M563.2,63.6v-0.1V63.6h0.1
		 M563.1,49.8l0.2-0.2V50 M563.2,34.1H563c0-0.1,0.1-0.3,0.2-0.1V34.1 M563,47.1L563,47.1l-0.1-0.1h0.2 M562.9,29.9L562.9,29.9
		c-0.1,0.1-0.2,0.2-0.1,0H562.9 M562.8,48v0.3c-0.2,0.1-0.1-0.5-0.1-0.6L562.8,48 M562.8,65.7h-0.1v-0.1h0.1 M562.8,42l-0.1,0.3
		l-0.2-0.4 M562.4,73.2v-0.1V73.2L562.4,73.2 M562.4,23.6l-0.1,0.2l-0.1-0.3 M562.2,48.1v-0.2h0.1V48 M562.4,67.1v0.1
		c-0.1,0.1-0.2-0.1-0.2-0.2L562.4,67.1 M562.3,23.1h-0.1V23h0.2 M562.3,27.7h-0.2c0-0.1,0.1-0.2,0.2-0.1V27.7 M562.4,68.5l0.2-0.1
		l-0.2,0.7c-0.2-0.3-0.7-0.9-0.3-1.1l0.1,0.5H562.4 M561.9,69.4v-0.3V69.4 M561.8,24L561.8,24l-0.1-0.1L561.8,24 M561.7,50.3v-0.1
		V50.3h0.1 M561.7,26.3L561.7,26.3l-0.1-0.2L561.7,26.3 M561.6,24.8v-0.1V24.8h0.1 M561.6,26.8v-0.1V26.8h0.1 M561.6,25.9h-0.2
		c0-0.1,0-0.3,0.2-0.2V25.9 M561.5,29.7l0.2-0.1c0.2,0,0.2,0.4,0.3,0.3c0.2-0.1,0.2-1.3,0.4-0.4l-0.1,0.3c-0.4,0.5-0.3,0.2-0.6,0
		L561.5,29.7 M561.6,40.3L561.6,40.3c-0.1-0.1-0.1-0.2,0.1-0.1L561.6,40.3 M561.5,68.2v0.1C561.4,68.4,561.3,68.3,561.5,68.2
		L561.5,68.2 M561.3,23.5l0.4-0.3c0.2,0.2,0,0.4-0.1,0.6L561.3,23.5 M561.3,26.3v-0.1h0.1v0.1 M561.3,58.5v-0.2h0.1v0.1 M561.4,29.5
		L561.4,29.5c-0.1,0.2-0.2,0.2-0.1,0H561.4 M561.4,42.4v0.1c-0.1,0.1-0.2-0.1-0.1-0.1H561.4 M561.4,22.8l-0.1,0.3l-0.1-0.2
		 M561.3,28.2v0.2l-0.2-0.3 M561.1,33.2l0.3-0.4l0.3,0.2h-0.3 M561.3,62.5h-0.1v-0.1h0.2 M561,59.3v-0.2l0.1-0.2L561,59.3 M561,22.3
		l-0.1,0.1c-0.1-0.4,0.4-0.5,0.3-0.2L561,22.3 M561,68.5L561,68.5L561,68.5L561,68.5 M561,50.6L561,50.6
		C560.9,50.7,560.8,50.8,561,50.6L561,50.6 M560.9,40.7h-0.1v-0.1h0.2 M560.9,63.9h-0.1v-0.1h0.2 M560.6,38.4l0.3-0.1
		c0.1-0.1,0-0.4,0.4-0.1l-0.5,0.3L560.6,38.4 M560.8,54.6v0.1c-0.1,0.1-0.2,0-0.2-0.1H560.8 M560.6,58.8l0.1-0.1h0.1v0.1
		 M560.6,64.6l0.1-0.1h0.1v0.1 M560.6,26.2l0.2-0.2l0.2-0.1c0.1,0.2,0.2,0.6-0.2,0.4L560.6,26.2 M560.7,31.4h-0.1v-0.2h0.2
		 M560.6,21.8L560.6,21.8C560.5,22,560.4,22,560.6,21.8L560.6,21.8 M560.5,35.3v-0.1h0.1L560.5,35.3 M560.6,42.8L560.6,42.8
		C560.5,43,560.4,43,560.6,42.8L560.6,42.8 M560.5,27.1l0.1,0.1c0.1,0.2,0.1,0.5-0.1,0.5v-0.5V27.1 M560.5,31.9L560.5,31.9
		L560.5,31.9L560.5,31.9 M561.2,24.9v0.3l-0.1,0.2c0.2-0.6-0.5-0.7-0.5-1.2l0.7,0.2L561.2,24.9 M560.6,25.7l-0.1-0.3h0.2
		 M560.3,25.1l0.1-0.4l0.1,0.2 M560.2,43.7l0.1-0.2v0.3 M560.2,51.2V51C560.3,51,560.3,51.1,560.2,51.2L560.2,51.2 M560.2,36.6
		L560.2,36.6L560.2,36.6L560.2,36.6 M560,65L560,65l-0.1-0.2h0.2 M560,67.2L560,67.2l-0.1-0.2h0.2 M559.8,67.4v-0.1h0.1v0.1
		 M559.9,69.4v0.1c-0.1,0.1-0.1,0.1-0.1-0.2L559.9,69.4 M559.8,43.4h-0.1v-0.1h0.1 M559.9,37.1l0.1,0.4c0,0.2-0.1,0.2-0.2,0.3
		c0.4-0.4-0.3-0.5-0.2-0.9l0.2,0.1L559.9,37.1 M559.6,59.7v0.2l-0.1,0.2v-0.3 M559.5,26.9L559.5,26.9c-0.2-0.2-0.1-0.2,0-0.2V26.9
		 M559.5,20.8v0.1C559.4,21,559.3,20.8,559.5,20.8L559.5,20.8 M559.2,23.8v-0.1V23.8h0.1 M559.3,21.8v0.1c-0.1,0.1-0.2-0.1-0.2-0.2
		L559.3,21.8 M559.2,28.6h-0.1c0-0.1,0.1-0.2,0.2-0.1L559.2,28.6 M559.2,59.5h-0.1v-0.1h0.1 M559.1,51.9l-0.1,0.5l-0.1-0.3
		 M559,40.4v-0.3h0.1v0.2 M559,69.4l0.1-0.3l0.2-0.2c0.2,0.2,0,0.4,0.1,0.6H559 M559.9,24.6v0.1c-0.1,0.1-0.2,0-0.2-0.1H559.9
		 M559.4,24.2l-0.1,0.2c0.4,0.2,0.6-0.2,0.9-0.5c0,0.4-0.5,0.6-0.8,0.7c0.1,0.4-0.2,1,0.2,1.4c-0.7,0.2-0.2-0.8-0.3-1.1l-0.4-0.6
		L559.4,24.2L559.4,24.2 M559,41.2l-0.1-0.2h0.1 M559,41.5L559,41.5l-0.1-0.1L559,41.5 M558.9,44.2V44h0.1L558.9,44.2 M558.8,67.8
		l0.3-0.5c0.1-0.2,0.2-0.3,0.3-0.3c-0.3,0.2-0.2,0.5-0.3,0.7L558.8,67.8 M558.8,48v0.1c-0.1,0.1-0.1-0.1-0.1-0.2L558.8,48
		 M558.8,21.6v0.3c-0.2-0.1-0.1-0.3-0.1-0.5L558.8,21.6 M558.6,24.6v-0.1V24.6h0.1 M558.6,26.7v-0.3l0.1,0.1 M558.6,31.8v-0.1V31.8
		h0.1 M558.6,51.7v-0.1h0.1v0.1 M558.7,69L558.7,69c-0.1,0.1-0.2,0.2-0.1,0H558.7 M558.9,46.4v0.2l-0.2,0.1c-0.2,0.4,0,0.8-0.1,1.2
		c-0.1-0.4-0.2-0.8,0-1.2L558.9,46.4 M558.6,39.8L558.6,39.8L558.6,39.8L558.6,39.8 M558.4,44.9v-0.2c0.2,0,0.3,0.2,0.3-0.1
		l-0.1,0.5L558.4,44.9 M558.6,42.4l-0.2,0.4c0.2-0.2,0.1-0.8,0.5-0.7L558.6,42.4 M558.4,52l0.1,0.2l-0.2-0.3 M558.3,60.1L558.3,60.1
		L558.3,60.1l-0.2-0.2h0.2 M558.3,61.5h-0.2c0-0.1,0.1-0.2,0.2-0.1V61.5 M558.1,43.6v-0.1V43.6h0.1 M558.2,52.3L558.2,52.3
		c-0.1,0.1-0.2,0.2-0.1,0H558.2 M558.1,25.4l0.1-0.4v0.2 M558.1,41.6L558.1,41.6L558.1,41.6L558.1,41.6 M558,53.3v-0.1h0.1L558,53.3
		 M557.9,24v-0.3c0.2-0.1,0.2,0,0.1,0.1L557.9,24 M558,28.5L558,28.5l-0.1-0.1L558,28.5 M558.2,69.7l-0.2-0.1l-0.1-0.2l0.2,0.1
		 M557.9,38v-0.2h0.1 M557.8,65.1V65V65.1h0.1 M557.7,20.9v-0.2h0.1v0.1 M557.8,27.9v0.2l-0.2-0.3 M557.6,55.4v-0.2h0.1v0.1
		 M557.5,68.9h0.4l0.2,0.3l-0.3-0.1 M557.6,45.7L557.6,45.7c-0.2-0.2-0.1-0.2,0-0.1V45.7 M557.5,56.5v-0.4l0.2,0.1 M557.5,60.1
		l0.2-0.3v0.5 M557.4,33.8v-0.2h0.1L557.4,33.8 M557.4,66.6v-0.2h0.1v0.1 M557.4,21.3l0.2-0.2v0.1 M557.4,35.8V35
		c0.3,0.1,0.1,0.4,0.3,0.6L557.4,35.8 M557.4,43v-0.1h0.1L557.4,43 M557.4,46v-0.1V46L557.4,46 M557.4,47.1l0.1-0.6l0.1,0.3
		 M557.4,68.4l-0.1-1l0.2,0.6l0.2-0.2c0.1,0.2,0,0.3-0.1,0.4L557.4,68.4 M557.5,23.3v0.4c0-0.3-0.5-0.4-0.1-0.8L557.5,23.3
		 M557.3,57.2v-0.1V57.2h0.1 M557.2,27.3v-0.1h0.1v0.1 M557.3,27.6L557.3,27.6l-0.1-0.1L557.3,27.6 M557.4,41l0.1,0.7
		c-0.1,0.2-0.3-1.4-0.3-1.4L557.4,41 M557.3,44.7l-0.1-1.2l0.2,0.5 M557.1,20.3l0.1-0.2l-0.1,0.6l-0.1-0.1 M557.2,23.1L557.2,23.1
		c-0.1,0.2-0.2,0.2-0.1,0H557.2 M557.2,60.6L557.2,60.6c-0.1,0.1-0.2,0.2-0.1,0H557.2 M557.2,68.4L557.2,68.4
		c-0.1,0.1-0.2,0.2-0.1,0H557.2 M557.2,26.2v0.3l-0.1,0.2v-0.3 M557,23.8v-0.2h0.2 M557.3,24.7l-0.3,0.7l-0.1-1.1l0.2,0.2 M557.1,65
		v0.3c-0.1,0.1-0.1-0.4-0.1-0.5L557.1,65 M557.2,55.8v0.3l-0.2,0.5v-0.4 M557.5,38.1l-0.2,0.3l-0.1,0.9H557c-0.3-0.2,0.2-0.9,0-1.1
		L557.5,38.1 M556.9,58.7v-0.2h0.1 M556.8,42.4l0.2-0.2v0.3 M556.8,60.1l0.1-1v0.5 M556.7,35.9l0.1-0.3l0.2,0.3 M556.7,43.3v-0.2
		h0.1v0.1 M556.7,69.8l0.1-0.1h0.1v0.1 M556.9,63.5l0.1,0.3l-0.1,0.1c0.2-0.3-0.3-0.3-0.2-0.5h0.1L556.9,63.5 M556.6,53v-0.2h0.1
		v0.1 M556.6,56.8v0.1c-0.1,0.1-0.2-0.1-0.1-0.2L556.6,56.8 M556.5,21.7v-0.2l0.2-0.4v0.7 M558.1,47.5L558.1,47.5L558.1,47.5
		L558.1,47.5 M558,50.1V50h0.1L558,50.1 M557.1,49.4l0.2-1c0.7,0.3,0.5-0.2,0.8-0.5c0,0.5,0.3,0.9-0.3,0.9c-0.7,0,0,1-0.1,1.2
		l-0.2-0.3l-0.4,0.1c0.1-0.1,0.3-0.4,0.2-0.4H557.1 M556.9,47.7l0.5-0.5V48 M556.9,48.5v-0.1h0.1L556.9,48.5 M556.9,48.2h-0.1
		c-0.1-0.2,0-0.2,0.1-0.2V48.2 M556.5,49v-0.2h0.3 M556.7,31.5l-0.1,0.3c-0.1-0.1-0.3-0.3-0.1-0.5L556.7,31.5 M556.5,26.5l-0.1-0.2
		L556.5,26.5 M556.5,57.3L556.5,57.3l-0.1-0.1L556.5,57.3 M556.4,52.6L556.4,52.6c-0.1,0.1-0.2,0.2-0.1,0H556.4 M556.3,67.5v-0.1
		V67.5h0.1 M556.3,28.1L556.3,28.1l-0.1-0.2h0.1 M556.2,28.7L556.2,28.7c-0.1,0.2-0.2,0.2-0.1,0H556.2 M556.1,65.2l-0.1-0.3v-0.3
		l0.3-0.4 M556.2,65.5h-0.1c0-0.1,0.1-0.2,0.2-0.1L556.2,65.5 M556.2,68.5h-0.1c0-0.1,0.1-0.2,0.2-0.1L556.2,68.5 M555.9,25.7v-0.3
		l0.3,0.1 M556,23.3L556,23.3l-0.1-0.2h0.2 M556,33.4L556,33.4c-0.1-0.1,0-0.2,0.1-0.1L556,33.4 M555.4,69.8v-0.1h0.1L555.4,69.8
		 M555.4,68.9v-0.2h0.1v0.1 M555.3,20.9v-0.4c0-0.1-0.1-0.2-0.3-0.2c0.4-0.4,0.5,0.7,0.5,0.8l0.1-0.2l-0.1,0.2L555.3,20.9
		 M554.8,23.2v-0.1V23.2h0.1 M554.8,69v-0.1h0.1V69 M554.7,21.1V21h0.1v0.1 M554.7,70.3v-0.4l0.3,0.2 M554.5,68.3h-0.2
		c0-0.1,0.1-0.2,0.2-0.1V68.3 M554.2,21h-0.1v-0.1h0.1 M554.1,70.7v-0.2l0.2,0.3"/>
	<path id="XMLID_1192_" class="st1" d="M597.6,42.5c0-4.5-3.6-8.1-8.1-8.1s-8.1,3.6-8.1,8.1s3.6,8.1,8.1,8.1S597.6,46.9,597.6,42.5"
		/>
	<polyline id="XMLID_1193_" class="st1" points="66.1,127.7 66.1,74.8 54.5,74.8 54.5,95.7 33,95.7 33,74.8 21.4,74.8 21.4,127.7 
		33,127.7 33,106.4 54.5,106.4 54.5,127.7 	"/>
	<polyline id="XMLID_1194_" class="st1" points="79.4,127.7 91,127.7 91,74.8 79.4,74.8 	"/>
	<path id="XMLID_1195_" class="st1" d="M136.4,94.6L136,96c-1.2,2.7-4.1,4.4-8.3,4.4h-11.8V85.2h11.6c5.7,0,9.1,2.6,9.1,7.6V93
		L136.4,94.6 M150,127.7l-13-18.9c6.7-2.5,11.3-7.8,11.3-16.4v-0.1c0-5-1.6-9.1-4.5-12.1c-3.5-3.5-8.7-5.4-15.4-5.4h-24.2v52.9h11.6
		v-16.9h9.1l11.3,16.9L150,127.7"/>
	<path id="XMLID_1198_" class="st1" d="M197.1,112v-0.2c0-9.2-6-13.1-16.8-15.9c-9.2-2.3-11.4-3.5-11.4-7v-0.2
		c0-2.6,2.3-4.6,6.8-4.6s9.1,2,13.8,5.2l6-8.8c-5.4-4.3-11.9-6.7-19.6-6.7c-10.8,0-18.5,6.3-18.5,15.9v0.2
		c0,10.5,6.9,13.5,17.5,16.2c8.8,2.3,10.7,3.8,10.7,6.7v0.2c0,3.1-2.9,5-7.6,5c-6.1,0-11-2.5-15.8-6.4l-6.9,8.2
		c6.3,5.7,14.4,8.5,22.4,8.5c10.7,0,18.4-5.2,19.3-14.5L197.1,112"/>
	<polyline id="XMLID_1199_" class="st1" points="245.3,127.7 245.3,117.1 218.9,117.1 218.9,74.8 207.3,74.8 207.3,127.7 	"/>
	<path id="XMLID_1200_" class="st1" d="M270.4,105.5l7-17.2l7,17.2 M288.6,115.8l4.8,11.9h12.2l-22.7-53.3h-10.7l-22.7,53.3h11.9
		l4.8-11.9"/>
	<polyline id="XMLID_1203_" class="st1" points="360.8,127.7 360.8,74.8 349.3,74.8 349.3,107.3 324.5,74.8 313.8,74.8 313.8,127.7 
		325.2,127.7 325.2,94 350.9,127.7 	"/>
	<path id="XMLID_1204_" class="st1" d="M409.8,104.7l-0.9,3.1c-2.3,5.8-7.6,9.4-14.8,9.4h-9V85.3h9c9.5,0,16,6.6,16,16v0.2
		L409.8,104.7 M410.3,123.2l2.1-1.5c6.1-4.8,9.8-12.1,9.8-20.5v-0.1c0-14.9-11.5-26.3-28.1-26.3h-20.6v52.9h20.6
		c5.2,0,9.9-1.1,13.9-3.1L410.3,123.2"/>
	<polyline id="XMLID_1207_" class="st1" points="472.8,127.7 472.8,117.3 444.1,117.3 444.1,106.2 469.1,106.2 469.1,95.8 
		444.1,95.8 444.1,85.1 472.5,85.1 472.5,74.8 432.6,74.8 432.6,127.7 	"/>
	<polyline id="XMLID_1208_" class="st1" points="530.2,127.7 530.2,74.8 518.7,74.8 518.7,107.3 493.9,74.8 483.2,74.8 483.2,127.7 
		494.7,127.7 494.7,94 520.3,127.7 	"/>
</g>
</svg>
