<?xml version="1.0" encoding="utf-8"?>
<!-- Generator: Adobe Illustrator 25.4.1, SVG Export Plug-In . SVG Version: 6.00 Build 0)  -->
<svg version="1.1" id="Layer_1" xmlns="http://www.w3.org/2000/svg" xmlns:xlink="http://www.w3.org/1999/xlink" x="0px" y="0px"
	 viewBox="0 0 242.3 71.3" style="enable-background:new 0 0 242.3 71.3;" xml:space="preserve">
<style type="text/css">
	.st0{fill:#749ABB;}
	.st1{fill:#124B7F;}
</style>
<g>
	<polygon class="st0" points="1.4,0.2 2.8,0.2 2.8,4.3 7.6,4.3 7.6,0.2 9,0.2 9,10.1 7.6,10.1 7.6,5.6 2.8,5.6 2.8,10.1 1.4,10.1 	
		"/>
	<path class="st0" d="M19.5,0c3,0,4.8,2.2,4.8,5.1s-1.8,5.1-4.8,5.1s-4.8-2.1-4.8-5.1S16.5,0,19.5,0 M19.5,9c2.3,0,3.3-1.9,3.3-3.9
		s-1.1-3.9-3.3-3.9s-3.3,1.9-3.3,3.9S17.2,9,19.5,9"/>
	<path class="st0" d="M38.2,6c0,2.8-1.4,4.3-3.8,4.3S30.5,8.8,30.5,6V0.2H32v5.6C32,7.7,32.6,9,34.4,9s2.4-1.3,2.4-3.2V0.2h1.4
		L38.2,6z"/>
	<path class="st0" d="M49.5,1.7c-0.6-0.3-1.2-0.4-1.9-0.4c-0.8,0-1.7,0.3-1.7,1.3C46,4.5,50.2,4,50.2,7.3c0,2.1-1.6,3-3.6,3
		c-0.7,0-1.4-0.2-2-0.4l0.1-1.3c0.6,0.3,1.3,0.4,2,0.4c1,0.1,1.8-0.6,1.9-1.6c0,0,0,0,0,0c0-2.2-4.3-1.6-4.3-4.7
		c0-1.8,1.4-2.7,3.2-2.7c0.7,0,1.4,0.1,2.1,0.4L49.5,1.7z"/>
	<polygon class="st0" points="58.7,1.4 55.7,1.4 55.7,0.2 63.2,0.2 63.2,1.4 60.2,1.4 60.2,10.1 58.7,10.1 	"/>
	<path class="st0" d="M72.8,0c3,0,4.8,2.2,4.8,5.1s-1.8,5.1-4.8,5.1S68,8.1,68,5.1S69.8,0,72.8,0 M72.8,9c2.3,0,3.3-1.9,3.3-3.9
		S75,1.2,72.8,1.2s-3.3,1.9-3.3,3.9S70.5,9,72.8,9"/>
	<polygon class="st0" points="83.8,0.2 85.8,0.2 90.2,8.1 90.2,8.1 90.2,0.2 91.6,0.2 91.6,10.1 89.8,10.1 85.3,1.9 85.3,1.9 
		85.3,10.1 83.8,10.1 	"/>
	<path class="st1" d="M67.6,62.1h1.3V70h3.8v1.1h-5.1V62.1z"/>
	<path class="st1" d="M77.6,62.1h5.1v1.1h-3.8v2.6h3.4v1.1h-3.4v3h3.8v1.1h-5.1V62.1z"/>
	<path class="st1" d="M91,62.1h1.4l3.8,9h-1.4l-0.9-2.3h-4.4l-0.9,2.3h-1.4L91,62.1z M91.6,63.3l-1.8,4.5h3.6L91.6,63.3z"/>
	<path class="st1" d="M100.8,62.1h2.7c2.7,0,4.8,1.7,4.8,4.4c0,3-1.8,4.6-4.8,4.6h-2.7V62.1z M102.1,70h1.4c2.2,0,3.4-1.1,3.4-3.4
		c0.1-1.7-1.2-3.2-2.9-3.3c-0.1,0-0.2,0-0.4,0h-1.5L102.1,70z"/>
	<path class="st1" d="M113.3,62.1h1.3v9h-1.3V62.1z"/>
	<path class="st1" d="M120.5,62.1h1.8l4,7.3l0,0v-7.3h1.3v9h-1.7l-4.1-7.4l0,0v7.4h-1.3L120.5,62.1z"/>
	<path class="st1" d="M140.1,63.7c-0.7-0.5-1.6-0.7-2.5-0.6c-1.9,0-3.5,1.5-3.6,3.5s1.5,3.5,3.5,3.6c0.5,0,1-0.1,1.5-0.2v-2.7h-1.9
		v-1.1h3.2v4.7c-0.9,0.3-1.8,0.4-2.8,0.4c-2.5,0.2-4.6-1.7-4.8-4.1c0-0.2,0-0.4,0-0.6c-0.1-2.5,1.9-4.5,4.4-4.6c0.1,0,0.3,0,0.4,0
		c0.9,0,1.8,0.1,2.6,0.5L140.1,63.7z"/>
	<path class="st1" d="M153.2,62.1h2.1l2.8,7.5l2.8-7.5h2.1v9h-1.3v-7.8l0,0l-3,7.8h-1.3l-3-7.8l0,0v7.8h-1.3L153.2,62.1z"/>
	<path class="st1" d="M168.9,62.1h5.1v1.1h-3.8v2.6h3.4v1.1h-3.4v3h3.8v1.1h-5.1L168.9,62.1z"/>
	<path class="st1" d="M179.4,62.1h2.7c2.7,0,4.8,1.7,4.8,4.4c0,3-1.8,4.6-4.8,4.6h-2.7V62.1z M180.7,70h1.3c2.2,0,3.4-1.1,3.4-3.4
		c0.1-1.7-1.2-3.2-2.9-3.3c-0.1,0-0.2,0-0.4,0h-1.5L180.7,70z"/>
	<path class="st1" d="M192.2,62.1h1.3v9h-1.3V62.1z"/>
	<path class="st1" d="M205,63.6c-0.6-0.3-1.2-0.5-1.9-0.5c-1.9,0-3.5,1.6-3.6,3.5c0,1.9,1.6,3.5,3.5,3.6l0,0c0.7,0,1.4-0.1,2-0.4
		l0.1,1.2c-0.7,0.2-1.4,0.3-2.1,0.3c-2.5,0.2-4.6-1.7-4.8-4.1c0-0.2,0-0.4,0-0.6c-0.1-2.5,1.9-4.6,4.4-4.6c0.1,0,0.2,0,0.4,0
		c0.7,0,1.4,0.1,2,0.4L205,63.6z"/>
	<path class="st1" d="M210.6,62.1h1.3v9h-1.3V62.1z"/>
	<path class="st1" d="M217.6,62.1h1.8l4,7.3l0,0v-7.3h1.3v9H223l-4.1-7.4l0,0v7.4h-1.3L217.6,62.1z"/>
	<path class="st1" d="M230.4,62.1h5.1v1.1h-3.8v2.6h3.4v1.1h-3.4v3h3.8v1.1h-5.1V62.1z"/>
	<path class="st1" d="M151.8,28.2"/>
	<path class="st1" d="M54.9,37.1c0-6.9,4.4-13.3,12.3-13.3c8,0,11,5.1,11,10.9v0.6H61.9v0.6c0,6.9,2.2,12,8,12c3.9,0,5.8-1.4,7.8-5
		l1.1,0.7c-2,4.3-6.3,7.1-11,7.2C59,50.8,54.9,44.7,54.9,37.1 M71.3,33.9c0-4.1-0.5-8.7-4.3-8.7c-3.1,0-5,3.4-5.1,8.8L71.3,33.9z"/>
	<path class="st1" d="M85.3,42.9V27.1h-5.1v-2.4h5.2v-8.4h6.2v8.4H99v2.4h-7.3v15.2c0,2.8,0.8,5,3.8,5c2.8,0,3.1-2.2,3.3-4.5h1.3
		c-0.3,4.2-2.7,7.9-7.7,7.9S85.3,47.9,85.3,42.9"/>
	<path class="st1" d="M100.9,48.6c0.8,0,1.7-0.2,2.5-0.5c1.1-0.3,1.4-1.2,1.4-2.5V13.9c0-1.2-0.6-2.4-1.5-3.2
		c-1.2-0.5-2.4-0.8-3.7-0.9V8.7l11.3-0.6l0.3,0.4v19.7h0.1c2.1-2.1,4.2-4.6,9-4.6c5.1,0,7.5,3.5,7.5,8.8v13.2
		c-0.1,1.1,0.4,2.1,1.4,2.5c0.8,0.3,1.6,0.5,2.5,0.6v1.1h-13.9v-1.1c0.8,0,1.6-0.2,2.3-0.5c1-0.3,1.2-1.2,1.2-2.5V32.2
		c0-3.8-1.8-5.8-4-5.8c-2.6,0-4.9,1.4-6.1,3.7v15.2c-0.1,1,0.4,2,1.3,2.6c0.7,0.4,1.6,0.6,2.4,0.7v1.1h-14L100.9,48.6z"/>
	<path class="st1" d="M179.6,48.6c0.8,0,1.7-0.2,2.5-0.5c1-0.4,1.6-1.4,1.4-2.5V29.5c0-1.1-0.5-2.2-1.4-2.8c-1-0.6-2.1-0.9-3.3-1.1
		v-1.1l10.8-0.7l0.4,0.4v21.1c-0.1,1.1,0.5,2.2,1.5,2.6c0.8,0.3,1.6,0.6,2.5,0.7v1.1h-14.3L179.6,48.6z M182.1,13.2
		c0-2.2,1.8-4.1,4-4.1c0,0,0,0,0,0c2.2-0.1,4.1,1.7,4.1,3.9c0,0,0,0.1,0,0.1c0,2.3-1.8,4.1-4.1,4.2C184,17.3,182.2,15.5,182.1,13.2"
		/>
	<path class="st1" d="M198.4,48.4l-0.8,1.7h-1.8l-0.3-9h1.2c0.8,3,4.2,8.3,8.7,8.3c3.5,0,4.8-1.9,4.8-4.6c0-2.9-2.5-4.1-6.5-5.3
		c-3.6-1.1-7.5-3.2-7.5-8.2c0-4.2,3.4-7.5,9.1-7.5c2.2,0,4.3,0.5,6.3,1.5l0.6-1.5h1.7l0.4,8.1h-1.1c-0.9-3.5-3.6-6.8-7.4-6.8
		c-2-0.2-3.9,1.3-4.1,3.3c0,0.2,0,0.4,0,0.6c0,3,2.1,3.7,6.3,5.1c4.5,1.5,7.5,3.8,7.5,8.3c0,5.2-4.4,8.3-9.9,8.3
		C203,50.8,200.5,50,198.4,48.4"/>
	<path class="st1" d="M221.7,42.9V27.1h-5.1v-2.4h5.2v-8.4h6.2v8.4h7.4v2.4H228v15.2c0,2.8,0.8,5,3.8,5c2.8,0,3.1-2.2,3.3-4.5h1.3
		c-0.3,4.2-2.7,7.9-7.7,7.9S221.7,47.9,221.7,42.9"/>
	<path class="st1" d="M175.1,47.6c-0.9-0.6-1.4-1.6-1.4-2.7V9.1l-0.4-0.4l-12.2,0.6v1c1.7,0.1,3.3,0.5,4.8,1.3
		c0.9,0.8,1.4,1.9,1.4,3.1v10.6c-2.1-0.9-4.3-1.4-6.5-1.4c-2.7,0-5.3,0.9-7.4,2.6c-0.3,0.2-0.6,0.5-0.9,0.8
		c-0.9,0.8-1.6,1.8-2.2,2.8c-1.2,2.1-1.8,4.4-1.8,6.8c0,2.6,0.5,5.1,1.6,7.5c-0.2,0.6-0.4,1.2-0.7,1.7c-1,2-2.4,3.2-4.5,3.2
		c-4.6,0-6.1-5.8-6.1-12.4c0-5.3,1.1-11.7,6.2-11.7c0.8,0,1.6,0.2,2.3,0.6c0.4,0.2,0.7,0.5,1,0.8c0.1-0.1,0.1-0.2,0.2-0.2l0.3-0.4
		c0.6-0.6,1.4-1.2,1.4-1.2c-0.3-0.1-0.7-0.2-1-0.3c-0.1,0-0.9-0.2-1-0.3l-0.8-0.1c-0.8-0.1-1.6-0.1-2.4-0.1
		c-8.1,0-13.3,5.5-13.3,13.4c0,8.3,6,13.3,13,13.3c3,0.1,5.9-0.8,8.3-2.5l0.2-0.1c1.5-1.1,2.7-2.6,3.5-4.3c1-2.1,1.5-4.4,1.5-6.7
		c0-2.3-0.5-4.6-1.6-6.6c0.2-0.5,0.4-0.9,0.6-1.4c1.1-2.4,2.8-3.7,4.8-3.7c3.3,0,4.8,2.5,5.4,4.4v15.8c-1.3,1.5-2.6,2.5-5,2.5
		c-1.2,0.1-2.5-0.2-3.4-1c-0.7,1.2-1.7,2.2-2.8,3c1.2,0.4,2.5,0.7,3.8,0.7c2.8-0.1,5.4-1.4,7.2-3.4l0.2,0.1v2.4l0.4,0.4l10.5-0.4
		v-1.2C177.2,48.5,176.1,48.1,175.1,47.6z"/>
	<path class="st1" d="M51.3,47.9c-0.6-0.3-1.1-0.8-1.4-1.4c0-0.1,0-0.2,0-0.3v-30h-2.5L28.7,44.8V16.2h-2.4L7.5,44.8
		c-0.9,1.7-2.4,2.9-4.3,3.4c-1.1,0.2-2.1,0.3-3.2,0.4v1.1h16v-1.1c-0.9-0.1-1.8-0.2-2.7-0.4c-0.8-0.2-1.6-0.4-2.4-0.7
		c-0.6-0.2-1-0.6-1.1-1.2c-0.1-0.4,0.1-0.9,0.3-1.2L22,26.4v23.4h6.4l14.8-23.4v19.4c0,0.9-0.5,1.6-1.2,2.1L41.8,48
		c-1.3,0.4-2.7,0.6-4.1,0.7v1.1h17.3v-1.1C53.7,48.5,52.5,48.3,51.3,47.9z"/>
	<path class="st1" d="M239.4,17.6c-1.6,0-2.8-1.3-2.8-2.9c0-1.6,1.3-2.8,2.9-2.8c1.6,0,2.8,1.3,2.8,2.8c0,1.6-1.2,2.8-2.7,2.9
		C239.5,17.7,239.5,17.7,239.4,17.6z M239.4,12.2c-1.4,0-2.6,1.1-2.6,2.6s1.1,2.6,2.6,2.6c1.4,0,2.6-1.1,2.6-2.6
		C242,13.4,240.9,12.2,239.4,12.2C239.5,12.2,239.5,12.2,239.4,12.2z M240.1,16.6l-0.7-1.6h-0.6v1.6h-0.4V13h1.1
		c0.8,0,1.1,0.4,1.1,1c0.1,0.5-0.2,0.9-0.7,1l0.8,1.6L240.1,16.6z M238.8,14.6h0.6c0.5,0,0.7-0.2,0.7-0.6s-0.2-0.6-0.8-0.6h-0.6
		L238.8,14.6z"/>
</g>
</svg>
