<?xml version="1.0" encoding="utf-8"?>
<!-- Generator: Adobe Illustrator 25.4.1, SVG Export Plug-In . SVG Version: 6.00 Build 0)  -->
<svg version="1.1" id="svg" xmlns="http://www.w3.org/2000/svg" xmlns:xlink="http://www.w3.org/1999/xlink" x="0px" y="0px"
	 viewBox="0 0 400 360" style="enable-background:new 0 0 400 360;" xml:space="preserve">
<style type="text/css">
	.st0{fill-rule:evenodd;clip-rule:evenodd;fill:#E40133;}
</style>
<g id="svgg">
	<path id="path0" class="st0" d="M0,180v180h200h200l-0.1-143.4c-0.1-157.4,0.1-143.8-2-153.3c-6.3-29.2-29.6-53.5-58.3-60.8
		c-10.2-2.6,7.9-2.4-175.6-2.5L0,0V180 M56.2,224.4c8.4,3,10.9,14,4.6,20.3c-7.7,7.7-20.8,2.9-21.4-7.9
		C38.8,227.7,47.5,221.3,56.2,224.4 M112.4,234v10.4l-2.6,0.2c-5.8,0.4-7.2,2.2-7.2,8.9v3.2h3.4h3.4l-0.2,3.6
		c-0.1,2-0.2,6.3-0.2,9.5v5.9h-3.2h-3.2v22.2v22.2H91.1H79.6v-22.2v-22.2h-3.7h-3.7v-9.5v-9.5h3.7h3.7l0.2-6.5
		c0.6-20.3,7.2-26.3,29.1-26.6l3.6,0V234 M216.8,259.9v35.3l0.8,1.5c1,2,2.4,2.7,5.9,2.9l2.7,0.2l0.2,4.3c0.1,2.3,0.2,7.1,0.2,10.6
		l0,6.4h-4.1c-14.4,0-22.9-3.5-26.9-11c-2.4-4.6-2.3-1.7-2.4-45.8l-0.1-39.7h11.9h11.9V259.9 M157,251.8c17.6,3,29,16.8,29,35
		c0,36.8-51.6,48.5-67.3,15.2C106.3,275.8,128.3,246.9,157,251.8 M272.7,251.9c34.6,5.9,39.9,54.2,7.4,67.2c-20,8-43-3-48-22.9
		C225.5,270.3,246.5,247.4,272.7,251.9 M351.6,266.4v11h-2.2c-8,0-13.8,4.4-15.8,12.1c-0.6,2.3-0.7,3.8-0.7,16.6v14h-11.9h-11.9
		l0.1-31.8l0.1-31.8l11.4-0.1l11.4-0.1v3.3v3.3l1-1.5c0.5-0.8,1.5-2,2.3-2.6c1.9-1.7,3.3-2.2,8.5-3.2c0.4-0.1,2.2-0.2,4.1-0.2l3.5,0
		V266.4 M58.3,257.5c5.2,2.6,5,1.2,5,34.5v28.1H51.7H40v-31.9v-31.9l8.2,0.1l8.2,0.1L58.3,257.5 M146.8,274.1
		c-11.2,3.7-12.2,19-1.5,24c11.6,5.5,23.5-7.8,16.6-18.5C158.8,275,151.9,272.5,146.8,274.1 M262.1,274.3c-4.8,1.6-8,5.4-8.7,10.5
		c-2.3,16.9,22.9,20.3,25.7,3.5C280.7,279.2,271.1,271.3,262.1,274.3 M363.5,299.7c10,4.9,7.9,19.7-3.2,21.7
		c-11.6,2.1-18.2-13.7-8.6-20.6C354.9,298.5,360.1,298,363.5,299.7"/>
</g>
</svg>
