<?xml version="1.0" encoding="utf-8"?>
<!-- Generator: Adobe Illustrator 25.4.1, SVG Export Plug-In . SVG Version: 6.00 Build 0)  -->
<svg version="1.1" id="Layer_1" xmlns="http://www.w3.org/2000/svg" xmlns:xlink="http://www.w3.org/1999/xlink" x="0px" y="0px"
	 viewBox="0 0 424.6 103.7" style="enable-background:new 0 0 424.6 103.7;" xml:space="preserve">
<style type="text/css">
	.st0{fill:#001046;}
	.st1{fill:#5697D1;}
</style>
<path class="st0" d="M96.5,41.6c1.4,0,2.7,0.6,2.7,1.5v46c0,1-1.3,1.5-2.7,1.5v1h13.3v-1c-1.4,0-2.7-0.5-2.7-1.5v-46
	c0-1,1.3-1.5,2.7-1.5v-1H96.5 M265.7,64.4c0-3.2,3.5-4.9,7.3-4.9c6,0,9.4,1,10.6,5.1h1.2l-0.1-5.3c-3.7-1.4-7.7-2.1-10.7-2.1
	c-10.3,0-14.5,5.4-14.5,9.5c0,11.9,20.4,9.1,20.4,17.8c0,2.6-2,5.2-7.6,5.2c-6.9,0-10.3-2.1-11.9-6.6l-0.9,0.1l0.5,6.4
	c3.3,1.5,7.6,2.5,11.4,2.5c11.1,0,16.1-5.2,16.1-10.1C287.4,70.4,265.7,73.1,265.7,64.4 M197.7,58.7c2.1,0,3.5,1.3,2.7,2.9
	l-10.2,19.6l-10.1-19.9c-0.5-1.6,0.9-2.7,2.8-2.7v-1.1h-16.2v1.1c2.1,0,3.5,0.8,4.9,3.4L187.9,92l17-30.5c1.4-2.3,3.1-2.7,4.4-2.7
	v-1h-11.6V58.7z M159.9,89.1V66.7c0-6.3-6.8-9.9-13.8-9.9c-6,0-11.4,3.3-13.5,5.1v-4.8c0-0.6-0.3-0.8-0.6-0.8
	c-4.4,1.6-6.3,2.3-10.7,3.8V61c2.3,0.2,3.1,1.4,3.3,3.1v25.1c0,1.1-1.4,1.5-2.7,1.5v1h13.4v-1c-1.4,0-2.7-0.5-2.7-1.5V64.9h0.1v-0.1
	c1.7-1.7,5.5-3.7,9.4-3.7c8.2,0,9.8,4.3,9.8,8.3v19.8c0,1.1-1.3,1.5-2.7,1.5v1h13.3v-1C161.3,90.6,159.9,90.3,159.9,89.1
	 M250.3,71.8c0-10.6-9.6-14.9-17.5-14.9c-14.3,0-21.1,9.5-21.2,17.3c-0.1,2.8,0.8,6.1,2.4,8.7c1.7,2.9,4.1,5.2,7.4,6.8
	c3.2,1.6,6.8,2.4,10.7,2.4c3.7,0,6.8-0.4,9.5-1.4c2.7-0.9,5.4-2.5,8.2-4.8l0-2.6c-2.9,1.9-5.4,3.2-7.5,3.9c-2.1,0.7-4.6,1-7.4,1
	c-4,0-7.5-1.2-10.4-4c-3-2.7-4.2-7.2-4.3-10.4v-2H250.3z M231.7,59.5c5.1,0,10.1,2.7,10.1,9.6h-21.3
	C221.2,64.2,224.9,59.5,231.7,59.5 M367.2,71.8c0-10.7-9.6-14.9-17.5-14.9c-14.3,0-21.1,9.5-21.3,17.3c0,2.8,0.9,6.1,2.4,8.7
	c1.7,2.9,4.2,5.2,7.4,6.7c3.2,1.6,6.7,2.4,10.7,2.4c3.6,0,6.8-0.5,9.5-1.4c2.7-0.9,5.4-2.5,8.2-4.8l-0.1-2.6
	c-2.8,1.9-5.4,3.2-7.5,3.9c-2.2,0.7-4.6,1-7.4,1c-4,0-7.5-1.2-10.4-3.9c-3-2.8-4.2-7.2-4.3-10.4v-2H367.2z M348.5,59.5
	c5.2,0,10.1,2.7,10.1,9.6h-21.3C338.1,64.2,341.7,59.5,348.5,59.5 M317,89c-2.8,0.1-8.4-0.7-8.4-7.4V61.2h13v-3h-12.8v-6.6h-8.1v6.7
	h-5.3l0.1,3h5.2v20.5c0,6.8,5.4,10.3,12.9,10.3c2.6,0,5.3-0.9,6.9-1.9c0.8-0.5,1.7-1,2.5-1.8l-0.1-1.2C321.7,87.8,319.2,89,317,89
	 M395.8,59.5c5.7,0,11.1,3.2,13.1,6.9h1.9v-6.3c-0.1-0.1-6.3-3.4-14.5-3.4c-15.8,0-22.1,10.6-22.1,17.7c0,1.5,0.2,3,0.7,4.5h-0.1
	c0.2,0.4,0.3,0.8,0.5,1.2c0.7,1.8,1.7,3.6,3,5.1c1.4,1.8,3.2,3.2,5.3,4.3c2.5,1.3,5.4,2.1,8.4,2.4c1,0.1,2,0.2,3.1,0.2
	c3.2,0,5.9-0.6,8-1.4h0.1c2.5-0.9,5.1-2.4,7.7-4.7v-2.8c-2.3,1.6-4.3,2.7-6.1,3.5c-2,0.7-4.4,1.2-7.2,1.2c-9.9,0-14.7-6.9-14.7-14.3
	C382.7,67,386.7,59.5,395.8,59.5"/>
<path class="st1" d="M46.8,40.6V13.5h-2.5v5.9C32.6,19.8,23,27.2,20.5,36.9h6.3c2.1-7.9,9.1-13.7,17.5-14.3v18H14.5v2.5h5.4
	c0.7,11.6,11.3,20.8,24.5,21.4v5.8h2.5V43.1h18.1c-0.6,8.5-6.6,15.4-14.6,17.5V64c11.5-1.9,20.3-10.4,20.9-21h5.4v-2.5 M44.4,61.1
	c-9.7-0.6-17.5-8.3-18.1-18h18.1V61.1z M64.3,36.9h6.4c-2.3-8.8-10.3-15.6-20.4-17.3v3.5C57.1,24.9,62.6,30.2,64.3,36.9"/>
</svg>
