<?xml version="1.0" encoding="utf-8"?>
<!-- Generator: Adobe Illustrator 25.4.1, SVG Export Plug-In . SVG Version: 6.00 Build 0)  -->
<svg version="1.1" id="svg" xmlns="http://www.w3.org/2000/svg" xmlns:xlink="http://www.w3.org/1999/xlink" x="0px" y="0px"
	 viewBox="0 0 400 200.6" style="enable-background:new 0 0 400 200.6;" xml:space="preserve">
<style type="text/css">
	.st0{fill-rule:evenodd;clip-rule:evenodd;fill:#E62B26;}
</style>
<g id="svgg">
	<path id="path0" class="st0" d="M42.1,1.4c-0.5,1.5-7.3,34.3-7.3,35.1c0,0.3,8.1,0.5,17.9,0.5s17.9-0.2,17.9-0.5
		c0-0.8,6.8-32.2,7.4-34.5C78.7-0.6,42.9-1.1,42.1,1.4 M288,0.3c0,0.3-6.2,29.4-7.3,34.1l-0.6,2.5h17.9c16,0,17.9-0.2,18.5-2
		c0.6-2.1,7.4-33.6,7.4-34.5c0-0.3-8.1-0.5-17.9-0.5C296,0,288,0.2,288,0.3 M355.1,47.1c-21.1,3.2-34.4,16-40.4,38.8
		c-5.3,20.3,1.9,35.1,24.7,50.7c18.2,12.4,21.5,27.1,8,35.1c-12.7,7.5-20.2-2.6-15.1-20.2l0.7-2.6l-16,0.3l-16,0.3l-2,9
		c-6.3,28.6,5,42.1,35.3,42c33.7-0.1,54.5-22.1,54.5-57.7c0-16.8-3.1-21.8-21.4-34.2c-19.7-13.3-22.1-17.5-17.1-29.2
		c5.7-13.3,19.3-6.5,17.7,8.8l-0.8,7.1h15.2h15.2l1.2-5.7C404.9,60.9,386,42.5,355.1,47.1 M31.4,51.1c0,0.6-29.4,139.5-30.8,145.8
		L0,199.4h17.8h17.8l1.2-5.3c2.1-8.8,30.3-141.9,30.3-142.9c0-0.5-8.1-0.8-17.9-0.8S31.4,50.7,31.4,51.1 M74,63
		c-1.5,6.9-2.9,13.7-3.2,15.1c-0.5,2.5-0.4,2.5,12.5,2.5c7.2,0,13,0.2,13,0.5c0,0.3-5.5,26.5-12.3,58.3
		c-6.8,31.8-12.3,58.3-12.3,58.9c0,0.6,7.3,1.1,17.7,1.1h17.7l12.7-59.4l12.7-59.4h13.6h13.6l3-14.3c1.7-7.9,3-14.7,3-15.1
		c0-0.5-20.1-0.8-44.6-0.8H76.6L74,63 M174.3,51.8c-0.8,2.5-30.9,145-30.9,146.4c0,0.9,5.1,1.3,17.2,1.3h17.2l6-28.3
		c3.3-15.6,6.2-28.9,6.5-29.7c0.6-1.8,10.3-1.9,14.1-0.1c5.7,2.6,6,6,1.8,28.3c-2.1,11.2-4,22.4-4.2,25l-0.5,4.8h18.6
		c19.1,0,19.9-0.2,17.3-4.4c-1.6-2.5-1.1-5.6,5.2-34.6c5.2-23.9,3.8-32-6.3-34.6l-3.4-0.9l6.5-4.5c24.7-17,28.1-56.7,5.6-66.8
		C237.9,50.4,175.3,48.8,174.3,51.8 M261.9,123c-8.5,39.9-15.4,73.4-15.4,74.5c0,1.8,1.4,2,17.5,1.7l17.5-0.3l15.5-72.3
		c8.5-39.7,15.5-73.2,15.5-74.2c0.1-1.8-1.5-2-17.6-2h-17.7L261.9,123 M217.4,79.3c9.5,4.7,7.2,25.1-3.6,31.6
		c-5.1,3.1-18.2,3.3-17.3,0.3c0.3-1.1,1.9-8.5,3.5-16.5c1.6-8,3.2-15.2,3.4-16C204.1,76.6,212.8,77,217.4,79.3"/>
</g>
</svg>
