<svg xmlns="http://www.w3.org/2000/svg" viewBox="8500.223 27 171.777 82.154">
  <defs>
    <style>
      .cls-1 {
        fill: #a1a4a7;
      }

      .cls-2 {
        fill: #e73137;
      }
    </style>
  </defs>
  <g id="itsc-LOGO" transform="translate(8361.723 -324.4)">
    <path id="Pfad_1" data-name="Pfad 1" class="cls-1" d="M144.184,351.4a5.643,5.643,0,1,1-5.684,5.684A5.72,5.72,0,0,1,144.184,351.4Zm4.73,49.957a7.647,7.647,0,0,1-2.531,6.016,10.152,10.152,0,0,1-7.012,2.158V375.59s-.124-4.149,2.614-6.431,6.929-1.826,6.929-1.826Z" transform="translate(0 0)"/>
    <path id="Pfad_2" data-name="Pfad 2" class="cls-1" d="M204.246,379.652c-1.784,2.075-5.187,2.075-5.187,2.075h-2.448v27.509s.249,4.108-2.2,6.182c-2.7,2.241-7.386,1.909-7.386,1.909V381.809H179.6v-6.639h4.606a4.093,4.093,0,0,0,2.282-.581,2.374,2.374,0,0,0,.622-1.784v-.5s-.041-3.9,2.573-5.809a10.98,10.98,0,0,1,6.058-1.7h.913v9.875h9.294A8.84,8.84,0,0,1,204.246,379.652Z" transform="translate(-24.047 -7.838)"/>
    <path id="Pfad_3" data-name="Pfad 3" class="cls-1" d="M274.009,394.028a9.853,9.853,0,0,1-5.726,1.784s-3.485.041-4.108.041c-3.112,0-7.3,1.2-7.3,5.643,0,7.1,19.916,1.452,19.916,15.186,0,8.962-7.8,14.066-16.887,14.066H246.5a8.528,8.528,0,0,1,2.9-5.975,10.582,10.582,0,0,1,6.016-2.158s3.195-.124,3.942-.124c3.444-.041,8.008-1.328,8.008-5.021,0-7.8-19.709-2.2-19.709-15.725,0-9.17,7.8-12.946,15.725-12.946h12.531S276.25,392.161,274.009,394.028Z" transform="translate(-63.189 -21.882)"/>
    <path id="Pfad_4" data-name="Pfad 4" class="cls-1" d="M366.736,430.707H356.488c-14.564,0-24.688-6.1-24.688-19.958,0-14.024,9.336-21.949,24.6-21.949h10.249a7.128,7.128,0,0,1-1.909,5.021,8.244,8.244,0,0,1-5.394,1.992s-2.241.041-3.112.041c-9.253.166-15.062,5.933-15.062,14.315,0,8.34,5.684,12.448,15.269,12.448a7.252,7.252,0,0,1,.954,0c3.651.124,5.352.166,7.469,2.282C366.985,426.931,366.736,430.707,366.736,430.707Z" transform="translate(-113.096 -21.882)"/>
    <path id="Pfad_5" data-name="Pfad 5" class="cls-2" d="M441.918,469.709a5.809,5.809,0,1,1-5.809-5.809A5.826,5.826,0,0,1,441.918,469.709Z" transform="translate(-170.726 -65.821)"/>
    <g id="Gruppe_1" data-name="Gruppe 1" transform="translate(184.473 417.912)">
      <path id="Pfad_6" data-name="Pfad 6" class="cls-2" d="M256.81,523.371a4.358,4.358,0,0,1-3.153,1.162H249.3V512.5h4.357a4.358,4.358,0,0,1,3.153,1.162c1.369,1.369,1.2,2.987,1.2,4.813C258.013,520.259,258.138,522,256.81,523.371Zm-1.66-8.049a2.089,2.089,0,0,0-1.743-.747h-1.784v7.842h1.784a1.986,1.986,0,0,0,1.743-.747c.456-.539.5-1.411.5-3.236S255.607,515.861,255.15,515.321Z" transform="translate(-249.3 -512.168)"/>
      <path id="Pfad_7" data-name="Pfad 7" class="cls-2" d="M275.6,514.084V512.3h2.241v1.784Zm0,10.29v-8.8h2.2v8.8Z" transform="translate(-264.688 -512.051)"/>
      <path id="Pfad_8" data-name="Pfad 8" class="cls-2" d="M287.9,525.128a1.818,1.818,0,0,0,1.909,1.95,2.475,2.475,0,0,0,1.992-.83l1.328,1.286a4.144,4.144,0,0,1-3.361,1.369c-2.075,0-4.066-.954-4.066-4.523,0-2.863,1.535-4.481,3.817-4.481,2.448,0,3.817,1.784,3.817,4.191v1H287.9Zm3.112-2.448a1.491,1.491,0,0,0-1.452-.913,1.452,1.452,0,0,0-1.452.913,3.233,3.233,0,0,0-.207.954h3.361A2.316,2.316,0,0,0,291.011,522.68Z" transform="translate(-270.597 -516.498)"/>
      <path id="Pfad_9" data-name="Pfad 9" class="cls-2" d="M319.6,524.433V512.4h2.365v9.917H327.4v2.075h-7.8Z" transform="translate(-290.431 -512.11)"/>
      <path id="Pfad_10" data-name="Pfad 10" class="cls-2" d="M347.931,523.069a3.65,3.65,0,0,1-2.738,1.079,3.549,3.549,0,0,1-2.7-1.079c-.788-.83-1-1.826-1-3.444a4.472,4.472,0,0,1,1-3.4,3.549,3.549,0,0,1,2.7-1.079,3.651,3.651,0,0,1,2.738,1.079,4.472,4.472,0,0,1,1,3.4C348.927,521.243,348.72,522.239,347.931,523.069Zm-5.518-9.253V511.7h1.867v2.116Zm3.817,3.693a1.381,1.381,0,0,0-1.037-.373,1.283,1.283,0,0,0-1,.373,2.937,2.937,0,0,0-.5,2.116,3.051,3.051,0,0,0,.5,2.158,1.346,1.346,0,0,0,1,.373,1.381,1.381,0,0,0,1.037-.373,3.051,3.051,0,0,0,.5-2.158A2.937,2.937,0,0,0,346.23,517.509Zm-.083-3.693V511.7h1.867v2.116Z" transform="translate(-303.244 -511.7)"/>
      <path id="Pfad_11" data-name="Pfad 11" class="cls-2" d="M366.834,528.945a4.772,4.772,0,0,1-3.734-1.286l1.452-1.452a3.256,3.256,0,0,0,2.365.83c.747,0,1.535-.249,1.535-.913,0-.456-.249-.747-.913-.83l-1.369-.125c-1.577-.166-2.573-.83-2.573-2.448,0-1.826,1.618-2.821,3.4-2.821a4.676,4.676,0,0,1,3.361,1.037l-1.369,1.369a3.029,3.029,0,0,0-2.033-.581c-.871,0-1.245.415-1.245.83,0,.332.124.705.913.747l1.369.124c1.743.166,2.614,1.079,2.614,2.573C370.569,527.991,368.909,528.945,366.834,528.945Z" transform="translate(-315.882 -516.498)"/>
      <path id="Pfad_12" data-name="Pfad 12" class="cls-2" d="M390.687,529v-.83a2.945,2.945,0,0,1-2.2.913,2.849,2.849,0,0,1-2.075-.788,3.274,3.274,0,0,1-.913-2.49v-5.6h2.2v5.311a1.461,1.461,0,1,0,2.9,0V520.2h2.2V529Z" transform="translate(-328.988 -516.673)"/>
      <path id="Pfad_13" data-name="Pfad 13" class="cls-2" d="M413.9,528.879v-5.311a1.461,1.461,0,1,0-2.9,0v5.311h-2.2v-8.8h2.158v.83a2.945,2.945,0,0,1,2.2-.913,2.849,2.849,0,0,1,2.075.788,3.274,3.274,0,0,1,.913,2.49v5.6Z" transform="translate(-342.62 -516.556)"/>
      <path id="Pfad_14" data-name="Pfad 14" class="cls-2" d="M434.6,532.082a4.131,4.131,0,0,1-3.195-1.162l1.369-1.369a2.314,2.314,0,0,0,1.7.664,1.66,1.66,0,0,0,1.784-1.826v-.913a2.644,2.644,0,0,1-2.075.871,2.781,2.781,0,0,1-2.075-.788c-.83-.83-.913-1.95-.913-3.485s.083-2.655.913-3.485a2.95,2.95,0,0,1,2.116-.788,2.661,2.661,0,0,1,2.158.913v-.83H438.5v8.464A3.64,3.64,0,0,1,434.6,532.082Zm.207-10.207c-1.286,0-1.452,1.12-1.452,2.282s.124,2.282,1.452,2.282c1.286,0,1.452-1.12,1.452-2.282C436.262,522.953,436.138,521.875,434.81,521.875Z" transform="translate(-355.726 -516.439)"/>
      <path id="Pfad_15" data-name="Pfad 15" class="cls-2" d="M463.4,529v-1.66l3.9-5.145h-3.693V520.2h6.473v1.66L466.138,527h3.942V529Z" transform="translate(-374.565 -516.673)"/>
      <path id="Pfad_16" data-name="Pfad 16" class="cls-2" d="M489.1,524.023v-.747a2.7,2.7,0,0,1-2.158.83,2.955,2.955,0,0,1-2.241-.788,2.917,2.917,0,0,1-.705-1.992c0-1.411.954-2.531,2.987-2.531h2.075v-.456c0-.954-.456-1.369-1.618-1.369a1.981,1.981,0,0,0-1.7.705l-1.411-1.369a3.656,3.656,0,0,1,3.153-1.2c2.448,0,3.734,1.037,3.734,3.112v5.767H489.1Zm-4.149-10.207V511.7h1.867v2.116Zm4.108,6.514h-1.743c-.788,0-1.245.373-1.245,1s.415,1,1.245,1a1.662,1.662,0,0,0,1.369-.415,1.4,1.4,0,0,0,.332-1.12v-.456Zm-.373-6.514V511.7h1.867v2.116Z" transform="translate(-386.618 -511.7)"/>
      <path id="Pfad_17" data-name="Pfad 17" class="cls-2" d="M512.062,524.433V519.08a1.435,1.435,0,1,0-2.863,0v5.353H507V512.4h2.2v4.025a2.83,2.83,0,0,1,2.116-.913,2.879,2.879,0,0,1,2.946,3.195v5.684h-2.2Z" transform="translate(-400.075 -512.11)"/>
      <path id="Pfad_18" data-name="Pfad 18" class="cls-2" d="M532.372,524.433A2.379,2.379,0,0,1,529.8,521.9v-9.5H532v9.377c0,.539.208.788.788.788h.83v1.867Z" transform="translate(-413.415 -512.11)"/>
      <path id="Pfad_19" data-name="Pfad 19" class="cls-2" d="M544.744,525.661a2.367,2.367,0,0,1-2.531-2.531v-4.357H541.3v-1.66h.913V514.5h2.2v2.614h1.535v1.66h-1.535v4.232a.69.69,0,0,0,.747.788h.788v1.867Z" transform="translate(-420.143 -513.338)"/>
    </g>
  </g>
</svg>
