<?xml version="1.0" encoding="utf-8"?>
<!-- Generator: Adobe Illustrator 25.4.1, SVG Export Plug-In . SVG Version: 6.00 Build 0)  -->
<svg version="1.1" id="svg" xmlns="http://www.w3.org/2000/svg" xmlns:xlink="http://www.w3.org/1999/xlink" x="0px" y="0px"
	 viewBox="0 0 400 88.6" style="enable-background:new 0 0 400 88.6;" xml:space="preserve">
<style type="text/css">
	.st0{fill-rule:evenodd;clip-rule:evenodd;fill:#2B2A29;}
</style>
<g id="svgg">
	<path id="path0" class="st0" d="M136.8,30.1c0,24.4,0.3,27.6,3.5,34.1c10.6,21.5,42.3,21.5,52.8,0c3.1-6.4,3.5-10.4,3.6-34.7l0-21
		h-30h-30L136.8,30.1 M194,34c0,0,0.7,16.2-0.2,21.6c-0.3,1.7-2.1,6.4-2.1,6.4c-6.6,14-23.2,20.3-36.4,13.8l-3.9-1.9l7.7-0.2
		c6.2-0.1,7.7-0.4,7.7-1.1c0-0.8-1.5-1-9-1h-9l-2.5-2.6l-2.5-2.6h11.5c9.8,0,11.5-0.1,11.5-1c0-0.8-1.8-1-12.1-1h-12.1l-0.9-2.3
		c-0.5-1.2-0.9-2.4-0.9-2.6c0-0.2,5.9-0.3,13-0.3c11.1,0,13-0.1,13-1c0-0.8-2.1-1-13.5-1.1L139.7,57l-0.2-2.1l-0.2-2.1h13.7
		c13.3,0,13.7,0,13.7-1.3c0-1.3-0.4-1.3-14-1.3h-14v-2.3v-2.3h28v-2h-28V41v-2.6h28v-2h-28v-2.6v-2.6h28v-2h-28V27v-2.3h28v-2h-28
		v-2.6v-2.6h28v-2h-28V13v-2.6h27.7h27.7L194,34 M91.5,14.7c-0.4,0.1-1.5,0.4-2.4,0.6c-6.5,1.4-10.2,10.3-7.1,17
		c5.5,11.9,23.6,7.8,23.5-5.4C105.5,19.7,97.4,12.7,91.5,14.7 M27.1,16.8c-0.5,1-2.1,4.6-3.6,8c-1.4,3.4-3.4,7.9-4.3,9.9l-1.7,3.7
		h1.5c1.3,0,1.8-0.7,3-3.6l1.5-3.6l4.9,0.2l4.9,0.2l1.3,3.4c1.1,2.8,1.6,3.4,2.9,3.4c1,0,1.4-0.3,1.2-0.8C35.5,29.2,29,15,28.6,15
		C28.3,15,27.6,15.8,27.1,16.8 M42.3,26.7c0,9.9,0.1,11.7,1,11.7c0.8,0,1-1.6,1.1-9.2l0.2-9.2l8.7,9.6c4.8,5.3,9,9.6,9.3,9.6
		c0.3,0,0.6-5.3,0.6-11.7c0-9.9-0.2-11.7-1-11.7c-0.8,0-1,1.6-1.1,9.2l-0.2,9.2l-8.7-9.6c-4.8-5.3-9-9.6-9.3-9.6
		C42.6,15,42.3,20.3,42.3,26.7 M109.4,26.7c0,11.2,0.1,11.7,1.3,11.7c1.2,0,1.3-0.5,1.5-8.9l0.2-8.9l8.4,9.1
		c10.9,11.9,10.2,12,10.2-2.3c0-11.3-0.1-11.8-1.3-11.8c-1.2,0-1.3,0.5-1.5,9.1l-0.2,9.1l-8.7-9.5c-4.8-5.2-9-9.5-9.3-9.5
		C109.7,15,109.4,20.1,109.4,26.7 M1.3,27c0,10.9,0.1,11.4,1.3,11.4c1.1,0,1.3-0.5,1.5-5.1l0.2-5.1l4.6,5.1c3.6,4.1,4.9,5.1,6.4,5.1
		c1.8,0,1.6-0.2-3.4-5.8c-6.3-6.9-6.3-5.7-0.3-11.9c4.3-4.5,4.8-5.1,3.4-5.1c-1.1,0-3.1,1.5-6.3,4.7L3.9,25v-4.7
		c0-4.3-0.1-4.7-1.3-4.7C1.4,15.6,1.3,16.1,1.3,27 M66.4,16.6c0,0.7,0.8,1,2.9,1h2.9V28c0,10,0.1,10.4,1.3,10.4
		c1.2,0,1.3-0.4,1.3-10.4V17.6h2.6c1.9,0,2.6-0.3,2.6-1c0-0.8-1.2-1-6.8-1C67.6,15.6,66.4,15.8,66.4,16.6 M97.5,18
		c7.1,3.4,7.2,13.9,0.1,17.8c-4.7,2.6-10.8,0.7-13.1-4.2C80.3,22.8,88.8,13.9,97.5,18 M30.3,23.9c2.1,4.8,2.2,4.8-1.9,4.8h-3.5
		l1.7-4.2C28.6,19.3,28.3,19.4,30.3,23.9 M1.3,61.9v11.7h7.5h7.5v-2.9v-2.9h-3.9H8.5V59v-8.8H4.9H1.3V61.9 M17.7,59.2
		C18,71.7,19.8,73.9,29,73.9c9.3-0.1,10.7-2.1,10.7-14.6v-9.1h-3.6h-3.6v8c0,8.6-0.6,10.2-3.7,10.2c-2.9,0-3.5-1.8-3.5-10.3v-7.9h-4
		h-4L17.7,59.2 M43,53.1V56l4.9,0.2l4.9,0.2l-6.2,8.3c-3.4,4.6-6.2,8.4-6.2,8.6c0,0.2,5.1,0.3,11.4,0.3h11.4V71v-2.6h-5.3h-5.3
		l5.6-8.1c3.1-4.5,5.8-8.6,6-9.1c0.3-0.9-0.9-1-10.4-1H43V53.1 M66.4,61.9v11.7h7.5h7.5V71v-2.6h-4.2H73v-2c0-1.9,0-2,3.6-2h3.6
		v-2.6v-2.6h-3.6c-3.4,0-3.6-0.1-3.6-1.6c0-1.6,0.2-1.6,4.2-1.6h4.2v-2.9v-2.9h-7.5h-7.5V61.9 M84.7,61.8v11.8h3.6h3.6l0.2-3.9
		l0.2-3.9l3.1,3.9l3.1,3.9h3.9c4.7,0,4.7,0,0.3-5.1l-3.5-4.2l1.9-1.8c2.8-2.6,2.8-7.4-0.1-10.1c-1.9-1.8-2.3-1.9-9.1-2.1L84.7,50
		V61.8 M107.5,61.9v11.7h3.6h3.6l0.2-6.2l0.2-6.2l4.8,6.2l4.8,6.2h3.2h3.2V61.9V50.2h-3.2h-3.2l-0.2,6.5l-0.2,6.5l-5.1-6.5l-5.1-6.5
		h-3.2h-3.2V61.9 M95,56.2c1.3,1.3,0.9,3.6-0.7,4c-2.3,0.6-2.4,0.5-2.4-2.2C91.9,55.2,93.3,54.4,95,56.2"/>
</g>
<rect x="201.3" y="8.7" class="st0" width="198.7" height="1.6"/>
<rect x="201.3" y="43" class="st0" width="198.7" height="1.6"/>
<rect x="201.3" y="78.4" class="st0" width="198.7" height="1.6"/>
<rect x="0.5" y="8.7" class="st0" width="131.8" height="1.6"/>
<rect x="0.5" y="43" class="st0" width="131.8" height="1.6"/>
<rect x="0.5" y="78.4" class="st0" width="131.8" height="1.6"/>
</svg>
