<?xml version="1.0" encoding="utf-8"?>
<!-- Generator: Adobe Illustrator 25.4.1, SVG Export Plug-In . SVG Version: 6.00 Build 0)  -->
<svg version="1.1" id="Layer_1" xmlns="http://www.w3.org/2000/svg" xmlns:xlink="http://www.w3.org/1999/xlink" x="0px" y="0px"
	 viewBox="0 0 1920 564.8" style="enable-background:new 0 0 1920 564.8;" xml:space="preserve">
<style type="text/css">
	.st0{fill:#312783;}
</style>
<g>
	<path class="st0" d="M716.4,256.3c-3.8,1.6-5.2,6.7-6.6,10.4c-6.2,15.6-14.6,31.1-18.1,46.4c35.2,1.4,72-1,107.2,0.4
		c6.2-20.2,16.3-36.8,22.5-57C786.9,255.3,751,257.7,716.4,256.3z"/>
	<path class="st0" d="M1696.5,511.7l-168.5,0C1574.1,543.3,1644.9,531.4,1696.5,511.7z"/>
	<path class="st0" d="M1881.6,419c-33.4,0.1-61.4,11.9-89.1,24.6c-21.8,8.3-41.3,19.8-61.3,30.1c-26.2,13.5-53.3,24.9-87.3,23.9
		c-16.1-2.6-34.5-9.8-43.4-23.9h0c-2-3.2-3.6-6.8-4.5-10.7c-0.7-8-3.7-18.7,1.5-25.4c33,13.6,74.4,19.5,110.7,8.1
		c21.1-9.6,42.2-28.8,40.8-55.9c-2-19.9-16-34.8-32.3-43.1c-60.3-24.4-143.1-10.8-187.2,36.7c-18,17.8-21.3,48-42.8,66.1
		c-11.2,8-27.1,19.6-42.1,10.1c-2.8-3.8-5.1-7.9-4.3-13.3c21.1-54.7,44.7-111.1,65.9-167.1c3.2-8.1,8.3-17.8,9.3-26.4l-105.6,0.5
		l-3.1,2.5c-17,41.6-32.6,84.8-50.7,126.5l-2.4,0.1c-2-6.9-6.3-12.3-9.3-18.5c-18.9-26-51.6-30.3-84.6-24.8
		c-47.3,11.4-89.3,51.3-99.8,98.9c0,13.7-14.5,20.7-22.6,28.5c-4.2,2.5-8.2,5.1-12.6,7.2l76.7,0l-76.7,0c-4.3,2.1-8.8,3.7-13.9,3.8
		c-1.8-0.8-3.5-2.1-4.7-3.9h0c-1.8-2.5-2.8-5.7-2-9.3c8-26.3,22.3-46.1,23.4-75c-1.9-16.2-8.4-31.1-24.1-38.6
		c-40.3-15.9-83.4,2.7-115.2,23.1c-6.6,3.5-11.8,10.4-19.3,12.4c-1.6-7.3-0.8-16-3.8-22.6c-6.3-12.1-19.1-19.3-33-20.9
		c-63.3-0.4-102.1,51.3-144.5,86.2c-11.4,8.4-18.1,17.3-32.5,18.5c-3.7-1.4-5.4-4.8-5.9-9.1c7.9-21.3,18-42.1,25.5-64
		c4-10.1,10.3-22.3,11.5-32.1l-105.7-0.9c-6.7,13.2-13.5,28-19.1,42.3c-8.6,20.2-15.2,41.7-28.7,59.3c-41.3,41.4-112.7,21.1-159.2,1
		l-0.1-1.7c12.9-10.6,27.9-20.1,41.4-31.4c87.6-69.2,135.7-170.7,211.3-251.8c87.8-99.8,253.4-116.9,380.4-79.7
		c50.4,19.5,104.1,41.7,121.7,99.2c3.9,30.6-5.1,60.5-29.6,77.6c-42.7,38.1-116.9,44.4-170.9,24c-28.1-10.7-58.5-28.1-68.4-58.3
		c-4.9-20.9,0.7-40.4,13.9-54.9c45.1-38.5,112.5-13.7,157.9,7.9l10.5-16.8c-61.9-34.3-140.4-51.1-214.7-30.5
		c-38.4,11.5-75.2,33.9-78.6,76.9c1.9,49.6,51.7,65.9,89.6,82.8c74.1,23,154.5,34.1,239,24c63.7-8.3,134.7-25.7,165.2-82.1
		c11.9-20.1,5.6-52.2-7.2-70c-32.9-42.2-76.2-63.5-123.5-81.6c-156.6-55.5-375.7-62.8-528.1,12.8c-7.5,3.3-14.5,7.4-22.5,9.5
		c-54.8,31.4-106,71-145.6,121.8c-49.5,61.8-87.4,125.8-143.3,187.2c-82.8-30.3-192-38-276.9-3.6c-28.1,14-61.9,27.7-58.4,65.8
		c0.2,1,0.4,1.9,0.6,2.8c3.9,14.6,16.2,22.5,28.7,30.8c5,2.6,10.1,5,15.3,7.2c64.3,27.3,142.8,26.3,214.2,11.7
		c13.1-2.6,25.4-6.8,37.4-11.7c10.2-4,20.2-8.5,30.3-12.8c8.7,3.7,17.9,8.6,27.2,12.8c2.7,1.2,5.4,2.3,8,3.3
		c43.4,18.2,100.5,25.8,147.1,7.5c8.8-3,17.2-6.7,25.2-10.8c19.2-10,36.5-22.8,53.7-36c1.3,0.6,0.5,2.6,0.8,3.9
		c-4,10.1-3.1,22,1.1,32.1c1.7,4,4,7.8,6.7,11c15.6,17.4,43.5,10.8,63.3,5.6c11.2-3.8,21.3-9.7,30.8-16.6
		c15.5-11.2,29.3-25.3,43.4-38c5.2-4.7,10.4-9.1,15.7-13.2c15.8-13.1,27.2-27.8,46-37.8c2.8,1.2,4.4,2.9,5,6.1
		c-4.6,15.8-10.5,30.3-16.5,44.9l55.6,0l-55.6,0c-4.7,11.4-9.6,22.8-13.9,34.9c-0.2,1-0.5,2.1-0.9,3.1h0c-2.2,5.9-6.4,11.1-6.2,17.8
		c36.7-0.2,73.6,2,110.4-0.8c2.6-5.4,5.1-11.1,7.4-16.9h0c4.9-12.3,9.4-25.3,14.3-38h0c11.6-29.4,26.1-56.8,56.8-69.3
		c7.7-1.6,17-2.1,22.9,4c8.3,9-0.6,19.5-2.9,28.5c-3.5,12.7-9.3,24.5-13.7,36.8c-3.7,10.5-6.5,21.3-6,33.3c0.4,1.6,0.9,3.2,1.6,4.7
		c5.4,12.9,18.1,20,32.5,21.6c31.6,2,59.9-7.4,85.3-21.6h0.1c17.8-10,34.2-22.5,49.1-35.1c1.7,13.9,9.6,26.3,19,35.1
		c2.8,2.6,5.6,4.8,8.5,6.7c28.6,18.1,74.4,18.9,103.3,0.3c3.8-2,7.4-4.3,10.7-6.9h0c8.2-6.3,15.4-13.8,23.9-19.4
		c0.6,7.1,2.8,13.6,6.5,19.4l55.2,0l-55.2,0c2.8,4.5,6.5,8.6,11.1,12.3c26.4,16.6,64.9,5.8,88.9-7c3.5-1.6,7-3.4,10.4-5.3h0.1
		c18.6-10.4,35.1-24.6,50.9-38c1.6-1.4,3.3-2.8,4.9-4.2l2.4-0.1c0.3,1.4,0.7,2.8,1.1,4.2c3.5,11,10.4,20.8,18,29.2
		c3.5,3.3,7.2,6.2,11.1,8.8h168.5c6-2.3,11.6-4.6,17-7c23.3-10.8,47.8-23.1,73.4-30.9l0.1,0c24.5-7.5,50.1-10.7,76.7-4.4l16-39.8
		C1879.5,425.6,1884.7,422.2,1881.6,419z M1659.7,366.9c8.2-0.7,16-0.6,22.3,4c4.9,4.6,7.3,11.2,5.4,17.8
		c-5.6,14.7-14.8,23.7-29.8,29.5c-17.2,4.3-36.6,2.6-50.7-5.2C1616,391,1637,372,1659.7,366.9z M148.3,495.4
		c-9.9-4.9-21.3-11.8-27.4-21.6c-1.6-2.7-2.9-5.6-3.6-8.7c-3.3-13.8,0.7-28,9.8-36.8c34-25.9,78.4-2.1,110.9,12.8
		c20.1,10.3,42.1,19.4,62.7,30.1l0.1,1.5c-0.4,0.4-0.8,0.7-1.3,1C259.3,506.2,196.7,516,148.3,495.4z M1278,473.8L1278,473.8
		c-1-0.4-1.8-0.8-2.6-1.2c-8.2-5.1-15.2-14-15-24.6c-0.7-26.4,12.9-48.2,35-58.7c12.4-4.1,27.3-2.3,36.4,5.7c7.7,8,13.1,21.9,9,34.4
		c-3.9,18.1-14.4,34.1-31.4,43.8c-0.4,0.2-0.8,0.4-1.2,0.7C1299.3,478.3,1287,477.6,1278,473.8z"/>
</g>
</svg>
