<?xml version="1.0" encoding="utf-8"?>
<!-- Generator: Adobe Illustrator 25.4.1, SVG Export Plug-In . SVG Version: 6.00 Build 0)  -->
<svg version="1.1" id="Layer_1" xmlns="http://www.w3.org/2000/svg" xmlns:xlink="http://www.w3.org/1999/xlink" x="0px" y="0px"
	 viewBox="0 0 1920 368.2" style="enable-background:new 0 0 1920 368.2;" xml:space="preserve">
<style type="text/css">
	.st0{fill-rule:evenodd;clip-rule:evenodd;fill:#134395;}
	.st1{fill-rule:evenodd;clip-rule:evenodd;fill:#6B6B6A;}
</style>
<g>
	<path class="st0" d="M1884.5,150.9h-135.7c17.8-67,33.9-123.9,33.9-123.9s-61.1,65.3-115.4,123.9c0,0-535.3,0-537.8,0
		c-3.4,0-3.4,1.7,0,1.7c1.7,0,527.7,9.3,527.7,9.3c-42.4,45-65.3,70.4-66.2,71.3c-1.7,1.7,0,2.5,1.7,0.8
		c0.8-0.8,31.4-28.8,74.7-72.1l67,0.8c-4.2,19.5-7.6,37.3-12.7,58.5c-82.3,44.1-216.3,116.2-216.3,116.2c-1.7,0.8-0.8,2.5,0.8,1.7
		c0.8-0.8,125.6-63.6,212.9-107.7c-14.4,65.3-23.8,110.3-23.8,111.1c-0.8,0.8,0.8,1.7,1.7,0c0-0.8,12.7-45.8,31.4-115.4
		C1806.4,187.4,1884.5,150.9,1884.5,150.9L1884.5,150.9z M1678.3,150.9c40.7-39.9,74.7-72.1,74.7-72.1s-5.9,28-16.1,72.1H1678.3
		L1678.3,150.9z M1745.3,162.8l81.4,1.7c0,0-40.7,22.1-95.9,51.7C1736,197.6,1740.3,181.5,1745.3,162.8L1745.3,162.8z"/>
	<polygon class="st1" points="47,190.8 70.8,190.8 61.4,234.9 83.5,234.9 80.1,251.9 34.3,251.9 47,190.8 	"/>
	<path class="st1" d="M165.8,190c21.2,0,28.8,12.7,24.6,31.4c-4.2,18.7-17,31.4-38.2,31.4c-20.4,0-28-12.7-23.8-31.4
		C131.8,202.7,145.4,190,165.8,190L165.8,190z M155.6,237.5c4.2,0,6.8-2.5,10.2-16.1c2.5-13.6,0.8-16.1-3.4-16.1
		c-3.4,0-6.8,2.5-9.3,16.1C149.7,234.9,152.2,237.5,155.6,237.5L155.6,237.5z"/>
	<path class="st1" d="M290.5,229c-3.4,17-17.8,23.8-33.1,23.8c-21.2,0-28-12.7-23.8-31.4c3.4-19.5,17-31.4,37.3-31.4
		c15.3,0,27.1,5.9,22.9,23.8h-22.1c1.7-6.8-0.8-8.5-3.4-8.5c-6.8,0-8.5,6.8-10.2,16.1c-2.5,9.3-3.4,16.1,2.5,16.1
		c3.4,0,5.9-1.7,7.6-8.5H290.5L290.5,229z"/>
	<polygon class="st1" points="350.7,190.8 373.6,190.8 368.5,217.1 368.5,217.1 386.3,190.8 411.8,190.8 389.7,219.6 400.8,251.9 
		375.3,251.9 366.8,224.7 366.8,224.7 360.9,251.9 338,251.9 350.7,190.8 	"/>
	<polygon class="st1" points="486.4,229 476.3,229 472,251.9 448.3,251.9 461,190.8 484.7,190.8 480.5,211.2 490.7,211.2 
		494.9,190.8 518.7,190.8 505.9,251.9 482.2,251.9 486.4,229 	"/>
	<polygon class="st1" points="573,190.8 618.8,190.8 615.4,206.9 592.5,206.9 590.8,213.7 612,213.7 608.6,229 587.4,229 
		585.7,235.8 609.4,235.8 606,251.9 559.4,251.9 573,190.8 	"/>
	<polygon class="st1" points="673.9,190.8 719.7,190.8 716.3,206.9 693.4,206.9 691.7,213.7 712.9,213.7 710.4,229 688.3,229 
		687.5,235.8 711.2,235.8 707.9,251.9 661.2,251.9 673.9,190.8 	"/>
	<path class="st1" d="M774.9,190.8h28.8c23.8,0,28.8,13.6,25.5,31.4c-4.2,17.8-18.7,29.7-37.3,29.7h-29.7L774.9,190.8L774.9,190.8z
		 M788.4,237.5h2.5c4.2,0,6.8-0.8,8.5-3.4c2.5-2.5,3.4-6.8,5.1-12.7c0.8-5.9,1.7-10.2,0-12.7c-0.8-2.5-2.5-3.4-6.8-3.4h-1.7
		L788.4,237.5L788.4,237.5z"/>
	<polygon class="st1" points="985.3,208.6 985.3,208.6 967.4,251.9 945.4,251.9 946.2,208.6 946.2,208.6 936.9,251.9 916.5,251.9 
		929.3,190.8 962.3,190.8 961.5,227.3 961.5,227.3 975.9,190.8 1009,190.8 996.3,251.9 975.9,251.9 985.3,208.6 	"/>
	<path class="st1" d="M1075.2,190.8h30.5l6.8,61.1h-24.6l-0.8-10.2h-17l-4.2,10.2h-22.9L1075.2,190.8L1075.2,190.8z M1087,227.3
		v-22.9l0,0l-10.2,22.9H1087L1087,227.3z"/>
	<path class="st1" d="M1177,190.8h35.6c12.7,0,19.5,4.2,17,15.3c-1.7,7.6-5.1,12.7-15.3,14.4v0.8c5.9,0,8.5,2.5,8.5,7.6
		c0.8,5.1-1.7,13.6-0.8,22.9H1199c-0.8-5.1,0-12.7,0.8-17.8c0-2.5-1.7-4.2-5.1-4.2h-3.4l-4.2,22.1h-23.8L1177,190.8L1177,190.8z
		 M1196.5,216.3c5.1,0,8.5-1.7,9.3-5.9c0.8-4.2-1.7-5.1-6.8-5.1h-1.7l-2.5,11H1196.5L1196.5,216.3z"/>
	<polygon class="st1" points="1295.7,207.8 1281.3,207.8 1284.7,190.8 1338.2,190.8 1334.8,207.8 1320.3,207.8 1311,251.9 
		1286.4,251.9 1295.7,207.8 	"/>
	<polygon class="st1" points="1391.6,190.8 1415.4,190.8 1402.6,251.9 1378.9,251.9 1391.6,190.8 	"/>
	<polygon class="st1" points="1472.2,190.8 1501,190.8 1506.1,227.3 1506.1,227.3 1514.6,190.8 1533.3,190.8 1520.5,251.9 
		1491.7,251.9 1487.5,214.6 1486.6,214.6 1479,251.9 1459.5,251.9 1472.2,190.8 	"/>
</g>
</svg>
