<?xml version="1.0" encoding="utf-8"?>
<!-- Generator: Adobe Illustrator 25.4.1, SVG Export Plug-In . SVG Version: 6.00 Build 0)  -->
<svg version="1.1" id="svg" xmlns="http://www.w3.org/2000/svg" xmlns:xlink="http://www.w3.org/1999/xlink" x="0px" y="0px"
	 viewBox="0 0 400 107.2" style="enable-background:new 0 0 400 107.2;" xml:space="preserve">
<style type="text/css">
	.st0{fill-rule:evenodd;clip-rule:evenodd;fill:#014B7C;}
	.st1{fill-rule:evenodd;clip-rule:evenodd;fill:#A8A8A8;}
	.st2{fill:#014B7C;}
</style>
<path id="path0" class="st0" d="M220.6,0.7c-0.1,0.2-0.9,0.3-2.2,0.5c-1.1,0.1-2.1,0.3-2.2,0.4s-0.8,0.2-1.3,0.3
	c-0.6,0.1-1.3,0.3-1.5,0.4c-0.2,0.1-0.6,0.2-0.8,0.2c-0.2,0-0.6,0.1-1,0.3c-0.4,0.2-0.7,0.3-0.8,0.3c-0.2,0-1.8,0.7-2.3,1
	c-0.1,0.1-0.5,0.3-0.8,0.4s-1,0.5-1.5,0.9c-0.5,0.4-1,0.7-1.1,0.7s-0.3,0.1-0.4,0.3c-0.2,0.2-0.7,0.6-1.2,1
	c-2.2,1.9-3.8,3.7-5.4,6.2c-0.8,1.2-2.3,4.4-2.5,5.3c-0.1,0.4-0.3,0.8-0.3,0.9c-0.1,0.1-0.2,0.5-0.2,0.8c-0.1,0.4-0.2,1.1-0.4,1.7
	c-1.1,3.7-1.4,11.2-0.7,15.5c0.4,2.4,1,4.5,1.6,6.2c1.7,4.5,5.1,9,9.2,11.7c0.6,0.4,1.2,0.8,1.3,0.8c0.1,0,0.3,0.1,0.5,0.3
	c0.2,0.2,0.5,0.4,0.8,0.4c0.3,0.1,0.5,0.2,0.5,0.2c0,0.1,0.3,0.2,0.6,0.3c0.3,0.1,0.7,0.3,0.9,0.4c0.1,0.1,0.5,0.3,0.8,0.3
	c0.3,0.1,0.8,0.2,1.2,0.4c0.3,0.2,0.7,0.3,0.8,0.3c0.1,0,0.7,0.1,1.3,0.3c1.5,0.5,3.8,1,5.4,1.2c0.8,0.1,1.9,0.2,2.6,0.3
	c3.1,0.4,8.2,0.2,12.8-0.6c0.8-0.1,2.2-0.4,3-0.5c2.4-0.4,2.3-0.1,2.1-5.2c-0.2-5.2-0.1-4.9-1.2-4.6c-0.5,0.1-1.1,0.3-1.3,0.5
	c-0.2,0.1-0.8,0.3-1.2,0.3s-1.1,0.2-1.4,0.3c-0.3,0.1-1.2,0.3-1.9,0.3c-0.7,0.1-1.9,0.2-2.8,0.4c-1.8,0.3-4.9,0.3-5.9,0.1
	c-0.4-0.1-1.3-0.3-2.1-0.4c-1.5-0.2-2.6-0.6-3.8-1.1c-0.4-0.2-0.8-0.3-0.9-0.3c-0.1,0-0.4-0.2-0.6-0.3c-0.2-0.2-0.5-0.3-0.6-0.3
	c-0.1,0-0.3-0.1-0.4-0.3c-0.1-0.1-0.4-0.3-0.7-0.5c-0.9-0.4-4-3.3-4.2-4c-0.1-0.2-0.2-0.3-0.2-0.3c-0.1,0-0.4-0.4-1.3-1.9
	c-0.7-1.2-1.8-3.8-2-4.8c-0.1-0.3-0.2-0.9-0.3-1.3c-0.7-2.1-0.7-9.4,0-11.4c0.1-0.4,0.3-1,0.4-1.3c0.2-0.9,1.1-3.3,1.6-4.2
	c0.1-0.1,0.3-0.6,0.5-1c0.2-0.4,0.4-0.7,0.5-0.7c0.1,0,0.2-0.1,0.2-0.2c0-0.1,0.2-0.4,0.4-0.7c0.2-0.3,0.5-0.7,0.7-0.9
	c0.9-1.2,2.9-3,4.3-3.9c1.2-0.8,1.3-0.8,1.8-1c0.2-0.1,0.7-0.3,1-0.5c0.3-0.2,0.8-0.4,1.2-0.4c0.3-0.1,0.7-0.2,0.8-0.3
	c0.1-0.1,0.8-0.3,1.6-0.4s1.8-0.3,2.4-0.4c1.3-0.2,3.8-0.2,5.2,0c4.3,0.6,4.9,0.8,6.6,1.5c0.4,0.2,0.8,0.3,0.9,0.3s0.5,0.2,0.7,0.4
	c0.2,0.2,0.7,0.4,1,0.4l0.5,0l0.3-2.1c0.2-1.1,0.3-3.3,0.3-4.7l0-2.7l-0.5-0.2c-0.3-0.1-0.8-0.2-1.1-0.4c-1.2-0.4-3.5-1-5.5-1.2
	c-1-0.1-1.5-0.3-1.5-0.4C230.5,0.3,220.8,0.3,220.6,0.7 M268,2c-0.3,0.3-0.5,0.7-0.5,0.8c0,0.1-0.1,0.5-0.2,0.8
	c-0.4,0.8-1.1,2.7-1.1,2.9c0,0.1-0.2,0.5-0.4,1c-0.2,0.5-0.4,0.9-0.4,1.1c0,0.1-0.1,0.4-0.2,0.6c-0.1,0.2-0.3,0.6-0.4,0.9
	c-0.2,0.7-0.8,2.2-1.1,2.9c-0.1,0.2-0.2,0.5-0.2,0.7c0,0.1-0.2,0.6-0.4,1.1c-0.2,0.5-0.4,0.9-0.4,1.1c0,0.1-0.1,0.4-0.2,0.6
	c-0.1,0.2-0.3,0.7-0.4,1.1c-0.1,0.4-0.3,0.9-0.4,1.1c-0.1,0.2-0.2,0.4-0.2,0.6c0,0.1-0.1,0.5-0.3,0.8c-0.1,0.3-0.4,0.9-0.6,1.3
	c-0.2,0.5-0.5,1.2-0.7,1.8c-0.2,0.5-0.5,1.2-0.6,1.6c-0.1,0.4-0.3,0.8-0.4,1c-0.1,0.2-0.3,0.9-0.6,1.5c-0.5,1.3-0.8,2.1-1.5,3.7
	c-0.2,0.6-0.4,1.1-0.4,1.2c0,0.1-0.1,0.4-0.2,0.6c-0.3,0.6-0.9,2.2-1.1,2.9c-0.1,0.3-0.3,0.7-0.4,0.9s-0.2,0.4-0.2,0.6
	c0,0.1-0.1,0.5-0.3,0.9c-0.2,0.3-0.4,0.9-0.4,1.2c-0.1,0.3-0.3,0.8-0.4,1.1c-0.2,0.3-0.3,0.7-0.3,0.8c0,0.1-0.1,0.5-0.3,0.8
	c-0.2,0.3-0.4,0.8-0.4,1.1c-0.1,0.3-0.2,0.7-0.3,0.8c-0.1,0.1-0.3,0.5-0.3,0.8s-0.2,0.7-0.3,0.8c-0.1,0.1-0.3,0.5-0.3,0.8
	c-0.1,0.3-0.3,0.9-0.4,1.1c-0.2,0.3-0.3,0.6-0.3,0.7c0,0.2-0.7,2-1.2,3.1c-0.2,0.4-0.3,0.8-0.3,0.9s-0.1,0.4-0.2,0.6
	c-0.1,0.2-0.2,0.4-0.2,0.6c0,0.1-0.1,0.5-0.3,0.9c-0.2,0.4-0.5,1.2-0.8,1.9c-0.2,0.7-0.6,1.5-0.8,1.9s-0.3,0.7-0.3,0.9
	c0,0.2-0.2,0.5-0.4,0.9c-0.5,0.9-0.5,0.9,5.8,0.9c6.6,0,6,0.2,6.7-1.7c0.3-0.7,0.6-1.6,0.8-1.9c0.2-0.4,0.3-0.8,0.3-0.9
	s0.1-0.5,0.3-0.9c0.2-0.3,0.3-0.7,0.3-0.8c0-0.1,0.1-0.5,0.3-0.8c0.2-0.3,0.4-0.8,0.4-1.1c0.1-0.3,0.3-0.8,0.4-1.2
	c0.2-0.3,0.3-0.8,0.3-0.9c0-0.1,0.1-0.4,0.2-0.6c0.1-0.2,0.3-0.7,0.4-1.1c0.1-0.4,0.4-0.9,0.5-1.2l0.4-0.5h11.9h11.9l0.4,0.6
	c0.2,0.3,0.5,1,0.7,1.5c0.6,1.8,0.9,2.3,1.1,2.8c0.1,0.3,0.3,0.7,0.3,1c0.1,0.3,0.2,0.6,0.3,0.7c0.1,0.1,0.3,0.5,0.4,0.9
	c0.5,1.6,0.9,2.7,1.1,2.9c0.1,0.1,0.2,0.4,0.3,0.7c0.1,0.3,0.3,0.8,0.4,1.2c0.2,0.4,0.3,0.8,0.3,0.9c0,0.3,0.5,0.4,6.6,0.4
	c6.7,0,6.8,0,6.2-0.8c-0.2-0.2-0.3-0.6-0.3-0.8s-0.1-0.6-0.3-0.9s-0.3-0.6-0.3-0.8c0-0.1-0.1-0.5-0.3-0.9c-0.2-0.4-0.4-0.8-0.4-1.1
	c-0.1-0.3-0.2-0.8-0.4-1.1c-0.2-0.3-0.3-0.8-0.3-0.9c0-0.1-0.1-0.4-0.3-0.6c-0.2-0.2-0.3-0.7-0.4-1.1c-0.1-0.4-0.3-0.8-0.4-0.9
	c-0.1-0.1-0.3-0.5-0.3-0.9c-0.1-0.4-0.2-0.7-0.3-0.8c-0.1-0.1-0.3-0.4-0.3-0.8c-0.1-0.3-0.3-0.8-0.4-1.1c-0.2-0.3-0.3-0.6-0.3-0.8
	c0-0.1-0.2-0.5-0.3-0.9c-0.2-0.3-0.3-0.7-0.3-0.8c0-0.1-0.2-0.6-0.4-1.1s-0.4-1-0.4-1c0-0.1-1.4-3.7-1.8-4.5
	c-0.1-0.3-0.2-0.6-0.2-0.6s-0.1-0.4-0.2-0.6c-0.1-0.3-0.3-0.8-0.5-1.2c-0.4-1-1.5-3.7-1.8-4.5c-0.2-0.4-0.3-0.8-0.3-0.9
	c0-0.1-0.1-0.5-0.3-0.7c-0.2-0.3-0.4-0.8-0.4-1.1c-0.1-0.3-0.2-0.6-0.2-0.6c-0.1,0-0.2-0.4-0.4-0.8c-0.1-0.4-0.3-0.9-0.4-1
	c-0.1-0.1-0.3-0.5-0.3-0.8c-0.1-0.3-0.2-0.7-0.3-0.9c-0.1-0.2-0.3-0.6-0.4-1c-0.1-0.4-0.3-0.8-0.4-1c-0.1-0.2-0.2-0.5-0.2-0.6
	c0-0.2-0.1-0.6-0.3-0.9c-0.2-0.3-0.5-1.2-0.8-1.9c-0.2-0.7-0.6-1.5-0.7-1.9c-0.2-0.4-0.4-0.9-0.5-1.3c-0.5-1.4-0.7-2-1-2.6
	c-0.2-0.4-0.3-0.8-0.3-0.9c0-0.1-0.1-0.4-0.2-0.6c-0.1-0.2-0.2-0.4-0.2-0.6c0-0.1-0.1-0.5-0.3-0.8c-0.1-0.3-0.4-0.9-0.5-1.3
	c-0.1-0.4-0.3-0.8-0.4-0.9c-0.1-0.1-0.2-0.2-0.2-0.4c0-0.2-0.2-0.7-0.4-1.1c-0.2-0.5-0.4-1-0.4-1.2c0-0.2-0.1-0.5-0.3-0.7
	c-0.1-0.2-0.3-0.6-0.4-1c-0.1-0.4-0.4-0.9-0.6-1.3l-0.4-0.6l-6.4,0l-6.4,0L268,2 M311.9,1.8c-0.3,0.4-0.4,58.3-0.1,58.5
	c0.3,0.2,11,0.1,11.3-0.1c0.2-0.2,0.2-1.9,0.2-11.9c0-13.8-0.2-12.5,2.2-12.4c2.3,0,5.2,0.3,5.7,0.6c0.2,0.1,0.6,0.3,0.9,0.5
	c0.7,0.3,2.4,2.3,2.4,2.7c0,0.1,0.1,0.4,0.3,0.6c0.2,0.2,0.4,0.6,0.4,0.9c0.1,0.3,0.2,0.6,0.3,0.7c0.1,0.1,0.3,0.5,0.3,0.8
	c0.1,0.3,0.2,0.8,0.3,1c0.1,0.2,0.4,0.8,0.5,1.2s0.4,1,0.5,1.4c0.1,0.4,0.3,0.8,0.4,1c0.1,0.2,0.3,0.7,0.5,1.2
	c0.2,0.5,0.5,1.3,0.7,1.8c0.2,0.5,0.6,1.6,0.9,2.4c0.7,1.9,1.2,3.2,1.5,3.8c0.1,0.2,0.2,0.5,0.2,0.7c0,0.1,0.1,0.5,0.3,0.9
	c0.2,0.4,0.4,1,0.5,1.4c0.3,1.1,0.2,1.1,6.9,1.1c7,0,6.9,0,6-1.4c-0.1-0.2-0.3-0.6-0.4-1c-0.1-0.4-0.4-0.9-0.5-1.2
	c-0.2-0.3-0.3-0.7-0.3-0.9c0-0.2-0.1-0.3-0.2-0.4c-0.1-0.1-0.3-0.5-0.4-1c-0.1-0.5-0.3-0.9-0.4-1c-0.1-0.1-0.2-0.4-0.3-0.8
	c-0.1-0.4-0.3-0.8-0.4-0.9c-0.1-0.1-0.2-0.4-0.2-0.6c0-0.2-0.1-0.6-0.3-0.9c-0.2-0.3-0.3-0.6-0.3-0.8s-0.2-0.6-0.4-1s-0.4-0.9-0.4-1
	s-0.1-0.5-0.3-0.8c-0.2-0.3-0.3-0.7-0.3-0.8c0-0.1-0.1-0.4-0.3-0.7s-0.5-1.2-0.8-2c-0.3-0.8-0.7-1.6-0.7-1.7
	c-0.1-0.1-0.2-0.3-0.2-0.4c0-0.1-0.2-0.6-0.4-1.1s-0.4-1-0.4-1c0-0.3-1.6-3.5-1.9-3.9c-0.1-0.1-0.2-0.3-0.2-0.4
	c0-0.3-2.2-2.5-2.5-2.5c-0.7,0-1.3-0.5-1.3-1.2c0-0.2,1.1-0.5,1.8-0.5c0.3,0,0.6-0.1,0.7-0.2c0.1-0.1,0.5-0.3,0.9-0.4
	c0.4-0.1,0.7-0.3,0.7-0.3s0.3-0.2,0.6-0.3c0.3-0.1,0.6-0.3,0.7-0.4c0.1-0.1,0.3-0.3,0.5-0.5c1-0.6,3.5-3.4,3.5-3.8
	c0-0.1,0.1-0.4,0.3-0.6c0.2-0.2,0.3-0.5,0.3-0.7s0.1-0.6,0.3-0.9c1-1.9,1.1-8.7,0.1-10.6c-0.1-0.2-0.3-0.7-0.4-1.1
	c-0.1-0.4-0.3-0.7-0.3-0.7s-0.2-0.2-0.3-0.5c-0.1-0.3-0.2-0.5-0.3-0.6c-0.1-0.1-0.3-0.4-0.5-0.7c-0.5-0.8-1.8-2.1-2.7-2.7
	c-0.9-0.6-1.8-1.2-2.1-1.3c-0.1-0.1-0.5-0.2-0.8-0.4c-0.3-0.2-0.9-0.4-1.2-0.4s-0.8-0.2-1.1-0.3c-0.2-0.1-0.8-0.3-1.2-0.3
	c-0.4-0.1-1.2-0.2-1.7-0.3c-1.8-0.4-5.5-0.6-14.8-0.7c-5.2,0-10-0.1-10.7-0.1C312.3,1.5,312.1,1.5,311.9,1.8 M364.9,2
	c0,0.2-0.1,13.4,0,29.4l0,29l17.5,0l17.5,0v-4.5v-4.5h-11.6c-11.3,0-11.6,0-11.8-0.3c-0.3-0.6-0.2-15.7,0.1-16.1l0.3-0.4l10.2,0
	c9.5,0,10.2,0,10.4-0.3c0.3-0.4,0.3-8.1,0-8.6c-0.2-0.3-0.5-0.3-10.5-0.3s-10.3,0-10.5-0.3c-0.1-0.2-0.2-2.7-0.2-7s0.1-6.8,0.2-7
	c0.2-0.3,0.5-0.3,11.4-0.3c6.2,0,11.4,0,11.6-0.1l0.4-0.1V6.2V1.8l-0.5-0.1c-0.3-0.1-8.2-0.1-17.5-0.1h-17L364.9,2 M333.9,11.2
	c0.6,0.2,1.2,0.4,1.3,0.4c1.1,0,3.9,2.5,4.3,3.7c0.1,0.4,0.3,0.8,0.4,0.9c0.3,0.4,0.2,4-0.1,5c-1.5,4.2-5,5.6-14.3,5.7
	c-2.3,0-2.1,0.7-2.1-8.1c0-6.9,0-7.5,0.3-7.8C324.1,10.5,332.4,10.7,333.9,11.2 M275,14c0.1,0.1,0.2,0.5,0.3,1
	c0.2,0.9,0.6,2.2,1.1,3.1c0.2,0.4,0.3,0.8,0.3,1c0,0.1,0.1,0.5,0.2,0.8c0.3,0.6,0.8,2.2,1.2,3.3c0.1,0.4,0.4,1.3,0.7,1.9
	c0.2,0.6,0.5,1.5,0.7,1.9c0.1,0.4,0.3,1,0.5,1.3c0.1,0.3,0.2,0.6,0.2,0.8c0,0.2,0.1,0.6,0.3,0.9s0.3,0.8,0.3,0.9
	c0,0.2,0.1,0.6,0.3,1c0.2,0.4,0.4,0.9,0.5,1.3c0.3,1,0.9,2.5,1.1,3.1c0.1,0.3,0.2,0.8,0.2,1.1l-0.1,0.5l-8.3,0c-6.3,0-8.4,0-8.6-0.2
	c-0.3-0.2-0.2-1.2,0.2-1.7c0.1-0.2,0.2-0.5,0.2-0.7c0-0.2,0.1-0.6,0.3-1c0.2-0.4,0.4-0.9,0.4-1.2s0.2-0.8,0.4-1.2
	c0.2-0.3,0.3-0.8,0.3-0.9c0-0.2,0.1-0.6,0.3-0.9s0.4-0.9,0.4-1.2c0.1-0.3,0.2-0.7,0.3-0.9c0.1-0.2,0.3-0.6,0.3-0.9
	c0.1-0.3,0.2-0.7,0.3-0.9c0.1-0.2,0.3-0.6,0.3-1c0.1-0.4,0.3-0.9,0.4-1.2c0.2-0.3,0.3-0.7,0.3-0.9c0-0.2,0.1-0.6,0.3-0.9
	c0.2-0.3,0.3-0.8,0.3-1c0-0.2,0.1-0.6,0.3-0.8c0.1-0.3,0.4-0.8,0.5-1.2c0.3-1,0.9-2.7,1.1-3.1c0.1-0.2,0.2-0.7,0.3-1.2
	C273.9,13.7,274.5,13.3,275,14"/>
<path class="st1" d="M134.1,0.6c-0.1,0.1-0.5,0.3-1.2,0.4c-1.2,0.1-4.1,0.8-5.7,1.3c-0.9,0.3-1.3,0.4-2.7,1.1
	c-1.6,0.7-1.9,0.9-2.6,1.3c-0.4,0.2-0.9,0.5-1.2,0.6c-0.3,0.1-0.6,0.4-0.7,0.5c-0.1,0.2-0.3,0.3-0.4,0.3c-0.5,0-4,3.2-5.3,4.8
	c-1.6,2-3.7,5.6-4.2,7.3c-0.1,0.2-0.2,0.6-0.3,0.9c-0.4,0.9-0.9,2.8-1.2,4.2c-0.1,0.7-0.3,1.7-0.4,2.1c-0.2,1-0.5,6.1-0.4,7.7
	c0.2,4.6,0.3,5,1.6,10.2c0.1,0.4,0.3,0.8,0.4,1c0.1,0.2,0.2,0.4,0.2,0.5c0,0.4,1.2,2.7,2.3,4.4c1.2,1.8,2.1,2.9,3.4,4.1
	c1.1,1,3.1,2.6,3.2,2.6c0.1,0,0.3,0.2,0.6,0.4c2.3,1.7,6.8,3.4,10.7,4.3c6,1.3,16.4,1.3,20.3,0.1c0.2-0.1,1.1-0.2,2-0.4
	c3.7-0.7,6.7-1.5,7-1.9c0.3-0.4,0.3-31,0-31.5c-0.3-0.4-23.4-0.5-23.8-0.1c-0.4,0.4-0.3,8.5,0,8.9c0.2,0.2,1.3,0.2,6.1,0.2
	c4.7,0,5.9,0,6,0.2c0.2,0.3,0.4,14.4,0.1,14.9c-0.7,1.6-13.9,1.3-16-0.4c-0.1-0.1-0.4-0.2-0.6-0.3c-0.4-0.1-0.9-0.4-2.5-1.3
	c-6.7-4-10.3-14.5-8.1-23.6c0.5-2.2,0.8-3,1.7-4.8c5-10.1,16.3-13.4,31.2-9.1c0.5,0.1,1.3,0.4,1.8,0.7c1.6,0.7,1.8,0.6,1.8-0.8
	c0-0.4,0.2-2.4,0.3-4.4c0.4-4.9,1.1-4.3-6.4-5.8c-0.4-0.1-1.3-0.2-2-0.3c-0.9-0.1-1.3-0.2-1.4-0.3C147.7,0.3,134.2,0.3,134.1,0.6"/>
<path class="st1" d="M176.9,1.4c-4.7,0-5.4,0.1-5.5,0.3c-0.2,0.5-0.1,58.6,0.1,58.8c0.3,0.4,10.9,0.3,11.4,0l0.4-0.3V31.1V2.1
	l-0.4-0.4c-0.2-0.2-0.5-0.4-0.5-0.4C182.3,1.3,179.8,1.3,176.9,1.4"/>
<path class="st1" d="M1.7,1.6C1.5,1.8,1.5,8.5,1.5,31.1v29.3l0.4,0.2c0.7,0.3,34.1,0.2,34.5-0.1s0.5-8.6,0.1-9
	c-0.2-0.2-1.9-0.2-11.4-0.2c-8.5,0-11.2,0-11.4-0.2c-0.2-0.2-0.2-5.9-0.2-24.7c0-13.4,0-24.6-0.1-24.7C13.3,1.3,2,1.3,1.7,1.6"/>
<path class="st1" d="M99.3,24.5c-0.1-0.4-0.3-1.3-0.4-2c-1.4-7-6.6-15.2-11.1-17.3c-0.1-0.1-0.6-0.3-1-0.6C84.4,3,79.9,1.3,77.2,1
	c-0.5-0.1-0.9-0.2-1-0.3c-0.1-0.3-11-0.3-11.3,0c-0.1,0.1-0.6,0.3-1.2,0.3C57.1,1.7,49.2,6.8,46,12.4c-0.2,0.4-0.5,0.8-0.5,0.8
	c-0.1,0.1-1.7,3.2-1.7,3.4c0,0.1-0.2,0.6-0.4,1.2C41,24.3,40.6,36.3,42.7,42c0.1,0.4,0.2,0.8,0.3,0.9c0,0.3,0.7,2,1.2,3.1
	c0.7,1.5,1.3,2.7,1.4,2.8c0.3,0.3,1,1.4,1,1.5c0,0.1,0.2,0.3,0.4,0.5c0.2,0.2,0.5,0.7,0.7,0.9c1,1.5,4.6,4.6,6.7,5.9
	c0.8,0.5,3.7,1.9,4.1,2c0.2,0.1,0.6,0.2,0.9,0.3c3.7,1.6,11.5,2.2,17,1.3c1.4-0.2,2.7-0.5,2.8-0.5c0.1,0,0.6-0.2,1.3-0.4
	c1.3-0.4,2.4-0.7,3.3-1.2c0.4-0.2,0.7-0.3,0.8-0.3c0.2,0,3.6-2,4-2.3c0,0,0.4-0.3,0.8-0.6c3.3-2.4,7.6-8.4,8.3-11.5
	c0.1-0.3,0.2-0.7,0.3-0.9c0.3-0.5,0.7-2,1-3.6c0.1-0.6,0.3-1.4,0.4-1.7C99.7,36.7,99.8,26.5,99.3,24.5z M85.4,41.5
	c-3.1,8.1-9.5,11.9-17.9,10.6c-1.4-0.2-3.6-1-4.1-1.3c-0.2-0.2-0.5-0.3-0.5-0.3c-0.9,0-4.3-3.3-5.4-5.2c-0.3-0.5-0.6-0.9-0.7-1.1
	c-0.1-0.1-0.2-0.3-0.2-0.4c0-0.1-0.1-0.4-0.3-0.7c-1.8-3.4-2.8-10.7-2.1-15.9c1.3-9.6,6.2-15.9,13.5-17c0.7-0.1,1.4-0.2,1.6-0.3
	c0.5-0.1,3.5,0.1,4.8,0.4c1.4,0.3,1.6,0.3,3.6,1.2c2.3,1.1,5.2,3.8,6.5,6.3c0.7,1.3,1.3,2.7,1.4,3.1c0.1,0.2,0.2,0.5,0.2,0.6
	c0.1,0.2,0.5,1.4,0.9,3.3C87.7,29.7,87.3,36.7,85.4,41.5z"/>
<g>
	<path class="st2" d="M16.5,100.7H14c-0.1-0.5-0.2-1.2-0.3-2c-0.9,1.3-2.6,2.3-5.4,2.3c-5.2,0-8.1-3.9-8.1-9.1
		c0-5.4,3.1-9.5,8.7-9.5c4.5,0,7.2,2.5,7.6,5.6h-3.4c-0.5-1.5-1.6-2.9-4.3-2.9c-3.9,0-5.1,3.2-5.1,6.6c0,3.3,1.4,6.5,5.1,6.5
		c3.6,0,4.3-2.4,4.3-4.5v-0.2H8.9v-2.8h7.6V100.7z"/>
	<path class="st2" d="M22.6,94.7c0,2,1,3.8,3,3.8c1.7,0,2.3-0.8,2.6-1.6h3.2c-0.5,1.7-1.9,4.2-6,4.2c-4.3,0-6.2-3.3-6.2-6.8
		c0-4.1,2.1-7.2,6.3-7.2c4.5,0,6,3.4,6,6.5c0,0.4,0,0.7,0,1.1H22.6z M28.4,92.6c0-1.8-0.8-3.2-2.8-3.2c-2,0-2.8,1.4-3,3.2H28.4z"/>
	<path class="st2" d="M36.6,96.7c0.3,1.2,1.3,1.9,2.8,1.9c1.6,0,2.2-0.6,2.2-1.6c0-1-0.6-1.4-2.7-1.9c-4.2-1-4.9-2.3-4.9-4.2
		c0-1.9,1.4-4,5.2-4c3.8,0,5.2,2.1,5.4,4h-3.1c-0.1-0.6-0.6-1.6-2.4-1.6c-1.4,0-1.9,0.7-1.9,1.4c0,0.8,0.5,1.2,2.7,1.7
		c4.3,1,5,2.5,5,4.4c0,2.3-1.7,4.2-5.6,4.2c-3.9,0-5.5-1.9-5.8-4.3H36.6z"/>
	<path class="st2" d="M58.6,96.8c0,1.3,0,2.8,0,3.9h-3.2c-0.1-0.4-0.1-1.1-0.1-1.7c-0.7,1.4-2,2-3.8,2c-2.6,0-4.4-1.5-4.4-4.9v-8.7
		h3.2v8.1c0,1.6,0.5,2.9,2.3,2.9c1.9,0,2.7-1.1,2.7-3.9v-7.1h3.2V96.8z"/>
	<path class="st2" d="M62.2,90.7c0-1.1,0-2.4,0-3.4h3.1c0.1,0.4,0.1,1.5,0.1,1.9c0.5-0.9,1.6-2.2,4-2.2c2.6,0,4.4,1.7,4.4,5.1v8.5
		h-3.2v-8.2c0-1.7-0.6-2.9-2.4-2.9c-1.9,0-2.8,1.2-2.8,3.7v7.3h-3.2V90.7z"/>
	<path class="st2" d="M89.2,81.7V97c0,1.2,0,2.5,0,3.7h-3.1c-0.1-0.4-0.1-1.2-0.2-1.6c-0.6,1.2-1.9,1.9-3.9,1.9
		c-3.4,0-5.5-2.7-5.5-6.9c0-4.1,2.3-7.1,6-7.1c2.1,0,3.1,0.8,3.4,1.4v-6.8H89.2z M79.9,94c0,2.8,1.2,4.3,3.1,4.3
		c2.7,0,3.2-2.2,3.2-4.4c0-2.5-0.4-4.3-3-4.3C81,89.6,79.9,91.3,79.9,94z"/>
	<path class="st2" d="M95.1,94.7c0,2,1,3.8,3,3.8c1.7,0,2.3-0.8,2.6-1.6h3.2c-0.5,1.7-1.9,4.2-6,4.2c-4.3,0-6.2-3.3-6.2-6.8
		c0-4.1,2.1-7.2,6.3-7.2c4.5,0,6,3.4,6,6.5c0,0.4,0,0.7,0,1.1H95.1z M101,92.6c0-1.8-0.8-3.2-2.8-3.2c-2,0-2.8,1.4-3,3.2H101z"/>
	<path class="st2" d="M116.9,82.7v18h-3.4v-18H116.9z"/>
	<path class="st2" d="M125.2,85.5h-5.6v-2.8h14.5v2.8h-5.6v15.2h-3.4V85.5z"/>
	<path class="st2" d="M141.4,92.6v2.8h-7.1v-2.8H141.4z"/>
	<path class="st2" d="M144.8,82.7h3.4v15.2h9.1l-0.4,2.8h-12.1V82.7z"/>
	<path class="st2" d="M171.6,94c0,4-2.3,7-6.5,7c-4,0-6.4-3-6.4-7c0-4.1,2.4-7,6.6-7C169.1,87,171.6,89.8,171.6,94z M161.3,84.8
		v-3.2h2.6v3.2H161.3z M161.9,94c0,2.7,1.2,4.4,3.2,4.4c2,0,3.2-1.7,3.2-4.4c0-2.9-1.1-4.4-3.2-4.4C163.1,89.6,161.9,91.1,161.9,94z
		 M166.3,84.8v-3.2h2.6v3.2H166.3z"/>
	<path class="st2" d="M176.6,96.7c0.3,1.2,1.3,1.9,2.8,1.9c1.6,0,2.2-0.6,2.2-1.6c0-1-0.6-1.4-2.7-1.9c-4.2-1-4.9-2.3-4.9-4.2
		c0-1.9,1.4-4,5.2-4c3.8,0,5.2,2.1,5.4,4h-3.1c-0.1-0.6-0.6-1.6-2.4-1.6c-1.4,0-1.9,0.7-1.9,1.4c0,0.8,0.5,1.2,2.7,1.7
		c4.3,1,5,2.5,5,4.4c0,2.3-1.7,4.2-5.6,4.2c-3.9,0-5.5-1.9-5.8-4.3H176.6z"/>
	<path class="st2" d="M198.7,96.8c0,1.3,0,2.8,0,3.9h-3.2c-0.1-0.4-0.1-1.1-0.1-1.7c-0.7,1.4-2,2-3.8,2c-2.6,0-4.4-1.5-4.4-4.9v-8.7
		h3.2v8.1c0,1.6,0.5,2.9,2.3,2.9c1.9,0,2.7-1.1,2.7-3.9v-7.1h3.2V96.8z"/>
	<path class="st2" d="M202.2,90.7c0-1.1,0-2.4,0-3.4h3.1c0.1,0.4,0.1,1.5,0.1,1.9c0.5-0.9,1.6-2.2,4-2.2c2.6,0,4.4,1.7,4.4,5.1v8.5
		h-3.2v-8.2c0-1.7-0.6-2.9-2.4-2.9c-1.9,0-2.8,1.2-2.8,3.7v7.3h-3.2V90.7z"/>
	<path class="st2" d="M229.2,99.2c0,4.3-1.6,6.9-6.5,6.9c-4.6,0-5.7-2.6-5.8-4.2h3.3c0.3,1.1,1.1,1.8,2.7,1.8c2.6,0,3.2-1.6,3.2-4.4
		v-0.8c-0.7,1.3-1.8,2-3.9,2c-3.4,0-5.5-2.8-5.5-6.5c0-4.2,2.5-7,5.8-7c2.4,0,3.4,1.1,3.6,1.8c0-0.4,0.1-1.3,0.1-1.5h3.1
		c0,1.1,0,2.6,0,3.8V99.2z M219.9,93.9c0,2.5,1.3,4,3.1,4c2.4,0,3.1-1.7,3.1-4.2c0-2.5-0.5-4.1-3-4.1
		C221.2,89.6,219.9,91.1,219.9,93.9z"/>
	<path class="st2" d="M235.2,94.7c0,2,1,3.8,3,3.8c1.7,0,2.3-0.8,2.6-1.6h3.2c-0.5,1.7-1.9,4.2-6,4.2c-4.3,0-6.2-3.3-6.2-6.8
		c0-4.1,2.1-7.2,6.3-7.2c4.5,0,6,3.4,6,6.5c0,0.4,0,0.7,0,1.1H235.2z M241,92.6c0-1.8-0.8-3.2-2.8-3.2c-2,0-2.8,1.4-3,3.2H241z"/>
	<path class="st2" d="M247,90.7c0-1.1,0-2.4,0-3.4h3.1c0.1,0.4,0.1,1.5,0.1,1.9c0.5-0.9,1.6-2.2,4-2.2c2.6,0,4.4,1.7,4.4,5.1v8.5
		h-3.2v-8.2c0-1.7-0.6-2.9-2.4-2.9c-1.9,0-2.8,1.2-2.8,3.7v7.3H247V90.7z"/>
</g>
</svg>
