<?xml version="1.0" encoding="utf-8"?>
<!-- Generator: Adobe Illustrator 25.4.1, SVG Export Plug-In . SVG Version: 6.00 Build 0)  -->
<svg version="1.1" id="Layer_1" xmlns="http://www.w3.org/2000/svg" xmlns:xlink="http://www.w3.org/1999/xlink" x="0px" y="0px"
	 viewBox="0 0 1920 586.4" style="enable-background:new 0 0 1920 586.4;" xml:space="preserve">
<style type="text/css">
	.st0{fill-rule:evenodd;clip-rule:evenodd;fill:#262729;}
	.st1{fill-rule:evenodd;clip-rule:evenodd;fill:#A39060;}
	.st2{fill-rule:evenodd;clip-rule:evenodd;fill:#FFFFFF;}
</style>
<rect x="555.1" y="25.1" class="st0" width="1341.1" height="536.8"/>
<rect x="23.8" y="25.1" class="st1" width="531.3" height="536.8"/>
<g>
	<path class="st2" d="M361.2,439.8v-3h2.6c1.1,0,1.8,0.6,1.8,1.5c0,1-0.8,1.5-2.1,1.5H361.2L361.2,439.8z M359.6,445.4h1.6v-4.3h1
		c1.2,0,1.7,0.4,3,2.7l0.9,1.6h2l-1.2-2c-0.8-1.3-1.5-2.2-2.3-2.5v0c1.7-0.1,2.9-1.3,2.9-2.9c0-1.1-0.8-2.6-3.3-2.6h-4.4V445.4
		L359.6,445.4z M371.5,440.3c0,4.3-3.5,7.8-7.8,7.8c-4.3,0-7.8-3.5-7.8-7.8c0-4.3,3.5-7.8,7.8-7.8
		C367.9,432.5,371.5,435.9,371.5,440.3L371.5,440.3z M373,440.3c0-5.2-4.2-9.3-9.4-9.3c-5.2,0-9.3,4.2-9.3,9.3
		c0,5.2,4.2,9.4,9.3,9.4C368.8,449.6,373,445.4,373,440.3L373,440.3z"/>
	<path class="st2" d="M304.2,436.7c-0.9-5.4-5-11.4-12.7-18.2c-6.4-5.6-6.3-17-6.7-20.1h-37.2c-3,3.9-5,8.7-16.7,15.3
		c-15.2,8.3-20.8,11.1-24.3,22.9H304.2L304.2,436.7z"/>
	<path class="st2" d="M297.9,418.6c10.6,8.3,13.6,13,16,18.2h29.5c-2.8-11.2-9.4-14.4-24.1-23.2c-11.2-6.7-14.3-11.4-16.7-14.9H290
		C289.8,400.9,289.8,412.2,297.9,418.6L297.9,418.6z"/>
	<polygon class="st2" points="290.1,363.7 301.2,363.7 301.2,381.7 290.1,381.7 290.1,363.7 	"/>
	<polygon class="st2" points="248.9,363.7 284.9,363.7 284.9,381.7 248.9,381.7 248.9,363.7 	"/>
	<path class="st2" d="M317.4,342.2c0-2.8-2.3-4.4-5.3-4.4H238c-2.9,0-5.3,1.6-5.3,4.4c0,2.8,2.4,4.4,5.3,4.4h74.1
		C315,346.6,317.4,345,317.4,342.2L317.4,342.2z"/>
	<path class="st2" d="M302.8,350.9C302.7,350.9,302.7,350.9,302.8,350.9h-55.4c-2.9,0-5.3,2-5.3,4.4s2.4,4.4,5.3,4.4h55.4
		c2.9,0,5.3-2,5.3-4.4C308.1,352.8,305.7,350.9,302.8,350.9L302.8,350.9z"/>
	<path class="st2" d="M302.8,385.6C302.7,385.6,302.7,385.6,302.8,385.6h-55.4c-2.9,0-5.3,2-5.3,4.4c0,2.4,2.4,4.4,5.3,4.4h55.4
		c2.9,0,5.3-2,5.3-4.4C308.1,387.6,305.7,385.6,302.8,385.6L302.8,385.6z"/>
	<path class="st2" d="M349.6,445.2c0-2.4-2.3-4.4-5.3-4.4v0H205.8v0c-2.9,0-5.3,2-5.3,4.4c0,2.4,2.3,4.4,5.3,4.4h138.5
		C347.2,449.6,349.6,447.6,349.6,445.2L349.6,445.2z"/>
	<path class="st2" d="M239.3,179l6.6-5.1c0,0-2.6-0.4-5.8-2.1c0,0-2.7-1-3.2,0.2C236.5,173.2,237.6,176.4,239.3,179L239.3,179z"/>
	<path class="st2" d="M307.7,159.8c-16.1-10.8-33.5-18.4-53-21.3c-1,0.5-0.9,0.8-1,2.2c0.4,7,1.2,13.8,2.4,20.5
		c-2.8,0.4-5.6-0.4-8.3-1.3c-1-0.4-2.5-0.6-3.4-0.5c-1.6-0.1-1.6,1.6-1.6,2.7c1.1,7.9,9.3,14.6,16.7,16.2c-0.5,0.6-3.8,0.8-7.3-0.5
		c-5.9-2.7-11.4,3.4-13.5,5c-10.7,8.9-16,20.7-25.5,30.6c-1.3,1.4-2.4,2.4-3.9,3.9c-1.4,1.5-2.7,3.1-3.9,4.5
		c-5.1,6.1-10.9,11.9-13.1,19.2c-0.3,1.5-0.3,3.2,0.3,5.2c1,3.4,3.7,6.6,6.6,9.2c1.7,1.3,3.3-1.6,5,1.3c0,0,1.2,1.8,4.5,0.3
		c8.8-4.2,16.7-10.5,27.2-10.7c13.8,0.7,27.4-5.4,33-18.4l0.9,0.3c-1,8-8.1,14.2-15.4,17.8c-4.8,2.4-5.8,5.7-6.1,6
		c-7.5,17-12,29.2-22.4,45.1c-3.2,4.8-2,11.3,0,16.3c2.9,7.1,5.4,14.5,9.7,21.1h79.9c11.2-17,19.4-35.4,25.1-54.6
		C352.5,236.6,345.4,187.3,307.7,159.8L307.7,159.8z M245.5,204.2c0,0-2.5,5-8,3.5c-5.5-1.5-2.4-8.3-2.4-8.3s3.4-0.3,10.2,2.8
		l1.6-0.2c0,0-2.5-5.8-11.8-5c0,0-2.6-2.3-1.2-5.9c0,0,7.4,2.5,9.6,3.6c2.1,1.1,6.8,3.8,7.8,8.8L245.5,204.2L245.5,204.2z
		 M253.8,331c-0.7,1.1-5.1-0.1-7.6-1.3c-2.5-1.2-5.7-3-9.4-8.1c-3.7-5.1-4.7-8.5-5.9-12.5c0,0-0.1-1,0.3-1.1c0.4-0.2,0.7,0,1.1,0.8
		c0.4,0.8,3.5,6.5,7.7,9.8c0,0,4.3,4.2,8.6,7.1C253,328.6,254.5,329.9,253.8,331L253.8,331z M340.6,249l-16.4,2.1
		c0,0-0.4,5.1-0.6,6.5l15.8,2.4l-0.1,2l-16.2,0.9l-1.1,6.8l14.9,4.8l-0.4,1.8l-15.9-0.8l-1.5,6.2l14.3,4.6l-0.6,1.7l-15.3-1.1
		l-1.4,4.6l12.9,6.7l-0.9,1.6l-13.8-3.3c0,0-1.1,3.6-1.8,4.9l11.3,6.8l-0.7,1.6l-12.6-3.8c0,0-1.6,3.6-2,4.1l10,7l-1,1.6l-11.3-4.1
		l-2.2,4.1l8.2,7l-1,1.2l-9.9-3.9l-2.8,4.4l6.3,5.6l-1,0.9l-7.5-2.8l-2.7,3.3h-4.2c0,0,25.7-31.1,28.8-81.3c0,0,4.8-45.3-29.4-72.8
		c0,0-7.2-6.2-11.9-7.9c0,0-2-0.8-3.5-3.3c-1.5-2.5-7.6-6.6-16.9-6.8l4.8-17.2l2.2,0.5l-0.9,14.4c0,0,4.5,0.9,5.5,1.4l6.2-12.8
		l2.2,0.7l-3.5,14l4.8,2.7l8.2-12.8l2.1,1l-5.5,14.8l4.3,3l11-12.7l1.7,1.1l-8.4,15l4.6,4l13.8-11.9l1.5,1.4l-11.4,14.4l3.9,4.2
		l15.8-10.4l1.3,1.6l-13.9,12.8c0,0,3.1,3.5,4.3,5.8l17.7-7.6l0.6,1.5l-15.8,10.5c0,0,2.3,3.5,3.4,6.3l18.1-4.7l0.5,1.8l-16.5,7.7
		c0,0,2.1,5.1,2.6,7.7l17.4-2.4l0.2,2l-16.3,5.4c0,0,0.5,1.5,1.1,7.5l16.4-0.4l0,2.2l-15.9,3.5c0,0,0.2,5-0.1,7.2l16.2,1.3
		L340.6,249L340.6,249z"/>
</g>
<g>
	<g>
		<polygon class="st2" points="783.2,322.8 816,322.8 816,332.2 772.7,332.2 772.7,259.4 783.2,259.4 783.2,322.8 		"/>
		<path class="st2" d="M854,295.8c0-16,12.1-27.8,28.3-27.8c16.3,0,28.4,11.8,28.4,27.8c0,15.9-12.1,27.8-28.4,27.8
			C866.1,323.5,854,311.7,854,295.8L854,295.8z M843.2,295.8c0,19.7,15,37.4,38.9,37.4c24.7,0,39.4-17.7,39.4-37.4
			c0-20.3-15.2-37.4-39.2-37.4C858.7,258.4,843.2,275.6,843.2,295.8L843.2,295.8z"/>
		<path class="st2" d="M966.3,268.3h6.7c10.1,0,14.2,4.2,14.3,11c0.1,6.1-3.1,11.8-14.3,11.8h-6.7V268.3L966.3,268.3z M955.9,259.4
			v72.8h10.5v-31.6h4.4c5.3,0,9.7,1.7,19.3,16.6l9.6,14.9h12.5c-5-6.9-6.8-9.4-9.9-14.4c-5.5-9.1-9.6-15.8-16.2-20.2
			c7.8-3.1,12.2-9.4,12.2-17.8c0-12.6-9.2-20.4-23.9-20.4H955.9L955.9,259.4z"/>
		<path class="st2" d="M1052,268.8h16.1c20.4,0,29.7,12.4,29.7,27c0,9-5.4,27-29.1,27H1052V268.8L1052,268.8z M1041.6,332.2h28.4
			c24,0,38.6-17.7,38.6-36.4c0-17.2-11.9-36.4-38.8-36.4h-28.3V332.2L1041.6,332.2z"/>
		<path class="st2" d="M1199.4,275l11.7,26.4h-22.6L1199.4,275L1199.4,275z M1203.2,259h-7.4l-31.3,73.2h10.7l9.2-21.4h31l9.7,21.4
			h10.7L1203.2,259L1203.2,259z"/>
		<path class="st2" d="M1275.6,268.8h9.6c9.6,0,12.7,4.7,12.7,10.1c0,7.8-5,11.6-15.4,11.6h-6.9V268.8L1275.6,268.8z M1265.1,332.2
			h25c18.3,0,25-10.5,25-19.4c0-9.8-6.6-17-17.5-19v-0.2c7.6-3.1,11.1-8,11.1-15.6c0-9.2-6.7-18.6-22.4-18.6h-21.1V332.2
			L1265.1,332.2z M1275.6,299.9h12.6c11,0,16.1,4.7,16.1,11.3c0,5.5-3.3,11.5-15.6,11.5h-13.1V299.9L1275.6,299.9z"/>
		<path class="st2" d="M1357,268.8h9.6c9.6,0,12.7,4.7,12.7,10.1c0,7.8-5,11.6-15.4,11.6h-6.9V268.8L1357,268.8z M1346.5,332.2h25
			c18.3,0,25-10.5,25-19.4c0-9.8-6.6-17-17.5-19v-0.2c7.6-3.1,11.1-8,11.1-15.6c0-9.2-6.7-18.6-22.4-18.6h-21.1V332.2L1346.5,332.2z
			 M1357,299.9h12.6c11,0,16.1,4.7,16.1,11.3c0,5.5-3.3,11.5-15.6,11.5H1357V299.9L1357,299.9z"/>
		<polygon class="st2" points="1469.3,268.8 1438.5,268.8 1438.5,290.8 1468.2,290.8 1468.2,300.2 1438.5,300.2 1438.5,322.8 
			1470.3,322.8 1470.3,332.2 1428,332.2 1428,259.4 1469.3,259.4 1469.3,268.8 		"/>
		<polygon class="st2" points="1557.4,268.8 1532.2,268.8 1532.2,332.2 1521.7,332.2 1521.7,268.8 1496.5,268.8 1496.5,259.4 
			1557.4,259.4 1557.4,268.8 		"/>
		<polygon class="st2" points="1643.2,268.8 1618,268.8 1618,332.2 1607.5,332.2 1607.5,268.8 1582.3,268.8 1582.3,259.4 
			1643.2,259.4 1643.2,268.8 		"/>
	</g>
	<path class="st2" d="M1670.8,270.4v-5.1h4.4c1.8,0,3.1,1,3.1,2.6c0,1.8-1.4,2.6-3.5,2.6H1670.8L1670.8,270.4z M1668,280h2.7v-7.2
		h1.6c2.1,0,2.9,0.7,5.1,4.6l1.5,2.7h3.4l-2.1-3.3c-1.4-2.3-2.5-3.7-4-4.3v-0.1c2.9-0.2,4.9-2.1,4.9-4.9c0-1.9-1.4-4.5-5.6-4.5h-7.5
		V280L1668,280z M1688.2,271.3c0,7.3-5.9,13.3-13.3,13.3c-7.3,0-13.2-5.9-13.2-13.3c0-7.3,5.9-13.2,13.2-13.2
		C1682.3,258,1688.2,263.9,1688.2,271.3L1688.2,271.3z M1690.8,271.3c0-8.8-7.1-15.8-15.9-15.8c-8.8,0-15.8,7.1-15.8,15.8
		c0,8.8,7.1,15.9,15.8,15.9C1683.7,287.1,1690.8,280,1690.8,271.3L1690.8,271.3z"/>
</g>
</svg>
