<?xml version="1.0" encoding="utf-8"?>
<!-- Generator: Adobe Illustrator 25.4.1, SVG Export Plug-In . SVG Version: 6.00 Build 0)  -->
<svg version="1.1" id="svg" xmlns="http://www.w3.org/2000/svg" xmlns:xlink="http://www.w3.org/1999/xlink" x="0px" y="0px"
	 viewBox="0 0 400 87" style="enable-background:new 0 0 400 87;" xml:space="preserve">
<style type="text/css">
	.st0{fill-rule:evenodd;clip-rule:evenodd;fill:#272025;}
	.st1{fill-rule:evenodd;clip-rule:evenodd;fill:#CB172F;}
</style>
<path id="path0" class="st0" d="M315.4,8.8c-0.2,0-0.9,0.2-1.6,0.3c-5.2,1-8,3.9-8,8.5c0,4.5,1.9,6.5,8.5,8.6
	c4.7,1.5,6.3,3.4,4.5,5.4c-1.3,1.4-6.2,1.6-9.6,0.4c-1-0.4-2.1-0.7-2.3-0.8c-0.5-0.2-0.6,5.8-0.1,6.2c1.9,1.6,12.2,1.3,15.7-0.5
	c5.9-2.9,6.2-12,0.5-14.9c-0.9-0.5-2.3-1-5.9-2.1c-3.7-1.2-4.7-2.8-2.9-4.5c1.4-1.3,6.5-1.4,9.5-0.3c0.4,0.2,0.9,0.3,1,0.3
	c0.4,0,0.3-5.8-0.1-6C323.4,8.9,317.1,8.5,315.4,8.8 M388,9.2c-8.2,1.5-12.8,6.7-12.8,14.5c0,6,2.9,10.8,8,13.1
	c0.3,0.1,0.8,0.3,1,0.5c3.2,1.4,11.4,1.6,15.1,0.4l0.6-0.2v-2.9v-2.9l-0.5,0.1c-0.3,0.1-1.1,0.3-1.9,0.5c-8.5,2.5-15.6-2.3-14.4-9.8
	c1.1-6.9,8.5-9.8,16.4-6.4c0.3,0.1,0.4,0,0.3-2.9l-0.1-3.1l-1.9-0.4C395.5,9,390.1,8.8,388,9.2 M182,23.6V38h3.8h3.8l0.1-7.8
	c0-5.1,0.1-7.8,0.3-7.7c0.1,0,0.7,1,1.3,2.1c1.9,3.6,3.5,6.6,3.7,6.8c0.1,0.1,0.7,1.3,1.5,2.7c2.2,4.3,1.7,3.8,4,3.9l2,0.1l0.4-0.7
	c0.4-0.7,1.4-2.5,3-5.5c0.5-0.9,1.2-2.2,1.6-2.9c1.1-2,2.1-3.9,2.9-5.3c0.4-0.7,0.8-1.3,0.8-1.3c0.1,0,0.2,3.5,0.2,7.9v7.9h3.8h3.8
	V23.6V9.1h-4.5c-3.3,0-4.5,0.1-4.7,0.3c-0.1,0.1-1.3,2.4-2.7,5.1s-3.3,6.4-4.2,8.3c-1.7,3.3-2.2,4.2-2.4,4c0-0.1-1.6-3-3.4-6.6
	c-4.5-8.8-5.3-10.4-5.6-10.7c-0.2-0.2-1.3-0.3-4.7-0.3H182V23.6 M231.2,9.9c-0.3,1-0.5,1.9-1.1,3.9c-0.8,2.9-1.6,6.2-2,7.5
	c-0.2,0.7-0.7,2.5-1,4c-0.4,1.5-0.9,3.3-1,4c-0.9,3.5-2.2,8.3-2.2,8.5c0,0.1,1.7,0.2,3.8,0.2h3.8l0.1-0.6c0.1-0.3,0.3-1.1,0.4-1.7
	c0.2-0.6,0.4-1.5,0.5-2c0.4-1.7-0.1-1.6,5-1.6h4.6l0.2,0.7c0.2,0.6,1.3,5,1.3,5.1c0,0,1.7,0.1,3.8,0.1s3.8-0.1,3.8-0.2
	c0-0.2-0.2-1.1-0.8-3.2c-0.2-0.9-0.6-2.1-0.7-2.7c-0.2-0.6-0.5-2-0.8-3s-0.8-3-1.2-4.3c-0.7-2.7-1.2-4.6-1.5-5.6
	c-0.1-0.3-0.4-1.5-0.7-2.6c-0.9-3.4-1.2-4.5-1.6-5.9l-0.4-1.4h-5.9h-5.9L231.2,9.9 M264.3,9.4c-0.1,0.1-0.1,4.5-0.2,9.6
	c-0.1,10.6-0.1,11-1.8,12.4c-1.2,1-2.1,1-5.4,0.3l-0.6-0.1l0.1,3.1l0.1,3.1l1.6,0.4c5.4,1.3,10.7-0.4,12.3-3.9
	c1.3-2.7,1.3-3.6,1.3-15.1l-0.1-9.9L268,9.2C265.2,9.1,264.3,9.2,264.3,9.4 M278.6,23.6V38h10.3h10.3v-2.7v-2.7h-6.5h-6.5v-3.1v-3.1
	h6h6v-2.7V21l-5.9-0.1l-5.9-0.1l-0.1-3.1l-0.1-3.1h6.3h6.3v-2.7V9.2h-10.1h-10.1L278.6,23.6 M332.4,9.4c-0.1,0.2-0.1,1.4,0,2.8
	l0.1,2.5l3.5,0.1l3.5,0.1l0.1,11.6l0.1,11.6h3.8h3.8l0.1-11.5l0.1-11.5L351,15l3.5-0.1l-0.1-2.8l-0.1-2.8l-10.9-0.1
	C334.5,9.1,332.5,9.2,332.4,9.4 M361.4,9.3c-0.1,0.1-0.1,6.6-0.1,14.5v14.3L365,38l3.7-0.1V23.6V9.2l-3.6-0.1
	C363.1,9.1,361.4,9.2,361.4,9.3 M238.4,17.5c0.3,1.3,0.8,3.2,1.1,4.3c0.3,1,0.6,2.4,0.8,3.1s0.3,1.3,0.3,1.4s-1.3,0.2-3.1,0.2
	c-3.4,0-3.3,0-2.9-1.3c0.1-0.4,0.4-1.4,0.6-2.2c0.2-0.8,0.7-2.8,1.2-4.4c0.4-1.6,0.8-3.2,0.9-3.4C237.4,14.4,237.7,15,238.4,17.5
	 M189.5,45.5c-6,1.2-9.1,5-8.2,9.9c0.7,3.6,2.5,5.4,7.2,6.9c5.3,1.7,6.3,2.3,6.3,4.4c0,2.8-5.3,3.6-10.8,1.6
	c-0.7-0.3-1.4-0.5-1.5-0.5s-0.2,1.1-0.3,3l-0.1,3.1l0.6,0.2c2.1,0.8,9.8,1.1,12.1,0.5c5.8-1.6,8.2-4.6,7.8-9.9
	c-0.3-3.7-2.4-5.9-6.8-7.3c-0.7-0.2-2.2-0.7-3.2-1c-3.7-1.2-4.7-3.6-2-5.1c1.4-0.7,6-0.6,8.6,0.2c0.6,0.2,1.1,0.3,1.2,0.3
	c0.5,0,0.2-5.8-0.3-6C197.5,45.2,192.2,45,189.5,45.5 M358.4,45.6c-3.9,1.1-6,3.7-6,7.4c0,3.6,1.5,5.4,6.7,8
	c4.7,2.4,5.7,3.4,5.7,5.7c0,4.4-5,6-11.2,3.6c-0.4-0.2-0.6,3.5-0.2,3.8c1.2,0.7,5.8,1.1,8.1,0.8c5-0.9,7.5-3.6,7.5-8.2
	c0-4.3-1.6-6.4-7-9c-4.9-2.4-6.4-4.5-4.8-7c1.2-1.8,5.4-2.4,8.4-1.3c0.7,0.3,1.3,0.5,1.3,0.5c0.2,0,0-3.8-0.1-3.9
	C365.7,45.2,360.4,45,358.4,45.6 M207.3,48.4v2.8l3.5,0.1l3.5,0.1l0.1,11.6l0.1,11.6l3.7-0.1l3.7-0.1l0.1-11.5l0.1-11.5l3.5-0.1
	l3.5-0.1v-2.8v-2.8h-10.9h-10.9L207.3,48.4 M235.8,60.1v14.5h10.3h10.3v-2.7v-2.7h-6.5h-6.5v-3.1V63h6h6v-2.7v-2.7h-6h-6v-3.1V51
	h6.3h6.3v-2.7v-2.7h-10.1h-10.1L235.8,60.1 M262.8,45.7c-0.2,0.2-0.2,28.2,0,28.5c0.1,0.2,2.3,0.3,10.3,0.2l10.2-0.1v-2.6v-2.6
	l-6.4-0.1l-6.4-0.1v-3.1v-3.1l5.9-0.1l5.9-0.1v-2.6v-2.6l-5.9-0.1l-5.9-0.1V54v-3h6.3h6.3v-2.7v-2.7h-10
	C267.5,45.6,262.9,45.7,262.8,45.7 M289.8,60l0.1,14.4l9.6,0.1c7.6,0,9.7,0,9.8-0.2c0.1-0.1,0.2-1.4,0.2-2.8v-2.6h-6h-6l-0.1-11.6
	l-0.1-11.6l-3.8-0.1l-3.8-0.1L289.8,60 M323.4,45.7c-0.6,0.6,0,19.6,0.6,21.8c2.8,9.1,16.3,10.4,20.3,2c1.2-2.6,1.3-3.6,1.3-14.3
	v-9.6h-2h-2v9.1c0,9.6-0.1,11.3-1,13.2c-2.2,4.6-9.7,4.8-12,0.3c-1.1-2.1-1.1-2.2-1.2-12.6l-0.1-9.9l-1.9-0.1
	C324.4,45.6,323.5,45.6,323.4,45.7 M384.1,46.2c-0.7,1.9-9.4,28.2-9.4,28.5s0.3,0.3,1.9,0.3l1.9-0.1l1.2-3.7l1.2-3.7l6.3-0.1
	l6.3-0.1l1.1,3.4c0.6,1.9,1.2,3.6,1.3,3.7c0.2,0.3,4.2,0.6,4.2,0.3c0-0.1-0.1-0.3-0.2-0.5s-2.2-6.4-4.6-13.7s-4.6-13.7-4.8-14.2
	l-0.3-0.9h-2.9h-2.9L384.1,46.2 M387.7,50.6c0.2,0.5,0.9,2.6,1.6,4.6c2.4,6.9,3,8.6,3,8.7s-2.3,0.2-5,0.2c-3.6,0-5-0.1-5-0.2
	c0-0.2,1.8-5.6,2.1-6.4c0.1-0.2,0.5-1.5,0.9-2.7C387,49.3,387.2,49,387.7,50.6"/>
<path id="path1" class="st1" d="M33.8,9.4c-0.1,0.1-0.6,1.1-1.1,2c-0.5,1-1.3,2.6-1.9,3.7c-0.5,1-1.9,3.7-3,5.9
	c-1.1,2.2-2.4,4.6-2.8,5.5c-0.4,0.8-1.8,3.4-3,5.9c-1.2,2.4-2.7,5.2-3.1,6.1c-1.5,2.8-3.3,6.3-5.2,10.1c-2.6,5-4.8,9.3-6.1,11.7
	C7,61.5,5.7,64,4.7,66c-1,2-2.4,4.6-3.1,5.9c-0.7,1.3-1.2,2.4-1.2,2.6c0,0.2,41,0.4,41.1,0.2c0,0,0.1-12.1,0.2-26.9L41.8,21l8.4-0.1
	c6.6,0,8.5,0,8.6,0.2c0.1,0.1,1.5,2.7,3,5.7s3.4,6.6,4.1,8s2.6,5,4.1,8c5.6,11,5.8,11.4,6.1,11.1c0.2-0.2,1.1-1.9,4.3-8.1
	c1.1-2.2,2.7-5.3,3.6-6.9c0.8-1.6,2.3-4.5,3.3-6.5c4.3-8.4,5.6-10.9,5.8-11.2c0.2-0.2,2-0.3,8.6-0.2l8.4,0.1l0.1,26.8l0.1,26.8h6.7
	h6.7l0.8-1.6c0.4-0.9,1.6-3.1,2.6-5c3.9-7.5,4.8-9.2,5.7-11c0.5-1,1.9-3.6,2.9-5.7c1.1-2.1,2.4-4.6,2.9-5.7c0.5-1,1.8-3.5,2.8-5.5
	c1.8-3.5,3.1-6.1,6.2-11.9c1.5-3,3.1-6,5.9-11.4c1-1.8,2.2-4.2,2.8-5.3c0.6-1.1,1-2,1-2.1C157.2,9,34.1,9,33.8,9.4 M55.8,59.7v14.8
	h7.9c6.9,0,7.9,0,7.9-0.3s-0.9-2.1-2.2-4.4c-0.3-0.5-1-1.8-1.6-2.9c-0.6-1.2-1.4-2.6-1.7-3.1c-0.3-0.6-1-1.9-1.6-2.9
	s-1.3-2.4-1.6-2.9c-0.3-0.6-1-1.9-1.6-2.9c-0.5-1-1.3-2.4-1.6-2.9c-0.3-0.6-1.1-2-1.7-3.1c-1.3-2.5-2.1-3.9-2.2-3.9
	C55.8,45,55.8,51.6,55.8,59.7 M95,46c-0.7,1.2-1.3,2.3-2.8,5.1c-0.5,0.9-1.2,2.1-1.5,2.7s-1,1.8-1.5,2.7c-0.5,0.9-1.2,2.1-1.5,2.7
	s-1,1.8-1.5,2.7c-1.2,2.2-2,3.8-2.7,5c-0.3,0.6-1,1.9-1.5,2.8c-0.5,1-1.2,2.3-1.6,2.9c-0.4,0.6-0.6,1.3-0.6,1.4
	c0,0.4,15.8,0.4,16-0.1s0.1-28.2-0.1-28.8C95.7,44.9,95.6,44.9,95,46"/>
</svg>
