<svg id="svg" version="1.1" xmlns="http://www.w3.org/2000/svg" xmlns:xlink="http://www.w3.org/1999/xlink" width="400" height="127.55364806866953" viewBox="0, 0, 400,127.55364806866953"><g id="svgg"><path id="path0" d="M40.000 21.510 C 39.221 21.680,37.500 21.937,36.177 22.080 C 33.294 22.393,33.569 22.114,34.183 24.095 C 37.602 35.122,47.495 44.858,58.126 47.660 C 59.032 47.899,59.468 48.489,59.189 49.101 C 58.835 49.877,55.306 51.163,53.515 51.169 C 52.818 51.171,52.783 51.190,53.121 51.377 C 53.324 51.491,54.901 53.271,56.625 55.333 C 58.348 57.396,60.919 60.464,62.337 62.151 C 66.181 66.722,71.848 73.476,75.067 77.322 C 80.739 84.099,82.562 86.274,91.417 96.827 C 96.367 102.726,101.617 108.984,103.084 110.735 L 105.751 113.917 252.876 113.958 L 400.000 114.000 400.000 110.417 L 400.000 106.833 256.781 106.833 L 113.562 106.833 112.323 105.305 C 111.000 103.674,109.229 101.559,107.796 99.898 C 107.312 99.338,106.188 97.988,105.298 96.898 C 104.408 95.808,103.330 94.542,102.902 94.083 C 102.474 93.625,101.779 92.800,101.357 92.250 C 100.583 91.240,99.677 90.143,97.627 87.736 C 97.009 87.010,95.629 85.367,94.561 84.083 C 93.492 82.800,92.290 81.375,91.891 80.917 C 91.491 80.458,89.909 78.576,88.374 76.734 C 86.839 74.892,84.832 72.492,83.914 71.401 C 82.997 70.310,82.047 69.154,81.805 68.833 C 81.563 68.512,80.824 67.650,80.164 66.917 C 79.504 66.183,78.115 64.533,77.077 63.250 C 76.039 61.967,74.901 60.615,74.547 60.245 C 74.193 59.876,73.160 58.639,72.252 57.495 C 70.470 55.253,68.657 53.116,68.462 53.029 C 68.396 52.999,67.844 52.338,67.236 51.560 C 66.628 50.781,65.258 49.113,64.191 47.853 C 63.123 46.593,61.950 45.201,61.583 44.761 C 60.702 43.701,60.450 43.403,57.645 40.083 C 56.328 38.524,54.576 36.424,53.752 35.416 C 52.928 34.408,52.158 33.483,52.040 33.360 C 51.626 32.926,48.397 29.074,47.827 28.333 C 47.102 27.391,46.682 26.899,45.360 25.440 C 44.779 24.799,43.842 23.678,43.277 22.949 C 42.712 22.220,42.167 21.521,42.065 21.395 C 41.840 21.118,41.780 21.121,40.000 21.510 M31.833 39.552 C 31.833 39.581,32.077 39.825,32.375 40.094 L 32.917 40.583 32.427 40.042 C 31.971 39.537,31.833 39.423,31.833 39.552 " stroke="none" fill="#049cdc" fill-rule="evenodd"></path><path id="path1" d="M147.599 32.792 C 147.547 33.044,146.486 39.362,145.242 46.833 C 143.998 54.304,142.914 60.567,142.833 60.750 C 142.703 61.044,142.600 61.571,142.418 62.875 C 142.106 65.120,137.273 93.484,137.087 94.167 C 136.949 94.671,136.817 95.346,136.793 95.667 L 136.750 96.250 143.955 96.293 L 151.159 96.337 151.244 95.960 C 151.336 95.549,153.116 84.934,153.766 80.917 C 153.989 79.542,154.219 78.304,154.277 78.167 C 154.440 77.783,154.905 75.141,156.860 63.470 C 157.439 60.016,157.927 57.205,157.946 57.223 C 157.964 57.241,157.722 65.692,157.409 76.003 C 157.095 86.314,156.838 95.106,156.836 95.542 L 156.833 96.333 161.907 96.333 C 164.901 96.333,167.020 96.269,167.077 96.176 C 167.131 96.090,167.774 93.971,168.506 91.468 C 169.239 88.965,170.190 85.717,170.621 84.250 C 171.052 82.783,171.473 81.535,171.557 81.477 C 171.641 81.418,171.661 81.292,171.602 81.197 C 171.543 81.101,171.562 80.981,171.645 80.930 C 171.728 80.878,171.846 80.630,171.908 80.377 C 171.969 80.124,172.236 79.204,172.503 78.333 C 172.769 77.462,173.735 74.200,174.650 71.083 C 177.005 63.060,177.123 62.669,177.428 61.833 C 177.578 61.421,177.989 60.146,178.340 59.000 C 178.692 57.854,178.983 56.992,178.987 57.083 C 178.995 57.259,177.423 66.397,176.750 70.083 C 176.533 71.275,175.487 77.462,174.426 83.833 C 173.365 90.204,172.454 95.624,172.402 95.877 L 172.306 96.337 179.522 96.293 L 186.738 96.250 187.585 91.250 C 188.051 88.500,188.479 86.138,188.536 86.000 C 188.592 85.862,188.684 85.450,188.738 85.083 C 188.980 83.467,194.334 51.998,194.496 51.250 C 194.712 50.245,197.667 32.800,197.667 32.526 C 197.667 32.382,194.961 32.333,187.026 32.333 L 176.386 32.333 175.947 33.792 C 175.706 34.594,174.905 37.350,174.167 39.917 C 173.429 42.483,172.717 44.958,172.585 45.417 C 172.452 45.875,172.139 46.962,171.889 47.833 C 171.639 48.704,171.389 49.454,171.334 49.500 C 171.279 49.546,171.107 50.033,170.951 50.583 C 170.796 51.133,170.365 52.633,169.994 53.917 C 169.623 55.200,169.212 56.625,169.081 57.083 C 168.949 57.542,168.656 58.517,168.429 59.250 L 168.017 60.583 168.094 58.500 C 168.137 57.354,168.248 53.717,168.342 50.417 C 168.436 47.117,168.583 42.354,168.670 39.833 C 168.757 37.313,168.829 34.594,168.831 33.792 L 168.833 32.333 158.263 32.333 L 147.693 32.333 147.599 32.792 M208.861 32.875 C 207.530 37.553,205.763 43.456,205.654 43.593 C 205.576 43.690,205.405 44.177,205.274 44.676 C 205.143 45.175,204.458 47.533,203.751 49.917 C 203.044 52.300,202.140 55.375,201.741 56.750 C 201.343 58.125,200.782 60.000,200.496 60.917 C 200.209 61.833,199.968 62.677,199.960 62.792 C 199.951 62.906,199.882 63.000,199.806 63.000 C 199.729 63.000,199.667 63.118,199.667 63.262 C 199.667 63.407,199.222 65.000,198.680 66.804 C 198.137 68.608,196.970 72.558,196.088 75.583 C 195.205 78.608,194.437 81.196,194.381 81.333 C 194.325 81.471,194.266 81.621,194.250 81.667 C 194.234 81.712,194.180 81.862,194.129 82.000 C 193.883 82.667,193.506 83.840,193.272 84.667 C 192.641 86.895,191.627 90.351,190.504 94.102 C 190.227 95.029,190.000 95.910,190.000 96.060 C 190.000 96.310,190.734 96.333,198.484 96.333 L 206.967 96.333 208.338 90.792 C 209.093 87.744,209.745 85.156,209.789 85.042 C 209.907 84.735,215.167 84.742,215.167 85.049 C 215.167 85.168,214.942 87.683,214.667 90.639 C 214.392 93.595,214.167 96.085,214.167 96.173 C 214.167 96.273,217.319 96.333,222.583 96.333 L 231.000 96.333 231.000 95.540 C 231.000 95.104,231.261 84.885,231.581 72.832 C 231.900 60.779,232.236 47.992,232.327 44.417 C 232.418 40.842,232.539 36.660,232.596 35.125 L 232.700 32.333 220.858 32.333 L 209.016 32.333 208.861 32.875 M245.096 32.777 C 244.970 33.354,245.119 32.477,243.501 42.167 C 242.096 50.577,240.281 61.122,239.571 65.000 C 239.125 67.433,234.333 95.977,234.333 96.199 C 234.333 96.273,237.998 96.333,242.477 96.333 L 250.621 96.333 251.042 93.792 C 251.445 91.358,251.550 90.814,251.736 90.195 C 251.783 90.042,251.852 89.729,251.890 89.500 C 251.929 89.271,252.774 84.222,253.769 78.281 L 255.577 67.479 256.413 67.586 C 259.154 67.937,259.397 68.215,259.296 70.887 C 259.221 72.868,257.503 84.087,257.186 84.667 C 257.111 84.804,257.076 85.085,257.107 85.292 C 257.139 85.498,257.100 85.667,257.020 85.667 C 256.941 85.667,256.837 86.023,256.790 86.458 C 256.742 86.894,256.358 89.249,255.935 91.692 C 255.513 94.135,255.167 96.179,255.167 96.234 C 255.167 96.288,258.615 96.333,262.830 96.333 L 270.494 96.333 270.576 95.958 C 270.803 94.929,274.002 75.395,274.099 74.439 C 274.162 73.831,274.259 73.333,274.315 73.333 C 274.459 73.333,274.585 71.824,274.574 70.236 C 274.565 68.869,274.510 68.683,273.549 66.723 C 272.829 65.254,270.963 63.838,268.917 63.206 L 268.083 62.949 269.229 62.731 C 274.686 61.694,276.527 59.376,278.084 51.583 C 279.752 43.230,279.192 38.553,276.152 35.461 C 273.480 32.743,271.812 32.485,256.225 32.379 L 245.199 32.305 245.096 32.777 M284.921 32.708 C 284.788 33.296,282.833 44.942,282.833 45.149 C 282.833 45.279,284.218 45.333,287.583 45.333 C 290.196 45.333,292.333 45.391,292.333 45.463 C 292.333 45.534,292.143 46.677,291.910 48.004 C 291.677 49.331,291.468 50.529,291.447 50.667 C 291.425 50.804,291.360 50.992,291.303 51.083 C 291.246 51.175,291.148 51.625,291.086 52.083 C 291.023 52.542,290.858 53.554,290.718 54.333 C 290.578 55.112,290.437 55.900,290.405 56.083 C 290.373 56.267,289.329 62.529,288.085 70.000 C 286.841 77.471,285.757 83.733,285.676 83.917 C 285.595 84.100,285.287 85.712,284.992 87.500 C 284.697 89.287,284.254 91.970,284.007 93.460 C 283.761 94.951,283.596 96.207,283.641 96.252 C 283.686 96.297,287.379 96.333,291.848 96.333 L 299.974 96.333 300.068 95.875 C 300.120 95.623,300.730 91.967,301.422 87.750 C 302.115 83.533,302.726 79.971,302.781 79.833 C 302.836 79.696,302.908 79.283,302.941 78.917 C 302.974 78.550,303.068 78.100,303.151 77.917 C 303.234 77.733,304.443 70.721,305.837 62.333 C 307.231 53.946,308.465 46.708,308.580 46.250 L 308.788 45.417 313.561 45.372 C 316.186 45.348,318.334 45.273,318.336 45.206 C 318.343 44.878,320.024 35.277,320.240 34.333 C 320.377 33.737,320.491 33.044,320.494 32.792 L 320.500 32.333 302.753 32.333 L 285.006 32.333 284.921 32.708 M324.167 32.496 C 324.167 32.586,323.912 34.142,323.600 35.955 C 323.288 37.767,322.384 43.188,321.591 48.000 C 320.798 52.813,320.084 56.900,320.003 57.083 C 319.922 57.267,319.657 58.617,319.415 60.083 C 319.172 61.550,317.926 68.938,316.646 76.500 C 315.365 84.063,314.306 90.419,314.292 90.625 C 314.278 90.831,314.207 91.000,314.133 91.000 C 314.060 91.000,314.000 91.206,314.000 91.459 C 314.000 91.711,313.850 92.705,313.667 93.667 C 313.483 94.629,313.333 95.622,313.333 95.875 L 313.333 96.333 327.403 96.333 L 341.474 96.333 341.568 95.875 C 341.619 95.623,341.890 93.992,342.169 92.250 C 342.448 90.508,342.746 88.933,342.830 88.750 C 342.914 88.567,343.029 88.046,343.084 87.593 C 343.139 87.140,343.287 86.278,343.411 85.676 C 343.536 85.075,343.663 84.283,343.694 83.917 L 343.750 83.250 337.857 83.206 L 331.965 83.162 332.054 82.790 C 332.103 82.584,332.599 79.679,333.157 76.333 C 333.715 72.987,334.209 70.082,334.255 69.877 L 334.338 69.505 339.369 69.461 L 344.400 69.417 345.359 63.750 C 345.886 60.633,346.321 57.840,346.325 57.542 L 346.333 57.000 341.359 57.000 L 336.385 57.000 336.764 54.752 C 336.973 53.516,337.183 52.441,337.231 52.363 C 337.279 52.286,337.356 52.003,337.401 51.736 C 337.447 51.469,337.639 50.313,337.829 49.167 C 338.019 48.021,338.253 46.691,338.349 46.211 L 338.523 45.338 343.879 45.294 L 349.236 45.250 350.276 39.083 C 350.848 35.692,351.320 32.785,351.325 32.625 C 351.333 32.350,350.579 32.333,337.750 32.333 C 329.003 32.333,324.167 32.391,324.167 32.496 M356.586 32.708 C 356.538 32.915,356.010 35.971,355.413 39.500 C 354.195 46.701,354.262 46.328,354.127 46.667 C 354.072 46.804,353.989 47.217,353.942 47.583 C 353.809 48.617,349.721 72.847,349.063 76.500 C 348.741 78.287,348.464 79.956,348.447 80.208 C 348.430 80.460,348.371 80.667,348.315 80.667 C 348.258 80.667,348.164 81.083,348.104 81.593 C 348.044 82.102,347.884 83.096,347.748 83.801 C 347.502 85.081,345.667 96.043,345.667 96.233 C 345.667 96.288,348.773 96.333,352.570 96.333 L 359.472 96.333 359.685 94.833 C 359.802 94.008,359.948 93.333,360.010 93.333 C 360.072 93.333,360.163 93.015,360.212 92.625 C 360.278 92.098,363.943 70.154,364.214 68.667 C 364.256 68.437,364.664 71.793,365.259 77.250 C 365.565 80.050,365.567 80.069,365.675 80.167 C 365.726 80.212,366.177 83.850,366.679 88.250 L 367.592 96.250 374.709 96.293 L 381.826 96.337 381.911 95.960 C 381.958 95.753,382.150 94.608,382.339 93.417 C 382.527 92.225,382.746 91.100,382.827 90.917 C 382.908 90.733,383.012 90.321,383.059 90.000 C 383.442 87.374,388.365 58.304,388.492 57.917 C 388.583 57.642,388.702 57.117,388.757 56.750 C 388.812 56.383,389.073 54.846,389.337 53.333 C 389.898 50.113,392.833 32.565,392.833 32.427 C 392.833 32.376,389.733 32.333,385.943 32.333 L 379.053 32.333 378.183 37.625 C 377.704 40.535,377.209 43.254,377.083 43.667 C 376.958 44.079,376.814 44.742,376.764 45.140 C 376.713 45.538,376.253 48.313,375.741 51.307 C 375.228 54.301,374.715 57.331,374.600 58.041 C 374.485 58.751,374.355 59.367,374.312 59.411 C 374.268 59.454,373.908 57.111,373.511 54.203 C 373.114 51.296,372.496 46.967,372.136 44.583 C 371.629 41.226,370.361 32.615,370.337 32.375 C 370.335 32.352,367.260 32.333,363.503 32.333 L 356.673 32.333 356.586 32.708 M262.438 43.992 C 264.014 44.690,264.031 47.061,262.504 53.069 C 261.649 56.428,261.147 56.930,258.322 57.252 L 257.393 57.358 258.017 53.720 C 258.360 51.720,258.886 48.593,259.185 46.771 L 259.729 43.459 260.713 43.562 C 261.255 43.619,262.031 43.812,262.438 43.992 M218.088 56.606 C 217.443 64.520,217.221 67.123,217.081 68.417 C 217.032 68.875,216.964 69.512,216.931 69.833 C 216.898 70.154,216.862 71.035,216.852 71.792 L 216.833 73.167 214.333 73.167 C 212.958 73.167,211.833 73.115,211.833 73.051 C 211.833 72.425,216.887 54.121,217.163 53.750 C 217.281 53.591,218.500 49.467,218.500 49.226 C 218.500 49.163,218.542 49.153,218.592 49.203 C 218.643 49.254,218.416 52.585,218.088 56.606 M45.405 50.748 C 45.581 51.687,45.541 55.286,45.343 56.305 L 45.170 57.194 49.050 61.805 C 51.184 64.341,55.256 69.192,58.098 72.583 C 66.156 82.198,89.987 110.617,92.479 113.583 C 93.711 115.050,95.545 117.244,96.554 118.458 L 98.389 120.667 249.195 120.667 L 400.000 120.667 400.000 117.333 L 400.000 114.000 252.876 113.958 L 105.751 113.917 103.084 110.735 C 101.617 108.984,96.367 102.725,91.417 96.825 C 82.363 86.034,79.839 83.024,74.167 76.249 C 70.454 71.816,65.437 65.837,62.000 61.750 C 60.612 60.100,58.089 57.092,56.393 55.065 L 53.309 51.381 51.279 51.286 C 49.442 51.201,48.181 50.963,45.685 50.232 C 45.302 50.120,45.291 50.140,45.405 50.748 M392.137 88.057 C 388.518 89.074,387.996 94.392,391.350 96.092 C 394.955 97.919,398.951 94.422,397.596 90.625 C 396.869 88.588,394.392 87.423,392.137 88.057 M394.757 89.147 C 396.013 89.717,396.701 90.836,396.687 92.286 C 396.680 93.128,396.163 94.500,395.854 94.500 C 395.593 94.500,394.485 92.588,394.708 92.521 C 395.684 92.226,396.001 90.819,395.258 90.076 C 394.880 89.699,394.724 89.667,393.258 89.667 L 391.667 89.667 391.667 92.250 L 391.667 94.833 392.167 94.833 L 392.667 94.833 392.667 93.822 C 392.667 92.818,392.670 92.812,393.125 92.864 C 393.377 92.893,393.583 92.998,393.583 93.097 C 393.583 93.637,394.575 94.818,395.070 94.867 L 395.583 94.917 395.078 95.194 C 392.720 96.485,389.817 94.421,390.243 91.757 C 390.592 89.571,392.835 88.274,394.757 89.147 M394.178 90.673 C 394.963 91.093,394.468 91.667,393.320 91.667 C 392.684 91.667,392.667 91.651,392.667 91.083 C 392.667 90.451,393.394 90.253,394.178 90.673 " stroke="none" fill="#0b6ca4" fill-rule="evenodd"></path><path id="path2" d="M5.042 0.416 C 4.460 0.834,4.550 1.694,5.324 3.113 C 6.230 4.775,6.880 6.636,6.762 7.229 C 6.510 8.497,7.252 10.759,8.699 13.133 C 9.051 13.710,9.590 14.671,9.896 15.267 L 10.452 16.352 8.102 25.718 C 6.809 30.869,5.704 35.121,5.646 35.167 C 5.514 35.270,0.132 56.688,0.217 56.772 C 0.574 57.130,5.975 54.916,7.905 53.621 C 10.349 51.982,15.333 47.073,15.333 46.305 C 15.333 46.256,15.745 45.549,16.249 44.733 C 17.641 42.479,18.214 41.325,18.351 40.500 C 18.420 40.087,18.770 38.813,19.129 37.667 C 19.488 36.521,19.877 35.077,19.993 34.458 C 20.242 33.132,20.204 33.141,21.819 34.026 C 32.666 39.965,39.560 49.856,40.098 60.250 C 40.246 63.105,40.395 63.500,41.325 63.500 C 43.617 63.500,46.057 55.906,45.342 51.000 C 45.176 49.858,45.113 49.900,46.364 50.313 C 50.400 51.644,54.547 51.540,57.889 50.025 C 59.664 49.220,59.777 48.095,58.126 47.660 C 47.495 44.858,37.602 35.122,34.183 24.095 C 33.573 22.128,33.405 22.371,35.513 22.170 C 44.605 21.306,50.870 18.719,56.035 13.697 C 58.240 11.552,61.230 7.175,60.790 6.735 C 60.725 6.669,51.375 7.122,40.014 7.742 C 22.365 8.704,19.309 8.835,19.031 8.640 C 18.419 8.211,17.156 7.083,15.370 5.369 C 13.563 3.636,12.749 3.167,11.545 3.167 C 11.030 3.167,10.457 2.867,8.307 1.471 C 6.385 0.222,5.644 -0.017,5.042 0.416 M8.784 3.832 C 9.706 4.419,10.383 4.718,11.086 4.848 C 12.427 5.096,12.349 5.042,15.352 7.761 C 16.806 9.078,18.203 10.262,18.456 10.392 C 18.938 10.639,20.130 10.582,46.167 9.085 C 50.337 8.845,54.674 8.596,55.804 8.531 C 58.282 8.389,58.167 8.288,57.169 9.731 C 52.662 16.244,42.470 20.780,32.221 20.831 L 31.693 20.833 32.167 22.625 C 35.253 34.272,43.585 43.731,54.750 48.261 C 56.238 48.865,56.301 48.967,55.387 49.307 C 53.643 49.956,49.474 49.721,46.782 48.823 C 44.137 47.941,43.519 48.275,43.768 50.452 C 44.183 54.075,43.835 56.923,42.670 59.435 C 41.826 61.255,41.733 61.264,41.598 59.538 C 40.817 49.586,34.498 40.007,24.727 33.963 C 20.220 31.175,19.136 31.087,18.664 33.472 C 16.805 42.866,11.715 49.946,4.131 53.685 C 3.333 54.079,2.639 54.361,2.589 54.312 C 2.540 54.262,2.943 52.541,3.485 50.486 C 4.027 48.431,5.273 43.600,6.255 39.750 C 7.236 35.900,8.671 30.350,9.444 27.417 C 11.549 19.429,12.167 16.906,12.167 16.295 C 12.167 15.673,11.381 14.052,9.925 11.667 C 8.653 9.584,8.467 9.036,8.420 7.250 C 8.387 5.985,8.299 5.562,7.857 4.551 C 7.052 2.708,7.037 2.720,8.784 3.832 " stroke="none" fill="#f7f8f9" fill-rule="evenodd"></path><path id="path3" d="M8.115 4.792 C 8.605 6.006,8.689 6.391,8.617 7.092 C 8.466 8.565,8.742 9.396,10.241 11.985 C 11.996 15.016,12.386 15.886,12.294 16.560 C 12.219 17.107,8.101 33.330,7.084 37.083 C 5.903 41.446,2.696 54.167,2.778 54.167 C 3.139 54.167,6.203 52.496,7.410 51.641 C 12.681 47.909,16.592 41.910,18.150 35.167 C 18.744 32.595,18.840 32.312,19.255 31.896 C 19.838 31.313,20.385 31.403,22.262 32.390 C 33.303 38.202,40.744 48.514,41.756 59.408 L 41.879 60.732 42.354 59.792 C 43.589 57.350,44.010 54.199,43.608 50.417 C 43.373 48.203,44.047 47.819,46.726 48.639 C 49.751 49.565,52.514 49.766,54.867 49.231 L 56.049 48.962 54.892 48.512 C 43.972 44.263,34.867 33.919,31.922 22.417 C 31.449 20.566,31.308 20.725,33.540 20.588 C 41.268 20.113,47.712 17.993,52.454 14.363 C 54.611 12.712,57.939 9.050,57.595 8.706 C 57.494 8.605,52.438 8.866,30.833 10.084 C 25.196 10.401,20.121 10.663,19.557 10.664 C 18.336 10.667,18.183 10.562,14.613 7.275 C 12.761 5.569,12.227 5.165,11.713 5.085 C 10.510 4.897,9.907 4.673,8.799 4.005 C 8.186 3.636,7.649 3.333,7.606 3.333 C 7.562 3.333,7.791 3.990,8.115 4.792 M20.167 34.458 C 19.892 35.840,19.367 37.709,18.804 39.305 L 18.315 40.693 18.949 41.468 C 19.852 42.571,22.348 45.506,22.802 46.000 C 23.418 46.670,32.037 57.010,32.666 57.833 C 32.981 58.246,33.585 58.958,34.009 59.417 C 34.937 60.421,37.377 63.360,38.114 64.362 C 38.406 64.759,39.138 65.608,39.742 66.250 C 40.345 66.892,41.269 67.968,41.795 68.641 C 42.752 69.868,44.426 71.870,46.375 74.117 C 46.948 74.777,48.054 76.116,48.833 77.092 C 49.612 78.068,50.590 79.215,51.005 79.641 C 51.421 80.068,51.982 80.717,52.253 81.083 C 52.679 81.660,56.549 86.285,56.994 86.750 C 57.082 86.842,58.461 88.492,60.058 90.417 C 61.655 92.342,63.870 94.996,64.981 96.315 C 66.091 97.634,67.001 98.759,67.003 98.815 C 67.004 98.871,67.360 99.292,67.792 99.750 C 68.715 100.728,71.013 103.461,72.373 105.196 C 72.899 105.867,73.761 106.879,74.289 107.444 C 74.818 108.008,75.569 108.871,75.959 109.360 C 78.200 112.174,79.306 113.508,80.015 114.250 C 80.453 114.708,81.092 115.458,81.435 115.917 C 82.158 116.885,85.020 120.304,85.849 121.190 C 86.161 121.524,87.465 123.080,88.746 124.648 L 91.076 127.500 245.538 127.500 L 400.000 127.500 400.000 124.083 L 400.000 120.667 249.195 120.667 L 98.389 120.667 96.554 118.458 C 95.545 117.244,93.712 115.050,92.480 113.583 C 88.980 109.417,68.740 85.283,58.164 72.667 C 44.923 56.870,45.293 57.304,45.172 57.451 C 45.111 57.524,44.926 58.033,44.761 58.583 C 43.941 61.302,42.321 63.667,41.277 63.667 C 40.476 63.667,40.277 63.155,40.065 60.539 C 39.176 49.565,32.511 39.929,21.786 34.113 C 20.349 33.334,20.392 33.325,20.167 34.458 M336.792 69.625 C 338.190 69.653,340.477 69.653,341.875 69.625 C 343.273 69.597,342.129 69.574,339.333 69.574 C 336.537 69.574,335.394 69.597,336.792 69.625 M216.705 72.667 C 216.705 72.987,216.740 73.119,216.782 72.958 C 216.823 72.798,216.823 72.535,216.782 72.375 C 216.740 72.215,216.705 72.346,216.705 72.667 " stroke="none" fill="#1c3c74" fill-rule="evenodd"></path><path id="path4" d="M7.333 3.138 C 7.333 3.220,7.566 3.842,7.851 4.519 C 8.136 5.196,8.426 6.162,8.496 6.667 C 8.620 7.561,8.623 7.566,8.645 6.873 C 8.659 6.408,8.467 5.668,8.090 4.732 C 7.686 3.729,7.586 3.331,7.757 3.396 C 8.116 3.534,8.052 3.373,7.667 3.167 C 7.483 3.069,7.333 3.056,7.333 3.138 M13.826 6.542 C 14.517 7.278,14.667 7.410,14.667 7.285 C 14.667 7.258,14.310 6.902,13.875 6.493 L 13.083 5.750 13.826 6.542 M15.583 8.167 C 16.035 8.625,16.442 9.000,16.487 9.000 C 16.533 9.000,16.201 8.625,15.750 8.167 C 15.299 7.708,14.892 7.333,14.846 7.333 C 14.800 7.333,15.132 7.708,15.583 8.167 M55.667 8.602 C 56.664 8.728,57.834 8.740,57.833 8.625 C 57.833 8.556,57.252 8.511,56.542 8.525 C 55.831 8.539,55.438 8.574,55.667 8.602 M52.955 8.787 C 53.250 8.824,53.775 8.824,54.121 8.788 C 54.467 8.752,54.225 8.722,53.583 8.721 C 52.942 8.721,52.659 8.750,52.955 8.787 M49.875 8.955 C 50.219 8.991,50.781 8.991,51.125 8.955 C 51.469 8.919,51.188 8.889,50.500 8.889 C 49.813 8.889,49.531 8.919,49.875 8.955 M16.667 9.052 C 16.667 9.081,16.910 9.325,17.208 9.594 L 17.750 10.083 17.260 9.542 C 16.804 9.037,16.667 8.923,16.667 9.052 M47.295 9.121 C 47.594 9.158,48.044 9.157,48.295 9.119 C 48.545 9.081,48.300 9.051,47.750 9.052 C 47.200 9.053,46.995 9.084,47.295 9.121 M44.208 9.286 C 44.460 9.324,44.873 9.324,45.125 9.286 C 45.377 9.248,45.171 9.217,44.667 9.217 C 44.163 9.217,43.956 9.248,44.208 9.286 M41.208 9.453 C 41.460 9.491,41.873 9.491,42.125 9.453 C 42.377 9.415,42.171 9.383,41.667 9.383 C 41.162 9.383,40.956 9.415,41.208 9.453 M38.288 9.620 C 38.584 9.657,39.109 9.658,39.455 9.622 C 39.800 9.586,39.558 9.555,38.917 9.555 C 38.275 9.554,37.992 9.583,38.288 9.620 M35.292 9.787 C 35.590 9.824,36.077 9.824,36.375 9.787 C 36.673 9.750,36.429 9.720,35.833 9.720 C 35.237 9.720,34.994 9.750,35.292 9.787 M32.288 9.954 C 32.584 9.990,33.109 9.991,33.455 9.955 C 33.800 9.919,33.558 9.889,32.917 9.888 C 32.275 9.887,31.992 9.917,32.288 9.954 M29.292 10.121 C 29.590 10.158,30.077 10.158,30.375 10.121 C 30.673 10.084,30.429 10.053,29.833 10.053 C 29.238 10.053,28.994 10.084,29.292 10.121 M26.542 10.286 C 26.794 10.324,27.206 10.324,27.458 10.286 C 27.710 10.248,27.504 10.217,27.000 10.217 C 26.496 10.217,26.290 10.248,26.542 10.286 M23.542 10.453 C 23.794 10.491,24.206 10.491,24.458 10.453 C 24.710 10.415,24.504 10.383,24.000 10.383 C 23.496 10.383,23.290 10.415,23.542 10.453 M20.542 10.619 C 20.794 10.658,21.206 10.658,21.458 10.619 C 21.710 10.581,21.504 10.550,21.000 10.550 C 20.496 10.550,20.290 10.581,20.542 10.619 M54.747 12.375 L 53.250 13.917 54.792 12.420 C 56.224 11.030,56.409 10.833,56.288 10.833 C 56.263 10.833,55.570 11.527,54.747 12.375 M52.333 14.437 C 51.264 15.273,51.110 15.484,52.049 14.826 C 52.750 14.335,53.327 13.817,53.145 13.842 C 53.111 13.847,52.746 14.114,52.333 14.437 M38.750 20.000 C 38.301 20.114,38.292 20.128,38.667 20.130 C 38.896 20.132,39.271 20.073,39.500 20.000 C 40.060 19.821,39.455 19.821,38.750 20.000 M37.375 20.282 C 37.535 20.323,37.798 20.323,37.958 20.282 C 38.119 20.240,37.987 20.205,37.667 20.205 C 37.346 20.205,37.215 20.240,37.375 20.282 M36.127 20.451 C 36.334 20.491,36.634 20.490,36.794 20.448 C 36.953 20.406,36.783 20.374,36.417 20.375 C 36.050 20.377,35.920 20.411,36.127 20.451 M32.667 20.624 C 32.162 20.658,31.694 20.741,31.625 20.809 C 31.515 20.918,32.005 20.890,34.917 20.618 C 35.793 20.536,33.886 20.541,32.667 20.624 M31.695 21.417 C 31.692 21.600,31.755 21.900,31.833 22.083 C 32.016 22.508,32.016 22.070,31.833 21.500 C 31.726 21.165,31.699 21.149,31.695 21.417 M32.024 22.750 C 32.025 23.098,32.467 24.375,32.485 24.083 C 32.490 23.992,32.389 23.579,32.259 23.167 C 32.129 22.754,32.023 22.567,32.024 22.750 M19.460 31.679 C 19.301 31.772,19.090 32.013,18.991 32.215 C 18.824 32.556,18.835 32.554,19.131 32.186 C 19.315 31.959,19.729 31.735,20.101 31.664 C 20.676 31.553,20.693 31.537,20.250 31.524 C 19.975 31.516,19.620 31.586,19.460 31.679 M36.003 32.333 C 36.300 32.909,37.826 35.167,37.919 35.167 C 37.992 35.167,36.059 32.164,35.879 32.000 C 35.829 31.954,35.885 32.104,36.003 32.333 M7.848 33.598 C 7.649 34.392,7.517 35.073,7.555 35.110 C 7.592 35.148,7.786 34.529,7.985 33.735 C 8.184 32.941,8.316 32.261,8.279 32.223 C 8.241 32.186,8.048 32.805,7.848 33.598 M22.500 32.575 C 22.500 32.621,22.725 32.774,23.000 32.917 C 23.275 33.059,23.500 33.138,23.500 33.092 C 23.500 33.046,23.275 32.892,23.000 32.750 C 22.725 32.608,22.500 32.529,22.500 32.575 M19.692 35.859 C 19.583 36.331,19.525 36.747,19.562 36.784 C 19.599 36.821,19.721 36.468,19.833 36.000 C 19.946 35.532,20.004 35.116,19.964 35.075 C 19.923 35.035,19.801 35.387,19.692 35.859 M38.500 36.000 C 38.790 36.367,39.066 36.667,39.111 36.667 C 39.157 36.667,38.957 36.367,38.667 36.000 C 38.376 35.633,38.101 35.333,38.055 35.333 C 38.009 35.333,38.210 35.633,38.500 36.000 M6.931 37.098 C 6.778 37.709,6.683 38.239,6.721 38.277 C 6.759 38.314,6.915 37.846,7.069 37.235 C 7.222 36.625,7.317 36.094,7.279 36.057 C 7.241 36.019,7.085 36.488,6.931 37.098 M29.000 36.865 C 29.000 36.900,29.656 37.522,30.458 38.246 C 31.260 38.970,31.692 39.317,31.417 39.016 C 30.885 38.434,29.000 36.756,29.000 36.865 M18.872 38.622 C 18.580 39.507,18.370 40.259,18.404 40.293 C 18.438 40.327,18.706 39.632,19.000 38.750 C 19.294 37.868,19.505 37.116,19.468 37.079 C 19.432 37.043,19.163 37.737,18.872 38.622 M42.245 40.083 C 44.017 41.833,46.333 43.833,46.333 43.613 C 46.333 43.572,45.790 43.101,45.125 42.567 C 44.460 42.033,43.085 40.806,42.068 39.840 C 40.225 38.088,40.225 38.089,42.245 40.083 M31.076 41.167 C 33.476 43.701,33.723 43.941,32.709 42.750 C 32.241 42.200,31.274 41.188,30.560 40.500 C 29.602 39.579,29.738 39.754,31.076 41.167 M32.833 40.552 C 32.833 40.581,33.077 40.825,33.375 41.094 L 33.917 41.583 33.427 41.042 C 32.971 40.537,32.833 40.423,32.833 40.552 M15.583 42.167 C 15.351 42.625,15.199 43.000,15.244 43.000 C 15.290 43.000,15.518 42.625,15.750 42.167 C 15.982 41.708,16.135 41.333,16.089 41.333 C 16.043 41.333,15.816 41.708,15.583 42.167 M14.207 44.500 C 13.733 45.233,13.377 45.833,13.417 45.833 C 13.500 45.833,14.695 44.083,14.981 43.542 C 15.376 42.792,15.050 43.196,14.207 44.500 M35.833 44.167 C 36.029 44.442,36.227 44.667,36.273 44.667 C 36.319 44.667,36.196 44.442,36.000 44.167 C 35.804 43.892,35.606 43.667,35.561 43.667 C 35.515 43.667,35.638 43.892,35.833 44.167 M46.500 43.727 C 46.500 43.773,46.725 43.971,47.000 44.167 C 47.275 44.362,47.500 44.485,47.500 44.439 C 47.500 44.394,47.275 44.196,47.000 44.000 C 46.725 43.804,46.500 43.681,46.500 43.727 M10.250 49.288 C 9.333 50.171,9.033 50.511,9.583 50.043 C 10.565 49.210,12.143 47.659,11.993 47.675 C 11.951 47.680,11.167 48.405,10.250 49.288 M53.214 47.770 C 53.271 47.826,53.929 48.119,54.677 48.421 L 56.036 48.969 54.976 49.220 C 54.394 49.358,54.104 49.471,54.333 49.472 C 54.897 49.475,56.026 49.118,56.020 48.939 C 56.018 48.859,55.394 48.542,54.633 48.233 C 53.188 47.647,53.045 47.600,53.214 47.770 M37.035 49.410 C 37.420 50.186,37.762 50.794,37.795 50.761 C 37.869 50.687,36.527 48.000,36.416 48.000 C 36.372 48.000,36.651 48.635,37.035 49.410 M44.708 48.282 C 44.869 48.323,45.131 48.323,45.292 48.282 C 45.452 48.240,45.321 48.205,45.000 48.205 C 44.679 48.205,44.548 48.240,44.708 48.282 M43.568 49.064 C 43.519 49.191,43.504 49.623,43.535 50.023 C 43.589 50.727,43.593 50.719,43.670 49.791 C 43.751 48.819,43.727 48.648,43.568 49.064 M48.750 49.348 C 49.025 49.448,50.300 49.553,51.583 49.582 L 53.917 49.634 51.667 49.504 C 50.429 49.432,49.154 49.326,48.833 49.270 L 48.250 49.166 48.750 49.348 M43.705 51.333 C 43.705 51.654,43.740 51.785,43.782 51.625 C 43.823 51.465,43.823 51.202,43.782 51.042 C 43.740 50.881,43.705 51.012,43.705 51.333 M37.845 51.083 C 37.845 51.175,37.952 51.438,38.083 51.667 C 38.214 51.896,38.322 52.008,38.322 51.917 C 38.322 51.825,38.214 51.563,38.083 51.333 C 37.952 51.104,37.845 50.992,37.845 51.083 M43.888 53.417 C 43.889 54.058,43.919 54.300,43.955 53.955 C 43.991 53.609,43.990 53.084,43.954 52.788 C 43.917 52.492,43.887 52.775,43.888 53.417 M2.704 53.501 C 2.611 53.868,2.590 54.202,2.656 54.244 C 2.723 54.285,2.779 54.228,2.780 54.118 C 2.782 54.007,2.838 53.673,2.905 53.375 C 3.080 52.596,2.906 52.705,2.704 53.501 M3.333 53.917 C 3.104 54.048,2.992 54.155,3.083 54.155 C 3.175 54.155,3.438 54.048,3.667 53.917 C 3.896 53.786,4.008 53.678,3.917 53.678 C 3.825 53.678,3.563 53.786,3.333 53.917 M40.862 54.833 C 40.870 55.266,41.133 55.978,41.138 55.583 C 41.141 55.400,41.079 55.100,41.000 54.917 C 40.912 54.712,40.859 54.680,40.862 54.833 M43.709 55.417 C 43.711 55.783,43.745 55.914,43.785 55.706 C 43.824 55.499,43.823 55.199,43.781 55.040 C 43.739 54.880,43.707 55.050,43.709 55.417 M43.284 57.287 C 43.121 57.908,42.747 58.941,42.452 59.583 L 41.917 60.749 41.817 60.000 L 41.717 59.250 41.692 60.042 C 41.678 60.477,41.741 60.833,41.831 60.833 C 42.211 60.833,43.811 56.849,43.638 56.332 C 43.606 56.236,43.447 56.665,43.284 57.287 M41.542 58.417 C 41.544 58.783,41.578 58.914,41.618 58.706 C 41.658 58.499,41.656 58.199,41.615 58.040 C 41.573 57.880,41.540 58.050,41.542 58.417 M40.042 60.083 C 40.044 60.450,40.078 60.580,40.118 60.373 C 40.158 60.166,40.156 59.866,40.115 59.706 C 40.073 59.547,40.040 59.717,40.042 60.083 M42.500 62.833 C 42.304 63.108,42.181 63.333,42.227 63.333 C 42.273 63.333,42.471 63.108,42.667 62.833 C 42.862 62.558,42.985 62.333,42.939 62.333 C 42.894 62.333,42.696 62.558,42.500 62.833 " stroke="none" fill="#6477a0" fill-rule="evenodd"></path></g></svg>