<?xml version="1.0" encoding="utf-8"?>
<!-- Generator: Adobe Illustrator 25.4.1, SVG Export Plug-In . SVG Version: 6.00 Build 0)  -->
<svg version="1.1" id="layer" xmlns="http://www.w3.org/2000/svg" xmlns:xlink="http://www.w3.org/1999/xlink" x="0px" y="0px"
	 viewBox="0 0 652 136.9" style="enable-background:new 0 0 652 136.9;" xml:space="preserve">
<style type="text/css">
	.st0{fill:#FF6600;}
</style>
<g>
	<path class="st0" d="M113.8,120.6V59.4l-26.3,61.2H73L47.2,59.4v61.2H20v-106h36.3l25,59.9l26.1-59.9H141v106.1h-27.2V120.6z"/>
	<path class="st0" d="M161.8,120.6v-106H185c2,0,4.1,2,4.1,4.2v101.8H161.8z"/>
	<path class="st0" d="M264.4,59.6h34.5c2.7,0,4.3,2.2,4.3,4.8v54.8c-9.7,2.2-24.9,3.5-36.1,3.5c-39.6,0-60.4-18.8-60.4-55.2
		c0-32.5,20.9-54.9,55.6-54.9c15.3,0,28.7,4.1,37.4,9.9L289,40.8c-7.5-3.3-17.5-5.7-24.7-5.7c-20,0-29.3,13.3-29.3,32.5
		c0,20.5,10.8,33.2,30.8,33.2c3.7,0,8.2-0.1,11.8-0.7V81.4h-13.1L264.4,59.6L264.4,59.6z"/>
	<path class="st0" d="M383.8,120.6l-12.6-29.2c-2.6-5.9-4.4-8.9-9.8-8.9h-11v38.1h-26.7V18.8c0-2.2,2.4-4.2,4.1-4.2h37.6
		c20.4,0,38,4.2,38,30.7c0,11.8-6.5,23.9-18.8,26.4c6.1,2.1,12.3,9.9,15.6,18.4l12.1,30.6h-28.5V120.6z M363.7,35h-13.3v26.6h13.3
		c8,0,14.2-4.3,14.2-14.3C377.9,37,371.7,35,363.7,35z"/>
	<path class="st0" d="M471.3,122.7c-34.7,0-53.1-24.5-53.1-55.2c0-30.4,18.4-54.9,53.1-54.9c32.5,0,50.9,24.5,50.9,54.9
		C522.3,98.2,503.9,122.7,471.3,122.7z M471.3,35c-14.3,0-24.5,10.2-24.5,32.5c0,22.6,10.2,32.8,24.5,32.8
		c12.3,0,22.3-10.2,22.3-32.8C493.6,45.2,483.6,35,471.3,35z"/>
	<path class="st0" d="M574.5,122.7c-17.9,0-34.6-6.4-42-11.5l12.1-21.4c6.7,4.1,19.9,10.4,32,10.4c6.9,0,15.5-1.3,15.5-8.9
		c0-7.1-9.7-9.3-22.3-13c-15.3-4.4-33.1-10.5-33.1-31.1c0-22.2,19.7-34.6,45.4-34.6c16.9,0,30.1,6,36.8,12.4L604,41.7
		c-7.3-4.3-14.7-7.7-23.1-7.7c-10.1,0-15.7,3.8-15.7,9.4c0,5.5,7.3,8.3,16.5,11.1c16.2,5,38.4,10.1,38.4,31.4
		C620,107.7,602.5,122.7,574.5,122.7z"/>
</g>
</svg>
