<?xml version="1.0" encoding="utf-8"?>
<!-- Generator: Adobe Illustrator 25.4.1, SVG Export Plug-In . SVG Version: 6.00 Build 0)  -->
<svg version="1.1" id="Layer_1" xmlns="http://www.w3.org/2000/svg" xmlns:xlink="http://www.w3.org/1999/xlink" x="0px" y="0px"
	 viewBox="0 0 160 32.8" style="enable-background:new 0 0 160 32.8;" xml:space="preserve">
<style type="text/css">
	.st0{fill:#EB5D0B;}
	.st1{fill:#003761;}
</style>
<g>
	<path class="st0" d="M21.6,32.3l0-15.6l-7.7,12.9h-2L4.2,16.9v15.4H0V8.8h3.6l9.3,15.6l9.2-15.6h3.6l0,23.5H21.6z"/>
	<path class="st0" d="M62.9,8.9L52.6,32.3h-4.3L38,8.9h4.7L50.6,27l7.9-18.1H62.9z"/>
	<path class="st0" d="M52.7,32.4h-4.4l0-0.1L37.9,8.8h5l0,0.1l7.7,17.8l7.8-17.9H63L63,8.9L52.7,32.4z M48.4,32.2h4.2L62.7,9h-4.1
		l-8,18.2L42.7,9h-4.5L48.4,32.2z"/>
	<path class="st0" d="M113.9,28.7v3.6H96.3V8.9h17.2v3.6h-12.8v6.1H112v3.6h-11.4v6.5L113.9,28.7z"/>
	<path class="st0" d="M114.1,32.4H96.2V8.8h17.4v3.9h-12.8v5.9h11.4v3.8h-11.4v6.2h13.3L114.1,32.4z M96.4,32.2h17.4v-3.4h-13.3
		v-6.7h11.4v-3.4h-11.4v-6.3h12.8V9h-17L96.4,32.2z M0,0 M0,0"/>
	<path class="st0" d="M73.6,12.7h7.5v19.7h4.2V12.7h7.5V8.9H73.6V12.7z"/>
	<path class="st0" d="M85.4,32.5H81V12.8h-7.5v-4h19.4v4h-7.5L85.4,32.5z M81.2,32.3h4V12.6h7.5V9h-19v3.6h7.5L81.2,32.3z"/>
	<path class="st0" d="M142.8,27.9h4.5v4.6h-4.5V27.9z"/>
	<path class="st0" d="M30.7,8.8h4.6v23.5h-4.6V8.8z"/>
	<path class="st0" d="M65.2,8.8h4.6v23.5h-4.6V8.8z"/>
	<path class="st1" d="M152.4,0l-7.6,4.4v8.8l7.6,4.4l7.6-4.4V4.4L152.4,0z M155.2,12.5l0-4.9l-2.4,4.1h-0.6l-2.4-4v4.9h-1.3V5h1.1
		l3,4.9l2.9-4.9h1.1l0,7.4L155.2,12.5z"/>
</g>
<path class="st0" d="M136.2,25.9c-1.5,1.7-3.8,2.8-6.4,2.8c-4.6,0-8.4-3.6-8.4-8c0-4.4,3.8-8,8.4-8c2.6,0,4.8,1.1,6.4,2.8l3.1-2.8
	c-2.3-2.5-5.7-4.1-9.5-4.1c-7,0-12.7,5.4-12.7,12.1s5.7,12.1,12.7,12.1c3.7,0,7.1-1.5,9.4-4L136.2,25.9z"/>
</svg>
