<?xml version="1.0" encoding="utf-8"?>
<!-- Generator: Adobe Illustrator 25.4.1, SVG Export Plug-In . SVG Version: 6.00 Build 0)  -->
<svg version="1.1" id="svg" xmlns="http://www.w3.org/2000/svg" xmlns:xlink="http://www.w3.org/1999/xlink" x="0px" y="0px"
	 viewBox="0 0 400 129.3" style="enable-background:new 0 0 400 129.3;" xml:space="preserve">
<style type="text/css">
	.st0{fill-rule:evenodd;clip-rule:evenodd;fill:#AE9E9F;}
	.st1{fill-rule:evenodd;clip-rule:evenodd;fill:#D4242C;}
	.st2{fill:#D4242C;}
</style>
<path id="path0" class="st0" d="M29.2,1.3C29.1,2,28.8,3,28.5,3.6c-0.3,0.5-0.6,1.6-0.7,2.4c-0.2,0.8-0.5,1.7-0.7,2.1
	c-0.2,0.4-0.5,1.2-0.6,1.9c-0.1,0.7-0.4,1.7-0.7,2.2c-0.3,0.6-0.6,1.6-0.7,2.4c-0.1,0.8-0.4,1.6-0.6,2c-0.2,0.3-0.5,1.3-0.7,2.2
	c-0.2,0.9-0.5,1.9-0.7,2.2c-0.2,0.3-0.5,1.3-0.7,2.2C22.3,24,22,25,21.8,25.3c-0.2,0.3-0.5,1.3-0.7,2.2c-0.2,0.9-0.5,1.9-0.7,2.2
	c-0.2,0.3-0.5,1.3-0.7,2.1c-0.2,0.8-0.5,1.9-0.7,2.3c-0.2,0.4-0.5,1.3-0.6,2c-0.1,0.6-0.4,1.6-0.6,2.1c-0.2,0.5-0.6,1.6-0.7,2.4
	c-0.2,0.8-0.5,1.9-0.7,2.3c-0.2,0.4-0.5,1.4-0.7,2.2c-0.1,0.8-0.4,1.8-0.7,2.2c-0.4,0.7-0.8,2.4-0.8,3.5c0,0.3-0.2,0.8-0.3,1.1
	c-0.2,0.3-0.5,1.2-0.7,2.1c-0.2,1.1-0.4,1.7-0.8,2c-0.3,0.3-0.5,0.8-0.7,2c-0.2,0.9-0.5,2-0.8,2.5c-0.4,0.7-0.5,1.1-0.5,2.1
	c0,0.9-0.1,1.5-0.5,2.3c-0.3,0.6-0.6,1.5-0.6,1.8c-0.1,0.4-0.4,1.2-0.8,1.9c-0.4,0.8-0.7,1.7-0.8,2.4c-0.1,0.6-0.4,1.5-0.6,2
	c-0.2,0.5-0.4,1.3-0.5,1.9c-0.1,0.6-0.2,1.5-0.4,2c-0.2,0.5-0.6,1.7-0.9,2.6c-0.3,1-0.8,2.1-1,2.5c-0.2,0.4-0.5,1.3-0.6,2
	c-0.1,0.7-0.3,1.5-0.4,1.8c-0.2,0.6-0.6,1.9-0.9,3.5c-0.1,0.5-0.4,1.3-0.7,1.8c-0.3,0.5-0.6,1.4-0.7,2.1c-0.3,1.4-0.3,1.5-0.8,1.5
	C0,94.7,0,94.8,0,95.5c0,1.9,1,0.9,1.5-1.5c0.2-0.8,0.3-1.6,0.4-1.7c0.3-0.5,1.8-0.5,15.6-0.5h14l0.4,0.4c0.4,0.3,0.4,0.4,0.3,0.8
	c-0.1,0.2-0.3,0.9-0.4,1.5c-0.5,3.1,1.1,2.8-16.2,2.8c-7.9,0-14.7-0.1-15-0.2L0,97v0.6v0.6l15,0c18.1,0,16.6,0.2,17.2-2.7
	c0.2-0.8,0.5-1.7,0.7-2.1c0.3-0.5,0.4-1,0.5-1.9c0.1-0.9,0.2-1.5,0.5-2.2c0.3-0.5,0.7-1.6,0.9-2.4c0.3-0.8,0.6-1.7,0.8-2
	c0.2-0.3,0.4-1.1,0.5-1.8c0.1-0.6,0.3-1.5,0.5-1.9c0.2-0.4,0.3-0.9,0.3-1c0-0.8,0.8-3.5,1.2-4.5c0.3-0.6,0.6-1.5,0.7-1.9
	c0.1-0.5,0.4-1.1,0.5-1.4c0.2-0.3,0.5-1.5,0.7-2.5c0.2-1.1,0.5-2.1,0.6-2.3c0.1-0.2,0.3-1,0.5-1.9c0.2-1,0.5-1.8,0.8-2.3
	c0.3-0.4,0.6-1.3,0.7-2c0.1-0.7,0.4-1.5,0.6-1.8c0.4-0.6,0.8-2.5,0.8-3.4c0-0.3,0.2-0.9,0.3-1.2c0.2-0.4,0.5-1.3,0.7-2.1
	c0.2-0.8,0.4-1.6,0.6-1.8c0.5-0.6,0.6-0.9,0.9-2.4c0.1-0.8,0.4-1.7,0.7-2.1c0.2-0.4,0.5-1.3,0.7-2.1c0.4-2,0.5-2,0.8-0.3
	c0.2,1,0.4,15.5,0.3,21.6c0,4.2,0,8.3,0.1,15.8c0.1,9.4,0.1,9.7,0,12.6c-0.2,4.3-0.6,4.1,8.6,4.1h6.8l0.8-0.5
	c0.6-0.4,0.9-0.8,1.2-1.4c0.2-0.5,0.6-1.1,0.9-1.4c0.3-0.3,0.5-0.6,0.5-0.8c0-0.1,0.2-0.5,0.5-0.8c0.3-0.3,0.6-0.9,0.6-1.3
	c0.1-0.4,0.3-0.9,0.6-1.3c0.3-0.3,0.7-0.9,0.8-1.2c0.3-0.6,0.6-1.1,1.8-2.5c0.3-0.4,0.8-1.1,1-1.7c0.2-0.5,0.5-0.9,0.6-0.9
	c0.1,0,0.4-0.4,0.6-0.9c0.2-0.5,0.7-1.1,0.9-1.5c0.3-0.3,0.5-0.9,0.6-1.3c0.1-0.4,0.3-0.7,0.4-0.8c0.1-0.1,0.4-0.6,0.7-1.1
	c0.3-0.6,0.6-1.1,0.7-1.1c0.1,0,0.3-0.4,0.6-0.9s0.7-1.2,1.1-1.6c0.4-0.4,0.6-0.8,0.6-0.9c0-0.1,0.3-0.5,0.6-0.9
	c0.3-0.4,0.6-0.8,0.6-0.9c0-0.1,0.2-0.5,0.5-0.9c0.3-0.4,0.7-1,0.8-1.4c0.2-0.4,0.5-0.9,0.7-1.1c0.2-0.2,0.5-0.7,0.5-1.1
	c0.1-0.4,0.3-0.9,0.5-1.2c0.4-0.5,0.9-1.3,1.8-2.8c0.2-0.4,0.7-0.9,0.9-1.1c0.3-0.2,0.7-0.7,0.9-1.2c0.2-0.5,0.5-1,0.7-1.1
	c0.2-0.1,0.4-0.6,0.6-1c0.2-0.4,0.5-1,0.8-1.3c0.3-0.3,0.6-0.8,0.7-1.2c0.1-0.4,0.3-0.8,0.5-1.1c0.2-0.2,0.4-0.7,0.5-1
	c0.1-0.3,0.4-0.8,0.7-1.2c0.3-0.3,0.6-0.9,0.7-1.1c0.2-0.5,1-1.6,2.1-2.9c0.2-0.2,0.5-0.7,0.6-1c0.1-0.3,0.4-0.8,0.7-1.1
	c0.2-0.3,0.6-0.9,0.8-1.3c0.2-0.5,0.4-0.8,0.6-0.7c0.4,0.1,0.3,2.6-0.1,3.5c-0.2,0.4-0.5,1.6-0.7,2.7c-0.3,1.3-0.6,2.4-1,3.1
	c-0.3,0.6-0.6,1.4-0.7,1.8c-0.1,0.4-0.3,1.2-0.6,1.8c-0.3,0.7-0.6,1.5-0.7,2.7c-0.1,0.9-0.3,1.9-0.5,2.2c-0.2,0.3-0.4,1.2-0.6,2
	c-0.2,0.8-0.4,1.6-0.6,1.9c-0.1,0.2-0.4,0.5-0.5,0.7c-0.1,0.2-0.3,0.9-0.4,1.6c-0.1,0.7-0.4,1.7-0.7,2.3c-0.4,0.9-0.5,1.3-0.5,2.3
	c0,1-0.1,1.4-0.5,2.1c-0.2,0.5-0.5,1.3-0.6,1.8c-0.1,0.5-0.4,1.4-0.8,2c-0.4,0.7-0.7,1.6-0.9,2.7c-0.2,0.9-0.5,1.8-0.6,2.1
	c-0.2,0.3-0.3,0.8-0.3,1c0,1.1-0.5,3.1-1,4.3c-0.3,0.7-0.7,1.7-0.8,2.1c-0.1,0.4-0.4,1.2-0.6,1.7c-0.6,1.1-0.6,2.9-0.1,3.4l0.3,0.4
	h14.8c17.8,0,16.4,0.2,16.9-2.3c0.1-0.6,0.4-1.4,0.7-1.8c0.4-0.6,0.4-0.9,0.4-1.8c0-1,0.3-2.1,0.7-2.9c0.1-0.2,0.3-0.8,0.5-1.4
	s0.5-1.6,0.8-2.2c0.3-0.6,0.6-1.4,0.7-1.8c0.2-1.5,0.5-2.3,0.8-2.8c0.2-0.3,0.3-0.7,0.3-1.2c0-0.9,0.4-2.6,0.8-3.4
	c0.2-0.3,0.5-1.3,0.8-2.2c0.3-0.8,0.6-1.7,0.8-1.9c0.1-0.2,0.4-1.1,0.6-2c0.2-0.9,0.5-2,0.7-2.6c0.2-0.6,0.5-1.7,0.6-2.4
	c0.2-0.8,0.5-1.6,0.8-2.1c0.3-0.4,0.6-1.3,0.7-1.9c0.1-0.6,0.4-1.5,0.7-2c0.3-0.5,0.5-1.4,0.7-2.5c0.1-0.9,0.4-1.9,0.5-2.1
	c0.1-0.2,0.4-1.1,0.6-1.9c0.2-1.1,0.4-1.6,0.7-2c0.4-0.4,0.6-1,1-2.7c0.1-0.5,0.4-1.3,0.6-1.7c0.2-0.4,0.5-1.4,0.6-2.2
	c0.2-0.9,0.4-1.7,0.6-2c0.2-0.3,0.5-1.2,0.7-2.1c0.2-0.9,0.5-1.9,0.7-2.4s0.5-1.3,0.6-2c0.1-0.6,0.4-1.6,0.7-2.2
	c0.3-0.5,0.6-1.5,0.7-2.2c0.1-0.6,0.4-1.6,0.7-2.2c0.3-0.5,0.6-1.6,0.7-2.4c0.1-0.8,0.4-1.6,0.6-2c0.2-0.3,0.5-1.3,0.7-2.2
	c0.2-0.9,0.5-1.9,0.7-2.2c0.2-0.3,0.5-1.3,0.7-2.2c0.2-0.9,0.5-1.9,0.7-2.2c0.2-0.3,0.5-1.3,0.7-2.2c0.2-0.9,0.5-1.9,0.7-2.2
	c0.2-0.3,0.5-1.3,0.7-2.1c0.2-0.8,0.5-1.9,0.7-2.3c0.2-0.4,0.5-1.4,0.7-2.2c0.1-0.9,0.4-1.7,0.6-1.9c0.3-0.5,0.8-2.5,0.8-3.3
	c0-0.8-0.4-0.4-0.6,0.6c-0.1,0.6-0.3,1.2-0.5,1.5C144.1,3,144,3.3,143.8,5c-0.1,0.8-0.4,1.6-0.6,1.9c-0.2,0.3-0.5,1.1-0.6,1.9
	c-0.1,0.8-0.5,1.8-0.7,2.4s-0.6,1.6-0.7,2.4c-0.1,0.7-0.4,1.7-0.7,2.2c-0.2,0.4-0.5,1.3-0.6,2c-0.1,0.6-0.4,1.6-0.7,2.2
	c-0.3,0.5-0.6,1.6-0.7,2.4c-0.1,0.8-0.4,1.6-0.6,2c-0.2,0.3-0.5,1.3-0.7,2.2c-0.2,0.9-0.5,1.9-0.7,2.2c-0.2,0.3-0.5,1.3-0.7,2.2
	s-0.5,1.9-0.7,2.3c-0.2,0.4-0.5,1-0.5,1.4c-0.2,1.5-0.5,2.4-0.8,3c-0.2,0.4-0.5,1.3-0.6,2.1c-0.1,0.9-0.4,1.7-0.7,2.2
	c-0.3,0.4-0.5,1.3-0.7,2.2c-0.2,0.9-0.4,1.7-0.6,2c-0.2,0.3-0.5,1.2-0.7,2.1c-0.7,3.2,1.2,2.9-16.4,2.9c-17.2,0-15.5,0.2-15.2-1.8
	c0.1-0.6,0.4-1.6,0.7-2.2c1-2.2,0.7-4.7-0.5-3.6c-0.2,0.2-0.4,0.5-0.4,0.8c-0.1,0.3-0.4,0.8-0.8,1.2c-0.4,0.4-0.7,0.9-0.7,1
	s-0.3,0.6-0.6,1c-0.3,0.4-0.7,1-0.8,1.4c-0.1,0.3-0.4,0.8-0.6,1c-0.2,0.2-0.5,0.6-0.7,0.8l-0.3,0.4H72.1c-20.9,0-22.1,0-22.2-0.3
	c-0.1-0.2-0.2-1.9-0.3-3.8c-0.2-5.8-1-7-1.8-2.8c-0.1,0.8-0.4,1.6-0.6,1.9c-0.2,0.3-0.5,1.2-0.7,2.1c-0.6,3.2,1.2,2.9-16.5,2.9
	l-14.8,0l-0.2-0.4c-0.2-0.4,0.1-1.5,0.5-2.2c0.2-0.2,0.4-1.1,0.6-2c0.2-0.9,0.5-1.9,0.7-2.4c0.2-0.4,0.5-1.5,0.7-2.3
	c0.1-0.8,0.4-1.7,0.6-1.9c0.3-0.4,0.4-0.9,0.9-2.9c0.1-0.5,0.4-1.3,0.6-1.7c0.2-0.4,0.5-1.2,0.6-1.8c0.2-1.3,0.3-1.5,0.8-2.5
	c0.2-0.4,0.5-1.4,0.6-2.2c0.1-0.8,0.4-1.8,0.7-2.2c0.2-0.4,0.5-1.3,0.6-2c0.1-0.7,0.4-1.7,0.7-2.2c0.3-0.5,0.6-1.6,0.7-2.4
	c0.1-0.8,0.4-1.6,0.6-2c0.2-0.3,0.5-1.3,0.7-2.2c0.2-0.9,0.5-1.9,0.7-2.2c0.2-0.3,0.5-1.3,0.7-2.2c0.2-0.9,0.5-1.9,0.7-2.2
	c0.2-0.3,0.5-1.3,0.7-2.1c0.2-0.9,0.5-1.9,0.7-2.4c0.2-0.4,0.5-1.3,0.6-1.9c0.1-0.6,0.3-1.3,0.3-1.6C30.1,0.4,30,0,29.7,0
	C29.4,0,29.3,0.2,29.2,1.3 M74.2,2.7c0,1.5-0.1,3.9-0.2,5.3c-0.8,13.5-1.2,37.8-0.6,38.6c0.5,0.7,0.8,0.6,1.3-0.6
	c0.3-0.6,0.7-1.2,0.9-1.5c0.2-0.3,0.5-0.7,0.6-1c0.1-0.3,0.3-0.6,0.4-0.8c0.4-0.3,1-1.4,1-1.8c0-0.1,0.2-0.4,0.5-0.7
	c0.3-0.3,0.6-0.8,0.8-1.3c0.2-0.4,0.5-0.9,0.7-1.2c0.2-0.2,0.5-0.7,0.6-1.1c0.1-0.4,0.4-0.9,0.7-1.1c0.2-0.3,0.5-0.8,0.6-1.1
	c0.1-0.3,0.4-0.9,0.7-1.1c0.2-0.3,0.6-0.8,0.7-1.2c0.2-0.4,0.5-1,0.8-1.3c0.3-0.3,0.5-0.7,0.5-0.8c0-0.1,0.3-0.6,0.6-1.1
	c0.3-0.5,0.7-1.1,0.8-1.5s0.4-0.8,0.7-1.1s0.5-0.8,0.7-1.2c0.2-0.4,0.4-0.9,0.6-1.1c0.2-0.2,0.5-0.7,0.7-1.2
	c0.2-0.5,0.5-1.1,0.7-1.2c0.2-0.2,0.4-0.6,0.6-1c0.2-0.4,0.4-0.8,0.6-1c0.2-0.2,0.5-0.7,0.7-1.3c0.2-0.5,0.6-1,0.7-1.2
	c0.2-0.2,0.5-0.7,0.6-1.1c0.2-0.4,0.5-1,0.7-1.2c0.2-0.2,0.5-0.7,0.7-1.1c0.2-0.4,0.4-0.8,0.6-1c0.2-0.2,0.5-0.7,0.7-1.2
	c0.2-0.5,0.5-1,0.7-1.2c0.2-0.2,0.5-0.8,0.7-1.2c0.2-0.5,0.4-0.9,0.5-0.9c0.1-0.1,0.5-0.6,0.7-1.1c0.3-0.6,0.6-1.1,0.7-1.2
	C98.3,6,98.6,5.5,98.8,5c0.2-0.5,0.6-1.1,0.8-1.3c0.2-0.2,0.5-0.8,0.7-1.2c0.2-0.5,0.4-0.9,0.5-0.9c0.7-0.3,0.9-1.6,0.3-1.6
	c-0.3,0-0.4,0.1-0.4,0.4c0,0.2-0.1,0.5-0.3,0.6c-0.1,0.1-0.4,0.6-0.6,1.1s-0.5,0.9-0.6,1c-0.1,0.1-0.4,0.6-0.7,1.1
	c-0.3,0.6-0.6,1.2-0.8,1.3s-0.5,0.7-0.6,1.1c-0.1,0.4-0.4,0.9-0.6,1.1c-0.2,0.2-0.5,0.6-0.7,1.1c-0.2,0.4-0.5,0.9-0.6,1.1
	c-0.2,0.2-0.5,0.7-0.7,1.2c-0.2,0.5-0.5,1-0.8,1.2c-0.2,0.2-0.5,0.8-0.7,1.2c-0.2,0.5-0.4,0.9-0.6,1c-0.2,0.1-0.5,0.6-0.8,1.2
	c-0.3,0.6-0.5,1.1-0.6,1.1s-0.4,0.5-0.6,1c-0.3,0.6-0.6,1.2-0.8,1.4c-0.2,0.2-0.4,0.6-0.5,0.9s-0.4,0.8-0.7,1.1
	c-0.3,0.3-0.6,0.9-0.8,1.3c-0.2,0.4-0.4,0.9-0.5,0.9c-0.1,0.1-0.4,0.6-0.7,1.2c-0.3,0.6-0.6,1.2-0.8,1.4c-0.2,0.2-0.4,0.6-0.5,0.9
	c-0.1,0.3-0.4,0.8-0.7,1.1c-0.3,0.3-0.5,0.8-0.7,1.2c-0.1,0.4-0.4,0.8-0.6,1.1c-0.2,0.2-0.6,0.8-0.8,1.3c-0.2,0.5-0.5,1-0.7,1.2
	c-0.2,0.1-0.4,0.6-0.6,1c-0.2,0.4-0.5,0.9-0.7,1.2c-0.2,0.3-0.5,0.8-0.6,1.1c-0.1,0.3-0.4,0.9-0.7,1.1c-0.3,0.3-0.6,0.8-0.7,1.2
	c-0.2,0.4-0.5,1-0.8,1.3c-0.3,0.3-0.5,0.7-0.5,0.8s-0.3,0.6-0.6,1.1c-0.3,0.5-0.7,1.1-0.8,1.5c-0.1,0.3-0.4,0.8-0.7,1.1
	c-0.2,0.3-0.5,0.8-0.7,1.2c-0.3,0.8-0.5,0.9-0.7,0.4c-0.2-0.7,0.1-16.3,0.4-21.7c0.2-2.9,0.5-10.5,0.6-18.2L74.9,0h-0.4
	C74.2,0,74.2,0.1,74.2,2.7 M150.5,1.8c-0.2,1-0.5,2.1-0.7,2.4c-0.2,0.3-0.5,1.3-0.7,2.2c-0.2,0.9-0.5,1.9-0.7,2.2
	c-0.2,0.3-0.5,1.3-0.7,2.2c-0.2,0.9-0.5,1.9-0.7,2.2c-0.2,0.3-0.5,1.3-0.7,2.2c-0.2,0.9-0.5,1.9-0.7,2.2s-0.5,1.3-0.7,2.2
	c-0.2,0.9-0.5,1.9-0.7,2.2c-0.2,0.3-0.5,1.3-0.7,2.1c-0.2,0.9-0.5,1.9-0.7,2.4c-0.2,0.5-0.5,1.4-0.6,2c-0.1,0.6-0.4,1.6-0.7,2.2
	s-0.6,1.5-0.7,2.1c-0.2,1.3-0.3,1.5-0.8,2.5c-0.2,0.4-0.5,1.4-0.6,2.2c-0.1,0.8-0.4,1.8-0.7,2.2c-0.2,0.4-0.5,1.3-0.6,2
	c-0.1,0.7-0.4,1.7-0.7,2.2c-0.3,0.5-0.6,1.5-0.7,2.2c-0.1,0.6-0.4,1.6-0.7,2.2c-0.4,0.8-0.5,1.4-0.6,2.5c-0.1,1.1-0.2,1.7-0.6,2.3
	c-0.2,0.5-0.5,1.2-0.5,1.7c-0.1,0.8-0.4,1.5-0.9,2.2c-0.2,0.2-0.5,1.1-0.6,2c-0.2,0.9-0.5,2-0.7,2.4c-0.3,0.6-0.4,1.1-0.4,1.8
	c0,0.6-0.1,1.4-0.3,1.8c-0.2,0.5-0.4,1.2-0.6,1.7c-0.8,2.1-1.1,3-1.4,3.4c-0.1,0.2-0.4,1.1-0.6,2c-0.2,0.9-0.4,1.7-0.5,1.9
	c-0.1,0.2-0.4,1.3-0.6,2.3c-0.2,1.3-0.6,2.3-0.9,2.9c-0.3,0.5-0.6,1.4-0.8,2c-0.1,0.6-0.4,1.4-0.7,1.8c-0.2,0.4-0.5,1.5-0.7,2.3
	s-0.5,2.1-0.7,2.8c-0.2,0.7-0.5,1.7-0.6,2.2c-0.1,0.6-0.4,1.2-0.7,1.5c-0.3,0.4-0.5,0.9-0.7,1.8c-0.1,0.7-0.4,1.7-0.7,2.2l-0.5,1
	l0.3,0.6c0.4,0.9-0.3,0.8,15.5,0.9c17.2,0,16.1,0.2,16.5-2.2c0.1-0.4,0.3-1.2,0.6-1.7c0.4-0.8,0.5-1.2,0.5-2.2
	c0-0.9,0.1-1.4,0.6-2.3c0.3-0.6,0.6-1.4,0.6-1.8c0.1-0.3,0.4-1.2,0.8-1.9c0.4-0.8,0.7-1.8,0.8-2.4c0.1-0.6,0.4-1.5,0.6-1.9
	c0.3-0.6,0.4-1.2,0.5-1.9c0.1-1,0.2-1.5,1.2-4.1c0.2-0.6,0.5-1.4,0.6-1.8c0.1-0.3,0.3-0.8,0.5-1s0.5-1.2,0.6-2.1
	c0.2-0.9,0.4-1.8,0.6-2c0.1-0.2,0.4-1.2,0.5-2c0.2-1,0.5-2.1,0.9-2.8c0.3-0.7,0.7-1.7,0.8-2.2c0.1-0.5,0.4-1.2,0.6-1.5
	c0.2-0.3,0.5-1.5,0.7-2.6c0.2-1.1,0.5-2.2,0.6-2.3c0.1-0.2,0.3-1,0.5-1.9c0.2-1,0.5-1.7,0.8-2.2c0.3-0.5,0.6-1.1,0.7-2
	c0.1-0.7,0.4-1.6,0.7-2c0.2-0.4,0.5-1.2,0.6-1.8c0.1-0.6,0.3-1.3,0.4-1.6l0.2-0.5l0.2,0.4c0.1,0.2,0.2,1.8,0.3,3.6
	c0.1,1.7,0.2,4.1,0.2,5.3c0.1,1.4,0,2.6-0.1,3.3c-0.1,0.8-0.1,2,0,4.7c0.2,3.9,0.2,5.2,0.1,9.8c-0.1,1.9,0,3.5,0.1,4.2
	c0.1,0.6,0.2,1.9,0.2,3c0,3.1,0,8.6,0,11.4c0,1.5,0,3.8,0,5.2c0,4.1-0.5,3.9,8.3,3.9l6.7,0l0.9-0.4c0.8-0.4,1-0.5,1.3-1.3
	c0.2-0.5,0.5-1,0.7-1.1c0.2-0.1,0.4-0.6,0.6-1c0.2-0.4,0.5-0.9,0.7-1.1c0.2-0.2,0.4-0.7,0.5-1.1c0.1-0.5,0.3-0.9,0.7-1.4
	c0.3-0.3,0.6-0.7,0.6-0.9s0.3-0.6,0.6-1c0.3-0.4,0.7-1,0.8-1.3c0.1-0.3,0.4-0.6,0.6-0.7c0.2-0.1,0.6-0.6,0.8-1.1
	c0.3-0.5,0.6-1,0.7-1.1c0.1-0.1,0.4-0.5,0.5-0.9c0.2-0.4,0.6-1,0.9-1.3c0.3-0.3,0.6-0.7,0.6-0.8c0-0.3,1.3-2.9,1.7-3.4
	c0.2-0.3,0.6-0.8,0.8-1.2c0.2-0.4,0.7-1.2,1.1-1.7c0.4-0.5,0.9-1.2,1.2-1.6c0.3-0.4,0.5-0.7,0.5-0.9c0-0.1,0.2-0.5,0.5-0.8
	c0.3-0.3,0.7-0.9,0.9-1.4c0.2-0.4,0.5-1,0.7-1.2c0.2-0.2,0.5-0.8,0.6-1.3c0.1-0.5,0.4-1,0.5-1.2c0.2-0.1,0.4-0.5,0.6-0.9
	c0.2-0.4,0.4-0.8,0.6-0.9c0.1-0.1,0.5-0.6,0.7-1.1c0.2-0.5,0.6-1,0.8-1.2c0.2-0.2,0.6-0.7,0.8-1.1c0.2-0.4,0.5-0.9,0.7-1.1
	c0.2-0.2,0.4-0.6,0.5-0.9c0.1-0.3,0.4-0.9,0.8-1.2c0.3-0.3,0.6-0.7,0.6-0.8c0-0.1,0.2-0.5,0.5-1c0.3-0.4,0.5-1,0.6-1.3
	c0.1-0.3,0.3-0.8,0.6-1.2c0.3-0.4,0.7-0.9,0.8-1.3c0.3-0.7,0.7-1.3,1.7-2.4c0.4-0.4,0.9-1.2,1.1-1.6c0.2-0.5,0.5-0.9,0.7-1
	c0.2-0.1,0.5-0.6,0.7-1.1c0.4-0.8,0.5-0.9,0.8-0.7c0.5,0.3,0.3,2.4-0.6,5.3c-0.2,0.7-0.5,1.8-0.6,2.3c-0.1,0.5-0.4,1.3-0.7,1.7
	c-0.3,0.5-0.6,1.1-0.7,1.8c-0.1,0.6-0.4,1.5-0.7,2.1c-0.4,0.8-0.5,1.4-0.6,2.6c-0.1,1.1-0.2,1.7-0.6,2.4c-0.2,0.5-0.5,1.3-0.6,1.9
	c-0.1,0.6-0.3,1.2-0.5,1.5c-0.6,0.8-0.8,1.4-1,2.7c-0.1,0.7-0.4,1.7-0.7,2.3c-0.4,0.7-0.5,1.3-0.5,1.9c0,0.9-0.4,2.5-0.7,2.9
	c-0.1,0.1-0.4,0.9-0.7,1.8c-0.3,0.9-0.7,1.9-0.9,2.2c-0.2,0.3-0.5,1.3-0.6,2.1c-0.2,0.9-0.4,1.7-0.5,1.9c-0.1,0.2-0.4,1.3-0.6,2.4
	c-0.3,1.6-0.6,2.3-0.9,2.9c-0.3,0.5-0.6,1.3-0.7,2c-0.1,0.7-0.4,1.5-0.6,1.8c-0.6,1-0.7,1.7-0.3,2.6l0.3,0.7l15.3,0
	c17.5-0.1,16,0.1,16.4-1.6c0.1-0.5,0.4-1.3,0.7-1.8c0.3-0.6,0.4-1.1,0.5-2.1c0.1-0.9,0.2-1.6,0.6-2.4c0.3-0.6,0.6-1.5,0.7-2.1
	c0.1-0.6,0.4-1.3,0.7-1.7c0.3-0.5,0.6-1.2,0.8-2.3c0.2-0.9,0.5-1.9,0.7-2.2c0.3-0.4,0.4-1,0.5-2c0.1-1.1,0.2-1.7,0.6-2.6
	c0.3-0.7,0.5-1.3,0.5-1.5c0-0.2,0.3-1,0.7-1.9c0.5-1,0.8-2.1,1-2.9c0.1-0.8,0.4-1.6,0.6-1.9c0.2-0.3,0.3-0.8,0.3-1.2
	c0-1,0.5-2.9,1-3.9c0.3-0.5,0.6-1.4,0.7-2c0.2-0.6,0.4-1.3,0.6-1.6c0.2-0.3,0.5-1.4,0.7-2.4c0.2-1,0.6-2.4,0.7-3
	c0.2-0.6,0.4-1.5,0.5-2c0.1-0.5,0.4-1.3,0.7-1.7c0.3-0.5,0.6-1.2,0.7-2c0.1-0.7,0.4-1.6,0.7-2c0.2-0.4,0.5-1.3,0.6-1.9
	c0.1-0.6,0.4-1.6,0.7-2.2c0.3-0.6,0.6-1.5,0.7-2.2c0.1-0.6,0.4-1.6,0.7-2.2c0.3-0.5,0.6-1.6,0.7-2.4c0.1-0.8,0.4-1.6,0.6-2
	c0.2-0.3,0.5-1.3,0.7-2.2c0.2-0.9,0.5-1.9,0.7-2.2c0.2-0.3,0.5-1.3,0.7-2.2c0.2-0.9,0.5-1.9,0.7-2.2c0.2-0.3,0.5-1.3,0.7-2.2
	c0.2-0.9,0.5-1.9,0.7-2.2c0.2-0.3,0.5-1.3,0.7-2.2c0.2-0.9,0.5-1.9,0.7-2.3c0.2-0.4,0.5-1.3,0.6-1.9c0.1-0.7,0.4-1.7,0.7-2.2
	c0.3-0.5,0.6-1.5,0.7-2.2c0.1-0.7,0.4-1.7,0.7-2.2c0.3-0.5,0.6-1.5,0.7-2.1c0.1-0.6,0.4-1.6,0.7-2.1c0.4-0.9,1-3.3,1-4.1
	c0-1-0.6-0.2-0.7,0.9c-0.1,0.8-0.3,1.4-0.6,2.1c-0.3,0.5-0.6,1.4-0.7,2c-0.1,0.6-0.4,1.6-0.7,2.1s-0.5,1.3-0.6,1.7
	c-0.2,1.5-0.5,2.4-0.8,2.8c-0.2,0.3-0.5,1.2-0.6,2.1c-0.2,0.9-0.5,1.9-0.7,2.2c-0.2,0.3-0.5,1.3-0.7,2.2c-0.2,0.9-0.5,1.9-0.7,2.2
	c-0.2,0.3-0.5,1.3-0.7,2.1s-0.5,1.9-0.7,2.4c-0.2,0.5-0.5,1.4-0.6,2c-0.1,0.6-0.4,1.6-0.7,2.2s-0.6,1.6-0.7,2.4
	c-0.1,0.8-0.4,1.6-0.6,2c-0.2,0.3-0.5,1.3-0.7,2.2c-0.2,0.9-0.5,1.9-0.7,2.3c-0.2,0.4-0.5,1.3-0.7,2.1c-0.1,0.8-0.4,1.7-0.7,2.2
	c-0.2,0.4-0.5,1.3-0.6,1.9c-0.1,0.6-0.4,1.6-0.7,2.2c-0.3,0.6-0.6,1.5-0.7,2.1c-0.4,2.5,1.2,2.3-16.5,2.3l-14.8,0l-0.2-0.4
	c-0.3-0.5-0.1-1.7,0.6-3c0.4-0.9,0.5-1.3,0.6-2.6l0.1-1.6l-0.6,0.1c-0.5,0-0.6,0.2-1,0.9c-0.2,0.5-0.6,1.1-0.9,1.3
	c-0.2,0.3-0.6,0.8-0.8,1.2c-0.2,0.4-0.5,0.9-0.6,1s-0.4,0.5-0.6,0.9c-0.2,0.4-0.6,1-1,1.4l-0.7,0.7l-21.5,0
	c-14.4,0-21.7-0.1-22.2-0.2l-0.6-0.2l0-2.7c0-5.6-1.3-7.9-2-3.5c-0.1,0.6-0.4,1.6-0.7,2.2c-0.3,0.6-0.6,1.5-0.7,2.2
	c-0.4,2.5,1.2,2.2-16.4,2.2c-16.9,0-15.8,0.1-14.6-1.8c0.2-0.3,0.5-1.2,0.6-2.1c0.2-0.9,0.5-1.9,0.7-2.4c0.2-0.4,0.5-1.1,0.5-1.5
	c0.2-1.5,0.5-2.4,0.8-2.8c0.2-0.3,0.5-1.2,0.7-2.2c0.2-0.9,0.5-1.9,0.7-2.2c0.3-0.4,0.8-2.3,0.8-3.1c0-0.2,0.2-0.8,0.5-1.3
	c0.3-0.5,0.5-1.2,0.6-1.6c0.2-1.5,0.5-2.4,0.8-3c0.2-0.4,0.5-1.3,0.7-2.1c0.2-0.8,0.5-1.8,0.7-2.2c0.2-0.4,0.5-1.2,0.6-1.9
	c0.1-0.7,0.4-1.7,0.7-2.2c0.3-0.5,0.6-1.6,0.7-2.4c0.1-0.8,0.4-1.6,0.6-2c0.2-0.3,0.5-1.3,0.7-2.2s0.5-1.9,0.7-2.2
	c0.2-0.3,0.5-1.3,0.7-2.1c0.2-0.9,0.5-1.9,0.7-2.4c0.2-0.5,0.5-1.4,0.6-2.1c0.1-0.7,0.3-1.5,0.5-1.8c0.5-0.8,0.4-1.4-0.1-1.4
	C150.9,0,150.9,0.1,150.5,1.8 M195.8,0.9c-0.1,0.5-0.1,3.5-0.2,6.7c-0.1,3.2-0.2,7.7-0.3,9.9c-0.7,12.3-0.9,28.5-0.4,29.3
	c0.5,0.7,0.6,0.6,1.3-0.5c0.3-0.5,0.7-1.1,0.9-1.3c0.2-0.2,0.5-0.7,0.6-1.2c0.2-0.5,0.4-0.9,0.6-1c0.2-0.1,0.5-0.6,0.7-1
	c0.2-0.5,0.6-1.1,0.9-1.4s0.5-0.7,0.5-0.9c0-0.2,0.3-0.6,0.6-1c0.3-0.4,0.7-1,0.8-1.3c0.1-0.3,0.4-0.8,0.6-1
	c0.2-0.2,0.6-0.8,0.8-1.3c0.2-0.5,0.5-1,0.7-1.1c0.1-0.1,0.5-0.7,0.7-1.2c0.2-0.5,0.6-1.1,0.7-1.2c0.2-0.2,0.4-0.6,0.5-0.9
	c0.1-0.3,0.4-0.8,0.6-1c0.2-0.2,0.6-0.8,0.8-1.3c0.2-0.5,0.5-1,0.7-1.1c0.1-0.1,0.5-0.6,0.7-1.2c0.2-0.5,0.6-1.1,0.7-1.3
	c0.2-0.2,0.4-0.6,0.6-1c0.1-0.4,0.4-0.9,0.7-1.1c0.2-0.3,0.5-0.8,0.6-1.1c0.1-0.3,0.4-0.9,0.7-1.1c0.3-0.3,0.6-0.8,0.8-1.2
	c0.2-0.4,0.5-0.9,0.7-1.2s0.5-0.7,0.7-1.1c0.1-0.4,0.4-0.8,0.6-1c0.2-0.2,0.5-0.7,0.7-1.3c0.2-0.5,0.6-1.1,0.8-1.2
	c0.2-0.2,0.5-0.7,0.6-1.1s0.4-0.9,0.6-1.1c0.2-0.2,0.5-0.7,0.7-1.2c0.2-0.5,0.5-0.9,0.6-1c0.1-0.1,0.4-0.6,0.7-1.1
	c0.3-0.6,0.6-1.2,0.8-1.3c0.2-0.2,0.5-0.7,0.6-1.1c0.1-0.4,0.4-0.9,0.6-1c0.2-0.1,0.5-0.6,0.7-1.1c0.2-0.5,0.5-1.1,0.7-1.2
	c0.6-0.6,0.9-1.8,0.4-1.8c-0.1,0-0.2,0.1-0.2,0.3c0,0.2-0.2,0.6-0.5,0.9c-0.3,0.3-0.6,0.9-0.8,1.3c-0.2,0.4-0.4,0.9-0.6,1
	c-0.2,0.1-0.5,0.7-0.7,1.2c-0.2,0.5-0.6,1.1-0.8,1.2c-0.2,0.2-0.5,0.7-0.6,1.1c-0.1,0.4-0.4,0.9-0.6,1c-0.2,0.1-0.5,0.6-0.7,1.1
	c-0.2,0.5-0.5,1.1-0.7,1.2c-0.2,0.1-0.5,0.6-0.7,1.1c-0.2,0.5-0.5,1-0.7,1.2c-0.2,0.2-0.5,0.7-0.6,1c-0.1,0.3-0.4,0.8-0.7,1.2
	s-0.6,0.9-0.8,1.4c-0.1,0.4-0.4,0.8-0.5,0.9c-0.1,0.1-0.5,0.6-0.7,1.1c-0.3,0.6-0.6,1.2-0.8,1.4c-0.2,0.2-0.4,0.5-0.4,0.8
	c-0.1,0.3-0.4,0.8-0.7,1.2c-0.3,0.4-0.7,1-0.8,1.3c-0.1,0.3-0.4,0.8-0.6,1c-0.2,0.2-0.6,0.8-0.8,1.3c-0.2,0.5-0.5,1-0.7,1.1
	c-0.1,0.1-0.4,0.6-0.6,1c-0.2,0.4-0.5,1-0.8,1.3c-0.2,0.3-0.5,0.8-0.6,1.1c-0.1,0.3-0.4,0.7-0.6,1c-0.2,0.2-0.6,0.8-0.8,1.3
	c-0.2,0.5-0.5,1-0.7,1.1c-0.1,0.1-0.5,0.7-0.7,1.2c-0.2,0.5-0.5,1.1-0.7,1.2c-0.1,0.1-0.4,0.6-0.6,1c-0.2,0.5-0.6,1.1-0.8,1.4
	c-0.2,0.3-0.5,0.8-0.5,1c-0.1,0.2-0.3,0.7-0.5,0.9c-0.2,0.3-0.6,0.8-0.8,1.2c-0.2,0.4-0.5,0.9-0.7,1.2c-0.2,0.2-0.5,0.7-0.6,1.1
	c-0.1,0.4-0.5,0.8-0.8,1.1c-0.3,0.3-0.6,0.8-0.7,1.2c-0.7,2.6-0.8-4.4-0.2-13.6C196,25,196.4,0,196,0C195.9,0,195.8,0.4,195.8,0.9
	 M271.7,1.1c-0.1,0.6-0.4,1.4-0.5,1.7c-0.2,0.3-0.5,1.3-0.7,2.1c-0.2,0.9-0.5,1.9-0.7,2.4s-0.5,1.4-0.6,2c-0.1,0.7-0.4,1.7-0.7,2.2
	c-0.3,0.6-0.6,1.6-0.7,2.2c-0.1,0.7-0.4,1.7-0.7,2.2c-0.3,0.5-0.6,1.6-0.7,2.4c-0.1,0.8-0.4,1.8-0.7,2.2s-0.5,1.3-0.6,2
	c-0.1,0.7-0.4,1.7-0.7,2.2c-0.3,0.5-0.6,1.6-0.7,2.2c-0.1,0.7-0.4,1.7-0.7,2.2s-0.6,1.7-0.7,2.5c-0.1,0.8-0.4,1.7-0.6,2
	c-0.2,0.3-0.5,1.3-0.7,2.1c-0.2,0.9-0.5,1.9-0.7,2.4s-0.5,1.4-0.6,2c-0.1,0.7-0.4,1.7-0.7,2.2c-0.3,0.5-0.6,1.6-0.7,2.4
	c-0.1,0.8-0.4,1.8-0.7,2.3c-0.3,0.6-0.5,1.4-0.7,2.5c-0.1,0.9-0.4,2-0.6,2.4c-0.2,0.4-0.4,1.2-0.5,1.8c-0.1,0.7-0.4,1.3-0.7,1.8
	c-0.5,0.7-0.7,1.5-0.9,2.9c-0.1,0.5-0.3,1.3-0.6,1.8c-0.4,0.8-0.5,1.2-0.5,2c0,1-0.3,2.3-0.8,3c-0.1,0.2-0.3,0.6-0.3,0.9
	c-0.1,0.7-0.8,2.4-1.3,3.3c-0.2,0.3-0.4,1.2-0.5,1.9c-0.1,0.7-0.3,1.6-0.5,2c-0.2,0.4-0.5,1.6-0.7,2.6c-0.3,1.3-0.5,2.2-0.9,2.9
	c-0.3,0.6-0.6,1.4-0.7,1.8c-0.1,0.4-0.3,1.2-0.6,1.8c-0.3,0.7-0.5,1.5-0.7,2.5c-0.1,0.8-0.4,2-0.6,2.6c-0.2,0.6-0.5,1.6-0.6,2.2
	c-0.1,0.7-0.4,1.3-0.7,1.7c-0.3,0.4-0.5,1-0.8,2.2c-0.2,0.9-0.4,1.9-0.6,2.2c-0.4,0.7-0.2,1.4,0.6,1.8c0.5,0.3,1.7,0.3,16.8,0.3
	l16.2,0l0.3-0.4c0.8-0.8,1.5-2.5,1.8-4.1c0.2-0.9,0.4-1.9,0.6-2.3c0.2-0.4,0.4-1.2,0.5-1.8c0.2-1.1,0.5-1.8,1-2.5
	c0.2-0.2,0.4-0.9,0.5-1.6c0.1-0.6,0.4-1.5,0.7-2c0.3-0.5,0.5-1.3,0.6-2.2c0.1-0.8,0.4-1.8,0.6-2.2c0.2-0.5,0.5-1.4,0.6-2.1
	c0.2-1,0.4-1.5,0.7-1.9c0.4-0.4,0.5-0.8,0.7-1.7c0.1-0.6,0.4-1.6,0.7-2.2c0.4-0.8,0.5-1.4,0.6-2.4c0.2-1.7,0.3-1.9,0.8-2.1
	c1.2-0.4,1.5,0,1.6,2.4c0.1,1,0.2,1.5,0.5,2.2c0.2,0.5,0.5,1.4,0.7,2.2c0.2,0.9,0.4,1.5,0.7,2.1c0.3,0.4,0.6,1.2,0.7,1.7
	c0.1,0.5,0.4,1.8,0.7,2.8c0.3,1,0.6,2.4,0.7,3.1c0.1,0.7,0.4,1.5,0.6,1.9c0.2,0.4,0.6,1.4,0.8,2.2c0.2,0.8,0.6,1.8,0.7,2
	c0.4,0.9,0.7,2,0.7,3c0,0.7,0.1,1.3,0.5,2.1c0.3,0.6,0.5,1.5,0.6,1.9c0.3,2.3-1.2,2.1,20.9,2.1h18.7l0.3-0.4
	c0.5-0.6,0.4-1.4-0.1-2.5c-0.3-0.5-0.5-1.2-0.6-1.6c-0.2-1-0.5-1.8-0.9-2.3c-0.2-0.2-0.5-0.9-0.6-1.5c-0.2-0.6-0.5-1.4-0.6-1.8
	c-0.2-0.4-0.4-1.1-0.5-1.7c-0.1-1.3-0.4-2.1-0.8-2.6c-0.2-0.2-0.4-1-0.6-1.7c-0.3-1.5-0.5-1.8-1-2.4c-0.2-0.3-0.5-0.8-0.6-1.4
	c-0.1-0.5-0.4-1.4-0.7-1.8c-0.4-0.6-0.5-1.1-0.5-1.7c0-1-0.3-2-0.7-2.6c-0.2-0.2-0.4-1-0.6-1.6c-0.3-1.5-0.4-1.6-1-2.6
	c-0.3-0.5-0.6-1.2-0.7-1.6c-0.1-0.4-0.4-1.2-0.7-1.8c-0.5-0.9-0.6-1.3-0.6-2.1c0-0.8-0.1-1.2-0.5-2c-1-1.9-0.8-3.2,0.5-3.6
	c0.4-0.1,0.8-0.3,1-0.4c0.2-0.1,1.2-0.4,2.1-0.6c1-0.2,2-0.5,2.4-0.7c0.4-0.2,1.2-0.5,1.9-0.6c0.7-0.2,1.5-0.4,1.8-0.7
	c0.3-0.2,1-0.5,1.5-0.7s1.2-0.5,1.5-0.7c0.3-0.3,0.9-0.6,1.2-0.7c1.2-0.4,3.4-1.5,3.7-1.8c0.2-0.2,0.6-0.5,0.8-0.6
	c0.3-0.1,0.7-0.4,0.9-0.6c0.2-0.2,0.8-0.7,1.2-1.1c0.7-0.6,1.8-1.7,3.3-3.3c0.3-0.3,0.7-0.8,0.8-1s0.4-0.5,0.5-0.6
	c0.2-0.1,0.5-0.5,0.6-0.8c0.2-0.3,0.5-0.8,0.7-1.1c0.2-0.3,0.5-0.8,0.7-1.2c0.1-0.4,0.4-0.9,0.7-1.2c0.2-0.2,0.5-0.8,0.7-1.3
	s0.4-1.1,0.6-1.3c0.2-0.2,0.5-1,0.7-1.6c0.2-0.6,0.5-1.4,0.7-1.6c0.2-0.2,0.5-1.1,0.7-1.8c0.2-0.8,0.5-1.6,0.6-1.8
	c0.4-0.6,0.5-0.8,0.8-2.6c0.1-0.8,0.4-1.9,0.6-2.2c0.5-1.2,0.7-3,0.6-7.6l-0.1-4.2l-0.5-1.1c-0.3-0.6-0.7-1.4-0.9-1.8
	c-0.9-2-3.6-4.9-5.4-5.7c-0.4-0.2-0.9-0.5-1.2-0.7c-0.3-0.2-0.9-0.5-1.4-0.7c-0.5-0.1-1.1-0.4-1.2-0.5c-0.5-0.4-1-0.6-2.6-0.8
	c-2.1-0.3-2.2-0.4-2.2-0.8c0-0.3-0.1-0.3-2-0.3c-2,0-2,0-2,0.4c0.1,0.5,0.9,0.7,4.3,1c2,0.2,2.6,0.3,3.3,0.7
	c0.5,0.3,1.4,0.6,1.9,0.8c0.5,0.2,1.2,0.5,1.5,0.8c0.3,0.3,0.7,0.5,0.8,0.5c0.6,0,3.6,2.7,4.6,4.2c0.3,0.5,0.7,1,0.8,1
	c0.1,0.1,0.4,0.7,0.6,1.3c0.2,0.6,0.5,1.5,0.7,1.8c0.8,1.5,0.7,7.6-0.1,10.1c-0.2,0.7-0.5,1.9-0.6,2.8c-0.1,1-0.3,1.8-0.7,2.4
	c-0.3,0.5-0.6,1.5-0.8,2.2c-0.2,0.7-0.4,1.5-0.6,1.8c-0.2,0.2-0.5,0.9-0.6,1.6c-0.2,0.6-0.5,1.3-0.7,1.5s-0.5,0.8-0.6,1.3
	c-0.1,0.5-0.5,1.2-0.7,1.5c-0.2,0.4-0.6,1-0.7,1.4c-0.2,0.4-0.5,1-0.7,1.2c-0.2,0.3-0.5,0.8-0.7,1.2c-0.1,0.4-0.4,0.7-0.6,0.8
	c-0.2,0.1-0.4,0.4-0.6,0.7c-0.2,0.4-2.1,2.4-5.3,5.4c-0.3,0.3-0.7,0.5-0.9,0.6c-0.2,0.1-0.6,0.3-0.9,0.6c-1.2,1.1,2.3,1-42.9,1
	c-31.8,0-41.2,0-41.3-0.2c-0.3-0.3-0.2-1,0.3-2c0.3-0.6,0.6-1.7,0.7-2.5c0.1-0.8,0.4-1.7,0.6-2c0.2-0.3,0.5-1.3,0.7-2.2
	c0.2-0.9,0.5-1.9,0.7-2.4s0.5-1.4,0.6-2c0.1-0.7,0.4-1.7,0.7-2.2c0.3-0.5,0.6-1.6,0.7-2.2c0.1-0.7,0.4-1.7,0.7-2.2
	c0.3-0.5,0.6-1.6,0.7-2.4c0.1-0.8,0.4-1.8,0.7-2.2c0.2-0.4,0.5-1.3,0.6-2c0.1-0.7,0.4-1.7,0.7-2.2c0.3-0.5,0.6-1.6,0.7-2.2
	c0.1-0.7,0.4-1.7,0.7-2.2c0.3-0.5,0.6-1.6,0.7-2.4c0.1-0.8,0.4-1.7,0.6-2c0.2-0.3,0.5-1.3,0.7-2.2c0.2-0.9,0.5-2,0.7-2.4
	c0.2-0.4,0.5-1.5,0.7-2.2c0.1-0.8,0.4-1.7,0.6-2c0.6-1,1.1-3.9,0.6-3.9C272,0,271.8,0.4,271.7,1.1 M300.1,25.4
	c-0.6,0.4-1.3,1.9-1.6,3.2c-0.1,0.6-0.4,1.6-0.7,2.2s-0.6,1.6-0.7,2.4c-0.1,0.8-0.4,1.6-0.6,1.9c-0.2,0.3-0.5,1.2-0.7,2.1
	c-0.2,0.9-0.5,1.9-0.7,2.3c-0.2,0.4-0.5,1.2-0.6,1.9c-0.1,0.6-0.4,1.6-0.7,2.2c-1.7,3.6-1.6,3.6,8,3.5c7.6-0.1,8.2-0.1,9.1-0.8
	c0.2-0.2,0.8-0.4,1.2-0.6c0.4-0.2,1.1-0.5,1.4-0.9c0.3-0.3,0.7-0.6,0.9-0.7c0.2-0.1,0.3-0.2,0.3-0.2c0-0.1,0.4-0.5,0.8-1
	c1.4-1.4,1.8-2.1,2.1-2.9c0.2-0.5,0.5-1,0.7-1.3c0.2-0.3,0.5-0.9,0.6-1.4c0.1-0.5,0.4-1.4,0.6-2c0.6-1.3,0.7-4.3,0.2-5.2
	c-0.2-0.3-0.4-0.8-0.6-1.2c-0.3-0.7-1.9-2.3-2.2-2.3c-0.1,0-0.7-0.3-1.4-0.6l-1.3-0.6l-6.8,0C301.3,25.2,300.4,25.2,300.1,25.4
	 M312.7,25.8c1.5,0.3,4.1,1.3,4.4,1.7c0.2,0.2,0.5,0.5,0.8,0.7c0.3,0.2,0.5,0.5,0.6,1c0.1,0.4,0.3,1.3,0.5,2l0.3,1.2l-0.4,1.9
	c-0.7,2.9-0.7,3.2-1.2,4c-0.3,0.4-0.5,0.9-0.6,1.2c-0.1,0.3-0.4,0.8-0.8,1.3c-0.4,0.4-0.7,0.9-0.7,1c0,0.2-1.5,1.7-2.6,2.6
	c-0.3,0.3-1.1,0.7-1.6,0.9c-0.5,0.2-1.2,0.5-1.5,0.7c-0.9,0.5-2.6,0.7-9.1,0.6c-7.8,0-7.7,0-6.7-1.7c0.2-0.5,0.6-1.5,0.8-2.3
	c0.2-0.8,0.5-1.7,0.7-2c0.2-0.3,0.5-1.3,0.7-2.2c0.2-0.9,0.5-1.9,0.7-2.3c0.2-0.4,0.5-1.3,0.7-2.1c0.1-0.8,0.4-1.6,0.6-2
	c0.2-0.3,0.5-1.3,0.7-2.2c0.2-1,0.5-1.8,0.7-2.2c0.2-0.3,0.5-0.8,0.5-1.1c0.1-0.3,0.2-0.5,0.4-0.6C300.8,25.6,311.6,25.6,312.7,25.8
	 M99.5,44.6c0,0.4-0.3,0.7-0.4,0.4c-0.1-0.3,0-0.8,0.2-0.8C99.4,44.2,99.5,44.3,99.5,44.6 M220.9,44.4c0.1,0.4-0.2,1.6-0.4,1.5
	c-0.1-0.1-0.2-0.3-0.2-0.7C220.3,44.3,220.7,43.8,220.9,44.4 M43.6,56.3c0.3,0.4,0.1,1.2-0.4,2.1c-0.2,0.4-1,3.2-1,3.7
	c0,0.5-29.2,0.9-30.6,0.4c-0.5-0.2-0.5-0.5-0.1-1.3c0.2-0.3,0.5-1.3,0.7-2.2c0.4-1.8,0.5-2.1,1.2-2.6l0.5-0.4h14.7
	C43.3,56,43.3,56,43.6,56.3 M90.3,56.2c0.3,0.3,0.1,0.9-0.5,1.7c-0.3,0.4-0.6,0.9-0.8,1.3c-0.2,0.4-0.4,0.8-0.6,0.9
	c-0.2,0.1-0.5,0.6-0.7,1.1c-0.7,1.5,0.9,1.4-19.5,1.4c-16.4,0-17.9,0-18.2-0.3c-0.3-0.2-0.3-0.6-0.3-3.1c0-2.9,0-3,0.8-3.2
	C51.4,55.9,90.1,56,90.3,56.2 M127.5,56.3c0.3,0.4,0.1,1.5-0.4,2.3c-0.2,0.3-0.5,1.2-0.6,2.1c-0.2,0.8-0.4,1.6-0.5,1.7
	c-0.4,0.4-30.8,0.4-31,0c-0.2-0.4,0-1.6,0.6-2.5c0.2-0.4,0.5-1.3,0.6-2c0.2-1.4,0.3-1.5,1-1.7C98.6,55.8,127.3,56,127.5,56.3
	 M165,56.4c0.2,0.5-0.1,1.9-0.5,2.7c-0.2,0.3-0.4,1.1-0.6,1.7c-0.1,0.7-0.3,1.3-0.4,1.5c-0.2,0.3-0.7,0.3-14.9,0.3
	c-16.7,0-16.1,0-15.5-1.1c0.1-0.2,0.3-1,0.4-1.7c0.2-1.3,0.8-2.8,1.4-3.5l0.3-0.4H150h14.8L165,56.4 M211.8,56.3
	c0.3,0.4,0,1.5-0.6,2c-0.2,0.1-0.5,0.6-0.7,1c-0.2,0.4-0.6,1-0.8,1.3s-0.5,0.8-0.6,1c-0.2,1,0.9,0.9-18.7,1c-16.4,0-18.1,0-18.5-0.2
	l-0.5-0.3l-0.1-2.6c-0.1-2.9-0.1-2.9,0.6-3.3C172.9,55.8,211.4,55.9,211.8,56.3 M249,56.4c0.3,0.5,0.1,1.7-0.5,2.9
	c-0.3,0.5-0.6,1.4-0.7,2c-0.1,0.5-0.3,1.1-0.4,1.2c-0.2,0.2-2.8,0.2-15.5,0.2h-15.3l-0.2-0.4c-0.2-0.3-0.1-0.6,0.3-1.5
	c0.3-0.6,0.6-1.4,0.6-1.7C218,55.6,216,56,234,56l14.8,0L249,56.4 M322.9,56.2c0.9,0.2,1,0.4,0.8,1.1c-0.2,0.7,0.1,3.1,0.7,4.2
	c0.7,1.3,4,1.2-34.8,1.2c-36.2,0-35.9,0-35.5-0.6c0.4-0.7,0.6-1.5,0.9-2.8c0.3-1.5,0.5-2,1.2-2.8l0.4-0.5l32.8,0
	C308.2,56,322.5,56.1,322.9,56.2 M39.7,68.3c0.3,0.5,0,1.9-0.5,2.9c-0.3,0.5-0.5,1.2-0.6,1.6c-0.2,1.2-0.4,1.6-0.9,1.7
	C36,74.9,8.5,74.7,8.1,74.3c-0.3-0.3-0.4-0.4-0.3-0.6c0.1-0.2,0.2-0.9,0.3-1.5c0.2-1.1,1-3.2,1.5-3.9C9.8,68,13,68,24.7,68h14.8
	L39.7,68.3 M82.6,68.2c0.7,0.3,0.7,0.3,0.2,0.9c-0.2,0.2-0.3,0.5-0.3,0.6s-0.2,0.5-0.5,0.8c-0.3,0.3-0.7,1-0.9,1.5
	c-0.2,0.5-0.5,0.9-0.6,0.9c-0.1,0-0.3,0.3-0.5,0.7c-0.2,0.4-0.5,0.7-0.8,0.8c-0.6,0.2-27.8,0.2-28.6,0c-0.8-0.2-0.8-0.3-0.8-3.5
	l0-2.6l0.6-0.2C51.4,67.9,81.8,67.9,82.6,68.2 M123.7,68.3c0.3,0.5,0,2.3-0.6,3.4c-0.2,0.4-0.5,1-0.5,1.5c-0.1,0.4-0.2,0.9-0.4,1.1
	l-0.2,0.4l-15.2,0c-17.4-0.1-16.1,0.1-15.3-1.5c0.2-0.5,0.6-1.5,0.7-2.3c0.3-1.6,0.5-2,1.2-2.5C94.2,67.8,123.4,67.8,123.7,68.3
	 M161.1,68.3c0.4,0.4,0,2.6-0.7,3.7c-0.2,0.4-0.4,1-0.5,1.3c-0.2,1.4,1.2,1.2-15.3,1.2c-17.2,0-15.4,0.2-15-2.1
	c0.1-0.8,0.4-1.7,0.7-2.1c0.2-0.4,0.5-1,0.5-1.3c0.2-1.3-1.1-1.2,15.4-1.2C160.4,68,160.8,68,161.1,68.3 M204.6,68.4
	c0.3,0.3,0.3,0.3-0.1,0.8c-0.2,0.3-0.5,0.7-0.7,1c-0.1,0.3-0.5,0.9-0.9,1.4c-0.3,0.5-0.6,1-0.6,1.1c0,0.1-0.2,0.5-0.5,0.8
	c-0.3,0.3-0.7,0.7-0.9,0.9l-0.3,0.4l-14,0c-13.7,0-14,0-14.6-0.3l-0.5-0.3v-2.7v-2.7l0.5-0.3C172.8,67.8,204.1,67.9,204.6,68.4
	 M245.1,68.3c0.4,0.4,0,2.8-0.7,4.1c-0.2,0.4-0.4,0.9-0.4,1.1c0,0.2-0.2,0.5-0.3,0.7l-0.3,0.4h-14.7c-15.4,0-16,0-15.7-0.7
	c0.2-0.4,0.6-1.9,0.8-2.9c0.1-0.6,0.3-1.3,0.5-1.5c0.2-0.2,0.3-0.5,0.3-0.6c0-0.1,0.2-0.3,0.4-0.5l0.4-0.4H230
	C244.3,68,244.8,68,245.1,68.3 M286.1,68.3c0.4,0.4,0.3,0.6-0.2,1.6c-0.3,0.5-0.6,1.4-0.7,2c-0.5,3.1,1.4,2.8-17.9,2.8
	c-18.7,0-16.8,0.2-16.4-2c0.1-0.8,0.4-1.6,0.6-1.9c0.2-0.3,0.4-0.9,0.5-1.4c0.3-1.5-1.4-1.4,17.3-1.4C284.1,68,285.8,68,286.1,68.3
	 M326.4,68.4c0.9,1.2,1.1,1.8,1.4,2.9c0.1,0.7,0.4,1.6,0.7,2c0.5,0.9,0.3,1.1-0.9,1.3c-1.6,0.2-35.5,0-36-0.2
	c-0.4-0.2-0.6-0.7-0.9-2.7c-0.1-0.4-0.3-1.2-0.6-1.8c-1-2.1-2.9-1.9,18-1.9h18L326.4,68.4 M35.7,80.3c0.2,0.2,0.3,0.5,0.2,1
	c-0.2,1.5-0.5,2.3-0.8,2.7c-0.2,0.2-0.4,0.8-0.5,1.2c-0.4,1.5,1.2,1.4-15.4,1.4c-14.5,0-14.7,0-14.9-0.3c-0.3-0.5-0.1-2,0.5-3.3
	c0.3-0.6,0.5-1.3,0.6-1.8C5.7,79.9,4.2,80,20.8,80C35,80,35.5,80,35.7,80.3 M75.5,80.2c0.3,0.3,0.2,0.8-0.3,1.4
	c-0.3,0.3-0.6,0.9-0.8,1.3c-0.2,0.4-0.4,0.8-0.6,1s-0.5,0.6-0.7,1.1c-0.3,0.6-0.6,1-1.1,1.3l-0.7,0.4h-10c-8.8,0-10.1,0-10.7-0.3
	L50,86.1v-2.8v-2.8l0.5-0.2C51.3,79.9,75.1,79.9,75.5,80.2 M119.8,80.3c0.3,0.2,0.4,0.4,0.3,0.7c-0.1,0.2-0.2,1-0.3,1.7
	c-0.1,0.7-0.4,1.5-0.6,1.8s-0.4,0.7-0.4,1c-0.1,0.3-0.2,0.7-0.4,0.9l-0.2,0.4h-14.8c-16.2,0-15.7,0-15.4-0.9c0.1-0.2,0.2-1,0.3-1.7
	c0.1-0.7,0.4-1.7,0.7-2.1c0.2-0.4,0.4-0.9,0.4-1c0-0.1,0.1-0.4,0.3-0.6l0.3-0.4h14.8C118,80,119.5,80,119.8,80.3 M157.2,80.3
	c0.4,0.2,0.5,0.3,0.4,0.5c-0.1,0.2-0.3,0.9-0.4,1.7c-0.2,0.8-0.5,1.8-0.7,2.3c-0.2,0.5-0.5,1.1-0.6,1.3l-0.2,0.4l-14.9,0l-14.9,0
	l-0.2-0.3c-0.2-0.4,0-1.7,0.6-2.8c0.2-0.4,0.5-1.1,0.5-1.5c0.2-1.5,0.4-1.9,0.8-2C128.8,79.9,156.7,80,157.2,80.3 M197,80.2
	c0.3,0.3,0.1,1-0.5,1.6c-0.3,0.3-0.6,0.8-0.8,1.2c-0.2,0.4-0.5,0.9-0.7,1.1c-0.2,0.2-0.5,0.8-0.7,1.2c-0.6,1.4-0.2,1.3-11.7,1.3
	c-12.1,0-10.8,0.4-10.9-3.3l-0.1-2.7l0.5-0.4l0.5-0.4h12.1C195.2,80,196.8,80,197,80.2 M241.5,80.3l0.5,0.3l-0.3,0.5
	c-0.2,0.3-0.4,0.8-0.4,1.2c-0.2,1.5-0.5,2.4-0.8,2.8c-0.2,0.2-0.3,0.5-0.3,0.6s-0.2,0.3-0.4,0.5l-0.4,0.4h-14.8
	c-16.9,0-15.4,0.1-15.2-1.5c0.2-1.4,0.4-1.9,0.7-2.4c0.2-0.3,0.4-0.9,0.5-1.3c0.4-1.6-1.2-1.4,15.5-1.4
	C240.5,80,240.9,80,241.5,80.3 M282.3,80.4c0.2,0.4,0,1.4-0.5,2.1c-0.2,0.2-0.4,1.1-0.6,2c-0.4,1.7-0.4,1.7-1.1,2
	c-1.1,0.4-32.7,0.3-33-0.1c-0.2-0.4,0-1.4,0.5-2.4c0.2-0.4,0.5-1.3,0.6-2.1c0.3-2-1.9-1.8,17.7-1.8l16.3,0L282.3,80.4 M330.4,80.3
	c0.6,0.4,1.2,1.5,1.4,2.8c0.1,0.6,0.4,1.4,0.6,1.7c0.5,0.8,0.6,1.2,0.4,1.6c-0.2,0.3-0.2,0.3-18.8,0.3c-21,0-19,0.1-19.3-1.3
	c-0.1-0.4-0.3-1-0.5-1.4c-0.7-1.3-1-3.2-0.6-3.7C294,79.9,329.8,79.9,330.4,80.3 M67.8,92.2c0.3,0.4,0.3,0.4,0.1,0.9
	c-0.1,0.3-0.3,0.6-0.3,0.7c0,0.1-0.2,0.4-0.4,0.6c-0.2,0.2-0.6,0.7-0.8,1.2c-0.2,0.5-0.6,1-1,1.3l-0.7,0.5H58c-6.5,0-6.8,0-7.3-0.3
	l-0.5-0.3v-2c0-1.8,0-2,0.4-2.3c0.6-0.5,0.4-0.5,8.9-0.5l8,0L67.8,92.2 M115.9,92c0.8,0.2,0.9,0.5,0.5,1.4c-0.2,0.4-0.4,1.2-0.5,1.9
	c-0.4,2.3,1.1,2.1-16.5,2.1l-14.7,0l-0.2-0.4c-0.2-0.3-0.1-0.6,0.3-1.5c0.3-0.6,0.6-1.4,0.6-1.8c0.2-1.3,0.4-1.6,1-1.7
	C87.7,91.8,115.3,91.8,115.9,92 M153.2,92c0.9,0.3,1.1,0.5,0.6,1.2c-0.2,0.3-0.5,1.1-0.7,2c-0.2,0.8-0.3,1.6-0.4,1.7
	c-0.3,0.5-1.6,0.5-15.4,0.5c-15.3,0-15.2,0-15-0.9c0.1-0.2,0.2-1,0.4-1.9c0.4-2,0.4-2,1.1-2.4l0.6-0.4l14,0
	C147.5,91.8,152.8,91.9,153.2,92 M189.3,92.2l0.5,0.3l-0.4,0.9c-0.2,0.5-0.7,1.2-0.9,1.5c-0.3,0.3-0.6,0.9-0.7,1.3
	c-0.4,1.2-0.6,1.2-8.4,1.2c-8.2,0-7.4,0.3-7.4-2.8c0-3-0.9-2.7,8.9-2.7C188.3,91.8,188.8,91.9,189.3,92.2 M237.4,91.9
	c1,0.2,1.1,0.6,0.5,1.8c-0.3,0.5-0.6,1.3-0.6,1.6c-0.3,2.1,1.4,1.9-15.9,1.9c-16.8,0-16,0.1-15.1-1.5c0.2-0.4,0.5-1.4,0.6-2
	c0.2-1.4,0.3-1.6,1.2-1.8C208.6,91.8,236.3,91.8,237.4,91.9 M278.3,92.2c0.3,0.5,0.1,2-0.4,2.7c-0.2,0.3-0.4,0.7-0.4,0.9
	c-0.1,0.3-0.2,0.7-0.4,0.9l-0.3,0.5h-16.1c-18.3,0-16.9,0.1-16.6-1.3c0.1-0.4,0.2-1.2,0.3-1.8c0.2-0.8,0.3-1.1,0.9-1.7l0.7-0.7h16
	h16L278.3,92.2 M334.7,92.3c0.7,0.5,0.7,0.5,1.2,2.8c0.1,0.5,0.3,1,0.4,1.1c1.1,1.2,1.2,1.2-19,1.2c-21.4,0-19.5,0.2-19.9-2.1
	c-0.1-0.7-0.3-1.5-0.5-1.8c-0.7-1.6-2-1.5,18.9-1.5l18.1,0L334.7,92.3"/>
<path id="path2" class="st1" d="M29.8,1.4c-0.2,0.8-0.4,1.7-0.5,2.1c-0.1,0.4-0.3,1-0.5,1.3C28.7,5,28.4,6,28.2,6.9
	c-0.2,0.9-0.5,1.9-0.7,2.2c-0.2,0.3-0.5,1.3-0.7,2.2c-0.2,0.9-0.5,1.9-0.7,2.2c-0.2,0.3-0.5,1.3-0.7,2.2c-0.2,0.9-0.5,1.9-0.7,2.2
	c-0.2,0.3-0.5,1.2-0.6,2c-0.1,0.8-0.5,1.8-0.7,2.4c-0.3,0.5-0.6,1.6-0.7,2.2c-0.1,0.7-0.4,1.6-0.6,2c-0.2,0.4-0.5,1.3-0.7,2.2
	c-0.1,0.8-0.4,1.8-0.6,2.2c-0.5,1-0.5,1.1-0.8,2.5c-0.1,0.6-0.4,1.4-0.6,1.8c-0.2,0.4-0.5,1.1-0.6,1.7c-0.4,2-0.5,2.5-0.9,2.9
	c-0.2,0.3-0.4,1.1-0.6,1.9c-0.1,0.8-0.4,1.8-0.7,2.3c-0.2,0.4-0.6,1.5-0.7,2.4c-0.2,0.9-0.4,1.8-0.6,2c-0.5,0.7-0.7,1.8-0.5,2.2
	l0.2,0.4l14.8,0c17.7,0,15.9,0.3,16.5-2.9c0.2-0.9,0.5-1.8,0.7-2.1c0.2-0.3,0.5-1.1,0.6-1.9c0.8-4.2,1.6-3,1.8,2.8
	c0.1,1.9,0.2,3.6,0.3,3.8c0.1,0.3,1.4,0.3,22.2,0.3h22.1l0.3-0.4c0.2-0.2,0.5-0.6,0.7-0.8c0.2-0.2,0.5-0.6,0.6-1
	c0.1-0.3,0.5-1,0.8-1.4c0.3-0.4,0.6-0.9,0.6-1s0.3-0.6,0.7-1c0.4-0.4,0.7-1,0.8-1.2c0.1-0.3,0.2-0.6,0.4-0.8
	c1.2-1.1,1.6,1.5,0.5,3.6c-0.3,0.6-0.6,1.5-0.7,2.2c-0.3,2-2,1.8,15.2,1.8c17.7,0,15.8,0.3,16.4-2.9c0.2-0.9,0.5-1.8,0.7-2.1
	c0.2-0.3,0.5-1.1,0.6-2c0.2-0.9,0.4-1.8,0.7-2.2c0.3-0.4,0.5-1.3,0.7-2.2c0.1-0.8,0.4-1.7,0.6-2.1c0.4-0.6,0.6-1.5,0.8-3
	c0.1-0.4,0.3-1,0.5-1.4c0.2-0.4,0.6-1.4,0.7-2.3s0.5-1.8,0.7-2.2c0.2-0.3,0.5-1.3,0.7-2.2c0.2-0.9,0.5-1.9,0.7-2.2
	c0.2-0.3,0.5-1.2,0.6-2c0.1-0.8,0.5-1.8,0.7-2.4c0.3-0.5,0.6-1.5,0.7-2.2c0.1-0.6,0.4-1.5,0.6-2c0.2-0.4,0.5-1.4,0.7-2.2
	c0.1-0.7,0.5-1.8,0.7-2.4s0.6-1.6,0.7-2.4c0.1-0.8,0.4-1.6,0.6-1.9c0.2-0.3,0.5-1.1,0.6-1.9c0.3-1.7,0.4-1.9,0.7-2.5
	c0.3-0.4,0.7-1.7,0.7-2.2C145.2,0,143,0,123.4,0h-21.8l-0.1,0.5c-0.1,0.3-0.3,0.7-0.5,0.9c-0.2,0.2-0.5,0.7-0.7,1.2
	c-0.1,0.4-0.4,0.9-0.6,1.1C99.4,3.9,99,4.5,98.8,5c-0.2,0.5-0.5,1-0.6,1.1c-0.1,0.1-0.4,0.6-0.7,1.2c-0.3,0.6-0.6,1.1-0.7,1.1
	c-0.1,0.1-0.4,0.5-0.5,0.9c-0.2,0.5-0.4,1-0.7,1.2c-0.2,0.2-0.5,0.8-0.7,1.2c-0.2,0.5-0.5,1-0.7,1.2c-0.2,0.2-0.4,0.6-0.6,1
	c-0.2,0.4-0.4,0.9-0.7,1.1c-0.2,0.2-0.5,0.8-0.7,1.2c-0.2,0.4-0.4,0.9-0.6,1.1c-0.2,0.2-0.5,0.7-0.7,1.2c-0.2,0.5-0.5,1.1-0.7,1.3
	c-0.2,0.2-0.4,0.6-0.6,1c-0.1,0.4-0.4,0.8-0.6,1c-0.2,0.2-0.5,0.7-0.7,1.2c-0.2,0.5-0.6,1-0.7,1.2c-0.2,0.2-0.5,0.7-0.6,1.1
	c-0.2,0.4-0.5,1-0.7,1.2s-0.5,0.7-0.7,1.1s-0.5,1-0.8,1.5c-0.3,0.5-0.6,0.9-0.6,1.1c0,0.1-0.2,0.5-0.5,0.8c-0.3,0.3-0.6,0.9-0.8,1.3
	c-0.2,0.4-0.5,1-0.7,1.2c-0.3,0.3-0.5,0.8-0.7,1.1c-0.1,0.3-0.4,0.8-0.6,1.1c-0.2,0.3-0.5,0.8-0.7,1.1c-0.1,0.4-0.4,0.8-0.6,1.1
	c-0.2,0.2-0.5,0.8-0.7,1.2c-0.2,0.4-0.5,1-0.8,1.3c-0.3,0.3-0.5,0.6-0.5,0.7c0,0.3-0.6,1.4-1,1.8c-0.2,0.2-0.4,0.5-0.4,0.8
	c-0.1,0.3-0.3,0.7-0.6,1c-0.2,0.3-0.7,1-0.9,1.5c-0.6,1.1-0.8,1.2-1.3,0.6C72.8,45.8,73.2,21.5,74,8c0.1-1.4,0.2-3.8,0.2-5.3l0-2.7
	h-22h-22L29.8,1.4 M151.7,0.4c0,0.2-0.1,0.7-0.3,1c-0.2,0.3-0.4,1.1-0.5,1.8c-0.1,0.7-0.4,1.6-0.6,2.1c-0.2,0.5-0.6,1.5-0.7,2.4
	c-0.2,0.9-0.5,1.8-0.7,2.1c-0.2,0.3-0.5,1.3-0.7,2.2s-0.5,1.9-0.7,2.2c-0.2,0.3-0.5,1.2-0.6,2c-0.1,0.8-0.5,1.8-0.7,2.4
	c-0.3,0.5-0.6,1.6-0.7,2.2c-0.1,0.7-0.4,1.6-0.6,1.9c-0.2,0.4-0.5,1.4-0.7,2.2c-0.2,0.8-0.4,1.8-0.7,2.1c-0.4,0.6-0.6,1.5-0.8,3
	c-0.1,0.4-0.3,1.1-0.6,1.6c-0.3,0.5-0.5,1.1-0.5,1.3c0,0.8-0.5,2.6-0.8,3.1c-0.2,0.2-0.5,1.2-0.7,2.2c-0.2,0.9-0.5,1.9-0.7,2.2
	c-0.3,0.4-0.6,1.3-0.8,2.8c-0.1,0.4-0.3,1-0.5,1.5c-0.2,0.4-0.6,1.5-0.7,2.4c-0.2,0.9-0.5,1.8-0.6,2.1c-1.2,1.9-2.3,1.8,14.6,1.8
	c17.5,0,15.9,0.2,16.4-2.2c0.1-0.6,0.4-1.6,0.7-2.2c0.3-0.6,0.6-1.5,0.7-2.2c0.2-1.2,0.6-2.1,0.9-2.1c0.7,0,1.1,1.8,1.1,5.7l0,2.7
	l0.6,0.2c0.4,0.1,7.7,0.2,22.2,0.2l21.5,0l0.7-0.7c0.4-0.4,0.8-1,1-1.4c0.2-0.4,0.4-0.8,0.6-0.9s0.4-0.6,0.6-1
	c0.2-0.4,0.5-1,0.8-1.2c0.2-0.3,0.6-0.9,0.9-1.3c0.4-0.8,0.5-0.9,1-0.9l0.6-0.1l-0.1,1.6c-0.1,1.3-0.1,1.7-0.6,2.6
	c-0.6,1.3-0.8,2.5-0.6,3l0.2,0.4l14.8,0c17.7,0,16.1,0.2,16.5-2.3c0.1-0.6,0.4-1.6,0.7-2.1c0.3-0.6,0.6-1.5,0.7-2.2
	c0.1-0.6,0.4-1.5,0.6-1.9c0.2-0.4,0.5-1.4,0.7-2.2c0.1-0.8,0.4-1.7,0.7-2.1c0.2-0.4,0.6-1.4,0.7-2.3c0.2-0.9,0.5-1.9,0.7-2.2
	c0.2-0.3,0.5-1.2,0.6-2c0.1-0.8,0.5-1.8,0.7-2.4s0.6-1.5,0.7-2.2c0.1-0.6,0.4-1.5,0.6-2c0.2-0.5,0.6-1.5,0.7-2.4s0.5-1.8,0.7-2.1
	c0.2-0.3,0.5-1.3,0.7-2.2c0.2-0.9,0.5-1.9,0.7-2.2c0.2-0.3,0.5-1.3,0.7-2.2c0.2-0.9,0.5-1.8,0.6-2.1c0.3-0.4,0.5-1.3,0.8-2.8
	c0.1-0.4,0.3-1.1,0.6-1.7s0.6-1.5,0.7-2.1c0.1-0.6,0.4-1.6,0.7-2.1c0.3-0.6,0.5-1.3,0.6-2.1l0.1-1.1h-21.9h-21.9v0.4
	c0,0.5-0.3,1.1-0.7,1.4C222,2,221.7,2.5,221.5,3c-0.2,0.5-0.5,1-0.7,1.1c-0.2,0.1-0.4,0.5-0.6,1c-0.1,0.4-0.4,1-0.6,1.1
	c-0.2,0.2-0.6,0.8-0.8,1.3c-0.3,0.6-0.6,1.1-0.7,1.1c-0.1,0.1-0.4,0.5-0.6,1c-0.2,0.5-0.5,1-0.7,1.2c-0.2,0.2-0.5,0.7-0.6,1.1
	s-0.4,0.9-0.6,1.1c-0.2,0.2-0.5,0.7-0.8,1.2c-0.2,0.5-0.5,1.1-0.7,1.3c-0.2,0.2-0.4,0.6-0.6,1c-0.2,0.4-0.4,0.9-0.7,1.1
	s-0.5,0.8-0.7,1.2c-0.2,0.4-0.5,1-0.8,1.2c-0.3,0.3-0.6,0.8-0.7,1.1c-0.1,0.3-0.4,0.8-0.6,1.1c-0.2,0.3-0.5,0.8-0.7,1.1
	c-0.1,0.4-0.4,0.8-0.6,1c-0.2,0.2-0.5,0.8-0.7,1.3c-0.2,0.5-0.5,1-0.7,1.2c-0.1,0.1-0.4,0.6-0.7,1.1c-0.2,0.5-0.6,1.1-0.8,1.3
	c-0.2,0.2-0.5,0.7-0.6,1c-0.1,0.3-0.3,0.7-0.5,0.9c-0.2,0.2-0.5,0.7-0.7,1.2c-0.2,0.5-0.6,1.1-0.7,1.2c-0.1,0.1-0.4,0.6-0.7,1.1
	c-0.2,0.5-0.6,1.1-0.8,1.3c-0.2,0.2-0.5,0.7-0.6,1c-0.1,0.3-0.4,0.9-0.8,1.3c-0.3,0.4-0.6,0.9-0.6,1c0,0.2-0.2,0.5-0.5,0.9
	s-0.6,0.9-0.9,1.4c-0.2,0.5-0.5,1-0.7,1c-0.2,0.1-0.4,0.5-0.6,1c-0.2,0.5-0.4,1-0.6,1.2c-0.2,0.2-0.6,0.8-0.9,1.3
	c-0.6,1.1-0.8,1.2-1.3,0.5c-0.5-0.8-0.3-16.8,0.4-29.3c0.1-2.3,0.3-6.8,0.3-9.9c0.1-3.1,0.1-6.1,0.2-6.6l0.1-1h-22.1h-22.1V0.4
	 M272.2,1.4c-0.1,0.9-0.4,1.8-0.7,2.5c-0.3,0.6-0.6,1.6-0.7,2.3c-0.1,0.7-0.4,1.6-0.6,2c-0.2,0.5-0.6,1.5-0.7,2.4
	c-0.2,0.9-0.5,1.9-0.7,2.2c-0.2,0.3-0.5,1.2-0.6,2c-0.1,0.8-0.5,1.9-0.7,2.4c-0.3,0.5-0.6,1.6-0.7,2.2c-0.1,0.7-0.4,1.7-0.7,2.2
	c-0.3,0.5-0.6,1.6-0.7,2.2c-0.1,0.7-0.4,1.6-0.6,2c-0.2,0.4-0.5,1.4-0.7,2.2c-0.1,0.8-0.5,1.9-0.7,2.4c-0.3,0.5-0.6,1.6-0.7,2.2
	c-0.1,0.7-0.4,1.7-0.7,2.2c-0.3,0.5-0.6,1.6-0.7,2.2c-0.1,0.7-0.4,1.6-0.6,2s-0.6,1.5-0.7,2.4c-0.2,0.9-0.5,1.8-0.7,2.2
	c-0.2,0.3-0.5,1.2-0.6,2c-0.1,0.8-0.5,1.9-0.7,2.5c-0.5,1.1-0.6,1.7-0.3,2c0.2,0.2,9.6,0.2,41.3,0.2c45.1,0,41.7,0.1,42.9-1
	c0.3-0.3,0.7-0.5,0.9-0.6c0.2-0.1,0.6-0.3,0.9-0.6c3.2-3,5.1-5,5.3-5.4c0.1-0.3,0.4-0.6,0.6-0.7c0.2-0.1,0.4-0.5,0.6-0.8
	c0.1-0.4,0.5-0.9,0.7-1.2c0.2-0.3,0.6-0.8,0.7-1.2c0.2-0.4,0.5-1,0.7-1.4c0.2-0.3,0.5-1,0.7-1.5c0.1-0.5,0.4-1.1,0.6-1.3
	s0.5-0.9,0.7-1.5c0.2-0.6,0.5-1.3,0.6-1.6c0.2-0.2,0.5-1,0.6-1.8c0.2-0.7,0.5-1.7,0.8-2.2c0.3-0.6,0.5-1.4,0.7-2.4
	c0.1-0.8,0.4-2.1,0.6-2.8c0.8-2.5,0.9-8.6,0.1-10.1c-0.2-0.4-0.5-1.2-0.7-1.8c-0.2-0.6-0.5-1.2-0.6-1.3c-0.1-0.1-0.5-0.5-0.8-1
	c-1-1.5-3.9-4.2-4.6-4.2c-0.1,0-0.5-0.2-0.8-0.5c-0.3-0.3-1-0.6-1.5-0.8c-0.5-0.2-1.4-0.5-1.9-0.8c-0.8-0.4-1.3-0.5-3.3-0.7
	c-3.4-0.4-4.2-0.6-4.3-1L339.3,0h-33.5h-33.5L272.2,1.4 M315.3,25.9c0.7,0.3,1.3,0.6,1.4,0.6c0.3,0,1.9,1.6,2.2,2.3
	c0.2,0.4,0.5,1,0.6,1.2c0.5,0.9,0.4,3.9-0.2,5.2c-0.2,0.5-0.5,1.4-0.6,2c-0.1,0.5-0.4,1.2-0.6,1.4c-0.2,0.3-0.5,0.8-0.7,1.3
	c-0.3,0.9-0.8,1.5-2.1,2.9c-0.4,0.5-0.8,0.9-0.8,1c0,0.1-0.1,0.2-0.3,0.2c-0.2,0.1-0.6,0.4-0.9,0.7c-0.3,0.3-1,0.7-1.4,0.9
	c-0.4,0.2-1,0.4-1.2,0.6c-0.8,0.6-1.4,0.7-9.1,0.8c-9.6,0.1-9.7,0.1-8-3.5c0.3-0.6,0.6-1.5,0.7-2.2c0.1-0.6,0.4-1.5,0.6-1.9
	c0.2-0.4,0.6-1.4,0.7-2.3c0.2-0.9,0.5-1.8,0.7-2.1c0.2-0.3,0.5-1.1,0.6-1.9c0.1-0.8,0.5-1.8,0.7-2.4s0.6-1.5,0.7-2.2
	c0.2-1.2,0.9-2.7,1.6-3.2c0.3-0.2,1.2-0.3,7.2-0.2l6.8,0L315.3,25.9 M13.3,56.4c-0.7,0.6-0.8,0.8-1.2,2.6c-0.2,0.9-0.5,1.8-0.7,2.2
	c-0.5,0.7-0.4,1.1,0.1,1.3c1.4,0.5,30.6,0.2,30.6-0.4c0-0.5,0.7-3.3,1-3.7c0.5-0.9,0.7-1.7,0.4-2.1c-0.2-0.3-0.2-0.3-15-0.3H13.9
	L13.3,56.4 M50.4,56.1c-0.7,0.2-0.8,0.3-0.8,3.2c0,2.5,0,2.8,0.3,3.1c0.3,0.3,1.8,0.3,18.2,0.3c20.4,0,18.9,0.1,19.5-1.4
	c0.2-0.5,0.5-1,0.7-1.1c0.2-0.1,0.4-0.5,0.6-0.9c0.2-0.4,0.5-1,0.8-1.3c0.6-0.8,0.8-1.3,0.5-1.7C90.1,56,51.4,55.9,50.4,56.1
	 M97.2,56.1c-0.7,0.1-0.8,0.3-1,1.7c-0.1,0.7-0.4,1.6-0.6,2c-0.5,1-0.8,2.1-0.6,2.5c0.2,0.4,30.6,0.4,31,0c0.1-0.1,0.3-0.9,0.5-1.7
	c0.2-0.8,0.5-1.8,0.6-2.1c0.5-0.9,0.7-2,0.4-2.3C127.3,56,98.6,55.8,97.2,56.1 M134.9,56.4c-0.6,0.7-1.2,2.2-1.4,3.5
	c-0.1,0.7-0.3,1.5-0.4,1.7c-0.6,1.2-1.2,1.1,15.5,1.1c14.2,0,14.8,0,14.9-0.3c0.1-0.2,0.3-0.9,0.4-1.5c0.1-0.7,0.4-1.4,0.6-1.7
	c0.5-0.8,0.8-2.2,0.5-2.7l-0.2-0.4H150h-14.8L134.9,56.4 M171.9,56.2c-0.8,0.3-0.8,0.4-0.6,3.3l0.1,2.6l0.5,0.3
	c0.5,0.2,2.1,0.3,18.5,0.2c19.6-0.1,18.4,0,18.7-1c0.1-0.3,0.3-0.7,0.6-1s0.6-0.9,0.8-1.3c0.2-0.4,0.5-0.9,0.7-1
	c0.6-0.5,0.9-1.6,0.6-2C211.4,55.9,172.9,55.8,171.9,56.2 M218.6,56.3c-0.7,0.3-0.8,0.5-1.2,2.8c-0.1,0.4-0.3,1.1-0.6,1.7
	c-0.4,0.9-0.5,1.1-0.3,1.5l0.2,0.4H232c12.7,0,15.3,0,15.5-0.2c0.1-0.1,0.3-0.7,0.4-1.2c0.1-0.5,0.4-1.4,0.7-2
	c0.6-1.2,0.8-2.4,0.5-2.9l-0.2-0.4L234,56C220,56,219.2,56,218.6,56.3 M256.1,56.5c-0.7,0.8-1,1.3-1.2,2.8c-0.2,1.2-0.5,2-0.9,2.8
	c-0.3,0.6-0.6,0.6,35.5,0.6c38.7,0,35.4,0.1,34.8-1.2c-0.5-1.1-0.9-3.4-0.7-4.2c0.4-1.3,2.3-1.2-34.3-1.2l-32.8,0L256.1,56.5
	 M9.7,68.2c-0.5,0.7-1.4,2.9-1.5,3.9c-0.1,0.7-0.3,1.4-0.3,1.5c-0.1,0.2-0.1,0.4,0.3,0.6c0.4,0.3,27.9,0.6,29.5,0.2
	c0.6-0.1,0.8-0.5,0.9-1.7c0.1-0.4,0.3-1.1,0.6-1.6c0.6-1,0.8-2.4,0.5-2.9L39.5,68H24.7C13,68,9.8,68,9.7,68.2 M50.5,68.2l-0.6,0.2
	l0,2.6c-0.1,3.2,0,3.2,0.8,3.5c0.8,0.2,27.9,0.3,28.6,0c0.2-0.1,0.6-0.5,0.8-0.8c0.2-0.4,0.4-0.7,0.5-0.7c0.1,0,0.4-0.4,0.6-0.9
	c0.2-0.5,0.6-1.2,0.9-1.5c0.3-0.3,0.5-0.7,0.5-0.8s0.2-0.4,0.3-0.6C83.7,68,84,68,66.5,68C55,68,50.9,68.1,50.5,68.2 M93.4,68.3
	c-0.7,0.5-0.9,0.9-1.2,2.5c-0.1,0.8-0.4,1.9-0.7,2.3c-0.8,1.6-2.1,1.4,15.3,1.5l15.2,0l0.2-0.4c0.1-0.2,0.3-0.7,0.4-1.1
	c0.1-0.4,0.3-1.1,0.5-1.5c0.6-1,0.9-2.9,0.6-3.4C123.4,67.8,94.2,67.8,93.4,68.3 M131.1,68.3c-0.1,0.2-0.3,0.6-0.4,0.9
	c-0.1,0.3-0.3,0.9-0.5,1.3c-0.2,0.4-0.5,1.3-0.7,2.1c-0.4,2.3-2.2,2.1,15,2.1c16.5,0,15.1,0.1,15.3-1.2c0.1-0.4,0.3-1,0.5-1.3
	c0.6-1.1,1-3.3,0.7-3.7C160.6,67.8,131.6,67.8,131.1,68.3 M172,68.3l-0.5,0.3v2.7V74l0.5,0.3c0.5,0.3,0.9,0.3,14.6,0.3l14,0l0.3-0.4
	c0.2-0.2,0.6-0.6,0.9-0.9c0.3-0.3,0.5-0.7,0.5-0.8c0-0.1,0.3-0.6,0.6-1.1c0.3-0.5,0.7-1.1,0.9-1.4c0.1-0.3,0.4-0.7,0.7-1
	c0.4-0.4,0.4-0.5,0.1-0.8C204.1,67.9,172.8,67.8,172,68.3 M214.9,68.4c-0.2,0.2-0.4,0.4-0.4,0.5c0,0.1-0.1,0.3-0.3,0.6
	c-0.2,0.2-0.4,0.9-0.5,1.5c-0.2,1-0.6,2.5-0.8,2.9c-0.3,0.7,0.3,0.7,15.7,0.7h14.7l0.3-0.4c0.2-0.2,0.3-0.6,0.3-0.7
	c0-0.2,0.2-0.6,0.4-1.1c0.2-0.4,0.6-1.5,0.7-2.3c0.5-2.4,2.2-2.1-15.2-2.1h-14.8L214.9,68.4 M252.5,68.3c-0.1,0.2-0.3,0.6-0.4,1.1
	c-0.1,0.4-0.3,1-0.5,1.4c-0.2,0.3-0.5,1.2-0.6,1.9c-0.4,2.2-2.4,2,16.4,2c19.3,0,17.3,0.3,17.9-2.8c0.1-0.6,0.4-1.5,0.7-2
	c0.6-1,0.6-1.2,0.2-1.6C285.6,67.8,252.8,67.9,252.5,68.3 M289.9,68.3c-0.4,0.4-0.3,0.5,0.2,1.7c0.3,0.6,0.5,1.3,0.6,1.8
	c0.3,2,0.5,2.4,0.9,2.7c0.5,0.2,34.4,0.4,36,0.2c1.2-0.2,1.4-0.4,0.9-1.3c-0.2-0.4-0.5-1.3-0.7-2c-0.2-1.1-0.5-1.7-1.4-2.9l-0.3-0.4
	h-18C292,68,290.2,68,289.9,68.3 M5.8,80.3c-0.1,0.2-0.3,0.6-0.4,1c-0.1,0.4-0.3,1.2-0.6,1.8c-0.6,1.3-0.9,2.8-0.5,3.3
	c0.2,0.3,0.4,0.3,14.9,0.3c16.6,0,15,0.1,15.4-1.4c0.1-0.5,0.3-1,0.5-1.2c0.3-0.4,0.5-1.3,0.8-2.7c0.2-1.4,1.5-1.3-15.2-1.3
	C7,80,6,80,5.8,80.3 M50.5,80.2L50,80.5v2.8v2.8l0.7,0.3c0.6,0.2,1.9,0.3,10.7,0.3h10l0.7-0.4c0.4-0.3,0.8-0.7,1.1-1.3
	c0.2-0.5,0.5-1,0.7-1.1s0.4-0.6,0.6-1c0.2-0.4,0.5-1,0.8-1.3c0.5-0.6,0.6-1,0.3-1.4C75.1,79.9,51.3,79.9,50.5,80.2 M89.6,80.4
	c-0.1,0.2-0.3,0.5-0.3,0.6c0,0.1-0.2,0.6-0.4,1c-0.2,0.4-0.5,1.4-0.7,2.1c-0.1,0.7-0.3,1.5-0.3,1.7c-0.2,1-0.8,0.9,15.4,0.9h14.8
	l0.2-0.4c0.1-0.2,0.3-0.6,0.4-0.9c0.1-0.3,0.3-0.7,0.4-1s0.4-1,0.6-1.8c0.1-0.7,0.3-1.5,0.3-1.7c0.3-1,0.9-1-15.4-1H89.9L89.6,80.4
	 M127.5,80.1c-0.4,0.1-0.5,0.5-0.8,2c-0.1,0.4-0.3,1-0.5,1.5c-0.6,1.1-0.8,2.3-0.6,2.8l0.2,0.3l14.9,0l14.9,0l0.2-0.4
	c0.1-0.2,0.4-0.8,0.6-1.3c0.2-0.5,0.6-1.5,0.7-2.3c0.2-0.8,0.4-1.6,0.4-1.7c0.3-0.8,0.2-0.8-15.3-0.8
	C134.4,80,127.7,80.1,127.5,80.1 M172.1,80.4l-0.5,0.4l0.1,2.7c0.1,3.7-1.2,3.3,10.9,3.3c11.5,0,11.2,0,11.7-1.3
	c0.2-0.4,0.5-1,0.7-1.2c0.2-0.2,0.5-0.7,0.7-1.1c0.2-0.4,0.5-0.9,0.8-1.2c0.6-0.7,0.8-1.3,0.5-1.6c-0.2-0.2-1.8-0.2-12.3-0.2h-12.1
	L172.1,80.4 M211.1,80.3c-0.1,0.2-0.3,0.7-0.5,1.1c-0.1,0.5-0.3,1.1-0.5,1.3c-0.3,0.5-0.5,1-0.7,2.4c-0.3,1.7-1.8,1.5,15.2,1.5h14.8
	l0.4-0.4c0.2-0.2,0.4-0.4,0.4-0.5s0.1-0.3,0.3-0.6c0.3-0.4,0.5-1.3,0.8-2.8c0.1-0.4,0.2-0.9,0.4-1.2l0.3-0.5l-0.5-0.3
	C240.7,79.8,211.6,79.8,211.1,80.3 M249.2,80.1c-0.7,0.1-0.8,0.3-1,1.7c-0.1,0.7-0.4,1.7-0.6,2.1c-0.5,1-0.8,2-0.5,2.4
	c0.2,0.4,31.8,0.5,33,0.1c0.8-0.3,0.8-0.2,1.1-2c0.2-0.9,0.5-1.8,0.6-2c0.5-0.7,0.7-1.7,0.5-2.1l-0.2-0.4l-16.3,0
	C256.9,80,249.4,80.1,249.2,80.1 M293.7,80.3c-0.4,0.5-0.1,2.4,0.6,3.7c0.2,0.4,0.4,1,0.5,1.4c0.2,1.4-1.7,1.3,19.3,1.3
	c18.6,0,18.6,0,18.8-0.3c0.2-0.4,0.1-0.8-0.4-1.6c-0.2-0.3-0.5-1.1-0.6-1.7c-0.2-1.3-0.8-2.4-1.4-2.8
	C329.8,79.9,294,79.9,293.7,80.3 M2.7,92c-0.8,0.2-0.8,0.3-1.2,2c-0.3,1.7-0.7,2.3-1.2,2.3c-0.6,0-0.4,0.6,0.3,0.8
	c0.3,0.1,7.1,0.2,15,0.2c17.3,0.1,15.7,0.4,16.2-2.8c0.1-0.6,0.3-1.3,0.4-1.5c0.1-0.4,0.1-0.5-0.3-0.8l-0.4-0.4l-14.1,0
	C8.6,91.9,3,91.9,2.7,92 M51.2,92c-0.9,0.3-1,0.7-1,2.7v2l0.5,0.3c0.5,0.3,0.9,0.3,7.3,0.3h6.8l0.7-0.5c0.4-0.3,0.8-0.8,1-1.3
	c0.2-0.4,0.5-1,0.8-1.2c0.2-0.2,0.4-0.5,0.4-0.6c0-0.1,0.1-0.4,0.3-0.7c0.2-0.5,0.2-0.5-0.1-0.9l-0.4-0.4l-8,0
	C55,91.9,51.3,91.9,51.2,92 M86.4,92c-0.6,0.1-0.8,0.4-1,1.7c-0.1,0.4-0.3,1.2-0.6,1.8c-0.4,0.9-0.5,1.1-0.3,1.5l0.2,0.4l14.7,0
	c17.5,0,16.1,0.2,16.5-2.1c0.1-0.6,0.4-1.5,0.5-1.9c0.4-0.9,0.3-1.2-0.5-1.4C115.3,91.8,87.7,91.8,86.4,92 M124,92.2
	c-0.7,0.4-0.7,0.4-1.1,2.4c-0.2,0.8-0.4,1.7-0.4,1.9c-0.3,0.9-0.4,0.9,15,0.9c13.8,0,15.1,0,15.4-0.5c0.1-0.1,0.2-0.8,0.4-1.7
	c0.2-0.8,0.5-1.7,0.7-2c0.9-1.3,0.8-1.3-15.3-1.3l-14,0L124,92.2 M172.3,92.2c-0.4,0.3-0.4,0.4-0.4,2.4c0,3-0.7,2.8,7.4,2.8
	c7.8,0,8,0,8.4-1.2c0.1-0.4,0.5-1,0.7-1.3c0.3-0.3,0.7-1,0.9-1.5l0.4-0.9l-0.5-0.3C188.4,91.6,172.9,91.7,172.3,92.2 M208,92
	c-0.8,0.2-0.9,0.4-1.2,1.8c-0.1,0.7-0.4,1.6-0.6,2c-0.8,1.5-1.7,1.5,15.1,1.5c17.2,0,15.5,0.2,15.9-1.9c0.1-0.4,0.3-1.1,0.6-1.6
	c0.6-1.2,0.5-1.7-0.5-1.8C236.3,91.8,208.6,91.8,208,92 M245.2,92.5c-0.6,0.6-0.7,0.9-0.9,1.7c-0.1,0.6-0.3,1.3-0.3,1.8
	c-0.3,1.4-1.7,1.3,16.6,1.3h16.1l0.3-0.5c0.1-0.3,0.3-0.7,0.4-0.9c0.1-0.3,0.3-0.7,0.4-0.9c0.5-0.7,0.7-2.2,0.4-2.7l-0.3-0.4h-16
	h-16L245.2,92.5 M297.3,92.1c-0.7,0.4-0.7,0.4-0.3,1.2c0.2,0.3,0.4,1.2,0.5,1.8c0.4,2.3-1.6,2.1,19.9,2.1c20.3,0,20.1,0,19-1.2
	c-0.1-0.1-0.3-0.6-0.4-1.1c-0.6-2.3-0.6-2.3-1.2-2.8l-0.7-0.5l-18.1,0C298.6,91.8,297.9,91.8,297.3,92.1"/>
<g>
	<path class="st2" d="M65.6,103.7V123h-4.4l0-13.1L59.4,123h-3.1l-1.8-12.8l0,12.8h-4.4v-19.3h6.5c0.2,1.2,0.4,2.5,0.6,4.1l0.7,4.9
		l1.2-9H65.6z"/>
	<path class="st2" d="M79.1,115c0,1.9,0,3.3-0.1,4.1c-0.1,0.8-0.4,1.5-0.9,2.2c-0.5,0.7-1.1,1.2-2,1.5c-0.8,0.4-1.8,0.5-2.9,0.5
		c-1,0-2-0.2-2.8-0.5c-0.8-0.3-1.5-0.8-2-1.5c-0.5-0.7-0.8-1.4-0.9-2.2c-0.1-0.8-0.1-2.2-0.1-4.2v-3.3c0-1.9,0-3.3,0.1-4.1
		c0.1-0.8,0.4-1.5,0.9-2.2c0.5-0.7,1.1-1.2,2-1.5c0.8-0.4,1.8-0.5,2.9-0.5c1,0,2,0.2,2.8,0.5c0.8,0.3,1.5,0.8,2,1.5
		c0.5,0.7,0.8,1.4,0.9,2.2s0.1,2.2,0.1,4.2V115z M74.1,108.7c0-0.9,0-1.5-0.1-1.7c-0.1-0.2-0.3-0.4-0.6-0.4c-0.3,0-0.5,0.1-0.6,0.3
		s-0.2,0.8-0.2,1.8v9c0,1.1,0,1.8,0.1,2.1c0.1,0.3,0.3,0.4,0.6,0.4c0.3,0,0.6-0.2,0.7-0.5c0.1-0.3,0.1-1,0.1-2.2V108.7z"/>
	<path class="st2" d="M81,103.7h5c1.6,0,2.8,0.1,3.6,0.4c0.8,0.2,1.5,0.7,2,1.5c0.5,0.8,0.8,2,0.8,3.6c0,1.1-0.2,1.9-0.5,2.4
		c-0.4,0.4-1.1,0.8-2.1,1c1.2,0.3,2,0.7,2.4,1.3s0.6,1.5,0.6,2.8v1.8c0,1.3-0.1,2.3-0.4,2.9c-0.3,0.6-0.8,1.1-1.4,1.3
		c-0.7,0.2-2,0.3-4,0.3H81V103.7z M86,107v4.3c0.2,0,0.4,0,0.5,0c0.5,0,0.8-0.1,0.9-0.4c0.1-0.2,0.2-0.9,0.2-2.1
		c0-0.6-0.1-1-0.2-1.3c-0.1-0.2-0.3-0.4-0.4-0.5C86.9,107.1,86.5,107,86,107z M86,114.3v5.4c0.7,0,1.2-0.1,1.4-0.3
		c0.2-0.2,0.3-0.7,0.3-1.5v-1.8c0-0.8-0.1-1.3-0.3-1.5C87.2,114.4,86.8,114.3,86,114.3z"/>
	<path class="st2" d="M99.5,103.7V123h-5v-19.3H99.5z"/>
	<path class="st2" d="M106.6,103.7v15.5h3.1v3.9h-8.1v-19.3H106.6z"/>
	<path class="st2" d="M110.8,103.7h8.4v3.9h-3.4v3.7h3.1v3.7h-3.1v4.3h3.7v3.9h-8.7V103.7z"/>
	<path class="st2" d="M140.8,103.7V123h-4.4l0-13.1l-1.7,13.1h-3.1l-1.8-12.8l0,12.8h-4.4v-19.3h6.5c0.2,1.2,0.4,2.5,0.6,4.1
		l0.7,4.9l1.2-9H140.8z"/>
	<path class="st2" d="M142.8,103.7h8.4v3.9h-3.4v3.7h3.1v3.7h-3.1v4.3h3.7v3.9h-8.7V103.7z"/>
	<path class="st2" d="M153,103.7h3.8c2.4,0,4.1,0.1,4.9,0.3c0.9,0.2,1.5,0.6,2,1.1s0.7,1.1,0.8,1.7s0.2,1.9,0.2,3.7v6.8
		c0,1.7-0.1,2.9-0.2,3.5s-0.4,1-0.9,1.4c-0.4,0.3-0.9,0.6-1.5,0.7c-0.6,0.1-1.5,0.2-2.7,0.2H153V103.7z M158,107v12.7
		c0.7,0,1.2-0.1,1.3-0.4c0.2-0.3,0.3-1.1,0.3-2.4v-7.5c0-0.9,0-1.4-0.1-1.7c-0.1-0.2-0.2-0.4-0.4-0.5C159,107.1,158.6,107,158,107z"
		/>
	<path class="st2" d="M171.5,103.7V123h-5v-19.3H171.5z"/>
	<path class="st2" d="M185.3,112.1h-5v-3.4c0-1-0.1-1.6-0.2-1.8c-0.1-0.2-0.3-0.4-0.7-0.4c-0.4,0-0.7,0.1-0.8,0.4
		c-0.1,0.3-0.2,0.9-0.2,1.9v9c0,0.9,0.1,1.6,0.2,1.8c0.1,0.3,0.4,0.4,0.8,0.4c0.4,0,0.6-0.1,0.7-0.4s0.2-1,0.2-2v-2.4h5v0.8
		c0,2-0.1,3.4-0.4,4.3s-0.9,1.6-1.9,2.2s-2.2,0.9-3.6,0.9c-1.5,0-2.7-0.3-3.6-0.8c-1-0.5-1.6-1.3-1.9-2.2s-0.5-2.4-0.5-4.3v-5.6
		c0-1.4,0-2.4,0.1-3.1c0.1-0.7,0.4-1.4,0.9-2c0.5-0.6,1.1-1.2,2-1.5s1.8-0.6,2.9-0.6c1.5,0,2.7,0.3,3.7,0.9s1.6,1.3,1.9,2.1
		c0.3,0.9,0.5,2.2,0.5,4V112.1z"/>
	<path class="st2" d="M195.8,103.7l2.9,19.3h-5.1l-0.3-3.5h-1.8l-0.3,3.5H186l2.6-19.3H195.8z M193.1,116.1
		c-0.3-2.2-0.5-4.9-0.8-8.1c-0.5,3.7-0.8,6.4-1,8.1H193.1z"/>
	<path class="st2" d="M204.6,103.7v15.5h3.1v3.9h-8.1v-19.3H204.6z"/>
	<path class="st2" d="M213.1,103.7h3.6c2.4,0,4,0.1,4.8,0.3c0.8,0.2,1.5,0.7,2.1,1.4c0.5,0.8,0.8,2,0.8,3.6c0,1.5-0.2,2.5-0.6,3
		s-1.1,0.8-2.2,0.9c1,0.2,1.7,0.6,2,1c0.3,0.4,0.6,0.8,0.6,1.1c0.1,0.3,0.1,1.3,0.1,2.9v5.1h-4.7v-6.4c0-1-0.1-1.7-0.2-1.9
		c-0.2-0.2-0.6-0.4-1.3-0.4v8.7h-5V103.7z M218.2,107v4.3c0.6,0,1-0.1,1.2-0.2s0.3-0.7,0.3-1.5v-1.1c0-0.6-0.1-1-0.3-1.2
		S218.7,107,218.2,107z"/>
	<path class="st2" d="M226.3,103.7h8.4v3.9h-3.4v3.7h3.1v3.7h-3.1v4.3h3.7v3.9h-8.7V103.7z"/>
	<path class="st2" d="M247.1,109.6h-4.7v-1.4c0-0.7-0.1-1.1-0.2-1.3c-0.1-0.2-0.3-0.3-0.6-0.3c-0.3,0-0.5,0.1-0.7,0.4
		s-0.2,0.6-0.2,1.1c0,0.6,0.1,1.1,0.3,1.5c0.2,0.3,0.6,0.7,1.4,1.2c2.2,1.3,3.6,2.4,4.2,3.3s0.9,2.2,0.9,4.1c0,1.4-0.2,2.4-0.5,3
		c-0.3,0.7-0.9,1.2-1.9,1.6c-0.9,0.4-2,0.7-3.2,0.7c-1.3,0-2.5-0.3-3.4-0.8c-1-0.5-1.6-1.2-1.9-1.9c-0.3-0.8-0.4-1.9-0.4-3.4v-1.3
		h4.7v2.4c0,0.7,0.1,1.2,0.2,1.4c0.1,0.2,0.4,0.3,0.7,0.3c0.3,0,0.6-0.1,0.7-0.4s0.2-0.7,0.2-1.2c0-1.1-0.2-1.9-0.5-2.2
		c-0.3-0.4-1.1-0.9-2.4-1.8c-1.2-0.8-2.1-1.4-2.5-1.8c-0.4-0.4-0.7-0.9-1-1.6s-0.4-1.5-0.4-2.5c0-1.5,0.2-2.6,0.6-3.2
		c0.4-0.7,1-1.2,1.8-1.6c0.8-0.4,1.9-0.6,3.1-0.6c1.3,0,2.4,0.2,3.3,0.6c0.9,0.4,1.5,1,1.8,1.6c0.3,0.6,0.4,1.7,0.4,3.3V109.6z"/>
	<path class="st2" d="M249.1,103.7h5.1c1.4,0,2.4,0.1,3.2,0.3c0.7,0.2,1.3,0.5,1.7,0.9c0.4,0.4,0.6,0.9,0.8,1.5
		c0.1,0.6,0.2,1.5,0.2,2.7v1.7c0,1.2-0.1,2.1-0.4,2.7s-0.7,1-1.4,1.3c-0.7,0.3-1.6,0.5-2.7,0.5h-1.3v7.8h-5V103.7z M254.1,107v4.9
		c0.1,0,0.3,0,0.4,0c0.5,0,0.8-0.1,1-0.3c0.2-0.2,0.3-0.7,0.3-1.4v-1.6c0-0.7-0.1-1.1-0.3-1.3C255.2,107.1,254.8,107,254.1,107z"/>
	<path class="st2" d="M272.9,115c0,1.9,0,3.3-0.1,4.1c-0.1,0.8-0.4,1.5-0.9,2.2c-0.5,0.7-1.1,1.2-2,1.5c-0.8,0.4-1.8,0.5-2.9,0.5
		c-1,0-2-0.2-2.8-0.5c-0.8-0.3-1.5-0.8-2-1.5c-0.5-0.7-0.8-1.4-0.9-2.2s-0.1-2.2-0.1-4.2v-3.3c0-1.9,0-3.3,0.1-4.1
		c0.1-0.8,0.4-1.5,0.9-2.2c0.5-0.7,1.1-1.2,2-1.5c0.8-0.4,1.8-0.5,2.9-0.5c1,0,2,0.2,2.8,0.5c0.8,0.3,1.5,0.8,2,1.5
		c0.5,0.7,0.8,1.4,0.9,2.2s0.1,2.2,0.1,4.2V115z M267.9,108.7c0-0.9,0-1.5-0.1-1.7c-0.1-0.2-0.3-0.4-0.6-0.4c-0.3,0-0.5,0.1-0.6,0.3
		c-0.1,0.2-0.2,0.8-0.2,1.8v9c0,1.1,0,1.8,0.1,2.1s0.3,0.4,0.6,0.4c0.3,0,0.6-0.2,0.7-0.5c0.1-0.3,0.1-1,0.1-2.2V108.7z"/>
	<path class="st2" d="M286,103.7V123h-4.4l-2.6-8.8v8.8h-4.2v-19.3h4.2l2.8,8.7v-8.7H286z"/>
	<path class="st2" d="M298.7,109.6H294v-1.4c0-0.7-0.1-1.1-0.2-1.3c-0.1-0.2-0.3-0.3-0.6-0.3c-0.3,0-0.5,0.1-0.7,0.4
		s-0.2,0.6-0.2,1.1c0,0.6,0.1,1.1,0.3,1.5c0.2,0.3,0.6,0.7,1.4,1.2c2.2,1.3,3.6,2.4,4.2,3.3s0.9,2.2,0.9,4.1c0,1.4-0.2,2.4-0.5,3
		c-0.3,0.7-0.9,1.2-1.9,1.6c-0.9,0.4-2,0.7-3.2,0.7c-1.3,0-2.5-0.3-3.4-0.8c-1-0.5-1.6-1.2-1.9-1.9c-0.3-0.8-0.4-1.9-0.4-3.4v-1.3
		h4.7v2.4c0,0.7,0.1,1.2,0.2,1.4c0.1,0.2,0.4,0.3,0.7,0.3c0.3,0,0.6-0.1,0.7-0.4s0.2-0.7,0.2-1.2c0-1.1-0.2-1.9-0.5-2.2
		c-0.3-0.4-1.1-0.9-2.4-1.8c-1.2-0.8-2.1-1.4-2.5-1.8c-0.4-0.4-0.7-0.9-1-1.6s-0.4-1.5-0.4-2.5c0-1.5,0.2-2.6,0.6-3.2
		c0.4-0.7,1-1.2,1.8-1.6c0.8-0.4,1.9-0.6,3.1-0.6c1.3,0,2.4,0.2,3.3,0.6c0.9,0.4,1.5,1,1.8,1.6c0.3,0.6,0.4,1.7,0.4,3.3V109.6z"/>
	<path class="st2" d="M300.6,103.7h8.4v3.9h-3.4v3.7h3.1v3.7h-3.1v4.3h3.7v3.9h-8.7V103.7z"/>
</g>
<rect y="103.5" class="st1" width="40.9" height="19.8"/>
<rect x="317.9" y="103.5" class="st1" width="40.9" height="19.8"/>
</svg>
