<?xml version="1.0" encoding="utf-8"?>
<!-- Generator: Adobe Illustrator 25.4.1, SVG Export Plug-In . SVG Version: 6.00 Build 0)  -->
<svg version="1.1" id="Layer_1" xmlns="http://www.w3.org/2000/svg" xmlns:xlink="http://www.w3.org/1999/xlink" x="0px" y="0px"
	 viewBox="0 0 583.3 447.3" style="enable-background:new 0 0 583.3 447.3;" xml:space="preserve">
<style type="text/css">
	.st0{fill-rule:evenodd;clip-rule:evenodd;fill:#B2B2B2;}
	.st1{fill-rule:evenodd;clip-rule:evenodd;fill:#637CA9;}
	.st2{fill-rule:evenodd;clip-rule:evenodd;}
</style>
<path class="st0" d="M49.2,262.2c-6.9,6.9-10.3,15.5-10.3,26.3c0,10.3,3.4,18.5,10.5,24.7c4.1,3.6,11.7,7.7,22.7,12.2
	c9.6,3.9,16.1,7.2,19.6,10.1c5.7,4.8,8.6,11,8.6,18.5c0,6.9-2.2,12.5-6.7,17.2c-4.5,4.6-10,6.9-16.7,6.9c-8.1,0-15.3-2.9-21.1-9.3
	c-5.3-5.3-8.6-11.8-10.3-19.6v-0.3l-14.1,3.4v0.3c2.4,11.5,7.6,20.8,15.6,27.6c8.1,6.5,18,10,29.7,10c11.5,0,20.8-3.4,27.6-10.5
	c7-6.9,10.6-16,10.6-27.3c0-11.2-3.8-20.1-11.3-26.8c-4.5-3.9-12.2-8.4-23.5-13.2c-8.9-3.8-15.1-7-18.4-9.6
	c-5.3-4.5-8.1-10-8.1-16.5c0-6.2,2.1-11.5,6.2-15.8c4.1-4.1,9.1-6.4,15.1-6.4c7.4,0,13.4,2.4,17.7,7.4c3.8,3.9,6.9,10.5,9.4,19.2
	l0.2,0.3l13.2-4v-0.5c-2.9-10.8-7.7-19.2-14.8-25.4c-7-6.2-15.3-9.3-24.9-9.3C65,252.1,56,255.5,49.2,262.2L49.2,262.2z"/>
<path class="st0" d="M186.9,309.6l-0.3,0.3l10,7.4l0.3-0.3c6.5-9.8,14.1-14.6,22.5-14.6c5.5,0,9.8,1.5,12.9,4.3
	c3.1,2.7,4.6,6.7,4.6,11.8v5l-7.7,2.1c-14.3,3.8-24.4,7.6-30.4,11.2c-10,6.4-15.1,15.3-15.1,26.4c0,7.4,2.6,13.7,7.7,19.1
	c5.1,5.3,11.3,8.1,18.7,8.1c5,0,10-1.4,14.9-4.5c3.4-2.1,7.4-5.3,11.8-9.8l1.4,11.5h15.3l-0.2-0.5c-1.5-3.8-2.4-9.6-2.6-17.5v-49.6
	c0-9.8-3.6-17.3-11-22.8c-6-4.5-12.7-6.7-20.4-6.7C206.6,290.4,195.8,296.7,186.9,309.6L186.9,309.6z M228.7,337.4l8.1-2.2V362
	c-3.1,3.6-6.2,6.7-9.8,9.3c-5.5,4-11,5.7-16.5,5.7c-4,0-7.2-1.5-10-4.8c-2.4-3.1-3.8-6.5-3.8-10.3c0-6.7,3.8-12.2,11.2-16.5
	C212.3,342.7,219.3,340.2,228.7,337.4L228.7,337.4z"/>
<polygon class="st0" points="380.9,254.8 366.8,254.8 366.8,387.6 380.9,387.6 380.9,254.8 "/>
<path class="st0" d="M462.6,299.6c-5.7-6.2-13-9.3-22-9.3c-12,0-21.3,4.5-28,13.1c-6.5,8.8-9.8,21.1-9.8,36.9
	c0,15.8,3.3,28.2,9.8,36.9c6.7,8.6,16,13,28,13c7.7,0,14.6-2.1,20.8-5.8c6.2-3.8,10.6-8.9,13.4-15.5v-0.2l-10-6.7l-0.3,0.2
	c-2.1,3.8-4.5,6.7-7.4,9.4c-4.8,4.5-9.8,6.5-15.1,6.5c-7.9,0-13.9-2.9-18.2-9.1c-4.1-6-6.4-14.8-6.4-26.3h56.5v-0.3l0.3-6.7
	c0-7.4-1-14.4-3.1-20.6C469.1,308.9,466.4,303.8,462.6,299.6L462.6,299.6z M439.6,302.4c4.5,0,8.2,1.7,11.3,5
	c2.7,2.9,4.8,6.5,6.4,11c1.4,4.1,2.1,8.1,2.1,12v0.7h-41.6c0.2-7.6,2.1-14.1,5.8-19.6C427.7,305.5,433,302.4,439.6,302.4
	L439.6,302.4z"/>
<path class="st0" d="M497.9,293.1h-14.3l32.4,92.4c-2.2,7-4.5,12-6.9,15.3c-3.4,4.5-8.1,6.9-14.1,6.9l-7.6-1.4l-0.3-0.2l-2.1,12h0.2
	c4,1.2,7.4,1.9,10.3,1.9c9.3,0,16.8-3.3,22.5-9.4c3.9-4.5,7.2-10.8,10-19.6l31.2-97.9H546l-23,72.3L497.9,293.1L497.9,293.1z"/>
<path class="st0" d="M150.8,262.7h-13.9v30.4h-14.2v12h14.2v57.3c0,5.7,0.2,10,0.9,12.9c0.7,4.3,2.2,7.6,4.6,9.8
	c3.3,3.4,8.6,5.2,16.1,5.2c3.9,0,8.4-0.9,13.2-2.7l0.3-0.2v-10.3l-11,1.2c-3.8,0-6.4-0.7-7.9-2.2c-1.5-1.5-2.4-5.5-2.4-11.7v-59.2
	h21.3v-12h-21.3V262.7L150.8,262.7z"/>
<path class="st0" d="M290.7,316.1c2.7-3.4,6.4-6.5,10.6-9.3c4.8-3.1,9.3-4.8,13-4.8c3.6,0,6.4,1,8.4,2.9c1.5,1.7,2.7,4.5,3.3,8.1
	l0.3,74.5h13.9v-65.1c0-21.3-8.1-32.1-24.2-32.1c-4.8,0-9.3,1.2-13.7,3.8c-2.7,1.5-6.7,4.3-11.7,8.2v-9.3h-14.1v94.4h14.1V316.1
	L290.7,316.1z"/>
<path class="st1" d="M553.5,108.4V39.6h-68.8L553.5,108.4L553.5,108.4z M543.1,49.8v32.3L511,49.8H543.1L543.1,49.8z"/>
<polygon class="st2" points="136.5,81.6 112.3,81.6 84.1,190.4 55.2,81.6 31.3,81.6 31.3,214.5 45.9,214.5 45.9,96 77.9,214.5 
	89.9,214.5 121.9,96 121.9,214.5 136.5,214.5 136.5,81.6 "/>
<path class="st2" d="M223.4,130.2c-6.7-8.6-16-13.1-28-13.1c-12,0-21.3,4.5-28,13.1c-6.5,8.8-10,21.1-10,37c0,15.8,3.4,28.2,10,37
	c6.7,8.6,16,13.1,28,13.1c12,0,21.3-4.5,28-13.1c6.5-8.8,10-21.1,10-37C233.3,151.4,229.9,139,223.4,130.2L223.4,130.2z
	 M195.3,129.2c9.3,0,15.8,4.6,19.8,13.8c2.7,6.2,4.1,14.3,4.1,24.2c0,10-1.4,18-4.1,24.4c-4,9.1-10.5,13.6-19.8,13.6
	c-9.1,0-15.8-4.5-19.8-13.6c-2.8-6.4-4.1-14.4-4.1-24.4c0-10,1.4-18.1,4.1-24.2C179.5,133.8,186.2,129.2,195.3,129.2L195.3,129.2z"
	/>
<path class="st2" d="M269.4,139.7v-19.8h-14.1v94.6h14.1v-53.6c3.4-9.1,7.1-16,11-20.8c5.7-6.7,12.4-9.6,19.9-8.6h0.3v-12.9h-5.3
	c-6.4,0-11.7,2.1-16.3,6.4C275.8,128.2,272.5,133.2,269.4,139.7L269.4,139.7z"/>
<path class="st2" d="M365.9,122.3c-6.2-4.5-13.2-6.7-20.6-6.7c-9.8,0-17.7,3.1-24.1,9.1c-6.2,6.2-9.5,14.1-9.5,23.6
	c0,5,0.9,9.5,2.6,13.2c1.4,3.1,4,7,7.7,11.3l-4.5,4.6c-2.6,2.1-4.1,4-5.2,5.3c-1.4,2.1-2.1,4.5-2.1,7.2c0,5.7,3.8,10,11.2,13.1
	c-10.5,4.8-15.6,10.8-15.6,18.4c0,5.7,2.1,10.7,6.5,14.4c6.7,6.4,18.1,9.3,33.9,9.3c13.1,0,23-1.9,29.9-6.2
	c6.9-4.3,10.1-10.3,10.1-18.6c0-10.1-5-17.2-15-21.3c-5.7-2.4-15.3-4.3-28.9-5.5l-13.2-1.7c-3.6-0.9-5.3-2.1-5.3-4
	c0-2.4,2.1-5.2,6.4-8.6l1.4-1c4.8,1.9,9.8,2.9,15,2.9c9.1,0,16.7-3.1,22.9-9.3c6-6.2,9.1-13.9,9.1-22.9v-0.5
	c-0.2-7.6-2.1-14.1-5.8-19.4c2.6-1.4,5.7-2.1,9.5-2.1h5v-11.9C380.3,114.6,373.3,117,365.9,122.3L365.9,122.3z M345.6,126.5
	c6.5,0,11.7,2.4,15.1,7.2c2.9,4,4.3,8.9,4.3,15c0,6.7-1.9,12-5.5,16c-3.6,4-8.8,5.8-15.1,5.8c-6,0-10.7-2.2-14.3-6.9
	c-3.3-4.1-4.8-8.9-4.8-14.8c0-6,1.7-11,5.2-15.3C334.2,128.7,339.4,126.5,345.6,126.5L345.6,126.5z M325,211.7
	c3.1-2.2,7-3.6,11.7-4.5l14.4,0.9c14.4,0.9,21.8,4.8,21.8,11.5c0,5.7-3.3,9.5-9.5,11.9c-4.3,1.7-9.8,2.6-16.5,2.6
	c-18.6,0-27.7-4.5-27.7-13.2C319.3,217.4,321.2,214.3,325,211.7L325,211.7z"/>
<path class="st2" d="M400.1,136.4l-0.2,0.3l10,7.4l0.2-0.3c6.7-9.8,14.1-14.6,22.7-14.6c5.3,0,9.6,1.5,12.9,4.3
	c2.9,2.8,4.5,6.7,4.5,11.9v5l-7.7,2.1c-14.3,3.8-24.4,7.6-30.3,11.2c-10.1,6.4-15.1,15.3-15.1,26.5c0,7.4,2.6,13.8,7.7,19.1
	c5.2,5.3,11.3,8.1,18.6,8.1c5.2,0,10.1-1.4,15-4.5c3.6-2.1,7.6-5.3,12-9.8l1.2,11.5h15.3l-0.2-0.5c-1.4-3.8-2.4-9.6-2.4-17.5v-49.7
	c0-9.8-3.8-17.4-11-22.9c-6-4.5-12.9-6.7-20.5-6.7C419.9,117.2,409,123.5,400.1,136.4L400.1,136.4z M442,164.3l8.1-2.2v26.8
	c-8.3,10-17,15-26.3,15c-3.8,0-7-1.5-9.8-4.8c-2.6-3.1-4-6.5-4-10.3c0-6.7,3.8-12.2,11.2-16.5C425.7,169.6,432.6,167,442,164.3
	L442,164.3z"/>
<path class="st2" d="M503.8,119.9h-14.1v94.6h14.1V143c2.8-3.4,6.4-6.5,10.7-9.3c4.8-3.1,9.1-4.8,13.1-4.8c3.6,0,6.4,1,8.3,2.9
	c1.7,1.7,2.9,4.5,3.4,8.1c0.2,2.1,0.3,5.3,0.3,10l-0.2,64.6h14.1v-65.2c0-21.3-8.1-32.2-24.4-32.2c-4.6,0-9.3,1.2-13.8,3.8
	c-2.7,1.4-6.5,4.1-11.5,8.3V119.9L503.8,119.9z"/>
</svg>
