<?xml version="1.0" encoding="utf-8"?>
<!-- Generator: Adobe Illustrator 25.4.1, SVG Export Plug-In . SVG Version: 6.00 Build 0)  -->
<svg version="1.1" id="Layer_1" xmlns="http://www.w3.org/2000/svg" xmlns:xlink="http://www.w3.org/1999/xlink" x="0px" y="0px"
	 viewBox="0 0 1920 428.3" style="enable-background:new 0 0 1920 428.3;" xml:space="preserve">
<style type="text/css">
	.st0{fill-rule:evenodd;clip-rule:evenodd;fill:#B2B2B2;}
	.st1{fill-rule:evenodd;clip-rule:evenodd;fill:#637CA9;}
	.st2{fill-rule:evenodd;clip-rule:evenodd;}
</style>
<g>
	<path class="st0" d="M1005,127.8c-11,11-16.5,24.7-16.5,42.1c0,16.5,5.5,29.7,16.8,39.6c6.6,5.8,18.7,12.4,36.3,19.5
		c15.4,6.3,25.8,11.5,31.3,16.2c9.1,7.7,13.7,17.6,13.7,29.7c0,11-3.6,20.1-10.7,27.5c-7.1,7.4-15.9,11-26.7,11
		c-12.9,0-24.5-4.7-33.8-14.8c-8.5-8.5-13.7-19-16.5-31.3v-0.6l-22.5,5.5v0.5c3.8,18.4,12.1,33.3,25,44.3
		c12.9,10.4,28.9,15.9,47.6,15.9c18.4,0,33.3-5.5,44.3-16.8c11.3-11,17-25.6,17-43.7c0-17.9-6-32.2-18.1-42.9
		c-7.2-6.3-19.5-13.5-37.7-21.2c-14.3-6.1-24.2-11.3-29.4-15.4c-8.5-7.1-12.9-15.9-12.9-26.4c0-9.9,3.3-18.4,9.9-25.3
		c6.6-6.6,14.6-10.2,24.2-10.2c11.8,0,21.4,3.8,28.3,11.8c6,6.3,11,16.8,15.1,30.8l0.3,0.6l21.2-6.3v-0.8
		c-4.7-17.3-12.4-30.8-23.6-40.7c-11.3-9.9-24.5-14.8-39.9-14.8C1030.3,111.6,1016,117.1,1005,127.8L1005,127.8z"/>
	<path class="st0" d="M1225.5,203.7l-0.6,0.5l15.9,11.8l0.6-0.6c10.4-15.7,22.5-23.4,36-23.4c8.8,0,15.7,2.5,20.6,6.9
		c5,4.4,7.4,10.7,7.4,19v8l-12.4,3.3c-22.8,6-39,12.1-48.7,17.9c-15.9,10.2-24.2,24.5-24.2,42.3c0,11.8,4.1,22,12.4,30.5
		c8.2,8.5,18.1,12.9,30,12.9c8,0,15.9-2.2,23.9-7.1c5.5-3.3,11.8-8.5,19-15.7l2.2,18.4h24.5l-0.3-0.8c-2.5-6-3.8-15.4-4.1-28v-79.4
		c0-15.7-5.8-27.8-17.6-36.6c-9.6-7.1-20.3-10.7-32.7-10.7C1257.1,172.9,1239.8,183.1,1225.5,203.7L1225.5,203.7z M1292.5,248.2
		l12.9-3.6v42.9c-5,5.8-9.9,10.7-15.7,14.8c-8.8,6.3-17.6,9.1-26.4,9.1c-6.3,0-11.5-2.5-15.9-7.7c-3.9-4.9-6-10.4-6-16.5
		c0-10.7,6-19.5,17.9-26.4C1266.2,256.8,1277.4,252.6,1292.5,248.2L1292.5,248.2z"/>
	<polygon class="st0" points="1536.1,116 1513.6,116 1513.6,328.5 1536.1,328.5 1536.1,116 	"/>
	<path class="st0" d="M1667,187.8c-9.1-9.9-20.9-14.8-35.2-14.8c-19.2,0-34.1,7.2-44.8,20.9c-10.4,14-15.7,33.8-15.7,59.1
		c0,25.3,5.2,45.1,15.7,59.1c10.7,13.7,25.6,20.9,44.8,20.9c12.4,0,23.4-3.3,33.3-9.3c9.9-6,17-14.3,21.4-24.7v-0.3l-15.9-10.7
		l-0.5,0.3c-3.3,6-7.1,10.7-11.8,15.1c-7.7,7.1-15.7,10.4-24.2,10.4c-12.6,0-22.3-4.7-29.1-14.6c-6.6-9.6-10.2-23.6-10.2-42.1h90.4
		v-0.6l0.5-10.7c0-11.8-1.6-23.1-4.9-33C1677.4,202.6,1673,194.4,1667,187.8L1667,187.8z M1630.1,192.2c7.1,0,13.2,2.7,18.1,8
		c4.4,4.7,7.7,10.4,10.2,17.6c2.2,6.6,3.3,12.9,3.3,19.2v1.1h-66.5c0.3-12.1,3.3-22.5,9.3-31.3
		C1611.2,197.1,1619.7,192.2,1630.1,192.2L1630.1,192.2z"/>
	<path class="st0" d="M1723.6,177.3h-22.8l52,147.9c-3.6,11.3-7.1,19.2-11,24.5c-5.5,7.1-12.9,11-22.5,11l-12.1-2.2l-0.6-0.3
		l-3.3,19.2h0.3c6.3,1.9,11.8,3,16.5,3c14.8,0,26.9-5.2,36-15.1c6.3-7.1,11.5-17.3,15.9-31.3l50-156.7h-21.4l-36.8,115.7
		L1723.6,177.3L1723.6,177.3z"/>
	<path class="st0" d="M1167.7,128.7h-22.3v48.7h-22.8v19.2h22.8v91.8c0,9.1,0.3,15.9,1.4,20.6c1.1,6.9,3.6,12.1,7.4,15.7
		c5.2,5.5,13.7,8.2,25.8,8.2c6.3,0,13.5-1.4,21.2-4.4l0.5-0.3v-16.5l-17.6,1.9c-6,0-10.2-1.1-12.6-3.6c-2.5-2.5-3.8-8.8-3.8-18.7
		v-94.8h34.1v-19.2h-34.1V128.7L1167.7,128.7z"/>
	<path class="st0" d="M1391.8,214.2c4.4-5.5,10.2-10.4,17-14.8c7.7-4.9,14.8-7.7,20.9-7.7c5.8,0,10.2,1.7,13.5,4.7
		c2.5,2.7,4.4,7.1,5.2,12.9l0.5,119.3h22.3V224.3c0-34.1-12.9-51.4-38.8-51.4c-7.7,0-14.8,1.9-22,6.1c-4.4,2.5-10.7,6.9-18.7,13.2
		v-14.8h-22.5v151.2h22.5V214.2L1391.8,214.2z"/>
	<path class="st1" d="M931.6,158.9v-110h-110L931.6,158.9L931.6,158.9z M915.1,65.2v51.7l-51.4-51.7H915.1L915.1,65.2z"/>
	<polygon class="st2" points="265,116 226.2,116 181.2,290 135,116 96.8,116 96.8,328.5 120.1,328.5 120.1,139.1 171.3,328.5 
		190.5,328.5 241.6,139.1 241.6,328.5 265,328.5 265,116 	"/>
	<path class="st2" d="M403.8,193.8c-10.7-13.7-25.6-20.9-44.8-20.9c-19.2,0-34.1,7.2-44.8,20.9c-10.4,14-15.9,33.8-15.9,59.1
		c0,25.3,5.5,45.1,15.9,59.1c10.7,13.7,25.6,20.9,44.8,20.9c19.2,0,34.1-7.1,44.8-20.9c10.4-14,15.9-33.8,15.9-59.1
		C419.8,227.6,414.3,207.8,403.8,193.8L403.8,193.8z M359,192.2c14.8,0,25.3,7.4,31.6,22c4.4,9.9,6.6,22.8,6.6,38.8
		c0,15.9-2.2,28.9-6.6,39c-6.3,14.6-16.8,21.7-31.6,21.7c-14.6,0-25.3-7.1-31.6-21.7c-4.4-10.2-6.6-23.1-6.6-39
		c0-15.9,2.2-28.9,6.6-38.8C333.7,199.6,344.4,192.2,359,192.2L359,192.2z"/>
	<path class="st2" d="M477.5,208.9v-31.6H455v151.2h22.5v-85.8c5.5-14.6,11.3-25.6,17.6-33.3c9.1-10.7,19.8-15.4,31.9-13.7h0.6
		v-20.6H519c-10.2,0-18.7,3.3-26.1,10.2C487.7,190.5,482.4,198.5,477.5,208.9L477.5,208.9z"/>
	<path class="st2" d="M631.7,181.2c-9.9-7.1-21.2-10.7-33-10.7c-15.7,0-28.3,5-38.5,14.6c-9.9,9.9-15.1,22.5-15.1,37.7
		c0,8,1.4,15.1,4.1,21.2c2.2,4.9,6.3,11.3,12.4,18.1l-7.1,7.4c-4.1,3.3-6.6,6.3-8.2,8.5c-2.2,3.3-3.3,7.1-3.3,11.5
		c0,9.1,6,15.9,17.9,20.9c-16.8,7.7-25,17.3-25,29.4c0,9.1,3.3,17,10.4,23.1c10.7,10.2,28.9,14.8,54.1,14.8c20.9,0,36.8-3,47.8-9.9
		c11-6.9,16.2-16.5,16.2-29.7c0-16.2-8-27.5-23.9-34.1c-9.1-3.8-24.5-6.9-46.2-8.8l-21.2-2.7c-5.8-1.4-8.5-3.3-8.5-6.3
		c0-3.9,3.3-8.2,10.2-13.7l2.2-1.6c7.7,3,15.7,4.7,23.9,4.7c14.6,0,26.7-4.9,36.6-14.8c9.6-9.9,14.6-22.3,14.6-36.6v-0.8
		c-0.3-12.1-3.3-22.5-9.3-31.1c4.1-2.2,9.1-3.3,15.1-3.3h8v-19C654.8,168.8,643.5,172.6,631.7,181.2L631.7,181.2z M599.3,187.8
		c10.5,0,18.7,3.8,24.2,11.5c4.7,6.3,6.9,14.3,6.9,23.9c0,10.7-3,19.2-8.8,25.6c-5.8,6.3-14,9.3-24.2,9.3c-9.6,0-17-3.6-22.8-11
		c-5.2-6.6-7.7-14.3-7.7-23.6c0-9.6,2.8-17.6,8.2-24.5C581.1,191.3,589.4,187.8,599.3,187.8L599.3,187.8z M566.3,324.1
		c4.9-3.6,11.3-5.8,18.7-7.1l23.1,1.4c23.1,1.4,34.9,7.7,34.9,18.4c0,9.1-5.2,15.1-15.1,19c-6.9,2.8-15.7,4.1-26.4,4.1
		c-29.7,0-44.3-7.1-44.3-21.2C557.2,333.2,560.2,328.2,566.3,324.1L566.3,324.1z"/>
	<path class="st2" d="M686.4,203.7l-0.3,0.5l15.9,11.8l0.3-0.6c10.7-15.7,22.5-23.4,36.3-23.4c8.5,0,15.4,2.5,20.6,6.9
		c4.7,4.4,7.1,10.7,7.1,19v8l-12.4,3.3c-22.8,6-39,12.1-48.4,17.9c-16.2,10.2-24.2,24.5-24.2,42.3c0,11.8,4.1,22,12.4,30.5
		c8.2,8.5,18.1,12.9,29.7,12.9c8.2,0,16.2-2.2,23.9-7.1c5.8-3.3,12.1-8.5,19.2-15.7l1.9,18.4h24.5l-0.3-0.8c-2.2-6-3.8-15.4-3.8-28
		v-79.4c0-15.7-6.1-27.8-17.6-36.6c-9.6-7.1-20.6-10.7-32.7-10.7C718,172.9,700.7,183.1,686.4,203.7L686.4,203.7z M753.5,248.2
		l12.9-3.6v42.9c-13.2,15.9-27.2,23.9-42.1,23.9c-6,0-11.3-2.5-15.7-7.7c-4.1-4.9-6.3-10.4-6.3-16.5c0-10.7,6-19.5,17.9-26.4
		C727.4,256.8,738.4,252.6,753.5,248.2L753.5,248.2z"/>
	<path class="st2" d="M852.2,177.3h-22.5v151.2h22.5V214.2c4.4-5.5,10.2-10.4,17-14.8c7.7-4.9,14.6-7.7,20.9-7.7
		c5.8,0,10.2,1.7,13.2,4.7c2.8,2.7,4.7,7.1,5.5,12.9c0.3,3.3,0.5,8.5,0.5,15.9l-0.3,103.4h22.5V224.3c0-34.1-12.9-51.4-39-51.4
		c-7.4,0-14.8,1.9-22,6.1c-4.4,2.2-10.4,6.6-18.4,13.2V177.3L852.2,177.3z"/>
</g>
</svg>
