<?xml version="1.0" encoding="utf-8"?>
<!-- Generator: Adobe Illustrator 25.4.1, SVG Export Plug-In . SVG Version: 6.00 Build 0)  -->
<svg version="1.1" id="Layer_1" xmlns="http://www.w3.org/2000/svg" xmlns:xlink="http://www.w3.org/1999/xlink" x="0px" y="0px"
	 viewBox="0 0 970.8 1080" style="enable-background:new 0 0 970.8 1080;" xml:space="preserve">
<style type="text/css">
	.st0{fill-rule:evenodd;clip-rule:evenodd;}
</style>
<g>
	<path class="st0" d="M927.9,986.6l-35.7,0l-52.8,77.2h24.9l8.4-12.4h38.7l2.4,12.3l29.5,0.1L927.9,986.6L927.9,986.6L927.9,986.6z
		 M883.4,1035.8l19.8-29.4l5.4,29.4H883.4L883.4,1035.8L883.4,1035.8z"/>
	<polygon class="st0" points="803.1,986.5 770.8,986.5 750.5,1063.7 827,1063.7 831.8,1045.7 787.6,1045.7 803.1,986.5 803.1,986.5 
			"/>
	<polygon class="st0" points="97.6,1027.4 87.7,986.8 49,986.8 27.1,1064.1 52,1064.1 65.8,1014.5 77.5,1064.1 94,1064.1 
		135.1,1014.5 121,1064.1 147.7,1064.1 169.6,986.8 131.2,986.8 97.6,1027.4 97.6,1027.4 	"/>
	<path class="st0" d="M254.1,987.3c-31.7-5.4-64.6,5.6-76.7,28.1c-13.4,24.4,7.9,42.1,33.9,47.5c30.1,5.2,64.6-4.6,77.8-29
		C299.5,1015,290.4,993.5,254.1,987.3L254.1,987.3L254.1,987.3L254.1,987.3z M258.5,1028.2c-6.5,11.8-23.3,19.6-37.7,17.2
		c-16-2.7-15.3-14.9-10.3-24.1c4.9-9.1,18.6-19.2,33.7-16.5C259.2,1007,263.8,1018.4,258.5,1028.2L258.5,1028.2L258.5,1028.2
		L258.5,1028.2z"/>
	<path class="st0" d="M589.5,986.8h-53.4l-20.3,77.2h26.1l7.1-26.9h18l0,0c14.7,0,16.4,4.7,14.6,12.1c-1.7,6.9,0.3,13.9,2,14.8l0,0
		h32.1l0.6-2.4l0,0c-2.8-0.1-1.5-5.8-0.9-9.2l0,0l1.2-6.2l0,0c1.4-11.7-4.5-14.3-9.5-15.2c-1.6-0.1-2.3-3.3,0-3.9
		c11-2.4,17.8-9.6,20.2-18.5C631.2,993.8,622.3,986.8,589.5,986.8L589.5,986.8L589.5,986.8L589.5,986.8z M597.7,1012.9
		c-1.4,5.4-7.6,7.9-17.6,7.9l0,0h-27l4.4-17h29.5l0,0C594.6,1003.9,599.2,1007.4,597.7,1012.9L597.7,1012.9L597.7,1012.9
		L597.7,1012.9z"/>
	<polygon class="st0" points="305.5,986.3 299.8,1008.3 332.1,1008.4 317.7,1063.5 346.8,1063.5 361.2,1008.4 393.7,1008.3 
		399.4,986.2 305.5,986.3 305.5,986.3 	"/>
	<path class="st0" d="M476.1,987.3c-31.7-5.4-64.6,5.6-76.7,28.1c-13.4,24.4,7.9,42.1,34,47.5c30.1,5.2,64.6-4.6,77.8-29
		C521.5,1015,512.4,993.5,476.1,987.3L476.1,987.3L476.1,987.3L476.1,987.3z M480.6,1028.2c-6.5,11.8-23.3,19.6-37.7,17.2
		c-16-2.7-15.3-14.9-10.3-24.1c4.9-9.1,18.6-19.2,33.7-16.5C481.2,1007,485.8,1018.4,480.6,1028.2L480.6,1028.2L480.6,1028.2
		L480.6,1028.2z"/>
	<path class="st0" d="M712.6,987.3c-31.7-5.4-64.6,5.6-76.7,28.1c-13.4,24.4,7.9,42.1,33.9,47.5c30.1,5.2,64.6-4.6,77.8-29
		C758,1015,748.9,993.5,712.6,987.3L712.6,987.3L712.6,987.3L712.6,987.3z M717.1,1028.2c-6.5,11.8-23.3,19.6-37.7,17.2
		c-16-2.7-15.3-14.9-10.3-24.1c4.9-9.1,18.6-19.2,33.7-16.5C717.7,1007,722.3,1018.4,717.1,1028.2L717.1,1028.2L717.1,1028.2
		L717.1,1028.2z"/>
	<path class="st0" d="M486.2,15.9c-252.8,0-457.7,204.9-457.7,457.7s204.9,457.7,457.7,457.7c252.8,0,457.7-204.9,457.7-457.7
		S739,15.9,486.2,15.9L486.2,15.9L486.2,15.9L486.2,15.9z M486.2,910.3C245,910.3,49.5,714.8,49.5,473.6
		C49.5,232.4,245,36.8,486.2,36.8c241.2,0,436.7,195.5,436.7,436.7C922.9,714.8,727.4,910.3,486.2,910.3L486.2,910.3L486.2,910.3
		L486.2,910.3z"/>
	<path class="st0" d="M484.8,564.2l133-454.6L792,697.2h-9.6l0,0c-65.4-238-187.1-309.9-297.5-95.4
		c-110.4-214.4-231.6-142.6-297,95.4l0,0h-9.6l173.7-587.6L484.8,564.2L484.8,564.2L484.8,564.2z"/>
</g>
</svg>
