<?xml version="1.0" encoding="utf-8"?>
<!-- Generator: Adobe Illustrator 25.4.1, SVG Export Plug-In . SVG Version: 6.00 Build 0)  -->
<svg version="1.1" id="svg" xmlns="http://www.w3.org/2000/svg" xmlns:xlink="http://www.w3.org/1999/xlink" x="0px" y="0px"
	 viewBox="0 0 400 400" style="enable-background:new 0 0 400 400;" xml:space="preserve">
<style type="text/css">
	.st0{fill-rule:evenodd;clip-rule:evenodd;fill:#EB642D;}
	.st1{fill-rule:evenodd;clip-rule:evenodd;fill:#155F91;}
</style>
<g id="svgg">
	<path id="path0" class="st0" d="M0,200v200h99.6c87,0,99.6-0.1,99.6-0.6c0-0.3-7.2-7.8-16.1-16.7L167,366.6l-64.9-0.2
		c-63.7-0.2-65-0.2-65.5-1c-0.5-0.7-0.6-10.1-0.6-64.7c0-37.7-0.2-64.3-0.4-64.9c-0.2-0.5-6.3-6.9-13.5-14.2
		c-7.2-7.3-13.4-13.6-13.7-14c-0.3-0.4-1.2-1.3-2.1-1.9c-4.8-3.6-4.6-4,7.4-16.1c5.5-5.6,10.3-10.4,10.7-10.7
		c0.3-0.3,2.2-2.2,4.2-4.1s4.4-4.5,5.4-5.7l1.8-2.2l0.2-66.1l0.2-66.1l0.9-0.8c0.9-0.7,2.5-0.8,66.2-0.8c37.4,0,65.8-0.2,66.5-0.4
		c1.1-0.3,17.8-16.7,28-27.4c2.7-2.8,2.4-3,17.9,12.6c7.5,7.5,14.1,14,14.6,14.3c0.9,0.6,7.1,0.7,66.7,0.8
		c62.4,0.2,65.7,0.2,66.4,0.9c0.7,0.7,0.7,3.7,0.8,60c0,32.6,0.1,62.3,0.1,65.9l0,6.6l16.6,16.6c14.8,14.8,17.4,17.7,17.4,19.2
		c0,0.2-2.4,2.8-5.3,5.7c-2.9,2.9-5.5,5.5-5.7,5.8s-2.3,2.3-4.7,4.6c-2.4,2.3-4.3,4.3-4.3,4.5c0,0.2-0.8,0.9-1.8,1.5
		c-1,0.7-1.8,1.3-1.8,1.5c0,0.2-2,2.3-4.5,4.8c-2.5,2.5-4.8,5.1-5.2,5.8c-0.6,1.2-0.7,5.9-0.8,64.7l-0.1,63.4l-0.9,0.8
		c-0.9,0.7-2.5,0.8-64.1,0.8c-36.3,0-63.5,0.2-64.1,0.4c-0.5,0.2-2.7,2.1-4.9,4.2c-2.2,2.1-4.1,4-4.3,4.1c-0.2,0.2-2.8,2.9-5.9,6.1
		s-5.7,5.9-5.9,6.1c-1.5,1.3-6.8,6.4-7.2,6.8c-3.2,3.4-4.9,5.3-4.9,5.6c0,0.2,41.4,0.4,99,0.4h99V200V0H200H0V200"/>
	<path id="path1" class="st1" d="M214.9,140.4c-18.5,2.3-33.3,14.8-37.7,31.9c-0.6,3.3-1.5,18-0.5,21.7
		c0.6,14.8,17.1,43.8,64.1,31.2c6.2-2.1,11.3-5.2,11.3-5.2c0.7-1.3,0.1-40,0.1-40l-36-0.1c0,0,0.1,10.8,0.1,16.1l15.9,0l0.1,13.3
		c-1.6,0.9-11.9,1.6-15.7,1c-23.2-3.6-27.4-38.3-6-49.4c0-1.1,18.3-7.8,32.3,6.3c1.4,1.3,4.6,3.3,4.6,3.3l0.1-22.4
		C236.1,140.3,223.8,139.3,214.9,140.4 M89.4,138.8c-0.5,1,0.1,87.9,0.1,87.9l16.9-0.1l0.4-46.6c0.5,0.2,54.6,51.1,54.6,51.1
		l-0.2-87.1H144c0,0.3,0.1,43.7,0.1,43.7 M269.4,142.9v83.7h20.7v-32.2h23.3v-18c-0.3,0-18.5-0.1-24.1-0.1v-16l28.1,0v-17.5
		c-0.8,0.1-13.3,0.2-25.2,0.2 M96.8,241c-2.4,0.8-4.3,2.8-5.1,5.2c-1.7,5.7,0.7,9.1,6.9,11.3c4,0.6,5,3.4,3.3,5.2
		c-1,1-7.3-0.9-9.4-1.8l-2.1,4.9c9.4,3.9,16.4,2.9,18.5-1.8c2.7-6-0.3-9.6-7.4-11.7c-8.8-1.8-4.3-10,5.4-6.4c0,0,0.3-1.7,0.7-4.6
		C107.7,241.3,101.8,239.4,96.8,241 M206.3,268.1l6.1-0.2c0,0,10.7-26.5,10.9-26.7h-6.7l-7.2,16.4l-5-16.4h-7.8 M270.2,241
		c-12.4,4-13.7,19.9-2,26.4c4.3,2.4,10.8,1.8,11.9-0.8l-1.2-6.3c-0.4,0.2-1.4,0.6-2.3,1c-6.1,2.8-11.7-4.4-8.2-10.4
		c2-3.4,5.9-4,9.2-3.3l2,1.5l0-7.7C278.6,240.4,273.1,240.1,270.2,241 M164,241.5l-0.1,27.2l5.9,0.1v-11.3l9.1,11l7.5,0.1l-8.6-11.2
		c8.2-1.4,7.3-14.3,0-15.9H164 M238.5,268.8h7.2l-0.1-27.6h-7.1 M298.8,241.6v26.3l14.4-0.2l-0.1-5.1h-7.9v-5.3l8,0V252l-8.1,0
		l0-5.3c1.9,0,8-0.1,8-0.1l0-5 M128.8,241.6v26.3l14.4-0.2l-0.1-5.1h-7.9v-5.3l8,0V252l-8.1,0l0-5.3c1.9,0,8-0.1,8-0.1l0-5
		 M173.7,246c4.3,0,4.9,8.3-3.9,6.8c0,0,0-3.9,0-6.8"/>
</g>
</svg>
