<?xml version="1.0" encoding="UTF-8" standalone="no"?>
<svg
   xmlns:svg="http://www.w3.org/2000/svg"
   xmlns="http://www.w3.org/2000/svg"
   version="1.1"
   width="683.0625"
   height="96.857727"
   id="svg3377">
  <defs
     id="defs3379" />
  <g
     transform="translate(-8.46875,-483.93332)"
     id="layer1">
    <path
       d="m 654.8125,483.93332 0,12.625 -10.9375,-6.34375 -3.8125,6.625 22.375,12.9375 0,-25.84375 -7.625,0 z m 9.625,0 0,25.84375 22.375,-12.9375 -3.8125,-6.59375 -10.9375,6.3125 0,-12.625 -7.625,0 z m -25.28125,14.71875 -3.78125,6.59375 10.9375,6.3125 -10.96875,6.3125 3.8125,6.625 22.40625,-12.9375 -22.40625,-12.90625 z m 48.5625,0 -22.375,12.90625 22.375,12.90625 3.8125,-6.59375 -10.96875,-6.3125 10.96875,-6.3125 -3.8125,-6.59375 z m -563.28125,9.78125 c -21.27456,0 -35.25,14.28274 -35.25,36.125 0,21.94845 13.97544,36.21875 35.25,36.21875 21.27456,0 35.21875,-14.2703 35.21875,-36.21875 0,-21.84226 -13.94419,-36.125 -35.21875,-36.125 z m -115.96875,0.8125 0,70.625 22.875,0 -1.40625,-36.25 32.96875,36.25 19.5625,0 0,-70.625 -23,0 1.4375,36.34375 -32.96875,-36.34375 -19.46875,0 z m 157.75,0 0,70.625 22.40625,0 0,-29.53125 4.84375,0 c 3.32453,0 5.04318,0.52721 6.5625,1.875 1.04555,0.82501 2.0839,2.07301 2.9375,3.625 2.18504,3.62269 4.47566,8.48992 6.46875,13.5625 l 4,10.46875 22.3125,0 -7.6875,-18.65625 c -1.23343,-2.89979 -2.8607,-6.51261 -3.90625,-8.375 -1.99309,-3.72887 -3.52367,-5.27096 -6.65625,-7.03125 6.84102,-3.31227 10.375,-8.8068 10.375,-16.46875 0,-6.93495 -3.51722,-13.25021 -9.21875,-16.5625 -2.75275,-1.55199 -5.80084,-2.59585 -8.9375,-2.90625 -3.41847,-0.41659 -8.17291,-0.625 -14.15625,-0.625 l -29.34375,0 z m 72.375,0 0,70.625 35.21875,0 c 6.93496,0 12.16079,-1.16062 16.71875,-3.75 9.59376,-5.38296 15.6875,-17.2697 15.6875,-30.625 0,-9.83474 -3.23132,-18.75044 -9.21875,-25.375 -6.64498,-7.34746 -15.28796,-10.875 -26.96875,-10.875 l -31.4375,0 z m 423.84375,4.125 -22.375,12.9375 3.8125,6.59375 10.9375,-6.34375 0,12.65625 7.625,0 0,-25.84375 z m 2,0 0,25.84375 7.625,0 0,-12.65625 10.9375,6.34375 3.84375,-6.59375 -22.40625,-12.9375 z m -475.8125,7.28125 5.125,0 c 8.73609,0 12.5625,2.77959 12.5625,9.09375 0,6.73074 -4.00983,9.75 -12.75,9.75 l -4.9375,0 0,-18.84375 z m 72.65625,5.46875 5.3125,0 c 11.20703,0 16.9375,6.11123 16.9375,18.53125 0,12.5303 -5.23085,18.34375 -16.25,18.34375 l -6,0 0,-36.875 z m -136.84375,2.90625 c 7.69053,0 12.4375,6.00691 12.4375,15.53125 0,9.73263 -4.65303,15.53125 -12.4375,15.53125 -7.78856,0 -12.53125,-5.79862 -12.53125,-15.53125 0,-9.62644 4.74269,-15.53125 12.53125,-15.53125 z"
       id="path156"
       style="fill:#176fc1;fill-opacity:1;fill-rule:nonzero;stroke:none" />
    <path
       d="m 577.74481,526.9569 -20.13507,0 0,-17.70089 63.15796,0 0,17.70089 -20.32703,0 0,52.89846 -22.69586,0 0,-52.89846 z m -67.62279,29.81501 c 6.17122,4.55387 12.24849,7.04115 17.47627,7.04115 4.08419,0 6.55103,-1.76029 6.55103,-4.86836 0,-2.38109 -1.23342,-3.72478 -6.93087,-6.93495 -6.26922,-3.41439 -8.36034,-4.86428 -11.01915,-7.55577 -4.08419,-4.03926 -6.07728,-9.00565 -6.07728,-14.9073 0,-12.63241 9.40182,-21.11936 23.17372,-21.11936 7.40872,0 13.77189,2.2749 20.13506,7.45365 l 0,18.73828 c -6.17121,-6.21205 -11.39897,-9.21394 -16.05088,-9.21394 -4.08418,0 -6.55512,1.86239 -6.55512,4.96637 0,2.69558 1.71127,4.24757 9.6877,8.69934 6.45711,3.62268 8.26232,4.96638 10.54539,7.55575 3.32453,3.72479 4.93778,8.07445 4.93778,13.35531 0,6.10587 -2.377,11.48884 -6.743,15.31982 -4.56205,4.03926 -9.30787,5.48915 -17.66821,5.48915 -7.69054,0 -15.09926,-1.65819 -21.46244,-4.86837 l 0,-19.15077 z m -52.0461,-12.21583 c 0,9.73263 4.74992,15.5281 12.53848,15.5281 7.78855,0 12.44045,-5.79547 12.44045,-15.5281 0,-9.52433 -4.74993,-15.5281 -12.44045,-15.5281 -7.78856,0 -12.53848,5.90167 -12.53848,15.5281 m 47.7728,0 c 0,21.94845 -13.95977,36.23495 -35.23432,36.23495 -21.27456,0 -35.23841,-14.2865 -35.23841,-36.23495 0,-21.84226 13.96385,-36.12876 35.23841,-36.12876 21.27455,0 35.23432,14.2865 35.23432,36.12876 m -112.92464,-5.07215 c 8.73608,0 12.72634,-3.00188 12.72634,-9.73262 0,-6.31416 -3.7983,-9.10775 -12.53438,-9.10775 l -5.12975,0 0,18.84037 4.93779,0 z m -27.35184,-30.22711 29.34492,0 c 5.98334,0 10.73326,0.20421 14.15173,0.6208 3.13666,0.3104 6.1753,1.3437 8.92805,2.89569 5.70152,3.31229 9.21393,9.63054 9.21393,16.56549 0,7.66195 -3.51241,13.14702 -10.35343,16.4593 3.13257,1.76028 4.65598,3.31227 6.64907,7.04115 1.04555,1.86238 2.6588,5.48506 3.89224,8.38485 l 7.69461,18.63207 -22.32011,0 -3.99025,-10.45552 c -1.99309,-5.07258 -4.27208,-9.93684 -6.45711,-13.55953 -0.8536,-1.55199 -1.89915,-2.79766 -2.9447,-3.62267 -1.51933,-1.34779 -3.2306,-1.86648 -6.55105,-1.86648 l -4.84385,0 0,29.5042 -22.41405,0 0,-70.59935 z m -52.71223,-0.002 47.29904,0 0,14.9073 -24.88499,0 0,12.83663 23.36158,0 0,14.9073 -23.36158,0 0,27.95221 -22.41405,0 0,-70.60344 z"
       id="path220"
       style="fill:#231f20;fill-opacity:1;fill-rule:nonzero;stroke:none" />
  </g>
</svg>
