<?xml version="1.0" encoding="utf-8"?>
<!-- Generator: Adobe Illustrator 25.4.1, SVG Export Plug-In . SVG Version: 6.00 Build 0)  -->
<svg version="1.1" id="svg" xmlns="http://www.w3.org/2000/svg" xmlns:xlink="http://www.w3.org/1999/xlink" x="0px" y="0px"
	 viewBox="0 0 400 83.1" style="enable-background:new 0 0 400 83.1;" xml:space="preserve">
<style type="text/css">
	.st0{fill-rule:evenodd;clip-rule:evenodd;fill:#94949B;}
	.st1{fill-rule:evenodd;clip-rule:evenodd;fill:#0464B4;}
</style>
<g id="svgg">
	<path id="path0" class="st0" d="M176.5,16.4c-0.1,0-0.2,0.2-0.1,0.2c0.1,0.1-0.6,0.2-1.5,0.2c-1.8,0-2.3,0.1-2.3,0.4
		c0,0.2-1.4,0.4-2.2,0.3c-0.1,0-0.2,0.1-0.2,0.3c-0.1,0.2-0.3,0.3-0.8,0.4c-1,0-1.1,0-1.1,0.3c0,0.2-0.2,0.3-0.6,0.3
		c-0.4,0-0.6,0.1-0.6,0.3c0,0.1-0.2,0.2-0.4,0.2c-0.2,0-0.6,0.1-0.7,0.3c-0.2,0.2-0.4,0.4-0.6,0.4c-0.2,0.1-0.3,0.2-0.3,0.4
		c0,0.2-0.2,0.3-0.5,0.3c-0.3,0-0.6,0.1-0.6,0.2c-0.1,0.1-0.3,0.3-0.4,0.3s-0.3,0.2-0.3,0.4c0,0.1-0.1,0.3-0.2,0.3
		c-0.1,0-0.2,0.1-0.2,0.3c0,0.3-0.4,0.4-1,0.4c-0.1,0-0.2,0.2-0.1,0.5c0,0.1-0.1,0.1-0.2,0.1c-0.1,0-0.3,0.1-0.4,0.3
		c-0.1,0.2-0.3,0.3-0.4,0.3c-0.1,0-0.2,0.1-0.2,0.3c0,0.2-0.1,0.3-0.3,0.3c-0.2,0-0.3,0.1-0.3,0.2c0,0.3,0,0.4-0.3,0.6
		c-0.2,0.1-0.3,0.4-0.4,0.6c-0.1,0.2-0.2,0.4-0.4,0.4s-0.2,0.1-0.2,0.3c0,0.2-0.1,0.3-0.3,0.3c-0.3,0-0.3,0.1-0.3,0.6
		c0,0.4-0.1,0.6-0.3,0.6c-0.1,0-0.3,0.1-0.4,0.3c-0.1,0.2-0.2,0.4-0.3,0.4c-0.1,0.1-0.2,0.4-0.2,0.6c0,0.4-0.1,0.5-0.3,0.5
		c-0.3,0-0.3,0.1-0.3,0.5c0,0.4-0.1,0.6-0.3,0.8c-0.3,0.2-0.3,0.4-0.3,0.9c0,0.5-0.1,0.8-0.2,0.8c-0.2,0.1-0.2,0.3-0.2,0.9
		c0,0.6-0.1,0.9-0.3,1.1c-0.3,0.2-0.3,0.5-0.3,1.6c0,1-0.1,1.3-0.2,1.3c-0.4,0-0.4,0.7-0.4,4.1c0,3.4,0.1,3.7,0.4,3.7
		c0.2,0,0.2,0.3,0.2,1.3c0,1.1,0.1,1.4,0.3,1.7c0.2,0.2,0.3,0.6,0.3,1.1c0,0.5,0.1,0.8,0.2,0.9c0.2,0.1,0.2,0.3,0.2,0.7
		c0,0.4,0.1,0.6,0.3,0.7c0.2,0.1,0.3,0.3,0.3,0.7c0,0.5,0.1,0.6,0.3,0.6c0.3,0,0.3,0.1,0.3,0.6c0,0.4,0.1,0.6,0.2,0.6
		c0.2,0,0.2,0.2,0.2,0.5c0,0.3,0.1,0.6,0.3,0.7c0.2,0.1,0.4,0.3,0.4,0.5c0.1,0.2,0.2,0.3,0.4,0.3c0.2,0,0.3,0.2,0.3,0.4
		c0,0.3,0.1,0.5,0.3,0.5c0.2,0,0.3,0.2,0.3,0.3c0,0.3,0.7,1.1,1,1.1c0.1,0,0.2,0.2,0.2,0.3c0,0.2,0.1,0.3,0.3,0.3
		c0.2,0,0.3,0.1,0.3,0.2c0,0.2,0.8,1,1,1c0.1,0,0.2,0.2,0.3,0.3c0,0.2,0.2,0.3,0.3,0.3c0.1,0,0.3,0.2,0.3,0.3c0,0.2,0.2,0.3,0.2,0.3
		c0.5-0.1,0.9,0,0.9,0.3c0,0.1,0.1,0.2,0.3,0.2c0.2,0,0.4,0.1,0.4,0.3c0.1,0.2,0.2,0.3,0.6,0.3c0.4,0,0.5,0.1,0.5,0.3
		c0,0.2,0.1,0.3,0.4,0.3c0.3,0,0.4,0.1,0.4,0.2c0,0.2,0.2,0.2,0.6,0.2c0.4,0,0.6,0.1,0.5,0.2c-0.1,0.1,0,0.2,0.1,0.2
		c0.1,0,0.1,0.1,0.1,0.2c-0.1,0.1,0,0.2,0.1,0.1c0.8-0.1,1.5,0,1.6,0.3c0.1,0.3,0.3,0.3,0.9,0.3c0.5,0,0.8,0.1,1,0.3
		c0.2,0.2,0.5,0.3,1.6,0.4c1,0,1.4,0.1,1.5,0.3c0.2,0.4,8.3,0.3,8.4,0c0.1-0.2,0.4-0.2,1.3-0.2c1,0,1.2,0,1.3-0.3
		c0.1-0.3,0.2-0.3,0.9-0.3c0.7,0,0.8-0.1,0.9-0.3c0.1-0.3,0.2-0.3,0.9-0.3c0.7,0,0.8-0.1,0.9-0.3c0.1-0.3,0.2-0.3,0.7-0.3
		c0.5,0,0.6-0.1,0.6-0.2c0-0.2,0.4-0.3,0.9-0.3c0.1,0,0.2-0.1,0.2-0.3c0-0.2,0.2-0.3,0.3-0.3c0.1,0,0.3-0.2,0.3-0.3
		c0.1-0.2,0.2-0.3,0.6-0.3c0.3,0,0.5-0.1,0.6-0.2c0.1-0.1,0.2-0.2,0.3-0.2c0.1,0,0.3-0.2,0.3-0.3c0-0.2,0.2-0.3,0.4-0.3
		c0.2,0,0.3-0.1,0.3-0.3c0-0.2,0.1-0.3,0.3-0.3c0.2,0,0.5-0.2,0.7-0.3c0.2-0.2,0.4-0.3,0.5-0.3c0.1,0,0.2-0.1,0.2-0.2
		c0-0.1,0.1-0.3,0.3-0.5c0.2-0.2,0.3-0.5,0.3-0.7c0-0.2,0.1-0.3,0.3-0.3s0.3-0.1,0.3-0.3c0-0.2,0.1-0.3,0.3-0.3
		c0.2,0,0.3-0.1,0.3-0.3c0-0.2,0.1-0.3,0.2-0.3s0.2-0.1,0.2-0.3c0-0.2,0.1-0.3,0.2-0.3c0.3,0,0.4-0.3,0.4-0.8c0-0.2,0.1-0.3,0.3-0.4
		c0.2-0.1,0.3-0.2,0.3-0.6s0.1-0.5,0.3-0.6c0.3-0.1,0.3-0.2,0.3-0.7c0-0.4,0.1-0.6,0.2-0.6c0.2,0,0.2-0.2,0.2-0.6
		c0-0.4,0.1-0.6,0.3-0.7c0.3-0.1,0.3-0.2,0.3-0.9c0-0.6,0.1-0.8,0.2-0.8c0.3,0,0.4-0.4,0.4-1.5c0-0.8,0.1-1,0.2-1
		c0.2,0,0.2-0.7,0.2-5.4c0-4.7,0-5.4-0.2-5.5c-0.2-0.1-0.3-0.4-0.3-1c0-1-0.2-1.6-0.4-1.6c-0.1,0-0.2-0.3-0.2-0.6
		c0-0.4-0.2-0.8-0.4-0.9c-0.2-0.2-0.3-0.5-0.3-0.8c0-0.3-0.1-0.5-0.2-0.6c-0.1,0-0.3-0.3-0.3-0.7c-0.1-0.3-0.2-0.6-0.3-0.6
		c-0.1,0-0.2-0.2-0.2-0.4c0-0.2-0.1-0.5-0.2-0.5c-0.1-0.1-0.1-0.2-0.1-0.3s0-0.1-0.2-0.1c-0.2,0.1-0.3,0-0.3-0.3s-0.1-0.4-0.3-0.4
		c-0.3,0-0.3-0.1-0.3-0.5c0-0.3-0.1-0.5-0.2-0.5c-0.1,0-0.2-0.1-0.2-0.3s-0.1-0.4-0.3-0.4c-0.2-0.1-0.4-0.2-0.4-0.4
		c0-0.2-0.2-0.3-0.4-0.3c-0.1,0-0.3-0.1-0.3-0.2c0-0.1-0.1-0.2-0.2-0.2s-0.3-0.1-0.3-0.3c0-0.2-0.2-0.3-0.3-0.3
		c-0.1,0-0.3-0.1-0.3-0.3c0-0.2-0.2-0.3-0.4-0.3s-0.3-0.1-0.3-0.2s-0.1-0.2-0.2-0.2c-0.1,0-0.3-0.1-0.3-0.3
		c-0.1-0.2-0.3-0.3-0.4-0.3c-0.2,0-0.3-0.1-0.3-0.3c0-0.1-0.2-0.3-0.5-0.4c-0.3-0.1-0.5-0.2-0.5-0.3s-0.1-0.2-0.3-0.2
		c-0.2,0-0.4-0.1-0.5-0.3c-0.1-0.2-0.4-0.3-0.7-0.3c-0.3,0-0.5-0.1-0.6-0.3c-0.1-0.2-0.2-0.3-0.6-0.3c-0.3,0-0.5-0.1-0.5-0.2
		c0-0.2-0.2-0.2-0.6-0.2c-0.4,0-0.6-0.1-0.7-0.3c-0.1-0.3-0.3-0.3-0.9-0.3c-0.6,0-0.9-0.1-1-0.3c-0.1-0.3-0.3-0.3-1-0.3
		c-0.6,0-0.8-0.1-0.8-0.2c0-0.2-1.4-0.5-1.9-0.4c-0.7,0.1-2.4,0-2.4-0.3C180.5,16.3,177.1,16.2,176.5,16.4 M107.9,17l-0.5,0.1v24.5
		v24.5l4.7,0.1c2.6,0,4.9,0,5.2,0l0.5-0.1V50.8c0-15.1,0-15.1,0.3-15.1c0.2,0,0.3,0.2,0.3,0.4c0,0.2,18.5,28.8,18.5,29.2
		c0,0.8,0,0.8,6,0.7l4.9,0l0-24.5l0-24.5l-0.9-0.1c-0.9-0.1-8.5,0-9,0.1c-0.7,0.2-0.6-1.9-0.6,15.1c0,12.1-0.1,14.4-0.3,14.4
		c-0.1,0-18.4-29.3-18.9-29.5C117.7,16.8,108.8,16.8,107.9,17 M203.3,17c-0.5,0.1,15.8,49.6,15.7,49.3l10.2-0.1
		c0-0.8,16-48.4,16-48.8l-10.7-0.1c0,0.5-10.4,31-10.4,31.8c0,0.7,0.3-0.2,0,0c-0.3,0.2,0.3,0,0,0c-0.3,0-10.2-32-10.3-31.9
		C213.6,17.1,203.3,17,203.3,17 M250.8,17l-0.5,0.1l0,24.5l0,24.5l0.4,0.1c0.2,0.1,6.8,0.1,14.7,0l14.3,0l0-4.9l0-4.9h-9.5h-9.5
		v-4.9v-4.9l9.5,0l9.5,0l0-4.9l0-4.9h-9.5h-9.5V32v-4.7l9.5,0l9.5,0l0-5.1l0-5.1l-0.6-0.1C278.2,16.8,251.4,16.8,250.8,17 M285.9,17
		c-0.4,0-0.6,0.2-0.6,0.4c-0.2,0.7-0.1,9.3,0.1,9.6c0.2,0.3,0.4,0.3,6.5,0.3h6.3l0,19.4l0,19.4h4.8h4.8l0-19.4l0-19.4h6.4
		c5.7,0,6.4,0,6.5-0.3c0.2-0.4,0.1-9.6-0.1-9.9C320.7,16.9,287.6,16.7,285.9,17 M325.2,17l-0.5,0.1v5.1v5.1l6.4,0l6.4,0l0,19.4
		l0,19.4l4.9,0l4.9,0V46.8V27.3h6.4c5.7,0,6.4,0,6.5-0.3c0.2-0.4,0.1-9.6-0.1-9.9C360,16.9,326.4,16.7,325.2,17 M373.9,17
		c-0.5,0.1-17.1,49.1-17.1,49.1l10.5,0.1c0-0.2,2.9-8.3,2.9-8.4c0-0.2,16.7-0.2,16.7,0c0,0.1,3.1,8.7,3.1,8.4l10.1,0
		c0,0-16.5-49.1-16.9-49.2C383.1,17,374.8,16.8,373.9,17 M181.3,27c0.2,0.3,0.4,0.3,1,0.3c0.5,0,0.8,0.1,1.1,0.3
		c0.2,0.2,0.6,0.3,1,0.3c0.5,0,0.7,0.1,0.7,0.3c0,0.1,0.2,0.3,0.4,0.4c0.2,0.1,0.4,0.2,0.4,0.3s0.2,0.2,0.5,0.2
		c0.3,0,0.5,0.1,0.5,0.3c0,0.1,0.1,0.3,0.3,0.4c0.2,0.1,0.4,0.2,0.6,0.4c0.2,0.2,0.5,0.3,0.6,0.3c0.2,0,0.3,0.1,0.3,0.2
		c0,0.1,0.1,0.2,0.2,0.2c0.1,0,0.2,0.1,0.2,0.3c0,0.2,0.1,0.3,0.2,0.3s0.1,0.1,0.1,0.2c-0.1,0.1,0,0.2,0.1,0.3
		c0.1,0.1,0.3,0.2,0.4,0.4c0.1,0.2,0.2,0.3,0.3,0.3c0.1,0,0.2,0.2,0.2,0.3c0,0.2,0.1,0.3,0.2,0.3c0.1,0,0.3,0.2,0.4,0.6
		c0.1,0.3,0.2,0.6,0.3,0.6c0.2,0,0.3,0.5,0.3,1c0,0.1,0.1,0.2,0.3,0.2c0.2,0.1,0.3,0.3,0.3,0.7c0,0.5,0.1,0.6,0.3,0.6
		c0.3,0,0.3,0.1,0.3,1.5c0,1.2,0,1.5,0.2,1.5c0.2,0,0.2,0.3,0.2,1.3c0,1-0.1,1.4-0.2,1.5s-0.2,0.6-0.2,1.5c0,1.2,0,1.3-0.3,1.3
		c-0.3,0-0.3,0.1-0.3,0.9s0,0.9-0.3,0.9c-0.3,0-0.3,0.1-0.3,0.6c0,0.4-0.1,0.6-0.2,0.6c-0.1,0-0.3,0.2-0.4,0.4
		c-0.1,0.2-0.3,0.4-0.4,0.3c-0.1-0.1-0.2,0.1-0.2,0.5c0,0.4-0.1,0.6-0.3,0.6c-0.1,0-0.3,0.2-0.4,0.3c0,0.2-0.2,0.3-0.3,0.3
		c-0.1,0-0.3,0.2-0.3,0.3c0,0.2-0.2,0.3-0.3,0.3s-0.2,0.1-0.2,0.2c0,0.1-0.1,0.2-0.3,0.2s-0.3,0.2-0.4,0.3c0,0.2-0.2,0.3-0.4,0.3
		c-0.2,0-0.3,0.1-0.3,0.3c0,0.3-0.1,0.3-0.5,0.3c-0.3,0-0.6,0.1-0.7,0.3c-0.1,0.2-0.3,0.3-0.6,0.3c-0.2,0-0.5,0.1-0.5,0.2
		c-0.1,0.1-0.3,0.2-0.5,0.2c-0.2,0-0.5,0.1-0.7,0.3c-0.2,0.2-0.5,0.3-1.1,0.4c-0.6,0-0.8,0.1-0.9,0.3c-0.2,0.5-6.8,0.4-7,0
		c-0.1-0.3-0.2-0.3-0.9-0.3c-0.7,0-0.8-0.1-0.9-0.3c-0.1-0.2-0.2-0.3-0.6-0.3c-0.3,0-0.5-0.1-0.6-0.2c-0.1-0.1-0.2-0.2-0.4-0.2
		c-0.2,0-0.5-0.2-0.7-0.3c-0.2-0.2-0.4-0.3-0.5-0.3c-0.1,0-0.2-0.1-0.2-0.2c0-0.1-0.1-0.3-0.3-0.3c-0.2-0.1-0.4-0.2-0.4-0.3
		c-0.1-0.1-0.2-0.2-0.3-0.2c-0.1,0-0.3-0.1-0.3-0.3c0-0.2-0.1-0.3-0.1-0.3s-0.3-0.1-0.5-0.3c-0.2-0.2-0.4-0.4-0.5-0.4
		c-0.1,0-0.2-0.1-0.2-0.2c0-0.1-0.1-0.2-0.2-0.2c-0.1,0-0.2-0.1-0.2-0.3c0-0.2-0.1-0.3-0.2-0.3c-0.1,0-0.3-0.2-0.3-0.6
		c-0.1-0.3-0.2-0.6-0.4-0.6c-0.1,0-0.2-0.2-0.2-0.3c0-0.2-0.1-0.3-0.3-0.3c-0.3,0-0.3-0.1-0.3-0.8c0-0.5-0.1-0.9-0.2-1
		c-0.1-0.1-0.3-0.5-0.3-0.9c-0.1-0.4-0.2-0.8-0.4-0.9c-0.4-0.3-0.4-5.9,0.1-6.4c0.2-0.2,0.3-0.6,0.3-1.1c0-0.6,0.1-0.8,0.2-0.8
		c0.2,0,0.2-0.2,0.2-0.7c0-0.4,0.1-0.6,0.2-0.6c0.2,0.1,0.4-0.2,0.5-0.6c0-0.2,0.2-0.4,0.4-0.6c0.2-0.1,0.3-0.4,0.3-0.7
		c0-0.3,0.1-0.5,0.2-0.5c0.1,0,0.2-0.1,0.2-0.2c0-0.1,0.1-0.2,0.3-0.2c0.1,0,0.3-0.1,0.4-0.3c0-0.2,0.2-0.4,0.4-0.4
		c0.2-0.1,0.3-0.2,0.3-0.3c0-0.1,0.1-0.2,0.2-0.2c0.2,0,1-0.8,1-1c0-0.1,0.1-0.2,0.3-0.2c0.2,0,0.3-0.1,0.3-0.3
		c0-0.3,0.1-0.3,0.5-0.3c0.3,0,0.5-0.1,0.6-0.2c0-0.1,0.3-0.3,0.7-0.3c0.3-0.1,0.6-0.2,0.6-0.3c0-0.2,0.2-0.2,0.6-0.2
		c0.5,0,0.6-0.1,0.7-0.3c0.1-0.3,0.2-0.3,1-0.3c1.1,0,1.1,0,1.4-0.4C176.5,26.5,181,26.5,181.3,27 M383.7,47.3l-10.1,0.1
		c0.2-0.1,5.1-14.2,5.2-14.4"/>
	<path id="path1" class="st1" d="M34.2,0.2c0,0.1-0.5,0.2-1.2,0.2c-1.1,0-1.2,0-1.2,0.3C31.7,1,31.6,1,30.5,1
		c-0.9,0-1.2,0.1-1.3,0.2c-0.1,0.2-0.3,0.2-0.9,0.2c-0.7,0-0.8,0.1-0.9,0.3c-0.1,0.3-0.2,0.3-0.9,0.3c-0.7,0-0.8,0.1-0.9,0.3
		c-0.1,0.2-0.2,0.3-0.7,0.3c-0.4,0-0.6,0.1-0.6,0.2c0,0.2-0.2,0.2-0.6,0.2c-0.4,0-0.6,0.1-0.7,0.3C23,3.9,22.8,4,22.4,4
		c-0.5,0-0.6,0.1-0.6,0.3c0,0.3-0.1,0.3-0.6,0.3c-0.4,0-0.6,0.1-0.6,0.2c0,0.2-0.2,0.2-0.4,0.2c-0.6,0-0.9,0.2-0.9,0.4
		c0,0.1-0.1,0.2-0.2,0.2c-0.1,0-0.2,0.1-0.2,0.3c0,0.3-0.1,0.3-0.5,0.3c-0.5,0-1.3,0.6-1.3,1c0,0.1-0.2,0.2-0.6,0.2
		c-0.5,0-0.6,0.1-0.7,0.3c0,0.2-0.2,0.3-0.3,0.3s-0.3,0.1-0.3,0.3c0,0.2-0.2,0.3-0.4,0.3s-0.3,0.1-0.3,0.2c0,0.1-0.1,0.2-0.3,0.2
		c-0.2,0-0.3,0.1-0.3,0.3c0,0.2-0.1,0.3-0.3,0.3s-0.3,0.1-0.3,0.3c0,0.2-0.1,0.3-0.2,0.3c-0.1,0-0.2,0.1-0.2,0.2
		c0,0.1-0.1,0.2-0.3,0.2c-0.2,0-0.3,0.1-0.3,0.3c0,0.2-0.1,0.3-0.3,0.3c-0.2,0-0.3,0.1-0.3,0.3c0,0.2-0.1,0.3-0.2,0.3
		c-0.1,0-0.2,0.1-0.2,0.2c0,0.1-0.1,0.2-0.3,0.2c-0.2,0-0.3,0.1-0.3,0.3s-0.1,0.3-0.3,0.3c-0.2,0-0.3,0.1-0.3,0.3
		c0,0.2-0.1,0.3-0.2,0.3c-0.1,0-0.2,0.1-0.2,0.2c0,0.1-0.1,0.3-0.3,0.3c-0.2,0.1-0.3,0.3-0.3,0.7c0,0.5-0.1,0.6-0.3,0.6
		c-0.2,0-0.3,0.1-0.3,0.2c0,0.1-0.3,0.4-0.6,0.7c-0.4,0.4-0.6,0.7-0.6,1.1c0,0.4-0.1,0.5-0.3,0.5c-0.2,0-0.3,0.1-0.3,0.2
		c0,0.1-0.1,0.3-0.2,0.3c-0.1,0.1-0.3,0.4-0.4,0.7c-0.1,0.3-0.2,0.6-0.3,0.6c-0.2,0-0.2,0.2-0.2,0.6c0,0.5-0.1,0.6-0.3,0.6
		c-0.3,0-0.3,0.1-0.3,0.6c0,0.4-0.1,0.6-0.3,0.7c-0.2,0.1-0.3,0.3-0.3,0.7c0,0.4-0.1,0.6-0.2,0.6c-0.2,0-0.2,0.2-0.2,0.9
		c0,0.8,0,0.9-0.3,0.9c-0.3,0-0.3,0.1-0.3,0.6c0,0.4-0.1,0.6-0.2,0.6c-0.3,0-0.4,0.4-0.4,1.5c0,0.8-0.1,1-0.2,1
		C1,29.8,1,30.1,1,31.1c0,1.1,0,1.2-0.3,1.2c-0.3,0-0.3,0.1-0.3,1.8c0,1.1-0.1,1.8-0.2,1.8C0.1,36,0,37.9,0,41.5S0.1,47,0.2,47
		c0.1,0,0.2,0.7,0.2,1.8c0,1.7,0,1.8,0.3,1.8C1,50.7,1,50.8,1,51.9c0,1,0,1.2,0.2,1.2c0.2,0,0.2,0.2,0.2,0.9c0,0.8,0,0.9,0.3,0.9
		s0.3,0.1,0.3,0.9c0,0.8,0,0.9,0.3,0.9s0.3,0.1,0.3,0.9c0,0.7,0.1,0.9,0.2,0.9c0.2,0,0.2,0.2,0.2,0.4c0,0.2,0.2,0.5,0.3,0.7
		C3.9,60,4,60.3,4,60.6c0,0.3,0.1,0.5,0.3,0.6c0.3,0.1,0.3,0.2,0.3,0.7c0,0.4,0.1,0.6,0.2,0.6c0.1,0,0.2,0.1,0.2,0.3
		s0.2,0.3,0.3,0.4c0.2,0.1,0.3,0.2,0.3,0.7c0,0.5,0.1,0.6,0.3,0.6c0.2,0,0.3,0.1,0.3,0.3c0,0.2,0.1,0.3,0.2,0.3
		c0.1,0,0.3,0.3,0.3,0.6c0.1,0.3,0.2,0.6,0.4,0.7c0.1,0.1,0.2,0.2,0.2,0.3c0,0.1,0.2,0.2,0.3,0.2c0.3,0,0.3,0.1,0.3,0.6
		s0.1,0.6,0.3,0.6c0.2,0,0.3,0.1,0.3,0.3c0,0.2,0.1,0.3,0.2,0.3c0.1,0,0.2,0.1,0.2,0.3c0,0.1,0.1,0.3,0.3,0.4c0.2,0,0.3,0.2,0.3,0.4
		c0,0.2,0.1,0.3,0.3,0.3c0.2,0,0.3,0.1,0.3,0.2c0,0.1,0.1,0.2,0.2,0.2c0.1,0,0.2,0.1,0.2,0.3c0,0.2,0.1,0.3,0.3,0.3
		c0.2,0,0.3,0.1,0.3,0.3c0,0.2,0.1,0.3,0.3,0.3c0.2,0,0.3,0.1,0.3,0.2c0,0.1,0.1,0.2,0.2,0.2c0.1,0,0.2,0.1,0.2,0.3
		c0,0.1,0.2,0.3,0.3,0.4c0.2,0,0.3,0.2,0.3,0.3c0,0.1,0.1,0.3,0.3,0.3c0.2,0,0.3,0.2,0.3,0.3s0.1,0.2,0.3,0.3c0.2,0,0.3,0.2,0.3,0.4
		c0,0.2,0.2,0.3,0.6,0.3c0.5,0,0.6,0.1,0.6,0.3c0,0.2,0.1,0.3,0.3,0.3c0.2,0,0.4,0.1,0.4,0.3c0.1,0.2,0.2,0.3,0.6,0.3
		c0.3,0,0.5,0.1,0.5,0.2c0,0.1,0.1,0.2,0.3,0.2c0.2,0,0.3,0.1,0.3,0.3c0,0.3,0.1,0.3,0.6,0.3c0.5,0,0.6,0.1,0.6,0.3
		c0,0.2,0.1,0.3,0.3,0.3c0.2,0,0.3,0.1,0.3,0.2c0,0.2,0.2,0.2,0.6,0.2c0.4,0,0.6,0.1,0.7,0.3c0.1,0.3,0.2,0.3,0.7,0.3
		c0.4,0,0.6,0.1,0.7,0.3c0.1,0.2,0.2,0.3,0.6,0.3c0.3,0,0.5,0.1,0.5,0.2c0,0.2,0.2,0.2,0.9,0.2c0.8,0,0.9,0,0.9,0.3s0.1,0.3,0.9,0.3
		c0.8,0,0.9,0,0.9,0.3s0.1,0.3,0.9,0.3c0.7,0,0.9,0.1,0.9,0.2c0,0.2,0.3,0.2,1.6,0.2H33v-7.6c0-7.5,0-7.6-0.3-7.7
		c-0.2,0-0.3-0.2-0.3-0.3c0-0.1-0.2-0.2-0.3-0.2c-0.2,0-0.3-0.1-0.3-0.3c0-0.2-0.1-0.3-0.3-0.3c-0.2,0-0.3-0.1-0.3-0.3
		c0-0.2-0.1-0.3-0.2-0.3c-0.1,0-0.2-0.1-0.2-0.2c0-0.1-0.1-0.2-0.3-0.2c-0.2,0-0.3-0.1-0.3-0.3s-0.1-0.3-0.3-0.3s-0.3-0.1-0.3-0.3
		c0-0.2-0.1-0.3-0.2-0.3c-0.1,0-0.2-0.1-0.2-0.3s-0.1-0.3-0.3-0.4c-0.2,0-0.3-0.2-0.3-0.3c0-0.1-0.1-0.2-0.3-0.2
		c-0.2,0-0.3-0.1-0.3-0.3c0-0.2-0.1-0.3-0.2-0.3c-0.1,0-0.2-0.1-0.2-0.3s-0.1-0.3-0.3-0.4s-0.3-0.2-0.3-0.3c0-0.1-0.1-0.2-0.3-0.2
		c-0.2,0-0.3-0.1-0.3-0.3c0-0.2-0.1-0.3-0.2-0.3c-0.1,0-0.3-0.2-0.3-0.3s-0.2-0.3-0.4-0.3c-0.1,0-0.3-0.1-0.3-0.2
		c0-0.1-0.1-0.2-0.3-0.2c-0.2,0-0.3-0.1-0.3-0.3c0-0.3-0.1-0.3-5.2-0.3s-5.2,0-5.2,0.3c0,0.3-0.1,0.3-0.6,0.3
		c-0.4,0-0.6,0.1-0.6,0.2c0,0.1-0.1,0.2-0.3,0.2c-0.2,0-0.3-0.1-0.3-0.2c0-0.2-0.2-0.2-0.6-0.2c-0.6,0-0.6,0-0.6-0.6
		c0-0.4-0.1-0.6-0.3-0.7c-0.4-0.1-0.5-1.2-0.1-1.2c0.1,0,0.3-0.2,0.4-0.3c0-0.2,0.2-0.3,0.3-0.3s0.2-0.2,0.3-0.3
		c0.1-0.3,0.2-0.3,1-0.3c0.8,0,0.9,0,0.9,0.3c0,0.3,0.1,0.3,3.7,0.3H20v-0.6c0-0.5-0.1-0.6-0.3-0.6c-0.2,0-0.3-0.1-0.3-0.3
		c0-0.2-0.1-0.3-0.2-0.3c-0.1,0-0.3-0.2-0.3-0.3c0-0.2-0.2-0.3-0.4-0.3s-0.3-0.1-0.3-0.2c0-0.1-0.1-0.2-0.3-0.2
		c-0.2,0-0.3-0.1-0.3-0.3c0-0.2-0.1-0.3-0.2-0.3c-0.1,0-0.3-0.2-0.3-0.3s-0.2-0.3-0.4-0.3c-0.1,0-0.3-0.1-0.3-0.2
		c0-0.1-0.1-0.2-0.3-0.2c-0.2,0-0.3-0.1-0.3-0.3c0-0.2-0.1-0.3-0.3-0.3c-0.2,0-0.3-0.1-0.3-0.3c0-0.2-0.1-0.3-0.2-0.3
		c-0.1,0-0.2-0.1-0.2-0.2c0-0.1-0.1-0.2-0.3-0.2c-0.2,0-0.3-0.1-0.3-0.3s-0.1-0.3-0.3-0.3s-0.3-0.1-0.3-0.3c0-0.2-0.1-0.3-0.2-0.3
		c-0.1,0-0.2-0.1-0.2-0.2c0-0.1-0.1-0.2-0.3-0.2c-0.2,0-0.3-0.1-0.3-0.3c0-0.2-0.1-0.3-0.3-0.3c-0.2,0-0.3-0.1-0.3-0.3
		c0-0.2-0.1-0.3-0.2-0.3c-0.1,0-0.2-0.1-0.2-0.2c0-0.1-0.2-0.3-0.3-0.3c-0.2-0.1-0.3-0.2-0.3-0.3c0-0.1-0.1-0.2-0.3-0.2
		c-0.2,0-0.3-0.1-0.3-0.3c0-0.3-0.1-0.3-0.9-0.3c-0.7,0-0.9-0.1-0.9-0.2c0-0.1-0.1-0.3-0.3-0.3C7.2,42.7,7,42.5,7,42.4
		c0-0.1-0.1-0.2-0.2-0.2c-0.1,0-0.2-0.1-0.2-0.3c0-0.2-0.1-0.3-0.3-0.3c-0.4,0-0.4-0.6,0-0.7c0.2-0.1,0.3-0.2,0.3-0.6
		c0-0.3,0.1-0.5,0.2-0.5c0.1,0,0.2-0.1,0.2-0.3C7,39,7.1,39,8.2,39s1.2,0,1.2,0.3c0,0.2,0.1,0.3,0.3,0.3c0.3,0,0.3,0.1,0.3,1.2
		c0,1,0,1.2,0.3,1.3c0.2,0,0.3,0.2,0.3,0.3c0,0.1,0.1,0.2,0.2,0.2s0.3,0.2,0.3,0.3s0.2,0.3,0.3,0.3s0.3,0.2,0.3,0.3
		c0,0.2,0.2,0.3,0.4,0.3s0.3,0.1,0.3,0.2c0,0.1,0.1,0.2,0.2,0.2s0.3,0.2,0.3,0.3c0,0.2,0.2,0.3,0.3,0.3c0.1,0,0.3,0.2,0.3,0.3
		s0.2,0.3,0.3,0.3s0.3,0.2,0.3,0.3c0,0.2,0.2,0.3,0.4,0.3s0.3,0.1,0.3,0.2c0,0.2,0.2,0.2,0.6,0.2h0.6v-3.9c0-3.8,0-3.9-0.3-4
		c-0.2,0-0.3-0.2-0.3-0.3c0-0.1-0.1-0.2-0.3-0.2c-0.2,0-0.3-0.1-0.3-0.3c0-0.2-0.1-0.3-0.2-0.3c-0.1,0-0.2-0.1-0.2-0.3
		s-0.1-0.3-0.3-0.4c-0.2,0-0.3-0.2-0.3-0.3s-0.2-0.2-0.3-0.2c-0.2,0-0.3-0.1-0.3-0.3c0-0.2-0.1-0.3-0.2-0.3c-0.1,0-0.2-0.1-0.2-0.3
		s-0.1-0.3-0.3-0.4c-0.2,0-0.3-0.2-0.3-0.3c0-0.1-0.1-0.3-0.3-0.3c-0.2-0.1-0.3-0.2-0.3-0.3c0-0.1-0.1-0.2-0.2-0.2
		c-0.1,0-0.3-0.2-0.3-0.3c-0.1-0.3-0.3-0.3-1.3-0.3c-1,0-1.2,0-1.2-0.3c0-0.2-0.1-0.3-0.3-0.3c-0.3,0-0.3-0.1-0.3-1.1
		c0-1,0-1.2,0.3-1.2c0.2,0,0.3-0.2,0.3-0.4c0-0.2,0.2-0.3,0.5-0.3c0.4,0,0.5-0.1,0.6-0.3c0.1-0.4,0.7-0.4,0.7,0
		c0,0.2,0.1,0.3,0.3,0.3c0.2,0,0.3,0.1,0.3,0.2c0,0.1,0.1,0.2,0.2,0.2c0.1,0,0.2,0.1,0.2,0.3c0,0.2,0.1,0.3,0.3,0.3
		c0.3,0,0.3,0.1,0.3,0.9c0,0.8,0,0.9,0.3,0.9c0.2,0,0.3,0.1,0.3,0.3c0,0.2,0.1,0.3,0.2,0.3c0.1,0,0.2,0.1,0.2,0.3s0.2,0.3,0.3,0.4
		s0.3,0.2,0.3,0.3c0,0.1,0.1,0.2,0.3,0.2c0.2,0,0.3,0.1,0.3,0.3c0,0.2,0.1,0.3,0.2,0.3c0.1,0,0.3,0.2,0.3,0.3
		c0.1,0.2,0.2,0.3,0.3,0.3c0.1,0,0.2,0.1,0.2,0.2c0,0.1,0.1,0.2,0.3,0.2c0.2,0,0.3,0.1,0.3,0.3c0,0.2,0.1,0.3,0.3,0.3
		c0.2,0,0.3,0.1,0.3,0.3c0,0.2,0.1,0.3,0.2,0.3c0.1,0,0.2,0.1,0.2,0.3s0.1,0.3,0.3,0.4c0.2,0,0.3,0.2,0.3,0.3c0,0.1,0.1,0.2,0.3,0.2
		c0.3,0,0.3,0.1,0.3,5.8c0,4.9,0,5.8,0.2,5.8c0.1,0,0.3,0.2,0.3,0.3s0.2,0.3,0.3,0.3s0.3,0.2,0.3,0.3c0,0.2,0.2,0.3,0.4,0.3
		c0.1,0,0.3,0.1,0.3,0.2c0,0.1,0.1,0.2,0.2,0.2c0.1,0,0.3,0.2,0.3,0.3c0,0.2,0.2,0.3,0.3,0.3c0.1,0,0.3,0.2,0.3,0.3s0.2,0.3,0.4,0.3
		s0.3,0.1,0.3,0.2c0,0.1,0.1,0.2,0.3,0.2s0.3,0.2,0.4,0.3c0,0.2,0.2,0.3,0.3,0.3c0.1,0,0.2,0.2,0.3,0.3c0,0.2,0.2,0.3,0.3,0.3
		c0.1,0,0.3,0.2,0.3,0.3s0.2,0.3,0.4,0.3s0.3,0.1,0.3,0.2c0,0.1,0.1,0.2,0.2,0.2c0.1,0,0.3,0.2,0.3,0.3c0,0.2,0.2,0.3,0.3,0.3
		c0.1,0,0.3,0.2,0.3,0.3c0,0.2,0.2,0.3,0.4,0.3s0.3,0.1,0.3,0.2c0,0.1,0.1,0.2,0.2,0.2c0.1,0,0.3,0.2,0.3,0.3s0.2,0.3,0.3,0.3
		s0.3,0.2,0.3,0.3c0,0.2,0.2,0.3,0.4,0.3c0.1,0,0.3,0.1,0.3,0.2c0,0.1,0.1,0.2,0.2,0.2c0.1,0,0.2,0.1,0.2,0.3s0.1,0.3,0.3,0.4
		s0.3,0.2,0.3,0.3c0,0.1,0.1,0.3,0.3,0.3c0.2,0,0.3,0.2,0.3,0.3s0.1,0.3,0.3,0.3c0.2,0,0.3,0.2,0.3,0.4s0.1,0.3,0.2,0.3
		c0.1,0,0.3,0.2,0.3,0.3c0.1,0.4,1,0.5,1.2,0.1c0.3-0.9,0.1-7.7-0.3-7.7c-0.1,0-0.2-0.2-0.3-0.3c0-0.2-0.2-0.3-0.4-0.3
		s-0.3-0.1-0.3-0.2c0-0.1-0.1-0.2-0.3-0.2c-0.2,0-0.3-0.1-0.3-0.3c0-0.2-0.1-0.3-0.2-0.3c-0.1,0-0.3-0.2-0.3-0.3
		c-0.1-0.2-0.2-0.3-0.3-0.3c-0.1,0-0.2-0.1-0.2-0.2c0-0.1-0.1-0.2-0.3-0.2c-0.2,0-0.3-0.1-0.3-0.3c0-0.2-0.1-0.3-0.2-0.3
		c-0.1,0-0.3-0.2-0.3-0.3c-0.1-0.2-0.2-0.3-0.3-0.3c-0.1,0-0.2-0.1-0.2-0.2c0-0.1-0.1-0.3-0.3-0.3c-0.2-0.1-0.3-0.2-0.3-0.3
		c0-0.2-0.2-0.2-0.9-0.2c-0.8,0-0.9,0-0.9-0.3c0-0.2-0.1-0.3-0.3-0.3c-0.2,0-0.3-0.1-0.3-0.2s-0.1-0.3-0.2-0.4
		c-0.4-0.2-0.4-2.4,0-2.4c0.1,0,0.3-0.2,0.4-0.3c0.1-0.3,0.2-0.3,1.2-0.3c1,0,1.1,0,1.2,0.3c0,0.2,0.2,0.3,0.4,0.3
		c0.2,0,0.3,0.2,0.3,0.6c0,0.5,0.1,0.6,0.3,0.6c0.3,0,0.3,0.1,0.3,0.9c0,0.7,0.1,0.9,0.2,0.9c0.1,0,0.3,0.2,0.3,0.3
		c0,0.2,0.2,0.3,0.4,0.3s0.3,0.1,0.3,0.2c0,0.1,0.1,0.2,0.3,0.2c0.2,0,0.3,0.1,0.3,0.3c0,0.2,0.1,0.3,0.2,0.3c0.1,0,0.3,0.2,0.3,0.3
		c0.1,0.2,0.2,0.3,0.3,0.3c0.1,0,0.2,0.1,0.2,0.2c0,0.1,0.1,0.2,0.3,0.2c0.2,0,0.3,0.1,0.3,0.3c0,0.2,0.1,0.3,0.3,0.3
		c0.2,0,0.3,0.1,0.3,0.3c0,0.2,0.1,0.3,0.2,0.3c0.1,0,0.2,0.1,0.2,0.2c0,0.1,0.1,0.2,0.3,0.2c0.2,0,0.3,0.1,0.3,0.3
		c0,0.2,0.1,0.3,0.3,0.3s0.3,0.1,0.3,0.3c0,0.2,0.1,0.3,0.2,0.3c0.2,0,0.2,1.6,0.2,13.7V83h2.8H41V68.2c0-14.5,0-14.9-0.3-14.9
		c-0.2,0-0.4-0.2-0.4-0.4c0-0.2-0.2-0.3-0.3-0.3s-0.3-0.1-0.3-0.2c0-0.1-0.1-0.2-0.3-0.2c-0.2,0-0.3-0.1-0.3-0.3
		c0-0.2-0.1-0.3-0.2-0.3s-0.2-0.1-0.2-0.3c0-0.2-0.1-0.3-0.3-0.3c-0.2,0-0.3-0.1-0.3-0.2s-0.1-0.2-0.3-0.2c-0.2,0-0.3-0.1-0.3-0.3
		c0-0.2-0.1-0.3-0.2-0.3s-0.2-0.1-0.2-0.3c0-0.2-0.1-0.3-0.3-0.3c-0.2,0-0.3-0.1-0.3-0.2s-0.1-0.2-0.3-0.2c-0.2,0-0.3-0.1-0.3-0.3
		c0-0.2-0.1-0.3-0.2-0.3s-0.3-0.2-0.3-0.3c0-0.2-0.2-0.3-0.4-0.3s-0.3-0.1-0.3-0.2c0-0.1-0.1-0.2-0.3-0.2c-0.2,0-0.3-0.1-0.3-0.3
		c0-0.2-0.1-0.3-0.2-0.3c-0.1,0-0.3-0.2-0.3-0.3s-0.2-0.3-0.3-0.3c-0.1,0-0.3-0.2-0.3-0.3c0-0.2-0.2-0.3-0.4-0.3s-0.3-0.1-0.3-0.2
		c0-0.1-0.1-0.2-0.3-0.2c-0.2,0-0.3-0.1-0.3-0.3c0-0.2-0.1-0.3-0.2-0.3c-0.1,0-0.3-0.2-0.3-0.3s-0.2-0.3-0.4-0.3
		c-0.1,0-0.3-0.1-0.3-0.2c0-0.1-0.1-0.2-0.3-0.2c-0.2,0-0.3-0.1-0.3-0.3c0-0.2-0.1-0.3-0.2-0.3c-0.1,0-0.2-0.1-0.2-0.3
		s-0.1-0.3-0.3-0.4c-0.2,0-0.3-0.2-0.3-0.3c0-0.1-0.1-0.2-0.3-0.2c-0.2,0-0.3-0.1-0.3-0.3c0-0.2-0.1-0.3-0.2-0.3
		c-0.1,0-0.2-0.1-0.2-0.3s-0.1-0.3-0.3-0.4s-0.3-0.2-0.3-0.3c0-0.1-0.1-0.2-0.3-0.2c-0.2,0-0.3-0.1-0.3-0.3c0-0.2-0.1-0.3-0.2-0.3
		c-0.1,0-0.2-0.1-0.2-0.3s-0.1-0.3-0.3-0.4c-0.2,0-0.3-0.2-0.3-0.3s-0.1-0.3-0.3-0.3s-0.3-0.2-0.3-0.4c0-0.2-0.1-0.3-0.3-0.3
		c-0.2,0-0.3-0.1-0.3-0.3c0-0.2-0.1-0.3-0.2-0.3c-0.1,0-0.2-0.1-0.2-0.3s-0.1-0.3-0.3-0.4c-0.2,0-0.3-0.2-0.3-0.3s-0.1-0.2-0.3-0.2
		c-0.2,0-0.3-0.1-0.3-0.3c0-0.2-0.1-0.3-0.2-0.3c-0.1,0-0.2-0.1-0.2-0.3s-0.1-0.3-0.3-0.4c-0.2,0-0.3-0.2-0.3-0.3
		c0-0.1-0.1-0.2-0.3-0.2c-0.2,0-0.3-0.1-0.3-0.3c0-0.2-0.1-0.3-0.2-0.3c-0.1,0-0.2-0.1-0.2-0.3c0-0.1-0.1-0.3-0.3-0.4
		s-0.3-0.2-0.3-0.3c0-0.1-0.1-0.2-0.3-0.2c-0.2,0-0.3-0.1-0.3-0.3c0-0.2-0.1-0.3-0.2-0.3c-0.2,0-0.2-0.7-0.2-5.4
		c0-5.2,0-5.4-0.3-5.5c-0.6-0.1-0.6-2.5,0-2.6c0.2,0,0.3-0.2,0.3-0.4c0-0.2,0.2-0.3,1.2-0.3c1,0,1.2,0,1.2,0.3
		c0,0.1,0.1,0.3,0.3,0.4c0.2,0.1,0.3,0.2,0.3,0.7c0,0.5,0.1,0.6,0.3,0.6c0.2,0,0.3,0.1,0.3,0.3c0,0.2-0.1,0.3-0.3,0.3
		c-0.2,0-0.3,0.1-0.3,0.3c0,0.2-0.1,0.3-0.2,0.3c-0.4,0-0.4,0.4-0.4,5.4c0,4.8,0,4.9,0.3,4.9c0.2,0,0.3,0.1,0.3,0.3s0.1,0.3,0.3,0.3
		c0.2,0,0.3,0.1,0.3,0.3c0,0.2,0.1,0.3,0.2,0.3c0.1,0,0.2,0.1,0.2,0.2c0,0.1,0.1,0.2,0.3,0.2c0.2,0,0.3,0.1,0.3,0.3
		c0,0.2,0.1,0.3,0.3,0.3c0.2,0,0.3,0.1,0.3,0.3c0,0.2,0.1,0.3,0.2,0.3s0.3,0.1,0.3,0.2c0.1,0.1,0.2,0.2,0.4,0.2
		c0.1,0,0.3,0.1,0.3,0.3c0,0.2,0.1,0.3,0.3,0.3s0.3,0.1,0.3,0.3c0,0.2,0.1,0.3,0.3,0.3c0.2,0,0.3,0.1,0.3,0.2c0,0.1,0.1,0.2,0.2,0.2
		c0.1,0,0.2,0.1,0.2,0.3c0,0.2,0.1,0.3,0.3,0.3c0.2,0,0.3,0.1,0.3,0.3c0,0.2,0.1,0.3,0.3,0.3c0.2,0,0.3,0.1,0.3,0.2
		c0,0.1,0.1,0.2,0.2,0.2c0.1,0,0.2,0.1,0.2,0.3c0,0.2,0.1,0.3,0.3,0.3c0.2,0,0.3,0.1,0.3,0.3s0.1,0.3,0.3,0.3c0.2,0,0.3,0.1,0.3,0.3
		c0,0.2,0.1,0.3,0.2,0.3c0.1,0,0.2,0.1,0.2,0.2c0,0.1,0.1,0.2,0.3,0.2c0.2,0,0.3,0.1,0.3,0.3c0,0.2,0.1,0.3,0.3,0.3
		c0.2,0,0.3,0.1,0.3,0.3c0,0.2,0.1,0.3,0.2,0.3s0.3,0.1,0.3,0.2c0.1,0.1,0.2,0.2,0.4,0.2c0.1,0,0.3,0.1,0.3,0.3
		c0,0.3,0.1,0.3,0.7,0.3H33v-3.7c0-3.6,0-3.7-0.3-3.7c-0.2,0-0.3-0.1-0.3-0.3c0-0.2-0.1-0.3-0.3-0.3s-0.3-0.1-0.3-0.3
		c0-0.2-0.1-0.3-0.3-0.3c-0.2,0-0.3-0.1-0.3-0.2c0-0.1-0.1-0.2-0.2-0.2c-0.1,0-0.2-0.1-0.2-0.3c0-0.2-0.1-0.3-0.3-0.3
		c-0.2,0-0.3-0.1-0.3-0.3c0-0.2-0.1-0.3-0.3-0.3c-0.2,0-0.3-0.1-0.3-0.2c0-0.1-0.1-0.2-0.2-0.2c-0.1,0-0.2-0.1-0.2-0.3
		c0-0.2-0.1-0.3-0.3-0.3c-0.2,0-0.3-0.1-0.3-0.3s-0.1-0.3-0.3-0.3c-0.2,0-0.3-0.1-0.3-0.2c0-0.2-0.2-0.2-0.9-0.2
		c-0.8,0-0.9,0-0.9-0.3c0-0.2-0.1-0.3-0.2-0.3c-0.1,0-0.3-0.1-0.3-0.3c-0.1-0.2-0.2-0.3-0.3-0.3c-0.2,0-0.2-0.2-0.2-0.9
		c0-0.7,0.1-0.9,0.3-0.9c0.1,0,0.3-0.1,0.4-0.3c0-0.2,0.2-0.3,0.3-0.3c0.1,0,0.2-0.1,0.2-0.2c0-0.2,0.2-0.2,0.7-0.2
		c0.5,0,0.7,0.1,0.7,0.2c0,0.2,0.2,0.2,0.6,0.2c0.5,0,0.6,0.1,0.6,0.3c0,0.2,0.1,0.3,0.3,0.3c0.3,0,0.3,0.1,0.3,1.2
		c0,0.7,0.1,1.2,0.2,1.2c0.2,0,1,0.8,1,1c0,0.1,0.1,0.2,0.3,0.2c0.2,0,0.3,0.1,0.3,0.3c0,0.2,0.1,0.3,0.3,0.3c0.2,0,0.4,0.1,0.4,0.3
		c0.1,0.3,0.2,0.3,0.9,0.3l0.8-0.1l0-3.3c0-3.6,0-4.1-0.4-4.1c-0.1,0-0.2-0.1-0.2-0.2c0-0.1-0.1-0.2-0.3-0.2c-0.2,0-0.3-0.1-0.3-0.3
		c0-0.2-0.1-0.3-0.3-0.3c-0.2,0-0.3-0.1-0.3-0.3c0-0.2-0.1-0.3-0.2-0.3c-0.1,0-0.2-0.1-0.2-0.2c0-0.1-0.1-0.2-0.3-0.2
		c-0.2,0-0.3-0.1-0.3-0.3c0-0.2-0.1-0.3-0.3-0.3s-0.3-0.1-0.3-0.3c0-0.2-0.1-0.3-0.2-0.3c-0.1,0-0.2-0.1-0.2-0.2
		c0-0.1-0.1-0.2-0.3-0.2c-0.2,0-0.3-0.1-0.3-0.3s-0.1-0.3-0.3-0.3c-0.3,0-0.3-0.1-0.3-3.3c0-2.8,0-3.4-0.2-3.4
		c-0.2-0.1-0.2-0.4-0.2-1c0-0.7,0.1-0.9,0.2-0.9c0.1,0,0.2-0.1,0.2-0.3c0-0.2,0.1-0.3,0.3-0.3c0.2,0,0.3-0.1,0.3-0.2
		c0-0.2,0.2-0.2,0.7-0.2c0.5,0,0.7,0.1,0.7,0.2c0,0.2,0.2,0.2,0.6,0.2c0.6,0,0.6,0,0.6,0.7c0,0.5,0.1,0.7,0.2,0.7
		c0.1,0,0.2,0.1,0.2,0.3s-0.1,0.3-0.2,0.3c-0.2,0-0.2,0.2-0.2,0.6c0,0.5-0.1,0.6-0.3,0.6c-0.3,0-0.3,0.1-0.3,3.1c0,3,0,3.1,0.3,3.1
		c0.2,0,0.3,0.1,0.3,0.3c0,0.2,0.1,0.3,0.2,0.3s0.3,0.1,0.3,0.2c0.1,0.1,0.2,0.2,0.4,0.2c0.1,0,0.3,0.1,0.3,0.3
		c0,0.2,0.1,0.3,0.3,0.3c0.2,0,0.3,0.1,0.3,0.3c0,0.1,0.2,0.3,0.3,0.4c0.2,0,0.3,0.2,0.3,0.3c0,0.1,0.1,0.2,0.2,0.2
		c0.1,0,0.2,0.1,0.2,0.3c0,0.2,0.1,0.3,0.3,0.3c0.2,0,0.3,0.1,0.3,0.3c0,0.2,0.1,0.3,0.3,0.3c0.2,0,0.3,0.1,0.3,0.2
		c0,0.1,0.1,0.2,0.2,0.2c0.2,0,0.2,1.3,0.2,11.1c0,11,0,11.1,0.3,11.1c0.2,0,0.3,0.1,0.3,0.3s0.1,0.3,0.3,0.3c0.2,0,0.3,0.1,0.3,0.3
		c0,0.2,0.1,0.3,0.2,0.3c0.1,0,0.2,0.1,0.2,0.2c0,0.1,0.1,0.2,0.3,0.2c0.2,0,0.3,0.1,0.3,0.3c0,0.2,0.1,0.3,0.3,0.3
		c0.2,0,0.3,0.1,0.3,0.3c0,0.2,0.1,0.3,0.2,0.3c0.1,0,0.3,0.1,0.3,0.2c0.1,0.1,0.2,0.2,0.3,0.2c0.1,0,0.3,0.2,0.3,0.3
		c0.1,0.4,1,0.5,1.2,0.1c0.4-0.9,0.1-6.4-0.3-6.4c-0.1,0-0.2-0.2-0.2-0.3c0-0.2-0.1-0.3-0.3-0.3c-0.3,0-0.3-0.1-0.3-0.6
		c0-0.5,0.1-0.7,0.3-0.7c0.2-0.1,0.3-0.2,0.3-0.6c0-0.5,0-0.5,0.6-0.5c0.5,0,0.6-0.1,0.6-0.3c0-0.2,0.1-0.3,0.3-0.3
		c0.2,0,0.3,0.1,0.3,0.3c0,0.3,0.1,0.3,0.6,0.3c0.4,0,0.6,0.1,0.6,0.3c0,0.1,0.2,0.3,0.3,0.4c0.4,0.1,0.5,1.9,0.1,1.9
		c-0.3,0-0.4,0.3-0.4,0.8c0,0.2-0.1,0.3-0.2,0.3c-0.2,0-0.2,1-0.2,8.3V60h0.8c0.7,0,0.9-0.1,0.9-0.3c0-0.2,0.2-0.3,0.3-0.3
		c0.1,0,0.2-0.2,0.2-0.3c0-0.2,0.1-0.3,0.3-0.3c0.2,0,0.3-0.1,0.3-0.2c0-0.1,0.1-0.2,0.3-0.2s0.3-0.2,0.4-0.3c0-0.2,0.2-0.3,0.3-0.3
		c0.1,0,0.2-0.2,0.2-0.3c0-0.2,0.1-0.3,0.3-0.3c0.2,0,0.3-0.1,0.3-0.2s0.2-0.3,0.3-0.3c0.3-0.1,0.3-0.2,0.3-9.9c0-9.7,0-9.8-0.3-9.8
		c-0.2,0-0.3-0.1-0.3-0.3c0-0.2-0.1-0.3-0.3-0.3c-0.2,0-0.3-0.1-0.3-0.3c0-0.2-0.1-0.3-0.2-0.3c-0.1,0-0.2-0.1-0.2-0.3
		s-0.2-0.3-0.3-0.4c-0.2,0-0.3-0.2-0.3-0.3s-0.2-0.2-0.3-0.2c-0.2,0-0.3-0.1-0.3-0.3c0-0.2-0.1-0.3-0.2-0.3c-0.1,0-0.2-0.1-0.2-0.3
		s-0.2-0.3-0.3-0.4c-0.2,0-0.3-0.2-0.3-0.3c0-0.1-0.2-0.2-0.3-0.2c-0.2,0-0.3-0.1-0.3-0.3c0-0.2-0.1-0.3-0.2-0.3
		c-0.1,0-0.2-0.1-0.2-0.3c0-0.1-0.2-0.3-0.3-0.4s-0.3-0.2-0.3-0.3c0-0.1-0.2-0.2-0.3-0.2c-0.2,0-0.3-0.1-0.3-0.3
		c0-0.2-0.1-0.3-0.2-0.3c-0.2,0-0.2-1.2-0.2-10.1c0-10,0-10.1-0.3-10.2c-0.2,0-0.3-0.2-0.3-0.3C40.3,9.1,40.2,9,40,9
		c-0.3,0-0.3-0.1-0.3-1s0-1,0.3-1c0.2,0,0.3-0.1,0.3-0.2c0-0.1,0.2-0.3,0.3-0.3c0.2,0,0.3-0.2,0.3-0.4c0-0.2,0.2-0.3,0.9-0.3
		c0.6,0,0.9,0.1,0.9,0.2c0,0.3,0.7,1,1,1C43.9,7,44,7.4,44,8c0,0.9,0,1-0.3,1c-0.2,0-0.3,0.1-0.3,0.2c0,0.1-0.1,0.2-0.2,0.2
		c-0.2,0-0.2,1.2-0.2,9.8c0,8.4,0,9.8,0.2,9.8c0.1,0,0.3,0.1,0.3,0.3c0.1,0.2,0.2,0.3,0.3,0.3c0.1,0,0.2,0.1,0.2,0.2
		c0,0.1,0.1,0.2,0.3,0.2c0.2,0,0.3,0.1,0.3,0.3c0,0.2,0.1,0.3,0.3,0.3s0.3,0.1,0.3,0.3c0,0.2,0.1,0.3,0.2,0.3c0.1,0,0.2,0.1,0.2,0.2
		s0.2,0.3,0.3,0.3c0.2,0,0.3,0.2,0.3,0.4c0,0.2,0.1,0.3,0.3,0.3c0.2,0,0.3,0.1,0.3,0.3c0,0.2,0.1,0.3,0.2,0.3c0.1,0,0.2,0.1,0.2,0.2
		c0,0.1,0.2,0.3,0.3,0.3c0.2,0.1,0.3,0.2,0.3,0.3c0,0.1,0.2,0.2,0.3,0.2c0.2,0,0.3,0.1,0.3,0.3c0,0.2,0.1,0.3,0.2,0.3
		c0.2,0,1,0.8,1,1c0,0.1,0.2,0.2,0.3,0.2c0.3,0,0.3,0.1,0.3,2.5v2.5h0.8c0.7,0,0.8-0.1,0.9-0.3c0.1-0.2,0.2-0.3,0.3-0.3
		c0.1,0,0.2-0.1,0.2-0.3s0.2-0.3,0.3-0.4s0.3-0.2,0.3-0.3s0.1-0.2,0.2-0.2c0.1,0,0.3-0.2,0.3-0.3c0.1-0.2,0.2-0.3,0.3-0.3
		c0.1,0,0.2-0.1,0.2-0.3s0.2-0.3,0.3-0.4c0.2,0,0.3-0.2,0.3-0.3s0.2-0.2,0.3-0.3c0.3-0.1,0.3-0.2,0.3-2.2c0-2,0-2.1-0.3-2.1
		c-0.2,0-0.3-0.1-0.3-0.3c0-0.1-0.2-0.3-0.3-0.4c-0.2,0-0.3-0.2-0.3-0.3c0-0.1-0.1-0.2-0.2-0.2c-0.1,0-0.2-0.1-0.2-0.3
		c0-0.2-0.1-0.3-0.3-0.3c-0.2,0-0.3-0.1-0.3-0.3c0-0.1-0.2-0.3-0.3-0.4s-0.3-0.2-0.3-0.3c0-0.1-0.1-0.2-0.2-0.2
		c-0.1,0-0.3-0.1-0.3-0.3c0-0.2-0.2-0.3-0.3-0.3S52,29.7,52,29.5s-0.2-0.3-0.4-0.3s-0.3-0.1-0.3-0.2c0-0.1-0.1-0.2-0.2-0.2
		s-0.3-0.1-0.3-0.3c0-0.2-0.2-0.3-0.4-0.3c-0.2,0-0.3-0.1-0.3-0.3c0-0.2-0.1-0.3-0.3-0.3c-0.2,0-0.3-0.1-0.3-0.2
		c0-0.1-0.1-0.2-0.2-0.2c-0.1,0-0.3-0.1-0.3-0.3s-0.2-0.3-0.4-0.3c-0.2,0-0.3-0.4-0.3-3.4c0-3.3,0-3.4-0.3-3.4
		c-0.3,0-0.3-0.1-0.3-1.2c0-1,0-1.2,0.3-1.2c0.1,0,0.3-0.1,0.4-0.2c0.1-0.1,0.2-0.2,0.3-0.2c0.1,0,0.3-0.1,0.3-0.3
		c0.1-0.4,1.2-0.5,1.2-0.1c0,0.3,0.3,0.4,0.8,0.4c0.3,0,0.3,0.1,0.3,0.6c0,0.5,0.1,0.6,0.3,0.6c0.2,0,0.3,0.1,0.3,0.3
		c0,0.2-0.1,0.4-0.3,0.4c-0.2,0.1-0.3,0.2-0.3,0.6c0,0.3-0.1,0.5-0.2,0.5c-0.2,0-0.2,0.5-0.2,3.4s0,3.4,0.2,3.4
		c0.1,0,0.2,0.1,0.2,0.2c0,0.1,0.1,0.2,0.3,0.2c0.2,0,0.3,0.1,0.3,0.3s0.1,0.3,0.3,0.3c0.2,0,0.3,0.1,0.3,0.3c0,0.2,0.1,0.3,0.2,0.3
		s0.3,0.1,0.3,0.3c0,0.2,0.2,0.3,0.4,0.3s0.3,0.1,0.3,0.2c0,0.1,0.1,0.2,0.3,0.2c0.2,0,0.3,0.1,0.3,0.3c0,0.3,0.1,0.3,0.9,0.3h0.9
		v-8.3c0-8.1,0-8.3-0.3-8.4c-0.2,0-0.3-0.2-0.3-0.3s-0.2-0.2-0.3-0.2c-0.3,0-0.3-0.1-0.3-0.9c0-0.7,0.1-0.9,0.3-0.9
		c0.1,0,0.3-0.2,0.4-0.3c0-0.2,0.2-0.3,0.4-0.3c0.2,0,0.3-0.1,0.3-0.3c0-0.3,0.1-0.3,0.9-0.3c0.7,0,0.9,0.1,0.9,0.3
		c0,0.1,0.2,0.3,0.3,0.4s0.3,0.2,0.3,0.3c0,0.1,0.1,0.3,0.2,0.3c0.2,0.1,0.2,0.4,0.2,1c0,0.7-0.1,0.9-0.2,0.9
		c-0.1,0-0.2,0.1-0.2,0.2s-0.2,0.3-0.3,0.3c-0.3,0.1-0.3,0.2-0.3,12.7c0,12.5,0,12.6-0.3,12.6c-0.2,0-0.3,0.1-0.3,0.2
		c0,0.1-0.1,0.2-0.2,0.2c-0.1,0-0.2,0.1-0.2,0.3c0,0.2-0.1,0.3-0.3,0.3c-0.2,0-0.3,0.1-0.3,0.3s-0.1,0.3-0.3,0.3
		c-0.2,0-0.3,0.1-0.3,0.2c0,0.1-0.2,0.3-0.3,0.3c-0.2,0-0.3,0.2-0.3,0.4s-0.1,0.3-0.2,0.3c-0.1,0-0.2,0.1-0.2,0.3
		c0,0.2-0.1,0.3-0.3,0.3c-0.2,0-0.3,0.1-0.3,0.2c0,0.1-0.1,0.2-0.3,0.2s-0.3,0.2-0.4,0.3s-0.2,0.3-0.3,0.3s-0.2,0.2-0.2,0.3
		c0,0.2-0.1,0.3-0.3,0.3c-0.2,0-0.3,0.1-0.3,0.2c0,0.1-0.1,0.2-0.3,0.2s-0.3,0.2-0.4,0.3c0,0.2-0.2,0.3-0.3,0.3
		c-0.2,0-0.2,0.7-0.2,3.7v3.7h0.6c0.4,0,0.6-0.1,0.6-0.2c0-0.1,0.1-0.2,0.3-0.2s0.3-0.2,0.4-0.3c0-0.2,0.2-0.3,0.3-0.3
		c0.1,0,0.2-0.2,0.2-0.3c0-0.2,0.1-0.3,0.3-0.3c0.2,0,0.3-0.1,0.3-0.2c0-0.1,0.1-0.2,0.3-0.2s0.3-0.2,0.4-0.3c0-0.2,0.2-0.3,0.3-0.3
		c0.2,0,0.2-0.2,0.2-0.9c0-0.8,0-0.9,0.3-0.9c0.2,0,0.3-0.1,0.3-0.3c0-0.2,0.1-0.3,0.3-0.3c0.1,0,0.3-0.1,0.4-0.2
		c0.1-0.2,0.4-0.2,1.3-0.2h1.2V47c0,0.3,0.1,0.5,0.2,0.6c0.2,0.1,0.2,0.4,0.2,1c0,0.7-0.1,0.9-0.2,0.9c-0.1,0-0.2,0.1-0.2,0.3
		c0,0.3-0.1,0.3-0.7,0.3c-0.5,0-0.7,0.1-0.7,0.2c0,0.2-0.2,0.2-0.7,0.2c-0.4,0-0.8,0.1-1,0.3c-0.2,0.2-0.4,0.3-0.5,0.3
		c-0.1,0-0.2,0.2-0.2,0.3c0,0.2-0.1,0.3-0.3,0.3c-0.2,0-0.3,0.1-0.3,0.3c0,0.2-0.1,0.3-0.3,0.3c-0.2,0-0.3,0.1-0.3,0.2
		c0,0.1-0.1,0.2-0.2,0.2c-0.1,0-0.2,0.1-0.2,0.3c0,0.2-0.1,0.3-0.3,0.3s-0.3,0.1-0.3,0.3c0,0.2-0.1,0.3-0.3,0.3
		c-0.2,0-0.3,0.1-0.3,0.2c0,0.2-0.8,1-1,1c-0.1,0-0.2,0.2-0.2,0.3c0,0.2-0.1,0.3-0.3,0.3c-0.2,0-0.3,0.1-0.3,0.2c0,0.2-0.8,1-1,1
		c-0.1,0-0.2,0.2-0.2,0.3c0,0.2-0.1,0.3-0.3,0.3c-0.2,0-0.3,0.1-0.3,0.2c0,0.2-0.8,1-1,1c-0.1,0-0.2,0.2-0.2,0.3
		c0,0.2-0.1,0.3-0.3,0.3c-0.2,0-0.4,0.1-0.4,0.3c0,0.2-0.2,0.3-0.4,0.3s-0.3,0.1-0.3,0.2c0,0.1-0.1,0.2-0.2,0.2
		c-0.1,0-0.2,0.1-0.2,0.3c0,0.2-0.1,0.3-0.3,0.3s-0.3,0.1-0.3,0.3c0,0.2-0.1,0.3-0.3,0.3c-0.2,0-0.3,0.1-0.3,0.2
		c0,0.1-0.1,0.2-0.2,0.2c-0.1,0-0.3,0.2-0.3,0.3c-0.1,0.2-0.2,0.3-0.3,0.3c-0.2,0-0.2,1.4-0.2,9.7V83h2.8h2.8v-8.2
		c0-6.4,0-8.2,0.2-8.2c0.3,0,1-0.7,1-1c0-0.1,0.2-0.2,0.3-0.2c0.2,0,0.3-0.1,0.3-0.3c0-0.2,0.1-0.4,0.3-0.4c0.2,0,0.3-0.2,0.3-0.4
		c0-0.1,0.1-0.3,0.2-0.3c0.1,0,0.2-0.1,0.2-0.2c0-0.1,0.1-0.2,0.3-0.2c0.2,0,0.3-0.1,0.3-0.3c0-0.2,0.1-0.4,0.3-0.4
		c0.2,0,0.3-0.2,0.3-0.4s0.1-0.3,0.2-0.3c0.1,0,0.2-0.1,0.2-0.2c0-0.1,0.1-0.2,0.3-0.2c0.2,0,0.3-0.1,0.3-0.3s0.1-0.3,0.3-0.3
		c0.2,0,0.3-0.1,0.3-0.3c0-0.2,0.1-0.3,0.2-0.3c0.1,0,0.2-0.1,0.2-0.2c0-0.1,0.1-0.2,0.3-0.2s0.3-0.2,0.4-0.3c0-0.2,0.2-0.3,0.4-0.3
		c0.2,0,0.3-0.1,0.3-0.3c0-0.2,0.1-0.3,0.2-0.3c0.3,0,1-0.7,1-1c0-0.1,0.2-0.2,0.3-0.2c0.2,0,0.3-0.1,0.3-0.3c0-0.2,0.1-0.3,0.2-0.3
		c0.3,0,1-0.7,1-1c0-0.1,0.2-0.2,0.3-0.2c0.2,0,0.3-0.1,0.3-0.3c0-0.2,0.1-0.3,0.3-0.3c0.1,0,0.3-0.2,0.4-0.3c0-0.2,0.2-0.3,0.3-0.3
		c0.1,0,0.2-0.1,0.2-0.2c0-0.1,0.1-0.2,0.3-0.2c0.2,0,0.3-0.1,0.3-0.3s0.1-0.3,0.3-0.3c0.2,0,0.3-0.1,0.3-0.3c0-0.2,0.1-0.3,0.2-0.3
		c0.1,0,0.2-0.1,0.2-0.2c0-0.1,0.2-0.3,0.3-0.3c0.3-0.1,0.3-0.2,0.3-16.9c0-16.7,0-16.8-0.3-16.8c-0.3,0-0.3-0.1-0.3-1.2
		s0-1.2,0.3-1.2c0.2,0,0.3-0.1,0.3-0.3c0-0.3,0.1-0.3,1.2-0.3s1.2,0,1.2,0.3c0,0.2,0.1,0.3,0.3,0.3c0.3,0,0.3,0.1,0.3,0.6
		c0,0.4,0.1,0.6,0.2,0.6c0.1,0,0.2,0.1,0.2,0.3c0,0.2-0.1,0.3-0.2,0.3c-0.1,0-0.2,0.1-0.2,0.3c0,0.2-0.1,0.4-0.3,0.4
		c-0.3,0.1-0.3,0.2-0.3,7.1l0,7l0.5,0.1c0.4,0,0.5,0,0.6-0.3c0.1-0.2,0.2-0.3,0.4-0.3c0.2,0,0.3-0.1,0.3-0.3c0-0.2,0.1-0.3,0.3-0.3
		c0.2,0,0.3-0.1,0.3-0.2c0-0.1,0.1-0.2,0.2-0.2c0.1,0,0.2-0.1,0.2-0.3c0-0.2,0.1-0.3,0.3-0.3s0.3-0.1,0.3-0.3s0.1-0.3,0.3-0.3
		c0.3,0,0.3-0.1,0.3-0.9c0-0.7,0.1-0.9,0.2-0.9c0.1,0,0.2-0.1,0.2-0.3c0-0.2,0.1-0.3,0.3-0.3c0.2,0,0.3-0.1,0.3-0.2s0.1-0.2,0.3-0.2
		c0.2,0,0.3-0.1,0.3-0.3c0-0.2,0.1-0.3,0.3-0.3c0.2,0,0.3,0.1,0.3,0.3c0,0.3,0.1,0.3,0.6,0.3c0.4,0,0.6,0.1,0.6,0.2
		c0,0.1,0.1,0.2,0.3,0.2c0.3,0,0.3,0.1,0.3,1.2s0,1.2-0.3,1.2c-0.2,0-0.3,0.1-0.3,0.3c0,0.3-0.1,0.3-0.6,0.3c-0.5,0-0.6,0.1-0.6,0.3
		c0,0.3-0.1,0.3-0.9,0.3c-0.7,0-0.9,0.1-0.9,0.2c0,0.1-0.1,0.2-0.3,0.2c-0.2,0-0.3,0.1-0.3,0.3c0,0.2-0.1,0.3-0.3,0.3
		c-0.2,0-0.3,0.1-0.3,0.3c0,0.2-0.1,0.3-0.2,0.3c-0.3,0-1,0.7-1,1c0,0.1-0.2,0.2-0.3,0.2c-0.2,0-0.3,0.1-0.3,0.3
		c0,0.2-0.1,0.3-0.3,0.3c-0.2,0-0.3,0.1-0.3,0.3c0,0.1-0.1,0.3-0.2,0.4c-0.1,0.1-0.2,0.2-0.2,0.3c0,0.1-0.2,0.2-0.3,0.2
		c-0.3,0-0.3,0.1-0.3,6.4v6.4h0.6c0.4,0,0.6-0.1,0.6-0.2c0-0.1,0.1-0.2,0.3-0.2c0.2,0,0.3-0.1,0.3-0.3c0-0.2,0.1-0.3,0.2-0.3
		c0.3,0,1-0.7,1-1c0-0.1,0.2-0.2,0.3-0.2c0.2,0,0.3-0.1,0.3-0.3s0.1-0.3,0.3-0.3c0.2,0,0.3-0.1,0.3-0.3c0-0.2,0.1-0.3,0.2-0.3
		c0.1,0,0.2-0.1,0.2-0.2c0-0.1,0.1-0.2,0.3-0.2c0.2,0,0.3-0.1,0.3-0.3c0-0.2,0.1-0.3,0.3-0.3s0.3-0.1,0.3-0.3c0-0.2,0.1-0.3,0.2-0.3
		c0.5,0,1-0.8,1-1.6c0-0.7,0-0.9,0.3-0.9c0.3,0,0.3-0.1,0.3-0.6V39h1.2c0.9,0,1.2,0.1,1.2,0.2c0,0.1,0.3,0.5,0.6,0.7
		c0.6,0.6,0.8,1.5,0.4,1.5c-0.1,0-0.3,0.2-0.3,0.6c-0.1,0.5-0.2,0.6-0.6,0.6c-0.4,0-0.5,0.1-0.6,0.3c-0.1,0.3-0.2,0.3-1,0.3
		c-0.8,0-0.9,0-0.9,0.3c0,0.2-0.1,0.3-0.3,0.3c-0.2,0-0.3,0.1-0.3,0.3c0,0.1-0.1,0.3-0.2,0.4c-0.1,0.1-0.2,0.2-0.2,0.3
		c0,0.1-0.2,0.2-0.3,0.2c-0.2,0-0.3,0.1-0.3,0.3s-0.1,0.3-0.3,0.3s-0.3,0.1-0.3,0.3c0,0.2-0.1,0.3-0.2,0.3c-0.1,0-0.2,0.1-0.2,0.2
		c0,0.1-0.1,0.2-0.3,0.2c-0.2,0-0.3,0.1-0.3,0.3c0,0.2-0.1,0.3-0.3,0.3c-0.2,0-0.3,0.1-0.3,0.3c0,0.2-0.1,0.3-0.3,0.3
		c-0.1,0-0.3,0.1-0.4,0.2c-0.1,0.1-0.2,0.2-0.3,0.2s-0.2,0.2-0.2,0.3c0,0.2-0.1,0.3-0.3,0.3c-0.2,0-0.3,0.1-0.3,0.3
		c0,0.2-0.1,0.3-0.3,0.3c-0.2,0-0.3,0.1-0.3,0.2c0,0.1-0.1,0.2-0.2,0.2c-0.1,0-0.2,0.1-0.2,0.3c0,0.2-0.1,0.3-0.3,0.3
		s-0.3,0.1-0.3,0.3c0,0.2-0.1,0.3-0.3,0.3c-0.2,0-0.3,0.1-0.3,0.2c0,0.1-0.1,0.3-0.2,0.3c-0.1,0.1-0.2,0.2-0.2,0.4
		c0,0.1-0.1,0.3-0.3,0.3c-0.2,0-0.3,0.1-0.3,0.3s-0.1,0.3-0.3,0.3c-0.3,0-0.3,0.1-0.3,0.6V55h3.7c3.6,0,3.7,0,3.7-0.3
		c0-0.3,0.1-0.3,1-0.3s1,0,1,0.3c0,0.2,0.1,0.3,0.2,0.3c0.1,0,0.3,0.2,0.3,0.3c0.1,0.2,0.2,0.3,0.3,0.3c0.2,0,0.2,0.2,0.2,0.9
		c0,0.8,0,0.9-0.3,0.9c-0.2,0-0.3,0.1-0.3,0.3c0,0.3-0.1,0.3-0.6,0.3c-0.4,0-0.6,0.1-0.6,0.2c0,0.1-0.1,0.2-0.3,0.2
		s-0.3-0.1-0.3-0.2c0-0.2-0.2-0.2-0.6-0.2c-0.5,0-0.6-0.1-0.6-0.3c0-0.3-0.1-0.3-5.2-0.3s-5.2,0-5.2,0.3c0,0.2-0.1,0.3-0.3,0.3
		c-0.2,0-0.3,0.1-0.3,0.2c0,0.1-0.1,0.2-0.2,0.2c-0.1,0-0.2,0.1-0.2,0.3c0,0.2-0.1,0.3-0.3,0.3s-0.3,0.1-0.3,0.3
		c0,0.2-0.1,0.3-0.3,0.3c-0.2,0-0.3,0.1-0.3,0.2c0,0.1-0.1,0.3-0.2,0.3c-0.1,0.1-0.2,0.2-0.2,0.4c0,0.1-0.1,0.3-0.3,0.3
		c-0.2,0-0.3,0.1-0.3,0.3s-0.1,0.3-0.3,0.3c-0.2,0-0.3,0.1-0.3,0.2c0,0.1-0.1,0.3-0.2,0.3c-0.1,0.1-0.2,0.2-0.2,0.4
		c0,0.1-0.1,0.3-0.3,0.3c-0.2,0-0.3,0.1-0.3,0.3c0,0.2-0.1,0.3-0.3,0.3c-0.2,0-0.3,0.1-0.3,0.3c0,0.2-0.1,0.3-0.3,0.3
		c-0.1,0-0.3,0.1-0.4,0.2c-0.1,0.1-0.2,0.2-0.3,0.2c-0.1,0-0.2,0.2-0.2,0.3c0,0.2-0.1,0.3-0.3,0.3c-0.2,0-0.3,0.1-0.3,0.3
		c0,0.2-0.1,0.3-0.3,0.3c-0.2,0-0.3,0.1-0.3,0.2c0,0.1-0.1,0.2-0.2,0.2c-0.2,0-0.2,1-0.2,7.7V82h1.5c1.2,0,1.5,0,1.5-0.2
		c0-0.2,0.2-0.2,1-0.2c1.1,0,1.5-0.1,1.5-0.4c0-0.2,0.2-0.2,0.6-0.2c0.5,0,0.6-0.1,0.6-0.3c0-0.3,0.1-0.3,0.9-0.3
		c0.7,0,0.9-0.1,0.9-0.2c0-0.2,0.2-0.2,0.6-0.2c0.5,0,0.6-0.1,0.7-0.3c0.1-0.2,0.2-0.3,0.7-0.3c0.5,0,0.6-0.1,0.6-0.3
		c0-0.3,0.1-0.3,0.6-0.3c0.4,0,0.6-0.1,0.6-0.2c0-0.2,0.2-0.2,0.4-0.2c0.2,0,0.6-0.1,0.7-0.3c0.2-0.2,0.4-0.4,0.6-0.4
		c0.2-0.1,0.3-0.2,0.3-0.4c0-0.2,0.2-0.3,0.5-0.3c0.3,0,0.5-0.1,0.6-0.2c0-0.1,0.2-0.3,0.4-0.3c0.2,0,0.3-0.2,0.3-0.3
		c0-0.1,0.1-0.3,0.2-0.3c0.1,0,0.2-0.1,0.2-0.3c0-0.3,0.1-0.3,0.5-0.3c0.5,0,1.3-0.6,1.3-1c0-0.1,0.2-0.2,0.3-0.2
		c0.2,0,0.3-0.1,0.3-0.3c0-0.2,0.1-0.3,0.3-0.3c0.2,0,0.3-0.1,0.3-0.3c0-0.2,0.1-0.3,0.2-0.3c0.1,0,0.2-0.1,0.2-0.2
		c0-0.1,0.1-0.2,0.3-0.2c0.2,0,0.3-0.1,0.3-0.3c0-0.2,0.1-0.3,0.3-0.3s0.3-0.1,0.3-0.3c0-0.2,0.1-0.3,0.3-0.3c0.2,0,0.3-0.1,0.3-0.2
		c0-0.1,0.1-0.2,0.2-0.2c0.1,0,0.2-0.1,0.2-0.3c0-0.2,0.1-0.3,0.3-0.3c0.2,0,0.3-0.1,0.3-0.3c0-0.2,0.1-0.3,0.2-0.3
		c0.4,0,1-0.8,1-1.3c0-0.4,0.1-0.5,0.3-0.5c0.2,0,0.3-0.1,0.3-0.2c0-0.1,0.2-0.3,0.3-0.3c0.2,0,0.3-0.2,0.3-0.3
		c0-0.1,0.1-0.3,0.2-0.3c0.2-0.1,0.2-0.3,0.2-0.7c0-0.5,0.1-0.6,0.3-0.6c0.2,0,0.3-0.1,0.3-0.2c0-0.1,0.2-0.3,0.3-0.4
		c0.2-0.1,0.3-0.4,0.3-0.7c0-0.3,0.1-0.5,0.2-0.5c0.2,0,0.2-0.2,0.2-0.6c0-0.5,0.1-0.6,0.3-0.6c0.3,0,0.3-0.1,0.3-0.6
		c0-0.4,0.1-0.6,0.3-0.7c0.3-0.1,0.3-0.2,0.3-0.7s0.1-0.6,0.3-0.7c0.2-0.1,0.3-0.2,0.3-0.6c0-0.3,0.1-0.5,0.2-0.6
		c0.2-0.1,0.2-0.3,0.2-0.9c0-0.7,0.1-0.8,0.3-0.9c0.3-0.1,0.3-0.2,0.3-0.9c0-0.6,0.1-0.8,0.2-0.8c0.3,0,0.4-0.4,0.4-1.5
		c0-0.8,0.1-1,0.2-1c0.2,0,0.2-0.3,0.2-1.5c0-1.4,0-1.5,0.3-1.6c0.5-0.1,0.5-13.3,0-13.4c-0.3-0.1-0.3-0.2-0.3-1.6
		c0-1.2,0-1.5-0.2-1.5c-0.2,0-0.2-0.2-0.2-1.2c0-1,0-1.2-0.3-1.3c-0.3-0.1-0.3-0.2-0.3-1c0-0.8,0-0.9-0.3-0.9
		c-0.3,0-0.3-0.1-0.3-0.9c0-0.7-0.1-0.9-0.2-0.9c-0.2,0-0.2-0.2-0.2-0.5c0-0.4-0.1-0.5-0.3-0.6c-0.3-0.1-0.3-0.2-0.3-0.7
		c0-0.4-0.1-0.6-0.3-0.7c-0.2-0.1-0.3-0.2-0.3-0.7c0-0.5-0.1-0.6-0.3-0.6c-0.3,0-0.3-0.1-0.3-0.6c0-0.4-0.1-0.6-0.2-0.6
		c-0.2,0-0.2-0.2-0.2-0.6c0-0.5-0.1-0.6-0.3-0.7c-0.2,0-0.3-0.2-0.3-0.3c0-0.1-0.2-0.2-0.3-0.2c-0.3,0-0.3-0.1-0.3-0.7
		c0-0.5-0.1-0.7-0.2-0.7c-0.1,0-0.3-0.1-0.3-0.3c0-0.2-0.2-0.3-0.4-0.3c-0.2,0-0.3-0.2-0.3-0.6c0-0.5-0.1-0.6-0.3-0.6
		c-0.2,0-0.3-0.1-0.3-0.3c0-0.1-0.1-0.3-0.2-0.4c-0.1-0.1-0.2-0.2-0.2-0.3c0-0.1-0.2-0.2-0.3-0.2c-0.2,0-0.3-0.1-0.3-0.3
		c0-0.2-0.1-0.3-0.3-0.3c-0.3,0-0.3-0.1-0.3-0.6s-0.1-0.6-0.3-0.6c-0.2,0-0.3-0.1-0.3-0.3c0-0.2-0.1-0.3-0.2-0.3
		c-0.1,0-0.2-0.1-0.2-0.2c0-0.1-0.2-0.3-0.3-0.3c-0.2-0.1-0.3-0.2-0.3-0.3c0-0.1-0.2-0.2-0.3-0.2c-0.2,0-0.3-0.1-0.3-0.3
		c0-0.3-0.1-0.3-0.6-0.3c-0.5,0-0.6-0.1-0.6-0.3c0-0.2-0.1-0.3-0.3-0.3c-0.2,0-0.3-0.1-0.3-0.2c0-0.1-0.1-0.2-0.2-0.2
		c-0.1,0-0.2-0.1-0.2-0.3c0-0.2-0.1-0.3-0.3-0.3C68.2,8.3,68,8.2,68,8c-0.1-0.2-0.2-0.3-0.6-0.3c-0.4,0-0.5-0.1-0.6-0.3
		c0-0.2-0.2-0.3-0.4-0.3c-0.1,0-0.3-0.1-0.3-0.2S66,6.5,65.9,6.5c-0.2,0-0.4-0.1-0.4-0.3c-0.1-0.2-0.2-0.3-0.6-0.3
		c-0.4,0-0.5-0.1-0.6-0.3c-0.1-0.3-0.2-0.3-0.7-0.3c-0.4,0-0.6-0.1-0.6-0.2c0-0.2-0.2-0.2-0.6-0.2c-0.5,0-0.6-0.1-0.6-0.3
		c0-0.3-0.1-0.3-0.6-0.3c-0.4,0-0.6-0.1-0.7-0.3c-0.1-0.3-0.2-0.3-0.7-0.3c-0.4,0-0.6-0.1-0.6-0.2c0-0.2-0.2-0.2-0.6-0.2
		c-0.5,0-0.6-0.1-0.6-0.3c0-0.3-0.1-0.3-0.9-0.3s-0.9,0-0.9-0.3s-0.1-0.3-0.9-0.3c-0.7,0-0.9-0.1-0.9-0.2S54.3,1,53.6,1
		c-0.8,0-0.9-0.1-1-0.3c-0.1-0.3-0.3-0.3-1.6-0.3c-0.9,0-1.5-0.1-1.5-0.2c0-0.1-2.7-0.2-7.7-0.2S34.2,0.1,34.2,0.2 M265.3,36.6
		c2.6,0,6.8,0,9.3,0c2.5,0,0.4,0-4.7,0C264.8,36.6,262.7,36.6,265.3,36.6"/>
</g>
</svg>
