<?xml version="1.0" encoding="utf-8"?>
<!-- Generator: Adobe Illustrator 25.4.1, SVG Export Plug-In . SVG Version: 6.00 Build 0)  -->
<svg version="1.1" id="svg2" xmlns:svg="http://www.w3.org/2000/svg"
	 xmlns="http://www.w3.org/2000/svg" xmlns:xlink="http://www.w3.org/1999/xlink" x="0px" y="0px" viewBox="0 0 721 179"
	 style="enable-background:new 0 0 721 179;" xml:space="preserve">
<style type="text/css">
	.st0{fill:#FF7313;}
	.st1{fill:#FFFFFF;}
</style>
<g>
	<polygon id="polygon8_00000037654614780580186820000016226404002127375763_" class="st0" points="582.1,128.6 586.4,43 548.3,23.7 
		549.3,4.5 717.3,4.5 716.4,22.7 671.8,43 667.4,129.7 708.8,151.1 707.6,174.7 534.4,174.7 535.5,153.3 	"/>
	<path d="M710.8,178.1h-180l1.4-26.9l46.6-24.7l4.1-81.5l-38.1-19.3l1.3-24.6h174.8l-1.2,23.8l-44.6,20.3l-4.2,82.5l41.4,21.4
		L710.8,178.1z M538,171.3h166.4l0.9-18.2l-41.4-21.4l4.6-90.9l44.6-20.3l0.6-12.6H552.5l-0.7,13.8L589.9,41l-4.5,89.7l-46.6,24.7
		L538,171.3z"/>
</g>
<g>
	<path class="st0" d="M476.1,4.2c0,0,32.4-3.5,38.7,37.6c0,0,2.6,28.3-26.2,45c31.4,9.1,25.7,47.1,25.7,47.1
		c-9.5,43.2-53.7,40.7-53.7,40.7H246.7l1.3-21.4l39.9-24.6l3.8-86.8l-37.4-18.2l1.3-19.3L476.1,4.2L476.1,4.2z"/>
	<path d="M462,178c-0.7,0-1.2,0-1.5,0H243.1l1.6-26.7l39.9-24.6l3.6-82.8l-37.5-18.2l1.7-24.7l223.5-0.1c1.4-0.1,9.7-0.6,18.6,3.7
		c8.8,4.2,20.1,14.1,23.6,36.7l0,0.2c0.1,1.2,2.1,26.8-22.2,44.5c26.6,12.8,21.7,48,21.6,48.4l0,0.2c-5.2,23.8-20.6,34.3-32.5,39
		C474.9,177.6,465.6,178,462,178z M250.3,171.2h210.4l0.1,0c1.7,0.1,41.4,1.7,50.2-37.9c0.1-1,1.2-9.6-1.1-19
		c-3-12.7-10.5-20.9-22.2-24.3l-7.6-2.2l6.8-4c11.2-6.5,18.7-15.5,22.4-26.9c2.5-7.9,2.2-14,2.2-14.8c-5.8-37.3-33.8-34.8-35-34.6
		l-0.4,0L258.8,7.7l-0.9,13.9l37.3,18.2l-4,90.8l-39.9,24.6L250.3,171.2z"/>
</g>
<g>
	<path class="st0" d="M81.2,4.3h92c40.1,0,70.9,33.6,68.8,74.9l-1,20.3c-2.1,41.4-36.3,74.9-76.4,74.9h-92
		c-40.1,0-70.9-33.5-68.8-74.9l1-20.3C6.9,37.8,41.1,4.3,81.2,4.3L81.2,4.3z"/>
	<path d="M164.6,177.8h-92c-19.9,0-38.3-7.9-51.9-22.1C6.5,140.7-0.7,120.7,0.4,99.3l1-20.3C3.6,36,39.4,0.9,81.2,0.9h92
		c19.9,0,38.3,7.9,51.9,22.1C239.2,38,246.5,58,245.4,79.4l-1,20.3C242.2,142.7,206.4,177.8,164.6,177.8z M81.2,7.7
		c-38.3,0-71,32.2-73,71.7l-1,20.3c-1,19.5,5.6,37.8,18.4,51.3c12.3,12.9,29,20,47,20h92c38.3,0,71-32.2,73-71.7l1-20.3
		c1-19.5-5.6-37.7-18.5-51.3c-12.3-12.9-29-20-47-20H81.2z"/>
</g>
<path id="path14" d="M679.4,112c0-4.3,1.7-8.2,4.4-11.1c2.7-2.8,6.5-4.6,10.7-4.6s8,1.8,10.7,4.6c2.7,2.8,4.4,6.7,4.4,11.1
	c0,4.3-1.7,8.2-4.4,11.1l0,0c-2.7,2.8-6.5,4.6-10.7,4.6s-8-1.8-10.7-4.6l0,0C681.1,120.3,679.4,116.3,679.4,112L679.4,112z
	 M694.6,113.9h-3.4v5.9h-2.8v-15.7h7.8c2.2,0.1,3.9,1.3,4.7,2.8c0.3,0.7,0.5,1.4,0.5,2.1l0,0c0,0.7-0.2,1.5-0.5,2.1
	c-0.5,1-1.5,1.8-2.9,2.3l4,6.6h-3.7L694.6,113.9L694.6,113.9z M691.2,111c1.7,0,3.1-0.1,5-0.1h0.3l0,0c1.1-0.2,1.7-0.6,2-1.2
	c0.1-0.2,0.2-0.5,0.2-0.7c0-0.3-0.1-0.5-0.2-0.8c-0.4-0.7-1.1-1.2-2.3-1.2h-4.9L691.2,111L691.2,111z M686,103.1
	c-2.2,2.3-3.6,5.4-3.6,8.9s1.4,6.6,3.6,8.9l0,0c2.2,2.3,5.3,3.7,8.6,3.7c3.4,0,6.4-1.4,8.6-3.7l0,0c2.2-2.3,3.6-5.4,3.6-8.9
	s-1.4-6.6-3.6-8.9c-2.2-2.3-5.3-3.7-8.6-3.7C691.2,99.4,688.2,100.9,686,103.1L686,103.1z"/>
<g>
	<path class="st1" d="M123.3,27.6h5c11.5,0,20.3,9.6,19.7,21.4l-3.9,77.5c-0.6,11.8-10.4,21.4-21.8,21.4h-5
		c-11.5,0-20.3-9.6-19.7-21.4l3.9-77.5C102.1,37.2,111.9,27.6,123.3,27.6L123.3,27.6z"/>
	<path d="M122.3,151.3h-5c-6.4,0-12.3-2.5-16.6-7.1c-4.5-4.7-6.8-11.1-6.5-17.9l3.9-77.5c0.7-13.6,12-24.6,25.2-24.6h5
		c6.4,0,12.3,2.5,16.6,7.1c4.5,4.7,6.8,11.1,6.5,17.9l-3.9,77.5C146.8,140.2,135.5,151.3,122.3,151.3z M123.3,31
		c-9.6,0-17.9,8.2-18.4,18.2l-3.9,77.5c-0.2,4.9,1.4,9.5,4.6,12.9c3.1,3.2,7.2,5,11.7,5h5c9.6,0,17.9-8.2,18.4-18.2l3.9-77.5
		c0.2-4.9-1.4-9.5-4.6-12.9c-3.1-3.2-7.2-5-11.7-5H123.3z"/>
</g>
<g>
	<path class="st1" d="M400.2,130.9h-25.4l1.5-31.6h25.5c13.5-0.5,19.5,11.5,16.1,19.3C417.8,118.6,416.5,130.4,400.2,130.9
		L400.2,130.9z"/>
	<path d="M400.3,134.3h-29l1.8-38.4h28.7c7.3-0.2,13.6,2.7,17.4,8.2c3.2,4.8,4,10.7,2,15.5C420.3,123.3,416.4,133.8,400.3,134.3
		L400.3,134.3z M378.3,127.5h21.8c11.2-0.4,13.8-6.7,14.4-9.5c0.1-0.3,0.2-0.6,0.3-0.8l0,0c1.2-2.8,0.7-6.4-1.3-9.3
		c-1.4-2.1-4.8-5.5-11.6-5.3l-0.1,0h-22.3L378.3,127.5z"/>
</g>
<g>
	<path class="st1" d="M403.3,69.6h-25.4l1.5-29.7h26.7c10.1-0.3,17.4,7.2,15.2,16.7C421.3,56.6,420.7,69.6,403.3,69.6L403.3,69.6z"
		/>
	<path d="M403.3,73h-29l1.8-36.5h29.9c6.3-0.2,11.9,2.2,15.4,6.5c3.2,3.9,4.3,8.9,3.2,14.1C424.3,59.7,421.8,73,403.3,73z
		 M381.5,66.2h21.8c14,0,14.6-9.4,14.6-9.8l0-0.3l0.1-0.3c0.7-3.2,0.1-6.2-1.8-8.5c-2.2-2.7-5.9-4.2-10-4l-0.1,0h-23.5L381.5,66.2z"
		/>
</g>
</svg>
