<?xml version="1.0" encoding="utf-8"?>
<!-- Generator: Adobe Illustrator 25.4.1, SVG Export Plug-In . SVG Version: 6.00 Build 0)  -->
<svg version="1.1" id="layer" xmlns="http://www.w3.org/2000/svg" xmlns:xlink="http://www.w3.org/1999/xlink" x="0px" y="0px"
	 viewBox="0 0 652 272.5" style="enable-background:new 0 0 652 272.5;" xml:space="preserve">
<style type="text/css">
	.st0{fill:#9E9E9F;}
	.st1{fill:#003F7E;}
</style>
<g>
	<g>
		<path class="st0" d="M409.5,242.7c-8.9,0-46.9-0.6-46.9-0.6v-147c0,0,27.9-1.2,45.8-0.7c33.6,1,50.8,13.5,53.1,34.3
			c1.6,13.8-7.1,29.4-22.3,34.8v0.4c19.2,3.6,30.6,18.3,30.6,33.5C469.9,216.8,454.4,242.7,409.5,242.7 M401.9,174.6
			c-2.3,0-10,0-13.2,0.1v47.2c3.6,0.6,9.6,0.7,17.2,0.7c21.5,0,34.5-10.5,34.5-25.2C440.3,180.7,422.6,174.6,401.9,174.6z
			 M406,112.4c-6.5,0-9.6-0.3-17.3,0.4v43.8c3.9,0.1,6.7,0.1,11.6,0.1c23.6,0,33.8-9.9,33.9-24.7C434.2,122.3,425.3,112.3,406,112.4
			z"/>
		<path class="st0" d="M152.6,193.5c-0.6,22.8,9.3,33.2,27.4,32c11.2-0.7,24.3-8,29.4-17.8l7.3,19.5c-6.8,8-24,16.2-38.7,16.4
			c-19.8,0.4-33.9-6.5-41.3-20.5c0,0,0,0-0.1,0.1c-6.5-12.1-7.7-25.8-6.1-44.1c0.4-3.2,0.6-6.4,0.6-9.9c0-35.5-15.7-55.9-43.1-55.9
			c-22.6,0-43.4,18.9-43.4,54.1c0,33.3,14,56.3,42.9,56.3c13.1,0,26.2-6.5,34.6-19.8c0.4,8.9,2.8,16.9,8.4,24.9
			c-12.4,10-27.9,15.4-44.8,15.4c-44.7,0-68-29-68-73.9c0-48.8,33.6-77.3,72.3-77.3c19.2,0,35.4,7,46.3,18.2
			c9.2,9,16.4,24.5,17,35.9c6.4-3.6,13.2-6.4,22-6.4c28.2,0,43.2,19.4,43.2,42.8c0,2.8-0.1,6.1-0.6,9.9h-65.3 M153.7,178.5H197
			c0.4-13.5-8.7-22.1-21.2-22.1C165.1,156.5,155.5,165.2,153.7,178.5z"/>
		<polyline class="st0" points="321.8,242.1 260.1,170.2 260.1,242.1 234.5,242.1 234.5,95.1 260.1,95.1 260.1,163.2 319.5,95.1 
			347.2,95.1 288.1,161.7 357.4,242.1 321.8,242.1 		"/>
		<path class="st1" d="M625.3,93.1c0,41.3-33.5,74.7-74.7,74.7c-41.3,0-74.7-33.5-74.7-74.7c0-41.3,33.5-74.7,74.7-74.7
			C591.8,18.2,625.3,51.7,625.3,93.1 M587.3,129.6c-0.9-1.2-1.5-2.5-1.7-4.1c-0.4-1.9-0.6-5.2-0.4-10V70.6c-0.1-4.8,0-8.3,0.4-10.2
			c0.4-1.6,1-2.9,1.7-4.1l-0.3-0.3c-1.2,0.9-2.5,1.5-4.1,1.7c-1.9,0.4-5.2,0.6-10,0.4h-44.8c-4.8,0.1-8.3,0-10.2-0.4
			c-1.6-0.3-3.1-0.9-4.1-1.7l-0.3,0.3c0.9,1.2,1.5,2.5,1.7,4.1c0.4,1.9,0.4,5.2,0.4,10.2v44.8c0,4.8,0,8.2-0.4,10
			c-0.3,1.6-0.9,2.9-1.7,4.1l0.3,0.3c1.2-0.9,2.5-1.5,4.1-1.7c1.9-0.4,5.2-0.6,10.2-0.4h44.8c4.8,0,8.2,0.1,10,0.4
			c1.6,0.4,2.9,1,4.1,1.7L587.3,129.6z"/>
	</g>
</g>
</svg>
