<?xml version="1.0" encoding="utf-8"?>
<!-- Generator: Adobe Illustrator 25.4.1, SVG Export Plug-In . SVG Version: 6.00 Build 0)  -->
<svg version="1.1" id="Layer_1" xmlns="http://www.w3.org/2000/svg" xmlns:xlink="http://www.w3.org/1999/xlink" x="0px" y="0px"
	 viewBox="0 0 502.4 377.2" style="enable-background:new 0 0 502.4 377.2;" xml:space="preserve">
<style type="text/css">
	.st0{fill:#1F2555;}
	.st1{fill:#00A6A7;}
</style>
<path id="Fill-1" class="st0" d="M441.4,56.7l-0.6-0.3c-0.1,0-7.1-3.2-12.7,2.6l-0.7,0.7l11.3,5.6L441.4,56.7z M493.2,118.9
	c0,0-4.9,8.8-7.1,12.1c-2.2,3.3-9.2,5.3-15.2,2.5c-2.7-1.3-28.4-16.3-38.3-15.4c-49.8,4.3-63.3-16.2-64.9-18c-1.6-1.9-4.6-1-2.5,2.7
	c10.9,18.7,43.2,27.4,43.2,27.4c8.5,20.4,9.5,34.6,9.5,34.6c-8.4-6.5-17.4-12-27-16.6c-25.6-17.2-65.7-38.5-120.9-51.8
	c3.2-43.8,25.3-107.1,128.6-92.1c0,0,20.7,3.4,34.6,13c0,0-3.3,3.5-7.7,7.8c-4.4,4.4,0.5,7.1,0.5,7.1l21.8,17.2
	c0.3,9.1,0.6,11.6,7.5,19.8c6.8,8.2,33.4,36,36.9,39.7C496.1,113.1,493.2,118.9,493.2,118.9z M255.2,33.5c-5.5,22.5-5,42.3-2.2,59
	c-5.2-1-10.5-2-15.9-2.9c-113.1-18.4-147.2,37.3-134,82.5c-37.4,14.1-72.5,30.1-100.7,45.9C46.8,111.6,143.3,18,224.7,5.6
	C251.2,2.1,258.7,19.4,255.2,33.5L255.2,33.5z"/>
<path id="Fill-2" class="st1" d="M270.9,130.8c44.1-3.5,85.6,0.9,120,17.3c-25.6-17.2-65.7-38.5-120.9-51.8
	C268.9,111.5,270.1,124.4,270.9,130.8z M264.6,131.4c-49.4,4.7-107.7,20.6-161.4,40.8c-13.2-45.2,20.9-100.9,134-82.5
	c5.4,0.9,10.7,1.9,15.9,2.9C255.7,108.5,260.5,121.6,264.6,131.4L264.6,131.4z"/>
<path id="Fill-3" class="st0" d="M389.6,320.5l14.4-35.2l14.4,35.2H389.6z M393.3,256.6l-46.5,109.4h24.4l9.9-24.3h45.9l9.9,24.3h25
	l-46.5-109.4H393.3z M91.9,295.1c0,9.4-7,16.6-19.1,16.6H53.8v-33.4h18.6c12,0,19.5,5.8,19.5,16.6L91.9,295.1L91.9,295.1z
	 M74.4,256.6H29.7v109.4h24.1v-32.8h18.3c24.5,0,44.2-13.1,44.2-38.4v-0.3C116.3,272,100.5,256.6,74.4,256.6z M247.2,268.8
	c-11.5,11.2-17.3,25.4-17.3,42.2c0,16.8,5.7,30.9,17,41.9c11.2,11,25.4,16.6,42,16.6c19.7,0,35.1-6,45.8-17.7l0.6-0.6v-50.2h-47.6
	v20.3h24.8v20.5c-6.4,3.8-14.4,5.8-23.8,5.8c-9.7,0-18.1-3.3-25-9.9c-6.8-6.6-10.3-15.5-10.3-26.4c0-10.9,3.6-19.9,10.6-26.6
	c7-6.7,15.9-10.1,26.3-10.1c5.5,0,10.3,0.7,14.4,2c3.8,1.2,7.7,3.5,11.6,6.7l13.3-16.8c-7-6.2-19.7-14.3-40.7-14.3
	C272.7,251.9,258.7,257.6,247.2,268.8z M157.8,322.2h47.1v-21.4h-47.1v-22.8h58.6v-21.4h-82.5v109.4h83.3v-21.4h-59.4V322.2
	L157.8,322.2z"/>
</svg>
