<svg id="svg" xmlns="http://www.w3.org/2000/svg" xmlns:xlink="http://www.w3.org/1999/xlink" width="400" height="194.09969481180062" viewBox="0, 0, 400,194.09969481180062"><g id="svgg"><path id="path0" d="M113.998 44.568 C 112.436 45.883,112.050 47.556,112.920 49.238 C 114.229 51.769,117.576 52.069,119.532 49.832 C 122.543 46.388,117.517 41.608,113.998 44.568 M359.627 44.247 C 357.390 45.635,357.163 48.858,359.191 50.453 C 360.623 51.580,363.029 51.535,364.386 50.356 C 367.929 47.277,363.633 41.763,359.627 44.247 M61.851 64.557 C 51.036 66.188,42.099 73.228,38.019 83.330 C 35.500 89.565,35.634 87.367,35.499 124.822 L 35.375 159.105 37.830 159.105 L 40.285 159.105 40.292 126.450 C 40.300 91.297,40.305 91.193,42.454 85.874 C 51.272 64.041,78.760 63.356,88.704 84.721 C 101.176 111.516,70.275 137.844,48.932 118.606 L 46.389 116.313 46.389 119.188 L 46.389 122.063 48.721 123.894 C 66.023 137.474,91.435 127.292,96.049 104.930 C 100.814 81.841,83.418 61.304,61.851 64.557 M162.360 64.531 C 144.281 67.729,133.236 84.145,136.305 103.255 C 140.074 126.718,165.319 137.721,183.825 123.967 L 186.368 122.077 186.368 119.187 L 186.368 116.298 183.967 118.378 C 162.792 136.722,133.386 114.489,142.777 87.236 C 150.407 65.090,178.917 62.756,188.958 83.454 C 192.155 90.045,192.174 90.197,192.364 110.580 L 192.532 128.586 194.976 128.586 L 197.419 128.586 197.257 109.969 C 197.073 88.745,196.995 88.153,193.500 81.180 C 187.703 69.619,174.252 62.427,162.360 64.531 M237.030 64.548 C 232.620 65.416,231.417 65.738,229.298 66.619 C 212.850 73.456,205.425 95.224,213.643 112.513 C 221.939 129.967,242.765 135.394,258.029 124.078 L 260.834 121.998 260.834 119.160 L 260.834 116.322 257.884 118.745 C 231.021 140.805,199.482 101.236,224.212 76.500 C 238.559 62.149,260.380 69.273,265.971 90.132 C 267.201 94.720,267.102 129.047,265.843 134.777 C 262.083 151.885,246.662 158.501,225.644 152.022 C 223.324 151.306,223.323 151.307,222.436 153.986 C 221.637 156.396,221.185 155.982,225.971 157.225 C 248.036 162.957,265.780 155.046,270.674 137.297 C 271.764 133.342,272.313 100.020,271.408 92.777 C 269.157 74.785,252.887 61.425,237.030 64.548 M113.937 97.050 L 113.937 128.586 116.378 128.586 L 118.820 128.586 118.820 97.050 L 118.820 65.514 116.378 65.514 L 113.937 65.514 113.937 97.050 M288.205 86.958 C 288.349 105.548,288.464 108.800,289.065 111.089 C 295.663 136.219,330.845 136.365,338.021 111.292 C 338.633 109.154,338.738 106.156,338.864 87.182 L 339.008 65.514 336.340 65.514 L 333.672 65.514 333.666 86.165 C 333.662 102.765,333.545 107.307,333.070 109.318 C 329.310 125.262,310.103 130.737,299.119 118.996 C 293.629 113.126,293.426 111.993,293.292 86.470 L 293.184 65.717 290.612 65.595 L 288.040 65.473 288.205 86.958 M359.308 97.050 L 359.308 128.586 361.750 128.586 L 364.191 128.586 364.191 97.050 L 364.191 65.514 361.750 65.514 L 359.308 65.514 359.308 97.050 M287.945 140.968 C 279.833 143.942,281.118 156.737,289.630 157.745 C 291.850 158.008,295.224 156.839,295.681 155.649 C 296.092 154.578,295.558 154.504,294.276 155.452 C 289.289 159.138,282.337 153.584,284.037 147.272 C 285.965 140.111,294.917 140.011,297.046 147.127 C 297.867 149.872,297.454 159.374,296.439 161.097 C 294.758 163.951,290.945 165.042,286.742 163.870 C 285.766 163.598,285.612 163.660,285.730 164.274 C 286.126 166.331,293.219 165.918,295.874 163.684 C 299.569 160.575,300.017 147.343,296.560 143.407 C 294.309 140.842,290.912 139.881,287.945 140.968 M336.384 140.869 C 334.572 141.367,332.202 143.573,331.389 145.519 C 330.549 147.530,330.566 165.615,331.408 165.615 C 331.895 165.615,332.013 164.011,332.120 155.918 L 332.248 146.221 333.425 144.680 C 336.622 140.491,342.193 140.984,344.557 145.664 C 347.867 152.215,341.769 158.956,335.533 155.641 C 333.024 154.307,332.999 155.530,335.507 156.951 C 340.981 160.051,347.876 154.582,346.878 147.931 C 346.103 142.761,341.289 139.522,336.384 140.869 M355.957 140.776 C 349.084 142.941,347.450 151.769,353.119 156.116 C 360.376 161.680,369.975 152.739,365.298 144.772 C 363.474 141.664,359.090 139.789,355.957 140.776 M303.154 149.135 C 303.154 156.279,303.241 157.477,303.764 157.477 C 304.274 157.477,304.376 156.625,304.383 152.289 C 304.396 145.083,306.000 142.021,309.766 142.016 C 310.489 142.015,310.885 141.798,310.885 141.404 C 310.885 140.071,307.374 140.933,305.493 142.727 L 304.374 143.794 304.374 142.294 C 304.374 141.231,304.196 140.793,303.764 140.793 C 303.241 140.793,303.154 141.992,303.154 149.135 M312.990 146.999 C 313.104 151.899,313.281 153.476,313.835 154.495 C 316.294 159.026,323.171 158.855,325.543 154.204 C 326.613 152.106,326.777 140.793,325.738 140.793 C 325.225 140.793,325.127 141.683,325.127 146.362 C 325.127 154.433,323.471 157.149,318.921 156.538 C 315.235 156.044,314.146 153.637,314.143 145.982 C 314.141 141.512,314.051 140.793,313.493 140.793 C 312.924 140.793,312.864 141.538,312.990 146.999 M360.780 142.386 C 365.166 144.378,366.454 150.452,363.262 154.088 C 357.063 161.148,347.006 152.041,352.689 144.513 C 353.801 143.040,356.445 141.625,358.087 141.625 C 358.647 141.625,359.858 141.967,360.780 142.386 " stroke="none" fill="#000000" fill-rule="evenodd"></path></g></svg>