<svg xmlns="http://www.w3.org/2000/svg" viewBox="-21358 -9108.034 160.086 36.691"><defs><style>.a{fill:#909090;}.a,.b{fill-rule:evenodd;}.b,.c{fill:#004e86;}</style></defs><g transform="translate(-21713 -9287.82)"><path class="a" d="M16.2,558.641H12.44l7.383-18.976H26.31c5.5-.207,6.089,2.587,5.175,4.968-2.053,5.072-6.348,6.452-10.782,6.038l.845-2.588c3.45.086,6.141-1.38,6.141-4.244,0-1.035-.794-1.276-2.018-1.311H22.394Z" transform="translate(342.56 -353.686)"/><path class="a" d="M31.988,542.489,25.95,558.636H21.81L29.5,539.66h7.435c3.329,0,5.365,1.018,5.175,3.45a7.367,7.367,0,0,1-2.915,4.968c-1.553,1.328-3.105,1.241-4.623,1.828l2.036,8.746H32.264L30.78,548.13H33.3a4.968,4.968,0,0,0,4.778-4.434c0-.6-.742-1.311-2.5-1.26Z" transform="translate(349.354 -353.681)"/><path class="b" d="M77.222,3.57h4.054l-2.829,7.194h8.97L90.436,3.57H94.87L87.521,22.511H83.4l3.329-8.988h-9.3l-3.467,8.988H69.77Z" transform="translate(405.588 182.375)"/><path class="b" d="M76.777,558.65H72.74l7.314-18.976h6.555c5.5-.207,6.089,2.587,5.175,4.968-2.053,5.072-5.831,6.21-10.782,6.038l.845-2.587c3.554,0,6.141-1.38,6.141-4.244,0-1.035-.793-1.293-2.018-1.328H82.694Z" transform="translate(386.281 -353.678)"/><path class="b" d="M59.459,3.6h3.761L56.992,19.471h9l-.932,3.088H51.92Z" transform="translate(392.645 182.396)"/><path class="a" d="M34.181,556.23c-2.674-3.83-.276-10.178,5.175-13.99s12.714-3.8,15.4,0-.121,10.8-5.555,14.163S36.855,560.059,34.181,556.23Zm4.468-1.725c-2.053-2.277-1.052-6.521,2.225-9.488s7.608-3.45,9.66-1.225,1.052,6.521-2.225,9.488-7.608,3.485-9.66,1.207Z" transform="translate(357.528 -353.88)"/><path class="b" d="M109.03,539.67H114v18.975h-4.192v-7.591H103.6l-5.762,7.608H93.16Zm.793,3.45v5.071H105.58Z" transform="translate(401.087 -353.674)"/><path class="c" d="M60.01,540.3c-3-1.4-6.055,3.554-7.539,6.624-2.156,4.468-2.156,9.988-.552,10.35,3.45.759,7.832-4.468,9.384-7.521C62.357,546.858,62.891,541.683,60.01,540.3Z" transform="translate(370.358 -353.392)"/><path class="c" d="M56.428,536.07,43.3,572.762H69.745L82.873,536.07Zm12.852,25.755c-2.174,0-2.139-3.45-2.415-5.572a11.437,11.437,0,0,1-10.747,5.5c-6.987-1.1-3.45-10.212-1.277-13.541,1.242-1.932,5.02-7.194,11.541-6.228,3.864.569,2.691,6.366,2.829,6.366s4.192-6.21,4.244-6.037h3.278c-1.639,3.606-8.418,10.454-8.229,13.99.086,1.725.276,2.416,1.363,2.416,1.363,0,2.053-1.208,3.053-3.088,0,.155,1.1,0,1.069.206C73.558,557.547,70.539,561.825,69.279,561.825Z" transform="translate(364.935 -356.284)"/></g></svg>