<?xml version="1.0" encoding="utf-8"?>
<!-- Generator: Adobe Illustrator 25.4.1, SVG Export Plug-In . SVG Version: 6.00 Build 0)  -->
<svg version="1.1" id="layer" xmlns="http://www.w3.org/2000/svg" xmlns:xlink="http://www.w3.org/1999/xlink" x="0px" y="0px"
	 viewBox="0 0 652 132.9" style="enable-background:new 0 0 652 132.9;" xml:space="preserve">
<style type="text/css">
	.st0{fill:#33A1FD;}
</style>
<g>
	<g>
		<path class="st0" d="M171.9,32.5c-0.5,0.5-1.1,0.5-1.1,0.5h-46.4v24.7h40.4c0,0,0.6,0,1.1,0.5s0.5,1.1,0.5,1.1V72
			c0,0,0,0.6-0.5,1.1s-1.1,0.5-1.1,0.5h-40.4v24.6h46.4c0,0,0.6,0,1.1,0.5s0.5,1.1,0.5,1.1v12.7c0,0,0,0.6-0.5,1.1s-1.1,0.5-1.1,0.5
			h-59.1c0,0-1.2,0.1-2.2-0.9s-0.9-2.2-0.9-2.2V20.5c0,0,0-1.3,0.9-2.3c1-1,2.2-0.9,2.2-0.9h59.1c0,0,0.6,0,1.1,0.5s0.5,1.1,0.5,1.1
			v12.6C172.3,31.4,172.3,32.1,171.9,32.5"/>
		<path class="st0" d="M222.6,15.6c13.6,0,27.8,6.8,35,20.7c0,0,0.3,0.6,0.1,1.2c-0.2,0.6-0.8,0.9-0.8,0.9L245.5,44
			c0,0-0.5,0.3-1.2,0.1c-0.6-0.2-0.9-0.8-0.9-0.8c-4.8-7.9-13.2-11.9-21.2-11.9c-10.7,0-21.3,5.1-21.3,15.3v37.8
			c0,10.3,10.7,15.3,21.3,15.3c8.2,0,16.7-4,21.4-12c0,0,0.2-0.4,0.8-0.6s1.1,0.1,1.1,0.1l11.4,5.3c0,0,0.6,0.3,0.8,0.9
			c0.2,0.6-0.1,1.2-0.1,1.2c-7.3,14.1-21.6,21-35.4,21c-18.5,0-37.1-10.4-37.1-31.2V46.7C185.2,26.1,203.8,15.6,222.6,15.6"/>
		<path class="st0" d="M308.6,15.6c19.6,0,39.2,10.4,39.2,31.3v37.4c0,20.9-19.7,31.4-39.2,31.4c-19.7,0-39.1-10.5-39.1-31.4V46.9
			C269.5,26,288.9,15.6,308.6,15.6 M285.2,84.3c0,10.4,11.6,15.7,23.4,15.7c11.9,0,23.4-5.3,23.5-15.7V46.9
			c0-11.1-11.8-15.7-23.5-15.7c-11.8,0.1-23.4,4.9-23.4,15.7V84.3z"/>
		<path class="st0" d="M379.6,113.6c-0.5,0.5-1.1,0.5-1.1,0.5h-12.7c0,0-0.7,0-1.1-0.5c-0.5-0.5-0.5-1.1-0.5-1.1V18.9
			c0,0,0-0.6,0.5-1.1s1.1-0.5,1.1-0.5h13.3c0,0,0.8,0,1.6,0.4c0.8,0.5,1.1,1.1,1.1,1.1l41.3,72.3V18.8c0,0,0-0.6,0.5-1.1
			s1.1-0.5,1.1-0.5h12.7c0,0,0.6,0,1.1,0.5s0.5,1.1,0.5,1.1v93.6c0,0,0,0.6-0.5,1.1s-1.1,0.5-1.1,0.5H422c0,0-0.8,0-1.6-0.4
			c-0.8-0.5-1.2-1.2-1.2-1.2L380.1,44v68.5C380.1,112.5,380.1,113.1,379.6,113.6"/>
		<path class="st0" d="M457.1,113.1c-1-1-0.9-2.2-0.9-2.2V20.4c0,0,0-1.3,0.9-2.2c0.9-0.9,2.3-0.9,2.3-0.9h31.5
			c18.9,0,36.2,9.3,36.2,30.5v36.4c0,21.1-17.4,29.9-36.2,29.9h-31.6C459.3,114.1,458,114.1,457.1,113.1 M490.9,98.8
			c10.8,0,20.4-4,20.4-14.1V47.1c0-10.3-9.6-14.6-20.4-14.6h-19v66.3H490.9z"/>
	</g>
	<g>
		<path class="st0" d="M581.1,15.6c19.6,0,39.2,10.4,39.2,31.3v37.4c0,20.9-19.7,31.4-39.2,31.4c-19.7,0-39.1-10.5-39.1-31.4V46.9
			C542,26,561.5,15.6,581.1,15.6 M557.8,84.3c0,10.4,11.6,15.7,23.4,15.7c11.9,0,23.4-5.3,23.5-15.7V46.9
			c0-11.1-11.8-15.7-23.5-15.7c-11.8,0.1-23.4,4.9-23.4,15.7V84.3z"/>
		<path class="st0" d="M93.3,111.7L72.2,74.8C84,71.5,92.1,62.9,92.1,47.1c-0.5-21.3-14.9-29.9-33.9-29.9H23.5c0,0-1.3,0-2.2,0.9
			c-0.9,0.9-0.9,2.2-0.9,2.2v92c0,0,0,0.6,0.5,1.1s1.1,0.5,1.1,0.5h12.7c0,0,0.6,0,1.1-0.5s0.5-1.1,0.5-1.1V76.4h19.2L76,112.5
			c0,0,0.4,0.7,1.2,1.2c0.7,0.4,1.6,0.4,1.6,0.4H92c0,0,0.9,0,1.4-0.8C93.7,112.5,93.3,111.7,93.3,111.7 M36.2,33.1h22.1
			c10.5-0.3,17.9,3.4,17.9,14.2c0,10.8-7,15.4-17.9,15.4H36.2V33.1z"/>
	</g>
</g>
</svg>
