<?xml version="1.0" encoding="utf-8"?>
<!-- Generator: Adobe Illustrator 25.4.1, SVG Export Plug-In . SVG Version: 6.00 Build 0)  -->
<svg version="1.1" id="layer" xmlns="http://www.w3.org/2000/svg" xmlns:xlink="http://www.w3.org/1999/xlink" x="0px" y="0px"
	 viewBox="0 0 652 243.2" style="enable-background:new 0 0 652 243.2;" xml:space="preserve">
<style type="text/css">
	.st0{fill:#030000;}
	.st1{fill:#D00A37;}
</style>
<g>
	<path class="st0" d="M304,221c2.1,0,2.6,0,3-1.4c0.3-1.1,0.7-4.8,0.7-6.1l-0.4-1l-0.6,0.8c-0.4,2.3-1,3.4-2.5,4.1
		c-1.4,0.7-3.7,0.7-5.1,0.7c-5.6,0-6.5-0.8-6.6-4.6c-0.1-1.6,0-6.6,0-8.5v-4.3l0.3-0.6c1.3,0,6.7,0.1,7.8,0.2c2,0.2,2.8,1,3.1,2.1
		l0.2,2l0.5,0.5l0.5-1c0-0.4,0.1-2.6,0.2-3.7c0.2-2.8,0.4-3.7,0.4-4l-0.4-0.4l-0.9,0.7c-0.5,0.6-1.3,0.7-2.6,0.8
		c-1.3,0.1-7.6,0.1-8.8,0.1l-0.4-0.6v-14l0.4-0.6c1.1,0,6.9,0.1,7.8,0.2c2.7,0.3,3.3,1,3.7,2l0.3,2l0.5,0.8l0.5-0.6l0.3-3.6
		c0.2-2.5,0.4-3.2,0.4-3.6l-0.3-0.5l-0.9,0.2c-0.4,0.1-1.3,0.2-2.3,0.3c-1.1,0.1-12,0.1-13.7,0.1c-1.5,0-5-0.2-7.9-0.2l-0.5,0.1
		l-0.4-0.1c-1.7,0-4.2,0.2-5.2,0.2c-0.7,0-3-0.2-5.8-0.2c-1,0-1.5,0.1-1.5,0.6l0.9,0.4l2.2,0.3l0.7,1.1l-0.5,2
		c-1.3,3.6-8.6,22.8-11,28.8H260l-9.2-26.4c-0.8-2-1.3-3.5-1.3-4.2l0.5-1.2l2.1-0.4l0.8-0.5l-1.3-0.5c-2.7,0-5.4,0.2-6.7,0.2
		c-1.9,0-5.1-0.2-8-0.2l-1.2,0.2l-1-0.2c-2.1,0-5.3,0.2-6.7,0.2c-1.6,0-5-0.2-7.1-0.2l-1.3,0.4l0.9,0.6l2,0.2
		c1.2,0.3,1.8,1.2,1.9,3.1c0.1,1.8,0.1,3.3,0.1,11.6v9.7c0,5.3,0,9.6-0.3,12c-0.2,1.5-0.5,2.4-1.4,2.7l-0.8-0.1
		c-1-0.2-3.8-0.7-7.5-4.6c-3.9-4.2-7-8.2-13-15.7c7.7-3.5,9-8.8,9.2-15.3c0.1-4.5-3.7-9.7-5.6-11c-3.6-2.5-9-2.7-13.2-2.7
		c-2.1,0-7.2,0.2-9.5,0.2c-1.4,0-5.6-0.2-9.2-0.2c-1,0-1.5,0.1-1.5,0.6l1.1,0.6l2.6,0.2c2.2,0.5,2.7,1.5,2.9,3.8
		c0.1,2.1,0.1,4,0.1,14.2v11.8c0,6.2,0,11.5-0.3,14.3c-0.3,1.9-0.6,3.4-1.9,3.7c-0.6,0.1-1.4,0.3-2.4,0.3l-1.1,0.5l1.3,0.7
		c2.7,0,6.9-0.2,8.2-0.2c1,0,6,0.2,9.9,0.2l1.3-0.7l-0.8-0.5c-0.8,0-2.3-0.1-3.3-0.3c-2-0.3-2.4-1.8-2.6-3.7
		c-0.3-2.8-0.3-6.3-0.3-12.6v-0.9l0.5-0.5l5.8,0.1l1.2,0.5c0.9,1,4,3.8,6.7,7.5c3.8,5.2,6.3,8.3,9.2,9.9c1.8,0.9,3.4,1.3,7.2,1.3
		h6.4l0.7-0.1c1.5,0,2.9-0.1,3.6-0.1c1.5,0,4.9,0.2,8.6,0.2l1-0.6l-0.9-0.4l-2.8-0.2c-1.6-0.2-2-1.2-2.2-2.7
		c-0.2-2.4-0.2-6.7-0.2-12v-9.7c0-8.3,0-9.9,0.1-11.6c0.1-1.9,0.5-2.9,2-3.1l1.6-0.2l0.6-0.1l0.4,0.1l2.1,0.2c2,0.6,2.9,1.2,4.2,4.2
		l13.6,35c1,2.6,1.4,3.3,2.1,3.3c0.8,0,1.1-0.9,2.5-4.1c1.2-2.7,4-10.2,7.5-18.2c3-6.8,4.4-10.7,6.5-15.8c1.5-3.5,2.4-3.5,3.1-4
		c1-0.7,2.1-0.7,2.7-0.7h0.2h0.2l2.1,0.2c1.8,0.4,2.2,1.3,2.4,3.1c0.1,1.8,0.1,3.3,0.1,11.6v9.7c0,5,0,9.4-0.3,11.7
		c-0.2,1.6-0.5,2.8-1.6,3l-2,0.2l-0.9,0.4l1.1,0.6c2.2,0,5.6-0.2,6.9-0.2C292.1,220.7,295.7,221,304,221 M198.1,197
		c-1.2,0.9-2.1,1.1-4.8,1.1c-1.7,0-3.9,0.2-5.3-0.3l-1.5-1.5v-20c0.2-1.2,1-1.5,1.5-1.7c0.7-0.2,1.8-0.5,3.4-0.5
		c4,0,11.9,0.3,12.2,11.6C203.9,193.9,200.2,195.5,198.1,197 M352.9,219.9l-1.5-0.2c-0.8-0.2-3.1-0.6-6.1-3.7
		c-3.2-3.4-7-8.3-11.9-14.4c5.5-4.5,7.2-8.2,7.2-12.3c0-3.7-2.2-6.5-3.7-7.5c-3-2-6.6-2.4-10.1-2.4c-1.7,0-5.9,0.2-7.7,0.2
		c-1.1,0-4.6-0.2-7.5-0.2l-1.2,0.5l0.9,0.5l2.1,0.2c1.8,0.4,2.3,1.3,2.4,3.1c0.1,1.8,0.1,3.3,0.1,11.6v9.7c0,5,0,9.4-0.3,11.7
		c-0.2,1.6-0.5,2.8-1.6,3l-2,0.2l-0.9,0.4l1.1,0.6c2.2,0,5.7-0.2,6.7-0.2c0.8,0,4.9,0.2,8.1,0.2l1.1-0.6l-0.7-0.4l-2.7-0.2
		c-1.6-0.2-2-1.4-2.1-3c-0.3-2.3-0.3-6.6-0.3-11.7v-0.8l0.4-0.4l4.8,0.1l1,0.4c0.7,0.8,3.2,4.6,5.4,7.6c3.1,4.2,5.2,6.8,7.5,8.1
		c1.4,0.8,2.8,1.1,5.9,1.1h5.2l1-0.6L352.9,219.9 M330.8,200.2c-1,0.7-1.7,0.9-3.9,0.9c-1.4,0-3-0.2-4.2-0.6l-0.5-1v-16.7l0.5-0.8
		c0.6-0.2,1.5-0.2,2.9-0.2c3.2,0,8.4,2.3,8.4,10C334.1,196.5,332.5,199,330.8,200.2 M149.1,185.6c-6-6.3-15.1-6.3-22-6.3
		c-3.3,0-6.7,0.2-8.4,0.2c-1.5,0-5-0.2-7.9-0.2l-1.2,0.5l0.9,0.5l2.1,0.2c1.8,0.4,2.3,1.3,2.4,3.1c0.1,1.8,0.1,3.3,0.1,11.6v9.7
		c0,5,0,9.4-0.3,11.7c-0.2,1.6-0.5,2.8-1.6,3l-2,0.2l-0.9,0.4l1.1,0.6c2.2,0,5.7-0.2,6.9-0.2c2.7,0,7.7,0.7,11.7,0.7
		c10.1,0,15.9-3.9,18.4-6.5c3.1-3.1,6-8.4,6-15.3C154.4,193,151.8,188.5,149.1,185.6 M142.4,214.8c-3.3,2.8-7,3.9-12.6,3.9
		c-4.3,0-6.5-1.2-7.2-2.2c-0.4-0.6-0.6-2.8-0.6-4.2c-0.1-1-0.1-5.3-0.1-11.1v-6.9c0-4.3,0-9.1,0.1-11l0.7-1.1
		c0.4-0.2,2.5-0.4,3.6-0.4c4.3,0,10.5,0.7,15.6,5.5c2.4,2.2,5.3,6.7,5.3,13.7C147,206.8,145.9,211.8,142.4,214.8 M68.3,219.7
		c1.7,0.9,3.4,1.3,7.2,1.3h6.4l0.9-0.2c1.7,0,3.3-0.1,4.1-0.1c3.2,0,6.9,0.3,15.2,0.3c2.1,0,2.6,0,3-1.4c0.3-1.1,0.7-4.8,0.7-6.1
		l-0.4-1l-0.6,0.8c-0.4,2.3-1,3.4-2.5,4.1c-1.4,0.7-3.7,0.7-5.2,0.7c-5.6,0-6.5-0.8-6.6-4.6c-0.1-1.6,0-6.6,0-8.5v-4.3l0.3-0.6
		c1.3,0,6.8,0.1,7.8,0.2c2,0.2,2.8,1,3.1,2.1l0.2,2l0.5,0.5l0.5-1c0-0.4,0.1-2.6,0.2-3.7c0.2-2.8,0.4-3.7,0.4-4l-0.4-0.4l-0.9,0.7
		c-0.5,0.6-1.3,0.7-2.6,0.8c-1.3,0.1-7.6,0.1-8.8,0.1l-0.4-0.6v-14l0.4-0.6c1.1,0,6.9,0.1,7.8,0.2c2.7,0.3,3.3,1,3.7,2l0.3,2
		l0.5,0.8l0.6-0.6l0.3-3.6c0.2-2.5,0.4-3.2,0.4-3.6l-0.3-0.5l-0.9,0.2c-0.4,0.1-1.3,0.2-2.4,0.3c-1,0.1-12,0.1-13.7,0.1
		c-1.5,0-5-0.2-7.9-0.2l-1.2,0.5l0.9,0.5l2.1,0.2c1.8,0.4,2.2,1.3,2.4,3.1c0.1,1.8,0.1,3.3,0.1,11.6v9.7c0,5,0,9.4-0.3,11.7
		c-0.2,1.6-0.5,2.8-1.6,3h-0.1l-1.2-0.1c-1-0.2-3.8-0.7-7.5-4.6c-4-4.2-7-8.2-13-15.7c7.7-3.5,9-8.8,9.2-15.3
		c0.1-4.5-3.7-9.7-5.6-11c-3.6-2.5-9-2.7-13.2-2.7c-2.1,0-7.2,0.2-9.5,0.2c-1.4,0-5.6-0.2-9.2-0.2c-1,0-1.5,0.1-1.5,0.6l1.1,0.6
		l2.6,0.2c2.2,0.5,2.7,1.5,2.9,3.8c0.1,2.1,0.1,4,0.1,14.2v11.8c0,6.2,0,11.5-0.3,14.3c-0.3,1.9-0.6,3.4-1.9,3.7
		c-0.6,0.1-1.4,0.3-2.4,0.3l-1.1,0.5l1.3,0.7c2.7,0,6.9-0.2,8.2-0.2c1,0,6,0.2,9.9,0.2l1.3-0.7l-0.8-0.5c-0.8,0-2.3-0.1-3.3-0.3
		c-2-0.3-2.4-1.7-2.6-3.7c-0.3-2.8-0.3-6.3-0.3-12.6v-0.9l0.5-0.5l5.8,0.1l1.2,0.5c0.9,1,4,3.8,6.6,7.5
		C62.9,215,65.5,218.1,68.3,219.7 M56.5,197.1c-1.2,0.9-2.1,1.1-4.8,1.1c-1.7,0-3.9,0.2-5.3-0.3l-1.5-1.5v-20c0.2-1.2,1-1.5,1.5-1.7
		c0.7-0.2,1.8-0.5,3.4-0.5c4,0,11.9,0.3,12.2,11.6C62.3,193.9,58.5,195.6,56.5,197.1 M411.3,208.4c-0.5,0-0.7,0.3-0.9,1.3
		c-0.3,1.2-1.1,3.2-2.3,4.4c-2.7,3.1-6.3,3.8-12.3,3.8c-9,0-21.1-7.9-21.1-23.9c0-6.5,1.3-12.9,6.2-17.4c3-2.7,6.8-4.1,12.6-4.1
		c6.2,0,11.4,1.8,13.6,4.1c1.7,1.8,2.5,4.1,2.6,6.2l0.7,1.5c0.6,0,0.7-0.5,0.8-1.5c0.1-1.3,0.1-5,0.2-7.2c0.1-2.3,0.3-3.2,0.3-3.7
		l-1-0.8c-2-0.2-4.2-0.8-6.7-1.1c-3.1-0.4-5.6-0.7-9.7-0.7c-10,0-16.4,2.7-21.2,7.1c-6.4,5.9-7.9,13.8-7.9,18.4
		c0,6.5,1.8,14,8.3,19.8c6.1,5.3,13.8,7.3,23,7.3c4.3,0,9.4-0.5,12.1-1.5c1.1-0.5,1.4-0.8,1.7-2c0.7-2.3,1.5-8.1,1.5-8.9
		L411.3,208.4 M436.9,221.6c13.9,0,22.7-9.9,22.7-22.5s-8.5-20.5-22.2-20.5c-16.5,0-22.7,12.1-22.7,21.5
		C414.8,209.8,421.1,221.6,436.9,221.6 M435.8,181.2c9,0,16.1,7.6,16.1,19.9c0,15.8-8.9,17.7-12.7,17.7c-10.5,0-16.8-9.1-16.8-20.5
		C422.3,184.7,429.5,181.2,435.8,181.2 M463.5,180.4l1.8,0.2c1.8,0.4,2.3,1.3,2.4,3.1c0.1,1.8,0.1,3.3,0.1,11.6v9.6
		c0,5.1,0,9.4-0.3,11.7c-0.2,1.6-0.5,2.8-1.6,3l-2,0.2l-0.9,0.4l1.1,0.5c2.2,0,5.7-0.2,6.9-0.2c4.4,0,8.1,0.3,16,0.3
		c2.9,0,3.1-0.3,3.5-1.5c0.4-1.6,0.8-5.7,0.8-6.3l-0.4-0.9l-0.6,0.8c-0.1,1-0.8,2.6-1.4,3.3c-1.4,1.5-3.5,1.5-6.4,1.5
		c-4.3,0-5.7-0.4-6.6-1.2c-1.2-1-1.2-4.8-1.2-11.8v-9.6c0-8.3,0-9.9,0.1-11.6c0.1-1.9,0.6-2.9,2-3.1l2.1-0.2l1-0.5l-1.2-0.5
		c-2.1,0-6.1,0.2-7.5,0.2c-1.5,0-4.9-0.2-7.5-0.2l-1.2,0.5L463.5,180.4 M518.6,221c2.9,0,3.1-0.3,3.5-1.5c0.4-1.6,0.8-5.7,0.8-6.3
		l-0.4-0.9l-0.6,0.8c-0.1,1-0.8,2.6-1.4,3.3c-1.4,1.5-3.5,1.5-6.4,1.5c-4.3,0-5.7-0.4-6.6-1.2c-1.2-1-1.2-4.8-1.2-11.8v-9.6
		c0-8.3,0-9.9,0.1-11.6c0.1-1.9,0.6-2.9,2-3.1l2.1-0.2l1-0.5l-1.1-0.5c-2.1,0-6.1,0.2-7.5,0.2c-1.5,0-4.9-0.2-7.5-0.2l-1.2,0.5
		l0.9,0.5l1.8,0.2c1.8,0.4,2.3,1.3,2.4,3.1c0.1,1.8,0.1,3.3,0.1,11.6v9.6c0,5.1,0,9.4-0.3,11.7c-0.2,1.6-0.5,2.8-1.6,3l-2,0.2
		l-0.9,0.4l1.1,0.5c2.2,0,5.6-0.2,6.9-0.2C507,220.7,510.7,221,518.6,221 M551.7,219.6c0.3-1.1,0.7-4.8,0.7-6.1l-0.4-1l-0.6,0.8
		c-0.4,2.3-1,3.4-2.5,4.1c-1.4,0.7-3.7,0.7-5.2,0.7c-5.6,0-6.5-0.8-6.6-4.6c-0.1-1.6,0-6.6,0-8.5v-4.3l0.3-0.6
		c1.3,0,6.7,0.1,7.8,0.2c2,0.2,2.8,1,3.1,2.1l0.2,2l0.5,0.5l0.5-1c0-0.4,0.1-2.6,0.2-3.7c0.2-2.8,0.4-3.7,0.4-4l-0.4-0.4l-0.9,0.7
		c-0.5,0.6-1.3,0.7-2.6,0.8c-1.3,0.1-7.6,0.1-8.8,0.1l-0.4-0.6v-14l0.4-0.6c1.1,0,6.9,0.1,7.8,0.2c2.7,0.3,3.3,1,3.7,2l0.3,2
		l0.5,0.8l0.5-0.6l0.3-3.6c0.2-2.5,0.4-3.2,0.4-3.6l-0.3-0.5l-0.9,0.2c-0.4,0.1-1.3,0.2-2.4,0.3c-1.1,0.1-12,0.1-13.7,0.1
		c-1.5,0-5-0.2-7.9-0.2l-1.2,0.5l0.9,0.5l2.1,0.2c1.8,0.4,2.2,1.3,2.4,3.1c0.1,1.8,0.1,3.3,0.1,11.6v9.7c0,5,0,9.4-0.3,11.7
		c-0.2,1.6-0.5,2.8-1.6,3l-2,0.2l-0.9,0.4l1.1,0.6c2.2,0,5.7-0.2,6.9-0.2c3.2,0,6.9,0.3,15.2,0.3C550.9,221,551.4,221,551.7,219.6
		 M598.8,199.3l1.5-0.2l0.7-0.4l-1.1-0.5c-1.8,0-4.7,0.2-6.4,0.2s-5.1-0.2-8-0.2l-1.1,0.5l0.8,0.4l2.1,0.2c1.8,0.4,2.3,1.3,2.4,3.1
		c0.1,1.6,0.1,3.7,0.1,6.5v7.3l-1,2c-1.3,0.6-3.2,0.6-4.7,0.6c-11.6,0-19.1-8.8-19.1-20.6c0-6.8,2-10.9,5.1-13.4
		c3.8-3.2,7.8-3.4,10.9-3.4c6.2,0,10.6,2.5,12.2,4.3c1.4,1.5,1.7,3.3,1.9,4.6l0.6,0.7l0.6-1.1c0-6.9,0.4-8.4,0.4-9l-0.8-0.7
		c-1.3-0.1-3.2-0.4-4.3-0.6s-5.9-0.9-9.7-0.9c-4.6,0-9.5,0.4-14.8,3.6c-5,3-9.6,9.2-9.6,17.9c0,15.1,11.9,21.5,25.4,21.5
		c4.3,0,9.6-0.6,13.2-2.5c0.6-0.4,0.7-0.5,0.7-2V209c0-2.7,0-4.9,0.1-6.6C596.7,200.5,597.3,199.5,598.8,199.3 M629.8,212.5
		l-0.6,0.8c-0.4,2.3-1.1,3.4-2.5,4.1s-3.7,0.7-5.2,0.7c-5.6,0-6.5-0.8-6.6-4.6c-0.1-1.6,0-6.6,0-8.5v-4.3l0.3-0.6
		c1.3,0,6.8,0.1,7.8,0.2c2,0.2,2.8,1,3.1,2.1l0.2,2l0.5,0.5l0.5-1c0-0.4,0.1-2.6,0.2-3.7c0.2-2.8,0.4-3.7,0.4-4l-0.4-0.4l-0.9,0.7
		c-0.5,0.6-1.3,0.7-2.6,0.8c-1.3,0.1-7.6,0.1-8.8,0.1l-0.4-0.6v-14l0.4-0.6c1.1,0,6.9,0.1,7.8,0.2c2.7,0.3,3.3,1,3.7,2l0.3,2
		l0.5,0.8l0.6-0.6l0.3-3.6c0.2-2.5,0.4-3.2,0.4-3.6l-0.3-0.5l-0.9,0.2c-0.4,0.1-1.3,0.2-2.4,0.3c-1,0.1-12,0.1-13.7,0.1
		c-1.5,0-5-0.2-7.9-0.2l-1.2,0.5l0.9,0.5l2.1,0.2c1.8,0.4,2.3,1.3,2.4,3.1c0.1,1.8,0.1,3.3,0.1,11.6v9.7c0,5,0,9.4-0.3,11.7
		c-0.2,1.6-0.5,2.8-1.6,3l-2,0.2l-0.9,0.4l1.1,0.6c2.2,0,5.6-0.2,6.9-0.2c3.2,0,6.9,0.3,15.2,0.3c2.1,0,2.6,0,3-1.4
		c0.3-1.1,0.7-4.8,0.7-6.1L629.8,212.5"/>
	<path class="st1" d="M306.8,89.5c-2.5-22.3,5.1-42.2,18.8-56.6l-12.7-19.1c-17.8,18-24.6,43.4-20.8,69.2
		C295.1,84.9,306.8,89.5,306.8,89.5 M313.2,91.7c2.5,1.3,10.8,3.2,10.8,3.2c-1.9-34.2,30.6-56.3,52.3-56.5L362.8,22
		C335.6,26.2,308.9,54.8,313.2,91.7 M330.7,96.5c2.9,1.2,9.8,1.7,9.8,1.7c1.1-26.6,28-44.5,62.7-28.1l0.4-22
		C365.3,35.4,328.6,60.6,330.7,96.5 M356.4,76.5c0,0-4.1,2.1-6.3,7.4c9.7,4.3,15.6,8.2,17,11.8c3.2,1.7,6.5-2.4,6.6-2.1
		c1.1,2.4-2.5,6.4-6.8,8.2c-9.4,2.4-22.2,2.3-48.6-4.4c-37.6-12.5-41.8-16.3-45.8-20.6c-1.7-1.9-5.9-5.9-3.7-10.6
		c0.8,2.9,2.9,4.5,3.7,4c5.8-2.5,8.7-2.3,14.5-1.9c0-0.3-0.4-6.7,0.3-9.4c-31-0.3-35.7,24.1,9.3,42.2c6.9,20.4,20,40.1,40,55.9
		l3.4-4.6c-15.3-15.7-25.3-31-30.2-46c2.2,0.7,3.9,0.9,6.2,1.6c4.5,13,14,26.5,27.5,40.2l3.9-5.3c-10.4-11.5-18.3-22.5-21.7-32.6
		c2.5,0.6,4.1,0.7,6.5,1.1c3,8.9,10,18.3,18.2,27.6l3.5-4.6c-5.8-7.2-10-14.1-11.7-21.8C386.3,116.5,386.4,87.9,356.4,76.5"/>
</g>
</svg>
