<?xml version="1.0" encoding="utf-8"?>
<!-- Generator: Adobe Illustrator 25.4.1, SVG Export Plug-In . SVG Version: 6.00 Build 0)  -->
<svg version="1.1" id="layer" xmlns="http://www.w3.org/2000/svg" xmlns:xlink="http://www.w3.org/1999/xlink" x="0px" y="0px"
	 viewBox="0 0 652 214.1" style="enable-background:new 0 0 652 214.1;" xml:space="preserve">
<style type="text/css">
	.st0{fill:#707073;}
	.st1{fill:#CC081F;}
	.st2{fill:#FCC200;}
</style>
<g id="layer1">
	<g id="g4031" transform="translate(-48.81891,-428.7559)">
		<path id="_46875728" class="st0" d="M130.3,573.2l-13.4-35.8c-5-13.2-7.9-14.9-15-14.9v50.6H69V445.4h44
			c37.6,0,49.7,15.2,49.7,36.5c0,22-11.6,33.2-26.6,35.8c4.4,1.3,9.7,7.2,12.8,13.8c4.2,8.6,15,32.3,19.3,41.8L130.3,573.2
			L130.3,573.2z M101.8,472.3v26h9.4c11.2,0,15-5.3,15-13.9c0-9.2-4.9-12.1-15.2-12.1H101.8z M181.8,573.2V445.4h71.9v27h-39.1v21.5
			h31.9v26h-31.9v26h43.8v27.3H181.8z M391,573.2h-35l-6.6-37.1c-2.8-15.4-5.7-32.1-6.2-40.2H343c-0.4,6.4-3.1,23.5-6.2,40.2
			l-6.8,37.1h-35.8l-31-127.9h34.7l7.2,34.5c6,28.8,7.2,41.3,7.3,46.1h0.2c0.7-10.3,2.9-26.2,6.4-45.1l6.6-35.4H362l8.3,42.8
			c1.8,9.7,4.4,22,5.1,37.6h0.2c0.7-11.4,4.6-36.1,7.2-48.6l6.4-31.7h35L391,573.2L391,573.2z M433.4,573.2V445.4h71.9v27h-39.1
			v21.5h31.9v26h-31.9v26h43.9v27.3H433.4z M500.9,602.7c-1.7-1.6-3.7-2.3-6-2.3c-1.8,0-3.6,0.6-4.8,1.6c-3.5,2.8-5.2,10.8-5.2,14.6
			c0,4,2,5.7,5.5,5.7c1.4,0,2.5-0.2,3.6-0.7l1.5-7H491v-5h12l-3.2,14.8c-3.5,1.8-7.1,2.6-10.7,2.6c-7.1,0-10.9-4.2-10.9-10.6
			c0-7,3.2-13.7,7.1-17c3.6-3,6.6-3.9,10.6-3.9c3.7,0,6.8,1.2,9,3.5L500.9,602.7z M537.5,595.9c4.6,0,7.3,2.6,7.3,6.7
			c0,6-4.2,9.9-8.8,10.7c0.5,0.3,1,1.1,1.3,1.5c1.5,2.6,4.6,11.7,4.6,11.7h-7.3l-1.6-5c-1.9-5.6-2.8-7.1-3.8-7.6
			c-0.3-0.1-0.5-0.2-0.8-0.2l-2.7,12.8h-6.2l6.5-30.7L537.5,595.9L537.5,595.9z M529.5,609.2h1.9c2.6,0,3.8-0.3,4.9-1.1
			c1.2-1,2-2.9,2-4.2c0-2.1-1.4-3-3.9-3h-3L529.5,609.2z M587.7,606.6c0,7.7-3.9,16.1-10.2,19.1c-2,1-4.4,1.4-6.9,1.4
			c-7.6,0-10.5-4.6-10.5-11c0-8.7,4.2-14.9,8.2-17.8c1.8-1.3,4.3-2.8,9-2.8C584,595.5,587.7,599.7,587.7,606.6 M570.8,603
			c-2.4,3.2-4.1,9.9-4.1,14c0,3.9,1.7,5.3,4.8,5.3c1.8,0,3.6-0.6,5-2.3c2.7-3.3,4.2-10.6,4.2-14.8c0-3-1.2-5-4.6-5
			C574.1,600.3,572,601.4,570.8,603z M614.5,595.9l-4.3,20.2c-0.4,1.8-0.4,3-0.3,3.7c0.4,1.4,1.7,2.1,3.8,2.1c2.8,0,4.7-1.5,5.4-3.7
			c0.2-0.6,0.3-1,0.7-2.6L624,596h6.3l-4.4,20.6c-0.8,3.9-1.5,6-3.9,7.8c-1.2,0.9-3.5,2.8-9.2,2.8c-6,0-9.4-2.6-9.4-6.6
			c0-1,0.1-2.2,0.3-3.3l4.5-21.4H614.5z M658,595.9c4.1,0,6.4,0.4,7.9,1.4c1.9,1.2,3.1,3.2,3.1,5.6c0,5.3-2.5,9.2-7.1,11.3
			c-1.5,0.7-4.1,1.1-6.6,1.1H652l-2.4,11.3h-6.3l6.5-30.7L658,595.9L658,595.9z M653.2,610.3h3.1c2.4,0,3.7-0.5,4.5-1.5
			c0.9-1.1,1.6-2.9,1.6-4.6c0-2-1.1-3.2-3.4-3.2h-3.8L653.2,610.3z"/>
		<path class="st1" d="M535.3,519.9v53.3h53.3v-53.3H535.3z"/>
		<path class="st2" d="M615.2,519.9v53.3h53.3v-53.3H615.2z"/>
	</g>
</g>
</svg>
