<?xml version="1.0" encoding="utf-8"?>
<!-- Generator: Adobe Illustrator 25.4.1, SVG Export Plug-In . SVG Version: 6.00 Build 0)  -->
<svg version="1.1" id="Layer_1" xmlns="http://www.w3.org/2000/svg" xmlns:xlink="http://www.w3.org/1999/xlink" x="0px" y="0px"
	 viewBox="0 0 1920 1080" style="enable-background:new 0 0 1920 1080;" xml:space="preserve">
<style type="text/css">
	.st0{fill-rule:evenodd;clip-rule:evenodd;fill:#006EB6;}
	.st1{fill-rule:evenodd;clip-rule:evenodd;fill:#929395;}
</style>
<g>
	<path class="st0" d="M1666.4,39.4c-148.4,0-221.1,78.8-221.1,240.6c0,83.9,24.6,146.4,72.7,184.3c48.1,38.9,93.2,40.9,148.4,40.9
		h211.9V217.5L1755.4,323c0,17.4,0,58.3,0,75.8c-20.5,0-89.1,0-89.1,0c-54.3,0-90.1-21.5-90.1-122.8c0-116.7,43-133.1,90.1-133.1
		h211.9V39.4H1666.4L1666.4,39.4z"/>
	<path class="st0" d="M37.6,40.4v466.8h119.8c0,0,0-149.5,0-173c19.5,0,74.7,0,87,0c7.2,13.3,96.2,173,96.2,173h136.1
		c0,0-97.2-163.8-112.6-189.4c52.2-18.4,81.9-65.5,81.9-131c0-98.3-55.3-146.4-167.9-146.4H37.6L37.6,40.4z M256.7,146.9
		c58.3,0,67.6,11.3,67.6,40.9c0,28.7-9.2,42-67.6,42c0,0-77.8,0-99.3,0c0-18.4,0-65.5,0-82.9C178.9,146.9,256.7,146.9,256.7,146.9
		L256.7,146.9z"/>
	<path class="st0" d="M808.5,40.4v278.4c0,73.7-20.5,96.2-85,96.2c-64.5,0-85-22.5-85-96.2V40.4H518.8V324
		c0,56.3,5.1,99.3,28.7,126.9c37.9,44,94.2,65.5,176.1,65.5c81.9,0,138.2-21.5,176.1-65.5c20.5-24.6,28.7-61.4,28.7-126.9V40.4
		H808.5L808.5,40.4z"/>
	<path class="st0" d="M1243.6,40.4h-107.5L939.5,507.2h128c0,0,33.8-90.1,38.9-104.4c16.4,0,155.6,0,172,0
		c5.1,14.3,39.9,104.4,39.9,104.4h133.1L1252.8,40.4H1243.6L1243.6,40.4z M1191.4,180.7c14.3,36.9,36.9,92.1,46.1,115.7
		c-23.5,0-66.5,0-90.1,0C1155.5,273.8,1177,217.5,1191.4,180.7L1191.4,180.7z"/>
	<path class="st1" d="M134.9,936.2H73.5l30.7-76.8L134.9,936.2L134.9,936.2z M26.4,993.5h23.5l16.4-38.9h75.8l15.4,38.9H182
		l-65.5-154.6H92.9L26.4,993.5L26.4,993.5z"/>
	<path class="st1" d="M318.1,925.9c1-14.3,9.2-31.7,29.7-31.7c18.4,0,28.7,14.3,28.7,31.7H318.1L318.1,925.9z M389.8,967.9
		c-5.1,4.1-21.5,11.3-34.8,11.3c-19.4,0-36.9-15.4-36.9-37.9H398c0-35.8-12.3-63.5-49.1-63.5c-32.8,0-53.2,23.5-53.2,57.3
		c0,36.9,18.4,61.4,58.4,61.4c18.4,0,27.6-5.1,35.8-7.2V967.9L389.8,967.9z"/>
	<path class="st1" d="M527,880.9h19.4v17.4h1c5.1-12.3,17.4-20.5,29.7-20.5c6.1,0,9.2,1,13.3,1v19.5c-4.1-2.1-8.2-2.1-11.3-2.1
		c-18.4,0-30.7,17.4-30.7,46.1v51.2H527V880.9L527,880.9z"/>
	<path class="st1" d="M728.6,937.2c0-21.5,13.3-43,35.8-43c22.5,0,35.8,21.5,35.8,43c0,20.5-11.3,42-35.8,42
		C739.9,979.2,728.6,957.7,728.6,937.2L728.6,937.2z M707.1,937.2c0,31.7,23.5,59.4,57.3,59.4c33.8,0,57.3-27.6,57.3-59.4
		c0-34.8-22.5-59.4-57.3-59.4C729.7,877.8,707.1,902.4,707.1,937.2L707.1,937.2z"/>
	<path class="st1" d="M942.6,971c8.2,6.1,19.5,8.2,25.6,8.2c10.2,0,21.5-4.1,21.5-16.4c0-20.5-49.1-18.4-49.1-50.2
		c0-23.5,17.4-34.8,39.9-34.8c10.2,0,17.4,2,25.6,4.1l-1,18.4c-5.1-3.1-17.4-6.1-22.5-6.1c-10.2,0-19.5,5.1-19.5,14.3
		c0,22.5,49.1,16.4,49.1,52.2c0,24.6-19.5,35.8-39.9,35.8c-10.2,0-21.5-1-30.7-6.1L942.6,971L942.6,971z"/>
	<path class="st1" d="M1223.1,936.2c1,18.4-8.2,43-30.7,43c-23.5,0-33.8-23.5-33.8-42c0-21.5,11.3-43,33.8-43
		C1214.9,894.2,1224.1,915.7,1223.1,936.2L1223.1,936.2z M1138.1,1040.6h20.5v-62.5h1c6.1,10.2,17.4,18.4,37.9,18.4
		c33.8,0,48.1-30.7,48.1-61.4c0-30.7-16.4-57.3-49.1-57.3c-19.5,0-32.8,10.2-37.9,18.4h-1v-15.4h-19.5V1040.6L1138.1,1040.6z"/>
	<path class="st1" d="M1442.2,949.5c0,17.4-11.3,29.7-31.7,29.7c-10.2,0-21.5-6.1-21.5-18.4c0-19.5,28.7-21.5,39.9-21.5
		c4.1,0,8.2,0,13.3,0V949.5L1442.2,949.5z M1380.7,906.5c8.2-7.2,21.5-12.3,32.8-12.3c21.5,0,28.7,10.2,28.7,29.7
		c-8.2,0-14.3,0-22.5,0c-21.5,0-52.2,8.2-52.2,36.9c0,24.6,16.4,35.8,40.9,35.8c19.4,0,30.7-11.3,34.8-17.4h1v14.3h19.4
		c-1-3.1-1-9.2-1-22.5v-46.1c0-30.7-13.3-47.1-45-47.1c-15.4,0-27.6,4.1-37.9,10.2L1380.7,906.5L1380.7,906.5z"/>
	<path class="st1" d="M1670.4,899.3c-8.2-3.1-15.4-5.1-22.5-5.1c-23.5,0-35.8,21.5-35.8,43c0,20.5,10.2,42,36.9,42
		c7.2,0,16.4-2,22.5-6.1l2.1,18.4c-9.2,4.1-18.4,5.1-26.6,5.1c-33.8,0-57.3-27.6-57.3-59.4c0-34.8,22.5-59.4,57.3-59.4
		c8.2,0,19.4,2,25.6,4.1L1670.4,899.3L1670.4,899.3z"/>
	<path class="st1" d="M1812.7,925.9c2-14.3,10.2-31.7,30.7-31.7c17.4,0,27.6,14.3,27.6,31.7H1812.7L1812.7,925.9z M1884.4,967.9
		c-5.1,4.1-20.5,11.3-34.8,11.3c-19.5,0-36.9-15.4-36.9-37.9h80.9c0-35.8-12.3-63.5-50.2-63.5c-31.7,0-53.2,23.5-53.2,57.3
		c0,36.9,18.4,61.4,59.4,61.4c18.4,0,27.6-5.1,34.8-7.2V967.9L1884.4,967.9z"/>
</g>
</svg>
