<?xml version="1.0" encoding="utf-8"?>
<!-- Generator: Adobe Illustrator 25.4.1, SVG Export Plug-In . SVG Version: 6.00 Build 0)  -->
<svg version="1.1" id="Layer_1" xmlns="http://www.w3.org/2000/svg" xmlns:xlink="http://www.w3.org/1999/xlink" x="0px" y="0px"
	 viewBox="0 0 1178.8 276.7" style="enable-background:new 0 0 1178.8 276.7;" xml:space="preserve">
<style type="text/css">
	.st0{fill:#878384;}
	.st1{fill:#6A6567;}
	.st2{fill:#1477C6;}
</style>
<g>
	<path class="st0" d="M312.2,226.9h-0.1l-5.7,16.2h11.4L312.2,226.9z M307.9,219h8.9l15.4,39.1h-8.7l-3.4-9h-15.9l-3.4,9h-8.1
		L307.9,219"/>
	<polyline class="st0" points="336.2,219 359.3,219 359.3,225.2 344,225.2 344,234.8 358,234.8 358,241 344,241 344,252 359.4,252 
		359.4,258.2 336.2,258.2 336.2,219 	"/>
	<path class="st0" d="M375.8,235.7h2.6c3.9,0,8.3-0.6,8.3-5.4c0-4.7-4.4-5.1-8.3-5.1h-2.6V235.7z M368,219h8.5
		c8.4,0,18.4-0.3,18.4,10.6c0,4.6-3.1,8.4-8.1,9.1v0.1c2.1,0.2,3.4,2.3,4.1,4l6.3,15.3h-8.7l-4.7-12.2c-1.1-2.9-2.1-4-5.4-4h-2.5
		v16.3H368V219"/>
	<path class="st0" d="M419.5,252.7c8,0,11-7.1,11-14.2c0-6.9-3.2-14-11-14c-7.8,0-11,7.1-11,14C408.5,245.6,411.5,252.7,419.5,252.7
		z M419.5,218.4c12.3,0,19.2,8.3,19.2,20.1c0,11.8-6.8,20.4-19.2,20.4c-12.6,0-19.2-8.4-19.2-20.4
		C400.3,226.5,407,218.4,419.5,218.4"/>
	<path class="st0" d="M466.2,226.2c-2.5-1.1-5.2-1.7-8-1.7c-2.7,0-6.2,1.2-6.2,5.4c0,6.8,17.2,3.9,17.2,17c0,8.6-6.8,11.8-14.7,11.8
		c-4.3,0-6.2-0.6-10-1.5l0.7-7.1c2.7,1.5,5.8,2.4,8.9,2.4c3,0,7-1.5,7-5c0-7.5-17.2-4.4-17.2-17.3c0-8.7,6.8-11.9,13.7-11.9
		c3.4,0,6.5,0.5,9.4,1.4L466.2,226.2"/>
	<path class="st0" d="M483.6,237.1h2.8c3.9,0,7.5-1.3,7.5-5.8c0-4.5-3.4-6.1-7.5-6.1h-2.8V237.1z M475.7,219h9.9
		c8.5,0,16.3,2.5,16.3,11.8c0,9.1-6.7,12.4-15.1,12.4h-3.3v14.9h-7.8V219"/>
	<path class="st0" d="M520.1,226.9H520l-5.7,16.2h11.4L520.1,226.9z M515.8,219h8.9l15.4,39.1h-8.7l-3.4-9H512l-3.4,9h-8.1
		L515.8,219"/>
	<path class="st0" d="M571.8,257.6c-2.9,0.7-5.9,1.2-8.9,1.2c-12.7,0-21.5-6.3-21.5-19.6c0-13.4,8.2-20.9,21.5-20.9
		c2.6,0,6,0.5,8.9,1.6l-0.6,6.6c-3-1.7-5.7-2.1-8.5-2.1c-8.1,0-13.1,6.2-13.1,14.2c0,8,4.9,14,13.3,14c3.1,0,6.7-0.7,8.6-1.6
		L571.8,257.6"/>
	<polyline class="st0" points="580.3,219 603.4,219 603.4,225.2 588.2,225.2 588.2,234.8 602.1,234.8 602.1,241 588.2,241 
		588.2,252 603.5,252 603.5,258.2 580.3,258.2 580.3,219 	"/>
	<path class="st0" d="M649.2,252h4.4c6.6,0,12.9-4.9,12.9-13.4c0-8.5-6.3-13.4-12.9-13.4h-4.4V252z M641.3,219H652
		c12,0,22.6,4,22.6,19.6c0,15.5-10.6,19.6-22.6,19.6h-10.7V219"/>
	<polyline class="st0" points="681.7,219 704.8,219 704.8,225.2 689.6,225.2 689.6,234.8 703.5,234.8 703.5,241 689.6,241 
		689.6,252 704.9,252 704.9,258.2 681.7,258.2 681.7,219 	"/>
	<polyline class="st0" points="713.8,219 735.6,219 735.6,225.2 721.7,225.2 721.7,234.8 734.9,234.8 734.9,241 721.7,241 
		721.7,258.2 713.8,258.2 713.8,219 	"/>
	<polyline class="st0" points="742.7,219 765.8,219 765.8,225.2 750.5,225.2 750.5,234.8 764.5,234.8 764.5,241 750.5,241 
		750.5,252 765.9,252 765.9,258.2 742.7,258.2 742.7,219 	"/>
	<polyline class="st0" points="774.6,219 784.2,219 799.1,248.3 799.3,248.3 799.3,219 806.8,219 806.8,258.2 797.2,258.2 
		782.2,228.9 782.1,228.9 782.1,258.2 774.6,258.2 774.6,219 	"/>
	<path class="st0" d="M844.1,257.6c-2.9,0.7-5.9,1.2-8.9,1.2c-12.7,0-21.5-6.3-21.5-19.6c0-13.4,8.2-20.9,21.5-20.9
		c2.6,0,6,0.5,8.9,1.6l-0.6,6.6c-3-1.7-5.7-2.1-8.5-2.1c-8.1,0-13.1,6.2-13.1,14.2c0,8,4.9,14,13.3,14c3.1,0,6.7-0.7,8.6-1.6
		L844.1,257.6"/>
	<polyline class="st0" points="852.5,219 875.6,219 875.6,225.2 860.4,225.2 860.4,234.8 874.4,234.8 874.4,241 860.4,241 
		860.4,252 875.8,252 875.8,258.2 852.5,258.2 852.5,219 	"/>
	<path class="st0" d="M932.5,226.2c-2.5-1.1-5.2-1.7-8-1.7c-2.7,0-6.2,1.2-6.2,5.4c0,6.8,17.2,3.9,17.2,17c0,8.6-6.8,11.8-14.7,11.8
		c-4.3,0-6.2-0.6-10-1.5l0.7-7.1c2.7,1.5,5.8,2.4,8.9,2.4c3,0,6.9-1.5,6.9-5c0-7.5-17.2-4.4-17.2-17.3c0-8.7,6.8-11.9,13.7-11.9
		c3.4,0,6.5,0.5,9.4,1.4L932.5,226.2"/>
	<polyline class="st0" points="942.3,219 965.4,219 965.4,225.2 950.1,225.2 950.1,234.8 964.1,234.8 964.1,241 950.1,241 
		950.1,252 965.5,252 965.5,258.2 942.3,258.2 942.3,219 	"/>
	<path class="st0" d="M1001,257.6c-2.9,0.7-6,1.2-8.9,1.2c-12.7,0-21.5-6.3-21.5-19.6c0-13.4,8.2-20.9,21.5-20.9
		c2.6,0,6,0.5,8.9,1.6l-0.6,6.6c-3-1.7-5.7-2.1-8.5-2.1c-8.1,0-13.1,6.2-13.1,14.2c0,8,4.9,14,13.3,14c3.1,0,6.7-0.7,8.6-1.6
		L1001,257.6"/>
	<path class="st0" d="M1007.5,219h7.8v22.6c0,6.7,2.1,11.1,8.1,11.1c6,0,8.1-4.4,8.1-11.1V219h7.9v25c0,10.5-6,14.8-16,14.8
		c-10,0-16-4.3-16-14.8V219"/>
	<path class="st0" d="M1055.8,235.7h2.6c3.9,0,8.3-0.6,8.3-5.4c0-4.7-4.4-5.1-8.3-5.1h-2.6V235.7z M1048,219h8.5
		c8.4,0,18.5-0.3,18.5,10.6c0,4.6-3.1,8.4-8.1,9.1v0.1c2.1,0.2,3.4,2.3,4.1,4l6.3,15.3h-8.7l-4.7-12.2c-1.1-2.9-2.1-4-5.4-4h-2.5
		v16.3h-7.9V219"/>
	<rect x="1083.2" y="219" class="st0" width="7.8" height="39.1"/>
	<polyline class="st0" points="1105.9,225.2 1095.3,225.2 1095.3,219 1124.3,219 1124.3,225.2 1113.7,225.2 1113.7,258.2 
		1105.9,258.2 1105.9,225.2 	"/>
	<polyline class="st0" points="1138.3,242.7 1125.2,219 1133.6,219 1142.4,235.5 1151.4,219 1159.6,219 1146.1,242.7 1146.1,258.2 
		1138.3,258.2 1138.3,242.7 	"/>
	<path class="st0" d="M625.5,238.9c0,2.1-1.7,3.7-3.7,3.7c-2.1,0-3.7-1.7-3.7-3.7c0-2.1,1.7-3.7,3.7-3.7
		C623.8,235.1,625.5,236.8,625.5,238.9"/>
	<path class="st0" d="M896.5,238.9c0,2.1-1.7,3.7-3.8,3.7c-2.1,0-3.7-1.7-3.7-3.7c0-2.1,1.7-3.7,3.7-3.7
		C894.8,235.1,896.5,236.8,896.5,238.9"/>
	<path class="st1" d="M292.8,164.7l16.4-11.1c19.8,10.2,44.6,11.6,53.5,11.6c23.4,0,33.5-8.2,33.5-15v-0.3c0-5.9-6.2-9.7-29.1-13.1
		c-36-5.3-64.7-10.5-64.7-31.7v-0.3c0-20.3,23.2-35,63.8-35c28.7,0,51.2,5,69.5,14.5L422,95.1c-15.4-7-32.2-8.6-47.1-8.6
		c-17.9,0-32.1,5.2-32.1,12.6v0.3c0,5.5,11.1,9.4,34.5,12.8c38.8,5.5,58.2,14.2,58.2,34.6v0.3c0,22.3-22.5,35.6-63.6,35.6
		C342,182.8,313.5,176.7,292.8,164.7"/>
	<path class="st1" d="M525.4,143.8l-25.8-43.6l-23,43.6H525.4z M527.6,85.7l55.7,94.2h-37.9l-10.4-19h-67.4l-10.1,19H435l57.1-107.3
		h17.7C509.8,72.6,519.1,72.8,527.6,85.7"/>
	<path class="st1" d="M952.9,143.8l-25.8-43.6l-23,43.6H952.9z M955.1,85.7l55.7,94.2H973l-10.4-19h-67.4l-10.1,19h-22.3l57.1-107.3
		h17.6C937.3,72.6,946.6,72.8,955.1,85.7"/>
	<polyline class="st1" points="591.5,73.3 708.5,73.3 704,90.1 624.5,90.1 624.5,123.5 688.4,123.5 683.9,140.6 624.5,140.6 
		624.5,179.9 591.5,179.9 591.5,73.3 	"/>
	<path class="st1" d="M1063.8,88.1l70.3,52.8V73.3h25.5v106.5h-11.4c-15.8,0-24-6.1-24-6.1l-79.1-57.8v63.9h-25.5V73.3h9.9
		C1029.6,73.3,1043.2,72.6,1063.8,88.1"/>
	<path class="st1" d="M792,127.4c14.6,0,23.1-9.7,23.1-17.5v-1.7c0-8.4-8.9-15.2-23.3-15.2h-40.3v34.4H792z M810.7,167.7L791.2,146
		h-39.7v33.9h-32.7V73.3h67.3c23.7,0,40.1,3.1,50.5,10.4c9.1,6.1,13.7,14.3,13.7,24.8v0.1c0,16.3-8,28.5-27.3,34.1l37,37.1h-19.2
		C821,179.9,810.7,167.7,810.7,167.7"/>
	<path class="st2" d="M230.6,87.1c-18.5-42.3-61.1-70.8-109.3-68.5C73.1,20.9,33.4,53.3,19,97.1L19,97.3l0.5,0l0.1-0.1
		c16.2-36.8,55.3-63.8,102.3-66.1c47-2.3,88.6,20.9,108.2,56L230.6,87.1"/>
	<path class="st2" d="M23,180.1c18.5,42.2,61.1,70.8,109.3,68.4c48.2-2.3,87.9-34.8,102.3-78.6l-0.5,0
		c-16.1,36.8-55.3,63.9-102.3,66.1c-47,2.3-88.6-20.9-108.2-56L23,180.1"/>
	<path class="st2" d="M187.3,174.1c0,19.1-33.6,38.8-33.6,38.8c62.1-22.7,67.4-54.2,67.4-66.3c0-26.6-27.1-35-57-39.2
		c-23.3-3.3-40.6-3.3-56.8-5c-25.8-2.6-33.1-9.3-33.1-19.1c0-18.6,36.2-39.2,36.2-39.2c-58.9,18.9-71.9,48-71.9,66.2
		c0,43.7,86.5,43.2,121.3,46.9C181.3,159.5,187.3,167,187.3,174.1"/>
</g>
</svg>
