<?xml version="1.0" encoding="utf-8"?>
<!-- Generator: Adobe Illustrator 25.4.1, SVG Export Plug-In . SVG Version: 6.00 Build 0)  -->
<svg version="1.1" id="layer" xmlns="http://www.w3.org/2000/svg" xmlns:xlink="http://www.w3.org/1999/xlink" x="0px" y="0px"
	 viewBox="0 0 652 173.3" style="enable-background:new 0 0 652 173.3;" xml:space="preserve">
<style type="text/css">
	.st0{fill:#E30613;}
</style>
<path class="st0" d="M38.6,149.3V34.4h114.9v114.9H38.6z M149.1,144.8v-106h-106v106.1L149.1,144.8L149.1,144.8z"/>
<polygon class="st0" points="60.8,91.8 89.9,139.2 142.9,139.2 113.7,91.9 143,44.3 90,44.3 "/>
<path d="M203.8,119.1l2-2.9l3.1-4.1l12-15.5h11.6l-14.6,18.1l-4.7,6.1l20.4,28.2h-12.4l-13.4-18.8c-1-1.3-1.9-2.7-2.8-4l-1.4-2.2v25
	h-9.4V96.6h9.4v22.5H203.8z"/>
<path d="M257,148.8v-5.7c-0.3,0.6-0.6,1.2-1,1.7c-4,5.5-11.7,6.8-17.2,2.8c-3.2-2.3-5.1-6.1-5.1-10c0-2.2,0.6-4.4,1.7-6.3
	c3.5-5.6,10.6-6.3,16-6.3c1.7,0,3.4,0,5.2,0c0-1.4-0.2-2.8-0.5-4.1c-1-3-4-4.8-7.1-4.5c-3.2,0.1-6.2,1.1-8.9,2.7
	c-0.6,0.4-1.2,0.9-1.8,1.5l-0.3-8.9c3.8-1.7,7.8-2.6,12-2.6c1.7,0,3.5,0.2,5.2,0.6c4.2,0.8,7.6,3.8,8.9,7.9c0.7,3,1,6.1,0.8,9.2v9.1
	c0,3.8,0,7.5,0,11.3c0,0.4,0,0.9,0,1.3h-8L257,148.8z M245.1,132.9c-0.8,0.6-1.4,1.3-1.9,2.2c-0.4,0.8-0.6,1.6-0.6,2.5
	c0,0.7,0.2,1.5,0.4,2.1c0.9,1.9,2.9,3.1,5,3c2.6-0.1,5-1.4,6.5-3.6c1.4-2.4,2.1-5.1,2-7.9C252.7,130.7,248.7,131.2,245.1,132.9z"/>
<path d="M296.6,148.8v-18.7c0-4.5,0-9.5-3.3-11.6c-1-0.6-2.1-0.9-3.3-0.9c-2.5,0-4.8,1.3-6.1,3.5c-1.5,3-2.1,6.3-1.9,9.5v18.1h-8.9
	v-29.4c0-3.1,0-6.2-0.3-9.3h8.9v6c2.5-4.2,7.1-6.7,12-6.6c1.3,0,2.7,0.2,4,0.5c3.7,1.2,6.5,4.3,7.3,8.1c0.6,3.6,0.9,7.3,0.8,10.9
	v19.8H297L296.6,148.8z"/>
<path d="M324.8,110.1h8.2v7.5h-8.2v16.6c0,1.6,0,7,5.3,7c1.1,0,2.2-0.2,3.3-0.6v7.9c-1.9,0.6-3.9,1-5.9,1c-3.2,0.1-6.3-1.1-8.6-3.3
	c-2.5-4.1-3.6-9-2.9-13.7v-14.7h-6.5v-7.6h6.7v-7.8l8.9-3.1v10.8L324.8,110.1z"/>
<path d="M361.6,111c6.8,3.6,10.8,10.9,10.2,18.6c0,2.8-0.4,5.6-1.3,8.3c-3.4,9.3-13.6,14-22.9,10.6c-2.1-0.8-4-1.9-5.6-3.3
	c-4.3-4-6.6-9.8-6.3-15.7c0-2.9,0.5-5.7,1.4-8.4c2.4-7.2,9.2-12,16.8-11.7C356.5,109.3,359.1,109.8,361.6,111z M349.5,118.2
	c-3.1,2.8-4.8,6.9-4.5,11c-0.2,4.1,1.3,8.2,4.1,11.2c1.3,1,2.8,1.6,4.5,1.6c4.2,0,8.4-3.3,8.4-12.8c0.2-2.9-0.5-5.8-1.8-8.3
	s-3.8-4.1-6.6-4.1C352.1,116.8,350.7,117.3,349.5,118.2L349.5,118.2z"/>
<path d="M401.3,148.8v-18.7c0-4.5,0-9.5-3.3-11.6c-1-0.6-2.1-0.9-3.3-0.9c-2.5,0-4.8,1.3-6.1,3.5c-1.5,3-2.1,6.3-1.9,9.5v18.1h-8.9
	v-29.4c0-3.1,0-6.2-0.3-9.3h8.9v6c2.5-4.2,7.1-6.7,12-6.6c1.3,0,2.7,0.2,4,0.5c3.7,1.2,6.5,4.3,7.3,8.1c0.6,3.6,0.9,7.3,0.8,10.9
	v19.8h-8.9L401.3,148.8z"/>
<path d="M437.9,148.8v-5.7c-0.3,0.6-0.6,1.2-1,1.7c-4,5.5-11.7,6.8-17.2,2.8c-3.2-2.3-5.1-6.1-5.1-10c0-2.2,0.6-4.4,1.7-6.3
	c3.5-5.6,10.6-6.3,16-6.3c1.7,0,3.5,0,5.2,0c0-1.4-0.2-2.8-0.5-4.1c-1-3-4-4.8-7.1-4.5c-3.2,0.1-6.2,1.1-8.9,2.7
	c-0.6,0.4-1.2,0.9-1.8,1.5l-0.2-9c3.8-1.7,7.8-2.6,12-2.6c1.7,0,3.5,0.2,5.2,0.6c4.2,0.8,7.6,3.8,8.9,7.9c0.7,3,1,6.1,0.8,9.2v9.1
	c0,3.8,0,7.5,0,11.3c0,0.4,0,0.9,0,1.3h-8V148.8z M426.3,132.9c-0.8,0.6-1.4,1.3-1.9,2.2c-0.4,0.8-0.6,1.6-0.6,2.5
	c0,0.7,0.2,1.5,0.4,2.1c0.9,1.9,2.9,3.1,5,3c2.6-0.1,5-1.4,6.5-3.6c1.4-2.4,2.1-5.1,2-7.9C433.8,130.7,429.9,131.2,426.3,132.9
	L426.3,132.9z"/>
<path d="M462.8,92.3v56.4h-8.9V92.3H462.8z"/>
<path d="M480.2,92.3v24c0.7-1.3,1.6-2.5,2.7-3.5c2.1-2.1,5-3.3,8-3.3c2.2,0,4.5,0.5,6.4,1.7c3.5,2.1,8,7.1,8,17.4
	c0,2-0.2,3.9-0.4,5.8c-0.4,4.1-2.1,8-4.7,11.2c-2.4,2.7-5.9,4.2-9.5,4c-3.4,0.1-6.7-1.3-8.9-3.9c-0.7-0.8-1.3-1.8-1.8-2.7v6h-8.6
	V92.3H480.2L480.2,92.3z M484.7,119.1c-3.1,2.6-4.6,6.6-4.2,10.6c-0.3,3.9,1.1,7.7,3.9,10.5c2.3,1.8,5.6,1.8,7.9,0
	c3-2.9,4.5-6.9,4.1-11c0.2-3.6-0.9-7.2-3.3-10c-1.2-1.1-2.8-1.7-4.5-1.7c-1.5,0-2.9,0.6-4.1,1.5L484.7,119.1z"/>
<path d="M532.8,148.8v-5.7c-0.3,0.6-0.6,1.2-1,1.7c-4,5.5-11.7,6.8-17.2,2.8c-3.2-2.3-5.1-6.1-5.1-10c0-2.2,0.6-4.4,1.7-6.3
	c3.4-5.6,10.6-6.3,16-6.3c1.7,0,3.4,0,5.2,0c0-1.4-0.2-2.8-0.5-4.1c-1-3-4-4.8-7.1-4.5c-3.2,0.1-6.2,1.1-8.9,2.7
	c-0.6,0.4-1.2,0.9-1.8,1.5l-0.3-8.9c3.8-1.7,7.8-2.6,12-2.6c1.7,0,3.5,0.2,5.2,0.6c4.2,0.8,7.6,3.8,8.9,7.9c0.7,3,1,6.1,0.8,9.2v9.1
	c0,3.8,0,7.5,0,11.3c0,0.4,0,0.9,0,1.3h-8L532.8,148.8z M521.1,132.9c-0.8,0.6-1.4,1.3-1.9,2.2c-0.4,0.8-0.6,1.6-0.6,2.5
	c0,0.7,0.2,1.5,0.4,2.1c0.9,1.9,2.9,3.1,5,3c2.6-0.1,5-1.4,6.5-3.6c1.4-2.4,2.1-5.1,2-7.9C528.7,130.7,524.7,131.2,521.1,132.9
	L521.1,132.9z"/>
<path d="M572.4,148.8v-18.7c0-4.5,0-9.5-3.3-11.6c-1-0.6-2.1-0.9-3.3-0.9c-2.5,0-4.8,1.3-6.1,3.5c-1.5,3-2.1,6.3-1.9,9.5v18.1H549
	v-29.4c0-3.1,0-6.2-0.3-9.3h8.9v6c2.5-4.2,7.1-6.7,12-6.6c1.3,0,2.7,0.2,4,0.5c3.7,1.2,6.5,4.3,7.3,8.1c0.6,3.6,0.9,7.3,0.8,10.9
	v19.8h-8.9L572.4,148.8z"/>
<path d="M598,125.7c1.1-1.6,2.1-3.3,3.2-4.8l7.9-10.8h10.4l-12.9,17l14.6,21.6H610l-7.9-11.7c-0.8-1.5-1.7-2.9-2.5-4.5
	s-1.2-2.1-1.7-3.1v19.2H589V92.2h8.9L598,125.7L598,125.7L598,125.7z"/>
<g>
	<path d="M212.8,65.4c0-6-17.1-5.2-17.1-17c0-6.2,5.4-11.1,13.1-11.1c6.2,0,10.1,2.9,11.3,4.5l-5,6.1c-0.9-1.1-3-3.5-6.9-3.5
		c-2.6,0-4.1,1.5-4.1,3.4c0,6.1,17,5.2,17,17.2c0,5.6-4.6,11.1-14,11.1c-7.1,0-11.6-3.2-12.9-4.7l4.6-6.8c1.6,1.6,4.8,4.5,9.3,4.5
		C211.3,69.1,212.8,67.4,212.8,65.4z"/>
	<path d="M238.9,44.5c4.8,0,8.3,1.7,10.3,4.4l-5.3,5.2c-0.4-0.8-2-2.9-5-2.9c-3.4,0-5.7,2.2-5.7,8.8c0,6.5,1.9,9.5,5.6,9.5
		c2.6,0,4.3-1.6,5.1-3l5.1,4.8c-1.7,2.3-4.5,4.8-10.9,4.8c-8.1,0-13-4.5-13-15.5C225.1,49.9,230.8,44.5,238.9,44.5z"/>
	<path d="M278.6,55v20.5h-8V56.6c0-3.2-1.4-4.8-4.1-4.8c-1.9,0-4.1,1.5-5.1,3.3v20.4h-8V34.7h8v13.4h0.2c1.7-1.8,4.4-3.3,7.9-3.3
		C275.2,44.9,278.6,48.1,278.6,55z"/>
	<path d="M304.3,55.1l-4.9,20.3h-9.2L282.4,45h8l3.2,14c0.7,3.2,1.2,5.7,1.5,9.5h0.2c0.3-3.4,1-6.7,1.6-9.4l3.7-14.1h7.6l3.2,13.9
		c0.7,3.2,1.5,6.3,1.6,9.6h0.2c0.4-3.3,1-6.3,1.8-9.7l3.2-13.8h7.1l-7.7,30.4h-9.3L304.3,55.1C304.3,55.1,304.3,55.1,304.3,55.1z"/>
	<path d="M329.3,79.3c0.8,0.4,1.9,0.8,3.2,0.8c2.9,0,4.5-1.7,4.8-4.7l-11.2-30.3h8.9l3.3,10.3c1.1,3.4,2.3,8,2.6,10.6h0.2
		c0.4-2.7,1.1-6.5,2.2-10.6l2.8-10.3h8.3L344.5,77c-1.7,5.3-4.7,9.9-11.6,9.9c-2.1,0-4.1-0.5-4.9-0.9L329.3,79.3z"/>
	<path d="M366.4,68.9h13.3v6.5h-21.9l-1.1-6.1l12.8-17.6v-0.2h-12.1V45H378l1.1,6.1l-12.6,17.5v0.3H366.4z"/>
	<path d="M408.7,72.7c-2.3,1.9-5.2,3.4-11,3.4c-9.4,0-14.2-5.4-14.2-15.9c0-9.8,5.4-15.7,14-15.7c7.6,0,12,4.9,12,12.3
		c0,1.6-0.1,3.1-0.4,5.4h-17.8c0.1,4.8,2.2,7.4,7.3,7.4c3.2,0,5.4-1.6,6.6-2.7L408.7,72.7z M391.5,56.8H402V56
		c0-3.5-1.5-5.4-4.7-5.4C393.7,50.6,391.6,53.3,391.5,56.8z"/>
	<path d="M433.7,52.7c-1.1-0.2-2.4-0.3-3.4-0.3c-2.5,0-5.2,1-7,2.4v20.6h-7.9V45.1h6.2l1.6,4.5h0.2c1.2-3,3.8-5.1,7.7-5.1
		c0.8,0,1.9,0.1,2.5,0.3L433.7,52.7L433.7,52.7z"/>
</g>
</svg>
