<svg id="svg" version="1.1" xmlns="http://www.w3.org/2000/svg" xmlns:xlink="http://www.w3.org/1999/xlink" width="400" height="133.5" viewBox="0, 0, 400,133.5"><g id="svgg"><path id="path0" d="M321.287 1.001 L 320.325 1.984 319.709 1.566 C 319.274 1.271,318.971 1.179,318.672 1.252 C 318.064 1.402,316.837 2.146,316.810 2.382 C 316.797 2.493,316.765 2.838,316.740 3.148 C 316.692 3.731,316.456 3.993,315.973 3.997 C 315.465 4.002,314.807 4.984,314.856 5.663 C 314.894 6.191,314.809 6.356,314.228 6.881 C 313.043 7.952,312.957 8.977,313.945 10.273 C 314.374 10.834,314.382 10.888,314.178 11.683 C 313.829 13.048,314.510 14.500,315.499 14.500 C 316.031 14.500,316.300 14.254,315.925 14.110 C 315.278 13.861,315.133 13.258,315.493 12.311 C 315.950 11.108,315.924 10.796,315.325 10.353 C 314.217 9.534,314.363 8.485,315.699 7.663 C 316.534 7.149,316.535 7.147,316.429 6.438 C 316.309 5.639,316.558 5.282,317.379 5.077 C 317.933 4.939,318.167 4.555,318.167 3.787 C 318.167 2.648,319.017 2.373,320.071 3.171 C 321.071 3.927,321.633 3.831,322.074 2.827 C 322.886 0.978,324.299 1.108,325.367 3.129 C 325.729 3.813,326.005 3.805,326.951 3.083 C 328.486 1.911,330.167 2.837,330.167 4.857 C 330.167 5.767,330.549 6.028,331.414 5.707 C 332.524 5.296,333.654 6.255,333.156 7.186 C 332.787 7.875,333.022 8.387,333.793 8.576 C 335.800 9.068,336.521 11.234,335.013 12.243 C 334.224 12.771,334.384 14.000,335.242 14.000 C 335.597 14.000,336.305 14.944,336.504 15.683 C 336.828 16.885,336.570 17.754,335.619 18.665 C 334.720 19.528,334.532 19.551,333.852 18.888 C 333.634 18.675,333.386 18.500,333.301 18.500 C 333.217 18.500,333.000 18.167,332.820 17.759 C 332.640 17.352,332.317 16.880,332.102 16.711 C 331.735 16.422,331.706 16.267,331.624 14.077 C 331.480 10.241,329.884 7.668,326.688 6.119 C 325.466 5.527,321.378 5.284,321.208 5.793 C 321.170 5.907,321.044 6.000,320.929 6.000 C 320.813 6.000,320.583 6.150,320.417 6.333 C 320.251 6.517,320.045 6.667,319.960 6.667 C 319.689 6.667,318.677 7.817,318.569 8.250 C 318.511 8.479,318.378 8.669,318.274 8.672 C 318.169 8.675,318.215 8.753,318.375 8.847 C 318.733 9.055,318.750 9.390,318.417 9.667 C 317.533 10.400,318.563 13.266,319.849 13.652 C 321.622 14.183,323.198 12.242,321.792 11.257 C 321.404 10.985,321.502 10.510,321.953 10.481 C 323.017 10.412,323.497 10.848,323.507 11.893 C 323.512 12.408,323.637 12.728,323.999 13.151 C 324.595 13.848,324.482 14.151,323.436 14.657 C 322.936 14.899,322.665 15.151,322.592 15.441 C 322.277 16.697,321.780 16.913,321.118 16.083 C 320.568 15.394,320.127 15.338,319.860 15.925 C 319.604 16.487,319.580 16.452,320.292 16.559 C 320.635 16.611,321.184 16.701,321.510 16.758 C 322.281 16.894,323.156 16.421,323.514 15.676 C 323.669 15.353,323.997 15.034,324.312 14.902 C 325.322 14.477,325.586 13.211,324.907 12.052 C 324.672 11.652,324.494 11.195,324.509 11.037 C 324.703 9.119,321.991 8.055,320.730 9.555 C 320.260 10.113,320.265 10.630,320.743 10.900 C 321.990 11.602,321.643 12.858,320.274 12.598 C 319.365 12.425,318.966 11.612,318.939 9.879 L 318.917 8.417 319.810 7.528 C 321.069 6.275,323.454 5.701,324.407 6.422 C 324.585 6.557,325.009 6.667,325.350 6.667 C 326.968 6.667,329.414 8.787,330.156 10.833 C 330.818 12.658,331.033 15.474,330.562 16.147 C 330.151 16.733,330.006 16.322,330.003 14.563 C 329.998 11.775,328.713 9.036,326.800 7.737 C 326.406 7.469,326.058 7.194,326.028 7.125 C 325.947 6.943,325.000 6.971,325.000 7.155 C 325.000 7.241,325.146 7.357,325.325 7.414 C 326.641 7.832,328.500 11.171,328.500 13.115 C 328.500 13.662,328.270 13.969,328.085 13.669 C 327.787 13.187,327.122 13.490,327.268 14.042 C 327.476 14.826,327.429 17.132,327.189 17.968 C 326.966 18.742,326.342 19.142,324.954 19.400 C 324.102 19.558,323.278 20.068,322.830 20.715 C 322.496 21.196,321.220 22.139,320.198 22.660 C 319.986 22.768,319.142 22.910,318.322 22.975 C 316.700 23.105,316.862 23.004,315.801 24.539 C 314.841 25.928,315.702 26.395,316.974 25.176 C 317.884 24.303,318.238 24.336,317.765 25.249 C 317.424 25.906,317.547 26.003,318.399 25.747 C 319.466 25.426,320.917 25.373,320.917 25.656 C 320.917 26.029,319.365 26.368,317.283 26.451 C 314.981 26.542,314.417 26.261,314.417 25.023 C 314.417 24.197,313.634 24.079,312.655 24.758 C 311.243 25.736,311.774 27.817,313.633 28.594 C 314.286 28.866,316.500 28.923,316.500 28.667 C 316.500 28.575,316.263 28.500,315.973 28.500 C 313.902 28.500,312.207 26.922,313.065 25.792 C 313.400 25.350,314.000 25.411,314.000 25.885 C 314.000 26.279,314.626 26.977,315.281 27.313 C 315.793 27.576,318.556 27.535,319.750 27.247 C 321.307 26.871,321.833 26.912,321.833 27.409 C 321.833 27.862,320.011 28.576,318.250 28.813 C 317.488 28.916,317.421 28.960,317.463 29.335 C 317.595 30.493,319.013 30.779,320.752 29.999 C 322.272 29.317,322.821 29.268,324.707 29.642 C 326.481 29.994,326.461 29.996,330.046 29.074 C 331.553 28.686,331.811 28.817,332.588 30.366 C 333.525 32.232,335.093 34.000,335.812 34.000 C 335.903 34.000,336.373 34.455,336.857 35.012 C 337.757 36.046,338.400 36.084,338.074 35.083 C 338.015 34.900,337.947 34.188,337.924 33.500 C 337.863 31.716,337.501 31.027,335.936 29.715 C 335.803 29.604,335.483 29.463,335.223 29.400 C 334.963 29.338,334.675 29.233,334.583 29.167 C 334.492 29.100,334.210 28.997,333.958 28.936 C 333.706 28.876,333.500 28.722,333.500 28.594 C 333.500 28.466,333.406 28.323,333.292 28.277 C 333.156 28.222,333.176 28.188,333.348 28.180 C 333.656 28.165,335.723 29.160,335.806 29.363 C 335.982 29.798,337.083 29.478,337.679 28.820 C 338.496 27.917,339.186 27.821,340.657 28.406 C 342.156 29.003,342.330 28.625,341.404 26.778 C 340.693 25.361,340.888 25.154,342.944 25.137 C 346.567 25.107,349.000 26.965,349.000 29.761 C 349.000 31.922,346.835 33.873,345.267 33.125 C 344.327 32.677,344.443 31.589,345.443 31.469 C 346.135 31.387,346.305 30.950,345.923 30.241 C 345.042 28.604,342.774 28.354,341.843 29.789 C 341.322 30.592,341.027 30.833,340.564 30.833 C 339.510 30.833,339.118 32.724,340.000 33.556 C 340.458 33.989,340.649 34.684,340.509 35.407 C 340.448 35.723,340.899 36.333,341.503 36.752 C 341.843 36.988,342.253 37.424,342.413 37.722 C 343.147 39.084,345.507 39.369,346.239 38.184 C 346.397 37.929,346.956 37.953,347.117 38.223 C 347.619 39.064,349.316 38.806,349.889 37.801 C 350.304 37.071,350.553 36.951,351.250 37.143 C 352.705 37.543,354.657 35.669,354.188 34.323 C 353.999 33.781,354.017 33.731,354.588 33.191 C 355.163 32.649,355.185 32.587,355.140 31.600 C 355.100 30.709,355.152 30.496,355.532 29.995 C 356.517 28.693,356.481 27.123,355.444 26.213 C 354.789 25.638,354.622 25.278,354.888 25.012 C 354.995 24.905,355.083 24.352,355.083 23.783 C 355.083 22.106,354.059 20.998,352.461 20.945 L 351.594 20.917 351.255 19.791 C 350.626 17.700,349.457 16.916,347.895 17.539 L 347.286 17.782 346.697 17.130 C 345.334 15.621,343.994 15.689,342.770 17.329 C 342.248 18.029,342.143 18.033,341.185 17.383 C 340.577 16.971,339.376 16.865,338.608 17.157 C 338.110 17.347,338.000 17.150,338.000 16.075 C 338.000 15.144,337.603 14.264,336.794 13.404 L 336.155 12.725 336.576 11.821 C 337.356 10.144,336.686 8.284,335.000 7.449 C 334.664 7.282,334.573 7.098,334.530 6.497 C 334.440 5.238,333.321 4.167,332.096 4.167 C 331.770 4.167,331.616 4.017,331.368 3.458 C 330.443 1.370,328.321 0.451,327.080 1.601 C 326.531 2.110,326.398 2.102,325.919 1.533 C 325.448 0.974,324.643 0.551,323.792 0.417 C 323.448 0.363,323.167 0.247,323.167 0.159 C 323.167 -0.358,322.188 0.080,321.287 1.001 M316.522 14.150 C 316.331 14.271,316.334 14.318,316.542 14.439 C 316.678 14.518,316.949 14.897,317.143 15.281 C 317.592 16.168,318.195 16.820,318.600 16.857 C 319.471 16.937,319.507 16.839,318.832 16.229 C 318.463 15.896,318.114 15.427,318.055 15.187 C 317.805 14.171,317.168 13.740,316.522 14.150 M329.644 16.592 C 330.240 17.349,330.480 19.333,329.976 19.333 C 329.757 19.333,328.956 18.820,328.708 18.521 C 328.495 18.264,328.420 16.570,328.600 16.100 C 328.726 15.773,329.161 15.978,329.644 16.592 M331.917 17.917 C 331.917 18.338,331.852 18.417,331.502 18.417 C 331.072 18.417,330.883 18.045,331.068 17.562 C 331.253 17.080,331.917 17.358,331.917 17.917 M345.441 18.813 C 345.682 19.830,346.216 20.051,346.899 19.418 C 348.187 18.225,349.500 19.057,349.500 21.066 C 349.500 22.230,349.832 22.524,350.994 22.386 C 352.498 22.208,353.466 23.576,352.811 24.952 C 352.328 25.966,352.442 26.496,353.239 26.941 C 354.506 27.650,354.612 28.900,353.491 29.899 C 353.007 30.330,352.980 30.417,353.030 31.381 L 353.083 32.405 352.446 32.822 C 351.965 33.136,351.829 33.322,351.893 33.578 C 351.939 33.764,352.047 34.187,352.132 34.518 C 352.440 35.708,351.838 36.203,350.387 35.953 C 349.253 35.758,349.068 35.837,348.929 36.578 C 348.848 37.007,348.666 37.273,348.301 37.495 C 347.755 37.827,347.598 37.791,346.687 37.125 C 346.126 36.714,345.799 36.760,345.258 37.325 C 344.260 38.367,343.062 38.089,342.968 36.794 L 342.917 36.083 342.170 36.030 C 341.064 35.952,340.616 35.360,341.258 34.827 C 341.642 34.508,341.482 33.962,340.919 33.672 C 339.685 33.038,339.833 31.618,341.100 31.936 C 341.523 32.042,342.167 31.509,342.167 31.052 C 342.167 30.616,342.844 30.000,343.325 30.000 C 344.312 30.000,344.882 30.959,344.125 31.347 C 342.327 32.268,343.235 34.576,345.381 34.540 C 350.856 34.447,351.778 27.422,346.627 25.045 C 344.746 24.176,342.638 23.886,341.034 24.276 C 339.644 24.613,338.927 24.550,339.098 24.105 C 339.370 23.396,344.046 23.126,345.532 23.735 C 348.394 24.905,350.500 26.684,350.500 27.930 C 350.500 28.090,350.621 28.604,350.768 29.072 C 351.187 30.399,350.360 32.697,349.116 33.667 C 348.940 33.804,348.675 34.048,348.527 34.208 C 348.380 34.369,348.145 34.502,348.005 34.505 C 347.865 34.508,347.604 34.621,347.426 34.755 C 347.249 34.890,346.874 35.001,346.593 35.003 C 345.895 35.006,345.574 35.216,345.879 35.469 C 346.175 35.714,347.764 35.534,348.019 35.227 C 348.123 35.102,348.343 35.000,348.508 35.000 C 348.673 35.000,349.253 34.566,349.797 34.035 C 354.295 29.647,349.867 22.562,342.594 22.510 C 341.351 22.501,339.450 22.871,339.092 23.191 C 338.550 23.677,337.112 22.511,336.335 20.956 C 335.871 20.026,335.908 19.970,337.492 19.212 C 339.166 18.412,340.584 18.523,341.315 19.510 C 341.950 20.370,342.600 20.108,343.479 18.637 C 344.170 17.481,345.146 17.569,345.441 18.813 M332.719 19.354 C 333.879 19.950,334.275 20.880,333.807 21.909 C 333.535 22.505,333.389 22.454,332.167 21.333 C 331.571 20.787,331.036 20.339,330.978 20.337 C 330.920 20.335,330.831 20.177,330.782 19.987 C 330.627 19.396,331.957 18.962,332.719 19.354 M329.015 19.768 C 329.121 19.896,329.281 20.000,329.371 20.000 C 329.920 20.000,333.000 22.995,334.428 24.917 C 336.562 27.789,336.829 28.271,336.479 28.621 C 336.269 28.831,335.951 28.501,334.998 27.083 C 334.691 26.625,334.394 26.212,334.340 26.167 C 334.286 26.121,333.850 25.585,333.371 24.976 C 332.347 23.676,330.924 22.327,329.222 21.046 C 328.131 20.225,327.798 19.758,328.093 19.463 C 328.235 19.321,328.799 19.507,329.015 19.768 M335.460 21.042 C 335.702 21.342,335.402 22.038,335.060 21.971 C 334.691 21.898,334.423 21.442,334.552 21.106 C 334.675 20.784,335.221 20.745,335.460 21.042 M327.003 21.443 C 327.625 21.753,328.380 22.720,328.305 23.109 C 328.260 23.341,328.085 23.242,327.452 22.626 C 326.459 21.661,326.123 21.548,325.402 21.936 C 324.730 22.298,324.267 22.065,324.676 21.572 C 325.176 20.969,325.965 20.926,327.003 21.443 M325.950 22.879 C 326.151 23.061,326.430 23.165,326.570 23.112 C 326.709 23.058,326.862 23.078,326.910 23.156 C 327.194 23.615,325.593 23.606,325.272 23.148 C 324.744 22.393,325.206 22.210,325.950 22.879 M336.321 22.931 C 336.907 23.425,336.936 23.638,336.568 24.720 C 336.260 25.623,335.856 25.745,335.383 25.078 C 335.218 24.845,334.827 24.309,334.514 23.885 L 333.945 23.114 334.324 22.807 C 334.872 22.363,335.707 22.415,336.321 22.931 M338.178 24.339 C 338.573 24.551,338.586 24.796,338.224 25.195 C 337.871 25.585,337.721 25.579,337.500 25.167 C 337.174 24.558,337.605 24.033,338.178 24.339 M339.568 26.378 C 340.848 27.110,341.210 28.039,340.068 27.662 C 339.681 27.534,339.045 27.494,338.378 27.557 C 337.254 27.661,336.520 27.242,336.505 26.486 C 336.492 25.842,338.507 25.771,339.568 26.378 M291.167 26.697 C 290.846 26.787,290.339 26.900,290.040 26.948 C 289.741 26.997,289.456 27.104,289.405 27.185 C 289.271 27.403,290.619 27.366,290.977 27.142 C 291.364 26.901,292.096 27.076,292.237 27.444 C 292.384 27.825,292.142 27.939,290.918 28.065 C 289.578 28.202,289.013 28.009,289.120 27.450 C 289.186 27.101,289.125 27.032,288.691 26.968 C 287.782 26.835,287.578 27.102,288.081 27.762 C 288.320 28.075,288.503 28.425,288.488 28.540 C 288.410 29.133,288.604 29.366,289.792 30.109 C 293.083 32.168,293.525 32.174,294.761 30.170 C 295.587 28.832,296.461 28.583,296.034 29.807 C 295.750 30.622,296.533 30.779,297.658 30.131 C 298.260 29.785,298.374 29.774,299.525 29.955 C 306.049 30.982,305.937 30.905,307.006 35.107 C 308.028 39.123,308.959 41.500,309.511 41.500 C 310.008 41.500,310.472 40.666,310.472 39.773 C 310.472 39.176,310.590 38.800,310.939 38.279 C 311.496 37.448,311.510 37.540,310.523 35.525 C 310.089 34.640,309.557 33.429,309.340 32.833 C 308.532 30.616,307.491 29.183,306.445 28.848 C 305.180 28.444,301.915 27.890,298.523 27.503 C 297.547 27.391,296.921 27.215,296.334 26.885 C 295.571 26.455,295.473 26.439,294.964 26.650 C 294.073 27.021,293.211 27.067,292.754 26.768 C 292.300 26.470,292.023 26.458,291.167 26.697 M293.885 28.634 C 294.467 29.241,294.450 29.476,293.770 30.263 L 293.206 30.915 292.562 30.691 C 290.969 30.140,289.543 29.257,290.001 29.105 C 293.277 28.019,293.294 28.017,293.885 28.634 M329.417 30.429 C 328.683 30.656,327.386 30.899,326.533 30.967 C 325.490 31.052,324.935 31.170,324.837 31.327 C 324.721 31.514,324.544 31.528,323.962 31.395 C 322.734 31.114,322.007 31.485,322.003 32.394 C 322.000 32.919,321.922 32.922,320.823 32.446 C 320.062 32.116,319.551 32.341,319.083 33.212 C 318.708 33.911,318.602 33.942,317.850 33.567 C 316.810 33.048,315.667 33.709,315.667 34.828 C 315.667 35.385,315.347 35.885,315.113 35.694 C 315.005 35.605,314.767 35.517,314.583 35.497 C 313.386 35.370,312.500 36.095,312.500 37.204 C 312.500 37.813,312.409 38.013,311.923 38.471 C 311.255 39.101,311.029 39.933,311.330 40.659 C 311.543 41.173,311.455 41.500,311.103 41.500 C 310.755 41.500,310.137 42.273,310.012 42.864 C 309.884 43.475,309.542 43.533,309.020 43.032 C 307.195 41.283,305.156 39.650,304.384 39.319 C 303.163 38.796,302.480 38.937,299.615 40.301 C 298.808 40.685,298.054 41.000,297.940 41.000 C 297.826 41.000,297.662 41.064,297.575 41.143 C 297.343 41.352,295.732 41.840,294.743 42.001 C 293.143 42.262,292.728 42.534,292.166 43.696 C 291.886 44.273,291.480 44.896,291.264 45.081 C 291.048 45.266,290.791 45.661,290.694 45.959 C 290.445 46.723,289.346 48.333,289.074 48.333 C 288.133 48.333,287.819 49.625,288.632 50.147 L 289.250 50.545 290.917 50.171 C 294.791 49.303,295.919 47.895,294.345 45.893 C 293.899 45.327,293.910 45.142,294.418 44.666 L 294.836 44.273 295.174 44.637 C 295.742 45.246,296.578 44.977,297.069 44.027 C 297.354 43.477,298.961 42.641,301.328 41.812 C 302.437 41.424,303.571 41.718,304.287 42.581 C 304.516 42.857,305.445 43.857,306.352 44.803 C 308.046 46.570,308.142 46.759,307.853 47.764 C 307.539 48.861,309.396 51.008,309.923 50.157 C 310.135 49.814,310.833 49.985,310.833 50.380 C 310.833 51.395,311.990 51.861,312.853 51.192 C 313.363 50.796,313.485 50.847,314.630 51.945 C 315.154 52.447,316.296 53.329,317.167 53.903 C 318.539 54.809,319.392 55.308,321.917 56.684 C 322.192 56.834,322.417 57.047,322.417 57.158 C 322.417 57.481,320.670 58.031,320.000 57.918 C 318.316 57.636,318.240 57.637,317.856 57.948 C 317.645 58.119,317.419 58.519,317.353 58.837 C 317.222 59.470,317.000 59.523,315.633 59.249 C 314.740 59.070,313.928 59.862,314.094 60.747 C 314.240 61.524,313.964 61.886,313.416 61.636 C 312.871 61.388,312.284 61.575,311.665 62.194 C 311.129 62.730,311.100 62.942,311.420 63.956 C 311.509 64.237,311.461 64.354,311.227 64.430 C 309.532 64.978,309.151 66.434,310.501 67.205 C 311.238 67.626,311.332 67.966,310.833 68.417 C 310.004 69.167,310.712 70.902,311.836 70.870 C 312.668 70.846,312.973 71.080,313.032 71.787 C 313.100 72.607,313.744 73.027,314.398 72.677 C 314.959 72.377,315.337 72.674,315.312 73.394 C 315.302 73.682,315.349 74.190,315.416 74.524 C 315.533 75.107,315.505 75.157,314.727 75.747 C 312.451 77.476,308.629 79.625,306.721 80.248 C 305.575 80.623,304.616 81.473,304.093 82.579 C 303.625 83.567,303.146 84.000,302.520 84.000 C 302.130 84.000,302.126 84.012,302.407 84.323 C 302.743 84.694,302.716 84.758,301.699 85.944 C 300.920 86.852,300.469 87.084,299.985 86.825 C 299.763 86.706,299.565 86.773,299.179 87.099 C 298.486 87.681,298.521 87.968,299.292 88.032 C 299.794 88.073,299.927 88.157,299.970 88.458 L 300.023 88.833 226.192 88.833 C 185.585 88.833,152.242 88.879,152.097 88.934 C 151.743 89.070,151.688 104.167,152.042 104.166 C 152.156 104.166,152.567 103.755,152.953 103.255 C 156.090 99.193,163.376 98.272,167.991 101.354 C 169.883 102.617,171.148 104.894,171.683 108.000 C 171.882 109.156,172.104 129.561,171.926 130.273 L 171.827 130.667 167.765 130.667 C 164.214 130.667,163.690 130.633,163.601 130.403 C 163.546 130.258,163.500 125.988,163.500 120.914 C 163.500 111.100,163.438 110.180,162.663 108.576 C 160.783 104.686,153.923 105.437,152.402 109.700 C 151.827 111.310,151.784 112.007,151.684 121.250 L 151.583 130.583 147.595 130.628 C 145.401 130.653,143.544 130.610,143.467 130.534 C 143.391 130.457,143.330 121.146,143.332 109.841 C 143.335 94.801,143.285 89.226,143.148 89.060 C 142.951 88.824,69.209 88.700,68.597 88.934 C 68.243 89.070,68.188 104.167,68.542 104.166 C 68.656 104.166,69.067 103.755,69.453 103.255 C 71.598 100.478,75.401 99.132,79.607 99.661 C 84.539 100.282,87.129 102.715,88.127 107.663 C 88.387 108.953,88.657 129.353,88.426 130.273 L 88.327 130.667 84.265 130.667 C 80.714 130.667,80.190 130.633,80.101 130.403 C 80.046 130.258,80.000 125.991,80.000 120.921 C 80.000 111.141,79.922 109.981,79.162 108.500 C 77.527 105.314,71.759 105.241,69.604 108.378 C 68.332 110.231,68.279 110.707,68.175 121.250 L 68.083 130.583 64.042 130.628 L 60.000 130.673 60.000 109.953 C 60.000 94.060,59.953 89.187,59.800 89.033 C 59.646 88.879,52.756 88.833,29.800 88.833 L 0.000 88.833 0.000 110.917 L 0.000 133.000 200.000 133.000 L 400.000 133.000 400.000 110.917 L 400.000 88.833 375.917 88.833 C 362.671 88.833,351.833 88.785,351.833 88.727 C 351.833 88.573,352.338 88.199,352.917 87.923 C 354.620 87.111,355.080 85.056,353.833 83.833 C 352.851 82.870,352.998 81.502,354.015 82.138 C 355.148 82.845,355.489 80.761,354.456 79.448 C 353.274 77.946,350.481 68.574,350.850 67.345 C 351.287 65.886,350.144 64.657,348.900 65.247 C 348.584 65.397,348.046 65.496,347.704 65.468 L 347.083 65.417 347.083 64.629 C 347.083 63.568,346.425 62.832,345.709 63.095 C 344.909 63.388,344.667 63.231,344.667 62.418 C 344.667 61.595,343.867 60.891,343.099 61.038 C 342.521 61.148,342.311 60.911,341.342 59.052 C 340.195 56.853,340.177 56.884,342.613 56.806 C 344.697 56.738,344.978 56.653,347.152 55.417 C 347.721 55.094,348.102 55.004,348.841 55.021 C 349.969 55.047,350.045 55.010,350.394 54.274 C 350.610 53.818,350.784 53.690,351.299 53.608 C 352.235 53.459,352.760 52.842,352.526 52.169 C 352.332 51.613,352.661 51.261,353.029 51.629 C 353.573 52.173,354.859 51.119,354.717 50.245 C 354.626 49.687,354.642 49.667,355.150 49.667 C 356.183 49.667,356.852 48.675,356.404 47.810 C 356.108 47.235,356.106 47.238,356.862 46.860 C 357.528 46.528,357.711 45.783,357.221 45.401 C 356.932 45.176,356.943 45.140,357.431 44.707 C 358.296 43.938,358.092 42.765,357.106 42.842 C 356.449 42.894,356.390 42.843,356.468 42.306 C 356.584 41.516,355.437 40.909,355.050 41.556 C 354.731 42.090,354.277 42.155,353.879 41.725 C 353.272 41.070,352.508 41.426,352.503 42.365 C 352.499 42.951,352.268 43.075,351.702 42.793 C 350.889 42.387,350.007 43.107,350.003 44.181 C 349.999 44.944,349.883 45.050,349.486 44.653 C 348.886 44.053,347.334 45.015,347.553 45.852 C 347.672 46.307,347.525 46.667,347.219 46.667 C 346.421 46.667,345.639 48.406,346.190 48.957 C 346.332 49.099,346.269 49.278,345.940 49.669 C 345.686 49.972,345.500 50.396,345.500 50.676 C 345.500 52.750,343.403 54.718,340.955 54.941 C 339.750 55.051,339.508 54.907,338.769 53.637 C 337.961 52.248,336.251 50.797,332.592 48.396 C 330.406 46.962,329.772 46.467,328.618 45.288 C 327.582 44.229,327.591 44.297,328.373 43.400 C 328.591 43.150,328.665 42.840,328.631 42.316 C 328.589 41.667,328.626 41.577,328.957 41.530 C 329.405 41.467,329.833 40.904,329.833 40.380 C 329.833 40.007,329.966 39.933,330.535 39.990 C 331.029 40.040,331.487 39.678,331.630 39.127 C 331.730 38.743,331.975 38.474,332.509 38.163 C 333.035 37.856,333.304 37.564,333.436 37.157 C 333.561 36.771,333.827 36.466,334.248 36.226 C 335.499 35.514,335.471 35.048,334.100 33.718 C 333.358 32.998,332.837 32.291,332.381 31.384 C 331.601 29.836,331.466 29.793,329.417 30.429 M337.199 32.312 C 337.527 32.957,337.598 33.667,337.333 33.667 C 337.242 33.667,337.167 33.484,337.167 33.260 C 337.167 33.036,337.091 32.806,336.999 32.749 C 336.810 32.632,336.167 31.361,336.167 31.104 C 336.167 30.841,336.866 31.660,337.199 32.312 M293.219 45.801 C 294.022 46.639,293.767 47.634,292.620 48.140 C 290.217 49.202,289.633 49.151,290.434 47.949 C 290.690 47.564,291.077 46.917,291.295 46.509 C 291.977 45.236,292.495 45.045,293.219 45.801 M324.960 57.870 C 326.009 58.581,327.286 60.213,328.030 61.794 L 328.687 63.189 328.343 63.771 C 327.801 64.689,328.206 66.000,329.031 66.000 C 329.400 66.000,329.406 66.120,329.076 66.909 C 328.763 67.658,328.872 68.056,329.558 68.672 L 330.083 69.143 329.788 69.697 C 329.332 70.549,328.551 71.000,327.531 71.000 C 325.344 71.000,324.683 68.191,326.145 65.111 C 327.487 62.282,327.123 60.811,324.426 58.174 C 323.265 57.038,323.518 56.893,324.960 57.870 M326.500 63.078 C 326.500 63.121,326.179 63.665,325.787 64.286 C 324.463 66.388,324.127 68.366,324.833 69.915 C 325.230 70.788,325.198 70.919,324.617 70.773 C 322.385 70.213,322.678 66.519,325.156 63.971 C 325.963 63.141,326.500 62.784,326.500 63.078 M331.701 69.958 C 331.964 70.509,332.569 70.640,333.008 70.243 C 333.374 69.912,333.831 70.027,333.839 70.453 C 333.852 71.230,334.595 71.592,335.297 71.164 L 335.804 70.856 336.236 71.508 C 336.841 72.423,337.397 72.531,338.028 71.856 C 338.637 71.205,338.805 71.202,339.025 71.834 C 339.341 72.740,340.663 72.730,340.980 71.819 L 341.160 71.302 341.725 71.651 C 342.704 72.256,343.878 71.948,344.193 71.004 C 344.255 70.818,344.370 70.827,344.827 71.055 C 345.771 71.526,346.666 71.219,346.981 70.317 C 347.266 69.498,347.777 69.969,348.366 71.594 C 351.254 79.565,351.371 80.110,350.504 81.519 C 350.232 81.962,349.959 82.533,349.898 82.787 C 349.837 83.042,349.718 83.338,349.634 83.445 C 349.538 83.567,349.557 83.762,349.683 83.964 C 349.981 84.442,349.546 86.271,348.984 86.903 C 348.430 87.526,347.912 87.419,348.172 86.735 C 348.520 85.820,348.642 85.000,348.429 85.000 C 348.318 85.000,348.059 85.544,347.853 86.208 C 347.647 86.873,347.334 87.735,347.158 88.125 L 346.838 88.833 326.484 88.833 C 307.165 88.833,306.137 88.819,306.251 88.542 C 306.712 87.427,306.788 85.821,306.416 85.106 C 306.084 84.471,306.102 84.117,306.487 83.643 L 306.807 83.250 307.279 83.688 C 307.538 83.928,307.862 84.085,308.000 84.037 C 308.597 83.825,309.331 83.093,309.513 82.528 C 309.804 81.626,309.740 81.670,313.381 79.869 C 318.334 77.419,318.541 77.333,319.467 77.333 C 321.212 77.333,321.658 76.201,320.579 74.508 C 319.769 73.236,319.896 72.000,320.837 72.000 C 321.491 72.000,322.041 71.326,321.934 70.655 C 321.783 69.707,322.123 69.759,323.166 70.843 C 325.332 73.095,330.158 72.634,330.996 70.094 C 331.232 69.381,331.409 69.347,331.701 69.958 M353.232 84.264 C 353.619 85.272,353.055 86.158,351.509 86.968 C 350.062 87.727,349.812 87.594,350.235 86.287 C 350.361 85.900,350.511 85.376,350.569 85.122 C 350.807 84.082,352.903 83.406,353.232 84.264 M304.875 84.899 C 305.069 85.046,305.167 85.348,305.167 85.799 C 305.167 87.243,304.661 87.718,302.916 87.908 C 302.367 87.968,301.756 88.051,301.559 88.091 C 300.906 88.225,300.951 87.689,301.652 86.995 C 302.011 86.640,302.517 86.064,302.777 85.716 C 303.585 84.635,304.208 84.392,304.875 84.899 M43.705 99.687 C 49.600 100.599,52.811 103.042,53.925 107.463 C 54.405 109.368,54.639 109.243,50.500 109.297 C 46.283 109.353,46.232 109.345,46.076 108.625 C 45.575 106.303,43.839 105.256,40.500 105.261 C 37.062 105.268,35.416 106.497,35.990 108.628 C 36.429 110.258,38.070 110.986,44.000 112.178 C 45.548 112.489,46.572 112.749,48.667 113.364 C 48.987 113.458,49.325 113.593,49.417 113.664 C 49.508 113.735,49.771 113.850,50.000 113.919 C 52.721 114.748,54.854 117.856,54.860 121.001 C 54.873 127.127,50.703 130.811,42.956 131.517 C 34.160 132.320,27.622 128.516,26.905 122.177 C 26.748 120.796,26.625 120.839,30.719 120.836 C 34.660 120.833,34.767 120.860,34.925 121.913 C 35.692 127.026,46.618 127.178,46.541 122.075 C 46.510 119.989,44.595 118.982,38.000 117.581 C 29.258 115.724,26.154 112.200,27.985 106.206 C 29.472 101.340,36.241 98.533,43.705 99.687 M127.073 99.680 C 133.917 100.901,138.472 105.054,138.566 110.159 L 138.583 111.083 134.688 111.128 C 130.377 111.178,130.438 111.191,130.158 110.106 C 128.769 104.717,121.277 104.278,118.558 109.426 C 116.855 112.650,116.800 118.331,118.441 121.555 C 121.250 127.074,129.305 126.043,130.582 120.000 C 130.798 118.976,130.697 119.000,134.859 119.000 C 139.263 119.000,138.987 118.873,138.606 120.719 C 135.700 134.771,114.236 135.447,109.820 121.626 C 107.185 113.377,110.539 104.187,117.333 101.042 C 120.061 99.779,124.304 99.186,127.073 99.680 M103.917 126.167 L 103.917 130.583 99.512 130.628 C 96.099 130.662,95.076 130.625,94.972 130.461 C 94.781 130.159,94.799 121.935,94.991 121.742 C 95.087 121.645,96.868 121.616,99.533 121.667 L 103.917 121.750 103.917 126.167 " stroke="none" fill="#191918" fill-rule="evenodd"></path><path id="path1" d="M0.000 44.417 L 0.000 88.833 29.823 88.833 C 50.447 88.833,59.680 88.887,59.755 89.008 C 59.830 89.129,59.927 89.129,60.071 89.010 C 60.365 88.766,142.937 88.763,143.088 89.007 C 143.163 89.129,143.264 89.126,143.419 88.998 C 143.570 88.873,144.993 88.820,147.862 88.834 C 150.184 88.845,185.370 88.849,226.053 88.844 L 300.023 88.833 299.970 88.458 C 299.927 88.157,299.794 88.073,299.292 88.032 C 298.521 87.968,298.486 87.681,299.179 87.099 C 299.565 86.773,299.763 86.706,299.985 86.825 C 300.469 87.084,300.920 86.852,301.699 85.944 C 302.716 84.758,302.743 84.694,302.407 84.323 C 302.126 84.012,302.130 84.000,302.520 84.000 C 303.146 84.000,303.625 83.567,304.093 82.579 C 304.616 81.473,305.575 80.623,306.721 80.248 C 308.629 79.625,312.451 77.476,314.727 75.747 C 315.505 75.157,315.533 75.107,315.416 74.524 C 315.349 74.190,315.302 73.682,315.312 73.394 C 315.337 72.674,314.959 72.377,314.398 72.677 C 313.744 73.027,313.100 72.607,313.032 71.787 C 312.973 71.080,312.668 70.846,311.836 70.870 C 310.712 70.902,310.004 69.167,310.833 68.417 C 311.332 67.966,311.238 67.626,310.501 67.205 C 309.151 66.434,309.532 64.978,311.227 64.430 C 311.461 64.354,311.509 64.237,311.420 63.956 C 311.100 62.942,311.129 62.730,311.665 62.194 C 312.284 61.575,312.871 61.388,313.416 61.636 C 313.964 61.886,314.240 61.524,314.094 60.747 C 313.928 59.862,314.740 59.070,315.633 59.249 C 317.000 59.523,317.222 59.470,317.353 58.837 C 317.419 58.519,317.645 58.119,317.856 57.948 C 318.240 57.637,318.316 57.636,320.000 57.918 C 320.670 58.031,322.417 57.481,322.417 57.158 C 322.417 57.047,322.192 56.834,321.917 56.684 C 319.392 55.308,318.539 54.809,317.167 53.903 C 316.296 53.329,315.154 52.447,314.630 51.945 C 313.485 50.847,313.363 50.796,312.853 51.192 C 311.990 51.861,310.833 51.395,310.833 50.380 C 310.833 49.985,310.135 49.814,309.923 50.157 C 309.396 51.008,307.539 48.861,307.853 47.764 C 308.142 46.759,308.046 46.570,306.352 44.803 C 305.445 43.857,304.516 42.857,304.287 42.581 C 303.571 41.718,302.437 41.424,301.328 41.812 C 298.961 42.641,297.354 43.477,297.069 44.027 C 296.578 44.977,295.742 45.246,295.174 44.637 L 294.836 44.273 294.418 44.666 C 293.910 45.142,293.899 45.327,294.345 45.893 C 295.919 47.895,294.791 49.303,290.917 50.171 L 289.250 50.545 288.632 50.147 C 287.819 49.625,288.133 48.333,289.074 48.333 C 289.346 48.333,290.445 46.723,290.694 45.959 C 290.791 45.661,291.048 45.266,291.264 45.081 C 291.480 44.896,291.886 44.273,292.166 43.696 C 292.728 42.534,293.143 42.262,294.743 42.001 C 295.732 41.840,297.343 41.352,297.575 41.143 C 297.662 41.064,297.826 41.000,297.940 41.000 C 298.054 41.000,298.808 40.685,299.615 40.301 C 302.480 38.937,303.163 38.796,304.384 39.319 C 305.156 39.650,307.195 41.283,309.020 43.032 C 309.542 43.533,309.884 43.475,310.012 42.864 C 310.137 42.273,310.755 41.500,311.103 41.500 C 311.455 41.500,311.543 41.173,311.330 40.659 C 311.029 39.933,311.255 39.101,311.923 38.471 C 312.409 38.013,312.500 37.813,312.500 37.204 C 312.500 36.095,313.386 35.370,314.583 35.497 C 314.767 35.517,315.005 35.605,315.113 35.694 C 315.347 35.885,315.667 35.385,315.667 34.828 C 315.667 33.709,316.810 33.048,317.850 33.567 C 318.602 33.942,318.708 33.911,319.083 33.212 C 319.551 32.341,320.062 32.116,320.823 32.446 C 321.922 32.922,322.000 32.919,322.003 32.394 C 322.007 31.485,322.734 31.114,323.962 31.395 C 324.546 31.528,324.721 31.515,324.838 31.326 C 324.936 31.167,325.461 31.055,326.450 30.982 C 327.257 30.922,328.610 30.672,329.458 30.425 C 331.557 29.814,331.596 29.827,332.381 31.384 C 332.837 32.290,333.359 32.998,334.100 33.718 C 335.471 35.048,335.499 35.514,334.248 36.226 C 333.827 36.466,333.561 36.771,333.436 37.157 C 333.304 37.564,333.035 37.856,332.509 38.163 C 331.975 38.474,331.730 38.743,331.630 39.127 C 331.487 39.678,331.029 40.040,330.535 39.990 C 329.966 39.933,329.833 40.007,329.833 40.380 C 329.833 40.904,329.405 41.467,328.957 41.530 C 328.626 41.577,328.589 41.667,328.631 42.316 C 328.665 42.840,328.591 43.150,328.373 43.400 C 327.591 44.297,327.582 44.229,328.618 45.288 C 329.772 46.467,330.406 46.962,332.592 48.396 C 336.251 50.797,337.961 52.248,338.769 53.637 C 339.508 54.907,339.750 55.051,340.955 54.941 C 343.403 54.718,345.500 52.750,345.500 50.676 C 345.500 50.396,345.686 49.972,345.940 49.669 C 346.269 49.278,346.332 49.099,346.190 48.957 C 345.639 48.406,346.421 46.667,347.219 46.667 C 347.525 46.667,347.672 46.307,347.553 45.852 C 347.334 45.015,348.886 44.053,349.486 44.653 C 349.883 45.050,349.999 44.944,350.003 44.181 C 350.007 43.107,350.889 42.387,351.702 42.793 C 352.268 43.075,352.499 42.951,352.503 42.365 C 352.508 41.426,353.272 41.070,353.879 41.725 C 354.277 42.155,354.731 42.090,355.050 41.556 C 355.437 40.909,356.584 41.516,356.468 42.306 C 356.390 42.843,356.449 42.894,357.106 42.842 C 358.092 42.765,358.296 43.938,357.431 44.707 C 356.943 45.140,356.932 45.176,357.221 45.401 C 357.711 45.783,357.528 46.528,356.862 46.860 C 356.106 47.238,356.108 47.235,356.404 47.810 C 356.852 48.675,356.183 49.667,355.150 49.667 C 354.642 49.667,354.626 49.687,354.717 50.245 C 354.859 51.119,353.573 52.173,353.029 51.629 C 352.661 51.261,352.332 51.613,352.526 52.169 C 352.760 52.842,352.235 53.459,351.299 53.608 C 350.784 53.690,350.610 53.818,350.394 54.274 C 350.045 55.010,349.969 55.047,348.841 55.021 C 348.102 55.004,347.721 55.094,347.152 55.417 C 344.978 56.653,344.697 56.738,342.613 56.806 C 340.177 56.884,340.195 56.853,341.342 59.052 C 342.311 60.911,342.521 61.148,343.099 61.038 C 343.867 60.891,344.667 61.595,344.667 62.418 C 344.667 63.231,344.909 63.388,345.709 63.095 C 346.425 62.832,347.083 63.568,347.083 64.629 L 347.083 65.417 347.704 65.468 C 348.046 65.496,348.584 65.397,348.900 65.247 C 350.144 64.657,351.287 65.886,350.850 67.345 C 350.481 68.574,353.274 77.946,354.456 79.448 C 355.489 80.761,355.148 82.845,354.015 82.138 C 352.998 81.502,352.851 82.870,353.833 83.833 C 355.080 85.056,354.620 87.111,352.917 87.923 C 352.338 88.199,351.833 88.573,351.833 88.727 C 351.833 88.785,362.671 88.833,375.917 88.833 L 400.000 88.833 400.000 44.417 L 400.000 0.000 361.583 0.000 C 325.720 0.000,321.449 0.047,323.792 0.417 C 324.643 0.551,325.448 0.974,325.919 1.533 C 326.398 2.102,326.531 2.110,327.080 1.601 C 328.321 0.451,330.443 1.370,331.368 3.458 C 331.616 4.017,331.770 4.167,332.096 4.167 C 333.321 4.167,334.440 5.238,334.530 6.497 C 334.573 7.098,334.664 7.282,335.000 7.449 C 336.686 8.284,337.356 10.144,336.576 11.821 L 336.155 12.725 336.794 13.404 C 337.603 14.264,338.000 15.144,338.000 16.075 C 338.000 17.150,338.110 17.347,338.608 17.157 C 339.376 16.865,340.577 16.971,341.185 17.383 C 342.143 18.033,342.248 18.029,342.770 17.329 C 343.994 15.689,345.334 15.621,346.697 17.130 L 347.286 17.782 347.895 17.539 C 349.457 16.916,350.626 17.700,351.255 19.791 L 351.594 20.917 352.461 20.945 C 354.059 20.998,355.083 22.106,355.083 23.783 C 355.083 24.352,354.995 24.905,354.888 25.012 C 354.622 25.278,354.789 25.638,355.444 26.213 C 356.481 27.123,356.517 28.693,355.532 29.995 C 355.152 30.496,355.100 30.709,355.140 31.600 C 355.185 32.587,355.163 32.649,354.588 33.191 C 354.017 33.731,353.999 33.781,354.188 34.323 C 354.657 35.669,352.705 37.543,351.250 37.143 C 350.553 36.951,350.304 37.071,349.889 37.801 C 349.316 38.806,347.619 39.064,347.117 38.223 C 346.956 37.953,346.397 37.929,346.239 38.184 C 345.507 39.369,343.147 39.084,342.413 37.722 C 342.253 37.424,341.843 36.988,341.503 36.752 C 340.899 36.333,340.448 35.723,340.509 35.407 C 340.649 34.684,340.458 33.989,340.000 33.556 C 339.118 32.724,339.510 30.833,340.564 30.833 C 341.027 30.833,341.322 30.592,341.843 29.789 C 342.774 28.354,345.042 28.604,345.923 30.241 C 346.305 30.950,346.135 31.387,345.443 31.469 C 344.443 31.589,344.327 32.677,345.267 33.125 C 346.835 33.873,349.000 31.922,349.000 29.761 C 349.000 26.965,346.567 25.107,342.944 25.137 C 340.888 25.154,340.693 25.361,341.404 26.778 C 342.330 28.625,342.156 29.003,340.657 28.406 C 339.186 27.821,338.496 27.917,337.679 28.820 C 337.083 29.478,335.982 29.798,335.806 29.363 C 335.723 29.160,333.656 28.165,333.348 28.180 C 333.176 28.188,333.156 28.222,333.292 28.277 C 333.406 28.323,333.500 28.466,333.500 28.594 C 333.500 28.722,333.706 28.876,333.958 28.936 C 334.210 28.997,334.492 29.100,334.583 29.167 C 334.675 29.233,334.963 29.338,335.223 29.400 C 335.483 29.463,335.803 29.604,335.936 29.715 C 337.501 31.027,337.863 31.716,337.924 33.500 C 337.947 34.188,338.015 34.900,338.074 35.083 C 338.400 36.084,337.757 36.046,336.857 35.012 C 336.373 34.455,335.903 34.000,335.812 34.000 C 335.093 34.000,333.525 32.232,332.588 30.366 C 331.811 28.817,331.553 28.686,330.046 29.074 C 326.461 29.996,326.481 29.994,324.707 29.642 C 322.821 29.268,322.272 29.317,320.752 29.999 C 319.013 30.779,317.595 30.493,317.463 29.335 C 317.421 28.960,317.488 28.916,318.250 28.813 C 320.011 28.576,321.833 27.862,321.833 27.409 C 321.833 26.912,321.307 26.871,319.750 27.247 C 318.556 27.535,315.793 27.576,315.281 27.313 C 314.626 26.977,314.000 26.279,314.000 25.885 C 314.000 25.411,313.400 25.350,313.065 25.792 C 312.207 26.922,313.902 28.500,315.973 28.500 C 316.263 28.500,316.500 28.575,316.500 28.667 C 316.500 28.923,314.286 28.866,313.633 28.594 C 311.775 27.817,311.247 25.733,312.661 24.754 C 313.634 24.079,314.417 24.199,314.417 25.023 C 314.417 26.261,314.981 26.542,317.283 26.451 C 319.365 26.368,320.917 26.029,320.917 25.656 C 320.917 25.373,319.466 25.426,318.399 25.747 C 317.547 26.003,317.424 25.906,317.765 25.249 C 318.238 24.336,317.884 24.303,316.974 25.176 C 315.702 26.395,314.841 25.928,315.801 24.539 C 316.862 23.004,316.700 23.105,318.322 22.975 C 319.142 22.910,319.986 22.768,320.198 22.660 C 321.220 22.139,322.496 21.196,322.830 20.715 C 323.278 20.068,324.102 19.558,324.954 19.400 C 326.342 19.142,326.966 18.742,327.189 17.968 C 327.429 17.132,327.476 14.826,327.268 14.042 C 327.122 13.490,327.787 13.187,328.085 13.669 C 328.270 13.969,328.500 13.662,328.500 13.115 C 328.500 11.171,326.641 7.832,325.325 7.414 C 325.146 7.357,325.000 7.241,325.000 7.155 C 325.000 6.971,325.947 6.943,326.028 7.125 C 326.058 7.194,326.406 7.469,326.800 7.737 C 328.713 9.036,329.998 11.775,330.003 14.563 C 330.006 16.322,330.151 16.733,330.562 16.147 C 331.033 15.474,330.818 12.658,330.156 10.833 C 329.414 8.787,326.968 6.667,325.350 6.667 C 325.009 6.667,324.585 6.557,324.407 6.422 C 323.454 5.701,321.069 6.275,319.810 7.528 L 318.917 8.417 318.939 9.879 C 318.966 11.612,319.365 12.425,320.274 12.598 C 321.643 12.858,321.990 11.602,320.743 10.900 C 319.527 10.215,321.467 8.382,322.883 8.876 C 323.481 9.084,324.490 10.075,324.519 10.482 C 324.530 10.629,324.525 10.879,324.509 11.037 C 324.494 11.195,324.672 11.652,324.907 12.052 C 325.586 13.211,325.322 14.477,324.312 14.902 C 323.997 15.034,323.669 15.353,323.514 15.676 C 323.156 16.421,322.281 16.894,321.510 16.758 C 321.184 16.701,320.635 16.611,320.292 16.559 C 319.580 16.452,319.604 16.487,319.860 15.925 C 320.127 15.338,320.568 15.394,321.118 16.083 C 321.780 16.913,322.277 16.697,322.592 15.441 C 322.665 15.151,322.936 14.899,323.436 14.657 C 324.482 14.151,324.595 13.848,323.999 13.151 C 323.637 12.728,323.512 12.408,323.507 11.893 C 323.497 10.848,323.017 10.412,321.953 10.481 C 321.502 10.510,321.404 10.985,321.792 11.257 C 323.198 12.242,321.622 14.183,319.849 13.652 C 318.563 13.266,317.533 10.400,318.417 9.667 C 318.750 9.390,318.733 9.055,318.375 8.847 C 318.215 8.753,318.169 8.675,318.274 8.672 C 318.378 8.669,318.511 8.479,318.569 8.250 C 318.677 7.817,319.689 6.667,319.960 6.667 C 320.045 6.667,320.251 6.517,320.417 6.333 C 320.583 6.150,320.813 6.000,320.929 6.000 C 321.044 6.000,321.170 5.907,321.208 5.793 C 321.378 5.284,325.466 5.527,326.688 6.119 C 329.884 7.668,331.480 10.241,331.624 14.077 C 331.706 16.267,331.735 16.422,332.102 16.711 C 332.317 16.880,332.640 17.352,332.820 17.759 C 333.000 18.167,333.217 18.500,333.301 18.500 C 333.386 18.500,333.634 18.675,333.852 18.888 C 335.133 20.139,337.073 17.795,336.504 15.683 C 336.305 14.944,335.597 14.000,335.242 14.000 C 334.384 14.000,334.224 12.771,335.013 12.243 C 336.521 11.234,335.800 9.068,333.793 8.576 C 333.022 8.387,332.787 7.875,333.156 7.186 C 333.654 6.255,332.524 5.296,331.414 5.707 C 330.549 6.028,330.167 5.767,330.167 4.857 C 330.167 2.837,328.486 1.911,326.951 3.083 C 326.005 3.805,325.729 3.813,325.367 3.129 C 324.299 1.108,322.886 0.978,322.074 2.827 C 321.633 3.831,321.071 3.927,320.071 3.171 C 319.010 2.368,318.167 2.653,318.167 3.816 C 318.167 4.556,317.927 4.941,317.379 5.077 C 316.558 5.282,316.309 5.639,316.429 6.438 C 316.535 7.147,316.534 7.149,315.699 7.663 C 314.363 8.485,314.217 9.534,315.325 10.353 C 315.924 10.796,315.950 11.108,315.493 12.311 C 315.133 13.258,315.278 13.861,315.925 14.110 C 316.300 14.254,316.031 14.500,315.499 14.500 C 314.510 14.500,313.829 13.048,314.178 11.683 C 314.382 10.888,314.374 10.834,313.945 10.273 C 312.957 8.977,313.043 7.952,314.228 6.881 C 314.809 6.356,314.894 6.191,314.856 5.663 C 314.807 4.984,315.465 4.002,315.973 3.997 C 316.456 3.993,316.692 3.731,316.740 3.148 C 316.765 2.838,316.797 2.493,316.810 2.382 C 316.837 2.146,318.064 1.402,318.672 1.252 C 318.970 1.179,319.273 1.271,319.706 1.564 L 320.318 1.979 321.242 1.069 C 321.751 0.569,322.167 0.124,322.167 0.080 C 322.167 0.036,249.679 0.000,161.083 0.000 L 0.000 0.000 0.000 44.417 M317.704 14.375 C 317.838 14.581,317.996 14.947,318.055 15.187 C 318.114 15.427,318.463 15.896,318.832 16.229 C 319.507 16.839,319.471 16.937,318.600 16.857 C 318.195 16.820,317.592 16.168,317.143 15.281 C 316.949 14.897,316.678 14.518,316.542 14.439 C 316.334 14.318,316.331 14.271,316.522 14.150 C 316.930 13.891,317.456 13.992,317.704 14.375 M328.600 16.100 C 328.190 17.169,328.548 18.545,329.369 19.053 C 330.220 19.580,330.444 19.253,330.163 17.898 C 329.902 16.642,328.854 15.437,328.600 16.100 M331.068 17.562 C 330.883 18.045,331.072 18.417,331.502 18.417 C 331.852 18.417,331.917 18.338,331.917 17.917 C 331.917 17.358,331.253 17.080,331.068 17.562 M344.298 17.862 C 344.049 17.951,343.681 18.300,343.479 18.637 C 342.600 20.108,341.950 20.370,341.315 19.510 C 340.584 18.523,339.166 18.412,337.492 19.212 C 335.908 19.970,335.871 20.026,336.335 20.956 C 337.112 22.511,338.550 23.677,339.092 23.191 C 339.450 22.871,341.351 22.501,342.594 22.510 C 349.867 22.562,354.295 29.647,349.797 34.035 C 349.253 34.566,348.673 35.000,348.508 35.000 C 348.343 35.000,348.123 35.102,348.019 35.227 C 347.764 35.534,346.175 35.714,345.879 35.469 C 345.574 35.216,345.895 35.006,346.593 35.003 C 346.874 35.001,347.249 34.890,347.426 34.755 C 347.604 34.621,347.865 34.508,348.005 34.505 C 348.145 34.502,348.380 34.369,348.527 34.208 C 348.675 34.048,348.940 33.804,349.116 33.667 C 350.360 32.697,351.187 30.399,350.768 29.072 C 350.621 28.604,350.500 28.090,350.500 27.930 C 350.500 26.684,348.394 24.905,345.532 23.735 C 344.046 23.126,339.370 23.396,339.098 24.105 C 338.927 24.550,339.644 24.613,341.034 24.276 C 342.638 23.886,344.746 24.176,346.627 25.045 C 351.778 27.422,350.856 34.447,345.381 34.540 C 343.235 34.576,342.327 32.268,344.125 31.347 C 344.882 30.959,344.312 30.000,343.325 30.000 C 342.844 30.000,342.167 30.616,342.167 31.052 C 342.167 31.509,341.523 32.042,341.100 31.936 C 339.833 31.618,339.685 33.038,340.919 33.672 C 341.482 33.962,341.642 34.508,341.258 34.827 C 340.616 35.360,341.064 35.952,342.170 36.030 L 342.917 36.083 342.968 36.794 C 343.062 38.089,344.260 38.367,345.258 37.325 C 345.799 36.760,346.126 36.714,346.687 37.125 C 347.598 37.791,347.755 37.827,348.301 37.495 C 348.666 37.273,348.848 37.007,348.929 36.578 C 349.068 35.837,349.253 35.758,350.387 35.953 C 351.838 36.203,352.440 35.708,352.132 34.518 C 352.047 34.187,351.939 33.764,351.893 33.578 C 351.829 33.322,351.965 33.136,352.446 32.822 L 353.083 32.405 353.030 31.381 C 352.980 30.417,353.007 30.330,353.491 29.899 C 354.612 28.900,354.506 27.650,353.239 26.941 C 352.442 26.496,352.328 25.966,352.811 24.952 C 353.466 23.576,352.498 22.208,350.994 22.386 C 349.832 22.524,349.500 22.230,349.500 21.066 C 349.500 19.057,348.187 18.225,346.899 19.418 C 346.216 20.051,345.682 19.830,345.441 18.813 C 345.259 18.043,344.818 17.676,344.298 17.862 M331.220 19.410 C 330.744 19.617,330.559 20.323,330.978 20.337 C 331.036 20.339,331.571 20.787,332.167 21.333 C 333.389 22.454,333.535 22.505,333.807 21.909 C 334.547 20.285,332.890 18.684,331.220 19.410 M328.093 19.463 C 327.798 19.758,328.131 20.225,329.222 21.046 C 330.924 22.327,332.347 23.676,333.371 24.976 C 333.850 25.585,334.286 26.121,334.340 26.167 C 334.394 26.212,334.691 26.625,334.998 27.083 C 335.951 28.501,336.269 28.831,336.479 28.621 C 336.829 28.271,336.562 27.789,334.428 24.917 C 333.000 22.995,329.920 20.000,329.371 20.000 C 329.281 20.000,329.121 19.896,329.015 19.768 C 328.799 19.507,328.235 19.321,328.093 19.463 M334.552 21.106 C 334.423 21.442,334.691 21.898,335.060 21.971 C 335.402 22.038,335.702 21.342,335.460 21.042 C 335.221 20.745,334.675 20.784,334.552 21.106 M325.244 21.157 C 324.702 21.379,324.410 21.810,324.643 22.043 C 324.793 22.193,324.971 22.168,325.402 21.936 C 326.123 21.548,326.459 21.661,327.452 22.626 C 328.085 23.242,328.260 23.341,328.305 23.109 C 328.488 22.160,326.261 20.739,325.244 21.157 M325.113 22.565 C 324.963 22.956,325.477 23.500,325.996 23.500 C 326.599 23.500,327.024 23.340,326.910 23.156 C 326.862 23.078,326.709 23.058,326.570 23.112 C 326.430 23.165,326.151 23.061,325.950 22.879 C 325.397 22.382,325.210 22.312,325.113 22.565 M334.324 22.807 L 333.945 23.114 334.514 23.885 C 334.827 24.309,335.218 24.845,335.383 25.078 C 335.963 25.897,336.833 25.041,336.833 23.652 C 336.833 22.776,335.088 22.188,334.324 22.807 M337.500 24.500 C 337.138 25.176,337.729 25.742,338.224 25.195 C 338.586 24.796,338.573 24.551,338.178 24.339 C 337.743 24.107,337.706 24.116,337.500 24.500 M336.611 26.111 C 335.967 26.755,337.094 27.676,338.378 27.557 C 339.045 27.494,339.681 27.534,340.068 27.662 C 341.210 28.039,340.848 27.110,339.568 26.378 C 338.926 26.011,336.895 25.828,336.611 26.111 M292.754 26.768 C 293.211 27.067,294.073 27.021,294.964 26.650 C 295.473 26.439,295.571 26.455,296.334 26.885 C 296.921 27.215,297.547 27.391,298.523 27.503 C 301.915 27.890,305.180 28.444,306.445 28.848 C 307.491 29.183,308.532 30.616,309.340 32.833 C 309.557 33.429,310.089 34.640,310.523 35.525 C 311.510 37.540,311.496 37.448,310.939 38.279 C 310.590 38.800,310.472 39.176,310.472 39.773 C 310.472 40.666,310.008 41.500,309.511 41.500 C 308.959 41.500,308.028 39.123,307.006 35.107 C 305.937 30.905,306.049 30.982,299.525 29.955 C 298.374 29.774,298.260 29.785,297.658 30.131 C 296.533 30.779,295.750 30.622,296.034 29.807 C 296.461 28.583,295.587 28.832,294.761 30.170 C 293.525 32.174,293.083 32.168,289.792 30.109 C 288.604 29.366,288.410 29.133,288.488 28.540 C 288.503 28.425,288.320 28.075,288.081 27.762 C 287.578 27.102,287.782 26.835,288.691 26.968 C 289.125 27.032,289.186 27.101,289.120 27.450 C 289.013 28.009,289.578 28.202,290.918 28.065 C 292.142 27.939,292.384 27.825,292.237 27.444 C 292.096 27.076,291.364 26.901,290.977 27.142 C 290.619 27.366,289.271 27.403,289.405 27.185 C 289.456 27.104,289.741 26.997,290.040 26.948 C 290.339 26.900,290.846 26.787,291.167 26.697 C 292.023 26.458,292.300 26.470,292.754 26.768 M291.500 28.615 C 290.813 28.839,290.138 29.059,290.001 29.105 C 289.543 29.257,290.969 30.140,292.562 30.691 L 293.206 30.915 293.770 30.263 C 294.450 29.476,294.467 29.241,293.885 28.634 C 293.355 28.081,293.142 28.079,291.500 28.615 M336.167 31.104 C 336.167 31.361,336.810 32.632,336.999 32.749 C 337.091 32.806,337.167 33.036,337.167 33.260 C 337.167 33.484,337.242 33.667,337.333 33.667 C 337.598 33.667,337.527 32.957,337.199 32.312 C 336.866 31.660,336.167 30.841,336.167 31.104 M291.971 45.556 C 291.817 45.673,291.513 46.102,291.295 46.509 C 291.077 46.917,290.690 47.564,290.434 47.949 C 290.178 48.333,290.013 48.719,290.067 48.806 C 290.298 49.181,293.185 48.088,293.495 47.509 C 294.090 46.397,292.889 44.858,291.971 45.556 M323.667 57.304 C 323.667 57.374,324.009 57.765,324.426 58.174 C 327.123 60.811,327.487 62.282,326.145 65.111 C 324.683 68.191,325.344 71.000,327.531 71.000 C 328.551 71.000,329.332 70.549,329.788 69.697 L 330.083 69.143 329.558 68.672 C 328.872 68.056,328.763 67.658,329.076 66.909 C 329.406 66.120,329.400 66.000,329.031 66.000 C 328.206 66.000,327.801 64.689,328.343 63.771 L 328.687 63.189 328.030 61.794 C 327.286 60.213,326.009 58.581,324.960 57.870 C 324.165 57.332,323.667 57.114,323.667 57.304 M325.156 63.971 C 322.678 66.519,322.385 70.213,324.617 70.773 C 325.198 70.919,325.230 70.788,324.833 69.915 C 324.127 68.366,324.463 66.388,325.787 64.286 C 326.851 62.600,326.607 62.478,325.156 63.971 M330.996 70.094 C 330.158 72.634,325.332 73.095,323.166 70.843 C 322.123 69.759,321.783 69.707,321.934 70.655 C 322.041 71.326,321.491 72.000,320.837 72.000 C 319.896 72.000,319.769 73.236,320.579 74.508 C 321.658 76.201,321.212 77.333,319.467 77.333 C 318.541 77.333,318.334 77.419,313.381 79.869 C 309.740 81.670,309.804 81.626,309.513 82.528 C 309.331 83.093,308.597 83.825,308.000 84.037 C 307.862 84.085,307.538 83.928,307.279 83.688 L 306.807 83.250 306.487 83.643 C 306.102 84.117,306.084 84.471,306.416 85.106 C 306.788 85.821,306.712 87.427,306.251 88.542 C 306.137 88.819,307.165 88.833,326.484 88.833 L 346.838 88.833 347.158 88.125 C 347.334 87.735,347.647 86.873,347.853 86.208 C 348.059 85.544,348.318 85.000,348.429 85.000 C 348.642 85.000,348.520 85.820,348.172 86.735 C 347.912 87.419,348.430 87.526,348.984 86.903 C 349.546 86.271,349.981 84.442,349.683 83.964 C 349.557 83.762,349.538 83.567,349.634 83.445 C 349.718 83.338,349.837 83.042,349.898 82.787 C 349.959 82.533,350.232 81.962,350.504 81.519 C 351.371 80.110,351.254 79.565,348.366 71.594 C 347.777 69.969,347.266 69.498,346.981 70.317 C 346.666 71.219,345.771 71.526,344.827 71.055 C 344.370 70.827,344.255 70.818,344.193 71.004 C 343.878 71.948,342.704 72.256,341.725 71.651 L 341.160 71.302 340.980 71.819 C 340.663 72.730,339.341 72.740,339.025 71.834 C 338.805 71.202,338.637 71.205,338.028 71.856 C 337.397 72.531,336.841 72.423,336.236 71.508 L 335.804 70.856 335.297 71.164 C 334.595 71.592,333.852 71.230,333.839 70.453 C 333.831 70.027,333.374 69.912,333.008 70.243 C 332.569 70.640,331.964 70.509,331.701 69.958 C 331.409 69.347,331.232 69.381,330.996 70.094 M350.958 84.331 C 350.802 84.513,350.627 84.869,350.569 85.122 C 350.511 85.376,350.361 85.900,350.235 86.287 C 349.812 87.594,350.062 87.727,351.509 86.968 C 353.055 86.158,353.619 85.272,353.232 84.264 C 353.072 83.845,351.329 83.897,350.958 84.331 M303.500 84.880 C 303.362 84.992,303.037 85.368,302.777 85.716 C 302.517 86.064,302.011 86.640,301.652 86.995 C 300.951 87.689,300.906 88.225,301.559 88.091 C 301.756 88.051,302.367 87.968,302.916 87.908 C 304.661 87.718,305.167 87.243,305.167 85.799 C 305.167 84.814,304.222 84.294,303.500 84.880 M27.542 109.417 C 27.544 109.783,27.578 109.914,27.618 109.706 C 27.658 109.499,27.656 109.199,27.615 109.040 C 27.573 108.880,27.540 109.050,27.542 109.417 M88.372 111.000 C 88.372 111.321,88.406 111.452,88.448 111.292 C 88.490 111.131,88.490 110.869,88.448 110.708 C 88.406 110.548,88.372 110.679,88.372 111.000 M29.051 120.958 C 30.041 120.987,31.616 120.987,32.551 120.958 C 33.485 120.928,32.675 120.904,30.750 120.904 C 28.825 120.904,28.060 120.928,29.051 120.958 " stroke="none" fill="#fbdc04" fill-rule="evenodd"></path><path id="path2" d="M60.078 89.039 C 60.034 89.155,60.017 98.550,60.040 109.917 L 60.083 130.583 63.988 130.628 C 67.001 130.663,67.924 130.625,68.027 130.461 C 68.101 130.345,68.163 126.350,68.164 121.583 C 68.168 111.330,68.283 110.216,69.531 108.380 C 71.639 105.278,77.378 105.227,79.046 108.295 C 79.956 109.970,80.000 110.531,80.002 120.635 C 80.004 125.740,80.050 130.085,80.105 130.292 L 80.206 130.667 84.262 130.667 L 88.318 130.667 88.425 130.096 C 88.659 128.849,88.380 109.325,88.108 107.917 C 87.065 102.517,84.596 100.258,79.064 99.644 C 75.036 99.197,70.506 101.108,69.071 103.860 C 68.917 104.156,68.742 104.278,68.545 104.227 C 68.268 104.154,68.250 103.680,68.250 96.533 L 68.250 88.917 64.204 88.872 C 61.058 88.837,60.141 88.874,60.078 89.039 M143.447 88.942 C 143.307 89.082,143.294 130.037,143.434 130.403 C 143.588 130.802,151.412 130.802,151.566 130.403 C 151.621 130.258,151.667 126.264,151.667 121.528 C 151.667 111.336,151.783 110.215,153.031 108.380 C 154.919 105.602,160.135 105.186,162.129 107.654 C 163.419 109.252,163.500 110.010,163.502 120.635 C 163.504 125.740,163.550 130.085,163.605 130.292 L 163.706 130.667 167.762 130.667 L 171.818 130.667 171.925 130.096 C 172.159 128.849,171.880 109.325,171.608 107.917 C 170.571 102.549,168.138 100.301,162.667 99.656 C 158.644 99.182,154.004 101.125,152.555 103.890 C 152.414 104.160,152.236 104.277,152.044 104.227 C 151.768 104.154,151.750 103.672,151.750 96.533 L 151.750 88.917 147.656 88.872 C 145.404 88.848,143.510 88.879,143.447 88.942 M37.568 99.752 C 35.783 99.996,34.036 100.414,33.383 100.755 C 33.126 100.889,32.864 100.998,32.801 100.999 C 31.958 101.006,29.436 103.243,28.706 104.630 C 25.943 109.879,28.246 114.842,34.250 116.579 C 34.800 116.738,35.582 116.973,35.988 117.101 C 36.394 117.229,36.863 117.333,37.031 117.333 C 38.102 117.333,43.360 118.813,44.661 119.481 C 47.788 121.085,47.045 124.631,43.382 125.585 C 39.425 126.616,34.887 124.580,34.834 121.750 C 34.820 121.001,34.748 120.987,30.835 120.986 C 26.555 120.986,26.742 120.913,26.985 122.478 C 27.814 127.819,31.887 130.852,39.082 131.485 C 48.681 132.331,55.227 127.753,54.789 120.500 C 54.517 115.985,51.532 113.717,43.833 112.176 C 37.597 110.928,36.026 110.122,35.877 108.095 C 35.733 106.142,37.182 105.250,40.500 105.250 C 43.830 105.250,45.466 106.139,46.016 108.246 C 46.297 109.325,46.330 109.333,50.276 109.333 C 54.344 109.333,54.251 109.369,53.988 107.913 C 52.897 101.893,46.218 98.574,37.568 99.752 M122.167 99.754 C 120.249 99.983,117.739 100.740,116.679 101.409 C 116.309 101.642,115.949 101.837,115.878 101.841 C 115.569 101.859,113.339 103.866,112.543 104.843 C 110.178 107.746,109.086 111.193,109.084 115.750 C 109.081 126.036,116.225 132.587,126.167 131.414 C 132.931 130.617,137.283 126.847,138.585 120.661 C 138.951 118.921,139.129 119.000,134.839 119.000 C 130.805 119.000,130.825 118.995,130.584 120.167 C 129.390 125.980,121.026 127.004,118.467 121.650 C 115.606 115.665,117.595 107.555,122.287 106.079 C 125.614 105.033,130.145 107.268,130.165 109.967 C 130.166 110.086,130.281 110.404,130.421 110.675 L 130.675 111.167 134.576 111.167 C 139.077 111.167,138.821 111.278,138.496 109.466 C 137.291 102.766,130.544 98.753,122.167 99.754 M95.036 121.864 C 94.821 122.079,94.736 129.535,94.939 130.294 L 95.040 130.672 99.478 130.628 L 103.917 130.583 103.917 126.167 L 103.917 121.750 99.578 121.706 C 96.343 121.673,95.187 121.713,95.036 121.864 M0.000 133.167 C 0.000 133.278,66.778 133.333,200.000 133.333 C 333.222 133.333,400.000 133.278,400.000 133.167 C 400.000 133.056,333.222 133.000,200.000 133.000 C 66.778 133.000,0.000 133.056,0.000 133.167 " stroke="none" fill="#f1f1f1" fill-rule="evenodd"></path></g></svg>