<?xml version="1.0" encoding="utf-8"?>
<!-- Generator: Adobe Illustrator 25.4.1, SVG Export Plug-In . SVG Version: 6.00 Build 0)  -->
<svg version="1.1" id="svg" xmlns="http://www.w3.org/2000/svg" xmlns:xlink="http://www.w3.org/1999/xlink" x="0px" y="0px"
	 viewBox="0 0 400 155" style="enable-background:new 0 0 400 155;" xml:space="preserve">
<style type="text/css">
	.st0{fill-rule:evenodd;clip-rule:evenodd;}
	.st1{fill-rule:evenodd;clip-rule:evenodd;fill:#E40614;}
	.st2{fill-rule:evenodd;clip-rule:evenodd;fill:#6F6F6F;}
</style>
<path class="st0" d="M198.9,12.2c-2.9,0.8-2.9,0.5-2.9,36c0,29.4,0.1,33.8,1,34.4c1.1,0.9,8.6,1.1,10.7,0.3l1.4-0.4V48.2
	c0-29.4-0.1-34.4-0.9-35.1C207.3,12.2,201,11.7,198.9,12.2"/>
<path class="st0" d="M330,14c-0.3,0.1-1.3,0.4-2.2,0.5c-3.9,0.9-4.3,10.9-0.3,12c3.6,1,8.6,0.4,10.1-1.2c2.3-2.3,2-9.5-0.5-10.5
	C335.7,14.2,330.6,13.6,330,14"/>
<path class="st0" d="M106.3,34.3c-11,3.5-14.6,15.1-7.1,23.1c1.5,1.6,8,5,12,6.4c3.3,1.1,6.7,4.2,6.7,6.1c0,5.4-9.8,7-17.4,3.1
	c-4.4-2.2-5.2-1.9-5.2,2.4c0,5.7,1.6,7.1,9.7,8.6c14.1,2.4,24.8-3.9,24.8-14.8c0-7.5-3.2-11.1-13.2-15c-8.8-3.5-11.2-6.6-7.9-10
	c2.7-2.7,9.4-2.6,15,0.2c2.9,1.4,3.5,0.8,3.5-3.3c0-4.4-0.7-5.3-5.4-6.7C116.6,32.7,111.2,32.7,106.3,34.3"/>
<path class="st0" d="M221.4,35.3c-0.2,0.4-0.2,9-0.1,19l0.2,18.1l1.9,3.7c5.2,10.3,19.7,11.3,28.5,1.9l1.5-1.6l0.3,3.3
	c0.3,3.8,2.6,4.9,7.9,3.8l2.4-0.5V58.7V34.6l-4.7-0.2c-2.6-0.1-5.4,0-6.1,0.2l-1.4,0.3v15.9v15.9l-3,2.9c-4.1,3.7-6.7,4.6-10.1,3.3
	c-4.7-1.9-5.2-3.6-5.2-22c0-18.1,0.7-16.5-6.9-16.5C223,34.4,221.7,34.6,221.4,35.3"/>
<path class="st0" d="M272.1,35.1c-0.9,1.1-0.8,1.8,7.3,26c8.1,24.6,6.6,22.3,15.7,22.3c9.2,0,7.7,1.9,15-20.2
	c10.4-31.3,10.2-29,2.5-29c-5.8,0-6.1,0.2-7.2,4.2c-0.8,2.7-3.6,12.3-8.3,27.2c-1.2,4.1-1.8,5-2.1,4.1c-0.2-0.7-2.7-8.7-5.6-17.8
	c-2.9-9.1-5.5-16.8-5.8-17.1C282.4,34,272.8,34.3,272.1,35.1"/>
<path class="st0" d="M326.3,35c-1.5,0.9-1.8,46.3-0.1,47.6c1.3,1.1,9.9,1.1,11.2,0c1.3-1.1,1.5-46.3,0.2-47.5
	C336.8,34.2,327.9,34,326.3,35"/>
<path class="st0" d="M153.8,34.3c-13.6,3.9-20.2,19.6-15,36.1c6.1,19.9,38.6,18.8,45.5-1.4C192.1,46.3,175.9,27.9,153.8,34.3z
	 M171.1,68.5c-3.5,8-15.2,8-19.2-0.1c-6.6-13.4,3.5-30.2,14.7-24.5C172.6,47.1,174.9,59.9,171.1,68.5z"/>
<path class="st1" d="M45.1,54.8c-39.3,9.8-44.8,64.1-8.4,82.8c28.3,14.7,64.8-7,64.8-38.6c0-0.7-1.4-0.9-6.5-0.9h-6.5l-0.3,3.9
	c-2.9,25-31.5,27.1-31.5,27.1c-34.1,0-44.4-45.3-13.7-60.2c0,0,17-8.1,33.2,3.5l3.3,2.4l4.4-4.4l4.4-4.4L85,63.3
	c-8.7-7.2-22-11.1-34.5-9.9"/>
<path class="st0" d="M384.8,37.9c-4.5-4.3-16-5.9-25-3.5c-9.2,2.4-11.7,5.4-9.7,11c0.8,2.1,2.3,2.1,6.3,0.1
	c11.2-5.7,20.1-2.7,20.1,6.7v2.3h-4.8c-16.7,0-24,4.8-24,15.5c0,13.2,15.7,19.4,27.5,10.9c3.2-2.3,3.1-2.3,3.4,0.1
	c0.2,2.4,3.3,3.4,7.7,2.5l2.5-0.5V64.4C388.9,43.9,388.4,41.3,384.8,37.9z M376.6,66.1c0,8.8-13.1,13.6-16.2,5.9
	c-2.5-6,2.3-10,12.4-10.1h3.9v4.2H376.6z"/>
<path class="st2" d="M49.6,79.8c-14.1,6.1-17,23.3-5.5,33.5c11,9.7,29.6,2.9,31.9-11.6l0.4-2.6l0,0c-11.8,0-20.7,0-20.7,0
	c11-13.9,13.8-15.9,13.8-15.9C62.9,77.9,54.2,77.8,49.6,79.8"/>
<g>
	<path d="M134.8,111.7h-9.5v8.9h10.6v2.6h-13.8V98.6h13.3v2.6h-10.1v7.8h9.5V111.7z"/>
	<path d="M140.1,123.2V98.6h3.5l7.9,12.4c1.9,2.9,3.3,5.5,4.4,8h0.1c-0.3-3.3-0.3-6.3-0.3-10.1V98.6h3v24.6h-3.2l-7.8-12.4
		c-1.8-2.7-3.4-5.5-4.6-8.2H143c0.2,3.1,0.2,6,0.2,10.1v10.5L140.1,123.2L140.1,123.2z"/>
	<path d="M176.7,111.7h-9.5v8.9h10.6v2.6H164V98.6h13.3v2.6h-10.1v7.8h9.5V111.7z"/>
	<path d="M181.9,99c1.6-0.3,3.8-0.5,6-0.5c3.4,0,5.6,0.7,7.1,2c1.2,1.1,2,2.7,2,4.6c0,3.3-2.1,5.4-4.6,6.3v0.1
		c1.9,0.7,3.1,2.4,3.6,4.9c0.8,3.4,1.4,5.8,1.9,6.7h-3.3c-0.4-0.7-1-2.9-1.6-5.8c-0.8-3.4-2.1-4.6-4.9-4.7h-3v10.6h-3.2L181.9,99
		L181.9,99z M185.1,110.2h3.3c3.4,0,5.5-1.9,5.5-4.6c0-3.2-2.3-4.5-5.6-4.6c-1.5,0-2.6,0.1-3.2,0.3V110.2z"/>
	<path d="M220.3,122.1c-1.4,0.5-4.2,1.3-7.6,1.3c-3.7,0-6.8-1-9.2-3.3c-2.1-2.1-3.4-5.3-3.4-9.1c0-7.3,5-12.6,13.3-12.6
		c2.9,0,5,0.7,6.1,1.1l-0.8,2.6c-1.3-0.5-3-1.1-5.4-1.1c-5.9,0-9.9,3.7-9.9,9.9c0,6.3,3.7,9.9,9.4,9.9c2.1,0,3.5-0.3,4.2-0.7v-7.3
		h-4.9v-2.5h8.1L220.3,122.1L220.3,122.1z"/>
	<path d="M230.6,123.2v-10.4l-7.8-14.1h3.6l3.5,6.8c1,1.9,1.6,3.4,2.4,5h0.1c0.7-1.6,1.5-3.2,2.5-5l3.5-6.8h3.6l-8.2,14v10.4h-3.3
		V123.2z"/>
	<path d="M252.1,119.4c1.4,0.9,3.5,1.6,5.7,1.6c3.3,0,5.2-1.8,5.2-4.2c0-2.3-1.3-3.6-4.6-4.8c-3.9-1.4-6.5-3.5-6.5-6.9
		c0-3.8,3.2-6.7,7.9-6.7c2.5,0,4.3,0.5,5.4,1.2l-0.9,2.6c-0.8-0.4-2.4-1.2-4.6-1.2c-3.4,0-4.6,2-4.6,3.7c0,2.3,1.5,3.4,4.8,4.7
		c4.2,1.6,6.3,3.6,6.3,7.2c0,3.7-2.9,7-8.6,7c-2.4,0-4.9-0.7-6.3-1.5L252.1,119.4z"/>
	<path d="M283.1,111.7h-9.5v8.9h10.6v2.6h-13.8V98.6h13.3v2.6h-10.1v7.8h9.5V111.7z"/>
	<path d="M288.4,99c1.6-0.3,3.8-0.5,6-0.5c3.4,0,5.6,0.7,7.1,2c1.2,1.1,2,2.7,2,4.6c0,3.3-2.1,5.4-4.6,6.3v0.1
		c1.9,0.7,3.1,2.4,3.6,4.9c0.8,3.4,1.4,5.8,1.9,6.7h-3.3c-0.4-0.7-1-2.9-1.6-5.8c-0.8-3.4-2.1-4.6-4.9-4.7h-3v10.6h-3.2L288.4,99
		L288.4,99z M291.5,110.2h3.3c3.4,0,5.5-1.9,5.5-4.6c0-3.2-2.3-4.5-5.6-4.6c-1.5,0-2.6,0.1-3.2,0.3V110.2z"/>
	<path d="M313.8,123.2l-8-24.6h3.4l3.8,12.1c1.1,3.3,2,6.3,2.6,9.2h0.1c0.7-2.9,1.8-5.9,2.9-9.1l4.2-12.1h3.4l-8.8,24.6h-3.6V123.2z
		"/>
	<path d="M331.9,98.6v24.6h-3.2V98.6H331.9z"/>
	<path d="M354.6,122.3c-1.2,0.5-3.5,1.2-6.5,1.2c-6.9,0-12.1-4.4-12.1-12.4c0-7.7,5.2-12.8,12.8-12.8c3.1,0,4.9,0.7,5.8,1.1L354,102
		c-1.2-0.5-3-1-4.9-1c-5.7,0-9.5,3.7-9.5,10.1c0,6,3.5,9.9,9.4,9.9c2,0,3.8-0.4,5.2-1L354.6,122.3z"/>
	<path d="M371.3,111.7h-9.5v8.9h10.6v2.6h-13.8V98.6h13.3v2.6h-10.1v7.8h9.5V111.7z"/>
	<path d="M376,119.4c1.4,0.9,3.5,1.6,5.7,1.6c3.3,0,5.2-1.8,5.2-4.2c0-2.3-1.3-3.6-4.6-4.8c-3.9-1.4-6.5-3.5-6.5-6.9
		c0-3.8,3.2-6.7,7.9-6.7c2.5,0,4.3,0.5,5.4,1.2l-0.9,2.6c-0.8-0.4-2.4-1.2-4.6-1.2c-3.4,0-4.6,2-4.6,3.7c0,2.3,1.5,3.4,4.8,4.7
		c4.2,1.6,6.3,3.6,6.3,7.2c0,3.7-2.9,7-8.6,7c-2.4,0-4.9-0.7-6.3-1.5L376,119.4z"/>
</g>
</svg>
