<?xml version="1.0" encoding="utf-8"?>
<!-- Generator: Adobe Illustrator 25.4.1, SVG Export Plug-In . SVG Version: 6.00 Build 0)  -->
<svg version="1.1" id="Ebene_1" xmlns="http://www.w3.org/2000/svg" xmlns:xlink="http://www.w3.org/1999/xlink" x="0px" y="0px"
	 viewBox="0 0 209 141.7" style="enable-background:new 0 0 209 141.7;" xml:space="preserve">
<style type="text/css">
	.st0{fill:#C6C6C6;}
	.st1{fill:#006FB9;}
</style>
<rect x="69.1" y="16.1" class="st0" width="3.7" height="3.7"/>
<rect x="76.5" y="16.1" class="st0" width="3.7" height="3.7"/>
<rect x="61.7" y="16.1" class="st0" width="3.7" height="3.7"/>
<polygon class="st1" points="61.7,19.7 61.7,126.7 24.9,126.7 24.9,16.1 43.3,16.1 43.3,19.7 47,19.7 47,16.1 50.7,16.1 50.7,19.7 
	54.3,19.7 54.3,16.1 58,16.1 58,19.7 "/>
<path d="M113.9,20c-1.2-0.5-2.6-0.8-3.9-0.8c-1.3,0-3,0.6-3,2.7c0,3.3,8.5,1.9,8.5,8.4c0,4.2-3.3,5.8-7.2,5.8c-2.1,0-3-0.3-5-0.7
	l0.4-3.5c1.3,0.7,2.8,1.2,4.4,1.2c1.5,0,3.4-0.8,3.4-2.5c0-3.7-8.5-2.2-8.5-8.6c0-4.3,3.3-5.9,6.7-5.9c1.7,0,3.2,0.2,4.6,0.7
	L113.9,20z"/>
<path d="M120.4,24.2h-2.7v-2.7h2.7v-2.9l3.7-1.2v4h3.3v2.7h-3.3v6.6c0,1.2,0.3,2.4,1.7,2.4c0.7,0,1.3-0.1,1.7-0.4l0.1,2.9
	c-0.8,0.2-1.6,0.3-2.7,0.3c-2.9,0-4.5-1.8-4.5-4.6V24.2z"/>
<path d="M136.1,33.4c1.1,0,2-0.5,2.6-1.3c0.6-0.8,0.8-1.8,0.8-2.9h-1.6c-1.7,0-4.1,0.3-4.1,2.5C133.8,32.8,134.8,33.4,136.1,33.4
	 M131.8,22.2c1.4-0.7,3.4-1.1,5-1.1c4.3,0,6.1,1.8,6.1,6V29c0,1.4,0,2.5,0.1,3.6c0,1.1,0.1,2.1,0.2,3.2h-3.3
	c-0.1-0.7-0.1-1.7-0.2-2.1h-0.1c-0.9,1.6-2.7,2.5-4.4,2.5c-2.5,0-5-1.5-5-4.2c0-2.1,1-3.4,2.4-4.1c1.4-0.7,3.2-0.8,4.8-0.8h2
	c0-2.3-1-3.1-3.2-3.1c-1.6,0-3.2,0.6-4.4,1.5L131.8,22.2z"/>
<path d="M154,33.2c2.5,0,3.3-2.6,3.3-4.6c0-2-0.9-4.5-3.3-4.5c-2.4,0-3.1,2.6-3.1,4.5C150.9,30.5,151.6,33.2,154,33.2 M157.4,34.1
	L157.4,34.1c-1.2,1.4-2.7,1.9-4.4,1.9c-4.4,0-6-3.6-6-7.5c0-3.9,1.6-7.4,6-7.4c1.9,0,3.2,0.6,4.3,2h0.1V15h3.7v20.7h-3.6V34.1z"/>
<path d="M166.9,24.2h-2.7v-2.7h2.7v-2.9l3.7-1.2v4h3.3v2.7h-3.3v6.6c0,1.2,0.3,2.4,1.7,2.4c0.7,0,1.3-0.1,1.7-0.4l0.1,2.9
	c-0.8,0.2-1.6,0.3-2.7,0.3c-2.9,0-4.5-1.8-4.5-4.6V24.2z"/>
<polygon points="103.5,38.9 107.4,38.9 107.4,55.2 114.9,55.2 114.9,58.2 103.5,58.2 "/>
<path d="M130.7,58.2h-3.5v-1.9h-0.1c-1.1,1.4-2.7,2.3-4.7,2.3c-3.4,0-4.8-2.4-4.8-5.6v-9h3.7v7.6c0,1.7,0,4.1,2.4,4.1
	c2.7,0,3.3-2.9,3.3-4.7v-7h3.7V58.2z"/>
<polygon points="134.8,44 146.1,44 146.1,47 139,55.4 146.4,55.4 146.4,58.2 134.5,58.2 134.5,55.2 141.8,46.9 134.8,46.9 "/>
<path d="M159.1,49.7c-0.1-1.8-0.9-3.3-3-3.3c-2.1,0-3.1,1.4-3.3,3.3H159.1z M161.6,57.4c-1.4,0.7-2.9,1.1-4.9,1.1
	c-4.7,0-7.4-2.7-7.4-7.4c0-4.1,2.2-7.5,6.6-7.5c5.3,0,6.8,3.6,6.8,8.6h-9.8c0.2,2.3,1.8,3.6,4.1,3.6c1.8,0,3.3-0.7,4.7-1.4V57.4z"/>
<path d="M166.6,44h3.3v3.2h0.1c0.2-1.3,1.7-3.6,3.9-3.6c0.4,0,0.8,0,1.1,0.1v3.7c-0.3-0.2-1-0.3-1.7-0.3c-3,0-3,3.8-3,5.8v5.2h-3.7
	V44z"/>
<path d="M178.7,44h3.5v1.9h0.1c1.2-1.6,2.7-2.3,4.7-2.3c3.4,0,4.8,2.4,4.8,5.6v9h-3.7v-7.6c0-1.7,0-4.1-2.4-4.1
	c-2.7,0-3.3,2.9-3.3,4.7v7h-3.7V44z"/>
</svg>
