<?xml version="1.0" encoding="utf-8"?>
<!-- Generator: Adobe Illustrator 25.4.1, SVG Export Plug-In . SVG Version: 6.00 Build 0)  -->
<svg version="1.1" id="svg" xmlns="http://www.w3.org/2000/svg" xmlns:xlink="http://www.w3.org/1999/xlink" x="0px" y="0px"
	 viewBox="0 0 400 296.9" style="enable-background:new 0 0 400 296.9;" xml:space="preserve">
<style type="text/css">
	.st0{fill-rule:evenodd;clip-rule:evenodd;fill:#1B3157;}
</style>
<g id="svgg">
	<path id="path0" class="st0" d="M298.9,2.3c-7,0.4-13.7,0.8-15.1,0.9c-2.7,0.1-3.8,3.6-1.3,4.4c6.4,2,6-0.3,6,36.9
		c0,35.2,0.2,34-4.2,35.6c-2.5,1-2.9,1.4-2.9,3v1.9h19.1h19.1V83c0-1.6-0.4-2.1-2.1-2.8c-3.7-1.5-3.9-2.3-4.2-12
		c-0.2-7.7-0.1-9,0.8-9.8c1.3-1.1,0.4-2.5,8.5,13.1l6.9,13.5h17.3h17.3l0.1-1.6c0.1-1.8-0.7-2.6-3.3-3.2c-4.1-1-7.6-5.5-25.3-33
		l-3.7-5.7l4.7-3.5c5.4-4.1,9.3-6,13.4-6.5c5.7-0.8,5.8-0.8,5.8-2.9v-1.9h-15.2h-15.2v1.9c0,1.6,0.3,2,2.1,2.3
		c6.8,1.4,6.5,2.4-5,13.9l-9.4,9.4l0-26.4c0-20.8-0.2-26.4-0.8-26.3C311.9,1.5,305.8,1.9,298.9,2.3 M52.5,6.4
		C39.2,9.9,32.2,21.2,35,35.1c2.2,11.2,8.6,17.1,25.6,23.6c13.2,5.1,17.3,10,13.9,16.6c-7.1,13.8-26.9,4.4-33.7-16
		c-1.8-5.4-2.4-6-5.5-5.2l-1.6,0.4v15.9v15.9H36c1.2,0,2.3-0.3,2.3-0.6c0-2.1,3.9-2.7,8.6-1.4c30.8,8.5,54.8-5.5,51-29.8
		c-1.7-10.9-6.2-14.8-25.3-22.2C57.7,26.4,52.8,20.7,57,13.8c6-9.9,23.8-2.7,29.3,11.9l2.1,5.5h2.8H94l0-5.7c0-3.1-0.2-9-0.4-13
		l-0.4-7.3h-1.7c-1,0-2.3,0.6-2.9,1.3c-1.4,1.6-2.3,1.6-10,0C70.5,4.8,58.5,4.8,52.5,6.4 M118.8,12.5l-9.2,5.2v4.4v4.4h-4.2h-4.2
		v2.3v2.3h4.2h4.2l0.2,22.2c0.3,29.4,1.1,31.3,14.2,32.6c7.3,0.7,25.2-3,25.2-5.2c0-2.1-0.7-2.6-3-2.4c-9.2,1.1-11.3-4.6-11.3-29.7
		V31.1h5.8h5.8v-2.3v-2.3h-5.8h-5.8v-9.7V7.1l-3.4,0.1C128.4,7.2,127,7.9,118.8,12.5 M175.7,26c-19.4,2.5-28.5,14.5-26.1,34.7
		c2,17.2,12.7,25.1,33.9,25.1c23.1-0.1,33.7-9.6,33.7-30.1C217.2,33.5,202,22.6,175.7,26 M244.8,26c-15.5,2.4-23.2,10.2-25.1,25
		c-2.7,21.9,9.3,35,31.9,34.9c13.6-0.1,31.1-8.6,27-13.1c-1.1-1.3-1.2-1.2-5.5,1.3c-16.6,9.7-26.7,2.1-26.9-20.5
		c-0.2-18.5,4-26.1,12.8-23c3.7,1.3,4.2,2.4,2.5,6.3c-5.1,11.8,11.8,19.2,17.4,7.7C284.7,32.1,267.1,22.4,244.8,26 M187.2,31.5
		c5.9,4.1,6.6,42.4,0.8,47.9c-3.7,3.5-9,2.2-11.3-2.8c-2-4.3-2.1-36.1-0.2-41.1C178.4,30.7,183.4,28.8,187.2,31.5 M275.2,91.1
		c-7.5,0.4-13.8,0.8-14.1,0.9c-1.9,0.2-0.3,4.5,1.8,4.9c4,0.8,4.8,3,4.8,13.5l0,8.9l-3-1.9c-10.6-6.7-28-2.8-34.7,7.7l-1.8,2.9v-2.4
		c0-12.5-17.4-15.8-26-4.9l-2.5,3.2V119v-4.9l-9.6,0.4c-5.3,0.2-12.3,0.5-15.6,0.7l-6,0.4v1.9c0,1.6,0.3,2,2.6,2.6
		c4.6,1.2,4.6,1.1,4.4,24.9l-0.2,21.2l-1.8,1.6c-2.3,2-3.4,2-3.9,0c-0.3-1.3-0.9-1.6-3.1-1.8c-5.2-0.4-5.4-1.1-5.7-21.2
		c-0.4-19.5-0.8-21.3-5.7-25.4c-6.8-5.6-30.5-7-42.5-2.5c-12.4,4.6-10.4,20.4,2.5,20.4c8.9,0,14.1-6.8,10-12.9
		c-2.4-3.7-1.2-5.5,3.8-5.5c6.2,0,7.9,2.6,7.9,12.5v6.8l-7.1,1.1c-22.7,3.5-29.2,7.9-29.3,19.7c-0.1,16.3,18.1,21.2,34.7,9.3
		c1.8-1.3,3.4-2.1,3.5-1.7c3.2,9,14.2,10.9,26.9,4.5l3-1.5l0.2,2.1l0.2,2.1h19.8h19.8v-1.9c0-1.6-0.3-2-1.9-2.3
		c-5.8-1.2-5.8-1.5-5.8-21.4c0-17.9,0.5-20.7,4.5-25c3.4-3.6,7.2-2.9,5.2,0.9c-4.8,9.3,6.6,17.3,14.5,10.2l1.5-1.4l-0.5,2.6
		c-1.8,8.6,0,21.1,4,27.9c7.3,12.4,27.3,15.6,36,5.7l1.9-2.2l0.2,3.4l0.2,3.4l15.7,0.2l15.7,0.2v-2.2c0-2-0.2-2.2-2.2-2.6
		c-4.9-0.9-4.6,1.4-4.8-41l-0.2-37.9l-1.8,0.1C289.6,90.3,282.7,90.7,275.2,91.1 M30.4,95.5c-0.9,3-0.5,3.7,3.2,5.3
		c4.2,1.9,4,1.6,20.4,32.8l5,9.5v10c0,13.5-0.5,14.6-6.7,15.8c-2.1,0.4-2.3,0.6-2.3,2.6v2.2l23.3,0l23.3,0v-2.2c0-2-0.2-2.2-2.8-2.6
		c-6.2-1-7-2.9-7-17.2l0-10l8.5-16.2c10.9-20.9,14.7-25.7,20.5-25.7c0.5,0,0.8-0.8,0.8-2.3v-2.3h-14.6H87.5v2.2
		c0,1.9,0.3,2.2,1.8,2.5c5,1,6.7,4.9,5.1,11.5c-1,3.9-9.4,22.6-10.1,22.6c-0.6,0-8.9-19.1-10.1-23c-1.8-6.1,0.1-10.1,5-11.1
		c1.5-0.3,1.8-0.7,1.8-2.5v-2.2H55.8C41.8,95.3,30.4,95.4,30.4,95.5 M320.6,114.5c-11.4,2.6-15.8,7.3-16.4,17.4
		c-0.6,11.7,4.3,17.8,19.4,23.9c13.2,5.4,16.2,9.8,9,13.5c-7,3.6-16.2-1.8-22.9-13.7c-3.3-5.8-6.6-6.7-6.5-1.9
		c0.3,23.4,0.1,22.7,4.8,19.2c1.7-1.3,2-1.3,5.6-0.3c24.8,6.4,42.4-1.1,42.4-18c0-9.9-3.3-13.5-18-19.8
		c-13.9-5.9-16.8-8.4-15.3-12.8c2.7-7.8,17.3-3.1,22.7,7.3c1.7,3.2,2.1,3.6,4,3.6l2.1,0l-0.1-9.1c-0.1-10-0.2-10.3-3.5-8.7
		c-2,0.9-2.8,1-6.7,0.3C336.7,114.6,322.9,114,320.6,114.5 M263.7,120.9c3.9,2.7,5.9,34.7,2.5,41.4c-4.3,8.7-12.5,4.3-14-7.4
		C249.2,131,254.7,114.7,263.7,120.9 M136.8,151.6c0,8.1-0.1,9.2-1.3,10.7c-2.9,3.7-8.9,1.5-9.9-3.6c-1.8-8.9,2.5-16.1,9.5-16.1h1.8
		V151.6 M125.9,187c-5.8,0.7-8.3,3-3.1,3c4.3,0,4.3,0.2,4.1,18.4l-0.2,16.3l-2.3,0.7c-5.2,1.7-3.2,2.7,5.3,2.6
		c8-0.1,11.3-1.1,6.5-2.1c-3.8-0.8-5.5-7.3-2.6-10.3c2.1-2.2,1.8-2.4,8.3,5.5l5.9,7.1l4.7-0.2c4.9-0.2,7-1.8,2.9-2.3
		c-1.7-0.2-7.5-5.8-13.3-13l-2.3-2.8l2.5-2.1c4.3-3.6,7.5-5.6,9.8-6c5.3-1,2.4-2.2-5.3-2.2c-6.2,0-7.5,0.2-7.5,1c0,0.5,0.6,1,1.3,1
		c2.9,0,2.2,2-2.7,6.9c-2.6,2.6-5,4.8-5.3,4.8c-0.3,0-0.5-6-0.5-13.3c0-7.3-0.2-13.3-0.5-13.5C131.5,186.5,128.9,186.6,125.9,187
		 M6.3,187.8c-1,1-0.3,2.2,1.4,2.2c4.6,0,4.7,0.3,4.7,17.5c0,17.3-0.2,18.1-4.6,18.1c-1.5,0-1.9,0.3-1.8,1.1
		c0.3,1.7,24.7,1.7,29.2-0.1c10.4-4,9.2-19.6-1.5-19.9c-0.5,0,0.1-0.6,1.4-1.3c7.6-4,8-13.5,0.6-16.7
		C33.3,187.7,7.2,186.9,6.3,187.8 M187.1,188.6c-4.1,2.7-5.6,7.8-3.8,12.9c0.7,2.1,0.8,3,0.3,3.2c-10.3,3.4-12.6,17.5-3.7,22.1
		c4.4,2.2,11.1,2.2,16.1-0.1l3.6-1.7l1.5,1.6c1.9,2,15.8,2.2,15.8,0.2c0-0.7-1-1.1-3.3-1.4c-7.2-0.9-10.2-3.8-7.7-7.5
		c0.9-1.4,2.5-4.3,3.5-6.5c2-4.3,2.5-4.8,5.5-5.4c1.1-0.2,2-0.8,2-1.4c0-0.8-1.7-1-9.6-1.1c-8.9-0.2-9.6-0.1-9.4,1
		c0.2,0.8,1,1.3,3.1,1.5c3.3,0.4,4.6,1.8,4.6,5c0,2.3-2.3,7.9-3.2,7.9c-1.3,0-12.4-14.5-11.6-15.2c0.1-0.1,1.7-1,3.5-1.9
		c6.3-3.2,8.2-8.9,4.3-12.8C196,186.9,190.3,186.5,187.1,188.6 M234.5,187.9c-0.1,0.3-0.3,3.5-0.3,7.1c-0.1,8.3,1.4,9.2,4.1,2.5
		c2.4-6,4.7-7.6,9.8-7l2.2,0.3v16.4c0,18,0.1,17.6-4.1,18.4c-1.2,0.2-2.1,0.8-2.1,1.4c0,0.8,1.6,1,9.2,1c8.7,0.1,9.2,0,9.2-1.1
		c0-0.9-0.5-1.2-1.8-1.2c-4.3,0-4.2,0.5-4.1-19.6l0.1-15.4h3.6c4.5,0,6,1.3,8.1,7c2.5,6.8,3.9,5.7,3.9-3.1v-7.1l-18.8,0
		C243.2,187.4,234.6,187.6,234.5,187.9 M194.6,190.4c2.8,2.5,1.1,8.3-3.2,10.7l-1.9,1.1l-1.2-2.7C185.2,192.7,189.8,186,194.6,190.4
		 M380.9,191.8c-1.8,1.8-2.4,3-2.3,4.3c0.2,3.4,0.1,3.5-3.3,3.5c-2.4,0-3.2,0.2-3.2,1c0,0.7,0.8,1,3.2,1h3.2v10.7
		c0,15.8,2.8,19.2,12,14.8c3.8-1.8,3.7-2.9-0.3-2.4c-5.6,0.7-5.9,0.2-5.9-12.5v-10.6h4.1c3.2,0,4.1-0.2,4.1-1c0-0.8-0.9-1-4.1-1
		h-4.1v-4.8C384.4,189,384,188.7,380.9,191.8 M31,191.5c8,4.2,2.4,14-8,14h-4.2v-7.5v-7.5H24C27.3,190.6,29.9,190.9,31,191.5
		 M55.1,200.4c-4.6,2.4-5.8,7.4-2,8.6c3,1,5.9-3.2,3.8-5.4c-1.3-1.3,0.5-2.4,4-2.4c3.8,0,5.1,1.1,5.8,4.6c0.7,4,0.3,4.6-3.1,5
		c-10.9,1.4-14,3.6-14,9.5c0,7.9,8.4,10.7,15.3,5.2l2.3-1.8l0.7,1.9c1.2,3.2,5.6,3.4,9.1,0.3c2.2-1.9,1.7-2.7-0.8-1.6
		c-3,1.4-3.6-0.3-3.6-10.3c0-12.3-1.4-14.4-10-14.9C58.8,199,57.6,199.2,55.1,200.4 M84.1,199.5c-3.7,0.3-4.2,1.8-0.8,2.4
		c3.2,0.6,3.6,1.8,3.6,12.2c0,10.3-0.2,10.8-3.3,11.5c-5.5,1.1-2.4,2.3,5.9,2.3c8.6,0,11-0.9,6-2.2c-3.1-0.8-3.3-1.5-3.3-9.4
		c0-10.2,2.2-13.9,8.3-13.9c6.1,0,7.3,2.2,7.3,13.5c0,8.7-0.4,9.8-3.4,9.8c-1.4,0-1.9,0.3-1.9,1.3c0,1.2,0.4,1.3,8.1,1.2
		c7.3-0.1,8.1-0.3,8.1-1.3c0-0.8-0.5-1.2-1.9-1.2c-2.9,0-3.2-1-3.4-10.7c-0.2-7.6-0.4-9.4-1.5-11.2c-3.3-5.5-13.1-6.2-18.3-1.3
		l-1.5,1.4v-2.4C92.1,198.8,92.4,198.8,84.1,199.5 M279.3,199.5c-3.3,0.3-4.6,2.1-1.5,2.1c3.9,0,4.4,1.3,4.3,12.3
		c-0.1,10.8-0.3,11.5-3.5,11.8c-1.2,0.1-1.8,0.5-1.8,1.2c0,1,1,1.1,8.4,1.1c7.9,0,8.4-0.1,8.4-1.2c0-0.9-0.5-1.3-1.7-1.3
		c-3.8,0-4.2-0.7-4.2-8.6c0-8.2,1.5-12.8,4.8-15c2.1-1.4,4.2-1,3,0.5c-1,1.2-0.6,3.6,0.7,4.4c1.7,1.1,4.3,0,5-2
		c2-5.8-5.7-8.4-10.9-3.7c-1.6,1.4-2.6,2-2.7,1.5c0-0.5-0.1-1.5-0.2-2.2C287.5,199.2,285.5,199,279.3,199.5 M307.8,199.5
		c-3.2,0.3-4.6,2.1-1.6,2.1c3.7,0,4.4,1.4,4.4,9.3c0,13.6,2.4,17.4,10.6,17.4c3.9,0,7.3-1.2,9.1-3.3l1.3-1.5l0.3,2.2l0.3,2.2l5,0.1
		c5.8,0.1,7.5-1.2,3.2-2.3c-3.3-0.9-3.3-0.8-3.3-14.7v-12l-3.7,0.4c-2,0.2-4.7,0.4-5.8,0.4c-1.4,0-2.1,0.3-2.1,1c0,0.5,0.6,1,1.3,1
		c7.7,0,7.3,20.7-0.4,23.2c-7.6,2.4-10-1.2-10.2-15.2l-0.1-10.3l-2.6-0.1C312,199.3,309.5,199.3,307.8,199.5 M353.5,199.7
		c-4.1,1.3-6.3,6.3-4.5,10.5c1,2.5,3.2,3.9,9.8,6.3c5.1,1.9,6.5,5.4,3.4,8.3c-3.6,3.4-10.8,0.3-11.9-5c-0.9-4.3-2.7-2.5-2.8,2.6
		c0,5.2,0.3,6.2,1.6,5.1c0.7-0.6,1.5-0.5,3.2,0c10,3.3,18.6-2.5,15.9-10.7c-0.8-2.5-2-3.3-8.1-5.6c-7-2.6-9.3-6.2-5.8-9
		c3.4-2.7,8-1,10.1,3.6c1.8,4,2.8,3.3,2.9-1.9l0.1-4.3l-2,0c-1.1,0-3.8-0.1-5.9-0.4C357.3,199.2,354.7,199.4,353.5,199.7
		 M188.2,211.2c1.6,2.4,4.4,6.2,6.2,8.4l3.4,4.1l-2.3,1c-5.6,2.3-11.8,0.5-14.2-4.2c-2.1-4.2-1.1-11.1,1.9-12.9
		C185.1,206.5,185.2,206.6,188.2,211.2 M29.9,208.8c11,3.1,6,16.2-6.2,16.2h-4.9v-8.4v-8.4l4.4,0C25.6,208.1,28.6,208.4,29.9,208.8
		 M67.4,215.7c0,7.4-6.4,12-10.7,7.6c-3.1-3.1-1.9-7.4,2.5-9C66.2,211.8,67.4,212,67.4,215.7 M1.3,248v2.9l198.5-0.2l198.5-0.2
		l0.2-2.8l0.2-2.8H200H1.3V248 M96.2,265.8c-6.1,1.9-7,8.1-1.8,12.8c1.7,1.6,4.4,3.9,5.9,5.3c6,5.3,0.7,11.7-6.4,7.9
		c-3.2-1.7-5.9,0.3-2.9,2.2c10.8,7,21.8-4.8,12.3-13.2c-1.4-1.2-3.7-3.2-5.2-4.6c-5.4-4.7-1.7-9.9,4.9-6.8c2.2,1,2.3,1,3.2-0.1
		C107.9,266.9,100.9,264.4,96.2,265.8 M167.8,265.6c-14.2,2.5-16.7,23.5-3.5,29.1c5.1,2.1,15.9,0.8,15.9-1.9c0-1.6-1.1-1.8-4.4-0.7
		c-5.9,2-11.6-0.2-14.3-5.5c-5.6-11.1,5.1-22.2,16.1-16.5c1.6,0.9,4.3-0.8,3.1-1.9C178.6,266.2,171.7,264.9,167.8,265.6 M223,266.7
		c-3.4,1.4-4.7,3-3.3,3.9c0.4,0.2,1.7,0,3-0.6c1.3-0.5,2.5-1,2.6-1c0.1,0,0.2,6,0.2,13.3v13.3l2.1-0.2l2.1-0.2v-14.9v-14.9l-1.6-0.1
		C227.3,265.3,225,265.9,223,266.7 M248.1,266.1c-5,1.8-7.5,6.2-6.6,11.1c0.5,2.7,4,6.7,6,6.8c0.7,0,1.8,0.2,2.4,0.3
		c0.7,0.1,2.4-0.2,3.7-0.6c3-1,3-1,0.5,2.6c-2,2.9-6,5.7-9.3,6.5c-2.5,0.6-2.3,3.3,0.2,3c15.8-2.1,22.8-28.3,8.1-30.2
		C251.7,265.3,249.5,265.5,248.1,266.1 M272.6,266c-12,5.5-7.8,32.3,4.7,29.9c9.5-1.8,12-22.7,3.4-29
		C278.5,265.4,275,264.9,272.6,266 M112.8,280.8v15l2.1-0.2l2.1-0.2l0.2-14.7l0.2-14.7h-2.3h-2.3V280.8 M123.8,280.7v14.9h1.9h1.9
		l0-11.5l0-11.5l1.3,1.6c15.9,19.4,17.6,21.4,19.1,21.4h1.5v-14.9v-14.9h-1.6h-1.6v11.8v11.8l-4.7-5.8
		c-12.8-15.9-14.4-17.6-16.2-17.6l-1.8,0V280.7 M185.6,280.6l0.1,14.7l8.3,0.2l8.3,0.2V294c0-1.6,0-1.6-6.2-1.6H190v-5.5v-5.5h5.2
		c5.1,0,5.2,0,5.2-1.6c0-1.6-0.1-1.6-5.2-1.6H190v-4.5V269h5.2c5.1,0,5.2,0,5.2-1.6v-1.6h-7.4h-7.4L185.6,280.6 M296.1,275.4
		c-9.5,12.1-9.5,11.8-0.8,11.8h6.8v4.2v4.2h1.9c2.2,0,2.7-0.9,2.7-5.2c0-3,0.1-3.2,1.6-3.2c2.4,0,2.3-3.1-0.1-3.4l-1.7-0.2l-0.1-8.8
		C306.3,262.8,306,262.8,296.1,275.4 M255.1,270c1.8,1.8,2.2,6,0.8,8.8c-1.9,3.7-8,3-9.6-1.2C243.9,271.5,250.8,265.6,255.1,270
		 M278.8,270.2c5.6,5.7,1.7,26.2-4.3,22.4c-3-1.9-3.8-4-4-11.3C270.1,270.1,273.8,265.2,278.8,270.2 M301.9,283.7
		c-0.2,0.2-2.1,0.2-4.2,0.1l-3.9-0.2l4-5.2l4-5.2l0.2,5.2C302.1,281.1,302,283.6,301.9,283.7"/>
</g>
</svg>
