<?xml version="1.0" encoding="utf-8"?>
<!-- Generator: Adobe Illustrator 25.4.1, SVG Export Plug-In . SVG Version: 6.00 Build 0)  -->
<svg version="1.1" id="svg" xmlns="http://www.w3.org/2000/svg" xmlns:xlink="http://www.w3.org/1999/xlink" x="0px" y="0px"
	 viewBox="0 0 400 102.2" style="enable-background:new 0 0 400 102.2;" xml:space="preserve">
<style type="text/css">
	.st0{fill-rule:evenodd;clip-rule:evenodd;fill:#F9F9F9;}
	.st1{fill-rule:evenodd;clip-rule:evenodd;fill:#E12428;}
	.st2{fill-rule:evenodd;clip-rule:evenodd;fill:#241E24;}
</style>
<g>
	<path d="M128.4,84.2h2.4v15.1h8.8v2.1h-11.2V84.2z"/>
	<path d="M144.4,84.2h2.4v17.2h-2.4V84.2z"/>
	<path d="M151.3,84.2h2.6l4.5,12.5l0.8,2.3h0.1l0.8-2.2l4.5-12.6h2.5l-6.4,17.2h-3.1L151.3,84.2z"/>
	<path d="M171.7,84.2h2.4v17.2h-2.4V84.2z"/>
	<path d="M180.1,84.2h2.1l9.1,12l0.6,0.8l0.1,0v-1.2V84.2h2.2v17.2h-2l-9.1-12.1l-0.7-0.9l-0.1,0v1v11.9h-2.2V84.2z"/>
	<path d="M201.4,99.4c-1.4-1.5-2.2-3.7-2.2-6.7c0-5.9,2.9-8.9,8.7-8.9c2.4,0,4.3,0.5,5.7,1.6c1.4,1,2.1,2.6,2.1,4.6h-2.4
		c0-1.4-0.5-2.4-1.5-3.1c-1-0.7-2.3-1-4-1c-2.1,0-3.6,0.5-4.7,1.6c-1,1.1-1.5,2.8-1.5,5.2v0c0,2.4,0.5,4.2,1.5,5.2
		c1,1.1,2.5,1.6,4.5,1.6c1.9,0,3.4-0.4,4.3-1.2s1.4-2,1.4-3.7v-0.2h-6v-2.1h8.4v8.9h-1.8l-0.2-1.9c-1.3,1.5-3.3,2.2-6,2.2
		C204.9,101.7,202.8,100.9,201.4,99.4z"/>
</g>
<g>
	<path d="M231.1,84.6h3.6v14h9.2v3.2h-12.9V84.6z"/>
	<path d="M251.1,99.8c-1.5-1.5-2.3-3.7-2.3-6.7c0-3,0.8-5.2,2.3-6.7c1.5-1.5,3.6-2.2,6.4-2.2c2.8,0,4.9,0.7,6.4,2.2
		c1.5,1.5,2.3,3.7,2.3,6.7c0,3-0.8,5.2-2.3,6.7c-1.5,1.5-3.7,2.2-6.4,2.2C254.7,102,252.6,101.3,251.1,99.8z M261.2,97.5
		c0.8-0.9,1.3-2.3,1.3-4v-0.8c0-1.7-0.4-3.1-1.3-4c-0.8-0.9-2.1-1.4-3.7-1.4s-2.9,0.5-3.7,1.4c-0.8,0.9-1.2,2.3-1.2,4v0.8
		c0,1.7,0.4,3.1,1.2,4c0.8,0.9,2.1,1.4,3.7,1.4S260.3,98.5,261.2,97.5z"/>
	<path d="M273.4,99.9c-1.4-1.5-2.2-3.7-2.2-6.7c0-3,0.8-5.2,2.3-6.6s3.7-2.2,6.5-2.2c1.5,0,2.8,0.2,4.1,0.7c1.2,0.5,2.2,1.2,2.9,2.1
		c0.7,0.9,1.1,2.1,1.1,3.4h-3.8c0-0.9-0.4-1.7-1.2-2.2s-1.8-0.8-3-0.8c-1.8,0-3.1,0.5-3.9,1.4s-1.3,2.3-1.3,4v0.8
		c0,1.8,0.4,3.2,1.2,4.1c0.8,0.9,2,1.3,3.6,1.3c1.4,0,2.5-0.3,3.4-1c0.9-0.6,1.3-1.5,1.3-2.6h-5.2v-3h8.8v9.3h-2.5l-0.3-1.9
		c-0.8,0.8-1.6,1.3-2.5,1.7c-0.9,0.3-2,0.5-3.2,0.5C276.9,102,274.9,101.3,273.4,99.9z"/>
	<path d="M294.4,84.6h13.5v3.1H298v3.8h8.8v3.1H298v4.1h10v3.1h-13.6V84.6z"/>
	<path d="M317,101.4c-1.1-0.4-2-1-2.6-1.8c-0.7-0.8-1-1.8-1-2.9l0-0.5h3.7l0,0.4c0,0.7,0.3,1.3,1,1.8c0.6,0.4,1.6,0.6,2.7,0.6
		c1.2,0,2.1-0.2,2.7-0.5c0.6-0.3,0.8-0.8,0.8-1.3c0-0.5-0.2-0.9-0.5-1.2c-0.4-0.3-0.8-0.6-1.4-0.8c-0.5-0.2-1.3-0.4-2.2-0.7
		c-1.3-0.4-2.4-0.8-3.3-1.1c-0.8-0.4-1.6-0.9-2.2-1.6s-0.9-1.6-0.9-2.7c0-1.6,0.6-2.8,1.9-3.6s3-1.2,5-1.2c2,0,3.6,0.4,4.9,1.3
		c1.3,0.8,1.9,2.1,1.9,3.8v0.3H324v-0.2c0-0.6-0.3-1.1-0.9-1.5c-0.6-0.4-1.4-0.5-2.3-0.5c-1,0-1.9,0.1-2.4,0.4
		c-0.6,0.3-0.8,0.7-0.8,1.2c0,0.4,0.2,0.7,0.5,1c0.3,0.3,0.8,0.5,1.2,0.7s1.2,0.4,2.1,0.6c1.4,0.4,2.5,0.7,3.4,1.1s1.6,0.9,2.3,1.6
		c0.6,0.7,1,1.6,1,2.8c0,1.8-0.7,3.2-2,4c-1.3,0.9-3.1,1.3-5.4,1.3C319.3,102,318.1,101.8,317,101.4z"/>
	<path d="M337.9,87.7h-5.3v-3.1h14.2v3.1h-5.3v14h-3.6V87.7z"/>
	<path d="M352.1,84.6h3.6v17.2h-3.6V84.6z"/>
	<path d="M361.4,93.2c0-3,0.7-5.2,2.2-6.7c1.5-1.5,3.5-2.2,6.1-2.2c1.5,0,2.8,0.2,3.9,0.7c1.2,0.5,2.1,1.2,2.8,2.2
		c0.7,1,1,2.2,1,3.7h-3.7c0-1.1-0.4-2-1.1-2.6s-1.6-1-2.8-1c-1.6,0-2.7,0.5-3.5,1.4s-1.1,2.3-1.1,4v0.8c0,3.6,1.5,5.4,4.6,5.4
		c1.2,0,2.2-0.3,2.9-0.9c0.7-0.6,1.1-1.5,1.1-2.6h3.6c0,1.5-0.3,2.7-1,3.7c-0.7,1-1.6,1.7-2.7,2.2c-1.1,0.5-2.5,0.7-4,0.7
		C364.2,102,361.4,99.1,361.4,93.2z"/>
	<path d="M386.1,101.4c-1.1-0.4-2-1-2.6-1.8c-0.7-0.8-1-1.8-1-2.9l0-0.5h3.7l0,0.4c0,0.7,0.3,1.3,1,1.8c0.6,0.4,1.6,0.6,2.7,0.6
		c1.2,0,2.1-0.2,2.7-0.5c0.6-0.3,0.8-0.8,0.8-1.3c0-0.5-0.2-0.9-0.5-1.2c-0.4-0.3-0.8-0.6-1.4-0.8c-0.5-0.2-1.3-0.4-2.2-0.7
		c-1.3-0.4-2.4-0.8-3.3-1.1c-0.8-0.4-1.6-0.9-2.2-1.6s-0.9-1.6-0.9-2.7c0-1.6,0.6-2.8,1.9-3.6s3-1.2,5-1.2c2,0,3.6,0.4,4.9,1.3
		c1.3,0.8,1.9,2.1,1.9,3.8v0.3H393v-0.2c0-0.6-0.3-1.1-0.9-1.5c-0.6-0.4-1.4-0.5-2.3-0.5c-1,0-1.9,0.1-2.4,0.4
		c-0.6,0.3-0.8,0.7-0.8,1.2c0,0.4,0.2,0.7,0.5,1c0.3,0.3,0.8,0.5,1.2,0.7s1.2,0.4,2.1,0.6c1.4,0.4,2.5,0.7,3.4,1.1s1.6,0.9,2.3,1.6
		c0.6,0.7,1,1.6,1,2.8c0,1.8-0.7,3.2-2,4c-1.3,0.9-3.1,1.3-5.4,1.3C388.4,102,387.2,101.8,386.1,101.4z"/>
</g>
<g id="svgg">
	<path id="path0" class="st0" d="M0,0.2c0,0.3,1.9,0.4,3.2,0.1C4.4,0.2,3.8,0,1.9,0C0.3,0,0,0,0,0.2 M13.8,0.1
		c0,0.3,4.3,0.5,5.6,0.2C20.7,0.1,19.8,0,16.9,0C15.2,0,13.8,0.1,13.8,0.1 M27.9,0.4c0,0.4,0,0.4,0.4,0.2c0.2-0.1,2-0.2,3.9-0.2h3.5
		v35.8V72h-3.6c-3.8,0-3.7,0-3.6-0.7c0-0.1-0.1-0.1-0.3,0c-0.3,0.1-0.3,0.4-0.2,1.1c0,0.1,1.8,0.1,4.1,0.1h4V36.2V-0.1H32h-4.1V0.4
		 M42,0.3c0,0.2,0.1,0.4,0.2,0.4c0.1,0.1,0.2,0,0.2-0.1s1.6-0.2,4.1-0.2c2.3,0,4.4,0,4.7-0.1C52.7,0.1,51.4,0,46.9,0
		C42.2,0,42,0,42,0.3 M56.1,0.3c-0.1,0.3-0.1,71.5,0,72l0.1,0.4h6.7c5.9,0,6.7,0,6.7-0.2s-0.8-0.2-6.5-0.2h-6.5v-36V0.5h6
		c5.9,0,7-0.1,7-0.4C69.7-0.2,56.2,0,56.1,0.3 M74.3,0.2c0,0.3,7.5,0.4,163.7,0.4c154.1,0,162,0,162-0.3S392.1,0,237.2,0
		C137.1,0,74.3,0.1,74.3,0.2 M28,2.8c0,0.2,0.1,0.4,0.2,0.4s0.2-0.2,0.2-0.4c0-0.3,0-0.3-0.1-0.1s-0.2,0.2-0.2,0S28,2.6,28,2.8
		 M97.6,3.9c0,0.1-0.1,3.4,0,7.4v7.2h15.8c14.6,0,15.8,0.1,16,0.3c0.2,0.2,0.2,5.5,0.2,25.2v24.9h11h11l0.1-25
		c0.1-21.9,0.1-25,0.3-25.1c0.3-0.2,0.5-0.2,18.3-0.2h13.2v-7.4V3.8h-42.9C106.4,3.7,97.6,3.7,97.6,3.9 M273.2,3.8
		c-0.2,0.1,0,1,0.6,2.4c0.2,0.4,0.4,1.1,0.5,1.4s0.3,1.1,0.5,1.8c0.2,0.6,0.5,1.6,0.6,2.1c0.3,1.2,0.6,2.2,1,3.3
		c0.5,1.6,0.8,2.7,0.9,3.7c0.1,0.5,0.3,1.2,0.4,1.6s0.4,1.2,0.6,1.8c0.2,0.6,0.5,1.8,0.8,2.7c0.2,0.8,0.6,2,0.8,2.6
		c0.7,2.6,1.2,3.9,1.4,4.3c0.1,0.2,0.3,0.7,0.4,1.1c0.4,1.6,0.6,2.3,0.8,2.8c0.1,0.3,0.2,0.7,0.2,0.9s0.1,0.6,0.2,0.8
		s0.2,0.6,0.2,0.9c0,0.2,0.1,0.7,0.2,1c0.2,0.6,0.4,1.1,1.2,3.9c0.2,0.8,0.5,1.8,0.7,2.2c0.3,1.1,0.6,2,0.9,3
		c0.1,0.5,0.4,1.2,0.5,1.5s0.2,0.7,0.2,0.9s0.1,0.6,0.2,0.9c0.1,0.3,0.2,0.8,0.2,1.1c0,0.6,0.9,3.5,1.2,4c0.1,0.2,0.3,0.7,0.4,1.1
		c0.1,0.4,0.3,1.2,0.5,1.7c0.6,2,0.8,2.6,1,3.4c0.6,2.2,0.7,2.7,0.9,3c0.2,0.4,0.5,1.5,0.7,2.5c0.1,0.4,0.2,0.7,0.3,0.8
		c0.1,0.1,6,0.1,14.9,0.1h14.7l0.2-0.7c0.5-1.7,1.6-6.2,2.2-8.8c0.1-0.4,0.7-2.8,1.3-5.3c0.7-2.6,1.3-4.9,1.3-5.2
		c0.1-0.3,0.2-1.1,0.4-1.7s0.3-1.4,0.4-1.8c0.4-1.5,0.7-2.6,0.9-3.3c0.1-0.4,0.3-1.2,0.4-1.8c0.1-0.5,0.4-1.4,0.5-1.9
		s0.3-1.2,0.4-1.5s0.3-1.3,0.5-2.2l0.4-1.7l0.4,0.8c0.2,0.5,0.4,1,0.4,1.2s0.1,0.6,0.2,0.8c0.1,0.3,0.3,0.9,0.4,1.5s0.3,1.5,0.5,2
		c0.1,0.5,0.4,1.5,0.5,2.1s0.5,2.1,0.8,3.4c0.3,1.3,0.7,2.6,0.7,3c0.2,0.7,0.6,2.5,0.9,3.4c0.2,0.7,1.6,6.5,1.8,7.3
		c0.1,0.3,0.2,1.1,0.4,1.7s0.3,1.4,0.4,1.8c0.1,0.4,0.3,1.2,0.4,1.7c0.3,1.2,0.6,2.5,1,4l0.3,1.2h14.9h14.9l0.1-0.4
		c0.2-0.6,0.9-2.7,1.8-6.1c0.7-2.5,1-3.5,1.2-4.2c0.1-0.4,0.5-1.6,0.8-2.8s0.7-2.5,0.8-2.8c0.2-0.6,0.5-1.6,1-3.3
		c0.4-1.3,1-3.3,1.1-3.8c0.1-0.2,0.3-0.8,0.4-1.3s0.5-1.8,0.9-2.9c0.3-1.1,0.7-2.4,0.9-2.9c0.1-0.5,0.4-1.2,0.5-1.6
		c0.3-1.1,0.7-2.4,1.3-4.6c0.3-1.1,0.7-2.2,0.8-2.4c0.1-0.2,0.2-0.4,0.2-0.5s0.4-1.5,0.8-3c0.5-1.5,1-3.2,1.1-3.7s0.3-1.1,0.4-1.3
		c0.1-0.2,0.3-0.8,0.4-1.3s0.5-1.7,0.8-2.7c0.7-2.3,1.2-4.1,1.9-6.4c0.2-0.8,0.6-1.9,0.7-2.4c0.2-0.5,0.4-1.3,0.5-1.8
		s0.4-1.2,0.5-1.5c0.4-1.3,1.6-1.2-13.4-1.2c-10.6,0-13.5,0-13.7,0.2c-0.1,0.1-0.2,0.6-0.3,1.1c-0.4,1.9-0.7,3.5-0.9,4.6
		c-0.1,0.6-0.5,2.3-0.8,3.6c-0.3,1.4-0.5,2.5-0.6,2.6c0,0.1-0.1,0.5-0.2,1s-0.4,2.2-0.8,3.7c-0.3,1.6-0.7,3.3-0.8,3.9
		c-0.1,0.6-0.3,1.5-0.4,1.9c-0.4,1.9-0.9,4.1-1.1,5.3c-0.1,0.7-0.3,1.4-0.3,1.5c-0.1,0.1-0.2,0.6-0.3,1.1c-0.1,0.5-0.3,1.4-0.4,2
		s-0.4,1.8-0.6,2.7s-0.4,2.1-0.5,2.7c-0.4,2.1-0.8,2-1.3-0.2c-0.2-0.9-0.5-2-0.6-2.4s-0.3-1.1-0.4-1.7c-0.1-0.5-0.3-1.3-0.4-1.6
		s-0.3-1.3-0.5-2.1s-0.5-2-0.6-2.5s-0.4-1.5-0.5-2.1c-0.2-1-0.4-1.6-1-4.2c-0.9-3.7-1-4.4-1.3-5.4c-0.1-0.5-0.4-1.6-0.5-2.2
		c-0.2-0.7-0.4-1.6-0.5-2.1c-0.2-0.9-0.8-3.3-1.2-4.9c-0.1-0.6-0.3-1.5-0.5-1.9c-0.4-1.7-0.6-2.5-0.8-3.2c-0.1-0.4-0.2-0.9-0.3-1.1
		L342.8,4h-12c-13,0-12.5,0-12.5,0.8c0,0.2-0.1,0.8-0.3,1.4c-0.1,0.6-0.4,1.5-0.5,2s-0.3,1.4-0.5,1.9c-0.1,0.5-0.4,1.5-0.5,2.2
		c-0.2,0.7-0.4,1.6-0.5,2.1s-0.4,1.5-0.6,2.3s-0.4,1.8-0.5,2.1c-0.3,1.3-0.7,2.8-0.8,3.4c-0.1,0.4-0.2,0.9-0.3,1.1
		c-0.1,0.3-0.2,0.6-0.2,0.9c0,0.2-0.1,0.8-0.2,1.2c-0.1,0.4-0.5,1.7-0.7,2.9c-0.3,1.1-0.8,3.5-1.3,5.2c-0.4,1.7-0.8,3.4-0.9,3.8
		c-0.1,0.4-0.4,1.6-0.6,2.6c-1,4-1.3,4.7-1.5,3.3c-0.1-0.3-0.2-0.9-0.3-1.3c-0.1-0.4-0.2-1-0.3-1.5c-0.1-0.8-0.5-2.4-1.1-5.1
		c-0.2-0.7-0.3-1.6-0.4-2.1s-0.3-1.5-0.5-2.3c-0.4-1.5-0.7-3.1-1-4.8c-0.1-0.5-0.3-1.4-0.4-1.9c-0.3-1.3-0.7-3-1-4.7
		c-0.1-0.7-0.4-1.8-0.5-2.4s-0.5-2.2-0.7-3.5c-0.9-4.4-1.6-7.4-1.9-8.8L300.1,4h-13.5C279.5,3.7,273.3,3.7,273.2,3.8 M42,72.2v0.5
		h4.9c4.3,0,4.9,0,4.9-0.2s-0.6-0.2-4.6-0.2c-3.7,0-4.6,0-4.7-0.2C42.4,71.5,42,71.7,42,72.2 M0,72.4c0,0.2,0.3,0.2,1.9,0.2
		s1.9,0,1.9-0.2s-0.3-0.2-1.9-0.2C0.3,72.2,0,72.2,0,72.4 M13.9,72.4c0.1,0.3,6.1,0.4,6.1,0c0-0.2-0.4-0.3-3.1-0.3
		C14.5,72.2,13.8,72.2,13.9,72.4 M74.3,72.4c0,0.2,18.2,0.2,162.8,0.2s162.8,0,162.8-0.2s-18.2-0.2-162.8-0.2
		C92.5,72.2,74.3,72.2,74.3,72.4"/>
	<path id="path1" class="st1" d="M185.8,3.8c-0.3,0.3-0.1,64.7,0.2,65s1.9,0.4,2.4,0.1c0.5-0.2,0.5-64.9,0.1-65.1
		C188,3.6,185.9,3.6,185.8,3.8 M192.8,3.8c-0.3,0.3-0.1,64.9,0.2,65.1c0.6,0.3,3,0.2,3.2-0.2c0.1-0.2,0.2-10.5,0.1-32.6V3.8h-1.7
		C193.7,3.7,192.8,3.7,192.8,3.8 M200.3,3.8c-0.2,0.2-0.1,64.8,0.1,65c0.3,0.3,2.9,0.3,3.1,0c0.1-0.2,0.2-2.1,0.1-6.9v-6.6l-0.6-0.1
		c-1-0.1-1,1-0.9-18.5v-18l0.6-0.1c1-0.2,1,0.1,0.9-7.7V3.7H202C201.1,3.7,200.3,3.7,200.3,3.8 M207.3,3.8c-0.1,0.1-0.1,3.4-0.1,7.3
		v7.2l0.5,0.2c0.7,0.3,3.2,0.1,3.4-0.2c0.1-0.2,0.1-3.1,0.1-7.4V3.7h-1.8C208.2,3.7,207.3,3.7,207.3,3.8 M214.4,3.9
		c-0.1,0.4,0,14.4,0.1,14.6c0.3,0.3,4.1,0.2,4.3-0.1c0.1-0.2,0.1-3.1,0.1-7.4V3.8h-2.2C215,3.7,214.5,3.7,214.4,3.9 M221.8,3.8
		c-0.2,0.2-0.1,14.3,0,14.6c0.3,0.4,4.2,0.5,4.6,0c0.3-0.3,0.3-0.9,0.2-7.5V3.7h-2.3C223,3.7,221.8,3.7,221.8,3.8 M229.3,3.8
		c-0.3,0.3-0.1,14.3,0.2,14.6c0.4,0.4,3.6,0.4,4.2,0l0.4-0.3V11c0-6.4,0-7.2-0.3-7.2C233.4,3.6,229.4,3.6,229.3,3.8 M236.6,3.8
		c-0.3,0.3-0.1,14.5,0.2,14.7c0.5,0.3,4.3,0.2,4.5-0.1c0.1-0.2,0.2-2.3,0.1-7.5V3.7h-2.3C237.8,3.7,236.7,3.7,236.6,3.8 M243.8,3.8
		c-0.1,0.1-0.1,3.4-0.1,7.3v7.2l0.4,0.2c0.9,0.3,4.4,0.2,4.6-0.2c0.1-0.2,0.2-2.7,0.1-7.5V3.7h-2.4C245,3.7,243.8,3.7,243.8,3.8
		 M250.8,3.8c-0.3,0.3-0.1,14.3,0.2,14.6c0.4,0.3,4.3,0.4,5.1,0.1l0.4-0.2V11V3.7h-2.8C252.1,3.7,250.8,3.7,250.8,3.8 M258.6,3.8
		c-0.3,0.3-0.1,14.3,0.2,14.6c0.4,0.3,4.3,0.4,5.1,0.1l0.4-0.2V11V3.7h-2.8C260,3.7,258.7,3.7,258.6,3.8 M266.1,3.8
		c-0.1,0.1-0.2,14.3,0,14.6c0.1,0.3,5.2,0.4,5.6,0.1c0.3-0.2,0.3-0.8,0.2-7.5V3.8h-2.8C267.5,3.7,266.2,3.7,266.1,3.8 M183.6,11
		c0,4,0,5.6,0,3.6s0-5.3,0-7.2C183.6,5.4,183.6,7,183.6,11 M273.5,11.6c0.1,7.7-0.1,7,2.2,7c1.1,0,1.7,0.1,1.7,0.2
		c0.1,0.3,0-0.8-0.2-1.5c-0.2-1-0.8-3-1.1-3.8c-0.1-0.4-0.3-1.2-0.5-1.8s-0.4-1.4-0.5-1.8c-0.1-0.4-0.3-1.1-0.5-1.7
		c-0.2-0.8-1.1-3.2-1.2-3.2C273.4,5.2,273.4,8.1,273.5,11.6 M154.4,18.5l-2.5,0.1l2.4,0.1l2.4,0.1l0.1,25c0.1,27.7,0,25.6,1.1,25.2
		l0.5-0.2l0.1-25l0.1-25h2.5c1.4,0,2.6,0,2.6,0s0.1,11.3,0.1,25.1l0.1,25.1l0.6,0.1c1.4,0.1,1.3,3,1.3-25.3v-25h2.3
		c1.6,0,2.4,0,2.5,0.1c0.2,0.2,0.2,4.1,0.2,25.1c0,22.5,0,24.9,0.3,25c0.4,0,1.9,0,1.9,0s0.1-11.3,0.1-25.1l0.1-25.1h2.5h2.5v24.9
		c0,18.1,0.1,25,0.2,25.1c0.2,0.3,1.8,0.3,2.1,0.1c0.2-0.1,0.3-3.2,0.3-25.1l0.1-25h1.1c0.6,0,1.1-0.1,1.2-0.2
		C183.5,18.4,158.1,18.4,154.4,18.5 M280.8,30.4c0.1,0.2,0.2,8.8,0.2,19.2c0,13.5,0.1,19,0.2,19.1c0.3,0.3,5.4,0.3,5.9,0
		c0.3-0.2,0.3-0.9,0.3-7.5c0-4,0.1-7.4,0.1-7.6c0.1-0.4-0.3-2.4-0.5-2.8c-0.1-0.2-0.2-0.5-0.2-0.7s-0.1-0.6-0.2-0.9
		c-0.1-0.3-0.3-1-0.5-1.5c-0.3-1-0.5-1.9-0.9-3c-0.1-0.4-0.4-1.4-0.7-2.2c-0.8-2.8-1-3.3-1.2-3.9c-0.1-0.3-0.2-0.8-0.2-1
		s-0.1-0.6-0.2-0.9c-0.1-0.2-0.2-0.6-0.2-0.8s-0.1-0.6-0.2-0.9c-0.2-0.5-0.4-1.2-0.8-2.7c-0.1-0.4-0.4-1-0.6-1.5
		C280.8,30.5,280.7,30.2,280.8,30.4 M229.4,30.7c-0.1,0.2-0.2,2-0.1,6.3v6.1h2.2c1.7,0,2.3,0,2.4-0.2c0.2-0.4,0.2-12-0.1-12.3
		C233.5,30.4,229.6,30.4,229.4,30.7 M236.7,30.7c-0.1,0.2-0.2,2-0.1,6.3v6.1h2.4h2.4v-5.9c0-3.3,0-6.1,0-6.3
		C241.3,30.4,237.1,30.3,236.7,30.7 M243.7,30.7c0,0.1-0.1,2.9,0,6.3v6.1h2.4c1.8,0,2.4,0,2.5-0.2c0.2-0.2,0.2-11.8,0-12.2
		C248.6,30.4,243.9,30.4,243.7,30.7 M250.8,30.8c-0.2,0.3-0.3,11.3-0.1,12c0.1,0.3,0.2,0.4,1.4,0.4h1.3v5.9V55h-1.2
		c-0.6,0-1.3,0.1-1.4,0.2c-0.3,0.2-0.3,13.1,0,13.4c0.2,0.2,4.5,0.3,5.3,0.1l0.4-0.1V49.5V30.4h-2.7C251.2,30.5,251,30.5,250.8,30.8
		 M258.7,30.8c-0.3,0.5-0.2,37.7,0,38c0.2,0.2,5.2,0.3,5.6,0.1c0.2-0.1,0.2-4.1,0.2-19.2V30.6h-2.8C259,30.5,258.8,30.5,258.7,30.8
		 M266.1,30.7c0,0.1-0.1,8.8,0,19.2v19h2.6c1.6,0,2.8,0,3-0.1c0.4-0.2,0.5-37.7,0.1-38.1C271.5,30.4,266.2,30.4,266.1,30.7
		 M273.7,30.7c-0.4,0.4-0.3,37.9,0.1,38.1s5.3,0.2,5.7,0c0.4-0.2,0.5-37.7,0.1-38.1c-0.1-0.1-1-0.2-3-0.2
		C274.7,30.5,273.8,30.6,273.7,30.7 M207.3,55.3c-0.1,0.1-0.1,3.1-0.1,6.8v6.7l0.4,0.1c0.7,0.2,3,0.1,3.3-0.1s0.3-0.8,0.2-6.9v-6.7
		h-1.8C208.2,55.2,207.3,55.2,207.3,55.3 M214.5,55.4c-0.3,0.3-0.3,13,0.1,13.4c0.3,0.3,3.7,0.4,4.1,0.1c0.3-0.2,0.3-0.8,0.2-6.9
		v-6.7h-2.1C215.3,55.2,214.7,55.2,214.5,55.4 M221.8,55.4c-0.1,0.1-0.1,3.2-0.1,6.7c0,7.6-0.3,6.8,2.5,6.8s2.5,0.8,2.5-7
		c0-5.9,0-6.7-0.3-6.7C225.8,55,221.9,55.2,221.8,55.4 M229.1,55.3c-0.1,0.1-0.1,3.1-0.1,6.7c0,7.8-0.3,7,2.6,7
		c2.9,0,2.6,0.8,2.6-6.8c0-3.6,0-6.6-0.1-6.7C234,55.2,229.4,55,229.1,55.3 M236.7,55.3c-0.2,0.1-0.2,1.6-0.2,6.7c0,7.8-0.3,7,2.7,7
		c2.6,0,2.3,0.9,2.2-7.2v-6.5h-2.2C237.9,55.2,236.8,55.2,236.7,55.3 M243.8,55.3c-0.1,0.1-0.1,3.1-0.1,6.8v6.7l0.4,0.1
		c1,0.3,4.6,0.1,4.8-0.2c0.3-0.5,0.2-13,0-13.3C248.6,55.2,244,55.1,243.8,55.3"/>
	<path id="path2" class="st2" d="M1.6,0.5H0v35.8v35.8h1.9h1.9V36.2c0-34.1,0-35.9-0.3-35.9C3.4,0.4,2.5,0.4,1.6,0.5 M74.3,36.3
		v35.9h162.6c89.4,0,162.7,0,162.8-0.1c0.2-0.1,0.3-3.4,0.3-35.7V0.7l-0.5-0.1c-0.3-0.1-73.6-0.1-162.8-0.1H74.4L74.3,36.3
		 M13.8,36.2V72l0.5,0.1c0.7,0.1,4.5,0.1,5.1,0L20,72V36.2V0.5h-3.1h-3.1L13.8,36.2 M28.6,0.7c0,0.1-0.1,16.2,0,35.8v35.6h3.5h3.5
		V36.3V0.6h-3.5C29.4,0.5,28.6,0.5,28.6,0.7 M42.6,0.6c-0.2,0.2-0.1,71.1,0.1,71.4c0.2,0.2,7.6,0.3,8.6,0.1l0.5-0.1V36.2V0.5h-4.6
		C44.8,0.5,42.7,0.6,42.6,0.6 M56.7,36.3v35.8h5.8c3.2,0,6.1,0,6.5-0.1l0.7-0.1V36.2V0.5h-6.5h-6.5L56.7,36.3 M183.6,10.9
		c0.1,8.2,0.1,7.7-1.4,7.8h-1.1l-0.1,25c-0.1,21.9-0.1,25-0.3,25.1c-0.4,0.2-1.9,0.2-2.1-0.1c-0.1-0.2-0.2-7.1-0.2-25.1V18.7h-2.5
		h-2.5l-0.1,25.1c0,13.8-0.1,25.1-0.1,25.1c-0.1,0.1-1.5,0-1.8-0.1c-0.2-0.1-0.3-2.4-0.3-25c0-21,0-24.9-0.2-25.1
		c-0.2-0.1-1-0.2-2.5-0.1h-2.3v25c0,28.2,0.1,25.4-1.3,25.3l-0.6-0.1l-0.1-25.1c0-13.8-0.1-25.1-0.1-25.1s-1.2,0-2.6,0h-2.5l-0.1,25
		l-0.1,25l-0.5,0.2c-1.1,0.4-1,2.5-1.1-25.2l-0.1-25h-2.5H152v24.9c0,23.2-0.1,24.9-0.3,25.1c-0.4,0.3-21.6,0.3-21.9,0
		c-0.1-0.2-0.2-7.1-0.2-25.1V18.6l-15.8-0.1c-13.8-0.1-15.8-0.1-16-0.3C97.3,18,97.3,4,97.4,3.8c0.1-0.1,19.5-0.1,43.1-0.1h43
		L183.6,10.9 M188.4,3.8c0.5,0.2,0.4,64.8-0.1,65.1c-0.5,0.3-2.1,0.2-2.4-0.1c-0.3-0.3-0.4-64.7-0.2-65C185.9,3.6,188,3.6,188.4,3.8
		 M196.3,36.1c0,22.1,0,32.4-0.1,32.6c-0.2,0.4-2.6,0.5-3.2,0.2c-0.3-0.2-0.5-64.7-0.2-65.1c0.1-0.1,0.9-0.1,1.8-0.1h1.7V36.1
		 M203.6,11c0,7.8,0.1,7.5-0.9,7.7l-0.6,0.1v18c0,19.5-0.1,18.4,0.9,18.5l0.6,0.1V62c0,4.8,0,6.7-0.1,6.9c-0.2,0.3-2.8,0.3-3.1,0
		c-0.2-0.2-0.3-64.8-0.1-65c0.1-0.1,0.8-0.1,1.7-0.1h1.6L203.6,11 M211.1,10.9c0,4.3,0,7.3-0.1,7.4c-0.2,0.3-2.7,0.4-3.4,0.2
		l-0.5-0.2v-7.2c0-4,0.1-7.3,0.1-7.3c0.1-0.1,0.9-0.1,2-0.1h1.8L211.1,10.9 M219,10.9c0,4.3,0,7.3-0.1,7.4c-0.2,0.3-4,0.4-4.3,0.1
		c-0.1-0.1-0.3-14.2-0.1-14.6c0.1-0.2,0.6-0.2,2.3-0.2h2.2L219,10.9 M226.6,10.9c0,6.6,0,7.2-0.2,7.5c-0.4,0.4-4.3,0.4-4.6,0
		c-0.2-0.3-0.2-14.4,0-14.6c0.1-0.1,1.2-0.1,2.5-0.1h2.3V10.9 M233.7,3.8C234,3.9,234,4.7,234,11v7.1l-0.4,0.3
		c-0.5,0.4-3.7,0.4-4.2,0c-0.3-0.3-0.5-14.3-0.2-14.6C229.4,3.6,233.4,3.6,233.7,3.8 M241.5,11c0,5.2,0,7.3-0.1,7.5
		c-0.2,0.3-4,0.3-4.5,0.1c-0.3-0.2-0.5-14.4-0.2-14.7c0.1-0.1,1.2-0.1,2.5-0.1h2.3V11 M248.8,10.9c0,4.7,0,7.2-0.1,7.5
		c-0.2,0.4-3.7,0.5-4.6,0.2l-0.4-0.2v-7.2c0-4,0.1-7.3,0.1-7.3c0.1-0.1,1.2-0.1,2.5-0.1h2.4L248.8,10.9 M256.5,11v7.3l-0.4,0.2
		c-0.8,0.3-4.8,0.2-5.1-0.1c-0.3-0.3-0.5-14.3-0.2-14.6c0.1-0.1,1.4-0.1,2.9-0.1h2.8V11 M264.3,11v7.3l-0.4,0.2
		c-0.8,0.3-4.8,0.2-5.1-0.1c-0.3-0.3-0.5-14.3-0.2-14.6c0.1-0.1,1.4-0.1,2.9-0.1h2.8L264.3,11 M272,11c0,6.7,0,7.3-0.2,7.5
		c-0.5,0.3-5.5,0.3-5.6-0.1s-0.1-14.5,0-14.6c0.1-0.1,1.4-0.1,3-0.1h2.8L272,11 M300.6,4.4c0.1,0.4,0.3,1,0.3,1.5
		c0.1,0.4,0.3,1.5,0.5,2.4c0.5,2.2,0.8,3.8,1,4.8c0.1,0.4,0.3,1.5,0.5,2.3c0.2,0.9,0.5,2.1,0.6,2.8c0.4,1.7,0.7,3.2,1,4.6
		c0.1,0.6,0.4,1.7,0.5,2.3c0.1,0.6,0.5,2.4,0.8,4s0.7,3.3,0.8,3.8c0.1,0.5,0.2,1,0.2,1.1s0.2,0.7,0.3,1.4c0.6,2.8,0.7,3.6,0.9,4.5
		c0.1,0.5,0.2,1.1,0.3,1.3c0.1,0.2,0.2,0.8,0.3,1.3c0.2,1.6,0.4,1.3,1.4-3c0.3-1.1,0.6-2.4,0.7-2.8c0.1-0.4,0.3-1.3,0.5-2.1
		s0.5-1.9,0.6-2.5c0.1-0.6,0.4-1.5,0.5-2.1s0.3-1.3,0.4-1.7c0.1-0.4,0.3-1.4,0.6-2.3c0.2-0.9,0.5-2,0.6-2.4s0.3-1.2,0.4-1.8
		c0.1-0.6,0.4-1.5,0.5-2c0.3-1.3,0.6-2.4,0.8-3.4c0.5-2.1,0.7-2.6,1.1-4.6c0.3-1.1,0.6-2.5,0.7-3.1c0.5-1.9,0.7-3,1-4l0.2-1h12.3
		h12.3l0.2,0.5c0.1,0.3,0.2,0.7,0.2,0.8s0.1,0.7,0.2,1.1s0.4,1.5,0.6,2.3s0.4,1.8,0.5,2.1c0.1,0.3,0.3,1.3,0.5,2.1s0.4,1.9,0.6,2.4
		c0.1,0.5,0.4,1.4,0.5,2.1c0.1,0.6,0.4,1.5,0.5,1.8c0.3,1,0.6,2.6,0.8,3.5c0.1,0.4,0.2,1,0.3,1.3c0.1,0.5,0.8,2.9,1.6,6.6
		c0.1,0.6,0.4,1.5,0.5,2c0.1,0.5,0.4,1.5,0.5,2.2c0.2,0.7,0.4,1.6,0.5,2s0.2,0.9,0.2,1c0,0.2,0.1,0.6,0.2,1.1
		c0.1,0.4,0.4,1.6,0.6,2.5c0.5,2.4,0.9,2.5,1.3,0.5c0.2-1.1,0.5-2.3,1-4.8c0.1-0.5,0.3-1.5,0.4-2s0.3-1.4,0.4-1.8s0.2-1,0.2-1.2
		s0.1-0.8,0.2-1.2c0.1-0.5,0.4-1.5,0.5-2.3c0.2-0.8,0.4-1.9,0.5-2.4s0.3-1.4,0.4-1.9s0.3-1.4,0.4-2s0.3-1.6,0.5-2.2
		c0.3-1.6,0.6-2.8,0.9-4c0.1-0.6,0.4-1.6,0.5-2.4c0.2-0.8,0.4-1.9,0.5-2.4c0.2-0.9,0.3-1.5,1-4.7c0.2-0.7,0.3-1.6,0.4-1.8l0.1-0.5
		h13.7h13.7l0.2,0.2c0,0.3-0.2,1-0.4,1.5c-0.2,0.5-0.4,1.3-0.5,1.8s-0.4,1.2-0.5,1.8c-0.2,0.5-0.4,1.3-0.5,1.8s-0.3,1-0.4,1.1
		s-0.2,0.3-0.2,0.5s-0.1,0.7-0.2,1s-0.5,1.6-0.9,2.8c-0.3,1.2-0.7,2.5-0.9,2.9c-0.1,0.4-0.2,0.8-0.2,1c0,0.1-0.1,0.4-0.2,0.5
		c-0.1,0.2-0.5,1.5-0.9,3s-0.9,3-1,3.5s-0.3,1.2-0.4,1.6s-0.3,0.8-0.3,0.9c-0.1,0.1-0.1,0.3-0.1,0.4c0,0.2-0.1,0.6-0.2,1
		s-0.4,1.2-0.6,1.9c-0.2,0.6-0.5,1.8-0.8,2.5c-0.2,0.7-0.5,1.6-0.6,2s-0.2,0.9-0.3,1.2s-0.3,1-0.5,1.5s-0.4,1.3-0.5,1.7
		c-0.2,0.7-0.4,1.3-1.1,3.9c-0.2,0.8-0.5,1.6-0.6,1.9c-0.1,0.3-0.3,1-0.4,1.5c-0.2,0.5-0.4,1.3-0.5,1.8c-0.1,0.4-0.5,1.5-0.7,2.5
		c-0.7,2.5-1,3.4-1.4,4.5c-0.2,0.5-0.3,1.1-0.3,1.3s-0.1,0.4-0.1,0.4c-0.1,0.1-0.2,0.5-0.3,0.9c-0.1,0.4-0.3,1.2-0.5,1.6
		c-0.1,0.5-0.4,1.4-0.6,2c-0.2,0.6-0.5,1.5-0.6,2s-0.3,1.1-0.4,1.5c-0.3,1.3,1,1.2-15.5,1.2h-14.7l-0.3-0.9
		c-0.3-1.1-0.9-3.2-1.3-5.3c-0.1-0.4-0.2-1-0.3-1.2c-0.1-0.3-0.3-1.1-0.5-1.9s-0.5-2.1-0.7-2.8c-0.2-0.8-0.5-1.8-0.6-2.3
		s-0.3-1.2-0.4-1.6c-0.2-0.8-1.5-6.1-1.7-6.9c-0.1-0.3-0.3-1.3-0.5-2.2s-0.5-2-0.6-2.4c-0.2-1.1-0.6-2.5-1-4.2
		c-0.2-0.7-0.4-1.7-0.5-2.1c-0.1-0.4-0.3-1-0.4-1.3l-0.3-0.6L331,34c-0.1,0.3-0.2,1-0.4,1.4c-0.3,1-0.6,2.3-0.8,3.1
		c-0.2,0.8-1.1,4.6-1.3,5.3c-0.1,0.3-0.2,0.9-0.3,1.3c-0.1,0.4-0.3,1.2-0.4,1.7s-0.3,1.4-0.5,2c-0.1,0.6-0.8,3-1.4,5.4
		c-1.2,4.5-1.4,5.5-1.8,7.2c-0.1,0.6-0.4,1.7-0.6,2.4s-0.4,1.6-0.5,2c-0.1,0.4-0.2,1-0.3,1.3c-0.1,0.4-0.2,0.9-0.3,1.1
		c-0.2,1,1,1-17.1,1c-9,0-16.5-0.1-16.6-0.1c-0.1-0.1-0.2-1.9-0.3-6.7c0-4.6-0.1-6.7-0.2-7c-0.1-0.2-0.2-0.6-0.3-0.9
		c-0.3-1.4-0.4,0.6-0.4,7.2c0,6.9,0,7.2-0.3,7.4c-0.5,0.3-5.6,0.2-5.8,0c-0.2-0.2-0.2-4.5-0.2-18.7c0-20.9,0.1-18.6-1.5-24
		c-0.5-1.6-0.6-2-1-3.3c-0.2-0.6-0.5-1.8-0.8-2.6c-0.2-0.8-0.4-1.4-0.4-1.5c0,0-0.7-0.1-1.6-0.1c-2.4,0-2.2,0.7-2.2-7.1
		c0-4.2-0.1-6.7-0.3-7.1c-0.1-0.3-0.2-0.6-0.1-0.7c0-0.1,6.2-0.1,13.7-0.1h13.6L300.6,4.4 M233.8,30.7c0.2,0.2,0.3,11.9,0.1,12.3
		c-0.1,0.2-0.7,0.2-2.4,0.2h-2.2v-6.1c0-4.3,0-6.1,0.1-6.3C229.6,30.4,233.5,30.4,233.8,30.7 M241.4,30.9c0.1,0.2,0.1,3,0,6.3v5.9
		H239h-2.4V37c0-4.3,0-6.1,0.1-6.3C237.1,30.3,241.3,30.4,241.4,30.9 M248.7,30.8c0.2,0.4,0.1,12,0,12.2s-0.7,0.2-2.5,0.2h-2.4v-6.1
		c0-3.3,0-6.2,0-6.3C243.9,30.4,248.6,30.4,248.7,30.8 M256.5,49.7v19.1l-0.4,0.1c-0.7,0.2-5,0.1-5.3-0.1c-0.3-0.3-0.3-13.2,0-13.4
		c0.1-0.1,0.7-0.2,1.4-0.2h1.2v-5.9v-5.9h-1.3c-1.6-0.1-1.5,0.5-1.5-6.4c0-7-0.3-6.3,3-6.2h2.7L256.5,49.7 M264.5,49.7
		c0,15.1,0,19.1-0.2,19.2c-0.4,0.2-5.4,0.2-5.6-0.1c-0.3-0.3-0.3-37.5,0-38c0.2-0.3,0.3-0.3,3-0.3h2.8L264.5,49.7 M271.8,30.7
		c0.4,0.4,0.3,37.9-0.1,38.1c-0.2,0.1-1.3,0.2-3,0.1h-2.6v-19c0-10.5,0-19.1,0-19.2C266.2,30.4,271.5,30.4,271.8,30.7 M279.6,30.7
		c0.4,0.4,0.3,37.9-0.1,38.1s-5.3,0.2-5.7,0c-0.4-0.2-0.5-37.7-0.1-38.1c0.1-0.1,1-0.2,3-0.2C278.6,30.5,279.5,30.6,279.6,30.7
		 M211.1,61.9c0,6.1,0,6.7-0.2,6.9c-0.3,0.2-2.7,0.3-3.3,0.1l-0.4-0.1v-6.7c0-3.7,0.1-6.8,0.1-6.8c0.1-0.1,0.9-0.1,2-0.1h1.8
		L211.1,61.9 M219,61.9c0.1,7.8,0.3,7.1-2.3,7.1c-2.5,0-2.3,0.7-2.3-7c0-7.6-0.3-6.9,2.5-6.8h2.1V61.9 M226.4,55.3
		c0.2,0.1,0.3,0.8,0.3,6.7c0,7.8,0.3,7-2.5,7s-2.5,0.8-2.5-6.8c0-3.6,0-6.6,0.1-6.7C221.9,55.2,225.8,55,226.4,55.3 M234.1,55.4
		c0.1,0.1,0.1,3.2,0.1,6.7c0,7.6,0.3,6.8-2.6,6.8c-2.9,0-2.6,0.8-2.6-7c0-3.6,0.1-6.7,0.1-6.7C229.4,55,234,55.2,234.1,55.4
		 M241.5,61.8c0.1,8.2,0.3,7.2-2.2,7.2c-3.1,0-2.7,0.8-2.7-7c0-5.2,0-6.7,0.2-6.7c0.1,0,1.2-0.1,2.5-0.1h2.2V61.8 M248.8,55.4
		c0.3,0.3,0.3,12.8,0,13.3c-0.2,0.3-3.8,0.5-4.8,0.2l-0.4-0.1v-6.7c0-3.7,0-6.8,0.1-6.8C244,55.1,248.6,55.2,248.8,55.4"/>
</g>
</svg>
