<?xml version="1.0" encoding="utf-8"?>
<!-- Generator: Adobe Illustrator 25.4.1, SVG Export Plug-In . SVG Version: 6.00 Build 0)  -->
<svg version="1.1" id="svg" xmlns="http://www.w3.org/2000/svg" xmlns:xlink="http://www.w3.org/1999/xlink" x="0px" y="0px"
	 viewBox="0 0 400 315.1" style="enable-background:new 0 0 400 315.1;" xml:space="preserve">
<style type="text/css">
	.st0{fill-rule:evenodd;clip-rule:evenodd;fill:#0274BB;}
	.st1{fill-rule:evenodd;clip-rule:evenodd;}
</style>
<path class="st0" d="M132.4,2.2c-0.6,1-1.8,3-2.7,4.4c-3.2,5.2-4.4,7.1-4.4,7.3c0,0.1-0.1,0.2-0.2,0.3c-0.1,0.1-1.8,2.7-3.2,5
	c-0.9,1.4-5.7,9.3-8.5,13.9c-1.1,1.8-2,3.3-2,3.4c0,0.1-0.1,0.2-0.2,0.3c-0.2,0.1-2.2,3.3-6,9.5c-1.4,2.3-2.8,4.6-6.3,10.3
	c-0.8,1.3-1.4,2.4-1.4,2.5c0,0.1-0.1,0.2-0.2,0.3c-0.1,0-0.5,0.6-0.9,1.3c-0.4,0.7-1.1,1.8-1.6,2.6c-0.9,1.4-2.2,3.5-5.2,8.4
	c-0.8,1.3-1.8,2.9-2.2,3.6c-2.2,3.5-3.8,6.2-3.8,6.4c0,0.1-0.1,0.2-0.2,0.3s-0.6,0.9-1.2,1.8c-1,1.7-1.5,2.5-2.6,4.2
	c-0.3,0.4-1.2,2-2.1,3.4c-1.6,2.7-3.9,6.4-6.4,10.4c-0.8,1.3-1.4,2.4-1.4,2.5c0,0.1-0.1,0.2-0.2,0.4s-0.7,1-1.3,2
	c-0.6,1-1.5,2.4-2,3.3c-0.5,0.8-1.1,1.9-1.4,2.3c-0.2,0.4-0.5,0.9-0.6,1c-0.1,0.1-1.1,1.8-2.3,3.7c-1.2,1.9-3,4.8-4,6.5
	c-1,1.7-2,3.2-2,3.4c-0.1,0.2-0.2,0.4-0.3,0.4c-0.1,0.1-0.5,0.6-0.8,1.3c-0.4,0.7-1.1,1.8-1.5,2.5c-3.7,5.9-3.5,5.4-2.5,7
	c0.4,0.7,2.1,3.6,3.7,6.5c1.6,2.9,3.5,6.3,4.2,7.5c0.7,1.2,1.6,2.8,1.9,3.5c1.2,2.1,1.8,3.3,2,3.3c0.1,0,0.2,0.2,0.2,0.3
	s0.6,1.3,1.3,2.5c0.7,1.2,1.3,2.3,1.3,2.3c0,0.1,0.2,0.5,0.5,0.9c0.3,0.4,1.3,2.2,2.2,3.9c0.9,1.7,2,3.6,2.4,4.2
	c0.4,0.7,1.1,1.9,1.5,2.7c0.4,0.8,1,1.8,1.2,2.1c0.2,0.3,0.4,0.6,0.4,0.7c0,0.1,6.8,12.1,7.3,12.9c0.1,0.2,0.9-1,2.3-3.4
	c1.2-2,2.7-4.6,3.4-5.8s1.3-2.2,1.3-2.3c0-0.1,0.1-0.2,0.2-0.3c0.1,0,0.9-1.3,1.8-2.8c0.9-1.5,2.2-3.8,3-5.1
	c0.8-1.3,1.6-2.7,1.9-3.2c0.3-0.4,1.2-2,2-3.4c1.3-2.2,3-5,4.7-8c0.2-0.4,1.2-2,2.1-3.5c0.9-1.6,1.7-2.9,1.7-3s0.1-0.3,0.2-0.4
	c0.2-0.2,2.6-4.3,5-8.3c0.6-1,2-3.3,3.1-5.3c1.2-2,2.1-3.6,2.1-3.7c0-0.1,0.1-0.2,0.2-0.2c0.1,0,0.5-0.6,0.9-1.3
	c0.4-0.7,0.8-1.3,0.9-1.5c1-1.7,2.9-5,3.6-6.1c0.4-0.8,0.9-1.5,0.9-1.5c0.1,0,2.8,1.5,10.1,5.6c7.7,4.4,7.5,4.3,8.8,5
	c0.6,0.3,3.9,2.2,7.4,4.2c3.5,2,6.8,3.9,7.5,4.2c1.3,0.7,13.1,7.4,15.4,8.7c0.8,0.4,2.2,1.3,3.3,1.9s2.5,1.4,3.3,1.8
	c0.8,0.4,1.9,1.1,2.4,1.3c3.8,2.1,9.8,5.5,10.2,5.8c0.3,0.2,0.6,0.4,0.7,0.4s0.8,0.4,1.6,0.8c0.8,0.5,2.6,1.5,4,2.3l2.5,1.5l0.8-0.4
	c0.5-0.2,1.6-0.9,2.5-1.4c0.9-0.5,1.7-1,1.8-1c0.1,0,0.4-0.2,0.7-0.4c0.3-0.2,1.2-0.7,2-1.2s2.1-1.1,2.9-1.6
	c6.6-3.8,15.4-8.8,21-11.9c3.6-2.1,9.5-5.4,13-7.4c3.5-2,7.3-4.1,8.3-4.7c1.1-0.6,2.3-1.3,2.8-1.6c0.5-0.3,0.9-0.5,1-0.5
	c0.1,0,0.8-0.4,1.6-0.8c4.6-2.6,7.7-4.4,12.4-7.1c2.9-1.6,5.7-3.2,6.1-3.5l0.8-0.5l0.4,0.6c0.2,0.3,1.5,2.4,2.7,4.5
	c2.4,4.2,3.2,5.4,4,6.6c0.3,0.4,1.2,2,2.1,3.5c0.9,1.5,3,5.1,4.8,8c1.7,2.9,3.3,5.7,3.6,6.1c0.2,0.4,0.6,1.1,0.9,1.5
	c0.6,0.9,3.1,5.1,5.2,8.7c0.8,1.4,1.6,2.6,1.7,2.8c0.4,0.7,6.1,10.3,8.9,15c1.6,2.7,3.9,6.6,5.1,8.6l2.2,3.7l3.1-5.5
	c1.7-3,3.4-5.9,3.7-6.5c1.2-2.2,5.1-9,7-12.3c0.6-1.1,1.2-2.1,1.2-2.2c0-0.1,0.5-1,1-1.8c2.7-4.6,3.3-5.6,3.3-5.7
	c0-0.1,0.2-0.5,0.5-1c0.3-0.5,0.8-1.4,1.2-2c0.3-0.6,1.4-2.5,2.4-4.2c1-1.7,2-3.4,2.2-3.9c0.3-0.5,0.9-1.5,1.3-2.3
	c0.4-0.8,1.5-2.6,2.3-4l1.4-2.5l-2.4-4c-1.3-2.2-3.1-5.1-3.9-6.5c-0.8-1.4-1.8-2.9-2-3.4c-0.3-0.5-1.6-2.7-2.9-4.9
	c-1.3-2.2-3.6-5.9-5-8.3c-1.4-2.3-3.1-5.1-3.8-6.2c-0.7-1.1-1.5-2.4-1.8-3s-0.8-1.3-1-1.6c-0.4-0.6-4.8-7.8-6-9.9
	c-1.5-2.6-2.8-4.6-2.9-4.6c-0.1,0-0.2-0.2-0.2-0.3c0-0.1-0.4-0.9-0.9-1.7c-0.5-0.8-1.1-1.8-1.3-2.2c-0.2-0.4-1.2-2.1-2.2-3.7
	c-1-1.6-2.5-4.2-3.4-5.6c-4-6.6-5.6-9.3-6.6-11c-0.6-1-1.3-2.2-1.7-2.8c-0.3-0.6-1-1.7-1.5-2.5c-0.5-0.8-2.2-3.5-3.7-6.1
	c-6.6-10.9-7.8-12.9-7.9-13c-0.1,0-0.2-0.2-0.2-0.3c0-0.1-1-1.8-2.2-3.8c-1.2-2-2.3-3.8-2.4-4c-0.1-0.2-1.4-2.4-2.9-4.9
	c-3.4-5.6-3.6-5.9-4.7-7.9c-0.5-0.9-1.2-2-1.4-2.4c-0.9-1.3-1.7-2.7-2.1-3.4c-0.2-0.4-1.2-2-2.2-3.7s-2.2-3.7-2.7-4.4l-0.8-1.4
	h-30.4c-16.7,0-30.4,0.1-30.4,0.1c0,0.2,2.7,5,3,5.3c0.1,0.1,0.3,0.5,0.5,0.9c0.7,1.2,4.3,7.5,6,10.3c0.3,0.5,1.8,3.1,3.4,5.8
	c1.6,2.7,4,6.7,5.3,8.9c1.3,2.2,2.5,4.2,2.6,4.3c0.1,0.2,0.3,0.6,0.6,1c0.4,0.7,1.7,2.8,6.2,10.5c1.7,2.8,3.1,5.1,3.2,5.2
	c0.1,0,0.2,0.2,0.2,0.3s0.6,1.1,1.3,2.3c0.7,1.2,2.1,3.6,3.2,5.4c4,6.7,5.5,9.3,5.8,9.6c0.1,0.1,0.2,0.3,0.2,0.4
	c0,0.1,0.3,0.6,0.7,1.2c0.8,1.3,0.9,1.2-1.9,2.6c-1,0.5-2.8,1.4-4,2.1c-1.3,0.7-3.2,1.7-4.2,2.3c-3.6,1.9-12.9,6.9-15.2,8.1
	c-0.8,0.5-2.4,1.3-3.6,1.9c-1.1,0.6-3.4,1.8-5,2.7c-1.6,0.9-5.5,2.9-8.6,4.6l-5.6,3l-2-1c-1.1-0.6-2.6-1.3-3.4-1.8
	c-0.8-0.4-2.5-1.4-3.9-2.1c-1.4-0.7-4-2.1-5.8-3.1c-1.8-1-4.4-2.4-5.9-3.1s-3.1-1.6-3.7-2c-0.6-0.3-1.8-1-2.6-1.4
	c-5.2-2.8-21.1-11.3-21.1-11.3c0,0,0.7-1.3,1.5-2.7c0.9-1.5,2.1-3.6,2.7-4.6c1.4-2.5,1.9-3.2,6.4-10.9c2.1-3.5,3.9-6.6,4.2-7
	c1.3-2.3,4.7-8,6.2-10.5c2.7-4.4,5.7-9.6,6.2-10.4c0.7-1.2,5.9-10,6.6-11.1c0.3-0.5,0.8-1.3,1-1.7c0.2-0.4,2.2-3.7,4.3-7.3
	c2.1-3.6,3.9-6.6,4-6.7c0-0.1-13.6-0.2-30.4-0.2h-30.5L132.4,2.2"/>
<path class="st0" d="M88.8,204.8c0.8,1.4,1.8,3,1.8,3.1c0,0,0.3,0.6,0.7,1.2c1.3,2.2,5.5,9.6,6.4,11.1c0.5,0.8,1,1.9,1.3,2.3
	c0.3,0.4,0.8,1.3,1.1,2c0.4,0.7,1.5,2.6,2.5,4.4c1,1.8,1.9,3.3,1.9,3.3c0,0,0.3,0.6,0.7,1.2c0.4,0.6,1.1,1.9,1.6,2.8
	c0.5,0.9,1.7,2.9,2.6,4.6c0.9,1.6,1.9,3.4,2.2,3.9c0.7,1.3,2.4,4.2,5.6,9.8l1.1,1.8H200h81.7l1.9-3.4c1-1.9,2.1-3.8,2.4-4.2
	c0.3-0.5,1.2-2,1.9-3.4c1.5-2.7,3.4-6.1,5.3-9.3c0.6-1.1,1.2-2.1,1.2-2.1c0-0.1,0.2-0.5,0.5-0.9c0.3-0.4,0.8-1.3,1.2-2
	c0.4-0.7,1.9-3.3,3.3-5.9c1.5-2.6,3.4-5.9,4.2-7.4c0.8-1.5,1.7-3.1,2-3.5c0.8-1.4,4.3-7.6,4.9-8.8c0.3-0.6,0.6-1.2,0.6-1.2
	s-50.1-0.1-111.4-0.1H88.3L88.8,204.8"/>
<polyline class="st1" points="289.9,276.3 289.9,279.3 292.9,279.3 296,279.3 295.9,276.4 295.9,273.5 292.9,273.4 289.9,273.4 
	289.9,276.3 "/>
<path class="st1" d="M328.4,273.5c-0.2,0.1-0.3,0.9-0.3,2.9v2.8h3h3v-2.9v-2.9l-2.8,0C329.9,273.4,328.5,273.5,328.4,273.5"/>
<polyline class="st1" points="0.2,276.7 0.2,279.5 5,279.5 9.8,279.5 9.8,292.4 9.9,305.3 13,305.4 16.2,305.4 16.2,292.4 
	16.3,279.5 21.1,279.5 25.8,279.5 25.8,276.7 25.8,273.8 13,273.8 0.2,273.8 0.2,276.7 "/>
<path class="st1" d="M212.4,289.6c0,8.7,0.1,15.7,0.2,15.7c0.1,0,1.4,0,3,0l2.8,0l0.1-15.8l0.1-15.8h-3h-3V289.6"/>
<path class="st1" d="M209,304.5c-0.2-0.4-0.6-1.8-1.1-3c-1.7-4.8-3.6-10.3-4.4-12.6c-0.5-1.3-1.9-5.2-3.1-8.7l-2.2-6.4h-3.8h-3.8
	l-1.4,3.9c-0.8,2.1-1.7,4.9-2.2,6.1c-4,11-7.6,21.4-7.5,21.4c0.1,0.1,6.7,0.1,6.8,0c0,0,0.5-1.5,1.1-3.2c0.6-1.7,1.1-3.1,1.2-3.1
	c0.1,0,2.7,0.1,5.8,0.1h5.7l0.2,0.7c0.1,0.4,0.6,1.8,1,3.1c0.4,1.3,0.8,2.5,0.9,2.5c0.1,0,1.8,0,3.6,0l3.4-0.1L209,304.5z
	 M194.2,293.4h-4l0.7-2.2c2.2-7.1,3.3-10.1,3.4-9.9c0.1,0.1,0.9,2.5,1.7,5.3c0.9,2.7,1.7,5.4,1.8,5.9l0.3,0.9H194.2z"/>
<path class="st1" d="M62.1,281.7c-1.3,0.4-2.9,1.5-3.7,2.7l-0.6,1v-1.7v-1.7h-2.9h-2.9v11.6v11.6l2.6,0c1.4,0,2.8,0,3,0.1
	c0.4,0,0.4-0.5,0.5-8c0.1-10.1,0.3-10.5,3.6-10.7c3.7-0.2,3.8,0.2,3.9,10.4l0.1,8.2h2.8c1.5,0,2.9,0,3,0c0.1,0,0.2-3.5,0.3-7.9
	l0.1-7.9l0.5-1c1.4-2.5,5-2.7,6.3-0.4c0.5,0.9,0.5,0.9,0.6,9.1c0.1,4.5,0.2,8.1,0.3,8.1c0.1,0,1.4-0.1,3-0.1h2.8l-0.1-9.3
	c-0.1-9.2-0.1-9.3-0.6-10.4c-2.1-4.7-9.1-5.7-12.7-1.8c-0.6,0.6-1.1,1.1-1.1,1.1C69.3,282.1,65.5,280.7,62.1,281.7"/>
<path class="st1" d="M261.1,281.9c-1.1,0.4-2.6,1.7-3.3,2.8c-0.4,0.5-0.4,0.5-0.4-1l0-1.6l-3,0.1l-3,0.1l-0.1,11.6l-0.1,11.6h3.2
	h3.2v-7.9c0-9.9,0.2-10.5,3.5-10.8c3.7-0.2,3.8,0.2,3.8,10.5v8.1l3.1,0.1c1.7,0,3.1,0,3.1,0c0.1,0,0.1-3.5,0.1-7.6
	c0-10.2,0.5-11.4,4.5-11c2.8,0.2,3,0.9,3.1,10.6l0.1,8h3h3l-0.1-9.2l-0.1-9.2l-0.7-1.4c-2.5-5-9.5-5.6-13.1-1.1l-0.5,0.6l-0.4-0.5
	C267.8,281.6,264.4,280.6,261.1,281.9"/>
<path class="st1" d="M312.4,281.7c-1.8,0.6-2.9,1.5-3.9,2.9c-0.6,0.9-0.6,0.9-0.5-1.1l0-1.5h-3.1h-3.1v11.6v11.6l2.9,0.1
	c1.6,0,3,0,3.1,0c0.1,0,0.2-2.8,0.2-7.4c0-8.3,0-8.6,1.5-10.1c2-2,5.9-1.7,6.9,0.7c0.3,0.7,0.4,2,0.4,8.8l0.1,8h3h3l-0.1-9.2
	L323,287l-0.7-1.4C320.7,282.3,316.1,280.5,312.4,281.7"/>
<path class="st1" d="M376.6,281.6c-1.1,0.3-2.7,1.4-3.6,2.5l-0.8,1l-0.1-1.5l-0.1-1.5h-3h-3v11.6v11.6h3.1h3.1l0.1-8.1
	c0.1-7.7,0.1-8.1,0.5-8.8c1.3-2.3,5.1-2.4,6.4-0.2c0.6,1.1,0.6,1.7,0.7,10.1l0,7.1l2.8,0.1c1.6,0,2.9,0,3,0c0.1,0,0.2-2.8,0.2-7.5
	c0-10.2,0.3-11.1,4-11.1c3.3,0,3.5,0.5,3.5,10.6l0.1,8l2.9,0.1c1.6,0,3,0,3,0c0.4-0.4,0.1-17.7-0.3-18.9c-1.8-5.7-9.7-6.9-13.5-2.1
	c-0.5,0.6-0.5,0.6-0.8,0.2C383.1,281.9,380.1,280.8,376.6,281.6"/>
<path class="st1" d="M224.5,290.7c0,9.1,0.1,9.8,1,11.7c2.2,4.3,9.6,4.9,13.1,1l1.1-1.2l0.1,1.6l0.1,1.6l0.7,0c0.4,0,1.7,0,2.9,0
	l2.2,0v-11.6v-11.6h-3h-3l-0.1,7.5l-0.1,7.5l-0.6,1.1c-1.6,3.1-6,3.5-7.7,0.7c-0.4-0.7-0.4-1.2-0.5-8.8l-0.1-8.1h-3h-3L224.5,290.7"
	/>
<path class="st1" d="M289.9,293.7v11.6l2.8,0.1c1.6,0,2.9,0,3,0c0.1,0,0.2-4.3,0.2-11.7v-11.6h-3h-3V293.7"/>
<path class="st1" d="M328.1,293.7v11.6l2.9,0.1c1.6,0,3,0,3,0c0.1,0,0.2-5.3,0.2-11.7v-11.6h-3h-3V293.7"/>
<path class="st1" d="M339.5,291.2c0.1,10.3,0.1,10.4,1.9,12.5c2.8,3.2,9.1,3.1,12.1-0.2l1.1-1.2v1.5c0,1.5,0,1.5,0.5,1.5
	c0.3,0,1.6,0,2.9,0l2.3,0l0.1-11.6l0.1-11.6h-3h-3v7.1c0,10.1-0.7,11.8-5.2,11.5c-3.4-0.2-3.6-0.6-3.7-10.7l-0.1-8h-3h-3
	L339.5,291.2"/>
<path class="st1" d="M44.5,284.9c-2.7-2.8-7.7-4.2-11.8-3.3c-6.5,1.4-10.1,7.5-8.8,15.1c2,11.5,19.1,12.8,23,1.7
	C48.4,294,47.3,287.9,44.5,284.9z M38.7,299.9c-2,1.3-5.2,1.1-6.9-0.5c-3.2-3.1-2.1-11.4,1.7-12.5c1.4-0.4,4.1-0.2,5.1,0.5
	C42,289.6,42.1,297.6,38.7,299.9z"/>
<path class="st1" d="M133.7,282.1h-2.9v1.7c0,1.6,0,1.7-0.4,1.1c-1.9-2.8-5.5-4.1-8.9-3.3c-8.8,2.3-10.3,19-2,22.9
	c3.9,1.8,9.6,0.9,10.5-1.8c0.4-1.2,0.6-0.3,0.5,1.9c-0.1,3.4-0.8,4.7-3,5.5c-2.3,0.8-6.1-0.3-6.1-1.7c0-0.4-0.3-0.4-3.4-0.4h-3.4
	l0.1,1c1,7.2,17.1,8.4,20.7,1.4c1.1-2.1,1.1-2.6,1.1-15.9v-12.4H133.7z M129.4,298.2c-1.5,2.4-4.8,2.9-6.9,1.1
	c-3.4-3-2.3-11.3,1.5-12.3c1.1-0.3,1.2-0.3,2.5,0C130.2,287.7,131.8,294.1,129.4,298.2z"/>
<path class="st1" d="M163.2,287.1c-2.2-4.3-8.8-6.8-14.1-5.2c-6.4,1.9-9.5,7.8-8,15.2c2.3,11.3,19,12.4,22.9,1.5
	C165.1,295.4,164.7,290.1,163.2,287.1z M155.2,300.3c-4.9,2.2-9.1-2.3-8-8.6c0.8-4.4,4.6-6.5,8.2-4.5
	C159.4,289.5,159.3,298.5,155.2,300.3z"/>
<path class="st1" d="M111.2,304.5c-0.9,0-1-0.9-1.1-9.6l-0.1-8.4l-0.6-1.2c-1.6-3.2-7.2-4.7-12.7-3.5c-3.5,0.8-6.1,3.6-6.2,6.8
	l0,0.9l2.8,0l2.8,0l0.2-0.6c1.3-3.9,8.6-3.3,7.6,0.7c-0.2,0.8-1,1.1-4.2,1.6c-5.7,0.9-6.5,1.2-8.1,2.5c-2.7,2.3-3,7.8-0.5,10.3
	c3,3,8.8,2.7,12.1-0.5l0.8-0.8l0.1,1.1c0.2,1.6,0.1,1.6,3.7,1.6c3.2,0,3.3,0,3.3-0.4C111.4,304.7,111.3,304.5,111.2,304.5z
	 M100.5,301.3c-2.8,0.9-4.7-0.1-4.7-2.4c0-2.4,0.6-2.8,5-3.7c1-0.2,2.1-0.5,2.4-0.6c0.3-0.1,0.6-0.2,0.7-0.2c0.1,0,0.2,0.8,0.2,1.8
	C104,298.9,103,300.5,100.5,301.3z"/>
</svg>
