<?xml version="1.0" encoding="UTF-8" standalone="no"?>
<!-- Created with Inkscape (http://www.inkscape.org/) -->
<svg id="svg2" xmlns:rdf="http://www.w3.org/1999/02/22-rdf-syntax-ns#" xmlns="http://www.w3.org/2000/svg" xml:space="preserve" height="38.328" viewBox="0 0 300 38.328098" width="300" version="1.1" xmlns:cc="http://creativecommons.org/ns#" xmlns:dc="http://purl.org/dc/elements/1.1/"><metadata id="metadata8"><rdf:RDF><cc:Work rdf:about=""><dc:format>image/svg+xml</dc:format><dc:type rdf:resource="http://purl.org/dc/dcmitype/StillImage"/><dc:title/></cc:Work></rdf:RDF></metadata><g id="g10" transform="matrix(1.25 0 0 -1.25 -173.24 288.96)"><g id="g3669" transform="matrix(2.2222 0 0 2.2222 928.32 325.97)"><g id="g3596" transform="translate(-336.7 -44.228)"><path id="path3598" d="m0 0c0 0.608-0.512 1.104-1.12 1.104-0.641 0-1.121-0.496-1.121-1.104 0-0.656 0.48-1.136 1.121-1.136 0.608 0 1.12 0.464 1.12 1.136m19.912-9.556-0.048 0.432h-0.336c-0.72 0-0.72 0.368-0.72 1.649v9.012c-0.865 0-1.585-0.096-2.914-0.369v-0.416c0.064 0 0.257 0.032 0.449 0.032 0.544 0 0.544-0.624 0.544-2.033v-1.312c-0.304 0.048-0.592 0.096-1.057 0.096-1.328 0-4.593-0.528-4.593-4.194 0-2.433 1.76-3.569 3.537-3.569 1.024 0 1.793 0.512 2.193 0.736l0.416-0.736c0.848 0.16 1.729 0.352 2.529 0.672m-29.276 7.379c0 0.256-0.144 2.401-0.208 2.753h-8.899c-0.064-0.352-0.209-2.497-0.209-2.753h0.577c0.416 1.729 0.592 2.145 2.401 2.145h0.64v-7.635c0-1.633 0-1.729-1.041-1.857l-0.384-0.048v-0.416h4.93v0.416l-0.384 0.048c-1.04 0.128-1.04 0.224-1.04 1.857v7.635h0.64c1.809 0 1.985-0.416 2.401-2.145h0.576zm10.308-7.811v0.416l-0.336 0.032c-0.576 0.048-0.656 0.224-0.656 1.073v6.002c-0.832-0.048-1.713-0.176-2.913-0.576v-0.464c0.064 0.016 0.272 0.096 0.512 0.096 0.48 0 0.48-0.721 0.48-1.281v-3.777c0-0.849-0.08-1.025-0.656-1.073l-0.336-0.032v-0.416h3.905zm-4.674 6.819c-0.224 0.24-0.624 0.704-1.296 0.704-0.816 0-1.489-0.768-1.809-1.104 0 0.48-0.08 0.816-0.128 1.104-1.152-0.176-1.488-0.288-2.689-0.688v-0.416c0.096 0.032 0.272 0.096 0.512 0.096 0.48 0 0.48-0.721 0.48-1.281v-3.713c0-0.849-0.08-1.025-0.656-1.073l-0.336-0.032v-0.416h4.226v0.416l-0.64 0.08c-0.673 0.08-0.673 0.288-0.673 1.425v3.889c0.208 0.256 0.4 0.32 0.641 0.32 0.224 0 1.152-0.384 1.408-0.448 0.512 0.352 0.736 0.625 0.96 1.137m38.592-4.754c0 2.449-3.601 2.177-3.601 3.857 0 0.561 0.4 0.993 0.896 0.993 1.184 0 1.537-1.297 1.585-1.825h0.64c0 0.656-0.016 1.361-0.176 1.985-0.384 0.208-1.073 0.448-1.921 0.448-2.849 0-2.849-1.969-2.849-2.097 0-2.561 3.601-2.097 3.601-4.001 0-0.577-0.384-1.057-1.056-1.057-1.201 0-1.921 1.281-2.017 2.161h-0.64c0-0.96 0.128-1.633 0.288-2.273 0.576-0.288 1.264-0.496 2.209-0.496 2.161 0 3.041 1.072 3.041 2.305m-6.531 1.728c0 2.578-1.888 3.73-3.985 3.73-2.017 0-4.066-1.216-4.066-3.97 0-2.689 1.905-3.793 3.954-3.793s4.097 1.184 4.097 4.033m-18.375 0c0 2.578-1.889 3.73-3.986 3.73-2.016 0-4.065-1.216-4.065-3.97 0-2.689 1.905-3.793 3.953-3.793 2.049 0 4.098 1.184 4.098 4.033m6.931-2.817c-0.176-0.144-0.512-0.288-0.929-0.288-1.28 0-2.673 1.249-2.673 3.41 0 1.616 0.817 2.817 2.225 2.817 0.769 0 1.073-0.288 1.377-0.56v-5.379zm9.396 2.481c0-1.264-0.353-3.089-1.841-3.089-1.537 0-2.113 1.841-2.113 3.522 0 1.328 0.4 3.025 1.857 3.025 1.616 0 2.097-1.777 2.097-3.458m-18.376 0c0-1.264-0.352-3.089-1.841-3.089-1.536 0-2.112 1.841-2.112 3.522 0 1.328 0.4 3.025 1.856 3.025 1.617 0 2.097-1.777 2.097-3.458" fill="#003168"/></g><g id="g3600" transform="translate(-285.07 -49.83)"><path id="path3602" d="m0 0c0 1.953-0.832 3.842-1.937 4.962-0.704 0.704-1.344 1.136-2.289 1.553l-0.096-0.176c0.448-0.273 0.817-0.561 1.249-0.993 1.232-1.184 2.049-3.233 2.049-4.914 0-0.256 0-0.768-0.032-1.136-0.144 0.72-0.593 1.488-1.217 2.113-0.176 0.176-0.432 0.448-0.624 0.544 0-0.368-0.144-1.217-0.32-1.713 0.24-0.192 0.368-0.336 0.592-0.544 0.512-0.528 0.848-1.201 0.848-1.761 0-0.32-0.144-0.656-0.4-0.912s-0.784-0.448-1.312-0.448c-0.625 0-1.553 0.336-2.033 0.688 0.976 0.992 1.568 2.065 1.937 3.409 0.16 0.577 0.24 1.153 0.24 1.729 0 1.04-0.256 2.033-0.705 2.817-0.72 1.249-1.808 1.953-3.233 1.953-1.697 0-3.281-0.832-4.466-2.033-1.36-1.376-2.033-3.057-2.033-4.786 0-0.304 0.016-0.592 0.064-0.928h0.193c0.016 0.512 0.08 0.992 0.224 1.584 0.272 1.073 1.008 2.257 1.936 3.186 0.673 0.672 1.665 1.328 2.353 1.6-0.528-0.432-1.04-1.232-1.296-2.129-0.064-0.24-0.128-0.56-0.128-0.784 0.32 0.192 1.12 0.48 1.632 0.56 0.112 0.737 0.385 1.553 0.929 2.097 0.272 0.272 0.592 0.448 0.992 0.448 0.608 0 1.089-0.448 1.393-0.96 0.304-0.528 0.496-1.473 0.416-2.113-0.672 0.192-1.313 0.288-1.953 0.288s-1.28-0.096-1.969-0.288c-1.12-0.304-2.145-0.88-2.881-1.616-0.784-0.785-1.392-1.873-1.392-2.994 0-1.168 0.592-2.145 1.376-2.945 1.313-1.312 3.185-1.985 5.026-1.985 1.489 0 2.817 0.513 4.018 1.393l-0.096 0.16c-0.961-0.528-1.969-0.784-3.105-0.784-1.713 0-3.346 0.528-4.61 1.488 0.384-0.128 0.816-0.192 1.136-0.192 0.56 0 1.585 0.16 2.081 0.464-0.352 0.208-0.992 0.721-1.329 1.121-0.48-0.192-1.072-0.336-1.6-0.336-0.496 0-1.041 0.112-1.393 0.48-0.208 0.24-0.336 0.544-0.336 0.864 0 0.672 0.368 1.233 0.816 1.697 0.321 0.336 0.753 0.64 1.089 0.8 0.368-1.36 0.992-2.449 1.969-3.425 1.216-1.201 2.801-1.873 4.193-1.873 1.057-0.016 1.953 0.288 2.705 1.04 0.801 0.817 1.329 2.257 1.329 3.73m-5.282 1.12c-0.336-1.04-0.961-1.984-1.713-2.721-0.736 0.785-1.232 1.809-1.488 2.833 0.432 0.097 0.88 0.145 1.328 0.145 0.64 0 1.265-0.096 1.873-0.257" fill="#00927b"/></g><g id="g3604" transform="translate(-247.38 -54.216)"><path id="path3606" d="m0 0v0.416c-0.64 0-0.784 0.16-3.329 4.194 1.776 1.825 1.792 2.065 2.753 2.209l0.304 0.048v0.416h-3.538v-0.416l0.513-0.064c0.224-0.032 0.496-0.08 0.496-0.208 0-0.24-0.16-0.465-0.72-1.121l-0.529-0.608c-0.592-0.672-0.928-0.704-1.504-0.704v7.363c-0.865 0-1.585-0.096-2.913-0.368v-0.417c0.064 0 0.256 0.032 0.448 0.032 0.544 0 0.544-0.624 0.544-2.032v-7.219c0-0.849-0.096-1.025-0.656-1.073l-0.336-0.032v-0.416h3.905v0.416l-0.336 0.032c-0.576 0.048-0.656 0.224-0.656 1.073v2.032h0.176c0.672 0 0.688-0.432 1.52-1.68 0.833-1.281 0.929-1.873 2.642-1.873h1.216zm-26.699 3.009c0 1.969-1.712 2.609-2.705 2.753v0.032c0.848 0.256 2.193 0.849 2.193 2.561 0 2.209-2.657 2.209-3.425 2.209h-4.77v-0.416l0.384-0.048c0.752-0.096 0.752-0.096 0.752-1.873v-5.858c0-1.809 0.016-1.809-0.752-1.905l-0.384-0.048v-0.416h4.161c2.385 0 4.546 0.672 4.546 3.009m17.607-3.009v0.416l-0.336 0.032c-0.576 0.048-0.656 0.224-0.656 1.073v3.153c0 2.161-0.976 2.849-2.417 2.849-1.361 0-2.129-0.576-2.529-0.928v0.928c-0.832-0.048-1.681-0.176-2.881-0.576v-0.464c0.064 0.016 0.272 0.096 0.512 0.096 0.48 0 0.48-0.721 0.48-1.281v-3.777c0-0.849-0.08-1.025-0.624-1.073l-0.336-0.032v-0.416h3.873v0.416l-0.336 0.032c-0.576 0.048-0.656 0.224-0.656 1.073v4.465c0.256 0.273 0.672 0.609 1.328 0.609 1.665 0 1.665-1.537 1.665-2.801v-2.273c0-0.849-0.08-1.025-0.656-1.073l-0.336-0.032v-0.416h3.905zm-9.315 0.16-0.048 0.208-0.129-0.016c-1.024 0-1.024 1.185-1.024 2.337v1.969c0 1.825-0.352 2.865-2.369 2.865-1.617 0-2.721-0.912-3.441-1.697 0.128-0.384 0.208-0.512 0.432-0.816h0.16c0.208 0.48 0.672 1.585 1.905 1.585 1.136 0 1.392-0.849 1.392-1.793v-0.384c-1.328-0.352-4.145-0.897-4.145-2.913 0-1.025 0.848-1.745 2.096-1.745 1.121 0 1.777 0.496 2.225 0.816 0.256-0.4 0.545-0.816 1.569-0.816 0.704 0 1.168 0.288 1.377 0.4m-10.885 7.811c0-1.728-1.088-2.065-2.305-2.065h-0.592v3.938c0.272 0.08 0.544 0.112 0.816 0.112 1.233 0 2.081-0.752 2.081-1.985m0.512-5.186c0-1.264-0.64-2.177-2.112-2.177-0.433 0-0.881 0.096-1.297 0.256v4.434h0.688c1.937 0 2.721-1.248 2.721-2.513m7.315-1.713c-0.128-0.096-0.432-0.384-0.976-0.384-0.72 0-1.185 0.577-1.185 1.345 0 1.184 1.009 1.664 1.921 1.664l0.176-0.016v-1.744c0-0.304 0.048-0.705 0.064-0.865" fill="#003168"/></g></g></g></svg>
