<?xml version="1.0" encoding="utf-8"?>
<!-- Generator: Adobe Illustrator 25.4.1, SVG Export Plug-In . SVG Version: 6.00 Build 0)  -->
<svg version="1.1" id="Layer_1" xmlns="http://www.w3.org/2000/svg" xmlns:xlink="http://www.w3.org/1999/xlink" x="0px" y="0px"
	 viewBox="0 0 1618.2 503.8" style="enable-background:new 0 0 1618.2 503.8;" xml:space="preserve">
<style type="text/css">
	.st0{fill:#7E888E;}
	.st1{fill:#9E1B32;}
</style>
<g>
	<path class="st0" d="M71.4,66.8c-4.4,0-8.3,0.8-12.2,2.2l3.3-8.8c1.1-3.2,1.9-3.2,6.1-3.2H122c2.3,0,7.2,0,13.1-0.7l-2.6,7.6
		c-1,2.9-1.4,3-6.5,3h-22.8v65.8c0,10.6,0.7,13,2.1,16.4h-17c1.2-3.5,2.1-5.5,2.1-16.4V66.8H71.4z"/>
	<path class="st0" d="M217,94.9V73.3c0-11.1-0.8-13.1-2.2-16.3h17.4c-1.2,3.2-2.2,5.4-2.2,16.3v59.5c0,10.5,0.7,12.7,2.1,16.3h-17.3
		c1.4-3.3,2.2-5.4,2.2-16.3v-27.4h-38.7v27.4c0,10.5,0.7,12.7,2.2,16.3h-17.3c1.2-3.3,2.1-5.4,2.1-16.3V73.3
		c0-10.9-0.8-13.1-2.2-16.3h17.4c-1.4,3.2-2.2,5.4-2.2,16.3v21.5H217z"/>
	<path class="st0" d="M310.5,105.9c-3.6-0.7-8-0.7-9.9-0.7h-13v33.4h18.6c6.9,0,9.1,0,14.4-1.9l-2.8,9.8c-0.4,1.5-0.7,2.6-3,2.6
		c-1.5,0-19.9-0.3-25.6-0.3c-5,0-10.6,0.1-16.7,0.3c1.4-3.3,2.2-5.4,2.2-16.4v-60c0-10.9-0.8-13.1-2.2-16.4c2.2,0.3,4.8,0.4,7.6,0.6
		c2.6,0.1,5.4,0.1,7.6,0.1h22.8c4.6,0,5.1,0,5.2,3.6l0.4,8.2c-3-1.4-6.2-1.7-9.3-1.7h-19.3v28h14c5.7,0,7-0.1,9-0.7V105.9z"/>
	<path class="st0" d="M473.4,73.5c0-11.1-0.8-13.3-2.2-16.4h17.5c-1.4,3.2-2.2,5.4-2.2,16.4v51.9c0,14.4,2.5,17.5,4.8,20.6
		l-12.3,4.6c-2.1-2.3-2.6-3.6-3.9-6.9c-3.5,2.2-11.5,6.9-25.7,6.9c-23.2,0-36.2-12-36.2-37.3c0-14.1,2.5-31.2,3.7-39
		c1.2-8.7,1.4-10.6,1.4-12.7c0-1.5,0-2.5-0.3-4.6h16.7c-7.2,14.9-8.8,48.5-8.8,55c0,17.8,7,28.2,24.9,28.2c12.8,0,19.3-5.4,22.5-8
		V73.5z"/>
	<path class="st0" d="M591.7,128.7c-0.1-5.5-0.3-6.1-0.3-10.6l-0.3-44.9c-0.1-10.8-0.8-12.8-1.9-16.2h16.3
		c-1.4,3.2-2.2,5.4-2.2,16.4v51.1c0.1,18.9,0.1,19.2,0.5,24.6h-10.8l-51.2-74c0,2.5,0,3.6,0.1,12.6l0.3,44.6
		c0,5.7,0.1,11.5,1.8,16.9h-15.9c1.2-3.3,2.1-5.5,2.1-16.4V77.5c0-11.1-0.3-15.5-3.6-20.4h15.5L591.7,128.7z"/>
	<path class="st0" d="M663.2,57c-1.2,3-2.2,5.4-2.2,16.4v59.3c0,10.5,0.7,12.7,2.1,16.4h-17.1c1.2-3.3,2.1-5.4,2.1-16.4V73.5
		c0-11.1-0.8-13.1-2.2-16.4H663.2z"/>
	<path class="st0" d="M714.2,57c0.7,4.1,1,4.4,4.8,14l23.1,56.1l21.4-52.9c4.7-12.4,5-13,5.4-15.2c0-0.4,0.1-1.5,0.1-1.9h17.4
		c-4.6,6.2-6.6,9.8-13.4,25l-30.5,68.5h-2.6l-29.7-69.1c-4.1-9.4-7.7-17.1-13.3-24.5H714.2z"/>
	<path class="st0" d="M853.6,105.9c-3.6-0.7-8-0.7-9.9-0.7h-13v33.4h18.7c6.9,0,9.1,0,14.4-1.9l-2.8,9.8c-0.4,1.5-0.7,2.6-3,2.6
		c-1.5,0-19.9-0.3-25.6-0.3c-5,0-10.6,0.1-16.7,0.3c1.4-3.3,2.2-5.4,2.2-16.4v-60c0-10.9-0.8-13.1-2.2-16.4c2.2,0.3,4.8,0.4,7.6,0.6
		c2.6,0.1,5.4,0.1,7.6,0.1h22.8c4.6,0,5.1,0,5.2,3.6l0.4,8.1c-3-1.4-6.2-1.7-9.3-1.7h-19.3v28h14c5.7,0,7-0.1,9-0.7V105.9z"/>
	<path class="st0" d="M912.9,132.7c0,10.5,0.7,12.8,2.1,16.4h-17c1.4-3.9,2.1-5.9,2.1-16.4V72.8c0-11.1-0.8-13.1-2.2-16.4
		c4.8,0.8,12.6,0.8,15.2,0.8c3.9,0,7.6-0.1,11.5-0.1c20.4,0,28.9,12.6,28.9,25.8c0,7.9-2.8,17.1-13.3,23.3
		c15.5,27.6,17.7,31.4,26.9,38.1l-8.8,4.6c-0.4,0.3-2.3,1.2-3.9,1.2c-2.9,0-6.2-5.4-8.3-8.7c-9.7-15.9-14.1-24.7-17.5-31.8
		c-3.2,0.7-5.4,1.2-10.2,1.2c-1.7,0-2.9,0-5.4-0.3V132.7z M912.7,100.8h6.2c17,0,21.5-9.5,21.5-18c0-16-13.9-16-19.8-16
		c-3.3,0-5.7,0.1-8,0.3V100.8z"/>
	<path class="st0" d="M996,131.2c7.3,7.5,15.2,9.4,20.9,9.4c4.6,0,9.8-1,13.5-5.2c2.2-2.8,3.5-6.6,3.5-10.2c0-8.7-4.8-12-17.4-20.6
		c-12.7-8.6-20-14.6-20-26.4c0-14.1,12.3-22.2,28-22.2c8.7,0,18.6,2.9,18.6,5.2c0,0.4-0.1,0.7-0.7,2.8l-1.9,7.2
		c-3.2-2.2-8.3-5.7-16.6-5.7c-10.6,0-14.4,6.9-14.4,11.9c0,7.6,5.7,11.5,17.1,19.2c15.5,10.4,20.3,16.6,20.3,27.5
		c0,13.5-8.8,26.2-29.2,26.2c-12,0-20.9-4.4-21.7-5.8c-0.4-0.7-0.6-2.5-0.6-3.3L996,131.2z"/>
	<path class="st0" d="M1100.3,57c-1.2,3-2.2,5.4-2.2,16.4v59.3c0,10.5,0.7,12.7,2.1,16.4h-17.1c1.2-3.3,2.1-5.4,2.1-16.4V73.5
		c0-11.1-0.8-13.1-2.2-16.4H1100.3z"/>
	<path class="st0" d="M1143.9,66.8c-4.4,0-8.3,0.8-12.2,2.2l3.3-8.8c1.1-3.2,1.9-3.2,6.1-3.2h53.3c2.4,0,7.2,0,13.1-0.7l-2.6,7.6
		c-1,2.9-1.4,3-6.5,3h-22.8v65.8c0,10.6,0.7,13,2.1,16.4h-17c1.2-3.5,2.1-5.5,2.1-16.4V66.8H1143.9z"/>
	<path class="st0" d="M1285.9,72.8c3.7-8.1,4.1-10.8,4.6-15.7h17.5c-4,5.4-5.8,8.4-10.6,18.2c-26.4,54.3-31.1,64-36.6,71.4
		c-0.8,1.2-1.9,2.5-5.9,2.5h-13c5.5-5.1,11.2-10.9,24.4-35.9l-16.7-34.7c-5-10.4-7-13.8-12.7-21.5h18.6c0.3,5.1,2.2,9.9,4.4,14.8
		l13,28.5L1285.9,72.8z"/>
	<path class="st0" d="M1393,128.8c-5.1-10.6-5.2-23.1-5.2-25.8c0-24.4,11.3-47.1,43.7-47.1c31.5,0,43.5,21.8,43.5,47.1
		c0,10.2-1.9,23.3-9.8,33.3c-7.9,9.7-18.9,14-33.7,14C1411.5,150.3,1399.8,142.5,1393,128.8z M1455,129c6.2-9.3,6.8-21.4,6.8-25.8
		c0-13.8-4.4-36.9-30.4-36.9c-25.8,0-30.5,22.8-30.5,36.9c0,3.3,0.3,12,3.9,20.4c6.9,15.9,22.5,16.3,26.7,16.3
		C1438,139.9,1449,137.8,1455,129z"/>
	<path class="st0" d="M1547.5,106.5c-2.2-0.7-4.1-1-8.8-1h-14v27.2c0,10.9,0.8,13.1,2.1,16.4h-17c1.2-3.5,2.1-5.5,2.1-16.4v-60
		c0-10.9-0.8-13.1-2.2-16.4c1.4,0.3,2.2,0.4,3.9,0.6c1.8,0.1,4.3,0.1,8.8,0.1h26.4c3.6,0,3.7,0.6,3.9,3.6l0.7,8
		c-3.9-1.2-7.3-1.4-9.7-1.4h-18.9v28h13.7c5.8,0,7.5-0.4,9.1-0.8V106.5z"/>
</g>
<g>
	<path class="st1" d="M230.5,459.9l-39.8-102.1h-82.1C93,389.5,76.6,425.2,76.6,446c0,4.7,0.4,9.1,1.1,13.9H32.1l8-10.2
		C60.9,423.4,136,266.9,136,237l0.4-9.8h43c23.3,72.6,46.7,151.7,83.2,219.2l7.3,13.5H230.5z M159,265.1c-0.7-2.6-2.9-8.8-6.2-8.8
		c-3.3,0-5.5,6.9-6.2,8.8l-31.7,78h69.7L159,265.1z"/>
	<path class="st1" d="M297.8,274.9c0-16.4,0-35.4-8-47.8h48.9c-8,12.4-8,31.4-8,47.8v170.3h27.7c20.4,0,39-2.9,57.3-20.8l-6.9,34.3
		c-7.3,0.7-15,1.1-22.2,1.1h-101c10.9-14.2,12.4-65.6,12.4-82.8V274.9z"/>
	<path class="st1" d="M614.2,459.8l-39.8-102.1h-82.1c-15.7,31.7-32.1,67.5-32.1,88.3c0,4.7,0.4,9.1,1.1,13.9h-45.6l8-10.2
		c20.8-26.3,95.9-182.7,95.9-212.6l0.4-9.8h43c23.3,72.6,46.7,151.7,83.2,219.2l7.3,13.5H614.2z M542.7,265.1
		c-0.7-2.6-2.9-8.8-6.2-8.8c-3.3,0-5.5,6.9-6.2,8.8l-31.7,78h69.7L542.7,265.1z"/>
	<path class="st1" d="M675.7,274.9c0-16.4,0-35.4-8-47.8c32.1,0,64.9-3.6,97-3.6c28.4,0,54.3,12.4,54.3,44.1c0,31.7-25.2,47-51.1,58
		v0.7c33.9,7.7,63.1,21.2,63.1,60.5c0,57.6-43.8,74.4-93.4,74.4c-24.8,0-49.2-1.5-74-1.5c12-25.9,12-63.5,12-91.5V274.9z
		 M708.5,324.5h9.8c32.1,0,64.9-10.2,64.9-48.9c0-32.8-22.2-37.6-52.2-37.6c-6.9,0-14.6,0.7-22.6,1.5V324.5z M708.5,395.3
		c0,42.3,0,51.4,24.4,51.4c37.2,0,60.2-14.6,60.2-53.6c0-50-36.5-55.4-78.4-55.4h-6.2V395.3z"/>
	<path class="st1" d="M1025.7,459.8l-39.8-102.1h-82.1c-15.7,31.7-32.1,67.5-32.1,88.3c0,4.7,0.4,9.1,1.1,13.9h-45.6l8-10.2
		c20.8-26.3,95.9-182.7,95.9-212.6l0.4-9.8h43c23.3,72.6,46.7,151.7,83.1,219.2l7.3,13.5H1025.7z M954.2,265.1
		c-0.7-2.6-2.9-8.8-6.2-8.8c-3.3,0-5.5,6.9-6.2,8.8l-31.7,78h69.7L954.2,265.1z"/>
	<path class="st1" d="M1320.2,227.2c-8.4,13.9-7.3,33.6-7.3,51.8c0,43.8-1.8,89.4,2.9,133.1c1.8,16.4,3.3,33.2,11.3,47.8h-53.6
		c6.6-18.2,6.6-45.2,6.6-65.7V273.1c0-3.6,0-8-2.6-8c-2.6,0-3.6,2.6-4.7,5.5l-81.7,192.9l-69.3-179.1c-4-10.6-6.6-19.3-9.8-19.3
		c-3.3,0-3.3,6.6-3.3,12l-0.4,118.5c0,28.4,0,52.2,8,64.2H1073l3.3-4.7c13.5-19.3,15-77,15-116.3v-91.2c0-9.8-0.4-15-9.1-20.4h45.2
		c4.4,0,9.9,0.7,11.3,5.5l54,159c1.8,5.5,2.9,11.7,5.8,11.7c3.3,0,4.4-3.6,6.6-8.7l63.1-152.1c3.3-7.7,5.8-15.3,15-15.3H1320.2z"/>
	<path class="st1" d="M1534.7,459.8l-39.8-102.1h-82.1c-15.7,31.7-32.1,67.5-32.1,88.3c0,4.7,0.4,9.1,1.1,13.9h-45.6l8-10.2
		c20.8-26.3,95.9-182.7,95.9-212.6l0.4-9.8h43c23.3,72.6,46.7,151.7,83.2,219.2l7.3,13.5H1534.7z M1463.2,265.1
		c-0.7-2.6-2.9-8.7-6.2-8.7c-3.3,0-5.5,6.9-6.2,8.7l-31.7,78h69.7L1463.2,265.1z"/>
</g>
</svg>
