<?xml version="1.0" encoding="utf-8"?>
<!-- Generator: Adobe Illustrator 25.4.1, SVG Export Plug-In . SVG Version: 6.00 Build 0)  -->
<svg version="1.1" id="svg" xmlns="http://www.w3.org/2000/svg" xmlns:xlink="http://www.w3.org/1999/xlink" x="0px" y="0px"
	 viewBox="0 0 400 42" style="enable-background:new 0 0 400 42;" xml:space="preserve">
<style type="text/css">
	.st0{fill-rule:evenodd;clip-rule:evenodd;}
</style>
<g id="svgg">
	<path id="path0" class="st0" d="M1.6,10c0,0.3,0.1,0.5,0.3,0.5c0.2,0,1.4,1.8,2.7,4c1.3,2.2,4,6.5,5.9,9.6c1.9,3.1,3.7,6,4,6.5
		l0.5,0.9l5.2,0c3.3,0,5.2-0.1,5.2-0.3c0-0.7,7.8-11.9,8.1-11.7c0.2,0.1,0.3,0.1,0.1-0.2c-0.3-0.5,4-6.9,4.4-6.6
		c0.2,0.1,0.2,0.1,0.1-0.2c-0.1-0.2,0.1-0.8,0.4-1.3c1.1-1.5,0.9-1.6-1.7-1.6h-2.4l-5.3,8c-7.4,11.2-6.7,10.4-9.2,10.4
		c-2.6,0-2,0.7-8.1-9.6L6.9,9.6l-2.7,0C2.1,9.6,1.6,9.6,1.6,10 M52.6,9.9c0,0.2-0.2,0.3-0.4,0.3c-2.7,0-5.8,3.2-11.4,11.9
		c-0.6,0.9-1.2,1.6-1.4,1.5c-0.1-0.1-0.2,0.1-0.2,0.4c0,0.3-0.1,0.5-0.4,0.5c-0.2,0-0.3,0.1-0.2,0.2c0.3,0.4-0.8,2-1.2,1.7
		c-0.2-0.1-0.2-0.1-0.1,0.2c0.1,0.2-0.4,1.2-1.1,2.3c-1.7,2.6-1.7,2.6,1,2.6l2.3,0l2-3.1c1.2-1.8,2.2-3,2.4-2.8
		c0.2,0.1,0.2,0.1,0.1-0.2c-0.2-0.4,4.4-7.5,6.3-9.5c2.4-2.6,2.1-2.6,18.7-2.7c8,0,14.8-0.2,14.9-0.3c0.3-0.2,0.4-2.1,0.1-2.9
		C83.8,9.4,52.6,9.3,52.6,9.9 M91.2,10.6c-0.3,1.3-0.3,19.2,0,20.2c0.2,0.8,4.4,1.1,4.8,0.4c0.1-0.2,0.1-0.3-0.1-0.1
		c-0.3,0.2-0.4-2.5-0.4-10.5s0.1-10.6,0.4-10.5c0.2,0.1,0.3,0.1,0.1-0.1c-0.1-0.2-1.1-0.4-2.4-0.4h-2.2L91.2,10.6 M113.9,9.8
		c0,0.2-3,2.1-6.7,4.3c-7.8,4.7-7.5,4.4-7.5,6.4c0,1.8-0.1,1.7,6.5,5.6c5,3,7.6,4.7,7.7,5c0.1,0.4,7.5,0.4,7.5,0.1
		c0-0.1-2.5-1.8-5.6-3.8c-3.1-1.9-5.5-3.6-5.4-3.8c0.1-0.2,0-0.2-0.2-0.1c-0.6,0.4-5.5-2.7-5.5-3.4c0-0.2,0.3-0.4,0.6-0.5
		c0.6-0.2,8.4-4.9,11.6-7.1c0.9-0.6,1.8-1.1,1.9-1.1c0.3,0,2.1-1.4,2.1-1.7c0-0.1-1.5-0.3-3.4-0.3C115.4,9.5,113.9,9.7,113.9,9.8
		 M128.8,9.9c-4.6,4-5.3,7.8-2,10.8c1.9,1.7,2.9,1.8,12.7,1.8c8.8-0.1,8.9,0,9.7,0.7c1,0.9,1.1,2.8,0.2,3.9l-0.6,0.8l-11.4,0.1
		c-6.3,0-11.6,0.1-11.8,0.1c-0.5,0-0.8,1.1-0.5,2.4l0.2,1.1h12.2c10.4,0,12.3-0.1,12.7-0.5c0.3-0.3,0.7-0.5,1.1-0.5
		c0.3,0,0.8-0.3,1.1-0.6c0.3-0.4,0.7-0.5,0.9-0.4c0.2,0.1,0.3,0.1,0.1,0c-0.1-0.1,0.1-0.8,0.4-1.4c1.2-2.2,0.6-6.3-1.2-7.9
		c-1.6-1.4-2.6-1.5-12.1-1.5c-10.8,0-11.3-0.1-11.3-2.9c0-2.3,0.2-2.3,12.9-2.3c12.8,0,12.3,0.2,11.8-2.6l-0.2-1.3l-12.3,0
		C133.6,9.6,129.1,9.7,128.8,9.9 M158.2,10.8c-0.4,2.4-0.2,2.5,5.5,2.3c6.6-0.2,6-1.2,6,9.5v8.8h2.3h2.3v-9c0-10.6-0.7-9.5,5.8-9.4
		c2.6,0,4.9,0,5.1,0c0.3,0,0.4-0.6,0.4-1.8V9.5H172h-13.5L158.2,10.8 M193.9,9.9c0,0.2-0.4,0.5-0.8,0.6c-0.4,0.2-1,0.7-1.3,1.1
		c-0.3,0.5-0.6,0.8-0.8,0.7c-0.1-0.1-0.3,4.2-0.3,9.5l-0.1,9.7h2.3h2.3l0.1-4.6l0.1-4.6l10.8-0.2l10.8-0.2v-1.6v-1.6l-10.8-0.2
		l-10.8-0.2l-0.1-1.6c-0.2-3.6,0.2-3.8,11.9-3.7c5.1,0,9.4,0,9.6,0c0.2,0,0.4-0.7,0.5-1.8l0.1-1.8h-11.7
		C197.8,9.5,193.9,9.7,193.9,9.9 M228.1,9.9c0,0.2-0.2,0.3-0.4,0.3c-0.2,0-1,0.3-1.7,0.6c-0.7,0.3-1.4,0.5-1.6,0.4
		c-0.2-0.1-0.3-0.1-0.1,0c0.1,0.1-0.2,0.8-0.7,1.5c-1.3,1.8-1.7,4.2-1.6,9c0.2,5.8,1.5,8.2,5,8.9c0.6,0.1,1,0.3,1,0.5
		c0,0.2,3.6,0.3,8.5,0.3c5.3,0,8.5-0.1,8.5-0.3c0-0.2,0.6-0.5,1.3-0.7c1.9-0.5,3.9-2.6,4.5-4.7c1.4-4.7,0.3-12.8-1.8-14.2
		c-0.4-0.3-0.7-0.6-0.6-0.7c0.1-0.1-0.3-0.2-0.9-0.3c-0.5,0-1.3-0.3-1.7-0.6C245,9.4,228.1,9.3,228.1,9.9 M259.3,10.4
		c-0.1,0.5-0.1,5.4,0,11l0.1,10.1h1.9h1.9v-8.9c0-10,0-9.9,2.4-9.2c2.2,0.6,5.4,3.9,4.8,4.9c-0.1,0.2-0.1,0.3,0.1,0.2
		c0.2-0.1,1.6,1.9,3.4,4.7c3,4.9,5.1,7.4,6.2,7.4c0.3,0,0.7,0.2,0.8,0.5c0.2,0.4,1,0.5,4.7,0.5h4.5v-11v-11h-2.1
		c-2,0-2.1,0.1-2.1,0.7c0,0.4,0,4.4,0,8.8c0,9.1,0,9.1-2.2,8.7c-1.8-0.3-3.1-1.9-6.7-7.9c-3.4-5.7-6-8.8-7.9-9.5
		c-0.5-0.2-1-0.5-1-0.6c0-0.2-2-0.3-4.3-0.3h-4.3L259.3,10.4 M298.1,20.5v11h10.8c6.9,0,10.8-0.1,10.8-0.3c0-0.2,0.7-0.5,1.5-0.7
		c3.6-0.9,4.7-3.3,4.8-10.1c0-6.8-1.3-9.3-5.3-10c-0.7-0.1-1.3-0.4-1.3-0.5c0-0.2-3.8-0.3-10.6-0.3h-10.6V20.5 M336.3,10
		c-0.1,0.3-0.4,0.5-0.7,0.5c-2.1,0-2.8,3.1-2.7,10.9c0.1,7.2,0.2,7.5,2.5,9c0.6,0.4,0.9,0.8,0.6,0.9c-0.2,0.1,5,0.2,11.6,0.2l12,0
		l-0.1-1.7l-0.1-1.7l-10.4-0.2c-12-0.2-11.4,0-11.6-3.1c-0.2-2.8-0.8-2.6,11.4-2.7l10.6-0.1v-1.6v-1.6l-11-0.2l-11-0.2l-0.1-1.4
		c-0.3-3.8,0.1-4,11.9-3.9c10.8,0.1,10.3,0.2,10.3-2V9.5h-11.6C338.1,9.5,336.5,9.6,336.3,10 M367.4,20.5v11h2.1h2.1v-9
		c0-10.1-0.1-9.6,2.3-9.1c2.2,0.5,6.8,5.7,6.2,7.1c-0.1,0.2,0,0.3,0.1,0.2c0.2-0.1,1.3,1.4,2.5,3.4c1.2,2,2.5,4,2.9,4.4
		c0.4,0.5,0.7,1,0.8,1.2c0,0.2,0.1,0.3,0.3,0.3c0.7,0,2.7,0.9,2.7,1.1c0,0.2,2,0.3,4.5,0.3h4.5v-11v-11h-2.1c-2.6,0-2.5-0.7-2.5,9.6
		c0,9.5,0.1,9.1-2.2,8.7c-1.9-0.4-8.1-8.7-7.3-9.9c0.1-0.2,0.1-0.3-0.1-0.2c-0.4,0.2-1.8-1.8-1.8-2.6c0-0.2-0.1-0.4-0.1-0.3
		c-0.1,0.1-0.7-0.6-1.5-1.5c-0.7-0.9-2-2-2.8-2.4c-0.8-0.4-1.6-0.9-1.8-1.1c-0.2-0.2-2.2-0.3-4.6-0.3h-4.2V20.5 M316.6,13.1
		c4.5,0.6,6.4,3.9,5.4,9.6c-0.8,4.9-2.1,5.5-12.9,5.8l-7.2,0.2v-8v-8l6.2,0C311.6,12.8,315.4,12.9,316.6,13.1 M242.9,13.4
		c3.4,0.5,4.6,2.9,4.1,8.4c-0.5,5.7-1.3,6.1-10.7,6c-9.2-0.1-9.4-0.3-9.7-5.9c-0.3-5.9,0.6-8,3.3-8.5
		C231.8,13.1,240.6,13.1,242.9,13.4 M59.1,19.4c-0.2,0.5-0.2,0.8-0.1,0.8c0.2,0,0.3,1.5,0.3,3.6c0,4,0.3,4.9,2,6.2
		c0.6,0.5,1.2,1,1.4,1.2c0.2,0.2,4.5,0.3,10.9,0.3h10.5v-1.6c0-2.1,0.7-1.9-10-2l-9.1-0.1l-0.8-0.9c-0.9-1-1.1-3.7-0.3-4.4
		c0.3-0.2,3.7-0.4,10.2-0.4L84,22v-1.6v-1.6l-12.3-0.1l-12.3-0.1L59.1,19.4"/>
</g>
</svg>
