<?xml version="1.0" encoding="utf-8"?>
<!-- Generator: Adobe Illustrator 25.4.1, SVG Export Plug-In . SVG Version: 6.00 Build 0)  -->
<svg version="1.1" id="Layer_1" xmlns="http://www.w3.org/2000/svg" xmlns:xlink="http://www.w3.org/1999/xlink" x="0px" y="0px"
	 viewBox="0 0 400.2 99.1" style="enable-background:new 0 0 400.2 99.1;" xml:space="preserve">
<style type="text/css">
	.st0{fill:#FFFFFF;}
	.st1{fill:#4B5255;}
</style>
<g id="text4313">
</g>
<g>
	<path class="st0" d="M34,11.1c-0.2,0.5-7.6,22.1-7.6,22.1c-1.1,3.2-1.8,5.4-2.4,8.1c0,0.2-0.2,0.3-0.4,0.3c-0.2,0-0.4-0.1-0.4-0.3
		c-0.7-2.9-1.6-5.6-2.3-7.6c0,0-6.7-20.2-7.5-22.5H6.2C6.5,12,19.3,48.8,19.5,49.3h8.1c0.2-0.5,13-37.3,13.4-38.2H34z"/>
	<path class="st0" d="M45.3,30.7c0,12.4,6.2,19.2,17.3,19.2c11,0,18.7-8.3,18.7-20.3c0-12.2-6.3-19.2-17.3-19.2
		C53,10.5,45.3,18.8,45.3,30.7 M52.6,29.9c0-9.2,5.4-13.4,10.7-13.4c6.9,0,10.7,4.9,10.7,13.7c0,9.4-5.4,13.6-10.8,13.6
		C56.4,43.8,52.6,38.9,52.6,29.9"/>
	<path class="st0" d="M91.2,11.1v38.2h19.4v-5.9H98.3c-0.2,0-0.4-0.2-0.4-0.4v-32H91.2z"/>
	<path class="st0" d="M139.3,11.1c-0.2,0.3-12.5,17.5-12.5,17.5c-0.1,0.1-0.2,0.2-0.4,0.1c-0.1,0-0.2-0.2-0.2-0.3V11.1h-6.8v38.2
		h6.8V31c0-0.2,0.1-0.3,0.2-0.3c0.1,0,0.3,0,0.4,0.1c0,0,12.3,18.2,12.5,18.5h8.9c-0.8-1.1-14.5-19.6-14.5-19.6
		c0-0.1-0.1-0.1-0.1-0.2c0-0.1,0-0.1,0.1-0.2c0,0,13-17.2,13.8-18.2H139.3z"/>
	<path class="st0" d="M153.9,21.8c0,6.9,5.1,8.9,9.6,10.7c3.5,1.4,6.8,2.7,6.8,6.1c0,3.4-2.7,5.5-7.2,5.5c-2.9,0-5.8-0.6-7.8-1.3
		c0,0.7-0.4,5.7-0.4,6.2c2.2,0.6,4.8,0.9,7.6,0.9c9,0,15-5,15-12.3c0-6.6-5.1-8.7-9.7-10.5c-3.5-1.4-6.8-2.8-6.8-6
		c0-3.1,2.7-5.1,7-5.1c2.1,0,4.4,0.3,6.7,1c0-0.7,0.3-5.3,0.4-5.8c-2.4-0.4-4.8-0.6-6.7-0.6C159.6,10.5,153.9,14.9,153.9,21.8"/>
	<path class="st0" d="M228.5,11.1c-0.1,0.5-5.2,21.5-5.2,21.5c-0.6,2.5-1.1,5-1.5,7.5c0,0.2-0.2,0.3-0.4,0.3c-0.2,0-0.4-0.1-0.4-0.3
		c-0.4-2.9-1-5.7-1.5-7.6c0,0-5.3-18.9-5.9-21.4h-7.4c-0.1,0.5-5.9,21.5-5.9,21.5c-0.7,2.5-1.2,5.2-1.5,7.7c0,0.2-0.2,0.3-0.4,0.3
		c-0.2,0-0.4-0.1-0.4-0.3c-0.4-3-0.9-5.6-1.4-7.9c0,0-4.6-18.8-5.2-21.2h-7.2c0.2,0.8,9.6,37.7,9.7,38.2h8.1
		c0.1-0.5,5.6-21.4,5.6-21.4c0.7-2.7,1.2-5.3,1.5-7.8c0-0.2,0.2-0.3,0.4-0.3c0.2,0,0.4,0.1,0.4,0.3c0.4,2.5,0.8,5.5,1.5,8
		c0,0,4.9,18.8,5.6,21.2h8.6c0.1-0.5,9.5-37.4,9.7-38.2H228.5z"/>
	<path class="st0" d="M251.4,11.1c-0.2,0.5-13,37.3-13.4,38.2h6.8c0.2-0.4,2.6-7.7,2.6-7.7c0-0.1,0.2-0.2,0.3-0.2h14.8
		c0.2,0,0.3,0.1,0.3,0.2c0,0,2.5,7.3,2.6,7.7h7.4c-0.3-0.9-13.5-37.8-13.6-38.2H251.4z M249.5,36c-0.1-0.1-0.1-0.2,0-0.3l3.5-9.9
		c0.9-2.4,1.4-4.7,1.8-6.5c0-0.2,0.2-0.3,0.4-0.3c0.2,0,0.4,0.1,0.4,0.3c0.5,2.1,1,3.9,1.8,6.2l3.6,10.2c0,0.1,0,0.2,0,0.3
		c-0.1,0.1-0.2,0.1-0.3,0.1h-10.9C249.6,36.1,249.5,36.1,249.5,36"/>
	<path class="st0" d="M278.6,31.1c0,11.8,7.2,18.8,19.3,18.8c4.6,0,9.2-0.8,13-2.3v-18h-6.8v13.2c0,0.2-0.1,0.3-0.2,0.3
		c-1.5,0.5-3.2,0.7-5.1,0.7c-8.1,0-12.7-4.9-12.7-13.4c0-8.4,5.3-13.9,13.6-13.9c3.4,0,6.8,0.7,10,1.9c0.1-0.7,0.9-5.7,1-6.3
		c-3.6-1-7.2-1.6-10.6-1.6C287.2,10.5,278.6,18.8,278.6,31.1"/>
	<path class="st0" d="M324,11.1v38.2h20.5v-5.7h-13.3c-0.2,0-0.4-0.2-0.4-0.3V32.7c0-0.2,0.2-0.4,0.4-0.4h12.6v-5.4h-12.6
		c-0.2,0-0.4-0.2-0.4-0.4V17c0-0.2,0.2-0.4,0.4-0.4h13.3v-5.6H324z"/>
	<path class="st0" d="M381.1,11.1v11.8c0,5.1,0.1,12.3,0.4,16.1v0c0,0.2-0.1,0.3-0.3,0.3c-0.2,0-0.3,0-0.4-0.2
		c-1.4-2.9-3.4-6.4-5.1-9.4c0,0-10.6-18.3-10.8-18.6h-8.7v38.2h6.6V35.8c0-4.7-0.1-11.3-0.3-14.6v0c0-0.2,0.1-0.3,0.3-0.3
		c0.2,0,0.3,0,0.4,0.2c1,2.2,2.5,4.8,4,7.4l0.6,1.1c0,0,11.2,19.4,11.4,19.8h8.6V11.1H381.1z"/>
	<path class="st0" d="M97.9,79c-0.2,0.4-3.2,8.9-3.5,9.7H95c0.1-0.4,0.8-2.2,0.8-2.2c0-0.1,0.2-0.2,0.3-0.2h4.7
		c0.1,0,0.3,0.1,0.3,0.2c0,0,0.6,1.8,0.8,2.2h0.6c-0.3-0.8-3.4-9.3-3.6-9.7H97.9z M97.7,81.1l0.4-1.2c0-0.1,0.2-0.2,0.4-0.2
		c0.1,0,0.3,0.1,0.4,0.2l0.4,1l0.3,0.7l1.4,3.8c0,0.1,0,0.2,0,0.3c-0.1,0.1-0.2,0.1-0.3,0.1h-4c-0.1,0-0.2-0.1-0.3-0.1
		c0-0.1-0.1-0.1-0.1-0.2c0,0,0-0.1,0-0.1l1.3-3.8L97.7,81.1z"/>
	<path class="st0" d="M113.7,79c-0.2,0.2-3.9,4.7-4,4.7c0.1,0.1,3.8,4.7,4,5h1c-0.8-0.9-4.1-4.8-4.1-4.8c-0.1-0.1-0.1-0.1-0.1-0.2
		c0-0.1,0-0.2,0.1-0.2c0,0,3.1-3.5,3.9-4.5H113.7z M108.3,79v9.7h0.7v-4.8c0-0.1,0.1-0.1,0.1-0.2c0-0.1-0.1-0.1-0.1-0.2V79H108.3z"
		/>
	<path class="st0" d="M119.2,79v0.5h2.6c0.2,0,0.3,0.2,0.3,0.4v8.9h0.7v-8.9c0-0.2,0.2-0.4,0.4-0.4h2.7V79H119.2z"/>
	<rect x="132.1" y="79" class="st0" width="0.7" height="9.7"/>
	<path class="st0" d="M140.9,79v9.7h4.7v-0.5h-3.6c-0.2,0-0.4-0.2-0.4-0.4v-3.6c0-0.2,0.2-0.4,0.4-0.4h3.4v-0.4h-3.4
		c-0.2,0-0.4-0.2-0.4-0.4v-3.3c0-0.2,0.2-0.4,0.4-0.4h3.6V79H140.9z"/>
	<path class="st0" d="M160,79v2.6l0.1,5.8c0,0.2-0.1,0.3-0.3,0.3c-0.2,0-0.3,0-0.4-0.2l-1.4-2.3c0,0-3.4-5.4-3.9-6.3h-1v9.7h0.7v-3
		c0,0-0.1-5.5-0.1-5.5c0-0.2,0.1-0.3,0.3-0.3c0.2,0,0.3,0,0.4,0.2l1,1.7l0.3,0.5c0,0,3.5,5.6,4,6.5h1V79H160z"/>
	<path class="st0" d="M167,84.1c0,3,1.8,4.8,4.8,4.8c1,0,2.1-0.2,3.1-0.5v-4.2h-0.7v3.6c0,0.2-0.1,0.3-0.2,0.3l-1.9,0.3
		c-2.6,0-4.2-1.7-4.2-4.4c0-3.1,2.2-4.5,4.3-4.5c0.8,0,1.7,0.2,2.5,0.5c0-0.2,0.1-0.4,0.1-0.6c-0.8-0.2-1.6-0.4-2.5-0.4
		C169.2,78.9,167,81,167,84.1"/>
	<path class="st0" d="M182.7,79v9.7h4.7v-0.5h-3.6c-0.2,0-0.4-0.2-0.4-0.4v-3.6c0-0.2,0.2-0.4,0.4-0.4h3.4v-0.4h-3.4
		c-0.2,0-0.4-0.2-0.4-0.4v-3.3c0-0.2,0.2-0.4,0.4-0.4h3.6V79H182.7z"/>
	<path class="st0" d="M194.4,81.5c0,1.5,1.2,2,2.4,2.5c1.1,0.4,2.3,0.9,2.3,2.2c0,1.3-1,2.1-2.7,2.1c-0.6,0-1.2-0.2-1.8-0.3
		c0,0.3,0,0.4,0,0.6c0.4,0,1.7,0.2,1.7,0.2c2.2,0,3.5-1.1,3.5-2.9c0-1.5-1.2-2-2.5-2.5c-1.1-0.5-2.3-0.9-2.3-2.2c0-1,0.7-2,2.5-2
		c0,0,1,0.1,1.6,0.2c0-0.2,0-0.3,0-0.6c-0.4,0-1.5-0.1-1.5-0.1C195.7,78.9,194.4,79.9,194.4,81.5"/>
	<path class="st0" d="M207.2,79v9.7h4.7v-0.5h-3.6c-0.2,0-0.4-0.2-0.4-0.4v-3.6c0-0.2,0.2-0.4,0.4-0.4h3.4v-0.4h-3.4
		c-0.2,0-0.4-0.2-0.4-0.4v-3.3c0-0.2,0.2-0.4,0.4-0.4h3.6V79H207.2z"/>
	<path class="st0" d="M219.3,79v9.7h4.5v-0.5h-3.4c-0.2,0-0.4-0.2-0.4-0.4V79H219.3z"/>
	<path class="st0" d="M230.1,79v9.7h4.5v-0.5h-3.4c-0.2,0-0.4-0.2-0.4-0.4V79H230.1z"/>
	<path class="st0" d="M240.2,81.5c0,1.5,1.2,2,2.4,2.5c1.1,0.4,2.3,0.9,2.3,2.2c0,1.3-1,2.1-2.7,2.1c-0.6,0-1.2-0.2-1.8-0.3
		c0,0.3,0,0.4,0,0.6c0.4,0,1.7,0.2,1.7,0.2c2.2,0,3.5-1.1,3.5-2.9c0-1.5-1.2-2-2.5-2.5c-1.1-0.5-2.3-0.9-2.3-2.2c0-1,0.7-2,2.5-2
		c0,0,1,0.1,1.6,0.2c0-0.2,0-0.3,0-0.6c-0.4,0-1.5-0.1-1.5-0.1C241.5,78.9,240.2,79.9,240.2,81.5"/>
	<path class="st0" d="M251.8,84.2c0,2.2,0.8,4.7,4.4,4.7c0.9,0,1.7-0.2,2.4-0.4c0-0.2,0-0.3-0.1-0.5c-0.6,0.2-1.4,0.4-2,0.4
		c-2.5,0-3.9-1.5-3.9-4.4c0-2.8,1.4-4.5,3.7-4.5c0.7,0,1.4,0.1,2.1,0.3c0-0.2,0-0.4,0.1-0.6c-0.7-0.1-1.4-0.3-2-0.3
		C253.5,78.9,251.8,80.8,251.8,84.2"/>
	<path class="st0" d="M271.7,79v4.1c0,0.2-0.2,0.4-0.4,0.4h-5.3c-0.2,0-0.4-0.2-0.4-0.4V79H265v9.7h0.7v-4.5c0-0.2,0.2-0.4,0.4-0.4
		h5.3c0.2,0,0.4,0.2,0.4,0.4v4.5h0.7V79H271.7z"/>
	<path class="st0" d="M281.6,79c-0.2,0.4-3.2,8.9-3.5,9.7h0.6c0.1-0.4,0.8-2.2,0.8-2.2c0.1-0.1,0.2-0.2,0.3-0.2h4.7
		c0.1,0,0.3,0.1,0.3,0.2c0,0,0.6,1.8,0.8,2.2h0.6c-0.3-0.8-3.4-9.3-3.6-9.7H281.6z M281.3,81.1l0.4-1.2c0-0.1,0.2-0.2,0.4-0.2
		s0.3,0.1,0.4,0.2l0.4,1l0.3,0.7l1.4,3.8c0,0.1,0,0.2,0,0.3c-0.1,0.1-0.2,0.1-0.3,0.1h-4c-0.1,0-0.2-0.1-0.3-0.1
		c-0.1-0.1-0.1-0.2,0-0.3l1.3-3.8L281.3,81.1z"/>
	<path class="st0" d="M291.8,79v9.7h0.7v-4.4c0-0.2,0.2-0.4,0.4-0.4h3.3v-0.4h-3.3c-0.2,0-0.4-0.2-0.4-0.4v-3.4
		c0-0.2,0.2-0.4,0.4-0.4h3.5V79H291.8z"/>
	<path class="st0" d="M301.1,79v0.5h2.6c0.2,0,0.4,0.2,0.4,0.4v8.9h0.7v-8.9c0-0.2,0.2-0.4,0.4-0.4h2.7V79H301.1z"/>
	<path class="st1" d="M27.8,49.6h-8.6L5.7,10.7h8.1l7.6,22.8c0.7,2.2,1.6,4.8,2.3,7.7h0.1c0.6-2.7,1.2-4.8,2.4-8.1l7.7-22.3h7.7
		L27.8,49.6z"/>
	<path class="st1" d="M62.6,50.3c-11.9,0-17.7-7.5-17.7-19.6c0-12.9,8.6-20.6,19-20.6c10.4,0,17.7,6.2,17.7,19.5
		C81.7,42.5,73.2,50.3,62.6,50.3 M63.3,16.9c-5.4,0-10.3,4.3-10.3,13c0,8.2,3.2,13.6,10.2,13.6c5.1,0,10.5-3.9,10.5-13.3
		C73.7,21.6,70,16.9,63.3,16.9"/>
	<polygon class="st1" points="90.8,49.6 90.8,10.7 98.3,10.7 98.3,43.1 110.9,43.1 110.9,49.6 	"/>
	<polygon class="st1" points="139.1,49.6 126.5,31 126.5,49.6 119,49.6 119,10.7 126.5,10.7 126.5,28.4 139.1,10.7 148.2,10.7 
		134,29.5 148.9,49.6 	"/>
	<path class="st1" d="M162.5,50.3c-2.8,0-5.5-0.3-8-0.9l0.5-7c2.2,0.8,5.3,1.4,8.1,1.4c3.8,0,6.9-1.6,6.9-5.1
		c0-7.4-16.4-4.2-16.4-16.8c0-6.9,5.5-11.7,14.8-11.7c2.2,0,4.7,0.3,7,0.7l-0.4,6.6c-2.2-0.6-4.6-1-7-1c-4.3,0-6.6,2-6.6,4.7
		c0,7,16.5,4.5,16.5,16.5C177.9,44.9,172,50.3,162.5,50.3"/>
	<path class="st1" d="M225.8,49.6h-9.2L211,28.2c-0.6-2.5-1.1-5.3-1.5-8.1h-0.1c-0.3,2.7-0.8,5.3-1.5,7.9l-5.6,21.6h-8.6l-9.9-38.9
		h7.9l5.3,21.5c0.6,2.5,1.1,5.2,1.4,8h0.1c0.4-2.6,0.9-5.2,1.6-7.7l5.9-21.7h7.9l6,21.6c0.6,2.1,1.2,4.9,1.6,7.6h0.1
		c0.4-2.7,0.9-5.2,1.5-7.5l5.3-21.7h7.5L225.8,49.6z"/>
	<path class="st1" d="M265.4,49.6l-2.7-8h-14.8l-2.7,8h-7.6l13.6-38.9h8.5l13.9,38.9H265.4z M257.1,25.6c-0.7-2.1-1.3-4-1.8-6.2
		h-0.1c-0.5,2-1,4.3-1.8,6.5l-3.5,9.9h11L257.1,25.6z"/>
	<path class="st1" d="M309.9,18.8c-3.1-1.2-6.7-2-10.3-2c-7.7,0-13.2,4.8-13.2,13.5c0,8.2,4.5,13.1,12.4,13.1c1.8,0,3.5-0.2,5-0.7
		V29.2h7.5v18.6c-3.9,1.6-8.6,2.4-13.3,2.4c-12.3,0-19.7-7.3-19.7-19.1c0-12.2,8.3-20.9,21.8-20.9c3.9,0,7.7,0.7,11,1.7L309.9,18.8z
		"/>
	<polygon class="st1" points="323.6,49.6 323.6,10.7 344.8,10.7 344.8,17 331.1,17 331.1,26.6 344.1,26.6 344.1,32.7 331.1,32.7 
		331.1,43.3 344.8,43.3 344.8,49.6 	"/>
	<path class="st1" d="M378.9,49.6l-11.5-19.9c-1.7-2.9-3.5-6-4.6-8.5c0.2,3.3,0.3,9.9,0.3,14.6v13.9h-7.3V10.7h9.3l11,18.8
		c1.7,3,3.7,6.5,5.1,9.4c-0.3-3.9-0.4-11.3-0.4-16.1V10.7h7.3v38.9H378.9z"/>
	<path d="M101.7,89.1l-0.9-2.4h-4.7l-0.9,2.4h-1.4l3.8-10.4h1.6l3.8,10.4H101.7z M99.1,81.7c-0.2-0.5-0.4-1.1-0.6-1.7h0
		c-0.2,0.5-0.4,1.2-0.6,1.7l-1.3,3.8h4L99.1,81.7z"/>
	<polygon points="113.5,89.1 109.3,83.9 109.3,89.1 107.9,89.1 107.9,78.7 109.3,78.7 109.3,83.6 113.5,78.7 115.2,78.7 110.8,83.7 
		115.4,89.1 	"/>
	<polygon points="123.3,79.9 123.3,89.1 121.9,89.1 121.9,79.9 118.9,79.9 118.9,78.7 126.3,78.7 126.3,79.9 	"/>
	<polygon points="131.8,89.1 131.8,78.6 132.5,78.6 133.2,78.6 133.2,89.1 	"/>
	<polygon points="140.5,89.1 140.5,78.7 145.9,78.7 145.9,79.8 141.9,79.8 141.9,83.2 145.7,83.2 145.7,84.3 141.9,84.3 141.9,87.9 
		145.9,87.9 145.9,89.1 	"/>
	<path d="M159.5,89.1l-4.1-6.6c-0.5-0.8-1-1.5-1.3-2.2c0.1,1.1,0.1,3.8,0.1,5.5v3.4h-1.4V78.7h1.6l4,6.4c0.5,0.7,1,1.6,1.4,2.4
		c-0.1-1.3-0.1-4.1-0.1-5.8v-3h1.4v10.4H159.5z"/>
	<path d="M175,80.3c-0.9-0.4-1.8-0.6-2.8-0.6c-2.1,0-4,1.4-4,4.2c0,2.6,1.5,4.1,3.9,4.1c0.7,0,1.3-0.1,1.8-0.3v-3.9h1.4v4.9
		c-1,0.4-2.3,0.6-3.4,0.6c-3.2,0-5.2-1.9-5.2-5.1c0-3.2,2.1-5.6,5.6-5.6c1,0,1.9,0.2,2.9,0.4L175,80.3z"/>
	<polygon points="182.4,89.1 182.4,78.7 187.7,78.7 187.7,79.8 183.8,79.8 183.8,83.2 187.6,83.2 187.6,84.3 183.8,84.3 183.8,87.9 
		187.7,87.9 187.7,89.1 	"/>
	<path d="M196.4,89.2c-0.8,0-1.5-0.1-2.1-0.2l0.1-1.4c0.6,0.2,1.4,0.4,2.1,0.4c1.3,0,2.3-0.5,2.3-1.8c0-2.3-4.7-1.5-4.7-4.7
		c0-1.7,1.4-3,3.7-3c0.6,0,1.3,0.1,1.9,0.2l-0.1,1.3c-0.6-0.2-1.3-0.3-1.9-0.3c-1.4,0-2.2,0.6-2.2,1.6c0,2.3,4.7,1.5,4.7,4.7
		C200.3,87.9,198.8,89.2,196.4,89.2"/>
	<polygon points="206.8,89.1 206.8,78.7 212.2,78.7 212.2,79.8 208.2,79.8 208.2,83.2 212,83.2 212,84.3 208.2,84.3 208.2,87.9 
		212.2,87.9 212.2,89.1 	"/>
	<polygon points="219,89.1 219,78.7 220.4,78.7 220.4,87.9 224.1,87.9 224.1,89.1 	"/>
	<polygon points="229.8,89.1 229.8,78.7 231.2,78.7 231.2,87.9 235,87.9 235,89.1 	"/>
	<path d="M242.2,89.2c-0.8,0-1.5-0.1-2.1-0.2l0.1-1.4c0.6,0.2,1.4,0.4,2.2,0.4c1.2,0,2.3-0.5,2.3-1.8c0-2.3-4.7-1.5-4.7-4.7
		c0-1.7,1.4-3,3.7-3c0.6,0,1.3,0.1,1.9,0.2l-0.1,1.3c-0.6-0.2-1.3-0.3-1.9-0.3c-1.4,0-2.2,0.6-2.2,1.6c0,2.3,4.7,1.5,4.7,4.7
		C246.1,87.9,244.6,89.2,242.2,89.2"/>
	<path d="M256.2,89.2c-3.3,0-4.7-2.1-4.7-5.1c0-3.2,1.6-5.6,5.1-5.6c0.8,0,1.6,0.1,2.4,0.3l-0.2,1.3c-0.8-0.2-1.6-0.4-2.4-0.4
		c-2.4,0-3.4,1.8-3.4,4.1c0,2.6,1.1,4,3.5,4c0.8,0,1.7-0.2,2.3-0.5l0.2,1.3C258.2,89,257.3,89.2,256.2,89.2"/>
	<polygon points="271.4,89.1 271.4,84.3 266.1,84.3 266.1,89.1 264.6,89.1 264.6,78.7 266.1,78.7 266.1,83.1 271.4,83.1 271.4,78.7 
		272.8,78.7 272.8,89.1 	"/>
	<path d="M285.4,89.1l-0.9-2.4h-4.7l-0.9,2.4h-1.4l3.8-10.4h1.6l3.8,10.4H285.4z M282.7,81.7c-0.2-0.5-0.4-1.1-0.6-1.7h0
		c-0.2,0.5-0.4,1.2-0.6,1.7l-1.3,3.8h4L282.7,81.7z"/>
	<polygon points="292.9,79.8 292.9,83.2 296.6,83.2 296.6,84.4 292.9,84.4 292.9,89.1 291.4,89.1 291.4,78.7 296.8,78.7 296.8,79.8 
			"/>
	<polygon points="305.2,79.9 305.2,89.1 303.8,89.1 303.8,79.9 300.8,79.9 300.8,78.7 308.2,78.7 308.2,79.9 	"/>
</g>
</svg>
