<?xml version="1.0" encoding="utf-8"?>
<!-- Generator: Adobe Illustrator 25.4.1, SVG Export Plug-In . SVG Version: 6.00 Build 0)  -->
<svg version="1.1" id="svg" xmlns="http://www.w3.org/2000/svg" xmlns:xlink="http://www.w3.org/1999/xlink" x="0px" y="0px"
	 viewBox="0 0 400 224.6" style="enable-background:new 0 0 400 224.6;" xml:space="preserve">
<style type="text/css">
	.st0{fill-rule:evenodd;clip-rule:evenodd;fill:#DB2C29;}
	.st1{fill-rule:evenodd;clip-rule:evenodd;fill:#016364;}
	.st2{fill-rule:evenodd;clip-rule:evenodd;fill:#231F20;}
</style>
<path class="st0" d="M40.5,1c-8.9,3-14.9,11.4-14.9,20.9c0,6.4,2,10.2,12.1,24c4.3,5.8,12.2,16.5,17.7,23.9
	c11,14.9,11.1,15,13.7,13.6c1.2-0.7,31.1-39.3,35.6-46.1c7.7-11.6,8.2-20.3,1.5-29.1C96.4-4.9,75.1-1.9,69,13.5l-0.7,1.8l-0.4-1.1
	C63.6,3,51.6-2.8,40.5,1"/>
<path class="st1" d="M351.3,2.1l-3.8,0.1l0.1,2.6l0.1,2.6l2.1,0.5l2.1,0.5V25v16.5l-2.2,0.6l-2.2,0.6v2.5v2.5h8.4h8.4v-2.5v-2.5
	l-1.5-0.7l-1.5-0.7l0.1-7.9l0.1-7.9l1.8-1.2c6-4,7.7-2,7.9,9.1l0.1,8l-1.7,0.7l-1.7,0.7l0,2.5l0,2.5h8.3h8.3v-2.5v-2.5l-2-0.6
	l-2-0.6l-0.1-9.6c-0.2-11.9-0.7-13.5-4.9-15.8c-3.4-1.8-6.9-1.3-13.9,2.2c-0.2,0.1-0.3-3.6-0.3-8.1V1.8l-3.2,0.1
	C356.5,2,353.3,2,351.3,2.1"/>
<path class="st1" d="M155,6.1l-5.2,0.1V9v2.7l2,0.8c1.8,0.7,2.1,1,2.4,2.2c0.2,0.7,2.3,8.4,4.7,17.1l4.4,15.8h4.3h4.3l3.4-11.2
	c1.9-6.2,3.6-12.1,3.8-13.1c0.2-1.1,0.5-1.9,0.7-1.9c0.1,0,1.9,5.9,3.9,13.2l3.6,13.2l4.4,0l4.4,0l5-17.1l5-17.1l2.1-0.9l2.1-0.9
	V8.7V5.8L205,6c-2.9,0.1-6.7,0.2-8.4,0.2l-3.2,0v2.7v2.7l2,0.8c1.1,0.5,2,0.9,2,1.1c0,0.3-5.2,19.6-5.3,19.7c0,0-1.8-6.1-3.9-13.7
	l-3.8-13.7l-4.1,0.2c-2.2,0.1-4.2,0.4-4.3,0.5c-0.1,0.2-1.9,6.2-4,13.3c-2.1,7.2-3.9,12.9-4.1,12.8c-0.1-0.1-1.2-4.3-2.4-9.3
	c-1.2-4.9-2.2-9.3-2.3-9.6c-0.1-0.4,0.4-0.8,1.9-1.4l2-0.8V8.8V5.9L163.8,6C161.8,6,157.8,6.1,155,6.1"/>
<path class="st2" d="M123.1,8.2c-4.2,2-5.5,4.7-6,12.1c-0.6,9.1-1.1,15-1.7,19.8c-1.4,12.9-0.6,18.3,3.7,23.2
	c6.9,7.9,4.1,16.5-8.7,27.1c-3.6,3-10.2,7.8-10.2,7.4c0-0.1,3-2.8,6.7-6c12.8-11.2,14.4-13.3,14.4-18.3c0-7.8-5.8-11.6-12.8-8.5
	C102,68,80.3,82.9,76.3,87.2c-3.3,3.5-4.9,9.7-5.3,19.4c-0.3,6.9,0.7,36.5,1.5,48.9l0.2,3h16.7c15.1,0,16.7-0.1,16.7-0.6
	c0-0.3-0.5-2.8-1.1-5.6c-6-27.1-5.9-29.1,3.7-38.5c8.3-8.1,17.2-18.6,22.4-26.4c2.6-3.8,4.2-13.5,5.4-32.3c1-15.6-0.5-38.4-2.9-43.3
	C131.5,7.7,127.3,6.2,123.1,8.2"/>
<path class="st2" d="M7.4,11.1c-5.8,1.7-7.2,8.8-7.2,37c-0.1,37.9,1.6,42,25.7,63.4c10.4,9.2,11.7,14.8,7.9,34
	c-0.8,4.2-1.6,8.9-1.7,10.4l-0.2,2.7h16.8h16.8l0-15.9c-0.1-45.9-0.6-50.4-6.1-55.7c-7.5-7.2-27.9-20-32.9-20.4
	c-5.4-0.5-9.2,4.5-8.6,11.3c0.5,5.6,2.5,8.6,8.1,12c7.4,4.6,15.1,10.2,9.9,7.3C17.1,86.5,10.9,76.6,17.2,67.2
	c2.7-4.1,3.1-8.7,1.8-20.4c-0.7-6-0.8-9.4-0.9-18.5l0-11.2l-1-1.7C15.1,11.8,11.1,10,7.4,11.1"/>
<path class="st1" d="M327.4,15.6c-4.7,1.1-7.4,4.2-7.7,8.6c-0.4,5.8,1.8,8.1,11.1,11.5c6.4,2.3,6,5.8-0.6,5.8
	c-4.1,0-4.2-0.1-4.5-2.4l-0.2-2h-2.9h-2.9v5.1v5.1l3,0.5c14.1,2.3,22.7-2,21.8-11c-0.4-4.1-2.5-5.9-9.5-8.3c-6-2.1-7.2-3.3-5.5-5.4
	c0.6-0.8,1-0.9,3.7-0.9c3.3,0,3.5,0.1,3.9,2.5l0.2,1.4h2.7h2.7v-1.2c0-0.7,0.1-2.7,0.2-4.5l0.2-3.3l-1.2-0.4
	C337.7,15.2,330.9,14.7,327.4,15.6"/>
<path class="st1" d="M276.1,18.1c-3.3-3.3-9.2-4-14-1.6l-2.6,1.3v-8v-8l-3,0.1c-1.7,0-4.7,0.1-6.8,0.2l-3.8,0.1v2.5v2.5l2.2,0.6
	l2.2,0.6v19.4v19.4l2.7,0.5c8.2,1.5,17.5,0.5,21.3-2.4C281.2,40.1,282.3,24.3,276.1,18.1z M261.1,40.9l-1.7-0.3l0-7.6
	c0-4.2,0.1-7.8,0.3-8c1.8-2.5,5.9-3.3,8.2-1.7c2,1.4,2.4,2.7,2.4,7.9C270.3,39.4,267.8,41.9,261.1,40.9z"/>
<path class="st1" d="M242.6,41.9l-2.2-0.4l-0.2-9.3c-0.2-11.7-0.9-13.8-4.9-15.8c-2.2-1.1-7.7-1.6-11.7-1.1c-0.6,0.1-2.9,0.6-5,1.1
	l-3.9,0.9v1.2c0,0.7,0.1,2.7,0.2,4.6l0.2,3.4h2.9c2.1,0,2.9-0.1,2.9-0.5c0-2.9,1.4-3.9,5.6-3.9c3.1,0,4.3,1.2,4.3,4.5v2.4l-4.5,0.2
	c-9.9,0.5-13.4,3.2-13.5,10c0,8.9,8.1,12.2,16.5,6.8l2.2-1.4l0.4,1.6l0.4,1.6h4.5c2.5,0,5.3-0.1,6.2-0.2l1.7-0.2v-2.5v-2.5
	L242.6,41.9z M230.8,36.5v2l-2,1.4c-3.8,2.6-7.2,1.9-7.2-1.5c0-2.6,1.9-3.7,6.5-3.8l2.7,0V36.5z"/>
<path class="st1" d="M314.2,41.8l-2.2-0.5l-0.1-9.6c-0.1-12.3-0.8-14-5.9-15.9c-2.2-0.8-8.6-1-12-0.3c-1.5,0.3-3.8,0.8-5,1.1
	l-2.3,0.6v2.8c0,1.6,0.1,3.6,0.2,4.6l0.2,1.7l2.8-0.1l2.8-0.1l0.4-1.7c0.5-2,2-2.7,5.6-2.5c3.2,0.2,3.9,0.9,4.1,4.3l0.1,2.5
	l-4.5,0.2c-8.3,0.4-12.1,2.3-13.4,6.6c-3,10.2,6.9,16.4,16.2,10.2l2.1-1.4l0.5,1.6l0.5,1.6l4.7,0c2.6,0,5.3-0.1,6-0.2l1.4-0.2v-2.5
	v-2.5L314.2,41.8z M302.8,36.3c0,4.7-7.9,7.1-9.1,2.8c-0.8-2.9,1.4-4.4,6.3-4.5l2.8,0V36.3z"/>
<path class="st1" d="M368.9,57.5l-3,0.1v2.5v2.5l1.4,0.4c0.8,0.2,1.8,0.5,2.4,0.6l1,0.2v16.4v16.4l-2.4,0.7l-2.4,0.7v2.5v2.5h9.5
	h9.5v-2.5v-2.5l-2.6-0.7l-2.6-0.7V77V57.2l-3.9,0.1C373.7,57.4,370.6,57.5,368.9,57.5"/>
<path class="st1" d="M168.1,61c-11.2,1.8-17.6,14.1-14.9,28.4c2.6,13.4,17.1,18.6,32.6,11.6l2.1-0.9V94v-6.1l2-0.6l2-0.6v-2.7v-2.7
	l-3.6,0c-2,0-5.9,0.1-8.8,0.2l-5.2,0.2v2.5v2.5l2.3,0.7l2.3,0.7l0.1,3.4c0.1,4,0.3,3.8-3.8,4.4c-8.5,1.3-12.1-2.7-12.1-13.4
	c0-10.6,3.4-14.7,11.2-14c4.4,0.4,4.5,0.5,5.3,3.3l0.8,2.5h2.9h2.9l0.1-5.5l0.1-5.5l-2.8-0.8C177.9,60.7,172.7,60.2,168.1,61"/>
<path class="st1" d="M249.6,71c-2.1,0.6-4.4,1.7-6,2.8c-1.5,1-1.8,0.9-1.8-1v-1.7h-6.6h-6.6l0.1,2.6l0.1,2.6l2.3,0.7l2.3,0.7v9.5
	v9.5l-2.4,0.7l-2.4,0.7v2.5v2.5h8.6h8.6v-2.5v-2.5l-1.7-0.8l-1.7-0.8V89v-7.5l1.7-1.3c6.2-4.7,8.5-2.1,8.6,9.6l0,6.7l-1.7,0.8
	l-1.7,0.8v2.5v2.5h8.3h8.3v-2.5v-2.5l-2-0.7l-2-0.7l-0.2-9.4c-0.2-9.9-0.4-11.1-2.1-13.6C257.9,71.1,253.5,69.9,249.6,71"/>
<path class="st1" d="M320.5,71.2c-0.8,0.4-2.2,1.3-3.1,2c-1.8,1.4-2.1,1.3-2.2-1l0-1h-6.4h-6.4l0.1,2.7l0.1,2.7l2.3,0.7l2.3,0.7v9.4
	v9.4l-2.4,0.7l-2.4,0.7v2.5v2.5h9.9h9.9v-2.5v-2.5l-2.9-0.7l-2.9-0.7V89v-7.8l1.9-1.3c3.2-2.2,4-2,4.5,0.9l0.4,2.4l2.8,0.1l2.8,0.1
	l0.2-2.8c0.1-1.6,0.2-4.3,0.2-6v-3.2l-1.9-0.4C324.6,70.3,322.2,70.4,320.5,71.2"/>
<path class="st1" d="M224.8,89l0.1-3.8c0.3-11-7.5-17.1-18.1-14.1c-1,0.3-1.9,0.5-2.1,0.5c-0.1,0-1.2,0.7-2.4,1.5
	c-8.8,5.8-9.1,22.7-0.5,28.4c5.7,3.8,17.5,2.6,22.4-2.2c0.7-0.7-1.6-5.8-2.5-5.5c-10.1,4.1-14.9,3.1-16.3-3.4l-0.3-1.2l9.8-0.1
	L224.8,89z M206,81.2c1.5-2.8,4.1-3.9,6.6-2.8c1.4,0.6,2.7,2.5,2.7,4l0,1h-5C205,83.3,204.9,83.3,206,81.2z"/>
<path class="st1" d="M298.3,89.2l0.3-2.5c1.2-11.4-7.4-18.9-18.2-15.7c-14,4.1-15.6,26.8-2.3,31.8c5.7,2.1,14.7,0.6,19.5-3.3
	l0.8-0.7l-1.3-2.6c-1.5-2.9-1.3-2.8-2.7-2.1c-7.8,4-15.4,2-15.5-4.1l0-0.8h9.7H298.3z M278.9,83.3l0.3-0.8c1.2-3.8,4.3-5.5,7.4-4.1
	c1.3,0.6,2.1,1.7,2.5,3.7l0.3,1.2H284H278.9z"/>
<path class="st1" d="M361.5,97.2l-2.2-0.5l0-7.7c0-11.1-0.6-14-3.7-16.4c-2.6-2-9-2.7-14.9-1.6c-1.4,0.3-3.6,0.8-4.9,1.1l-2.3,0.6
	l0.2,2.8c0.1,1.5,0.2,3.6,0.2,4.5v1.8h2.9h2.9l0.2-1.2c0.4-2.2,0.6-2.4,1.7-2.8c4.6-1.6,7.9,0,8.2,4l0.2,2.4l-4.7,0.2
	c-10,0.4-13.7,3.1-13.7,10c0,8.8,8.1,12.2,16.4,6.8l2.3-1.5l0.4,1.6l0.4,1.6l3.7,0c2,0,4.8-0.1,6.2-0.2l2.5-0.2v-2.5v-2.5
	L361.5,97.2z M350.1,91.7c0,4-7.6,6.9-9.1,3.5c-1.5-3.3,0.7-5.2,6.1-5.3l3,0V91.7z"/>
<path class="st1" d="M306.3,111.7c-6.3,2.3-3.5,12.3,3,10.5c3.3-0.9,4.8-4.8,3.3-8.4C311.8,111.8,308.8,110.8,306.3,111.7"/>
<path class="st1" d="M383.4,112.9l-2.5,0.1v2.5c0,2.4,0,2.5,1,2.8c0.6,0.1,1.6,0.4,2.4,0.6l1.4,0.4l-0.1,16.4l-0.1,16.4l-2.3,0.7
	l-2.3,0.7v2.5v2.5h9.5h9.5V156v-2.6l-1.6-0.4c-0.9-0.2-2-0.5-2.5-0.7L395,152l-0.1-19.7l-0.1-19.7l-4.5,0.1
	C387.9,112.8,384.8,112.9,383.4,112.9"/>
<path class="st1" d="M153.9,117l-2.3,0.1v2.7v2.7l2.2,0.8l2.2,0.8v13.7v13.7l-2.2,0.8l-2.2,0.8v2.7v2.7h9.2h9.2v-2.7v-2.7l-2.4-0.8
	l-2.4-0.8V146v-5.4h7.7h7.7v5.4v5.4l-2.4,0.8l-2.4,0.8v2.7v2.7h9.2h9.2v-2.7v-2.7l-2.2-0.8l-2.2-0.8v-13.7v-13.7l2.2-0.8l2.2-0.8
	v-2.9v-2.9h-5.8c-3.2,0-7.3,0.1-9.2,0.2l-3.4,0.2v2.6v2.6l2.4,0.8l2.4,0.8v4.5v4.5h-7.7h-7.7v-4.5v-4.5l2.4-0.8l2.4-0.8v-2.9v-2.9
	l-6.9,0.1C159.2,116.8,155.1,116.9,153.9,117"/>
<path class="st1" d="M329.5,118.3l-4.3,0.8v4.1v4.1l-1.7,0.2c-4.1,0.6-3.8,0.3-3.8,3.5v2.9h2.8h2.8v8.7c0,9.8,0.3,11.6,2.3,13.9
	c2.8,3.2,8.2,3.6,13.5,0.9c3.6-1.8,3.6-1.7,2.2-4.3c-1.3-2.5-1.2-2.5-3.3-1.7c-4.9,1.7-5.3,1.1-5.4-9.2l-0.1-8.2h4.1h4.1v-3.3v-3.3
	h-4h-4v-5c0-2.7-0.1-4.9-0.3-4.9C333.9,117.5,331.8,117.9,329.5,118.3"/>
<path class="st1" d="M239.8,126.6c-9.6,3.2-9.2,14.6,0.7,18.4c6,2.3,6.9,2.7,7.5,3.5c1.7,2.2-0.1,3.6-4.8,3.6c-4.2,0-4,0.1-4.3-2.3
	l-0.2-1.9h-2.9H233l0.1,5l0.1,5l2.6,0.5c12.2,2.2,20.4-0.7,21.9-7.9c1.2-5.6-2-9.4-10.1-11.6c-5.2-1.5-6.9-3.7-4.2-5.5
	c2.8-1.8,6.6-0.7,7.1,2l0.2,1.5h2.7h2.7l0.1-3.3c0-1.8,0.1-3.9,0.1-4.7l0-1.4l-2.6-0.7C249.7,125.8,242.6,125.7,239.8,126.6"/>
<path class="st1" d="M305.2,126.5l-6.1,0.1v2.5v2.5l2.4,0.8l2.4,0.8v9.4v9.4l-2.4,0.7l-2.4,0.7v2.5v2.5h9h9V156v-2.5l-1.9-0.7
	l-1.9-0.7l-0.1-12.9l-0.1-12.9l-0.8,0.1C311.7,126.4,308.6,126.5,305.2,126.5"/>
<path class="st1" d="M227.9,134.2c-2.5-6.5-11.1-10.1-18.8-7.8c-8.6,2.5-12.8,11.3-10.6,22c3.2,15.4,26.6,14.5,30-1.2
	C229.3,143.9,229,136.8,227.9,134.2z M216.7,150.9c-6,3.7-11.1-4.3-8.5-13.3c1.1-3.9,5.6-5.6,8.6-3.3
	C220.7,137.1,220.6,148.5,216.7,150.9z"/>
<path class="st1" d="M274.5,158.7l2.6,0.4c12.6,1.7,20.5-8.7,17.5-23c-1.7-7.9-8.9-12.3-15.8-9.5c-0.9,0.4-2.3,1.1-3.1,1.7
	c-1.6,1.1-1.9,0.9-2-1.2c0-0.8-0.1-0.9-1.4-0.6c-0.8,0.1-3.7,0.2-6.4,0.2l-5.1,0l0.1,2.6l0.1,2.6l2.1,0.7l2.1,0.7v16.3v16.3
	l-2.2,0.6l-2.2,0.6v2.5v2.5h9.7h9.7v-2.5v-2.5l-2.9-0.7l-2.9-0.7v-3.5V158.7z M274.5,143.9c0-6.9,0-7.3,0.8-8.3
	c1.7-2.2,5.3-2.9,7.5-1.5c4,2.6,3.6,14.9-0.6,17.1c-1.5,0.8-4.7,0.9-6.6,0.3l-1.2-0.4V143.9z"/>
<path class="st1" d="M376.6,152.6l-2.1-0.5l-0.2-9.3c-0.3-12-0.9-13.8-5.5-15.9c-2.1-1-9.6-1.2-13.3-0.4c-1.3,0.3-3.5,0.8-4.7,1.1
	l-2.3,0.6l0.2,2.2c0.1,1.2,0.2,3.2,0.2,4.5v2.3h2.9h2.9l0.5-1.9c0.6-2.2,1.2-2.5,5-2.5c3.6,0,4.9,1.4,4.9,5.4l0,1.6l-3.4,0
	c-10.4,0-14.9,3-14.9,9.8c0,9.1,8.7,12.7,16.7,6.9c2-1.5,2.2-1.4,2.6,0.5l0.2,1.5l2.6,0c1.4,0,4.2-0.1,6.2-0.2l3.6-0.2v-2.5v-2.5
	L376.6,152.6z M365.1,147.1c0,3.8-6.6,6.7-8.8,3.9c-2.4-3.1,0.1-5.5,5.8-5.6l3,0V147.1z"/>
<polyline class="st2" points="32.3,181.5 32.3,183.1 216.1,183.1 400,183.1 400,181.5 400,179.8 216.1,179.8 32.3,179.8 32.3,181.5 
	"/>
<polyline class="st2" points="154.1,206.2 154.1,218 162.6,218 171,218 171,215.6 171,213.2 165.3,213.2 159.6,213.2 159.6,203.9 
	159.6,194.5 156.9,194.5 154.1,194.5 154.1,206.2 "/>
<path class="st2" d="M261.7,198.2v2.2h-1.3h-1.3v1.8v1.8h1.3h1.3v6c0,7.7,0,7.7,4.6,7.9l3.2,0.1v-1.9v-1.9l-1.4-0.1l-1.4-0.1l-0.1-5
	l-0.1-5h1.5h1.5v-1.8v-1.8h-1.5h-1.5v-2.2V196H264h-2.4V198.2"/>
<path class="st2" d="M238.3,200.4c-0.4,0.2-1.1,0.8-1.6,1.3l-0.8,1v-1.2v-1.1h-2.4h-2.4v8.8v8.8h2.4h2.4l0-4.5c0-6.8,0.7-8.4,4-8.5
	l1.5-0.1l0-2.5l0-2.5l-1.2,0C239.6,200,238.7,200.2,238.3,200.4"/>
<path class="st2" d="M298,200.3c-0.3,0.1-1,0.6-1.6,1.1l-1,0.9v-1c0-1,0-1-2.4-1h-2.4v8.8v8.8h2.4h2.4l0.1-5.5
	c0.1-6.5,0.6-7.4,3.8-7.5l1.7,0v-2.5V200l-1.2,0C299.1,200,298.3,200.1,298,200.3"/>
<path class="st2" d="M301.7,200.8c6.9,19.5,6.9,19.5,4,19.9l-1.5,0.2v1.8v1.8h2.4c4.2,0,4.1,0.1,8.7-13.2c4.2-12.1,4.1-11,1-11h-2.5
	l-1.6,5.9c-0.9,3.3-1.7,5.7-1.9,5.4c-0.1-0.3-1-2.9-1.8-5.9l-1.6-5.4h-2.7C302.3,200.4,301.6,200.5,301.7,200.8"/>
<path class="st2" d="M216.2,200.5c-7.8,3-7.3,15.6,0.7,17.5c6.6,1.6,11.4-2.2,11.4-8.8C228.4,202.5,222.4,198.1,216.2,200.5z
	 M221.1,213.8c-2.9,1.2-5.3-0.9-5.3-4.6c0-4,2.2-5.9,5.3-4.6C224.3,205.9,224.3,212.4,221.1,213.8z"/>
<path class="st2" d="M287.3,205.5c-1.4-4.1-6.9-6.6-11.4-5.1c-7.7,2.5-7.8,14.9-0.1,17.5C283.4,220.4,290,213.4,287.3,205.5z
	 M280.1,214c-2.9,0.9-4.9-1.1-4.9-4.8c0-3.9,2.3-5.9,5.3-4.6C283.9,206,283.6,212.9,280.1,214z"/>
<path class="st2" d="M197.5,201.6l-0.8,0.8v-3.9v-3.9h-2.4h-2.4v11.7V218h2.4c2.2,0,2.4-0.1,2.4-0.7c0-0.7,0-0.7,1.1,0.1
	c3.5,2.6,8.8,0.6,10.5-4.1C211.3,204.6,203.5,196.1,197.5,201.6z M203.8,210.2c-1.5,7-8.3,4.4-7-2.7c0.5-2.9,3.8-4.2,5.7-2.2
	C203.5,206.3,204.1,208.8,203.8,210.2z"/>
<path class="st2" d="M188.9,216.6c-0.3-0.3-0.5-2.4-0.6-7l-0.1-6.6l-1-1c-1.8-1.8-6.5-2.5-9.7-1.4c-2.2,0.8-3.9,3-3.9,5.1
	c0,1.3,4.4,0.9,5.2-0.5c1-1.8,4.7-1.4,4.7,0.6c0,1-0.1,1-4.2,1.7c-4.6,0.7-6.1,2.2-6.1,5.9c0,4.4,5.5,6.8,9.2,4
	c1.1-0.8,1.7-0.6,1.8,0.5c0,0.2,1.2,0.3,2.6,0.3C189.4,218,190,217.6,188.9,216.6z M182.4,213.7c-1.9,1.7-4.4,1.3-4.4-0.9
	c0-1.3,0.7-1.8,3.2-2.3l2.1-0.4l0.1,1.3C183.5,212.4,183.3,212.8,182.4,213.7z"/>
<path class="st2" d="M257.8,216.3c-0.4-0.8-0.5-2.4-0.5-6.9c0-6.6-0.3-7.5-2.6-8.6c-1.7-0.8-6.3-1-8.2-0.3c-1.9,0.7-3.1,1.9-3.5,3.5
	c-0.6,2.2-0.6,2.2,2,2.2c1.8,0,2.4-0.1,2.4-0.5c0-1.4,2.8-2.2,4.4-1.3c2,1.1,0.6,2.3-3.1,2.9c-5.7,0.8-8,4-6.1,8.4
	c1.2,2.9,7.2,3.6,9.4,1.1l0.7-0.8l0.2,0.9c0.2,0.8,0.4,0.9,2.8,1C258.5,218,258.7,217.9,257.8,216.3z M247.4,214.2
	c-1.7-1.7,0.4-3.6,4.8-4.3c0.2,0,0.3,0.5,0.3,1.3C252.5,213.7,249,215.8,247.4,214.2z"/>
</svg>
