<?xml version="1.0" encoding="utf-8"?>
<!-- Generator: Adobe Illustrator 25.4.1, SVG Export Plug-In . SVG Version: 6.00 Build 0)  -->
<svg version="1.1" id="Layer_1" xmlns="http://www.w3.org/2000/svg" xmlns:xlink="http://www.w3.org/1999/xlink" x="0px" y="0px"
	 viewBox="0 0 595.3 173" style="enable-background:new 0 0 595.3 173;" xml:space="preserve">
<style type="text/css">
	.st0{fill:#01637F;}
	.st1{fill:#A4001D;}
</style>
<path class="st0" d="M108.2,60.4h14.3h3.1l2.7-0.8l2.7-1.5l1.9-1.5l1.9-2.3L136,52l0.8-2.7l0.4-3.1l-0.4-3.1L136,40l-1.2-2.3
	l-1.9-1.9l-1.9-1.9l-2.7-1.2l-2.7-0.8l-3.1-0.4H109h-0.8V60.4z M97.4,105.9l-1.9-0.4l-1.5-0.8l-1.2-0.8l-1.2-1.5l-0.8-1.5l-0.4-1.5
	v-1.9V25.8v-1.9l0.4-1.9l0.8-1.5l1.2-1.2l1.5-1.2l1.5-0.8l1.5-0.4h2.3h23.2h3.5l3.5,0.4l3.1,0.8l3.1,0.8l3.1,1.2l2.7,1.5l2.3,1.5
	l2.3,1.9l1.9,1.9l1.9,2.3l1.5,2.3l1.2,2.7l1.2,2.7L155,40l0.4,3.1v3.1v3.1l-0.4,3.1l-0.8,2.7l-1.2,2.7l-1.2,2.7l-1.5,2.3l-1.9,2.3
	l-1.9,1.9l-2.3,1.9l-2.3,1.5l-2.7,1.5l-2.7,1.2l-3.1,1.2l-3.1,0.4l-3.1,0.4l-3.5,0.4h-15.5v21.9l-0.4,1.9l-0.4,1.5l-0.8,1.5
	l-1.2,1.5l-1.2,0.8l-1.5,0.8l-1.5,0.4l-1.9,0.4L97.4,105.9z"/>
<polygon class="st0" points="188.6,106.6 183.2,106.2 178.2,105.5 173.2,104.3 168.9,102.4 167,101.2 165.4,100.1 163.9,98.9 
	163.1,97.4 162.3,95.5 161.9,93.5 162.3,92 162.7,90.5 163.5,88.9 164.3,87.8 165.4,87 166.6,86.2 168.1,85.8 170.1,85.5 172,85.8 
	174.3,86.2 179,87.8 185.1,89.7 188.6,90.5 192.1,90.5 195.2,90.5 197.9,89.7 200.6,88.9 202.5,87.4 204.1,85.5 205.2,83.5 
	206,81.2 206.4,78.5 206,76.2 205.2,74.3 203.3,72.4 201.4,71.2 198.7,70.1 196,68.9 189.4,67 184.4,65.4 179.7,64.3 175.1,62.4 
	171.2,60.1 169.3,58.5 167.7,57 166.2,55.4 165,53.5 163.9,51.2 163.1,48.9 162.7,46.2 162.3,43.1 162.7,39.7 163.1,36.6 
	164.3,33.9 165.4,31.2 166.6,28.5 168.5,26.2 170.4,24.3 172.4,22.3 174.7,20.8 177.4,19.2 179.7,18.1 182.4,16.9 185.5,16.2 
	188.2,15.8 194,15.4 197.5,15.4 201.4,15.8 205.6,16.6 209.5,17.7 213.4,19.2 216.1,21.6 217.2,22.7 218,23.9 218.8,25.4 
	218.8,26.9 218.8,28.5 218.4,30 217.6,31.6 216.8,32.7 215.7,33.9 214.5,34.6 213,35 211,35.4 209.5,35.4 208,35 204.5,33.9 
	199.4,32.3 196.7,32 193.6,31.6 190.9,32 188.6,32.3 186.7,33.1 185.1,34.3 183.6,35.4 182.8,37 182,38.9 181.7,40.8 182,42.7 
	183.2,44.7 184.4,46.2 186.3,47.3 188.6,48.5 191.3,49.3 197.1,51.2 202.2,52.4 207.2,53.9 211.8,56.2 216.1,58.9 218.4,60.4 
	219.9,62.4 221.5,64.3 223,66.6 224.2,68.9 225,72 225.4,75.1 225.7,78.5 225.4,82 225,85.1 224.2,88.2 223,90.8 221.5,93.2 
	219.6,95.9 217.6,97.8 215.3,99.7 213,101.2 210.7,102.8 208,103.9 204.9,105.1 202.2,105.9 199.1,106.6 192.9,107 "/>
<polygon class="st0" points="429.1,106.2 427.2,105.9 426,105.1 424.5,104.3 423.7,103.2 422.9,102 422.2,100.1 421.8,98.2 
	413.7,43.1 412.9,43.1 395.9,99.7 395.5,101.2 394.7,102.4 393.9,103.6 392.8,104.7 391.2,105.1 390.1,105.9 386.6,106.2 
	383.1,105.9 381.6,105.1 380.4,104.7 379.2,103.6 378.5,102.4 377.7,101.2 376.9,99.7 360.3,43.1 359.5,43.1 351,98.2 350.6,100.1 
	350.3,102 349.5,103.2 348.3,104.3 347.2,105.1 345.6,105.9 344.1,106.2 341.7,106.2 340.2,105.9 338.6,105.5 337.1,104.7 
	335.9,103.9 334.8,102.8 334,101.2 333.6,99.7 333.6,98.2 333.6,95.9 346,25 346.4,23.5 347.2,21.9 348.3,20.4 349.9,18.9 
	351.4,17.7 353.3,16.9 355.3,16.2 357.6,16.2 359.9,16.2 361.8,16.9 363.8,17.7 365.7,18.9 367.3,20 368.4,21.6 369.2,23.1 
	370,24.6 386.2,77.4 387,77.4 403.2,24.6 404,23.1 404.8,21.6 405.9,20 407.5,18.9 409,17.7 411,16.9 413.3,16.2 415.2,16.2 
	417.5,16.2 419.8,16.9 421.8,17.7 423.3,18.9 424.9,20.4 426,21.9 426.8,23.5 427.2,25 439.6,95.9 439.6,98.2 439.6,99.7 
	438.8,101.2 438,102.8 437.2,103.9 436.1,104.7 434.5,105.5 433,105.9 431.1,106.2 "/>
<polygon class="st0" points="460.5,105.5 458.5,105.1 456.6,104.7 455,103.9 453.9,103.2 452.7,101.6 451.9,100.5 451.6,98.5 
	451.2,97 451.2,26.9 451.6,24.6 451.9,22.7 452.7,20.8 453.5,19.3 455,18.1 456.6,17.3 458.5,16.9 460.5,16.9 492.9,16.9 
	495.3,16.9 496.8,17.3 498.3,18.1 499.5,19.3 500.3,20.4 501.1,21.6 501.4,23.1 501.4,24.6 501.4,26.2 501.1,27.3 500.3,28.9 
	499.1,30 498,30.8 496.8,31.6 494.9,32.3 492.9,32.3 469,32.3 469,53.1 491.4,53.1 493.7,53.1 495.3,53.5 496.8,54.3 498,55.4 
	499.1,56.6 499.5,57.7 499.9,59.3 499.9,60.8 499.9,62 499.5,63.5 498.7,65.1 498,66.2 496.8,67 495.3,67.8 493.3,68.5 491.4,68.5 
	469,68.5 469,89.7 494.1,89.7 496.4,90.1 498,90.5 499.5,91.2 500.7,92.4 501.4,93.5 502.2,94.7 502.6,96.2 502.6,97.8 502.6,98.9 
	502.2,100.5 501.4,101.6 500.3,103.2 499.1,103.9 498,104.7 496,105.1 494.1,105.5 "/>
<path class="st0" d="M530.4,89.7h8.5h3.1l2.7-0.4l2.7-0.4l2.3-1.2l2.3-1.2l2.3-1.2l1.9-1.5l1.5-1.5l1.5-1.9l1.5-2.3l1.2-2.3l0.8-2.7
	l0.8-2.7l0.8-2.7l0.4-3.1v-3.1v-3.5l-0.4-3.1l-0.8-3.1l-0.8-2.7l-0.8-2.7l-1.2-2.3l-1.5-2.3l-1.5-1.9l-1.9-1.9l-1.9-1.5l-2.3-1.2
	l-2.3-1.2l-2.7-0.8l-2.7-0.8l-3.1-0.4h-3.1h-6.2h-1.2V89.7z M522.3,105.5l-1.9-0.4h-1.5l-1.5-0.8l-1.5-1.2l-1.5-1.5l-0.8-1.9L513,97
	V25.4v-1.5l0.4-1.9l0.8-1.5l1.2-1.2l1.5-1.2l1.5-0.8l1.5-0.4h1.9h16.2h5l5,0.8l4.6,0.8l4.3,1.5l3.9,1.5l3.9,1.9l3.5,2.7l3.1,2.7
	l2.7,3.1l2.3,3.5l1.9,3.9l1.9,3.8l1.2,4.6l1.2,4.6L583,57l0.4,5.4L583,67l-0.4,4.6l-1.2,4.6l-1.2,3.8l-1.9,3.8l-1.9,3.5l-2.3,3.5
	l-2.7,2.7l-3.1,2.7l-3.5,2.3l-3.5,2.3l-3.9,1.5l-4.3,1.2l-4.3,1.2l-4.6,0.4l-5,0.4H522.3z"/>
<polygon class="st0" points="244.7,85.8 242.8,85.5 241.2,85.1 239.7,83.9 238.5,82.8 237.7,81.2 235.8,76.2 234.2,71.6 233.5,66.2 
	233.1,61.2 233.1,56.6 233.9,52 235,47.7 236.6,43.5 238.9,39.3 241.2,35.4 243.9,32 247,28.9 250.5,25.8 254,23.1 257.8,20.8 
	262.1,18.9 266.3,17.3 271,16.2 275.6,15.4 280.6,15.4 286.1,15.4 291.1,16.2 296.1,17.7 301.1,19.6 302.7,20.8 303.8,21.9 
	305,23.1 305.8,24.6 306.2,26.6 306.2,28.1 306.2,29.6 305.4,31.6 304.2,33.1 303.1,34.3 301.9,35.4 300,36.2 298.4,36.6 
	296.9,36.6 295,36.2 293,35.8 290.3,34.3 287.2,33.5 283.7,33.1 280.6,32.7 277.6,33.1 274.8,33.5 271.8,34.3 269,35 266.7,36.2 
	264,37.7 262.1,39.3 259.8,41.2 257.8,43.1 256.3,45.4 254.7,47.7 253.6,50 252.4,52.7 252,55.4 251.3,58.5 251.3,61.2 251.3,64.3 
	252,67.4 252.8,70.4 254,73.5 254.7,75.1 255.1,77 254.7,78.5 254.4,80.1 253.6,81.6 252.8,83.1 251.3,84.3 249.7,85.1 248.2,85.8 
	246.2,86.2 "/>
<polygon class="st0" points="275.2,107 270.2,106.2 264.8,104.7 260.2,102.8 258.6,102 257.1,100.9 256.3,99.3 255.5,97.8 
	255.1,96.2 254.7,94.3 255.1,92.8 255.9,90.8 256.7,89.3 257.8,88.2 259.4,87.4 260.9,86.6 262.5,86.2 264.4,85.8 266.3,86.2 
	267.9,87 271,88.2 274.1,88.9 277.2,89.3 280.6,89.7 283.7,89.3 286.5,88.9 289.2,88.2 291.9,87.4 294.6,86.2 296.9,84.7 
	299.2,83.1 301.1,81.2 303.1,79.3 305,77 306.2,74.7 307.7,72.4 308.5,69.7 309.3,67 309.7,64.3 310,61.2 309.7,58.1 309.3,55 
	308.1,52 306.9,48.9 306.6,47.3 306.2,45.8 306.2,43.9 306.6,42.3 307.3,40.8 308.5,39.3 309.7,38.1 311.2,37.3 313.1,36.6 
	314.7,36.6 316.6,36.6 318.2,37 319.7,37.7 321.2,38.5 322.4,40 323.6,41.6 325.5,46.2 327.1,51.2 327.8,56.2 328.2,61.2 
	327.8,65.8 327.1,70.4 325.9,75.1 324.3,79.3 322.4,83.1 320.1,87 317.4,90.5 314.3,93.9 310.8,96.6 307.3,99.3 303.1,101.6 
	299.2,103.6 294.6,105.1 290.3,106.2 285.3,107 280.6,107.4 "/>
<polygon class="st1" points="277.9,72.8 275.6,72.4 273.7,71.2 271.8,69.7 270.2,67.7 269,65.8 268.7,63.5 268.3,61.2 268.7,58.9 
	269,56.6 270.2,54.7 271.8,52.7 273.7,51.2 275.6,50.4 277.9,49.7 280.6,49.3 283,49.7 285.3,50.4 287.6,51.2 289.2,52.7 
	290.7,54.7 291.9,56.6 292.6,58.9 293,61.2 292.6,63.5 291.9,65.8 290.7,67.7 289.2,69.7 287.6,71.2 285.3,72.4 283,72.8 
	280.6,73.1 "/>
<polygon class="st0" points="45.6,158.2 43.2,158.2 40.5,157.4 39.4,157.1 38.2,156.3 37.4,155.5 37.4,154.4 37.4,153.6 37.8,152.8 
	38.6,152.4 39.8,152.1 40.9,152.4 42.1,152.8 43.6,153.2 45.2,153.6 46.7,153.2 47.9,152.4 48.6,151.7 48.6,150.5 48.6,149.7 
	48.3,149.4 47.1,148.6 43.2,147.4 40.9,146.7 39.4,145.5 38.6,144.4 37.8,143.6 37.4,142.4 37.4,141.3 37.4,139.3 38.2,137.8 
	39,136.7 40.1,135.5 41.3,134.7 42.5,134 44.4,133.6 45.9,133.6 47.9,133.6 49.8,134 51.7,135.1 52.5,135.9 52.5,136.7 52.5,137.8 
	51.7,138.6 51.4,139 50.2,139.3 49.4,139 48.3,139 47.1,138.6 45.6,138.2 44.8,138.6 43.6,139 43.2,139.3 42.8,140.5 43.2,140.9 
	43.6,141.7 44.8,142.4 48.6,143.6 50.6,144.4 52.5,145.9 53.3,146.7 53.7,147.8 54.1,149 54.4,150.5 54.1,152.1 53.7,153.6 
	52.9,155.1 51.7,156.3 50.6,157.1 49,157.8 47.5,158.2 "/>
<polygon class="st0" points="79.2,157.8 70.3,157.8 69.1,157.8 68.4,157.1 68,156.3 67.6,155.5 67.6,136.7 68,135.5 68.4,134.7 
	69.1,134 70.3,134 78.8,134 80,134 80.7,134.3 81.1,135.1 81.1,136.3 81.1,137 80.4,137.8 80,138.2 78.8,138.6 72.6,138.6 
	72.6,143.6 78.4,143.6 79.6,143.6 80.4,144 80.7,144.7 80.7,145.9 80.7,146.7 80.4,147.4 79.6,147.8 78.4,148.2 72.6,148.2 
	72.6,153.2 79.2,153.2 80,153.6 80.7,154 81.1,154.7 81.5,155.5 81.1,156.3 80.7,157.1 80,157.8 "/>
<polygon class="st0" points="106.3,157.8 97.8,157.8 96.6,157.8 95.8,157.1 95.4,156.3 95.4,155.1 95.4,136.3 95.4,135.1 
	95.8,134.3 96.6,134 97.8,133.6 98.9,134 99.7,134.3 100.1,135.1 100.5,136.3 100.5,153.2 106.3,153.2 107.4,153.6 108.2,154 
	108.6,154.7 109,155.5 108.6,156.7 108.2,157.1 107.4,157.8 "/>
<polygon class="st0" points="123.3,157.8 122.1,157.4 121.7,156.7 121.7,155.5 121.7,136.3 121.7,135.5 122.1,134.7 123.3,134 
	124,134 132.9,134 134.1,134 134.5,134.3 135.3,135.1 135.3,136.3 135.3,137 134.5,137.8 134.1,138.2 132.9,138.6 126.8,138.6 
	126.8,143.6 131.8,143.6 132.9,143.6 133.7,144 134.1,144.7 134.5,145.9 134.1,146.7 133.7,147.4 132.9,147.8 131.8,148.2 
	126.8,148.2 126.8,155.5 126.4,156.7 126,157.4 125.2,157.8 124,158.2 "/>
<polygon class="st0" points="158.5,158.2 156.1,158.2 153.8,157.4 151.9,156.3 150.3,154.7 148.8,152.8 147.6,150.9 147.2,148.6 
	146.9,145.9 147.2,143.2 147.6,140.9 148.8,139 150,137 151.9,135.5 153.8,134.3 156.1,133.6 158.5,133.6 160.8,133.6 163.1,134.3 
	164.3,134.7 165,135.5 165.8,136.3 165.8,137 165.8,138.2 165.4,139 164.6,139.3 163.9,139.3 162.7,139.3 161.9,139 160.4,138.6 
	158.5,138.2 157.3,138.6 155.8,139 154.6,139.7 153.8,140.5 153,141.7 152.7,143.2 152.3,145.9 152.7,149 153,150.1 153.8,151.3 
	154.6,152 155.8,152.8 157.3,153.2 158.5,153.6 160.4,153.2 161.9,152.8 163.1,152.4 163.9,152 165,152.4 165.8,152.8 166.2,153.6 
	166.2,154.4 166.2,155.5 165.4,156.3 164.6,157.1 163.5,157.4 160.8,158.2 "/>
<path class="st0" d="M185.9,148.6h6.2l-3.1-10L185.9,148.6z M196.4,157.8l-0.8-0.4l-0.4-0.4l-0.4-0.8l-1.2-3.1h-9.3l-1.2,3.1
	l-0.4,0.8l-0.4,0.4l-0.8,0.4l-0.8,0.4l-1.2-0.4l-0.8-0.4l-0.4-0.8l-0.4-0.8l0.4-1.2l7-18.5l0.4-1.2l0.8-0.8l1.2-0.8h1.2h1.2l1.2,0.8
	l0.8,0.8l0.8,1.2l6.6,18.5v1.2v0.8l-0.4,0.8l-0.8,0.4l-1.2,0.4L196.4,157.8z"/>
<path class="st0" d="M217.6,144.4h3.5h1.2l1.2-0.8l0.4-0.8l0.4-1.5l-0.4-1.2l-0.4-0.8l-1.2-0.8h-1.2h-3.5V144.4z M226.1,157.8
	l-1.2-0.4l-7.3-9.2v7.3l-0.4,1.2l-0.4,0.8l-0.8,0.4l-1.2,0.4l-1.2-0.4l-0.8-0.4l-0.4-0.8l-0.4-1.2v-19.2l0.4-0.8l0.4-1.2l0.8-0.4
	h1.2h6.2h1.9l1.5,0.4l1.5,0.4l1.2,0.8l0.8,1.2l0.8,1.5l0.4,1.5l0.4,1.5l-0.4,1.5l-0.4,1.2l-0.4,1.2l-0.8,0.8l-1.9,1.2l-2.7,0.8
	l5.8,6.2l0.8,0.8v0.8v1.2l-0.8,0.8l-0.8,0.4l-0.8,0.4L226.1,157.8z"/>
<polygon class="st0" points="254.7,157.8 245.9,157.8 244.7,157.8 243.9,157.1 243.5,156.3 243.1,155.5 243.1,136.7 243.1,135.5 
	243.9,134.7 244.7,134 245.9,134 254.4,134 255.1,134 255.9,134.3 256.7,135.1 256.7,136.3 256.7,137 255.9,137.8 255.1,138.2 
	254.4,138.6 248.2,138.6 248.2,143.6 254,143.6 254.7,143.6 255.5,144 256.3,144.7 256.3,145.9 256.3,146.7 255.5,147.4 
	254.7,147.8 254,148.2 248.2,148.2 248.2,153.2 254.7,153.2 255.5,153.6 256.3,154 256.7,154.7 257.1,155.5 256.7,156.3 
	256.3,157.1 255.5,157.8 "/>
<polygon class="st0" points="312.7,158.2 310,158.2 307.3,157.4 306.2,157.1 305.4,156.3 304.6,155.5 304.2,154.4 304.6,153.6 
	305,152.8 305.8,152.4 306.6,152 307.7,152.4 309.3,152.8 310.8,153.2 312.4,153.6 313.9,153.2 315.1,152.4 315.4,151.7 
	315.8,150.5 315.4,149.7 315.4,149.4 313.9,148.6 310,147.4 308.1,146.7 306.2,145.5 305.4,144.4 305,143.6 304.6,142.4 
	304.2,141.3 304.6,139.3 305,137.8 305.8,136.7 306.9,135.5 308.1,134.7 309.7,134 311.2,133.6 312.7,133.6 314.7,133.6 317,134 
	318.9,135.1 319.3,135.9 319.7,136.7 319.3,137.8 318.9,138.6 318.2,139 317.4,139.3 316.2,139 315.1,139 313.9,138.6 312.7,138.2 
	311.6,138.6 310.8,139 310,139.3 310,140.5 310,140.9 310.4,141.7 311.6,142.4 315.4,143.6 317.8,144.4 319.3,145.9 320.1,146.7 
	320.9,147.8 321.2,149 321.2,150.5 321.2,152 320.5,153.6 319.7,155.1 318.5,156.3 317.4,157.1 315.8,157.8 314.3,158.2 "/>
<path class="st0" d="M342.5,138.6l-1.2,0.8l-0.8,1.2l-0.8,1.2l-0.4,1.2l-0.4,3.1l0.4,3.1l0.4,1.2l0.8,1.2l0.8,1.2l1.2,0.8l1.2,0.4
	h1.5h1.5l1.5-0.4l1.2-0.8l0.8-1.2l0.8-1.2l0.4-1.2l0.4-3.1l-0.4-3.1l-0.4-1.2l-0.8-1.2l-1.2-1.2l-0.8-0.8l-1.5-0.4h-1.5h-1.2
	L342.5,138.6z M345.2,158.2h-2.3l-2.3-0.8l-1.9-1.2l-1.5-1.5l-1.5-1.9l-1.2-1.9l-0.4-2.3l-0.4-2.7l0.4-2.7l0.4-2.3l1.2-1.9l1.5-1.9
	l1.5-1.5l1.9-1.2l2.3-0.8h2.3h2.7l2.3,0.8l1.9,1.2l1.5,1.5l1.5,1.9l0.8,1.9l0.8,2.3l0.4,2.7l-0.4,2.7l-0.8,2.3l-0.8,1.9l-1.5,1.9
	l-1.5,1.5l-1.9,1.2l-2.3,0.8H345.2z"/>
<polygon class="st0" points="381.6,157.8 373.1,157.8 371.9,157.8 371.1,157.1 370.4,156.3 370.4,155.1 370.4,136.3 370.4,135.1 
	371.1,134.3 371.9,134 373.1,133.6 373.8,134 374.6,134.3 375.4,135.1 375.4,136.3 375.4,153.2 381.6,153.2 382.7,153.6 383.5,154 
	383.9,154.7 383.9,155.5 383.9,156.7 383.1,157.1 382.3,157.8 "/>
<polygon class="st0" points="406.3,158.2 404,158.2 402.1,157.4 400.5,156.7 399,155.5 397.4,154 396.6,152.4 395.9,150.5 
	395.9,148.2 395.9,136.3 395.9,135.1 396.6,134.3 397.4,134 398.2,133.6 399.4,134 400.1,134.3 400.9,135.1 400.9,136.3 
	400.9,148.2 401.3,150.1 402.5,152 404,153.2 405.2,153.6 406.3,153.6 407.1,153.6 408.3,153.2 409.8,152 411,150.1 411.3,148.2 
	411.3,136.3 411.7,135.1 412.1,134.3 412.9,134 414.1,133.6 414.8,134 415.6,134.3 416.4,135.1 416.4,136.3 416.4,148.2 
	416.4,150.5 415.6,152.4 414.8,154 413.3,155.5 411.7,156.7 410.2,157.4 408.3,158.2 "/>
<polygon class="st0" points="436.1,157.8 435.3,157.4 434.9,156.7 434.5,155.5 434.5,138.6 430.7,138.6 429.9,138.2 429.1,137.8 
	428.7,137 428.4,136.3 428.7,135.1 429.1,134.3 429.9,134 430.7,134 443.4,134 444.2,134 445,134.3 445.4,135.1 445.8,136.3 
	445.4,137 445,137.8 444.6,138.2 443.4,138.6 439.6,138.6 439.6,155.5 439.6,156.7 438.8,157.4 438,157.8 437.3,158.2 "/>
<polygon class="st0" points="459.7,157.8 458.5,157.4 458.1,156.7 458.1,155.5 458.1,136.3 458.1,135.1 458.5,134.3 459.7,134 
	460.5,133.6 461.6,134 462.4,134.3 462.8,135.1 463.2,136.3 463.2,155.5 462.8,156.7 462.4,157.4 461.6,157.8 460.5,158.2 "/>
<path class="st0" d="M485.2,138.6l-1.2,0.8l-0.8,1.2l-0.8,1.2l-0.4,1.2l-0.4,3.1l0.4,3.1l0.4,1.2l0.8,1.2l0.8,1.2l1.2,0.8l1.2,0.4
	h1.5h1.5l1.5-0.4l1.2-0.8l0.8-1.2l0.8-1.2l0.4-1.2l0.4-3.1l-0.4-3.1l-0.4-1.2l-0.8-1.2l-1.2-1.2l-0.8-0.8l-1.5-0.4h-1.5h-1.5
	L485.2,138.6z M487.9,158.2h-2.3l-2.3-0.8l-1.9-1.2l-1.5-1.5l-1.5-1.9l-1.2-1.9l-0.4-2.3l-0.4-2.7l0.4-2.7l0.4-2.3l1.2-1.9l1.2-1.9
	l1.9-1.5l1.9-1.2l2.3-0.8h2.3h2.7l2.3,0.8l1.9,1.2l1.5,1.5l1.5,1.9l0.8,1.9l0.8,2.3l0.4,2.7l-0.4,2.7l-0.8,2.3l-0.8,1.9l-1.5,1.9
	l-1.5,1.5l-1.9,1.2l-2.3,0.8H487.9z"/>
<polygon class="st0" points="529.7,157.8 528.9,157.1 518.1,142.8 518.1,155.5 517.7,156.7 517.3,157.4 516.5,157.8 515.4,158.2 
	514.2,157.8 513.4,157.4 513,156.7 512.7,155.5 512.7,136.3 513,135.1 513.4,134.3 514.2,134 515.4,133.6 516.5,134 517.7,134.7 
	528.1,149 528.5,149 528.5,136.3 528.5,135.1 529.3,134.3 530.1,134 530.8,133.6 532,134 532.8,134.3 533.1,135.1 533.5,136.3 
	533.5,155.5 533.1,156.7 532.8,157.4 532,157.8 530.8,158.2 "/>
<polygon class="st0" points="554.8,158.2 552.5,158.2 549.8,157.4 548.6,157.1 547.5,156.3 546.7,155.5 546.7,154.4 546.7,153.6 
	547.1,152.8 547.8,152.4 549,152.1 550.2,152.4 551.7,152.8 552.9,153.2 554.4,153.6 556,153.2 557.1,152.4 557.9,151.7 
	557.9,150.5 557.9,149.7 557.5,149.4 556.3,148.6 552.5,147.4 550.2,146.7 548.6,145.5 547.8,144.4 547.1,143.6 546.7,142.4 
	546.7,141.3 547.1,139.3 547.5,137.8 548.2,136.7 549.4,135.5 550.5,134.7 552.1,134 553.6,133.6 555.2,133.6 557.1,133.6 
	559.1,134 561,135.1 561.8,135.9 561.8,136.7 561.8,137.8 561.4,138.6 560.6,139 559.4,139.3 558.7,139 557.5,139 556.3,138.6 
	555.2,138.2 554,138.6 553.3,139 552.5,139.3 552.1,140.5 552.5,140.9 552.9,141.7 554,142.4 557.9,143.6 559.8,144.4 561.8,145.9 
	562.5,146.7 562.9,147.8 563.3,149 563.7,150.5 563.3,152.1 562.9,153.6 562.1,155.1 561,156.3 559.8,157.1 558.3,157.8 
	556.7,158.2 "/>
<polygon class="st0" points="45.2,105.9 43.2,105.5 41.7,104.7 40.5,103.5 39.7,102.4 39,100.9 38.6,99.3 38.6,97.8 38.6,63.5 
	13.5,29.6 12.3,26.9 11.9,24.3 11.9,22.7 12.3,21.2 13.1,19.6 14.2,18.5 15.4,17.3 16.9,16.6 18.5,16.2 20.4,16.2 22.3,16.2 
	24.7,16.9 26.2,18.1 27.4,19.2 44.8,43.5 47.5,47.3 51.7,41.2 67.2,19.2 68.4,18.1 70.3,16.9 72.2,16.2 74.6,16.2 76.1,16.2 
	77.6,16.6 79.2,17.3 80.4,18.5 81.5,19.6 82.3,21.2 82.7,22.7 83.1,24.3 82.3,26.9 81.1,29.6 56,63.5 56,97.8 56,99.3 55.6,100.9 
	55.2,102.4 54.1,103.5 52.9,104.7 51.4,105.5 49.4,105.9 47.5,106.2 "/>
</svg>
