<svg width="300" height="37" viewBox="0 0 300 37" fill="none" xmlns="http://www.w3.org/2000/svg">
<path fill-rule="evenodd" clip-rule="evenodd" d="M178.514 28.6456C178.436 28.656 178.358 28.6485 178.283 28.6235C178.209 28.5985 178.142 28.5567 178.087 28.5013C178.031 28.446 177.99 28.3787 177.964 28.3046C177.939 28.2304 177.932 28.1515 177.942 28.074V0.576133C177.932 0.498608 177.939 0.41971 177.964 0.345587C177.99 0.271464 178.031 0.20412 178.087 0.148803C178.142 0.0934856 178.209 0.0516903 178.283 0.0266747C178.358 0.00165908 178.436 -0.00590111 178.514 0.00458343H179.467C179.544 -0.00590111 179.623 0.00165908 179.697 0.0266747C179.771 0.0516903 179.839 0.0934856 179.894 0.148803C179.949 0.20412 179.991 0.271464 180.016 0.345587C180.041 0.41971 180.049 0.498608 180.038 0.576133V17.8496L188.675 9.59391C188.909 9.35461 189.229 9.21765 189.564 9.21288H190.834C191.152 9.21288 191.279 9.33989 191.279 9.53041C191.279 9.72092 191.152 9.84793 190.898 10.102L182.197 18.3577L191.66 27.7565C191.819 27.886 191.93 28.0647 191.977 28.2645C191.977 28.5185 191.85 28.6456 191.533 28.6456H190.008C189.867 28.6466 189.726 28.6191 189.595 28.5645C189.464 28.5099 189.346 28.4295 189.246 28.328L180.102 19.1197V28.074C180.112 28.1515 180.105 28.2304 180.08 28.3046C180.054 28.3787 180.013 28.446 179.957 28.5013C179.902 28.5567 179.835 28.5985 179.761 28.6235C179.686 28.6485 179.608 28.656 179.53 28.6456H178.514ZM64.1405 22.7396C64.1311 23.4045 64.2166 24.0675 64.3946 24.7082C64.6007 25.2488 64.8338 25.7787 65.0931 26.2959C65.201 26.4418 65.2467 26.6244 65.2201 26.8039C65.2096 26.9399 65.1628 27.0705 65.0846 27.1822C65.0065 27.2939 64.8997 27.3826 64.7756 27.439L63.442 28.3281C63.2749 28.4475 63.0758 28.5139 62.8704 28.5186C62.747 28.5196 62.6251 28.4913 62.5147 28.4361C62.4044 28.3809 62.3086 28.3004 62.2354 28.201C61.9272 27.9066 61.6697 27.5633 61.4733 27.185C61.3849 27.0081 61.2828 26.8176 61.1734 26.6134L61.1734 26.6134L61.1732 26.6131C61.0469 26.3774 60.9108 26.1235 60.7748 25.8513C60.0032 26.8085 59.0259 27.5795 57.9155 28.1072C56.8051 28.635 55.5901 28.9058 54.3607 28.8996C53.5611 28.9427 52.7611 28.8244 52.0082 28.5516C51.2554 28.2788 50.5652 27.8572 49.9788 27.312C49.4487 26.7541 49.0352 26.096 48.7626 25.3763C48.49 24.6566 48.3637 23.8897 48.3912 23.1206C48.3532 22.284 48.5048 21.4496 48.8348 20.6798C49.1647 19.91 49.6643 19.2247 50.2963 18.6752C51.8156 17.4905 53.7058 16.8829 55.6308 16.9606C56.3968 16.9609 57.1615 17.0246 57.917 17.1511L57.9171 17.1511C58.7426 17.2781 59.5682 17.4051 60.3937 17.5956V16.008C60.5201 14.7561 60.1559 13.5039 59.3776 12.5152C58.362 11.7417 57.0923 11.3789 55.8213 11.4991C55.0282 11.511 54.2394 11.6176 53.4716 11.8166C52.6682 12.0034 51.8821 12.2583 51.1219 12.5787C50.9949 12.6422 50.8679 12.6898 50.7409 12.7375C50.6139 12.7851 50.4869 12.8327 50.3599 12.8962H50.0423C49.7248 12.8962 49.5978 12.6422 49.5978 12.1977V11.1816C49.6089 10.9233 49.6516 10.6674 49.7248 10.4195C49.8924 10.2166 50.1118 10.063 50.3599 9.97497C51.2327 9.54312 52.1478 9.20262 53.0906 8.95888C54.2126 8.67815 55.3634 8.52897 56.5199 8.51434C58.5854 8.32604 60.6412 8.96562 62.2354 10.2925C62.8888 11.0227 63.3885 11.8769 63.7049 12.8043C64.0213 13.7316 64.1479 14.7132 64.077 15.6905V22.7396H64.1405ZM55.2498 26.1054C56.0274 26.1027 56.7995 25.9741 57.536 25.7243C58.338 25.4726 59.0459 24.9859 59.5682 24.3272C59.8957 23.9289 60.1533 23.478 60.3302 22.9936C60.4565 22.3664 60.5203 21.7282 60.5207 21.0884V20.1994C59.8857 20.0723 59.1872 19.9453 58.4886 19.8183L58.4886 19.8183C57.79 19.6913 57.1549 19.6913 56.4564 19.6913C55.3092 19.6308 54.1731 19.9426 53.2176 20.5804C52.8771 20.8798 52.6087 21.2525 52.4328 21.6705C52.2568 22.0884 52.1777 22.5407 52.2015 22.9936C52.1726 23.4111 52.2311 23.8301 52.3733 24.2237C52.5154 24.6174 52.7381 24.977 53.0271 25.2798C53.6304 25.8369 54.4291 26.1336 55.2498 26.1054ZM72.7773 28.4551C72.4907 28.4598 72.2073 28.3944 71.9517 28.2645C71.7201 28.0432 71.5645 27.7542 71.5072 27.439L66.4267 10.5465C66.2967 10.2684 66.2315 9.96441 66.2362 9.65744C66.221 9.59839 66.2192 9.53666 66.231 9.47682C66.2428 9.41698 66.268 9.36058 66.3046 9.31178C66.3412 9.26298 66.3883 9.22305 66.4424 9.19494C66.4965 9.16683 66.5563 9.15126 66.6173 9.1494H68.9035C69.1901 9.14469 69.4735 9.21009 69.729 9.33991C69.9378 9.57787 70.0898 9.86017 70.1736 10.1655L73.8569 24.5812L77.2227 10.1655C77.2655 9.84537 77.4235 9.55185 77.6672 9.33991C77.7934 9.24691 77.938 9.18182 78.0912 9.14897C78.2445 9.11612 78.4031 9.11627 78.5563 9.1494H80.3344C80.6414 9.14471 80.9454 9.20986 81.2235 9.33991C81.4551 9.56129 81.6107 9.85027 81.6681 10.1655L85.0974 24.7717L88.9077 10.1655C88.9772 9.85469 89.131 9.56905 89.3522 9.33991C89.4678 9.25025 89.6015 9.18677 89.7441 9.15387C89.8866 9.12098 90.0346 9.11945 90.1778 9.1494H92.21C92.269 9.13412 92.3308 9.13233 92.3906 9.14416C92.4504 9.15599 92.5068 9.18113 92.5556 9.21773C92.6044 9.25432 92.6444 9.30144 92.6725 9.35557C92.7006 9.4097 92.7161 9.46946 92.718 9.53043V9.97497C92.6889 10.0623 92.6731 10.1497 92.6585 10.231C92.6412 10.3269 92.6254 10.4143 92.591 10.483L87.32 27.3755C87.2505 27.6863 87.0967 27.9719 86.8755 28.201C86.7599 28.2907 86.6262 28.3542 86.4837 28.3871C86.3411 28.42 86.1931 28.4215 86.0499 28.3916H84.1448C83.9871 28.4139 83.8264 28.4028 83.6732 28.359C83.5201 28.3153 83.3778 28.2398 83.2557 28.1375C83.022 27.8922 82.8672 27.5826 82.8112 27.2485L79.3819 13.2137L75.9526 27.312C75.8965 27.6461 75.7417 27.9557 75.508 28.201C75.247 28.3798 74.935 28.4689 74.619 28.4551H72.7773ZM100.783 29.0266C99.6504 29.029 98.521 28.9011 97.4174 28.6456C96.5321 28.4738 95.6764 28.1743 94.8772 27.7565C94.6346 27.6611 94.4262 27.4952 94.279 27.28C94.1319 27.0649 94.0526 26.8106 94.0516 26.5499V25.4068C94.0516 24.9623 94.2421 24.7082 94.5597 24.7082C94.6899 24.6982 94.8207 24.72 94.9407 24.7717L95.5122 25.0258C96.2941 25.3462 97.1013 25.6011 97.9255 25.7878C98.7816 25.9666 99.6546 26.0518 100.529 26.0419C101.631 26.0991 102.728 25.8578 103.704 25.3433C104.05 25.1278 104.336 24.8287 104.536 24.4735C104.736 24.1184 104.843 23.7186 104.848 23.3111C104.863 22.7481 104.657 22.2014 104.276 21.787C103.621 21.2215 102.835 20.8286 101.99 20.6439L98.8145 19.6278C97.4726 19.2515 96.2767 18.4763 95.3852 17.4051C94.7836 16.6157 94.4167 15.6725 94.3269 14.684C94.237 13.6955 94.4277 12.7016 94.8772 11.8166C95.2659 11.112 95.8086 10.5042 96.4648 10.0385C97.1354 9.53393 97.8871 9.14737 98.6875 8.89537C99.5761 8.64433 100.495 8.51613 101.418 8.51434C101.906 8.50379 102.394 8.525 102.879 8.57785C103.35 8.62605 103.818 8.71098 104.276 8.83187C104.476 8.88904 104.676 8.93335 104.871 8.97638C105.108 9.02892 105.337 9.07956 105.546 9.1494C105.927 9.27641 106.181 9.40342 106.435 9.53043C106.673 9.66382 106.888 9.83546 107.07 10.0385C107.2 10.2479 107.266 10.4906 107.261 10.737V11.7531C107.261 12.1977 107.07 12.4517 106.753 12.4517C106.467 12.405 106.189 12.3195 105.927 12.1977C104.611 11.6087 103.177 11.3264 101.736 11.3721C100.723 11.3245 99.7159 11.5435 98.8145 12.0071C98.4718 12.2006 98.193 12.49 98.0124 12.8397C97.8319 13.1895 97.7575 13.5843 97.7985 13.9758C97.7876 14.2607 97.8388 14.5445 97.9485 14.8077C98.0581 15.0708 98.2236 15.307 98.4335 15.4999C99.1469 16.063 99.9682 16.4737 100.847 16.7065L103.958 17.6591C105.272 17.9891 106.449 18.7219 107.324 19.7548C108.034 20.6563 108.395 21.7838 108.34 22.9301C108.348 23.8095 108.152 24.6788 107.769 25.4703C107.383 26.2124 106.842 26.8624 106.181 27.3755C105.468 27.9385 104.646 28.3492 103.768 28.5821C102.806 28.8986 101.796 29.049 100.783 29.0266ZM117.953 28.6236C118.027 28.6486 118.106 28.6562 118.184 28.6457H119.073C119.15 28.6562 119.229 28.6486 119.303 28.6236C119.377 28.5986 119.445 28.5568 119.5 28.5015C119.555 28.4462 119.597 28.3788 119.622 28.3047C119.647 28.2306 119.655 28.1517 119.644 28.0742V12.9599C121.452 11.4676 123.715 10.6385 126.058 10.6102C126.553 10.5697 127.05 10.6529 127.505 10.8525C127.959 11.0521 128.357 11.3616 128.662 11.7533C129.234 12.5153 129.488 13.7854 129.488 15.4366V28.0742C129.477 28.1517 129.485 28.2306 129.51 28.3047C129.535 28.3788 129.577 28.4462 129.632 28.5015C129.687 28.5568 129.755 28.5986 129.829 28.6236C129.903 28.6486 129.982 28.6562 130.059 28.6457H131.012C131.089 28.6562 131.168 28.6486 131.242 28.6236C131.316 28.5986 131.384 28.5568 131.439 28.5015C131.494 28.4462 131.536 28.3788 131.561 28.3047C131.586 28.2306 131.594 28.1517 131.583 28.0742V14.865C131.573 14.2494 131.53 13.6347 131.456 13.0234C133.306 11.5109 135.609 10.6613 137.997 10.6102C138.492 10.5697 138.989 10.6529 139.444 10.8525C139.898 11.0521 140.296 11.3616 140.601 11.7533C141.173 12.5153 141.427 13.7854 141.427 15.4366V28.0742C141.416 28.1517 141.424 28.2306 141.449 28.3047C141.474 28.3788 141.516 28.4462 141.571 28.5015C141.626 28.5568 141.694 28.5986 141.768 28.6236C141.842 28.6486 141.921 28.6562 141.998 28.6457H143.014C143.092 28.6562 143.171 28.6486 143.245 28.6236C143.319 28.5986 143.386 28.5568 143.442 28.5015C143.497 28.4462 143.539 28.3788 143.564 28.3047C143.589 28.2306 143.596 28.1517 143.586 28.0742V14.484C143.586 12.5788 143.205 11.1182 142.316 10.1021C141.833 9.5819 141.241 9.17535 140.582 8.91178C139.923 8.64821 139.214 8.5342 138.505 8.57798C137.198 8.58531 135.905 8.84403 134.695 9.34005C133.379 9.88653 132.158 10.6366 131.075 11.5627C130.313 9.59407 128.853 8.57798 126.566 8.57798C125.367 8.57 124.178 8.80773 123.074 9.27654C121.837 9.78136 120.681 10.4661 119.644 11.3087L119.517 9.78458C119.516 9.70446 119.498 9.6255 119.465 9.55259C119.431 9.47968 119.384 9.4144 119.324 9.36079C119.264 9.30719 119.194 9.26641 119.118 9.24099C119.043 9.21557 118.962 9.20605 118.882 9.21303H118.184C118.106 9.20255 118.027 9.21011 117.953 9.23513C117.879 9.26014 117.812 9.30194 117.756 9.35725C117.701 9.41257 117.659 9.47992 117.634 9.55404C117.609 9.62816 117.602 9.70706 117.612 9.78458V28.0742C117.602 28.1517 117.609 28.2306 117.634 28.3047C117.659 28.3788 117.701 28.4462 117.756 28.5015C117.812 28.5568 117.879 28.5986 117.953 28.6236ZM152.54 29.0902C151.814 29.1279 151.087 29.0116 150.409 28.749C149.73 28.4863 149.115 28.0832 148.603 27.566C147.61 26.4502 147.087 24.9941 147.142 23.5017C147.092 22.6754 147.226 21.8483 147.533 21.0797C147.84 20.3111 148.314 19.6201 148.92 19.0563C150.286 17.9131 152.031 17.3239 153.81 17.4052C155.56 17.4431 157.294 17.7428 158.954 18.2942V15.0555C158.954 13.4678 158.637 12.3247 157.938 11.6897C157.24 11.0546 156.096 10.6736 154.509 10.6736C152.712 10.703 150.932 11.0247 149.238 11.6262C149.055 11.6985 148.862 11.7414 148.666 11.7532C148.412 11.7532 148.285 11.5627 148.285 11.2451V10.6101C148.29 10.4334 148.333 10.2599 148.412 10.102C148.465 9.99752 148.56 9.93601 148.698 9.84674C148.728 9.82751 148.76 9.807 148.793 9.7845C150.698 8.9653 152.753 8.55427 154.826 8.5779C156.986 8.5779 158.51 9.08594 159.526 10.0385C160.542 10.9911 161.05 12.4517 161.05 14.3569V28.0741C161.06 28.1516 161.053 28.2305 161.028 28.3046C161.003 28.3787 160.961 28.4461 160.906 28.5014C160.85 28.5567 160.783 28.5985 160.709 28.6235C160.635 28.6486 160.556 28.6561 160.478 28.6456H159.716C159.639 28.6561 159.56 28.6486 159.486 28.6235C159.412 28.5985 159.344 28.5567 159.289 28.5014C159.234 28.4461 159.192 28.3787 159.167 28.3046C159.142 28.2305 159.134 28.1516 159.145 28.0741L159.018 26.4229C156.922 28.2011 154.763 29.0902 152.54 29.0902ZM152.794 27.058C153.794 27.0408 154.783 26.8474 155.715 26.4864C156.848 26.0654 157.917 25.4883 158.891 24.7718V19.9454C157.363 19.5007 155.782 19.2657 154.191 19.2468C150.826 19.2468 149.174 20.6439 149.174 23.4382C149.114 24.4281 149.432 25.404 150.063 26.1689C150.839 26.7811 151.807 27.0963 152.794 27.058ZM166.154 28.6237C166.228 28.6487 166.307 28.6563 166.384 28.6458V28.7093H167.337C167.414 28.7198 167.493 28.7122 167.568 28.6872C167.642 28.6622 167.709 28.6204 167.764 28.5651C167.82 28.5098 167.861 28.4424 167.886 28.3683C167.911 28.2942 167.919 28.2153 167.909 28.1378V13.9125C168.583 13.0363 169.425 12.3025 170.385 11.7533C171.292 11.306 172.295 11.0879 173.306 11.1183H174.64C174.758 11.1161 174.871 11.0709 174.958 10.9913C174.975 10.9574 174.991 10.9281 175.007 10.9009L175.007 10.9006L175.007 10.9004C175.051 10.8257 175.085 10.7667 175.085 10.6737V9.72117C175.085 9.34013 174.894 9.08611 174.513 9.08611C174.199 9.02884 173.879 9.00753 173.561 9.0226C172.524 9.0128 171.5 9.25239 170.576 9.72117C169.538 10.2905 168.63 11.069 167.909 12.0074L167.718 9.78467C167.717 9.70455 167.699 9.62558 167.665 9.55268C167.632 9.47977 167.584 9.41449 167.525 9.36088C167.465 9.30727 167.395 9.26649 167.319 9.24108C167.243 9.21566 167.163 9.20614 167.083 9.21312H166.384C166.307 9.20264 166.228 9.2102 166.154 9.23521C166.08 9.26023 166.012 9.30202 165.957 9.35734C165.902 9.41266 165.86 9.48 165.835 9.55413C165.81 9.62825 165.802 9.70715 165.813 9.78467V28.0743C165.802 28.1518 165.81 28.2307 165.835 28.3048C165.86 28.3789 165.902 28.4463 165.957 28.5016C166.012 28.5569 166.08 28.5987 166.154 28.6237ZM195.152 26.6136C196.613 28.3282 198.772 29.2173 201.63 29.2173C203.598 29.2165 205.545 28.8055 207.345 28.0107C207.599 27.8837 207.727 27.6297 207.727 27.1851V26.6136C207.724 26.4958 207.679 26.3828 207.599 26.296C207.569 26.2573 207.531 26.2258 207.487 26.2038C207.443 26.1819 207.395 26.17 207.345 26.169C207.125 26.198 206.91 26.2623 206.71 26.3595C205.136 26.9922 203.454 27.3156 201.757 27.3121C199.471 27.3121 197.82 26.7406 196.74 25.407C195.66 24.0733 195.089 22.1047 195.089 19.3739H207.282C207.362 19.3809 207.442 19.3714 207.518 19.346C207.594 19.3206 207.664 19.2798 207.724 19.2262C207.783 19.1726 207.831 19.1073 207.864 19.0344C207.898 18.9615 207.916 18.8825 207.917 18.8024C208.004 18.0222 208.046 17.2377 208.044 16.4527C208.044 13.9125 207.409 12.0073 206.266 10.6737C205.123 9.34008 203.408 8.64152 201.249 8.64152C200.096 8.58358 198.945 8.79436 197.887 9.25722C196.829 9.72009 195.893 10.4224 195.152 11.3087C193.692 13.0869 192.993 15.6271 192.993 18.8659C192.993 22.2952 193.692 24.8989 195.152 26.6136ZM206.104 16.9256V16.9258V16.926V16.9262V16.9263V16.9264C206.089 17.1156 206.075 17.2922 206.075 17.4688H195.152C195.406 12.8329 197.375 10.5467 201.185 10.5467C201.869 10.5064 202.553 10.6163 203.189 10.8686C203.825 11.1209 204.399 11.5096 204.869 12.0073C205.694 12.9599 206.139 14.357 206.139 16.1987C206.139 16.4709 206.121 16.7067 206.104 16.9256ZM217.824 28.8997C217.229 28.9416 216.632 28.8557 216.074 28.6475C215.515 28.4394 215.007 28.1139 214.585 27.6931C213.757 26.7006 213.348 25.4256 213.442 24.1368V11.1181H210.584C210.507 11.1286 210.428 11.1211 210.354 11.0961C210.28 11.071 210.212 11.0292 210.157 10.9739C210.102 10.9186 210.06 10.8513 210.035 10.7771C210.01 10.703 210.002 10.6241 210.013 10.5466V10.1656C210.007 10.0076 210.051 9.85193 210.14 9.72102C210.203 9.59401 210.33 9.53051 210.584 9.53051L213.505 9.27649L213.759 4.19604C213.751 4.11184 213.763 4.02677 213.797 3.94894C213.83 3.87112 213.883 3.80314 213.95 3.75151C214.056 3.66173 214.192 3.61625 214.331 3.6245H214.966C215.044 3.61401 215.122 3.62157 215.197 3.64659C215.271 3.6716 215.338 3.7134 215.393 3.76871C215.449 3.82403 215.49 3.89138 215.516 3.9655C215.541 4.03962 215.548 4.11852 215.538 4.19604V9.27649H220.745C220.823 9.266 220.901 9.27356 220.976 9.29858C221.05 9.32359 221.117 9.36539 221.172 9.4207C221.228 9.47602 221.269 9.54337 221.295 9.61749C221.32 9.69161 221.327 9.77051 221.317 9.84803V10.6101C221.327 10.6876 221.32 10.7665 221.295 10.8406C221.269 10.9148 221.228 10.9821 221.172 11.0374C221.117 11.0927 221.05 11.1345 220.976 11.1596C220.901 11.1846 220.823 11.1921 220.745 11.1817H215.538V24.0733C215.538 25.1529 215.728 25.8514 216.173 26.296C216.463 26.5344 216.798 26.7132 217.157 26.8222C217.517 26.9312 217.894 26.9681 218.268 26.931C218.888 26.9407 219.506 26.8767 220.11 26.7405C220.316 26.6737 220.529 26.6311 220.745 26.6135C220.844 26.5675 220.953 26.5457 221.063 26.55C221.317 26.55 221.444 26.677 221.444 26.9945V27.5661C221.444 28.0106 221.317 28.2646 221.063 28.3916C220.018 28.7352 218.924 28.9068 217.824 28.8997ZM224.96 36.6252C225.034 36.6502 225.113 36.6578 225.19 36.6473V36.7108H226.27C226.348 36.7213 226.426 36.7137 226.501 36.6887C226.575 36.6637 226.642 36.6219 226.697 36.5666C226.753 36.5112 226.794 36.4439 226.819 36.3698C226.845 36.2957 226.852 36.2168 226.842 36.1392V26.5499C227.626 27.3607 228.562 28.0082 229.598 28.4551C230.633 28.902 231.747 29.1394 232.875 29.1536C233.99 29.1898 235.096 28.9475 236.094 28.4485C237.092 27.9495 237.95 27.2097 238.59 26.2959C239.987 24.3907 240.686 21.787 240.686 18.6752C240.686 15.5635 239.987 13.0867 238.654 11.3086C238.022 10.4449 237.188 9.74991 236.224 9.28477C235.261 8.81963 234.198 8.59867 233.129 8.64136C232.017 8.63077 230.915 8.84686 229.89 9.27641C228.702 9.79061 227.607 10.4988 226.651 11.3721L226.524 9.78446C226.523 9.70434 226.505 9.62537 226.471 9.55247C226.438 9.47956 226.39 9.41427 226.331 9.36067C226.271 9.30706 226.201 9.26628 226.125 9.24086C226.049 9.21544 225.969 9.20593 225.889 9.21291H225.19C225.113 9.20242 225.034 9.20998 224.96 9.235C224.886 9.26002 224.818 9.30181 224.763 9.35713C224.708 9.41245 224.666 9.47979 224.641 9.55391C224.616 9.62804 224.608 9.70693 224.619 9.78446V36.0757C224.608 36.1533 224.616 36.2322 224.641 36.3063C224.666 36.3804 224.708 36.4477 224.763 36.5031C224.818 36.5584 224.886 36.6002 224.96 36.6252ZM235.047 26.5777C234.271 26.9439 233.414 27.109 232.557 27.0579C231.551 27.0436 230.557 26.8276 229.636 26.4229C228.581 25.9294 227.615 25.2642 226.778 24.4542V13.0867C228.747 11.4356 230.779 10.61 232.748 10.61C236.621 10.61 238.527 13.3408 238.527 18.8022C238.527 21.533 238.019 23.5651 237.003 24.9623C236.496 25.6561 235.824 26.2115 235.047 26.5777ZM247.735 28.7726C247.322 28.7935 246.91 28.7249 246.526 28.5714C246.143 28.4179 245.797 28.1833 245.512 27.8835C244.922 27.1736 244.627 26.2645 244.687 25.3433V0.576133C244.676 0.498608 244.684 0.41971 244.709 0.345587C244.734 0.271464 244.776 0.20412 244.831 0.148803C244.886 0.0934856 244.954 0.0516903 245.028 0.0266747C245.102 0.00165908 245.181 -0.00590111 245.258 0.00458343H246.211C246.288 -0.00590111 246.367 0.00165908 246.441 0.0266747C246.515 0.0516903 246.583 0.0934856 246.638 0.148803C246.693 0.20412 246.735 0.271464 246.76 0.345587C246.785 0.41971 246.793 0.498608 246.782 0.576133V25.2798C246.754 25.7058 246.866 26.1294 247.1 26.4864C247.29 26.7404 247.671 26.8039 248.179 26.8039C248.351 26.8105 248.523 26.789 248.688 26.7404C248.792 26.7404 248.878 26.7211 248.955 26.7038C249.018 26.6897 249.075 26.6769 249.132 26.6769C249.45 26.6769 249.64 26.8674 249.64 27.2484V28.0105C249.649 28.0773 249.645 28.1452 249.627 28.2102C249.609 28.2753 249.579 28.3362 249.538 28.3894C249.496 28.4426 249.445 28.487 249.386 28.5201C249.327 28.5531 249.263 28.5742 249.196 28.5821C248.719 28.7077 248.228 28.7718 247.735 28.7726ZM255.32 28.749C255.998 29.0116 256.725 29.1279 257.451 29.0902C259.674 29.0902 261.833 28.2011 263.929 26.4229L264.056 28.0741C264.045 28.1516 264.053 28.2305 264.078 28.3046C264.103 28.3787 264.145 28.4461 264.2 28.5014C264.255 28.5567 264.323 28.5985 264.397 28.6235C264.471 28.6486 264.55 28.6561 264.627 28.6456H265.389C265.467 28.6561 265.546 28.6486 265.62 28.6235C265.694 28.5985 265.761 28.5567 265.817 28.5014C265.872 28.4461 265.914 28.3787 265.939 28.3046C265.964 28.2305 265.971 28.1516 265.961 28.0741V14.3569C265.961 12.4517 265.453 10.9911 264.437 10.0385C263.421 9.08594 261.897 8.5779 259.737 8.5779C257.664 8.55427 255.609 8.9653 253.704 9.7845C253.671 9.807 253.639 9.82751 253.609 9.84674C253.471 9.93601 253.376 9.99752 253.323 10.102C253.244 10.2599 253.201 10.4334 253.196 10.6101V11.2451C253.196 11.5627 253.323 11.7532 253.577 11.7532C253.773 11.7414 253.966 11.6985 254.149 11.6262C255.843 11.0247 257.623 10.703 259.42 10.6736C261.008 10.6736 262.151 11.0546 262.849 11.6897C263.548 12.3247 263.865 13.4678 263.865 15.0555V18.2942C262.205 17.7428 260.471 17.4431 258.721 17.4052C256.942 17.3239 255.197 17.9131 253.831 19.0563C253.225 19.6201 252.751 20.3111 252.444 21.0797C252.137 21.8483 252.003 22.6754 252.053 23.5017C251.998 24.9941 252.521 26.4502 253.514 27.566C254.026 28.0832 254.641 28.4863 255.32 28.749ZM260.626 26.4864C259.694 26.8474 258.705 27.0408 257.705 27.058C256.718 27.0963 255.75 26.7811 254.975 26.1689C254.343 25.404 254.026 24.4281 254.085 23.4382C254.085 20.6439 255.737 19.2468 259.102 19.2468C260.693 19.2657 262.274 19.5007 263.802 19.9454V24.7718C262.828 25.4883 261.76 26.0654 260.626 26.4864ZM278.408 29.0902C275.614 29.0902 273.518 28.2011 272.058 26.4865C270.597 24.7718 269.898 22.2316 269.898 18.9293C269.898 15.627 270.66 13.0868 272.121 11.3722C273.582 9.65752 275.741 8.76845 278.472 8.76845C279.78 8.76349 281.076 9.02269 282.282 9.53051C282.599 9.65752 282.726 9.91154 282.726 10.3561V10.9276C282.726 11.2452 282.599 11.4357 282.282 11.4357C282.192 11.4452 282.102 11.4227 282.028 11.3722C281.855 11.3455 281.685 11.303 281.52 11.2452C280.588 10.9939 279.627 10.8658 278.662 10.8641C276.376 10.8641 274.725 11.4992 273.709 12.7693C272.693 14.0394 272.185 16.0081 272.185 18.8023V19.2468C272.185 21.9141 272.693 23.8828 273.709 25.2164C274.725 26.55 276.376 27.1215 278.599 27.1215C279.654 27.0929 280.701 26.922 281.71 26.6135C281.897 26.5539 282.088 26.5114 282.282 26.4865C282.356 26.4865 282.409 26.4647 282.453 26.4466C282.483 26.4339 282.51 26.423 282.536 26.423C282.853 26.423 282.98 26.6135 282.98 26.931V27.5026C282.98 27.9471 282.853 28.2011 282.599 28.3281C281.251 28.8013 279.837 29.0585 278.408 29.0902ZM287.108 26.6136C288.569 28.3282 290.728 29.2173 293.586 29.2173C295.553 29.2099 297.499 28.7992 299.301 28.0107C299.555 27.8837 299.682 27.6297 299.682 27.1851V26.6136C299.68 26.4958 299.635 26.3828 299.555 26.296C299.525 26.2573 299.487 26.2258 299.443 26.2038C299.399 26.1819 299.351 26.17 299.301 26.169C299.081 26.198 298.866 26.2623 298.666 26.3595C297.092 26.9922 295.41 27.3156 293.713 27.3121C291.427 27.3121 289.776 26.7406 288.696 25.407C287.616 24.0733 287.045 22.1047 287.045 19.3739H299.238C299.318 19.3809 299.398 19.3714 299.474 19.346C299.55 19.3206 299.62 19.2798 299.68 19.2262C299.739 19.1726 299.787 19.1073 299.82 19.0344C299.854 18.9615 299.872 18.8825 299.873 18.8024C299.96 18.0222 300.002 17.2377 300 16.4527C300 13.9125 299.365 12.0073 298.222 10.6737C297.079 9.34008 295.364 8.64152 293.205 8.64152C292.052 8.58358 290.9 8.79436 289.842 9.25722C288.785 9.72009 287.849 10.4224 287.108 11.3087C285.648 13.0869 284.949 15.6271 284.949 18.8659C284.949 22.2952 285.648 24.8989 287.108 26.6136ZM298.06 16.9256C298.045 17.1151 298.031 17.2919 298.031 17.4688H287.108C287.362 12.8329 289.331 10.5467 293.141 10.5467C293.825 10.5064 294.509 10.6163 295.145 10.8686C295.781 11.1209 296.355 11.5096 296.825 12.0073C297.65 12.9599 298.095 14.357 298.095 16.1987C298.095 16.4709 298.077 16.7067 298.06 16.9256Z" fill="white"/>
<path d="M8.50973 35.2504C9.94773 35.2504 11.1135 34.0847 11.1135 32.6467C11.1135 31.2087 9.94773 30.043 8.50973 30.043C7.07173 30.043 5.90601 31.2087 5.90601 32.6467C5.90601 34.0847 7.07173 35.2504 8.50973 35.2504Z" fill="white"/>
<path d="M23.497 35.2504C24.935 35.2504 26.1008 34.0847 26.1008 32.6467C26.1008 31.2087 24.935 30.043 23.497 30.043C22.059 30.043 20.8933 31.2087 20.8933 32.6467C20.8933 34.0847 22.059 35.2504 23.497 35.2504Z" fill="white"/>
<path d="M40.58 8.38721H28.895L24.2591 24.2636H7.36664L4.44538 14.9283H0L4.6359 28.836H26.9898L32.2608 11.9435H40.58V8.38721Z" fill="white"/>
<path d="M16.3844 11.245L21.4648 13.5947L26.4818 5.52954H16.3844V11.245Z" fill="#00A5CB"/>
<path d="M26.4818 11.245L21.4648 13.5947V5.52954H26.4818V11.245Z" fill="#008EBA"/>
<path d="M21.4648 2.98926L16.3844 5.52948L21.4648 7.81567L26.4818 5.52948L21.4648 2.98926Z" fill="#36C1DA"/>
<path d="M4.95341 11.245L10.0339 13.5947L15.0508 5.52954H4.95341V11.245Z" fill="#F17C22"/>
<path d="M15.0508 11.245L10.0339 13.5947V5.52954H15.0508V11.245Z" fill="#E66024"/>
<path d="M10.0339 2.98926L4.95341 5.52948L10.0339 7.81567L15.0508 5.52948L10.0339 2.98926Z" fill="#F7972A"/>
<path d="M10.6689 20.6438L15.7494 22.9935L20.7663 14.7378H10.6689V20.6438Z" fill="#1D66B0"/>
<path d="M20.7663 20.6438L15.7494 22.9935V14.7378H20.7663V20.6438Z" fill="#13509F"/>
<path d="M15.7494 12.3882L20.7663 14.7379L15.7494 17.2146L10.6689 14.7379L15.7494 12.3882Z" fill="#177EBC"/>
</svg>
