<svg width="320" height="57" viewBox="0 0 320 57" fill="none" xmlns="http://www.w3.org/2000/svg">
<g filter="url(#filter0_d)">
<path fill-rule="evenodd" clip-rule="evenodd" d="M185.514 35.6456C185.436 35.656 185.358 35.6485 185.283 35.6235C185.209 35.5985 185.142 35.5567 185.087 35.5013C185.031 35.446 184.99 35.3787 184.965 35.3046C184.94 35.2304 184.932 35.1515 184.942 35.074V7.57613C184.932 7.49861 184.94 7.41971 184.965 7.34559C184.99 7.27146 185.031 7.20412 185.087 7.1488C185.142 7.09349 185.209 7.05169 185.283 7.02667C185.358 7.00166 185.436 6.9941 185.514 7.00458H186.467C186.544 6.9941 186.623 7.00166 186.697 7.02667C186.771 7.05169 186.839 7.09349 186.894 7.1488C186.949 7.20412 186.991 7.27146 187.016 7.34559C187.041 7.41971 187.049 7.49861 187.038 7.57613V24.8496L195.675 16.5939C195.909 16.3546 196.229 16.2177 196.564 16.2129H197.834C198.152 16.2129 198.279 16.3399 198.279 16.5304C198.279 16.7209 198.152 16.8479 197.898 17.102L189.197 25.3577L198.66 34.7565C198.819 34.886 198.93 35.0647 198.977 35.2645C198.977 35.5185 198.85 35.6456 198.533 35.6456H197.008C196.867 35.6466 196.726 35.6191 196.595 35.5645C196.464 35.5099 196.346 35.4295 196.246 35.328L187.102 26.1197V35.074C187.112 35.1515 187.105 35.2304 187.08 35.3046C187.055 35.3787 187.013 35.446 186.957 35.5013C186.902 35.5567 186.835 35.5985 186.761 35.6235C186.686 35.6485 186.608 35.656 186.53 35.6456H185.514ZM71.1406 29.7396C71.1311 30.4045 71.2166 31.0675 71.3946 31.7082C71.6007 32.2488 71.8338 32.7787 72.0932 33.2959C72.201 33.4418 72.2467 33.6244 72.2202 33.8039C72.2097 33.9399 72.1629 34.0705 72.0847 34.1822C72.0065 34.2939 71.8998 34.3826 71.7756 34.439L70.442 35.3281C70.275 35.4475 70.0758 35.5139 69.8705 35.5186C69.7471 35.5196 69.6252 35.4913 69.5148 35.4361C69.4044 35.3809 69.3087 35.3004 69.2354 35.201C68.9272 34.9066 68.6697 34.5633 68.4733 34.185C68.3849 34.0081 68.2828 33.8176 68.1734 33.6134L68.1734 33.6134L68.1732 33.6131C68.0469 33.3774 67.9109 33.1235 67.7748 32.8513C67.0032 33.8085 66.0259 34.5795 64.9155 35.1072C63.8051 35.635 62.5901 35.9058 61.3607 35.8996C60.5612 35.9427 59.7611 35.8244 59.0083 35.5516C58.2554 35.2788 57.5652 34.8572 56.9788 34.312C56.4487 33.7541 56.0353 33.096 55.7627 32.3763C55.49 31.6566 55.3638 30.8897 55.3912 30.1206C55.3532 29.284 55.5049 28.4496 55.8348 27.6798C56.1647 26.91 56.6643 26.2247 57.2964 25.6752C58.8156 24.4905 60.7058 23.8829 62.6308 23.9606C63.3969 23.9609 64.1615 24.0246 64.917 24.1511L64.9171 24.1511C65.7427 24.2781 66.5682 24.4051 67.3938 24.5956V23.008C67.5202 21.7561 67.1559 20.5039 66.3777 19.5152C65.362 18.7417 64.0924 18.3789 62.8214 18.4991C62.0283 18.511 61.2394 18.6176 60.4717 18.8166C59.6682 19.0034 58.8821 19.2583 58.122 19.5787C57.9949 19.6422 57.8679 19.6898 57.7409 19.7375C57.6139 19.7851 57.4869 19.8327 57.3599 19.8962H57.0424C56.7248 19.8962 56.5978 19.6422 56.5978 19.1977V18.1816C56.609 17.9233 56.6516 17.6674 56.7248 17.4195C56.8924 17.2166 57.1119 17.063 57.3599 16.975C58.2327 16.5431 59.1478 16.2026 60.0906 15.9589C61.2126 15.6782 62.3634 15.529 63.5199 15.5143C65.5855 15.326 67.6413 15.9656 69.2354 17.2925C69.8888 18.0227 70.3886 18.8769 70.705 19.8043C71.0214 20.7316 71.1479 21.7132 71.0771 22.6905V29.7396H71.1406ZM62.2498 33.1054C63.0275 33.1027 63.7995 32.9741 64.536 32.7243C65.338 32.4726 66.046 31.9859 66.5682 31.3272C66.8957 30.9289 67.1534 30.478 67.3302 29.9936C67.4565 29.3664 67.5203 28.7282 67.5208 28.0884V27.1994C66.8857 27.0723 66.1872 26.9453 65.4886 26.8183L65.4886 26.8183C64.79 26.6913 64.155 26.6913 63.4564 26.6913C62.3092 26.6308 61.1731 26.9426 60.2176 27.5804C59.8771 27.8798 59.6088 28.2525 59.4328 28.6705C59.2568 29.0884 59.1778 29.5407 59.2015 29.9936C59.1727 30.4111 59.2312 30.8301 59.3733 31.2237C59.5155 31.6174 59.7381 31.977 60.0271 32.2798C60.6304 32.8369 61.4291 33.1336 62.2498 33.1054ZM79.7773 35.4551C79.4907 35.4598 79.2073 35.3944 78.9518 35.2645C78.7202 35.0432 78.5645 34.7542 78.5072 34.439L73.4268 17.5465C73.2967 17.2684 73.2316 16.9644 73.2363 16.6574C73.221 16.5984 73.2192 16.5367 73.231 16.4768C73.2428 16.417 73.268 16.3606 73.3046 16.3118C73.3412 16.263 73.3883 16.2231 73.4424 16.1949C73.4966 16.1668 73.5563 16.1513 73.6173 16.1494H75.9035C76.1901 16.1447 76.4735 16.2101 76.7291 16.3399C76.9379 16.5779 77.0899 16.8602 77.1736 17.1655L80.8569 31.5812L84.2227 17.1655C84.2655 16.8454 84.4236 16.5519 84.6672 16.3399C84.7934 16.2469 84.938 16.1818 85.0913 16.149C85.2446 16.1161 85.4031 16.1163 85.5563 16.1494H87.3345C87.6414 16.1447 87.9455 16.2099 88.2236 16.3399C88.4552 16.5613 88.6108 16.8503 88.6681 17.1655L92.0974 31.7717L95.9077 17.1655C95.9773 16.8547 96.1311 16.569 96.3522 16.3399C96.4678 16.2502 96.6015 16.1868 96.7441 16.1539C96.8866 16.121 97.0346 16.1195 97.1778 16.1494H99.21C99.269 16.1341 99.3308 16.1323 99.3906 16.1442C99.4505 16.156 99.5069 16.1811 99.5557 16.2177C99.6045 16.2543 99.6444 16.3014 99.6725 16.3556C99.7006 16.4097 99.7162 16.4695 99.718 16.5304V16.975C99.6889 17.0623 99.6731 17.1497 99.6585 17.231C99.6412 17.3269 99.6254 17.4143 99.591 17.483L94.3201 34.3755C94.2505 34.6863 94.0967 34.9719 93.8755 35.201C93.7599 35.2907 93.6262 35.3542 93.4837 35.3871C93.3412 35.42 93.1932 35.4215 93.05 35.3916H91.1448C90.9871 35.4139 90.8264 35.4028 90.6733 35.359C90.5201 35.3153 90.3779 35.2398 90.2557 35.1375C90.0221 34.8922 89.8672 34.5826 89.8112 34.2485L86.3819 20.2137L82.9526 34.312C82.8966 34.6461 82.7417 34.9557 82.5081 35.201C82.247 35.3798 81.935 35.4689 81.619 35.4551H79.7773ZM107.783 36.0266C106.65 36.029 105.521 35.9011 104.417 35.6456C103.532 35.4738 102.676 35.1743 101.877 34.7565C101.635 34.6611 101.426 34.4952 101.279 34.28C101.132 34.0649 101.053 33.8106 101.052 33.5499V32.4068C101.052 31.9623 101.242 31.7082 101.56 31.7082C101.69 31.6982 101.821 31.72 101.941 31.7717L102.512 32.0258C103.294 32.3462 104.101 32.6011 104.925 32.7878C105.782 32.9666 106.655 33.0518 107.529 33.0419C108.631 33.0991 109.728 32.8578 110.704 32.3433C111.05 32.1278 111.336 31.8287 111.536 31.4735C111.736 31.1184 111.843 30.7186 111.848 30.3111C111.863 29.7481 111.658 29.2014 111.276 28.787C110.621 28.2215 109.835 27.8286 108.99 27.6439L105.815 26.6278C104.473 26.2515 103.277 25.4763 102.385 24.4051C101.784 23.6157 101.417 22.6725 101.327 21.684C101.237 20.6955 101.428 19.7016 101.877 18.8166C102.266 18.112 102.809 17.5042 103.465 17.0385C104.135 16.5339 104.887 16.1474 105.688 15.8954C106.576 15.6443 107.495 15.5161 108.418 15.5143C108.906 15.5038 109.394 15.525 109.879 15.5778C110.351 15.6261 110.818 15.711 111.276 15.8319C111.476 15.889 111.676 15.9334 111.871 15.9764C112.108 16.0289 112.337 16.0796 112.546 16.1494C112.927 16.2764 113.181 16.4034 113.435 16.5304C113.673 16.6638 113.888 16.8355 114.07 17.0385C114.2 17.2479 114.266 17.4906 114.261 17.737V18.7531C114.261 19.1977 114.07 19.4517 113.753 19.4517C113.467 19.405 113.19 19.3195 112.927 19.1977C111.611 18.6087 110.177 18.3264 108.736 18.3721C107.723 18.3245 106.716 18.5435 105.815 19.0071C105.472 19.2006 105.193 19.49 105.012 19.8397C104.832 20.1895 104.758 20.5843 104.798 20.9758C104.788 21.2607 104.839 21.5445 104.949 21.8077C105.058 22.0708 105.224 22.307 105.434 22.4999C106.147 23.063 106.968 23.4737 107.847 23.7065L110.959 24.6591C112.272 24.9891 113.449 25.7219 114.324 26.7548C115.034 27.6563 115.395 28.7838 115.34 29.9301C115.348 30.8095 115.152 31.6788 114.769 32.4703C114.383 33.2124 113.842 33.8624 113.181 34.3755C112.468 34.9385 111.646 35.3492 110.768 35.5821C109.806 35.8986 108.796 36.049 107.783 36.0266ZM124.953 35.6236C125.027 35.6486 125.106 35.6562 125.184 35.6457H126.073C126.15 35.6562 126.229 35.6486 126.303 35.6236C126.377 35.5986 126.445 35.5568 126.5 35.5015C126.555 35.4462 126.597 35.3788 126.622 35.3047C126.647 35.2306 126.655 35.1517 126.644 35.0742V19.9599C128.452 18.4676 130.715 17.6385 133.058 17.6102C133.553 17.5697 134.05 17.6529 134.505 17.8525C134.959 18.0521 135.357 18.3616 135.662 18.7533C136.234 19.5153 136.488 20.7854 136.488 22.4366V35.0742C136.477 35.1517 136.485 35.2306 136.51 35.3047C136.535 35.3788 136.577 35.4462 136.632 35.5015C136.687 35.5568 136.755 35.5986 136.829 35.6236C136.903 35.6486 136.982 35.6562 137.059 35.6457H138.012C138.089 35.6562 138.168 35.6486 138.242 35.6236C138.317 35.5986 138.384 35.5568 138.439 35.5015C138.494 35.4462 138.536 35.3788 138.561 35.3047C138.586 35.2306 138.594 35.1517 138.583 35.0742V21.865C138.573 21.2494 138.53 20.6347 138.456 20.0234C140.306 18.5109 142.609 17.6613 144.997 17.6102C145.492 17.5697 145.989 17.6529 146.444 17.8525C146.898 18.0521 147.296 18.3616 147.601 18.7533C148.173 19.5153 148.427 20.7854 148.427 22.4366V35.0742C148.416 35.1517 148.424 35.2306 148.449 35.3047C148.474 35.3788 148.516 35.4462 148.571 35.5015C148.626 35.5568 148.694 35.5986 148.768 35.6236C148.842 35.6486 148.921 35.6562 148.998 35.6457H150.014C150.092 35.6562 150.171 35.6486 150.245 35.6236C150.319 35.5986 150.386 35.5568 150.442 35.5015C150.497 35.4462 150.539 35.3788 150.564 35.3047C150.589 35.2306 150.596 35.1517 150.586 35.0742V21.484C150.586 19.5788 150.205 18.1182 149.316 17.1021C148.833 16.5819 148.241 16.1753 147.582 15.9118C146.923 15.6482 146.214 15.5342 145.505 15.578C144.198 15.5853 142.905 15.844 141.695 16.34C140.379 16.8865 139.158 17.6366 138.075 18.5627C137.313 16.5941 135.853 15.578 133.566 15.578C132.367 15.57 131.178 15.8077 130.074 16.2765C128.837 16.7814 127.681 17.4661 126.644 18.3087L126.517 16.7846C126.516 16.7045 126.498 16.6255 126.465 16.5526C126.431 16.4797 126.384 16.4144 126.324 16.3608C126.264 16.3072 126.195 16.2664 126.119 16.241C126.043 16.2156 125.962 16.2061 125.882 16.213H125.184C125.106 16.2025 125.027 16.2101 124.953 16.2351C124.879 16.2601 124.812 16.3019 124.756 16.3573C124.701 16.4126 124.659 16.4799 124.634 16.554C124.609 16.6282 124.602 16.7071 124.612 16.7846V35.0742C124.602 35.1517 124.609 35.2306 124.634 35.3047C124.659 35.3788 124.701 35.4462 124.756 35.5015C124.812 35.5568 124.879 35.5986 124.953 35.6236ZM159.54 36.0902C158.814 36.1279 158.087 36.0116 157.409 35.749C156.73 35.4863 156.115 35.0832 155.603 34.566C154.61 33.4502 154.087 31.9941 154.142 30.5017C154.092 29.6754 154.226 28.8483 154.533 28.0797C154.84 27.3111 155.314 26.6201 155.92 26.0563C157.286 24.9131 159.031 24.3239 160.81 24.4052C162.56 24.4431 164.294 24.7428 165.954 25.2942V22.0555C165.954 20.4678 165.637 19.3247 164.938 18.6897C164.24 18.0546 163.097 17.6736 161.509 17.6736C159.712 17.703 157.932 18.0247 156.238 18.6262C156.055 18.6985 155.862 18.7414 155.666 18.7532C155.412 18.7532 155.285 18.5627 155.285 18.2451V17.6101C155.29 17.4334 155.333 17.2599 155.412 17.102C155.465 16.9975 155.56 16.936 155.698 16.8467C155.728 16.8275 155.76 16.807 155.793 16.7845C157.698 15.9653 159.753 15.5543 161.826 15.5779C163.986 15.5779 165.51 16.0859 166.526 17.0385C167.542 17.9911 168.05 19.4517 168.05 21.3569V35.0741C168.06 35.1516 168.053 35.2305 168.028 35.3046C168.003 35.3787 167.961 35.4461 167.906 35.5014C167.85 35.5567 167.783 35.5985 167.709 35.6235C167.635 35.6486 167.556 35.6561 167.478 35.6456H166.716C166.639 35.6561 166.56 35.6486 166.486 35.6235C166.412 35.5985 166.344 35.5567 166.289 35.5014C166.234 35.4461 166.192 35.3787 166.167 35.3046C166.142 35.2305 166.134 35.1516 166.145 35.0741L166.018 33.4229C163.922 35.2011 161.763 36.0902 159.54 36.0902ZM159.794 34.058C160.794 34.0408 161.783 33.8474 162.715 33.4864C163.849 33.0654 164.917 32.4883 165.891 31.7718V26.9454C164.363 26.5007 162.782 26.2657 161.191 26.2468C157.826 26.2468 156.174 27.6439 156.174 30.4382C156.115 31.4281 156.432 32.404 157.064 33.1689C157.839 33.7811 158.807 34.0963 159.794 34.058ZM173.154 35.6237C173.228 35.6487 173.307 35.6563 173.384 35.6458V35.7093H174.337C174.415 35.7198 174.493 35.7122 174.568 35.6872C174.642 35.6622 174.709 35.6204 174.764 35.5651C174.82 35.5098 174.861 35.4424 174.886 35.3683C174.911 35.2942 174.919 35.2153 174.909 35.1378V20.9125C175.583 20.0363 176.425 19.3025 177.385 18.7533C178.292 18.306 179.295 18.0879 180.307 18.1183H181.64C181.758 18.1161 181.871 18.0709 181.958 17.9913C181.975 17.9574 181.992 17.9281 182.007 17.9009L182.007 17.9006L182.007 17.9004C182.051 17.8257 182.085 17.7667 182.085 17.6737V16.7212C182.085 16.3401 181.894 16.0861 181.513 16.0861C181.199 16.0288 180.879 16.0075 180.561 16.0226C179.524 16.0128 178.5 16.2524 177.576 16.7212C176.538 17.2905 175.63 18.069 174.909 19.0074L174.718 16.7847C174.717 16.7046 174.699 16.6256 174.665 16.5527C174.632 16.4798 174.584 16.4145 174.525 16.3609C174.465 16.3073 174.395 16.2665 174.319 16.2411C174.243 16.2157 174.163 16.2061 174.083 16.2131H173.384C173.307 16.2026 173.228 16.2102 173.154 16.2352C173.08 16.2602 173.012 16.302 172.957 16.3573C172.902 16.4127 172.86 16.48 172.835 16.5541C172.81 16.6282 172.802 16.7071 172.813 16.7847V35.0743C172.802 35.1518 172.81 35.2307 172.835 35.3048C172.86 35.3789 172.902 35.4463 172.957 35.5016C173.012 35.5569 173.08 35.5987 173.154 35.6237ZM202.152 33.6136C203.613 35.3282 205.772 36.2173 208.63 36.2173C210.598 36.2165 212.545 35.8055 214.346 35.0107C214.6 34.8837 214.727 34.6297 214.727 34.1851V33.6136C214.724 33.4958 214.679 33.3828 214.6 33.296C214.569 33.2573 214.531 33.2258 214.487 33.2038C214.443 33.1819 214.395 33.17 214.346 33.169C214.125 33.198 213.911 33.2623 213.71 33.3595C212.136 33.9922 210.454 34.3156 208.757 34.3121C206.471 34.3121 204.82 33.7406 203.74 32.407C202.661 31.0733 202.089 29.1047 202.089 26.3739H214.282C214.362 26.3809 214.442 26.3714 214.518 26.346C214.594 26.3206 214.664 26.2798 214.724 26.2262C214.783 26.1726 214.831 26.1073 214.864 26.0344C214.898 25.9615 214.916 25.8825 214.917 25.8024C215.004 25.0222 215.046 24.2377 215.044 23.4527C215.044 20.9125 214.409 19.0073 213.266 17.6737C212.123 16.3401 210.408 15.6415 208.249 15.6415C207.096 15.5836 205.945 15.7944 204.887 16.2572C203.829 16.7201 202.893 17.4224 202.152 18.3087C200.692 20.0869 199.993 22.6271 199.993 25.8659C199.993 29.2952 200.692 31.8989 202.152 33.6136ZM213.104 23.9256V23.9258V23.926V23.9262V23.9263V23.9264C213.089 24.1156 213.075 24.2922 213.075 24.4688H202.152C202.406 19.8329 204.375 17.5467 208.185 17.5467C208.869 17.5064 209.553 17.6163 210.189 17.8686C210.825 18.1209 211.399 18.5096 211.869 19.0073C212.694 19.9599 213.139 21.357 213.139 23.1987C213.139 23.4709 213.121 23.7067 213.104 23.9256ZM224.824 35.8997C224.229 35.9416 223.632 35.8557 223.074 35.6475C222.515 35.4394 222.007 35.1139 221.585 34.6931C220.757 33.7006 220.348 32.4256 220.442 31.1368V18.1181H217.584C217.507 18.1286 217.428 18.1211 217.354 18.0961C217.28 18.071 217.212 18.0292 217.157 17.9739C217.102 17.9186 217.06 17.8513 217.035 17.7771C217.01 17.703 217.002 17.6241 217.013 17.5466V17.1656C217.007 17.0076 217.051 16.8519 217.14 16.721C217.203 16.594 217.33 16.5305 217.584 16.5305L220.505 16.2765L220.759 11.196C220.751 11.1118 220.763 11.0268 220.797 10.9489C220.83 10.8711 220.883 10.8031 220.95 10.7515C221.056 10.6617 221.192 10.6162 221.331 10.6245H221.966C222.044 10.614 222.123 10.6216 222.197 10.6466C222.271 10.6716 222.338 10.7134 222.393 10.7687C222.449 10.824 222.491 10.8914 222.516 10.9655C222.541 11.0396 222.548 11.1185 222.538 11.196V16.2765H227.745C227.823 16.266 227.902 16.2736 227.976 16.2986C228.05 16.3236 228.117 16.3654 228.172 16.4207C228.228 16.476 228.27 16.5434 228.295 16.6175C228.32 16.6916 228.327 16.7705 228.317 16.848V17.6101C228.327 17.6876 228.32 17.7665 228.295 17.8406C228.27 17.9148 228.228 17.9821 228.172 18.0374C228.117 18.0927 228.05 18.1345 227.976 18.1596C227.902 18.1846 227.823 18.1921 227.745 18.1817H222.538V31.0733C222.538 32.1529 222.728 32.8514 223.173 33.296C223.463 33.5344 223.798 33.7132 224.157 33.8222C224.517 33.9312 224.894 33.9681 225.268 33.931C225.888 33.9407 226.506 33.8767 227.11 33.7405C227.316 33.6737 227.529 33.6311 227.745 33.6135C227.844 33.5675 227.953 33.5457 228.063 33.55C228.317 33.55 228.444 33.677 228.444 33.9945V34.5661C228.444 35.0106 228.317 35.2646 228.063 35.3916C227.018 35.7352 225.924 35.9068 224.824 35.8997ZM231.96 43.6252C232.034 43.6502 232.113 43.6578 232.19 43.6473V43.7108H233.27C233.348 43.7213 233.426 43.7137 233.501 43.6887C233.575 43.6637 233.642 43.6219 233.697 43.5666C233.753 43.5112 233.795 43.4439 233.82 43.3698C233.845 43.2957 233.852 43.2168 233.842 43.1392V33.5499C234.626 34.3607 235.562 35.0082 236.598 35.4551C237.633 35.902 238.747 36.1394 239.875 36.1536C240.99 36.1898 242.096 35.9475 243.094 35.4485C244.092 34.9495 244.95 34.2097 245.59 33.2959C246.987 31.3907 247.686 28.787 247.686 25.6752C247.686 22.5635 246.987 20.0867 245.654 18.3086C245.022 17.4449 244.188 16.7499 243.224 16.2848C242.261 15.8196 241.198 15.5987 240.129 15.6414C239.017 15.6308 237.915 15.8469 236.89 16.2764C235.702 16.7906 234.607 17.4988 233.651 18.3721L233.524 16.7845C233.523 16.7043 233.505 16.6254 233.471 16.5525C233.438 16.4796 233.39 16.4143 233.331 16.3607C233.271 16.3071 233.201 16.2663 233.125 16.2409C233.049 16.2154 232.969 16.2059 232.889 16.2129H232.19C232.113 16.2024 232.034 16.21 231.96 16.235C231.886 16.26 231.818 16.3018 231.763 16.3571C231.708 16.4124 231.666 16.4798 231.641 16.5539C231.616 16.628 231.608 16.7069 231.619 16.7845V43.0757C231.608 43.1533 231.616 43.2322 231.641 43.3063C231.666 43.3804 231.708 43.4477 231.763 43.5031C231.818 43.5584 231.886 43.6002 231.96 43.6252ZM242.047 33.5777C241.271 33.9439 240.414 34.109 239.557 34.0579C238.551 34.0436 237.557 33.8276 236.636 33.4229C235.581 32.9294 234.615 32.2642 233.778 31.4542V20.0867C235.747 18.4356 237.779 17.61 239.748 17.61C243.621 17.61 245.527 20.3408 245.527 25.8022C245.527 28.533 245.019 30.5651 244.003 31.9623C243.496 32.6561 242.824 33.2115 242.047 33.5777ZM254.735 35.7726C254.322 35.7935 253.91 35.7249 253.526 35.5714C253.143 35.4179 252.797 35.1833 252.512 34.8835C251.922 34.1736 251.627 33.2645 251.687 32.3433V7.57613C251.676 7.49861 251.684 7.41971 251.709 7.34559C251.734 7.27146 251.776 7.20412 251.831 7.1488C251.886 7.09349 251.954 7.05169 252.028 7.02667C252.102 7.00166 252.181 6.9941 252.258 7.00458H253.211C253.288 6.9941 253.367 7.00166 253.441 7.02667C253.515 7.05169 253.583 7.09349 253.638 7.1488C253.693 7.20412 253.735 7.27146 253.76 7.34559C253.785 7.41971 253.793 7.49861 253.782 7.57613V32.2798C253.754 32.7058 253.866 33.1294 254.1 33.4864C254.29 33.7404 254.671 33.8039 255.18 33.8039C255.351 33.8105 255.523 33.789 255.688 33.7404C255.792 33.7404 255.878 33.7211 255.955 33.7038C256.018 33.6897 256.075 33.6769 256.132 33.6769C256.45 33.6769 256.64 33.8674 256.64 34.2484V35.0105C256.649 35.0773 256.645 35.1452 256.627 35.2102C256.609 35.2753 256.579 35.3362 256.538 35.3894C256.496 35.4426 256.445 35.487 256.386 35.5201C256.327 35.5531 256.263 35.5742 256.196 35.5821C255.719 35.7077 255.228 35.7718 254.735 35.7726ZM262.32 35.749C262.998 36.0116 263.725 36.1279 264.451 36.0902C266.674 36.0902 268.833 35.2011 270.929 33.4229L271.056 35.0741C271.045 35.1516 271.053 35.2305 271.078 35.3046C271.103 35.3787 271.145 35.4461 271.2 35.5014C271.255 35.5567 271.323 35.5985 271.397 35.6235C271.471 35.6486 271.55 35.6561 271.627 35.6456H272.389C272.467 35.6561 272.546 35.6486 272.62 35.6235C272.694 35.5985 272.761 35.5567 272.817 35.5014C272.872 35.4461 272.914 35.3787 272.939 35.3046C272.964 35.2305 272.971 35.1516 272.961 35.0741V21.3569C272.961 19.4517 272.453 17.9911 271.437 17.0385C270.421 16.0859 268.897 15.5779 266.737 15.5779C264.664 15.5543 262.609 15.9653 260.704 16.7845C260.671 16.807 260.639 16.8275 260.609 16.8467C260.471 16.936 260.376 16.9975 260.323 17.102C260.244 17.2599 260.201 17.4334 260.196 17.6101V18.2451C260.196 18.5627 260.323 18.7532 260.577 18.7532C260.773 18.7414 260.966 18.6985 261.149 18.6262C262.843 18.0247 264.623 17.703 266.42 17.6736C268.008 17.6736 269.151 18.0546 269.849 18.6897C270.548 19.3247 270.865 20.4678 270.865 22.0555V25.2942C269.205 24.7428 267.471 24.4431 265.721 24.4052C263.942 24.3239 262.197 24.9131 260.831 26.0563C260.225 26.6201 259.752 27.3111 259.444 28.0797C259.137 28.8483 259.003 29.6754 259.053 30.5017C258.998 31.9941 259.521 33.4502 260.514 34.566C261.026 35.0832 261.641 35.4863 262.32 35.749ZM267.627 33.4864C266.694 33.8474 265.705 34.0408 264.705 34.058C263.718 34.0963 262.75 33.7811 261.975 33.1689C261.343 32.404 261.026 31.4281 261.085 30.4382C261.085 27.6439 262.737 26.2468 266.102 26.2468C267.693 26.2657 269.274 26.5007 270.802 26.9454V31.7718C269.828 32.4883 268.76 33.0654 267.627 33.4864ZM285.408 36.0902C282.614 36.0902 280.518 35.2011 279.058 33.4865C277.597 31.7718 276.898 29.2316 276.898 25.9293C276.898 22.627 277.66 20.0868 279.121 18.3722C280.582 16.6575 282.741 15.7684 285.472 15.7684C286.78 15.7635 288.076 16.0227 289.282 16.5305C289.599 16.6575 289.727 16.9115 289.727 17.3561V17.9276C289.727 18.2452 289.599 18.4357 289.282 18.4357C289.192 18.4452 289.102 18.4227 289.028 18.3722C288.855 18.3455 288.685 18.303 288.52 18.2452C287.588 17.9939 286.627 17.8658 285.662 17.8641C283.376 17.8641 281.725 18.4992 280.709 19.7693C279.693 21.0394 279.185 23.0081 279.185 25.8023V26.2468C279.185 28.9141 279.693 30.8828 280.709 32.2164C281.725 33.55 283.376 34.1215 285.599 34.1215C286.654 34.0929 287.701 33.922 288.71 33.6135C288.897 33.5539 289.088 33.5114 289.282 33.4865C289.356 33.4865 289.409 33.4647 289.453 33.4466C289.483 33.4339 289.51 33.423 289.536 33.423C289.854 33.423 289.981 33.6135 289.981 33.931V34.5026C289.981 34.9471 289.854 35.2011 289.599 35.3281C288.251 35.8013 286.837 36.0585 285.408 36.0902ZM294.108 33.6136C295.569 35.3282 297.728 36.2173 300.586 36.2173C302.554 36.2099 304.499 35.7992 306.301 35.0107C306.555 34.8837 306.682 34.6297 306.682 34.1851V33.6136C306.68 33.4958 306.635 33.3828 306.555 33.296C306.525 33.2573 306.487 33.2258 306.443 33.2038C306.399 33.1819 306.351 33.17 306.301 33.169C306.081 33.198 305.866 33.2623 305.666 33.3595C304.092 33.9922 302.41 34.3156 300.713 34.3121C298.427 34.3121 296.776 33.7406 295.696 32.407C294.616 31.0733 294.045 29.1047 294.045 26.3739H306.238C306.318 26.3809 306.398 26.3714 306.474 26.346C306.55 26.3206 306.62 26.2798 306.68 26.2262C306.739 26.1726 306.787 26.1073 306.82 26.0344C306.854 25.9615 306.872 25.8825 306.873 25.8024C306.96 25.0222 307.002 24.2377 307 23.4527C307 20.9125 306.365 19.0073 305.222 17.6737C304.079 16.3401 302.364 15.6415 300.205 15.6415C299.052 15.5836 297.901 15.7944 296.843 16.2572C295.785 16.7201 294.849 17.4224 294.108 18.3087C292.648 20.0869 291.949 22.6271 291.949 25.8659C291.949 29.2952 292.648 31.8989 294.108 33.6136ZM305.06 23.9256C305.045 24.1151 305.031 24.2919 305.031 24.4688H294.108C294.362 19.8329 296.331 17.5467 300.141 17.5467C300.825 17.5064 301.509 17.6163 302.145 17.8686C302.781 18.1209 303.355 18.5096 303.825 19.0073C304.65 19.9599 305.095 21.357 305.095 23.1987C305.095 23.4709 305.077 23.7067 305.06 23.9256Z" fill="white"/>
<path d="M15.5097 42.2504C16.9477 42.2504 18.1135 41.0847 18.1135 39.6467C18.1135 38.2087 16.9477 37.043 15.5097 37.043C14.0717 37.043 12.906 38.2087 12.906 39.6467C12.906 41.0847 14.0717 42.2504 15.5097 42.2504Z" fill="white"/>
<path d="M30.497 42.2504C31.935 42.2504 33.1008 41.0847 33.1008 39.6467C33.1008 38.2087 31.935 37.043 30.497 37.043C29.059 37.043 27.8933 38.2087 27.8933 39.6467C27.8933 41.0847 29.059 42.2504 30.497 42.2504Z" fill="white"/>
<path d="M47.58 15.3872H35.895L31.2591 31.2636H14.3666L11.4454 21.9283H7L11.6359 35.836H33.9898L39.2608 18.9435H47.58V15.3872Z" fill="white"/>
<path d="M23.3845 18.2449L28.465 20.5946L33.4819 12.5294H23.3845V18.2449Z" fill="#00A5CB"/>
<path d="M33.4818 18.2449L28.4648 20.5946V12.5294H33.4818V18.2449Z" fill="#008EBA"/>
<path d="M28.465 9.98914L23.3845 12.5294L28.465 14.8156L33.4819 12.5294L28.465 9.98914Z" fill="#36C1DA"/>
<path d="M11.9534 18.2449L17.0338 20.5946L22.0507 12.5294H11.9534V18.2449Z" fill="#F17C22"/>
<path d="M22.0509 18.2449L17.0339 20.5946V12.5294H22.0509V18.2449Z" fill="#E66024"/>
<path d="M17.0338 9.98914L11.9534 12.5294L17.0338 14.8156L22.0507 12.5294L17.0338 9.98914Z" fill="#F7972A"/>
<path d="M17.6689 27.6437L22.7494 29.9934L27.7663 21.7377H17.6689V27.6437Z" fill="#1D66B0"/>
<path d="M27.7662 27.6437L22.7493 29.9934V21.7377H27.7662V27.6437Z" fill="#13509F"/>
<path d="M22.7494 19.3883L27.7663 21.738L22.7494 24.2147L17.6689 21.738L22.7494 19.3883Z" fill="#177EBC"/>
</g>
<defs>
<filter id="filter0_d" x="0" y="0" width="320" height="56.7154" filterUnits="userSpaceOnUse" color-interpolation-filters="sRGB">
<feFlood flood-opacity="0" result="BackgroundImageFix"/>
<feColorMatrix in="SourceAlpha" type="matrix" values="0 0 0 0 0 0 0 0 0 0 0 0 0 0 0 0 0 0 127 0" result="hardAlpha"/>
<feOffset dx="3" dy="3"/>
<feGaussianBlur stdDeviation="5"/>
<feColorMatrix type="matrix" values="0 0 0 0 0 0 0 0 0 0 0 0 0 0 0 0 0 0 0.15 0"/>
<feBlend mode="normal" in2="BackgroundImageFix" result="effect1_dropShadow"/>
<feBlend mode="normal" in="SourceGraphic" in2="effect1_dropShadow" result="shape"/>
</filter>
</defs>
</svg>
