<?xml version="1.0" encoding="UTF-8" standalone="no"?>
<svg
   xmlns:dc="http://purl.org/dc/elements/1.1/"
   xmlns:cc="http://creativecommons.org/ns#"
   xmlns:rdf="http://www.w3.org/1999/02/22-rdf-syntax-ns#"
   xmlns:svg="http://www.w3.org/2000/svg"
   xmlns="http://www.w3.org/2000/svg"
   xmlns:xlink="http://www.w3.org/1999/xlink"
   xmlns:sodipodi="http://sodipodi.sourceforge.net/DTD/sodipodi-0.dtd"
   xmlns:inkscape="http://www.inkscape.org/namespaces/inkscape"
   version="1.1"
   id="Capa_1"
   x="0px"
   y="0px"
   viewBox="0 0 512 512"
   style="enable-background:new 0 0 512 512;"
   xml:space="preserve"
   sodipodi:docname="finance.svg"
   inkscape:version="1.0.1 (0767f8302a, 2020-10-17)"><metadata
   id="metadata49"><rdf:RDF><cc:Work
       rdf:about=""><dc:format>image/svg+xml</dc:format><dc:type
         rdf:resource="http://purl.org/dc/dcmitype/StillImage" /></cc:Work></rdf:RDF></metadata><defs
   id="defs47"><linearGradient
     inkscape:collect="always"
     id="linearGradient878"><stop
       style="stop-color:#000000;stop-opacity:1;"
       offset="0"
       id="stop874" /><stop
       style="stop-color:#000000;stop-opacity:0;"
       offset="1"
       id="stop876" /></linearGradient><linearGradient
     inkscape:collect="always"
     xlink:href="#linearGradient878"
     id="linearGradient880"
     x1="8.008"
     y1="256.00013"
     x2="503.991"
     y2="256.00013"
     gradientUnits="userSpaceOnUse" /></defs><sodipodi:namedview
   pagecolor="#ffffff"
   bordercolor="#666666"
   borderopacity="1"
   objecttolerance="10"
   gridtolerance="10"
   guidetolerance="10"
   inkscape:pageopacity="0"
   inkscape:pageshadow="2"
   inkscape:window-width="3368"
   inkscape:window-height="1376"
   id="namedview45"
   showgrid="false"
   inkscape:zoom="0.91015625"
   inkscape:cx="-0.3598881"
   inkscape:cy="16.163221"
   inkscape:window-x="1992"
   inkscape:window-y="27"
   inkscape:window-maximized="1"
   inkscape:current-layer="layer3" />
<g
   inkscape:groupmode="layer"
   id="layer3"
   inkscape:label="Layer 1"
   style="display:inline"><path
     style="display:inline;fill:#bddbff;fill-opacity:1;fill-rule:evenodd;stroke:#360000;stroke-width:0.0970163;stroke-miterlimit:2"
     d="m 82.256491,198.14875 c 0.0191,-0.14688 3.093406,-31.25108 6.8318,-69.12045 4.723218,-47.84548 6.85603,-69.101592 6.990288,-69.666897 0.386904,-1.629086 1.264083,-3.128673 2.537885,-4.338661 1.703626,-1.618273 3.799386,-2.471222 6.071996,-2.471222 0.8124,0 5.71799,0.46878 29.01832,2.772999 1.86943,0.184872 14.91419,1.473274 28.98834,2.863115 14.07416,1.389841 27.79628,2.745271 30.4936,3.012067 2.69733,0.266796 6.89263,0.681459 9.32289,0.921473 2.43026,0.240014 7.08442,0.701842 10.34257,1.026284 6.78518,0.67566 7.59551,0.698176 8.9122,0.247646 0.91519,-0.313151 2.27873,-1.482539 2.27873,-1.222996 0,0.105327 -3.955,5.861135 -7.39593,11.377459 -5.94464,9.530135 -6.57035,11.46601 -6.85437,11.494925 -0.27109,0.0276 3e-4,-1.430214 3e-4,-1.681472 0,-0.874268 -0.83484,-2.812462 -1.5921,-3.696238 -0.96593,-1.127333 -2.10565,-1.896823 -3.44161,-2.323647 -0.77669,-0.248141 -1.3043,-0.307611 -12.68948,-1.430325 -6.09099,-0.600644 -13.58481,-1.340378 -18.25732,-1.802224 -2.13649,-0.21118 -5.67627,-0.560785 -7.86618,-0.7769 -2.18991,-0.216115 -5.94819,-0.587392 -8.35175,-0.82506 -12.51216,-1.237226 -11.80321,-1.183088 -13.4502,-1.027106 -3.01788,0.285812 -5.73808,1.242639 -8.14326,2.864373 -1.95382,1.317397 -3.32977,2.739701 -4.89266,5.057478 -1.8962,2.81208 -3.16821,4.394569 -5.21805,6.491724 -2.53649,2.595038 -5.57292,4.966965 -8.59788,6.716305 -1.41424,0.817857 -3.99308,2.068181 -5.38979,2.61319 -2.9122,1.136361 -4.63731,2.189915 -6.44433,3.935676 -2.78428,2.689874 -4.57268,6.141814 -5.10972,9.862684 -0.0787,0.5453 -8.839763,89.07248 -8.839763,89.32246 0,0.0387 -2.090081,0.0704 -4.644623,0.0704 h -4.644623 z"
     id="path902"
     sodipodi:nodetypes="ssssssssssssssssssssssssssssssscs" /></g><g
   id="g6"
   style="display:inline;fill:#22417d;fill-opacity:1">
	<g
   id="g4"
   style="fill:#22417d;fill-opacity:1">
		<path
   d="m 487.59,299.894 h -7.662 v -69.015 c 0,-10.926 -5.438,-20.6 -13.743,-26.478 v -9.397 c 0,-13.631 -11.089,-24.72 -24.72,-24.72 h -5.721 l 21.889,-32.12 c 7.337,-10.766 4.547,-25.495 -6.219,-32.833 L 302.883,4.111 c -5.215,-3.555 -11.501,-4.867 -17.705,-3.69 -6.201,1.175 -11.574,4.694 -15.128,9.91 L 141.849,198.454 h -35.675 l 8.607,-87.13 c 0.097,-0.982 0.735,-1.833 1.625,-2.168 11.089,-4.181 20.699,-11.989 27.059,-21.985 0.501,-0.787 1.446,-1.237 2.424,-1.138 l 55.955,5.528 c 4.012,0.389 7.581,-2.533 7.977,-6.543 0.396,-4.01 -2.533,-7.581 -6.543,-7.977 l -55.955,-5.528 c -6.495,-0.636 -12.689,2.357 -16.169,7.825 -4.676,7.35 -11.742,13.09 -19.895,16.164 -6.137,2.314 -10.351,7.826 -10.999,14.387 l -8.748,88.564 H 82.209 L 95.821,60.649 c 0.49,-4.96 4.917,-8.604 9.883,-8.107 l 113.074,11.17 c 4.01,0.387 7.581,-2.533 7.977,-6.543 0.396,-4.01 -2.533,-7.581 -6.543,-7.977 L 107.138,38.022 C 94.174,36.743 82.581,46.248 81.3,59.214 L 70.328,170.284 H 51.643 c -13.63,0 -24.72,11.089 -24.72,24.72 v 6.41 C 15.772,206.548 8.008,217.82 8.008,230.879 v 248.695 c 0,17.88 14.546,32.426 32.427,32.426 h 407.067 c 17.88,0 32.426,-14.546 32.426,-32.426 V 410.56 h 7.662 c 9.044,0 16.401,-7.357 16.401,-16.4 v -77.865 c 0.001,-9.044 -7.357,-16.401 -16.401,-16.401 z M 441.465,184.876 v 0 c 5.586,-0.001 10.129,4.543 10.129,10.129 v 3.717 c -1.342,-0.17 -2.705,-0.267 -4.092,-0.267 H 416.547 L 425.8,184.876 Z M 282.107,18.547 c 1.36,-1.995 3.415,-3.341 5.787,-3.791 0.567,-0.107 1.136,-0.161 1.701,-0.161 1.797,0 3.553,0.538 5.071,1.572 l 148.531,101.22 c 4.118,2.807 5.186,8.441 2.38,12.559 l -46.686,68.506 h -11.204 l 22.889,-33.587 c 3.712,-5.447 4.018,-12.379 0.796,-18.092 -4.282,-7.59 -6.018,-16.527 -4.888,-25.166 0.84,-6.427 -1.988,-12.701 -7.38,-16.375 L 322.106,52.76 c -5.393,-3.675 -12.267,-4.012 -17.941,-0.879 -7.625,4.21 -16.578,5.863 -25.208,4.655 -6.4,-0.898 -12.891,1.992 -16.548,7.357 l -91.699,134.56 h -11.204 z m 3.213,123.891 c -31.771,0 -57.851,24.773 -59.976,56.015 H 188.365 L 274.464,72.11 c 10e-4,0 10e-4,0 10e-4,0 0.489,-0.719 1.3,-1.147 2.133,-1.147 0.111,0 0.222,0.008 0.333,0.023 11.738,1.642 23.913,-0.604 34.285,-6.331 0.816,-0.452 1.864,-0.387 2.672,0.163 l 76.999,52.473 c 0.806,0.55 1.249,1.502 1.129,2.426 -1.537,11.749 0.825,23.903 6.648,34.225 0.467,0.829 0.41,1.891 -0.144,2.706 l -28.488,41.804 h -24.733 c -2.127,-31.241 -28.206,-56.014 -59.979,-56.014 z m 45.348,56.016 h -90.695 c 2.09,-23.189 21.624,-41.424 45.347,-41.424 23.724,-0.001 43.259,18.235 45.348,41.424 z m -289.154,-3.45 c 0,-5.586 4.543,-10.13 10.129,-10.13 h 17.244 l -1.341,13.579 H 41.514 Z m -18.915,35.875 c 0,-9.834 8.001,-17.835 17.836,-17.835 h 407.067 c 9.835,0 17.835,8.001 17.835,17.835 v 20.244 H 22.599 Z m 442.738,248.695 c 0,9.834 -8,17.835 -17.835,17.835 H 40.435 c -9.835,0 -17.836,-8.001 -17.836,-17.835 V 459.33 h 39.342 c 4.03,0 7.295,-3.266 7.295,-7.295 0,-4.029 -3.266,-7.295 -7.295,-7.295 H 22.599 V 265.714 h 442.738 v 34.18 h -69.366 -10e-4 c -21.856,0 -40.788,12.74 -49.773,31.181 -0.03,0.062 -0.064,0.122 -0.095,0.184 -0.076,0.157 -0.142,0.32 -0.216,0.478 -1.07,2.273 -2,4.626 -2.757,7.054 -0.002,0.007 -0.004,0.013 -0.006,0.02 -1.615,5.189 -2.486,10.702 -2.486,16.416 0,30.511 24.822,55.333 55.332,55.333 h 0.001 69.366 v 34.18 H 108.655 c -4.03,0 -7.295,3.266 -7.295,7.295 0,4.029 3.266,7.295 7.295,7.295 h 356.682 z m 24.064,-85.415 c 0,0.998 -0.812,1.81 -1.811,1.81 h -91.618 c -15.445,0 -28.911,-8.639 -35.818,-21.338 -0.314,-0.577 -0.614,-1.163 -0.901,-1.756 -0.573,-1.187 -1.09,-2.406 -1.547,-3.654 -1.602,-4.366 -2.476,-9.08 -2.476,-13.994 0,-4.914 0.875,-9.628 2.476,-13.994 0.458,-1.247 0.975,-2.466 1.547,-3.654 0.287,-0.593 0.587,-1.179 0.901,-1.756 6.907,-12.699 20.373,-21.338 35.818,-21.338 h 91.618 c 0.998,0 1.811,0.812 1.811,1.81 z"
   id="path2"
   style="fill:#22417d;fill-opacity:1" />
	</g><g
   inkscape:groupmode="layer"
   id="layer2"
   inkscape:label="Layer 2"
   style="display:none"
   sodipodi:insensitive="true" />
</g>
<g
   id="g12"
   style="fill:#22417d;fill-opacity:1">
	<g
   id="g10"
   style="fill:#22417d;fill-opacity:1">
		<path
   d="M397.681,325.627c-16.322,0-29.6,13.279-29.6,29.6c0,16.321,13.278,29.599,29.6,29.599c16.322,0,29.6-13.278,29.6-29.599    C427.281,338.906,414.003,325.627,397.681,325.627z M397.681,370.235c-8.276,0-15.009-6.733-15.009-15.008    c0-8.275,6.733-15.009,15.009-15.009s15.009,6.733,15.009,15.009S405.957,370.235,397.681,370.235z"
   id="path8"
   style="fill:#22417d;fill-opacity:1" />
	</g>
</g>
<g
   id="g14">
</g>
<g
   id="g16">
</g>
<g
   id="g18">
</g>
<g
   id="g20">
</g>
<g
   id="g22">
</g>
<g
   id="g24">
</g>
<g
   id="g26">
</g>
<g
   id="g28">
</g>
<g
   id="g30">
</g>
<g
   id="g32">
</g>
<g
   id="g34">
</g>
<g
   id="g36">
</g>
<g
   id="g38">
</g>
<g
   id="g40">
</g>
<g
   id="g42">
</g>
<path
   style="fill:#bddbff;fill-opacity:1;fill-rule:evenodd;stroke:#360000;stroke-width:0.548807;stroke-miterlimit:2"
   d="m 393.70903,369.36192 c -4.01757,-1.22209 -8.1228,-4.913 -9.73124,-8.7491 -1.22771,-2.92808 -1.12049,-8.07867 0.23135,-11.1129 2.44514,-5.48822 7.37841,-8.71197 13.34894,-8.72317 8.33888,-0.0156 14.83262,6.47489 14.83262,14.82531 0,3.40805 -2.65981,8.73263 -5.47673,10.96367 -3.68144,2.91576 -9.06453,4.05564 -13.20494,2.79619 z"
   id="path882" /><path
   style="fill:#bddbff;fill-opacity:1;fill-rule:evenodd;stroke:#360000;stroke-width:0.548807;stroke-miterlimit:2"
   d="m 161.97673,195.33796 c 1.03033,-1.44658 28.76944,-42.10776 61.64246,-90.35817 32.99627,-48.431327 60.4172,-88.152673 61.21593,-88.676017 2.08931,-1.368971 6.1332,-1.632567 8.25027,-0.537786 3.50968,1.81493 150.38567,102.120623 151.58857,103.524053 2.03076,2.36929 2.6749,5.27757 1.74199,7.86508 -0.43406,1.20391 -11.29564,17.61482 -24.13684,36.46868 l -23.34764,34.27974 -5.08155,0.0116 c -2.79485,0.006 -5.08154,-0.10158 -5.08154,-0.23989 0,-0.1383 5.03006,-7.61641 11.1779,-16.61802 6.14785,-9.00161 11.59601,-17.17615 12.10702,-18.16565 2.67857,-5.18663 2.2648,-10.8559 -1.3458,-18.43984 -3.42719,-7.19868 -3.94717,-9.83673 -4.02363,-20.41345 l -0.0675,-9.33905 -1.87223,-3.4585 c -1.02973,-1.90217 -2.75883,-4.15318 -3.84245,-5.00225 -6.26654,-4.91013 -80.30378,-54.774226 -82.65796,-55.670156 -4.47757,-1.704026 -9.29423,-1.1979 -15.51002,1.629764 -8.06864,3.670564 -10.70846,4.193727 -21.36446,4.234044 -9.01272,0.0341 -9.44522,0.08748 -12.37726,1.527466 -1.67101,0.820672 -3.75107,2.236206 -4.62235,3.14563 -0.87129,0.909424 -22.26785,32.004486 -47.54794,69.100142 l -45.96378,67.44665 -5.37726,0.15803 -5.37726,0.15803 z"
   id="path886" /><path
   style="fill:#bddbff;fill-opacity:1;fill-rule:evenodd;stroke:#360000;stroke-width:0.548807;stroke-miterlimit:2"
   d="m 240.70306,195.35525 c 2.54179,-16.94986 15.81884,-31.61336 33.09305,-36.54878 6.142,-1.75483 16.73368,-1.74169 22.9551,0.0285 17.21916,4.89933 29.65254,18.25302 32.94505,35.3836 l 0.71272,3.70816 h -45.04577 -45.04576 z"
   id="path888" /></svg>
