<?xml version="1.0" encoding="UTF-8" standalone="no"?>
<svg
   xmlns:dc="http://purl.org/dc/elements/1.1/"
   xmlns:cc="http://creativecommons.org/ns#"
   xmlns:rdf="http://www.w3.org/1999/02/22-rdf-syntax-ns#"
   xmlns:svg="http://www.w3.org/2000/svg"
   xmlns="http://www.w3.org/2000/svg"
   xmlns:sodipodi="http://sodipodi.sourceforge.net/DTD/sodipodi-0.dtd"
   xmlns:inkscape="http://www.inkscape.org/namespaces/inkscape"
   id="Capa_1"
   enable-background="new 0 0 512 512"
   height="512"
   viewBox="0 0 512 512"
   width="512"
   version="1.1"
   sodipodi:docname="government.svg"
   inkscape:version="1.0.1 (0767f8302a, 2020-10-17)">
  <metadata
     id="metadata11">
    <rdf:RDF>
      <cc:Work
         rdf:about="">
        <dc:format>image/svg+xml</dc:format>
        <dc:type
           rdf:resource="http://purl.org/dc/dcmitype/StillImage" />
      </cc:Work>
    </rdf:RDF>
  </metadata>
  <defs
     id="defs9" />
  <sodipodi:namedview
     pagecolor="#ffffff"
     bordercolor="#666666"
     borderopacity="1"
     objecttolerance="10"
     gridtolerance="10"
     guidetolerance="10"
     inkscape:pageopacity="0"
     inkscape:pageshadow="2"
     inkscape:window-width="1424"
     inkscape:window-height="773"
     id="namedview7"
     showgrid="false"
     inkscape:zoom="0.91015625"
     inkscape:cx="227.08051"
     inkscape:cy="159.92136"
     inkscape:window-x="3207"
     inkscape:window-y="125"
     inkscape:window-maximized="0"
     inkscape:current-layer="g4"
     inkscape:document-rotation="0" />
  <g
     id="g4">
    <path
       d="m504.5 497h-7.5v-200h7.5c4.142 0 7.5-3.357 7.5-7.5s-3.358-7.5-7.5-7.5h-122.393v-22.356l5.106 1.72c3.826 1.294 8.165-.744 9.502-4.714 1.322-3.925-.789-8.179-4.714-9.501l-31.001-10.442v-52.189h7.5c4.142 0 7.5-3.357 7.5-7.5s-3.358-7.5-7.5-7.5h-7.778c-3.758-51.134-45.614-91.841-97.222-93.788v-10.73h60.5c9.649 0 17.5-7.851 17.5-17.5v-30c0-9.649-7.851-17.5-17.5-17.5h-68c-4.142 0-7.5 3.357-7.5 7.5v68.232c-21.777.839-42.895 8.726-59.845 22.438-3.22 2.605-3.719 7.328-1.114 10.548 2.606 3.221 7.329 3.72 10.548 1.114 15.291-12.371 34.568-19.184 54.279-19.184h7.263c45.095 0 82.206 34.746 86.022 78.869h-179.32c1.292-15.054 6.456-29.397 15.152-41.859 2.37-3.397 1.538-8.072-1.859-10.442-3.397-2.368-8.071-1.539-10.443 1.858-10.462 14.994-16.581 32.3-17.905 50.443h-7.778c-4.142 0-7.5 3.357-7.5 7.5s3.358 7.5 7.5 7.5h7.5v52.189l-31.001 10.442c-3.925 1.322-6.036 5.576-4.714 9.501 1.323 3.926 5.577 6.035 9.502 4.714l5.106-1.72v22.357h-122.393c-4.142 0-7.5 3.357-7.5 7.5s3.358 7.5 7.5 7.5h7.5v200h-7.5c-4.142 0-7.5 3.357-7.5 7.5s3.358 7.5 7.5 7.5h497c4.142 0 7.5-3.357 7.5-7.5s-3.358-7.5-7.5-7.5zm-241-482h60.5c1.378 0 2.5 1.121 2.5 2.5v30c0 1.379-1.122 2.5-2.5 2.5h-60.5zm-97.5 169.518h180v47.137l-74.838-25.207c-9.777-3.294-20.545-3.293-30.323 0l-74.839 25.207zm-21.107 70.073 100.734-33.928c6.69-2.252 14.059-2.251 20.747 0l100.734 33.928v27.409h-222.215zm-47.173 242.409h-37.72v-30h37.72zm0-45h-37.72v-25.226c0-10.399 8.46-18.859 18.86-18.859s18.86 8.46 18.86 18.859zm30 45h-15v-70.226c0-18.67-15.189-33.859-33.86-33.859s-33.86 15.189-33.86 33.859v70.226h-15v-118.107h97.72zm0-133.107h-97.72v-66.893h73.197v15.5c0 12.406 10.093 22.5 22.5 22.5h2.022v28.893zm46.56 133.107h-31.56v-162h31.561v162zm48.767 0h-33.767v-162h33.767zm46.56 0h-31.56v-162h31.56zm53.113 0h-38.112v-162h2.001c4.142 0 7.5-3.357 7.5-7.5s-3.358-7.5-7.5-7.5h-160.912c-4.136 0-7.5-3.364-7.5-7.5v-15.5h275.605v15.5c0 4.136-3.364 7.5-7.5 7.5h-69.694c-4.142 0-7.5 3.357-7.5 7.5s3.358 7.5 7.5 7.5h6.111v162zm46.56 0h-31.56v-162h31.561v162zm82.72 0h-37.72v-30h37.72zm0-45h-37.72v-25.226c0-10.399 8.46-18.859 18.86-18.859s18.86 8.46 18.86 18.859zm30 45h-15v-70.226c0-18.67-15.189-33.859-33.86-33.859s-33.86 15.189-33.86 33.859v70.226h-15v-118.107h97.72zm0-133.107h-97.72v-28.893h2.022c12.407 0 22.5-10.094 22.5-22.5v-15.5h73.198z"
       id="path2"
       style="fill:#22417d;fill-opacity:1" />
    <path
       style="fill:#bddbff;fill-opacity:1;fill-rule:evenodd;stroke-width:0.548807;stroke-miterlimit:2"
       d="M 263.96567,32.682121 V 15.372826 l 30.90128,0.141913 30.90129,0.141913 0.14616,16.480687 c 0.13309,15.006388 0.0623,16.542116 -0.79169,17.167382 -0.7233,0.529596 -7.8262,0.686695 -31.04745,0.686695 h -30.10959 z"
       id="path838" />
    <path
       style="fill:#bddbff;fill-opacity:1;fill-rule:evenodd;stroke-width:0.548807;stroke-miterlimit:2"
       d="M 60.154506,482.06009 V 467.50215 H 78.832618 97.51073 v 14.55794 14.55794 H 78.832618 60.154506 Z"
       id="path844" />
    <path
       style="fill:#bddbff;fill-opacity:1;fill-rule:evenodd;stroke-width:0.548807;stroke-miterlimit:2"
       d="m 60.25198,436.87554 0.177205,-14.69528 1.518499,-3.09089 c 1.792688,-3.649 5.995517,-7.77169 9.623968,-9.44045 3.924917,-1.80512 10.872406,-1.70166 14.951953,0.22264 3.825425,1.80444 7.226596,5.21035 9.184519,9.19733 l 1.527928,3.11137 0.177204,14.69528 0.177204,14.69528 H 78.832618 60.074775 Z"
       id="path846" />
    <path
       style="fill:#bddbff;fill-opacity:1;fill-rule:evenodd;stroke-width:0.548807;stroke-miterlimit:2"
       d="m 414.48927,482.06009 v -14.55794 h 18.67811 18.67811 v 14.55794 14.55794 h -18.67811 -18.67811 z"
       id="path848" />
    <path
       style="fill:#bddbff;fill-opacity:1;fill-rule:evenodd;stroke-width:0.548807;stroke-miterlimit:2"
       d="m 414.58674,436.87554 0.17721,-14.69528 1.48575,-3.02516 c 1.93938,-3.94881 5.46282,-7.49105 9.22669,-9.27593 2.51961,-1.19483 3.79706,-1.43282 7.69099,-1.43282 3.99992,0 5.11778,0.22012 7.79541,1.53503 4.51234,2.21588 8.36115,6.62288 9.7713,11.18842 0.98692,3.19528 1.1114,5.09928 1.1114,16.99965 v 13.40137 h -18.71797 -18.71798 z"
       id="path850" />
    <path
       style="fill:#bddbff;fill-opacity:1;fill-rule:evenodd;stroke-width:1.55226;stroke-miterlimit:2"
       d="m 146.4654,268.21666 0.44895,-13.41292 52.03286,-17.66337 c 28.61807,-9.71484 54.14722,-17.66336 56.73145,-17.66336 2.58423,0 28.4642,7.92391 57.51104,17.60868 l 52.81243,17.60867 0.44894,13.46761 0.44896,13.4676 H 256.45824 146.01645 Z"
       id="path860" />
  </g>
</svg>
