<?xml version="1.0" encoding="UTF-8" standalone="no"?>
<svg
   xmlns:dc="http://purl.org/dc/elements/1.1/"
   xmlns:cc="http://creativecommons.org/ns#"
   xmlns:rdf="http://www.w3.org/1999/02/22-rdf-syntax-ns#"
   xmlns:svg="http://www.w3.org/2000/svg"
   xmlns="http://www.w3.org/2000/svg"
   xmlns:sodipodi="http://sodipodi.sourceforge.net/DTD/sodipodi-0.dtd"
   xmlns:inkscape="http://www.inkscape.org/namespaces/inkscape"
   id="Capa_1"
   enable-background="new 0 0 512 512"
   height="512"
   viewBox="0 0 512 512"
   width="512"
   version="1.1"
   sodipodi:docname="healthcare.svg"
   inkscape:version="1.0.1 (0767f8302a, 2020-10-17)">
  <metadata
     id="metadata11">
    <rdf:RDF>
      <cc:Work
         rdf:about="">
        <dc:format>image/svg+xml</dc:format>
        <dc:type
           rdf:resource="http://purl.org/dc/dcmitype/StillImage" />
      </cc:Work>
    </rdf:RDF>
  </metadata>
  <defs
     id="defs9" />
  <sodipodi:namedview
     pagecolor="#ffffff"
     bordercolor="#666666"
     borderopacity="1"
     objecttolerance="10"
     gridtolerance="10"
     guidetolerance="10"
     inkscape:pageopacity="0"
     inkscape:pageshadow="2"
     inkscape:window-width="3368"
     inkscape:window-height="1376"
     id="namedview7"
     showgrid="false"
     inkscape:zoom="1.2871553"
     inkscape:cx="-27.5644"
     inkscape:cy="209.62455"
     inkscape:window-x="1992"
     inkscape:window-y="27"
     inkscape:window-maximized="1"
     inkscape:current-layer="Capa_1"
     inkscape:document-rotation="0" />
  <g
     id="g4">
    <path
       d="m504.383 101.79c-2.575-6.216-8.586-10.233-15.314-10.233h-13.299c-20.56 0-41.309-1.459-61.67-4.335-4.094-.58-7.896 2.276-8.475 6.378-.58 4.101 2.275 7.896 6.377 8.475 21.054 2.974 42.508 4.482 63.767 4.482h13.299c.261 0 1.054 0 1.456.973.403.973-.157 1.533-.342 1.717l-10.518 10.518c-6.207 6.207-14.461 9.627-23.24 9.627h-9.648c-12.786 0-24.807 4.979-33.848 14.02-6.207 6.208-14.461 9.626-23.24 9.626h-19.632c-6.432 0-12.876 1.326-18.798 3.849-.942-.513-1.906-1.023-2.935-1.508-7.402-3.492-15.945-4.763-24.039-3.581-7.071 1.033-13.847 4.252-19.079 9.064-5.908 5.433-9.243 12.426-9.393 19.691-.011.551.009 1.1.034 1.649h-18.029v-74.554c.057-.046.116-.086.172-.134 21.273-18.195 50.092-24.634 77.096-17.221 8.819 2.421 17.828 4.604 26.778 6.488 4.042.85 8.031-1.74 8.884-5.794.854-4.053-1.74-8.031-5.794-8.884-8.655-1.822-17.369-3.933-25.897-6.274-27.916-7.663-57.48-2.756-81.238 13.05v-14.81c11.469-7.363 18.417-19.932 18.417-33.825 0-22.19-18.05-40.244-40.235-40.244s-40.235 18.054-40.235 40.245c0 13.835 6.908 26.378 18.312 33.753v14.821c-23.739-15.716-53.411-20.599-81.133-12.99-38.019 10.437-77.288 15.729-116.714 15.729h-13.298c-6.729 0-12.739 4.017-15.314 10.233s-1.164 13.307 3.593 18.064l10.518 10.517c9.041 9.041 21.062 14.02 33.848 14.02h9.648c8.779 0 17.033 3.419 23.24 9.626 9.041 9.041 21.062 14.02 33.848 14.02h7.564c-4.446 2.762-8.231 5.919-11.479 9.573-9.41 10.589-14.337 22.964-14.247 35.789.104 14.373 6.614 28.615 17.415 38.098 9.286 8.153 20.734 12.332 31.665 15.913.775.254 1.563.375 2.336.375 3.155 0 6.091-2.006 7.126-5.167 1.29-3.936-.855-8.172-4.792-9.462-9.453-3.097-19.282-6.646-26.438-12.93-7.636-6.705-12.238-16.773-12.312-26.934-.063-9.053 3.553-17.946 10.459-25.717 3.047-3.428 6.86-6.293 11.657-8.761 3.414-1.756 7.005-3.068 10.807-4.457 2.072-.757 4.216-1.54 6.4-2.422 8.358-3.375 18.116-6.607 27.096-5.007 6.916 1.233 14.438 6.893 14.533 13.885.057 4.229-2.742 8.745-6.964 11.238-4.214 2.487-9.955 3.251-15.759 2.096-2.129-.424-4.37-1.091-6.743-1.797-6.626-1.972-14.137-4.208-22.143-1.831-7.298 2.167-12.965 8.268-15.16 16.319-2.194 8.051-.407 16.184 4.782 21.755 4.779 5.131 11.311 7.43 16.081 9.109 25.766 9.071 52.017 17.822 78.116 26.053-6.101 2.128-12.376 4.563-18.367 7.747-8.698-2.881-17.398-5.749-26.107-8.6-3.938-1.289-8.172.858-9.462 4.793-1.289 3.936.857 8.173 4.794 9.462 5.191 1.7 10.376 3.417 15.564 5.127-13.654 13.011-20.334 31.586-18.883 52.907 1.357 19.934 12.985 37.779 33.626 51.616-4.42 3.468-8.627 7.284-12.458 11.577-12.063 13.518-18.197 30.053-16.828 45.365 1.681 18.791 15.218 34.712 32.188 37.858.456.084.913.125 1.367.125 2.072 0 4.077-.86 5.51-2.412 1.748-1.893 2.402-4.549 1.732-7.037-3.62-13.458-6.503-26.42-2.082-37.091 2.263-5.462 6.33-9.977 11.171-13.825v68.76c0 12.06 9.811 21.871 21.871 21.871s21.871-9.811 21.871-21.871v-67.566c4.816 4.186 8.156 8.555 10.1 13.215 4.907 11.765 1.161 26.334-2.083 36.269-.806 2.468-.277 5.178 1.396 7.163 1.437 1.704 3.541 2.665 5.732 2.665.362 0 .728-.026 1.092-.08 17.792-2.615 31.986-19.466 33.018-39.198.817-15.67-6.278-32.438-19.469-46.003-3.374-3.47-7.118-6.77-11.429-10.072 10.27-7.101 19.37-15.602 25.97-26.786 2.524-4.28 4.561-8.906 6.056-13.749 5.383-17.461 3.236-36.516-5.742-50.971-2.804-4.516-6.188-8.616-10.204-12.393l45.457-14.98c9.168-3.022 19.561-6.446 28.323-13.02 15.59-11.696 23.537-32.403 19.774-51.527-1.949-9.905-7.145-19.434-14.632-26.832-3.266-3.227-6.887-5.988-10.755-8.227h9.265c12.786 0 24.807-4.979 33.848-14.02 6.207-6.207 14.461-9.626 23.24-9.626h9.648c12.786 0 24.807-4.979 33.848-14.02l10.518-10.517c4.756-4.756 6.167-11.847 3.592-18.063zm-203.045 95.413c2.999 4.077 7.073 7.503 11.913 9.756 8.604 4.004 19.129 4.402 29.64 1.121 1.443-.451 2.831-.948 4.173-1.429 3.408-1.221 6.642-2.371 9.276-2.17 3.153.244 6.288 2.934 7.137 6.126.879 3.302-.483 7.351-3.238 9.626-2.319 1.916-5.879 3.094-9.32 4.232l-73.1 24.185v-51.448h23.519zm-70.573-156.958c0-13.92 11.32-25.245 25.235-25.245s25.235 11.325 25.235 25.245c0 9.738-5.442 18.439-14.202 22.708-2.579 1.257-4.215 3.874-4.215 6.742v183.918l-14.096 4.664c.229-.719.354-1.483.354-2.277v-186.359c0-2.858-1.625-5.468-4.189-6.73-8.711-4.285-14.122-12.97-14.122-22.666zm-42.564 111.917c-10.551-1.88-20.79.521-29.872 3.774-5.259-1.92-10.76-2.898-16.386-2.898h-19.632c-8.779 0-17.033-3.419-23.24-9.626-9.041-9.041-21.061-14.02-33.848-14.02h-9.648c-8.779 0-17.033-3.419-23.24-9.627l-10.518-10.518c-.185-.184-.745-.745-.342-1.717.402-.973 1.195-.973 1.456-.973h13.299c40.768 0 81.371-5.472 120.684-16.264 26.111-7.166 54.267-1.285 75.315 15.74.574.464 1.197.826 1.847 1.095v75.074h-19.014c.028-.53.045-1.06.038-1.59-.208-15.401-14.014-26.153-26.899-28.45zm-39.111 66.208c-1.913-2.054-1.918-5.265-1.286-7.585.633-2.321 2.268-5.085 4.958-5.884 3.73-1.108 8.302.252 13.597 1.828 2.596.773 5.279 1.571 8.091 2.131 9.51 1.895 18.855.513 26.313-3.89 3.422-2.02 6.355-4.696 8.667-7.767h24.647v51.382c-25.035-7.928-50.193-16.332-74.9-25.029-3.667-1.292-7.822-2.755-10.087-5.186zm106.857 278.63c-3.789 0-6.871-3.082-6.871-6.871v-78.142c.101-.053.204-.108.305-.161 4.213-2.197 8.654-4.389 12.948-6.509.163-.081.326-.161.489-.242v85.054c0 3.789-3.082 6.871-6.871 6.871zm40.905-89.948c10.288 10.58 15.844 23.251 15.242 34.763-.359 6.892-3.358 13.459-7.77 18.177 1.55-9.501 1.576-20.066-2.563-29.988-4.101-9.833-11.946-18.362-23.943-26.055v-6.465c1.525-.808 3.041-1.63 4.547-2.466 5.821 4.05 10.497 7.932 14.487 12.034zm12.866-104.121c6.722 10.822 8.272 25.266 4.15 38.638-1.149 3.726-2.711 7.274-4.641 10.547-11.094 18.8-32.671 29.451-53.537 39.751-4.368 2.156-8.884 4.385-13.245 6.659-12.983 6.771-27.105 15.74-33.397 30.928-4.033 9.735-3.967 20.016-2.291 30.243-4.173-4.518-7.036-10.671-7.627-17.281-1.001-11.198 3.766-23.606 13.079-34.043 9.092-10.188 21.248-17.622 33.031-24.138 2.535-1.402 5.088-2.782 7.641-4.162 10.324-5.581 21-11.35 30.723-18.721 5.555-4.211 12.44-10.137 16.41-18.643 6.458-13.839 2.768-31.287-8.775-41.484-3.767-3.328-8.096-5.716-12.394-7.59l16.507-5.44c6.19 4.333 10.9 9.156 14.366 14.736zm-31.9 6.996c1.246.765 2.424 1.597 3.488 2.538 6.459 5.707 8.705 16.205 5.113 23.901-1.627 3.487-4.338 6.785-8.602 10.409v-36.848zm-21.867-8.748c.47.287.975.532 1.52.715 1.783.6 3.566 1.201 5.348 1.804v53.578c-4.429 2.688-9.017 5.235-13.742 7.799v-61.63c.233-.077.467-.154.698-.23zm-21.875 47.535c-2.704-1.818-5.189-3.798-7.107-6.114-6.421-7.75-5.982-20.958.938-28.266 1.75-1.848 3.859-3.396 6.17-4.737v39.117zm157.017-142.721c2.634 13.383-3.147 28.447-14.059 36.632-6.794 5.097-15.549 7.982-24.017 10.772l-107.939 35.57c-8.944 2.948-20.076 6.616-28.064 15.051-12.203 12.885-12.919 34.485-1.598 48.149 5.249 6.338 12.165 10.342 18.267 13.875.128.074.261.135.392.201v7.054c-2.399 1.365-4.801 2.778-7.19 4.251-1.727-1.033-3.351-2.058-4.922-3.108-16.968-11.333-26.102-24.881-27.15-40.269-1.241-18.251 4.891-33.755 17.266-43.657 9.198-7.36 21.151-11.315 32.711-15.139l110.839-36.671c4.309-1.426 9.672-3.201 14.161-6.908 7.279-6.012 10.567-16.078 8.182-25.047-2.5-9.404-10.921-16.487-20.478-17.226-5.845-.452-10.971 1.385-15.492 3.004-1.253.449-2.436.873-3.583 1.231-6.938 2.165-13.628 2.023-18.839-.401-5.182-2.412-8.87-7.668-8.771-12.497.119-5.757 6.133-12.832 15.643-14.221 5.209-.761 10.707.057 15.473 2.305 1.2.566 2.436 1.256 3.745 1.987 2.117 1.182 4.518 2.522 7.191 3.538 2.747 1.043 5.509 1.639 7.945 2.164 1.196.258 2.326.502 3.398.781 6.042 1.576 11.724 4.867 16.431 9.518 5.37 5.309 9.084 12.077 10.458 19.061z"
       id="path2"
       style="fill:#22417d;fill-opacity:1" />
  </g>
  <path
     style="fill:#bddbff;fill-rule:evenodd;stroke:none;stroke-width:1.09761;stroke-miterlimit:2"
     d="m 216.81808,370.28855 c -14.09634,-10.7611 -21.76168,-25.1118 -21.76168,-40.74119 0,-21.09311 10.38379,-37.12032 29.95892,-46.24112 4.97495,-2.31801 37.22735,-13.47839 71.67198,-24.80084 34.44464,-11.32245 64.9107,-21.72601 67.70238,-23.11904 9.79272,-4.8865 14.63694,-13.32369 13.9394,-24.27829 -0.53884,-8.46245 -4.60019,-14.92627 -11.92232,-18.97494 -6.29635,-3.48147 -13.37229,-3.50172 -23.57354,-0.0675 -9.05048,3.04685 -18.28358,3.35512 -23.25062,0.77629 -11.77596,-6.11395 -10.45012,-19.53148 2.4155,-24.4449 6.88339,-2.62879 14.77205,-1.61302 24.24216,3.12152 4.16905,2.08429 10.2994,4.42021 13.62301,5.19093 13.30345,3.08498 23.23057,10.71839 28.36797,21.8134 2.31427,4.99802 2.86516,7.81308 2.83113,14.46731 -0.0753,14.72835 -7.57771,26.46907 -21.30109,33.33459 -4.10596,2.05413 -35.57667,12.98603 -69.93492,24.2931 -34.35824,11.30707 -65.47028,21.97942 -69.13787,23.71633 -9.09303,4.30632 -15.85852,10.55573 -19.73647,18.23096 -2.8797,5.69951 -3.24911,7.5517 -3.25443,16.3177 -0.005,8.61348 0.3907,10.69624 3.0708,16.15394 3.24207,6.6021 11.0378,14.47891 18.4565,18.64845 3.62218,2.03578 4.28644,2.96769 4.28644,6.01363 0,2.4392 -0.68706,3.97222 -2.12519,4.74189 -4.07276,2.17967 -7.58498,1.1786 -14.56806,-4.15226 z"
     id="path860" />
  <path
     style="fill:#bddbff;fill-rule:evenodd;stroke:#360000;stroke-width:0.137202;stroke-miterlimit:2"
     d="m 304.68626,458.06632 c 0.44981,-3.28173 0.55713,-5.05311 0.56103,-9.26018 0.005,-4.91024 -0.13603,-6.53678 -0.89622,-10.36909 -2.59809,-13.0977 -10.60092,-23.90681 -24.67496,-33.32755 l -1.81974,-1.21808 0.004,-3.19071 0.004,-3.1907 2.11825,-1.13305 c 1.16504,-0.62318 2.22404,-1.13305 2.35333,-1.13305 0.37507,0 4.86632,3.29961 7.74272,5.6884 12.45315,10.34203 19.71671,21.83904 21.65564,34.27727 0.37477,2.40413 0.33689,7.58374 -0.0718,9.8122 -0.82653,4.50737 -2.63595,8.73348 -5.29781,12.37365 -0.83038,1.13557 -1.00132,1.29913 -1.35773,1.29913 -0.40522,0 -0.40721,-0.004 -0.32163,-0.62824 z"
     id="path864" />
  <path
     style="fill:#bddbff;fill-opacity:1;fill-rule:evenodd;stroke:#bddbff;stroke-width:0.194033;stroke-miterlimit:2;stroke-opacity:1"
     d="m 215.08586,179.71377 c -0.30432,-6.5743 -2.86028,-12.27637 -7.80173,-17.40477 -5.39991,-5.60422 -12.64088,-9.31124 -20.36163,-10.42414 -7.76123,-1.11874 -16.3728,-0.0977 -26.02207,3.08535 -2.59304,0.85538 -2.69274,0.87265 -3.38027,0.58538 -1.16259,-0.48576 -6.41621,-1.76725 -8.70912,-2.12436 -1.79642,-0.2798 -4.39338,-0.35539 -16.31505,-0.47495 -15.44724,-0.15491 -15.30448,-0.14494 -19.47219,-1.36017 -5.11559,-1.49162 -9.20586,-3.90428 -13.643469,-8.04765 -4.838615,-4.51778 -8.321806,-7.00236 -13.110306,-9.35165 -4.586447,-2.25016 -9.840347,-3.82111 -15.2468,-4.55887 -0.90801,-0.12391 -5.758823,-0.2928 -10.779585,-0.3753 -8.266174,-0.13584 -9.308272,-0.18928 -11.029733,-0.5657 -5.073883,-1.10946 -9.236193,-2.96737 -13.238642,-5.90928 -0.882536,-0.64868 -4.377169,-3.94899 -8.021823,-7.57576 -5.67531,-5.64746 -6.45804,-6.49841 -6.45804,-7.02092 0,-0.32702 0.136059,-0.78883 0.302354,-1.02624 l 0.302353,-0.43167 6.738367,-0.004 c 32.385145,-0.0216 56.83378,-1.95464 84.623294,-6.69064 14.03024,-2.391086 23.74566,-4.553801 44.86638,-9.987537 5.84613,-1.504036 10.79836,-2.241345 17.04994,-2.53847 9.09847,-0.432432 18.32265,0.654642 27.14648,3.199222 10.33017,2.978974 19.26049,7.490504 28.11484,14.203395 1.35633,1.02829 2.6627,1.95956 2.90305,2.06948 l 0.43701,0.19985 v 37.45459 37.45459 h -9.39173 -9.39175 z"
     id="path844" />
</svg>
