<?xml version="1.0" encoding="UTF-8" standalone="no"?>
<svg
   xmlns:dc="http://purl.org/dc/elements/1.1/"
   xmlns:cc="http://creativecommons.org/ns#"
   xmlns:rdf="http://www.w3.org/1999/02/22-rdf-syntax-ns#"
   xmlns:svg="http://www.w3.org/2000/svg"
   xmlns="http://www.w3.org/2000/svg"
   xmlns:sodipodi="http://sodipodi.sourceforge.net/DTD/sodipodi-0.dtd"
   xmlns:inkscape="http://www.inkscape.org/namespaces/inkscape"
   id="Layer_5"
   enable-background="new 0 0 64 64"
   height="512"
   viewBox="0 0 64 64"
   width="512"
   version="1.1"
   sodipodi:docname="it-compliance.svg"
   inkscape:version="1.0.1 (0767f8302a, 2020-10-17)">
  <metadata
     id="metadata35">
    <rdf:RDF>
      <cc:Work
         rdf:about="">
        <dc:format>image/svg+xml</dc:format>
        <dc:type
           rdf:resource="http://purl.org/dc/dcmitype/StillImage" />
      </cc:Work>
    </rdf:RDF>
  </metadata>
  <defs
     id="defs33" />
  <sodipodi:namedview
     pagecolor="#ffffff"
     bordercolor="#666666"
     borderopacity="1"
     objecttolerance="10"
     gridtolerance="10"
     guidetolerance="10"
     inkscape:pageopacity="0"
     inkscape:pageshadow="2"
     inkscape:window-width="3368"
     inkscape:window-height="1376"
     id="namedview31"
     showgrid="false"
     inkscape:zoom="1.8203125"
     inkscape:cx="256"
     inkscape:cy="256"
     inkscape:window-x="1992"
     inkscape:window-y="27"
     inkscape:window-maximized="1"
     inkscape:current-layer="Layer_5" />
  <g
     id="g28">
    <path
       d="m42 21h-36c-2.757 0-5 2.243-5 5v22c0 2.757 2.243 5 5 5h11v2.496l-2.98.298c-1.722.171-3.02 1.604-3.02 3.335v3.871h26v-3.86c0-1.736-1.302-3.171-3.029-3.337-1.488-.143-2.403-.235-2.971-.294v-2.509h11c2.757 0 5-2.243 5-5v-22c0-2.757-2.243-5-5-5zm-7 38.14v1.86h-22v-1.871c0-.698.523-1.276 1.218-1.345l3.181-.318c.516.911 1.482 1.534 2.601 1.534h8c1.115 0 2.078-.618 2.595-1.523.666.071 1.726.176 3.184.316.696.067 1.221.646 1.221 1.347zm-6-3.14c0 .552-.449 1-1 1h-8c-.551 0-1-.448-1-1v-3h10zm12-5h-2v-2h2zm4-3c0 1.302-.839 2.402-2 2.816v-3.816h-6v4h-13-18c-1.654 0-3-1.346-3-3v-22c0-1.654 1.346-3 3-3h36c1.654 0 3 1.346 3 3z"
       id="path2"
       style="fill:#22417d;fill-opacity:1" />
    <path
       d="m43 43v-16c0-1.103-.897-2-2-2h-34c-1.103 0-2 .897-2 2v16c0 1.103.897 2 2 2h17 17c1.103 0 2-.897 2-2zm-36 0v-16h34l.001 16z"
       id="path4"
       style="fill:#22417d;fill-opacity:1" />
    <path
       d="m27 48c0-1.654-1.346-3-3-3s-3 1.346-3 3 1.346 3 3 3 3-1.346 3-3zm-3 1c-.551 0-1-.448-1-1s.449-1 1-1 1 .448 1 1-.449 1-1 1z"
       id="path6"
       style="fill:#22417d;fill-opacity:1" />
    <path
       d="m5.726 14.454 3.82 3.82 1.273-.596.48 1.322h5.401l.48-1.321 1.273.596 3.82-3.82-.595-1.273 1.322-.481v-5.402l-1.321-.479.595-1.273-3.82-3.82-1.273.596-.48-1.323h-5.401l-.48 1.321-1.274-.595-3.82 3.82.595 1.273-1.321.48v5.402l1.321.479zm1.274-5.753.823-.3.447-.212.423-1.019-.562-1.2 1.837-1.838 1.2.56 1.08-.445.453-1.247h2.599l.299.823.203.442 1.031.426 1.2-.56 1.837 1.838-.562 1.201.447 1.077 1.245.454v2.598l-.823.3-.447.212-.423 1.019.562 1.201-1.837 1.838-1.198-.56-1.081.445-.454 1.246h-2.599l-.299-.823-.204-.443-1.031-.425-1.198.56-1.837-1.839.562-1.201-.447-1.077-1.246-.453z"
       id="path8"
       style="fill:#22417d;fill-opacity:1" />
    <path
       d="m14 15c2.757 0 5-2.243 5-5s-2.243-5-5-5-5 2.243-5 5 2.243 5 5 5zm0-8c1.654 0 3 1.346 3 3s-1.346 3-3 3-3-1.346-3-3 1.346-3 3-3z"
       id="path10"
       style="fill:#22417d;fill-opacity:1" />
    <path
       d="m30.707 13.293-2.293-2.293h26.586v4h2v-6h-28.586l2.293-2.293-1.414-1.414-4.707 4.707 4.707 4.707z"
       id="path12"
       style="fill:#22417d;fill-opacity:1" />
    <path
       d="m51.293 35.293 1.414 1.414 2.293-2.293v8.586h-6v2h8v-10.586l2.293 2.293 1.414-1.414-4.707-4.707z"
       id="path14"
       style="fill:#22417d;fill-opacity:1" />
    <path
       d="m57 17v2h-4v2h-4v8h14v-12zm-6 6h2v4h-2zm4-2h2v6h-2zm6 6h-2v-8h2z"
       id="path16"
       style="fill:#22417d;fill-opacity:1" />
    <path
       d="m9 41h12v-12h-12zm2-10h8v8h-8z"
       id="path18"
       style="fill:#22417d;fill-opacity:1" />
    <path
       d="m23 29h16v2h-16z"
       id="path20"
       style="fill:#22417d;fill-opacity:1" />
    <path
       d="m23 37h16v2h-16z"
       id="path22"
       style="fill:#22417d;fill-opacity:1" />
    <path
       d="m23 33h2v2h-2z"
       id="path24"
       style="fill:#22417d;fill-opacity:1" />
    <path
       d="m27 33h12v2h-12z"
       id="path26"
       style="fill:#22417d;fill-opacity:1" />
  </g>
  <path
     style="fill:#bddbff;fill-rule:evenodd;stroke-width:0.548807;stroke-miterlimit:2"
     d="M 88.171674,279.897 V 248.30901 H 120.03433 151.897 V 279.897 311.48498 H 120.03433 88.171674 Z"
     id="path860"
     transform="scale(0.125)" />
  <path
     style="fill:#bddbff;fill-rule:evenodd;stroke-width:0.548807;stroke-miterlimit:2;fill-opacity:1"
     d="m 101.45429,134.74164 c -0.27655,-0.53537 -0.81602,-1.96224 -1.19882,-3.17082 -1.600357,-5.05268 -2.414855,-6.01459 -6.425099,-7.58796 -2.069736,-0.81203 -4.071475,-1.47642 -4.448311,-1.47642 -0.376835,0 -2.320787,0.74163 -4.319892,1.64807 -1.999106,0.90643 -4.160632,1.64807 -4.803392,1.64807 -1.534204,0 -14.060802,-12.48574 -14.062709,-14.01684 -7.69e-4,-0.59975 0.782643,-2.8761 1.740866,-5.05854 1.923609,-4.38121 1.876709,-4.98343 -0.824382,-10.585351 -1.126314,-2.335917 -1.438979,-2.55839 -5.859332,-4.169163 L 56.583691,90.27111 V 79.934758 69.598409 l 2.753203,-0.935843 c 5.953128,-2.023531 7.049615,-2.886736 8.665736,-6.822068 0.820012,-1.996772 1.490932,-3.962221 1.490932,-4.367666 0,-0.405444 -0.741631,-2.372804 -1.648068,-4.371909 -0.906438,-1.999106 -1.648069,-4.192676 -1.648069,-4.874601 0,-1.633385 12.399491,-14.166236 14.015494,-14.166236 0.61754,0 2.897225,0.850371 5.065967,1.889713 l 3.94317,1.889713 4.505689,-1.817648 4.505689,-1.817649 1.757508,-4.878931 1.757508,-4.878932 10.19771,-0.149299 10.19771,-0.149299 1.15462,3.170758 c 2.36269,6.488266 2.71185,7.027714 5.14955,7.956154 1.2643,0.481534 3.19279,1.260015 4.28552,1.729957 1.93818,0.833541 2.08372,0.807979 5.95034,-1.045048 2.17996,-1.044719 4.50336,-1.899489 5.1631,-1.899489 0.80371,0 3.4568,2.262696 8.04017,6.857104 l 6.84064,6.857105 -1.56639,3.168646 c -3.2157,6.505025 -3.15986,5.979461 -1.14925,10.817443 1.98147,4.767831 1.22724,4.183782 9.21865,7.138595 l 2.62138,0.969252 -0.14928,10.16345 -0.14927,10.163448 -4.59427,1.824598 c -2.52685,1.003531 -4.80271,2.033041 -5.05746,2.2878 -0.25476,0.254758 -1.20286,2.256893 -2.1069,4.449192 l -1.64369,3.985991 2.25714,4.704 2.25714,4.70401 -6.80954,6.82592 c -4.74873,4.76017 -7.18976,6.82594 -8.0659,6.82594 -0.69099,0 -2.89199,-0.74164 -4.89109,-1.64807 -1.99911,-0.90644 -3.90956,-1.6494 -4.24545,-1.65103 -0.33589,-0.002 -2.47218,0.74586 -4.74731,1.66109 l -4.13661,1.66403 -1.69471,4.79385 -1.69472,4.79386 -10.21158,0.14936 c -9.30672,0.13613 -10.25615,0.0631 -10.71441,-0.82403 z m 21.6015,-16.10366 c 13.90534,-4.2865 24.20403,-14.81615 27.83468,-28.458898 1.43188,-5.380527 1.55201,-14.187555 0.2658,-19.487404 -3.52692,-14.532789 -15.29402,-26.330911 -29.74854,-29.82698 -5.653,-1.36727 -14.248,-1.245418 -19.74574,0.279937 -12.387441,3.436908 -22.504115,12.486549 -27.085543,24.228756 -4.470017,11.456663 -3.459608,24.548213 2.706555,35.067939 2.347543,4.005 10.270666,11.92812 14.27567,14.27567 3.596389,2.10803 9.456618,4.2498 13.709398,5.01045 4.56701,0.81686 13.34837,0.27901 17.78772,-1.08947 z"
     id="path862"
     transform="scale(0.125)" />
  <path
     style="fill:#bddbff;fill-rule:evenodd;stroke-width:0.548807;stroke-miterlimit:2"
     d="m 408.44635,199.96567 v -15.93134 h 7.69099 7.69099 v 15.93134 15.93133 h -7.69099 -7.69099 z"
     id="path864"
     transform="scale(0.125)" />
  <path
     style="fill:#bddbff;fill-rule:evenodd;stroke-width:0.548807;stroke-miterlimit:2"
     d="M 440.30901,192 V 168.103 H 448 455.69099 V 192 215.897 H 448 440.30901 Z"
     id="path866"
     transform="scale(0.125)" />
  <path
     style="fill:#bddbff;fill-rule:evenodd;stroke-width:0.548807;stroke-miterlimit:2"
     d="m 472.17167,184.03433 v -31.86266 h 7.69099 7.69099 v 31.86266 31.86267 h -7.69099 -7.69099 z"
     id="path868"
     transform="scale(0.125)" />
  <path
     style="fill:#bddbff;fill-rule:evenodd;stroke-width:0.548807;stroke-miterlimit:2"
     d="m 188.28682,390.59524 c -5.18269,-3.15992 -5.18269,-10.03056 0,-13.19048 3.49348,-2.13 8.02499,-0.86306 10.30842,2.88206 3.91531,6.42163 -3.88679,14.22373 -10.30842,10.30842 z"
     id="path870"
     transform="scale(0.125)" />
  <path
     style="fill:#bddbff;fill-rule:evenodd;stroke-width:0.548807;stroke-miterlimit:2"
     d="m 312.30901,399.93133 v -7.69099 H 320 h 7.69099 v 7.69099 7.69099 H 320 312.30901 Z"
     id="path874"
     transform="scale(0.125)" />
</svg>
