<?xml version="1.0" encoding="UTF-8" standalone="no"?>
<svg
   xmlns:dc="http://purl.org/dc/elements/1.1/"
   xmlns:cc="http://creativecommons.org/ns#"
   xmlns:rdf="http://www.w3.org/1999/02/22-rdf-syntax-ns#"
   xmlns:svg="http://www.w3.org/2000/svg"
   xmlns="http://www.w3.org/2000/svg"
   xmlns:sodipodi="http://sodipodi.sourceforge.net/DTD/sodipodi-0.dtd"
   xmlns:inkscape="http://www.inkscape.org/namespaces/inkscape"
   height="399pt"
   viewBox="0 -23 399.99965 399"
   width="399pt"
   version="1.1"
   id="svg18"
   sodipodi:docname="rush.svg"
   inkscape:version="1.0.1 (0767f8302a, 2020-10-17)">
  <metadata
     id="metadata24">
    <rdf:RDF>
      <cc:Work
         rdf:about="">
        <dc:format>image/svg+xml</dc:format>
        <dc:type
           rdf:resource="http://purl.org/dc/dcmitype/StillImage" />
      </cc:Work>
    </rdf:RDF>
  </metadata>
  <defs
     id="defs22" />
  <sodipodi:namedview
     pagecolor="#ffffff"
     bordercolor="#666666"
     borderopacity="1"
     objecttolerance="10"
     gridtolerance="10"
     guidetolerance="10"
     inkscape:pageopacity="0"
     inkscape:pageshadow="2"
     inkscape:window-width="3368"
     inkscape:window-height="1376"
     id="namedview20"
     showgrid="false"
     inkscape:zoom="1.7518797"
     inkscape:cx="266"
     inkscape:cy="266"
     inkscape:window-x="1992"
     inkscape:window-y="27"
     inkscape:window-maximized="1"
     inkscape:current-layer="svg18" />
  <path
     d="m344.3125 95.003906 10.230469-16.902344 13.679687 8.292969c3.777344 2.289063 8.691406 1.085938 10.984375-2.6875l16.601563-27.367187c2.285156-3.777344 1.078125-8.695313-2.695313-10.984375l-41.050781-24.855469c-1.808594-1.113281-3.992188-1.445312-6.054688-.929688-2.054687.507813-3.828124 1.808594-4.929687 3.617188l-16.589844 27.367188c-2.289062 3.777343-1.085937 8.691406 2.6875 10.984374l13.6875 8.296876-9.726562 16.046874c-20.277344-12.484374-43.359375-19.695312-67.136719-20.976562v-16.40625h8c13.253906 0 24-10.746094 24-24s-10.746094-24-24-24h-32c-13.253906 0-24 10.746094-24 24s10.746094 24 24 24h8v16.40625c-69.59375 3.820312-126.480469 56.898438-135.101562 126.0625-8.621094 69.164062 33.492187 134.582031 100.015624 155.371094 66.527344 20.789062 138.394532-9.015625 170.6875-70.78125 32.289063-61.765625 15.746094-137.789063-39.289062-180.554688zm33.664062-40.082031-8.296874 13.691406-27.359376-16.59375 8.289063-13.6875zm-145.976562-30.421875c0-4.417969 3.582031-8 8-8h32c4.417969 0 8 3.582031 8 8s-3.582031 8-8 8h-32c-4.417969 0-8-3.582031-8-8zm24 312c-70.691406 0-128-57.308594-128-128s57.308594-128 128-128 128 57.308594 128 128c-.082031 70.65625-57.34375 127.917969-128 128zm0 0"
     id="path2"
     style="fill:#22417d;fill-opacity:1" />
  <path
     d="m256 96.5c-61.855469 0-112 50.144531-112 112s50.144531 112 112 112 112-50.144531 112-112c-.066406-61.828125-50.171875-111.933594-112-112zm-61.929688 185.238281 5.363282-5.359375c2.078125-2.007812 2.910156-4.980468 2.179687-7.777344-.730469-2.800781-2.917969-4.984374-5.714843-5.714843-2.796876-.734375-5.769532.101562-7.777344 2.179687l-5.359375 5.363282c-12.898438-15.207032-20.710938-34.0625-22.355469-53.929688h23.59375c4.417969 0 8-3.582031 8-8s-3.582031-8-8-8h-23.59375c1.644531-19.867188 9.457031-38.726562 22.355469-53.929688l5.359375 5.363282c2.007812 2.078125 4.980468 2.910156 7.777344 2.179687 2.796874-.730469 4.984374-2.917969 5.714843-5.714843.730469-2.796876-.101562-5.769532-2.179687-7.777344l-5.363282-5.359375c15.203126-12.898438 34.0625-20.710938 53.929688-22.355469v23.59375c0 4.417969 3.582031 8 8 8s8-3.582031 8-8v-23.59375c19.867188 1.644531 38.726562 9.457031 53.929688 22.355469l-5.363282 5.359375c-2.078125 2.007812-2.910156 4.980468-2.179687 7.777344.730469 2.796874 2.917969 4.984374 5.714843 5.714843 2.796876.730469 5.769532-.101562 7.777344-2.179687l5.359375-5.363282c12.898438 15.203126 20.710938 34.0625 22.355469 53.929688h-23.59375c-4.417969 0-8 3.582031-8 8s3.582031 8 8 8h23.59375c-1.644531 19.867188-9.457031 38.722656-22.355469 53.929688l-5.359375-5.363282c-3.136718-3.03125-8.128906-2.988281-11.214844.097656-3.085937 3.085938-3.128906 8.078126-.097656 11.214844l5.363282 5.359375c-15.203126 12.898438-34.0625 20.710938-53.929688 22.355469v-23.59375c0-4.417969-3.582031-8-8-8s-8 3.582031-8 8v23.59375c-19.867188-1.644531-38.726562-9.457031-53.929688-22.355469zm0 0"
     id="path4"
     style="fill:#22417d;fill-opacity:1" />
  <path
     d="m88 208.5c0-4.417969-3.582031-8-8-8h-72c-4.417969 0-8 3.582031-8 8s3.582031 8 8 8h72c4.417969 0 8-3.582031 8-8zm0 0"
     id="path6"
     style="fill:#22417d;fill-opacity:1" />
  <path
     d="m56 136.5h48c4.417969 0 8-3.582031 8-8s-3.582031-8-8-8h-48c-4.417969 0-8 3.582031-8 8s3.582031 8 8 8zm0 0"
     id="path8"
     style="fill:#22417d;fill-opacity:1" />
  <path
     d="m104 280.5h-48c-4.417969 0-8 3.582031-8 8s3.582031 8 8 8h48c4.417969 0 8-3.582031 8-8s-3.582031-8-8-8zm0 0"
     id="path10"
     style="fill:#22417d;fill-opacity:1" />
  <path
     d="m32 176.5h56c4.417969 0 8-3.582031 8-8s-3.582031-8-8-8h-56c-4.417969 0-8 3.582031-8 8s3.582031 8 8 8zm0 0"
     id="path12"
     style="fill:#22417d;fill-opacity:1" />
  <path
     d="m96 248.5c0-4.417969-3.582031-8-8-8h-56c-4.417969 0-8 3.582031-8 8s3.582031 8 8 8h56c4.417969 0 8-3.582031 8-8zm0 0"
     id="path14"
     style="fill:#22417d;fill-opacity:1" />
  <path
     d="m264 208.5v-32c0-4.417969-3.582031-8-8-8s-8 3.582031-8 8v24h-8c-4.417969 0-8 3.582031-8 8s3.582031 8 8 8h16c4.417969 0 8-3.582031 8-8zm0 0"
     id="path16"
     style="fill:#22417d;fill-opacity:1" />
  <path
     style="fill:#bddbff;fill-rule:evenodd;stroke-width:0.570245;stroke-miterlimit:2"
     d="m 322.79614,434.62478 c -20.9808,-3.0362 -41.20815,-11.32823 -57.92605,-23.74628 -6.06031,-4.5016 -6.18271,-5.20253 -1.67887,-9.61474 1.75163,-1.71599 3.67814,-4.073 4.28112,-5.2378 1.28161,-2.47573 1.42582,-6.54873 0.32513,-9.18304 -1.41614,-3.38931 -6.37391,-6.67347 -10.07429,-6.67347 -2.90598,0 -5.63664,1.50143 -9.44272,5.19198 -2.23183,2.16409 -4.56353,3.93471 -5.18156,3.93471 -2.15357,0 -10.9033,-12.86899 -16.72525,-24.59931 -6.07258,-12.23528 -10.96365,-28.64425 -12.36187,-41.47258 l -0.38885,-3.5676 15.91386,-0.003 c 9.45747,-0.002 16.79869,-0.24889 18.09481,-0.6088 2.83244,-0.78653 6.42429,-4.05915 7.27104,-6.62483 1.10261,-3.34095 0.4284,-7.84594 -1.54468,-10.32138 -3.39028,-4.25347 -4.09905,-4.39547 -22.96052,-4.60008 l -16.76565,-0.18163 0.38442,-3.52843 c 2.29897,-21.10146 12.59669,-46.46614 25.35998,-62.46512 3.25094,-4.0751 4.52242,-4.04462 8.66262,0.20769 4.76114,4.89006 8.60932,6.26037 13.16678,4.68858 4.60775,-1.58913 7.36308,-5.47315 7.36308,-10.37927 0,-3.51145 -1.43056,-6.18564 -5.37745,-10.05222 -4.27537,-4.18839 -4.22788,-5.19446 0.40887,-8.66018 18.90314,-14.12909 38.59276,-21.90992 63.90527,-25.2537 l 2.14056,-0.28277 v 16.76601 c 0,10.45815 0.22842,17.37057 0.60713,18.37291 1.38549,3.66699 6.26393,7.00457 10.23837,7.00457 2.44749,0 6.13159,-1.63681 7.82146,-3.47501 2.8406,-3.08992 3.02403,-4.43238 3.02403,-22.13239 v -16.53609 l 2.14056,0.28277 c 17.4713,2.30796 29.84736,5.94465 43.81008,12.87355 6.48416,3.21771 18.76055,11.02868 23.11803,14.70906 l 1.99785,1.68742 -4.07921,4.16732 c -4.80686,4.91069 -5.91006,6.87498 -5.91006,10.52314 0,7.41795 6.52415,12.41539 13.68942,10.48598 1.81344,-0.48831 3.56299,-1.69206 6.30069,-4.33509 5.842,-5.63996 6.30594,-5.41971 14.53658,6.90103 10.12436,15.15549 18.05378,36.92771 19.99305,54.89591 l 0.38017,3.52253 -17.03257,0.18777 c -14.56716,0.1606 -17.28044,0.32499 -18.74502,1.13574 -2.26291,1.25269 -4.63362,3.80379 -5.38643,5.79628 -0.83894,2.22044 -0.75989,6.34098 0.16406,8.55232 1.01937,2.43969 4.37897,5.32963 7.06192,6.07469 1.26562,0.35147 8.72156,0.60009 18.05234,0.60196 l 15.89617,0.003 -0.38541,3.5676 c -1.33075,12.31836 -5.91824,28.13221 -11.60104,39.9908 -5.70448,11.9036 -15.22637,26.08085 -17.51688,26.08085 -0.68675,0 -2.50035,-1.34125 -4.30637,-3.18479 -3.86659,-3.94688 -6.54077,-5.37744 -10.05222,-5.37744 -5.64821,0 -10.08195,3.80355 -10.83458,9.29462 -0.55453,4.04573 0.79136,6.87326 5.49195,11.53783 2.19892,2.18207 3.99804,4.14891 3.99804,4.37076 0,0.74025 -10.66188,8.42866 -16.64233,12.001 -15.56361,9.29667 -30.60108,14.31816 -51.71282,17.26853 l -2.42597,0.33903 -0.0126,-16.7031 c -0.0139,-18.58034 -0.20935,-19.71901 -3.91967,-22.84104 -1.69525,-1.42646 -4.96062,-2.70333 -6.91329,-2.70333 -3.70599,0 -7.89118,2.71947 -9.72889,6.32167 -1.03364,2.02614 -1.11658,3.44118 -1.11658,19.05051 0,13.14161 -0.15742,16.84826 -0.71352,16.80046 -0.39243,-0.0337 -3.15375,-0.41446 -6.13626,-0.84607 z m 22.62192,-116.23311 c 2.40356,-1.31434 4.61258,-4.03564 5.36526,-6.60946 0.41341,-1.41369 0.56039,-9.9826 0.44331,-25.84627 l -0.17513,-23.73144 -1.37556,-2.00673 c -2.38819,-3.48398 -4.84723,-4.75786 -9.18439,-4.75786 -4.74061,0 -7.79472,1.76413 -9.63484,5.56531 -1.15009,2.37575 -1.21079,3.34669 -1.21079,19.36703 v 16.86589 l -6.70901,0.27631 c -7.22452,0.29754 -8.98748,0.85415 -11.66347,3.68244 -1.96103,2.07264 -2.74769,4.18678 -2.74769,7.38436 0,4.71528 2.74606,8.62223 7.21354,10.26306 3.43691,1.26232 27.2055,0.89981 29.67877,-0.45264 z"
     id="path849"
     transform="matrix(0.75187904,0,0,0.75187904,0,-23.499825)" />
  <path
     style="fill:#bddbff;fill-rule:evenodd;stroke-width:0.570245;stroke-miterlimit:2"
     d="m 315.37961,73.296709 c -4.23314,-1.835726 -6.28304,-4.91222 -6.28304,-9.429586 0,-3.802056 1.89633,-7.178706 5.01638,-8.932271 2.25557,-1.267703 2.47243,-1.2782 26.40603,-1.2782 h 24.13179 l 2.33955,1.371066 c 2.98185,1.747483 4.89595,5.076877 4.89595,8.51606 0,4.692129 -1.8683,7.679433 -5.99357,9.583365 -2.10201,0.970144 -4.11834,1.053014 -25.40128,1.043986 -19.37549,-0.0082 -23.4408,-0.149777 -25.11181,-0.87442 z"
     id="path851"
     transform="matrix(0.75187904,0,0,0.75187904,0,-23.499825)" />
  <path
     style="fill:#bddbff;fill-rule:evenodd;stroke-width:0.570245;stroke-miterlimit:2"
     d="m 473.49142,111.13878 c -13.97792,-8.48228 -16.29277,-10.08005 -16.44246,-11.349014 -0.12173,-1.03185 1.14627,-3.646933 4.20795,-8.678389 3.73609,-6.139749 4.59307,-7.201506 5.81258,-7.201506 1.38243,0 34.94927,19.829549 34.9584,20.651609 0.002,0.21321 -2.20393,4.002 -4.90288,8.41952 -3.86431,6.32496 -5.16838,8.03167 -6.13626,8.03089 -0.676,-5.4e-4 -8.5498,-4.44344 -17.49733,-9.87311 z"
     id="path853"
     transform="matrix(0.75187904,0,0,0.75187904,0,-23.499825)" />
</svg>
