<svg xmlns="http://www.w3.org/2000/svg" xmlns:xlink="http://www.w3.org/1999/xlink" height="681.333" viewBox="-27 1 511 511.999" width="681.333" xmlns:v="https://vecta.io/nano"><use xlink:href="#B" fill="#f2d1a5"/><path d="M167.164 501.785V475.32a66.44 66.44 0 0 1 10.586-35.98 32.93 32.93 0 0 1 27.672-15.086h45.488c11.188 0 21.609 5.68 27.668 15.086a66.41 66.41 0 0 1 10.59 35.98v26.465zm0 0" fill="#b6baf2"/><path d="M386.789 424.285c-13.547 0-24.527-10.98-24.527-24.527v-18.484c0-13.547 10.98-24.527 24.527-24.527a24.53 24.53 0 0 1 24.523 24.527v18.484a24.53 24.53 0 0 1-24.523 24.527zm0 0" fill="#f2d1a5"/><path d="M325.48 501.785V475.32a66.41 66.41 0 0 1 10.59-35.98c6.059-9.402 16.48-15.086 27.668-15.086h45.488c11.188 0 21.609 5.68 27.668 15.086a66.41 66.41 0 0 1 10.59 35.98v26.465zm0 0" fill="#b6baf2"/><use xlink:href="#B" x="-156.379" fill="#f2d1a5"/><path d="M10.781 501.785V475.32a66.41 66.41 0 0 1 10.59-35.98 32.92 32.92 0 0 1 27.672-15.086h45.484a32.92 32.92 0 0 1 27.672 15.086 66.44 66.44 0 0 1 10.586 35.98v26.465zm0 0" fill="#b6baf2"/><path d="M191.246 169.922l-14.379 48.184h106.926l-13.379-48.582" fill="#e3e3e3"/><path d="M176.867 218.105h106.926v37.098H176.867zm0 0" fill="#5e6e82"/><path d="M315.055 94.945c0 46.719-37.875 84.594-84.594 84.594s-84.598-37.875-84.598-84.594 37.875-84.594 84.598-84.594 84.594 37.871 84.594 84.594zm0 0" fill="#fff68e"/><path d="M259.805 414.836a34.6 34.6 0 0 0 3.473-15.145v-18.484c0-19.195-15.613-34.809-34.809-34.809s-34.809 15.613-34.809 34.809v18.484a34.59 34.59 0 0 0 3.414 15.023c-11.414 2.23-21.512 8.977-27.965 18.988-8 12.414-12.227 26.785-12.227 41.551v26.465c0 5.676 4.602 10.281 10.281 10.281h122.004c5.676 0 10.281-4.605 10.281-10.281v-26.465a76.53 76.53 0 0 0-12.23-41.551 42.99 42.99 0 0 0-27.414-18.867zm-45.578-33.629c0-7.855 6.391-14.246 14.242-14.246a14.27 14.27 0 0 1 14.246 14.246v18.484c0 7.648-6.062 13.891-13.633 14.215h-1.227c-7.57-.324-13.633-6.566-13.633-14.215v-18.484zm64.66 110.23H177.445v-16.184a56.02 56.02 0 0 1 8.949-30.41 22.54 22.54 0 0 1 19.027-10.375h13.77v2.551c0 5.676 4.602 10.281 10.281 10.281s10.281-4.605 10.281-10.281v-2.551h11.156c7.727 0 14.84 3.875 19.027 10.371 5.855 9.09 8.949 19.605 8.949 30.414zm166.652-57.734c-6.348-9.852-16.23-16.531-27.418-18.867a34.55 34.55 0 0 0 3.473-15.145v-18.484c0-19.195-15.613-34.809-34.805-34.809s-34.809 15.613-34.809 34.809v18.484a34.59 34.59 0 0 0 3.414 15.023c-11.414 2.227-21.512 8.977-27.969 18.988a76.58 76.58 0 0 0-12.227 41.551v26.465c0 5.676 4.605 10.281 10.281 10.281h122.004c5.68 0 10.281-4.605 10.281-10.281v-26.465c0-14.77-4.227-29.137-12.227-41.551zm-72.996-52.496c0-7.855 6.391-14.246 14.246-14.246s14.242 6.391 14.242 14.246v18.484c0 7.648-6.062 13.891-13.629 14.215h-1.23c-7.566-.324-13.633-6.566-13.633-14.215v-18.484zm64.66 110.23H335.762v-16.184a56.02 56.02 0 0 1 8.949-30.41 22.55 22.55 0 0 1 19.027-10.375h21.824l1.227.031c.41 0 .82-.016 1.227-.031h21.211a22.54 22.54 0 0 1 19.027 10.375 56.02 56.02 0 0 1 8.949 30.41zm-333.777-76.601a34.6 34.6 0 0 0 3.473-15.145v-18.484c0-19.195-15.617-34.809-34.809-34.809s-34.809 15.613-34.809 34.809v18.484a34.59 34.59 0 0 0 3.414 15.023c-11.418 2.23-21.516 8.977-27.969 18.988C4.73 446.117.5 460.484.5 475.254v26.465C.5 507.395 5.105 512 10.781 512h122.004c5.68 0 10.281-4.605 10.281-10.281v-26.465c0-14.77-4.227-29.137-12.227-41.551a42.99 42.99 0 0 0-27.414-18.867zm-45.582-33.629c0-7.855 6.391-14.246 14.246-14.246s14.242 6.391 14.242 14.246v18.484c0 7.648-6.059 13.891-13.629 14.215h-1.23c-7.566-.324-13.629-6.566-13.629-14.215zm64.66 110.23H21.063v-16.184a56.05 56.05 0 0 1 8.953-30.414c4.184-6.492 11.297-10.371 19.023-10.371h21.824l1.227.031c.41 0 .816-.016 1.227-.031h21.211a22.54 22.54 0 0 1 19.027 10.375 56.02 56.02 0 0 1 8.949 30.41zM71.785 330.98c5.676 0 10.281-4.602 10.281-10.281v-12.082h137.918v12.082a10.28 10.28 0 0 0 10.281 10.281c5.676 0 10.281-4.602 10.281-10.281v-12.082h135.719v12.082a10.28 10.28 0 0 0 10.281 10.281c5.676 0 10.281-4.602 10.281-10.281v-22.461c0-5.68-4.605-10.281-10.281-10.281a10.18 10.18 0 0 0-1.348.098H240.953v-22.637h42.84a10.28 10.28 0 0 0 10.281-10.281v-37.098c0-.074-.008-.141-.008-.211a9.47 9.47 0 0 0-.023-.445 10.86 10.86 0 0 0-.066-.703l-.059-.391a10.27 10.27 0 0 0-.168-.781c-.02-.066-.027-.133-.043-.199l-11.312-41.07c25.84-16.969 42.941-46.203 42.941-79.359 0-52.317-42.563-94.88-94.875-94.88s-94.875 42.563-94.875 94.879c0 33.402 17.352 62.824 43.512 79.734l-12.035 40.332c-.012.031-.02.063-.031.098l-.016.055c-.012.035-.016.074-.027.109a11.2 11.2 0 0 0-.227.957 10.88 10.88 0 0 0-.051.352c-.039.246-.066.496-.086.75a8.35 8.35 0 0 0-.023.441c-.004.109-.016.219-.016.332v37.098c0 5.68 4.605 10.281 10.281 10.281h43.523v22.637H73.133a10.94 10.94 0 0 0-1.348-.098c-5.68 0-10.281 4.605-10.281 10.281v22.465a10.28 10.28 0 0 0 10.281 10.277zm158.676-161.789a74.2 74.2 0 0 1-15.695-1.684v-37.121h32.699v36.816c-5.465 1.285-11.152 1.988-17.004 1.988zm-74.312-74.312c0-40.977 33.336-74.316 74.313-74.316s74.313 33.34 74.313 74.316c0 27.273-14.781 51.152-36.746 64.078v-28.57h10.281a10.28 10.28 0 0 0 10.281-10.281c0-5.676-4.602-10.281-10.281-10.281h-10.281V99.816a10.28 10.28 0 0 0-10.281-10.281c-5.676 0-10.281 4.602-10.281 10.281v10.008h-32.699V99.816c0-5.68-4.605-10.281-10.281-10.281a10.29 10.29 0 0 0-10.285 10.281v10.008h-11.164a10.29 10.29 0 0 0-10.285 10.281c0 5.68 4.605 10.281 10.285 10.281h11.164v29.324c-22.68-12.738-38.051-37.02-38.051-64.832zm44.859 90.188a7.85 7.85 0 0 0 .668.219 94.54 94.54 0 0 0 28.785 4.469c9.578 0 18.824-1.43 27.551-4.082a10.23 10.23 0 0 0 5.684-1.895l6.602 23.98h-79.633l7.105-23.809a90.35 90.35 0 0 0 3.238 1.117zm-13.859 43.254h86.363v16.535h-86.363zM337.953 38.543a10.24 10.24 0 0 0 6.105-2.016l24.313-17.977c4.566-3.375 5.531-9.812 2.156-14.379a10.28 10.28 0 0 0-14.379-2.156l-24.316 17.977c-4.566 3.375-5.531 9.813-2.156 14.379a10.27 10.27 0 0 0 8.277 4.172zm14.777 48.066c-4.566-3.375-11.004-2.41-14.379 2.156s-2.41 11.004 2.152 14.379l24.316 17.977a10.24 10.24 0 0 0 6.105 2.016 10.27 10.27 0 0 0 8.277-4.168 10.29 10.29 0 0 0-2.156-14.383zm0 0"/><path d="M336.832 60.547c0 5.676 4.605 10.281 10.281 10.281h30.242c5.676 0 10.281-4.605 10.281-10.281s-4.605-10.281-10.281-10.281h-30.242c-5.676 0-10.281 4.602-10.281 10.281zM86.973 18.551l24.316 17.977a10.24 10.24 0 0 0 6.105 2.016c3.148 0 6.262-1.445 8.277-4.172 3.375-4.566 2.41-11.004-2.156-14.379L99.199 2.016C94.633-1.359 88.195-.395 84.82 4.168c-3.375 4.57-2.414 11.004 2.152 14.383zm15.644 68.058l-24.316 17.977a10.29 10.29 0 0 0-2.156 14.383 10.27 10.27 0 0 0 8.277 4.168 10.24 10.24 0 0 0 6.105-2.016l24.313-17.977c4.566-3.375 5.531-9.812 2.156-14.379s-9.816-5.531-14.379-2.156zM77.992 70.828h30.238a10.29 10.29 0 0 0 10.285-10.281c0-5.68-4.605-10.281-10.285-10.281H77.992c-5.676 0-10.281 4.602-10.281 10.281s4.605 10.281 10.281 10.281zm126.254.274a10.27 10.27 0 0 0 2.363-.277l.453-.105c5.527-1.301 8.953-6.832 7.656-12.359s-6.836-8.953-12.363-7.656l-.453.105a10.28 10.28 0 0 0 2.344 20.293zm22.82 395.457l-.453.109a10.28 10.28 0 0 0 2.348 20.293 10.26 10.26 0 0 0 2.359-.277l.453-.105c5.527-1.301 8.957-6.836 7.656-12.363a10.29 10.29 0 0 0-12.363-7.656zm0 0"/><defs ><path id="B" d="M228.469 424.285c-13.547 0-24.527-10.98-24.527-24.527v-18.484c0-13.547 10.98-24.527 24.527-24.527s24.527 10.98 24.527 24.527v18.484c0 13.547-10.98 24.527-24.527 24.527zm0 0"/></defs></svg>