<svg xmlns="http://www.w3.org/2000/svg" viewBox="0 0 512 512" xmlns:v="https://vecta.io/nano"><path d="M185.379 418.957H326.62v80.066H185.379z" fill="#95a5a5"/><path d="M476.69 79.448H35.31A35.3 35.3 0 0 0 0 114.759v291.31a35.3 35.3 0 0 0 35.31 35.31h441.38a35.3 35.3 0 0 0 35.31-35.31v-291.31a35.3 35.3 0 0 0-10.339-24.971c-6.623-6.623-15.606-10.342-24.971-10.34z" fill="#bdc3c7"/><path d="M512 370.759v-256a35.3 35.3 0 0 0-10.339-24.971c-6.623-6.623-15.605-10.342-24.971-10.339H35.31a35.3 35.3 0 0 0-24.971 10.339C3.716 96.41-.003 105.393 0 114.759v256h512z" fill="#35495e"/><path d="M123.586 476.69h264.828a8.83 8.83 0 0 1 8.828 8.828v17.655a8.83 8.83 0 0 1-8.828 8.828H123.586a8.83 8.83 0 0 1-8.828-8.828v-17.655a8.83 8.83 0 0 1 8.828-8.828z" fill="#bdc3c7"/><path d="M344.276 194.207l27.454 64.883c1.081 3.429 4.261 5.76 7.857 5.76a8.24 8.24 0 0 0 7.857-5.76l27.454-64.883h26.483a17.71 17.71 0 0 0 17.655-17.655V17.655C459.006 7.916 451.118.029 441.379 0H317.793a17.71 17.71 0 0 0-17.655 17.655V35.31l44.138 158.897z" fill="#46b29d"/><path d="M344.276 112.199c4.454-4.724 9.832-8.48 15.801-11.034.088 0 .177-.088.265-.088h34.869c.088 0 .177.088.265.088a46.02 46.02 0 0 1 28.248 42.372v7.68a7.69 7.69 0 0 1-7.68 7.68h-71.768v-46.698z" fill="#90bae1"/><path d="M344.276 59.41c5.495-16.392 22.06-26.385 39.123-23.601s29.593 17.524 29.593 34.812-12.53 32.028-29.593 34.812-33.628-7.209-39.123-23.601V59.41z" fill="#b0d3f0"/><path d="M167.724 194.207L140.27 259.09c-1.081 3.429-4.261 5.76-7.857 5.76a8.24 8.24 0 0 1-7.857-5.76l-27.454-64.883H70.621a17.71 17.71 0 0 1-17.655-17.655V17.655A17.71 17.71 0 0 1 70.621 0h123.586a17.71 17.71 0 0 1 17.655 17.655V35.31l-44.138 158.897z" fill="#46b29d"/><path d="M344.276 52.966v194.207a17.71 17.71 0 0 1-17.655 17.655h-35.31l-27.454 64.883a8.24 8.24 0 0 1-15.714 0l-27.454-64.883h-35.31a17.71 17.71 0 0 1-17.655-17.655V52.966a17.71 17.71 0 0 1 17.655-17.655H326.62a17.71 17.71 0 0 1 17.656 17.655z" fill="#4482c3"/><path d="M276.127 154.041c19.879 8.148 32.856 27.509 32.839 48.993v8.828c-.014 4.869-3.958 8.813-8.828 8.828h-88.276c-4.869-.014-8.813-3.958-8.828-8.828v-8.828c-.018-21.484 12.96-40.845 32.839-48.993h40.254z" fill="#46b29d"/><path d="M167.724 112.199c-4.454-4.724-9.832-8.48-15.801-11.034-.088 0-.177-.088-.265-.088h-34.869c-.088 0-.177.088-.265.088a46.02 46.02 0 0 0-28.248 42.372v7.68a7.69 7.69 0 0 0 7.68 7.68h71.768v-46.698z" fill="#90bae1"/><g fill="#f0c419"><circle cx="132.414" cy="317.793" r="26.483"/><circle cx="379.586" cy="317.793" r="26.483"/></g><path d="M300.138 114.759c0 24.377-19.761 44.138-44.138 44.138s-44.138-19.761-44.138-44.138S231.623 70.621 256 70.621c11.713-.023 22.953 4.62 31.236 12.902a44.05 44.05 0 0 1 12.902 31.236z" fill="#65ddb9"/><path d="M167.724 59.41c-5.495-16.392-22.06-26.385-39.123-23.601S99.009 53.333 99.009 70.621s12.53 32.028 29.593 34.812 33.628-7.209 39.123-23.601V59.41z" fill="#b0d3f0"/></svg>