<svg xmlns="http://www.w3.org/2000/svg" viewBox="0 0 512 512" xmlns:v="https://vecta.io/nano"><path d="M30 256c0-50.931 16.535-99.009 47.816-139.038 5.101-6.527 3.945-15.954-2.583-21.056s-15.954-3.944-21.055 2.583C18.735 143.844 0 198.311 0 256s18.735 112.156 54.179 157.511c5.074 6.495 14.497 7.708 21.055 2.583 6.527-5.102 7.684-14.528 2.583-21.056C46.535 355.009 30 306.931 30 256z" fill="#5458ea"/><path d="M256,51C142.962,51,51,142.963,51,256s91.962,205,205,205s205-91.963,205-205S369.038,51,256,51z" fill="#72a3fc"/><path d="M256,51v410c113.038,0,205-91.963,205-205S369.038,51,256,51z" fill="#2892fc"/><path d="M231.251 316.104l-14.142 14.142c-9.747 9.747-25.607 9.748-35.355 0s-9.748-25.608 0-35.355l42.427-42.427c9.747-9.745 25.608-9.748 35.355.001 5.858 5.857 15.356 5.856 21.213-.001s5.857-15.355 0-21.214c-21.445-21.441-56.337-21.441-77.781.001l-42.427 42.427c-21.443 21.444-21.443 56.337 0 77.781 21.492 21.493 56.285 21.498 77.782 0l14.142-14.142c5.858-5.857 5.858-15.354 0-21.213s-15.355-5.858-21.214 0zm42.427-155.563l-14.142 14.142c-5.858 5.857-5.858 15.354 0 21.213s15.355 5.858 21.213 0l14.142-14.142c9.748-9.746 25.608-9.747 35.355 0s9.748 25.608 0 35.355l-42.427 42.427c-9.747 9.746-25.608 9.747-35.355-.001-5.858-5.857-15.356-5.856-21.213.001s-5.857 15.355 0 21.214c21.447 21.443 56.336 21.443 77.781-.001l42.427-42.427c21.443-21.444 21.443-56.337 0-77.781-21.492-21.493-56.284-21.498-77.781 0z" fill="#f9f9f9"/><path d="M457.821 98.489c-5.101-6.528-14.528-7.684-21.055-2.583s-7.684 14.528-2.583 21.056C465.465 156.991 482 205.069 482 256s-16.535 99.009-47.816 139.038c-5.101 6.527-3.945 15.954 2.583 21.056 6.5 5.079 15.931 3.974 21.055-2.583C493.265 368.156 512 313.689 512 256s-18.735-112.156-54.179-157.511z" fill="#394bf6"/><g fill="#dfe4ea"><path d="M256 321.754v9.914c1.121-3.206 1.121-6.708 0-9.914zm24.749-90.504A54.64 54.64 0 0 0 256 217.02v32.512c1.244.854 2.431 1.828 3.536 2.933 5.858 5.857 15.356 5.856 21.213-.001s5.857-15.356 0-21.214zM256 190.246v-9.914c-1.121 3.206-1.121 6.708 0 9.914z"/><path d="M351.459 160.541c-21.492-21.493-56.285-21.498-77.782 0l-14.142 14.142a14.91 14.91 0 0 0-3.536 5.649v9.914c.721 2.062 1.888 4.002 3.535 5.65 5.857 5.858 15.355 5.858 21.213 0l14.142-14.142c9.748-9.746 25.608-9.747 35.355 0s9.748 25.608 0 35.355l-42.427 42.427c-8.642 8.641-22.088 9.615-31.82 2.931v32.513c18.329 4.846 38.687.113 53.033-14.232l42.427-42.427c21.446-21.443 21.446-56.336.002-77.78z"/></g></svg>