<svg xmlns="http://www.w3.org/2000/svg" viewBox="0 0 58 58" xmlns:v="https://vecta.io/nano"><path d="M58 14H0V3.412A1.41 1.41 0 0 1 1.412 2h55.176A1.41 1.41 0 0 1 58 3.412V14z" fill="#4b5f99"/><path d="M3 14v38.59A3.41 3.41 0 0 0 6.41 56h45.18A3.41 3.41 0 0 0 55 52.59V14H3z" fill="#6379b7"/><path d="M13 56H6.41A3.41 3.41 0 0 1 3 52.59V46h0a10 10 0 0 1 10 10h0zm38.59 0H45h0a10 10 0 0 1 10-10h0v6.59A3.41 3.41 0 0 1 51.59 56z" fill="#4b5f99"/><path d="M34.495 30h-10.99A3.51 3.51 0 0 1 20 26.495V25a1 1 0 1 1 2 0v1.495c0 .83.675 1.505 1.505 1.505h10.99c.83 0 1.505-.675 1.505-1.505V25a1 1 0 1 1 2 0v1.495A3.51 3.51 0 0 1 34.495 30z" fill="#e7eced"/><path d="M3 14h52v6H3z" fill="#5f77aa"/></svg>