<svg xmlns="http://www.w3.org/2000/svg" height="512" viewBox="0 0 24 24" width="512" xmlns:v="https://vecta.io/nano"><path d="m15.7 18.15-.03.08-5.67 5.6 2.51-6.83z" fill="#1e88e5"/><g fill="#64b5f6"><path d="M23.854.306a.75.75 0 0 0-.952-.221l-22.5 11.75a.75.75 0 0 0-.402.707.75.75 0 0 0 .479.657l7.75 3c.088.034.18.051.271.051.195 0 .387-.076.53-.22L23.78 1.28a.75.75 0 0 0 .074-.974z"/><path d="M23.498.042c-.324-.111-.684.008-.874.295l-10.74 16.25c-.127.191-.159.431-.086.649a.75.75 0 0 0 .458.469l8.989 3.25A.75.75 0 0 0 21.5 21c.141 0 .281-.04.403-.117a.75.75 0 0 0 .344-.565l1.75-19.5a.75.75 0 0 0-.499-.776z"/></g><path d="M23.25.75L12.255 17.705 10 23.83 8 16z" fill="#2196f3"/></svg>