<svg xmlns="http://www.w3.org/2000/svg" height="512" width="512" xmlns:v="https://vecta.io/nano"><path d="M194.678 430.102h241.969a12.17 12.17 0 0 0 12.167-12.167V81.898H194.678z" fill="#e49542"/><path d="M423.467 81.898v348.204h13.18a12.17 12.17 0 0 0 12.167-12.167V81.898z" fill="#e28424"/><path d="M194.678 430.102H75.353a12.17 12.17 0 0 1-12.167-12.167V81.898h131.493v348.204z" fill="#eab14d"/><path d="M130.049 179.61a2.56 2.56 0 0 1-2.136 1.148H2.561a2.56 2.56 0 0 1-2.256-1.349c-.446-.831-.4-1.839.12-2.626l62.001-93.737a2.56 2.56 0 0 1 2.136-1.148h130.116z" fill="#f1cb86"/><path d="M259.308 179.61a2.56 2.56 0 0 0 2.136 1.148h247.994a2.56 2.56 0 0 0 2.256-1.349c.446-.831.4-1.839-.12-2.626l-62.001-93.737a2.56 2.56 0 0 0-2.136-1.148H194.678z" fill="#eab14d"/><path d="M355.029 430.102h-66.565v-43.165a2.56 2.56 0 0 1 2.561-2.561h61.442a2.56 2.56 0 0 1 2.561 2.561v43.165z" fill="#df6b57"/><path d="M336.214 384.376v45.726h18.815v-43.165a2.56 2.56 0 0 0-2.561-2.561z" fill="#dd544f"/><path d="M410.254 324.097l-19.328-13.572c-2.687-1.887-6.269-1.887-8.956 0l-19.328 13.572c-3.523 2.473-4.373 7.333-1.9 10.855a7.79 7.79 0 0 0 10.855 1.9l7.057-4.955v21.858c0 4.304 3.489 7.793 7.793 7.793s7.793-3.489 7.793-7.793v-21.858l7.057 4.955c1.362.957 2.924 1.417 4.471 1.417a7.78 7.78 0 0 0 6.384-3.316 7.79 7.79 0 0 0-1.898-10.856zm-97.68-94.536h-73.872c-4.304 0-7.793-3.489-7.793-7.793s3.489-7.793 7.793-7.793h73.872c4.304 0 7.793 3.489 7.793 7.793s-3.489 7.793-7.793 7.793zm-28.907 30.834h-44.966c-4.304 0-7.793-3.489-7.793-7.793s3.489-7.793 7.793-7.793h44.966c4.304 0 7.793 3.489 7.793 7.793s-3.488 7.793-7.793 7.793z" fill="#e7ecf6"/></svg>