<svg width="30" height="30" viewBox="0 0 30 30" fill="none" xmlns="http://www.w3.org/2000/svg">
<path d="M5.47782 0.000488281C2.44335 0.000488281 0 2.44383 0 5.4783V24.5226C0 27.5571 2.44335 30.0005 5.47782 30.0005H15.7997V18.2723H12.6985V14.0498H15.7997V10.4424C15.7997 7.60811 17.6321 5.0058 21.8531 5.0058C23.5622 5.0058 24.826 5.16987 24.826 5.16987L24.7266 9.113C24.7266 9.113 23.4377 9.10082 22.0312 9.10082C20.5091 9.10082 20.265 9.80216 20.265 10.9665V14.0499H24.8475L24.6478 18.2724H20.265V30.0005H24.5222C27.5567 30.0005 30 27.5571 30 24.5227V5.47833C30 2.44386 27.5567 0.000518281 24.5222 0.000518281H5.47779L5.47782 0.000488281Z" fill="white"/>
</svg>
