<svg width="30" height="30" viewBox="0 0 30 30" fill="none" xmlns="http://www.w3.org/2000/svg">
<path d="M10.1367 20.938C10.1888 20.8599 10.1693 20.7752 10.0781 20.6841C9.96094 20.5929 9.86979 20.5799 9.80469 20.645C9.7526 20.7231 9.77214 20.8078 9.86328 20.8989C9.98047 20.9901 10.0716 21.0031 10.1367 20.938ZM9.58984 20.1372C9.52474 20.0461 9.44661 20.02 9.35547 20.0591C9.27734 20.1112 9.27734 20.1893 9.35547 20.2935C9.44661 20.3976 9.52474 20.4302 9.58984 20.3911C9.66797 20.339 9.66797 20.2544 9.58984 20.1372ZM8.78906 19.356C8.8151 19.3039 8.78255 19.2518 8.69141 19.1997C8.60026 19.1737 8.54818 19.1867 8.53516 19.2388C8.49609 19.3039 8.52214 19.356 8.61328 19.395C8.71745 19.4211 8.77604 19.408 8.78906 19.356ZM9.19922 19.8052C9.22526 19.7922 9.23503 19.7629 9.22852 19.7173C9.222 19.6717 9.19922 19.6359 9.16016 19.6099C9.08203 19.5187 9.01693 19.4992 8.96484 19.5513C8.91276 19.6034 8.91927 19.675 8.98438 19.7661C9.0625 19.8442 9.13411 19.8573 9.19922 19.8052ZM10.8789 21.27C10.9049 21.1789 10.8464 21.1073 10.7031 21.0552C10.5859 21.0161 10.5013 21.0422 10.4492 21.1333C10.4232 21.2244 10.4818 21.2961 10.625 21.3481C10.7422 21.3872 10.8268 21.3612 10.8789 21.27ZM11.6992 21.3286C11.6992 21.2244 11.6211 21.1724 11.4648 21.1724C11.3346 21.1724 11.2695 21.2244 11.2695 21.3286C11.2695 21.4328 11.3411 21.4849 11.4844 21.4849C11.6276 21.4849 11.6992 21.4328 11.6992 21.3286ZM12.4609 21.1919C12.4349 21.1007 12.3503 21.0682 12.207 21.0942C12.0638 21.1203 12.0052 21.1789 12.0312 21.27C12.0573 21.3742 12.1354 21.4132 12.2656 21.3872C12.3958 21.3612 12.4609 21.2961 12.4609 21.1919ZM25 15.0005C25 12.2401 24.0234 9.8833 22.0703 7.93018C20.1172 5.97705 17.7604 5.00049 15 5.00049C12.2396 5.00049 9.88281 5.97705 7.92969 7.93018C5.97656 9.8833 5 12.2401 5 15.0005C5 17.175 5.63802 19.1313 6.91406 20.8696C8.1901 22.6079 9.83073 23.8156 11.8359 24.4927C12.0703 24.5317 12.2428 24.4992 12.3535 24.395C12.4642 24.2909 12.5195 24.1606 12.5195 24.0044C12.5195 23.3273 12.513 22.7088 12.5 22.1489C12.4219 22.1619 12.321 22.1782 12.1973 22.1978C12.0736 22.2173 11.8424 22.2303 11.5039 22.2368C11.1654 22.2433 10.8529 22.2173 10.5664 22.1587C10.2799 22.1001 9.99675 21.9699 9.7168 21.7681C9.43685 21.5662 9.24479 21.2961 9.14062 20.9575C8.84115 20.1893 8.47005 19.7075 8.02734 19.5122C8.0013 19.4992 7.97201 19.4764 7.93945 19.4438L7.7832 19.2876L7.64648 19.1021L7.72461 18.9556L8.10547 18.8872C8.18359 18.8872 8.28125 18.9002 8.39844 18.9263C8.51562 18.9523 8.71094 19.0532 8.98438 19.229C9.25781 19.4048 9.47266 19.6359 9.62891 19.9224C9.83724 20.2869 10.0814 20.5604 10.3613 20.7427C10.6413 20.925 10.9245 21.0161 11.2109 21.0161C11.4974 21.0161 11.7448 20.9933 11.9531 20.9478C12.1615 20.9022 12.3568 20.8403 12.5391 20.7622C12.6302 20.1502 12.8451 19.701 13.1836 19.4146C12.5456 19.3364 11.9857 19.216 11.5039 19.0532C11.0221 18.8905 10.5469 18.6366 10.0781 18.2915C9.60938 17.9465 9.24805 17.4517 8.99414 16.8071C8.74023 16.1626 8.61328 15.3846 8.61328 14.4731C8.61328 13.4445 8.95833 12.5526 9.64844 11.7974C9.33594 10.9901 9.36849 10.1047 9.74609 9.14111C9.99349 9.06299 10.3483 9.11182 10.8105 9.2876C11.2728 9.46338 11.6667 9.65544 11.9922 9.86377L12.5 10.1763C13.2552 9.95492 14.0885 9.84424 15 9.84424C15.9115 9.84424 16.7448 9.95492 17.5 10.1763C17.6432 10.0851 17.8288 9.96794 18.0566 9.82471C18.2845 9.68148 18.6458 9.51221 19.1406 9.31689C19.6354 9.12158 20.0065 9.06299 20.2539 9.14111C20.6315 10.1047 20.6641 10.9901 20.3516 11.7974C21.0417 12.5526 21.3867 13.4445 21.3867 14.4731C21.3867 15.2153 21.2956 15.8696 21.1133 16.436C20.931 17.0024 20.6999 17.4582 20.4199 17.8032C20.14 18.1483 19.7917 18.438 19.375 18.6724C18.9583 18.9067 18.5514 19.076 18.1543 19.1802C17.7572 19.2843 17.3112 19.3625 16.8164 19.4146C17.2721 19.8182 17.5 20.4367 17.5 21.27C17.5 21.7909 17.4967 22.3703 17.4902 23.0083C17.4837 23.6463 17.4805 23.9784 17.4805 24.0044C17.4805 24.1606 17.5358 24.2909 17.6465 24.395C17.7572 24.4992 17.9297 24.5317 18.1641 24.4927C20.1693 23.8156 21.8099 22.6079 23.0859 20.8696C24.362 19.1313 25 17.175 25 15.0005ZM30 5.62549V24.3755C30 25.925 29.4499 27.2498 28.3496 28.3501C27.2493 29.4504 25.9245 30.0005 24.375 30.0005H5.625C4.07552 30.0005 2.75065 29.4504 1.65039 28.3501C0.55013 27.2498 0 25.925 0 24.3755V5.62549C0 4.07601 0.55013 2.75114 1.65039 1.65088C2.75065 0.550619 4.07552 0.000488281 5.625 0.000488281H24.375C25.9245 0.000488281 27.2493 0.550619 28.3496 1.65088C29.4499 2.75114 30 4.07601 30 5.62549Z" fill="white"/>
</svg>
