<svg width="30" height="30" viewBox="0 0 30 30" fill="none" xmlns="http://www.w3.org/2000/svg">
<path d="M5.87888 0.000488281C2.64596 0.000488281 0 2.64638 0 5.87937V24.1226C0 27.3555 2.6459 30.0005 5.87888 30.0005H24.1221C27.355 30.0005 30 27.3555 30 24.1226V5.87937C30 2.64644 27.355 0.000488281 24.1221 0.000488281H5.87888ZM7.35751 4.95109C8.90762 4.95109 9.86243 5.96872 9.8919 7.30637C9.8919 8.61449 8.90756 9.66072 7.32752 9.66072H7.29844C5.77782 9.66072 4.79499 8.61455 4.79499 7.30637C4.79499 5.96875 5.80757 4.95109 7.35748 4.95109H7.35751ZM20.7157 11.2031C23.6969 11.2031 25.9317 13.1516 25.9317 17.3389V25.1558H21.4012V17.863C21.4012 16.0304 20.7455 14.7801 19.1059 14.7801C17.8542 14.7801 17.1081 15.6228 16.7806 16.4369C16.6609 16.7281 16.6315 17.1349 16.6315 17.5423V25.1558H12.1009C12.1009 25.1558 12.1604 12.802 12.1009 11.5228H16.6324V13.4534C17.2345 12.5245 18.3114 11.2031 20.7157 11.2031V11.2031ZM5.06222 11.5238H9.59279V25.1558H5.06222V11.5238Z" fill="white"/>
</svg>
