<svg width="30" height="30" viewBox="0 0 30 30" fill="none" xmlns="http://www.w3.org/2000/svg">
<path d="M25 9.41455C24.2708 9.74007 23.4831 9.96143 22.6367 10.0786C23.5221 9.55778 24.1276 8.79606 24.4531 7.79346C23.6068 8.28825 22.7344 8.62028 21.8359 8.78955C21.0417 7.93018 20.0456 7.50049 18.8477 7.50049C17.7148 7.50049 16.748 7.90088 15.9473 8.70166C15.1465 9.50244 14.7461 10.4692 14.7461 11.6021C14.7461 11.9797 14.7786 12.2922 14.8438 12.5396C13.1641 12.4484 11.5885 12.0252 10.1172 11.27C8.64583 10.5148 7.39583 9.5057 6.36719 8.24268C5.98958 8.89372 5.80078 9.58382 5.80078 10.313C5.80078 11.7974 6.39323 12.9367 7.57812 13.731C6.96615 13.7179 6.3151 13.5487 5.625 13.2231V13.2622C5.625 14.2388 5.95052 15.1079 6.60156 15.8696C7.2526 16.6313 8.05339 17.1034 9.00391 17.2856C8.6263 17.3898 8.29427 17.4419 8.00781 17.4419C7.83854 17.4419 7.58464 17.4159 7.24609 17.3638C7.51953 18.1841 8.00456 18.8612 8.70117 19.395C9.39779 19.9289 10.1888 20.2023 11.0742 20.2153C9.5638 21.3872 7.86458 21.9731 5.97656 21.9731C5.63802 21.9731 5.3125 21.9536 5 21.9146C6.92708 23.1385 9.02344 23.7505 11.2891 23.7505C12.7474 23.7505 14.1146 23.5194 15.3906 23.0571C16.6667 22.5949 17.7604 21.9764 18.6719 21.2017C19.5833 20.4269 20.3678 19.535 21.0254 18.5259C21.6829 17.5168 22.1712 16.4621 22.4902 15.3618C22.8092 14.2616 22.9688 13.1646 22.9688 12.0708C22.9688 11.8364 22.9622 11.6606 22.9492 11.5435C23.7695 10.9575 24.4531 10.2479 25 9.41455ZM30 5.62549V24.3755C30 25.925 29.4499 27.2498 28.3496 28.3501C27.2493 29.4504 25.9245 30.0005 24.375 30.0005H5.625C4.07552 30.0005 2.75065 29.4504 1.65039 28.3501C0.55013 27.2498 0 25.925 0 24.3755V5.62549C0 4.07601 0.55013 2.75114 1.65039 1.65088C2.75065 0.550619 4.07552 0.000488281 5.625 0.000488281H24.375C25.9245 0.000488281 27.2493 0.550619 28.3496 1.65088C29.4499 2.75114 30 4.07601 30 5.62549Z" fill="white"/>
</svg>
